<?xml version="1.0" encoding="UTF-8" standalone="no"?>
<!DOCTYPE svg PUBLIC "-//W3C//DTD SVG 1.1//EN"
 "http://www.w3.org/Graphics/SVG/1.1/DTD/svg11.dtd">
<!-- Generated by graphviz version 12.2.1 (20241206.2353)
 -->
<!-- Title: DGtal::CountedConstPtrOrConstPtr&lt; T &gt; Pages: 1 -->
<!--zoomable 801 -->

<svg id="main" version="1.1" xmlns="http://www.w3.org/2000/svg" xmlns:xlink="http://www.w3.org/1999/xlink" xml:space="preserve" onload="init(evt)">

<style type="text/css"><![CDATA[
.node, .edge {opacity: 0.7;}
.node.selected, .edge.selected {opacity: 1;}
.edge:hover path { stroke: red; }
.edge:hover polygon { stroke: red; fill: red; }
]]></style>

<defs>
  <circle id="rim" cx="0" cy="0" r="7"/>
  <circle id="rim2" cx="0" cy="0" r="3.5"/>
  <g id="zoomPlus">
    <use xlink:href="#rim" fill="#404040"><set attributeName="fill" to="#808080" begin="zoomplus.mouseover" end="zoomplus.mouseout"/></use>
    <path d="M-4,0h8M0,-4v8" fill="none" stroke="white" stroke-width="1.5" pointer-events="none"/>
  </g>
  <g id="zoomMin">
    <use xlink:href="#rim" fill="#404040"><set attributeName="fill" to="#808080" begin="zoomminus.mouseover" end="zoomminus.mouseout"/></use>
    <path d="M-4,0h8" fill="none" stroke="white" stroke-width="1.5" pointer-events="none"/>
  </g>
  <g id="arrowUp" transform="translate(30 24)">
    <use xlink:href="#rim"/>
    <path pointer-events="none" fill="none" stroke="white" stroke-width="1.5" d="M0,-3.0v7 M-2.5,-0.5L0,-3.0L2.5,-0.5"/>
  </g>
  <g id="arrowRight" transform="rotate(90) translate(36 -43)">
    <use xlink:href="#rim"/>
    <path pointer-events="none" fill="none" stroke="white" stroke-width="1.5" d="M0,-3.0v7 M-2.5,-0.5L0,-3.0L2.5,-0.5"/>
  </g>
  <g id="arrowDown" transform="rotate(180) translate(-30 -48)">
    <use xlink:href="#rim"/>
    <path pointer-events="none" fill="none" stroke="white" stroke-width="1.5" d="M0,-3.0v7 M-2.5,-0.5L0,-3.0L2.5,-0.5"/>
  </g>
  <g id="arrowLeft" transform="rotate(270) translate(-36 17)">
    <use xlink:href="#rim"/>
    <path pointer-events="none" fill="none" stroke="white" stroke-width="1.5" d="M0,-3.0v7 M-2.5,-0.5L0,-3.0L2.5,-0.5"/>
  </g>
  <g id="resetDef">
    <use xlink:href="#rim2" fill="#404040"><set attributeName="fill" to="#808080" begin="reset.mouseover" end="reset.mouseout"/></use>
  </g>
</defs>
<script type="application/ecmascript">
var viewWidth = 482;
var viewHeight = 801;
var sectionId = 'dynsection-0';
</script>
<script type="application/ecmascript" xlink:href="svg.min.js"/>
<svg id="graph" class="graph">
<g id="viewport">
<title>DGtal::CountedConstPtrOrConstPtr&lt; T &gt;</title>
<!-- Node1 -->
<g id="Node000001" class="node">
<title>Node1</title>
<g id="a_Node000001"><a xlink:title="Aim: Smart or simple const pointer on T. It can be a smart pointer based on reference counts or a sim...">
<polygon fill="#999999" stroke="#666666" points="133.75,-408.42 0,-408.42 0,-377.92 133.75,-377.92 133.75,-408.42"/>
<text text-anchor="start" x="8" y="-394.92" font-family="FreeSans" font-size="10.00">DGtal::CountedConstPtrOr</text>
<text text-anchor="middle" x="66.88" y="-383.67" font-family="FreeSans" font-size="10.00">ConstPtr&lt; T &gt;</text>
</a>
</g>
</g>
<!-- Node2 -->
<g id="Node000002" class="node">
<title>Node2</title>
<g id="a_Node000002"><a xlink:href="classDGtal_1_1CountedConstPtrOrConstPtr.html" target="_top" xlink:title=" ">
<polygon fill="white" stroke="#666666" points="451.62,-786.42 317.88,-786.42 317.88,-755.92 451.62,-755.92 451.62,-786.42"/>
<text text-anchor="start" x="325.88" y="-772.92" font-family="FreeSans" font-size="10.00">DGtal::CountedConstPtrOr</text>
<text text-anchor="middle" x="384.75" y="-761.67" font-family="FreeSans" font-size="10.00">ConstPtr&lt; DummyTbl &gt;</text>
</a>
</g>
</g>
<!-- Node1&#45;&gt;Node2 -->
<g id="edge1_Node000001_Node000002" class="edge">
<title>Node1&#45;&gt;Node2</title>
<g id="a_edge1_Node000001_Node000002"><a xlink:title=" ">
<path fill="none" stroke="orange" stroke-dasharray="5,2" d="M70.45,-419.81C78.13,-493.55 103.45,-697.82 151.75,-741.17 196.18,-781.05 266.08,-785.02 317.55,-781.18"/>
<polygon fill="orange" stroke="orange" points="73.97,-419.86 69.48,-410.26 67,-420.56 73.97,-419.86"/>
</a>
</g>
<text text-anchor="middle" x="214.75" y="-783.79" font-family="FreeSans" font-size="10.00" fill="grey"> &lt; DummyTbl &gt;</text>
</g>
<!-- Node3 -->
<g id="Node000003" class="node">
<title>Node3</title>
<g id="a_Node000003"><a xlink:href="classDGtal_1_1CountedConstPtrOrConstPtr.html" target="_top" xlink:title=" ">
<polygon fill="white" stroke="#666666" points="467.75,-738.05 301.75,-738.05 301.75,-696.3 467.75,-696.3 467.75,-738.05"/>
<text text-anchor="start" x="309.75" y="-724.55" font-family="FreeSans" font-size="10.00">DGtal::CountedConstPtrOr</text>
<text text-anchor="start" x="309.75" y="-713.3" font-family="FreeSans" font-size="10.00">ConstPtr&lt; DGtal::DiscreteExterior</text>
<text text-anchor="middle" x="384.75" y="-702.05" font-family="FreeSans" font-size="10.00">Calculus &gt;</text>
</a>
</g>
</g>
<!-- Node1&#45;&gt;Node3 -->
<g id="edge2_Node000001_Node000003" class="edge">
<title>Node1&#45;&gt;Node3</title>
<g id="a_edge2_Node000001_Node000003"><a xlink:title=" ">
<path fill="none" stroke="orange" stroke-dasharray="5,2" d="M71.72,-419.95C81.73,-485.59 110.65,-651.8 151.75,-687.17 173.83,-706.19 244.06,-713.31 301.51,-715.9"/>
<polygon fill="orange" stroke="orange" points="75.19,-419.44 70.25,-410.06 68.26,-420.47 75.19,-419.44"/>
</a>
</g>
<text text-anchor="start" x="157.75" y="-727.48" font-family="FreeSans" font-size="10.00" fill="grey"> &lt; DGtal::DiscreteExterior</text>
<text text-anchor="middle" x="214.75" y="-716.23" font-family="FreeSans" font-size="10.00" fill="grey">Calculus &gt;</text>
</g>
<!-- Node4 -->
<g id="Node000004" class="node">
<title>Node4</title>
<g id="a_Node000004"><a xlink:href="classDGtal_1_1CountedConstPtrOrConstPtr.html" target="_top" xlink:title=" ">
<polygon fill="white" stroke="#666666" points="451.62,-678.42 317.88,-678.42 317.88,-647.92 451.62,-647.92 451.62,-678.42"/>
<text text-anchor="start" x="325.88" y="-664.92" font-family="FreeSans" font-size="10.00">DGtal::CountedConstPtrOr</text>
<text text-anchor="middle" x="384.75" y="-653.67" font-family="FreeSans" font-size="10.00">ConstPtr&lt; ShapeA &gt;</text>
</a>
</g>
</g>
<!-- Node1&#45;&gt;Node4 -->
<g id="edge3_Node000001_Node000004" class="edge">
<title>Node1&#45;&gt;Node4</title>
<g id="a_edge3_Node000001_Node000004"><a xlink:title=" ">
<path fill="none" stroke="orange" stroke-dasharray="5,2" d="M68.61,-420.17C71.57,-470.78 85.73,-579.61 151.75,-633.17 197.8,-670.53 266.78,-675.04 317.56,-672.01"/>
<polygon fill="orange" stroke="orange" points="72.12,-420.25 68.16,-410.42 65.13,-420.57 72.12,-420.25"/>
</a>
</g>
<text text-anchor="middle" x="214.75" y="-674.12" font-family="FreeSans" font-size="10.00" fill="grey"> &lt; ShapeA &gt;</text>
</g>
<!-- Node5 -->
<g id="Node000005" class="node">
<title>Node5</title>
<g id="a_Node000005"><a xlink:href="classDGtal_1_1CountedConstPtrOrConstPtr.html" target="_top" xlink:title=" ">
<polygon fill="white" stroke="#666666" points="451.62,-629.42 317.88,-629.42 317.88,-598.92 451.62,-598.92 451.62,-629.42"/>
<text text-anchor="start" x="325.88" y="-615.92" font-family="FreeSans" font-size="10.00">DGtal::CountedConstPtrOr</text>
<text text-anchor="middle" x="384.75" y="-604.67" font-family="FreeSans" font-size="10.00">ConstPtr&lt; ShapeB &gt;</text>
</a>
</g>
</g>
<!-- Node1&#45;&gt;Node5 -->
<g id="edge4_Node000001_Node000005" class="edge">
<title>Node1&#45;&gt;Node5</title>
<g id="a_edge4_Node000001_Node000005"><a xlink:title=" ">
<path fill="none" stroke="orange" stroke-dasharray="5,2" d="M71.98,-420.03C79.73,-460.96 100.63,-538.26 151.75,-577.17 198.89,-613.06 267.22,-620.13 317.53,-619.54"/>
<polygon fill="orange" stroke="orange" points="75.44,-419.55 70.27,-410.31 68.55,-420.76 75.44,-419.55"/>
</a>
</g>
<text text-anchor="middle" x="214.75" y="-619.83" font-family="FreeSans" font-size="10.00" fill="grey"> &lt; ShapeB &gt;</text>
</g>
<!-- Node6 -->
<g id="Node000006" class="node">
<title>Node6</title>
<g id="a_Node000006"><a xlink:href="classDGtal_1_1CountedConstPtrOrConstPtr.html" target="_top" xlink:title=" ">
<polygon fill="white" stroke="#666666" points="451.62,-580.42 317.88,-580.42 317.88,-549.92 451.62,-549.92 451.62,-580.42"/>
<text text-anchor="start" x="325.88" y="-566.92" font-family="FreeSans" font-size="10.00">DGtal::CountedConstPtrOr</text>
<text text-anchor="middle" x="384.75" y="-555.67" font-family="FreeSans" font-size="10.00">ConstPtr&lt; Surface &gt;</text>
</a>
</g>
</g>
<!-- Node1&#45;&gt;Node6 -->
<g id="edge5_Node000001_Node000006" class="edge">
<title>Node1&#45;&gt;Node6</title>
<g id="a_edge5_Node000001_Node000006"><a xlink:title=" ">
<path fill="none" stroke="orange" stroke-dasharray="5,2" d="M78.05,-419.5C90.74,-448.67 115.31,-494.79 151.75,-519.17 200.9,-552.05 268.16,-562.5 317.61,-565.34"/>
<polygon fill="orange" stroke="orange" points="81.28,-418.16 74.2,-410.27 74.82,-420.85 81.28,-418.16"/>
</a>
</g>
<text text-anchor="middle" x="214.75" y="-563.23" font-family="FreeSans" font-size="10.00" fill="grey"> &lt; Surface &gt;</text>
</g>
<!-- Node7 -->
<g id="Node000007" class="node">
<title>Node7</title>
<g id="a_Node000007"><a xlink:href="classDGtal_1_1CountedConstPtrOrConstPtr.html" target="_top" xlink:title=" ">
<polygon fill="white" stroke="#666666" points="456.5,-531.42 313,-531.42 313,-500.92 456.5,-500.92 456.5,-531.42"/>
<text text-anchor="start" x="321" y="-517.92" font-family="FreeSans" font-size="10.00">DGtal::CountedConstPtrOr</text>
<text text-anchor="middle" x="384.75" y="-506.67" font-family="FreeSans" font-size="10.00">ConstPtr&lt; EuclideanShape &gt;</text>
</a>
</g>
</g>
<!-- Node1&#45;&gt;Node7 -->
<g id="edge6_Node000001_Node000007" class="edge">
<title>Node1&#45;&gt;Node7</title>
<g id="a_edge6_Node000001_Node000007"><a xlink:title=" ">
<path fill="none" stroke="orange" stroke-dasharray="5,2" d="M88.88,-416.93C104.6,-433.23 127.5,-454.03 151.75,-466.17 202.22,-491.45 265.12,-503.99 312.68,-510.19"/>
<polygon fill="orange" stroke="orange" points="91.77,-414.89 82.37,-409.99 86.66,-419.68 91.77,-414.89"/>
</a>
</g>
<text text-anchor="middle" x="214.75" y="-505.93" font-family="FreeSans" font-size="10.00" fill="grey"> &lt; EuclideanShape &gt;</text>
</g>
<!-- Node8 -->
<g id="Node000008" class="node">
<title>Node8</title>
<g id="a_Node000008"><a xlink:href="classDGtal_1_1CountedConstPtrOrConstPtr.html" target="_top" xlink:title=" ">
<polygon fill="white" stroke="#666666" points="473,-482.42 296.5,-482.42 296.5,-451.92 473,-451.92 473,-482.42"/>
<text text-anchor="start" x="304.5" y="-468.92" font-family="FreeSans" font-size="10.00">DGtal::CountedConstPtrOr</text>
<text text-anchor="middle" x="384.75" y="-457.67" font-family="FreeSans" font-size="10.00">ConstPtr&lt; DigitalSurfaceContainer &gt;</text>
</a>
</g>
</g>
<!-- Node1&#45;&gt;Node8 -->
<g id="edge7_Node000001_Node000008" class="edge">
<title>Node1&#45;&gt;Node8</title>
<g id="a_edge7_Node000001_Node000008"><a xlink:title=" ">
<path fill="none" stroke="orange" stroke-dasharray="5,2" d="M116.51,-412.75C127.95,-416.9 140.18,-420.99 151.75,-424.17 198.85,-437.14 252.41,-447.36 296.19,-454.57"/>
<polygon fill="orange" stroke="orange" points="117.85,-409.51 107.26,-409.3 115.41,-416.07 117.85,-409.51"/>
</a>
</g>
<text text-anchor="middle" x="214.75" y="-453.08" font-family="FreeSans" font-size="10.00" fill="grey"> &lt; DigitalSurfaceContainer &gt;</text>
</g>
<!-- Node9 -->
<g id="Node000009" class="node">
<title>Node9</title>
<g id="a_Node000009"><a xlink:href="classDGtal_1_1CountedConstPtrOrConstPtr.html" target="_top" xlink:title=" ">
<polygon fill="white" stroke="#666666" points="453.12,-433.42 316.38,-433.42 316.38,-402.92 453.12,-402.92 453.12,-433.42"/>
<text text-anchor="start" x="324.38" y="-419.92" font-family="FreeSans" font-size="10.00">DGtal::CountedConstPtrOr</text>
<text text-anchor="middle" x="384.75" y="-408.67" font-family="FreeSans" font-size="10.00">ConstPtr&lt; PointPredicate &gt;</text>
</a>
</g>
</g>
<!-- Node1&#45;&gt;Node9 -->
<g id="edge8_Node000001_Node000009" class="edge">
<title>Node1&#45;&gt;Node9</title>
<g id="a_edge8_Node000001_Node000009"><a xlink:title=" ">
<path fill="none" stroke="orange" stroke-dasharray="5,2" d="M145.32,-399.3C197.58,-403.44 265.89,-408.85 315.99,-412.81"/>
<polygon fill="orange" stroke="orange" points="145.85,-395.83 135.6,-398.53 145.29,-402.81 145.85,-395.83"/>
</a>
</g>
<text text-anchor="middle" x="214.75" y="-411.12" font-family="FreeSans" font-size="10.00" fill="grey"> &lt; PointPredicate &gt;</text>
</g>
<!-- Node10 -->
<g id="Node000010" class="node">
<title>Node10</title>
<g id="a_Node000010"><a xlink:href="classDGtal_1_1CountedConstPtrOrConstPtr.html" target="_top" xlink:title=" ">
<polygon fill="white" stroke="#666666" points="467.75,-384.42 301.75,-384.42 301.75,-353.92 467.75,-353.92 467.75,-384.42"/>
<text text-anchor="start" x="309.75" y="-370.92" font-family="FreeSans" font-size="10.00">DGtal::CountedConstPtrOr</text>
<text text-anchor="middle" x="384.75" y="-359.67" font-family="FreeSans" font-size="10.00">ConstPtr&lt; DGtal::DigitalSurface &gt;</text>
</a>
</g>
</g>
<!-- Node1&#45;&gt;Node10 -->
<g id="edge9_Node000001_Node000010" class="edge">
<title>Node1&#45;&gt;Node10</title>
<g id="a_edge9_Node000001_Node000010"><a xlink:title=" ">
<path fill="none" stroke="orange" stroke-dasharray="5,2" d="M145.55,-385.45C147.63,-385.27 149.71,-385.09 151.75,-384.92 201.34,-380.8 256.95,-377 301.3,-374.16"/>
<polygon fill="orange" stroke="orange" points="145.4,-381.95 135.75,-386.32 146.02,-388.92 145.4,-381.95"/>
</a>
</g>
<text text-anchor="middle" x="214.75" y="-386.67" font-family="FreeSans" font-size="10.00" fill="grey"> &lt; DGtal::DigitalSurface &gt;</text>
</g>
<!-- Node11 -->
<g id="Node000011" class="node">
<title>Node11</title>
<g id="a_Node000011"><a xlink:href="classDGtal_1_1CountedConstPtrOrConstPtr.html" target="_top" xlink:title=" ">
<polygon fill="white" stroke="#666666" points="451.62,-335.42 317.88,-335.42 317.88,-304.92 451.62,-304.92 451.62,-335.42"/>
<text text-anchor="start" x="325.88" y="-321.92" font-family="FreeSans" font-size="10.00">DGtal::CountedConstPtrOr</text>
<text text-anchor="middle" x="384.75" y="-310.67" font-family="FreeSans" font-size="10.00">ConstPtr&lt; Metric &gt;</text>
</a>
</g>
</g>
<!-- Node1&#45;&gt;Node11 -->
<g id="edge10_Node000001_Node000011" class="edge">
<title>Node1&#45;&gt;Node11</title>
<g id="a_edge10_Node000001_Node000011"><a xlink:title=" ">
<path fill="none" stroke="orange" stroke-dasharray="5,2" d="M114.73,-373.33C126.65,-368.79 139.55,-364.31 151.75,-360.92 206.72,-345.68 270.67,-334.95 317.5,-328.34"/>
<polygon fill="orange" stroke="orange" points="113.55,-370.03 105.51,-376.93 116.1,-376.55 113.55,-370.03"/>
</a>
</g>
<text text-anchor="middle" x="214.75" y="-362.67" font-family="FreeSans" font-size="10.00" fill="grey"> &lt; Metric &gt;</text>
</g>
<!-- Node12 -->
<g id="Node000012" class="node">
<title>Node12</title>
<g id="a_Node000012"><a xlink:href="classDGtal_1_1CountedConstPtrOrConstPtr.html" target="_top" xlink:title=" ">
<polygon fill="white" stroke="#666666" points="463.62,-286.42 305.88,-286.42 305.88,-255.92 463.62,-255.92 463.62,-286.42"/>
<text text-anchor="start" x="313.88" y="-272.92" font-family="FreeSans" font-size="10.00">DGtal::CountedConstPtrOr</text>
<text text-anchor="middle" x="384.75" y="-261.67" font-family="FreeSans" font-size="10.00">ConstPtr&lt; ConvolutionFunctor &gt;</text>
</a>
</g>
</g>
<!-- Node1&#45;&gt;Node12 -->
<g id="edge11_Node000001_Node000012" class="edge">
<title>Node1&#45;&gt;Node12</title>
<g id="a_edge11_Node000001_Node000012"><a xlink:title=" ">
<path fill="none" stroke="orange" stroke-dasharray="5,2" d="M88.48,-369.24C104.16,-352.58 127.16,-331.22 151.75,-318.92 199.65,-294.96 258.87,-283.02 305.48,-277.08"/>
<polygon fill="orange" stroke="orange" points="86.16,-366.59 82,-376.33 91.33,-371.31 86.16,-366.59"/>
</a>
</g>
<text text-anchor="middle" x="214.75" y="-320.67" font-family="FreeSans" font-size="10.00" fill="grey"> &lt; ConvolutionFunctor &gt;</text>
</g>
<!-- Node13 -->
<g id="Node000013" class="node">
<title>Node13</title>
<g id="a_Node000013"><a xlink:href="classDGtal_1_1CountedConstPtrOrConstPtr.html" target="_top" xlink:title=" ">
<polygon fill="white" stroke="#666666" points="451.62,-237.42 317.88,-237.42 317.88,-206.92 451.62,-206.92 451.62,-237.42"/>
<text text-anchor="start" x="325.88" y="-223.92" font-family="FreeSans" font-size="10.00">DGtal::CountedConstPtrOr</text>
<text text-anchor="middle" x="384.75" y="-212.67" font-family="FreeSans" font-size="10.00">ConstPtr&lt; KSpace &gt;</text>
</a>
</g>
</g>
<!-- Node1&#45;&gt;Node13 -->
<g id="edge12_Node000001_Node000013" class="edge">
<title>Node1&#45;&gt;Node13</title>
<g id="a_edge12_Node000001_Node000013"><a xlink:title=" ">
<path fill="none" stroke="orange" stroke-dasharray="5,2" d="M77.81,-367.22C90.41,-337.99 115.01,-291.39 151.75,-266.92 200.92,-234.18 268.18,-224.12 317.62,-221.58"/>
<polygon fill="orange" stroke="orange" points="74.58,-365.87 74,-376.45 81.05,-368.54 74.58,-365.87"/>
</a>
</g>
<text text-anchor="middle" x="214.75" y="-268.67" font-family="FreeSans" font-size="10.00" fill="grey"> &lt; KSpace &gt;</text>
</g>
<!-- Node14 -->
<g id="Node000014" class="node">
<title>Node14</title>
<g id="a_Node000014"><a xlink:href="classDGtal_1_1CountedConstPtrOrConstPtr.html" target="_top" xlink:title=" ">
<polygon fill="white" stroke="#666666" points="451.62,-188.42 317.88,-188.42 317.88,-157.92 451.62,-157.92 451.62,-188.42"/>
<text text-anchor="start" x="325.88" y="-174.92" font-family="FreeSans" font-size="10.00">DGtal::CountedConstPtrOr</text>
<text text-anchor="middle" x="384.75" y="-163.67" font-family="FreeSans" font-size="10.00">ConstPtr&lt; Shape &gt;</text>
</a>
</g>
</g>
<!-- Node1&#45;&gt;Node14 -->
<g id="edge13_Node000001_Node000014" class="edge">
<title>Node1&#45;&gt;Node14</title>
<g id="a_edge13_Node000001_Node000014"><a xlink:title=" ">
<path fill="none" stroke="orange" stroke-dasharray="5,2" d="M72,-366.42C79.8,-325.65 100.75,-248.64 151.75,-209.92 198.93,-174.11 267.26,-167.11 317.55,-167.75"/>
<polygon fill="orange" stroke="orange" points="68.59,-365.64 70.29,-376.1 75.48,-366.86 68.59,-365.64"/>
</a>
</g>
<text text-anchor="middle" x="214.75" y="-211.67" font-family="FreeSans" font-size="10.00" fill="grey"> &lt; Shape &gt;</text>
</g>
<!-- Node15 -->
<g id="Node000015" class="node">
<title>Node15</title>
<g id="a_Node000015"><a xlink:href="classDGtal_1_1CountedConstPtrOrConstPtr.html" target="_top" xlink:title=" ">
<polygon fill="white" stroke="#666666" points="473.75,-140.05 295.75,-140.05 295.75,-98.3 473.75,-98.3 473.75,-140.05"/>
<text text-anchor="start" x="303.75" y="-126.55" font-family="FreeSans" font-size="10.00">DGtal::CountedConstPtrOr</text>
<text text-anchor="start" x="303.75" y="-115.3" font-family="FreeSans" font-size="10.00">ConstPtr&lt; DGtal::VoronoiCovariance</text>
<text text-anchor="middle" x="384.75" y="-104.05" font-family="FreeSans" font-size="10.00">MeasureOnDigitalSurface &gt;</text>
</a>
</g>
</g>
<!-- Node1&#45;&gt;Node15 -->
<g id="edge14_Node000001_Node000015" class="edge">
<title>Node1&#45;&gt;Node15</title>
<g id="a_edge14_Node000001_Node000015"><a xlink:title=" ">
<path fill="none" stroke="orange" stroke-dasharray="5,2" d="M68.01,-366.32C69.87,-313.93 82.1,-198.35 151.75,-142.67 191.44,-110.95 247.97,-104.68 295.29,-106.54"/>
<polygon fill="orange" stroke="orange" points="64.52,-366.05 67.78,-376.13 71.51,-366.22 64.52,-366.05"/>
</a>
</g>
<text text-anchor="start" x="151.75" y="-155.67" font-family="FreeSans" font-size="10.00" fill="grey"> &lt; DGtal::VoronoiCovariance</text>
<text text-anchor="middle" x="214.75" y="-144.42" font-family="FreeSans" font-size="10.00" fill="grey">MeasureOnDigitalSurface &gt;</text>
</g>
<!-- Node16 -->
<g id="Node000016" class="node">
<title>Node16</title>
<g id="a_Node000016"><a xlink:href="classDGtal_1_1CountedConstPtrOrConstPtr.html" target="_top" xlink:title=" ">
<polygon fill="white" stroke="#666666" points="456.12,-80.42 313.38,-80.42 313.38,-49.92 456.12,-49.92 456.12,-80.42"/>
<text text-anchor="start" x="321.38" y="-66.92" font-family="FreeSans" font-size="10.00">DGtal::CountedConstPtrOr</text>
<text text-anchor="middle" x="384.75" y="-55.67" font-family="FreeSans" font-size="10.00">ConstPtr&lt; Eigen::MatrixXd &gt;</text>
</a>
</g>
</g>
<!-- Node1&#45;&gt;Node16 -->
<g id="edge15_Node000001_Node000016" class="edge">
<title>Node1&#45;&gt;Node16</title>
<g id="a_edge15_Node000001_Node000016"><a xlink:title=" ">
<path fill="none" stroke="orange" stroke-dasharray="5,2" d="M71.44,-366.5C80.97,-299.54 109.2,-127.15 151.75,-90.92 195.64,-53.55 262.39,-49.76 313.04,-53.77"/>
<polygon fill="orange" stroke="orange" points="68,-365.83 70.09,-376.22 74.94,-366.79 68,-365.83"/>
</a>
</g>
<text text-anchor="middle" x="214.75" y="-92.67" font-family="FreeSans" font-size="10.00" fill="grey"> &lt; Eigen::MatrixXd &gt;</text>
</g>
<!-- Node17 -->
<g id="Node000017" class="node">
<title>Node17</title>
<g id="a_Node000017"><a xlink:href="classDGtal_1_1CountedConstPtrOrConstPtr.html" target="_top" xlink:title=" ">
<polygon fill="white" stroke="#666666" points="469.62,-31.42 299.88,-31.42 299.88,-0.92 469.62,-0.92 469.62,-31.42"/>
<text text-anchor="start" x="307.88" y="-17.92" font-family="FreeSans" font-size="10.00">DGtal::CountedConstPtrOr</text>
<text text-anchor="middle" x="384.75" y="-6.67" font-family="FreeSans" font-size="10.00">ConstPtr&lt; VCMOnDigitalSurface &gt;</text>
</a>
</g>
</g>
<!-- Node1&#45;&gt;Node17 -->
<g id="edge16_Node000001_Node000017" class="edge">
<title>Node1&#45;&gt;Node17</title>
<g id="a_edge16_Node000001_Node000017"><a xlink:title=" ">
<path fill="none" stroke="orange" stroke-dasharray="5,2" d="M70.21,-366.33C77.35,-291.04 101.5,-80.5 151.75,-36.92 191.54,-2.42 250.9,2.35 299.61,-1.3"/>
<polygon fill="orange" stroke="orange" points="66.74,-365.81 69.31,-376.09 73.71,-366.45 66.74,-365.81"/>
</a>
</g>
<text text-anchor="middle" x="214.75" y="-38.67" font-family="FreeSans" font-size="10.00" fill="grey"> &lt; VCMOnDigitalSurface &gt;</text>
</g>
</g>
</svg>

<g id="navigator" transform="translate(0 0)" fill="#404254">
  <rect fill="#f2f5e9" fill-opacity="0.5" stroke="#606060" stroke-width=".5" x="0" y="0" width="60" height="60"/>
  <use id="zoomplus" xlink:href="#zoomPlus" x="17" y="9" onmousedown="handleZoom(evt,'in')"/>
  <use id="zoomminus" xlink:href="#zoomMin" x="42" y="9" onmousedown="handleZoom(evt,'out')"/>
  <use id="reset" xlink:href="#resetDef" x="30" y="36" onmousedown="handleReset()"/>
   <use id="arrowup" xlink:href="#arrowUp" x="0" y="0" onmousedown="handlePan(0,-1)"/>
  <use id="arrowright" xlink:href="#arrowRight" x="0" y="0" onmousedown="handlePan(1,0)"/>
  <use id="arrowdown" xlink:href="#arrowDown" x="0" y="0" onmousedown="handlePan(0,1)"/>
  <use id="arrowleft" xlink:href="#arrowLeft" x="0" y="0" onmousedown="handlePan(-1,0)"/>
</g>
<svg viewBox="0 0 15 15" width="100%" height="30px" preserveAspectRatio="xMaxYMin meet">
 <g id="arrow_out" transform="scale(0.3 0.3)">
  <a xlink:href="classDGtal_1_1CountedConstPtrOrConstPtr__inherit__graph_org.svg" target="_base">
   <rect id="button" ry="5" rx="5" y="6" x="6" height="38" width="38"
        fill="#f2f5e9" fill-opacity="0.5" stroke="#606060" stroke-width="1.0"/>
   <path id="arrow"
     d="M 11.500037,31.436501 C 11.940474,20.09759 22.043105,11.32322 32.158766,21.979434 L 37.068811,17.246167 C 37.068811,17.246167 37.088388,32 37.088388,32 L 22.160133,31.978069 C 22.160133,31.978069 26.997745,27.140456 26.997745,27.140456 C 18.528582,18.264221 13.291696,25.230495 11.500037,31.436501 z"
     style="fill:#404040;"/>
  </a>
 </g>
</svg>

<style type='text/css'>
<![CDATA[
[data-mouse-over-selected='false'] { opacity: 0.7; }
[data-mouse-over-selected='true']  { opacity: 1.0; }
]]>
</style>
<script type="application/ecmascript"><![CDATA[
document.addEventListener('DOMContentLoaded', (event) => {
  highlightEdges();
  highlightAdjacentNodes();
});
]]></script>
</svg>
