<?xml version="1.0" encoding="UTF-8" standalone="no"?>
<!DOCTYPE svg PUBLIC "-//W3C//DTD SVG 1.1//EN"
 "http://www.w3.org/Graphics/SVG/1.1/DTD/svg11.dtd">
<!-- Generated by graphviz version 12.2.1 (20241206.2353)
 -->
<!-- Title: DGtal::detail::CurvatureFromDSSBaseEstimator&lt; DSSComputer, Functor &gt; Pages: 1 -->
<svg width="686pt" height="132pt"
 viewBox="0.00 0.00 685.50 132.00" xmlns="http://www.w3.org/2000/svg" xmlns:xlink="http://www.w3.org/1999/xlink">
<g id="graph0" class="graph" transform="scale(1 1) rotate(0) translate(4 128)">
<title>DGtal::detail::CurvatureFromDSSBaseEstimator&lt; DSSComputer, Functor &gt;</title>
<!-- Node1 -->
<g id="Node000001" class="node">
<title>Node1</title>
<g id="a_Node000001"><a xlink:title=" ">
<polygon fill="#999999" stroke="#666666" points="130,-82.38 0,-82.38 0,-40.62 130,-40.62 130,-82.38"/>
<text text-anchor="start" x="8" y="-68.88" font-family="FreeSans" font-size="10.00">DGtal::detail::Curvature</text>
<text text-anchor="start" x="8" y="-57.62" font-family="FreeSans" font-size="10.00">FromDSSBaseEstimator&lt;</text>
<text text-anchor="middle" x="65" y="-46.38" font-family="FreeSans" font-size="10.00"> DSSComputer, Functor &gt;</text>
</a>
</g>
</g>
<!-- Node2 -->
<g id="Node000002" class="node">
<title>Node2</title>
<g id="a_Node000002"><a xlink:href="classDGtal_1_1detail_1_1CurvatureFromDSSBaseEstimator.html" target="_top" xlink:title=" ">
<polygon fill="white" stroke="#666666" points="464.75,-124 304.75,-124 304.75,-71 464.75,-71 464.75,-124"/>
<text text-anchor="start" x="312.75" y="-110.5" font-family="FreeSans" font-size="10.00">DGtal::detail::Curvature</text>
<text text-anchor="start" x="312.75" y="-99.25" font-family="FreeSans" font-size="10.00">FromDSSBaseEstimator&lt;</text>
<text text-anchor="start" x="312.75" y="-88" font-family="FreeSans" font-size="10.00"> DSSComputer, detail::Curvature</text>
<text text-anchor="middle" x="384.75" y="-76.75" font-family="FreeSans" font-size="10.00">FromDSSLengthAndWidth &gt;</text>
</a>
</g>
</g>
<!-- Node1&#45;&gt;Node2 -->
<g id="edge1_Node000001_Node000002" class="edge">
<title>Node1&#45;&gt;Node2</title>
<g id="a_edge1_Node000001_Node000002"><a xlink:title=" ">
<path fill="none" stroke="orange" stroke-dasharray="5,2" d="M141.49,-70.05C190.57,-75.61 254.48,-82.85 304.33,-88.5"/>
<polygon fill="orange" stroke="orange" points="142.14,-66.6 131.81,-68.96 141.35,-73.56 142.14,-66.6"/>
</a>
</g>
<text text-anchor="start" x="148" y="-110.11" font-family="FreeSans" font-size="10.00" fill="grey"> &lt; DSSComputer, detail</text>
<text text-anchor="start" x="148" y="-98.86" font-family="FreeSans" font-size="10.00" fill="grey">::CurvatureFromDSSLengthAnd</text>
<text text-anchor="middle" x="217.38" y="-87.61" font-family="FreeSans" font-size="10.00" fill="grey">Width &gt;</text>
</g>
<!-- Node4 -->
<g id="Node000004" class="node">
<title>Node4</title>
<g id="a_Node000004"><a xlink:href="classDGtal_1_1detail_1_1CurvatureFromDSSBaseEstimator.html" target="_top" xlink:title=" ">
<polygon fill="white" stroke="#666666" points="464.75,-53 304.75,-53 304.75,0 464.75,0 464.75,-53"/>
<text text-anchor="start" x="312.75" y="-39.5" font-family="FreeSans" font-size="10.00">DGtal::detail::Curvature</text>
<text text-anchor="start" x="312.75" y="-28.25" font-family="FreeSans" font-size="10.00">FromDSSBaseEstimator&lt;</text>
<text text-anchor="start" x="312.75" y="-17" font-family="FreeSans" font-size="10.00"> DSSComputer, detail::Curvature</text>
<text text-anchor="middle" x="384.75" y="-5.75" font-family="FreeSans" font-size="10.00">FromDSSLength &gt;</text>
</a>
</g>
</g>
<!-- Node1&#45;&gt;Node4 -->
<g id="edge3_Node000001_Node000004" class="edge">
<title>Node1&#45;&gt;Node4</title>
<g id="a_edge3_Node000001_Node000004"><a xlink:title=" ">
<path fill="none" stroke="orange" stroke-dasharray="5,2" d="M141.46,-46.93C143.66,-46.6 145.85,-46.29 148,-46 199.89,-38.97 258.57,-34.11 304.41,-30.99"/>
<polygon fill="orange" stroke="orange" points="141.18,-43.43 131.85,-48.44 142.27,-50.34 141.18,-43.43"/>
</a>
</g>
<text text-anchor="start" x="152.12" y="-59" font-family="FreeSans" font-size="10.00" fill="grey"> &lt; DSSComputer, detail</text>
<text text-anchor="middle" x="217.38" y="-47.75" font-family="FreeSans" font-size="10.00" fill="grey">::CurvatureFromDSSLength &gt;</text>
</g>
<!-- Node3 -->
<g id="Node000003" class="node">
<title>Node3</title>
<g id="a_Node000003"><a xlink:href="classDGtal_1_1CurvatureFromDSSEstimator.html" target="_top" xlink:title=" ">
<polygon fill="white" stroke="#666666" points="677.5,-112.75 501.75,-112.75 501.75,-82.25 677.5,-82.25 677.5,-112.75"/>
<text text-anchor="start" x="509.75" y="-99.25" font-family="FreeSans" font-size="10.00">DGtal::CurvatureFromDSSEstimator</text>
<text text-anchor="middle" x="589.62" y="-88" font-family="FreeSans" font-size="10.00">&lt; DSSComputer &gt;</text>
</a>
</g>
</g>
<!-- Node2&#45;&gt;Node3 -->
<g id="edge2_Node000002_Node000003" class="edge">
<title>Node2&#45;&gt;Node3</title>
<g id="a_edge2_Node000002_Node000003"><a xlink:title=" ">
<path fill="none" stroke="#63b8ff" d="M476.31,-97.5C484.62,-97.5 493.03,-97.5 501.31,-97.5"/>
<polygon fill="#63b8ff" stroke="#63b8ff" points="476.57,-94 466.57,-97.5 476.57,-101 476.57,-94"/>
</a>
</g>
</g>
<!-- Node5 -->
<g id="Node000005" class="node">
<title>Node5</title>
<g id="a_Node000005"><a xlink:href="classDGtal_1_1CurvatureFromDSSLengthEstimator.html" target="_top" xlink:title=" ">
<polygon fill="white" stroke="#666666" points="671.12,-41.75 508.12,-41.75 508.12,-11.25 671.12,-11.25 671.12,-41.75"/>
<text text-anchor="start" x="516.12" y="-28.25" font-family="FreeSans" font-size="10.00">DGtal::CurvatureFromDSSLength</text>
<text text-anchor="middle" x="589.62" y="-17" font-family="FreeSans" font-size="10.00">Estimator&lt; DSSComputer &gt;</text>
</a>
</g>
</g>
<!-- Node4&#45;&gt;Node5 -->
<g id="edge4_Node000004_Node000005" class="edge">
<title>Node4&#45;&gt;Node5</title>
<g id="a_edge4_Node000004_Node000005"><a xlink:title=" ">
<path fill="none" stroke="#63b8ff" d="M476.32,-26.5C486.78,-26.5 497.39,-26.5 507.7,-26.5"/>
<polygon fill="#63b8ff" stroke="#63b8ff" points="476.57,-23 466.57,-26.5 476.57,-30 476.57,-23"/>
</a>
</g>
</g>
</g>
</svg>
