<?xml version="1.0" encoding="UTF-8" standalone="no"?>
<!DOCTYPE svg PUBLIC "-//W3C//DTD SVG 1.1//EN"
 "http://www.w3.org/Graphics/SVG/1.1/DTD/svg11.dtd">
<!-- Generated by graphviz version 12.2.1 (20241206.2353)
 -->
<!-- Title: DGtal::StandardDSS4&lt; TCoordinate, TInteger &gt; Pages: 1 -->
<svg width="232pt" height="195pt"
 viewBox="0.00 0.00 231.62 195.00" xmlns="http://www.w3.org/2000/svg" xmlns:xlink="http://www.w3.org/1999/xlink">
<g id="graph0" class="graph" transform="scale(1 1) rotate(0) translate(4 191)">
<title>DGtal::StandardDSS4&lt; TCoordinate, TInteger &gt;</title>
<!-- Node1 -->
<g id="Node000001" class="node">
<title>Node1</title>
<g id="a_Node000001"><a xlink:title="Aim: This class represents a standard digital straight segment (DSS), ie. the sequence of simply 4&#45;co...">
<polygon fill="#999999" stroke="#666666" points="143.5,-30.5 14.25,-30.5 14.25,0 143.5,0 143.5,-30.5"/>
<text text-anchor="start" x="22.25" y="-17" font-family="FreeSans" font-size="10.00">DGtal::StandardDSS4</text>
<text text-anchor="middle" x="78.88" y="-5.75" font-family="FreeSans" font-size="10.00">&lt; TCoordinate, TInteger &gt;</text>
</a>
</g>
</g>
<!-- Node2 -->
<g id="Node000002" class="node">
<title>Node2</title>
<g id="a_Node000002"><a xlink:href="classDGtal_1_1ArithmeticalDSS.html" target="_top" xlink:title=" ">
<polygon fill="white" stroke="#666666" points="157.75,-98 0,-98 0,-67.5 157.75,-67.5 157.75,-98"/>
<text text-anchor="start" x="8" y="-84.5" font-family="FreeSans" font-size="10.00">DGtal::ArithmeticalDSS</text>
<text text-anchor="middle" x="78.88" y="-73.25" font-family="FreeSans" font-size="10.00">&lt; TCoordinate, TCoordinate, 4 &gt;</text>
</a>
</g>
</g>
<!-- Node2&#45;&gt;Node1 -->
<g id="edge1_Node000001_Node000002" class="edge">
<title>Node2&#45;&gt;Node1</title>
<g id="a_edge1_Node000001_Node000002"><a xlink:title=" ">
<path fill="none" stroke="#63b8ff" d="M78.88,-55.84C78.88,-47.3 78.88,-38.12 78.88,-30.75"/>
<polygon fill="#63b8ff" stroke="#63b8ff" points="75.38,-55.7 78.88,-65.7 82.38,-55.7 75.38,-55.7"/>
</a>
</g>
</g>
<!-- Node3 -->
<g id="Node000003" class="node">
<title>Node3</title>
<g id="a_Node000003"><a xlink:href="classDGtal_1_1ArithmeticalDSS.html" target="_top" xlink:title="Aim: This class represents a naive (resp. standard) digital straight segment (DSS),...">
<polygon fill="white" stroke="#666666" points="140.12,-187 17.62,-187 17.62,-145.25 140.12,-145.25 140.12,-187"/>
<text text-anchor="start" x="25.62" y="-173.5" font-family="FreeSans" font-size="10.00">DGtal::ArithmeticalDSS</text>
<text text-anchor="start" x="25.62" y="-162.25" font-family="FreeSans" font-size="10.00">&lt; TCoordinate, TInteger,</text>
<text text-anchor="middle" x="78.88" y="-151" font-family="FreeSans" font-size="10.00"> adjacency &gt;</text>
</a>
</g>
</g>
<!-- Node3&#45;&gt;Node2 -->
<g id="edge2_Node000002_Node000003" class="edge">
<title>Node3&#45;&gt;Node2</title>
<g id="a_edge2_Node000002_Node000003"><a xlink:title=" ">
<path fill="none" stroke="orange" stroke-dasharray="5,2" d="M78.88,-133.8C78.88,-121.57 78.88,-108.14 78.88,-98.27"/>
<polygon fill="orange" stroke="orange" points="75.38,-133.5 78.88,-143.5 82.38,-133.5 75.38,-133.5"/>
</a>
</g>
<text text-anchor="middle" x="151.25" y="-117.75" font-family="FreeSans" font-size="10.00" fill="grey"> &lt; TCoordinate, TCoordinate, 4 &gt;</text>
</g>
</g>
</svg>
