<?xml version="1.0" encoding="UTF-8" standalone="no"?>
<!DOCTYPE svg PUBLIC "-//W3C//DTD SVG 1.1//EN"
 "http://www.w3.org/Graphics/SVG/1.1/DTD/svg11.dtd">
<!-- Generated by graphviz version 12.2.1 (20241206.2353)
 -->
<!-- Title: DGtal::TangentFromDCAEstimator&lt; DCAComputer &gt; Pages: 1 -->
<svg width="738pt" height="51pt"
 viewBox="0.00 0.00 738.00 51.38" xmlns="http://www.w3.org/2000/svg" xmlns:xlink="http://www.w3.org/1999/xlink">
<g id="graph0" class="graph" transform="scale(1 1) rotate(0) translate(4 47.38)">
<title>DGtal::TangentFromDCAEstimator&lt; DCAComputer &gt;</title>
<!-- Node1 -->
<g id="Node000001" class="node">
<title>Node1</title>
<g id="a_Node000001"><a xlink:title=" ">
<polygon fill="#999999" stroke="#666666" points="730,-36.12 561.75,-36.12 561.75,-5.62 730,-5.62 730,-36.12"/>
<text text-anchor="start" x="569.75" y="-22.62" font-family="FreeSans" font-size="10.00">DGtal::TangentFromDCAEstimator</text>
<text text-anchor="middle" x="645.88" y="-11.38" font-family="FreeSans" font-size="10.00">&lt; DCAComputer &gt;</text>
</a>
</g>
</g>
<!-- Node2 -->
<g id="Node000002" class="node">
<title>Node2</title>
<g id="a_Node000002"><a xlink:href="classDGtal_1_1detail_1_1PosDepScaleIndepSCEstimator.html" target="_top" xlink:title=" ">
<polygon fill="white" stroke="#666666" points="524.75,-41.75 352.75,-41.75 352.75,0 524.75,0 524.75,-41.75"/>
<text text-anchor="start" x="360.75" y="-28.25" font-family="FreeSans" font-size="10.00">DGtal::detail::PosDepScale</text>
<text text-anchor="start" x="360.75" y="-17" font-family="FreeSans" font-size="10.00">IndepSCEstimator&lt; DCAComputer,</text>
<text text-anchor="middle" x="438.75" y="-5.75" font-family="FreeSans" font-size="10.00"> detail::TangentVectorFromDCA &gt;</text>
</a>
</g>
</g>
<!-- Node2&#45;&gt;Node1 -->
<g id="edge1_Node000001_Node000002" class="edge">
<title>Node2&#45;&gt;Node1</title>
<g id="a_edge1_Node000001_Node000002"><a xlink:title=" ">
<path fill="none" stroke="#63b8ff" d="M536.39,-20.88C544.81,-20.88 553.28,-20.88 561.58,-20.88"/>
<polygon fill="#63b8ff" stroke="#63b8ff" points="536.47,-17.38 526.47,-20.88 536.47,-24.38 536.47,-17.38"/>
</a>
</g>
</g>
<!-- Node3 -->
<g id="Node000003" class="node">
<title>Node3</title>
<g id="a_Node000003"><a xlink:href="classDGtal_1_1detail_1_1PosDepScaleIndepSCEstimator.html" target="_top" xlink:title=" ">
<polygon fill="white" stroke="#666666" points="195.25,-41.75 0,-41.75 0,0 195.25,0 195.25,-41.75"/>
<text text-anchor="start" x="8" y="-28.25" font-family="FreeSans" font-size="10.00">DGtal::detail::PosDepScale</text>
<text text-anchor="start" x="8" y="-17" font-family="FreeSans" font-size="10.00">IndepSCEstimator&lt; TSegmentComputer,</text>
<text text-anchor="middle" x="97.62" y="-5.75" font-family="FreeSans" font-size="10.00"> Functor, ReturnType &gt;</text>
</a>
</g>
</g>
<!-- Node3&#45;&gt;Node2 -->
<g id="edge2_Node000002_Node000003" class="edge">
<title>Node3&#45;&gt;Node2</title>
<g id="a_edge2_Node000002_Node000003"><a xlink:title=" ">
<path fill="none" stroke="orange" stroke-dasharray="5,2" d="M206.84,-20.88C253.92,-20.88 308.29,-20.88 352.44,-20.88"/>
<polygon fill="orange" stroke="orange" points="206.86,-17.38 196.86,-20.88 206.86,-24.38 206.86,-17.38"/>
</a>
</g>
<text text-anchor="start" x="213.25" y="-33.88" font-family="FreeSans" font-size="10.00" fill="grey"> &lt; DCAComputer, detail</text>
<text text-anchor="middle" x="274" y="-22.62" font-family="FreeSans" font-size="10.00" fill="grey">::TangentVectorFromDCA &gt;</text>
</g>
</g>
</svg>
