<?xml version="1.0" encoding="UTF-8" standalone="no"?>
<!DOCTYPE svg PUBLIC "-//W3C//DTD SVG 1.1//EN"
 "http://www.w3.org/Graphics/SVG/1.1/DTD/svg11.dtd">
<!-- Generated by graphviz version 12.2.1 (20241206.2353)
 -->
<!-- Title: DGtal::KhalimskySpaceND&lt; dim, TInteger &gt; Pages: 1 -->
<svg width="191pt" height="295pt"
 viewBox="0.00 0.00 190.75 295.25" xmlns="http://www.w3.org/2000/svg" xmlns:xlink="http://www.w3.org/1999/xlink">
<g id="graph0" class="graph" transform="scale(1 1) rotate(0) translate(4 291.25)">
<title>DGtal::KhalimskySpaceND&lt; dim, TInteger &gt;</title>
<!-- Node1 -->
<g id="Node000001" class="node">
<title>Node1</title>
<g id="a_Node000001"><a xlink:title="Aim: This class is a model of CCellularGridSpaceND. It represents the cubical grid as a cell complex,...">
<polygon fill="#999999" stroke="#666666" points="150.25,-119.5 14.25,-119.5 14.25,-89 150.25,-89 150.25,-119.5"/>
<text text-anchor="start" x="22.25" y="-106" font-family="FreeSans" font-size="10.00">DGtal::KhalimskySpaceND</text>
<text text-anchor="middle" x="82.25" y="-94.75" font-family="FreeSans" font-size="10.00">&lt; dim, TInteger &gt;</text>
</a>
</g>
</g>
<!-- Node4 -->
<g id="Node000004" class="node">
<title>Node4</title>
<g id="a_Node000004"><a xlink:href="classDGtal_1_1KhalimskySpaceND.html" target="_top" xlink:title=" ">
<polygon fill="white" stroke="#666666" points="158.5,-30.5 6,-30.5 6,0 158.5,0 158.5,-30.5"/>
<text text-anchor="start" x="14" y="-17" font-family="FreeSans" font-size="10.00">DGtal::KhalimskySpaceND</text>
<text text-anchor="middle" x="82.25" y="-5.75" font-family="FreeSans" font-size="10.00">&lt; dimAmbient, DGtal::int32_t &gt;</text>
</a>
</g>
</g>
<!-- Node1&#45;&gt;Node4 -->
<g id="edge3_Node000001_Node000004" class="edge">
<title>Node1&#45;&gt;Node4</title>
<g id="a_edge3_Node000001_Node000004"><a xlink:title=" ">
<path fill="none" stroke="orange" stroke-dasharray="5,2" d="M82.25,-77.62C82.25,-62.41 82.25,-43.67 82.25,-30.93"/>
<polygon fill="orange" stroke="orange" points="78.75,-77.37 82.25,-87.37 85.75,-77.37 78.75,-77.37"/>
</a>
</g>
<text text-anchor="start" x="82.25" y="-61.5" font-family="FreeSans" font-size="10.00" fill="grey"> &lt; dimAmbient, DGtal</text>
<text text-anchor="middle" x="129.88" y="-50.25" font-family="FreeSans" font-size="10.00" fill="grey">::int32_t &gt;</text>
</g>
<!-- Node2 -->
<g id="Node000002" class="node">
<title>Node2</title>
<g id="a_Node000002"><a xlink:href="classDGtal_1_1KhalimskySpaceNDHelper.html" target="_top" xlink:title=" ">
<polygon fill="white" stroke="#666666" points="164.5,-198.25 0,-198.25 0,-156.5 164.5,-156.5 164.5,-198.25"/>
<text text-anchor="start" x="8" y="-184.75" font-family="FreeSans" font-size="10.00">DGtal::KhalimskySpaceNDHelper</text>
<text text-anchor="start" x="8" y="-173.5" font-family="FreeSans" font-size="10.00">&lt; KhalimskySpaceND&lt; dim,</text>
<text text-anchor="middle" x="82.25" y="-162.25" font-family="FreeSans" font-size="10.00"> TInteger &gt; &gt;</text>
</a>
</g>
</g>
<!-- Node2&#45;&gt;Node1 -->
<g id="edge1_Node000001_Node000002" class="edge">
<title>Node2&#45;&gt;Node1</title>
<g id="a_edge1_Node000001_Node000002"><a xlink:title=" ">
<path fill="none" stroke="#8b1a1a" d="M82.25,-144.95C82.25,-136.11 82.25,-126.92 82.25,-119.62"/>
<polygon fill="#8b1a1a" stroke="#8b1a1a" points="78.75,-144.67 82.25,-154.67 85.75,-144.67 78.75,-144.67"/>
</a>
</g>
</g>
<!-- Node3 -->
<g id="Node000003" class="node">
<title>Node3</title>
<g id="a_Node000003"><a xlink:href="classDGtal_1_1KhalimskySpaceNDHelper.html" target="_top" xlink:title="Internal class of KhalimskySpaceND that provides some optimizations depending on the space type.">
<polygon fill="white" stroke="#666666" points="164.5,-287.25 0,-287.25 0,-256.75 164.5,-256.75 164.5,-287.25"/>
<text text-anchor="start" x="8" y="-273.75" font-family="FreeSans" font-size="10.00">DGtal::KhalimskySpaceNDHelper</text>
<text text-anchor="middle" x="82.25" y="-262.5" font-family="FreeSans" font-size="10.00">&lt; TKhalimskySpace &gt;</text>
</a>
</g>
</g>
<!-- Node3&#45;&gt;Node2 -->
<g id="edge2_Node000002_Node000003" class="edge">
<title>Node3&#45;&gt;Node2</title>
<g id="a_edge2_Node000002_Node000003"><a xlink:title=" ">
<path fill="none" stroke="orange" stroke-dasharray="5,2" d="M82.25,-245.15C82.25,-230.43 82.25,-212.26 82.25,-198.59"/>
<polygon fill="orange" stroke="orange" points="78.75,-245.01 82.25,-255.01 85.75,-245.01 78.75,-245.01"/>
</a>
</g>
<text text-anchor="start" x="82.25" y="-229.25" font-family="FreeSans" font-size="10.00" fill="grey"> &lt; KhalimskySpaceND</text>
<text text-anchor="middle" x="132.5" y="-218" font-family="FreeSans" font-size="10.00" fill="grey">&lt; dim, TInteger &gt; &gt;</text>
</g>
</g>
</svg>
