<?xml version="1.0" encoding="UTF-8" standalone="no"?>
<!DOCTYPE svg PUBLIC "-//W3C//DTD SVG 1.1//EN"
 "http://www.w3.org/Graphics/SVG/1.1/DTD/svg11.dtd">
<!-- Generated by graphviz version 12.2.1 (20241206.2353)
 -->
<!-- Title: DGtal::Display3D&lt; Space, KSpace &gt; Pages: 1 -->
<!--zoomable 302 -->

<svg id="main" version="1.1" xmlns="http://www.w3.org/2000/svg" xmlns:xlink="http://www.w3.org/1999/xlink" xml:space="preserve" onload="init(evt)">

<style type="text/css"><![CDATA[
.node, .edge {opacity: 0.7;}
.node.selected, .edge.selected {opacity: 1;}
.edge:hover path { stroke: red; }
.edge:hover polygon { stroke: red; fill: red; }
]]></style>

<defs>
  <circle id="rim" cx="0" cy="0" r="7"/>
  <circle id="rim2" cx="0" cy="0" r="3.5"/>
  <g id="zoomPlus">
    <use xlink:href="#rim" fill="#404040"><set attributeName="fill" to="#808080" begin="zoomplus.mouseover" end="zoomplus.mouseout"/></use>
    <path d="M-4,0h8M0,-4v8" fill="none" stroke="white" stroke-width="1.5" pointer-events="none"/>
  </g>
  <g id="zoomMin">
    <use xlink:href="#rim" fill="#404040"><set attributeName="fill" to="#808080" begin="zoomminus.mouseover" end="zoomminus.mouseout"/></use>
    <path d="M-4,0h8" fill="none" stroke="white" stroke-width="1.5" pointer-events="none"/>
  </g>
  <g id="arrowUp" transform="translate(30 24)">
    <use xlink:href="#rim"/>
    <path pointer-events="none" fill="none" stroke="white" stroke-width="1.5" d="M0,-3.0v7 M-2.5,-0.5L0,-3.0L2.5,-0.5"/>
  </g>
  <g id="arrowRight" transform="rotate(90) translate(36 -43)">
    <use xlink:href="#rim"/>
    <path pointer-events="none" fill="none" stroke="white" stroke-width="1.5" d="M0,-3.0v7 M-2.5,-0.5L0,-3.0L2.5,-0.5"/>
  </g>
  <g id="arrowDown" transform="rotate(180) translate(-30 -48)">
    <use xlink:href="#rim"/>
    <path pointer-events="none" fill="none" stroke="white" stroke-width="1.5" d="M0,-3.0v7 M-2.5,-0.5L0,-3.0L2.5,-0.5"/>
  </g>
  <g id="arrowLeft" transform="rotate(270) translate(-36 17)">
    <use xlink:href="#rim"/>
    <path pointer-events="none" fill="none" stroke="white" stroke-width="1.5" d="M0,-3.0v7 M-2.5,-0.5L0,-3.0L2.5,-0.5"/>
  </g>
  <g id="resetDef">
    <use xlink:href="#rim2" fill="#404040"><set attributeName="fill" to="#808080" begin="reset.mouseover" end="reset.mouseout"/></use>
  </g>
</defs>
<script type="application/ecmascript">
var viewWidth = 1052;
var viewHeight = 302;
var sectionId = 'dynsection-0';
</script>
<script type="application/ecmascript" xlink:href="svg.min.js"/>
<svg id="graph" class="graph">
<g id="viewport">
<title>DGtal::Display3D&lt; Space, KSpace &gt;</title>
<!-- Node1 -->
<g id="Node000001" class="node">
<title>Node1</title>
<g id="a_Node000001"><a xlink:title="Aim: This semi abstract class defines the stream mechanism to display 3d primitive (like BallVector,...">
<polygon fill="#999999" stroke="#666666" points="133,-141.5 0,-141.5 0,-111 133,-111 133,-141.5"/>
<text text-anchor="start" x="8" y="-128" font-family="FreeSans" font-size="10.00">DGtal::Display3D&lt; Space,</text>
<text text-anchor="middle" x="66.5" y="-116.75" font-family="FreeSans" font-size="10.00"> KSpace &gt;</text>
</a>
</g>
</g>
<!-- Node1&#45;&gt;Node1 -->
<g id="edge1_Node000001_Node000001" class="edge">
<title>Node1&#45;&gt;Node1</title>
<g id="a_edge1_Node000001_Node000001"><a xlink:title=" ">
<path fill="none" stroke="orange" stroke-dasharray="5,2" d="M53.97,-153.2C56.02,-156.97 60.2,-159.5 66.5,-159.5 78.02,-159.5 82.44,-151.06 79.73,-141.99"/>
<polygon fill="orange" stroke="orange" points="57.49,-153.26 53.36,-143.5 50.5,-153.7 57.49,-153.26"/>
</a>
</g>
<text text-anchor="middle" x="66.5" y="-161.25" font-family="FreeSans" font-size="10.00" fill="grey"> &lt; Space, KSpace &gt;</text>
</g>
<!-- Node1&#45;&gt;Node1 -->
<g id="edge12_Node000001_Node000001" class="edge">
<title>Node1&#45;&gt;Node1</title>
<g id="a_edge12_Node000001_Node000001"><a xlink:title=" ">
<path fill="none" stroke="orange" stroke-dasharray="5,2" d="M39.55,-151.86C35.21,-165.31 44.2,-177.5 66.5,-177.5 94.22,-177.5 101.36,-158.68 87.94,-141.99"/>
<polygon fill="orange" stroke="orange" points="42.5,-153.75 44.33,-143.31 36.39,-150.34 42.5,-153.75"/>
</a>
</g>
<text text-anchor="middle" x="66.5" y="-179.25" font-family="FreeSans" font-size="10.00" fill="grey"> &lt; Space, KSpace &gt;</text>
</g>
<!-- Node2 -->
<g id="Node000002" class="node">
<title>Node2</title>
<g id="a_Node000002"><a xlink:href="classDGtal_1_1Viewer3D.html" target="_top" xlink:title=" ">
<polygon fill="white" stroke="#666666" points="466.62,-263.5 330.62,-263.5 330.62,-233 466.62,-233 466.62,-263.5"/>
<text text-anchor="start" x="338.62" y="-250" font-family="FreeSans" font-size="10.00">DGtal::Viewer3D&lt; TSpace,</text>
<text text-anchor="middle" x="398.62" y="-238.75" font-family="FreeSans" font-size="10.00"> TKSpace &gt;</text>
</a>
</g>
</g>
<!-- Node1&#45;&gt;Node2 -->
<g id="edge2_Node000001_Node000002" class="edge">
<title>Node1&#45;&gt;Node2</title>
<g id="a_edge2_Node000001_Node000002"><a xlink:title=" ">
<path fill="none" stroke="#63b8ff" d="M82.75,-151.3C97.38,-172.93 121.56,-203.02 151,-218.25 206.64,-247.04 278.54,-252.82 330.33,-252.43"/>
<polygon fill="#63b8ff" stroke="#63b8ff" points="85.75,-149.49 77.36,-143.02 79.88,-153.31 85.75,-149.49"/>
</a>
</g>
</g>
<!-- Node5 -->
<g id="Node000005" class="node">
<title>Node5</title>
<g id="a_Node000005"><a xlink:href="classDGtal_1_1Display3D.html" target="_top" xlink:title=" ">
<polygon fill="white" stroke="#666666" points="458,-116.5 339.25,-116.5 339.25,-86 458,-86 458,-116.5"/>
<text text-anchor="start" x="347.25" y="-103" font-family="FreeSans" font-size="10.00">DGtal::Display3D&lt; Z3i</text>
<text text-anchor="middle" x="398.62" y="-91.75" font-family="FreeSans" font-size="10.00">::Space, Z3i::KSpace &gt;</text>
</a>
</g>
</g>
<!-- Node1&#45;&gt;Node5 -->
<g id="edge5_Node000001_Node000005" class="edge">
<title>Node1&#45;&gt;Node5</title>
<g id="a_edge5_Node000001_Node000005"><a xlink:title=" ">
<path fill="none" stroke="orange" stroke-dasharray="5,2" d="M135.15,-108.31C140.48,-107.3 145.81,-106.43 151,-105.75 214.91,-97.43 288.91,-97.33 339.05,-98.67"/>
<polygon fill="orange" stroke="orange" points="134.81,-104.8 125.71,-110.23 136.2,-111.66 134.81,-104.8"/>
</a>
</g>
<text text-anchor="start" x="173.5" y="-118.75" font-family="FreeSans" font-size="10.00" fill="grey"> &lt; Z3i::Space, Z3i::</text>
<text text-anchor="middle" x="215.88" y="-107.5" font-family="FreeSans" font-size="10.00" fill="grey">KSpace &gt;</text>
</g>
<!-- Node9 -->
<g id="Node000009" class="node">
<title>Node9</title>
<g id="a_Node000009"><a xlink:href="classDGtal_1_1Display3D.html" target="_top" xlink:title=" ">
<polygon fill="white" stroke="#666666" points="481.62,-165.5 315.62,-165.5 315.62,-135 481.62,-135 481.62,-165.5"/>
<text text-anchor="start" x="323.62" y="-152" font-family="FreeSans" font-size="10.00">DGtal::Display3D&lt; SpaceND</text>
<text text-anchor="middle" x="398.62" y="-140.75" font-family="FreeSans" font-size="10.00">&lt; 3 &gt;, KhalimskySpaceND&lt; 3 &gt; &gt;</text>
</a>
</g>
</g>
<!-- Node1&#45;&gt;Node9 -->
<g id="edge9_Node000001_Node000009" class="edge">
<title>Node1&#45;&gt;Node9</title>
<g id="a_edge9_Node000001_Node000009"><a xlink:title=" ">
<path fill="none" stroke="orange" stroke-dasharray="5,2" d="M144.44,-131.84C195.64,-135.57 262.83,-140.45 315.13,-144.25"/>
<polygon fill="orange" stroke="orange" points="144.85,-128.36 134.63,-131.13 144.35,-135.35 144.85,-128.36"/>
</a>
</g>
<text text-anchor="start" x="151" y="-154.11" font-family="FreeSans" font-size="10.00" fill="grey"> &lt; SpaceND&lt; 3 &gt;, Khalimsky</text>
<text text-anchor="middle" x="215.88" y="-142.86" font-family="FreeSans" font-size="10.00" fill="grey">SpaceND&lt; 3 &gt; &gt;</text>
</g>
<!-- Node10 -->
<g id="Node000010" class="node">
<title>Node10</title>
<g id="a_Node000010"><a xlink:href="classDGtal_1_1Display3D.html" target="_top" xlink:title=" ">
<polygon fill="white" stroke="#666666" points="631.38,-73.5 519.38,-73.5 519.38,-43 631.38,-43 631.38,-73.5"/>
<text text-anchor="start" x="527.38" y="-60" font-family="FreeSans" font-size="10.00">DGtal::Display3D&lt; S,</text>
<text text-anchor="middle" x="575.38" y="-48.75" font-family="FreeSans" font-size="10.00"> KS &gt;</text>
</a>
</g>
</g>
<!-- Node1&#45;&gt;Node10 -->
<g id="edge10_Node000001_Node000010" class="edge">
<title>Node1&#45;&gt;Node10</title>
<g id="a_edge10_Node000001_Node000010"><a xlink:title=" ">
<path fill="none" stroke="orange" stroke-dasharray="5,2" d="M100.9,-104.85C115.67,-96.49 133.6,-87.78 151,-83 279.15,-47.79 437.06,-49.93 519.06,-54.25"/>
<polygon fill="orange" stroke="orange" points="99.39,-101.68 92.53,-109.76 102.93,-107.72 99.39,-101.68"/>
</a>
</g>
<text text-anchor="middle" x="215.88" y="-84.75" font-family="FreeSans" font-size="10.00" fill="grey"> &lt; S, KS &gt;</text>
</g>
<!-- Node11 -->
<g id="Node000011" class="node">
<title>Node11</title>
<g id="a_Node000011"><a xlink:href="classDGtal_1_1Display3D.html" target="_top" xlink:title=" ">
<polygon fill="white" stroke="#666666" points="498.5,-214.5 298.75,-214.5 298.75,-184 498.5,-184 498.5,-214.5"/>
<text text-anchor="start" x="306.75" y="-201" font-family="FreeSans" font-size="10.00">DGtal::Display3D&lt; DGtal</text>
<text text-anchor="middle" x="398.62" y="-189.75" font-family="FreeSans" font-size="10.00">::SpaceND, DGtal::KhalimskySpaceND &gt;</text>
</a>
</g>
</g>
<!-- Node1&#45;&gt;Node11 -->
<g id="edge13_Node000001_Node000011" class="edge">
<title>Node1&#45;&gt;Node11</title>
<g id="a_edge13_Node000001_Node000011"><a xlink:title=" ">
<path fill="none" stroke="orange" stroke-dasharray="5,2" d="M103.6,-147.19C117.93,-154.64 134.82,-162.37 151,-167.25 198.33,-181.52 252.66,-189.42 298.26,-193.8"/>
<polygon fill="orange" stroke="orange" points="105.46,-144.22 95,-142.58 102.16,-150.39 105.46,-144.22"/>
</a>
</g>
<text text-anchor="start" x="157" y="-204.58" font-family="FreeSans" font-size="10.00" fill="grey"> &lt; DGtal::SpaceND, DGtal</text>
<text text-anchor="middle" x="215.88" y="-193.33" font-family="FreeSans" font-size="10.00" fill="grey">::KhalimskySpaceND &gt;</text>
</g>
<!-- Node12 -->
<g id="Node000012" class="node">
<title>Node12</title>
<g id="a_Node000012"><a xlink:href="classDGtal_1_1Display3D.html" target="_top" xlink:title=" ">
<polygon fill="white" stroke="#666666" points="457.25,-30.5 340,-30.5 340,0 457.25,0 457.25,-30.5"/>
<text text-anchor="start" x="348" y="-17" font-family="FreeSans" font-size="10.00">DGtal::Display3D&lt; Sp,</text>
<text text-anchor="middle" x="398.62" y="-5.75" font-family="FreeSans" font-size="10.00"> KSp &gt;</text>
</a>
</g>
</g>
<!-- Node1&#45;&gt;Node12 -->
<g id="edge15_Node000001_Node000012" class="edge">
<title>Node1&#45;&gt;Node12</title>
<g id="a_edge15_Node000001_Node000012"><a xlink:title=" ">
<path fill="none" stroke="orange" stroke-dasharray="5,2" d="M80.29,-100.78C94.07,-76.44 118.46,-41.14 151,-25 210.12,4.32 287.36,1.89 339.52,-4.7"/>
<polygon fill="orange" stroke="orange" points="77.29,-98.97 75.61,-109.43 83.45,-102.31 77.29,-98.97"/>
</a>
</g>
<text text-anchor="middle" x="215.88" y="-26.75" font-family="FreeSans" font-size="10.00" fill="grey"> &lt; Sp, KSp &gt;</text>
</g>
<!-- Node3 -->
<g id="Node000003" class="node">
<title>Node3</title>
<g id="a_Node000003"><a xlink:href="classDGtal_1_1Viewer3D.html" target="_top" xlink:title=" ">
<polygon fill="white" stroke="#666666" points="817.12,-293.5 687.12,-293.5 687.12,-263 817.12,-263 817.12,-293.5"/>
<text text-anchor="start" x="695.12" y="-280" font-family="FreeSans" font-size="10.00">DGtal::Viewer3D&lt; Space,</text>
<text text-anchor="middle" x="752.12" y="-268.75" font-family="FreeSans" font-size="10.00"> KSpace &gt;</text>
</a>
</g>
</g>
<!-- Node2&#45;&gt;Node3 -->
<g id="edge3_Node000002_Node000003" class="edge">
<title>Node2&#45;&gt;Node3</title>
<g id="a_edge3_Node000002_Node000003"><a xlink:title=" ">
<path fill="none" stroke="orange" stroke-dasharray="5,2" d="M478.41,-254.97C541.19,-260.33 627.99,-267.74 686.67,-272.75"/>
<polygon fill="orange" stroke="orange" points="478.75,-251.49 468.49,-254.13 478.16,-258.47 478.75,-251.49"/>
</a>
</g>
<text text-anchor="middle" x="575.38" y="-269.44" font-family="FreeSans" font-size="10.00" fill="grey"> &lt; Space, KSpace &gt;</text>
</g>
<!-- Node4 -->
<g id="Node000004" class="node">
<title>Node4</title>
<g id="a_Node000004"><a xlink:href="classDGtal_1_1Viewer3D.html" target="_top" xlink:title=" ">
<polygon fill="white" stroke="#666666" points="852,-229.5 652.25,-229.5 652.25,-199 852,-199 852,-229.5"/>
<text text-anchor="start" x="660.25" y="-216" font-family="FreeSans" font-size="10.00">DGtal::Viewer3D&lt; DGtal</text>
<text text-anchor="middle" x="752.12" y="-204.75" font-family="FreeSans" font-size="10.00">::SpaceND, DGtal::KhalimskySpaceND &gt;</text>
</a>
</g>
</g>
<!-- Node2&#45;&gt;Node4 -->
<g id="edge4_Node000002_Node000004" class="edge">
<title>Node2&#45;&gt;Node4</title>
<g id="a_edge4_Node000002_Node000004"><a xlink:title=" ">
<path fill="none" stroke="orange" stroke-dasharray="5,2" d="M478.08,-237.26C490.9,-235.63 504.06,-234.06 516.5,-232.75 560.89,-228.06 610.13,-224 651.98,-220.89"/>
<polygon fill="orange" stroke="orange" points="477.89,-233.76 468.42,-238.51 478.78,-240.7 477.89,-233.76"/>
</a>
</g>
<text text-anchor="start" x="516.5" y="-245.75" font-family="FreeSans" font-size="10.00" fill="grey"> &lt; DGtal::SpaceND, DGtal</text>
<text text-anchor="middle" x="575.38" y="-234.5" font-family="FreeSans" font-size="10.00" fill="grey">::KhalimskySpaceND &gt;</text>
</g>
<!-- Node6 -->
<g id="Node000006" class="node">
<title>Node6</title>
<g id="a_Node000006"><a xlink:href="classDGtal_1_1Board3D.html" target="_top" xlink:title="The class Board3D is a type of Display3D which export the figures in the format OBJ/MTL when calling ...">
<polygon fill="white" stroke="#666666" points="814.88,-165.5 689.38,-165.5 689.38,-135 814.88,-135 814.88,-165.5"/>
<text text-anchor="start" x="697.38" y="-152" font-family="FreeSans" font-size="10.00">DGtal::Board3D&lt; Space,</text>
<text text-anchor="middle" x="752.12" y="-140.75" font-family="FreeSans" font-size="10.00"> KSpace &gt;</text>
</a>
</g>
</g>
<!-- Node5&#45;&gt;Node6 -->
<g id="edge6_Node000005_Node000006" class="edge">
<title>Node5&#45;&gt;Node6</title>
<g id="a_edge6_Node000005_Node000006"><a xlink:title=" ">
<path fill="none" stroke="#63b8ff" d="M469.67,-111.01C533.76,-119.95 627.71,-133.05 689.14,-141.61"/>
<polygon fill="#63b8ff" stroke="#63b8ff" points="470.34,-107.57 459.96,-109.66 469.38,-114.51 470.34,-107.57"/>
</a>
</g>
</g>
<!-- Node7 -->
<g id="Node000007" class="node">
<title>Node7</title>
<g id="a_Node000007"><a xlink:href="classDGtal_1_1Board3DTo2D.html" target="_top" xlink:title="Class for PDF, PNG, PS, EPS, SVG export drawings with Cairo with 3D&#45;&gt;2D projection.">
<polygon fill="white" stroke="#666666" points="806.62,-116.5 697.62,-116.5 697.62,-86 806.62,-86 806.62,-116.5"/>
<text text-anchor="start" x="705.62" y="-103" font-family="FreeSans" font-size="10.00">DGtal::Board3DTo2D</text>
<text text-anchor="middle" x="752.12" y="-91.75" font-family="FreeSans" font-size="10.00">&lt; Space, KSpace &gt;</text>
</a>
</g>
</g>
<!-- Node5&#45;&gt;Node7 -->
<g id="edge7_Node000005_Node000007" class="edge">
<title>Node5&#45;&gt;Node7</title>
<g id="a_edge7_Node000005_Node000007"><a xlink:title=" ">
<path fill="none" stroke="#63b8ff" d="M469.75,-101.25C536.75,-101.25 636.32,-101.25 697.3,-101.25"/>
<polygon fill="#63b8ff" stroke="#63b8ff" points="469.97,-97.75 459.97,-101.25 469.97,-104.75 469.97,-97.75"/>
</a>
</g>
</g>
<!-- Node8 -->
<g id="Node000008" class="node">
<title>Node8</title>
<g id="a_Node000008"><a xlink:href="classDGtal_1_1Board3DTo2D.html" target="_top" xlink:title=" ">
<polygon fill="white" stroke="#666666" points="1044.25,-89.5 935.25,-89.5 935.25,-59 1044.25,-59 1044.25,-89.5"/>
<text text-anchor="start" x="943.25" y="-76" font-family="FreeSans" font-size="10.00">DGtal::Board3DTo2D</text>
<text text-anchor="middle" x="989.75" y="-64.75" font-family="FreeSans" font-size="10.00">&lt; S, KS &gt;</text>
</a>
</g>
</g>
<!-- Node7&#45;&gt;Node8 -->
<g id="edge8_Node000007_Node000008" class="edge">
<title>Node7&#45;&gt;Node8</title>
<g id="a_edge8_Node000007_Node000008"><a xlink:title=" ">
<path fill="none" stroke="orange" stroke-dasharray="5,2" d="M817.98,-93.82C854.69,-89.61 900.06,-84.41 934.81,-80.43"/>
<polygon fill="orange" stroke="orange" points="817.93,-90.3 808.39,-94.92 818.72,-97.26 817.93,-90.3"/>
</a>
</g>
<text text-anchor="middle" x="893.62" y="-89.5" font-family="FreeSans" font-size="10.00" fill="grey"> &lt; S, KS &gt;</text>
</g>
<!-- Node10&#45;&gt;Node8 -->
<g id="edge11_Node000010_Node000008" class="edge">
<title>Node10&#45;&gt;Node8</title>
<g id="a_edge11_Node000010_Node000008"><a xlink:title=" ">
<path fill="none" stroke="#63b8ff" d="M642.64,-60.82C723.83,-63.97 859.8,-69.25 934.87,-72.16"/>
<polygon fill="#63b8ff" stroke="#63b8ff" points="643.2,-57.34 633.07,-60.45 642.93,-64.34 643.2,-57.34"/>
</a>
</g>
</g>
<!-- Node11&#45;&gt;Node4 -->
<g id="edge14_Node000011_Node000004" class="edge">
<title>Node11&#45;&gt;Node4</title>
<g id="a_edge14_Node000011_Node000004"><a xlink:title=" ">
<path fill="none" stroke="#63b8ff" d="M510.33,-203.97C555.75,-205.91 607.92,-208.14 652.05,-210.02"/>
<polygon fill="#63b8ff" stroke="#63b8ff" points="510.59,-200.48 500.45,-203.55 510.3,-207.48 510.59,-200.48"/>
</a>
</g>
</g>
</g>
</svg>

<g id="navigator" transform="translate(0 0)" fill="#404254">
  <rect fill="#f2f5e9" fill-opacity="0.5" stroke="#606060" stroke-width=".5" x="0" y="0" width="60" height="60"/>
  <use id="zoomplus" xlink:href="#zoomPlus" x="17" y="9" onmousedown="handleZoom(evt,'in')"/>
  <use id="zoomminus" xlink:href="#zoomMin" x="42" y="9" onmousedown="handleZoom(evt,'out')"/>
  <use id="reset" xlink:href="#resetDef" x="30" y="36" onmousedown="handleReset()"/>
   <use id="arrowup" xlink:href="#arrowUp" x="0" y="0" onmousedown="handlePan(0,-1)"/>
  <use id="arrowright" xlink:href="#arrowRight" x="0" y="0" onmousedown="handlePan(1,0)"/>
  <use id="arrowdown" xlink:href="#arrowDown" x="0" y="0" onmousedown="handlePan(0,1)"/>
  <use id="arrowleft" xlink:href="#arrowLeft" x="0" y="0" onmousedown="handlePan(-1,0)"/>
</g>
<svg viewBox="0 0 15 15" width="100%" height="30px" preserveAspectRatio="xMaxYMin meet">
 <g id="arrow_out" transform="scale(0.3 0.3)">
  <a xlink:href="classDGtal_1_1Display3D__inherit__graph_org.svg" target="_base">
   <rect id="button" ry="5" rx="5" y="6" x="6" height="38" width="38"
        fill="#f2f5e9" fill-opacity="0.5" stroke="#606060" stroke-width="1.0"/>
   <path id="arrow"
     d="M 11.500037,31.436501 C 11.940474,20.09759 22.043105,11.32322 32.158766,21.979434 L 37.068811,17.246167 C 37.068811,17.246167 37.088388,32 37.088388,32 L 22.160133,31.978069 C 22.160133,31.978069 26.997745,27.140456 26.997745,27.140456 C 18.528582,18.264221 13.291696,25.230495 11.500037,31.436501 z"
     style="fill:#404040;"/>
  </a>
 </g>
</svg>

<style type='text/css'>
<![CDATA[
[data-mouse-over-selected='false'] { opacity: 0.7; }
[data-mouse-over-selected='true']  { opacity: 1.0; }
]]>
</style>
<script type="application/ecmascript"><![CDATA[
document.addEventListener('DOMContentLoaded', (event) => {
  highlightEdges();
  highlightAdjacentNodes();
});
]]></script>
</svg>
