<?xml version="1.0" encoding="UTF-8" standalone="no"?>
<!DOCTYPE svg PUBLIC "-//W3C//DTD SVG 1.1//EN"
 "http://www.w3.org/Graphics/SVG/1.1/DTD/svg11.dtd">
<!-- Generated by graphviz version 12.2.1 (20241206.2353)
 -->
<!-- Title: DGtal::KhalimskySpaceNDHelper&lt; TKhalimskySpace &gt; Pages: 1 -->
<!--zoomable 96 -->

<svg id="main" version="1.1" xmlns="http://www.w3.org/2000/svg" xmlns:xlink="http://www.w3.org/1999/xlink" xml:space="preserve" onload="init(evt)">

<style type="text/css"><![CDATA[
.node, .edge {opacity: 0.7;}
.node.selected, .edge.selected {opacity: 1;}
.edge:hover path { stroke: red; }
.edge:hover polygon { stroke: red; fill: red; }
]]></style>

<defs>
  <circle id="rim" cx="0" cy="0" r="7"/>
  <circle id="rim2" cx="0" cy="0" r="3.5"/>
  <g id="zoomPlus">
    <use xlink:href="#rim" fill="#404040"><set attributeName="fill" to="#808080" begin="zoomplus.mouseover" end="zoomplus.mouseout"/></use>
    <path d="M-4,0h8M0,-4v8" fill="none" stroke="white" stroke-width="1.5" pointer-events="none"/>
  </g>
  <g id="zoomMin">
    <use xlink:href="#rim" fill="#404040"><set attributeName="fill" to="#808080" begin="zoomminus.mouseover" end="zoomminus.mouseout"/></use>
    <path d="M-4,0h8" fill="none" stroke="white" stroke-width="1.5" pointer-events="none"/>
  </g>
  <g id="arrowUp" transform="translate(30 24)">
    <use xlink:href="#rim"/>
    <path pointer-events="none" fill="none" stroke="white" stroke-width="1.5" d="M0,-3.0v7 M-2.5,-0.5L0,-3.0L2.5,-0.5"/>
  </g>
  <g id="arrowRight" transform="rotate(90) translate(36 -43)">
    <use xlink:href="#rim"/>
    <path pointer-events="none" fill="none" stroke="white" stroke-width="1.5" d="M0,-3.0v7 M-2.5,-0.5L0,-3.0L2.5,-0.5"/>
  </g>
  <g id="arrowDown" transform="rotate(180) translate(-30 -48)">
    <use xlink:href="#rim"/>
    <path pointer-events="none" fill="none" stroke="white" stroke-width="1.5" d="M0,-3.0v7 M-2.5,-0.5L0,-3.0L2.5,-0.5"/>
  </g>
  <g id="arrowLeft" transform="rotate(270) translate(-36 17)">
    <use xlink:href="#rim"/>
    <path pointer-events="none" fill="none" stroke="white" stroke-width="1.5" d="M0,-3.0v7 M-2.5,-0.5L0,-3.0L2.5,-0.5"/>
  </g>
  <g id="resetDef">
    <use xlink:href="#rim2" fill="#404040"><set attributeName="fill" to="#808080" begin="reset.mouseover" end="reset.mouseout"/></use>
  </g>
</defs>
<script type="application/ecmascript">
var viewWidth = 1103;
var viewHeight = 96;
var sectionId = 'dynsection-0';
</script>
<script type="application/ecmascript" xlink:href="svg.min.js"/>
<svg id="graph" class="graph">
<g id="viewport">
<title>DGtal::KhalimskySpaceNDHelper&lt; TKhalimskySpace &gt;</title>
<!-- Node1 -->
<g id="Node000001" class="node">
<title>Node1</title>
<g id="a_Node000001"><a xlink:title="Internal class of KhalimskySpaceND that provides some optimizations depending on the space type.">
<polygon fill="#999999" stroke="#666666" points="164.5,-56.12 0,-56.12 0,-25.62 164.5,-25.62 164.5,-56.12"/>
<text text-anchor="start" x="8" y="-42.62" font-family="FreeSans" font-size="10.00">DGtal::KhalimskySpaceNDHelper</text>
<text text-anchor="middle" x="82.25" y="-31.38" font-family="FreeSans" font-size="10.00">&lt; TKhalimskySpace &gt;</text>
</a>
</g>
</g>
<!-- Node2 -->
<g id="Node000002" class="node">
<title>Node2</title>
<g id="a_Node000002"><a xlink:href="classDGtal_1_1KhalimskySpaceNDHelper.html" target="_top" xlink:title=" ">
<polygon fill="white" stroke="#666666" points="474.5,-87.75 310,-87.75 310,-46 474.5,-46 474.5,-87.75"/>
<text text-anchor="start" x="318" y="-74.25" font-family="FreeSans" font-size="10.00">DGtal::KhalimskySpaceNDHelper</text>
<text text-anchor="start" x="318" y="-63" font-family="FreeSans" font-size="10.00">&lt; KhalimskySpaceND&lt; dim,</text>
<text text-anchor="middle" x="392.25" y="-51.75" font-family="FreeSans" font-size="10.00"> TInteger &gt; &gt;</text>
</a>
</g>
</g>
<!-- Node1&#45;&gt;Node2 -->
<g id="edge1_Node000001_Node000002" class="edge">
<title>Node1&#45;&gt;Node2</title>
<g id="a_edge1_Node000001_Node000002"><a xlink:title=" ">
<path fill="none" stroke="orange" stroke-dasharray="5,2" d="M176.19,-48.72C218.71,-52.31 268.63,-56.52 309.67,-59.99"/>
<polygon fill="orange" stroke="orange" points="176.75,-45.26 166.49,-47.9 176.16,-52.23 176.75,-45.26"/>
</a>
</g>
<text text-anchor="start" x="187" y="-71.47" font-family="FreeSans" font-size="10.00" fill="grey"> &lt; KhalimskySpaceND</text>
<text text-anchor="middle" x="237.25" y="-60.22" font-family="FreeSans" font-size="10.00" fill="grey">&lt; dim, TInteger &gt; &gt;</text>
</g>
<!-- Node5 -->
<g id="Node000005" class="node">
<title>Node5</title>
<g id="a_Node000005"><a xlink:href="classDGtal_1_1KhalimskySpaceNDHelper.html" target="_top" xlink:title=" ">
<polygon fill="white" stroke="#666666" points="657,-41.75 492.5,-41.75 492.5,0 657,0 657,-41.75"/>
<text text-anchor="start" x="500.5" y="-28.25" font-family="FreeSans" font-size="10.00">DGtal::KhalimskySpaceNDHelper</text>
<text text-anchor="start" x="500.5" y="-17" font-family="FreeSans" font-size="10.00">&lt; KhalimskySpaceND&lt; dim,</text>
<text text-anchor="middle" x="574.75" y="-5.75" font-family="FreeSans" font-size="10.00"> DGtal::int32_t &gt; &gt;</text>
</a>
</g>
</g>
<!-- Node1&#45;&gt;Node5 -->
<g id="edge4_Node000001_Node000005" class="edge">
<title>Node1&#45;&gt;Node5</title>
<g id="a_edge4_Node000001_Node000005"><a xlink:title=" ">
<path fill="none" stroke="orange" stroke-dasharray="5,2" d="M171.34,-23.6C175.1,-23.13 178.84,-22.72 182.5,-22.38 289.18,-12.31 412.95,-14.08 492.24,-16.92"/>
<polygon fill="orange" stroke="orange" points="170.93,-20.13 161.5,-24.95 171.88,-27.06 170.93,-20.13"/>
</a>
</g>
<text text-anchor="start" x="182.5" y="-35.38" font-family="FreeSans" font-size="10.00" fill="grey"> &lt; KhalimskySpaceND</text>
<text text-anchor="middle" x="237.25" y="-24.12" font-family="FreeSans" font-size="10.00" fill="grey">&lt; dim, DGtal::int32_t &gt; &gt;</text>
</g>
<!-- Node3 -->
<g id="Node000003" class="node">
<title>Node3</title>
<g id="a_Node000003"><a xlink:href="classDGtal_1_1KhalimskySpaceND.html" target="_top" xlink:title="Aim: This class is a model of CCellularGridSpaceND. It represents the cubical grid as a cell complex,...">
<polygon fill="white" stroke="#666666" points="811,-81.12 675,-81.12 675,-50.62 811,-50.62 811,-81.12"/>
<text text-anchor="start" x="683" y="-67.62" font-family="FreeSans" font-size="10.00">DGtal::KhalimskySpaceND</text>
<text text-anchor="middle" x="743" y="-56.38" font-family="FreeSans" font-size="10.00">&lt; dim, TInteger &gt;</text>
</a>
</g>
</g>
<!-- Node2&#45;&gt;Node3 -->
<g id="edge2_Node000002_Node000003" class="edge">
<title>Node2&#45;&gt;Node3</title>
<g id="a_edge2_Node000002_Node000003"><a xlink:title=" ">
<path fill="none" stroke="#8b1a1a" d="M485.84,-66.61C545.21,-66.44 620.94,-66.22 674.62,-66.07"/>
<polygon fill="#8b1a1a" stroke="#8b1a1a" points="486.08,-63.11 476.09,-66.64 486.1,-70.11 486.08,-63.11"/>
</a>
</g>
</g>
<!-- Node4 -->
<g id="Node000004" class="node">
<title>Node4</title>
<g id="a_Node000004"><a xlink:href="classDGtal_1_1KhalimskySpaceND.html" target="_top" xlink:title=" ">
<polygon fill="white" stroke="#666666" points="1094.75,-53.12 942.25,-53.12 942.25,-22.62 1094.75,-22.62 1094.75,-53.12"/>
<text text-anchor="start" x="950.25" y="-39.62" font-family="FreeSans" font-size="10.00">DGtal::KhalimskySpaceND</text>
<text text-anchor="middle" x="1018.5" y="-28.38" font-family="FreeSans" font-size="10.00">&lt; dimAmbient, DGtal::int32_t &gt;</text>
</a>
</g>
</g>
<!-- Node3&#45;&gt;Node4 -->
<g id="edge3_Node000003_Node000004" class="edge">
<title>Node3&#45;&gt;Node4</title>
<g id="a_edge3_Node000003_Node000004"><a xlink:title=" ">
<path fill="none" stroke="orange" stroke-dasharray="5,2" d="M822.64,-57.82C860.11,-53.99 904.73,-49.42 941.82,-45.62"/>
<polygon fill="orange" stroke="orange" points="822.35,-54.34 812.76,-58.84 823.07,-61.3 822.35,-54.34"/>
</a>
</g>
<text text-anchor="start" x="829" y="-69.82" font-family="FreeSans" font-size="10.00" fill="grey"> &lt; dimAmbient, DGtal</text>
<text text-anchor="middle" x="876.62" y="-58.57" font-family="FreeSans" font-size="10.00" fill="grey">::int32_t &gt;</text>
</g>
<!-- Node5&#45;&gt;Node4 -->
<g id="edge5_Node000005_Node000004" class="edge">
<title>Node5&#45;&gt;Node4</title>
<g id="a_edge5_Node000005_Node000004"><a xlink:title=" ">
<path fill="none" stroke="#8b1a1a" d="M668.51,-24.44C749.74,-27.57 866.31,-32.06 941.97,-34.97"/>
<polygon fill="#8b1a1a" stroke="#8b1a1a" points="668.93,-20.96 658.8,-24.07 668.66,-27.95 668.93,-20.96"/>
</a>
</g>
</g>
</g>
</svg>

<g id="navigator" transform="translate(0 0)" fill="#404254">
  <rect fill="#f2f5e9" fill-opacity="0.5" stroke="#606060" stroke-width=".5" x="0" y="0" width="60" height="60"/>
  <use id="zoomplus" xlink:href="#zoomPlus" x="17" y="9" onmousedown="handleZoom(evt,'in')"/>
  <use id="zoomminus" xlink:href="#zoomMin" x="42" y="9" onmousedown="handleZoom(evt,'out')"/>
  <use id="reset" xlink:href="#resetDef" x="30" y="36" onmousedown="handleReset()"/>
   <use id="arrowup" xlink:href="#arrowUp" x="0" y="0" onmousedown="handlePan(0,-1)"/>
  <use id="arrowright" xlink:href="#arrowRight" x="0" y="0" onmousedown="handlePan(1,0)"/>
  <use id="arrowdown" xlink:href="#arrowDown" x="0" y="0" onmousedown="handlePan(0,1)"/>
  <use id="arrowleft" xlink:href="#arrowLeft" x="0" y="0" onmousedown="handlePan(-1,0)"/>
</g>
<svg viewBox="0 0 15 15" width="100%" height="30px" preserveAspectRatio="xMaxYMin meet">
 <g id="arrow_out" transform="scale(0.3 0.3)">
  <a xlink:href="classDGtal_1_1KhalimskySpaceNDHelper__inherit__graph_org.svg" target="_base">
   <rect id="button" ry="5" rx="5" y="6" x="6" height="38" width="38"
        fill="#f2f5e9" fill-opacity="0.5" stroke="#606060" stroke-width="1.0"/>
   <path id="arrow"
     d="M 11.500037,31.436501 C 11.940474,20.09759 22.043105,11.32322 32.158766,21.979434 L 37.068811,17.246167 C 37.068811,17.246167 37.088388,32 37.088388,32 L 22.160133,31.978069 C 22.160133,31.978069 26.997745,27.140456 26.997745,27.140456 C 18.528582,18.264221 13.291696,25.230495 11.500037,31.436501 z"
     style="fill:#404040;"/>
  </a>
 </g>
</svg>

<style type='text/css'>
<![CDATA[
[data-mouse-over-selected='false'] { opacity: 0.7; }
[data-mouse-over-selected='true']  { opacity: 1.0; }
]]>
</style>
<script type="application/ecmascript"><![CDATA[
document.addEventListener('DOMContentLoaded', (event) => {
  highlightEdges();
  highlightAdjacentNodes();
});
]]></script>
</svg>
