<?xml version="1.0" encoding="UTF-8" standalone="no"?>
<!DOCTYPE svg PUBLIC "-//W3C//DTD SVG 1.1//EN"
 "http://www.w3.org/Graphics/SVG/1.1/DTD/svg11.dtd">
<!-- Generated by graphviz version 12.2.1 (20241206.2353)
 -->
<!-- Title: DGtal::ImageContainerBySTLVector&lt; TDomain, TValue &gt; Pages: 1 -->
<svg width="617pt" height="88pt"
 viewBox="0.00 0.00 617.25 87.50" xmlns="http://www.w3.org/2000/svg" xmlns:xlink="http://www.w3.org/1999/xlink">
<g id="graph0" class="graph" transform="scale(1 1) rotate(0) translate(4 83.5)">
<title>DGtal::ImageContainerBySTLVector&lt; TDomain, TValue &gt;</title>
<!-- Node1 -->
<g id="Node000001" class="node">
<title>Node1</title>
<g id="a_Node000001"><a xlink:title=" ">
<polygon fill="#999999" stroke="#666666" points="297.75,-54.5 123.5,-54.5 123.5,-24 297.75,-24 297.75,-54.5"/>
<text text-anchor="start" x="131.5" y="-41" font-family="FreeSans" font-size="10.00">DGtal::ImageContainerBySTLVector</text>
<text text-anchor="middle" x="210.62" y="-29.75" font-family="FreeSans" font-size="10.00">&lt; TDomain, TValue &gt;</text>
</a>
</g>
</g>
<!-- Node3 -->
<g id="Node000003" class="node">
<title>Node3</title>
<g id="a_Node000003"><a xlink:href="classDGtal_1_1ImageContainerBySTLVector.html" target="_top" xlink:title=" ">
<polygon fill="white" stroke="#666666" points="609.25,-79.5 435,-79.5 435,-49 609.25,-49 609.25,-79.5"/>
<text text-anchor="start" x="443" y="-66" font-family="FreeSans" font-size="10.00">DGtal::ImageContainerBySTLVector</text>
<text text-anchor="middle" x="522.12" y="-54.75" font-family="FreeSans" font-size="10.00">&lt; Domain, Value &gt;</text>
</a>
</g>
</g>
<!-- Node1&#45;&gt;Node3 -->
<g id="edge2_Node000001_Node000003" class="edge">
<title>Node1&#45;&gt;Node3</title>
<g id="a_edge2_Node000001_Node000003"><a xlink:title=" ">
<path fill="none" stroke="orange" stroke-dasharray="5,2" d="M309.66,-47.17C349.74,-50.41 395.7,-54.12 434.52,-57.25"/>
<polygon fill="orange" stroke="orange" points="310.01,-43.69 299.76,-46.37 309.44,-50.66 310.01,-43.69"/>
</a>
</g>
<text text-anchor="middle" x="366.38" y="-57.2" font-family="FreeSans" font-size="10.00" fill="grey"> &lt; Domain, Value &gt;</text>
</g>
<!-- Node4 -->
<g id="Node000004" class="node">
<title>Node4</title>
<g id="a_Node000004"><a xlink:href="classDGtal_1_1ImageContainerBySTLVector.html" target="_top" xlink:title=" ">
<polygon fill="white" stroke="#666666" points="609.25,-30.5 435,-30.5 435,0 609.25,0 609.25,-30.5"/>
<text text-anchor="start" x="443" y="-17" font-family="FreeSans" font-size="10.00">DGtal::ImageContainerBySTLVector</text>
<text text-anchor="middle" x="522.12" y="-5.75" font-family="FreeSans" font-size="10.00">&lt; Domain, Storage * &gt;</text>
</a>
</g>
</g>
<!-- Node1&#45;&gt;Node4 -->
<g id="edge3_Node000001_Node000004" class="edge">
<title>Node1&#45;&gt;Node4</title>
<g id="a_edge3_Node000001_Node000004"><a xlink:title=" ">
<path fill="none" stroke="orange" stroke-dasharray="5,2" d="M309.45,-31.49C311.57,-31.33 313.67,-31.16 315.75,-31 354.79,-27.96 398.01,-24.64 434.68,-21.83"/>
<polygon fill="orange" stroke="orange" points="309.19,-28 299.5,-32.27 309.74,-34.98 309.19,-28"/>
</a>
</g>
<text text-anchor="middle" x="366.38" y="-32.75" font-family="FreeSans" font-size="10.00" fill="grey"> &lt; Domain, Storage * &gt;</text>
</g>
<!-- Node2 -->
<g id="Node000002" class="node">
<title>Node2</title>
<g id="a_Node000002"><a xlink:title=" ">
<polygon fill="white" stroke="#666666" points="86.5,-48.88 0,-48.88 0,-29.62 86.5,-29.62 86.5,-48.88"/>
<text text-anchor="middle" x="43.25" y="-35.38" font-family="FreeSans" font-size="10.00">std::vector&lt; T &gt;</text>
</a>
</g>
</g>
<!-- Node2&#45;&gt;Node1 -->
<g id="edge1_Node000001_Node000002" class="edge">
<title>Node2&#45;&gt;Node1</title>
<g id="a_edge1_Node000001_Node000002"><a xlink:title=" ">
<path fill="none" stroke="#63b8ff" d="M98.24,-39.25C106.25,-39.25 114.66,-39.25 123.14,-39.25"/>
<polygon fill="#63b8ff" stroke="#63b8ff" points="98.35,-35.75 88.35,-39.25 98.35,-42.75 98.35,-35.75"/>
</a>
</g>
</g>
</g>
</svg>
