<?xml version="1.0" encoding="UTF-8" standalone="no"?>
<!DOCTYPE svg PUBLIC "-//W3C//DTD SVG 1.1//EN"
 "http://www.w3.org/Graphics/SVG/1.1/DTD/svg11.dtd">
<!-- Generated by graphviz version 12.2.1 (20241206.2353)
 -->
<!-- Title: DGtal::CountedPtr&lt; T &gt; Pages: 1 -->
<!--zoomable 1624 -->

<svg id="main" version="1.1" xmlns="http://www.w3.org/2000/svg" xmlns:xlink="http://www.w3.org/1999/xlink" xml:space="preserve" onload="init(evt)">

<style type="text/css"><![CDATA[
.node, .edge {opacity: 0.7;}
.node.selected, .edge.selected {opacity: 1;}
.edge:hover path { stroke: red; }
.edge:hover polygon { stroke: red; fill: red; }
]]></style>

<defs>
  <circle id="rim" cx="0" cy="0" r="7"/>
  <circle id="rim2" cx="0" cy="0" r="3.5"/>
  <g id="zoomPlus">
    <use xlink:href="#rim" fill="#404040"><set attributeName="fill" to="#808080" begin="zoomplus.mouseover" end="zoomplus.mouseout"/></use>
    <path d="M-4,0h8M0,-4v8" fill="none" stroke="white" stroke-width="1.5" pointer-events="none"/>
  </g>
  <g id="zoomMin">
    <use xlink:href="#rim" fill="#404040"><set attributeName="fill" to="#808080" begin="zoomminus.mouseover" end="zoomminus.mouseout"/></use>
    <path d="M-4,0h8" fill="none" stroke="white" stroke-width="1.5" pointer-events="none"/>
  </g>
  <g id="arrowUp" transform="translate(30 24)">
    <use xlink:href="#rim"/>
    <path pointer-events="none" fill="none" stroke="white" stroke-width="1.5" d="M0,-3.0v7 M-2.5,-0.5L0,-3.0L2.5,-0.5"/>
  </g>
  <g id="arrowRight" transform="rotate(90) translate(36 -43)">
    <use xlink:href="#rim"/>
    <path pointer-events="none" fill="none" stroke="white" stroke-width="1.5" d="M0,-3.0v7 M-2.5,-0.5L0,-3.0L2.5,-0.5"/>
  </g>
  <g id="arrowDown" transform="rotate(180) translate(-30 -48)">
    <use xlink:href="#rim"/>
    <path pointer-events="none" fill="none" stroke="white" stroke-width="1.5" d="M0,-3.0v7 M-2.5,-0.5L0,-3.0L2.5,-0.5"/>
  </g>
  <g id="arrowLeft" transform="rotate(270) translate(-36 17)">
    <use xlink:href="#rim"/>
    <path pointer-events="none" fill="none" stroke="white" stroke-width="1.5" d="M0,-3.0v7 M-2.5,-0.5L0,-3.0L2.5,-0.5"/>
  </g>
  <g id="resetDef">
    <use xlink:href="#rim2" fill="#404040"><set attributeName="fill" to="#808080" begin="reset.mouseover" end="reset.mouseout"/></use>
  </g>
</defs>
<script type="application/ecmascript">
var viewWidth = 492;
var viewHeight = 1624;
var sectionId = 'dynsection-0';
</script>
<script type="application/ecmascript" xlink:href="svg.min.js"/>
<svg id="graph" class="graph">
<g id="viewport">
<title>DGtal::CountedPtr&lt; T &gt;</title>
<!-- Node1 -->
<g id="Node000001" class="node">
<title>Node1</title>
<g id="a_Node000001"><a xlink:title="Aim: Smart pointer based on reference counts.">
<polygon fill="#999999" stroke="#666666" points="121,-827.12 0,-827.12 0,-807.87 121,-807.87 121,-827.12"/>
<text text-anchor="middle" x="60.5" y="-813.62" font-family="FreeSans" font-size="10.00">DGtal::CountedPtr&lt; T &gt;</text>
</a>
</g>
</g>
<!-- Node2 -->
<g id="Node000002" class="node">
<title>Node2</title>
<g id="a_Node000002"><a xlink:href="classDGtal_1_1CountedPtr.html" target="_top" xlink:title=" ">
<polygon fill="white" stroke="#666666" points="467.75,-1604.74 332.5,-1604.74 332.5,-1574.24 467.75,-1574.24 467.75,-1604.74"/>
<text text-anchor="start" x="340.5" y="-1591.24" font-family="FreeSans" font-size="10.00">DGtal::CountedPtr&lt;</text>
<text text-anchor="middle" x="400.12" y="-1579.99" font-family="FreeSans" font-size="10.00"> DrawableWithDisplay3D &gt;</text>
</a>
</g>
</g>
<!-- Node1&#45;&gt;Node2 -->
<g id="edge1_Node000001_Node000002" class="edge">
<title>Node1&#45;&gt;Node2</title>
<g id="a_edge1_Node000001_Node000002"><a xlink:title=" ">
<path fill="none" stroke="orange" stroke-dasharray="5,2" d="M62.18,-838.77C66.1,-954.37 87.36,-1503.72 139,-1556.49 188.19,-1606.76 272.75,-1608.37 332.07,-1601.75"/>
<polygon fill="orange" stroke="orange" points="65.69,-838.78 61.86,-828.9 58.69,-839.01 65.69,-838.78"/>
</a>
</g>
<text text-anchor="middle" x="218.88" y="-1606.28" font-family="FreeSans" font-size="10.00" fill="grey"> &lt; DrawableWithDisplay3D &gt;</text>
</g>
<!-- Node3 -->
<g id="Node000003" class="node">
<title>Node3</title>
<g id="a_Node000003"><a xlink:href="classDGtal_1_1CountedPtr.html" target="_top" xlink:title=" ">
<polygon fill="white" stroke="#666666" points="451.62,-1555.74 348.62,-1555.74 348.62,-1525.24 451.62,-1525.24 451.62,-1555.74"/>
<text text-anchor="start" x="356.62" y="-1542.24" font-family="FreeSans" font-size="10.00">DGtal::CountedPtr&lt;</text>
<text text-anchor="middle" x="400.12" y="-1530.99" font-family="FreeSans" font-size="10.00"> OutputImage &gt;</text>
</a>
</g>
</g>
<!-- Node1&#45;&gt;Node3 -->
<g id="edge2_Node000001_Node000003" class="edge">
<title>Node1&#45;&gt;Node3</title>
<g id="a_edge2_Node000001_Node000003"><a xlink:title=" ">
<path fill="none" stroke="orange" stroke-dasharray="5,2" d="M62.33,-838.83C66.88,-950.22 90.3,-1461.62 139,-1510.49 167.4,-1538.99 280.88,-1542.42 348.21,-1541.83"/>
<polygon fill="orange" stroke="orange" points="65.84,-838.9 61.94,-829.05 58.84,-839.18 65.84,-838.9"/>
</a>
</g>
<text text-anchor="middle" x="218.88" y="-1543.17" font-family="FreeSans" font-size="10.00" fill="grey"> &lt; OutputImage &gt;</text>
</g>
<!-- Node4 -->
<g id="Node000004" class="node">
<title>Node4</title>
<g id="a_Node000004"><a xlink:href="classDGtal_1_1CountedPtr.html" target="_top" xlink:title=" ">
<polygon fill="white" stroke="#666666" points="451.62,-1506.74 348.62,-1506.74 348.62,-1476.24 451.62,-1476.24 451.62,-1506.74"/>
<text text-anchor="start" x="356.62" y="-1493.24" font-family="FreeSans" font-size="10.00">DGtal::CountedPtr&lt;</text>
<text text-anchor="middle" x="400.12" y="-1481.99" font-family="FreeSans" font-size="10.00"> DummyTbl &gt;</text>
</a>
</g>
</g>
<!-- Node1&#45;&gt;Node4 -->
<g id="edge3_Node000001_Node000004" class="edge">
<title>Node1&#45;&gt;Node4</title>
<g id="a_edge3_Node000001_Node000004"><a xlink:title=" ">
<path fill="none" stroke="orange" stroke-dasharray="5,2" d="M62.47,-838.89C67.55,-946.31 92.63,-1423.51 139,-1468.49 167.8,-1496.43 281.12,-1496.73 348.33,-1494.25"/>
<polygon fill="orange" stroke="orange" points="65.97,-838.77 62.01,-828.94 58.98,-839.1 65.97,-838.77"/>
</a>
</g>
<text text-anchor="middle" x="218.88" y="-1496.95" font-family="FreeSans" font-size="10.00" fill="grey"> &lt; DummyTbl &gt;</text>
</g>
<!-- Node5 -->
<g id="Node000005" class="node">
<title>Node5</title>
<g id="a_Node000005"><a xlink:href="classDGtal_1_1CountedPtr.html" target="_top" xlink:title=" ">
<polygon fill="white" stroke="#666666" points="452.38,-1458.37 347.88,-1458.37 347.88,-1416.62 452.38,-1416.62 452.38,-1458.37"/>
<text text-anchor="start" x="355.88" y="-1444.87" font-family="FreeSans" font-size="10.00">DGtal::CountedPtr&lt;</text>
<text text-anchor="start" x="355.88" y="-1433.62" font-family="FreeSans" font-size="10.00"> DGtal::SignalData&lt;</text>
<text text-anchor="middle" x="400.12" y="-1422.37" font-family="FreeSans" font-size="10.00"> Value &gt; &gt;</text>
</a>
</g>
</g>
<!-- Node1&#45;&gt;Node5 -->
<g id="edge4_Node000001_Node000005" class="edge">
<title>Node1&#45;&gt;Node5</title>
<g id="a_edge4_Node000001_Node000005"><a xlink:title=" ">
<path fill="none" stroke="orange" stroke-dasharray="5,2" d="M62.71,-839.05C68.68,-941.35 96.33,-1374.68 139,-1415.49 167.86,-1443.1 280.28,-1443.12 347.52,-1440.45"/>
<polygon fill="orange" stroke="orange" points="66.21,-838.86 62.14,-829.07 59.22,-839.26 66.21,-838.86"/>
</a>
</g>
<text text-anchor="start" x="173.12" y="-1454.56" font-family="FreeSans" font-size="10.00" fill="grey"> &lt; DGtal::SignalData</text>
<text text-anchor="middle" x="218.88" y="-1443.31" font-family="FreeSans" font-size="10.00" fill="grey">&lt; Value &gt; &gt;</text>
</g>
<!-- Node6 -->
<g id="Node000006" class="node">
<title>Node6</title>
<g id="a_Node000006"><a xlink:href="classDGtal_1_1CountedPtr.html" target="_top" xlink:title=" ">
<polygon fill="white" stroke="#666666" points="464,-1398.74 336.25,-1398.74 336.25,-1368.24 464,-1368.24 464,-1398.74"/>
<text text-anchor="start" x="344.25" y="-1385.24" font-family="FreeSans" font-size="10.00">DGtal::CountedPtr&lt;</text>
<text text-anchor="middle" x="400.12" y="-1373.99" font-family="FreeSans" font-size="10.00"> DrawableWithBoard2D &gt;</text>
</a>
</g>
</g>
<!-- Node1&#45;&gt;Node6 -->
<g id="edge5_Node000001_Node000006" class="edge">
<title>Node1&#45;&gt;Node6</title>
<g id="a_edge5_Node000001_Node000006"><a xlink:title=" ">
<path fill="none" stroke="orange" stroke-dasharray="5,2" d="M61.17,-838.91C60.26,-930.57 61.74,-1288.53 139,-1361.49 190.81,-1410.43 277.12,-1407.54 336,-1398.04"/>
<polygon fill="orange" stroke="orange" points="64.67,-839.14 61.3,-829.1 57.67,-839.06 64.67,-839.14"/>
</a>
</g>
<text text-anchor="middle" x="218.88" y="-1405.4" font-family="FreeSans" font-size="10.00" fill="grey"> &lt; DrawableWithBoard2D &gt;</text>
</g>
<!-- Node7 -->
<g id="Node000007" class="node">
<title>Node7</title>
<g id="a_Node000007"><a xlink:href="classDGtal_1_1CountedPtr.html" target="_top" xlink:title=" ">
<polygon fill="white" stroke="#666666" points="479.75,-1349.74 320.5,-1349.74 320.5,-1319.24 479.75,-1319.24 479.75,-1349.74"/>
<text text-anchor="start" x="328.5" y="-1336.24" font-family="FreeSans" font-size="10.00">DGtal::CountedPtr&lt;</text>
<text text-anchor="middle" x="400.12" y="-1324.99" font-family="FreeSans" font-size="10.00"> DGtal::DrawableWithBoard2D &gt;</text>
</a>
</g>
</g>
<!-- Node1&#45;&gt;Node7 -->
<g id="edge6_Node000001_Node000007" class="edge">
<title>Node1&#45;&gt;Node7</title>
<g id="a_edge6_Node000001_Node000007"><a xlink:title=" ">
<path fill="none" stroke="orange" stroke-dasharray="5,2" d="M61.62,-838.73C62.57,-923.89 70.71,-1239.07 139,-1304.49 186.19,-1349.7 262.4,-1353.59 320.17,-1348.32"/>
<polygon fill="orange" stroke="orange" points="65.12,-838.79 61.54,-828.82 58.12,-838.85 65.12,-838.79"/>
</a>
</g>
<text text-anchor="middle" x="218.88" y="-1351.88" font-family="FreeSans" font-size="10.00" fill="grey"> &lt; DGtal::DrawableWithBoard2D &gt;</text>
</g>
<!-- Node8 -->
<g id="Node000008" class="node">
<title>Node8</title>
<g id="a_Node000008"><a xlink:href="classDGtal_1_1CountedPtr.html" target="_top" xlink:title=" ">
<polygon fill="white" stroke="#666666" points="483.5,-1300.74 316.75,-1300.74 316.75,-1270.24 483.5,-1270.24 483.5,-1300.74"/>
<text text-anchor="start" x="324.75" y="-1287.24" font-family="FreeSans" font-size="10.00">DGtal::CountedPtr&lt;</text>
<text text-anchor="middle" x="400.12" y="-1275.99" font-family="FreeSans" font-size="10.00"> DGtal::DrawableWithDisplay3D &gt;</text>
</a>
</g>
</g>
<!-- Node1&#45;&gt;Node8 -->
<g id="edge7_Node000001_Node000008" class="edge">
<title>Node1&#45;&gt;Node8</title>
<g id="a_edge7_Node000001_Node000008"><a xlink:title=" ">
<path fill="none" stroke="orange" stroke-dasharray="5,2" d="M61.9,-838.78C63.91,-919.53 75.46,-1205.29 139,-1263.49 164.23,-1286.6 250.2,-1290.1 316.48,-1289.09"/>
<polygon fill="orange" stroke="orange" points="65.4,-838.71 61.68,-828.79 58.4,-838.86 65.4,-838.71"/>
</a>
</g>
<text text-anchor="middle" x="218.88" y="-1290.98" font-family="FreeSans" font-size="10.00" fill="grey"> &lt; DGtal::DrawableWithDisplay3D &gt;</text>
</g>
<!-- Node9 -->
<g id="Node000009" class="node">
<title>Node9</title>
<g id="a_Node000009"><a xlink:href="classDGtal_1_1CountedPtr.html" target="_top" xlink:title=" ">
<polygon fill="white" stroke="#666666" points="451.62,-1251.74 348.62,-1251.74 348.62,-1221.24 451.62,-1221.24 451.62,-1251.74"/>
<text text-anchor="start" x="356.62" y="-1238.24" font-family="FreeSans" font-size="10.00">DGtal::CountedPtr&lt;</text>
<text text-anchor="middle" x="400.12" y="-1226.99" font-family="FreeSans" font-size="10.00"> Domain &gt;</text>
</a>
</g>
</g>
<!-- Node1&#45;&gt;Node9 -->
<g id="edge8_Node000001_Node000009" class="edge">
<title>Node1&#45;&gt;Node9</title>
<g id="a_edge8_Node000001_Node000009"><a xlink:title=" ">
<path fill="none" stroke="orange" stroke-dasharray="5,2" d="M62.55,-838.81C66.65,-912.68 84.18,-1155.98 139,-1206.49 195.25,-1258.32 289.92,-1254.98 348.22,-1246.6"/>
<polygon fill="orange" stroke="orange" points="66.05,-838.73 62.03,-828.92 59.06,-839.09 66.05,-838.73"/>
</a>
</g>
<text text-anchor="middle" x="218.88" y="-1253.2" font-family="FreeSans" font-size="10.00" fill="grey"> &lt; Domain &gt;</text>
</g>
<!-- Node10 -->
<g id="Node000010" class="node">
<title>Node10</title>
<g id="a_Node000010"><a xlink:href="classDGtal_1_1CountedPtr.html" target="_top" xlink:title=" ">
<polygon fill="white" stroke="#666666" points="465.88,-1202.74 334.38,-1202.74 334.38,-1172.24 465.88,-1172.24 465.88,-1202.74"/>
<text text-anchor="start" x="342.38" y="-1189.24" font-family="FreeSans" font-size="10.00">DGtal::CountedPtr&lt;</text>
<text text-anchor="middle" x="400.12" y="-1177.99" font-family="FreeSans" font-size="10.00"> DigitalSurfaceContainer &gt;</text>
</a>
</g>
</g>
<!-- Node1&#45;&gt;Node10 -->
<g id="edge9_Node000001_Node000010" class="edge">
<title>Node1&#45;&gt;Node10</title>
<g id="a_edge9_Node000001_Node000010"><a xlink:title=" ">
<path fill="none" stroke="orange" stroke-dasharray="5,2" d="M63.03,-838.81C68.44,-907.62 89.08,-1121.88 139,-1165.49 167.07,-1190.02 266.48,-1192.11 333.95,-1190.47"/>
<polygon fill="orange" stroke="orange" points="66.53,-838.62 62.29,-828.91 59.55,-839.15 66.53,-838.62"/>
</a>
</g>
<text text-anchor="middle" x="218.88" y="-1192.62" font-family="FreeSans" font-size="10.00" fill="grey"> &lt; DigitalSurfaceContainer &gt;</text>
</g>
<!-- Node11 -->
<g id="Node000011" class="node">
<title>Node11</title>
<g id="a_Node000011"><a xlink:href="classDGtal_1_1CountedPtr.html" target="_top" xlink:title=" ">
<polygon fill="white" stroke="#666666" points="451.62,-1153.74 348.62,-1153.74 348.62,-1123.24 451.62,-1123.24 451.62,-1153.74"/>
<text text-anchor="start" x="356.62" y="-1140.24" font-family="FreeSans" font-size="10.00">DGtal::CountedPtr&lt;</text>
<text text-anchor="middle" x="400.12" y="-1128.99" font-family="FreeSans" font-size="10.00"> DigSurface &gt;</text>
</a>
</g>
</g>
<!-- Node1&#45;&gt;Node11 -->
<g id="edge10_Node000001_Node000011" class="edge">
<title>Node1&#45;&gt;Node11</title>
<g id="a_edge10_Node000001_Node000011"><a xlink:title=" ">
<path fill="none" stroke="orange" stroke-dasharray="5,2" d="M64.1,-838.69C71.97,-899.37 97.64,-1071.64 139,-1107.49 196.65,-1157.46 290.44,-1155.25 348.25,-1147.79"/>
<polygon fill="orange" stroke="orange" points="67.6,-838.51 62.87,-829.03 60.66,-839.39 67.6,-838.51"/>
</a>
</g>
<text text-anchor="middle" x="218.88" y="-1153.57" font-family="FreeSans" font-size="10.00" fill="grey"> &lt; DigSurface &gt;</text>
</g>
<!-- Node12 -->
<g id="Node000012" class="node">
<title>Node12</title>
<g id="a_Node000012"><a xlink:href="classDGtal_1_1CountedPtr.html" target="_top" xlink:title=" ">
<polygon fill="white" stroke="#666666" points="451.62,-1104.74 348.62,-1104.74 348.62,-1074.24 451.62,-1074.24 451.62,-1104.74"/>
<text text-anchor="start" x="356.62" y="-1091.24" font-family="FreeSans" font-size="10.00">DGtal::CountedPtr&lt;</text>
<text text-anchor="middle" x="400.12" y="-1079.99" font-family="FreeSans" font-size="10.00"> GraphVisitor &gt;</text>
</a>
</g>
</g>
<!-- Node1&#45;&gt;Node12 -->
<g id="edge11_Node000001_Node000012" class="edge">
<title>Node1&#45;&gt;Node12</title>
<g id="a_edge11_Node000001_Node000012"><a xlink:title=" ">
<path fill="none" stroke="orange" stroke-dasharray="5,2" d="M60.84,-838.86C60.61,-888.18 67.65,-1010.11 139,-1067.49 170.12,-1092.52 281.69,-1093.51 348.18,-1091.7"/>
<polygon fill="orange" stroke="orange" points="64.34,-839.05 61.01,-828.99 57.34,-838.93 64.34,-839.05"/>
</a>
</g>
<text text-anchor="middle" x="218.88" y="-1093.97" font-family="FreeSans" font-size="10.00" fill="grey"> &lt; GraphVisitor &gt;</text>
</g>
<!-- Node13 -->
<g id="Node000013" class="node">
<title>Node13</title>
<g id="a_Node000013"><a xlink:href="classDGtal_1_1CountedPtr.html" target="_top" xlink:title=" ">
<polygon fill="white" stroke="#666666" points="451.62,-1055.74 348.62,-1055.74 348.62,-1025.24 451.62,-1025.24 451.62,-1055.74"/>
<text text-anchor="start" x="356.62" y="-1042.24" font-family="FreeSans" font-size="10.00">DGtal::CountedPtr&lt;</text>
<text text-anchor="middle" x="400.12" y="-1030.99" font-family="FreeSans" font-size="10.00"> TImageContainer &gt;</text>
</a>
</g>
</g>
<!-- Node1&#45;&gt;Node13 -->
<g id="edge12_Node000001_Node000013" class="edge">
<title>Node1&#45;&gt;Node13</title>
<g id="a_edge12_Node000001_Node000013"><a xlink:title=" ">
<path fill="none" stroke="orange" stroke-dasharray="5,2" d="M62.96,-838.59C67.03,-879.76 82.31,-970.5 139,-1013.49 199.32,-1059.24 291.43,-1056.85 348.32,-1049.62"/>
<polygon fill="orange" stroke="orange" points="66.46,-838.48 62.13,-828.81 59.48,-839.07 66.46,-838.48"/>
</a>
</g>
<text text-anchor="middle" x="218.88" y="-1055.4" font-family="FreeSans" font-size="10.00" fill="grey"> &lt; TImageContainer &gt;</text>
</g>
<!-- Node14 -->
<g id="Node000014" class="node">
<title>Node14</title>
<g id="a_Node000014"><a xlink:href="classDGtal_1_1CountedPtr.html" target="_top" xlink:title=" ">
<polygon fill="white" stroke="#666666" points="451.62,-1006.74 348.62,-1006.74 348.62,-976.24 451.62,-976.24 451.62,-1006.74"/>
<text text-anchor="start" x="356.62" y="-993.24" font-family="FreeSans" font-size="10.00">DGtal::CountedPtr&lt;</text>
<text text-anchor="middle" x="400.12" y="-981.99" font-family="FreeSans" font-size="10.00"> const Domain &gt;</text>
</a>
</g>
</g>
<!-- Node1&#45;&gt;Node14 -->
<g id="edge13_Node000001_Node000014" class="edge">
<title>Node1&#45;&gt;Node14</title>
<g id="a_edge13_Node000001_Node000014"><a xlink:title=" ">
<path fill="none" stroke="orange" stroke-dasharray="5,2" d="M66.85,-838.43C75.97,-869.55 97.71,-927.35 139,-955.49 201.44,-998.05 292.07,-1000.59 348.21,-997.09"/>
<polygon fill="orange" stroke="orange" points="70.29,-837.75 64.26,-829.04 63.54,-839.61 70.29,-837.75"/>
</a>
</g>
<text text-anchor="middle" x="218.88" y="-999.54" font-family="FreeSans" font-size="10.00" fill="grey"> &lt; const Domain &gt;</text>
</g>
<!-- Node15 -->
<g id="Node000015" class="node">
<title>Node15</title>
<g id="a_Node000015"><a xlink:href="classDGtal_1_1CountedPtr.html" target="_top" xlink:title=" ">
<polygon fill="white" stroke="#666666" points="451.62,-957.74 348.62,-957.74 348.62,-927.24 451.62,-927.24 451.62,-957.74"/>
<text text-anchor="start" x="356.62" y="-944.24" font-family="FreeSans" font-size="10.00">DGtal::CountedPtr&lt;</text>
<text text-anchor="middle" x="400.12" y="-932.99" font-family="FreeSans" font-size="10.00"> Sequence &gt;</text>
</a>
</g>
</g>
<!-- Node1&#45;&gt;Node15 -->
<g id="edge14_Node000001_Node000015" class="edge">
<title>Node1&#45;&gt;Node15</title>
<g id="a_edge14_Node000001_Node000015"><a xlink:title=" ">
<path fill="none" stroke="orange" stroke-dasharray="5,2" d="M74.33,-836.86C88,-855.8 111.43,-883.88 139,-898.49 205.36,-933.68 293.45,-941.84 348.2,-943.16"/>
<polygon fill="orange" stroke="orange" points="77.22,-834.88 68.65,-828.66 71.47,-838.87 77.22,-834.88"/>
</a>
</g>
<text text-anchor="middle" x="218.88" y="-941.71" font-family="FreeSans" font-size="10.00" fill="grey"> &lt; Sequence &gt;</text>
</g>
<!-- Node16 -->
<g id="Node000016" class="node">
<title>Node16</title>
<g id="a_Node000016"><a xlink:href="classDGtal_1_1CountedPtr.html" target="_top" xlink:title=" ">
<polygon fill="white" stroke="#666666" points="453.88,-908.74 346.38,-908.74 346.38,-878.24 453.88,-878.24 453.88,-908.74"/>
<text text-anchor="start" x="354.38" y="-895.24" font-family="FreeSans" font-size="10.00">DGtal::CountedPtr&lt;</text>
<text text-anchor="middle" x="400.12" y="-883.99" font-family="FreeSans" font-size="10.00"> DGtal::ImplicitBall &gt;</text>
</a>
</g>
</g>
<!-- Node1&#45;&gt;Node16 -->
<g id="edge15_Node000001_Node000016" class="edge">
<title>Node1&#45;&gt;Node16</title>
<g id="a_edge15_Node000001_Node000016"><a xlink:title=" ">
<path fill="none" stroke="orange" stroke-dasharray="5,2" d="M90.89,-832.49C105.1,-839.19 122.6,-846.66 139,-851.49 208.98,-872.13 292.74,-883.35 345.94,-888.88"/>
<polygon fill="orange" stroke="orange" points="92.62,-829.44 82.1,-828.23 89.57,-835.74 92.62,-829.44"/>
</a>
</g>
<text text-anchor="middle" x="218.88" y="-885.06" font-family="FreeSans" font-size="10.00" fill="grey"> &lt; DGtal::ImplicitBall &gt;</text>
</g>
<!-- Node17 -->
<g id="Node000017" class="node">
<title>Node17</title>
<g id="a_Node000017"><a xlink:href="classDGtal_1_1CountedPtr.html" target="_top" xlink:title=" ">
<polygon fill="white" stroke="#666666" points="462.12,-859.74 338.12,-859.74 338.12,-829.24 462.12,-829.24 462.12,-859.74"/>
<text text-anchor="start" x="346.12" y="-846.24" font-family="FreeSans" font-size="10.00">DGtal::CountedPtr&lt;</text>
<text text-anchor="middle" x="400.12" y="-834.99" font-family="FreeSans" font-size="10.00"> DGtal::GaussDigitizer &gt;</text>
</a>
</g>
</g>
<!-- Node1&#45;&gt;Node17 -->
<g id="edge16_Node000001_Node000017" class="edge">
<title>Node1&#45;&gt;Node17</title>
<g id="a_edge16_Node000001_Node000017"><a xlink:title=" ">
<path fill="none" stroke="orange" stroke-dasharray="5,2" d="M132.89,-823.2C193.64,-828.06 280,-834.96 337.72,-839.58"/>
<polygon fill="orange" stroke="orange" points="133.23,-819.72 122.98,-822.41 132.67,-826.69 133.23,-819.72"/>
</a>
</g>
<text text-anchor="middle" x="218.88" y="-837.51" font-family="FreeSans" font-size="10.00" fill="grey"> &lt; DGtal::GaussDigitizer &gt;</text>
</g>
<!-- Node18 -->
<g id="Node000018" class="node">
<title>Node18</title>
<g id="a_Node000018"><a xlink:href="classDGtal_1_1CountedPtr.html" target="_top" xlink:title=" ">
<polygon fill="white" stroke="#666666" points="465.88,-811.37 334.38,-811.37 334.38,-769.62 465.88,-769.62 465.88,-811.37"/>
<text text-anchor="start" x="342.38" y="-797.87" font-family="FreeSans" font-size="10.00">DGtal::CountedPtr&lt;</text>
<text text-anchor="start" x="342.38" y="-786.62" font-family="FreeSans" font-size="10.00"> DGtal::HyperRectDomain</text>
<text text-anchor="middle" x="400.12" y="-775.37" font-family="FreeSans" font-size="10.00">&lt; Space &gt; &gt;</text>
</a>
</g>
</g>
<!-- Node1&#45;&gt;Node18 -->
<g id="edge17_Node000001_Node000018" class="edge">
<title>Node1&#45;&gt;Node18</title>
<g id="a_edge17_Node000001_Node000018"><a xlink:title=" ">
<path fill="none" stroke="orange" stroke-dasharray="5,2" d="M105.67,-804.61C116.49,-801.95 128.09,-799.5 139,-797.99 205.01,-788.85 281.31,-787.75 334.13,-788.46"/>
<polygon fill="orange" stroke="orange" points="105.03,-801.17 96.22,-807.06 106.78,-807.94 105.03,-801.17"/>
</a>
</g>
<text text-anchor="start" x="156.62" y="-810.99" font-family="FreeSans" font-size="10.00" fill="grey"> &lt; DGtal::HyperRectDomain</text>
<text text-anchor="middle" x="218.88" y="-799.74" font-family="FreeSans" font-size="10.00" fill="grey">&lt; Space &gt; &gt;</text>
</g>
<!-- Node19 -->
<g id="Node000019" class="node">
<title>Node19</title>
<g id="a_Node000019"><a xlink:href="classDGtal_1_1CountedPtr.html" target="_top" xlink:title=" ">
<polygon fill="white" stroke="#666666" points="481.25,-751.37 319,-751.37 319,-709.62 481.25,-709.62 481.25,-751.37"/>
<text text-anchor="start" x="327" y="-737.87" font-family="FreeSans" font-size="10.00">DGtal::CountedPtr&lt;</text>
<text text-anchor="start" x="327" y="-726.62" font-family="FreeSans" font-size="10.00"> DGtal::functors::PointFunctor</text>
<text text-anchor="middle" x="400.12" y="-715.37" font-family="FreeSans" font-size="10.00">FromPointPredicateAndDomain &gt;</text>
</a>
</g>
</g>
<!-- Node1&#45;&gt;Node19 -->
<g id="edge18_Node000001_Node000019" class="edge">
<title>Node1&#45;&gt;Node19</title>
<g id="a_edge18_Node000001_Node000019"><a xlink:title=" ">
<path fill="none" stroke="orange" stroke-dasharray="5,2" d="M76.63,-799.09C90.89,-783.22 113.78,-761.24 139,-750.74 195.88,-727.07 265.74,-722.84 318.73,-724.07"/>
<polygon fill="orange" stroke="orange" points="74.16,-796.6 70.27,-806.45 79.46,-801.17 74.16,-796.6"/>
</a>
</g>
<text text-anchor="start" x="148" y="-774.99" font-family="FreeSans" font-size="10.00" fill="grey"> &lt; DGtal::functors::</text>
<text text-anchor="start" x="148" y="-763.74" font-family="FreeSans" font-size="10.00" fill="grey">PointFunctorFromPointPredicate</text>
<text text-anchor="middle" x="218.88" y="-752.49" font-family="FreeSans" font-size="10.00" fill="grey">AndDomain &gt;</text>
</g>
<!-- Node20 -->
<g id="Node000020" class="node">
<title>Node20</title>
<g id="a_Node000020"><a xlink:href="classDGtal_1_1CountedPtr.html" target="_top" xlink:title=" ">
<polygon fill="white" stroke="#666666" points="464,-691.74 336.25,-691.74 336.25,-661.24 464,-661.24 464,-691.74"/>
<text text-anchor="start" x="344.25" y="-678.24" font-family="FreeSans" font-size="10.00">DGtal::CountedPtr&lt;</text>
<text text-anchor="middle" x="400.12" y="-666.99" font-family="FreeSans" font-size="10.00"> DGtal::FunctorOnCells &gt;</text>
</a>
</g>
</g>
<!-- Node1&#45;&gt;Node20 -->
<g id="edge19_Node000001_Node000020" class="edge">
<title>Node1&#45;&gt;Node20</title>
<g id="a_edge19_Node000001_Node000020"><a xlink:title=" ">
<path fill="none" stroke="orange" stroke-dasharray="5,2" d="M69.67,-797.18C81.08,-771.71 104.36,-728.9 139,-708.24 198.89,-672.54 280.29,-668.2 335.99,-670.47"/>
<polygon fill="orange" stroke="orange" points="66.56,-795.55 65.86,-806.12 73,-798.29 66.56,-795.55"/>
</a>
</g>
<text text-anchor="middle" x="218.88" y="-709.99" font-family="FreeSans" font-size="10.00" fill="grey"> &lt; DGtal::FunctorOnCells &gt;</text>
</g>
<!-- Node21 -->
<g id="Node000021" class="node">
<title>Node21</title>
<g id="a_Node000021"><a xlink:href="classDGtal_1_1CountedPtr.html" target="_top" xlink:title=" ">
<polygon fill="white" stroke="#666666" points="482.75,-642.74 317.5,-642.74 317.5,-612.24 482.75,-612.24 482.75,-642.74"/>
<text text-anchor="start" x="325.5" y="-629.24" font-family="FreeSans" font-size="10.00">DGtal::CountedPtr&lt;</text>
<text text-anchor="middle" x="400.12" y="-617.99" font-family="FreeSans" font-size="10.00"> DGtal::DigitalSurfaceConvolver &gt;</text>
</a>
</g>
</g>
<!-- Node1&#45;&gt;Node21 -->
<g id="edge20_Node000001_Node000021" class="edge">
<title>Node1&#45;&gt;Node21</title>
<g id="a_edge20_Node000001_Node000021"><a xlink:title=" ">
<path fill="none" stroke="orange" stroke-dasharray="5,2" d="M64.78,-796.83C71.6,-761.32 90.9,-689.27 139,-655.24 190.26,-618.98 262.02,-613.79 317.18,-616.69"/>
<polygon fill="orange" stroke="orange" points="61.4,-795.79 63.12,-806.25 68.3,-797.01 61.4,-795.79"/>
</a>
</g>
<text text-anchor="middle" x="218.88" y="-656.99" font-family="FreeSans" font-size="10.00" fill="grey"> &lt; DGtal::DigitalSurfaceConvolver &gt;</text>
</g>
<!-- Node22 -->
<g id="Node000022" class="node">
<title>Node22</title>
<g id="a_Node000022"><a xlink:href="classDGtal_1_1CountedPtr.html" target="_top" xlink:title=" ">
<polygon fill="white" stroke="#666666" points="451.62,-593.74 348.62,-593.74 348.62,-563.24 451.62,-563.24 451.62,-593.74"/>
<text text-anchor="start" x="356.62" y="-580.24" font-family="FreeSans" font-size="10.00">DGtal::CountedPtr&lt;</text>
<text text-anchor="middle" x="400.12" y="-568.99" font-family="FreeSans" font-size="10.00"> DigitalTopology &gt;</text>
</a>
</g>
</g>
<!-- Node1&#45;&gt;Node22 -->
<g id="edge21_Node000001_Node000022" class="edge">
<title>Node1&#45;&gt;Node22</title>
<g id="a_edge21_Node000001_Node000022"><a xlink:title=" ">
<path fill="none" stroke="orange" stroke-dasharray="5,2" d="M62.02,-796.31C64.37,-751.94 76.63,-649.35 139,-601.24 198.86,-555.08 291.1,-559.4 348.15,-568.03"/>
<polygon fill="orange" stroke="orange" points="58.53,-796 61.64,-806.13 65.52,-796.28 58.53,-796"/>
</a>
</g>
<text text-anchor="middle" x="218.88" y="-602.99" font-family="FreeSans" font-size="10.00" fill="grey"> &lt; DigitalTopology &gt;</text>
</g>
<!-- Node23 -->
<g id="Node000023" class="node">
<title>Node23</title>
<g id="a_Node000023"><a xlink:href="classDGtal_1_1CountedPtr.html" target="_top" xlink:title=" ">
<polygon fill="white" stroke="#666666" points="451.62,-544.74 348.62,-544.74 348.62,-514.24 451.62,-514.24 451.62,-544.74"/>
<text text-anchor="start" x="356.62" y="-531.24" font-family="FreeSans" font-size="10.00">DGtal::CountedPtr&lt;</text>
<text text-anchor="middle" x="400.12" y="-519.99" font-family="FreeSans" font-size="10.00"> DigitalSet &gt;</text>
</a>
</g>
</g>
<!-- Node1&#45;&gt;Node23 -->
<g id="edge22_Node000001_Node000023" class="edge">
<title>Node1&#45;&gt;Node23</title>
<g id="a_edge22_Node000001_Node000023"><a xlink:title=" ">
<path fill="none" stroke="orange" stroke-dasharray="5,2" d="M64.46,-796.13C72.97,-738 99.48,-579.19 139,-547.24 197.88,-499.65 290.85,-506.67 348.24,-517.25"/>
<polygon fill="orange" stroke="orange" points="61,-795.6 63.05,-805.99 67.93,-796.59 61,-795.6"/>
</a>
</g>
<text text-anchor="middle" x="218.88" y="-548.99" font-family="FreeSans" font-size="10.00" fill="grey"> &lt; DigitalSet &gt;</text>
</g>
<!-- Node24 -->
<g id="Node000024" class="node">
<title>Node24</title>
<g id="a_Node000024"><a xlink:href="classDGtal_1_1CountedPtr.html" target="_top" xlink:title=" ">
<polygon fill="white" stroke="#666666" points="477.88,-495.74 322.38,-495.74 322.38,-465.24 477.88,-465.24 477.88,-495.74"/>
<text text-anchor="start" x="330.38" y="-482.24" font-family="FreeSans" font-size="10.00">DGtal::CountedPtr&lt;</text>
<text text-anchor="middle" x="400.12" y="-470.99" font-family="FreeSans" font-size="10.00"> DGtal::IndexedDigitalSurface &gt;</text>
</a>
</g>
</g>
<!-- Node1&#45;&gt;Node24 -->
<g id="edge23_Node000001_Node000024" class="edge">
<title>Node1&#45;&gt;Node24</title>
<g id="a_edge23_Node000001_Node000024"><a xlink:title=" ">
<path fill="none" stroke="orange" stroke-dasharray="5,2" d="M63.34,-796.35C69.52,-730.88 91.8,-533.53 139,-494.24 193.66,-448.75 279.32,-453.96 337.27,-464.74"/>
<polygon fill="orange" stroke="orange" points="59.88,-795.82 62.46,-806.09 66.85,-796.45 59.88,-795.82"/>
</a>
</g>
<text text-anchor="middle" x="218.88" y="-495.99" font-family="FreeSans" font-size="10.00" fill="grey"> &lt; DGtal::IndexedDigitalSurface &gt;</text>
</g>
<!-- Node25 -->
<g id="Node000025" class="node">
<title>Node25</title>
<g id="a_Node000025"><a xlink:href="classDGtal_1_1CountedPtr.html" target="_top" xlink:title=" ">
<polygon fill="white" stroke="#666666" points="452.38,-447.37 347.88,-447.37 347.88,-405.62 452.38,-405.62 452.38,-447.37"/>
<text text-anchor="start" x="355.88" y="-433.87" font-family="FreeSans" font-size="10.00">DGtal::CountedPtr&lt;</text>
<text text-anchor="start" x="355.88" y="-422.62" font-family="FreeSans" font-size="10.00"> DGtal::SignalData&lt;</text>
<text text-anchor="middle" x="400.12" y="-411.37" font-family="FreeSans" font-size="10.00"> TValue &gt; &gt;</text>
</a>
</g>
</g>
<!-- Node1&#45;&gt;Node25 -->
<g id="edge24_Node000001_Node000025" class="edge">
<title>Node1&#45;&gt;Node25</title>
<g id="a_edge24_Node000001_Node000025"><a xlink:title=" ">
<path fill="none" stroke="orange" stroke-dasharray="5,2" d="M62.4,-796.12C66.01,-722.07 82.11,-478.44 139,-430.99 196.84,-382.75 289.7,-395.45 347.41,-410.16"/>
<polygon fill="orange" stroke="orange" points="58.91,-795.88 61.95,-806.03 65.9,-796.2 58.91,-795.88"/>
</a>
</g>
<text text-anchor="start" x="173.12" y="-443.99" font-family="FreeSans" font-size="10.00" fill="grey"> &lt; DGtal::SignalData</text>
<text text-anchor="middle" x="218.88" y="-432.74" font-family="FreeSans" font-size="10.00" fill="grey">&lt; TValue &gt; &gt;</text>
</g>
<!-- Node26 -->
<g id="Node000026" class="node">
<title>Node26</title>
<g id="a_Node000026"><a xlink:href="classDGtal_1_1CountedPtr.html" target="_top" xlink:title=" ">
<polygon fill="white" stroke="#666666" points="459.12,-387.37 341.12,-387.37 341.12,-345.62 459.12,-345.62 459.12,-387.37"/>
<text text-anchor="start" x="349.12" y="-373.87" font-family="FreeSans" font-size="10.00">DGtal::CountedPtr&lt;</text>
<text text-anchor="start" x="349.12" y="-362.62" font-family="FreeSans" font-size="10.00"> StabbingLineComputer</text>
<text text-anchor="middle" x="400.12" y="-351.37" font-family="FreeSans" font-size="10.00">&lt; ConstIterator &gt; &gt;</text>
</a>
</g>
</g>
<!-- Node1&#45;&gt;Node26 -->
<g id="edge25_Node000001_Node000026" class="edge">
<title>Node1&#45;&gt;Node26</title>
<g id="a_edge25_Node000001_Node000026"><a xlink:title=" ">
<path fill="none" stroke="orange" stroke-dasharray="5,2" d="M61.76,-796.24C63.25,-715.05 73.17,-426.16 139,-369.99 194.23,-322.87 282.66,-333.54 340.83,-348.01"/>
<polygon fill="orange" stroke="orange" points="58.26,-796.04 61.61,-806.09 65.26,-796.15 58.26,-796.04"/>
</a>
</g>
<text text-anchor="start" x="163.38" y="-382.99" font-family="FreeSans" font-size="10.00" fill="grey"> &lt; StabbingLineComputer</text>
<text text-anchor="middle" x="218.88" y="-371.74" font-family="FreeSans" font-size="10.00" fill="grey">&lt; ConstIterator &gt; &gt;</text>
</g>
<!-- Node27 -->
<g id="Node000027" class="node">
<title>Node27</title>
<g id="a_Node000027"><a xlink:href="classDGtal_1_1CountedPtr.html" target="_top" xlink:title=" ">
<polygon fill="white" stroke="#666666" points="451.62,-327.74 348.62,-327.74 348.62,-297.24 451.62,-297.24 451.62,-327.74"/>
<text text-anchor="start" x="356.62" y="-314.24" font-family="FreeSans" font-size="10.00">DGtal::CountedPtr&lt;</text>
<text text-anchor="middle" x="400.12" y="-302.99" font-family="FreeSans" font-size="10.00"> Preimage &gt;</text>
</a>
</g>
</g>
<!-- Node1&#45;&gt;Node27 -->
<g id="edge26_Node000001_Node000027" class="edge">
<title>Node1&#45;&gt;Node27</title>
<g id="a_edge26_Node000001_Node000027"><a xlink:title=" ">
<path fill="none" stroke="orange" stroke-dasharray="5,2" d="M61.39,-795.91C61.44,-708.72 66.56,-384.16 139,-320.24 195.92,-270.02 290.16,-282.38 348.22,-296.81"/>
<polygon fill="orange" stroke="orange" points="57.89,-795.88 61.41,-805.88 64.89,-795.87 57.89,-795.88"/>
</a>
</g>
<text text-anchor="middle" x="218.88" y="-321.99" font-family="FreeSans" font-size="10.00" fill="grey"> &lt; Preimage &gt;</text>
</g>
<!-- Node28 -->
<g id="Node000028" class="node">
<title>Node28</title>
<g id="a_Node000028"><a xlink:href="classDGtal_1_1CountedPtr.html" target="_top" xlink:title=" ">
<polygon fill="white" stroke="#666666" points="453.12,-278.74 347.12,-278.74 347.12,-248.24 453.12,-248.24 453.12,-278.74"/>
<text text-anchor="start" x="355.12" y="-265.24" font-family="FreeSans" font-size="10.00">DGtal::CountedPtr&lt;</text>
<text text-anchor="middle" x="400.12" y="-253.99" font-family="FreeSans" font-size="10.00"> GeometricFunctor &gt;</text>
</a>
</g>
</g>
<!-- Node1&#45;&gt;Node28 -->
<g id="edge27_Node000001_Node000028" class="edge">
<title>Node1&#45;&gt;Node28</title>
<g id="a_edge27_Node000001_Node000028"><a xlink:title=" ">
<path fill="none" stroke="orange" stroke-dasharray="5,2" d="M61.04,-796.38C59.53,-704.45 58.77,-340.5 139,-269.24 196.5,-218.17 292.57,-232.49 350.47,-247.8"/>
<polygon fill="orange" stroke="orange" points="57.54,-796.25 61.23,-806.18 64.54,-796.12 57.54,-796.25"/>
</a>
</g>
<text text-anchor="middle" x="218.88" y="-270.99" font-family="FreeSans" font-size="10.00" fill="grey"> &lt; GeometricFunctor &gt;</text>
</g>
<!-- Node29 -->
<g id="Node000029" class="node">
<title>Node29</title>
<g id="a_Node000029"><a xlink:href="classDGtal_1_1CountedPtr.html" target="_top" xlink:title=" ">
<polygon fill="white" stroke="#666666" points="455.75,-229.74 344.5,-229.74 344.5,-199.24 455.75,-199.24 455.75,-229.74"/>
<text text-anchor="start" x="352.5" y="-216.24" font-family="FreeSans" font-size="10.00">DGtal::CountedPtr&lt;</text>
<text text-anchor="middle" x="400.12" y="-204.99" font-family="FreeSans" font-size="10.00"> ShapePointFunctor &gt;</text>
</a>
</g>
</g>
<!-- Node1&#45;&gt;Node29 -->
<g id="edge28_Node000001_Node000029" class="edge">
<title>Node1&#45;&gt;Node29</title>
<g id="a_edge28_Node000001_Node000029"><a xlink:title=" ">
<path fill="none" stroke="orange" stroke-dasharray="5,2" d="M62.63,-796.14C68.27,-693.9 94.8,-257.66 139,-218.24 168.16,-192.24 276.7,-199.67 344.02,-207.22"/>
<polygon fill="orange" stroke="orange" points="59.15,-795.68 62.11,-805.86 66.14,-796.06 59.15,-795.68"/>
</a>
</g>
<text text-anchor="middle" x="218.88" y="-219.99" font-family="FreeSans" font-size="10.00" fill="grey"> &lt; ShapePointFunctor &gt;</text>
</g>
<!-- Node30 -->
<g id="Node000030" class="node">
<title>Node30</title>
<g id="a_Node000030"><a xlink:href="classDGtal_1_1CountedPtr.html" target="_top" xlink:title=" ">
<polygon fill="white" stroke="#666666" points="463.25,-181.12 337,-181.12 337,-161.87 463.25,-161.87 463.25,-181.12"/>
<text text-anchor="middle" x="400.12" y="-167.62" font-family="FreeSans" font-size="10.00">DGtal::CountedPtr&lt; A1 &gt;</text>
</a>
</g>
</g>
<!-- Node1&#45;&gt;Node30 -->
<g id="edge29_Node000001_Node000030" class="edge">
<title>Node1&#45;&gt;Node30</title>
<g id="a_edge29_Node000001_Node000030"><a xlink:title=" ">
<path fill="none" stroke="orange" stroke-dasharray="5,2" d="M62.51,-796.36C67.71,-691.24 93.16,-228.02 139,-185.24 166.61,-159.48 268.89,-161.48 336.68,-165.98"/>
<polygon fill="orange" stroke="orange" points="59.01,-796.15 62.02,-806.31 66,-796.49 59.01,-796.15"/>
</a>
</g>
<text text-anchor="middle" x="218.88" y="-186.99" font-family="FreeSans" font-size="10.00" fill="grey"> &lt; A1 &gt;</text>
</g>
<!-- Node31 -->
<g id="Node000031" class="node">
<title>Node31</title>
<g id="a_Node000031"><a xlink:href="classDGtal_1_1CountedPtr.html" target="_top" xlink:title=" ">
<polygon fill="white" stroke="#666666" points="451.62,-143.74 348.62,-143.74 348.62,-113.24 451.62,-113.24 451.62,-143.74"/>
<text text-anchor="start" x="356.62" y="-130.24" font-family="FreeSans" font-size="10.00">DGtal::CountedPtr&lt;</text>
<text text-anchor="middle" x="400.12" y="-118.99" font-family="FreeSans" font-size="10.00"> Point &gt;</text>
</a>
</g>
</g>
<!-- Node1&#45;&gt;Node31 -->
<g id="edge30_Node000001_Node000031" class="edge">
<title>Node1&#45;&gt;Node31</title>
<g id="a_edge30_Node000001_Node000031"><a xlink:title=" ">
<path fill="none" stroke="orange" stroke-dasharray="5,2" d="M62.38,-796.17C67.12,-687.05 91.04,-194.34 139,-148.24 194.1,-95.28 289.59,-103.56 348.27,-115.35"/>
<polygon fill="orange" stroke="orange" points="58.89,-795.87 61.97,-806.01 65.89,-796.17 58.89,-795.87"/>
</a>
</g>
<text text-anchor="middle" x="218.88" y="-149.99" font-family="FreeSans" font-size="10.00" fill="grey"> &lt; Point &gt;</text>
</g>
<!-- Node32 -->
<g id="Node000032" class="node">
<title>Node32</title>
<g id="a_Node000032"><a xlink:href="classDGtal_1_1CountedPtr.html" target="_top" xlink:title=" ">
<polygon fill="white" stroke="#666666" points="468.12,-94.74 332.12,-94.74 332.12,-64.24 468.12,-64.24 468.12,-94.74"/>
<text text-anchor="start" x="340.12" y="-81.24" font-family="FreeSans" font-size="10.00">DGtal::CountedPtr&lt;</text>
<text text-anchor="middle" x="400.12" y="-69.99" font-family="FreeSans" font-size="10.00"> AdjacentVertexContainer &gt;</text>
</a>
</g>
</g>
<!-- Node1&#45;&gt;Node32 -->
<g id="edge31_Node000001_Node000032" class="edge">
<title>Node1&#45;&gt;Node32</title>
<g id="a_edge31_Node000001_Node000032"><a xlink:title=" ">
<path fill="none" stroke="orange" stroke-dasharray="5,2" d="M62.16,-796.15C65.89,-681.39 86.2,-140.91 139,-91.24 193.66,-39.83 286.81,-50.15 345.55,-63.76"/>
<polygon fill="orange" stroke="orange" points="58.66,-795.85 61.84,-805.96 65.66,-796.07 58.66,-795.85"/>
</a>
</g>
<text text-anchor="middle" x="218.88" y="-92.99" font-family="FreeSans" font-size="10.00" fill="grey"> &lt; AdjacentVertexContainer &gt;</text>
</g>
<!-- Node33 -->
<g id="Node000033" class="node">
<title>Node33</title>
<g id="a_Node000033"><a xlink:href="classDGtal_1_1CountedPtr.html" target="_top" xlink:title=" ">
<polygon fill="white" stroke="#666666" points="454.25,-45.74 346,-45.74 346,-15.24 454.25,-15.24 454.25,-45.74"/>
<text text-anchor="start" x="354" y="-32.24" font-family="FreeSans" font-size="10.00">DGtal::CountedPtr&lt;</text>
<text text-anchor="middle" x="400.12" y="-20.99" font-family="FreeSans" font-size="10.00"> OutEdgeContainer &gt;</text>
</a>
</g>
</g>
<!-- Node1&#45;&gt;Node33 -->
<g id="edge32_Node000001_Node000033" class="edge">
<title>Node1&#45;&gt;Node33</title>
<g id="a_edge32_Node000001_Node000033"><a xlink:title=" ">
<path fill="none" stroke="orange" stroke-dasharray="5,2" d="M61.98,-796.07C64.85,-676.05 81.76,-90.45 139,-37.24 195.5,15.27 292.35,0.74 350.59,-14.77"/>
<polygon fill="orange" stroke="orange" points="58.48,-795.96 61.74,-806.04 65.47,-796.12 58.48,-795.96"/>
</a>
</g>
<text text-anchor="middle" x="218.88" y="-38.99" font-family="FreeSans" font-size="10.00" fill="grey"> &lt; OutEdgeContainer &gt;</text>
</g>
</g>
</svg>

<g id="navigator" transform="translate(0 0)" fill="#404254">
  <rect fill="#f2f5e9" fill-opacity="0.5" stroke="#606060" stroke-width=".5" x="0" y="0" width="60" height="60"/>
  <use id="zoomplus" xlink:href="#zoomPlus" x="17" y="9" onmousedown="handleZoom(evt,'in')"/>
  <use id="zoomminus" xlink:href="#zoomMin" x="42" y="9" onmousedown="handleZoom(evt,'out')"/>
  <use id="reset" xlink:href="#resetDef" x="30" y="36" onmousedown="handleReset()"/>
   <use id="arrowup" xlink:href="#arrowUp" x="0" y="0" onmousedown="handlePan(0,-1)"/>
  <use id="arrowright" xlink:href="#arrowRight" x="0" y="0" onmousedown="handlePan(1,0)"/>
  <use id="arrowdown" xlink:href="#arrowDown" x="0" y="0" onmousedown="handlePan(0,1)"/>
  <use id="arrowleft" xlink:href="#arrowLeft" x="0" y="0" onmousedown="handlePan(-1,0)"/>
</g>
<svg viewBox="0 0 15 15" width="100%" height="30px" preserveAspectRatio="xMaxYMin meet">
 <g id="arrow_out" transform="scale(0.3 0.3)">
  <a xlink:href="classDGtal_1_1CountedPtr__inherit__graph_org.svg" target="_base">
   <rect id="button" ry="5" rx="5" y="6" x="6" height="38" width="38"
        fill="#f2f5e9" fill-opacity="0.5" stroke="#606060" stroke-width="1.0"/>
   <path id="arrow"
     d="M 11.500037,31.436501 C 11.940474,20.09759 22.043105,11.32322 32.158766,21.979434 L 37.068811,17.246167 C 37.068811,17.246167 37.088388,32 37.088388,32 L 22.160133,31.978069 C 22.160133,31.978069 26.997745,27.140456 26.997745,27.140456 C 18.528582,18.264221 13.291696,25.230495 11.500037,31.436501 z"
     style="fill:#404040;"/>
  </a>
 </g>
</svg>

<style type='text/css'>
<![CDATA[
[data-mouse-over-selected='false'] { opacity: 0.7; }
[data-mouse-over-selected='true']  { opacity: 1.0; }
]]>
</style>
<script type="application/ecmascript"><![CDATA[
document.addEventListener('DOMContentLoaded', (event) => {
  highlightEdges();
  highlightAdjacentNodes();
});
]]></script>
</svg>
