<?xml version="1.0" encoding="UTF-8" standalone="no"?>
<!DOCTYPE svg PUBLIC "-//W3C//DTD SVG 1.1//EN"
 "http://www.w3.org/Graphics/SVG/1.1/DTD/svg11.dtd">
<!-- Generated by graphviz version 12.2.1 (20241206.2353)
 -->
<!-- Title: DGtal::ArithmeticalDSS&lt; TCoordinate, TInteger, adjacency &gt; Pages: 1 -->
<svg width="671pt" height="245pt"
 viewBox="0.00 0.00 670.50 245.12" xmlns="http://www.w3.org/2000/svg" xmlns:xlink="http://www.w3.org/1999/xlink">
<g id="graph0" class="graph" transform="scale(1 1) rotate(0) translate(4 241.12)">
<title>DGtal::ArithmeticalDSS&lt; TCoordinate, TInteger, adjacency &gt;</title>
<!-- Node1 -->
<g id="Node000001" class="node">
<title>Node1</title>
<g id="a_Node000001"><a xlink:title="Aim: This class represents a naive (resp. standard) digital straight segment (DSS),...">
<polygon fill="#999999" stroke="#666666" points="122.5,-144.75 0,-144.75 0,-103 122.5,-103 122.5,-144.75"/>
<text text-anchor="start" x="8" y="-131.25" font-family="FreeSans" font-size="10.00">DGtal::ArithmeticalDSS</text>
<text text-anchor="start" x="8" y="-120" font-family="FreeSans" font-size="10.00">&lt; TCoordinate, TInteger,</text>
<text text-anchor="middle" x="61.25" y="-108.75" font-family="FreeSans" font-size="10.00"> adjacency &gt;</text>
</a>
</g>
</g>
<!-- Node2 -->
<g id="Node000002" class="node">
<title>Node2</title>
<g id="a_Node000002"><a xlink:href="classDGtal_1_1ArithmeticalDSS.html" target="_top" xlink:title=" ">
<polygon fill="white" stroke="#666666" points="461,-237.12 303.25,-237.12 303.25,-206.62 461,-206.62 461,-237.12"/>
<text text-anchor="start" x="311.25" y="-223.62" font-family="FreeSans" font-size="10.00">DGtal::ArithmeticalDSS</text>
<text text-anchor="middle" x="382.12" y="-212.38" font-family="FreeSans" font-size="10.00">&lt; TCoordinate, TCoordinate, 8 &gt;</text>
</a>
</g>
</g>
<!-- Node1&#45;&gt;Node2 -->
<g id="edge1_Node000001_Node000002" class="edge">
<title>Node1&#45;&gt;Node2</title>
<g id="a_edge1_Node000001_Node000002"><a xlink:title=" ">
<path fill="none" stroke="orange" stroke-dasharray="5,2" d="M97.27,-151.46C110.22,-160.47 125.43,-169.72 140.5,-175.88 192.38,-197.06 254.59,-208.62 302.76,-214.86"/>
<polygon fill="orange" stroke="orange" points="99.67,-148.87 89.5,-145.88 95.58,-154.56 99.67,-148.87"/>
</a>
</g>
<text text-anchor="middle" x="212.88" y="-213.54" font-family="FreeSans" font-size="10.00" fill="grey"> &lt; TCoordinate, TCoordinate, 8 &gt;</text>
</g>
<!-- Node4 -->
<g id="Node000004" class="node">
<title>Node4</title>
<g id="a_Node000004"><a xlink:href="classDGtal_1_1ArithmeticalDSS.html" target="_top" xlink:title=" ">
<polygon fill="white" stroke="#666666" points="461,-188.12 303.25,-188.12 303.25,-157.62 461,-157.62 461,-188.12"/>
<text text-anchor="start" x="311.25" y="-174.62" font-family="FreeSans" font-size="10.00">DGtal::ArithmeticalDSS</text>
<text text-anchor="middle" x="382.12" y="-163.38" font-family="FreeSans" font-size="10.00">&lt; TCoordinate, TCoordinate, 4 &gt;</text>
</a>
</g>
</g>
<!-- Node1&#45;&gt;Node4 -->
<g id="edge3_Node000001_Node000004" class="edge">
<title>Node1&#45;&gt;Node4</title>
<g id="a_edge3_Node000001_Node000004"><a xlink:title=" ">
<path fill="none" stroke="orange" stroke-dasharray="5,2" d="M133.97,-137.77C136.17,-138.15 138.35,-138.52 140.5,-138.88 194.6,-147.88 255.81,-156.5 302.95,-162.82"/>
<polygon fill="orange" stroke="orange" points="134.81,-134.36 124.35,-136.06 133.58,-141.25 134.81,-134.36"/>
</a>
</g>
<text text-anchor="middle" x="212.88" y="-161.92" font-family="FreeSans" font-size="10.00" fill="grey"> &lt; TCoordinate, TCoordinate, 4 &gt;</text>
</g>
<!-- Node6 -->
<g id="Node000006" class="node">
<title>Node6</title>
<g id="a_Node000006"><a xlink:href="classDGtal_1_1ArithmeticalDSS.html" target="_top" xlink:title=" ">
<polygon fill="white" stroke="#666666" points="446,-139.12 318.25,-139.12 318.25,-108.62 446,-108.62 446,-139.12"/>
<text text-anchor="start" x="326.25" y="-125.62" font-family="FreeSans" font-size="10.00">DGtal::ArithmeticalDSS</text>
<text text-anchor="middle" x="382.12" y="-114.38" font-family="FreeSans" font-size="10.00">&lt; Coordinate, Integer, 8 &gt;</text>
</a>
</g>
</g>
<!-- Node1&#45;&gt;Node6 -->
<g id="edge5_Node000001_Node000006" class="edge">
<title>Node1&#45;&gt;Node6</title>
<g id="a_edge5_Node000001_Node000006"><a xlink:title=" ">
<path fill="none" stroke="orange" stroke-dasharray="5,2" d="M134.44,-123.88C189.65,-123.88 265.04,-123.88 317.89,-123.88"/>
<polygon fill="orange" stroke="orange" points="134.49,-120.38 124.49,-123.88 134.49,-127.38 134.49,-120.38"/>
</a>
</g>
<text text-anchor="middle" x="212.88" y="-125.62" font-family="FreeSans" font-size="10.00" fill="grey"> &lt; Coordinate, Integer, 8 &gt;</text>
</g>
<!-- Node7 -->
<g id="Node000007" class="node">
<title>Node7</title>
<g id="a_Node000007"><a xlink:href="classDGtal_1_1ArithmeticalDSS.html" target="_top" xlink:title=" ">
<polygon fill="white" stroke="#666666" points="446,-90.12 318.25,-90.12 318.25,-59.62 446,-59.62 446,-90.12"/>
<text text-anchor="start" x="326.25" y="-76.62" font-family="FreeSans" font-size="10.00">DGtal::ArithmeticalDSS</text>
<text text-anchor="middle" x="382.12" y="-65.38" font-family="FreeSans" font-size="10.00">&lt; Coordinate, Integer, 4 &gt;</text>
</a>
</g>
</g>
<!-- Node1&#45;&gt;Node7 -->
<g id="edge6_Node000001_Node000007" class="edge">
<title>Node1&#45;&gt;Node7</title>
<g id="a_edge6_Node000001_Node000007"><a xlink:title=" ">
<path fill="none" stroke="orange" stroke-dasharray="5,2" d="M133.97,-109.74C136.17,-109.36 138.35,-108.99 140.5,-108.62 200.51,-98.58 269.3,-89.14 317.91,-82.81"/>
<polygon fill="orange" stroke="orange" points="133.57,-106.26 124.34,-111.47 134.8,-113.15 133.57,-106.26"/>
</a>
</g>
<text text-anchor="middle" x="212.88" y="-110.38" font-family="FreeSans" font-size="10.00" fill="grey"> &lt; Coordinate, Integer, 4 &gt;</text>
</g>
<!-- Node8 -->
<g id="Node000008" class="node">
<title>Node8</title>
<g id="a_Node000008"><a xlink:href="classDGtal_1_1ArithmeticalDSS.html" target="_top" xlink:title=" ">
<polygon fill="white" stroke="#666666" points="442.25,-41.75 322,-41.75 322,0 442.25,0 442.25,-41.75"/>
<text text-anchor="start" x="330" y="-28.25" font-family="FreeSans" font-size="10.00">DGtal::ArithmeticalDSS</text>
<text text-anchor="start" x="330" y="-17" font-family="FreeSans" font-size="10.00">&lt; Coordinate, Integer,</text>
<text text-anchor="middle" x="382.12" y="-5.75" font-family="FreeSans" font-size="10.00"> adjacency &gt;</text>
</a>
</g>
</g>
<!-- Node1&#45;&gt;Node8 -->
<g id="edge7_Node000001_Node000008" class="edge">
<title>Node1&#45;&gt;Node8</title>
<g id="a_edge7_Node000001_Node000008"><a xlink:title=" ">
<path fill="none" stroke="orange" stroke-dasharray="5,2" d="M90.96,-95.08C104.82,-82.81 122.36,-69.48 140.5,-61.38 198.71,-35.36 271.64,-25.93 321.86,-22.58"/>
<polygon fill="orange" stroke="orange" points="88.96,-92.16 83.95,-101.5 93.69,-97.32 88.96,-92.16"/>
</a>
</g>
<text text-anchor="start" x="164.12" y="-74.38" font-family="FreeSans" font-size="10.00" fill="grey"> &lt; Coordinate, Integer,</text>
<text text-anchor="middle" x="212.88" y="-63.12" font-family="FreeSans" font-size="10.00" fill="grey"> adjacency &gt;</text>
</g>
<!-- Node3 -->
<g id="Node000003" class="node">
<title>Node3</title>
<g id="a_Node000003"><a xlink:href="classDGtal_1_1NaiveDSS8.html" target="_top" xlink:title="Aim: This class represents a standard digital straight segment (DSS), ie. the sequence of simply 8&#45;co...">
<polygon fill="white" stroke="#666666" points="662.5,-237.12 498,-237.12 498,-206.62 662.5,-206.62 662.5,-237.12"/>
<text text-anchor="start" x="506" y="-223.62" font-family="FreeSans" font-size="10.00">DGtal::NaiveDSS8&lt; TCoordinate,</text>
<text text-anchor="middle" x="580.25" y="-212.38" font-family="FreeSans" font-size="10.00"> TInteger &gt;</text>
</a>
</g>
</g>
<!-- Node2&#45;&gt;Node3 -->
<g id="edge2_Node000002_Node000003" class="edge">
<title>Node2&#45;&gt;Node3</title>
<g id="a_edge2_Node000002_Node000003"><a xlink:title=" ">
<path fill="none" stroke="#63b8ff" d="M472.78,-221.88C481.12,-221.88 489.55,-221.88 497.81,-221.88"/>
<polygon fill="#63b8ff" stroke="#63b8ff" points="473,-218.38 463,-221.88 473,-225.38 473,-218.38"/>
</a>
</g>
</g>
<!-- Node5 -->
<g id="Node000005" class="node">
<title>Node5</title>
<g id="a_Node000005"><a xlink:href="classDGtal_1_1StandardDSS4.html" target="_top" xlink:title="Aim: This class represents a standard digital straight segment (DSS), ie. the sequence of simply 4&#45;co...">
<polygon fill="white" stroke="#666666" points="644.88,-188.12 515.62,-188.12 515.62,-157.62 644.88,-157.62 644.88,-188.12"/>
<text text-anchor="start" x="523.62" y="-174.62" font-family="FreeSans" font-size="10.00">DGtal::StandardDSS4</text>
<text text-anchor="middle" x="580.25" y="-163.38" font-family="FreeSans" font-size="10.00">&lt; TCoordinate, TInteger &gt;</text>
</a>
</g>
</g>
<!-- Node4&#45;&gt;Node5 -->
<g id="edge4_Node000004_Node000005" class="edge">
<title>Node4&#45;&gt;Node5</title>
<g id="a_edge4_Node000004_Node000005"><a xlink:title=" ">
<path fill="none" stroke="#63b8ff" d="M472.86,-172.88C487.13,-172.88 501.64,-172.88 515.17,-172.88"/>
<polygon fill="#63b8ff" stroke="#63b8ff" points="473,-169.38 463,-172.88 473,-176.38 473,-169.38"/>
</a>
</g>
</g>
</g>
</svg>
