<?xml version="1.0" encoding="UTF-8" standalone="no"?>
<!DOCTYPE svg PUBLIC "-//W3C//DTD SVG 1.1//EN"
 "http://www.w3.org/Graphics/SVG/1.1/DTD/svg11.dtd">
<!-- Generated by graphviz version 12.2.1 (20241206.2353)
 -->
<!-- Title: DGtal::KhalimskySpaceNDHelper&lt; TKhalimskySpace &gt; Pages: 1 -->
<svg width="1103pt" height="96pt"
 viewBox="0.00 0.00 1102.75 95.75" xmlns="http://www.w3.org/2000/svg" xmlns:xlink="http://www.w3.org/1999/xlink">
<g id="graph0" class="graph" transform="scale(1 1) rotate(0) translate(4 91.75)">
<title>DGtal::KhalimskySpaceNDHelper&lt; TKhalimskySpace &gt;</title>
<!-- Node1 -->
<g id="Node000001" class="node">
<title>Node1</title>
<g id="a_Node000001"><a xlink:title="Internal class of KhalimskySpaceND that provides some optimizations depending on the space type.">
<polygon fill="#999999" stroke="#666666" points="164.5,-56.12 0,-56.12 0,-25.62 164.5,-25.62 164.5,-56.12"/>
<text text-anchor="start" x="8" y="-42.62" font-family="FreeSans" font-size="10.00">DGtal::KhalimskySpaceNDHelper</text>
<text text-anchor="middle" x="82.25" y="-31.38" font-family="FreeSans" font-size="10.00">&lt; TKhalimskySpace &gt;</text>
</a>
</g>
</g>
<!-- Node2 -->
<g id="Node000002" class="node">
<title>Node2</title>
<g id="a_Node000002"><a xlink:href="classDGtal_1_1KhalimskySpaceNDHelper.html" target="_top" xlink:title=" ">
<polygon fill="white" stroke="#666666" points="474.5,-87.75 310,-87.75 310,-46 474.5,-46 474.5,-87.75"/>
<text text-anchor="start" x="318" y="-74.25" font-family="FreeSans" font-size="10.00">DGtal::KhalimskySpaceNDHelper</text>
<text text-anchor="start" x="318" y="-63" font-family="FreeSans" font-size="10.00">&lt; KhalimskySpaceND&lt; dim,</text>
<text text-anchor="middle" x="392.25" y="-51.75" font-family="FreeSans" font-size="10.00"> TInteger &gt; &gt;</text>
</a>
</g>
</g>
<!-- Node1&#45;&gt;Node2 -->
<g id="edge1_Node000001_Node000002" class="edge">
<title>Node1&#45;&gt;Node2</title>
<g id="a_edge1_Node000001_Node000002"><a xlink:title=" ">
<path fill="none" stroke="orange" stroke-dasharray="5,2" d="M176.19,-48.72C218.71,-52.31 268.63,-56.52 309.67,-59.99"/>
<polygon fill="orange" stroke="orange" points="176.75,-45.26 166.49,-47.9 176.16,-52.23 176.75,-45.26"/>
</a>
</g>
<text text-anchor="start" x="187" y="-71.47" font-family="FreeSans" font-size="10.00" fill="grey"> &lt; KhalimskySpaceND</text>
<text text-anchor="middle" x="237.25" y="-60.22" font-family="FreeSans" font-size="10.00" fill="grey">&lt; dim, TInteger &gt; &gt;</text>
</g>
<!-- Node5 -->
<g id="Node000005" class="node">
<title>Node5</title>
<g id="a_Node000005"><a xlink:href="classDGtal_1_1KhalimskySpaceNDHelper.html" target="_top" xlink:title=" ">
<polygon fill="white" stroke="#666666" points="657,-41.75 492.5,-41.75 492.5,0 657,0 657,-41.75"/>
<text text-anchor="start" x="500.5" y="-28.25" font-family="FreeSans" font-size="10.00">DGtal::KhalimskySpaceNDHelper</text>
<text text-anchor="start" x="500.5" y="-17" font-family="FreeSans" font-size="10.00">&lt; KhalimskySpaceND&lt; dim,</text>
<text text-anchor="middle" x="574.75" y="-5.75" font-family="FreeSans" font-size="10.00"> DGtal::int32_t &gt; &gt;</text>
</a>
</g>
</g>
<!-- Node1&#45;&gt;Node5 -->
<g id="edge4_Node000001_Node000005" class="edge">
<title>Node1&#45;&gt;Node5</title>
<g id="a_edge4_Node000001_Node000005"><a xlink:title=" ">
<path fill="none" stroke="orange" stroke-dasharray="5,2" d="M171.34,-23.6C175.1,-23.13 178.84,-22.72 182.5,-22.38 289.18,-12.31 412.95,-14.08 492.24,-16.92"/>
<polygon fill="orange" stroke="orange" points="170.93,-20.13 161.5,-24.95 171.88,-27.06 170.93,-20.13"/>
</a>
</g>
<text text-anchor="start" x="182.5" y="-35.38" font-family="FreeSans" font-size="10.00" fill="grey"> &lt; KhalimskySpaceND</text>
<text text-anchor="middle" x="237.25" y="-24.12" font-family="FreeSans" font-size="10.00" fill="grey">&lt; dim, DGtal::int32_t &gt; &gt;</text>
</g>
<!-- Node3 -->
<g id="Node000003" class="node">
<title>Node3</title>
<g id="a_Node000003"><a xlink:href="classDGtal_1_1KhalimskySpaceND.html" target="_top" xlink:title="Aim: This class is a model of CCellularGridSpaceND. It represents the cubical grid as a cell complex,...">
<polygon fill="white" stroke="#666666" points="811,-81.12 675,-81.12 675,-50.62 811,-50.62 811,-81.12"/>
<text text-anchor="start" x="683" y="-67.62" font-family="FreeSans" font-size="10.00">DGtal::KhalimskySpaceND</text>
<text text-anchor="middle" x="743" y="-56.38" font-family="FreeSans" font-size="10.00">&lt; dim, TInteger &gt;</text>
</a>
</g>
</g>
<!-- Node2&#45;&gt;Node3 -->
<g id="edge2_Node000002_Node000003" class="edge">
<title>Node2&#45;&gt;Node3</title>
<g id="a_edge2_Node000002_Node000003"><a xlink:title=" ">
<path fill="none" stroke="#8b1a1a" d="M485.84,-66.61C545.21,-66.44 620.94,-66.22 674.62,-66.07"/>
<polygon fill="#8b1a1a" stroke="#8b1a1a" points="486.08,-63.11 476.09,-66.64 486.1,-70.11 486.08,-63.11"/>
</a>
</g>
</g>
<!-- Node4 -->
<g id="Node000004" class="node">
<title>Node4</title>
<g id="a_Node000004"><a xlink:href="classDGtal_1_1KhalimskySpaceND.html" target="_top" xlink:title=" ">
<polygon fill="white" stroke="#666666" points="1094.75,-53.12 942.25,-53.12 942.25,-22.62 1094.75,-22.62 1094.75,-53.12"/>
<text text-anchor="start" x="950.25" y="-39.62" font-family="FreeSans" font-size="10.00">DGtal::KhalimskySpaceND</text>
<text text-anchor="middle" x="1018.5" y="-28.38" font-family="FreeSans" font-size="10.00">&lt; dimAmbient, DGtal::int32_t &gt;</text>
</a>
</g>
</g>
<!-- Node3&#45;&gt;Node4 -->
<g id="edge3_Node000003_Node000004" class="edge">
<title>Node3&#45;&gt;Node4</title>
<g id="a_edge3_Node000003_Node000004"><a xlink:title=" ">
<path fill="none" stroke="orange" stroke-dasharray="5,2" d="M822.64,-57.82C860.11,-53.99 904.73,-49.42 941.82,-45.62"/>
<polygon fill="orange" stroke="orange" points="822.35,-54.34 812.76,-58.84 823.07,-61.3 822.35,-54.34"/>
</a>
</g>
<text text-anchor="start" x="829" y="-69.82" font-family="FreeSans" font-size="10.00" fill="grey"> &lt; dimAmbient, DGtal</text>
<text text-anchor="middle" x="876.62" y="-58.57" font-family="FreeSans" font-size="10.00" fill="grey">::int32_t &gt;</text>
</g>
<!-- Node5&#45;&gt;Node4 -->
<g id="edge5_Node000005_Node000004" class="edge">
<title>Node5&#45;&gt;Node4</title>
<g id="a_edge5_Node000005_Node000004"><a xlink:title=" ">
<path fill="none" stroke="#8b1a1a" d="M668.51,-24.44C749.74,-27.57 866.31,-32.06 941.97,-34.97"/>
<polygon fill="#8b1a1a" stroke="#8b1a1a" points="668.93,-20.96 658.8,-24.07 668.66,-27.95 668.93,-20.96"/>
</a>
</g>
</g>
</g>
</svg>
