<?xml version="1.0" encoding="UTF-8" standalone="no"?>
<!DOCTYPE svg PUBLIC "-//W3C//DTD SVG 1.1//EN"
 "http://www.w3.org/Graphics/SVG/1.1/DTD/svg11.dtd">
<!-- Generated by graphviz version 12.2.1 (20241206.2353)
 -->
<!-- Title: DGtal::StarShaped2D&lt; TSpace &gt; Pages: 1 -->
<svg width="568pt" height="322pt"
 viewBox="0.00 0.00 568.25 321.50" xmlns="http://www.w3.org/2000/svg" xmlns:xlink="http://www.w3.org/1999/xlink">
<g id="graph0" class="graph" transform="scale(1 1) rotate(0) translate(4 317.5)">
<title>DGtal::StarShaped2D&lt; TSpace &gt;</title>
<!-- Node1 -->
<g id="Node000001" class="node">
<title>Node1</title>
<g id="a_Node000001"><a xlink:title=" ">
<polygon fill="#999999" stroke="#666666" points="111.25,-177.5 0,-177.5 0,-147 111.25,-147 111.25,-177.5"/>
<text text-anchor="start" x="8" y="-164" font-family="FreeSans" font-size="10.00">DGtal::StarShaped2D</text>
<text text-anchor="middle" x="55.62" y="-152.75" font-family="FreeSans" font-size="10.00">&lt; TSpace &gt;</text>
</a>
</g>
</g>
<!-- Node2 -->
<g id="Node000002" class="node">
<title>Node2</title>
<g id="a_Node000002"><a xlink:href="classDGtal_1_1AccFlower2D.html" target="_top" xlink:title="Aim: Model of the concept StarShaped represents any accelerated flower in the plane.">
<polygon fill="white" stroke="#666666" points="320.75,-313.5 214,-313.5 214,-283 320.75,-283 320.75,-313.5"/>
<text text-anchor="start" x="222" y="-300" font-family="FreeSans" font-size="10.00">DGtal::AccFlower2D</text>
<text text-anchor="middle" x="267.38" y="-288.75" font-family="FreeSans" font-size="10.00">&lt; TSpace &gt;</text>
</a>
</g>
</g>
<!-- Node1&#45;&gt;Node2 -->
<g id="edge1_Node000001_Node000002" class="edge">
<title>Node1&#45;&gt;Node2</title>
<g id="a_edge1_Node000001_Node000002"><a xlink:title=" ">
<path fill="none" stroke="#63b8ff" d="M78.29,-185.98C92.14,-200.48 110.89,-218.93 129.25,-233.25 156.7,-254.66 164.5,-259.43 196,-274.25 202.31,-277.22 209.09,-280 215.85,-282.55"/>
<polygon fill="#63b8ff" stroke="#63b8ff" points="81.19,-183.95 71.78,-179.07 76.09,-188.75 81.19,-183.95"/>
</a>
</g>
</g>
<!-- Node3 -->
<g id="Node000003" class="node">
<title>Node3</title>
<g id="a_Node000003"><a xlink:href="classDGtal_1_1Astroid2D.html" target="_top" xlink:title="Aim: Model of the concept StarShaped represents an astroid.">
<polygon fill="white" stroke="#666666" points="338.75,-264.88 196,-264.88 196,-245.62 338.75,-245.62 338.75,-264.88"/>
<text text-anchor="middle" x="267.38" y="-251.38" font-family="FreeSans" font-size="10.00">DGtal::Astroid2D&lt; TSpace &gt;</text>
</a>
</g>
</g>
<!-- Node1&#45;&gt;Node3 -->
<g id="edge2_Node000001_Node000003" class="edge">
<title>Node1&#45;&gt;Node3</title>
<g id="a_edge2_Node000001_Node000003"><a xlink:title=" ">
<path fill="none" stroke="#63b8ff" d="M89.79,-183.67C117.25,-200.51 157.82,-223.37 196,-237.25 204.06,-240.18 212.8,-242.82 221.3,-245.13"/>
<polygon fill="#63b8ff" stroke="#63b8ff" points="91.92,-180.87 81.58,-178.56 88.23,-186.81 91.92,-180.87"/>
</a>
</g>
</g>
<!-- Node5 -->
<g id="Node000005" class="node">
<title>Node5</title>
<g id="a_Node000005"><a xlink:href="classDGtal_1_1Ball2D.html" target="_top" xlink:title="Aim: Model of the concept StarShaped represents any circle in the plane.">
<polygon fill="white" stroke="#666666" points="331.62,-227.88 203.12,-227.88 203.12,-208.62 331.62,-208.62 331.62,-227.88"/>
<text text-anchor="middle" x="267.38" y="-214.38" font-family="FreeSans" font-size="10.00">DGtal::Ball2D&lt; TSpace &gt;</text>
</a>
</g>
</g>
<!-- Node1&#45;&gt;Node5 -->
<g id="edge4_Node000001_Node000005" class="edge">
<title>Node1&#45;&gt;Node5</title>
<g id="a_edge4_Node000001_Node000005"><a xlink:title=" ">
<path fill="none" stroke="#63b8ff" d="M115.41,-181.25C120.08,-182.64 124.73,-183.99 129.25,-185.25 159.68,-193.72 194.26,-202.03 221.08,-208.2"/>
<polygon fill="#63b8ff" stroke="#63b8ff" points="116.57,-177.95 105.98,-178.39 114.53,-184.64 116.57,-177.95"/>
</a>
</g>
</g>
<!-- Node6 -->
<g id="Node000006" class="node">
<title>Node6</title>
<g id="a_Node000006"><a xlink:href="classDGtal_1_1Ellipse2D.html" target="_top" xlink:title="Aim: Model of the concept StarShaped represents any ellipse in the plane.">
<polygon fill="white" stroke="#666666" points="338,-190.88 196.75,-190.88 196.75,-171.62 338,-171.62 338,-190.88"/>
<text text-anchor="middle" x="267.38" y="-177.38" font-family="FreeSans" font-size="10.00">DGtal::Ellipse2D&lt; TSpace &gt;</text>
</a>
</g>
</g>
<!-- Node1&#45;&gt;Node6 -->
<g id="edge5_Node000001_Node000006" class="edge">
<title>Node1&#45;&gt;Node6</title>
<g id="a_edge5_Node000001_Node000006"><a xlink:title=" ">
<path fill="none" stroke="#63b8ff" d="M122.98,-168.26C146.43,-170.39 172.87,-172.78 196.6,-174.93"/>
<polygon fill="#63b8ff" stroke="#63b8ff" points="123.52,-164.8 113.24,-167.38 122.89,-171.77 123.52,-164.8"/>
</a>
</g>
</g>
<!-- Node7 -->
<g id="Node000007" class="node">
<title>Node7</title>
<g id="a_Node000007"><a xlink:href="classDGtal_1_1Flower2D.html" target="_top" xlink:title="Aim: Model of the concept StarShaped represents any flower with k&#45;petals in the plane.">
<polygon fill="white" stroke="#666666" points="338,-153.88 196.75,-153.88 196.75,-134.62 338,-134.62 338,-153.88"/>
<text text-anchor="middle" x="267.38" y="-140.38" font-family="FreeSans" font-size="10.00">DGtal::Flower2D&lt; TSpace &gt;</text>
</a>
</g>
</g>
<!-- Node1&#45;&gt;Node7 -->
<g id="edge6_Node000001_Node000007" class="edge">
<title>Node1&#45;&gt;Node7</title>
<g id="a_edge6_Node000001_Node000007"><a xlink:title=" ">
<path fill="none" stroke="#63b8ff" d="M122.98,-156.56C146.43,-154.54 172.87,-152.27 196.6,-150.24"/>
<polygon fill="#63b8ff" stroke="#63b8ff" points="122.91,-153.05 113.24,-157.39 123.51,-160.02 122.91,-153.05"/>
</a>
</g>
</g>
<!-- Node8 -->
<g id="Node000008" class="node">
<title>Node8</title>
<g id="a_Node000008"><a xlink:href="classDGtal_1_1Lemniscate2D.html" target="_top" xlink:title="Aim: Model of the concept StarShaped represents a lemniscate.">
<polygon fill="white" stroke="#666666" points="322.62,-116.5 212.12,-116.5 212.12,-86 322.62,-86 322.62,-116.5"/>
<text text-anchor="start" x="220.12" y="-103" font-family="FreeSans" font-size="10.00">DGtal::Lemniscate2D</text>
<text text-anchor="middle" x="267.38" y="-91.75" font-family="FreeSans" font-size="10.00">&lt; TSpace &gt;</text>
</a>
</g>
</g>
<!-- Node1&#45;&gt;Node8 -->
<g id="edge7_Node000001_Node000008" class="edge">
<title>Node1&#45;&gt;Node8</title>
<g id="a_edge7_Node000001_Node000008"><a xlink:title=" ">
<path fill="none" stroke="#63b8ff" d="M121.57,-143.36C150.76,-134.87 184.8,-124.97 212.54,-116.91"/>
<polygon fill="#63b8ff" stroke="#63b8ff" points="120.72,-139.96 112.09,-146.12 122.67,-146.69 120.72,-139.96"/>
</a>
</g>
</g>
<!-- Node9 -->
<g id="Node000009" class="node">
<title>Node9</title>
<g id="a_Node000009"><a xlink:href="classDGtal_1_1NGon2D.html" target="_top" xlink:title="Aim: Model of the concept StarShaped represents any regular k&#45;gon in the plane.">
<polygon fill="white" stroke="#666666" points="336.12,-67.88 198.62,-67.88 198.62,-48.62 336.12,-48.62 336.12,-67.88"/>
<text text-anchor="middle" x="267.38" y="-54.38" font-family="FreeSans" font-size="10.00">DGtal::NGon2D&lt; TSpace &gt;</text>
</a>
</g>
</g>
<!-- Node1&#45;&gt;Node9 -->
<g id="edge8_Node000001_Node000009" class="edge">
<title>Node1&#45;&gt;Node9</title>
<g id="a_edge8_Node000001_Node000009"><a xlink:title=" ">
<path fill="none" stroke="#63b8ff" d="M87.18,-140.09C114.54,-121.13 156.34,-94.28 196,-77.25 204.02,-73.8 212.83,-70.84 221.43,-68.34"/>
<polygon fill="#63b8ff" stroke="#63b8ff" points="85.2,-137.21 79.03,-145.82 89.22,-142.94 85.2,-137.21"/>
</a>
</g>
</g>
<!-- Node10 -->
<g id="Node000010" class="node">
<title>Node10</title>
<g id="a_Node000010"><a xlink:href="classDGtal_1_1StarShaped2D.html" target="_top" xlink:title=" ">
<polygon fill="white" stroke="#666666" points="323,-30.5 211.75,-30.5 211.75,0 323,0 323,-30.5"/>
<text text-anchor="start" x="219.75" y="-17" font-family="FreeSans" font-size="10.00">DGtal::StarShaped2D</text>
<text text-anchor="middle" x="267.38" y="-5.75" font-family="FreeSans" font-size="10.00">&lt; Space &gt;</text>
</a>
</g>
</g>
<!-- Node1&#45;&gt;Node10 -->
<g id="edge9_Node000001_Node000010" class="edge">
<title>Node1&#45;&gt;Node10</title>
<g id="a_edge9_Node000001_Node000010"><a xlink:title=" ">
<path fill="none" stroke="orange" stroke-dasharray="5,2" d="M72.15,-136.91C85.37,-116.97 105.89,-89.55 129.25,-71 153.3,-51.9 184.77,-38.48 211.5,-29.61"/>
<polygon fill="orange" stroke="orange" points="69.22,-134.99 66.75,-145.29 75.11,-138.78 69.22,-134.99"/>
</a>
</g>
<text text-anchor="middle" x="153.62" y="-72.75" font-family="FreeSans" font-size="10.00" fill="grey"> &lt; Space &gt;</text>
</g>
<!-- Node4 -->
<g id="Node000004" class="node">
<title>Node4</title>
<g id="a_Node000004"><a xlink:href="classDGtal_1_1Astroid2D.html" target="_top" xlink:title=" ">
<polygon fill="white" stroke="#666666" points="560.25,-143.88 423.5,-143.88 423.5,-124.62 560.25,-124.62 560.25,-143.88"/>
<text text-anchor="middle" x="491.88" y="-130.38" font-family="FreeSans" font-size="10.00">DGtal::Astroid2D&lt; Space &gt;</text>
</a>
</g>
</g>
<!-- Node3&#45;&gt;Node4 -->
<g id="edge3_Node000003_Node000004" class="edge">
<title>Node3&#45;&gt;Node4</title>
<g id="a_edge3_Node000003_Node000004"><a xlink:title=" ">
<path fill="none" stroke="orange" stroke-dasharray="5,2" d="M327.66,-241.69C331.47,-240.33 335.19,-238.85 338.75,-237.25 395.76,-211.6 454.65,-164.85 479.12,-144.34"/>
<polygon fill="orange" stroke="orange" points="326.7,-238.32 318.27,-244.74 328.86,-244.98 326.7,-238.32"/>
</a>
</g>
<text text-anchor="middle" x="381.12" y="-227.98" font-family="FreeSans" font-size="10.00" fill="grey"> &lt; Space &gt;</text>
</g>
<!-- Node10&#45;&gt;Node4 -->
<g id="edge10_Node000010_Node000004" class="edge">
<title>Node10&#45;&gt;Node4</title>
<g id="a_edge10_Node000010_Node000004"><a xlink:title=" ">
<path fill="none" stroke="#63b8ff" d="M329.32,-35.05C332.54,-36.4 335.7,-37.8 338.75,-39.25 392.75,-64.9 451.32,-105.51 477.23,-124.22"/>
<polygon fill="#63b8ff" stroke="#63b8ff" points="330.91,-31.91 320.32,-31.47 328.32,-38.42 330.91,-31.91"/>
</a>
</g>
</g>
</g>
</svg>
