<?xml version="1.0" encoding="UTF-8" standalone="no"?>
<!DOCTYPE svg PUBLIC "-//W3C//DTD SVG 1.1//EN"
 "http://www.w3.org/Graphics/SVG/1.1/DTD/svg11.dtd">
<!-- Generated by graphviz version 12.2.1 (20241206.2353)
 -->
<!-- Title: DGtal::MPolynomial&lt; n, TRing, TAlloc &gt; Pages: 1 -->
<svg width="238pt" height="116pt"
 viewBox="0.00 0.00 238.48 116.25" xmlns="http://www.w3.org/2000/svg" xmlns:xlink="http://www.w3.org/1999/xlink">
<g id="graph0" class="graph" transform="scale(1 1) rotate(0) translate(4 112.25)">
<title>DGtal::MPolynomial&lt; n, TRing, TAlloc &gt;</title>
<!-- Node1 -->
<g id="Node000001" class="node">
<title>Node1</title>
<g id="a_Node000001"><a xlink:title="Aim: Represents a multivariate polynomial, i.e. an element of , where K is some ring or field.">
<polygon fill="#999999" stroke="#666666" points="165.12,-108.25 60.62,-108.25 60.62,-77.75 165.12,-77.75 165.12,-108.25"/>
<text text-anchor="start" x="68.62" y="-94.75" font-family="FreeSans" font-size="10.00">DGtal::MPolynomial</text>
<text text-anchor="middle" x="112.88" y="-83.5" font-family="FreeSans" font-size="10.00">&lt; n, TRing, TAlloc &gt;</text>
</a>
</g>
</g>
<!-- Node2 -->
<g id="Node000002" class="node">
<title>Node2</title>
<g id="a_Node000002"><a xlink:href="classDGtal_1_1MPolynomial.html" target="_top" xlink:title=" ">
<polygon fill="white" stroke="#666666" points="103.75,-30.5 0,-30.5 0,0 103.75,0 103.75,-30.5"/>
<text text-anchor="start" x="8" y="-17" font-family="FreeSans" font-size="10.00">DGtal::MPolynomial</text>
<text text-anchor="middle" x="51.88" y="-5.75" font-family="FreeSans" font-size="10.00">&lt; 3, Ring &gt;</text>
</a>
</g>
</g>
<!-- Node1&#45;&gt;Node2 -->
<g id="edge1_Node000001_Node000002" class="edge">
<title>Node1&#45;&gt;Node2</title>
<g id="a_edge1_Node000001_Node000002"><a xlink:title=" ">
<path fill="none" stroke="orange" stroke-dasharray="5,2" d="M93.98,-68.54C84.06,-56.21 72.2,-41.49 63.6,-30.81"/>
<polygon fill="orange" stroke="orange" points="91.17,-70.62 100.16,-76.22 96.62,-66.23 91.17,-70.62"/>
</a>
</g>
<text text-anchor="middle" x="112.28" y="-50.25" font-family="FreeSans" font-size="10.00" fill="grey"> &lt; 3, Ring &gt;</text>
</g>
<!-- Node3 -->
<g id="Node000003" class="node">
<title>Node3</title>
<g id="a_Node000003"><a xlink:href="classDGtal_1_1MPolynomial.html" target="_top" xlink:title=" ">
<polygon fill="white" stroke="#666666" points="225.75,-30.5 122,-30.5 122,0 225.75,0 225.75,-30.5"/>
<text text-anchor="start" x="130" y="-17" font-family="FreeSans" font-size="10.00">DGtal::MPolynomial</text>
<text text-anchor="middle" x="173.88" y="-5.75" font-family="FreeSans" font-size="10.00">&lt; n, Ring, Alloc &gt;</text>
</a>
</g>
</g>
<!-- Node1&#45;&gt;Node3 -->
<g id="edge2_Node000001_Node000003" class="edge">
<title>Node1&#45;&gt;Node3</title>
<g id="a_edge2_Node000001_Node000003"><a xlink:title=" ">
<path fill="none" stroke="orange" stroke-dasharray="5,2" d="M134.95,-68.99C137.68,-65.94 140.38,-62.81 142.88,-59.75 150.49,-50.41 158.37,-39.34 164.28,-30.7"/>
<polygon fill="orange" stroke="orange" points="132.55,-66.43 128.36,-76.16 137.7,-71.16 132.55,-66.43"/>
</a>
</g>
<text text-anchor="middle" x="190.73" y="-50.25" font-family="FreeSans" font-size="10.00" fill="grey"> &lt; n, Ring, Alloc &gt;</text>
</g>
</g>
</svg>
