<?xml version="1.0" encoding="UTF-8" standalone="no"?>
<!DOCTYPE svg PUBLIC "-//W3C//DTD SVG 1.1//EN"
 "http://www.w3.org/Graphics/SVG/1.1/DTD/svg11.dtd">
<!-- Generated by graphviz version 12.2.1 (20241206.2353)
 -->
<!-- Title: GARITHMETIC Pages: 1 -->
<svg width="1789pt" height="323pt"
 viewBox="0.00 0.00 1789.00 323.00" xmlns="http://www.w3.org/2000/svg" xmlns:xlink="http://www.w3.org/1999/xlink">
<g id="graph0" class="graph" transform="scale(1 1) rotate(0) translate(4 319)">
<title>GARITHMETIC</title>
<polygon fill="white" stroke="none" points="-4,4 -4,-319 1785,-319 1785,4 -4,4"/>
<g id="clust1" class="cluster">
<title>cluster_ext</title>
</g>
<g id="clust2" class="cluster">
<title>cluster_base</title>
<polygon fill="#eeeeff" stroke="#eeeeff" points="16,-222.5 16,-299 398,-299 398,-222.5 16,-222.5"/>
<text text-anchor="middle" x="207" y="-229.7" font-family="Times,serif" font-size="14.00">base</text>
</g>
<g id="clust3" class="cluster">
<title>cluster_kernel</title>
<polygon fill="#ddddee" stroke="#ddddee" points="406,-222.5 406,-299 953,-299 953,-222.5 406,-222.5"/>
<text text-anchor="middle" x="679.5" y="-229.7" font-family="Times,serif" font-size="14.00">kernel</text>
</g>
<g id="clust4" class="cluster">
<title>cluster_boost</title>
<polygon fill="white" stroke="white" points="961,-222.5 961,-299 1765,-299 1765,-222.5 961,-222.5"/>
<text text-anchor="middle" x="1363" y="-229.7" font-family="Times,serif" font-size="14.00">boost</text>
</g>
<g id="clust5" class="cluster">
<title>cluster_concepts</title>
<polygon fill="lightgrey" stroke="lightgrey" points="395,-103.5 395,-180 647,-180 647,-103.5 395,-103.5"/>
<text text-anchor="middle" x="521" y="-110.7" font-family="Times,serif" font-size="14.00">arithmetic (main concepts)</text>
</g>
<g id="clust6" class="cluster">
<title>cluster_models</title>
<polygon fill="#ccffcc" stroke="#ccffcc" points="105,-8 105,-84.5 1363,-84.5 1363,-8 105,-8"/>
<text text-anchor="middle" x="734" y="-15.2" font-family="Times,serif" font-size="14.00">arithmetic (main models)</text>
</g>
<!-- CBackInsertable -->
<g id="node1" class="node">
<title>CBackInsertable</title>
<g id="a_node1"><a xlink:href="structDGtal_1_1concepts_1_1CBackInsertable.html" target="_top" xlink:title="CBackInsertable">
<ellipse fill="white" stroke="white" cx="96" cy="-273" rx="72.34" ry="18"/>
<text text-anchor="middle" x="96" y="-267.95" font-family="Times,serif" font-size="14.00">CBackInsertable</text>
</a>
</g>
</g>
<!-- CConstSinglePassRange -->
<g id="node2" class="node">
<title>CConstSinglePassRange</title>
<g id="a_node2"><a xlink:href="structDGtal_1_1concepts_1_1CConstSinglePassRange.html" target="_top" xlink:title="CConstSinglePassRange">
<ellipse fill="white" stroke="white" cx="288" cy="-273" rx="102.02" ry="18"/>
<text text-anchor="middle" x="288" y="-267.95" font-family="Times,serif" font-size="14.00">CConstSinglePassRange</text>
</a>
</g>
</g>
<!-- CInteger -->
<g id="node3" class="node">
<title>CInteger</title>
<g id="a_node3"><a xlink:href="structDGtal_1_1concepts_1_1CInteger.html" target="_top" xlink:title="CInteger">
<ellipse fill="white" stroke="white" cx="622" cy="-273" rx="43.16" ry="18"/>
<text text-anchor="middle" x="622" y="-267.95" font-family="Times,serif" font-size="14.00">CInteger</text>
</a>
</g>
</g>
<!-- CSignedNumber -->
<g id="node4" class="node">
<title>CSignedNumber</title>
<g id="a_node4"><a xlink:href="structDGtal_1_1concepts_1_1CSignedNumber.html" target="_top" xlink:title="CSignedNumber">
<ellipse fill="white" stroke="white" cx="487" cy="-273" rx="73.36" ry="18"/>
<text text-anchor="middle" x="487" y="-267.95" font-family="Times,serif" font-size="14.00">CSignedNumber</text>
</a>
</g>
</g>
<!-- CUnsignedNumber -->
<g id="node5" class="node">
<title>CUnsignedNumber</title>
<g id="a_node5"><a xlink:href="structDGtal_1_1concepts_1_1CUnsignedNumber.html" target="_top" xlink:title="CUnsignedNumber">
<ellipse fill="white" stroke="white" cx="862" cy="-273" rx="83.08" ry="18"/>
<text text-anchor="middle" x="862" y="-267.95" font-family="Times,serif" font-size="14.00">CUnsignedNumber</text>
</a>
</g>
</g>
<!-- CSpace -->
<g id="node6" class="node">
<title>CSpace</title>
<g id="a_node6"><a xlink:href="structDGtal_1_1concepts_1_1CSpace.html" target="_top" xlink:title="CSpace">
<ellipse fill="white" stroke="white" cx="722" cy="-273" rx="39.07" ry="18"/>
<text text-anchor="middle" x="722" y="-267.95" font-family="Times,serif" font-size="14.00">CSpace</text>
</a>
</g>
</g>
<!-- boost_CopyConstructible -->
<g id="node7" class="node">
<title>boost_CopyConstructible</title>
<g id="a_node7"><a xlink:href="structboost_1_1CopyConstructible.html" target="_top" xlink:title="boost::CopyConstructible">
<ellipse fill="orange" stroke="orange" cx="1319" cy="-273" rx="105.6" ry="18"/>
<text text-anchor="middle" x="1319" y="-267.95" font-family="Times,serif" font-size="14.00">boost::CopyConstructible</text>
</a>
</g>
</g>
<!-- boost_DefaultConstructible -->
<g id="node8" class="node">
<title>boost_DefaultConstructible</title>
<g id="a_node8"><a xlink:href="structboost_1_1DefaultConstructible.html" target="_top" xlink:title="boost::DefaultConstructible">
<ellipse fill="orange" stroke="orange" cx="1082" cy="-273" rx="113.28" ry="18"/>
<text text-anchor="middle" x="1082" y="-267.95" font-family="Times,serif" font-size="14.00">boost::DefaultConstructible</text>
</a>
</g>
</g>
<!-- boost_Assignable -->
<g id="node9" class="node">
<title>boost_Assignable</title>
<g id="a_node9"><a xlink:href="structboost_1_1Assignable.html" target="_top" xlink:title="boost::Assignable">
<ellipse fill="orange" stroke="orange" cx="1520" cy="-273" rx="76.94" ry="18"/>
<text text-anchor="middle" x="1520" y="-267.95" font-family="Times,serif" font-size="14.00">boost::Assignable</text>
</a>
</g>
</g>
<!-- boost_Sequence -->
<g id="node10" class="node">
<title>boost_Sequence</title>
<g id="a_node10"><a xlink:href="structboost_1_1Sequence.html" target="_top" xlink:title="boost::Sequence">
<ellipse fill="orange" stroke="orange" cx="1686" cy="-273" rx="71.31" ry="18"/>
<text text-anchor="middle" x="1686" y="-267.95" font-family="Times,serif" font-size="14.00">boost::Sequence</text>
</a>
</g>
</g>
<!-- CPositiveIrreducibleFraction -->
<g id="node11" class="node">
<title>CPositiveIrreducibleFraction</title>
<g id="a_node11"><a xlink:href="structDGtal_1_1concepts_1_1CPositiveIrreducibleFraction.html" target="_top" xlink:title="CPositiveIrreducibleFraction">
<ellipse fill="white" stroke="white" cx="521" cy="-154" rx="117.89" ry="18"/>
<text text-anchor="middle" x="521" y="-148.95" font-family="Times,serif" font-size="14.00">CPositiveIrreducibleFraction</text>
</a>
</g>
</g>
<!-- CPositiveIrreducibleFraction&#45;&gt;CBackInsertable -->
<g id="edge1" class="edge">
<title>CPositiveIrreducibleFraction&#45;&gt;CBackInsertable</title>
<path fill="none" stroke="black" d="M412.56,-161.36C343.06,-168.41 252.12,-183.24 177,-214.5 157.49,-222.62 138.09,-236.14 123.17,-248.04"/>
<polygon fill="black" stroke="black" points="121.17,-245.15 115.67,-254.21 125.62,-250.56 121.17,-245.15"/>
</g>
<!-- CPositiveIrreducibleFraction&#45;&gt;CConstSinglePassRange -->
<g id="edge2" class="edge">
<title>CPositiveIrreducibleFraction&#45;&gt;CConstSinglePassRange</title>
<path fill="none" stroke="black" d="M487.64,-171.64C463.78,-183.55 430.9,-199.99 402,-214.5 378.34,-226.38 351.94,-239.7 330.5,-250.52"/>
<polygon fill="black" stroke="black" points="329.12,-247.3 321.77,-254.93 332.27,-253.55 329.12,-247.3"/>
</g>
<!-- CPositiveIrreducibleFraction&#45;&gt;CInteger -->
<g id="edge6" class="edge">
<title>CPositiveIrreducibleFraction&#45;&gt;CInteger</title>
<path fill="none" stroke="black" stroke-dasharray="5,2" d="M535.9,-172.26C552.98,-192.04 581.09,-224.61 600.53,-247.12"/>
<polygon fill="black" stroke="black" points="597.84,-249.37 607.02,-254.65 603.14,-244.79 597.84,-249.37"/>
<text text-anchor="middle" x="574.45" y="-193.2" font-family="Times,serif" font-size="14.00">use</text>
</g>
<!-- CPositiveIrreducibleFraction&#45;&gt;CSignedNumber -->
<g id="edge7" class="edge">
<title>CPositiveIrreducibleFraction&#45;&gt;CSignedNumber</title>
<path fill="none" stroke="black" stroke-dasharray="5,2" d="M515.98,-172.26C510.51,-191.1 501.66,-221.54 495.18,-243.85"/>
<polygon fill="black" stroke="black" points="491.89,-242.63 492.46,-253.21 498.61,-244.59 491.89,-242.63"/>
<text text-anchor="middle" x="519" y="-193.2" font-family="Times,serif" font-size="14.00">use</text>
</g>
<!-- CPositiveIrreducibleFraction&#45;&gt;boost_CopyConstructible -->
<g id="edge4" class="edge">
<title>CPositiveIrreducibleFraction&#45;&gt;boost_CopyConstructible</title>
<path fill="none" stroke="black" d="M622.01,-163.56C810.4,-179.55 1197.07,-212.54 1204,-214.5 1231.82,-222.36 1260.92,-236.98 1282.88,-249.51"/>
<polygon fill="black" stroke="black" points="1281.04,-252.49 1291.44,-254.51 1284.57,-246.44 1281.04,-252.49"/>
</g>
<!-- CPositiveIrreducibleFraction&#45;&gt;boost_DefaultConstructible -->
<g id="edge3" class="edge">
<title>CPositiveIrreducibleFraction&#45;&gt;boost_DefaultConstructible</title>
<path fill="none" stroke="black" d="M585.27,-169.47C641.18,-181.45 724.52,-197.86 798,-206.5 868.27,-214.76 888.28,-197.63 957,-214.5 987.65,-222.02 1019.96,-237.1 1044.05,-249.92"/>
<polygon fill="black" stroke="black" points="1042.06,-252.82 1052.51,-254.53 1045.4,-246.68 1042.06,-252.82"/>
</g>
<!-- CPositiveIrreducibleFraction&#45;&gt;boost_Assignable -->
<g id="edge5" class="edge">
<title>CPositiveIrreducibleFraction&#45;&gt;boost_Assignable</title>
<path fill="none" stroke="black" d="M624,-163.06C691.41,-168.22 781.41,-174.88 861,-180 941.4,-185.18 961.57,-185.26 1042,-190 1044.72,-190.16 1431.42,-213.63 1434,-214.5 1455.48,-221.76 1476.68,-235.84 1492.66,-248.25"/>
<polygon fill="black" stroke="black" points="1490.27,-250.81 1500.25,-254.35 1494.65,-245.36 1490.27,-250.81"/>
</g>
<!-- SternBrocot_Fraction -->
<g id="node12" class="node">
<title>SternBrocot_Fraction</title>
<g id="a_node12"><a xlink:href="classDGtal_1_1SternBrocot_1_1Fraction.html" target="_top" xlink:title="SternBrocot::Fraction">
<ellipse fill="white" stroke="white" cx="204" cy="-58.5" rx="91.27" ry="18"/>
<text text-anchor="middle" x="204" y="-53.45" font-family="Times,serif" font-size="14.00">SternBrocot::Fraction</text>
</a>
</g>
</g>
<!-- SternBrocot_Fraction&#45;&gt;CPositiveIrreducibleFraction -->
<g id="edge8" class="edge">
<title>SternBrocot_Fraction&#45;&gt;CPositiveIrreducibleFraction</title>
<path fill="none" stroke="black" d="M253.18,-74.01C308.11,-90.21 397.19,-116.48 457.38,-134.23"/>
<polygon fill="black" stroke="black" points="456.23,-137.55 466.81,-137.02 458.21,-130.83 456.23,-137.55"/>
</g>
<!-- LightSternBrocot_Fraction -->
<g id="node13" class="node">
<title>LightSternBrocot_Fraction</title>
<g id="a_node13"><a xlink:href="classDGtal_1_1LightSternBrocot_1_1Fraction.html" target="_top" xlink:title="LightSternBrocot::Fraction">
<ellipse fill="white" stroke="white" cx="425" cy="-58.5" rx="111.23" ry="18"/>
<text text-anchor="middle" x="425" y="-53.45" font-family="Times,serif" font-size="14.00">LightSternBrocot::Fraction</text>
</a>
</g>
</g>
<!-- LightSternBrocot_Fraction&#45;&gt;CPositiveIrreducibleFraction -->
<g id="edge9" class="edge">
<title>LightSternBrocot_Fraction&#45;&gt;CPositiveIrreducibleFraction</title>
<path fill="none" stroke="black" d="M442.61,-76.65C457.36,-91.02 478.61,-111.72 495.27,-127.94"/>
<polygon fill="black" stroke="black" points="492.81,-130.43 502.42,-134.9 497.7,-125.42 492.81,-130.43"/>
</g>
<!-- LighterSternBrocot_Fraction -->
<g id="node14" class="node">
<title>LighterSternBrocot_Fraction</title>
<g id="a_node14"><a xlink:href="classDGtal_1_1LighterSternBrocot_1_1Fraction.html" target="_top" xlink:title="LighterSternBrocot::Fraction">
<ellipse fill="white" stroke="white" cx="673" cy="-58.5" rx="118.4" ry="18"/>
<text text-anchor="middle" x="673" y="-53.45" font-family="Times,serif" font-size="14.00">LighterSternBrocot::Fraction</text>
</a>
</g>
</g>
<!-- LighterSternBrocot_Fraction&#45;&gt;CPositiveIrreducibleFraction -->
<g id="edge10" class="edge">
<title>LighterSternBrocot_Fraction&#45;&gt;CPositiveIrreducibleFraction</title>
<path fill="none" stroke="black" d="M645.47,-76.43C621.02,-91.48 585.06,-113.59 558.08,-130.19"/>
<polygon fill="black" stroke="black" points="556.55,-127.02 549.87,-135.24 560.22,-132.98 556.55,-127.02"/>
</g>
<!-- IntegerComputer -->
<g id="node15" class="node">
<title>IntegerComputer</title>
<g id="a_node15"><a xlink:href="classDGtal_1_1IntegerComputer.html" target="_top" xlink:title="IntegerComputer">
<ellipse fill="white" stroke="white" cx="1101" cy="-58.5" rx="74.38" ry="18"/>
<text text-anchor="middle" x="1101" y="-53.45" font-family="Times,serif" font-size="14.00">IntegerComputer</text>
</a>
</g>
</g>
<!-- IntegerComputer&#45;&gt;CInteger -->
<g id="edge14" class="edge">
<title>IntegerComputer&#45;&gt;CInteger</title>
<path fill="none" stroke="black" stroke-dasharray="5,2" d="M1055.44,-73.06C1033.42,-80.53 1007.05,-90.87 985,-103.5 937.96,-130.45 939.54,-157.99 890,-180 801.16,-219.48 759.46,-168.15 674,-214.5 660.23,-221.97 648.23,-234.54 639.24,-246.02"/>
<polygon fill="black" stroke="black" points="636.43,-243.93 633.32,-254.05 642.07,-248.08 636.43,-243.93"/>
<text text-anchor="middle" x="994" y="-148.95" font-family="Times,serif" font-size="14.00">use</text>
</g>
<!-- IntegerComputer&#45;&gt;CUnsignedNumber -->
<g id="edge15" class="edge">
<title>IntegerComputer&#45;&gt;CUnsignedNumber</title>
<path fill="none" stroke="black" stroke-dasharray="5,2" d="M1088.14,-76.47C1060.24,-113.14 995.52,-197.25 982,-206.5 972.37,-213.09 967.62,-209.67 957,-214.5 935.53,-224.27 912.89,-237.83 895.09,-249.33"/>
<polygon fill="black" stroke="black" points="893.44,-246.23 887.01,-254.64 897.29,-252.08 893.44,-246.23"/>
<text text-anchor="middle" x="1074.82" y="-148.95" font-family="Times,serif" font-size="14.00">use</text>
</g>
<!-- IntegerComputer&#45;&gt;boost_CopyConstructible -->
<g id="edge12" class="edge">
<title>IntegerComputer&#45;&gt;boost_CopyConstructible</title>
<path fill="none" stroke="black" d="M1106.12,-76.94C1114.26,-102.2 1132.24,-149.3 1161,-180 1178.27,-198.43 1235.13,-229.5 1275.68,-250.37"/>
<polygon fill="black" stroke="black" points="1274.02,-253.46 1284.52,-254.89 1277.2,-247.22 1274.02,-253.46"/>
</g>
<!-- IntegerComputer&#45;&gt;boost_DefaultConstructible -->
<g id="edge11" class="edge">
<title>IntegerComputer&#45;&gt;boost_DefaultConstructible</title>
<path fill="none" stroke="black" d="M1099.45,-76.89C1096.17,-113.48 1088.55,-198.74 1084.55,-243.46"/>
<polygon fill="black" stroke="black" points="1081.09,-242.89 1083.68,-253.16 1088.06,-243.51 1081.09,-242.89"/>
</g>
<!-- IntegerComputer&#45;&gt;boost_Assignable -->
<g id="edge13" class="edge">
<title>IntegerComputer&#45;&gt;boost_Assignable</title>
<path fill="none" stroke="black" d="M1123.7,-76.03C1133.39,-83.73 1144.42,-93.41 1153,-103.5 1178.71,-133.72 1165.98,-158.01 1199,-180 1286.86,-238.52 1335.49,-176.57 1434,-214.5 1454.88,-222.54 1475.8,-236.37 1491.78,-248.45"/>
<polygon fill="black" stroke="black" points="1489.34,-250.99 1499.38,-254.37 1493.64,-245.47 1489.34,-250.99"/>
</g>
<!-- LatticePolytope2D -->
<g id="node16" class="node">
<title>LatticePolytope2D</title>
<g id="a_node16"><a xlink:href="classDGtal_1_1LatticePolytope2D.html" target="_top" xlink:title="LatticePolytope2D">
<ellipse fill="white" stroke="white" cx="1274" cy="-58.5" rx="80.52" ry="18"/>
<text text-anchor="middle" x="1274" y="-53.45" font-family="Times,serif" font-size="14.00">LatticePolytope2D</text>
</a>
</g>
</g>
<!-- LatticePolytope2D&#45;&gt;CSpace -->
<g id="edge16" class="edge">
<title>LatticePolytope2D&#45;&gt;CSpace</title>
<path fill="none" stroke="black" stroke-dasharray="5,2" d="M1254.75,-76.44C1222.7,-103.57 1155.25,-156.1 1088,-180 1021.02,-203.8 832.66,-180.94 770,-214.5 756.66,-221.65 745.52,-234.18 737.35,-245.73"/>
<polygon fill="black" stroke="black" points="734.61,-243.52 732.03,-253.79 740.46,-247.37 734.61,-243.52"/>
<text text-anchor="middle" x="1229.39" y="-148.95" font-family="Times,serif" font-size="14.00">use</text>
</g>
<!-- LatticePolytope2D&#45;&gt;boost_CopyConstructible -->
<g id="edge18" class="edge">
<title>LatticePolytope2D&#45;&gt;boost_CopyConstructible</title>
<path fill="none" stroke="black" d="M1277.68,-76.89C1285.43,-113.48 1303.49,-198.74 1312.96,-243.46"/>
<polygon fill="black" stroke="black" points="1309.52,-244.13 1315.02,-253.19 1316.37,-242.68 1309.52,-244.13"/>
</g>
<!-- LatticePolytope2D&#45;&gt;boost_DefaultConstructible -->
<g id="edge17" class="edge">
<title>LatticePolytope2D&#45;&gt;boost_DefaultConstructible</title>
<path fill="none" stroke="black" d="M1274.78,-76.85C1275.14,-107.61 1271.19,-171.75 1235,-206.5 1224.74,-216.36 1217.38,-209.67 1204,-214.5 1176.4,-224.46 1146.59,-238.45 1123.35,-250.13"/>
<polygon fill="black" stroke="black" points="1121.83,-246.98 1114.51,-254.63 1125.01,-253.22 1121.83,-246.98"/>
</g>
<!-- LatticePolytope2D&#45;&gt;boost_Assignable -->
<g id="edge19" class="edge">
<title>LatticePolytope2D&#45;&gt;boost_Assignable</title>
<path fill="none" stroke="black" d="M1293.3,-76.17C1336.58,-113.56 1441.5,-204.19 1491.97,-247.79"/>
<polygon fill="black" stroke="black" points="1489.45,-250.23 1499.3,-254.12 1494.02,-244.93 1489.45,-250.23"/>
</g>
<!-- LatticePolytope2D&#45;&gt;boost_Sequence -->
<g id="edge20" class="edge">
<title>LatticePolytope2D&#45;&gt;boost_Sequence</title>
<path fill="none" stroke="black" d="M1313.19,-74.63C1376.72,-99.85 1505.22,-153.74 1606,-214.5 1623.06,-224.79 1641.16,-237.62 1655.82,-248.55"/>
<polygon fill="black" stroke="black" points="1653.61,-251.27 1663.7,-254.5 1657.83,-245.68 1653.61,-251.27"/>
</g>
<!-- ClosedIntegerHalfPlane -->
<g id="node17" class="node">
<title>ClosedIntegerHalfPlane</title>
<g id="a_node17"><a xlink:href="structDGtal_1_1ClosedIntegerHalfPlane.html" target="_top" xlink:title="ClosedIntegerHalfPlane">
<ellipse fill="white" stroke="white" cx="909" cy="-58.5" rx="99.46" ry="18"/>
<text text-anchor="middle" x="909" y="-53.45" font-family="Times,serif" font-size="14.00">ClosedIntegerHalfPlane</text>
</a>
</g>
</g>
<!-- ClosedIntegerHalfPlane&#45;&gt;CSpace -->
<g id="edge21" class="edge">
<title>ClosedIntegerHalfPlane&#45;&gt;CSpace</title>
<path fill="none" stroke="black" stroke-dasharray="5,2" d="M893.37,-76.53C867.44,-104.87 813.99,-163.66 770,-214.5 760.88,-225.04 750.98,-236.83 742.56,-246.98"/>
<polygon fill="black" stroke="black" points="739.94,-244.66 736.26,-254.59 745.33,-249.12 739.94,-244.66"/>
<text text-anchor="middle" x="877.4" y="-148.95" font-family="Times,serif" font-size="14.00">use</text>
</g>
</g>
</svg>
