<?xml version="1.0" encoding="UTF-8" standalone="no"?>
<!DOCTYPE svg PUBLIC "-//W3C//DTD SVG 1.1//EN"
 "http://www.w3.org/Graphics/SVG/1.1/DTD/svg11.dtd">
<!-- Generated by graphviz version 12.2.1 (20241206.2353)
 -->
<!-- Title: GKERNEL Pages: 1 -->
<svg width="1949pt" height="808pt"
 viewBox="0.00 0.00 1949.00 807.50" xmlns="http://www.w3.org/2000/svg" xmlns:xlink="http://www.w3.org/1999/xlink">
<g id="graph0" class="graph" transform="scale(1 1) rotate(0) translate(4 803.5)">
<title>GKERNEL</title>
<polygon fill="white" stroke="none" points="-4,4 -4,-803.5 1945,-803.5 1945,4 -4,4"/>
<g id="clust1" class="cluster">
<title>cluster_ext</title>
</g>
<g id="clust2" class="cluster">
<title>cluster_base</title>
<polygon fill="#eeeeff" stroke="#eeeeff" points="894,-707 894,-783.5 1507,-783.5 1507,-707 894,-707"/>
<text text-anchor="middle" x="1200.5" y="-714.2" font-family="Times,serif" font-size="14.00">base</text>
</g>
<g id="clust3" class="cluster">
<title>cluster_boost</title>
<polygon fill="white" stroke="white" points="16,-707 16,-783.5 886,-783.5 886,-707 16,-707"/>
<text text-anchor="middle" x="451" y="-714.2" font-family="Times,serif" font-size="14.00">boost</text>
</g>
<g id="clust4" class="cluster">
<title>cluster_main</title>
<polygon fill="#ddddee" stroke="#ddddee" points="717,-119 717,-680 1413,-680 1413,-119 717,-119"/>
<text text-anchor="middle" x="1065" y="-126.2" font-family="Times,serif" font-size="14.00">kernel (main concepts)</text>
</g>
<g id="clust5" class="cluster">
<title>cluster_models</title>
<polygon fill="#ccffcc" stroke="#ccffcc" points="450,-8 450,-84.5 1933,-84.5 1933,-8 450,-8"/>
<text text-anchor="middle" x="1191.5" y="-15.2" font-family="Times,serif" font-size="14.00">Kernel (main models)</text>
</g>
<!-- CQuantity -->
<g id="node1" class="node">
<title>CQuantity</title>
<g id="a_node1"><a xlink:href="structDGtal_1_1concepts_1_1CQuantity.html" target="_top" xlink:title="CQuantity">
<ellipse fill="white" stroke="white" cx="1329" cy="-757.5" rx="49.3" ry="18"/>
<text text-anchor="middle" x="1329" y="-752.45" font-family="Times,serif" font-size="14.00">CQuantity</text>
</a>
</g>
</g>
<!-- CUnaryFunctor -->
<g id="node2" class="node">
<title>CUnaryFunctor</title>
<g id="a_node2"><a xlink:href="structDGtal_1_1concepts_1_1CUnaryFunctor.html" target="_top" xlink:title="CUnaryFunctor">
<ellipse fill="white" stroke="white" cx="971" cy="-757.5" rx="68.75" ry="18"/>
<text text-anchor="middle" x="971" y="-752.45" font-family="Times,serif" font-size="14.00">CUnaryFunctor</text>
</a>
</g>
</g>
<!-- CPredicate -->
<g id="node3" class="node">
<title>CPredicate</title>
<g id="a_node3"><a xlink:href="structDGtal_1_1concepts_1_1CPredicate.html" target="_top" xlink:title="CPredicate">
<ellipse fill="white" stroke="white" cx="1448" cy="-757.5" rx="51.35" ry="18"/>
<text text-anchor="middle" x="1448" y="-752.45" font-family="Times,serif" font-size="14.00">CPredicate</text>
</a>
</g>
</g>
<!-- CConstSinglePassRange -->
<g id="node4" class="node">
<title>CConstSinglePassRange</title>
<g id="a_node4"><a xlink:href="structDGtal_1_1concepts_1_1CConstSinglePassRange.html" target="_top" xlink:title="CConstSinglePassRange">
<ellipse fill="white" stroke="white" cx="1160" cy="-757.5" rx="102.02" ry="18"/>
<text text-anchor="middle" x="1160" y="-752.45" font-family="Times,serif" font-size="14.00">CConstSinglePassRange</text>
</a>
</g>
</g>
<!-- boost_CopyConstructible -->
<g id="node5" class="node">
<title>boost_CopyConstructible</title>
<g id="a_node5"><a xlink:href="structboost_1_1CopyConstructible.html" target="_top" xlink:title="boost::CopyConstructible">
<ellipse fill="orange" stroke="orange" cx="600" cy="-757.5" rx="105.6" ry="18"/>
<text text-anchor="middle" x="600" y="-752.45" font-family="Times,serif" font-size="14.00">boost::CopyConstructible</text>
</a>
</g>
</g>
<!-- boost_Assignable -->
<g id="node6" class="node">
<title>boost_Assignable</title>
<g id="a_node6"><a xlink:href="structboost_1_1Assignable.html" target="_top" xlink:title="boost::Assignable">
<ellipse fill="orange" stroke="orange" cx="801" cy="-757.5" rx="76.94" ry="18"/>
<text text-anchor="middle" x="801" y="-752.45" font-family="Times,serif" font-size="14.00">boost::Assignable</text>
</a>
</g>
</g>
<!-- boost_DefaultConstructible -->
<g id="node7" class="node">
<title>boost_DefaultConstructible</title>
<g id="a_node7"><a xlink:href="structboost_1_1DefaultConstructible.html" target="_top" xlink:title="boost::DefaultConstructible">
<ellipse fill="orange" stroke="orange" cx="363" cy="-757.5" rx="113.28" ry="18"/>
<text text-anchor="middle" x="363" y="-752.45" font-family="Times,serif" font-size="14.00">boost::DefaultConstructible</text>
</a>
</g>
</g>
<!-- boost_ForwardContainer -->
<g id="node8" class="node">
<title>boost_ForwardContainer</title>
<g id="a_node8"><a xlink:href="structboost_1_1ForwardContainer.html" target="_top" xlink:title="boost::ForwardContainer">
<ellipse fill="orange" stroke="orange" cx="128" cy="-757.5" rx="103.56" ry="18"/>
<text text-anchor="middle" x="128" y="-752.45" font-family="Times,serif" font-size="14.00">boost::ForwardContainer</text>
</a>
</g>
</g>
<!-- CPointPredicate -->
<g id="node9" class="node">
<title>CPointPredicate</title>
<g id="a_node9"><a xlink:href="structDGtal_1_1concepts_1_1CPointPredicate.html" target="_top" xlink:title="CPointPredicate">
<ellipse fill="white" stroke="white" cx="1334" cy="-258" rx="70.8" ry="18"/>
<text text-anchor="middle" x="1334" y="-252.95" font-family="Times,serif" font-size="14.00">CPointPredicate</text>
</a>
</g>
</g>
<!-- CPointPredicate&#45;&gt;CPredicate -->
<g id="edge2" class="edge">
<title>CPointPredicate&#45;&gt;CPredicate</title>
<path fill="none" stroke="black" d="M1401.86,-263.65C1495.8,-271.98 1654,-293.71 1654,-345.5 1654,-345.5 1654,-345.5 1654,-655 1654,-719.99 1570.49,-743.37 1509.81,-751.78"/>
<polygon fill="black" stroke="black" points="1509.38,-748.3 1499.89,-753.03 1510.26,-755.25 1509.38,-748.3"/>
</g>
<!-- CPointFunctor -->
<g id="node10" class="node">
<title>CPointFunctor</title>
<g id="a_node10"><a xlink:href="structDGtal_1_1concepts_1_1CPointFunctor.html" target="_top" xlink:title="CPointFunctor">
<ellipse fill="white" stroke="white" cx="1034" cy="-169.5" rx="65.17" ry="18"/>
<text text-anchor="middle" x="1034" y="-164.45" font-family="Times,serif" font-size="14.00">CPointFunctor</text>
</a>
</g>
</g>
<!-- CPointFunctor&#45;&gt;CUnaryFunctor -->
<g id="edge1" class="edge">
<title>CPointFunctor&#45;&gt;CUnaryFunctor</title>
<path fill="none" stroke="black" d="M981.76,-180.56C965.3,-185.79 948.02,-193.67 935,-205.5 916.31,-222.48 911,-231.75 911,-257 911,-257 911,-257 911,-655 911,-684.16 929.58,-712.29 946.06,-731.51"/>
<polygon fill="black" stroke="black" points="943.34,-733.73 952.63,-738.82 948.54,-729.05 943.34,-733.73"/>
</g>
<!-- CSpace -->
<g id="node11" class="node">
<title>CSpace</title>
<ellipse fill="white" stroke="white" cx="1280" cy="-346.5" rx="39.07" ry="18"/>
<text text-anchor="middle" x="1280" y="-341.45" font-family="Times,serif" font-size="14.00">CSpace</text>
</g>
<!-- CInteger -->
<g id="node12" class="node">
<title>CInteger</title>
<g id="a_node12"><a xlink:href="structDGtal_1_1concepts_1_1CInteger.html" target="_top" xlink:title="CInteger">
<ellipse fill="white" stroke="white" cx="1280" cy="-435" rx="43.16" ry="18"/>
<text text-anchor="middle" x="1280" y="-429.95" font-family="Times,serif" font-size="14.00">CInteger</text>
</a>
</g>
</g>
<!-- CSpace&#45;&gt;CInteger -->
<g id="edge16" class="edge">
<title>CSpace&#45;&gt;CInteger</title>
<path fill="none" stroke="black" stroke-dasharray="5,2" d="M1280,-364.59C1280,-376.24 1280,-391.95 1280,-405.48"/>
<polygon fill="black" stroke="black" points="1276.5,-405.14 1280,-415.14 1283.5,-405.14 1276.5,-405.14"/>
<text text-anchor="middle" x="1289" y="-385.7" font-family="Times,serif" font-size="14.00">use</text>
</g>
<!-- CUnsignedNumber -->
<g id="node13" class="node">
<title>CUnsignedNumber</title>
<g id="a_node13"><a xlink:href="structDGtal_1_1concepts_1_1CUnsignedNumber.html" target="_top" xlink:title="CUnsignedNumber">
<ellipse fill="white" stroke="white" cx="1136" cy="-435" rx="83.08" ry="18"/>
<text text-anchor="middle" x="1136" y="-429.95" font-family="Times,serif" font-size="14.00">CUnsignedNumber</text>
</a>
</g>
</g>
<!-- CSpace&#45;&gt;CUnsignedNumber -->
<g id="edge18" class="edge">
<title>CSpace&#45;&gt;CUnsignedNumber</title>
<path fill="none" stroke="black" stroke-dasharray="5,2" d="M1256.86,-361.4C1234.23,-374.99 1199.41,-395.91 1172.95,-411.81"/>
<polygon fill="black" stroke="black" points="1171.32,-408.7 1164.55,-416.85 1174.93,-414.7 1171.32,-408.7"/>
<text text-anchor="middle" x="1229.9" y="-385.7" font-family="Times,serif" font-size="14.00">use</text>
</g>
<!-- CIntegralNumber -->
<g id="node15" class="node">
<title>CIntegralNumber</title>
<g id="a_node15"><a xlink:href="structDGtal_1_1concepts_1_1CIntegralNumber.html" target="_top" xlink:title="CIntegralNumber">
<ellipse fill="white" stroke="white" cx="1329" cy="-508" rx="76.43" ry="18"/>
<text text-anchor="middle" x="1329" y="-502.95" font-family="Times,serif" font-size="14.00">CIntegralNumber</text>
</a>
</g>
</g>
<!-- CSpace&#45;&gt;CIntegralNumber -->
<g id="edge17" class="edge">
<title>CSpace&#45;&gt;CIntegralNumber</title>
<path fill="none" stroke="black" stroke-dasharray="5,2" d="M1296.45,-363.14C1308.9,-376.18 1325.01,-395.98 1332,-417 1338.57,-436.74 1337.5,-460.28 1334.95,-478.33"/>
<polygon fill="black" stroke="black" points="1331.52,-477.64 1333.33,-488.08 1338.43,-478.79 1331.52,-477.64"/>
<text text-anchor="middle" x="1345.93" y="-429.95" font-family="Times,serif" font-size="14.00">use</text>
</g>
<!-- CInteger&#45;&gt;CIntegralNumber -->
<g id="edge7" class="edge">
<title>CInteger&#45;&gt;CIntegralNumber</title>
<path fill="none" stroke="black" d="M1291.61,-452.83C1297.33,-461.1 1304.35,-471.28 1310.75,-480.56"/>
<polygon fill="black" stroke="black" points="1307.71,-482.31 1316.27,-488.56 1313.47,-478.34 1307.71,-482.31"/>
</g>
<!-- CEuclideanRing -->
<g id="node17" class="node">
<title>CEuclideanRing</title>
<g id="a_node17"><a xlink:href="structDGtal_1_1concepts_1_1CEuclideanRing.html" target="_top" xlink:title="CEuclideanRing">
<ellipse fill="white" stroke="white" cx="1163" cy="-508" rx="71.82" ry="18"/>
<text text-anchor="middle" x="1163" y="-502.95" font-family="Times,serif" font-size="14.00">CEuclideanRing</text>
</a>
</g>
</g>
<!-- CInteger&#45;&gt;CEuclideanRing -->
<g id="edge8" class="edge">
<title>CInteger&#45;&gt;CEuclideanRing</title>
<path fill="none" stroke="black" d="M1256.32,-450.37C1239.91,-460.33 1217.74,-473.78 1199.13,-485.07"/>
<polygon fill="black" stroke="black" points="1197.53,-481.95 1190.79,-490.13 1201.16,-487.94 1197.53,-481.95"/>
</g>
<!-- CUnsignedNumber&#45;&gt;CQuantity -->
<g id="edge4" class="edge">
<title>CUnsignedNumber&#45;&gt;CQuantity</title>
<path fill="none" stroke="black" d="M1103.77,-451.8C1084.21,-463.88 1063,-482.6 1063,-507 1063,-507 1063,-507 1063,-655 1063,-686.78 1099.17,-672.27 1130,-680 1191.34,-695.37 1214.27,-671.07 1271,-699 1286.1,-706.44 1299.67,-719.34 1309.88,-731.05"/>
<polygon fill="black" stroke="black" points="1306.97,-733.01 1316.04,-738.49 1312.36,-728.55 1306.97,-733.01"/>
</g>
<!-- CSignedNumber -->
<g id="node14" class="node">
<title>CSignedNumber</title>
<g id="a_node14"><a xlink:href="structDGtal_1_1concepts_1_1CSignedNumber.html" target="_top" xlink:title="CSignedNumber">
<ellipse fill="white" stroke="white" cx="1212" cy="-654" rx="73.36" ry="18"/>
<text text-anchor="middle" x="1212" y="-648.95" font-family="Times,serif" font-size="14.00">CSignedNumber</text>
</a>
</g>
</g>
<!-- CSignedNumber&#45;&gt;CQuantity -->
<g id="edge3" class="edge">
<title>CSignedNumber&#45;&gt;CQuantity</title>
<path fill="none" stroke="black" d="M1235.56,-671.41C1246.6,-679.39 1259.77,-689.33 1271,-699 1282.95,-709.29 1295.47,-721.5 1305.81,-732.01"/>
<polygon fill="black" stroke="black" points="1303.04,-734.19 1312.52,-738.93 1308.06,-729.31 1303.04,-734.19"/>
</g>
<!-- CIntegralNumber&#45;&gt;CQuantity -->
<g id="edge5" class="edge">
<title>CIntegralNumber&#45;&gt;CQuantity</title>
<path fill="none" stroke="black" d="M1329,-526.4C1329,-568.47 1329,-676.03 1329,-727.8"/>
<polygon fill="black" stroke="black" points="1325.5,-727.6 1329,-737.6 1332.5,-727.6 1325.5,-727.6"/>
</g>
<!-- CBoundedNumber -->
<g id="node16" class="node">
<title>CBoundedNumber</title>
<g id="a_node16"><a xlink:href="structDGtal_1_1concepts_1_1CBoundedNumber.html" target="_top" xlink:title="CBoundedNumber">
<ellipse fill="white" stroke="white" cx="1198" cy="-169.5" rx="81.04" ry="18"/>
<text text-anchor="middle" x="1198" y="-164.45" font-family="Times,serif" font-size="14.00">CBoundedNumber</text>
</a>
</g>
</g>
<!-- CBoundedNumber&#45;&gt;CQuantity -->
<g id="edge6" class="edge">
<title>CBoundedNumber&#45;&gt;CQuantity</title>
<path fill="none" stroke="black" d="M1139.02,-182.11C1128.7,-184.01 1118.05,-185.88 1108,-187.5 1078.12,-192.31 997.39,-187.58 973,-205.5 952.65,-220.45 949,-231.75 949,-257 949,-257 949,-257 949,-655 949,-700.81 1003.81,-672.47 1049,-680 1097.84,-688.14 1226.06,-678.21 1271,-699 1286.38,-706.11 1300.05,-719.12 1310.24,-730.97"/>
<polygon fill="black" stroke="black" points="1307.35,-732.96 1316.38,-738.51 1312.78,-728.54 1307.35,-732.96"/>
</g>
<!-- CCommutativeRing -->
<g id="node18" class="node">
<title>CCommutativeRing</title>
<g id="a_node18"><a xlink:href="structDGtal_1_1concepts_1_1CCommutativeRing.html" target="_top" xlink:title="CCommutativeRing">
<ellipse fill="white" stroke="white" cx="1196" cy="-581" rx="86.15" ry="18"/>
<text text-anchor="middle" x="1196" y="-575.95" font-family="Times,serif" font-size="14.00">CCommutativeRing</text>
</a>
</g>
</g>
<!-- CEuclideanRing&#45;&gt;CCommutativeRing -->
<g id="edge9" class="edge">
<title>CEuclideanRing&#45;&gt;CCommutativeRing</title>
<path fill="none" stroke="black" d="M1170.99,-526.19C1174.68,-534.12 1179.15,-543.74 1183.28,-552.64"/>
<polygon fill="black" stroke="black" points="1180.06,-554.01 1187.45,-561.6 1186.41,-551.06 1180.06,-554.01"/>
</g>
<!-- CCommutativeRing&#45;&gt;CSignedNumber -->
<g id="edge10" class="edge">
<title>CCommutativeRing&#45;&gt;CSignedNumber</title>
<path fill="none" stroke="black" d="M1199.87,-599.19C1201.6,-606.86 1203.69,-616.11 1205.64,-624.76"/>
<polygon fill="black" stroke="black" points="1202.22,-625.51 1207.83,-634.49 1209.05,-623.97 1202.22,-625.51"/>
</g>
<!-- CDomain -->
<g id="node19" class="node">
<title>CDomain</title>
<g id="a_node19"><a xlink:href="structDGtal_1_1concepts_1_1CDomain.html" target="_top" xlink:title="CDomain">
<ellipse fill="white" stroke="white" cx="1198" cy="-258" rx="47.26" ry="18"/>
<text text-anchor="middle" x="1198" y="-252.95" font-family="Times,serif" font-size="14.00">CDomain</text>
</a>
</g>
</g>
<!-- CDomain&#45;&gt;CConstSinglePassRange -->
<g id="edge11" class="edge">
<title>CDomain&#45;&gt;CConstSinglePassRange</title>
<path fill="none" stroke="black" d="M1152.09,-262.46C1100.84,-269.12 1025,-288.58 1025,-345.5 1025,-345.5 1025,-345.5 1025,-655 1025,-678.54 1078.08,-712.46 1117.68,-734.5"/>
<polygon fill="black" stroke="black" points="1115.88,-737.51 1126.34,-739.24 1119.25,-731.37 1115.88,-737.51"/>
</g>
<!-- CDomain&#45;&gt;CSpace -->
<g id="edge19" class="edge">
<title>CDomain&#45;&gt;CSpace</title>
<path fill="none" stroke="black" stroke-dasharray="5,2" d="M1213.42,-275.27C1225.76,-288.28 1243.23,-306.71 1257.18,-321.43"/>
<polygon fill="black" stroke="black" points="1254.46,-323.65 1263.88,-328.5 1259.54,-318.83 1254.46,-323.65"/>
<text text-anchor="middle" x="1255.34" y="-297.2" font-family="Times,serif" font-size="14.00">use</text>
</g>
<!-- CSTLAssociativeContainer -->
<g id="node20" class="node">
<title>CSTLAssociativeContainer</title>
<g id="a_node20"><a xlink:href="structDGtal_1_1concepts_1_1CSTLAssociativeContainer.html" target="_top" xlink:title="CSTLAssociativeContainer">
<ellipse fill="white" stroke="white" cx="838" cy="-169.5" rx="112.77" ry="18"/>
<text text-anchor="middle" x="838" y="-164.45" font-family="Times,serif" font-size="14.00">CSTLAssociativeContainer</text>
</a>
</g>
</g>
<!-- CSTLAssociativeContainer&#45;&gt;boost_DefaultConstructible -->
<g id="edge12" class="edge">
<title>CSTLAssociativeContainer&#45;&gt;boost_DefaultConstructible</title>
<path fill="none" stroke="black" d="M761.72,-183.11C691.78,-196.89 599,-221.81 599,-257 599,-257 599,-257 599,-655 599,-709.31 534.93,-677.63 485,-699 458.77,-710.23 429.87,-723.79 406.79,-734.92"/>
<polygon fill="black" stroke="black" points="405.46,-731.68 397.99,-739.19 408.51,-737.98 405.46,-731.68"/>
</g>
<!-- CSTLAssociativeContainer&#45;&gt;boost_ForwardContainer -->
<g id="edge13" class="edge">
<title>CSTLAssociativeContainer&#45;&gt;boost_ForwardContainer</title>
<path fill="none" stroke="black" d="M725.5,-171.59C599.59,-175.93 413,-193.14 413,-257 413,-257 413,-257 413,-655 413,-733.91 314.83,-671.16 241,-699 215.33,-708.68 187.88,-722.56 166.46,-734.26"/>
<polygon fill="black" stroke="black" points="164.84,-731.15 157.79,-739.06 168.23,-737.28 164.84,-731.15"/>
</g>
<!-- CDigitalSet -->
<g id="node21" class="node">
<title>CDigitalSet</title>
<ellipse fill="white" stroke="white" cx="1351" cy="-169.5" rx="54.42" ry="18"/>
<text text-anchor="middle" x="1351" y="-164.45" font-family="Times,serif" font-size="14.00">CDigitalSet</text>
</g>
<!-- CDigitalSet&#45;&gt;boost_CopyConstructible -->
<g id="edge21" class="edge">
<title>CDigitalSet&#45;&gt;boost_CopyConstructible</title>
<path fill="none" stroke="black" d="M1311.94,-182.32C1304.08,-184.34 1295.82,-186.2 1288,-187.5 1227.02,-197.66 736,-195.18 736,-257 736,-257 736,-257 736,-655 736,-678.65 682.52,-712.55 642.64,-734.54"/>
<polygon fill="black" stroke="black" points="641.03,-731.44 633.91,-739.28 644.36,-737.59 641.03,-731.44"/>
</g>
<!-- CDigitalSet&#45;&gt;boost_Assignable -->
<g id="edge20" class="edge">
<title>CDigitalSet&#45;&gt;boost_Assignable</title>
<path fill="none" stroke="black" d="M1310.05,-181.78C1302.72,-183.74 1295.14,-185.71 1288,-187.5 1221.41,-204.17 987,-188.35 987,-257 987,-257 987,-257 987,-655 987,-702.34 931.55,-676.32 890,-699 870.83,-709.46 850.31,-722.59 833.8,-733.65"/>
<polygon fill="black" stroke="black" points="832.16,-730.54 825.84,-739.05 836.08,-736.33 832.16,-730.54"/>
</g>
<!-- CDigitalSet&#45;&gt;CPointPredicate -->
<g id="edge14" class="edge">
<title>CDigitalSet&#45;&gt;CPointPredicate</title>
<path fill="none" stroke="black" d="M1347.64,-187.59C1345.35,-199.24 1342.26,-214.95 1339.6,-228.48"/>
<polygon fill="black" stroke="black" points="1336.2,-227.68 1337.7,-238.16 1343.06,-229.03 1336.2,-227.68"/>
</g>
<!-- CDigitalSet&#45;&gt;CDomain -->
<g id="edge15" class="edge">
<title>CDigitalSet&#45;&gt;CDomain</title>
<path fill="none" stroke="black" stroke-dasharray="5,2" d="M1324.35,-185.57C1299.11,-199.84 1261.05,-221.36 1233.3,-237.04"/>
<polygon fill="black" stroke="black" points="1231.88,-233.82 1224.9,-241.79 1235.33,-239.92 1231.88,-233.82"/>
<text text-anchor="middle" x="1297.2" y="-208.7" font-family="Times,serif" font-size="14.00">use</text>
</g>
<!-- SpaceND -->
<g id="node22" class="node">
<title>SpaceND</title>
<g id="a_node22"><a xlink:href="classDGtal_1_1SpaceND.html" target="_top" xlink:title="SpaceND">
<ellipse fill="white" stroke="white" cx="1879" cy="-58.5" rx="46.23" ry="18"/>
<text text-anchor="middle" x="1879" y="-53.45" font-family="Times,serif" font-size="14.00">SpaceND</text>
</a>
</g>
</g>
<!-- SpaceND&#45;&gt;CSpace -->
<g id="edge22" class="edge">
<title>SpaceND&#45;&gt;CSpace</title>
<path fill="none" stroke="black" d="M1854.36,-74.14C1803.96,-103.83 1685.02,-172.48 1581,-222 1489.73,-265.45 1378.96,-308.51 1320.57,-330.48"/>
<polygon fill="black" stroke="black" points="1319.5,-327.15 1311.37,-333.93 1321.96,-333.7 1319.5,-327.15"/>
</g>
<!-- HyperRectDomain -->
<g id="node23" class="node">
<title>HyperRectDomain</title>
<g id="a_node23"><a xlink:href="classDGtal_1_1HyperRectDomain.html" target="_top" xlink:title="HyperRectDomain">
<ellipse fill="white" stroke="white" cx="1433" cy="-58.5" rx="81.04" ry="18"/>
<text text-anchor="middle" x="1433" y="-53.45" font-family="Times,serif" font-size="14.00">HyperRectDomain</text>
</a>
</g>
</g>
<!-- HyperRectDomain&#45;&gt;CDomain -->
<g id="edge23" class="edge">
<title>HyperRectDomain&#45;&gt;CDomain</title>
<path fill="none" stroke="black" d="M1435.65,-76.67C1438.78,-103.57 1440.6,-155.86 1414,-187.5 1411.18,-190.86 1307.51,-223.25 1244.84,-242.61"/>
<polygon fill="black" stroke="black" points="1244,-239.2 1235.47,-245.5 1246.06,-245.89 1244,-239.2"/>
</g>
<!-- DigitalSetBySTLSet -->
<g id="node24" class="node">
<title>DigitalSetBySTLSet</title>
<g id="a_node24"><a xlink:href="classDGtal_1_1DigitalSetBySTLSet.html" target="_top" xlink:title="DigitalSetBySTLSet">
<ellipse fill="white" stroke="white" cx="1247" cy="-58.5" rx="87.18" ry="18"/>
<text text-anchor="middle" x="1247" y="-53.45" font-family="Times,serif" font-size="14.00">DigitalSetBySTLSet</text>
</a>
</g>
</g>
<!-- DigitalSetBySTLSet&#45;&gt;CDigitalSet -->
<g id="edge25" class="edge">
<title>DigitalSetBySTLSet&#45;&gt;CDigitalSet</title>
<path fill="none" stroke="black" d="M1263.25,-76.53C1280.45,-94.55 1307.75,-123.17 1327.34,-143.7"/>
<polygon fill="black" stroke="black" points="1324.72,-146.03 1334.16,-150.85 1329.79,-141.2 1324.72,-146.03"/>
</g>
<!-- DigitalSetBySTLVector -->
<g id="node25" class="node">
<title>DigitalSetBySTLVector</title>
<g id="a_node25"><a xlink:href="classDGtal_1_1DigitalSetBySTLVector.html" target="_top" xlink:title="DigitalSetBySTLVector">
<ellipse fill="white" stroke="white" cx="852" cy="-58.5" rx="99.46" ry="18"/>
<text text-anchor="middle" x="852" y="-53.45" font-family="Times,serif" font-size="14.00">DigitalSetBySTLVector</text>
</a>
</g>
</g>
<!-- DigitalSetBySTLVector&#45;&gt;CDigitalSet -->
<g id="edge24" class="edge">
<title>DigitalSetBySTLVector&#45;&gt;CDigitalSet</title>
<path fill="none" stroke="black" d="M908.33,-73.72C925.19,-77.62 943.77,-81.58 961,-84.5 1066.37,-102.36 1093.67,-100.27 1200,-111 1219.54,-112.97 1269.75,-111.75 1288,-119 1302.38,-124.72 1316.16,-134.81 1327.15,-144.4"/>
<polygon fill="black" stroke="black" points="1324.46,-146.69 1334.2,-150.87 1329.19,-141.53 1324.46,-146.69"/>
</g>
<!-- DigitalSetFromMap -->
<g id="node26" class="node">
<title>DigitalSetFromMap</title>
<g id="a_node26"><a xlink:href="classDGtal_1_1DigitalSetFromMap.html" target="_top" xlink:title="DigitalSetFromMap">
<ellipse fill="white" stroke="white" cx="1056" cy="-58.5" rx="86.15" ry="18"/>
<text text-anchor="middle" x="1056" y="-53.45" font-family="Times,serif" font-size="14.00">DigitalSetFromMap</text>
</a>
</g>
</g>
<!-- DigitalSetFromMap&#45;&gt;CDigitalSet -->
<g id="edge26" class="edge">
<title>DigitalSetFromMap&#45;&gt;CDigitalSet</title>
<path fill="none" stroke="black" d="M1107.74,-73.22C1121.77,-76.91 1136.96,-80.89 1151,-84.5 1211.81,-100.16 1231.64,-91.33 1288,-119 1301.46,-125.61 1314.76,-135.43 1325.64,-144.59"/>
<polygon fill="black" stroke="black" points="1323.19,-147.1 1333.03,-151.04 1327.8,-141.82 1323.19,-147.1"/>
</g>
<!-- SetPredicate -->
<g id="node27" class="node">
<title>SetPredicate</title>
<g id="a_node27"><a xlink:href="structDGtal_1_1deprecated_1_1SetPredicate.html" target="_top" xlink:title="SetPredicate">
<ellipse fill="white" stroke="white" cx="1589" cy="-58.5" rx="56.98" ry="18"/>
<text text-anchor="middle" x="1589" y="-53.45" font-family="Times,serif" font-size="14.00">SetPredicate</text>
</a>
</g>
</g>
<!-- SetPredicate&#45;&gt;CPointPredicate -->
<g id="edge30" class="edge">
<title>SetPredicate&#45;&gt;CPointPredicate</title>
<path fill="none" stroke="black" d="M1560.93,-74.55C1551.11,-80.29 1540.24,-87.23 1531,-94.5 1485.32,-130.46 1483.92,-150.59 1439,-187.5 1417.66,-205.03 1391.81,-222.18 1371.1,-235.06"/>
<polygon fill="black" stroke="black" points="1369.37,-232.02 1362.68,-240.23 1373.04,-237.98 1369.37,-232.02"/>
</g>
<!-- SetPredicate&#45;&gt;CDigitalSet -->
<g id="edge29" class="edge">
<title>SetPredicate&#45;&gt;CDigitalSet</title>
<path fill="none" stroke="black" stroke-dasharray="5,2" d="M1555.82,-73.44C1545.45,-77.43 1533.87,-81.5 1523,-84.5 1498.63,-91.23 1490.55,-85.3 1467,-94.5 1434.87,-107.04 1402.09,-128.98 1379.61,-145.72"/>
<polygon fill="black" stroke="black" points="1377.69,-142.78 1371.84,-151.62 1381.92,-148.35 1377.69,-142.78"/>
<text text-anchor="middle" x="1476" y="-97.7" font-family="Times,serif" font-size="14.00">use</text>
</g>
<!-- DomainPredicate -->
<g id="node28" class="node">
<title>DomainPredicate</title>
<g id="a_node28"><a xlink:href="structDGtal_1_1functors_1_1DomainPredicate.html" target="_top" xlink:title="DomainPredicate">
<ellipse fill="white" stroke="white" cx="1739" cy="-58.5" rx="75.41" ry="18"/>
<text text-anchor="middle" x="1739" y="-53.45" font-family="Times,serif" font-size="14.00">DomainPredicate</text>
</a>
</g>
</g>
<!-- DomainPredicate&#45;&gt;CPointPredicate -->
<g id="edge32" class="edge">
<title>DomainPredicate&#45;&gt;CPointPredicate</title>
<path fill="none" stroke="black" d="M1694.2,-73.23C1681.56,-77 1667.77,-81.01 1655,-84.5 1637.33,-89.34 1629,-82.68 1615,-94.5 1567.7,-134.42 1608.06,-184.27 1559,-222 1536.65,-239.19 1469.33,-248.09 1414.1,-252.6"/>
<polygon fill="black" stroke="black" points="1414.09,-249.09 1404.39,-253.36 1414.63,-256.07 1414.09,-249.09"/>
</g>
<!-- DomainPredicate&#45;&gt;CDomain -->
<g id="edge31" class="edge">
<title>DomainPredicate&#45;&gt;CDomain</title>
<path fill="none" stroke="black" stroke-dasharray="5,2" d="M1695.67,-73.49C1682.68,-77.39 1668.34,-81.4 1655,-84.5 1629.1,-90.53 1620.97,-85.35 1596,-94.5 1519.85,-122.41 1511.88,-151.92 1439,-187.5 1401.25,-205.93 1391.39,-210.45 1351,-222 1308.84,-234.06 1296.6,-229.62 1254,-240 1250.85,-240.77 1247.62,-241.61 1244.38,-242.49"/>
<polygon fill="black" stroke="black" points="1243.51,-239.1 1234.84,-245.2 1245.42,-245.83 1243.51,-239.1"/>
<text text-anchor="middle" x="1552.87" y="-164.45" font-family="Times,serif" font-size="14.00">use</text>
</g>
<!-- DigitalSetByAssociativeContainer -->
<g id="node29" class="node">
<title>DigitalSetByAssociativeContainer</title>
<g id="a_node29"><a xlink:href="classDGtal_1_1DigitalSetByAssociativeContainer.html" target="_top" xlink:title="DigitalSetByAssociativeContainer">
<ellipse fill="white" stroke="white" cx="596" cy="-58.5" rx="138.36" ry="18"/>
<text text-anchor="middle" x="596" y="-53.45" font-family="Times,serif" font-size="14.00">DigitalSetByAssociativeContainer</text>
</a>
</g>
</g>
<!-- DigitalSetByAssociativeContainer&#45;&gt;CSTLAssociativeContainer -->
<g id="edge28" class="edge">
<title>DigitalSetByAssociativeContainer&#45;&gt;CSTLAssociativeContainer</title>
<path fill="none" stroke="black" stroke-dasharray="5,2" d="M633.28,-76.29C675.72,-95.41 745.1,-126.66 791.15,-147.4"/>
<polygon fill="black" stroke="black" points="789.53,-150.51 800.09,-151.42 792.41,-144.13 789.53,-150.51"/>
<text text-anchor="middle" x="718.74" y="-97.7" font-family="Times,serif" font-size="14.00">use</text>
</g>
<!-- DigitalSetByAssociativeContainer&#45;&gt;CDigitalSet -->
<g id="edge27" class="edge">
<title>DigitalSetByAssociativeContainer&#45;&gt;CDigitalSet</title>
<path fill="none" stroke="black" d="M673.8,-73.75C696.39,-77.58 721.13,-81.5 744,-84.5 868.81,-100.88 900.36,-103.19 1026,-111 1055.07,-112.81 1260.62,-109.06 1288,-119 1302.65,-124.32 1316.54,-134.46 1327.54,-144.19"/>
<polygon fill="black" stroke="black" points="1324.89,-146.51 1334.59,-150.77 1329.66,-141.39 1324.89,-146.51"/>
</g>
</g>
</svg>
