<?xml version="1.0" encoding="UTF-8" standalone="no"?>
<!DOCTYPE svg PUBLIC "-//W3C//DTD SVG 1.1//EN"
 "http://www.w3.org/Graphics/SVG/1.1/DTD/svg11.dtd">
<!-- Generated by graphviz version 12.2.1 (20241206.2353)
 -->
<!-- Title: GDEC Pages: 1 -->
<svg width="1158pt" height="526pt"
 viewBox="0.00 0.00 1158.00 526.00" xmlns="http://www.w3.org/2000/svg" xmlns:xlink="http://www.w3.org/1999/xlink">
<g id="graph0" class="graph" transform="scale(1 1) rotate(0) translate(4 522)">
<title>GDEC</title>
<polygon fill="white" stroke="none" points="-4,4 -4,-522 1154,-522 1154,4 -4,4"/>
<g id="clust1" class="cluster">
<title>cluster_boost</title>
<polygon fill="white" stroke="white" points="25,-433.5 25,-510 439,-510 439,-433.5 25,-433.5"/>
<text text-anchor="middle" x="232" y="-440.7" font-family="Times,serif" font-size="14.00">boost</text>
</g>
<g id="clust2" class="cluster">
<title>cluster_math_linalg</title>
<polygon fill="#e4e4ff" stroke="#e4e4ff" points="20,-119 20,-414.5 806,-414.5 806,-119 20,-119"/>
<text text-anchor="middle" x="413" y="-126.2" font-family="Times,serif" font-size="14.00">math/linalg</text>
</g>
<g id="clust3" class="cluster">
<title>cluster_concepts</title>
<polygon fill="lightgrey" stroke="lightgrey" points="814,-119 814,-195.5 1142,-195.5 1142,-119 814,-119"/>
<text text-anchor="middle" x="978" y="-126.2" font-family="Times,serif" font-size="14.00">DEC (main concepts)</text>
</g>
<g id="clust4" class="cluster">
<title>cluster_models</title>
<polygon fill="#ccffcc" stroke="#ccffcc" points="232,-8 232,-84.5 1104,-84.5 1104,-8 232,-8"/>
<text text-anchor="middle" x="668" y="-15.2" font-family="Times,serif" font-size="14.00">DEC (main models)</text>
</g>
<!-- boost_DefaultConstructible -->
<g id="node1" class="node">
<title>boost_DefaultConstructible</title>
<g id="a_node1"><a xlink:href="structboost_1_1DefaultConstructible.html" target="_top" xlink:title="boost::DefaultConstructible">
<ellipse fill="orange" stroke="orange" cx="146" cy="-484" rx="113.28" ry="18"/>
<text text-anchor="middle" x="146" y="-478.95" font-family="Times,serif" font-size="14.00">boost::DefaultConstructible</text>
</a>
</g>
</g>
<!-- boost_Assignable -->
<g id="node2" class="node">
<title>boost_Assignable</title>
<g id="a_node2"><a xlink:href="structboost_1_1Assignable.html" target="_top" xlink:title="boost::Assignable">
<ellipse fill="orange" stroke="orange" cx="354" cy="-484" rx="76.94" ry="18"/>
<text text-anchor="middle" x="354" y="-478.95" font-family="Times,serif" font-size="14.00">boost::Assignable</text>
</a>
</g>
</g>
<!-- CVectorSpace -->
<g id="node3" class="node">
<title>CVectorSpace</title>
<g id="a_node3"><a xlink:href="structDGtal_1_1concepts_1_1CVectorSpace.html" target="_top" xlink:title="CVectorSpace">
<ellipse fill="white" stroke="white" cx="439" cy="-388.5" rx="63.12" ry="18"/>
<text text-anchor="middle" x="439" y="-383.45" font-family="Times,serif" font-size="14.00">CVectorSpace</text>
</a>
</g>
</g>
<!-- CVectorSpace&#45;&gt;boost_Assignable -->
<g id="edge14" class="edge">
<title>CVectorSpace&#45;&gt;boost_Assignable</title>
<path fill="none" stroke="black" d="M423.8,-406.22C410.71,-420.62 391.62,-441.62 376.71,-458.02"/>
<polygon fill="black" stroke="black" points="374.51,-455.24 370.37,-464.99 379.69,-459.95 374.51,-455.24"/>
</g>
<!-- CMatrix -->
<g id="node4" class="node">
<title>CMatrix</title>
<g id="a_node4"><a xlink:href="structDGtal_1_1concepts_1_1CMatrix.html" target="_top" xlink:title="CMatrix">
<ellipse fill="white" stroke="white" cx="398" cy="-315.5" rx="42.65" ry="18"/>
<text text-anchor="middle" x="398" y="-310.45" font-family="Times,serif" font-size="14.00">CMatrix</text>
</a>
</g>
</g>
<!-- CMatrix&#45;&gt;CVectorSpace -->
<g id="edge5" class="edge">
<title>CMatrix&#45;&gt;CVectorSpace</title>
<path fill="none" stroke="black" d="M407.72,-333.33C412.4,-341.43 418.12,-351.35 423.39,-360.47"/>
<polygon fill="black" stroke="black" points="420.28,-362.08 428.31,-368.99 426.34,-358.58 420.28,-362.08"/>
</g>
<!-- CStaticMatrix -->
<g id="node5" class="node">
<title>CStaticMatrix</title>
<g id="a_node5"><a xlink:href="structDGtal_1_1concepts_1_1CStaticMatrix.html" target="_top" xlink:title="CStaticMatrix">
<ellipse fill="white" stroke="white" cx="92" cy="-242.5" rx="63.63" ry="18"/>
<text text-anchor="middle" x="92" y="-237.45" font-family="Times,serif" font-size="14.00">CStaticMatrix</text>
</a>
</g>
</g>
<!-- CStaticMatrix&#45;&gt;boost_DefaultConstructible -->
<g id="edge7" class="edge">
<title>CStaticMatrix&#45;&gt;boost_DefaultConstructible</title>
<path fill="none" stroke="black" d="M95.88,-260.72C105.09,-301.53 128.29,-404.45 139.6,-454.62"/>
<polygon fill="black" stroke="black" points="136.13,-455.15 141.75,-464.13 142.96,-453.61 136.13,-455.15"/>
</g>
<!-- CStaticMatrix&#45;&gt;CMatrix -->
<g id="edge6" class="edge">
<title>CStaticMatrix&#45;&gt;CMatrix</title>
<path fill="none" stroke="black" d="M139.9,-254.66C148.27,-256.61 156.89,-258.62 165,-260.5 229.08,-275.39 303.09,-292.53 350.19,-303.44"/>
<polygon fill="black" stroke="black" points="349.27,-306.81 359.8,-305.66 350.85,-299.99 349.27,-306.81"/>
</g>
<!-- CDynamicMatrix -->
<g id="node6" class="node">
<title>CDynamicMatrix</title>
<g id="a_node6"><a xlink:href="structDGtal_1_1concepts_1_1CDynamicMatrix.html" target="_top" xlink:title="CDynamicMatrix">
<ellipse fill="white" stroke="white" cx="393" cy="-242.5" rx="76.94" ry="18"/>
<text text-anchor="middle" x="393" y="-237.45" font-family="Times,serif" font-size="14.00">CDynamicMatrix</text>
</a>
</g>
</g>
<!-- CDynamicMatrix&#45;&gt;CMatrix -->
<g id="edge8" class="edge">
<title>CDynamicMatrix&#45;&gt;CMatrix</title>
<path fill="none" stroke="black" d="M394.21,-260.69C394.75,-268.36 395.4,-277.61 396.01,-286.26"/>
<polygon fill="black" stroke="black" points="392.5,-286.23 396.69,-295.96 399.48,-285.74 392.5,-286.23"/>
</g>
<!-- CVector -->
<g id="node7" class="node">
<title>CVector</title>
<g id="a_node7"><a xlink:href="structDGtal_1_1concepts_1_1CVector.html" target="_top" xlink:title="CVector">
<ellipse fill="white" stroke="white" cx="520" cy="-315.5" rx="41.12" ry="18"/>
<text text-anchor="middle" x="520" y="-310.45" font-family="Times,serif" font-size="14.00">CVector</text>
</a>
</g>
</g>
<!-- CVector&#45;&gt;CVectorSpace -->
<g id="edge1" class="edge">
<title>CVector&#45;&gt;CVectorSpace</title>
<path fill="none" stroke="black" d="M502.42,-331.91C491.87,-341.16 478.21,-353.13 466.27,-363.59"/>
<polygon fill="black" stroke="black" points="464.31,-360.66 459.09,-369.89 468.92,-365.93 464.31,-360.66"/>
</g>
<!-- CStaticVector -->
<g id="node8" class="node">
<title>CStaticVector</title>
<g id="a_node8"><a xlink:href="structDGtal_1_1concepts_1_1CStaticVector.html" target="_top" xlink:title="CStaticVector">
<ellipse fill="white" stroke="white" cx="236" cy="-242.5" rx="62.1" ry="18"/>
<text text-anchor="middle" x="236" y="-237.45" font-family="Times,serif" font-size="14.00">CStaticVector</text>
</a>
</g>
</g>
<!-- CStaticVector&#45;&gt;boost_DefaultConstructible -->
<g id="edge3" class="edge">
<title>CStaticVector&#45;&gt;boost_DefaultConstructible</title>
<path fill="none" stroke="black" d="M229.53,-260.72C214.16,-301.62 175.36,-404.88 156.55,-454.94"/>
<polygon fill="black" stroke="black" points="153.31,-453.6 153.07,-464.19 159.86,-456.06 153.31,-453.6"/>
</g>
<!-- CStaticVector&#45;&gt;CVector -->
<g id="edge2" class="edge">
<title>CStaticVector&#45;&gt;CVector</title>
<path fill="none" stroke="black" d="M281.95,-254.99C334.74,-268.19 420.9,-289.72 473.8,-302.95"/>
<polygon fill="black" stroke="black" points="472.87,-306.32 483.42,-305.35 474.56,-299.53 472.87,-306.32"/>
</g>
<!-- CDynamicVector -->
<g id="node9" class="node">
<title>CDynamicVector</title>
<g id="a_node9"><a xlink:href="structDGtal_1_1concepts_1_1CDynamicVector.html" target="_top" xlink:title="CDynamicVector">
<ellipse fill="white" stroke="white" cx="723" cy="-242.5" rx="75.41" ry="18"/>
<text text-anchor="middle" x="723" y="-237.45" font-family="Times,serif" font-size="14.00">CDynamicVector</text>
</a>
</g>
</g>
<!-- CDynamicVector&#45;&gt;CVector -->
<g id="edge4" class="edge">
<title>CDynamicVector&#45;&gt;CVector</title>
<path fill="none" stroke="black" d="M681.92,-257.87C647.11,-270.04 597.39,-287.43 562.25,-299.72"/>
<polygon fill="black" stroke="black" points="561.1,-296.42 552.82,-303.02 563.41,-303.02 561.1,-296.42"/>
</g>
<!-- CLinearAlgebra -->
<g id="node10" class="node">
<title>CLinearAlgebra</title>
<g id="a_node10"><a xlink:href="structDGtal_1_1concepts_1_1CLinearAlgebra.html" target="_top" xlink:title="CLinearAlgebra">
<ellipse fill="white" stroke="white" cx="559" cy="-242.5" rx="70.8" ry="18"/>
<text text-anchor="middle" x="559" y="-237.45" font-family="Times,serif" font-size="14.00">CLinearAlgebra</text>
</a>
</g>
</g>
<!-- CLinearAlgebra&#45;&gt;CMatrix -->
<g id="edge9" class="edge">
<title>CLinearAlgebra&#45;&gt;CMatrix</title>
<path fill="none" stroke="black" d="M524.86,-258.56C499.11,-269.91 463.76,-285.5 436.91,-297.34"/>
<polygon fill="black" stroke="black" points="435.84,-293.99 428.1,-301.23 438.66,-300.39 435.84,-293.99"/>
</g>
<!-- CLinearAlgebra&#45;&gt;CVector -->
<g id="edge10" class="edge">
<title>CLinearAlgebra&#45;&gt;CVector</title>
<path fill="none" stroke="black" d="M549.56,-260.69C545.04,-268.92 539.52,-278.96 534.49,-288.12"/>
<polygon fill="black" stroke="black" points="531.56,-286.18 529.81,-296.63 537.7,-289.55 531.56,-286.18"/>
</g>
<!-- CLinearAlgebraSolver -->
<g id="node11" class="node">
<title>CLinearAlgebraSolver</title>
<g id="a_node11"><a xlink:href="structDGtal_1_1concepts_1_1CLinearAlgebraSolver.html" target="_top" xlink:title="CLinearAlgebraSolver">
<ellipse fill="white" stroke="white" cx="368" cy="-169.5" rx="94.86" ry="18"/>
<text text-anchor="middle" x="368" y="-164.45" font-family="Times,serif" font-size="14.00">CLinearAlgebraSolver</text>
</a>
</g>
</g>
<!-- CLinearAlgebraSolver&#45;&gt;boost_DefaultConstructible -->
<g id="edge12" class="edge">
<title>CLinearAlgebraSolver&#45;&gt;boost_DefaultConstructible</title>
<path fill="none" stroke="black" d="M273.23,-170.38C164.2,-172.88 0,-185.87 0,-241.5 0,-241.5 0,-241.5 0,-389.5 0,-427.72 35.91,-451.02 72.12,-464.81"/>
<polygon fill="black" stroke="black" points="70.79,-468.05 81.39,-468.11 73.14,-461.46 70.79,-468.05"/>
</g>
<!-- CLinearAlgebraSolver&#45;&gt;CLinearAlgebra -->
<g id="edge11" class="edge">
<title>CLinearAlgebraSolver&#45;&gt;CLinearAlgebra</title>
<path fill="none" stroke="black" d="M409.92,-186.08C439.29,-197 478.66,-211.63 509.56,-223.12"/>
<polygon fill="black" stroke="black" points="508.1,-226.31 518.69,-226.52 510.54,-219.75 508.1,-226.31"/>
</g>
<!-- CDiscreteExteriorCalculusVectorSpace -->
<g id="node12" class="node">
<title>CDiscreteExteriorCalculusVectorSpace</title>
<g id="a_node12"><a xlink:href="structDGtal_1_1concepts_1_1CDiscreteExteriorCalculusVectorSpace.html" target="_top" xlink:title="CDiscreteExteriorCalculusVectorSpace">
<ellipse fill="white" stroke="white" cx="978" cy="-169.5" rx="156.27" ry="18"/>
<text text-anchor="middle" x="978" y="-164.45" font-family="Times,serif" font-size="14.00">CDiscreteExteriorCalculusVectorSpace</text>
</a>
</g>
</g>
<!-- CDiscreteExteriorCalculusVectorSpace&#45;&gt;CVectorSpace -->
<g id="edge13" class="edge">
<title>CDiscreteExteriorCalculusVectorSpace&#45;&gt;CVectorSpace</title>
<path fill="none" stroke="black" d="M949.01,-187.5C915.52,-206.73 858.42,-238.25 807,-260.5 698,-307.67 565.24,-349.92 492.7,-371.78"/>
<polygon fill="black" stroke="black" points="492.04,-368.33 483.47,-374.55 494.05,-375.03 492.04,-368.33"/>
</g>
<!-- KForm -->
<g id="node13" class="node">
<title>KForm</title>
<g id="a_node13"><a xlink:href="classDGtal_1_1KForm.html" target="_top" xlink:title="KForm">
<ellipse fill="white" stroke="white" cx="778" cy="-58.5" rx="38.04" ry="18"/>
<text text-anchor="middle" x="778" y="-53.45" font-family="Times,serif" font-size="14.00">KForm</text>
</a>
</g>
</g>
<!-- KForm&#45;&gt;CDiscreteExteriorCalculusVectorSpace -->
<g id="edge15" class="edge">
<title>KForm&#45;&gt;CDiscreteExteriorCalculusVectorSpace</title>
<path fill="none" stroke="black" d="M802.12,-72.65C835.55,-90.87 896.42,-124.04 937.04,-146.17"/>
<polygon fill="black" stroke="black" points="935.11,-149.11 945.57,-150.83 938.46,-142.97 935.11,-149.11"/>
</g>
<!-- LinearOperator -->
<g id="node14" class="node">
<title>LinearOperator</title>
<g id="a_node14"><a xlink:href="classDGtal_1_1LinearOperator.html" target="_top" xlink:title="LinearOperator">
<ellipse fill="white" stroke="white" cx="902" cy="-58.5" rx="67.73" ry="18"/>
<text text-anchor="middle" x="902" y="-53.45" font-family="Times,serif" font-size="14.00">LinearOperator</text>
</a>
</g>
</g>
<!-- LinearOperator&#45;&gt;CDiscreteExteriorCalculusVectorSpace -->
<g id="edge16" class="edge">
<title>LinearOperator&#45;&gt;CDiscreteExteriorCalculusVectorSpace</title>
<path fill="none" stroke="black" d="M913.88,-76.53C926.07,-94.03 945.23,-121.5 959.44,-141.87"/>
<polygon fill="black" stroke="black" points="956.5,-143.79 965.09,-149.99 962.24,-139.78 956.5,-143.79"/>
</g>
<!-- VectorField -->
<g id="node15" class="node">
<title>VectorField</title>
<g id="a_node15"><a xlink:href="classDGtal_1_1VectorField.html" target="_top" xlink:title="VectorField">
<ellipse fill="white" stroke="white" cx="1042" cy="-58.5" rx="53.91" ry="18"/>
<text text-anchor="middle" x="1042" y="-53.45" font-family="Times,serif" font-size="14.00">VectorField</text>
</a>
</g>
</g>
<!-- VectorField&#45;&gt;CDiscreteExteriorCalculusVectorSpace -->
<g id="edge17" class="edge">
<title>VectorField&#45;&gt;CDiscreteExteriorCalculusVectorSpace</title>
<path fill="none" stroke="black" d="M1032,-76.53C1021.82,-93.87 1005.89,-121.01 993.96,-141.32"/>
<polygon fill="black" stroke="black" points="990.95,-139.53 988.91,-149.92 996.99,-143.07 990.95,-139.53"/>
</g>
<!-- DiscreteExteriorCalculus -->
<g id="node16" class="node">
<title>DiscreteExteriorCalculus</title>
<g id="a_node16"><a xlink:href="classDGtal_1_1DiscreteExteriorCalculus.html" target="_top" xlink:title="DiscreteExteriorCalculus">
<ellipse fill="white" stroke="white" cx="618" cy="-58.5" rx="104.07" ry="18"/>
<text text-anchor="middle" x="618" y="-53.45" font-family="Times,serif" font-size="14.00">DiscreteExteriorCalculus</text>
</a>
</g>
</g>
<!-- DiscreteExteriorCalculus&#45;&gt;CDynamicMatrix -->
<g id="edge19" class="edge">
<title>DiscreteExteriorCalculus&#45;&gt;CDynamicMatrix</title>
<path fill="none" stroke="black" stroke-dasharray="5,2" d="M598.8,-76.54C585.56,-88.36 567.6,-104.51 552,-119 515.95,-152.47 511.31,-165.92 472,-195.5 460.19,-204.39 446.52,-212.89 433.91,-220.12"/>
<polygon fill="black" stroke="black" points="432.41,-216.95 425.4,-224.89 435.83,-223.06 432.41,-216.95"/>
<text text-anchor="middle" x="561" y="-164.45" font-family="Times,serif" font-size="14.00">use</text>
</g>
<!-- DiscreteExteriorCalculus&#45;&gt;CDynamicVector -->
<g id="edge20" class="edge">
<title>DiscreteExteriorCalculus&#45;&gt;CDynamicVector</title>
<path fill="none" stroke="black" stroke-dasharray="5,2" d="M627.88,-76.62C646.17,-108.33 685.45,-176.41 707.38,-214.42"/>
<polygon fill="black" stroke="black" points="704.29,-216.07 712.32,-222.98 710.35,-212.57 704.29,-216.07"/>
<text text-anchor="middle" x="704.78" y="-164.45" font-family="Times,serif" font-size="14.00">use</text>
</g>
<!-- DiscreteExteriorCalculus&#45;&gt;CLinearAlgebra -->
<g id="edge18" class="edge">
<title>DiscreteExteriorCalculus&#45;&gt;CLinearAlgebra</title>
<path fill="none" stroke="black" stroke-dasharray="5,2" d="M612.34,-76.95C602.12,-108.48 580.5,-175.18 568.15,-213.27"/>
<polygon fill="black" stroke="black" points="564.86,-212.07 565.11,-222.66 571.52,-214.23 564.86,-212.07"/>
<text text-anchor="middle" x="607.64" y="-164.45" font-family="Times,serif" font-size="14.00">use</text>
</g>
<!-- DiscreteExteriorCalculusSolver -->
<g id="node17" class="node">
<title>DiscreteExteriorCalculusSolver</title>
<g id="a_node17"><a xlink:href="classDGtal_1_1DiscreteExteriorCalculusSolver.html" target="_top" xlink:title="DiscreteExteriorCalculusSolver">
<ellipse fill="white" stroke="white" cx="368" cy="-58.5" rx="128.12" ry="18"/>
<text text-anchor="middle" x="368" y="-53.45" font-family="Times,serif" font-size="14.00">DiscreteExteriorCalculusSolver</text>
</a>
</g>
</g>
<!-- DiscreteExteriorCalculusSolver&#45;&gt;CLinearAlgebraSolver -->
<g id="edge21" class="edge">
<title>DiscreteExteriorCalculusSolver&#45;&gt;CLinearAlgebraSolver</title>
<path fill="none" stroke="black" stroke-dasharray="5,2" d="M368,-76.53C368,-93.47 368,-119.77 368,-139.91"/>
<polygon fill="black" stroke="black" points="364.5,-139.72 368,-149.72 371.5,-139.72 364.5,-139.72"/>
<text text-anchor="middle" x="377" y="-97.7" font-family="Times,serif" font-size="14.00">use</text>
</g>
</g>
</svg>
