<?xml version="1.0" encoding="UTF-8" standalone="no"?>
<!DOCTYPE svg PUBLIC "-//W3C//DTD SVG 1.1//EN"
 "http://www.w3.org/Graphics/SVG/1.1/DTD/svg11.dtd">
<!-- Generated by graphviz version 12.2.1 (20241206.2353)
 -->
<!-- Title: Graphical Class Hierarchy Pages: 1 -->
<svg width="314pt" height="138pt"
 viewBox="0.00 0.00 313.75 138.25" xmlns="http://www.w3.org/2000/svg" xmlns:xlink="http://www.w3.org/1999/xlink">
<g id="graph0" class="graph" transform="scale(1 1) rotate(0) translate(4 134.25)">
<title>Graphical Class Hierarchy</title>
<!-- Node0 -->
<g id="Node000000" class="node">
<title>Node0</title>
<g id="a_Node000000"><a xlink:href="structDGtal_1_1DrawableWithBoard2D.html" target="_top" xlink:title=" ">
<polygon fill="white" stroke="#666666" points="147.25,-74.25 0,-74.25 0,-55 147.25,-55 147.25,-74.25"/>
<text text-anchor="middle" x="73.62" y="-60.75" font-family="FreeSans" font-size="10.00">DGtal::DrawableWithBoard2D</text>
</a>
</g>
</g>
<!-- Node1 -->
<g id="Node000001" class="node">
<title>Node1</title>
<g id="a_Node000001"><a xlink:href="structDGtal_1_1CustomColors.html" target="_top" xlink:title="Custom style class redefining the pen color and the fill color. You may use Board2D::Color::None for ...">
<polygon fill="white" stroke="#666666" points="299.75,-130.25 189.25,-130.25 189.25,-111 299.75,-111 299.75,-130.25"/>
<text text-anchor="middle" x="244.5" y="-116.75" font-family="FreeSans" font-size="10.00">DGtal::CustomColors</text>
</a>
</g>
</g>
<!-- Node0&#45;&gt;Node1 -->
<g id="edge261_Node000000_Node000001" class="edge">
<title>Node0&#45;&gt;Node1</title>
<g id="a_edge261_Node000000_Node000001"><a xlink:title=" ">
<path fill="none" stroke="#63b8ff" d="M112.81,-78.47C133.56,-85.87 159.73,-95 183.25,-102.62 191.45,-105.28 200.33,-108.02 208.69,-110.52"/>
<polygon fill="#63b8ff" stroke="#63b8ff" points="114.21,-75.25 103.61,-75.17 111.85,-81.84 114.21,-75.25"/>
</a>
</g>
</g>
<!-- Node2 -->
<g id="Node000002" class="node">
<title>Node2</title>
<g id="a_Node000002"><a xlink:href="structDGtal_1_1CustomFillColor.html" target="_top" xlink:title="Custom style class redefining the fill color. You may use Board2D::Color::None for transparent color.">
<polygon fill="white" stroke="#666666" points="303.5,-93.25 185.5,-93.25 185.5,-74 303.5,-74 303.5,-93.25"/>
<text text-anchor="middle" x="244.5" y="-79.75" font-family="FreeSans" font-size="10.00">DGtal::CustomFillColor</text>
</a>
</g>
</g>
<!-- Node0&#45;&gt;Node2 -->
<g id="edge262_Node000000_Node000002" class="edge">
<title>Node0&#45;&gt;Node2</title>
<g id="a_edge262_Node000000_Node000002"><a xlink:title=" ">
<path fill="none" stroke="#63b8ff" d="M158.89,-74.11C167.73,-75.1 176.58,-76.1 185.05,-77.05"/>
<polygon fill="#63b8ff" stroke="#63b8ff" points="159.55,-70.66 149.22,-73.02 158.76,-77.61 159.55,-70.66"/>
</a>
</g>
</g>
<!-- Node3 -->
<g id="Node000003" class="node">
<title>Node3</title>
<g id="a_Node000003"><a xlink:href="structDGtal_1_1CustomPen.html" target="_top" xlink:title="Custom style class redefining the pen attributes. You may use Board2D::Color::None for transparent co...">
<polygon fill="white" stroke="#666666" points="294.12,-56.25 194.88,-56.25 194.88,-37 294.12,-37 294.12,-56.25"/>
<text text-anchor="middle" x="244.5" y="-42.75" font-family="FreeSans" font-size="10.00">DGtal::CustomPen</text>
</a>
</g>
</g>
<!-- Node0&#45;&gt;Node3 -->
<g id="edge263_Node000000_Node000003" class="edge">
<title>Node0&#45;&gt;Node3</title>
<g id="a_edge263_Node000000_Node000003"><a xlink:title=" ">
<path fill="none" stroke="#63b8ff" d="M158.93,-55.64C171.18,-54.33 183.43,-53.03 194.65,-51.83"/>
<polygon fill="#63b8ff" stroke="#63b8ff" points="158.79,-52.13 149.22,-56.67 159.53,-59.09 158.79,-52.13"/>
</a>
</g>
</g>
<!-- Node4 -->
<g id="Node000004" class="node">
<title>Node4</title>
<g id="a_Node000004"><a xlink:href="structDGtal_1_1CustomPenColor.html" target="_top" xlink:title="Custom style class redefining the pen color. You may use Board2D::Color::None for transparent color.">
<polygon fill="white" stroke="#666666" points="305.75,-19.25 183.25,-19.25 183.25,0 305.75,0 305.75,-19.25"/>
<text text-anchor="middle" x="244.5" y="-5.75" font-family="FreeSans" font-size="10.00">DGtal::CustomPenColor</text>
</a>
</g>
</g>
<!-- Node0&#45;&gt;Node4 -->
<g id="edge264_Node000000_Node000004" class="edge">
<title>Node0&#45;&gt;Node4</title>
<g id="a_edge264_Node000000_Node000004"><a xlink:title=" ">
<path fill="none" stroke="#63b8ff" d="M113.98,-50.82C134.55,-43.7 160.19,-34.99 183.25,-27.62 191.57,-24.97 200.57,-22.21 209.02,-19.68"/>
<polygon fill="#63b8ff" stroke="#63b8ff" points="112.84,-47.51 104.55,-54.09 115.14,-54.12 112.84,-47.51"/>
</a>
</g>
</g>
</g>
</svg>
