<?xml version="1.0" encoding="UTF-8" standalone="no"?>
<!DOCTYPE svg PUBLIC "-//W3C//DTD SVG 1.1//EN"
 "http://www.w3.org/Graphics/SVG/1.1/DTD/svg11.dtd">
<!-- Generated by graphviz version 12.2.1 (20241206.2353)
 -->
<!-- Title: Graphical Class Hierarchy Pages: 1 -->
<svg width="500pt" height="27pt"
 viewBox="0.00 0.00 500.00 27.25" xmlns="http://www.w3.org/2000/svg" xmlns:xlink="http://www.w3.org/1999/xlink">
<g id="graph0" class="graph" transform="scale(1 1) rotate(0) translate(4 23.25)">
<title>Graphical Class Hierarchy</title>
<!-- Node0 -->
<g id="Node000000" class="node">
<title>Node0</title>
<g id="a_Node000000"><a xlink:href="structDGtal_1_1ForwardCategory.html" target="_top" xlink:title=" ">
<polygon fill="white" stroke="#666666" points="122.5,-19.25 0,-19.25 0,0 122.5,0 122.5,-19.25"/>
<text text-anchor="middle" x="61.25" y="-5.75" font-family="FreeSans" font-size="10.00">DGtal::ForwardCategory</text>
</a>
</g>
</g>
<!-- Node1 -->
<g id="Node000001" class="node">
<title>Node1</title>
<g id="a_Node000001"><a xlink:href="structDGtal_1_1BidirectionalCategory.html" target="_top" xlink:title=" ">
<polygon fill="white" stroke="#666666" points="299,-19.25 158.5,-19.25 158.5,0 299,0 299,-19.25"/>
<text text-anchor="middle" x="228.75" y="-5.75" font-family="FreeSans" font-size="10.00">DGtal::BidirectionalCategory</text>
</a>
</g>
</g>
<!-- Node0&#45;&gt;Node1 -->
<g id="edge292_Node000000_Node000001" class="edge">
<title>Node0&#45;&gt;Node1</title>
<g id="a_edge292_Node000000_Node000001"><a xlink:title=" ">
<path fill="none" stroke="#63b8ff" d="M134.36,-9.62C142.24,-9.62 150.26,-9.62 158.11,-9.62"/>
<polygon fill="#63b8ff" stroke="#63b8ff" points="134.45,-6.13 124.45,-9.63 134.45,-13.13 134.45,-6.13"/>
</a>
</g>
</g>
<!-- Node2 -->
<g id="Node000002" class="node">
<title>Node2</title>
<g id="a_Node000002"><a xlink:href="structDGtal_1_1RandomAccessCategory.html" target="_top" xlink:title=" ">
<polygon fill="white" stroke="#666666" points="492,-19.25 335,-19.25 335,0 492,0 492,-19.25"/>
<text text-anchor="middle" x="413.5" y="-5.75" font-family="FreeSans" font-size="10.00">DGtal::RandomAccessCategory</text>
</a>
</g>
</g>
<!-- Node1&#45;&gt;Node2 -->
<g id="edge293_Node000001_Node000002" class="edge">
<title>Node1&#45;&gt;Node2</title>
<g id="a_edge293_Node000001_Node000002"><a xlink:title=" ">
<path fill="none" stroke="#63b8ff" d="M310.81,-9.62C318.69,-9.62 326.68,-9.62 334.54,-9.62"/>
<polygon fill="#63b8ff" stroke="#63b8ff" points="310.87,-6.13 300.87,-9.63 310.87,-13.13 310.87,-6.13"/>
</a>
</g>
</g>
</g>
</svg>
