<?xml version="1.0" encoding="UTF-8" standalone="no"?>
<!DOCTYPE svg PUBLIC "-//W3C//DTD SVG 1.1//EN"
 "http://www.w3.org/Graphics/SVG/1.1/DTD/svg11.dtd">
<!-- Generated by graphviz version 12.2.1 (20241206.2353)
 -->
<!-- Title: Graphical Class Hierarchy Pages: 1 -->
<svg width="296pt" height="98pt"
 viewBox="0.00 0.00 295.75 98.12" xmlns="http://www.w3.org/2000/svg" xmlns:xlink="http://www.w3.org/1999/xlink">
<g id="graph0" class="graph" transform="scale(1 1) rotate(0) translate(4 94.12)">
<title>Graphical Class Hierarchy</title>
<!-- Node0 -->
<g id="Node000000" class="node">
<title>Node0</title>
<g id="a_Node000000"><a xlink:title=" ">
<polygon fill="#e0e0e0" stroke="#999999" points="113.5,-51.88 0,-51.88 0,-32.62 113.5,-32.62 113.5,-51.88"/>
<text text-anchor="middle" x="56.75" y="-38.38" font-family="FreeSans" font-size="10.00">boost::iterator_adaptor</text>
</a>
</g>
</g>
<!-- Node1 -->
<g id="Node000001" class="node">
<title>Node1</title>
<g id="a_Node000001"><a xlink:href="classDGtal_1_1ConstIteratorAdapter.html" target="_top" xlink:title="This class adapts any iterator so that operator* returns another element than the one pointed to by t...">
<polygon fill="white" stroke="#666666" points="287.75,-90.12 149.5,-90.12 149.5,-48.38 287.75,-48.38 287.75,-90.12"/>
<text text-anchor="start" x="157.5" y="-76.62" font-family="FreeSans" font-size="10.00">DGtal::ConstIteratorAdapter</text>
<text text-anchor="start" x="157.5" y="-65.38" font-family="FreeSans" font-size="10.00">&lt; TIterator, TLightFunctor,</text>
<text text-anchor="middle" x="218.62" y="-54.12" font-family="FreeSans" font-size="10.00"> TReturnType &gt;</text>
</a>
</g>
</g>
<!-- Node0&#45;&gt;Node1 -->
<g id="edge154_Node000000_Node000001" class="edge">
<title>Node0&#45;&gt;Node1</title>
<g id="a_edge154_Node000000_Node000001"><a xlink:title=" ">
<path fill="none" stroke="#63b8ff" d="M124.84,-53.58C132.86,-54.93 141.05,-56.32 149.08,-57.67"/>
<polygon fill="#63b8ff" stroke="#63b8ff" points="125.6,-50.16 115.16,-51.95 124.44,-57.06 125.6,-50.16"/>
</a>
</g>
</g>
<!-- Node2 -->
<g id="Node000002" class="node">
<title>Node2</title>
<g id="a_Node000002"><a xlink:href="classDGtal_1_1ReverseIterator.html" target="_top" xlink:title="This class adapts any bidirectional iterator so that operator++ calls operator&#45;&#45; and vice versa.">
<polygon fill="white" stroke="#666666" points="276.12,-30.5 161.12,-30.5 161.12,0 276.12,0 276.12,-30.5"/>
<text text-anchor="start" x="169.12" y="-17" font-family="FreeSans" font-size="10.00">DGtal::ReverseIterator</text>
<text text-anchor="middle" x="218.62" y="-5.75" font-family="FreeSans" font-size="10.00">&lt; Iterator &gt;</text>
</a>
</g>
</g>
<!-- Node0&#45;&gt;Node2 -->
<g id="edge155_Node000000_Node000002" class="edge">
<title>Node0&#45;&gt;Node2</title>
<g id="a_edge155_Node000000_Node000002"><a xlink:title=" ">
<path fill="none" stroke="#63b8ff" d="M124.91,-30.91C136.8,-28.9 149.08,-26.83 160.66,-24.87"/>
<polygon fill="#63b8ff" stroke="#63b8ff" points="124.44,-27.44 115.16,-32.55 125.6,-34.34 124.44,-27.44"/>
</a>
</g>
</g>
</g>
</svg>
