<?xml version="1.0" encoding="UTF-8" standalone="no"?>
<!DOCTYPE svg PUBLIC "-//W3C//DTD SVG 1.1//EN"
 "http://www.w3.org/Graphics/SVG/1.1/DTD/svg11.dtd">
<!-- Generated by graphviz version 12.2.1 (20241206.2353)
 -->
<!-- Title: LibBoard::ShapeList Pages: 1 -->
<svg width="198pt" height="193pt"
 viewBox="0.00 0.00 198.12 193.00" xmlns="http://www.w3.org/2000/svg" xmlns:xlink="http://www.w3.org/1999/xlink">

<svg id="main" version="1.1" xmlns="http://www.w3.org/2000/svg" xmlns:xlink="http://www.w3.org/1999/xlink" xml:space="preserve">

<style type="text/css"><![CDATA[
.node, .edge {opacity: 0.7;}
.node.selected, .edge.selected {opacity: 1;}
.edge:hover path { stroke: red; }
.edge:hover polygon { stroke: red; fill: red; }
]]></style>
<script type="application/ecmascript" xlink:href="svg.min.js"/>
<svg id="graph" class="graph">
<g id="graph0" class="graph" transform="scale(1 1) rotate(0) translate(4 189)">
<title>LibBoard::ShapeList</title>
<!-- Node1 -->
<g id="Node000001" class="node">
<title>Node1</title>
<g id="a_Node000001"><a xlink:title="A group of shapes.">
<polygon fill="#999999" stroke="#666666" points="146.75,-129.75 43,-129.75 43,-110.5 146.75,-110.5 146.75,-129.75"/>
<text text-anchor="middle" x="94.88" y="-116.25" font-family="FreeSans" font-size="10.00">LibBoard::ShapeList</text>
</a>
</g>
</g>
<!-- Node3 -->
<g id="Node000003" class="node">
<title>Node3</title>
<g id="a_Node000003"><a xlink:href="classLibBoard_1_1Board.html" target="_top" xlink:title="Class for EPS, FIG or SVG drawings.">
<polygon fill="white" stroke="#666666" points="85.75,-74.5 0,-74.5 0,-55.25 85.75,-55.25 85.75,-74.5"/>
<text text-anchor="middle" x="42.88" y="-61" font-family="FreeSans" font-size="10.00">LibBoard::Board</text>
</a>
</g>
</g>
<!-- Node1&#45;&gt;Node3 -->
<g id="edge2_Node000001_Node000003" class="edge">
<title>Node1&#45;&gt;Node3</title>
<g id="a_edge2_Node000001_Node000003"><a xlink:title=" ">
<path fill="none" stroke="#63b8ff" d="M78.47,-102.32C69.58,-93.23 58.96,-82.35 51.65,-74.86"/>
<polygon fill="#63b8ff" stroke="#63b8ff" points="75.74,-104.54 85.23,-109.25 80.75,-99.65 75.74,-104.54"/>
</a>
</g>
</g>
<!-- Node5 -->
<g id="Node000005" class="node">
<title>Node5</title>
<g id="a_Node000005"><a xlink:href="structLibBoard_1_1Group.html" target="_top" xlink:title="A group of shapes. A group is basically a ShapeList except that when rendered in either an SVG of a F...">
<polygon fill="white" stroke="#666666" points="190.12,-74.5 103.62,-74.5 103.62,-55.25 190.12,-55.25 190.12,-74.5"/>
<text text-anchor="middle" x="146.88" y="-61" font-family="FreeSans" font-size="10.00">LibBoard::Group</text>
</a>
</g>
</g>
<!-- Node1&#45;&gt;Node5 -->
<g id="edge4_Node000001_Node000005" class="edge">
<title>Node1&#45;&gt;Node5</title>
<g id="a_edge4_Node000001_Node000005"><a xlink:title=" ">
<path fill="none" stroke="#63b8ff" d="M111.28,-102.32C120.17,-93.23 130.79,-82.35 138.1,-74.86"/>
<polygon fill="#63b8ff" stroke="#63b8ff" points="109,-99.65 104.52,-109.25 114.01,-104.54 109,-99.65"/>
</a>
</g>
</g>
<!-- Node2 -->
<g id="Node000002" class="node">
<title>Node2</title>
<g id="a_Node000002"><a xlink:href="structLibBoard_1_1Shape.html" target="_top" xlink:title="Abstract structure for a 2D shape.">
<polygon fill="white" stroke="#666666" points="138.88,-185 50.88,-185 50.88,-165.75 138.88,-165.75 138.88,-185"/>
<text text-anchor="middle" x="94.88" y="-171.5" font-family="FreeSans" font-size="10.00">LibBoard::Shape</text>
</a>
</g>
</g>
<!-- Node2&#45;&gt;Node1 -->
<g id="edge1_Node000001_Node000002" class="edge">
<title>Node2&#45;&gt;Node1</title>
<g id="a_edge1_Node000001_Node000002"><a xlink:title=" ">
<path fill="none" stroke="#63b8ff" d="M94.88,-154.13C94.88,-145.84 94.88,-136.67 94.88,-130.11"/>
<polygon fill="#63b8ff" stroke="#63b8ff" points="91.38,-154.07 94.88,-164.07 98.38,-154.07 91.38,-154.07"/>
</a>
</g>
</g>
<!-- Node4 -->
<g id="Node000004" class="node">
<title>Node4</title>
<g id="a_Node000004"><a xlink:href="classDGtal_1_1Board2D.html" target="_top" xlink:title="Aim: This class specializes a &#39;Board&#39; class so as to display DGtal objects more naturally (with &lt;&lt;)....">
<polygon fill="white" stroke="#666666" points="85.75,-19.25 0,-19.25 0,0 85.75,0 85.75,-19.25"/>
<text text-anchor="middle" x="42.88" y="-5.75" font-family="FreeSans" font-size="10.00">DGtal::Board2D</text>
</a>
</g>
</g>
<!-- Node3&#45;&gt;Node4 -->
<g id="edge3_Node000003_Node000004" class="edge">
<title>Node3&#45;&gt;Node4</title>
<g id="a_edge3_Node000003_Node000004"><a xlink:title=" ">
<path fill="none" stroke="#63b8ff" d="M42.88,-43.63C42.88,-35.34 42.88,-26.17 42.88,-19.61"/>
<polygon fill="#63b8ff" stroke="#63b8ff" points="39.38,-43.57 42.88,-53.57 46.38,-43.57 39.38,-43.57"/>
</a>
</g>
</g>
</g>
</svg>
</svg>

<style type='text/css'>
<![CDATA[
[data-mouse-over-selected='false'] { opacity: 0.7; }
[data-mouse-over-selected='true']  { opacity: 1.0; }
]]>
</style>
<script type="application/ecmascript"><![CDATA[
document.addEventListener('DOMContentLoaded', (event) => {
  highlightEdges();
  highlightAdjacentNodes();
});
]]></script>
</svg>
