<?xml version="1.0" encoding="UTF-8" standalone="no"?>
<!DOCTYPE svg PUBLIC "-//W3C//DTD SVG 1.1//EN"
 "http://www.w3.org/Graphics/SVG/1.1/DTD/svg11.dtd">
<!-- Generated by graphviz version 12.2.1 (20241206.2353)
 -->
<!-- Title: DGtal::concepts::CPointFunctor&lt; T &gt; Pages: 1 -->
<!--zoomable 109 -->

<svg id="main" version="1.1" xmlns="http://www.w3.org/2000/svg" xmlns:xlink="http://www.w3.org/1999/xlink" xml:space="preserve" onload="init(evt)">

<style type="text/css"><![CDATA[
.node, .edge {opacity: 0.7;}
.node.selected, .edge.selected {opacity: 1;}
.edge:hover path { stroke: red; }
.edge:hover polygon { stroke: red; fill: red; }
]]></style>

<defs>
  <circle id="rim" cx="0" cy="0" r="7"/>
  <circle id="rim2" cx="0" cy="0" r="3.5"/>
  <g id="zoomPlus">
    <use xlink:href="#rim" fill="#404040"><set attributeName="fill" to="#808080" begin="zoomplus.mouseover" end="zoomplus.mouseout"/></use>
    <path d="M-4,0h8M0,-4v8" fill="none" stroke="white" stroke-width="1.5" pointer-events="none"/>
  </g>
  <g id="zoomMin">
    <use xlink:href="#rim" fill="#404040"><set attributeName="fill" to="#808080" begin="zoomminus.mouseover" end="zoomminus.mouseout"/></use>
    <path d="M-4,0h8" fill="none" stroke="white" stroke-width="1.5" pointer-events="none"/>
  </g>
  <g id="arrowUp" transform="translate(30 24)">
    <use xlink:href="#rim"/>
    <path pointer-events="none" fill="none" stroke="white" stroke-width="1.5" d="M0,-3.0v7 M-2.5,-0.5L0,-3.0L2.5,-0.5"/>
  </g>
  <g id="arrowRight" transform="rotate(90) translate(36 -43)">
    <use xlink:href="#rim"/>
    <path pointer-events="none" fill="none" stroke="white" stroke-width="1.5" d="M0,-3.0v7 M-2.5,-0.5L0,-3.0L2.5,-0.5"/>
  </g>
  <g id="arrowDown" transform="rotate(180) translate(-30 -48)">
    <use xlink:href="#rim"/>
    <path pointer-events="none" fill="none" stroke="white" stroke-width="1.5" d="M0,-3.0v7 M-2.5,-0.5L0,-3.0L2.5,-0.5"/>
  </g>
  <g id="arrowLeft" transform="rotate(270) translate(-36 17)">
    <use xlink:href="#rim"/>
    <path pointer-events="none" fill="none" stroke="white" stroke-width="1.5" d="M0,-3.0v7 M-2.5,-0.5L0,-3.0L2.5,-0.5"/>
  </g>
  <g id="resetDef">
    <use xlink:href="#rim2" fill="#404040"><set attributeName="fill" to="#808080" begin="reset.mouseover" end="reset.mouseout"/></use>
  </g>
</defs>
<script type="application/ecmascript">
var viewWidth = 1844;
var viewHeight = 109;
var sectionId = 'dynsection-0';
</script>
<script type="application/ecmascript" xlink:href="svg.min.js"/>
<svg id="graph" class="graph">
<g id="viewport">
<title>DGtal::concepts::CPointFunctor&lt; T &gt;</title>
<!-- Node1 -->
<g id="Node000001" class="node">
<title>Node1</title>
<g id="a_Node000001"><a xlink:title="Aim: Defines a functor on points.">
<polygon fill="#999999" stroke="#666666" points="1015.75,-70.88 835.5,-70.88 835.5,-51.62 1015.75,-51.62 1015.75,-70.88"/>
<text text-anchor="middle" x="925.62" y="-57.38" font-family="FreeSans" font-size="10.00">DGtal::concepts::CPointFunctor&lt; T &gt;</text>
</a>
</g>
</g>
<!-- Node7 -->
<g id="Node000007" class="node">
<title>Node7</title>
<g id="a_Node000007"><a xlink:href="structDGtal_1_1concepts_1_1COrientationFunctor.html" target="_top" xlink:title="Aim: This concept gathers models implementing an orientation test of &#160;points in a space of dimension ...">
<polygon fill="white" stroke="#666666" points="1238.38,-99.5 1090.38,-99.5 1090.38,-69 1238.38,-69 1238.38,-99.5"/>
<text text-anchor="start" x="1098.38" y="-86" font-family="FreeSans" font-size="10.00">DGtal::concepts::COrientation</text>
<text text-anchor="middle" x="1164.38" y="-74.75" font-family="FreeSans" font-size="10.00">Functor&lt; T &gt;</text>
</a>
</g>
</g>
<!-- Node1&#45;&gt;Node7 -->
<g id="edge6_Node000001_Node000007" class="edge">
<title>Node1&#45;&gt;Node7</title>
<g id="a_edge6_Node000001_Node000007"><a xlink:title=" ">
<path fill="none" stroke="#63b8ff" d="M1027.37,-71.04C1048.37,-73.08 1070.14,-75.19 1089.93,-77.11"/>
<polygon fill="#63b8ff" stroke="#63b8ff" points="1027.93,-67.58 1017.64,-70.09 1027.25,-74.54 1027.93,-67.58"/>
</a>
</g>
</g>
<!-- Node9 -->
<g id="Node000009" class="node">
<title>Node9</title>
<g id="a_Node000009"><a xlink:href="structDGtal_1_1concepts_1_1CPointFunctor.html" target="_top" xlink:title=" ">
<polygon fill="white" stroke="#666666" points="1253,-49.88 1075.75,-49.88 1075.75,-30.62 1253,-30.62 1253,-49.88"/>
<text text-anchor="middle" x="1164.38" y="-36.38" font-family="FreeSans" font-size="10.00">DGtal::concepts::CPointFunctor&lt; I &gt;</text>
</a>
</g>
</g>
<!-- Node1&#45;&gt;Node9 -->
<g id="edge8_Node000001_Node000009" class="edge">
<title>Node1&#45;&gt;Node9</title>
<g id="a_edge8_Node000001_Node000009"><a xlink:title=" ">
<path fill="none" stroke="orange" stroke-dasharray="5,2" d="M1027.59,-52.29C1043.47,-50.89 1059.76,-49.44 1075.31,-48.06"/>
<polygon fill="orange" stroke="orange" points="1027.29,-48.81 1017.64,-53.18 1027.91,-55.78 1027.29,-48.81"/>
</a>
</g>
<text text-anchor="middle" x="1045.75" y="-53.13" font-family="FreeSans" font-size="10.00" fill="grey"> &lt; I &gt;</text>
</g>
<!-- Node2 -->
<g id="Node000002" class="node">
<title>Node2</title>
<g id="a_Node000002"><a xlink:href="structDGtal_1_1concepts_1_1CUnaryFunctor.html" target="_top" xlink:title=" ">
<polygon fill="white" stroke="#666666" points="798.5,-76.5 638.5,-76.5 638.5,-46 798.5,-46 798.5,-76.5"/>
<text text-anchor="start" x="646.5" y="-63" font-family="FreeSans" font-size="10.00">DGtal::concepts::CUnaryFunctor</text>
<text text-anchor="middle" x="718.5" y="-51.75" font-family="FreeSans" font-size="10.00">&lt; T, T::Point, T::Value &gt;</text>
</a>
</g>
</g>
<!-- Node2&#45;&gt;Node1 -->
<g id="edge1_Node000001_Node000002" class="edge">
<title>Node2&#45;&gt;Node1</title>
<g id="a_edge1_Node000001_Node000002"><a xlink:title=" ">
<path fill="none" stroke="#63b8ff" d="M810.12,-61.25C818.48,-61.25 826.95,-61.25 835.3,-61.25"/>
<polygon fill="#63b8ff" stroke="#63b8ff" points="810.32,-57.75 800.32,-61.25 810.32,-64.75 810.32,-57.75"/>
</a>
</g>
</g>
<!-- Node3 -->
<g id="Node000003" class="node">
<title>Node3</title>
<g id="a_Node000003"><a xlink:href="structboost_1_1Assignable.html" target="_top" xlink:title="Go to http://www.sgi.com/tech/stl/Assignable.html.">
<polygon fill="white" stroke="#666666" points="476.5,-91.88 358.5,-91.88 358.5,-72.62 476.5,-72.62 476.5,-91.88"/>
<text text-anchor="middle" x="417.5" y="-78.38" font-family="FreeSans" font-size="10.00">boost::Assignable&lt; T &gt;</text>
</a>
</g>
</g>
<!-- Node3&#45;&gt;Node2 -->
<g id="edge2_Node000002_Node000003" class="edge">
<title>Node3&#45;&gt;Node2</title>
<g id="a_edge2_Node000002_Node000003"><a xlink:title=" ">
<path fill="none" stroke="#63b8ff" d="M488.24,-77.35C533.08,-74.2 591.45,-70.1 638.08,-66.83"/>
<polygon fill="#63b8ff" stroke="#63b8ff" points="488.1,-73.85 478.37,-78.05 488.59,-80.84 488.1,-73.85"/>
</a>
</g>
</g>
<!-- Node4 -->
<g id="Node000004" class="node">
<title>Node4</title>
<g id="a_Node000004"><a xlink:href="structDGtal_1_1concepts_1_1CUnaryFunctor.html" target="_top" xlink:title="Aim: Defines a unary functor, which associates arguments to results.">
<polygon fill="white" stroke="#666666" points="497.5,-54.5 337.5,-54.5 337.5,-24 497.5,-24 497.5,-54.5"/>
<text text-anchor="start" x="345.5" y="-41" font-family="FreeSans" font-size="10.00">DGtal::concepts::CUnaryFunctor</text>
<text text-anchor="middle" x="417.5" y="-29.75" font-family="FreeSans" font-size="10.00">&lt; X, A, R &gt;</text>
</a>
</g>
</g>
<!-- Node4&#45;&gt;Node2 -->
<g id="edge3_Node000002_Node000004" class="edge">
<title>Node4&#45;&gt;Node2</title>
<g id="a_edge3_Node000002_Node000004"><a xlink:title=" ">
<path fill="none" stroke="orange" stroke-dasharray="5,2" d="M508.8,-45.07C543.71,-47.41 583.97,-50.2 620.5,-53 626.23,-53.44 632.15,-53.91 638.1,-54.39"/>
<polygon fill="orange" stroke="orange" points="509.39,-41.6 499.18,-44.43 508.92,-48.59 509.39,-41.6"/>
</a>
</g>
<text text-anchor="middle" x="568" y="-54.75" font-family="FreeSans" font-size="10.00" fill="grey"> &lt; T, T::Point, T::Value &gt;</text>
</g>
<!-- Node5 -->
<g id="Node000005" class="node">
<title>Node5</title>
<g id="a_Node000005"><a xlink:href="structboost_1_1Assignable.html" target="_top" xlink:title=" ">
<polygon fill="white" stroke="#666666" points="300.5,-48.88 181.75,-48.88 181.75,-29.62 300.5,-29.62 300.5,-48.88"/>
<text text-anchor="middle" x="241.12" y="-35.38" font-family="FreeSans" font-size="10.00">boost::Assignable&lt; X &gt;</text>
</a>
</g>
</g>
<!-- Node5&#45;&gt;Node4 -->
<g id="edge4_Node000004_Node000005" class="edge">
<title>Node5&#45;&gt;Node4</title>
<g id="a_edge4_Node000004_Node000005"><a xlink:title=" ">
<path fill="none" stroke="#63b8ff" d="M312.1,-39.25C320.3,-39.25 328.72,-39.25 337.04,-39.25"/>
<polygon fill="#63b8ff" stroke="#63b8ff" points="312.19,-35.75 302.19,-39.25 312.19,-42.75 312.19,-35.75"/>
</a>
</g>
</g>
<!-- Node6 -->
<g id="Node000006" class="node">
<title>Node6</title>
<g id="a_Node000006"><a xlink:href="structboost_1_1Assignable.html" target="_top" xlink:title="Go to http://www.sgi.com/tech/stl/Assignable.html.">
<polygon fill="white" stroke="#666666" points="118,-48.88 0,-48.88 0,-29.62 118,-29.62 118,-48.88"/>
<text text-anchor="middle" x="59" y="-35.38" font-family="FreeSans" font-size="10.00">boost::Assignable&lt; T &gt;</text>
</a>
</g>
</g>
<!-- Node6&#45;&gt;Node5 -->
<g id="edge5_Node000005_Node000006" class="edge">
<title>Node6&#45;&gt;Node5</title>
<g id="a_edge5_Node000005_Node000006"><a xlink:title=" ">
<path fill="none" stroke="orange" stroke-dasharray="5,2" d="M129.54,-39.25C146.64,-39.25 164.78,-39.25 181.32,-39.25"/>
<polygon fill="orange" stroke="orange" points="130,-35.75 119.99,-39.25 129.99,-42.75 130,-35.75"/>
</a>
</g>
<text text-anchor="middle" x="149.88" y="-41" font-family="FreeSans" font-size="10.00" fill="grey"> &lt; X &gt;</text>
</g>
<!-- Node8 -->
<g id="Node000008" class="node">
<title>Node8</title>
<g id="a_Node000008"><a xlink:href="structDGtal_1_1concepts_1_1COrientationFunctor2.html" target="_top" xlink:title="Aim: This concept is a refinement of COrientationFunctor, useful for simple algebraic curves that can...">
<polygon fill="white" stroke="#666666" points="1438,-100.5 1290,-100.5 1290,-70 1438,-70 1438,-100.5"/>
<text text-anchor="start" x="1298" y="-87" font-family="FreeSans" font-size="10.00">DGtal::concepts::COrientation</text>
<text text-anchor="middle" x="1364" y="-75.75" font-family="FreeSans" font-size="10.00">Functor2&lt; T &gt;</text>
</a>
</g>
</g>
<!-- Node7&#45;&gt;Node8 -->
<g id="edge7_Node000007_Node000008" class="edge">
<title>Node7&#45;&gt;Node8</title>
<g id="a_edge7_Node000007_Node000008"><a xlink:title=" ">
<path fill="none" stroke="#63b8ff" d="M1250.17,-84.68C1263.36,-84.75 1276.9,-84.81 1289.81,-84.88"/>
<polygon fill="#63b8ff" stroke="#63b8ff" points="1250.21,-81.18 1240.2,-84.63 1250.18,-88.18 1250.21,-81.18"/>
</a>
</g>
</g>
<!-- Node10 -->
<g id="Node000010" class="node">
<title>Node10</title>
<g id="a_Node000010"><a xlink:href="structDGtal_1_1concepts_1_1CTrivialConstImage.html" target="_top" xlink:title="Aim: Defines the concept describing a read&#45;only image, which is a refinement of CPointFunctor.">
<polygon fill="white" stroke="#666666" points="1427.5,-51.5 1300.5,-51.5 1300.5,-21 1427.5,-21 1427.5,-51.5"/>
<text text-anchor="start" x="1308.5" y="-38" font-family="FreeSans" font-size="10.00">DGtal::concepts::CTrivial</text>
<text text-anchor="middle" x="1364" y="-26.75" font-family="FreeSans" font-size="10.00">ConstImage&lt; I &gt;</text>
</a>
</g>
</g>
<!-- Node9&#45;&gt;Node10 -->
<g id="edge9_Node000009_Node000010" class="edge">
<title>Node9&#45;&gt;Node10</title>
<g id="a_edge9_Node000009_Node000010"><a xlink:title=" ">
<path fill="none" stroke="#63b8ff" d="M1264.98,-38.23C1276.98,-37.99 1288.96,-37.75 1300.21,-37.52"/>
<polygon fill="#63b8ff" stroke="#63b8ff" points="1264.94,-34.73 1255.01,-38.44 1265.08,-41.73 1264.94,-34.73"/>
</a>
</g>
</g>
<!-- Node11 -->
<g id="Node000011" class="node">
<title>Node11</title>
<g id="a_Node000011"><a xlink:href="structDGtal_1_1concepts_1_1CConstImage.html" target="_top" xlink:title="Aim: Defines the concept describing a read&#45;only image, which is a refinement of CPointFunctor.">
<polygon fill="white" stroke="#666666" points="1650,-67.88 1475,-67.88 1475,-48.62 1650,-48.62 1650,-67.88"/>
<text text-anchor="middle" x="1562.5" y="-54.38" font-family="FreeSans" font-size="10.00">DGtal::concepts::CConstImage&lt; I &gt;</text>
</a>
</g>
</g>
<!-- Node10&#45;&gt;Node11 -->
<g id="edge10_Node000010_Node000011" class="edge">
<title>Node10&#45;&gt;Node11</title>
<g id="a_edge10_Node000010_Node000011"><a xlink:title=" ">
<path fill="none" stroke="#63b8ff" d="M1439.3,-44.57C1450.8,-45.86 1462.77,-47.2 1474.52,-48.51"/>
<polygon fill="#63b8ff" stroke="#63b8ff" points="1439.82,-41.1 1429.49,-43.47 1439.04,-48.06 1439.82,-41.1"/>
</a>
</g>
</g>
<!-- Node13 -->
<g id="Node000013" class="node">
<title>Node13</title>
<g id="a_Node000013"><a xlink:href="structDGtal_1_1concepts_1_1CTrivialImage.html" target="_top" xlink:title="Aim: Defines the concept describing an image without extra ranges, which is a refinement of CTrivialC...">
<polygon fill="white" stroke="#666666" points="1626,-30.5 1499,-30.5 1499,0 1626,0 1626,-30.5"/>
<text text-anchor="start" x="1507" y="-17" font-family="FreeSans" font-size="10.00">DGtal::concepts::CTrivial</text>
<text text-anchor="middle" x="1562.5" y="-5.75" font-family="FreeSans" font-size="10.00">Image&lt; I &gt;</text>
</a>
</g>
</g>
<!-- Node10&#45;&gt;Node13 -->
<g id="edge12_Node000010_Node000013" class="edge">
<title>Node10&#45;&gt;Node13</title>
<g id="a_edge12_Node000010_Node000013"><a xlink:title=" ">
<path fill="none" stroke="#63b8ff" d="M1439.3,-28.31C1458.81,-26.22 1479.67,-23.99 1498.53,-21.98"/>
<polygon fill="#63b8ff" stroke="#63b8ff" points="1439.06,-24.82 1429.49,-29.36 1439.8,-31.78 1439.06,-24.82"/>
</a>
</g>
</g>
<!-- Node12 -->
<g id="Node000012" class="node">
<title>Node12</title>
<g id="a_Node000012"><a xlink:href="structDGtal_1_1concepts_1_1CImage.html" target="_top" xlink:title="Aim: Defines the concept describing a read/write image, having an output iterator.">
<polygon fill="white" stroke="#666666" points="1835.75,-45.88 1687,-45.88 1687,-26.62 1835.75,-26.62 1835.75,-45.88"/>
<text text-anchor="middle" x="1761.38" y="-32.38" font-family="FreeSans" font-size="10.00">DGtal::concepts::CImage&lt; I &gt;</text>
</a>
</g>
</g>
<!-- Node11&#45;&gt;Node12 -->
<g id="edge11_Node000011_Node000012" class="edge">
<title>Node11&#45;&gt;Node12</title>
<g id="a_edge11_Node000011_Node000012"><a xlink:title=" ">
<path fill="none" stroke="#63b8ff" d="M1661.77,-47.27C1670.11,-46.34 1678.44,-45.41 1686.55,-44.5"/>
<polygon fill="#63b8ff" stroke="#63b8ff" points="1661.48,-43.78 1651.93,-48.37 1662.26,-50.74 1661.48,-43.78"/>
</a>
</g>
</g>
<!-- Node13&#45;&gt;Node12 -->
<g id="edge13_Node000013_Node000012" class="edge">
<title>Node13&#45;&gt;Node12</title>
<g id="a_edge13_Node000013_Node000012"><a xlink:title=" ">
<path fill="none" stroke="#63b8ff" d="M1637.36,-23.13C1653.53,-24.85 1670.65,-26.68 1686.81,-28.4"/>
<polygon fill="#63b8ff" stroke="#63b8ff" points="1638.15,-19.69 1627.84,-22.11 1637.41,-26.65 1638.15,-19.69"/>
</a>
</g>
</g>
</g>
</svg>

<g id="navigator" transform="translate(0 0)" fill="#404254">
  <rect fill="#f2f5e9" fill-opacity="0.5" stroke="#606060" stroke-width=".5" x="0" y="0" width="60" height="60"/>
  <use id="zoomplus" xlink:href="#zoomPlus" x="17" y="9" onmousedown="handleZoom(evt,'in')"/>
  <use id="zoomminus" xlink:href="#zoomMin" x="42" y="9" onmousedown="handleZoom(evt,'out')"/>
  <use id="reset" xlink:href="#resetDef" x="30" y="36" onmousedown="handleReset()"/>
   <use id="arrowup" xlink:href="#arrowUp" x="0" y="0" onmousedown="handlePan(0,-1)"/>
  <use id="arrowright" xlink:href="#arrowRight" x="0" y="0" onmousedown="handlePan(1,0)"/>
  <use id="arrowdown" xlink:href="#arrowDown" x="0" y="0" onmousedown="handlePan(0,1)"/>
  <use id="arrowleft" xlink:href="#arrowLeft" x="0" y="0" onmousedown="handlePan(-1,0)"/>
</g>
<svg viewBox="0 0 15 15" width="100%" height="30px" preserveAspectRatio="xMaxYMin meet">
 <g id="arrow_out" transform="scale(0.3 0.3)">
  <a xlink:href="structDGtal_1_1concepts_1_1CPointFunctor__inherit__graph_org.svg" target="_base">
   <rect id="button" ry="5" rx="5" y="6" x="6" height="38" width="38"
        fill="#f2f5e9" fill-opacity="0.5" stroke="#606060" stroke-width="1.0"/>
   <path id="arrow"
     d="M 11.500037,31.436501 C 11.940474,20.09759 22.043105,11.32322 32.158766,21.979434 L 37.068811,17.246167 C 37.068811,17.246167 37.088388,32 37.088388,32 L 22.160133,31.978069 C 22.160133,31.978069 26.997745,27.140456 26.997745,27.140456 C 18.528582,18.264221 13.291696,25.230495 11.500037,31.436501 z"
     style="fill:#404040;"/>
  </a>
 </g>
</svg>

<style type='text/css'>
<![CDATA[
[data-mouse-over-selected='false'] { opacity: 0.7; }
[data-mouse-over-selected='true']  { opacity: 1.0; }
]]>
</style>
<script type="application/ecmascript"><![CDATA[
document.addEventListener('DOMContentLoaded', (event) => {
  highlightEdges();
  highlightAdjacentNodes();
});
]]></script>
</svg>
