<?xml version="1.0" encoding="UTF-8" standalone="no"?>
<!DOCTYPE svg PUBLIC "-//W3C//DTD SVG 1.1//EN"
 "http://www.w3.org/Graphics/SVG/1.1/DTD/svg11.dtd">
<!-- Generated by graphviz version 12.2.1 (20241206.2353)
 -->
<!-- Title: DGtal::UnorderedMultisetAssociativeCategory Pages: 1 -->
<svg width="654pt" height="137pt"
 viewBox="0.00 0.00 654.00 136.50" xmlns="http://www.w3.org/2000/svg" xmlns:xlink="http://www.w3.org/1999/xlink">
<g id="graph0" class="graph" transform="scale(1 1) rotate(0) translate(4 132.5)">
<title>DGtal::UnorderedMultisetAssociativeCategory</title>
<!-- Node1 -->
<g id="Node000001" class="node">
<title>Node1</title>
<g id="a_Node000001"><a xlink:title=" ">
<polygon fill="#999999" stroke="#666666" points="646,-79.5 519,-79.5 519,-49 646,-49 646,-79.5"/>
<text text-anchor="start" x="527" y="-66" font-family="FreeSans" font-size="10.00">DGtal::UnorderedMultiset</text>
<text text-anchor="middle" x="582.5" y="-54.75" font-family="FreeSans" font-size="10.00">AssociativeCategory</text>
</a>
</g>
</g>
<!-- Node2 -->
<g id="Node000002" class="node">
<title>Node2</title>
<g id="a_Node000002"><a xlink:href="structDGtal_1_1UnorderedAssociativeCategory.html" target="_top" xlink:title=" ">
<polygon fill="white" stroke="#666666" points="483,-128.5 339.5,-128.5 339.5,-98 483,-98 483,-128.5"/>
<text text-anchor="start" x="347.5" y="-115" font-family="FreeSans" font-size="10.00">DGtal::UnorderedAssociative</text>
<text text-anchor="middle" x="411.25" y="-103.75" font-family="FreeSans" font-size="10.00">Category</text>
</a>
</g>
</g>
<!-- Node2&#45;&gt;Node1 -->
<g id="edge1_Node000001_Node000002" class="edge">
<title>Node2&#45;&gt;Node1</title>
<g id="a_edge1_Node000001_Node000002"><a xlink:title=" ">
<path fill="none" stroke="#63b8ff" d="M476.96,-94.52C493.52,-89.72 511.15,-84.62 527.13,-79.99"/>
<polygon fill="#63b8ff" stroke="#63b8ff" points="476.35,-91.05 467.72,-97.19 478.3,-97.77 476.35,-91.05"/>
</a>
</g>
</g>
<!-- Node3 -->
<g id="Node000003" class="node">
<title>Node3</title>
<g id="a_Node000003"><a xlink:href="structDGtal_1_1AssociativeCategory.html" target="_top" xlink:title=" ">
<polygon fill="white" stroke="#666666" points="303.5,-73.88 165.25,-73.88 165.25,-54.62 303.5,-54.62 303.5,-73.88"/>
<text text-anchor="middle" x="234.38" y="-60.38" font-family="FreeSans" font-size="10.00">DGtal::AssociativeCategory</text>
</a>
</g>
</g>
<!-- Node3&#45;&gt;Node2 -->
<g id="edge2_Node000002_Node000003" class="edge">
<title>Node3&#45;&gt;Node2</title>
<g id="a_edge2_Node000002_Node000003"><a xlink:title=" ">
<path fill="none" stroke="#63b8ff" d="M282,-77.32C304.19,-83.53 330.89,-91.01 354.17,-97.54"/>
<polygon fill="#63b8ff" stroke="#63b8ff" points="283.22,-74.02 272.64,-74.69 281.33,-80.76 283.22,-74.02"/>
</a>
</g>
</g>
<!-- Node5 -->
<g id="Node000005" class="node">
<title>Node5</title>
<g id="a_Node000005"><a xlink:href="structDGtal_1_1SimpleAssociativeCategory.html" target="_top" xlink:title=" ">
<polygon fill="white" stroke="#666666" points="475.5,-79.5 347,-79.5 347,-49 475.5,-49 475.5,-79.5"/>
<text text-anchor="start" x="355" y="-66" font-family="FreeSans" font-size="10.00">DGtal::SimpleAssociative</text>
<text text-anchor="middle" x="411.25" y="-54.75" font-family="FreeSans" font-size="10.00">Category</text>
</a>
</g>
</g>
<!-- Node3&#45;&gt;Node5 -->
<g id="edge5_Node000005_Node000003" class="edge">
<title>Node3&#45;&gt;Node5</title>
<g id="a_edge5_Node000005_Node000003"><a xlink:title=" ">
<path fill="none" stroke="#63b8ff" d="M315.31,-64.25C325.83,-64.25 336.49,-64.25 346.68,-64.25"/>
<polygon fill="#63b8ff" stroke="#63b8ff" points="315.5,-60.75 305.5,-64.25 315.5,-67.75 315.5,-60.75"/>
</a>
</g>
</g>
<!-- Node6 -->
<g id="Node000006" class="node">
<title>Node6</title>
<g id="a_Node000006"><a xlink:href="structDGtal_1_1MultipleAssociativeCategory.html" target="_top" xlink:title=" ">
<polygon fill="white" stroke="#666666" points="477.38,-30.5 345.12,-30.5 345.12,0 477.38,0 477.38,-30.5"/>
<text text-anchor="start" x="353.12" y="-17" font-family="FreeSans" font-size="10.00">DGtal::MultipleAssociative</text>
<text text-anchor="middle" x="411.25" y="-5.75" font-family="FreeSans" font-size="10.00">Category</text>
</a>
</g>
</g>
<!-- Node3&#45;&gt;Node6 -->
<g id="edge7_Node000006_Node000003" class="edge">
<title>Node3&#45;&gt;Node6</title>
<g id="a_edge7_Node000006_Node000003"><a xlink:title=" ">
<path fill="none" stroke="#63b8ff" d="M282,-51.18C304.19,-44.97 330.89,-37.49 354.17,-30.96"/>
<polygon fill="#63b8ff" stroke="#63b8ff" points="281.33,-47.74 272.64,-53.81 283.22,-54.48 281.33,-47.74"/>
</a>
</g>
</g>
<!-- Node4 -->
<g id="Node000004" class="node">
<title>Node4</title>
<g id="a_Node000004"><a xlink:href="structDGtal_1_1ContainerCategory.html" target="_top" xlink:title=" ">
<polygon fill="white" stroke="#666666" points="129.25,-73.88 0,-73.88 0,-54.62 129.25,-54.62 129.25,-73.88"/>
<text text-anchor="middle" x="64.62" y="-60.38" font-family="FreeSans" font-size="10.00">DGtal::ContainerCategory</text>
</a>
</g>
</g>
<!-- Node4&#45;&gt;Node3 -->
<g id="edge3_Node000003_Node000004" class="edge">
<title>Node4&#45;&gt;Node3</title>
<g id="a_edge3_Node000003_Node000004"><a xlink:title=" ">
<path fill="none" stroke="#63b8ff" d="M140.78,-64.25C148.81,-64.25 156.96,-64.25 164.91,-64.25"/>
<polygon fill="#63b8ff" stroke="#63b8ff" points="141.04,-60.75 131.04,-64.25 141.04,-67.75 141.04,-60.75"/>
</a>
</g>
</g>
<!-- Node5&#45;&gt;Node1 -->
<g id="edge4_Node000001_Node000005" class="edge">
<title>Node5&#45;&gt;Node1</title>
<g id="a_edge4_Node000001_Node000005"><a xlink:title=" ">
<path fill="none" stroke="#63b8ff" d="M487.11,-64.25C497.68,-64.25 508.46,-64.25 518.77,-64.25"/>
<polygon fill="#63b8ff" stroke="#63b8ff" points="487.27,-60.75 477.27,-64.25 487.27,-67.75 487.27,-60.75"/>
</a>
</g>
</g>
<!-- Node6&#45;&gt;Node1 -->
<g id="edge6_Node000001_Node000006" class="edge">
<title>Node6&#45;&gt;Node1</title>
<g id="a_edge6_Node000001_Node000006"><a xlink:title=" ">
<path fill="none" stroke="#63b8ff" d="M476.96,-33.98C493.52,-38.78 511.15,-43.88 527.13,-48.51"/>
<polygon fill="#63b8ff" stroke="#63b8ff" points="478.3,-30.73 467.72,-31.31 476.35,-37.45 478.3,-30.73"/>
</a>
</g>
</g>
</g>
</svg>
