<?xml version="1.0" encoding="UTF-8" standalone="no"?>
<!DOCTYPE svg PUBLIC "-//W3C//DTD SVG 1.1//EN"
 "http://www.w3.org/Graphics/SVG/1.1/DTD/svg11.dtd">
<!-- Generated by graphviz version 12.2.1 (20241206.2353)
 -->
<!-- Title: DGtal::functors::TruePointPredicate&lt; TPoint &gt; Pages: 1 -->
<svg width="145pt" height="206pt"
 viewBox="0.00 0.00 145.38 206.25" xmlns="http://www.w3.org/2000/svg" xmlns:xlink="http://www.w3.org/1999/xlink">
<g id="graph0" class="graph" transform="scale(1 1) rotate(0) translate(4 202.25)">
<title>DGtal::functors::TruePointPredicate&lt; TPoint &gt;</title>
<!-- Node1 -->
<g id="Node000001" class="node">
<title>Node1</title>
<g id="a_Node000001"><a xlink:title="Aim: The predicate that returns always true.">
<polygon fill="#999999" stroke="#666666" points="130.75,-30.5 0,-30.5 0,0 130.75,0 130.75,-30.5"/>
<text text-anchor="start" x="8" y="-17" font-family="FreeSans" font-size="10.00">DGtal::functors::TruePoint</text>
<text text-anchor="middle" x="65.38" y="-5.75" font-family="FreeSans" font-size="10.00">Predicate&lt; TPoint &gt;</text>
</a>
</g>
</g>
<!-- Node2 -->
<g id="Node000002" class="node">
<title>Node2</title>
<g id="a_Node000002"><a xlink:href="structDGtal_1_1functors_1_1ConstantPointPredicate.html" target="_top" xlink:title=" ">
<polygon fill="white" stroke="#666666" points="129.62,-109.25 1.12,-109.25 1.12,-67.5 129.62,-67.5 129.62,-109.25"/>
<text text-anchor="start" x="9.12" y="-95.75" font-family="FreeSans" font-size="10.00">DGtal::functors::Constant</text>
<text text-anchor="start" x="9.12" y="-84.5" font-family="FreeSans" font-size="10.00">PointPredicate&lt; TPoint,</text>
<text text-anchor="middle" x="65.38" y="-73.25" font-family="FreeSans" font-size="10.00"> true &gt;</text>
</a>
</g>
</g>
<!-- Node2&#45;&gt;Node1 -->
<g id="edge1_Node000001_Node000002" class="edge">
<title>Node2&#45;&gt;Node1</title>
<g id="a_edge1_Node000001_Node000002"><a xlink:title=" ">
<path fill="none" stroke="#63b8ff" d="M65.38,-55.95C65.38,-47.11 65.38,-37.92 65.38,-30.62"/>
<polygon fill="#63b8ff" stroke="#63b8ff" points="61.88,-55.67 65.38,-65.67 68.88,-55.67 61.88,-55.67"/>
</a>
</g>
</g>
<!-- Node3 -->
<g id="Node000003" class="node">
<title>Node3</title>
<g id="a_Node000003"><a xlink:href="structDGtal_1_1functors_1_1ConstantPointPredicate.html" target="_top" xlink:title="Aim: The predicate that returns always the same value boolCst.">
<polygon fill="white" stroke="#666666" points="129.62,-198.25 1.12,-198.25 1.12,-156.5 129.62,-156.5 129.62,-198.25"/>
<text text-anchor="start" x="9.12" y="-184.75" font-family="FreeSans" font-size="10.00">DGtal::functors::Constant</text>
<text text-anchor="start" x="9.12" y="-173.5" font-family="FreeSans" font-size="10.00">PointPredicate&lt; TPoint,</text>
<text text-anchor="middle" x="65.38" y="-162.25" font-family="FreeSans" font-size="10.00"> boolCst &gt;</text>
</a>
</g>
</g>
<!-- Node3&#45;&gt;Node2 -->
<g id="edge2_Node000002_Node000003" class="edge">
<title>Node3&#45;&gt;Node2</title>
<g id="a_edge2_Node000002_Node000003"><a xlink:title=" ">
<path fill="none" stroke="orange" stroke-dasharray="5,2" d="M65.38,-145.02C65.38,-133.27 65.38,-120.24 65.38,-109.75"/>
<polygon fill="orange" stroke="orange" points="61.88,-144.68 65.38,-154.68 68.88,-144.68 61.88,-144.68"/>
</a>
</g>
<text text-anchor="middle" x="101.38" y="-129" font-family="FreeSans" font-size="10.00" fill="grey"> &lt; TPoint, true &gt;</text>
</g>
</g>
</svg>
