<?xml version="1.0" encoding="UTF-8" standalone="no"?>
<!DOCTYPE svg PUBLIC "-//W3C//DTD SVG 1.1//EN"
 "http://www.w3.org/Graphics/SVG/1.1/DTD/svg11.dtd">
<!-- Generated by graphviz version 12.2.1 (20241206.2353)
 -->
<!-- Title: DGtal::functors::VectorRounding&lt; TRealVector, TVector &gt; Pages: 1 -->
<svg width="498pt" height="114pt"
 viewBox="0.00 0.00 498.25 113.76" xmlns="http://www.w3.org/2000/svg" xmlns:xlink="http://www.w3.org/1999/xlink">
<g id="graph0" class="graph" transform="scale(1 1) rotate(0) translate(4 109.76)">
<title>DGtal::functors::VectorRounding&lt; TRealVector, TVector &gt;</title>
<!-- Node1 -->
<g id="Node000001" class="node">
<title>Node1</title>
<g id="a_Node000001"><a xlink:title=" ">
<polygon fill="#999999" stroke="#666666" points="158.5,-66.12 0,-66.12 0,-35.62 158.5,-35.62 158.5,-66.12"/>
<text text-anchor="start" x="8" y="-52.62" font-family="FreeSans" font-size="10.00">DGtal::functors::VectorRounding</text>
<text text-anchor="middle" x="79.25" y="-41.38" font-family="FreeSans" font-size="10.00">&lt; TRealVector, TVector &gt;</text>
</a>
</g>
</g>
<!-- Node2 -->
<g id="Node000002" class="node">
<title>Node2</title>
<g id="a_Node000002"><a xlink:href="structDGtal_1_1functors_1_1VectorRounding.html" target="_top" xlink:title=" ">
<polygon fill="white" stroke="#666666" points="490.25,-101.75 331.75,-101.75 331.75,-60 490.25,-60 490.25,-101.75"/>
<text text-anchor="start" x="339.75" y="-88.25" font-family="FreeSans" font-size="10.00">DGtal::functors::VectorRounding</text>
<text text-anchor="start" x="339.75" y="-77" font-family="FreeSans" font-size="10.00">&lt; typename TSpace::RealPoint,</text>
<text text-anchor="middle" x="411" y="-65.75" font-family="FreeSans" font-size="10.00"> typename TSpace::Point &gt;</text>
</a>
</g>
</g>
<!-- Node1&#45;&gt;Node2 -->
<g id="edge1_Node000001_Node000002" class="edge">
<title>Node1&#45;&gt;Node2</title>
<g id="a_edge1_Node000001_Node000002"><a xlink:title=" ">
<path fill="none" stroke="orange" stroke-dasharray="5,2" d="M170.05,-59.04C220.53,-63.64 282.95,-69.32 331.47,-73.73"/>
<polygon fill="orange" stroke="orange" points="170.6,-55.58 160.32,-58.16 169.96,-62.55 170.6,-55.58"/>
</a>
</g>
<text text-anchor="start" x="196.38" y="-96.26" font-family="FreeSans" font-size="10.00" fill="grey"> &lt; typename TSpace::</text>
<text text-anchor="start" x="196.38" y="-85.01" font-family="FreeSans" font-size="10.00" fill="grey">RealPoint, typename</text>
<text text-anchor="middle" x="245.12" y="-73.76" font-family="FreeSans" font-size="10.00" fill="grey"> TSpace::Point &gt;</text>
</g>
<!-- Node3 -->
<g id="Node000003" class="node">
<title>Node3</title>
<g id="a_Node000003"><a xlink:href="structDGtal_1_1functors_1_1VectorRounding.html" target="_top" xlink:title=" ">
<polygon fill="white" stroke="#666666" points="490.25,-41.75 331.75,-41.75 331.75,0 490.25,0 490.25,-41.75"/>
<text text-anchor="start" x="339.75" y="-28.25" font-family="FreeSans" font-size="10.00">DGtal::functors::VectorRounding</text>
<text text-anchor="start" x="339.75" y="-17" font-family="FreeSans" font-size="10.00">&lt; typename Space::RealPoint,</text>
<text text-anchor="middle" x="411" y="-5.75" font-family="FreeSans" font-size="10.00"> typename Space::Point &gt;</text>
</a>
</g>
</g>
<!-- Node1&#45;&gt;Node3 -->
<g id="edge2_Node000001_Node000003" class="edge">
<title>Node1&#45;&gt;Node3</title>
<g id="a_edge2_Node000001_Node000003"><a xlink:title=" ">
<path fill="none" stroke="orange" stroke-dasharray="5,2" d="M170.26,-34.15C172.36,-33.87 174.44,-33.62 176.5,-33.38 227.91,-27.35 286.03,-24.23 331.42,-22.61"/>
<polygon fill="orange" stroke="orange" points="169.84,-30.67 160.42,-35.53 170.81,-37.6 169.84,-30.67"/>
</a>
</g>
<text text-anchor="start" x="176.5" y="-46.38" font-family="FreeSans" font-size="10.00" fill="grey"> &lt; typename Space::RealPoint,</text>
<text text-anchor="middle" x="245.12" y="-35.12" font-family="FreeSans" font-size="10.00" fill="grey"> typename Space::Point &gt;</text>
</g>
</g>
</svg>
