<?xml version="1.0" encoding="UTF-8" standalone="no"?>
<!DOCTYPE svg PUBLIC "-//W3C//DTD SVG 1.1//EN"
 "http://www.w3.org/Graphics/SVG/1.1/DTD/svg11.dtd">
<!-- Generated by graphviz version 12.2.1 (20241206.2353)
 -->
<!-- Title: DGtal::UniqueAssociativeCategory Pages: 1 -->
<svg width="675pt" height="162pt"
 viewBox="0.00 0.00 675.00 161.88" xmlns="http://www.w3.org/2000/svg" xmlns:xlink="http://www.w3.org/1999/xlink">
<g id="graph0" class="graph" transform="scale(1 1) rotate(0) translate(4 157.88)">
<title>DGtal::UniqueAssociativeCategory</title>
<!-- Node1 -->
<g id="Node000001" class="node">
<title>Node1</title>
<g id="a_Node000001"><a xlink:title=" ">
<polygon fill="#999999" stroke="#666666" points="468.75,-100.5 339.5,-100.5 339.5,-70 468.75,-70 468.75,-100.5"/>
<text text-anchor="start" x="347.5" y="-87" font-family="FreeSans" font-size="10.00">DGtal::UniqueAssociative</text>
<text text-anchor="middle" x="404.12" y="-75.75" font-family="FreeSans" font-size="10.00">Category</text>
</a>
</g>
</g>
<!-- Node4 -->
<g id="Node000004" class="node">
<title>Node4</title>
<g id="a_Node000004"><a xlink:href="structDGtal_1_1MapAssociativeCategory.html" target="_top" xlink:title=" ">
<polygon fill="white" stroke="#666666" points="664.38,-153.88 507.38,-153.88 507.38,-134.62 664.38,-134.62 664.38,-153.88"/>
<text text-anchor="middle" x="585.88" y="-140.38" font-family="FreeSans" font-size="10.00">DGtal::MapAssociativeCategory</text>
</a>
</g>
</g>
<!-- Node1&#45;&gt;Node4 -->
<g id="edge3_Node000001_Node000004" class="edge">
<title>Node1&#45;&gt;Node4</title>
<g id="a_edge3_Node000001_Node000004"><a xlink:title=" ">
<path fill="none" stroke="#63b8ff" d="M449.4,-105.36C466.47,-112.6 486.29,-120.42 504.75,-126.25 514.13,-129.21 524.28,-131.88 534.09,-134.21"/>
<polygon fill="#63b8ff" stroke="#63b8ff" points="451.13,-102.29 440.56,-101.54 448.36,-108.72 451.13,-102.29"/>
</a>
</g>
</g>
<!-- Node5 -->
<g id="Node000005" class="node">
<title>Node5</title>
<g id="a_Node000005"><a xlink:href="structDGtal_1_1SetAssociativeCategory.html" target="_top" xlink:title=" ">
<polygon fill="white" stroke="#666666" points="662.5,-116.88 509.25,-116.88 509.25,-97.62 662.5,-97.62 662.5,-116.88"/>
<text text-anchor="middle" x="585.88" y="-103.38" font-family="FreeSans" font-size="10.00">DGtal::SetAssociativeCategory</text>
</a>
</g>
</g>
<!-- Node1&#45;&gt;Node5 -->
<g id="edge4_Node000001_Node000005" class="edge">
<title>Node1&#45;&gt;Node5</title>
<g id="a_edge4_Node000001_Node000005"><a xlink:title=" ">
<path fill="none" stroke="#63b8ff" d="M480.37,-94.46C489.81,-95.61 499.46,-96.8 508.91,-97.95"/>
<polygon fill="#63b8ff" stroke="#63b8ff" points="480.86,-90.99 470.51,-93.25 480.01,-97.94 480.86,-90.99"/>
</a>
</g>
</g>
<!-- Node6 -->
<g id="Node000006" class="node">
<title>Node6</title>
<g id="a_Node000006"><a xlink:href="structDGtal_1_1UnorderedMapAssociativeCategory.html" target="_top" xlink:title=" ">
<polygon fill="white" stroke="#666666" points="667,-79.5 504.75,-79.5 504.75,-49 667,-49 667,-79.5"/>
<text text-anchor="start" x="512.75" y="-66" font-family="FreeSans" font-size="10.00">DGtal::UnorderedMapAssociative</text>
<text text-anchor="middle" x="585.88" y="-54.75" font-family="FreeSans" font-size="10.00">Category</text>
</a>
</g>
</g>
<!-- Node1&#45;&gt;Node6 -->
<g id="edge5_Node000001_Node000006" class="edge">
<title>Node1&#45;&gt;Node6</title>
<g id="a_edge5_Node000001_Node000006"><a xlink:title=" ">
<path fill="none" stroke="#63b8ff" d="M480.22,-76.48C488.25,-75.54 496.44,-74.58 504.53,-73.64"/>
<polygon fill="#63b8ff" stroke="#63b8ff" points="480.03,-72.97 470.51,-77.61 480.85,-79.93 480.03,-72.97"/>
</a>
</g>
</g>
<!-- Node7 -->
<g id="Node000007" class="node">
<title>Node7</title>
<g id="a_Node000007"><a xlink:href="structDGtal_1_1UnorderedSetAssociativeCategory.html" target="_top" xlink:title=" ">
<polygon fill="white" stroke="#666666" points="665.12,-30.5 506.62,-30.5 506.62,0 665.12,0 665.12,-30.5"/>
<text text-anchor="start" x="514.62" y="-17" font-family="FreeSans" font-size="10.00">DGtal::UnorderedSetAssociative</text>
<text text-anchor="middle" x="585.88" y="-5.75" font-family="FreeSans" font-size="10.00">Category</text>
</a>
</g>
</g>
<!-- Node1&#45;&gt;Node7 -->
<g id="edge6_Node000001_Node000007" class="edge">
<title>Node1&#45;&gt;Node7</title>
<g id="a_edge6_Node000001_Node000007"><a xlink:title=" ">
<path fill="none" stroke="#63b8ff" d="M446.98,-64.98C464.61,-56.8 485.47,-47.58 504.75,-40.25 513.33,-36.99 522.54,-33.82 531.55,-30.89"/>
<polygon fill="#63b8ff" stroke="#63b8ff" points="445.95,-61.59 438.38,-69.01 448.92,-67.93 445.95,-61.59"/>
</a>
</g>
</g>
<!-- Node2 -->
<g id="Node000002" class="node">
<title>Node2</title>
<g id="a_Node000002"><a xlink:href="structDGtal_1_1AssociativeCategory.html" target="_top" xlink:title=" ">
<polygon fill="white" stroke="#666666" points="303.5,-94.88 165.25,-94.88 165.25,-75.62 303.5,-75.62 303.5,-94.88"/>
<text text-anchor="middle" x="234.38" y="-81.38" font-family="FreeSans" font-size="10.00">DGtal::AssociativeCategory</text>
</a>
</g>
</g>
<!-- Node2&#45;&gt;Node1 -->
<g id="edge1_Node000001_Node000002" class="edge">
<title>Node2&#45;&gt;Node1</title>
<g id="a_edge1_Node000001_Node000002"><a xlink:title=" ">
<path fill="none" stroke="#63b8ff" d="M314.95,-85.25C323.02,-85.25 331.14,-85.25 339.02,-85.25"/>
<polygon fill="#63b8ff" stroke="#63b8ff" points="315.12,-81.75 305.12,-85.25 315.12,-88.75 315.12,-81.75"/>
</a>
</g>
</g>
<!-- Node3 -->
<g id="Node000003" class="node">
<title>Node3</title>
<g id="a_Node000003"><a xlink:href="structDGtal_1_1ContainerCategory.html" target="_top" xlink:title=" ">
<polygon fill="white" stroke="#666666" points="129.25,-94.88 0,-94.88 0,-75.62 129.25,-75.62 129.25,-94.88"/>
<text text-anchor="middle" x="64.62" y="-81.38" font-family="FreeSans" font-size="10.00">DGtal::ContainerCategory</text>
</a>
</g>
</g>
<!-- Node3&#45;&gt;Node2 -->
<g id="edge2_Node000002_Node000003" class="edge">
<title>Node3&#45;&gt;Node2</title>
<g id="a_edge2_Node000002_Node000003"><a xlink:title=" ">
<path fill="none" stroke="#63b8ff" d="M140.78,-85.25C148.81,-85.25 156.96,-85.25 164.91,-85.25"/>
<polygon fill="#63b8ff" stroke="#63b8ff" points="141.04,-81.75 131.04,-85.25 141.04,-88.75 141.04,-81.75"/>
</a>
</g>
</g>
</g>
</svg>
