<?xml version="1.0" encoding="UTF-8" standalone="no"?>
<!DOCTYPE svg PUBLIC "-//W3C//DTD SVG 1.1//EN"
 "http://www.w3.org/Graphics/SVG/1.1/DTD/svg11.dtd">
<!-- Generated by graphviz version 12.2.1 (20241206.2353)
 -->
<!-- Title: LibBoard::Image Pages: 1 -->
<svg width="113pt" height="193pt"
 viewBox="0.00 0.00 112.50 193.00" xmlns="http://www.w3.org/2000/svg" xmlns:xlink="http://www.w3.org/1999/xlink">
<g id="graph0" class="graph" transform="scale(1 1) rotate(0) translate(4 189)">
<title>LibBoard::Image</title>
<!-- Node1 -->
<g id="Node000001" class="node">
<title>Node1</title>
<g id="a_Node000001"><a xlink:title="Used to draw image in figure.">
<polygon fill="#999999" stroke="#666666" points="95.88,-19.25 8.62,-19.25 8.62,0 95.88,0 95.88,-19.25"/>
<text text-anchor="middle" x="52.25" y="-5.75" font-family="FreeSans" font-size="10.00">LibBoard::Image</text>
</a>
</g>
</g>
<!-- Node2 -->
<g id="Node000002" class="node">
<title>Node2</title>
<g id="a_Node000002"><a xlink:href="structLibBoard_1_1Rectangle.html" target="_top" xlink:title="A rectangle.">
<polygon fill="white" stroke="#666666" points="104.5,-74.5 0,-74.5 0,-55.25 104.5,-55.25 104.5,-74.5"/>
<text text-anchor="middle" x="52.25" y="-61" font-family="FreeSans" font-size="10.00">LibBoard::Rectangle</text>
</a>
</g>
</g>
<!-- Node2&#45;&gt;Node1 -->
<g id="edge1_Node000001_Node000002" class="edge">
<title>Node2&#45;&gt;Node1</title>
<g id="a_edge1_Node000001_Node000002"><a xlink:title=" ">
<path fill="none" stroke="#63b8ff" d="M52.25,-43.63C52.25,-35.34 52.25,-26.17 52.25,-19.61"/>
<polygon fill="#63b8ff" stroke="#63b8ff" points="48.75,-43.57 52.25,-53.57 55.75,-43.57 48.75,-43.57"/>
</a>
</g>
</g>
<!-- Node3 -->
<g id="Node000003" class="node">
<title>Node3</title>
<g id="a_Node000003"><a xlink:href="structLibBoard_1_1Polyline.html" target="_top" xlink:title="A polygonal line described by a series of 2D points.">
<polygon fill="white" stroke="#666666" points="99.62,-129.75 4.88,-129.75 4.88,-110.5 99.62,-110.5 99.62,-129.75"/>
<text text-anchor="middle" x="52.25" y="-116.25" font-family="FreeSans" font-size="10.00">LibBoard::Polyline</text>
</a>
</g>
</g>
<!-- Node3&#45;&gt;Node2 -->
<g id="edge2_Node000002_Node000003" class="edge">
<title>Node3&#45;&gt;Node2</title>
<g id="a_edge2_Node000002_Node000003"><a xlink:title=" ">
<path fill="none" stroke="#63b8ff" d="M52.25,-98.88C52.25,-90.59 52.25,-81.42 52.25,-74.86"/>
<polygon fill="#63b8ff" stroke="#63b8ff" points="48.75,-98.82 52.25,-108.82 55.75,-98.82 48.75,-98.82"/>
</a>
</g>
</g>
<!-- Node4 -->
<g id="Node000004" class="node">
<title>Node4</title>
<g id="a_Node000004"><a xlink:href="structLibBoard_1_1Shape.html" target="_top" xlink:title="Abstract structure for a 2D shape.">
<polygon fill="white" stroke="#666666" points="96.25,-185 8.25,-185 8.25,-165.75 96.25,-165.75 96.25,-185"/>
<text text-anchor="middle" x="52.25" y="-171.5" font-family="FreeSans" font-size="10.00">LibBoard::Shape</text>
</a>
</g>
</g>
<!-- Node4&#45;&gt;Node3 -->
<g id="edge3_Node000003_Node000004" class="edge">
<title>Node4&#45;&gt;Node3</title>
<g id="a_edge3_Node000003_Node000004"><a xlink:title=" ">
<path fill="none" stroke="#63b8ff" d="M52.25,-154.13C52.25,-145.84 52.25,-136.67 52.25,-130.11"/>
<polygon fill="#63b8ff" stroke="#63b8ff" points="48.75,-154.07 52.25,-164.07 55.75,-154.07 48.75,-154.07"/>
</a>
</g>
</g>
</g>
</svg>
