<?xml version="1.0" encoding="UTF-8" standalone="no"?>
<!DOCTYPE svg PUBLIC "-//W3C//DTD SVG 1.1//EN"
 "http://www.w3.org/Graphics/SVG/1.1/DTD/svg11.dtd">
<!-- Generated by graphviz version 12.2.1 (20241206.2353)
 -->
<!-- Title: DGtal::concepts::CSinglePassRangeWithWritableIterator&lt; T, Value &gt; Pages: 1 -->
<svg width="753pt" height="110pt"
 viewBox="0.00 0.00 753.00 109.75" xmlns="http://www.w3.org/2000/svg" xmlns:xlink="http://www.w3.org/1999/xlink">
<g id="graph0" class="graph" transform="scale(1 1) rotate(0) translate(4 105.75)">
<title>DGtal::concepts::CSinglePassRangeWithWritableIterator&lt; T, Value &gt;</title>
<!-- Node1 -->
<g id="Node000001" class="node">
<title>Node1</title>
<g id="a_Node000001"><a xlink:title="Aim: refined concept of const single pass range which require that an output iterator exists.">
<polygon fill="#999999" stroke="#666666" points="343.25,-71.75 190,-71.75 190,-30 343.25,-30 343.25,-71.75"/>
<text text-anchor="start" x="198" y="-58.25" font-family="FreeSans" font-size="10.00">DGtal::concepts::CSingle</text>
<text text-anchor="start" x="198" y="-47" font-family="FreeSans" font-size="10.00">PassRangeWithWritableIterator</text>
<text text-anchor="middle" x="266.62" y="-35.75" font-family="FreeSans" font-size="10.00">&lt; T, Value &gt;</text>
</a>
</g>
</g>
<!-- Node3 -->
<g id="Node000003" class="node">
<title>Node3</title>
<g id="a_Node000003"><a xlink:href="structDGtal_1_1concepts_1_1CBidirectionalRangeWithWritableIterator.html" target="_top" xlink:title="Aim: refined concept of bidirectional range which require that a reverse output iterator exists.">
<polygon fill="white" stroke="#666666" points="533.25,-101.75 379.25,-101.75 379.25,-60 533.25,-60 533.25,-101.75"/>
<text text-anchor="start" x="387.25" y="-88.25" font-family="FreeSans" font-size="10.00">DGtal::concepts::CBidirectional</text>
<text text-anchor="start" x="387.25" y="-77" font-family="FreeSans" font-size="10.00">RangeWithWritableIterator</text>
<text text-anchor="middle" x="456.25" y="-65.75" font-family="FreeSans" font-size="10.00">&lt; T, Value &gt;</text>
</a>
</g>
</g>
<!-- Node1&#45;&gt;Node3 -->
<g id="edge2_Node000001_Node000003" class="edge">
<title>Node1&#45;&gt;Node3</title>
<g id="a_edge2_Node000001_Node000003"><a xlink:title=" ">
<path fill="none" stroke="#63b8ff" d="M354.89,-64.83C362.87,-66.1 370.92,-67.39 378.79,-68.65"/>
<polygon fill="#63b8ff" stroke="#63b8ff" points="355.59,-61.4 345.16,-63.27 354.49,-68.31 355.59,-61.4"/>
</a>
</g>
</g>
<!-- Node5 -->
<g id="Node000005" class="node">
<title>Node5</title>
<g id="a_Node000005"><a xlink:href="structDGtal_1_1concepts_1_1CSinglePassRangeWithWritableIteratorFromPoint.html" target="_top" xlink:title="Aim: refined concept of single pass range with a outputIterator() method from a point.">
<polygon fill="white" stroke="#666666" points="532.88,-41.75 379.62,-41.75 379.62,0 532.88,0 532.88,-41.75"/>
<text text-anchor="start" x="387.62" y="-28.25" font-family="FreeSans" font-size="10.00">DGtal::concepts::CSingle</text>
<text text-anchor="start" x="387.62" y="-17" font-family="FreeSans" font-size="10.00">PassRangeWithWritableIterator</text>
<text text-anchor="middle" x="456.25" y="-5.75" font-family="FreeSans" font-size="10.00">FromPoint&lt; T, Value &gt;</text>
</a>
</g>
</g>
<!-- Node1&#45;&gt;Node5 -->
<g id="edge4_Node000001_Node000005" class="edge">
<title>Node1&#45;&gt;Node5</title>
<g id="a_edge4_Node000001_Node000005"><a xlink:title=" ">
<path fill="none" stroke="#63b8ff" d="M354.81,-36.94C363.02,-35.62 371.3,-34.3 379.4,-33"/>
<polygon fill="#63b8ff" stroke="#63b8ff" points="354.49,-33.44 345.16,-38.48 355.59,-40.35 354.49,-33.44"/>
</a>
</g>
</g>
<!-- Node2 -->
<g id="Node000002" class="node">
<title>Node2</title>
<g id="a_Node000002"><a xlink:href="structDGtal_1_1concepts_1_1CConstSinglePassRange.html" target="_top" xlink:title="Aim: Defines the concept describing a const single pass range.">
<polygon fill="white" stroke="#666666" points="154,-66.12 0,-66.12 0,-35.62 154,-35.62 154,-66.12"/>
<text text-anchor="start" x="8" y="-52.62" font-family="FreeSans" font-size="10.00">DGtal::concepts::CConstSingle</text>
<text text-anchor="middle" x="77" y="-41.38" font-family="FreeSans" font-size="10.00">PassRange&lt; T &gt;</text>
</a>
</g>
</g>
<!-- Node2&#45;&gt;Node1 -->
<g id="edge1_Node000001_Node000002" class="edge">
<title>Node2&#45;&gt;Node1</title>
<g id="a_edge1_Node000001_Node000002"><a xlink:title=" ">
<path fill="none" stroke="#63b8ff" d="M165.62,-50.88C173.66,-50.88 181.76,-50.88 189.68,-50.88"/>
<polygon fill="#63b8ff" stroke="#63b8ff" points="165.83,-47.38 155.83,-50.88 165.83,-54.38 165.83,-47.38"/>
</a>
</g>
</g>
<!-- Node4 -->
<g id="Node000004" class="node">
<title>Node4</title>
<g id="a_Node000004"><a xlink:href="structDGtal_1_1concepts_1_1CBidirectionalRangeWithWritableIteratorFromPoint.html" target="_top" xlink:title="Aim: refined concept of single pass range with an routputIterator() method from a point.">
<polygon fill="white" stroke="#666666" points="745,-101.75 569.25,-101.75 569.25,-60 745,-60 745,-101.75"/>
<text text-anchor="start" x="577.25" y="-88.25" font-family="FreeSans" font-size="10.00">DGtal::concepts::CBidirectional</text>
<text text-anchor="start" x="577.25" y="-77" font-family="FreeSans" font-size="10.00">RangeWithWritableIteratorFromPoint</text>
<text text-anchor="middle" x="657.12" y="-65.75" font-family="FreeSans" font-size="10.00">&lt; T, Value &gt;</text>
</a>
</g>
</g>
<!-- Node3&#45;&gt;Node4 -->
<g id="edge3_Node000003_Node000004" class="edge">
<title>Node3&#45;&gt;Node4</title>
<g id="a_edge3_Node000003_Node000004"><a xlink:title=" ">
<path fill="none" stroke="#63b8ff" d="M544.84,-80.88C552.88,-80.88 561.02,-80.88 569.06,-80.88"/>
<polygon fill="#63b8ff" stroke="#63b8ff" points="545.09,-77.38 535.09,-80.88 545.09,-84.38 545.09,-77.38"/>
</a>
</g>
</g>
</g>
</svg>
