<?xml version="1.0" encoding="UTF-8" standalone="no"?>
<!DOCTYPE svg PUBLIC "-//W3C//DTD SVG 1.1//EN"
 "http://www.w3.org/Graphics/SVG/1.1/DTD/svg11.dtd">
<!-- Generated by graphviz version 12.2.1 (20241206.2353)
 -->
<!-- Title: DGtal::concepts::CConstBidirectionalRangeFromPoint&lt; T &gt; Pages: 1 -->
<svg width="188pt" height="238pt"
 viewBox="0.00 0.00 188.25 238.00" xmlns="http://www.w3.org/2000/svg" xmlns:xlink="http://www.w3.org/1999/xlink">
<g id="graph0" class="graph" transform="scale(1 1) rotate(0) translate(4 234)">
<title>DGtal::concepts::CConstBidirectionalRangeFromPoint&lt; T &gt;</title>
<!-- Node1 -->
<g id="Node000001" class="node">
<title>Node1</title>
<g id="a_Node000001"><a xlink:title="Aim: refined concept of const bidirectional range with a begin() method from a point.">
<polygon fill="#999999" stroke="#666666" points="180.25,-97 0,-97 0,-66.5 180.25,-66.5 180.25,-97"/>
<text text-anchor="start" x="8" y="-83.5" font-family="FreeSans" font-size="10.00">DGtal::concepts::CConstBidirectional</text>
<text text-anchor="middle" x="90.12" y="-72.25" font-family="FreeSans" font-size="10.00">RangeFromPoint&lt; T &gt;</text>
</a>
</g>
</g>
<!-- Node4 -->
<g id="Node000004" class="node">
<title>Node4</title>
<g id="a_Node000004"><a xlink:href="structDGtal_1_1concepts_1_1CBidirectionalRangeFromPoint.html" target="_top" xlink:title="Aim: refined concept of single pass range with a begin() method from a point.">
<polygon fill="white" stroke="#666666" points="167.12,-30.5 13.12,-30.5 13.12,0 167.12,0 167.12,-30.5"/>
<text text-anchor="start" x="21.12" y="-17" font-family="FreeSans" font-size="10.00">DGtal::concepts::CBidirectional</text>
<text text-anchor="middle" x="90.12" y="-5.75" font-family="FreeSans" font-size="10.00">RangeFromPoint&lt; T &gt;</text>
</a>
</g>
</g>
<!-- Node1&#45;&gt;Node4 -->
<g id="edge3_Node000001_Node000004" class="edge">
<title>Node1&#45;&gt;Node4</title>
<g id="a_edge3_Node000001_Node000004"><a xlink:title=" ">
<path fill="none" stroke="#63b8ff" d="M90.12,-54.81C90.12,-46.64 90.12,-37.91 90.12,-30.83"/>
<polygon fill="#63b8ff" stroke="#63b8ff" points="86.63,-54.6 90.13,-64.6 93.63,-54.6 86.63,-54.6"/>
</a>
</g>
</g>
<!-- Node2 -->
<g id="Node000002" class="node">
<title>Node2</title>
<g id="a_Node000002"><a xlink:href="structDGtal_1_1concepts_1_1CConstBidirectionalRange.html" target="_top" xlink:title="Aim: Defines the concept describing a bidirectional const range.">
<polygon fill="white" stroke="#666666" points="180.25,-163.5 0,-163.5 0,-133 180.25,-133 180.25,-163.5"/>
<text text-anchor="start" x="8" y="-150" font-family="FreeSans" font-size="10.00">DGtal::concepts::CConstBidirectional</text>
<text text-anchor="middle" x="90.12" y="-138.75" font-family="FreeSans" font-size="10.00">Range&lt; T &gt;</text>
</a>
</g>
</g>
<!-- Node2&#45;&gt;Node1 -->
<g id="edge1_Node000001_Node000002" class="edge">
<title>Node2&#45;&gt;Node1</title>
<g id="a_edge1_Node000001_Node000002"><a xlink:title=" ">
<path fill="none" stroke="#63b8ff" d="M90.12,-121.31C90.12,-113.14 90.12,-104.41 90.12,-97.33"/>
<polygon fill="#63b8ff" stroke="#63b8ff" points="86.63,-121.1 90.13,-131.1 93.63,-121.1 86.63,-121.1"/>
</a>
</g>
</g>
<!-- Node3 -->
<g id="Node000003" class="node">
<title>Node3</title>
<g id="a_Node000003"><a xlink:href="structDGtal_1_1concepts_1_1CConstSinglePassRange.html" target="_top" xlink:title="Aim: Defines the concept describing a const single pass range.">
<polygon fill="white" stroke="#666666" points="167.12,-230 13.12,-230 13.12,-199.5 167.12,-199.5 167.12,-230"/>
<text text-anchor="start" x="21.12" y="-216.5" font-family="FreeSans" font-size="10.00">DGtal::concepts::CConstSingle</text>
<text text-anchor="middle" x="90.12" y="-205.25" font-family="FreeSans" font-size="10.00">PassRange&lt; T &gt;</text>
</a>
</g>
</g>
<!-- Node3&#45;&gt;Node2 -->
<g id="edge2_Node000002_Node000003" class="edge">
<title>Node3&#45;&gt;Node2</title>
<g id="a_edge2_Node000002_Node000003"><a xlink:title=" ">
<path fill="none" stroke="#63b8ff" d="M90.12,-187.81C90.12,-179.64 90.12,-170.91 90.12,-163.83"/>
<polygon fill="#63b8ff" stroke="#63b8ff" points="86.63,-187.6 90.13,-197.6 93.63,-187.6 86.63,-187.6"/>
</a>
</g>
</g>
</g>
</svg>
