<?xml version="1.0" encoding="UTF-8" standalone="no"?>
<!DOCTYPE svg PUBLIC "-//W3C//DTD SVG 1.1//EN"
 "http://www.w3.org/Graphics/SVG/1.1/DTD/svg11.dtd">
<!-- Generated by graphviz version 12.2.1 (20241206.2353)
 -->
<!-- Title: DGtal::functors::Projector&lt; S &gt; Pages: 1 -->
<svg width="511pt" height="147pt"
 viewBox="0.00 0.00 511.00 146.50" xmlns="http://www.w3.org/2000/svg" xmlns:xlink="http://www.w3.org/1999/xlink">
<g id="graph0" class="graph" transform="scale(1 1) rotate(0) translate(4 142.5)">
<title>DGtal::functors::Projector&lt; S &gt;</title>
<!-- Node1 -->
<g id="Node000001" class="node">
<title>Node1</title>
<g id="a_Node000001"><a xlink:title="Aim: Functor that maps a point P of dimension i to a point Q of dimension j. The member myDims is an ...">
<polygon fill="#999999" stroke="#666666" points="152.5,-78.88 0,-78.88 0,-59.62 152.5,-59.62 152.5,-78.88"/>
<text text-anchor="middle" x="76.25" y="-65.38" font-family="FreeSans" font-size="10.00">DGtal::functors::Projector&lt; S &gt;</text>
</a>
</g>
</g>
<!-- Node2 -->
<g id="Node000002" class="node">
<title>Node2</title>
<g id="a_Node000002"><a xlink:href="structDGtal_1_1functors_1_1Projector.html" target="_top" xlink:title=" ">
<polygon fill="white" stroke="#666666" points="479.75,-138.5 352,-138.5 352,-108 479.75,-108 479.75,-138.5"/>
<text text-anchor="start" x="360" y="-125" font-family="FreeSans" font-size="10.00">DGtal::functors::Projector</text>
<text text-anchor="middle" x="415.88" y="-113.75" font-family="FreeSans" font-size="10.00">&lt; SpaceND&lt; 2, int &gt; &gt;</text>
</a>
</g>
</g>
<!-- Node1&#45;&gt;Node2 -->
<g id="edge1_Node000001_Node000002" class="edge">
<title>Node1&#45;&gt;Node2</title>
<g id="a_edge1_Node000001_Node000002"><a xlink:title=" ">
<path fill="none" stroke="orange" stroke-dasharray="5,2" d="M117.9,-82.67C134.11,-87.58 153.04,-92.78 170.5,-96.25 231.42,-108.34 302.03,-115.41 351.64,-119.26"/>
<polygon fill="orange" stroke="orange" points="119.2,-79.4 108.61,-79.78 117.12,-86.09 119.2,-79.4"/>
</a>
</g>
<text text-anchor="middle" x="240.62" y="-117.3" font-family="FreeSans" font-size="10.00" fill="grey"> &lt; SpaceND&lt; 2, int &gt; &gt;</text>
</g>
<!-- Node3 -->
<g id="Node000003" class="node">
<title>Node3</title>
<g id="a_Node000003"><a xlink:href="structDGtal_1_1functors_1_1Projector.html" target="_top" xlink:title=" ">
<polygon fill="white" stroke="#666666" points="503,-90.12 328.75,-90.12 328.75,-48.38 503,-48.38 503,-90.12"/>
<text text-anchor="start" x="336.75" y="-76.62" font-family="FreeSans" font-size="10.00">DGtal::functors::Projector</text>
<text text-anchor="start" x="336.75" y="-65.38" font-family="FreeSans" font-size="10.00">&lt; SpaceND&lt; 2, typename TKSpace</text>
<text text-anchor="middle" x="415.88" y="-54.12" font-family="FreeSans" font-size="10.00">::Space::Integer &gt; &gt;</text>
</a>
</g>
</g>
<!-- Node1&#45;&gt;Node3 -->
<g id="edge2_Node000001_Node000003" class="edge">
<title>Node1&#45;&gt;Node3</title>
<g id="a_edge2_Node000001_Node000003"><a xlink:title=" ">
<path fill="none" stroke="orange" stroke-dasharray="5,2" d="M163.83,-69.25C214.37,-69.25 277.92,-69.25 328.44,-69.25"/>
<polygon fill="orange" stroke="orange" points="164.11,-65.75 154.11,-69.25 164.11,-72.75 164.11,-65.75"/>
</a>
</g>
<text text-anchor="start" x="175" y="-82.25" font-family="FreeSans" font-size="10.00" fill="grey"> &lt; SpaceND&lt; 2, typename</text>
<text text-anchor="middle" x="240.62" y="-71" font-family="FreeSans" font-size="10.00" fill="grey"> TKSpace::Space::Integer &gt; &gt;</text>
</g>
<!-- Node4 -->
<g id="Node000004" class="node">
<title>Node4</title>
<g id="a_Node000004"><a xlink:href="structDGtal_1_1functors_1_1Projector.html" target="_top" xlink:title=" ">
<polygon fill="white" stroke="#666666" points="492.5,-30.5 339.25,-30.5 339.25,0 492.5,0 492.5,-30.5"/>
<text text-anchor="start" x="347.25" y="-17" font-family="FreeSans" font-size="10.00">DGtal::functors::Projector</text>
<text text-anchor="middle" x="415.88" y="-5.75" font-family="FreeSans" font-size="10.00">&lt; SpaceND&lt; 2, Coordinate &gt; &gt;</text>
</a>
</g>
</g>
<!-- Node1&#45;&gt;Node4 -->
<g id="edge3_Node000001_Node000004" class="edge">
<title>Node1&#45;&gt;Node4</title>
<g id="a_edge3_Node000001_Node000004"><a xlink:title=" ">
<path fill="none" stroke="orange" stroke-dasharray="5,2" d="M149.95,-57.33C156.9,-56.2 163.83,-55.07 170.5,-54 226.91,-44.92 290.66,-34.81 338.91,-27.2"/>
<polygon fill="orange" stroke="orange" points="149.49,-53.85 140.18,-58.92 150.62,-60.76 149.49,-53.85"/>
</a>
</g>
<text text-anchor="middle" x="240.62" y="-55.75" font-family="FreeSans" font-size="10.00" fill="grey"> &lt; SpaceND&lt; 2, Coordinate &gt; &gt;</text>
</g>
</g>
</svg>
