<?xml version="1.0" encoding="UTF-8" standalone="no"?>
<!DOCTYPE svg PUBLIC "-//W3C//DTD SVG 1.1//EN"
 "http://www.w3.org/Graphics/SVG/1.1/DTD/svg11.dtd">
<!-- Generated by graphviz version 12.2.1 (20241206.2353)
 -->
<!-- Title: DGtal::functors::ConstantPointPredicate&lt; TPoint, boolCst &gt; Pages: 1 -->
<svg width="550pt" height="110pt"
 viewBox="0.00 0.00 549.75 109.75" xmlns="http://www.w3.org/2000/svg" xmlns:xlink="http://www.w3.org/1999/xlink">
<g id="graph0" class="graph" transform="scale(1 1) rotate(0) translate(4 105.75)">
<title>DGtal::functors::ConstantPointPredicate&lt; TPoint, boolCst &gt;</title>
<!-- Node1 -->
<g id="Node000001" class="node">
<title>Node1</title>
<g id="a_Node000001"><a xlink:title="Aim: The predicate that returns always the same value boolCst.">
<polygon fill="#999999" stroke="#666666" points="128.5,-71.75 0,-71.75 0,-30 128.5,-30 128.5,-71.75"/>
<text text-anchor="start" x="8" y="-58.25" font-family="FreeSans" font-size="10.00">DGtal::functors::Constant</text>
<text text-anchor="start" x="8" y="-47" font-family="FreeSans" font-size="10.00">PointPredicate&lt; TPoint,</text>
<text text-anchor="middle" x="64.25" y="-35.75" font-family="FreeSans" font-size="10.00"> boolCst &gt;</text>
</a>
</g>
</g>
<!-- Node2 -->
<g id="Node000002" class="node">
<title>Node2</title>
<g id="a_Node000002"><a xlink:href="structDGtal_1_1functors_1_1ConstantPointPredicate.html" target="_top" xlink:title=" ">
<polygon fill="white" stroke="#666666" points="369.5,-101.75 241,-101.75 241,-60 369.5,-60 369.5,-101.75"/>
<text text-anchor="start" x="249" y="-88.25" font-family="FreeSans" font-size="10.00">DGtal::functors::Constant</text>
<text text-anchor="start" x="249" y="-77" font-family="FreeSans" font-size="10.00">PointPredicate&lt; TPoint,</text>
<text text-anchor="middle" x="305.25" y="-65.75" font-family="FreeSans" font-size="10.00"> false &gt;</text>
</a>
</g>
</g>
<!-- Node1&#45;&gt;Node2 -->
<g id="edge1_Node000001_Node000002" class="edge">
<title>Node1&#45;&gt;Node2</title>
<g id="a_edge1_Node000001_Node000002"><a xlink:title=" ">
<path fill="none" stroke="orange" stroke-dasharray="5,2" d="M140.17,-60.28C172.45,-64.33 209.79,-69.02 240.69,-72.9"/>
<polygon fill="orange" stroke="orange" points="140.84,-56.84 130.49,-59.06 139.97,-63.78 140.84,-56.84"/>
</a>
</g>
<text text-anchor="middle" x="184.75" y="-72.06" font-family="FreeSans" font-size="10.00" fill="grey"> &lt; TPoint, false &gt;</text>
</g>
<!-- Node4 -->
<g id="Node000004" class="node">
<title>Node4</title>
<g id="a_Node000004"><a xlink:href="structDGtal_1_1functors_1_1ConstantPointPredicate.html" target="_top" xlink:title=" ">
<polygon fill="white" stroke="#666666" points="369.5,-41.75 241,-41.75 241,0 369.5,0 369.5,-41.75"/>
<text text-anchor="start" x="249" y="-28.25" font-family="FreeSans" font-size="10.00">DGtal::functors::Constant</text>
<text text-anchor="start" x="249" y="-17" font-family="FreeSans" font-size="10.00">PointPredicate&lt; TPoint,</text>
<text text-anchor="middle" x="305.25" y="-5.75" font-family="FreeSans" font-size="10.00"> true &gt;</text>
</a>
</g>
</g>
<!-- Node1&#45;&gt;Node4 -->
<g id="edge3_Node000001_Node000004" class="edge">
<title>Node1&#45;&gt;Node4</title>
<g id="a_edge3_Node000001_Node000004"><a xlink:title=" ">
<path fill="none" stroke="orange" stroke-dasharray="5,2" d="M140.17,-41.47C172.45,-37.42 209.79,-32.73 240.69,-28.85"/>
<polygon fill="orange" stroke="orange" points="139.97,-37.97 130.49,-42.69 140.84,-44.91 139.97,-37.97"/>
</a>
</g>
<text text-anchor="middle" x="184.75" y="-42.06" font-family="FreeSans" font-size="10.00" fill="grey"> &lt; TPoint, true &gt;</text>
</g>
<!-- Node3 -->
<g id="Node000003" class="node">
<title>Node3</title>
<g id="a_Node000003"><a xlink:href="structDGtal_1_1functors_1_1FalsePointPredicate.html" target="_top" xlink:title="Aim: The predicate that returns always false.">
<polygon fill="white" stroke="#666666" points="541.75,-96.12 406.5,-96.12 406.5,-65.62 541.75,-65.62 541.75,-96.12"/>
<text text-anchor="start" x="414.5" y="-82.62" font-family="FreeSans" font-size="10.00">DGtal::functors::FalsePoint</text>
<text text-anchor="middle" x="474.12" y="-71.38" font-family="FreeSans" font-size="10.00">Predicate&lt; TPoint &gt;</text>
</a>
</g>
</g>
<!-- Node2&#45;&gt;Node3 -->
<g id="edge2_Node000002_Node000003" class="edge">
<title>Node2&#45;&gt;Node3</title>
<g id="a_edge2_Node000002_Node000003"><a xlink:title=" ">
<path fill="none" stroke="#63b8ff" d="M381.09,-80.88C389.43,-80.88 397.89,-80.88 406.13,-80.88"/>
<polygon fill="#63b8ff" stroke="#63b8ff" points="381.33,-77.38 371.33,-80.88 381.33,-84.38 381.33,-77.38"/>
</a>
</g>
</g>
<!-- Node5 -->
<g id="Node000005" class="node">
<title>Node5</title>
<g id="a_Node000005"><a xlink:href="structDGtal_1_1functors_1_1TruePointPredicate.html" target="_top" xlink:title="Aim: The predicate that returns always true.">
<polygon fill="white" stroke="#666666" points="539.5,-36.12 408.75,-36.12 408.75,-5.62 539.5,-5.62 539.5,-36.12"/>
<text text-anchor="start" x="416.75" y="-22.62" font-family="FreeSans" font-size="10.00">DGtal::functors::TruePoint</text>
<text text-anchor="middle" x="474.12" y="-11.38" font-family="FreeSans" font-size="10.00">Predicate&lt; TPoint &gt;</text>
</a>
</g>
</g>
<!-- Node4&#45;&gt;Node5 -->
<g id="edge4_Node000004_Node000005" class="edge">
<title>Node4&#45;&gt;Node5</title>
<g id="a_edge4_Node000004_Node000005"><a xlink:title=" ">
<path fill="none" stroke="#63b8ff" d="M381.19,-20.88C390.25,-20.88 399.45,-20.88 408.35,-20.88"/>
<polygon fill="#63b8ff" stroke="#63b8ff" points="381.33,-17.38 371.33,-20.88 381.33,-24.38 381.33,-17.38"/>
</a>
</g>
</g>
</g>
</svg>
