<?xml version="1.0" encoding="UTF-8" standalone="no"?>
<!DOCTYPE svg PUBLIC "-//W3C//DTD SVG 1.1//EN"
 "http://www.w3.org/Graphics/SVG/1.1/DTD/svg11.dtd">
<!-- Generated by graphviz version 12.2.1 (20241206.2353)
 -->
<!-- Title: DGtal::MultipleAssociativeCategory Pages: 1 -->
<!--zoomable 186 -->

<svg id="main" version="1.1" xmlns="http://www.w3.org/2000/svg" xmlns:xlink="http://www.w3.org/1999/xlink" xml:space="preserve" onload="init(evt)">

<style type="text/css"><![CDATA[
.node, .edge {opacity: 0.7;}
.node.selected, .edge.selected {opacity: 1;}
.edge:hover path { stroke: red; }
.edge:hover polygon { stroke: red; fill: red; }
]]></style>

<defs>
  <circle id="rim" cx="0" cy="0" r="7"/>
  <circle id="rim2" cx="0" cy="0" r="3.5"/>
  <g id="zoomPlus">
    <use xlink:href="#rim" fill="#404040"><set attributeName="fill" to="#808080" begin="zoomplus.mouseover" end="zoomplus.mouseout"/></use>
    <path d="M-4,0h8M0,-4v8" fill="none" stroke="white" stroke-width="1.5" pointer-events="none"/>
  </g>
  <g id="zoomMin">
    <use xlink:href="#rim" fill="#404040"><set attributeName="fill" to="#808080" begin="zoomminus.mouseover" end="zoomminus.mouseout"/></use>
    <path d="M-4,0h8" fill="none" stroke="white" stroke-width="1.5" pointer-events="none"/>
  </g>
  <g id="arrowUp" transform="translate(30 24)">
    <use xlink:href="#rim"/>
    <path pointer-events="none" fill="none" stroke="white" stroke-width="1.5" d="M0,-3.0v7 M-2.5,-0.5L0,-3.0L2.5,-0.5"/>
  </g>
  <g id="arrowRight" transform="rotate(90) translate(36 -43)">
    <use xlink:href="#rim"/>
    <path pointer-events="none" fill="none" stroke="white" stroke-width="1.5" d="M0,-3.0v7 M-2.5,-0.5L0,-3.0L2.5,-0.5"/>
  </g>
  <g id="arrowDown" transform="rotate(180) translate(-30 -48)">
    <use xlink:href="#rim"/>
    <path pointer-events="none" fill="none" stroke="white" stroke-width="1.5" d="M0,-3.0v7 M-2.5,-0.5L0,-3.0L2.5,-0.5"/>
  </g>
  <g id="arrowLeft" transform="rotate(270) translate(-36 17)">
    <use xlink:href="#rim"/>
    <path pointer-events="none" fill="none" stroke="white" stroke-width="1.5" d="M0,-3.0v7 M-2.5,-0.5L0,-3.0L2.5,-0.5"/>
  </g>
  <g id="resetDef">
    <use xlink:href="#rim2" fill="#404040"><set attributeName="fill" to="#808080" begin="reset.mouseover" end="reset.mouseout"/></use>
  </g>
</defs>
<script type="application/ecmascript">
var viewWidth = 654;
var viewHeight = 186;
var sectionId = 'dynsection-0';
</script>
<script type="application/ecmascript" xlink:href="svg.min.js"/>
<svg id="graph" class="graph">
<g id="viewport">
<title>DGtal::MultipleAssociativeCategory</title>
<!-- Node1 -->
<g id="Node000001" class="node">
<title>Node1</title>
<g id="a_Node000001"><a xlink:title=" ">
<polygon fill="#999999" stroke="#666666" points="471.75,-103.5 339.5,-103.5 339.5,-73 471.75,-73 471.75,-103.5"/>
<text text-anchor="start" x="347.5" y="-90" font-family="FreeSans" font-size="10.00">DGtal::MultipleAssociative</text>
<text text-anchor="middle" x="405.62" y="-78.75" font-family="FreeSans" font-size="10.00">Category</text>
</a>
</g>
</g>
<!-- Node4 -->
<g id="Node000004" class="node">
<title>Node4</title>
<g id="a_Node000004"><a xlink:href="structDGtal_1_1MultimapAssociativeCategory.html" target="_top" xlink:title=" ">
<polygon fill="white" stroke="#666666" points="646,-177.5 507.75,-177.5 507.75,-147 646,-147 646,-177.5"/>
<text text-anchor="start" x="515.75" y="-164" font-family="FreeSans" font-size="10.00">DGtal::MultimapAssociative</text>
<text text-anchor="middle" x="576.88" y="-152.75" font-family="FreeSans" font-size="10.00">Category</text>
</a>
</g>
</g>
<!-- Node1&#45;&gt;Node4 -->
<g id="edge3_Node000001_Node000004" class="edge">
<title>Node1&#45;&gt;Node4</title>
<g id="a_edge3_Node000001_Node000004"><a xlink:title=" ">
<path fill="none" stroke="#63b8ff" d="M446.86,-108.88C465.23,-118.01 487.39,-128.61 507.75,-137.25 515.29,-140.45 523.39,-143.64 531.28,-146.61"/>
<polygon fill="#63b8ff" stroke="#63b8ff" points="448.66,-105.87 438.15,-104.52 445.52,-112.13 448.66,-105.87"/>
</a>
</g>
</g>
<!-- Node5 -->
<g id="Node000005" class="node">
<title>Node5</title>
<g id="a_Node000005"><a xlink:href="structDGtal_1_1MultisetAssociativeCategory.html" target="_top" xlink:title=" ">
<polygon fill="white" stroke="#666666" points="643.38,-128.5 510.38,-128.5 510.38,-98 643.38,-98 643.38,-128.5"/>
<text text-anchor="start" x="518.38" y="-115" font-family="FreeSans" font-size="10.00">DGtal::MultisetAssociative</text>
<text text-anchor="middle" x="576.88" y="-103.75" font-family="FreeSans" font-size="10.00">Category</text>
</a>
</g>
</g>
<!-- Node1&#45;&gt;Node5 -->
<g id="edge4_Node000001_Node000005" class="edge">
<title>Node1&#45;&gt;Node5</title>
<g id="a_edge4_Node000001_Node000005"><a xlink:title=" ">
<path fill="none" stroke="#63b8ff" d="M483.29,-99.57C492.22,-100.89 501.28,-102.23 510.05,-103.53"/>
<polygon fill="#63b8ff" stroke="#63b8ff" points="483.96,-96.14 473.56,-98.14 482.94,-103.06 483.96,-96.14"/>
</a>
</g>
</g>
<!-- Node6 -->
<g id="Node000006" class="node">
<title>Node6</title>
<g id="a_Node000006"><a xlink:href="structDGtal_1_1UnorderedMultimapAssociativeCategory.html" target="_top" xlink:title=" ">
<polygon fill="white" stroke="#666666" points="643,-79.5 510.75,-79.5 510.75,-49 643,-49 643,-79.5"/>
<text text-anchor="start" x="518.75" y="-66" font-family="FreeSans" font-size="10.00">DGtal::UnorderedMultimap</text>
<text text-anchor="middle" x="576.88" y="-54.75" font-family="FreeSans" font-size="10.00">AssociativeCategory</text>
</a>
</g>
</g>
<!-- Node1&#45;&gt;Node6 -->
<g id="edge5_Node000001_Node000006" class="edge">
<title>Node1&#45;&gt;Node6</title>
<g id="a_edge5_Node000001_Node000006"><a xlink:title=" ">
<path fill="none" stroke="#63b8ff" d="M483.37,-77.37C492.38,-76.09 501.5,-74.8 510.33,-73.54"/>
<polygon fill="#63b8ff" stroke="#63b8ff" points="482.97,-73.89 473.56,-78.76 483.95,-80.82 482.97,-73.89"/>
</a>
</g>
</g>
<!-- Node7 -->
<g id="Node000007" class="node">
<title>Node7</title>
<g id="a_Node000007"><a xlink:href="structDGtal_1_1UnorderedMultisetAssociativeCategory.html" target="_top" xlink:title=" ">
<polygon fill="white" stroke="#666666" points="640.38,-30.5 513.38,-30.5 513.38,0 640.38,0 640.38,-30.5"/>
<text text-anchor="start" x="521.38" y="-17" font-family="FreeSans" font-size="10.00">DGtal::UnorderedMultiset</text>
<text text-anchor="middle" x="576.88" y="-5.75" font-family="FreeSans" font-size="10.00">AssociativeCategory</text>
</a>
</g>
</g>
<!-- Node1&#45;&gt;Node7 -->
<g id="edge6_Node000001_Node000007" class="edge">
<title>Node1&#45;&gt;Node7</title>
<g id="a_edge6_Node000001_Node000007"><a xlink:title=" ">
<path fill="none" stroke="#63b8ff" d="M447.97,-67.58C466.14,-58.77 487.83,-48.61 507.75,-40.25 515.3,-37.08 523.41,-33.91 531.3,-30.94"/>
<polygon fill="#63b8ff" stroke="#63b8ff" points="446.53,-64.38 439.08,-71.92 449.6,-70.67 446.53,-64.38"/>
</a>
</g>
</g>
<!-- Node2 -->
<g id="Node000002" class="node">
<title>Node2</title>
<g id="a_Node000002"><a xlink:href="structDGtal_1_1AssociativeCategory.html" target="_top" xlink:title=" ">
<polygon fill="white" stroke="#666666" points="303.5,-97.88 165.25,-97.88 165.25,-78.62 303.5,-78.62 303.5,-97.88"/>
<text text-anchor="middle" x="234.38" y="-84.38" font-family="FreeSans" font-size="10.00">DGtal::AssociativeCategory</text>
</a>
</g>
</g>
<!-- Node2&#45;&gt;Node1 -->
<g id="edge1_Node000001_Node000002" class="edge">
<title>Node2&#45;&gt;Node1</title>
<g id="a_edge1_Node000001_Node000002"><a xlink:title=" ">
<path fill="none" stroke="#63b8ff" d="M315.03,-88.25C323.07,-88.25 331.17,-88.25 339.04,-88.25"/>
<polygon fill="#63b8ff" stroke="#63b8ff" points="315.24,-84.75 305.24,-88.25 315.24,-91.75 315.24,-84.75"/>
</a>
</g>
</g>
<!-- Node3 -->
<g id="Node000003" class="node">
<title>Node3</title>
<g id="a_Node000003"><a xlink:href="structDGtal_1_1ContainerCategory.html" target="_top" xlink:title=" ">
<polygon fill="white" stroke="#666666" points="129.25,-97.88 0,-97.88 0,-78.62 129.25,-78.62 129.25,-97.88"/>
<text text-anchor="middle" x="64.62" y="-84.38" font-family="FreeSans" font-size="10.00">DGtal::ContainerCategory</text>
</a>
</g>
</g>
<!-- Node3&#45;&gt;Node2 -->
<g id="edge2_Node000002_Node000003" class="edge">
<title>Node3&#45;&gt;Node2</title>
<g id="a_edge2_Node000002_Node000003"><a xlink:title=" ">
<path fill="none" stroke="#63b8ff" d="M140.78,-88.25C148.81,-88.25 156.96,-88.25 164.91,-88.25"/>
<polygon fill="#63b8ff" stroke="#63b8ff" points="141.04,-84.75 131.04,-88.25 141.04,-91.75 141.04,-84.75"/>
</a>
</g>
</g>
</g>
</svg>

<g id="navigator" transform="translate(0 0)" fill="#404254">
  <rect fill="#f2f5e9" fill-opacity="0.5" stroke="#606060" stroke-width=".5" x="0" y="0" width="60" height="60"/>
  <use id="zoomplus" xlink:href="#zoomPlus" x="17" y="9" onmousedown="handleZoom(evt,'in')"/>
  <use id="zoomminus" xlink:href="#zoomMin" x="42" y="9" onmousedown="handleZoom(evt,'out')"/>
  <use id="reset" xlink:href="#resetDef" x="30" y="36" onmousedown="handleReset()"/>
   <use id="arrowup" xlink:href="#arrowUp" x="0" y="0" onmousedown="handlePan(0,-1)"/>
  <use id="arrowright" xlink:href="#arrowRight" x="0" y="0" onmousedown="handlePan(1,0)"/>
  <use id="arrowdown" xlink:href="#arrowDown" x="0" y="0" onmousedown="handlePan(0,1)"/>
  <use id="arrowleft" xlink:href="#arrowLeft" x="0" y="0" onmousedown="handlePan(-1,0)"/>
</g>
<svg viewBox="0 0 15 15" width="100%" height="30px" preserveAspectRatio="xMaxYMin meet">
 <g id="arrow_out" transform="scale(0.3 0.3)">
  <a xlink:href="structDGtal_1_1MultipleAssociativeCategory__inherit__graph_org.svg" target="_base">
   <rect id="button" ry="5" rx="5" y="6" x="6" height="38" width="38"
        fill="#f2f5e9" fill-opacity="0.5" stroke="#606060" stroke-width="1.0"/>
   <path id="arrow"
     d="M 11.500037,31.436501 C 11.940474,20.09759 22.043105,11.32322 32.158766,21.979434 L 37.068811,17.246167 C 37.068811,17.246167 37.088388,32 37.088388,32 L 22.160133,31.978069 C 22.160133,31.978069 26.997745,27.140456 26.997745,27.140456 C 18.528582,18.264221 13.291696,25.230495 11.500037,31.436501 z"
     style="fill:#404040;"/>
  </a>
 </g>
</svg>

<style type='text/css'>
<![CDATA[
[data-mouse-over-selected='false'] { opacity: 0.7; }
[data-mouse-over-selected='true']  { opacity: 1.0; }
]]>
</style>
<script type="application/ecmascript"><![CDATA[
document.addEventListener('DOMContentLoaded', (event) => {
  highlightEdges();
  highlightAdjacentNodes();
});
]]></script>
</svg>
