<?xml version="1.0" encoding="UTF-8" standalone="no"?>
<!DOCTYPE svg PUBLIC "-//W3C//DTD SVG 1.1//EN"
 "http://www.w3.org/Graphics/SVG/1.1/DTD/svg11.dtd">
<!-- Generated by graphviz version 12.2.1 (20241206.2353)
 -->
<!-- Title: DGtal::concepts::CDrawableWithBoard3DTo2D&lt; T, S, KS &gt; Pages: 1 -->
<svg width="161pt" height="184pt"
 viewBox="0.00 0.00 160.50 183.75" xmlns="http://www.w3.org/2000/svg" xmlns:xlink="http://www.w3.org/1999/xlink">
<g id="graph0" class="graph" transform="scale(1 1) rotate(0) translate(4 179.75)">
<title>DGtal::concepts::CDrawableWithBoard3DTo2D&lt; T, S, KS &gt;</title>
<!-- Node1 -->
<g id="Node000001" class="node">
<title>Node1</title>
<g id="a_Node000001"><a xlink:title=" ">
<polygon fill="#999999" stroke="#666666" points="152.5,-30.5 0,-30.5 0,0 152.5,0 152.5,-30.5"/>
<text text-anchor="start" x="8" y="-17" font-family="FreeSans" font-size="10.00">DGtal::concepts::CDrawable</text>
<text text-anchor="middle" x="76.25" y="-5.75" font-family="FreeSans" font-size="10.00">WithBoard3DTo2D&lt; T, S, KS &gt;</text>
</a>
</g>
</g>
<!-- Node2 -->
<g id="Node000002" class="node">
<title>Node2</title>
<g id="a_Node000002"><a xlink:href="structDGtal_1_1concepts_1_1CDrawableWithDisplay3D.html" target="_top" xlink:title=" ">
<polygon fill="white" stroke="#666666" points="147.25,-98 5.25,-98 5.25,-67.5 147.25,-67.5 147.25,-98"/>
<text text-anchor="start" x="13.25" y="-84.5" font-family="FreeSans" font-size="10.00">DGtal::concepts::CDrawable</text>
<text text-anchor="middle" x="76.25" y="-73.25" font-family="FreeSans" font-size="10.00">WithDisplay3D&lt; T, S, KS &gt;</text>
</a>
</g>
</g>
<!-- Node2&#45;&gt;Node1 -->
<g id="edge1_Node000001_Node000002" class="edge">
<title>Node2&#45;&gt;Node1</title>
<g id="a_edge1_Node000001_Node000002"><a xlink:title=" ">
<path fill="none" stroke="#63b8ff" d="M76.25,-55.84C76.25,-47.3 76.25,-38.12 76.25,-30.75"/>
<polygon fill="#63b8ff" stroke="#63b8ff" points="72.75,-55.7 76.25,-65.7 79.75,-55.7 72.75,-55.7"/>
</a>
</g>
</g>
<!-- Node3 -->
<g id="Node000003" class="node">
<title>Node3</title>
<g id="a_Node000003"><a xlink:href="structDGtal_1_1concepts_1_1CDrawableWithDisplay3D.html" target="_top" xlink:title=" ">
<polygon fill="white" stroke="#666666" points="149.88,-175.75 2.62,-175.75 2.62,-145.25 149.88,-145.25 149.88,-175.75"/>
<text text-anchor="start" x="10.62" y="-162.25" font-family="FreeSans" font-size="10.00">DGtal::concepts::CDrawable</text>
<text text-anchor="middle" x="76.25" y="-151" font-family="FreeSans" font-size="10.00">WithDisplay3D&lt; T, Sp, KSp &gt;</text>
</a>
</g>
</g>
<!-- Node3&#45;&gt;Node2 -->
<g id="edge2_Node000002_Node000003" class="edge">
<title>Node3&#45;&gt;Node2</title>
<g id="a_edge2_Node000002_Node000003"><a xlink:title=" ">
<path fill="none" stroke="orange" stroke-dasharray="5,2" d="M76.25,-133.47C76.25,-121.71 76.25,-108.26 76.25,-98.31"/>
<polygon fill="orange" stroke="orange" points="72.75,-133.38 76.25,-143.38 79.75,-133.38 72.75,-133.38"/>
</a>
</g>
<text text-anchor="middle" x="105.12" y="-117.75" font-family="FreeSans" font-size="10.00" fill="grey"> &lt; T, S, KS &gt;</text>
</g>
</g>
</svg>
