<?xml version="1.0" encoding="UTF-8" standalone="no"?>
<!DOCTYPE svg PUBLIC "-//W3C//DTD SVG 1.1//EN"
 "http://www.w3.org/Graphics/SVG/1.1/DTD/svg11.dtd">
<!-- Generated by graphviz version 12.2.1 (20241206.2353)
 -->
<!-- Title: DGtal::concepts::CMatrix&lt; T &gt; Pages: 1 -->
<svg width="695pt" height="174pt"
 viewBox="0.00 0.00 695.25 173.88" xmlns="http://www.w3.org/2000/svg" xmlns:xlink="http://www.w3.org/1999/xlink">
<g id="graph0" class="graph" transform="scale(1 1) rotate(0) translate(4 169.88)">
<title>DGtal::concepts::CMatrix&lt; T &gt;</title>
<!-- Node1 -->
<g id="Node000001" class="node">
<title>Node1</title>
<g id="a_Node000001"><a xlink:title="Aim: Represent any static or dynamic sized matrix having sparse or dense representation.">
<polygon fill="#999999" stroke="#666666" points="471,-97.88 319.25,-97.88 319.25,-78.62 471,-78.62 471,-97.88"/>
<text text-anchor="middle" x="395.12" y="-84.38" font-family="FreeSans" font-size="10.00">DGtal::concepts::CMatrix&lt; T &gt;</text>
</a>
</g>
</g>
<!-- Node4 -->
<g id="Node000004" class="node">
<title>Node4</title>
<g id="a_Node000004"><a xlink:href="structDGtal_1_1concepts_1_1CDenseMatrix.html" target="_top" xlink:title="Aim: Represent any dynamic or static sized matrix having dense representation.">
<polygon fill="white" stroke="#666666" points="687.25,-165.88 507,-165.88 507,-146.62 687.25,-146.62 687.25,-165.88"/>
<text text-anchor="middle" x="597.12" y="-152.38" font-family="FreeSans" font-size="10.00">DGtal::concepts::CDenseMatrix&lt; T &gt;</text>
</a>
</g>
</g>
<!-- Node1&#45;&gt;Node4 -->
<g id="edge3_Node000001_Node000004" class="edge">
<title>Node1&#45;&gt;Node4</title>
<g id="a_edge3_Node000001_Node000004"><a xlink:title=" ">
<path fill="none" stroke="#63b8ff" d="M425.98,-103.46C447.93,-114.14 478.74,-128.1 507,-137.25 517.54,-140.66 528.97,-143.63 540.03,-146.14"/>
<polygon fill="#63b8ff" stroke="#63b8ff" points="427.54,-100.33 417.03,-99.04 424.44,-106.61 427.54,-100.33"/>
</a>
</g>
</g>
<!-- Node5 -->
<g id="Node000005" class="node">
<title>Node5</title>
<g id="a_Node000005"><a xlink:href="structDGtal_1_1concepts_1_1CDynamicMatrix.html" target="_top" xlink:title="Aim: Represent any dynamic sized matrix having sparse or dense representation.">
<polygon fill="white" stroke="#666666" points="667,-128.5 527.25,-128.5 527.25,-98 667,-98 667,-128.5"/>
<text text-anchor="start" x="535.25" y="-115" font-family="FreeSans" font-size="10.00">DGtal::concepts::CDynamic</text>
<text text-anchor="middle" x="597.12" y="-103.75" font-family="FreeSans" font-size="10.00">Matrix&lt; T &gt;</text>
</a>
</g>
</g>
<!-- Node1&#45;&gt;Node5 -->
<g id="edge4_Node000001_Node000005" class="edge">
<title>Node1&#45;&gt;Node5</title>
<g id="a_edge4_Node000001_Node000005"><a xlink:title=" ">
<path fill="none" stroke="#63b8ff" d="M482.64,-99.06C497.4,-100.91 512.56,-102.8 526.8,-104.58"/>
<polygon fill="#63b8ff" stroke="#63b8ff" points="483.31,-95.62 472.95,-97.85 482.44,-102.57 483.31,-95.62"/>
</a>
</g>
</g>
<!-- Node6 -->
<g id="Node000006" class="node">
<title>Node6</title>
<g id="a_Node000006"><a xlink:href="structDGtal_1_1concepts_1_1CSparseMatrix.html" target="_top" xlink:title="Aim: Represent any dynamic or static sized matrix having sparse representation.">
<polygon fill="white" stroke="#666666" points="664.38,-79.5 529.88,-79.5 529.88,-49 664.38,-49 664.38,-79.5"/>
<text text-anchor="start" x="537.88" y="-66" font-family="FreeSans" font-size="10.00">DGtal::concepts::CSparse</text>
<text text-anchor="middle" x="597.12" y="-54.75" font-family="FreeSans" font-size="10.00">Matrix&lt; T, TripletInterator &gt;</text>
</a>
</g>
</g>
<!-- Node1&#45;&gt;Node6 -->
<g id="edge5_Node000001_Node000006" class="edge">
<title>Node1&#45;&gt;Node6</title>
<g id="a_edge5_Node000001_Node000006"><a xlink:title=" ">
<path fill="none" stroke="#63b8ff" d="M482.73,-77.86C498.37,-75.98 514.45,-74.05 529.4,-72.26"/>
<polygon fill="#63b8ff" stroke="#63b8ff" points="482.47,-74.36 472.95,-79.03 483.3,-81.31 482.47,-74.36"/>
</a>
</g>
</g>
<!-- Node7 -->
<g id="Node000007" class="node">
<title>Node7</title>
<g id="a_Node000007"><a xlink:href="structDGtal_1_1concepts_1_1CStaticMatrix.html" target="_top" xlink:title="Aim: Represent any static sized matrix having sparse or dense representation.">
<polygon fill="white" stroke="#666666" points="660.25,-30.5 534,-30.5 534,0 660.25,0 660.25,-30.5"/>
<text text-anchor="start" x="542" y="-17" font-family="FreeSans" font-size="10.00">DGtal::concepts::CStatic</text>
<text text-anchor="middle" x="597.12" y="-5.75" font-family="FreeSans" font-size="10.00">Matrix&lt; T &gt;</text>
</a>
</g>
</g>
<!-- Node1&#45;&gt;Node7 -->
<g id="edge6_Node000001_Node000007" class="edge">
<title>Node1&#45;&gt;Node7</title>
<g id="a_edge6_Node000001_Node000007"><a xlink:title=" ">
<path fill="none" stroke="#63b8ff" d="M427.41,-73.36C449.38,-63.23 479.6,-49.97 507,-40.25 516.24,-36.97 526.13,-33.84 535.85,-30.96"/>
<polygon fill="#63b8ff" stroke="#63b8ff" points="426,-70.15 418.41,-77.55 428.96,-76.5 426,-70.15"/>
</a>
</g>
</g>
<!-- Node2 -->
<g id="Node000002" class="node">
<title>Node2</title>
<g id="a_Node000002"><a xlink:href="structDGtal_1_1concepts_1_1CVectorSpace.html" target="_top" xlink:title="Aim: Base concept for vector space structure.">
<polygon fill="white" stroke="#666666" points="283.25,-103.5 154,-103.5 154,-73 283.25,-73 283.25,-103.5"/>
<text text-anchor="start" x="162" y="-90" font-family="FreeSans" font-size="10.00">DGtal::concepts::CVector</text>
<text text-anchor="middle" x="218.62" y="-78.75" font-family="FreeSans" font-size="10.00">Space&lt; T &gt;</text>
</a>
</g>
</g>
<!-- Node2&#45;&gt;Node1 -->
<g id="edge1_Node000001_Node000002" class="edge">
<title>Node2&#45;&gt;Node1</title>
<g id="a_edge1_Node000001_Node000002"><a xlink:title=" ">
<path fill="none" stroke="#63b8ff" d="M295.07,-88.25C302.97,-88.25 311.01,-88.25 318.91,-88.25"/>
<polygon fill="#63b8ff" stroke="#63b8ff" points="295.13,-84.75 285.13,-88.25 295.13,-91.75 295.13,-84.75"/>
</a>
</g>
</g>
<!-- Node3 -->
<g id="Node000003" class="node">
<title>Node3</title>
<g id="a_Node000003"><a xlink:href="structboost_1_1Assignable.html" target="_top" xlink:title="Go to http://www.sgi.com/tech/stl/Assignable.html.">
<polygon fill="white" stroke="#666666" points="118,-97.88 0,-97.88 0,-78.62 118,-78.62 118,-97.88"/>
<text text-anchor="middle" x="59" y="-84.38" font-family="FreeSans" font-size="10.00">boost::Assignable&lt; T &gt;</text>
</a>
</g>
</g>
<!-- Node3&#45;&gt;Node2 -->
<g id="edge2_Node000002_Node000003" class="edge">
<title>Node3&#45;&gt;Node2</title>
<g id="a_edge2_Node000002_Node000003"><a xlink:title=" ">
<path fill="none" stroke="#63b8ff" d="M129.72,-88.25C137.64,-88.25 145.68,-88.25 153.52,-88.25"/>
<polygon fill="#63b8ff" stroke="#63b8ff" points="129.76,-84.75 119.76,-88.25 129.76,-91.75 129.76,-84.75"/>
</a>
</g>
</g>
</g>
</svg>
