<?xml version="1.0" encoding="UTF-8" standalone="no"?>
<!DOCTYPE svg PUBLIC "-//W3C//DTD SVG 1.1//EN"
 "http://www.w3.org/Graphics/SVG/1.1/DTD/svg11.dtd">
<!-- Generated by graphviz version 12.2.1 (20241206.2353)
 -->
<!-- Title: DGtal::concepts::CUnaryFunctor&lt; X, A, R &gt; Pages: 1 -->
<svg width="2123pt" height="397pt"
 viewBox="0.00 0.00 2122.75 396.50" xmlns="http://www.w3.org/2000/svg" xmlns:xlink="http://www.w3.org/1999/xlink">
<g id="graph0" class="graph" transform="scale(1 1) rotate(0) translate(4 392.5)">
<title>DGtal::concepts::CUnaryFunctor&lt; X, A, R &gt;</title>
<!-- Node1 -->
<g id="Node000001" class="node">
<title>Node1</title>
<g id="a_Node000001"><a xlink:title="Aim: Defines a unary functor, which associates arguments to results.">
<polygon fill="#999999" stroke="#666666" points="497.5,-209.5 337.5,-209.5 337.5,-179 497.5,-179 497.5,-209.5"/>
<text text-anchor="start" x="345.5" y="-196" font-family="FreeSans" font-size="10.00">DGtal::concepts::CUnaryFunctor</text>
<text text-anchor="middle" x="417.5" y="-184.75" font-family="FreeSans" font-size="10.00">&lt; X, A, R &gt;</text>
</a>
</g>
</g>
<!-- Node4 -->
<g id="Node000004" class="node">
<title>Node4</title>
<g id="a_Node000004"><a xlink:href="structDGtal_1_1concepts_1_1CUnaryFunctor.html" target="_top" xlink:title=" ">
<polygon fill="white" stroke="#666666" points="818.75,-388.5 658.75,-388.5 658.75,-358 818.75,-358 818.75,-388.5"/>
<text text-anchor="start" x="666.75" y="-375" font-family="FreeSans" font-size="10.00">DGtal::concepts::CUnaryFunctor</text>
<text text-anchor="middle" x="738.75" y="-363.75" font-family="FreeSans" font-size="10.00">&lt; T, T::Cell, T::RealPoint &gt;</text>
</a>
</g>
</g>
<!-- Node1&#45;&gt;Node4 -->
<g id="edge3_Node000001_Node000004" class="edge">
<title>Node1&#45;&gt;Node4</title>
<g id="a_edge3_Node000001_Node000004"><a xlink:title=" ">
<path fill="none" stroke="orange" stroke-dasharray="5,2" d="M428.69,-220.07C442.94,-252.56 472.06,-307.48 515.5,-335.25 557.72,-362.24 613.28,-371.74 658.29,-374.49"/>
<polygon fill="orange" stroke="orange" points="431.97,-218.84 424.85,-210.99 425.52,-221.56 431.97,-218.84"/>
</a>
</g>
<text text-anchor="middle" x="578.12" y="-374.36" font-family="FreeSans" font-size="10.00" fill="grey"> &lt; T, T::Cell, T::RealPoint &gt;</text>
</g>
<!-- Node6 -->
<g id="Node000006" class="node">
<title>Node6</title>
<g id="a_Node000006"><a xlink:href="structDGtal_1_1concepts_1_1CUnaryFunctor.html" target="_top" xlink:title=" ">
<polygon fill="white" stroke="#666666" points="818.75,-339.5 658.75,-339.5 658.75,-309 818.75,-309 818.75,-339.5"/>
<text text-anchor="start" x="666.75" y="-326" font-family="FreeSans" font-size="10.00">DGtal::concepts::CUnaryFunctor</text>
<text text-anchor="middle" x="738.75" y="-314.75" font-family="FreeSans" font-size="10.00">&lt; T, T::Point, T::RealPoint &gt;</text>
</a>
</g>
</g>
<!-- Node1&#45;&gt;Node6 -->
<g id="edge5_Node000001_Node000006" class="edge">
<title>Node1&#45;&gt;Node6</title>
<g id="a_edge5_Node000001_Node000006"><a xlink:title=" ">
<path fill="none" stroke="orange" stroke-dasharray="5,2" d="M437.14,-218.73C454.86,-240.13 483.5,-270.23 515.5,-286.25 559.69,-308.37 614.35,-317.92 658.4,-321.91"/>
<polygon fill="orange" stroke="orange" points="439.96,-216.65 430.96,-211.05 434.5,-221.04 439.96,-216.65"/>
</a>
</g>
<text text-anchor="middle" x="578.12" y="-321.49" font-family="FreeSans" font-size="10.00" fill="grey"> &lt; T, T::Point, T::RealPoint &gt;</text>
</g>
<!-- Node8 -->
<g id="Node000008" class="node">
<title>Node8</title>
<g id="a_Node000008"><a xlink:href="structDGtal_1_1concepts_1_1CUnaryFunctor.html" target="_top" xlink:title=" ">
<polygon fill="white" stroke="#666666" points="818.75,-290.5 658.75,-290.5 658.75,-260 818.75,-260 818.75,-290.5"/>
<text text-anchor="start" x="666.75" y="-277" font-family="FreeSans" font-size="10.00">DGtal::concepts::CUnaryFunctor</text>
<text text-anchor="middle" x="738.75" y="-265.75" font-family="FreeSans" font-size="10.00">&lt; T, T::Point, T::Value &gt;</text>
</a>
</g>
</g>
<!-- Node1&#45;&gt;Node8 -->
<g id="edge7_Node000001_Node000008" class="edge">
<title>Node1&#45;&gt;Node8</title>
<g id="a_edge7_Node000001_Node000008"><a xlink:title=" ">
<path fill="none" stroke="orange" stroke-dasharray="5,2" d="M450.83,-215.92C469.06,-227.09 492.7,-239.88 515.5,-247.25 561.48,-262.11 615.18,-269.15 658.28,-272.45"/>
<polygon fill="orange" stroke="orange" points="452.91,-213.09 442.58,-210.73 449.18,-219.02 452.91,-213.09"/>
</a>
</g>
<text text-anchor="middle" x="578.12" y="-272.65" font-family="FreeSans" font-size="10.00" fill="grey"> &lt; T, T::Point, T::Value &gt;</text>
</g>
<!-- Node17 -->
<g id="Node000017" class="node">
<title>Node17</title>
<g id="a_Node000017"><a xlink:href="structDGtal_1_1concepts_1_1CUnaryFunctor.html" target="_top" xlink:title=" ">
<polygon fill="white" stroke="#666666" points="996.75,-214.5 836.75,-214.5 836.75,-184 996.75,-184 996.75,-214.5"/>
<text text-anchor="start" x="844.75" y="-201" font-family="FreeSans" font-size="10.00">DGtal::concepts::CUnaryFunctor</text>
<text text-anchor="middle" x="916.75" y="-189.75" font-family="FreeSans" font-size="10.00">&lt; T, T::Point, bool &gt;</text>
</a>
</g>
</g>
<!-- Node1&#45;&gt;Node17 -->
<g id="edge17_Node000001_Node000017" class="edge">
<title>Node1&#45;&gt;Node17</title>
<g id="a_edge17_Node000001_Node000017"><a xlink:title=" ">
<path fill="none" stroke="orange" stroke-dasharray="5,2" d="M509.27,-195.16C602.79,-196.1 747.13,-197.55 836.28,-198.45"/>
<polygon fill="orange" stroke="orange" points="509.39,-191.66 499.35,-195.06 509.32,-198.66 509.39,-191.66"/>
</a>
</g>
<text text-anchor="middle" x="578.12" y="-198.18" font-family="FreeSans" font-size="10.00" fill="grey"> &lt; T, T::Point, bool &gt;</text>
</g>
<!-- Node21 -->
<g id="Node000021" class="node">
<title>Node21</title>
<g id="a_Node000021"><a xlink:href="structDGtal_1_1concepts_1_1CUnaryFunctor.html" target="_top" xlink:title=" ">
<polygon fill="white" stroke="#666666" points="818.75,-166.5 658.75,-166.5 658.75,-136 818.75,-136 818.75,-166.5"/>
<text text-anchor="start" x="666.75" y="-153" font-family="FreeSans" font-size="10.00">DGtal::concepts::CUnaryFunctor</text>
<text text-anchor="middle" x="738.75" y="-141.75" font-family="FreeSans" font-size="10.00">&lt; T, TElement, bool &gt;</text>
</a>
</g>
</g>
<!-- Node1&#45;&gt;Node21 -->
<g id="edge21_Node000001_Node000021" class="edge">
<title>Node1&#45;&gt;Node21</title>
<g id="a_edge21_Node000001_Node000021"><a xlink:title=" ">
<path fill="none" stroke="orange" stroke-dasharray="5,2" d="M466.84,-174.64C482.15,-169.26 499.31,-164.06 515.5,-161 562.37,-152.13 615.74,-149.55 658.43,-149.25"/>
<polygon fill="orange" stroke="orange" points="465.68,-171.34 457.48,-178.05 468.07,-177.92 465.68,-171.34"/>
</a>
</g>
<text text-anchor="middle" x="578.12" y="-162.75" font-family="FreeSans" font-size="10.00" fill="grey"> &lt; T, TElement, bool &gt;</text>
</g>
<!-- Node27 -->
<g id="Node000027" class="node">
<title>Node27</title>
<g id="a_Node000027"><a xlink:href="structDGtal_1_1concepts_1_1CUnaryFunctor.html" target="_top" xlink:title=" ">
<polygon fill="white" stroke="#666666" points="818.75,-34.5 658.75,-34.5 658.75,-4 818.75,-4 818.75,-34.5"/>
<text text-anchor="start" x="666.75" y="-21" font-family="FreeSans" font-size="10.00">DGtal::concepts::CUnaryFunctor</text>
<text text-anchor="middle" x="738.75" y="-9.75" font-family="FreeSans" font-size="10.00">&lt; T, T::SCell, T::RealPoint &gt;</text>
</a>
</g>
</g>
<!-- Node1&#45;&gt;Node27 -->
<g id="edge28_Node000001_Node000027" class="edge">
<title>Node1&#45;&gt;Node27</title>
<g id="a_edge28_Node000001_Node000027"><a xlink:title=" ">
<path fill="none" stroke="orange" stroke-dasharray="5,2" d="M425.58,-167.96C437.29,-130.2 464.62,-61.76 515.5,-31 557.82,-5.41 613.39,-2.48 658.37,-5.93"/>
<polygon fill="orange" stroke="orange" points="422.33,-166.59 422.86,-177.17 429.05,-168.57 422.33,-166.59"/>
</a>
</g>
<text text-anchor="middle" x="578.12" y="-32.75" font-family="FreeSans" font-size="10.00" fill="grey"> &lt; T, T::SCell, T::RealPoint &gt;</text>
</g>
<!-- Node30 -->
<g id="Node000030" class="node">
<title>Node30</title>
<g id="a_Node000030"><a xlink:href="structDGtal_1_1concepts_1_1CUnaryFunctor.html" target="_top" xlink:title=" ">
<polygon fill="white" stroke="#666666" points="996.75,-74.5 836.75,-74.5 836.75,-44 996.75,-44 996.75,-74.5"/>
<text text-anchor="start" x="844.75" y="-61" font-family="FreeSans" font-size="10.00">DGtal::concepts::CUnaryFunctor</text>
<text text-anchor="middle" x="916.75" y="-49.75" font-family="FreeSans" font-size="10.00">&lt; T, T::Surfel, bool &gt;</text>
</a>
</g>
</g>
<!-- Node1&#45;&gt;Node30 -->
<g id="edge31_Node000001_Node000030" class="edge">
<title>Node1&#45;&gt;Node30</title>
<g id="a_edge31_Node000001_Node000030"><a xlink:title=" ">
<path fill="none" stroke="orange" stroke-dasharray="5,2" d="M434.03,-169.42C450.82,-145 480.01,-109 515.5,-92 618.15,-42.83 752.65,-43.05 836.63,-49.67"/>
<polygon fill="orange" stroke="orange" points="431.27,-167.24 428.65,-177.51 437.1,-171.12 431.27,-167.24"/>
</a>
</g>
<text text-anchor="middle" x="578.12" y="-93.75" font-family="FreeSans" font-size="10.00" fill="grey"> &lt; T, T::Surfel, bool &gt;</text>
</g>
<!-- Node31 -->
<g id="Node000031" class="node">
<title>Node31</title>
<g id="a_Node000031"><a xlink:href="structDGtal_1_1concepts_1_1CUnaryFunctor.html" target="_top" xlink:title=" ">
<polygon fill="white" stroke="#666666" points="996.75,-255.5 836.75,-255.5 836.75,-225 996.75,-225 996.75,-255.5"/>
<text text-anchor="start" x="844.75" y="-242" font-family="FreeSans" font-size="10.00">DGtal::concepts::CUnaryFunctor</text>
<text text-anchor="middle" x="916.75" y="-230.75" font-family="FreeSans" font-size="10.00">&lt; I, I::Point, I::Value &gt;</text>
</a>
</g>
</g>
<!-- Node1&#45;&gt;Node31 -->
<g id="edge33_Node000001_Node000031" class="edge">
<title>Node1&#45;&gt;Node31</title>
<g id="a_edge33_Node000001_Node000031"><a xlink:title=" ">
<path fill="none" stroke="orange" stroke-dasharray="5,2" d="M509.22,-209.47C511.34,-209.74 513.43,-210 515.5,-210.25 626.55,-223.54 755.68,-231.96 836.57,-236.39"/>
<polygon fill="orange" stroke="orange" points="509.7,-206 499.32,-208.13 508.76,-212.94 509.7,-206"/>
</a>
</g>
<text text-anchor="middle" x="578.12" y="-223.96" font-family="FreeSans" font-size="10.00" fill="grey"> &lt; I, I::Point, I::Value &gt;</text>
</g>
<!-- Node32 -->
<g id="Node000032" class="node">
<title>Node32</title>
<g id="a_Node000032"><a xlink:href="structDGtal_1_1concepts_1_1CUnaryFunctor.html" target="_top" xlink:title=" ">
<polygon fill="white" stroke="#666666" points="996.75,-120.5 836.75,-120.5 836.75,-90 996.75,-90 996.75,-120.5"/>
<text text-anchor="start" x="844.75" y="-107" font-family="FreeSans" font-size="10.00">DGtal::concepts::CUnaryFunctor</text>
<text text-anchor="middle" x="916.75" y="-95.75" font-family="FreeSans" font-size="10.00">&lt; T, T::Vertex, bool &gt;</text>
</a>
</g>
</g>
<!-- Node1&#45;&gt;Node32 -->
<g id="edge35_Node000001_Node000032" class="edge">
<title>Node1&#45;&gt;Node32</title>
<g id="a_edge35_Node000001_Node000032"><a xlink:title=" ">
<path fill="none" stroke="orange" stroke-dasharray="5,2" d="M446.15,-171.99C464.63,-158.45 490.13,-142.23 515.5,-134 622.68,-99.22 754.21,-96.91 836.53,-99.93"/>
<polygon fill="orange" stroke="orange" points="444.25,-169.04 438.37,-177.86 448.46,-174.63 444.25,-169.04"/>
</a>
</g>
<text text-anchor="middle" x="578.12" y="-135.75" font-family="FreeSans" font-size="10.00" fill="grey"> &lt; T, T::Vertex, bool &gt;</text>
</g>
<!-- Node2 -->
<g id="Node000002" class="node">
<title>Node2</title>
<g id="a_Node000002"><a xlink:href="structboost_1_1Assignable.html" target="_top" xlink:title=" ">
<polygon fill="white" stroke="#666666" points="300.5,-203.88 181.75,-203.88 181.75,-184.62 300.5,-184.62 300.5,-203.88"/>
<text text-anchor="middle" x="241.12" y="-190.38" font-family="FreeSans" font-size="10.00">boost::Assignable&lt; X &gt;</text>
</a>
</g>
</g>
<!-- Node2&#45;&gt;Node1 -->
<g id="edge1_Node000001_Node000002" class="edge">
<title>Node2&#45;&gt;Node1</title>
<g id="a_edge1_Node000001_Node000002"><a xlink:title=" ">
<path fill="none" stroke="#63b8ff" d="M312.1,-194.25C320.3,-194.25 328.72,-194.25 337.04,-194.25"/>
<polygon fill="#63b8ff" stroke="#63b8ff" points="312.19,-190.75 302.19,-194.25 312.19,-197.75 312.19,-190.75"/>
</a>
</g>
</g>
<!-- Node3 -->
<g id="Node000003" class="node">
<title>Node3</title>
<g id="a_Node000003"><a xlink:href="structboost_1_1Assignable.html" target="_top" xlink:title="Go to http://www.sgi.com/tech/stl/Assignable.html.">
<polygon fill="white" stroke="#666666" points="118,-203.88 0,-203.88 0,-184.62 118,-184.62 118,-203.88"/>
<text text-anchor="middle" x="59" y="-190.38" font-family="FreeSans" font-size="10.00">boost::Assignable&lt; T &gt;</text>
</a>
</g>
</g>
<!-- Node3&#45;&gt;Node2 -->
<g id="edge2_Node000002_Node000003" class="edge">
<title>Node3&#45;&gt;Node2</title>
<g id="a_edge2_Node000002_Node000003"><a xlink:title=" ">
<path fill="none" stroke="orange" stroke-dasharray="5,2" d="M129.54,-194.25C146.64,-194.25 164.78,-194.25 181.32,-194.25"/>
<polygon fill="orange" stroke="orange" points="130,-190.75 119.99,-194.25 129.99,-197.75 130,-190.75"/>
</a>
</g>
<text text-anchor="middle" x="149.88" y="-196" font-family="FreeSans" font-size="10.00" fill="grey"> &lt; X &gt;</text>
</g>
<!-- Node5 -->
<g id="Node000005" class="node">
<title>Node5</title>
<g id="a_Node000005"><a xlink:href="structDGtal_1_1concepts_1_1CCellEmbedder.html" target="_top" xlink:title="Aim: A cell embedder is a mapping from unsigned cells to Euclidean points. It adds inner types to fun...">
<polygon fill="white" stroke="#666666" points="1204.38,-382.88 1018.12,-382.88 1018.12,-363.62 1204.38,-363.62 1204.38,-382.88"/>
<text text-anchor="middle" x="1111.25" y="-369.38" font-family="FreeSans" font-size="10.00">DGtal::concepts::CCellEmbedder&lt; T &gt;</text>
</a>
</g>
</g>
<!-- Node4&#45;&gt;Node5 -->
<g id="edge4_Node000004_Node000005" class="edge">
<title>Node4&#45;&gt;Node5</title>
<g id="a_edge4_Node000004_Node000005"><a xlink:title=" ">
<path fill="none" stroke="#63b8ff" d="M830.39,-373.25C887.33,-373.25 960.56,-373.25 1017.83,-373.25"/>
<polygon fill="#63b8ff" stroke="#63b8ff" points="830.75,-369.75 820.75,-373.25 830.75,-376.75 830.75,-369.75"/>
</a>
</g>
</g>
<!-- Node7 -->
<g id="Node000007" class="node">
<title>Node7</title>
<g id="a_Node000007"><a xlink:href="structDGtal_1_1concepts_1_1CPointEmbedder.html" target="_top" xlink:title="Aim: A point embedder is a mapping from digital points to Euclidean points. It adds inner types to fu...">
<polygon fill="white" stroke="#666666" points="1207,-333.88 1015.5,-333.88 1015.5,-314.62 1207,-314.62 1207,-333.88"/>
<text text-anchor="middle" x="1111.25" y="-320.38" font-family="FreeSans" font-size="10.00">DGtal::concepts::CPointEmbedder&lt; T &gt;</text>
</a>
</g>
</g>
<!-- Node6&#45;&gt;Node7 -->
<g id="edge6_Node000006_Node000007" class="edge">
<title>Node6&#45;&gt;Node7</title>
<g id="a_edge6_Node000006_Node000007"><a xlink:title=" ">
<path fill="none" stroke="#63b8ff" d="M830.58,-324.25C886.6,-324.25 958.34,-324.25 1015.14,-324.25"/>
<polygon fill="#63b8ff" stroke="#63b8ff" points="830.75,-320.75 820.75,-324.25 830.75,-327.75 830.75,-320.75"/>
</a>
</g>
</g>
<!-- Node9 -->
<g id="Node000009" class="node">
<title>Node9</title>
<g id="a_Node000009"><a xlink:href="structDGtal_1_1concepts_1_1CPointFunctor.html" target="_top" xlink:title="Aim: Defines a functor on points.">
<polygon fill="white" stroke="#666666" points="1201.38,-296.88 1021.12,-296.88 1021.12,-277.62 1201.38,-277.62 1201.38,-296.88"/>
<text text-anchor="middle" x="1111.25" y="-283.38" font-family="FreeSans" font-size="10.00">DGtal::concepts::CPointFunctor&lt; T &gt;</text>
</a>
</g>
</g>
<!-- Node8&#45;&gt;Node9 -->
<g id="edge8_Node000008_Node000009" class="edge">
<title>Node8&#45;&gt;Node9</title>
<g id="a_edge8_Node000008_Node000009"><a xlink:title=" ">
<path fill="none" stroke="#63b8ff" d="M830.58,-278.19C888.48,-280.07 963.19,-282.49 1020.82,-284.35"/>
<polygon fill="#63b8ff" stroke="#63b8ff" points="830.85,-274.7 820.74,-277.87 830.63,-281.7 830.85,-274.7"/>
</a>
</g>
</g>
<!-- Node10 -->
<g id="Node000010" class="node">
<title>Node10</title>
<g id="a_Node000010"><a xlink:href="structDGtal_1_1concepts_1_1COrientationFunctor.html" target="_top" xlink:title="Aim: This concept gathers models implementing an orientation test of &#160;points in a space of dimension ...">
<polygon fill="white" stroke="#666666" points="1476.88,-323.5 1328.88,-323.5 1328.88,-293 1476.88,-293 1476.88,-323.5"/>
<text text-anchor="start" x="1336.88" y="-310" font-family="FreeSans" font-size="10.00">DGtal::concepts::COrientation</text>
<text text-anchor="middle" x="1402.88" y="-298.75" font-family="FreeSans" font-size="10.00">Functor&lt; T &gt;</text>
</a>
</g>
</g>
<!-- Node9&#45;&gt;Node10 -->
<g id="edge9_Node000009_Node000010" class="edge">
<title>Node9&#45;&gt;Node10</title>
<g id="a_edge9_Node000009_Node000010"><a xlink:title=" ">
<path fill="none" stroke="#63b8ff" d="M1212.64,-294.53C1250.72,-297.29 1293.33,-300.38 1328.46,-302.93"/>
<polygon fill="#63b8ff" stroke="#63b8ff" points="1213.25,-291.06 1203.02,-293.83 1212.74,-298.05 1213.25,-291.06"/>
</a>
</g>
</g>
<!-- Node12 -->
<g id="Node000012" class="node">
<title>Node12</title>
<g id="a_Node000012"><a xlink:href="structDGtal_1_1concepts_1_1CPointFunctor.html" target="_top" xlink:title=" ">
<polygon fill="white" stroke="#666666" points="1491.5,-266.88 1314.25,-266.88 1314.25,-247.62 1491.5,-247.62 1491.5,-266.88"/>
<text text-anchor="middle" x="1402.88" y="-253.38" font-family="FreeSans" font-size="10.00">DGtal::concepts::CPointFunctor&lt; I &gt;</text>
</a>
</g>
</g>
<!-- Node9&#45;&gt;Node12 -->
<g id="edge11_Node000009_Node000012" class="edge">
<title>Node9&#45;&gt;Node12</title>
<g id="a_edge11_Node000009_Node000012"><a xlink:title=" ">
<path fill="none" stroke="orange" stroke-dasharray="5,2" d="M1212.55,-276.86C1245.53,-273.44 1281.92,-269.68 1313.9,-266.36"/>
<polygon fill="orange" stroke="orange" points="1212.6,-273.34 1203.02,-277.85 1213.32,-280.3 1212.6,-273.34"/>
</a>
</g>
<text text-anchor="middle" x="1261" y="-276.69" font-family="FreeSans" font-size="10.00" fill="grey"> &lt; I &gt;</text>
</g>
<!-- Node11 -->
<g id="Node000011" class="node">
<title>Node11</title>
<g id="a_Node000011"><a xlink:href="structDGtal_1_1concepts_1_1COrientationFunctor2.html" target="_top" xlink:title="Aim: This concept is a refinement of COrientationFunctor, useful for simple algebraic curves that can...">
<polygon fill="white" stroke="#666666" points="1696.75,-323.5 1548.75,-323.5 1548.75,-293 1696.75,-293 1696.75,-323.5"/>
<text text-anchor="start" x="1556.75" y="-310" font-family="FreeSans" font-size="10.00">DGtal::concepts::COrientation</text>
<text text-anchor="middle" x="1622.75" y="-298.75" font-family="FreeSans" font-size="10.00">Functor2&lt; T &gt;</text>
</a>
</g>
</g>
<!-- Node10&#45;&gt;Node11 -->
<g id="edge10_Node000010_Node000011" class="edge">
<title>Node10&#45;&gt;Node11</title>
<g id="a_edge10_Node000010_Node000011"><a xlink:title=" ">
<path fill="none" stroke="#63b8ff" d="M1488.81,-308.25C1508.56,-308.25 1529.42,-308.25 1548.61,-308.25"/>
<polygon fill="#63b8ff" stroke="#63b8ff" points="1488.85,-304.75 1478.85,-308.25 1488.85,-311.75 1488.85,-304.75"/>
</a>
</g>
</g>
<!-- Node13 -->
<g id="Node000013" class="node">
<title>Node13</title>
<g id="a_Node000013"><a xlink:href="structDGtal_1_1concepts_1_1CTrivialConstImage.html" target="_top" xlink:title="Aim: Defines the concept describing a read&#45;only image, which is a refinement of CPointFunctor.">
<polygon fill="white" stroke="#666666" points="1686.25,-272.5 1559.25,-272.5 1559.25,-242 1686.25,-242 1686.25,-272.5"/>
<text text-anchor="start" x="1567.25" y="-259" font-family="FreeSans" font-size="10.00">DGtal::concepts::CTrivial</text>
<text text-anchor="middle" x="1622.75" y="-247.75" font-family="FreeSans" font-size="10.00">ConstImage&lt; I &gt;</text>
</a>
</g>
</g>
<!-- Node12&#45;&gt;Node13 -->
<g id="edge12_Node000012_Node000013" class="edge">
<title>Node12&#45;&gt;Node13</title>
<g id="a_edge12_Node000012_Node000013"><a xlink:title=" ">
<path fill="none" stroke="#63b8ff" d="M1503.26,-257.25C1522.18,-257.25 1541.49,-257.25 1558.88,-257.25"/>
<polygon fill="#63b8ff" stroke="#63b8ff" points="1503.38,-253.75 1493.38,-257.25 1503.38,-260.75 1503.38,-253.75"/>
</a>
</g>
</g>
<!-- Node14 -->
<g id="Node000014" class="node">
<title>Node14</title>
<g id="a_Node000014"><a xlink:href="structDGtal_1_1concepts_1_1CConstImage.html" target="_top" xlink:title="Aim: Defines the concept describing a read&#45;only image, which is a refinement of CPointFunctor.">
<polygon fill="white" stroke="#666666" points="1929,-239.88 1754,-239.88 1754,-220.62 1929,-220.62 1929,-239.88"/>
<text text-anchor="middle" x="1841.5" y="-226.38" font-family="FreeSans" font-size="10.00">DGtal::concepts::CConstImage&lt; I &gt;</text>
</a>
</g>
</g>
<!-- Node13&#45;&gt;Node14 -->
<g id="edge13_Node000013_Node000014" class="edge">
<title>Node13&#45;&gt;Node14</title>
<g id="a_edge13_Node000013_Node000014"><a xlink:title=" ">
<path fill="none" stroke="#63b8ff" d="M1697.89,-248.01C1717.76,-245.54 1739.34,-242.85 1759.56,-240.33"/>
<polygon fill="#63b8ff" stroke="#63b8ff" points="1697.73,-244.51 1688.24,-249.22 1698.59,-251.45 1697.73,-244.51"/>
</a>
</g>
</g>
<!-- Node16 -->
<g id="Node000016" class="node">
<title>Node16</title>
<g id="a_Node000016"><a xlink:href="structDGtal_1_1concepts_1_1CTrivialImage.html" target="_top" xlink:title="Aim: Defines the concept describing an image without extra ranges, which is a refinement of CTrivialC...">
<polygon fill="white" stroke="#666666" points="1905,-288.5 1778,-288.5 1778,-258 1905,-258 1905,-288.5"/>
<text text-anchor="start" x="1786" y="-275" font-family="FreeSans" font-size="10.00">DGtal::concepts::CTrivial</text>
<text text-anchor="middle" x="1841.5" y="-263.75" font-family="FreeSans" font-size="10.00">Image&lt; I &gt;</text>
</a>
</g>
</g>
<!-- Node13&#45;&gt;Node16 -->
<g id="edge15_Node000013_Node000016" class="edge">
<title>Node13&#45;&gt;Node16</title>
<g id="a_edge15_Node000013_Node000016"><a xlink:title=" ">
<path fill="none" stroke="#63b8ff" d="M1698.04,-262.73C1723.98,-264.65 1752.82,-266.78 1777.73,-268.62"/>
<polygon fill="#63b8ff" stroke="#63b8ff" points="1698.47,-259.26 1688.24,-262.01 1697.96,-266.24 1698.47,-259.26"/>
</a>
</g>
</g>
<!-- Node15 -->
<g id="Node000015" class="node">
<title>Node15</title>
<g id="a_Node000015"><a xlink:href="structDGtal_1_1concepts_1_1CImage.html" target="_top" xlink:title="Aim: Defines the concept describing a read/write image, having an output iterator.">
<polygon fill="white" stroke="#666666" points="2114.75,-260.88 1966,-260.88 1966,-241.62 2114.75,-241.62 2114.75,-260.88"/>
<text text-anchor="middle" x="2040.38" y="-247.38" font-family="FreeSans" font-size="10.00">DGtal::concepts::CImage&lt; I &gt;</text>
</a>
</g>
</g>
<!-- Node14&#45;&gt;Node15 -->
<g id="edge14_Node000014_Node000015" class="edge">
<title>Node14&#45;&gt;Node15</title>
<g id="a_edge14_Node000014_Node000015"><a xlink:title=" ">
<path fill="none" stroke="#63b8ff" d="M1940.77,-240.73C1949.11,-241.62 1957.44,-242.51 1965.55,-243.37"/>
<polygon fill="#63b8ff" stroke="#63b8ff" points="1941.25,-237.26 1930.93,-239.68 1940.5,-244.22 1941.25,-237.26"/>
</a>
</g>
</g>
<!-- Node16&#45;&gt;Node15 -->
<g id="edge16_Node000016_Node000015" class="edge">
<title>Node16&#45;&gt;Node15</title>
<g id="a_edge16_Node000016_Node000015"><a xlink:title=" ">
<path fill="none" stroke="#63b8ff" d="M1916.36,-265C1932.53,-263.19 1949.65,-261.28 1965.81,-259.47"/>
<polygon fill="#63b8ff" stroke="#63b8ff" points="1916.39,-261.47 1906.84,-266.06 1917.16,-268.43 1916.39,-261.47"/>
</a>
</g>
</g>
<!-- Node18 -->
<g id="Node000018" class="node">
<title>Node18</title>
<g id="a_Node000018"><a xlink:href="structDGtal_1_1concepts_1_1CPredicate.html" target="_top" xlink:title=" ">
<polygon fill="white" stroke="#666666" points="1473.88,-201.5 1331.88,-201.5 1331.88,-171 1473.88,-171 1473.88,-201.5"/>
<text text-anchor="start" x="1339.88" y="-188" font-family="FreeSans" font-size="10.00">DGtal::concepts::CPredicate</text>
<text text-anchor="middle" x="1402.88" y="-176.75" font-family="FreeSans" font-size="10.00">&lt; T, T::Point &gt;</text>
</a>
</g>
</g>
<!-- Node17&#45;&gt;Node18 -->
<g id="edge18_Node000017_Node000018" class="edge">
<title>Node17&#45;&gt;Node18</title>
<g id="a_edge18_Node000017_Node000018"><a xlink:title=" ">
<path fill="none" stroke="#63b8ff" d="M1008.59,-196.81C1102.21,-194.3 1246.16,-190.43 1331.49,-188.14"/>
<polygon fill="#63b8ff" stroke="#63b8ff" points="1008.57,-193.31 998.66,-197.08 1008.75,-200.31 1008.57,-193.31"/>
</a>
</g>
</g>
<!-- Node19 -->
<g id="Node000019" class="node">
<title>Node19</title>
<g id="a_Node000019"><a xlink:href="structDGtal_1_1concepts_1_1CPointPredicate.html" target="_top" xlink:title="Aim: Defines a predicate on a point.">
<polygon fill="white" stroke="#666666" points="1717,-195.88 1528.5,-195.88 1528.5,-176.62 1717,-176.62 1717,-195.88"/>
<text text-anchor="middle" x="1622.75" y="-182.38" font-family="FreeSans" font-size="10.00">DGtal::concepts::CPointPredicate&lt; T &gt;</text>
</a>
</g>
</g>
<!-- Node18&#45;&gt;Node19 -->
<g id="edge19_Node000018_Node000019" class="edge">
<title>Node18&#45;&gt;Node19</title>
<g id="a_edge19_Node000018_Node000019"><a xlink:title=" ">
<path fill="none" stroke="#63b8ff" d="M1485.76,-186.25C1499.59,-186.25 1514.04,-186.25 1528.14,-186.25"/>
<polygon fill="#63b8ff" stroke="#63b8ff" points="1485.83,-182.75 1475.83,-186.25 1485.83,-189.75 1485.83,-182.75"/>
</a>
</g>
</g>
<!-- Node20 -->
<g id="Node000020" class="node">
<title>Node20</title>
<g id="a_Node000020"><a xlink:href="structDGtal_1_1concepts_1_1CDigitalSet.html" target="_top" xlink:title="Aim: Represents a set of points within the given domain. This set of points is modifiable by the user...">
<polygon fill="white" stroke="#666666" points="1905.75,-201.5 1777.25,-201.5 1777.25,-171 1905.75,-171 1905.75,-201.5"/>
<text text-anchor="start" x="1785.25" y="-188" font-family="FreeSans" font-size="10.00">DGtal::concepts::CDigital</text>
<text text-anchor="middle" x="1841.5" y="-176.75" font-family="FreeSans" font-size="10.00">Set&lt; T &gt;</text>
</a>
</g>
</g>
<!-- Node19&#45;&gt;Node20 -->
<g id="edge20_Node000019_Node000020" class="edge">
<title>Node19&#45;&gt;Node20</title>
<g id="a_edge20_Node000019_Node000020"><a xlink:title=" ">
<path fill="none" stroke="#63b8ff" d="M1728.64,-186.25C1745.16,-186.25 1761.78,-186.25 1776.98,-186.25"/>
<polygon fill="#63b8ff" stroke="#63b8ff" points="1728.76,-182.75 1718.76,-186.25 1728.76,-189.75 1728.76,-182.75"/>
</a>
</g>
</g>
<!-- Node22 -->
<g id="Node000022" class="node">
<title>Node22</title>
<g id="a_Node000022"><a xlink:href="structDGtal_1_1concepts_1_1CPredicate.html" target="_top" xlink:title="Aim: Defines a predicate function, ie. a functor mapping a domain into the set of booleans.">
<polygon fill="white" stroke="#666666" points="1182.25,-166.5 1040.25,-166.5 1040.25,-136 1182.25,-136 1182.25,-166.5"/>
<text text-anchor="start" x="1048.25" y="-153" font-family="FreeSans" font-size="10.00">DGtal::concepts::CPredicate</text>
<text text-anchor="middle" x="1111.25" y="-141.75" font-family="FreeSans" font-size="10.00">&lt; T, TElement &gt;</text>
</a>
</g>
</g>
<!-- Node21&#45;&gt;Node22 -->
<g id="edge22_Node000021_Node000022" class="edge">
<title>Node21&#45;&gt;Node22</title>
<g id="a_edge22_Node000021_Node000022"><a xlink:title=" ">
<path fill="none" stroke="#63b8ff" d="M830.62,-151.25C895.18,-151.25 980.59,-151.25 1039.96,-151.25"/>
<polygon fill="#63b8ff" stroke="#63b8ff" points="830.75,-147.75 820.75,-151.25 830.75,-154.75 830.75,-147.75"/>
</a>
</g>
</g>
<!-- Node22&#45;&gt;Node18 -->
<g id="edge23_Node000022_Node000018" class="edge">
<title>Node22&#45;&gt;Node18</title>
<g id="a_edge23_Node000022_Node000018"><a xlink:title=" ">
<path fill="none" stroke="orange" stroke-dasharray="5,2" d="M1194.11,-161.14C1237.44,-166.38 1290.11,-172.74 1331.58,-177.76"/>
<polygon fill="orange" stroke="orange" points="1194.58,-157.67 1184.23,-159.95 1193.74,-164.62 1194.58,-157.67"/>
</a>
</g>
<text text-anchor="middle" x="1261" y="-174.66" font-family="FreeSans" font-size="10.00" fill="grey"> &lt; T, T::Point &gt;</text>
</g>
<!-- Node23 -->
<g id="Node000023" class="node">
<title>Node23</title>
<g id="a_Node000023"><a xlink:href="structDGtal_1_1concepts_1_1CPredicate.html" target="_top" xlink:title=" ">
<polygon fill="white" stroke="#666666" points="1473.88,-87.5 1331.88,-87.5 1331.88,-57 1473.88,-57 1473.88,-87.5"/>
<text text-anchor="start" x="1339.88" y="-74" font-family="FreeSans" font-size="10.00">DGtal::concepts::CPredicate</text>
<text text-anchor="middle" x="1402.88" y="-62.75" font-family="FreeSans" font-size="10.00">&lt; T, T::Surfel &gt;</text>
</a>
</g>
</g>
<!-- Node22&#45;&gt;Node23 -->
<g id="edge24_Node000022_Node000023" class="edge">
<title>Node22&#45;&gt;Node23</title>
<g id="a_edge24_Node000022_Node000023"><a xlink:title=" ">
<path fill="none" stroke="orange" stroke-dasharray="5,2" d="M1180.82,-132.55C1230.66,-118.95 1297.36,-100.76 1344.42,-87.92"/>
<polygon fill="orange" stroke="orange" points="1180,-129.14 1171.28,-135.15 1181.85,-135.89 1180,-129.14"/>
</a>
</g>
<text text-anchor="middle" x="1261" y="-120.58" font-family="FreeSans" font-size="10.00" fill="grey"> &lt; T, T::Surfel &gt;</text>
</g>
<!-- Node25 -->
<g id="Node000025" class="node">
<title>Node25</title>
<g id="a_Node000025"><a xlink:href="structDGtal_1_1concepts_1_1CPredicate.html" target="_top" xlink:title=" ">
<polygon fill="white" stroke="#666666" points="1473.88,-148.5 1331.88,-148.5 1331.88,-118 1473.88,-118 1473.88,-148.5"/>
<text text-anchor="start" x="1339.88" y="-135" font-family="FreeSans" font-size="10.00">DGtal::concepts::CPredicate</text>
<text text-anchor="middle" x="1402.88" y="-123.75" font-family="FreeSans" font-size="10.00">&lt; T, T::Vertex &gt;</text>
</a>
</g>
</g>
<!-- Node22&#45;&gt;Node25 -->
<g id="edge26_Node000022_Node000025" class="edge">
<title>Node22&#45;&gt;Node25</title>
<g id="a_edge26_Node000022_Node000025"><a xlink:title=" ">
<path fill="none" stroke="orange" stroke-dasharray="5,2" d="M1194.11,-146.16C1237.44,-143.47 1290.11,-140.2 1331.58,-137.62"/>
<polygon fill="orange" stroke="orange" points="1194,-142.66 1184.24,-146.78 1194.44,-149.65 1194,-142.66"/>
</a>
</g>
<text text-anchor="middle" x="1261" y="-145.61" font-family="FreeSans" font-size="10.00" fill="grey"> &lt; T, T::Vertex &gt;</text>
</g>
<!-- Node24 -->
<g id="Node000024" class="node">
<title>Node24</title>
<g id="a_Node000024"><a xlink:href="structDGtal_1_1concepts_1_1CSurfelPredicate.html" target="_top" xlink:title="Aim: Defines a predicate on a surfel.">
<polygon fill="white" stroke="#666666" points="1685.88,-87.5 1559.62,-87.5 1559.62,-57 1685.88,-57 1685.88,-87.5"/>
<text text-anchor="start" x="1567.62" y="-74" font-family="FreeSans" font-size="10.00">DGtal::concepts::CSurfel</text>
<text text-anchor="middle" x="1622.75" y="-62.75" font-family="FreeSans" font-size="10.00">Predicate&lt; T &gt;</text>
</a>
</g>
</g>
<!-- Node23&#45;&gt;Node24 -->
<g id="edge25_Node000023_Node000024" class="edge">
<title>Node23&#45;&gt;Node24</title>
<g id="a_edge25_Node000023_Node000024"><a xlink:title=" ">
<path fill="none" stroke="#63b8ff" d="M1485.72,-72.25C1510.07,-72.25 1536.36,-72.25 1559.27,-72.25"/>
<polygon fill="#63b8ff" stroke="#63b8ff" points="1485.83,-68.75 1475.83,-72.25 1485.83,-75.75 1485.83,-68.75"/>
</a>
</g>
</g>
<!-- Node26 -->
<g id="Node000026" class="node">
<title>Node26</title>
<g id="a_Node000026"><a xlink:href="structDGtal_1_1concepts_1_1CVertexPredicate.html" target="_top" xlink:title="Aim: Defines a predicate on a vertex.">
<polygon fill="white" stroke="#666666" points="1687.38,-148.5 1558.12,-148.5 1558.12,-118 1687.38,-118 1687.38,-148.5"/>
<text text-anchor="start" x="1566.12" y="-135" font-family="FreeSans" font-size="10.00">DGtal::concepts::CVertex</text>
<text text-anchor="middle" x="1622.75" y="-123.75" font-family="FreeSans" font-size="10.00">Predicate&lt; T &gt;</text>
</a>
</g>
</g>
<!-- Node25&#45;&gt;Node26 -->
<g id="edge27_Node000025_Node000026" class="edge">
<title>Node25&#45;&gt;Node26</title>
<g id="a_edge27_Node000025_Node000026"><a xlink:title=" ">
<path fill="none" stroke="#63b8ff" d="M1485.51,-133.25C1509.41,-133.25 1535.19,-133.25 1557.82,-133.25"/>
<polygon fill="#63b8ff" stroke="#63b8ff" points="1485.83,-129.75 1475.83,-133.25 1485.83,-136.75 1485.83,-129.75"/>
</a>
</g>
</g>
<!-- Node28 -->
<g id="Node000028" class="node">
<title>Node28</title>
<g id="a_Node000028"><a xlink:href="structDGtal_1_1concepts_1_1CSCellEmbedder.html" target="_top" xlink:title="Aim: A cell embedder is a mapping from signed cells to Euclidean points. It adds inner types to funct...">
<polygon fill="white" stroke="#666666" points="1207.75,-24.88 1014.75,-24.88 1014.75,-5.62 1207.75,-5.62 1207.75,-24.88"/>
<text text-anchor="middle" x="1111.25" y="-11.38" font-family="FreeSans" font-size="10.00">DGtal::concepts::CSCellEmbedder&lt; T &gt;</text>
</a>
</g>
</g>
<!-- Node27&#45;&gt;Node28 -->
<g id="edge29_Node000027_Node000028" class="edge">
<title>Node27&#45;&gt;Node28</title>
<g id="a_edge29_Node000027_Node000028"><a xlink:title=" ">
<path fill="none" stroke="#63b8ff" d="M830.53,-18.27C886.34,-17.67 957.76,-16.9 1014.47,-16.28"/>
<polygon fill="#63b8ff" stroke="#63b8ff" points="830.71,-14.77 820.75,-18.38 830.78,-21.77 830.71,-14.77"/>
</a>
</g>
</g>
<!-- Node29 -->
<g id="Node000029" class="node">
<title>Node29</title>
<g id="a_Node000029"><a xlink:href="structDGtal_1_1concepts_1_1CDigitalSurfaceEmbedder.html" target="_top" xlink:title="Aim: A digital surface embedder is a specialized mapping from signed cells to Euclidean points....">
<polygon fill="white" stroke="#666666" points="1467.12,-30.5 1338.62,-30.5 1338.62,0 1467.12,0 1467.12,-30.5"/>
<text text-anchor="start" x="1346.62" y="-17" font-family="FreeSans" font-size="10.00">DGtal::concepts::CDigital</text>
<text text-anchor="middle" x="1402.88" y="-5.75" font-family="FreeSans" font-size="10.00">SurfaceEmbedder&lt; T &gt;</text>
</a>
</g>
</g>
<!-- Node28&#45;&gt;Node29 -->
<g id="edge30_Node000028_Node000029" class="edge">
<title>Node28&#45;&gt;Node29</title>
<g id="a_edge30_Node000028_Node000029"><a xlink:title=" ">
<path fill="none" stroke="#63b8ff" d="M1219.32,-15.25C1259.32,-15.25 1303.44,-15.25 1338.29,-15.25"/>
<polygon fill="#63b8ff" stroke="#63b8ff" points="1219.4,-11.75 1209.4,-15.25 1219.4,-18.75 1219.4,-11.75"/>
</a>
</g>
</g>
<!-- Node30&#45;&gt;Node23 -->
<g id="edge32_Node000030_Node000023" class="edge">
<title>Node30&#45;&gt;Node23</title>
<g id="a_edge32_Node000030_Node000023"><a xlink:title=" ">
<path fill="none" stroke="#63b8ff" d="M1008.59,-61.69C1102.21,-64.2 1246.16,-68.07 1331.49,-70.36"/>
<polygon fill="#63b8ff" stroke="#63b8ff" points="1008.75,-58.19 998.66,-61.42 1008.57,-65.19 1008.75,-58.19"/>
</a>
</g>
</g>
<!-- Node31&#45;&gt;Node12 -->
<g id="edge34_Node000031_Node000012" class="edge">
<title>Node31&#45;&gt;Node12</title>
<g id="a_edge34_Node000031_Node000012"><a xlink:title=" ">
<path fill="none" stroke="#63b8ff" d="M1008.65,-243.44C1096.08,-246.51 1227.36,-251.12 1313.82,-254.16"/>
<polygon fill="#63b8ff" stroke="#63b8ff" points="1008.78,-239.94 998.66,-243.09 1008.53,-246.94 1008.78,-239.94"/>
</a>
</g>
</g>
<!-- Node32&#45;&gt;Node25 -->
<g id="edge36_Node000032_Node000025" class="edge">
<title>Node32&#45;&gt;Node25</title>
<g id="a_edge36_Node000032_Node000025"><a xlink:title=" ">
<path fill="none" stroke="#63b8ff" d="M1008.08,-94.61C1085.17,-87.67 1198.69,-82.51 1296.25,-98.25 1319.52,-102 1344.6,-110.13 1364.48,-117.61"/>
<polygon fill="#63b8ff" stroke="#63b8ff" points="1008.12,-91.1 998.49,-95.51 1008.77,-98.07 1008.12,-91.1"/>
</a>
</g>
</g>
</g>
</svg>
