<?xml version="1.0" encoding="UTF-8" standalone="no"?>
<!DOCTYPE svg PUBLIC "-//W3C//DTD SVG 1.1//EN"
 "http://www.w3.org/Graphics/SVG/1.1/DTD/svg11.dtd">
<!-- Generated by graphviz version 12.2.1 (20241206.2353)
 -->
<!-- Title: boost::ForwardContainer&lt; C &gt; Pages: 1 -->
<svg width="178pt" height="161pt"
 viewBox="0.00 0.00 177.75 161.25" xmlns="http://www.w3.org/2000/svg" xmlns:xlink="http://www.w3.org/1999/xlink">
<g id="graph0" class="graph" transform="scale(1 1) rotate(0) translate(4 157.25)">
<title>boost::ForwardContainer&lt; C &gt;</title>
<!-- Node1 -->
<g id="Node000001" class="node">
<title>Node1</title>
<g id="a_Node000001"><a xlink:title="Go to http://www.sgi.com/tech/stl/ForwardContainer.html.">
<polygon fill="#999999" stroke="#666666" points="159.25,-153.25 10.5,-153.25 10.5,-134 159.25,-134 159.25,-153.25"/>
<text text-anchor="middle" x="84.88" y="-139.75" font-family="FreeSans" font-size="10.00">boost::ForwardContainer&lt; C &gt;</text>
</a>
</g>
</g>
<!-- Node2 -->
<g id="Node000002" class="node">
<title>Node2</title>
<g id="a_Node000002"><a xlink:href="structboost_1_1ForwardContainer.html" target="_top" xlink:title=" ">
<polygon fill="white" stroke="#666666" points="158.5,-86.75 11.25,-86.75 11.25,-67.5 158.5,-67.5 158.5,-86.75"/>
<text text-anchor="middle" x="84.88" y="-73.25" font-family="FreeSans" font-size="10.00">boost::ForwardContainer&lt; T &gt;</text>
</a>
</g>
</g>
<!-- Node1&#45;&gt;Node2 -->
<g id="edge1_Node000001_Node000002" class="edge">
<title>Node1&#45;&gt;Node2</title>
<g id="a_edge1_Node000001_Node000002"><a xlink:title=" ">
<path fill="none" stroke="orange" stroke-dasharray="5,2" d="M84.88,-122.15C84.88,-110.32 84.88,-96.04 84.88,-87.02"/>
<polygon fill="orange" stroke="orange" points="81.38,-122.14 84.88,-132.14 88.38,-122.14 81.38,-122.14"/>
</a>
</g>
<text text-anchor="middle" x="98.38" y="-106.5" font-family="FreeSans" font-size="10.00" fill="grey"> &lt; T &gt;</text>
</g>
<!-- Node3 -->
<g id="Node000003" class="node">
<title>Node3</title>
<g id="a_Node000003"><a xlink:href="structDGtal_1_1concepts_1_1CSTLAssociativeContainer.html" target="_top" xlink:title="Aim: Defines the concept describing an Associative Container of the STL (https://www....">
<polygon fill="white" stroke="#666666" points="169.75,-30.5 0,-30.5 0,0 169.75,0 169.75,-30.5"/>
<text text-anchor="start" x="8" y="-17" font-family="FreeSans" font-size="10.00">DGtal::concepts::CSTLAssociative</text>
<text text-anchor="middle" x="84.88" y="-5.75" font-family="FreeSans" font-size="10.00">Container&lt; T &gt;</text>
</a>
</g>
</g>
<!-- Node2&#45;&gt;Node3 -->
<g id="edge2_Node000002_Node000003" class="edge">
<title>Node2&#45;&gt;Node3</title>
<g id="a_edge2_Node000002_Node000003"><a xlink:title=" ">
<path fill="none" stroke="#63b8ff" d="M84.88,-55.69C84.88,-47.43 84.88,-38.09 84.88,-30.57"/>
<polygon fill="#63b8ff" stroke="#63b8ff" points="81.38,-55.52 84.88,-65.52 88.38,-55.52 81.38,-55.52"/>
</a>
</g>
</g>
</g>
</svg>
