<?xml version="1.0" encoding="UTF-8" standalone="no"?>
<!DOCTYPE svg PUBLIC "-//W3C//DTD SVG 1.1//EN"
 "http://www.w3.org/Graphics/SVG/1.1/DTD/svg11.dtd">
<!-- Generated by graphviz version 12.2.1 (20241206.2353)
 -->
<!-- Title: DGtal::DrawWithViewer3DModifier Pages: 1 -->
<svg width="587pt" height="540pt"
 viewBox="0.00 0.00 587.00 540.12" xmlns="http://www.w3.org/2000/svg" xmlns:xlink="http://www.w3.org/1999/xlink">
<g id="graph0" class="graph" transform="scale(1 1) rotate(0) translate(4 536.12)">
<title>DGtal::DrawWithViewer3DModifier</title>
<!-- Node1 -->
<g id="Node000001" class="node">
<title>Node1</title>
<g id="a_Node000001"><a xlink:title="Base class specifying the methods for classes which intend to modify a Viewer3D stream.">
<polygon fill="#999999" stroke="#666666" points="375.5,-281.88 207.25,-281.88 207.25,-262.62 375.5,-262.62 375.5,-281.88"/>
<text text-anchor="middle" x="291.38" y="-268.38" font-family="FreeSans" font-size="10.00">DGtal::DrawWithViewer3DModifier</text>
</a>
</g>
</g>
<!-- Node3 -->
<g id="Node000003" class="node">
<title>Node3</title>
<g id="a_Node000003"><a xlink:href="structDGtal_1_1AddTextureImage2DWithFunctor.html" target="_top" xlink:title="class to insert a custom 2D textured image by using a conversion functor and allows to change the def...">
<polygon fill="white" stroke="#666666" points="574.88,-532.12 415.62,-532.12 415.62,-490.38 574.88,-490.38 574.88,-532.12"/>
<text text-anchor="start" x="423.62" y="-518.62" font-family="FreeSans" font-size="10.00">DGtal::AddTextureImage2DWith</text>
<text text-anchor="start" x="423.62" y="-507.38" font-family="FreeSans" font-size="10.00">Functor&lt; TImageType, TFunctor,</text>
<text text-anchor="middle" x="495.25" y="-496.12" font-family="FreeSans" font-size="10.00"> Space, KSpace &gt;</text>
</a>
</g>
</g>
<!-- Node1&#45;&gt;Node3 -->
<g id="edge2_Node000001_Node000003" class="edge">
<title>Node1&#45;&gt;Node3</title>
<g id="a_edge2_Node000001_Node000003"><a xlink:title=" ">
<path fill="none" stroke="#63b8ff" d="M298.78,-293.09C312.6,-334.72 349.14,-428.7 411.5,-481.25 415.36,-484.5 419.59,-487.41 424.05,-490.01"/>
<polygon fill="#63b8ff" stroke="#63b8ff" points="302.13,-292.06 295.74,-283.6 295.46,-294.2 302.13,-292.06"/>
</a>
</g>
</g>
<!-- Node4 -->
<g id="Node000004" class="node">
<title>Node4</title>
<g id="a_Node000004"><a xlink:href="structDGtal_1_1AddTextureImage3DWithFunctor.html" target="_top" xlink:title="class to insert a custom 3D textured image by using a conversion functor and allows to change the def...">
<polygon fill="white" stroke="#666666" points="574.88,-472.12 415.62,-472.12 415.62,-430.38 574.88,-430.38 574.88,-472.12"/>
<text text-anchor="start" x="423.62" y="-458.62" font-family="FreeSans" font-size="10.00">DGtal::AddTextureImage3DWith</text>
<text text-anchor="start" x="423.62" y="-447.38" font-family="FreeSans" font-size="10.00">Functor&lt; TImageType, TFunctor,</text>
<text text-anchor="middle" x="495.25" y="-436.12" font-family="FreeSans" font-size="10.00"> Space, KSpace &gt;</text>
</a>
</g>
</g>
<!-- Node1&#45;&gt;Node4 -->
<g id="edge3_Node000001_Node000004" class="edge">
<title>Node1&#45;&gt;Node4</title>
<g id="a_edge3_Node000001_Node000004"><a xlink:title=" ">
<path fill="none" stroke="#63b8ff" d="M303.24,-291.95C321.6,-323.52 361.66,-385.51 411.5,-421.25 415.97,-424.46 420.82,-427.35 425.85,-429.97"/>
<polygon fill="#63b8ff" stroke="#63b8ff" points="306.4,-290.43 298.42,-283.46 300.32,-293.89 306.4,-290.43"/>
</a>
</g>
</g>
<!-- Node5 -->
<g id="Node000005" class="node">
<title>Node5</title>
<g id="a_Node000005"><a xlink:href="structDGtal_1_1CameraDirection.html" target="_top" xlink:title="CameraDirection class to set camera direction.">
<polygon fill="white" stroke="#666666" points="555.75,-411.88 434.75,-411.88 434.75,-392.62 555.75,-392.62 555.75,-411.88"/>
<text text-anchor="middle" x="495.25" y="-398.38" font-family="FreeSans" font-size="10.00">DGtal::CameraDirection</text>
</a>
</g>
</g>
<!-- Node1&#45;&gt;Node5 -->
<g id="edge4_Node000001_Node000005" class="edge">
<title>Node1&#45;&gt;Node5</title>
<g id="a_edge4_Node000001_Node000005"><a xlink:title=" ">
<path fill="none" stroke="#63b8ff" d="M306.85,-291.17C327.31,-316.49 367.15,-360.91 411.5,-384.25 418.66,-388.02 426.56,-390.99 434.55,-393.35"/>
<polygon fill="#63b8ff" stroke="#63b8ff" points="309.65,-289.06 300.71,-283.38 304.15,-293.39 309.65,-289.06"/>
</a>
</g>
</g>
<!-- Node6 -->
<g id="Node000006" class="node">
<title>Node6</title>
<g id="a_Node000006"><a xlink:href="structDGtal_1_1CameraPosition.html" target="_top" xlink:title="CameraPosition class to set camera position.">
<polygon fill="white" stroke="#666666" points="553.88,-374.88 436.62,-374.88 436.62,-355.62 553.88,-355.62 553.88,-374.88"/>
<text text-anchor="middle" x="495.25" y="-361.38" font-family="FreeSans" font-size="10.00">DGtal::CameraPosition</text>
</a>
</g>
</g>
<!-- Node1&#45;&gt;Node6 -->
<g id="edge5_Node000001_Node000006" class="edge">
<title>Node1&#45;&gt;Node6</title>
<g id="a_edge5_Node000001_Node000006"><a xlink:title=" ">
<path fill="none" stroke="#63b8ff" d="M313.93,-289.09C336.87,-306.21 374.85,-332.27 411.5,-347.25 419.39,-350.48 427.96,-353.16 436.48,-355.39"/>
<polygon fill="#63b8ff" stroke="#63b8ff" points="316.07,-286.32 305.99,-283.06 311.84,-291.9 316.07,-286.32"/>
</a>
</g>
</g>
<!-- Node7 -->
<g id="Node000007" class="node">
<title>Node7</title>
<g id="a_Node000007"><a xlink:href="structDGtal_1_1CameraUpVector.html" target="_top" xlink:title="CameraUpVector class to set camera up&#45;vector.">
<polygon fill="white" stroke="#666666" points="556.88,-337.88 433.62,-337.88 433.62,-318.62 556.88,-318.62 556.88,-337.88"/>
<text text-anchor="middle" x="495.25" y="-324.38" font-family="FreeSans" font-size="10.00">DGtal::CameraUpVector</text>
</a>
</g>
</g>
<!-- Node1&#45;&gt;Node7 -->
<g id="edge6_Node000001_Node000007" class="edge">
<title>Node1&#45;&gt;Node7</title>
<g id="a_edge6_Node000001_Node000007"><a xlink:title=" ">
<path fill="none" stroke="#63b8ff" d="M331.78,-285.85C354.86,-293.56 384.65,-303.06 411.5,-310.25 422.01,-313.06 433.36,-315.75 444.18,-318.16"/>
<polygon fill="#63b8ff" stroke="#63b8ff" points="333.06,-282.59 322.47,-282.72 330.83,-289.23 333.06,-282.59"/>
</a>
</g>
</g>
<!-- Node8 -->
<g id="Node000008" class="node">
<title>Node8</title>
<g id="a_Node000008"><a xlink:href="structDGtal_1_1CameraZNearFar.html" target="_top" xlink:title="CameraZNearFar class to set near and far distance.">
<polygon fill="white" stroke="#666666" points="556.88,-300.88 433.62,-300.88 433.62,-281.62 556.88,-281.62 556.88,-300.88"/>
<text text-anchor="middle" x="495.25" y="-287.38" font-family="FreeSans" font-size="10.00">DGtal::CameraZNearFar</text>
</a>
</g>
</g>
<!-- Node1&#45;&gt;Node8 -->
<g id="edge7_Node000001_Node000008" class="edge">
<title>Node1&#45;&gt;Node8</title>
<g id="a_edge7_Node000001_Node000008"><a xlink:title=" ">
<path fill="none" stroke="#63b8ff" d="M387.27,-281.18C402.9,-282.65 418.73,-284.14 433.24,-285.51"/>
<polygon fill="#63b8ff" stroke="#63b8ff" points="387.73,-277.71 377.45,-280.26 387.08,-284.68 387.73,-277.71"/>
</a>
</g>
</g>
<!-- Node9 -->
<g id="Node000009" class="node">
<title>Node9</title>
<g id="a_Node000009"><a xlink:href="structDGtal_1_1Translate2DDomain.html" target="_top" xlink:title="class to modify the data of an given image and also the possibility to translate it (optional).">
<polygon fill="white" stroke="#666666" points="562.5,-263.88 428,-263.88 428,-244.62 562.5,-244.62 562.5,-263.88"/>
<text text-anchor="middle" x="495.25" y="-250.38" font-family="FreeSans" font-size="10.00">DGtal::Translate2DDomain</text>
</a>
</g>
</g>
<!-- Node1&#45;&gt;Node9 -->
<g id="edge8_Node000001_Node000009" class="edge">
<title>Node1&#45;&gt;Node9</title>
<g id="a_edge8_Node000001_Node000009"><a xlink:title=" ">
<path fill="none" stroke="#63b8ff" d="M387.34,-263.78C400.97,-262.57 414.75,-261.34 427.68,-260.19"/>
<polygon fill="#63b8ff" stroke="#63b8ff" points="387.1,-260.29 377.45,-264.66 387.72,-267.26 387.1,-260.29"/>
</a>
</g>
</g>
<!-- Node10 -->
<g id="Node000010" class="node">
<title>Node10</title>
<g id="a_Node000010"><a xlink:href="structDGtal_1_1Update2DDomainPosition.html" target="_top" xlink:title="class to modify the position and orientation of an 2D domain.">
<polygon fill="white" stroke="#666666" points="575.62,-226.5 414.88,-226.5 414.88,-196 575.62,-196 575.62,-226.5"/>
<text text-anchor="start" x="422.88" y="-213" font-family="FreeSans" font-size="10.00">DGtal::Update2DDomainPosition</text>
<text text-anchor="middle" x="495.25" y="-201.75" font-family="FreeSans" font-size="10.00">&lt; Space, KSpace &gt;</text>
</a>
</g>
</g>
<!-- Node1&#45;&gt;Node10 -->
<g id="edge9_Node000001_Node000010" class="edge">
<title>Node1&#45;&gt;Node10</title>
<g id="a_edge9_Node000001_Node000010"><a xlink:title=" ">
<path fill="none" stroke="#63b8ff" d="M335.14,-258.75C357.8,-251.66 386.13,-242.87 411.5,-235.25 420.53,-232.54 430.12,-229.71 439.46,-226.98"/>
<polygon fill="#63b8ff" stroke="#63b8ff" points="334.12,-255.41 325.62,-261.74 336.21,-262.09 334.12,-255.41"/>
</a>
</g>
</g>
<!-- Node11 -->
<g id="Node000011" class="node">
<title>Node11</title>
<g id="a_Node000011"><a xlink:href="structDGtal_1_1UpdateImage3DEmbedding.html" target="_top" xlink:title="class to modify the 3d embedding of the image (useful to display not only 2D slice images)....">
<polygon fill="white" stroke="#666666" points="579,-177.5 411.5,-177.5 411.5,-147 579,-147 579,-177.5"/>
<text text-anchor="start" x="419.5" y="-164" font-family="FreeSans" font-size="10.00">DGtal::UpdateImage3DEmbedding</text>
<text text-anchor="middle" x="495.25" y="-152.75" font-family="FreeSans" font-size="10.00">&lt; Space, KSpace &gt;</text>
</a>
</g>
</g>
<!-- Node1&#45;&gt;Node11 -->
<g id="edge10_Node000001_Node000011" class="edge">
<title>Node1&#45;&gt;Node11</title>
<g id="a_edge10_Node000001_Node000011"><a xlink:title=" ">
<path fill="none" stroke="#63b8ff" d="M312.41,-254.8C335.09,-235.84 373.79,-205.77 411.5,-187.25 418.64,-183.74 426.37,-180.62 434.14,-177.86"/>
<polygon fill="#63b8ff" stroke="#63b8ff" points="310.23,-252.06 304.88,-261.2 314.77,-257.39 310.23,-252.06"/>
</a>
</g>
</g>
<!-- Node12 -->
<g id="Node000012" class="node">
<title>Node12</title>
<g id="a_Node000012"><a xlink:href="structDGtal_1_1UpdateImageData.html" target="_top" xlink:title="class to modify the data of an given image and also the possibility to translate it (optional).">
<polygon fill="white" stroke="#666666" points="561.75,-128.5 428.75,-128.5 428.75,-98 561.75,-98 561.75,-128.5"/>
<text text-anchor="start" x="436.75" y="-115" font-family="FreeSans" font-size="10.00">DGtal::UpdateImageData</text>
<text text-anchor="middle" x="495.25" y="-103.75" font-family="FreeSans" font-size="10.00">&lt; TImageType, TFunctor &gt;</text>
</a>
</g>
</g>
<!-- Node1&#45;&gt;Node12 -->
<g id="edge11_Node000001_Node000012" class="edge">
<title>Node1&#45;&gt;Node12</title>
<g id="a_edge11_Node000001_Node000012"><a xlink:title=" ">
<path fill="none" stroke="#63b8ff" d="M304.62,-252.63C323.83,-223.43 363.85,-168.71 411.5,-138.25 417.06,-134.69 423.16,-131.62 429.44,-128.97"/>
<polygon fill="#63b8ff" stroke="#63b8ff" points="301.78,-250.57 299.32,-260.87 307.67,-254.35 301.78,-250.57"/>
</a>
</g>
</g>
<!-- Node13 -->
<g id="Node000013" class="node">
<title>Node13</title>
<g id="a_Node000013"><a xlink:href="structDGtal_1_1UpdateImagePosition.html" target="_top" xlink:title="class to modify the position and orientation of an textured 2D image.">
<polygon fill="white" stroke="#666666" points="565.88,-79.5 424.62,-79.5 424.62,-49 565.88,-49 565.88,-79.5"/>
<text text-anchor="start" x="432.62" y="-66" font-family="FreeSans" font-size="10.00">DGtal::UpdateImagePosition</text>
<text text-anchor="middle" x="495.25" y="-54.75" font-family="FreeSans" font-size="10.00">&lt; Space, KSpace &gt;</text>
</a>
</g>
</g>
<!-- Node1&#45;&gt;Node13 -->
<g id="edge12_Node000001_Node000013" class="edge">
<title>Node1&#45;&gt;Node13</title>
<g id="a_edge12_Node000001_Node000013"><a xlink:title=" ">
<path fill="none" stroke="#63b8ff" d="M300.04,-251.92C315.33,-214.13 353.24,-132.95 411.5,-89.25 416.3,-85.65 421.62,-82.56 427.19,-79.92"/>
<polygon fill="#63b8ff" stroke="#63b8ff" points="296.97,-250.17 296.58,-260.76 303.49,-252.72 296.97,-250.17"/>
</a>
</g>
</g>
<!-- Node14 -->
<g id="Node000014" class="node">
<title>Node14</title>
<g id="a_Node000014"><a xlink:href="structDGtal_1_1UpdateLastImagePosition.html" target="_top" xlink:title="class to modify the position and orientation of an textured 2D image.">
<polygon fill="white" stroke="#666666" points="575.25,-30.5 415.25,-30.5 415.25,0 575.25,0 575.25,-30.5"/>
<text text-anchor="start" x="423.25" y="-17" font-family="FreeSans" font-size="10.00">DGtal::UpdateLastImagePosition</text>
<text text-anchor="middle" x="495.25" y="-5.75" font-family="FreeSans" font-size="10.00">&lt; Space, KSpace &gt;</text>
</a>
</g>
</g>
<!-- Node1&#45;&gt;Node14 -->
<g id="edge13_Node000001_Node000014" class="edge">
<title>Node1&#45;&gt;Node14</title>
<g id="a_edge13_Node000001_Node000014"><a xlink:title=" ">
<path fill="none" stroke="#63b8ff" d="M297.12,-251.63C308.61,-206.42 342.2,-98.02 411.5,-40.25 415.88,-36.6 420.78,-33.48 425.96,-30.82"/>
<polygon fill="#63b8ff" stroke="#63b8ff" points="293.77,-250.6 294.82,-261.14 300.57,-252.25 293.77,-250.6"/>
</a>
</g>
</g>
<!-- Node2 -->
<g id="Node000002" class="node">
<title>Node2</title>
<g id="a_Node000002"><a xlink:href="structDGtal_1_1DrawWithDisplay3DModifier.html" target="_top" xlink:title="Base class specifying the methods for classes which intend to modify a Viewer3D stream.">
<polygon fill="white" stroke="#666666" points="171.25,-281.88 0,-281.88 0,-262.62 171.25,-262.62 171.25,-281.88"/>
<text text-anchor="middle" x="85.62" y="-268.38" font-family="FreeSans" font-size="10.00">DGtal::DrawWithDisplay3DModifier</text>
</a>
</g>
</g>
<!-- Node2&#45;&gt;Node1 -->
<g id="edge1_Node000001_Node000002" class="edge">
<title>Node2&#45;&gt;Node1</title>
<g id="a_edge1_Node000001_Node000002"><a xlink:title=" ">
<path fill="none" stroke="#63b8ff" d="M182.86,-272.25C190.89,-272.25 198.97,-272.25 206.89,-272.25"/>
<polygon fill="#63b8ff" stroke="#63b8ff" points="183.07,-268.75 173.07,-272.25 183.07,-275.75 183.07,-268.75"/>
</a>
</g>
</g>
</g>
</svg>
