<?xml version="1.0" encoding="UTF-8" standalone="no"?>
<!DOCTYPE svg PUBLIC "-//W3C//DTD SVG 1.1//EN"
 "http://www.w3.org/Graphics/SVG/1.1/DTD/svg11.dtd">
<!-- Generated by graphviz version 12.2.1 (20241206.2353)
 -->
<!-- Title: DGtal::NumberTraitsImpl&lt; T, Enable &gt; Pages: 1 -->
<svg width="893pt" height="143pt"
 viewBox="0.00 0.00 892.75 142.75" xmlns="http://www.w3.org/2000/svg" xmlns:xlink="http://www.w3.org/1999/xlink">
<g id="graph0" class="graph" transform="scale(1 1) rotate(0) translate(4 138.75)">
<title>DGtal::NumberTraitsImpl&lt; T, Enable &gt;</title>
<!-- Node1 -->
<g id="Node000001" class="node">
<title>Node1</title>
<g id="a_Node000001"><a xlink:title="Aim: The traits class for all models of Cinteger (implementation)">
<polygon fill="#999999" stroke="#666666" points="125.5,-83.12 0,-83.12 0,-52.62 125.5,-52.62 125.5,-83.12"/>
<text text-anchor="start" x="8" y="-69.62" font-family="FreeSans" font-size="10.00">DGtal::NumberTraitsImpl</text>
<text text-anchor="middle" x="62.75" y="-58.38" font-family="FreeSans" font-size="10.00">&lt; T, Enable &gt;</text>
</a>
</g>
</g>
<!-- Node2 -->
<g id="Node000002" class="node">
<title>Node2</title>
<g id="a_Node000002"><a xlink:href="structDGtal_1_1NumberTraitsImpl.html" target="_top" xlink:title=" ">
<polygon fill="white" stroke="#666666" points="392.75,-83.12 264.25,-83.12 264.25,-52.62 392.75,-52.62 392.75,-83.12"/>
<text text-anchor="start" x="272.25" y="-69.62" font-family="FreeSans" font-size="10.00">DGtal::NumberTraitsImpl</text>
<text text-anchor="middle" x="328.5" y="-58.38" font-family="FreeSans" font-size="10.00">&lt; std::decay&lt; T &gt;::type &gt;</text>
</a>
</g>
</g>
<!-- Node1&#45;&gt;Node2 -->
<g id="edge1_Node000001_Node000002" class="edge">
<title>Node1&#45;&gt;Node2</title>
<g id="a_edge1_Node000001_Node000002"><a xlink:title=" ">
<path fill="none" stroke="orange" stroke-dasharray="5,2" d="M137.42,-67.88C177.2,-67.88 225.81,-67.88 263.91,-67.88"/>
<polygon fill="orange" stroke="orange" points="137.43,-64.38 127.43,-67.88 137.43,-71.38 137.43,-64.38"/>
</a>
</g>
<text text-anchor="start" x="151" y="-80.88" font-family="FreeSans" font-size="10.00" fill="grey"> &lt; std::decay&lt; T &gt;::</text>
<text text-anchor="middle" x="194.88" y="-69.62" font-family="FreeSans" font-size="10.00" fill="grey">type &gt;</text>
</g>
<!-- Node6 -->
<g id="Node000006" class="node">
<title>Node6</title>
<g id="a_Node000006"><a xlink:href="structDGtal_1_1NumberTraitsImpl.html" target="_top" xlink:title=" ">
<polygon fill="white" stroke="#666666" points="536.25,-134.75 410.75,-134.75 410.75,-93 536.25,-93 536.25,-134.75"/>
<text text-anchor="start" x="418.75" y="-121.25" font-family="FreeSans" font-size="10.00">DGtal::NumberTraitsImpl</text>
<text text-anchor="start" x="418.75" y="-110" font-family="FreeSans" font-size="10.00">&lt; std::decay&lt; Integer</text>
<text text-anchor="middle" x="473.5" y="-98.75" font-family="FreeSans" font-size="10.00"> &gt;::type &gt;</text>
</a>
</g>
</g>
<!-- Node1&#45;&gt;Node6 -->
<g id="edge5_Node000001_Node000006" class="edge">
<title>Node1&#45;&gt;Node6</title>
<g id="a_edge5_Node000001_Node000006"><a xlink:title=" ">
<path fill="none" stroke="orange" stroke-dasharray="5,2" d="M120.13,-86.55C127.92,-88.63 135.86,-90.49 143.5,-91.88 235.45,-108.56 343.92,-112.91 410.44,-113.88"/>
<polygon fill="orange" stroke="orange" points="121.32,-83.25 110.74,-83.91 119.42,-89.99 121.32,-83.25"/>
</a>
</g>
<text text-anchor="start" x="146.5" y="-118.48" font-family="FreeSans" font-size="10.00" fill="grey"> &lt; std::decay&lt; Integer</text>
<text text-anchor="middle" x="194.88" y="-107.23" font-family="FreeSans" font-size="10.00" fill="grey"> &gt;::type &gt;</text>
</g>
<!-- Node7 -->
<g id="Node000007" class="node">
<title>Node7</title>
<g id="a_Node000007"><a xlink:href="structDGtal_1_1NumberTraitsImpl.html" target="_top" xlink:title=" ">
<polygon fill="white" stroke="#666666" points="536.25,-41.75 410.75,-41.75 410.75,0 536.25,0 536.25,-41.75"/>
<text text-anchor="start" x="418.75" y="-28.25" font-family="FreeSans" font-size="10.00">DGtal::NumberTraitsImpl</text>
<text text-anchor="start" x="418.75" y="-17" font-family="FreeSans" font-size="10.00">&lt; std::decay&lt; TInteger</text>
<text text-anchor="middle" x="473.5" y="-5.75" font-family="FreeSans" font-size="10.00"> &gt;::type &gt;</text>
</a>
</g>
</g>
<!-- Node1&#45;&gt;Node7 -->
<g id="edge7_Node000001_Node000007" class="edge">
<title>Node1&#45;&gt;Node7</title>
<g id="a_edge7_Node000001_Node000007"><a xlink:title=" ">
<path fill="none" stroke="orange" stroke-dasharray="5,2" d="M114.96,-48.7C124.34,-45.81 134.13,-43.19 143.5,-41.38 235.22,-23.59 343.75,-20.15 410.35,-19.99"/>
<polygon fill="orange" stroke="orange" points="114.07,-45.31 105.63,-51.72 116.22,-51.97 114.07,-45.31"/>
</a>
</g>
<text text-anchor="start" x="143.5" y="-54.38" font-family="FreeSans" font-size="10.00" fill="grey"> &lt; std::decay&lt; TInteger</text>
<text text-anchor="middle" x="194.88" y="-43.12" font-family="FreeSans" font-size="10.00" fill="grey"> &gt;::type &gt;</text>
</g>
<!-- Node3 -->
<g id="Node000003" class="node">
<title>Node3</title>
<g id="a_Node000003"><a xlink:href="structDGtal_1_1NumberTraits.html" target="_top" xlink:title="Aim: The traits class for all models of Cinteger.">
<polygon fill="white" stroke="#666666" points="685,-77.5 554.25,-77.5 554.25,-58.25 685,-58.25 685,-77.5"/>
<text text-anchor="middle" x="619.62" y="-64" font-family="FreeSans" font-size="10.00">DGtal::NumberTraits&lt; T &gt;</text>
</a>
</g>
</g>
<!-- Node2&#45;&gt;Node3 -->
<g id="edge2_Node000002_Node000003" class="edge">
<title>Node2&#45;&gt;Node3</title>
<g id="a_edge2_Node000002_Node000003"><a xlink:title=" ">
<path fill="none" stroke="#63b8ff" d="M404.43,-67.88C450.73,-67.88 509.54,-67.88 553.82,-67.88"/>
<polygon fill="#63b8ff" stroke="#63b8ff" points="404.46,-64.38 394.46,-67.88 404.46,-71.38 404.46,-64.38"/>
</a>
</g>
</g>
<!-- Node4 -->
<g id="Node000004" class="node">
<title>Node4</title>
<g id="a_Node000004"><a xlink:href="structDGtal_1_1NumberTraits.html" target="_top" xlink:title=" ">
<polygon fill="white" stroke="#666666" points="884.75,-115.12 778,-115.12 778,-84.62 884.75,-84.62 884.75,-115.12"/>
<text text-anchor="start" x="786" y="-101.62" font-family="FreeSans" font-size="10.00">DGtal::NumberTraits</text>
<text text-anchor="middle" x="831.38" y="-90.38" font-family="FreeSans" font-size="10.00">&lt; Integer &gt;</text>
</a>
</g>
</g>
<!-- Node3&#45;&gt;Node4 -->
<g id="edge3_Node000003_Node000004" class="edge">
<title>Node3&#45;&gt;Node4</title>
<g id="a_edge3_Node000003_Node000004"><a xlink:title=" ">
<path fill="none" stroke="orange" stroke-dasharray="5,2" d="M696.44,-79.01C717.07,-82.08 739.4,-85.44 760,-88.62 765.75,-89.51 771.76,-90.45 777.74,-91.4"/>
<polygon fill="orange" stroke="orange" points="697.08,-75.57 686.68,-77.56 696.05,-82.49 697.08,-75.57"/>
</a>
</g>
<text text-anchor="middle" x="731.5" y="-90.38" font-family="FreeSans" font-size="10.00" fill="grey"> &lt; Integer &gt;</text>
</g>
<!-- Node5 -->
<g id="Node000005" class="node">
<title>Node5</title>
<g id="a_Node000005"><a xlink:href="structDGtal_1_1NumberTraits.html" target="_top" xlink:title=" ">
<polygon fill="white" stroke="#666666" points="884.75,-57.12 778,-57.12 778,-26.62 884.75,-26.62 884.75,-57.12"/>
<text text-anchor="start" x="786" y="-43.62" font-family="FreeSans" font-size="10.00">DGtal::NumberTraits</text>
<text text-anchor="middle" x="831.38" y="-32.38" font-family="FreeSans" font-size="10.00">&lt; TInteger &gt;</text>
</a>
</g>
</g>
<!-- Node3&#45;&gt;Node5 -->
<g id="edge4_Node000003_Node000005" class="edge">
<title>Node3&#45;&gt;Node5</title>
<g id="a_edge4_Node000003_Node000005"><a xlink:title=" ">
<path fill="none" stroke="orange" stroke-dasharray="5,2" d="M692.03,-56.12C695.73,-55.6 699.41,-55.09 703,-54.62 727.46,-51.44 754.66,-48.62 777.62,-46.44"/>
<polygon fill="orange" stroke="orange" points="691.73,-52.63 682.35,-57.54 692.75,-59.55 691.73,-52.63"/>
</a>
</g>
<text text-anchor="middle" x="731.5" y="-56.38" font-family="FreeSans" font-size="10.00" fill="grey"> &lt; TInteger &gt;</text>
</g>
<!-- Node6&#45;&gt;Node4 -->
<g id="edge6_Node000006_Node000004" class="edge">
<title>Node6&#45;&gt;Node4</title>
<g id="a_edge6_Node000006_Node000004"><a xlink:title=" ">
<path fill="none" stroke="#63b8ff" d="M547.62,-111C616.13,-108.3 716.87,-104.34 777.78,-101.94"/>
<polygon fill="#63b8ff" stroke="#63b8ff" points="547.86,-107.49 538,-111.38 548.13,-114.48 547.86,-107.49"/>
</a>
</g>
</g>
<!-- Node7&#45;&gt;Node5 -->
<g id="edge8_Node000007_Node000005" class="edge">
<title>Node7&#45;&gt;Node5</title>
<g id="a_edge8_Node000007_Node000005"><a xlink:title=" ">
<path fill="none" stroke="#63b8ff" d="M547.62,-25.19C616.13,-29.23 716.87,-35.18 777.78,-38.77"/>
<polygon fill="#63b8ff" stroke="#63b8ff" points="548.19,-21.72 538,-24.62 547.78,-28.71 548.19,-21.72"/>
</a>
</g>
</g>
</g>
</svg>
