<?xml version="1.0" encoding="UTF-8" standalone="no"?>
<!DOCTYPE svg PUBLIC "-//W3C//DTD SVG 1.1//EN"
 "http://www.w3.org/Graphics/SVG/1.1/DTD/svg11.dtd">
<!-- Generated by graphviz version 12.2.1 (20241206.2353)
 -->
<!-- Title: DGtal::concepts::CImage&lt; I &gt; Pages: 1 -->
<svg width="1937pt" height="119pt"
 viewBox="0.00 0.00 1936.75 119.25" xmlns="http://www.w3.org/2000/svg" xmlns:xlink="http://www.w3.org/1999/xlink">
<g id="graph0" class="graph" transform="scale(1 1) rotate(0) translate(4 115.25)">
<title>DGtal::concepts::CImage&lt; I &gt;</title>
<!-- Node1 -->
<g id="Node000001" class="node">
<title>Node1</title>
<g id="a_Node000001"><a xlink:title="Aim: Defines the concept describing a read/write image, having an output iterator.">
<polygon fill="#999999" stroke="#666666" points="1928.75,-72.25 1780,-72.25 1780,-53 1928.75,-53 1928.75,-72.25"/>
<text text-anchor="middle" x="1854.38" y="-58.75" font-family="FreeSans" font-size="10.00">DGtal::concepts::CImage&lt; I &gt;</text>
</a>
</g>
</g>
<!-- Node2 -->
<g id="Node000002" class="node">
<title>Node2</title>
<g id="a_Node000002"><a xlink:href="structDGtal_1_1concepts_1_1CConstImage.html" target="_top" xlink:title="Aim: Defines the concept describing a read&#45;only image, which is a refinement of CPointFunctor.">
<polygon fill="white" stroke="#666666" points="1743,-94.25 1568,-94.25 1568,-75 1743,-75 1743,-94.25"/>
<text text-anchor="middle" x="1655.5" y="-80.75" font-family="FreeSans" font-size="10.00">DGtal::concepts::CConstImage&lt; I &gt;</text>
</a>
</g>
</g>
<!-- Node2&#45;&gt;Node1 -->
<g id="edge1_Node000001_Node000002" class="edge">
<title>Node2&#45;&gt;Node1</title>
<g id="a_edge1_Node000001_Node000002"><a xlink:title=" ">
<path fill="none" stroke="#63b8ff" d="M1754.77,-73.64C1763.11,-72.71 1771.44,-71.78 1779.55,-70.88"/>
<polygon fill="#63b8ff" stroke="#63b8ff" points="1754.48,-70.15 1744.93,-74.74 1755.26,-77.11 1754.48,-70.15"/>
</a>
</g>
</g>
<!-- Node3 -->
<g id="Node000003" class="node">
<title>Node3</title>
<g id="a_Node000003"><a xlink:href="structDGtal_1_1concepts_1_1CTrivialConstImage.html" target="_top" xlink:title="Aim: Defines the concept describing a read&#45;only image, which is a refinement of CPointFunctor.">
<polygon fill="white" stroke="#666666" points="1531,-77.88 1404,-77.88 1404,-47.38 1531,-47.38 1531,-77.88"/>
<text text-anchor="start" x="1412" y="-64.38" font-family="FreeSans" font-size="10.00">DGtal::concepts::CTrivial</text>
<text text-anchor="middle" x="1467.5" y="-53.12" font-family="FreeSans" font-size="10.00">ConstImage&lt; I &gt;</text>
</a>
</g>
</g>
<!-- Node3&#45;&gt;Node2 -->
<g id="edge2_Node000002_Node000003" class="edge">
<title>Node3&#45;&gt;Node2</title>
<g id="a_edge2_Node000002_Node000003"><a xlink:title=" ">
<path fill="none" stroke="#63b8ff" d="M1542.73,-71.41C1551.42,-72.43 1560.34,-73.49 1569.16,-74.53"/>
<polygon fill="#63b8ff" stroke="#63b8ff" points="1543.32,-67.95 1532.97,-70.25 1542.49,-74.9 1543.32,-67.95"/>
</a>
</g>
</g>
<!-- Node13 -->
<g id="Node000013" class="node">
<title>Node13</title>
<g id="a_Node000013"><a xlink:href="structDGtal_1_1concepts_1_1CTrivialImage.html" target="_top" xlink:title="Aim: Defines the concept describing an image without extra ranges, which is a refinement of CTrivialC...">
<polygon fill="white" stroke="#666666" points="1719,-56.88 1592,-56.88 1592,-26.38 1719,-26.38 1719,-56.88"/>
<text text-anchor="start" x="1600" y="-43.38" font-family="FreeSans" font-size="10.00">DGtal::concepts::CTrivial</text>
<text text-anchor="middle" x="1655.5" y="-32.12" font-family="FreeSans" font-size="10.00">Image&lt; I &gt;</text>
</a>
</g>
</g>
<!-- Node3&#45;&gt;Node13 -->
<g id="edge15_Node000013_Node000003" class="edge">
<title>Node3&#45;&gt;Node13</title>
<g id="a_edge15_Node000013_Node000003"><a xlink:title=" ">
<path fill="none" stroke="#63b8ff" d="M1542.56,-54.26C1558.8,-52.43 1575.84,-50.51 1591.59,-48.73"/>
<polygon fill="#63b8ff" stroke="#63b8ff" points="1542.52,-50.75 1532.98,-55.35 1543.3,-57.7 1542.52,-50.75"/>
</a>
</g>
</g>
<!-- Node4 -->
<g id="Node000004" class="node">
<title>Node4</title>
<g id="a_Node000004"><a xlink:href="structDGtal_1_1concepts_1_1CPointFunctor.html" target="_top" xlink:title=" ">
<polygon fill="white" stroke="#666666" points="1367,-72.25 1189.75,-72.25 1189.75,-53 1367,-53 1367,-72.25"/>
<text text-anchor="middle" x="1278.38" y="-58.75" font-family="FreeSans" font-size="10.00">DGtal::concepts::CPointFunctor&lt; I &gt;</text>
</a>
</g>
</g>
<!-- Node4&#45;&gt;Node3 -->
<g id="edge3_Node000003_Node000004" class="edge">
<title>Node4&#45;&gt;Node3</title>
<g id="a_edge3_Node000003_Node000004"><a xlink:title=" ">
<path fill="none" stroke="#63b8ff" d="M1378.93,-62.62C1387.34,-62.62 1395.68,-62.62 1403.68,-62.62"/>
<polygon fill="#63b8ff" stroke="#63b8ff" points="1378.97,-59.13 1368.97,-62.63 1378.97,-66.13 1378.97,-59.13"/>
</a>
</g>
</g>
<!-- Node5 -->
<g id="Node000005" class="node">
<title>Node5</title>
<g id="a_Node000005"><a xlink:href="structDGtal_1_1concepts_1_1CUnaryFunctor.html" target="_top" xlink:title=" ">
<polygon fill="white" stroke="#666666" points="912.5,-98.88 752.5,-98.88 752.5,-68.38 912.5,-68.38 912.5,-98.88"/>
<text text-anchor="start" x="760.5" y="-85.38" font-family="FreeSans" font-size="10.00">DGtal::concepts::CUnaryFunctor</text>
<text text-anchor="middle" x="832.5" y="-74.12" font-family="FreeSans" font-size="10.00">&lt; I, I::Point, I::Value &gt;</text>
</a>
</g>
</g>
<!-- Node5&#45;&gt;Node4 -->
<g id="edge4_Node000004_Node000005" class="edge">
<title>Node5&#45;&gt;Node4</title>
<g id="a_edge4_Node000004_Node000005"><a xlink:title=" ">
<path fill="none" stroke="#63b8ff" d="M923.89,-79.35C992.02,-76.13 1087.75,-71.6 1171.75,-67.62 1177.53,-67.35 1183.48,-67.07 1189.48,-66.79"/>
<polygon fill="#63b8ff" stroke="#63b8ff" points="924.11,-75.84 914.29,-79.8 924.45,-82.83 924.11,-75.84"/>
</a>
</g>
</g>
<!-- Node6 -->
<g id="Node000006" class="node">
<title>Node6</title>
<g id="a_Node000006"><a xlink:href="structboost_1_1Assignable.html" target="_top" xlink:title=" ">
<polygon fill="white" stroke="#666666" points="433.5,-111.25 318.5,-111.25 318.5,-92 433.5,-92 433.5,-111.25"/>
<text text-anchor="middle" x="376" y="-97.75" font-family="FreeSans" font-size="10.00">boost::Assignable&lt; I &gt;</text>
</a>
</g>
</g>
<!-- Node6&#45;&gt;Node5 -->
<g id="edge5_Node000005_Node000006" class="edge">
<title>Node6&#45;&gt;Node5</title>
<g id="a_edge5_Node000005_Node000006"><a xlink:title=" ">
<path fill="none" stroke="#63b8ff" d="M445.13,-99.45C517.07,-97.09 633.79,-93.05 734.5,-88.62 740.23,-88.37 746.15,-88.1 752.1,-87.82"/>
<polygon fill="#63b8ff" stroke="#63b8ff" points="445.37,-95.94 435.49,-99.77 445.6,-102.94 445.37,-95.94"/>
</a>
</g>
</g>
<!-- Node7 -->
<g id="Node000007" class="node">
<title>Node7</title>
<g id="a_Node000007"><a xlink:href="structboost_1_1Assignable.html" target="_top" xlink:title="Go to http://www.sgi.com/tech/stl/Assignable.html.">
<polygon fill="white" stroke="#666666" points="118,-92.25 0,-92.25 0,-73 118,-73 118,-92.25"/>
<text text-anchor="middle" x="59" y="-78.75" font-family="FreeSans" font-size="10.00">boost::Assignable&lt; T &gt;</text>
</a>
</g>
</g>
<!-- Node7&#45;&gt;Node6 -->
<g id="edge6_Node000006_Node000007" class="edge">
<title>Node7&#45;&gt;Node6</title>
<g id="a_edge6_Node000006_Node000007"><a xlink:title=" ">
<path fill="none" stroke="orange" stroke-dasharray="5,2" d="M129.53,-86.82C186.23,-90.24 265.33,-95.01 318.26,-98.2"/>
<polygon fill="orange" stroke="orange" points="129.85,-83.33 119.65,-86.22 129.42,-90.32 129.85,-83.33"/>
</a>
</g>
<text text-anchor="middle" x="149.88" y="-90.29" font-family="FreeSans" font-size="10.00" fill="grey"> &lt; I &gt;</text>
</g>
<!-- Node9 -->
<g id="Node000009" class="node">
<title>Node9</title>
<g id="a_Node000009"><a xlink:href="structboost_1_1Assignable.html" target="_top" xlink:title=" ">
<polygon fill="white" stroke="#666666" points="300.5,-72.25 181.75,-72.25 181.75,-53 300.5,-53 300.5,-72.25"/>
<text text-anchor="middle" x="241.12" y="-58.75" font-family="FreeSans" font-size="10.00">boost::Assignable&lt; X &gt;</text>
</a>
</g>
</g>
<!-- Node7&#45;&gt;Node9 -->
<g id="edge9_Node000009_Node000007" class="edge">
<title>Node7&#45;&gt;Node9</title>
<g id="a_edge9_Node000009_Node000007"><a xlink:title=" ">
<path fill="none" stroke="orange" stroke-dasharray="5,2" d="M119.72,-70.67C125.21,-69.8 130.7,-69.02 136,-68.38 150.65,-66.6 166.52,-65.38 181.36,-64.53"/>
<polygon fill="orange" stroke="orange" points="119.28,-67.2 110,-72.31 120.44,-74.1 119.28,-67.2"/>
</a>
</g>
<text text-anchor="middle" x="149.88" y="-70.12" font-family="FreeSans" font-size="10.00" fill="grey"> &lt; X &gt;</text>
</g>
<!-- Node8 -->
<g id="Node000008" class="node">
<title>Node8</title>
<g id="a_Node000008"><a xlink:href="structDGtal_1_1concepts_1_1CUnaryFunctor.html" target="_top" xlink:title="Aim: Defines a unary functor, which associates arguments to results.">
<polygon fill="white" stroke="#666666" points="611.5,-74.88 451.5,-74.88 451.5,-44.38 611.5,-44.38 611.5,-74.88"/>
<text text-anchor="start" x="459.5" y="-61.38" font-family="FreeSans" font-size="10.00">DGtal::concepts::CUnaryFunctor</text>
<text text-anchor="middle" x="531.5" y="-50.12" font-family="FreeSans" font-size="10.00">&lt; X, A, R &gt;</text>
</a>
</g>
</g>
<!-- Node8&#45;&gt;Node5 -->
<g id="edge7_Node000005_Node000008" class="edge">
<title>Node8&#45;&gt;Node5</title>
<g id="a_edge7_Node000005_Node000008"><a xlink:title=" ">
<path fill="none" stroke="orange" stroke-dasharray="5,2" d="M623.23,-66.91C664.3,-70.2 712.42,-74.07 752.05,-77.25"/>
<polygon fill="orange" stroke="orange" points="623.6,-63.43 613.35,-66.11 623.04,-70.4 623.6,-63.43"/>
</a>
</g>
<text text-anchor="middle" x="682" y="-76.93" font-family="FreeSans" font-size="10.00" fill="grey"> &lt; I, I::Point, I::Value &gt;</text>
</g>
<!-- Node11 -->
<g id="Node000011" class="node">
<title>Node11</title>
<g id="a_Node000011"><a xlink:href="structDGtal_1_1concepts_1_1CUnaryFunctor.html" target="_top" xlink:title=" ">
<polygon fill="white" stroke="#666666" points="912.5,-49.88 752.5,-49.88 752.5,-19.38 912.5,-19.38 912.5,-49.88"/>
<text text-anchor="start" x="760.5" y="-36.38" font-family="FreeSans" font-size="10.00">DGtal::concepts::CUnaryFunctor</text>
<text text-anchor="middle" x="832.5" y="-25.12" font-family="FreeSans" font-size="10.00">&lt; T, T::Point, T::Value &gt;</text>
</a>
</g>
</g>
<!-- Node8&#45;&gt;Node11 -->
<g id="edge13_Node000011_Node000008" class="edge">
<title>Node8&#45;&gt;Node11</title>
<g id="a_edge13_Node000011_Node000008"><a xlink:title=" ">
<path fill="none" stroke="orange" stroke-dasharray="5,2" d="M623.23,-52.04C664.3,-48.6 712.42,-44.58 752.05,-41.27"/>
<polygon fill="orange" stroke="orange" points="623.02,-48.54 613.35,-52.86 623.61,-55.52 623.02,-48.54"/>
</a>
</g>
<text text-anchor="middle" x="682" y="-52.58" font-family="FreeSans" font-size="10.00" fill="grey"> &lt; T, T::Point, T::Value &gt;</text>
</g>
<!-- Node9&#45;&gt;Node8 -->
<g id="edge8_Node000008_Node000009" class="edge">
<title>Node9&#45;&gt;Node8</title>
<g id="a_edge8_Node000008_Node000009"><a xlink:title=" ">
<path fill="none" stroke="#63b8ff" d="M312.33,-61.89C354.27,-61.46 407.64,-60.9 451.1,-60.45"/>
<polygon fill="#63b8ff" stroke="#63b8ff" points="312.31,-58.39 302.34,-62 312.38,-65.39 312.31,-58.39"/>
</a>
</g>
</g>
<!-- Node10 -->
<g id="Node000010" class="node">
<title>Node10</title>
<g id="a_Node000010"><a xlink:href="structDGtal_1_1concepts_1_1CPointFunctor.html" target="_top" xlink:title="Aim: Defines a functor on points.">
<polygon fill="white" stroke="#666666" points="1129.75,-52.25 949.5,-52.25 949.5,-33 1129.75,-33 1129.75,-52.25"/>
<text text-anchor="middle" x="1039.62" y="-38.75" font-family="FreeSans" font-size="10.00">DGtal::concepts::CPointFunctor&lt; T &gt;</text>
</a>
</g>
</g>
<!-- Node10&#45;&gt;Node4 -->
<g id="edge10_Node000004_Node000010" class="edge">
<title>Node10&#45;&gt;Node4</title>
<g id="a_edge10_Node000004_Node000010"><a xlink:title=" ">
<path fill="none" stroke="orange" stroke-dasharray="5,2" d="M1141.59,-51.15C1157.47,-52.5 1173.76,-53.87 1189.31,-55.19"/>
<polygon fill="orange" stroke="orange" points="1141.9,-47.67 1131.64,-50.31 1141.31,-54.64 1141.9,-47.67"/>
</a>
</g>
<text text-anchor="middle" x="1159.75" y="-54.97" font-family="FreeSans" font-size="10.00" fill="grey"> &lt; I &gt;</text>
</g>
<!-- Node11&#45;&gt;Node10 -->
<g id="edge11_Node000010_Node000011" class="edge">
<title>Node11&#45;&gt;Node10</title>
<g id="a_edge11_Node000010_Node000011"><a xlink:title=" ">
<path fill="none" stroke="#63b8ff" d="M924.12,-38.16C932.48,-38.49 940.95,-38.82 949.3,-39.14"/>
<polygon fill="#63b8ff" stroke="#63b8ff" points="924.45,-34.67 914.32,-37.78 924.18,-41.66 924.45,-34.67"/>
</a>
</g>
</g>
<!-- Node12 -->
<g id="Node000012" class="node">
<title>Node12</title>
<g id="a_Node000012"><a xlink:href="structboost_1_1Assignable.html" target="_top" xlink:title="Go to http://www.sgi.com/tech/stl/Assignable.html.">
<polygon fill="white" stroke="#666666" points="590.5,-19.25 472.5,-19.25 472.5,0 590.5,0 590.5,-19.25"/>
<text text-anchor="middle" x="531.5" y="-5.75" font-family="FreeSans" font-size="10.00">boost::Assignable&lt; T &gt;</text>
</a>
</g>
</g>
<!-- Node12&#45;&gt;Node11 -->
<g id="edge12_Node000011_Node000012" class="edge">
<title>Node12&#45;&gt;Node11</title>
<g id="a_edge12_Node000011_Node000012"><a xlink:title=" ">
<path fill="none" stroke="#63b8ff" d="M602.36,-13.71C641.29,-16.18 690.62,-19.62 734.5,-23.62 740.24,-24.15 746.16,-24.73 752.12,-25.34"/>
<polygon fill="#63b8ff" stroke="#63b8ff" points="602.6,-10.22 592.41,-13.09 602.17,-17.21 602.6,-10.22"/>
</a>
</g>
</g>
<!-- Node13&#45;&gt;Node1 -->
<g id="edge14_Node000001_Node000013" class="edge">
<title>Node13&#45;&gt;Node1</title>
<g id="a_edge14_Node000001_Node000013"><a xlink:title=" ">
<path fill="none" stroke="#63b8ff" d="M1730.36,-49.5C1746.53,-51.23 1763.65,-53.05 1779.81,-54.78"/>
<polygon fill="#63b8ff" stroke="#63b8ff" points="1731.15,-46.07 1720.84,-48.49 1730.41,-53.03 1731.15,-46.07"/>
</a>
</g>
</g>
</g>
</svg>
