<?xml version="1.0" encoding="UTF-8" standalone="no"?>
<!DOCTYPE svg PUBLIC "-//W3C//DTD SVG 1.1//EN"
 "http://www.w3.org/Graphics/SVG/1.1/DTD/svg11.dtd">
<!-- Generated by graphviz version 12.2.1 (20241206.2353)
 -->
<!-- Title: DGtal::concepts::CDigitalSet&lt; T &gt; Pages: 1 -->
<svg width="1612pt" height="102pt"
 viewBox="0.00 0.00 1611.50 102.05" xmlns="http://www.w3.org/2000/svg" xmlns:xlink="http://www.w3.org/1999/xlink">
<g id="graph0" class="graph" transform="scale(1 1) rotate(0) translate(4 98.05)">
<title>DGtal::concepts::CDigitalSet&lt; T &gt;</title>
<!-- Node1 -->
<g id="Node000001" class="node">
<title>Node1</title>
<g id="a_Node000001"><a xlink:title="Aim: Represents a set of points within the given domain. This set of points is modifiable by the user...">
<polygon fill="#999999" stroke="#666666" points="1603.5,-80.68 1475,-80.68 1475,-50.18 1603.5,-50.18 1603.5,-80.68"/>
<text text-anchor="start" x="1483" y="-67.18" font-family="FreeSans" font-size="10.00">DGtal::concepts::CDigital</text>
<text text-anchor="middle" x="1539.25" y="-55.93" font-family="FreeSans" font-size="10.00">Set&lt; T &gt;</text>
</a>
</g>
</g>
<!-- Node2 -->
<g id="Node000002" class="node">
<title>Node2</title>
<g id="a_Node000002"><a xlink:href="structboost_1_1CopyConstructible.html" target="_top" xlink:title="Go to http://www.sgi.com/tech/stl/CopyConstructible.html.">
<polygon fill="white" stroke="#666666" points="1419.25,-94.05 1268.25,-94.05 1268.25,-74.8 1419.25,-74.8 1419.25,-94.05"/>
<text text-anchor="middle" x="1343.75" y="-80.55" font-family="FreeSans" font-size="10.00">boost::CopyConstructible&lt; T &gt;</text>
</a>
</g>
</g>
<!-- Node2&#45;&gt;Node1 -->
<g id="edge1_Node000001_Node000002" class="edge">
<title>Node2&#45;&gt;Node1</title>
<g id="a_edge1_Node000001_Node000002"><a xlink:title=" ">
<path fill="none" stroke="#63b8ff" d="M1430.76,-75.98C1445.51,-74.53 1460.6,-73.05 1474.64,-71.67"/>
<polygon fill="#63b8ff" stroke="#63b8ff" points="1430.68,-72.47 1421.07,-76.93 1431.36,-79.44 1430.68,-72.47"/>
</a>
</g>
</g>
<!-- Node3 -->
<g id="Node000003" class="node">
<title>Node3</title>
<g id="a_Node000003"><a xlink:href="structDGtal_1_1concepts_1_1CPointPredicate.html" target="_top" xlink:title="Aim: Defines a predicate on a point.">
<polygon fill="white" stroke="#666666" points="1438,-57.05 1249.5,-57.05 1249.5,-37.8 1438,-37.8 1438,-57.05"/>
<text text-anchor="middle" x="1343.75" y="-43.55" font-family="FreeSans" font-size="10.00">DGtal::concepts::CPointPredicate&lt; T &gt;</text>
</a>
</g>
</g>
<!-- Node3&#45;&gt;Node1 -->
<g id="edge2_Node000001_Node000003" class="edge">
<title>Node3&#45;&gt;Node1</title>
<g id="a_edge2_Node000001_Node000003"><a xlink:title=" ">
<path fill="none" stroke="#63b8ff" d="M1449.58,-57.18C1458.07,-57.97 1466.49,-58.75 1474.55,-59.5"/>
<polygon fill="#63b8ff" stroke="#63b8ff" points="1450.17,-53.72 1439.89,-56.28 1449.52,-60.69 1450.17,-53.72"/>
</a>
</g>
</g>
<!-- Node4 -->
<g id="Node000004" class="node">
<title>Node4</title>
<g id="a_Node000004"><a xlink:href="structDGtal_1_1concepts_1_1CPredicate.html" target="_top" xlink:title=" ">
<polygon fill="white" stroke="#666666" points="1212.5,-62.68 1070.5,-62.68 1070.5,-32.18 1212.5,-32.18 1212.5,-62.68"/>
<text text-anchor="start" x="1078.5" y="-49.18" font-family="FreeSans" font-size="10.00">DGtal::concepts::CPredicate</text>
<text text-anchor="middle" x="1141.5" y="-37.93" font-family="FreeSans" font-size="10.00">&lt; T, T::Point &gt;</text>
</a>
</g>
</g>
<!-- Node4&#45;&gt;Node3 -->
<g id="edge3_Node000003_Node000004" class="edge">
<title>Node4&#45;&gt;Node3</title>
<g id="a_edge3_Node000003_Node000004"><a xlink:title=" ">
<path fill="none" stroke="#63b8ff" d="M1224.24,-47.43C1232.42,-47.43 1240.76,-47.43 1249.05,-47.43"/>
<polygon fill="#63b8ff" stroke="#63b8ff" points="1224.33,-43.93 1214.33,-47.43 1224.33,-50.93 1224.33,-43.93"/>
</a>
</g>
</g>
<!-- Node5 -->
<g id="Node000005" class="node">
<title>Node5</title>
<g id="a_Node000005"><a xlink:href="structDGtal_1_1concepts_1_1CUnaryFunctor.html" target="_top" xlink:title=" ">
<polygon fill="white" stroke="#666666" points="791,-84.68 631,-84.68 631,-54.18 791,-54.18 791,-84.68"/>
<text text-anchor="start" x="639" y="-71.18" font-family="FreeSans" font-size="10.00">DGtal::concepts::CUnaryFunctor</text>
<text text-anchor="middle" x="711" y="-59.93" font-family="FreeSans" font-size="10.00">&lt; T, T::Point, bool &gt;</text>
</a>
</g>
</g>
<!-- Node5&#45;&gt;Node4 -->
<g id="edge4_Node000004_Node000005" class="edge">
<title>Node5&#45;&gt;Node4</title>
<g id="a_edge4_Node000004_Node000005"><a xlink:title=" ">
<path fill="none" stroke="#63b8ff" d="M802.68,-65.69C871.3,-62.73 967.85,-58.3 1052.5,-53.43 1058.31,-53.09 1064.33,-52.73 1070.38,-52.34"/>
<polygon fill="#63b8ff" stroke="#63b8ff" points="802.84,-62.18 793,-66.1 803.14,-69.17 802.84,-62.18"/>
</a>
</g>
</g>
<!-- Node6 -->
<g id="Node000006" class="node">
<title>Node6</title>
<g id="a_Node000006"><a xlink:href="structboost_1_1Assignable.html" target="_top" xlink:title="Go to http://www.sgi.com/tech/stl/Assignable.html.">
<polygon fill="white" stroke="#666666" points="476.5,-84.05 358.5,-84.05 358.5,-64.8 476.5,-64.8 476.5,-84.05"/>
<text text-anchor="middle" x="417.5" y="-70.55" font-family="FreeSans" font-size="10.00">boost::Assignable&lt; T &gt;</text>
</a>
</g>
</g>
<!-- Node6&#45;&gt;Node5 -->
<g id="edge5_Node000005_Node000006" class="edge">
<title>Node6&#45;&gt;Node5</title>
<g id="a_edge5_Node000005_Node000006"><a xlink:title=" ">
<path fill="none" stroke="#63b8ff" d="M488.01,-74.68C525.11,-74.66 571.55,-74.39 613,-73.43 618.73,-73.29 624.65,-73.13 630.6,-72.94"/>
<polygon fill="#63b8ff" stroke="#63b8ff" points="488.32,-71.18 478.32,-74.68 488.32,-78.18 488.32,-71.18"/>
</a>
</g>
</g>
<!-- Node11 -->
<g id="Node000011" class="node">
<title>Node11</title>
<g id="a_Node000011"><a xlink:href="structDGtal_1_1concepts_1_1CUnaryFunctor.html" target="_top" xlink:title=" ">
<polygon fill="white" stroke="#666666" points="791,-35.68 631,-35.68 631,-5.18 791,-5.18 791,-35.68"/>
<text text-anchor="start" x="639" y="-22.18" font-family="FreeSans" font-size="10.00">DGtal::concepts::CUnaryFunctor</text>
<text text-anchor="middle" x="711" y="-10.93" font-family="FreeSans" font-size="10.00">&lt; T, TElement, bool &gt;</text>
</a>
</g>
</g>
<!-- Node6&#45;&gt;Node11 -->
<g id="edge11_Node000011_Node000006" class="edge">
<title>Node6&#45;&gt;Node11</title>
<g id="a_edge11_Node000011_Node000006"><a xlink:title=" ">
<path fill="none" stroke="#63b8ff" d="M488.01,-67.66C525.3,-63.4 571.91,-57.06 613,-48.43 628.78,-45.11 645.75,-40.57 661.01,-36.1"/>
<polygon fill="#63b8ff" stroke="#63b8ff" points="487.81,-64.17 478.26,-68.75 488.59,-71.12 487.81,-64.17"/>
</a>
</g>
</g>
<!-- Node7 -->
<g id="Node000007" class="node">
<title>Node7</title>
<g id="a_Node000007"><a xlink:href="structDGtal_1_1concepts_1_1CUnaryFunctor.html" target="_top" xlink:title="Aim: Defines a unary functor, which associates arguments to results.">
<polygon fill="white" stroke="#666666" points="497.5,-38.68 337.5,-38.68 337.5,-8.18 497.5,-8.18 497.5,-38.68"/>
<text text-anchor="start" x="345.5" y="-25.18" font-family="FreeSans" font-size="10.00">DGtal::concepts::CUnaryFunctor</text>
<text text-anchor="middle" x="417.5" y="-13.93" font-family="FreeSans" font-size="10.00">&lt; X, A, R &gt;</text>
</a>
</g>
</g>
<!-- Node7&#45;&gt;Node5 -->
<g id="edge6_Node000005_Node000007" class="edge">
<title>Node7&#45;&gt;Node5</title>
<g id="a_edge6_Node000005_Node000007"><a xlink:title=" ">
<path fill="none" stroke="orange" stroke-dasharray="5,2" d="M509.11,-37.73C548.05,-43.87 593.16,-50.99 630.75,-56.92"/>
<polygon fill="orange" stroke="orange" points="509.69,-34.27 499.26,-36.17 508.6,-41.19 509.69,-34.27"/>
</a>
</g>
<text text-anchor="middle" x="564.25" y="-54.99" font-family="FreeSans" font-size="10.00" fill="grey"> &lt; T, T::Point, bool &gt;</text>
</g>
<!-- Node7&#45;&gt;Node11 -->
<g id="edge12_Node000011_Node000007" class="edge">
<title>Node7&#45;&gt;Node11</title>
<g id="a_edge12_Node000011_Node000007"><a xlink:title=" ">
<path fill="none" stroke="orange" stroke-dasharray="5,2" d="M495.85,-5.8C502.47,-4.74 509.09,-3.84 515.5,-3.18 558.6,1.27 569.83,0.63 613,-3.18 618.79,-3.69 624.76,-4.37 630.75,-5.16"/>
<polygon fill="orange" stroke="orange" points="495.5,-2.31 486.24,-7.46 496.68,-9.21 495.5,-2.31"/>
</a>
</g>
<text text-anchor="middle" x="564.25" y="-4.93" font-family="FreeSans" font-size="10.00" fill="grey"> &lt; T, TElement, bool &gt;</text>
</g>
<!-- Node8 -->
<g id="Node000008" class="node">
<title>Node8</title>
<g id="a_Node000008"><a xlink:href="structboost_1_1Assignable.html" target="_top" xlink:title=" ">
<polygon fill="white" stroke="#666666" points="300.5,-33.05 181.75,-33.05 181.75,-13.8 300.5,-13.8 300.5,-33.05"/>
<text text-anchor="middle" x="241.12" y="-19.55" font-family="FreeSans" font-size="10.00">boost::Assignable&lt; X &gt;</text>
</a>
</g>
</g>
<!-- Node8&#45;&gt;Node7 -->
<g id="edge7_Node000007_Node000008" class="edge">
<title>Node8&#45;&gt;Node7</title>
<g id="a_edge7_Node000007_Node000008"><a xlink:title=" ">
<path fill="none" stroke="#63b8ff" d="M312.1,-23.43C320.3,-23.43 328.72,-23.43 337.04,-23.43"/>
<polygon fill="#63b8ff" stroke="#63b8ff" points="312.19,-19.93 302.19,-23.43 312.19,-26.93 312.19,-19.93"/>
</a>
</g>
</g>
<!-- Node9 -->
<g id="Node000009" class="node">
<title>Node9</title>
<g id="a_Node000009"><a xlink:href="structboost_1_1Assignable.html" target="_top" xlink:title="Go to http://www.sgi.com/tech/stl/Assignable.html.">
<polygon fill="white" stroke="#666666" points="118,-33.05 0,-33.05 0,-13.8 118,-13.8 118,-33.05"/>
<text text-anchor="middle" x="59" y="-19.55" font-family="FreeSans" font-size="10.00">boost::Assignable&lt; T &gt;</text>
</a>
</g>
</g>
<!-- Node9&#45;&gt;Node8 -->
<g id="edge8_Node000008_Node000009" class="edge">
<title>Node9&#45;&gt;Node8</title>
<g id="a_edge8_Node000008_Node000009"><a xlink:title=" ">
<path fill="none" stroke="orange" stroke-dasharray="5,2" d="M129.54,-23.43C146.64,-23.43 164.78,-23.43 181.32,-23.43"/>
<polygon fill="orange" stroke="orange" points="130,-19.93 119.99,-23.43 129.99,-26.93 130,-19.93"/>
</a>
</g>
<text text-anchor="middle" x="149.88" y="-25.18" font-family="FreeSans" font-size="10.00" fill="grey"> &lt; X &gt;</text>
</g>
<!-- Node10 -->
<g id="Node000010" class="node">
<title>Node10</title>
<g id="a_Node000010"><a xlink:href="structDGtal_1_1concepts_1_1CPredicate.html" target="_top" xlink:title="Aim: Defines a predicate function, ie. a functor mapping a domain into the set of booleans.">
<polygon fill="white" stroke="#666666" points="970,-39.68 828,-39.68 828,-9.18 970,-9.18 970,-39.68"/>
<text text-anchor="start" x="836" y="-26.18" font-family="FreeSans" font-size="10.00">DGtal::concepts::CPredicate</text>
<text text-anchor="middle" x="899" y="-14.93" font-family="FreeSans" font-size="10.00">&lt; T, TElement &gt;</text>
</a>
</g>
</g>
<!-- Node10&#45;&gt;Node4 -->
<g id="edge9_Node000004_Node000010" class="edge">
<title>Node10&#45;&gt;Node4</title>
<g id="a_edge9_Node000004_Node000010"><a xlink:title=" ">
<path fill="none" stroke="orange" stroke-dasharray="5,2" d="M981.49,-32.22C1010.29,-34.97 1042.41,-38.05 1070.2,-40.7"/>
<polygon fill="orange" stroke="orange" points="982,-28.75 971.72,-31.29 981.34,-35.72 982,-28.75"/>
</a>
</g>
<text text-anchor="middle" x="1020.25" y="-40.41" font-family="FreeSans" font-size="10.00" fill="grey"> &lt; T, T::Point &gt;</text>
</g>
<!-- Node11&#45;&gt;Node10 -->
<g id="edge10_Node000010_Node000011" class="edge">
<title>Node11&#45;&gt;Node10</title>
<g id="a_edge10_Node000010_Node000011"><a xlink:title=" ">
<path fill="none" stroke="#63b8ff" d="M802.78,-22.38C811.14,-22.56 819.52,-22.74 827.66,-22.92"/>
<polygon fill="#63b8ff" stroke="#63b8ff" points="803.01,-18.88 792.93,-22.17 802.86,-25.88 803.01,-18.88"/>
</a>
</g>
</g>
</g>
</svg>
