<?xml version="1.0" encoding="UTF-8" standalone="no"?>
<!DOCTYPE svg PUBLIC "-//W3C//DTD SVG 1.1//EN"
 "http://www.w3.org/Graphics/SVG/1.1/DTD/svg11.dtd">
<!-- Generated by graphviz version 12.2.1 (20241206.2353)
 -->
<!-- Title: DGtal::concepts::CInteger&lt; T &gt; Pages: 1 -->
<svg width="1298pt" height="113pt"
 viewBox="0.00 0.00 1298.25 112.88" xmlns="http://www.w3.org/2000/svg" xmlns:xlink="http://www.w3.org/1999/xlink">
<g id="graph0" class="graph" transform="scale(1 1) rotate(0) translate(4 108.88)">
<title>DGtal::concepts::CInteger&lt; T &gt;</title>
<!-- Node1 -->
<g id="Node000001" class="node">
<title>Node1</title>
<g id="a_Node000001"><a xlink:title="Aim: Concept checking for Integer Numbers. More precisely, this concept is a refinement of both CEucl...">
<polygon fill="#999999" stroke="#666666" points="1290.25,-48.88 1135.5,-48.88 1135.5,-29.62 1290.25,-29.62 1290.25,-48.88"/>
<text text-anchor="middle" x="1212.88" y="-35.38" font-family="FreeSans" font-size="10.00">DGtal::concepts::CInteger&lt; T &gt;</text>
</a>
</g>
</g>
<!-- Node2 -->
<g id="Node000002" class="node">
<title>Node2</title>
<g id="a_Node000002"><a xlink:href="structDGtal_1_1concepts_1_1CEuclideanRing.html" target="_top" xlink:title="Aim: Defines the mathematical concept equivalent to a unitary commutative ring with a division operat...">
<polygon fill="white" stroke="#666666" points="1099.5,-77.5 956,-77.5 956,-47 1099.5,-47 1099.5,-77.5"/>
<text text-anchor="start" x="964" y="-64" font-family="FreeSans" font-size="10.00">DGtal::concepts::CEuclidean</text>
<text text-anchor="middle" x="1027.75" y="-52.75" font-family="FreeSans" font-size="10.00">Ring&lt; T &gt;</text>
</a>
</g>
</g>
<!-- Node2&#45;&gt;Node1 -->
<g id="edge1_Node000001_Node000002" class="edge">
<title>Node2&#45;&gt;Node1</title>
<g id="a_edge1_Node000001_Node000002"><a xlink:title=" ">
<path fill="none" stroke="#63b8ff" d="M1111.04,-51.91C1119.04,-50.91 1127.14,-49.89 1135.09,-48.89"/>
<polygon fill="#63b8ff" stroke="#63b8ff" points="1110.8,-48.42 1101.31,-53.14 1111.67,-55.36 1110.8,-48.42"/>
</a>
</g>
</g>
<!-- Node3 -->
<g id="Node000003" class="node">
<title>Node3</title>
<g id="a_Node000003"><a xlink:href="structDGtal_1_1concepts_1_1CCommutativeRing.html" target="_top" xlink:title="Aim: Defines the mathematical concept equivalent to a unitary commutative ring.">
<polygon fill="white" stroke="#666666" points="920,-79.5 760.75,-79.5 760.75,-49 920,-49 920,-79.5"/>
<text text-anchor="start" x="768.75" y="-66" font-family="FreeSans" font-size="10.00">DGtal::concepts::CCommutative</text>
<text text-anchor="middle" x="840.38" y="-54.75" font-family="FreeSans" font-size="10.00">Ring&lt; T &gt;</text>
</a>
</g>
</g>
<!-- Node3&#45;&gt;Node2 -->
<g id="edge2_Node000002_Node000003" class="edge">
<title>Node3&#45;&gt;Node2</title>
<g id="a_edge2_Node000002_Node000003"><a xlink:title=" ">
<path fill="none" stroke="#63b8ff" d="M931.6,-63.28C939.64,-63.19 947.72,-63.1 955.57,-63.02"/>
<polygon fill="#63b8ff" stroke="#63b8ff" points="931.73,-59.77 921.77,-63.38 931.81,-66.77 931.73,-59.77"/>
</a>
</g>
</g>
<!-- Node4 -->
<g id="Node000004" class="node">
<title>Node4</title>
<g id="a_Node000004"><a xlink:href="structDGtal_1_1concepts_1_1CSignedNumber.html" target="_top" xlink:title="Aim: Concept checking for Signed Numbers. Models of this concept should be listed in NumberTraits cla...">
<polygon fill="white" stroke="#666666" points="724.75,-77.5 594,-77.5 594,-47 724.75,-47 724.75,-77.5"/>
<text text-anchor="start" x="602" y="-64" font-family="FreeSans" font-size="10.00">DGtal::concepts::CSigned</text>
<text text-anchor="middle" x="659.38" y="-52.75" font-family="FreeSans" font-size="10.00">Number&lt; T &gt;</text>
</a>
</g>
</g>
<!-- Node4&#45;&gt;Node3 -->
<g id="edge3_Node000003_Node000004" class="edge">
<title>Node4&#45;&gt;Node3</title>
<g id="a_edge3_Node000003_Node000004"><a xlink:title=" ">
<path fill="none" stroke="#63b8ff" d="M736.5,-63.1C744.44,-63.19 752.52,-63.28 760.49,-63.37"/>
<polygon fill="#63b8ff" stroke="#63b8ff" points="736.55,-59.6 726.51,-62.99 736.47,-66.6 736.55,-59.6"/>
</a>
</g>
</g>
<!-- Node5 -->
<g id="Node000005" class="node">
<title>Node5</title>
<g id="a_Node000005"><a xlink:href="structDGtal_1_1concepts_1_1CQuantity.html" target="_top" xlink:title="Aim: defines the concept of quantity in DGtal.">
<polygon fill="white" stroke="#666666" points="558,-48.88 396.5,-48.88 396.5,-29.62 558,-29.62 558,-48.88"/>
<text text-anchor="middle" x="477.25" y="-35.38" font-family="FreeSans" font-size="10.00">DGtal::concepts::CQuantity&lt; T &gt;</text>
</a>
</g>
</g>
<!-- Node5&#45;&gt;Node4 -->
<g id="edge4_Node000004_Node000005" class="edge">
<title>Node5&#45;&gt;Node4</title>
<g id="a_edge4_Node000004_Node000005"><a xlink:title=" ">
<path fill="none" stroke="#63b8ff" d="M568.89,-50.82C577.25,-51.89 585.61,-52.96 593.66,-53.99"/>
<polygon fill="#63b8ff" stroke="#63b8ff" points="569.38,-47.36 559.02,-49.56 568.5,-54.3 569.38,-47.36"/>
</a>
</g>
</g>
<!-- Node11 -->
<g id="Node000011" class="node">
<title>Node11</title>
<g id="a_Node000011"><a xlink:href="structDGtal_1_1concepts_1_1CIntegralNumber.html" target="_top" xlink:title="Aim: Concept checking for Integral Numbers. Models of this concept should be listed in NumberTraits c...">
<polygon fill="white" stroke="#666666" points="906.88,-30.5 773.88,-30.5 773.88,0 906.88,0 906.88,-30.5"/>
<text text-anchor="start" x="781.88" y="-17" font-family="FreeSans" font-size="10.00">DGtal::concepts::CIntegral</text>
<text text-anchor="middle" x="840.38" y="-5.75" font-family="FreeSans" font-size="10.00">Number&lt; T &gt;</text>
</a>
</g>
</g>
<!-- Node5&#45;&gt;Node11 -->
<g id="edge11_Node000011_Node000005" class="edge">
<title>Node5&#45;&gt;Node11</title>
<g id="a_edge11_Node000011_Node000005"><a xlink:title=" ">
<path fill="none" stroke="#63b8ff" d="M569.63,-33.18C633.22,-28.95 716.52,-23.41 773.63,-19.62"/>
<polygon fill="#63b8ff" stroke="#63b8ff" points="569.65,-29.67 559.91,-33.82 570.12,-36.65 569.65,-29.67"/>
</a>
</g>
</g>
<!-- Node6 -->
<g id="Node000006" class="node">
<title>Node6</title>
<g id="a_Node000006"><a xlink:href="structDGtal_1_1concepts_1_1CLabel.html" target="_top" xlink:title="Aim: Define the concept of DGtal labels. Models of CLabel can be default&#45;constructible,...">
<polygon fill="white" stroke="#666666" points="351.88,-67.88 203.88,-67.88 203.88,-48.62 351.88,-48.62 351.88,-67.88"/>
<text text-anchor="middle" x="277.88" y="-54.38" font-family="FreeSans" font-size="10.00">DGtal::concepts::CLabel&lt; T &gt;</text>
</a>
</g>
</g>
<!-- Node6&#45;&gt;Node5 -->
<g id="edge5_Node000005_Node000006" class="edge">
<title>Node6&#45;&gt;Node5</title>
<g id="a_edge5_Node000005_Node000006"><a xlink:title=" ">
<path fill="none" stroke="#63b8ff" d="M363.52,-50.1C374.32,-49.06 385.34,-48 396.07,-46.97"/>
<polygon fill="#63b8ff" stroke="#63b8ff" points="363.5,-46.59 353.88,-51.03 364.17,-53.56 363.5,-46.59"/>
</a>
</g>
</g>
<!-- Node7 -->
<g id="Node000007" class="node">
<title>Node7</title>
<g id="a_Node000007"><a xlink:href="structboost_1_1DefaultConstructible.html" target="_top" xlink:title="Go to http://www.sgi.com/tech/stl/DefaultConstructible.html.">
<polygon fill="white" stroke="#666666" points="159.25,-104.88 0,-104.88 0,-85.62 159.25,-85.62 159.25,-104.88"/>
<text text-anchor="middle" x="79.62" y="-91.38" font-family="FreeSans" font-size="10.00">boost::DefaultConstructible&lt; T &gt;</text>
</a>
</g>
</g>
<!-- Node7&#45;&gt;Node6 -->
<g id="edge6_Node000006_Node000007" class="edge">
<title>Node7&#45;&gt;Node6</title>
<g id="a_edge6_Node000006_Node000007"><a xlink:title=" ">
<path fill="none" stroke="#63b8ff" d="M145.23,-83.07C170.53,-78.3 199.2,-72.89 223.31,-68.35"/>
<polygon fill="#63b8ff" stroke="#63b8ff" points="144.92,-79.57 135.74,-84.86 146.21,-86.45 144.92,-79.57"/>
</a>
</g>
</g>
<!-- Node8 -->
<g id="Node000008" class="node">
<title>Node8</title>
<g id="a_Node000008"><a xlink:href="structboost_1_1Assignable.html" target="_top" xlink:title="Go to http://www.sgi.com/tech/stl/Assignable.html.">
<polygon fill="white" stroke="#666666" points="138.62,-67.88 20.62,-67.88 20.62,-48.62 138.62,-48.62 138.62,-67.88"/>
<text text-anchor="middle" x="79.62" y="-54.38" font-family="FreeSans" font-size="10.00">boost::Assignable&lt; T &gt;</text>
</a>
</g>
</g>
<!-- Node8&#45;&gt;Node6 -->
<g id="edge7_Node000006_Node000008" class="edge">
<title>Node8&#45;&gt;Node6</title>
<g id="a_edge7_Node000006_Node000008"><a xlink:title=" ">
<path fill="none" stroke="#63b8ff" d="M150.11,-58.25C167.39,-58.25 185.96,-58.25 203.42,-58.25"/>
<polygon fill="#63b8ff" stroke="#63b8ff" points="150.49,-54.75 140.49,-58.25 150.49,-61.75 150.49,-54.75"/>
</a>
</g>
</g>
<!-- Node9 -->
<g id="Node000009" class="node">
<title>Node9</title>
<g id="a_Node000009"><a xlink:href="structboost_1_1EqualityComparable.html" target="_top" xlink:title="Go to http://www.sgi.com/tech/stl/EqualityComparable.html.">
<polygon fill="white" stroke="#666666" points="158.5,-30.88 0.75,-30.88 0.75,-11.62 158.5,-11.62 158.5,-30.88"/>
<text text-anchor="middle" x="79.62" y="-17.38" font-family="FreeSans" font-size="10.00">boost::EqualityComparable&lt; T &gt;</text>
</a>
</g>
</g>
<!-- Node9&#45;&gt;Node6 -->
<g id="edge8_Node000006_Node000009" class="edge">
<title>Node9&#45;&gt;Node6</title>
<g id="a_edge8_Node000006_Node000009"><a xlink:title=" ">
<path fill="none" stroke="#63b8ff" d="M145.23,-33.43C170.53,-38.2 199.2,-43.61 223.31,-48.15"/>
<polygon fill="#63b8ff" stroke="#63b8ff" points="146.21,-30.05 135.74,-31.64 144.92,-36.93 146.21,-30.05"/>
</a>
</g>
</g>
<!-- Node10 -->
<g id="Node000010" class="node">
<title>Node10</title>
<g id="a_Node000010"><a xlink:href="structboost_1_1LessThanComparable.html" target="_top" xlink:title="Go to http://www.sgi.com/tech/stl/LessThanComparable.html.">
<polygon fill="white" stroke="#666666" points="360.5,-30.88 195.25,-30.88 195.25,-11.62 360.5,-11.62 360.5,-30.88"/>
<text text-anchor="middle" x="277.88" y="-17.38" font-family="FreeSans" font-size="10.00">boost::LessThanComparable&lt; T &gt;</text>
</a>
</g>
</g>
<!-- Node10&#45;&gt;Node5 -->
<g id="edge9_Node000005_Node000010" class="edge">
<title>Node10&#45;&gt;Node5</title>
<g id="a_edge9_Node000005_Node000010"><a xlink:title=" ">
<path fill="none" stroke="#63b8ff" d="M372.14,-29.76C380.15,-30.49 388.21,-31.22 396.1,-31.94"/>
<polygon fill="#63b8ff" stroke="#63b8ff" points="372.65,-26.29 362.37,-28.86 372.01,-33.26 372.65,-26.29"/>
</a>
</g>
</g>
<!-- Node11&#45;&gt;Node1 -->
<g id="edge10_Node000001_Node000011" class="edge">
<title>Node11&#45;&gt;Node1</title>
<g id="a_edge10_Node000001_Node000011"><a xlink:title=" ">
<path fill="none" stroke="#63b8ff" d="M918.34,-20.24C981.9,-24.35 1071.66,-30.17 1135.16,-34.28"/>
<polygon fill="#63b8ff" stroke="#63b8ff" points="918.9,-16.76 908.7,-19.61 918.45,-23.75 918.9,-16.76"/>
</a>
</g>
</g>
</g>
</svg>
