<?xml version="1.0" encoding="UTF-8" standalone="no"?>
<!DOCTYPE svg PUBLIC "-//W3C//DTD SVG 1.1//EN"
 "http://www.w3.org/Graphics/SVG/1.1/DTD/svg11.dtd">
<!-- Generated by graphviz version 7.0.1 (20221109.1506)
 -->
<!-- Title: DGtal::SimpleMatrix&lt; TComponent, TM, TN &gt; Pages: 1 -->
<svg width="468pt" height="164pt"
 viewBox="0.00 0.00 468.00 164.00" xmlns="http://www.w3.org/2000/svg" xmlns:xlink="http://www.w3.org/1999/xlink">
<g id="graph0" class="graph" transform="scale(1 1) rotate(0) translate(4 160)">
<title>DGtal::SimpleMatrix&lt; TComponent, TM, TN &gt;</title>
<!-- Node1 -->
<g id="node1" class="node">
<title>Node1</title>
<g id="a_node1"><a xlink:title="Aim: implements basic MxN Matrix services (M,N&gt;=1).">
<polygon fill="#999999" stroke="#666666" points="131,-89 0,-89 0,-59 131,-59 131,-89"/>
<text text-anchor="start" x="8" y="-77" font-family="FreeSans" font-size="10.00">DGtal::SimpleMatrix</text>
<text text-anchor="middle" x="65.5" y="-66" font-family="FreeSans" font-size="10.00">&lt; TComponent, TM, TN &gt;</text>
</a>
</g>
</g>
<!-- Node2 -->
<g id="node2" class="node">
<title>Node2</title>
<g id="a_node2"><a xlink:href="classDGtal_1_1SimpleMatrix.html" target="_top" xlink:title=" ">
<polygon fill="white" stroke="#666666" points="429.5,-156 324.5,-156 324.5,-126 429.5,-126 429.5,-156"/>
<text text-anchor="start" x="332.5" y="-144" font-family="FreeSans" font-size="10.00">DGtal::SimpleMatrix</text>
<text text-anchor="middle" x="377" y="-133" font-family="FreeSans" font-size="10.00">&lt; Integer, 3, 3 &gt;</text>
</a>
</g>
</g>
<!-- Node1&#45;&gt;Node2 -->
<g id="edge1" class="edge">
<title>Node1&#45;&gt;Node2</title>
<path fill="none" stroke="orange" stroke-dasharray="5,2" d="M98.5,-95.38C113.26,-104.2 131.39,-113.59 149,-119 207.29,-136.9 277.59,-141.23 324.37,-141.83"/>
<polygon fill="orange" stroke="orange" points="100.5,-92.51 90.15,-90.23 96.82,-98.46 100.5,-92.51"/>
<text text-anchor="middle" x="212.5" y="-142" font-family="FreeSans" font-size="10.00"> &lt; Integer, 3, 3 &gt;</text>
</g>
<!-- Node3 -->
<g id="node3" class="node">
<title>Node3</title>
<g id="a_node3"><a xlink:href="classDGtal_1_1SimpleMatrix.html" target="_top" xlink:title=" ">
<polygon fill="white" stroke="#666666" points="460,-100 294,-100 294,-48 460,-48 460,-100"/>
<text text-anchor="start" x="302" y="-88" font-family="FreeSans" font-size="10.00">DGtal::SimpleMatrix</text>
<text text-anchor="start" x="302" y="-77" font-family="FreeSans" font-size="10.00">&lt; typename TSpace::RealVector</text>
<text text-anchor="start" x="302" y="-66" font-family="FreeSans" font-size="10.00">::Component, TSpace::dimension,</text>
<text text-anchor="middle" x="377" y="-55" font-family="FreeSans" font-size="10.00"> TSpace::dimension &gt;</text>
</a>
</g>
</g>
<!-- Node1&#45;&gt;Node3 -->
<g id="edge2" class="edge">
<title>Node1&#45;&gt;Node3</title>
<path fill="none" stroke="orange" stroke-dasharray="5,2" d="M142.73,-74C188.48,-74 246.68,-74 293.51,-74"/>
<polygon fill="orange" stroke="orange" points="142.89,-70.5 132.89,-74 142.89,-77.5 142.89,-70.5"/>
<text text-anchor="start" x="149" y="-110" font-family="FreeSans" font-size="10.00"> &lt; typename TSpace::</text>
<text text-anchor="start" x="149" y="-99" font-family="FreeSans" font-size="10.00">RealVector::Component,</text>
<text text-anchor="start" x="149" y="-88" font-family="FreeSans" font-size="10.00"> TSpace::dimension, TSpace</text>
<text text-anchor="middle" x="212.5" y="-77" font-family="FreeSans" font-size="10.00">::dimension &gt;</text>
</g>
<!-- Node4 -->
<g id="node4" class="node">
<title>Node4</title>
<g id="a_node4"><a xlink:href="classDGtal_1_1SimpleMatrix.html" target="_top" xlink:title=" ">
<polygon fill="white" stroke="#666666" points="429.5,-30 324.5,-30 324.5,0 429.5,0 429.5,-30"/>
<text text-anchor="start" x="332.5" y="-18" font-family="FreeSans" font-size="10.00">DGtal::SimpleMatrix</text>
<text text-anchor="middle" x="377" y="-7" font-family="FreeSans" font-size="10.00">&lt; double, 3, 3 &gt;</text>
</a>
</g>
</g>
<!-- Node1&#45;&gt;Node4 -->
<g id="edge3" class="edge">
<title>Node1&#45;&gt;Node4</title>
<path fill="none" stroke="orange" stroke-dasharray="5,2" d="M142.4,-59.53C198.82,-48.78 274.32,-34.38 324.02,-24.91"/>
<polygon fill="orange" stroke="orange" points="142.04,-56.04 132.87,-61.35 143.35,-62.91 142.04,-56.04"/>
<text text-anchor="middle" x="212.5" y="-61" font-family="FreeSans" font-size="10.00"> &lt; double, 3, 3 &gt;</text>
</g>
</g>
</svg>
