<?xml version="1.0" encoding="UTF-8" standalone="no"?>
<!DOCTYPE svg PUBLIC "-//W3C//DTD SVG 1.1//EN"
 "http://www.w3.org/Graphics/SVG/1.1/DTD/svg11.dtd">
<!-- Generated by graphviz version 7.0.1 (20221109.1506)
 -->
<!-- Title: DGtal::detail::PosIndepScaleDepSCEstimator&lt; TSegmentComputer, Functor, ReturnType &gt; Pages: 1 -->
<svg width="548pt" height="108pt"
 viewBox="0.00 0.00 548.00 108.00" xmlns="http://www.w3.org/2000/svg" xmlns:xlink="http://www.w3.org/1999/xlink">
<g id="graph0" class="graph" transform="scale(1 1) rotate(0) translate(4 104)">
<title>DGtal::detail::PosIndepScaleDepSCEstimator&lt; TSegmentComputer, Functor, ReturnType &gt;</title>
<!-- Node1 -->
<g id="node1" class="node">
<title>Node1</title>
<g id="a_node1"><a xlink:title=" ">
<polygon fill="#999999" stroke="#666666" points="190,-75.5 0,-75.5 0,-34.5 190,-34.5 190,-75.5"/>
<text text-anchor="start" x="8" y="-63.5" font-family="FreeSans" font-size="10.00">DGtal::detail::PosIndepScale</text>
<text text-anchor="start" x="8" y="-52.5" font-family="FreeSans" font-size="10.00">DepSCEstimator&lt; TSegmentComputer,</text>
<text text-anchor="middle" x="95" y="-41.5" font-family="FreeSans" font-size="10.00"> Functor, ReturnType &gt;</text>
</a>
</g>
</g>
<!-- Node2 -->
<g id="node2" class="node">
<title>Node2</title>
<g id="a_node2"><a xlink:href="classDGtal_1_1CurvatureFromDCAEstimator.html" target="_top" xlink:title=" ">
<polygon fill="white" stroke="#666666" points="540,-100 363,-100 363,-70 540,-70 540,-100"/>
<text text-anchor="start" x="371" y="-88" font-family="FreeSans" font-size="10.00">DGtal::CurvatureFromDCAEstimator</text>
<text text-anchor="middle" x="451.5" y="-77" font-family="FreeSans" font-size="10.00">&lt; DCAComputer, isCCW &gt;</text>
</a>
</g>
</g>
<!-- Node1&#45;&gt;Node2 -->
<g id="edge1" class="edge">
<title>Node1&#45;&gt;Node2</title>
<path fill="none" stroke="#63b8ff" d="M201.73,-70.35C203.84,-70.57 205.93,-70.79 208,-71 259.09,-76.11 316.43,-79.53 362.53,-81.71"/>
<polygon fill="#63b8ff" stroke="#63b8ff" points="202.18,-66.88 191.84,-69.23 201.39,-73.83 202.18,-66.88"/>
</g>
<!-- Node3 -->
<g id="node3" class="node">
<title>Node3</title>
<g id="a_node3"><a xlink:href="classDGtal_1_1detail_1_1PosIndepScaleDepSCEstimator.html" target="_top" xlink:title=" ">
<polygon fill="white" stroke="#666666" points="535,-52 368,-52 368,0 535,0 535,-52"/>
<text text-anchor="start" x="376" y="-40" font-family="FreeSans" font-size="10.00">DGtal::detail::PosIndepScale</text>
<text text-anchor="start" x="376" y="-29" font-family="FreeSans" font-size="10.00">DepSCEstimator&lt; DCAComputer,</text>
<text text-anchor="start" x="376" y="-18" font-family="FreeSans" font-size="10.00"> detail::CurvatureFromDCA&lt;</text>
<text text-anchor="middle" x="451.5" y="-7" font-family="FreeSans" font-size="10.00"> true &gt; &gt;</text>
</a>
</g>
</g>
<!-- Node1&#45;&gt;Node3 -->
<g id="edge2" class="edge">
<title>Node1&#45;&gt;Node3</title>
<path fill="none" stroke="orange" stroke-dasharray="5,2" d="M201.26,-46.39C254.47,-42.04 318.12,-36.83 367.78,-32.77"/>
<polygon fill="orange" stroke="orange" points="201.26,-42.88 191.58,-47.18 201.83,-49.85 201.26,-42.88"/>
<text text-anchor="start" x="208" y="-59" font-family="FreeSans" font-size="10.00"> &lt; DCAComputer, detail</text>
<text text-anchor="middle" x="276.5" y="-48" font-family="FreeSans" font-size="10.00">::CurvatureFromDCA&lt; true &gt; &gt;</text>
</g>
</g>
</svg>
