<?xml version="1.0" encoding="UTF-8" standalone="no"?>
<!DOCTYPE svg PUBLIC "-//W3C//DTD SVG 1.1//EN"
 "http://www.w3.org/Graphics/SVG/1.1/DTD/svg11.dtd">
<!-- Generated by graphviz version 7.0.1 (20221109.1506)
 -->
<!-- Title: DGtal::Simple2x2DetComputer&lt; TArgumentInteger, TResultInteger &gt; Pages: 1 -->
<svg width="506pt" height="98pt"
 viewBox="0.00 0.00 506.00 97.50" xmlns="http://www.w3.org/2000/svg" xmlns:xlink="http://www.w3.org/1999/xlink">
<g id="graph0" class="graph" transform="scale(1 1) rotate(0) translate(4 93.5)">
<title>DGtal::Simple2x2DetComputer&lt; TArgumentInteger, TResultInteger &gt;</title>
<!-- Node1 -->
<g id="node1" class="node">
<title>Node1</title>
<g id="a_node1"><a xlink:title="Aim: Small class useful to compute the determinant of a 2x2 matrix from its four coefficients,...">
<polygon fill="#999999" stroke="#666666" points="182,-62.5 0,-62.5 0,-32.5 182,-32.5 182,-62.5"/>
<text text-anchor="start" x="8" y="-50.5" font-family="FreeSans" font-size="10.00">DGtal::Simple2x2DetComputer</text>
<text text-anchor="middle" x="91" y="-39.5" font-family="FreeSans" font-size="10.00">&lt; TArgumentInteger, TResultInteger &gt;</text>
</a>
</g>
</g>
<!-- Node2 -->
<g id="node2" class="node">
<title>Node2</title>
<g id="a_node2"><a xlink:href="classDGtal_1_1Simple2x2DetComputer.html" target="_top" xlink:title=" ">
<polygon fill="white" stroke="#666666" points="496,-89.5 344,-89.5 344,-59.5 496,-59.5 496,-89.5"/>
<text text-anchor="start" x="352" y="-77.5" font-family="FreeSans" font-size="10.00">DGtal::Simple2x2DetComputer</text>
<text text-anchor="middle" x="420" y="-66.5" font-family="FreeSans" font-size="10.00">&lt; Integer &gt;</text>
</a>
</g>
</g>
<!-- Node1&#45;&gt;Node2 -->
<g id="edge1" class="edge">
<title>Node1&#45;&gt;Node2</title>
<path fill="none" stroke="orange" stroke-dasharray="5,2" d="M193.4,-55.87C241.96,-59.88 299.09,-64.6 343.72,-68.28"/>
<polygon fill="orange" stroke="orange" points="193.98,-52.41 183.73,-55.07 193.41,-59.39 193.98,-52.41"/>
<text text-anchor="middle" x="262" y="-69.5" font-family="FreeSans" font-size="10.00"> &lt; Integer &gt;</text>
</g>
<!-- Node3 -->
<g id="node3" class="node">
<title>Node3</title>
<g id="a_node3"><a xlink:href="classDGtal_1_1Simple2x2DetComputer.html" target="_top" xlink:title=" ">
<polygon fill="white" stroke="#666666" points="498,-41 342,-41 342,0 498,0 498,-41"/>
<text text-anchor="start" x="350" y="-29" font-family="FreeSans" font-size="10.00">DGtal::Simple2x2DetComputer</text>
<text text-anchor="start" x="350" y="-18" font-family="FreeSans" font-size="10.00">&lt; typename TPoint::Coordinate,</text>
<text text-anchor="middle" x="420" y="-7" font-family="FreeSans" font-size="10.00"> DGtal::int64_t &gt;</text>
</a>
</g>
</g>
<!-- Node1&#45;&gt;Node3 -->
<g id="edge2" class="edge">
<title>Node1&#45;&gt;Node3</title>
<path fill="none" stroke="orange" stroke-dasharray="5,2" d="M193.74,-32.15C195.84,-31.92 197.93,-31.7 200,-31.5 246.88,-26.86 299.61,-24.14 341.58,-22.56"/>
<polygon fill="orange" stroke="orange" points="193.41,-28.66 183.88,-33.28 194.21,-35.62 193.41,-28.66"/>
<text text-anchor="start" x="200" y="-45.5" font-family="FreeSans" font-size="10.00"> &lt; typename TPoint::</text>
<text text-anchor="middle" x="262" y="-34.5" font-family="FreeSans" font-size="10.00">Coordinate, DGtal::int64_t &gt;</text>
</g>
</g>
</svg>
