<?xml version="1.0" encoding="UTF-8" standalone="no"?>
<!DOCTYPE svg PUBLIC "-//W3C//DTD SVG 1.1//EN"
 "http://www.w3.org/Graphics/SVG/1.1/DTD/svg11.dtd">
<!-- Generated by graphviz version 7.0.1 (20221109.1506)
 -->
<!-- Title: DGtal::ArithmeticalDSSComputer&lt; TIterator, TInteger, adjacency &gt; Pages: 1 -->
<svg width="478pt" height="158pt"
 viewBox="0.00 0.00 478.00 157.50" xmlns="http://www.w3.org/2000/svg" xmlns:xlink="http://www.w3.org/1999/xlink">
<g id="graph0" class="graph" transform="scale(1 1) rotate(0) translate(4 153.5)">
<title>DGtal::ArithmeticalDSSComputer&lt; TIterator, TInteger, adjacency &gt;</title>
<!-- Node1 -->
<g id="node1" class="node">
<title>Node1</title>
<g id="a_node1"><a xlink:title="Aim: This class is a wrapper around ArithmeticalDSS that is devoted to the dynamic recognition of dig...">
<polygon fill="#999999" stroke="#666666" points="164,-89.5 0,-89.5 0,-59.5 164,-59.5 164,-89.5"/>
<text text-anchor="start" x="8" y="-77.5" font-family="FreeSans" font-size="10.00">DGtal::ArithmeticalDSSComputer</text>
<text text-anchor="middle" x="82" y="-66.5" font-family="FreeSans" font-size="10.00">&lt; TIterator, TInteger, adjacency &gt;</text>
</a>
</g>
</g>
<!-- Node2 -->
<g id="node2" class="node">
<title>Node2</title>
<g id="a_node2"><a xlink:href="classDGtal_1_1ArithmeticalDSSComputer.html" target="_top" xlink:title=" ">
<polygon fill="white" stroke="#666666" points="470,-149 306,-149 306,-108 470,-108 470,-149"/>
<text text-anchor="start" x="314" y="-137" font-family="FreeSans" font-size="10.00">DGtal::ArithmeticalDSSComputer</text>
<text text-anchor="start" x="314" y="-126" font-family="FreeSans" font-size="10.00">&lt; std::vector&lt; Z2i::Point</text>
<text text-anchor="middle" x="388" y="-115" font-family="FreeSans" font-size="10.00"> &gt;::const_iterator, int, 4 &gt;</text>
</a>
</g>
</g>
<!-- Node1&#45;&gt;Node2 -->
<g id="edge1" class="edge">
<title>Node1&#45;&gt;Node2</title>
<path fill="none" stroke="orange" stroke-dasharray="5,2" d="M148.24,-92.83C159.45,-95.63 171.02,-98.32 182,-100.5 222.52,-108.56 268,-115.02 305.81,-119.71"/>
<polygon fill="orange" stroke="orange" points="149.21,-89.46 138.66,-90.37 147.48,-96.25 149.21,-89.46"/>
<text text-anchor="start" x="182" y="-141.5" font-family="FreeSans" font-size="10.00"> &lt; std::vector&lt; Z2i</text>
<text text-anchor="start" x="182" y="-130.5" font-family="FreeSans" font-size="10.00">::Point &gt;::const_iterator,</text>
<text text-anchor="middle" x="235" y="-119.5" font-family="FreeSans" font-size="10.00"> int, 4 &gt;</text>
</g>
<!-- Node3 -->
<g id="node3" class="node">
<title>Node3</title>
<g id="a_node3"><a xlink:href="classDGtal_1_1ArithmeticalDSSComputer.html" target="_top" xlink:title=" ">
<polygon fill="white" stroke="#666666" points="470,-89.5 306,-89.5 306,-59.5 470,-59.5 470,-89.5"/>
<text text-anchor="start" x="314" y="-77.5" font-family="FreeSans" font-size="10.00">DGtal::ArithmeticalDSSComputer</text>
<text text-anchor="middle" x="388" y="-66.5" font-family="FreeSans" font-size="10.00">&lt; IteratorAdapter, TInteger, 8 &gt;</text>
</a>
</g>
</g>
<!-- Node1&#45;&gt;Node3 -->
<g id="edge2" class="edge">
<title>Node1&#45;&gt;Node3</title>
<path fill="none" stroke="orange" stroke-dasharray="5,2" d="M175.94,-74.5C217.33,-74.5 265.63,-74.5 305.57,-74.5"/>
<polygon fill="orange" stroke="orange" points="175.98,-71 165.98,-74.5 175.98,-78 175.98,-71"/>
<text text-anchor="start" x="195.5" y="-88.5" font-family="FreeSans" font-size="10.00"> &lt; IteratorAdapter,</text>
<text text-anchor="middle" x="235" y="-77.5" font-family="FreeSans" font-size="10.00"> TInteger, 8 &gt;</text>
</g>
<!-- Node4 -->
<g id="node4" class="node">
<title>Node4</title>
<g id="a_node4"><a xlink:href="classDGtal_1_1ArithmeticalDSSComputer.html" target="_top" xlink:title=" ">
<polygon fill="white" stroke="#666666" points="470,-41 306,-41 306,0 470,0 470,-41"/>
<text text-anchor="start" x="314" y="-29" font-family="FreeSans" font-size="10.00">DGtal::ArithmeticalDSSComputer</text>
<text text-anchor="start" x="314" y="-18" font-family="FreeSans" font-size="10.00">&lt; IteratorAdapter, TInteger,</text>
<text text-anchor="middle" x="388" y="-7" font-family="FreeSans" font-size="10.00"> connectivity &gt;</text>
</a>
</g>
</g>
<!-- Node1&#45;&gt;Node4 -->
<g id="edge3" class="edge">
<title>Node1&#45;&gt;Node4</title>
<path fill="none" stroke="orange" stroke-dasharray="5,2" d="M148.24,-56.17C159.45,-53.37 171.02,-50.68 182,-48.5 222.52,-40.44 268,-33.98 305.81,-29.29"/>
<polygon fill="orange" stroke="orange" points="147.48,-52.75 138.66,-58.63 149.21,-59.54 147.48,-52.75"/>
<text text-anchor="start" x="182" y="-62.5" font-family="FreeSans" font-size="10.00"> &lt; IteratorAdapter,</text>
<text text-anchor="middle" x="235" y="-51.5" font-family="FreeSans" font-size="10.00"> TInteger, connectivity &gt;</text>
</g>
</g>
</svg>
