<?xml version="1.0" encoding="UTF-8" standalone="no"?>
<!DOCTYPE svg PUBLIC "-//W3C//DTD SVG 1.1//EN"
 "http://www.w3.org/Graphics/SVG/1.1/DTD/svg11.dtd">
<!-- Generated by graphviz version 7.0.1 (20221109.1506)
 -->
<!-- Title: DGtal::CountedPtr&lt; T &gt; Pages: 1 -->
<svg width="493pt" height="1590pt"
 viewBox="0.00 0.00 493.00 1589.88" xmlns="http://www.w3.org/2000/svg" xmlns:xlink="http://www.w3.org/1999/xlink">
<g id="graph0" class="graph" transform="scale(1 1) rotate(0) translate(4 1585.88)">
<title>DGtal::CountedPtr&lt; T &gt;</title>
<!-- Node1 -->
<g id="node1" class="node">
<title>Node1</title>
<g id="a_node1"><a xlink:title="Aim: Smart pointer based on reference counts.">
<polygon fill="#999999" stroke="#666666" points="122,-810.38 0,-810.38 0,-791.38 122,-791.38 122,-810.38"/>
<text text-anchor="middle" x="61" y="-798.38" font-family="FreeSans" font-size="10.00">DGtal::CountedPtr&lt; T &gt;</text>
</a>
</g>
</g>
<!-- Node2 -->
<g id="node2" class="node">
<title>Node2</title>
<g id="a_node2"><a xlink:href="classDGtal_1_1CountedPtr.html" target="_top" xlink:title=" ">
<polygon fill="white" stroke="#666666" points="469.5,-1570.88 333.5,-1570.88 333.5,-1540.88 469.5,-1540.88 469.5,-1570.88"/>
<text text-anchor="start" x="341.5" y="-1558.88" font-family="FreeSans" font-size="10.00">DGtal::CountedPtr&lt;</text>
<text text-anchor="middle" x="401.5" y="-1547.88" font-family="FreeSans" font-size="10.00"> DrawableWithDisplay3D &gt;</text>
</a>
</g>
</g>
<!-- Node1&#45;&gt;Node2 -->
<g id="edge1" class="edge">
<title>Node1&#45;&gt;Node2</title>
<path fill="none" stroke="orange" stroke-dasharray="5,2" d="M62.75,-822.03C66.98,-935.75 89.5,-1471.45 140,-1522.88 189.26,-1573.06 273.74,-1574.75 333.1,-1568.17"/>
<polygon fill="orange" stroke="orange" points="66.26,-822.19 62.4,-812.32 59.26,-822.45 66.26,-822.19"/>
<text text-anchor="middle" x="220" y="-1573.88" font-family="FreeSans" font-size="10.00"> &lt; DrawableWithDisplay3D &gt;</text>
</g>
<!-- Node3 -->
<g id="node3" class="node">
<title>Node3</title>
<g id="a_node3"><a xlink:href="classDGtal_1_1CountedPtr.html" target="_top" xlink:title=" ">
<polygon fill="white" stroke="#666666" points="453.5,-1522.88 349.5,-1522.88 349.5,-1492.88 453.5,-1492.88 453.5,-1522.88"/>
<text text-anchor="start" x="357.5" y="-1510.88" font-family="FreeSans" font-size="10.00">DGtal::CountedPtr&lt;</text>
<text text-anchor="middle" x="401.5" y="-1499.88" font-family="FreeSans" font-size="10.00"> OutputImage &gt;</text>
</a>
</g>
</g>
<!-- Node1&#45;&gt;Node3 -->
<g id="edge2" class="edge">
<title>Node1&#45;&gt;Node3</title>
<path fill="none" stroke="orange" stroke-dasharray="5,2" d="M62.91,-822.03C67.79,-931.36 92.52,-1429.23 140,-1476.88 168.41,-1505.39 281.77,-1509.31 349.23,-1509.01"/>
<polygon fill="orange" stroke="orange" points="66.41,-822.03 62.47,-812.19 59.42,-822.34 66.41,-822.03"/>
<text text-anchor="middle" x="220" y="-1510.88" font-family="FreeSans" font-size="10.00"> &lt; OutputImage &gt;</text>
</g>
<!-- Node4 -->
<g id="node4" class="node">
<title>Node4</title>
<g id="a_node4"><a xlink:href="classDGtal_1_1CountedPtr.html" target="_top" xlink:title=" ">
<polygon fill="white" stroke="#666666" points="453.5,-1474.88 349.5,-1474.88 349.5,-1444.88 453.5,-1444.88 453.5,-1474.88"/>
<text text-anchor="start" x="357.5" y="-1462.88" font-family="FreeSans" font-size="10.00">DGtal::CountedPtr&lt;</text>
<text text-anchor="middle" x="401.5" y="-1451.88" font-family="FreeSans" font-size="10.00"> DummyTbl &gt;</text>
</a>
</g>
</g>
<!-- Node1&#45;&gt;Node4 -->
<g id="edge3" class="edge">
<title>Node1&#45;&gt;Node4</title>
<path fill="none" stroke="orange" stroke-dasharray="5,2" d="M63.06,-822C68.54,-927.04 95.1,-1390 140,-1433.88 168.69,-1461.91 281.65,-1463.65 349.04,-1462.03"/>
<polygon fill="orange" stroke="orange" points="66.56,-821.86 62.55,-812.06 59.57,-822.22 66.56,-821.86"/>
<text text-anchor="middle" x="220" y="-1464.88" font-family="FreeSans" font-size="10.00"> &lt; DummyTbl &gt;</text>
</g>
<!-- Node5 -->
<g id="node5" class="node">
<title>Node5</title>
<g id="a_node5"><a xlink:href="classDGtal_1_1CountedPtr.html" target="_top" xlink:title=" ">
<polygon fill="white" stroke="#666666" points="454,-1426.38 349,-1426.38 349,-1385.38 454,-1385.38 454,-1426.38"/>
<text text-anchor="start" x="357" y="-1414.38" font-family="FreeSans" font-size="10.00">DGtal::CountedPtr&lt;</text>
<text text-anchor="start" x="357" y="-1403.38" font-family="FreeSans" font-size="10.00"> DGtal::SignalData&lt;</text>
<text text-anchor="middle" x="401.5" y="-1392.38" font-family="FreeSans" font-size="10.00"> Value &gt; &gt;</text>
</a>
</g>
</g>
<!-- Node1&#45;&gt;Node5 -->
<g id="edge4" class="edge">
<title>Node1&#45;&gt;Node5</title>
<path fill="none" stroke="orange" stroke-dasharray="5,2" d="M61.51,-822.15C59.79,-917.21 58.03,-1301.97 140,-1380.88 168.8,-1408.61 281.13,-1410.03 348.52,-1408.21"/>
<polygon fill="orange" stroke="orange" points="65.01,-822.3 61.71,-812.23 58.01,-822.16 65.01,-822.3"/>
<text text-anchor="start" x="174" y="-1421.88" font-family="FreeSans" font-size="10.00"> &lt; DGtal::SignalData</text>
<text text-anchor="middle" x="220" y="-1410.88" font-family="FreeSans" font-size="10.00">&lt; Value &gt; &gt;</text>
</g>
<!-- Node6 -->
<g id="node6" class="node">
<title>Node6</title>
<g id="a_node6"><a xlink:href="classDGtal_1_1CountedPtr.html" target="_top" xlink:title=" ">
<polygon fill="white" stroke="#666666" points="465.5,-1366.88 337.5,-1366.88 337.5,-1336.88 465.5,-1336.88 465.5,-1366.88"/>
<text text-anchor="start" x="345.5" y="-1354.88" font-family="FreeSans" font-size="10.00">DGtal::CountedPtr&lt;</text>
<text text-anchor="middle" x="401.5" y="-1343.88" font-family="FreeSans" font-size="10.00"> DrawableWithBoard2D &gt;</text>
</a>
</g>
</g>
<!-- Node1&#45;&gt;Node6 -->
<g id="edge5" class="edge">
<title>Node1&#45;&gt;Node6</title>
<path fill="none" stroke="orange" stroke-dasharray="5,2" d="M61.94,-822.31C62.17,-911.06 67.84,-1248.39 140,-1318.88 191.28,-1368.97 277.85,-1369.98 337.01,-1363.3"/>
<polygon fill="orange" stroke="orange" points="65.44,-822.4 61.94,-812.4 58.44,-822.4 65.44,-822.4"/>
<text text-anchor="middle" x="220" y="-1368.88" font-family="FreeSans" font-size="10.00"> &lt; DrawableWithBoard2D &gt;</text>
</g>
<!-- Node7 -->
<g id="node7" class="node">
<title>Node7</title>
<g id="a_node7"><a xlink:href="classDGtal_1_1CountedPtr.html" target="_top" xlink:title=" ">
<polygon fill="white" stroke="#666666" points="481.5,-1318.88 321.5,-1318.88 321.5,-1288.88 481.5,-1288.88 481.5,-1318.88"/>
<text text-anchor="start" x="329.5" y="-1306.88" font-family="FreeSans" font-size="10.00">DGtal::CountedPtr&lt;</text>
<text text-anchor="middle" x="401.5" y="-1295.88" font-family="FreeSans" font-size="10.00"> DGtal::DrawableWithBoard2D &gt;</text>
</a>
</g>
</g>
<!-- Node1&#45;&gt;Node7 -->
<g id="edge6" class="edge">
<title>Node1&#45;&gt;Node7</title>
<path fill="none" stroke="orange" stroke-dasharray="5,2" d="M62.26,-822.32C63.73,-906.2 73.64,-1210.68 140,-1273.88 165.34,-1298.02 254.21,-1303.98 321.15,-1304.9"/>
<polygon fill="orange" stroke="orange" points="65.76,-822.28 62.11,-812.33 58.76,-822.38 65.76,-822.28"/>
<text text-anchor="middle" x="220" y="-1306.88" font-family="FreeSans" font-size="10.00"> &lt; DGtal::DrawableWithBoard2D &gt;</text>
</g>
<!-- Node8 -->
<g id="node8" class="node">
<title>Node8</title>
<g id="a_node8"><a xlink:href="classDGtal_1_1CountedPtr.html" target="_top" xlink:title=" ">
<polygon fill="white" stroke="#666666" points="485,-1270.88 318,-1270.88 318,-1240.88 485,-1240.88 485,-1270.88"/>
<text text-anchor="start" x="326" y="-1258.88" font-family="FreeSans" font-size="10.00">DGtal::CountedPtr&lt;</text>
<text text-anchor="middle" x="401.5" y="-1247.88" font-family="FreeSans" font-size="10.00"> DGtal::DrawableWithDisplay3D &gt;</text>
</a>
</g>
</g>
<!-- Node1&#45;&gt;Node8 -->
<g id="edge7" class="edge">
<title>Node1&#45;&gt;Node8</title>
<path fill="none" stroke="orange" stroke-dasharray="5,2" d="M62.55,-822.07C65.06,-901.19 78.2,-1177.63 140,-1233.88 165.34,-1256.95 251.42,-1260.46 317.77,-1259.46"/>
<polygon fill="orange" stroke="orange" points="66.05,-822.17 62.26,-812.28 59.05,-822.37 66.05,-822.17"/>
<text text-anchor="middle" x="220" y="-1261.88" font-family="FreeSans" font-size="10.00"> &lt; DGtal::DrawableWithDisplay3D &gt;</text>
</g>
<!-- Node9 -->
<g id="node9" class="node">
<title>Node9</title>
<g id="a_node9"><a xlink:href="classDGtal_1_1CountedPtr.html" target="_top" xlink:title=" ">
<polygon fill="white" stroke="#666666" points="453.5,-1222.88 349.5,-1222.88 349.5,-1192.88 453.5,-1192.88 453.5,-1222.88"/>
<text text-anchor="start" x="357.5" y="-1210.88" font-family="FreeSans" font-size="10.00">DGtal::CountedPtr&lt;</text>
<text text-anchor="middle" x="401.5" y="-1199.88" font-family="FreeSans" font-size="10.00"> Domain &gt;</text>
</a>
</g>
</g>
<!-- Node1&#45;&gt;Node9 -->
<g id="edge8" class="edge">
<title>Node1&#45;&gt;Node9</title>
<path fill="none" stroke="orange" stroke-dasharray="5,2" d="M63.21,-822.02C67.82,-894.2 86.72,-1129.16 140,-1177.88 196.36,-1229.42 290.71,-1226.29 349.06,-1218.02"/>
<polygon fill="orange" stroke="orange" points="66.73,-822.13 62.63,-812.37 59.74,-822.56 66.73,-822.13"/>
<text text-anchor="middle" x="220" y="-1224.88" font-family="FreeSans" font-size="10.00"> &lt; Domain &gt;</text>
</g>
<!-- Node10 -->
<g id="node10" class="node">
<title>Node10</title>
<g id="a_node10"><a xlink:href="classDGtal_1_1CountedPtr.html" target="_top" xlink:title=" ">
<polygon fill="white" stroke="#666666" points="467.5,-1174.88 335.5,-1174.88 335.5,-1144.88 467.5,-1144.88 467.5,-1174.88"/>
<text text-anchor="start" x="343.5" y="-1162.88" font-family="FreeSans" font-size="10.00">DGtal::CountedPtr&lt;</text>
<text text-anchor="middle" x="401.5" y="-1151.88" font-family="FreeSans" font-size="10.00"> DigitalSurfaceContainer &gt;</text>
</a>
</g>
</g>
<!-- Node1&#45;&gt;Node10 -->
<g id="edge9" class="edge">
<title>Node1&#45;&gt;Node10</title>
<path fill="none" stroke="orange" stroke-dasharray="5,2" d="M63.71,-821.98C69.61,-889.12 91.49,-1095.87 140,-1137.88 168.22,-1162.32 267.73,-1164.44 335.27,-1162.83"/>
<polygon fill="orange" stroke="orange" points="67.22,-822 62.89,-812.33 60.25,-822.59 67.22,-822"/>
<text text-anchor="middle" x="220" y="-1165.88" font-family="FreeSans" font-size="10.00"> &lt; DigitalSurfaceContainer &gt;</text>
</g>
<!-- Node11 -->
<g id="node11" class="node">
<title>Node11</title>
<g id="a_node11"><a xlink:href="classDGtal_1_1CountedPtr.html" target="_top" xlink:title=" ">
<polygon fill="white" stroke="#666666" points="453.5,-1126.88 349.5,-1126.88 349.5,-1096.88 453.5,-1096.88 453.5,-1126.88"/>
<text text-anchor="start" x="357.5" y="-1114.88" font-family="FreeSans" font-size="10.00">DGtal::CountedPtr&lt;</text>
<text text-anchor="middle" x="401.5" y="-1103.88" font-family="FreeSans" font-size="10.00"> DigSurface &gt;</text>
</a>
</g>
</g>
<!-- Node1&#45;&gt;Node11 -->
<g id="edge10" class="edge">
<title>Node1&#45;&gt;Node11</title>
<path fill="none" stroke="orange" stroke-dasharray="5,2" d="M64.8,-821.73C73.15,-880.68 99.85,-1046.46 140,-1080.88 197.83,-1130.46 291.28,-1128.49 349.13,-1121.17"/>
<polygon fill="orange" stroke="orange" points="68.3,-821.51 63.47,-812.08 61.37,-822.46 68.3,-821.51"/>
<text text-anchor="middle" x="220" y="-1127.88" font-family="FreeSans" font-size="10.00"> &lt; DigSurface &gt;</text>
</g>
<!-- Node12 -->
<g id="node12" class="node">
<title>Node12</title>
<g id="a_node12"><a xlink:href="classDGtal_1_1CountedPtr.html" target="_top" xlink:title=" ">
<polygon fill="white" stroke="#666666" points="453.5,-1078.88 349.5,-1078.88 349.5,-1048.88 453.5,-1048.88 453.5,-1078.88"/>
<text text-anchor="start" x="357.5" y="-1066.88" font-family="FreeSans" font-size="10.00">DGtal::CountedPtr&lt;</text>
<text text-anchor="middle" x="401.5" y="-1055.88" font-family="FreeSans" font-size="10.00"> GraphVisitor &gt;</text>
</a>
</g>
</g>
<!-- Node1&#45;&gt;Node12 -->
<g id="edge11" class="edge">
<title>Node1&#45;&gt;Node12</title>
<path fill="none" stroke="orange" stroke-dasharray="5,2" d="M61.67,-822.14C62.2,-870.15 70.91,-987.03 140,-1041.88 171.28,-1066.72 282.68,-1067.8 349.25,-1066.06"/>
<polygon fill="orange" stroke="orange" points="65.17,-822.3 61.69,-812.29 58.17,-822.28 65.17,-822.3"/>
<text text-anchor="middle" x="220" y="-1068.88" font-family="FreeSans" font-size="10.00"> &lt; GraphVisitor &gt;</text>
</g>
<!-- Node13 -->
<g id="node13" class="node">
<title>Node13</title>
<g id="a_node13"><a xlink:href="classDGtal_1_1CountedPtr.html" target="_top" xlink:title=" ">
<polygon fill="white" stroke="#666666" points="453.5,-1030.88 349.5,-1030.88 349.5,-1000.88 453.5,-1000.88 453.5,-1030.88"/>
<text text-anchor="start" x="357.5" y="-1018.88" font-family="FreeSans" font-size="10.00">DGtal::CountedPtr&lt;</text>
<text text-anchor="middle" x="401.5" y="-1007.88" font-family="FreeSans" font-size="10.00"> TImageContainer &gt;</text>
</a>
</g>
</g>
<!-- Node1&#45;&gt;Node13 -->
<g id="edge12" class="edge">
<title>Node1&#45;&gt;Node13</title>
<path fill="none" stroke="orange" stroke-dasharray="5,2" d="M63.99,-822.1C68.95,-861.89 85.69,-947.33 140,-987.88 200.59,-1033.12 292.35,-1031.41 349.24,-1024.65"/>
<polygon fill="orange" stroke="orange" points="67.47,-821.76 62.9,-812.2 60.51,-822.52 67.47,-821.76"/>
<text text-anchor="middle" x="220" y="-1030.88" font-family="FreeSans" font-size="10.00"> &lt; TImageContainer &gt;</text>
</g>
<!-- Node14 -->
<g id="node14" class="node">
<title>Node14</title>
<g id="a_node14"><a xlink:href="classDGtal_1_1CountedPtr.html" target="_top" xlink:title=" ">
<polygon fill="white" stroke="#666666" points="453.5,-982.88 349.5,-982.88 349.5,-952.88 453.5,-952.88 453.5,-982.88"/>
<text text-anchor="start" x="357.5" y="-970.88" font-family="FreeSans" font-size="10.00">DGtal::CountedPtr&lt;</text>
<text text-anchor="middle" x="401.5" y="-959.88" font-family="FreeSans" font-size="10.00"> const Domain &gt;</text>
</a>
</g>
</g>
<!-- Node1&#45;&gt;Node14 -->
<g id="edge13" class="edge">
<title>Node1&#45;&gt;Node14</title>
<path fill="none" stroke="orange" stroke-dasharray="5,2" d="M68.07,-821.44C77.95,-850.96 100.48,-904.67 140,-930.88 202.9,-972.61 293.14,-975.88 349.22,-972.96"/>
<polygon fill="orange" stroke="orange" points="71.5,-820.68 65.16,-812.2 64.83,-822.79 71.5,-820.68"/>
<text text-anchor="middle" x="220" y="-975.88" font-family="FreeSans" font-size="10.00"> &lt; const Domain &gt;</text>
</g>
<!-- Node15 -->
<g id="node15" class="node">
<title>Node15</title>
<g id="a_node15"><a xlink:href="classDGtal_1_1CountedPtr.html" target="_top" xlink:title=" ">
<polygon fill="white" stroke="#666666" points="453.5,-934.88 349.5,-934.88 349.5,-904.88 453.5,-904.88 453.5,-934.88"/>
<text text-anchor="start" x="357.5" y="-922.88" font-family="FreeSans" font-size="10.00">DGtal::CountedPtr&lt;</text>
<text text-anchor="middle" x="401.5" y="-911.88" font-family="FreeSans" font-size="10.00"> Sequence &gt;</text>
</a>
</g>
</g>
<!-- Node1&#45;&gt;Node15 -->
<g id="edge14" class="edge">
<title>Node1&#45;&gt;Node15</title>
<path fill="none" stroke="orange" stroke-dasharray="5,2" d="M76.01,-819.37C90.17,-836.64 113.68,-861.67 140,-874.88 206.97,-908.48 294.46,-917.53 349.07,-919.67"/>
<polygon fill="orange" stroke="orange" points="79.04,-817.55 70.09,-811.89 73.55,-821.9 79.04,-817.55"/>
<text text-anchor="middle" x="220" y="-918.88" font-family="FreeSans" font-size="10.00"> &lt; Sequence &gt;</text>
</g>
<!-- Node16 -->
<g id="node16" class="node">
<title>Node16</title>
<g id="a_node16"><a xlink:href="classDGtal_1_1CountedPtr.html" target="_top" xlink:title=" ">
<polygon fill="white" stroke="#666666" points="455.5,-886.88 347.5,-886.88 347.5,-856.88 455.5,-856.88 455.5,-886.88"/>
<text text-anchor="start" x="355.5" y="-874.88" font-family="FreeSans" font-size="10.00">DGtal::CountedPtr&lt;</text>
<text text-anchor="middle" x="401.5" y="-863.88" font-family="FreeSans" font-size="10.00"> DGtal::ImplicitBall &gt;</text>
</a>
</g>
</g>
<!-- Node1&#45;&gt;Node16 -->
<g id="edge15" class="edge">
<title>Node1&#45;&gt;Node16</title>
<path fill="none" stroke="orange" stroke-dasharray="5,2" d="M94.55,-815.17C108.35,-820.76 124.74,-826.8 140,-830.88 210.43,-849.74 294.04,-861 347.18,-866.82"/>
<polygon fill="orange" stroke="orange" points="96.09,-812.02 85.51,-811.41 93.4,-818.48 96.09,-812.02"/>
<text text-anchor="middle" x="220" y="-862.88" font-family="FreeSans" font-size="10.00"> &lt; DGtal::ImplicitBall &gt;</text>
</g>
<!-- Node17 -->
<g id="node17" class="node">
<title>Node17</title>
<g id="a_node17"><a xlink:href="classDGtal_1_1CountedPtr.html" target="_top" xlink:title=" ">
<polygon fill="white" stroke="#666666" points="464,-838.88 339,-838.88 339,-808.88 464,-808.88 464,-838.88"/>
<text text-anchor="start" x="347" y="-826.88" font-family="FreeSans" font-size="10.00">DGtal::CountedPtr&lt;</text>
<text text-anchor="middle" x="401.5" y="-815.88" font-family="FreeSans" font-size="10.00"> DGtal::GaussDigitizer &gt;</text>
</a>
</g>
</g>
<!-- Node1&#45;&gt;Node17 -->
<g id="edge16" class="edge">
<title>Node1&#45;&gt;Node17</title>
<path fill="none" stroke="orange" stroke-dasharray="5,2" d="M133.55,-805.74C194.37,-809.88 280.78,-815.75 338.65,-819.68"/>
<polygon fill="orange" stroke="orange" points="133.85,-802.26 123.64,-805.07 133.38,-809.24 133.85,-802.26"/>
<text text-anchor="middle" x="220" y="-818.88" font-family="FreeSans" font-size="10.00"> &lt; DGtal::GaussDigitizer &gt;</text>
</g>
<!-- Node18 -->
<g id="node18" class="node">
<title>Node18</title>
<g id="a_node18"><a xlink:href="classDGtal_1_1CountedPtr.html" target="_top" xlink:title=" ">
<polygon fill="white" stroke="#666666" points="479,-790.88 324,-790.88 324,-760.88 479,-760.88 479,-790.88"/>
<text text-anchor="start" x="332" y="-778.88" font-family="FreeSans" font-size="10.00">DGtal::CountedPtr&lt;</text>
<text text-anchor="middle" x="401.5" y="-767.88" font-family="FreeSans" font-size="10.00"> HyperRectDomain&lt; Space &gt; &gt;</text>
</a>
</g>
</g>
<!-- Node1&#45;&gt;Node18 -->
<g id="edge17" class="edge">
<title>Node1&#45;&gt;Node18</title>
<path fill="none" stroke="orange" stroke-dasharray="5,2" d="M102.93,-787.82C114.77,-784.6 127.79,-781.59 140,-779.88 201.37,-771.29 271.66,-770.74 323.75,-772.1"/>
<polygon fill="orange" stroke="orange" points="102.13,-784.41 93.47,-790.52 104.05,-791.14 102.13,-784.41"/>
<text text-anchor="start" x="170" y="-793.88" font-family="FreeSans" font-size="10.00"> &lt; HyperRectDomain&lt;</text>
<text text-anchor="middle" x="220" y="-782.88" font-family="FreeSans" font-size="10.00"> Space &gt; &gt;</text>
</g>
<!-- Node19 -->
<g id="node19" class="node">
<title>Node19</title>
<g id="a_node19"><a xlink:href="classDGtal_1_1CountedPtr.html" target="_top" xlink:title=" ">
<polygon fill="white" stroke="#666666" points="483,-742.38 320,-742.38 320,-701.38 483,-701.38 483,-742.38"/>
<text text-anchor="start" x="328" y="-730.38" font-family="FreeSans" font-size="10.00">DGtal::CountedPtr&lt;</text>
<text text-anchor="start" x="328" y="-719.38" font-family="FreeSans" font-size="10.00"> DGtal::functors::PointFunctor</text>
<text text-anchor="middle" x="401.5" y="-708.38" font-family="FreeSans" font-size="10.00">FromPointPredicateAndDomain &gt;</text>
</a>
</g>
</g>
<!-- Node1&#45;&gt;Node19 -->
<g id="edge18" class="edge">
<title>Node1&#45;&gt;Node19</title>
<path fill="none" stroke="orange" stroke-dasharray="5,2" d="M76.7,-782.74C90.97,-766.64 114.2,-744.12 140,-733.88 197.02,-711.25 266.66,-709.21 319.58,-712.31"/>
<polygon fill="orange" stroke="orange" points="74.18,-780.3 70.36,-790.19 79.51,-784.84 74.18,-780.3"/>
<text text-anchor="start" x="149" y="-758.88" font-family="FreeSans" font-size="10.00"> &lt; DGtal::functors::</text>
<text text-anchor="start" x="149" y="-747.88" font-family="FreeSans" font-size="10.00">PointFunctorFromPointPredicate</text>
<text text-anchor="middle" x="220" y="-736.88" font-family="FreeSans" font-size="10.00">AndDomain &gt;</text>
</g>
<!-- Node20 -->
<g id="node20" class="node">
<title>Node20</title>
<g id="a_node20"><a xlink:href="classDGtal_1_1CountedPtr.html" target="_top" xlink:title=" ">
<polygon fill="white" stroke="#666666" points="465.5,-682.88 337.5,-682.88 337.5,-652.88 465.5,-652.88 465.5,-682.88"/>
<text text-anchor="start" x="345.5" y="-670.88" font-family="FreeSans" font-size="10.00">DGtal::CountedPtr&lt;</text>
<text text-anchor="middle" x="401.5" y="-659.88" font-family="FreeSans" font-size="10.00"> DGtal::FunctorOnCells &gt;</text>
</a>
</g>
</g>
<!-- Node1&#45;&gt;Node20 -->
<g id="edge19" class="edge">
<title>Node1&#45;&gt;Node20</title>
<path fill="none" stroke="orange" stroke-dasharray="5,2" d="M70.77,-780.56C82.6,-755.91 106.13,-715.25 140,-695.88 200.41,-661.33 281.66,-658.08 337.26,-661.05"/>
<polygon fill="orange" stroke="orange" points="67.64,-778.99 66.67,-789.54 74.01,-781.9 67.64,-778.99"/>
<text text-anchor="middle" x="220" y="-698.88" font-family="FreeSans" font-size="10.00"> &lt; DGtal::FunctorOnCells &gt;</text>
</g>
<!-- Node21 -->
<g id="node21" class="node">
<title>Node21</title>
<g id="a_node21"><a xlink:href="classDGtal_1_1CountedPtr.html" target="_top" xlink:title=" ">
<polygon fill="white" stroke="#666666" points="484.5,-634.88 318.5,-634.88 318.5,-604.88 484.5,-604.88 484.5,-634.88"/>
<text text-anchor="start" x="326.5" y="-622.88" font-family="FreeSans" font-size="10.00">DGtal::CountedPtr&lt;</text>
<text text-anchor="middle" x="401.5" y="-611.88" font-family="FreeSans" font-size="10.00"> DGtal::DigitalSurfaceConvolver &gt;</text>
</a>
</g>
</g>
<!-- Node1&#45;&gt;Node21 -->
<g id="edge20" class="edge">
<title>Node1&#45;&gt;Node21</title>
<path fill="none" stroke="orange" stroke-dasharray="5,2" d="M65.77,-779.99C73.21,-745.41 93.3,-676.93 140,-644.88 191.6,-609.47 263.1,-604.93 318.13,-608.29"/>
<polygon fill="orange" stroke="orange" points="62.38,-779.09 63.87,-789.58 69.24,-780.45 62.38,-779.09"/>
<text text-anchor="middle" x="220" y="-647.88" font-family="FreeSans" font-size="10.00"> &lt; DGtal::DigitalSurfaceConvolver &gt;</text>
</g>
<!-- Node22 -->
<g id="node22" class="node">
<title>Node22</title>
<g id="a_node22"><a xlink:href="classDGtal_1_1CountedPtr.html" target="_top" xlink:title=" ">
<polygon fill="white" stroke="#666666" points="453.5,-586.88 349.5,-586.88 349.5,-556.88 453.5,-556.88 453.5,-586.88"/>
<text text-anchor="start" x="357.5" y="-574.88" font-family="FreeSans" font-size="10.00">DGtal::CountedPtr&lt;</text>
<text text-anchor="middle" x="401.5" y="-563.88" font-family="FreeSans" font-size="10.00"> DigitalTopology &gt;</text>
</a>
</g>
</g>
<!-- Node1&#45;&gt;Node22 -->
<g id="edge21" class="edge">
<title>Node1&#45;&gt;Node22</title>
<path fill="none" stroke="orange" stroke-dasharray="5,2" d="M62.8,-780.06C65.7,-736.87 79.01,-637.78 140,-591.88 200.25,-546.54 292.11,-551.65 349.11,-560.81"/>
<polygon fill="orange" stroke="orange" points="59.32,-779.64 62.28,-789.82 66.31,-780.01 59.32,-779.64"/>
<text text-anchor="middle" x="220" y="-594.88" font-family="FreeSans" font-size="10.00"> &lt; DigitalTopology &gt;</text>
</g>
<!-- Node23 -->
<g id="node23" class="node">
<title>Node23</title>
<g id="a_node23"><a xlink:href="classDGtal_1_1CountedPtr.html" target="_top" xlink:title=" ">
<polygon fill="white" stroke="#666666" points="453.5,-538.88 349.5,-538.88 349.5,-508.88 453.5,-508.88 453.5,-538.88"/>
<text text-anchor="start" x="357.5" y="-526.88" font-family="FreeSans" font-size="10.00">DGtal::CountedPtr&lt;</text>
<text text-anchor="middle" x="401.5" y="-515.88" font-family="FreeSans" font-size="10.00"> DigitalSet &gt;</text>
</a>
</g>
</g>
<!-- Node1&#45;&gt;Node23 -->
<g id="edge22" class="edge">
<title>Node1&#45;&gt;Node23</title>
<path fill="none" stroke="orange" stroke-dasharray="5,2" d="M65.08,-780.14C73.93,-723.7 101.25,-569.55 140,-538.88 199.23,-492 291.83,-499.83 349.19,-510.99"/>
<polygon fill="orange" stroke="orange" points="61.68,-779.26 63.63,-789.67 68.6,-780.32 61.68,-779.26"/>
<text text-anchor="middle" x="220" y="-541.88" font-family="FreeSans" font-size="10.00"> &lt; DigitalSet &gt;</text>
</g>
<!-- Node24 -->
<g id="node24" class="node">
<title>Node24</title>
<g id="a_node24"><a xlink:href="classDGtal_1_1CountedPtr.html" target="_top" xlink:title=" ">
<polygon fill="white" stroke="#666666" points="479.5,-490.88 323.5,-490.88 323.5,-460.88 479.5,-460.88 479.5,-490.88"/>
<text text-anchor="start" x="331.5" y="-478.88" font-family="FreeSans" font-size="10.00">DGtal::CountedPtr&lt;</text>
<text text-anchor="middle" x="401.5" y="-467.88" font-family="FreeSans" font-size="10.00"> DGtal::IndexedDigitalSurface &gt;</text>
</a>
</g>
</g>
<!-- Node1&#45;&gt;Node24 -->
<g id="edge23" class="edge">
<title>Node1&#45;&gt;Node24</title>
<path fill="none" stroke="orange" stroke-dasharray="5,2" d="M64.04,-779.49C70.68,-714.99 93.9,-524.52 140,-486.88 196.71,-440.57 285.75,-448.39 343.63,-460.43"/>
<polygon fill="orange" stroke="orange" points="60.56,-779.13 63.06,-789.43 67.53,-779.83 60.56,-779.13"/>
<text text-anchor="middle" x="220" y="-489.88" font-family="FreeSans" font-size="10.00"> &lt; DGtal::IndexedDigitalSurface &gt;</text>
</g>
<!-- Node25 -->
<g id="node25" class="node">
<title>Node25</title>
<g id="a_node25"><a xlink:href="classDGtal_1_1CountedPtr.html" target="_top" xlink:title=" ">
<polygon fill="white" stroke="#666666" points="454,-442.38 349,-442.38 349,-401.38 454,-401.38 454,-442.38"/>
<text text-anchor="start" x="357" y="-430.38" font-family="FreeSans" font-size="10.00">DGtal::CountedPtr&lt;</text>
<text text-anchor="start" x="357" y="-419.38" font-family="FreeSans" font-size="10.00"> DGtal::SignalData&lt;</text>
<text text-anchor="middle" x="401.5" y="-408.38" font-family="FreeSans" font-size="10.00"> TValue &gt; &gt;</text>
</a>
</g>
</g>
<!-- Node1&#45;&gt;Node25 -->
<g id="edge24" class="edge">
<title>Node1&#45;&gt;Node25</title>
<path fill="none" stroke="orange" stroke-dasharray="5,2" d="M63.02,-780.07C67.02,-707.96 84.29,-470.76 140,-424.88 198.13,-377.01 290.84,-390.14 348.56,-405.17"/>
<polygon fill="orange" stroke="orange" points="59.54,-779.51 62.52,-789.68 66.53,-779.88 59.54,-779.51"/>
<text text-anchor="start" x="174" y="-438.88" font-family="FreeSans" font-size="10.00"> &lt; DGtal::SignalData</text>
<text text-anchor="middle" x="220" y="-427.88" font-family="FreeSans" font-size="10.00">&lt; TValue &gt; &gt;</text>
</g>
<!-- Node26 -->
<g id="node26" class="node">
<title>Node26</title>
<g id="a_node26"><a xlink:href="classDGtal_1_1CountedPtr.html" target="_top" xlink:title=" ">
<polygon fill="white" stroke="#666666" points="461,-383.38 342,-383.38 342,-342.38 461,-342.38 461,-383.38"/>
<text text-anchor="start" x="350" y="-371.38" font-family="FreeSans" font-size="10.00">DGtal::CountedPtr&lt;</text>
<text text-anchor="start" x="350" y="-360.38" font-family="FreeSans" font-size="10.00"> StabbingLineComputer</text>
<text text-anchor="middle" x="401.5" y="-349.38" font-family="FreeSans" font-size="10.00">&lt; ConstIterator &gt; &gt;</text>
</a>
</g>
</g>
<!-- Node1&#45;&gt;Node26 -->
<g id="edge25" class="edge">
<title>Node1&#45;&gt;Node26</title>
<path fill="none" stroke="orange" stroke-dasharray="5,2" d="M62.38,-779.91C64.28,-700.4 75.55,-419.25 140,-364.88 195.4,-318.15 283.52,-329.14 341.68,-343.9"/>
<polygon fill="orange" stroke="orange" points="58.88,-779.66 62.17,-789.73 65.88,-779.81 58.88,-779.66"/>
<text text-anchor="start" x="164" y="-378.88" font-family="FreeSans" font-size="10.00"> &lt; StabbingLineComputer</text>
<text text-anchor="middle" x="220" y="-367.88" font-family="FreeSans" font-size="10.00">&lt; ConstIterator &gt; &gt;</text>
</g>
<!-- Node27 -->
<g id="node27" class="node">
<title>Node27</title>
<g id="a_node27"><a xlink:href="classDGtal_1_1CountedPtr.html" target="_top" xlink:title=" ">
<polygon fill="white" stroke="#666666" points="453.5,-323.88 349.5,-323.88 349.5,-293.88 453.5,-293.88 453.5,-323.88"/>
<text text-anchor="start" x="357.5" y="-311.88" font-family="FreeSans" font-size="10.00">DGtal::CountedPtr&lt;</text>
<text text-anchor="middle" x="401.5" y="-300.88" font-family="FreeSans" font-size="10.00"> Preimage &gt;</text>
</a>
</g>
</g>
<!-- Node1&#45;&gt;Node27 -->
<g id="edge26" class="edge">
<title>Node1&#45;&gt;Node27</title>
<path fill="none" stroke="orange" stroke-dasharray="5,2" d="M62,-779.55C62.49,-694.08 69.12,-377.94 140,-315.88 197.7,-265.37 293.19,-278.68 351.14,-293.44"/>
<polygon fill="orange" stroke="orange" points="58.5,-779.5 61.97,-789.51 65.5,-779.52 58.5,-779.5"/>
<text text-anchor="middle" x="220" y="-318.88" font-family="FreeSans" font-size="10.00"> &lt; Preimage &gt;</text>
</g>
<!-- Node28 -->
<g id="node28" class="node">
<title>Node28</title>
<g id="a_node28"><a xlink:href="classDGtal_1_1CountedPtr.html" target="_top" xlink:title=" ">
<polygon fill="white" stroke="#666666" points="455,-275.88 348,-275.88 348,-245.88 455,-245.88 455,-275.88"/>
<text text-anchor="start" x="356" y="-263.88" font-family="FreeSans" font-size="10.00">DGtal::CountedPtr&lt;</text>
<text text-anchor="middle" x="401.5" y="-252.88" font-family="FreeSans" font-size="10.00"> GeometricFunctor &gt;</text>
</a>
</g>
</g>
<!-- Node1&#45;&gt;Node28 -->
<g id="edge27" class="edge">
<title>Node1&#45;&gt;Node28</title>
<path fill="none" stroke="orange" stroke-dasharray="5,2" d="M61.63,-779.95C60.51,-689.54 61.22,-334.09 140,-264.88 198.62,-213.39 296.52,-229.47 354.15,-245.45"/>
<polygon fill="orange" stroke="orange" points="58.13,-779.84 61.78,-789.78 65.13,-779.73 58.13,-779.84"/>
<text text-anchor="middle" x="220" y="-267.88" font-family="FreeSans" font-size="10.00"> &lt; GeometricFunctor &gt;</text>
</g>
<!-- Node29 -->
<g id="node29" class="node">
<title>Node29</title>
<g id="a_node29"><a xlink:href="classDGtal_1_1CountedPtr.html" target="_top" xlink:title=" ">
<polygon fill="white" stroke="#666666" points="457.5,-227.88 345.5,-227.88 345.5,-197.88 457.5,-197.88 457.5,-227.88"/>
<text text-anchor="start" x="353.5" y="-215.88" font-family="FreeSans" font-size="10.00">DGtal::CountedPtr&lt;</text>
<text text-anchor="middle" x="401.5" y="-204.88" font-family="FreeSans" font-size="10.00"> ShapePointFunctor &gt;</text>
</a>
</g>
</g>
<!-- Node1&#45;&gt;Node29 -->
<g id="edge28" class="edge">
<title>Node1&#45;&gt;Node29</title>
<path fill="none" stroke="orange" stroke-dasharray="5,2" d="M63.2,-779.65C69.08,-678.88 96.45,-252.17 140,-213.88 169.34,-188.09 277.7,-196.65 345.08,-204.95"/>
<polygon fill="orange" stroke="orange" points="59.71,-779.27 62.63,-789.45 66.7,-779.67 59.71,-779.27"/>
<text text-anchor="middle" x="220" y="-216.88" font-family="FreeSans" font-size="10.00"> &lt; ShapePointFunctor &gt;</text>
</g>
<!-- Node30 -->
<g id="node30" class="node">
<title>Node30</title>
<g id="a_node30"><a xlink:href="classDGtal_1_1CountedPtr.html" target="_top" xlink:title=" ">
<polygon fill="white" stroke="#666666" points="465,-179.38 338,-179.38 338,-160.38 465,-160.38 465,-179.38"/>
<text text-anchor="middle" x="401.5" y="-167.38" font-family="FreeSans" font-size="10.00">DGtal::CountedPtr&lt; A1 &gt;</text>
</a>
</g>
</g>
<!-- Node1&#45;&gt;Node30 -->
<g id="edge29" class="edge">
<title>Node1&#45;&gt;Node30</title>
<path fill="none" stroke="orange" stroke-dasharray="5,2" d="M63.08,-779.49C68.56,-675.09 94.83,-222.45 140,-180.88 167.77,-155.33 269.89,-158.4 337.72,-163.64"/>
<polygon fill="orange" stroke="orange" points="59.59,-779.24 62.57,-789.4 66.58,-779.6 59.59,-779.24"/>
<text text-anchor="middle" x="220" y="-183.88" font-family="FreeSans" font-size="10.00"> &lt; A1 &gt;</text>
</g>
<!-- Node31 -->
<g id="node31" class="node">
<title>Node31</title>
<g id="a_node31"><a xlink:href="classDGtal_1_1CountedPtr.html" target="_top" xlink:title=" ">
<polygon fill="white" stroke="#666666" points="453.5,-141.88 349.5,-141.88 349.5,-111.88 453.5,-111.88 453.5,-141.88"/>
<text text-anchor="start" x="357.5" y="-129.88" font-family="FreeSans" font-size="10.00">DGtal::CountedPtr&lt;</text>
<text text-anchor="middle" x="401.5" y="-118.88" font-family="FreeSans" font-size="10.00"> Point &gt;</text>
</a>
</g>
</g>
<!-- Node1&#45;&gt;Node31 -->
<g id="edge30" class="edge">
<title>Node1&#45;&gt;Node31</title>
<path fill="none" stroke="orange" stroke-dasharray="5,2" d="M62.93,-779.99C67.88,-673.01 92.75,-189.86 140,-144.88 195.25,-92.3 290.4,-101.06 349.14,-113.24"/>
<polygon fill="orange" stroke="orange" points="59.44,-779.69 62.48,-789.84 66.43,-780.01 59.44,-779.69"/>
<text text-anchor="middle" x="220" y="-147.88" font-family="FreeSans" font-size="10.00"> &lt; Point &gt;</text>
</g>
<!-- Node32 -->
<g id="node32" class="node">
<title>Node32</title>
<g id="a_node32"><a xlink:href="classDGtal_1_1CountedPtr.html" target="_top" xlink:title=" ">
<polygon fill="white" stroke="#666666" points="470,-93.88 333,-93.88 333,-63.88 470,-63.88 470,-93.88"/>
<text text-anchor="start" x="341" y="-81.88" font-family="FreeSans" font-size="10.00">DGtal::CountedPtr&lt;</text>
<text text-anchor="middle" x="401.5" y="-70.88" font-family="FreeSans" font-size="10.00"> AdjacentVertexContainer &gt;</text>
</a>
</g>
</g>
<!-- Node1&#45;&gt;Node32 -->
<g id="edge31" class="edge">
<title>Node1&#45;&gt;Node32</title>
<path fill="none" stroke="orange" stroke-dasharray="5,2" d="M62.71,-779.61C66.7,-666.32 88.04,-137.29 140,-88.88 195.88,-36.82 291.28,-49.05 349.82,-63.43"/>
<polygon fill="orange" stroke="orange" points="59.21,-779.43 62.37,-789.54 66.21,-779.67 59.21,-779.43"/>
<text text-anchor="middle" x="220" y="-91.88" font-family="FreeSans" font-size="10.00"> &lt; AdjacentVertexContainer &gt;</text>
</g>
<!-- Node33 -->
<g id="node33" class="node">
<title>Node33</title>
<g id="a_node33"><a xlink:href="classDGtal_1_1CountedPtr.html" target="_top" xlink:title=" ">
<polygon fill="white" stroke="#666666" points="456,-45.88 347,-45.88 347,-15.88 456,-15.88 456,-45.88"/>
<text text-anchor="start" x="355" y="-33.88" font-family="FreeSans" font-size="10.00">DGtal::CountedPtr&lt;</text>
<text text-anchor="middle" x="401.5" y="-22.88" font-family="FreeSans" font-size="10.00"> OutEdgeContainer &gt;</text>
</a>
</g>
</g>
<!-- Node1&#45;&gt;Node33 -->
<g id="edge32" class="edge">
<title>Node1&#45;&gt;Node33</title>
<path fill="none" stroke="orange" stroke-dasharray="5,2" d="M62.52,-779.9C65.66,-662.35 83.79,-88.84 140,-36.88 197.22,16.01 295.38,0.44 353.47,-15.41"/>
<polygon fill="orange" stroke="orange" points="59.03,-779.55 62.27,-789.64 66.03,-779.73 59.03,-779.55"/>
<text text-anchor="middle" x="220" y="-39.88" font-family="FreeSans" font-size="10.00"> &lt; OutEdgeContainer &gt;</text>
</g>
</g>
</svg>
