<?xml version="1.0" encoding="UTF-8" standalone="no"?>
<!DOCTYPE svg PUBLIC "-//W3C//DTD SVG 1.1//EN"
 "http://www.w3.org/Graphics/SVG/1.1/DTD/svg11.dtd">
<!-- Generated by graphviz version 7.0.1 (20221109.1506)
 -->
<!-- Title: DGtal::LambdaMST3DBy2DEstimator&lt; Iterator3D, Functor, LambdaFunctor, CONNECTIVITY &gt; Pages: 1 -->
<svg width="586pt" height="108pt"
 viewBox="0.00 0.00 586.00 108.00" xmlns="http://www.w3.org/2000/svg" xmlns:xlink="http://www.w3.org/1999/xlink">
<g id="graph0" class="graph" transform="scale(1 1) rotate(0) translate(4 104)">
<title>DGtal::LambdaMST3DBy2DEstimator&lt; Iterator3D, Functor, LambdaFunctor, CONNECTIVITY &gt;</title>
<!-- Node1 -->
<g id="node1" class="node">
<title>Node1</title>
<g id="a_node1"><a xlink:title=" ">
<polygon fill="#999999" stroke="#666666" points="183,-70 0,-70 0,-29 183,-29 183,-70"/>
<text text-anchor="start" x="8" y="-58" font-family="FreeSans" font-size="10.00">DGtal::LambdaMST3DBy2DEstimator</text>
<text text-anchor="start" x="8" y="-47" font-family="FreeSans" font-size="10.00">&lt; Iterator3D, Functor, LambdaFunctor,</text>
<text text-anchor="middle" x="91.5" y="-36" font-family="FreeSans" font-size="10.00"> CONNECTIVITY &gt;</text>
</a>
</g>
</g>
<!-- Node2 -->
<g id="node2" class="node">
<title>Node2</title>
<g id="a_node2"><a xlink:href="classDGtal_1_1LambdaMST3DBy2D.html" target="_top" xlink:title="Aim: Simplify creation of Lambda MST tangent estimator.">
<polygon fill="white" stroke="#666666" points="537.5,-100 392.5,-100 392.5,-59 537.5,-59 537.5,-100"/>
<text text-anchor="start" x="400.5" y="-88" font-family="FreeSans" font-size="10.00">DGtal::LambdaMST3DBy2D</text>
<text text-anchor="start" x="400.5" y="-77" font-family="FreeSans" font-size="10.00">&lt; Iterator3D, LambdaFunctor,</text>
<text text-anchor="middle" x="465" y="-66" font-family="FreeSans" font-size="10.00"> CONNECTIVITY &gt;</text>
</a>
</g>
</g>
<!-- Node1&#45;&gt;Node2 -->
<g id="edge1" class="edge">
<title>Node1&#45;&gt;Node2</title>
<path fill="none" stroke="#63b8ff" d="M194.71,-64.84C196.83,-65.07 198.92,-65.29 201,-65.5 265.49,-71.96 339.2,-75.56 392.14,-77.48"/>
<polygon fill="#63b8ff" stroke="#63b8ff" points="195.13,-61.37 184.8,-63.7 194.33,-68.32 195.13,-61.37"/>
</g>
<!-- Node3 -->
<g id="node3" class="node">
<title>Node3</title>
<g id="a_node3"><a xlink:href="classDGtal_1_1LambdaMST3DBy2DEstimator.html" target="_top" xlink:title=" ">
<polygon fill="white" stroke="#666666" points="578,-41 352,-41 352,0 578,0 578,-41"/>
<text text-anchor="start" x="360" y="-29" font-family="FreeSans" font-size="10.00">DGtal::LambdaMST3DBy2DEstimator</text>
<text text-anchor="start" x="360" y="-18" font-family="FreeSans" font-size="10.00">&lt; Iterator3D, TangentFromDSS3DBy2DFunctor,</text>
<text text-anchor="middle" x="465" y="-7" font-family="FreeSans" font-size="10.00"> functors::Lambda64Function, 8 &gt;</text>
</a>
</g>
</g>
<!-- Node1&#45;&gt;Node3 -->
<g id="edge2" class="edge">
<title>Node1&#45;&gt;Node3</title>
<path fill="none" stroke="orange" stroke-dasharray="5,2" d="M194.71,-33.17C196.82,-32.93 198.92,-32.71 201,-32.5 250.23,-27.54 304.85,-24.62 351.5,-22.92"/>
<polygon fill="orange" stroke="orange" points="194.3,-29.69 184.78,-34.35 195.12,-36.64 194.3,-29.69"/>
<text text-anchor="start" x="201" y="-57.5" font-family="FreeSans" font-size="10.00"> &lt; Iterator3D, TangentFrom</text>
<text text-anchor="start" x="201" y="-46.5" font-family="FreeSans" font-size="10.00">DSS3DBy2DFunctor, functors</text>
<text text-anchor="middle" x="267.5" y="-35.5" font-family="FreeSans" font-size="10.00">::Lambda64Function, 8 &gt;</text>
</g>
</g>
</svg>
