<?xml version="1.0" encoding="UTF-8" standalone="no"?>
<!DOCTYPE svg PUBLIC "-//W3C//DTD SVG 1.1//EN"
 "http://www.w3.org/Graphics/SVG/1.1/DTD/svg11.dtd">
<!-- Generated by graphviz version 7.0.1 (20221109.1506)
 -->
<!-- Title: DGtal::CurvatureFromDSSLengthEstimator&lt; DSSComputer &gt; Pages: 1 -->
<svg width="668pt" height="60pt"
 viewBox="0.00 0.00 668.00 60.00" xmlns="http://www.w3.org/2000/svg" xmlns:xlink="http://www.w3.org/1999/xlink">
<g id="graph0" class="graph" transform="scale(1 1) rotate(0) translate(4 56)">
<title>DGtal::CurvatureFromDSSLengthEstimator&lt; DSSComputer &gt;</title>
<!-- Node1 -->
<g id="node1" class="node">
<title>Node1</title>
<g id="a_node1"><a xlink:title=" ">
<polygon fill="#999999" stroke="#666666" points="660,-41 496,-41 496,-11 660,-11 660,-41"/>
<text text-anchor="start" x="504" y="-29" font-family="FreeSans" font-size="10.00">DGtal::CurvatureFromDSSLength</text>
<text text-anchor="middle" x="578" y="-18" font-family="FreeSans" font-size="10.00">Estimator&lt; DSSComputer &gt;</text>
</a>
</g>
</g>
<!-- Node2 -->
<g id="node2" class="node">
<title>Node2</title>
<g id="a_node2"><a xlink:href="classDGtal_1_1detail_1_1CurvatureFromDSSBaseEstimator.html" target="_top" xlink:title=" ">
<polygon fill="white" stroke="#666666" points="459,-52 298,-52 298,0 459,0 459,-52"/>
<text text-anchor="start" x="306" y="-40" font-family="FreeSans" font-size="10.00">DGtal::detail::Curvature</text>
<text text-anchor="start" x="306" y="-29" font-family="FreeSans" font-size="10.00">FromDSSBaseEstimator&lt;</text>
<text text-anchor="start" x="306" y="-18" font-family="FreeSans" font-size="10.00"> DSSComputer, detail::Curvature</text>
<text text-anchor="middle" x="378.5" y="-7" font-family="FreeSans" font-size="10.00">FromDSSLength &gt;</text>
</a>
</g>
</g>
<!-- Node2&#45;&gt;Node1 -->
<g id="edge1" class="edge">
<title>Node2&#45;&gt;Node1</title>
<path fill="none" stroke="#63b8ff" d="M470.59,-26C478.95,-26 487.39,-26 495.65,-26"/>
<polygon fill="#63b8ff" stroke="#63b8ff" points="470.78,-22.5 460.78,-26 470.78,-29.5 470.78,-22.5"/>
</g>
<!-- Node3 -->
<g id="node3" class="node">
<title>Node3</title>
<g id="a_node3"><a xlink:href="classDGtal_1_1detail_1_1CurvatureFromDSSBaseEstimator.html" target="_top" xlink:title=" ">
<polygon fill="white" stroke="#666666" points="131,-46.5 0,-46.5 0,-5.5 131,-5.5 131,-46.5"/>
<text text-anchor="start" x="8" y="-34.5" font-family="FreeSans" font-size="10.00">DGtal::detail::Curvature</text>
<text text-anchor="start" x="8" y="-23.5" font-family="FreeSans" font-size="10.00">FromDSSBaseEstimator&lt;</text>
<text text-anchor="middle" x="65.5" y="-12.5" font-family="FreeSans" font-size="10.00"> DSSComputer, Functor &gt;</text>
</a>
</g>
</g>
<!-- Node3&#45;&gt;Node2 -->
<g id="edge2" class="edge">
<title>Node3&#45;&gt;Node2</title>
<path fill="none" stroke="orange" stroke-dasharray="5,2" d="M142.66,-26C189.66,-26 249.88,-26 297.57,-26"/>
<polygon fill="orange" stroke="orange" points="142.83,-22.5 132.83,-26 142.83,-29.5 142.83,-22.5"/>
<text text-anchor="start" x="149" y="-40" font-family="FreeSans" font-size="10.00"> &lt; DSSComputer, detail</text>
<text text-anchor="middle" x="214.5" y="-29" font-family="FreeSans" font-size="10.00">::CurvatureFromDSSLength &gt;</text>
</g>
</g>
</svg>
