<?xml version="1.0" encoding="UTF-8" standalone="no"?>
<!DOCTYPE svg PUBLIC "-//W3C//DTD SVG 1.1//EN"
 "http://www.w3.org/Graphics/SVG/1.1/DTD/svg11.dtd">
<!-- Generated by graphviz version 7.0.1 (20221109.1506)
 -->
<!-- Title: DGtal::IteratorCompletion&lt; TDerived &gt; Pages: 1 -->
<svg width="680pt" height="100pt"
 viewBox="0.00 0.00 680.00 100.00" xmlns="http://www.w3.org/2000/svg" xmlns:xlink="http://www.w3.org/1999/xlink">
<g id="graph0" class="graph" transform="scale(1 1) rotate(0) translate(4 96)">
<title>DGtal::IteratorCompletion&lt; TDerived &gt;</title>
<!-- Node1 -->
<g id="node1" class="node">
<title>Node1</title>
<g id="a_node1"><a xlink:title="Aim: Class that uses CRTP to add reverse iterators and ranges to a derived class.">
<polygon fill="#999999" stroke="#666666" points="128,-57 0,-57 0,-27 128,-27 128,-57"/>
<text text-anchor="start" x="8" y="-45" font-family="FreeSans" font-size="10.00">DGtal::IteratorCompletion</text>
<text text-anchor="middle" x="64" y="-34" font-family="FreeSans" font-size="10.00">&lt; TDerived &gt;</text>
</a>
</g>
</g>
<!-- Node2 -->
<g id="node2" class="node">
<title>Node2</title>
<g id="a_node2"><a xlink:href="classDGtal_1_1IteratorCompletion.html" target="_top" xlink:title=" ">
<polygon fill="white" stroke="#666666" points="464,-89.5 285,-89.5 285,-48.5 464,-48.5 464,-89.5"/>
<text text-anchor="start" x="293" y="-77.5" font-family="FreeSans" font-size="10.00">DGtal::IteratorCompletion</text>
<text text-anchor="start" x="293" y="-66.5" font-family="FreeSans" font-size="10.00">&lt; ArrayImageAdapter&lt; TArrayIterator,</text>
<text text-anchor="middle" x="374.5" y="-55.5" font-family="FreeSans" font-size="10.00"> HyperRectDomain&lt; TSpace &gt; &gt; &gt;</text>
</a>
</g>
</g>
<!-- Node1&#45;&gt;Node2 -->
<g id="edge1" class="edge">
<title>Node1&#45;&gt;Node2</title>
<path fill="none" stroke="orange" stroke-dasharray="5,2" d="M139.59,-48.53C183.29,-52.35 238.74,-57.21 284.68,-61.23"/>
<polygon fill="orange" stroke="orange" points="139.95,-45.05 129.68,-47.66 139.34,-52.02 139.95,-45.05"/>
<text text-anchor="start" x="146" y="-84" font-family="FreeSans" font-size="10.00"> &lt; ArrayImageAdapter</text>
<text text-anchor="start" x="146" y="-73" font-family="FreeSans" font-size="10.00">&lt; TArrayIterator, HyperRect</text>
<text text-anchor="middle" x="206.5" y="-62" font-family="FreeSans" font-size="10.00">Domain&lt; TSpace &gt; &gt; &gt;</text>
</g>
<!-- Node4 -->
<g id="node4" class="node">
<title>Node4</title>
<g id="a_node4"><a xlink:href="classDGtal_1_1IteratorCompletion.html" target="_top" xlink:title=" ">
<polygon fill="white" stroke="#666666" points="438.5,-30 310.5,-30 310.5,0 438.5,0 438.5,-30"/>
<text text-anchor="start" x="318.5" y="-18" font-family="FreeSans" font-size="10.00">DGtal::IteratorCompletion</text>
<text text-anchor="middle" x="374.5" y="-7" font-family="FreeSans" font-size="10.00">&lt; MyImage&lt; T, N &gt; &gt;</text>
</a>
</g>
</g>
<!-- Node1&#45;&gt;Node4 -->
<g id="edge3" class="edge">
<title>Node1&#45;&gt;Node4</title>
<path fill="none" stroke="orange" stroke-dasharray="5,2" d="M139.42,-34.61C141.64,-34.4 143.84,-34.2 146,-34 201.46,-28.95 264.57,-23.72 310.22,-20.03"/>
<polygon fill="orange" stroke="orange" points="139.36,-31.1 129.73,-35.52 140.02,-38.07 139.36,-31.1"/>
<text text-anchor="middle" x="206.5" y="-37" font-family="FreeSans" font-size="10.00"> &lt; MyImage&lt; T, N &gt; &gt;</text>
</g>
<!-- Node3 -->
<g id="node3" class="node">
<title>Node3</title>
<g id="a_node3"><a xlink:href="classDGtal_1_1ArrayImageAdapter_3_01TArrayIterator_00_01HyperRectDomain_3_01TSpace_01_4_01_4.html" target="_top" xlink:title="Aim: Image adapter for generic arrays with sub&#45;domain view capability.">
<polygon fill="white" stroke="#666666" points="672,-89.5 501,-89.5 501,-48.5 672,-48.5 672,-89.5"/>
<text text-anchor="start" x="509" y="-77.5" font-family="FreeSans" font-size="10.00">DGtal::ArrayImageAdapter</text>
<text text-anchor="start" x="509" y="-66.5" font-family="FreeSans" font-size="10.00">&lt; TArrayIterator, HyperRectDomain</text>
<text text-anchor="middle" x="586.5" y="-55.5" font-family="FreeSans" font-size="10.00">&lt; TSpace &gt; &gt;</text>
</a>
</g>
</g>
<!-- Node2&#45;&gt;Node3 -->
<g id="edge2" class="edge">
<title>Node2&#45;&gt;Node3</title>
<path fill="none" stroke="#63b8ff" d="M475.65,-69C484.05,-69 492.48,-69 500.74,-69"/>
<polygon fill="#63b8ff" stroke="#63b8ff" points="475.77,-65.5 465.77,-69 475.77,-72.5 475.77,-65.5"/>
</g>
<!-- Node5 -->
<g id="node5" class="node">
<title>Node5</title>
<g id="a_node5"><a xlink:title=" ">
<polygon fill="white" stroke="#666666" points="633,-24.5 540,-24.5 540,-5.5 633,-5.5 633,-24.5"/>
<text text-anchor="middle" x="586.5" y="-12.5" font-family="FreeSans" font-size="10.00">MyImage&lt; T, N &gt;</text>
</a>
</g>
</g>
<!-- Node4&#45;&gt;Node5 -->
<g id="edge4" class="edge">
<title>Node4&#45;&gt;Node5</title>
<path fill="none" stroke="#63b8ff" d="M450.05,-15C479.96,-15 513.47,-15 539.68,-15"/>
<polygon fill="#63b8ff" stroke="#63b8ff" points="450.31,-11.5 440.31,-15 450.31,-18.5 450.31,-11.5"/>
</g>
</g>
</svg>
