<?xml version="1.0" encoding="UTF-8" standalone="no"?>
<!DOCTYPE svg PUBLIC "-//W3C//DTD SVG 1.1//EN"
 "http://www.w3.org/Graphics/SVG/1.1/DTD/svg11.dtd">
<!-- Generated by graphviz version 7.0.1 (20221109.1506)
 -->
<!-- Title: DGtal::ArithmeticalDSS&lt; TCoordinate, TInteger, adjacency &gt; Pages: 1 -->
<svg width="477pt" height="290pt"
 viewBox="0.00 0.00 477.00 289.50" xmlns="http://www.w3.org/2000/svg" xmlns:xlink="http://www.w3.org/1999/xlink">
<g id="graph0" class="graph" transform="scale(1 1) rotate(0) translate(4 285.5)">
<title>DGtal::ArithmeticalDSS&lt; TCoordinate, TInteger, adjacency &gt;</title>
<!-- Node1 -->
<g id="node1" class="node">
<title>Node1</title>
<g id="a_node1"><a xlink:title="Aim: This class represents a naive (resp. standard) digital straight segment (DSS),...">
<polygon fill="#999999" stroke="#666666" points="123,-167 0,-167 0,-126 123,-126 123,-167"/>
<text text-anchor="start" x="8" y="-155" font-family="FreeSans" font-size="10.00">DGtal::ArithmeticalDSS</text>
<text text-anchor="start" x="8" y="-144" font-family="FreeSans" font-size="10.00">&lt; TCoordinate, TInteger,</text>
<text text-anchor="middle" x="61.5" y="-133" font-family="FreeSans" font-size="10.00"> adjacency &gt;</text>
</a>
</g>
</g>
<!-- Node2 -->
<g id="node2" class="node">
<title>Node2</title>
<g id="a_node2"><a xlink:href="classDGtal_1_1NaiveDSS8.html" target="_top" xlink:title="Aim: This class represents a standard digital straight segment (DSS), ie. the sequence of simply 8&#45;co...">
<polygon fill="white" stroke="#666666" points="469,-281.5 304,-281.5 304,-251.5 469,-251.5 469,-281.5"/>
<text text-anchor="start" x="312" y="-269.5" font-family="FreeSans" font-size="10.00">DGtal::NaiveDSS8&lt; TCoordinate,</text>
<text text-anchor="middle" x="386.5" y="-258.5" font-family="FreeSans" font-size="10.00"> TInteger &gt;</text>
</a>
</g>
</g>
<!-- Node1&#45;&gt;Node2 -->
<g id="edge1" class="edge">
<title>Node1&#45;&gt;Node2</title>
<path fill="none" stroke="#63b8ff" d="M93.48,-174.34C107.22,-185.43 124.08,-197.44 141,-205.5 192.45,-230 254.83,-245.36 303.71,-254.54"/>
<polygon fill="#63b8ff" stroke="#63b8ff" points="96.03,-171.9 86.1,-168.2 91.56,-177.29 96.03,-171.9"/>
</g>
<!-- Node3 -->
<g id="node3" class="node">
<title>Node3</title>
<g id="a_node3"><a xlink:href="classDGtal_1_1StandardDSS4.html" target="_top" xlink:title="Aim: This class represents a standard digital straight segment (DSS), ie. the sequence of simply 4&#45;co...">
<polygon fill="white" stroke="#666666" points="451.5,-233.5 321.5,-233.5 321.5,-203.5 451.5,-203.5 451.5,-233.5"/>
<text text-anchor="start" x="329.5" y="-221.5" font-family="FreeSans" font-size="10.00">DGtal::StandardDSS4</text>
<text text-anchor="middle" x="386.5" y="-210.5" font-family="FreeSans" font-size="10.00">&lt; TCoordinate, TInteger &gt;</text>
</a>
</g>
</g>
<!-- Node1&#45;&gt;Node3 -->
<g id="edge2" class="edge">
<title>Node1&#45;&gt;Node3</title>
<path fill="none" stroke="#63b8ff" d="M121.7,-171.39C128.15,-173.65 134.67,-175.74 141,-177.5 201.03,-194.19 271.34,-205.11 321.12,-211.45"/>
<polygon fill="#63b8ff" stroke="#63b8ff" points="122.97,-168.13 112.37,-167.98 120.57,-174.7 122.97,-168.13"/>
</g>
<!-- Node4 -->
<g id="node4" class="node">
<title>Node4</title>
<g id="a_node4"><a xlink:href="classDGtal_1_1ArithmeticalDSS.html" target="_top" xlink:title=" ">
<polygon fill="white" stroke="#666666" points="465.5,-185.5 307.5,-185.5 307.5,-155.5 465.5,-155.5 465.5,-185.5"/>
<text text-anchor="start" x="315.5" y="-173.5" font-family="FreeSans" font-size="10.00">DGtal::ArithmeticalDSS</text>
<text text-anchor="middle" x="386.5" y="-162.5" font-family="FreeSans" font-size="10.00">&lt; TCoordinate, TCoordinate, 8 &gt;</text>
</a>
</g>
</g>
<!-- Node1&#45;&gt;Node4 -->
<g id="edge3" class="edge">
<title>Node1&#45;&gt;Node4</title>
<path fill="none" stroke="orange" stroke-dasharray="5,2" d="M134.57,-151.86C185.84,-155.66 254.67,-160.78 307.28,-164.69"/>
<polygon fill="orange" stroke="orange" points="135,-148.38 124.76,-151.13 134.48,-155.36 135,-148.38"/>
<text text-anchor="middle" x="213.5" y="-165.5" font-family="FreeSans" font-size="10.00"> &lt; TCoordinate, TCoordinate, 8 &gt;</text>
</g>
<!-- Node5 -->
<g id="node5" class="node">
<title>Node5</title>
<g id="a_node5"><a xlink:href="classDGtal_1_1ArithmeticalDSS.html" target="_top" xlink:title=" ">
<polygon fill="white" stroke="#666666" points="465.5,-137.5 307.5,-137.5 307.5,-107.5 465.5,-107.5 465.5,-137.5"/>
<text text-anchor="start" x="315.5" y="-125.5" font-family="FreeSans" font-size="10.00">DGtal::ArithmeticalDSS</text>
<text text-anchor="middle" x="386.5" y="-114.5" font-family="FreeSans" font-size="10.00">&lt; TCoordinate, TCoordinate, 4 &gt;</text>
</a>
</g>
</g>
<!-- Node1&#45;&gt;Node5 -->
<g id="edge4" class="edge">
<title>Node1&#45;&gt;Node5</title>
<path fill="none" stroke="orange" stroke-dasharray="5,2" d="M134.73,-138.07C136.85,-137.87 138.94,-137.68 141,-137.5 196.5,-132.62 259.22,-128.81 307.24,-126.25"/>
<polygon fill="orange" stroke="orange" points="134.43,-134.58 124.83,-139.06 135.13,-141.55 134.43,-134.58"/>
<text text-anchor="middle" x="213.5" y="-140.5" font-family="FreeSans" font-size="10.00"> &lt; TCoordinate, TCoordinate, 4 &gt;</text>
</g>
<!-- Node6 -->
<g id="node6" class="node">
<title>Node6</title>
<g id="a_node6"><a xlink:href="classDGtal_1_1ArithmeticalDSS.html" target="_top" xlink:title=" ">
<polygon fill="white" stroke="#666666" points="450.5,-89.5 322.5,-89.5 322.5,-59.5 450.5,-59.5 450.5,-89.5"/>
<text text-anchor="start" x="330.5" y="-77.5" font-family="FreeSans" font-size="10.00">DGtal::ArithmeticalDSS</text>
<text text-anchor="middle" x="386.5" y="-66.5" font-family="FreeSans" font-size="10.00">&lt; Coordinate, Integer, 8 &gt;</text>
</a>
</g>
</g>
<!-- Node1&#45;&gt;Node6 -->
<g id="edge5" class="edge">
<title>Node1&#45;&gt;Node6</title>
<path fill="none" stroke="orange" stroke-dasharray="5,2" d="M115.73,-121.3C124.06,-117.98 132.67,-114.91 141,-112.5 201.25,-95.08 272.3,-85.17 322.24,-79.87"/>
<polygon fill="orange" stroke="orange" points="114.67,-117.95 106.77,-125.02 117.35,-124.42 114.67,-117.95"/>
<text text-anchor="middle" x="213.5" y="-115.5" font-family="FreeSans" font-size="10.00"> &lt; Coordinate, Integer, 8 &gt;</text>
</g>
<!-- Node7 -->
<g id="node7" class="node">
<title>Node7</title>
<g id="a_node7"><a xlink:href="classDGtal_1_1ArithmeticalDSS.html" target="_top" xlink:title=" ">
<polygon fill="white" stroke="#666666" points="447,-41 326,-41 326,0 447,0 447,-41"/>
<text text-anchor="start" x="334" y="-29" font-family="FreeSans" font-size="10.00">DGtal::ArithmeticalDSS</text>
<text text-anchor="start" x="334" y="-18" font-family="FreeSans" font-size="10.00">&lt; Coordinate, Integer,</text>
<text text-anchor="middle" x="386.5" y="-7" font-family="FreeSans" font-size="10.00"> adjacency &gt;</text>
</a>
</g>
</g>
<!-- Node1&#45;&gt;Node7 -->
<g id="edge6" class="edge">
<title>Node1&#45;&gt;Node7</title>
<path fill="none" stroke="orange" stroke-dasharray="5,2" d="M80.88,-116.41C94.81,-96.35 115.82,-71.23 141,-57.5 198.3,-26.27 273.75,-19.08 325.6,-18.39"/>
<polygon fill="orange" stroke="orange" points="78.11,-114.26 75.47,-124.52 83.93,-118.14 78.11,-114.26"/>
<text text-anchor="start" x="164.5" y="-71.5" font-family="FreeSans" font-size="10.00"> &lt; Coordinate, Integer,</text>
<text text-anchor="middle" x="213.5" y="-60.5" font-family="FreeSans" font-size="10.00"> adjacency &gt;</text>
</g>
</g>
</svg>
