<?xml version="1.0" encoding="UTF-8" standalone="no"?>
<!DOCTYPE svg PUBLIC "-//W3C//DTD SVG 1.1//EN"
 "http://www.w3.org/Graphics/SVG/1.1/DTD/svg11.dtd">
<!-- Generated by graphviz version 7.0.1 (20221109.1506)
 -->
<!-- Title: DGtal::Astroid2D&lt; TSpace &gt; Pages: 1 -->
<svg width="151pt" height="160pt"
 viewBox="0.00 0.00 151.00 160.00" xmlns="http://www.w3.org/2000/svg" xmlns:xlink="http://www.w3.org/1999/xlink">
<g id="graph0" class="graph" transform="scale(1 1) rotate(0) translate(4 156)">
<title>DGtal::Astroid2D&lt; TSpace &gt;</title>
<!-- Node1 -->
<g id="node1" class="node">
<title>Node1</title>
<g id="a_node1"><a xlink:title="Aim: Model of the concept StarShaped represents an astroid.">
<polygon fill="#999999" stroke="#666666" points="143,-85 0,-85 0,-66 143,-66 143,-85"/>
<text text-anchor="middle" x="71.5" y="-73" font-family="FreeSans" font-size="10.00">DGtal::Astroid2D&lt; TSpace &gt;</text>
</a>
</g>
</g>
<!-- Node3 -->
<g id="node3" class="node">
<title>Node3</title>
<g id="a_node3"><a xlink:href="classDGtal_1_1Astroid2D.html" target="_top" xlink:title=" ">
<polygon fill="white" stroke="#666666" points="140,-19 3,-19 3,0 140,0 140,-19"/>
<text text-anchor="middle" x="71.5" y="-7" font-family="FreeSans" font-size="10.00">DGtal::Astroid2D&lt; Space &gt;</text>
</a>
</g>
</g>
<!-- Node1&#45;&gt;Node3 -->
<g id="edge2" class="edge">
<title>Node1&#45;&gt;Node3</title>
<path fill="none" stroke="orange" stroke-dasharray="5,2" d="M71.5,-54.18C71.5,-42.44 71.5,-28.27 71.5,-19.32"/>
<polygon fill="orange" stroke="orange" points="68,-54.09 71.5,-64.09 75,-54.09 68,-54.09"/>
<text text-anchor="middle" x="96" y="-40" font-family="FreeSans" font-size="10.00"> &lt; Space &gt;</text>
</g>
<!-- Node2 -->
<g id="node2" class="node">
<title>Node2</title>
<g id="a_node2"><a xlink:href="classDGtal_1_1StarShaped2D.html" target="_top" xlink:title=" ">
<polygon fill="white" stroke="#666666" points="127.5,-152 15.5,-152 15.5,-122 127.5,-122 127.5,-152"/>
<text text-anchor="start" x="23.5" y="-140" font-family="FreeSans" font-size="10.00">DGtal::StarShaped2D</text>
<text text-anchor="middle" x="71.5" y="-129" font-family="FreeSans" font-size="10.00">&lt; TSpace &gt;</text>
</a>
</g>
</g>
<!-- Node2&#45;&gt;Node1 -->
<g id="edge1" class="edge">
<title>Node2&#45;&gt;Node1</title>
<path fill="none" stroke="#63b8ff" d="M71.5,-110.13C71.5,-101.29 71.5,-91.99 71.5,-85.42"/>
<polygon fill="#63b8ff" stroke="#63b8ff" points="68,-110.08 71.5,-120.08 75,-110.08 68,-110.08"/>
</g>
</g>
</svg>
