<?xml version="1.0" encoding="UTF-8" standalone="no"?>
<!DOCTYPE svg PUBLIC "-//W3C//DTD SVG 1.1//EN"
 "http://www.w3.org/Graphics/SVG/1.1/DTD/svg11.dtd">
<!-- Generated by graphviz version 7.0.1 (20221109.1506)
 -->
<!-- Title: DGtal::PowerMap&lt; TWeightImage, TPowerSeparableMetric, TImageContainer &gt; Pages: 1 -->
<svg width="598pt" height="152pt"
 viewBox="0.00 0.00 598.00 152.00" xmlns="http://www.w3.org/2000/svg" xmlns:xlink="http://www.w3.org/1999/xlink">
<g id="graph0" class="graph" transform="scale(1 1) rotate(0) translate(4 148)">
<title>DGtal::PowerMap&lt; TWeightImage, TPowerSeparableMetric, TImageContainer &gt;</title>
<!-- Node1 -->
<g id="node1" class="node">
<title>Node1</title>
<g id="a_node1"><a xlink:title="Aim: Implementation of the linear in time Power map construction.">
<polygon fill="#999999" stroke="#666666" points="157,-103 0,-103 0,-62 157,-62 157,-103"/>
<text text-anchor="start" x="8" y="-91" font-family="FreeSans" font-size="10.00">DGtal::PowerMap&lt; TWeight</text>
<text text-anchor="start" x="8" y="-80" font-family="FreeSans" font-size="10.00">Image, TPowerSeparableMetric,</text>
<text text-anchor="middle" x="78.5" y="-69" font-family="FreeSans" font-size="10.00"> TImageContainer &gt;</text>
</a>
</g>
</g>
<!-- Node2 -->
<g id="node2" class="node">
<title>Node2</title>
<g id="a_node2"><a xlink:href="classDGtal_1_1ReverseDistanceTransformation.html" target="_top" xlink:title="Aim: Implementation of the linear in time reverse distance transformation for separable metrics.">
<polygon fill="white" stroke="#666666" points="590,-144 401,-144 401,-103 590,-103 590,-144"/>
<text text-anchor="start" x="409" y="-132" font-family="FreeSans" font-size="10.00">DGtal::ReverseDistanceTransformation</text>
<text text-anchor="start" x="409" y="-121" font-family="FreeSans" font-size="10.00">&lt; TWeightImage, TPSeparableMetric,</text>
<text text-anchor="middle" x="495.5" y="-110" font-family="FreeSans" font-size="10.00"> TImageContainer &gt;</text>
</a>
</g>
</g>
<!-- Node1&#45;&gt;Node2 -->
<g id="edge1" class="edge">
<title>Node1&#45;&gt;Node2</title>
<path fill="none" stroke="#63b8ff" d="M156.99,-106.02C163.04,-107.36 169.1,-108.55 175,-109.5 250.23,-121.62 336.63,-124.76 400.6,-125.08"/>
<polygon fill="#63b8ff" stroke="#63b8ff" points="158.12,-102.69 147.58,-103.79 156.51,-109.5 158.12,-102.69"/>
</g>
<!-- Node3 -->
<g id="node3" class="node">
<title>Node3</title>
<g id="a_node3"><a xlink:href="classDGtal_1_1PowerMap.html" target="_top" xlink:title=" ">
<polygon fill="white" stroke="#666666" points="585.5,-85 405.5,-85 405.5,0 585.5,0 585.5,-85"/>
<text text-anchor="start" x="413.5" y="-73" font-family="FreeSans" font-size="10.00">DGtal::PowerMap&lt; TWeight</text>
<text text-anchor="start" x="413.5" y="-62" font-family="FreeSans" font-size="10.00">Image, TPSeparableMetric,</text>
<text text-anchor="start" x="413.5" y="-51" font-family="FreeSans" font-size="10.00"> ImageContainerBySTLVector</text>
<text text-anchor="start" x="413.5" y="-40" font-family="FreeSans" font-size="10.00">&lt; HyperRectDomain&lt; typename</text>
<text text-anchor="start" x="413.5" y="-29" font-family="FreeSans" font-size="10.00"> TWeightImage::Domain::Space</text>
<text text-anchor="start" x="413.5" y="-18" font-family="FreeSans" font-size="10.00"> &gt;, typename TWeightImage::Domain</text>
<text text-anchor="middle" x="495.5" y="-7" font-family="FreeSans" font-size="10.00">::Space::Vector &gt; &gt;</text>
</a>
</g>
</g>
<!-- Node1&#45;&gt;Node3 -->
<g id="edge2" class="edge">
<title>Node1&#45;&gt;Node3</title>
<path fill="none" stroke="orange" stroke-dasharray="5,2" d="M153.98,-58.75C161.03,-57.08 168.12,-55.62 175,-54.5 251.98,-41.97 340.7,-39.58 405.08,-39.97"/>
<polygon fill="orange" stroke="orange" points="153.26,-55.32 144.42,-61.16 154.97,-62.11 153.26,-55.32"/>
<text text-anchor="start" x="175" y="-101.5" font-family="FreeSans" font-size="10.00"> &lt; TWeightImage, TPSeparable</text>
<text text-anchor="start" x="175" y="-90.5" font-family="FreeSans" font-size="10.00">Metric, ImageContainerBySTLVector</text>
<text text-anchor="start" x="175" y="-79.5" font-family="FreeSans" font-size="10.00">&lt; HyperRectDomain&lt; typename TWeightImage</text>
<text text-anchor="start" x="175" y="-68.5" font-family="FreeSans" font-size="10.00">::Domain::Space &gt;, typename TWeightImage</text>
<text text-anchor="middle" x="279" y="-57.5" font-family="FreeSans" font-size="10.00">::Domain::Space::Vector &gt; &gt;</text>
</g>
</g>
</svg>
