<?xml version="1.0" encoding="UTF-8" standalone="no"?>
<!DOCTYPE svg PUBLIC "-//W3C//DTD SVG 1.1//EN"
 "http://www.w3.org/Graphics/SVG/1.1/DTD/svg11.dtd">
<!-- Generated by graphviz version 7.0.1 (20221109.1506)
 -->
<!-- Title: DGtal::LambdaMST3DBy2DEstimator&lt; Iterator3D, Functor, LambdaFunctor, CONNECTIVITY &gt; Pages: 1 -->
<!--zoomable 108 -->
<svg id="main" version="1.1" xmlns="http://www.w3.org/2000/svg" xmlns:xlink="http://www.w3.org/1999/xlink" xml:space="preserve" onload="init(evt)">
<style type="text/css"><![CDATA[
.edge:hover path { stroke: red; }
.edge:hover polygon { stroke: red; fill: red; }
]]></style>
<script type="text/javascript"><![CDATA[
var edges = document.getElementsByTagName('g');
if (edges && edges.length) {
  for (var i=0;i<edges.length;i++) {
    if (edges[i].id.substr(0,4)=='edge') {
      edges[i].setAttribute('class','edge');
    }
  }
}
]]></script>
        <defs>
                <circle id="rim" cx="0" cy="0" r="7"/>
                <circle id="rim2" cx="0" cy="0" r="3.5"/>
                <g id="zoomPlus">
                        <use xlink:href="#rim" fill="#404040">
                                <set attributeName="fill" to="#808080" begin="zoomplus.mouseover" end="zoomplus.mouseout"/>
                        </use>
                        <path d="M-4,0h8M0,-4v8" fill="none" stroke="white" stroke-width="1.5" pointer-events="none"/>
                </g>
                <g id="zoomMin">
                        <use xlink:href="#rim" fill="#404040">
                                <set attributeName="fill" to="#808080" begin="zoomminus.mouseover" end="zoomminus.mouseout"/>
                        </use>
                        <path d="M-4,0h8" fill="none" stroke="white" stroke-width="1.5" pointer-events="none"/>
                </g>
                <g id="dirArrow">
                        <path fill="none" stroke="white" stroke-width="1.5" d="M0,-3.0v7 M-2.5,-0.5L0,-3.0L2.5,-0.5"/>
                </g>
               <g id="resetDef">
                       <use xlink:href="#rim2" fill="#404040">
                               <set attributeName="fill" to="#808080" begin="reset.mouseover" end="reset.mouseout"/>
                       </use>
               </g>
        </defs>

<script type="text/javascript">
var viewWidth = 586;
var viewHeight = 108;
var sectionId = 'dynsection-0';
</script>
<script xlink:href="svgpan.js"/>
<svg id="graph" class="graph">
<g id="viewport">
<title>DGtal::LambdaMST3DBy2DEstimator&lt; Iterator3D, Functor, LambdaFunctor, CONNECTIVITY &gt;</title>
<!-- Node1 -->
<g id="node1" class="node">
<title>Node1</title>
<g id="a_node1"><a xlink:title=" ">
<polygon fill="#999999" stroke="#666666" points="183,-70 0,-70 0,-29 183,-29 183,-70"/>
<text text-anchor="start" x="8" y="-58" font-family="FreeSans" font-size="10.00">DGtal::LambdaMST3DBy2DEstimator</text>
<text text-anchor="start" x="8" y="-47" font-family="FreeSans" font-size="10.00">&lt; Iterator3D, Functor, LambdaFunctor,</text>
<text text-anchor="middle" x="91.5" y="-36" font-family="FreeSans" font-size="10.00"> CONNECTIVITY &gt;</text>
</a>
</g>
</g>
<!-- Node2 -->
<g id="node2" class="node">
<title>Node2</title>
<g id="a_node2"><a xlink:href="classDGtal_1_1LambdaMST3DBy2D.html" target="_top" xlink:title="Aim: Simplify creation of Lambda MST tangent estimator.">
<polygon fill="white" stroke="#666666" points="537.5,-100 392.5,-100 392.5,-59 537.5,-59 537.5,-100"/>
<text text-anchor="start" x="400.5" y="-88" font-family="FreeSans" font-size="10.00">DGtal::LambdaMST3DBy2D</text>
<text text-anchor="start" x="400.5" y="-77" font-family="FreeSans" font-size="10.00">&lt; Iterator3D, LambdaFunctor,</text>
<text text-anchor="middle" x="465" y="-66" font-family="FreeSans" font-size="10.00"> CONNECTIVITY &gt;</text>
</a>
</g>
</g>
<!-- Node1&#45;&gt;Node2 -->
<g id="edge1" class="edge">
<title>Node1&#45;&gt;Node2</title>
<path fill="none" stroke="#63b8ff" d="M194.71,-64.84C196.83,-65.07 198.92,-65.29 201,-65.5 265.49,-71.96 339.2,-75.56 392.14,-77.48"/>
<polygon fill="#63b8ff" stroke="#63b8ff" points="195.13,-61.37 184.8,-63.7 194.33,-68.32 195.13,-61.37"/>
</g>
<!-- Node3 -->
<g id="node3" class="node">
<title>Node3</title>
<g id="a_node3"><a xlink:href="classDGtal_1_1LambdaMST3DBy2DEstimator.html" target="_top" xlink:title=" ">
<polygon fill="white" stroke="#666666" points="578,-41 352,-41 352,0 578,0 578,-41"/>
<text text-anchor="start" x="360" y="-29" font-family="FreeSans" font-size="10.00">DGtal::LambdaMST3DBy2DEstimator</text>
<text text-anchor="start" x="360" y="-18" font-family="FreeSans" font-size="10.00">&lt; Iterator3D, TangentFromDSS3DBy2DFunctor,</text>
<text text-anchor="middle" x="465" y="-7" font-family="FreeSans" font-size="10.00"> functors::Lambda64Function, 8 &gt;</text>
</a>
</g>
</g>
<!-- Node1&#45;&gt;Node3 -->
<g id="edge2" class="edge">
<title>Node1&#45;&gt;Node3</title>
<path fill="none" stroke="orange" stroke-dasharray="5,2" d="M194.71,-33.17C196.82,-32.93 198.92,-32.71 201,-32.5 250.23,-27.54 304.85,-24.62 351.5,-22.92"/>
<polygon fill="orange" stroke="orange" points="194.3,-29.69 184.78,-34.35 195.12,-36.64 194.3,-29.69"/>
<text text-anchor="start" x="201" y="-57.5" font-family="FreeSans" font-size="10.00"> &lt; Iterator3D, TangentFrom</text>
<text text-anchor="start" x="201" y="-46.5" font-family="FreeSans" font-size="10.00">DSS3DBy2DFunctor, functors</text>
<text text-anchor="middle" x="267.5" y="-35.5" font-family="FreeSans" font-size="10.00">::Lambda64Function, 8 &gt;</text>
</g>
</g>
</svg>
        <g id="navigator" transform="translate(0 0)" fill="#404254">
                <rect fill="#f2f5e9" fill-opacity="0.5" stroke="#606060" stroke-width=".5" x="0" y="0" width="60" height="60"/>
                <use id="zoomplus" xlink:href="#zoomPlus" x="17" y="9" onmousedown="handleZoom(evt,'in')"/>
                <use id="zoomminus" xlink:href="#zoomMin" x="42" y="9" onmousedown="handleZoom(evt,'out')"/>
                <use id="reset" xlink:href="#resetDef" x="30" y="36" onmousedown="handleReset()"/>
                <g id="arrowUp" xlink:href="#dirArrow" transform="translate(30 24)" onmousedown="handlePan(0,-1)">
                  <use xlink:href="#rim" fill="#404040">
                        <set attributeName="fill" to="#808080" begin="arrowUp.mouseover" end="arrowUp.mouseout"/>
                  </use>
                  <path fill="none" stroke="white" stroke-width="1.5" d="M0,-3.0v7 M-2.5,-0.5L0,-3.0L2.5,-0.5"/>
                </g>
                <g id="arrowRight" xlink:href="#dirArrow" transform="rotate(90) translate(36 -43)" onmousedown="handlePan(1,0)">
                  <use xlink:href="#rim" fill="#404040">
                        <set attributeName="fill" to="#808080" begin="arrowRight.mouseover" end="arrowRight.mouseout"/>
                  </use>
                  <path fill="none" stroke="white" stroke-width="1.5" d="M0,-3.0v7 M-2.5,-0.5L0,-3.0L2.5,-0.5"/>
                </g>
                <g id="arrowDown" xlink:href="#dirArrow" transform="rotate(180) translate(-30 -48)" onmousedown="handlePan(0,1)">
                  <use xlink:href="#rim" fill="#404040">
                        <set attributeName="fill" to="#808080" begin="arrowDown.mouseover" end="arrowDown.mouseout"/>
                  </use>
                  <path fill="none" stroke="white" stroke-width="1.5" d="M0,-3.0v7 M-2.5,-0.5L0,-3.0L2.5,-0.5"/>
                </g>
                <g id="arrowLeft" xlink:href="#dirArrow" transform="rotate(270) translate(-36 17)" onmousedown="handlePan(-1,0)">
                  <use xlink:href="#rim" fill="#404040">
                        <set attributeName="fill" to="#808080" begin="arrowLeft.mouseover" end="arrowLeft.mouseout"/>
                  </use>
                  <path fill="none" stroke="white" stroke-width="1.5" d="M0,-3.0v7 M-2.5,-0.5L0,-3.0L2.5,-0.5"/>
                </g>
        </g>
        <svg viewBox="0 0 15 15" width="100%" height="30px" preserveAspectRatio="xMaxYMin meet">
         <g id="arrow_out" transform="scale(0.3 0.3)">
          <a xlink:href="classDGtal_1_1LambdaMST3DBy2DEstimator__inherit__graph_org.svg" target="_base">
           <rect id="button" ry="5" rx="5" y="6" x="6" height="38" width="38"
                fill="#f2f5e9" fill-opacity="0.5" stroke="#606060" stroke-width="1.0"/>
           <path id="arrow"
             d="M 11.500037,31.436501 C 11.940474,20.09759 22.043105,11.32322 32.158766,21.979434 L 37.068811,17.246167 C 37.068811,17.246167 37.088388,32 37.088388,32 L 22.160133,31.978069 C 22.160133,31.978069 26.997745,27.140456 26.997745,27.140456 C 18.528582,18.264221 13.291696,25.230495 11.500037,31.436501 z"
             style="fill:#404040;"/>
          </a>
         </g>
        </svg>
</svg>
