<?xml version="1.0" encoding="UTF-8" standalone="no"?>
<!DOCTYPE svg PUBLIC "-//W3C//DTD SVG 1.1//EN"
 "http://www.w3.org/Graphics/SVG/1.1/DTD/svg11.dtd">
<!-- Generated by graphviz version 7.0.1 (20221109.1506)
 -->
<!-- Title: DGtal::Viewer3D&lt; TSpace, TKSpace &gt; Pages: 1 -->
<svg width="670pt" height="86pt"
 viewBox="0.00 0.00 670.00 86.00" xmlns="http://www.w3.org/2000/svg" xmlns:xlink="http://www.w3.org/1999/xlink">
<g id="graph0" class="graph" transform="scale(1 1) rotate(0) translate(4 82)">
<title>DGtal::Viewer3D&lt; TSpace, TKSpace &gt;</title>
<!-- Node1 -->
<g id="node1" class="node">
<title>Node1</title>
<g id="a_node1"><a xlink:title=" ">
<polygon fill="#999999" stroke="#666666" points="308,-54 171,-54 171,-24 308,-24 308,-54"/>
<text text-anchor="start" x="179" y="-42" font-family="FreeSans" font-size="10.00">DGtal::Viewer3D&lt; TSpace,</text>
<text text-anchor="middle" x="239.5" y="-31" font-family="FreeSans" font-size="10.00"> TKSpace &gt;</text>
</a>
</g>
</g>
<!-- Node4 -->
<g id="node4" class="node">
<title>Node4</title>
<g id="a_node4"><a xlink:href="classDGtal_1_1Viewer3D.html" target="_top" xlink:title=" ">
<polygon fill="white" stroke="#666666" points="627.5,-78 496.5,-78 496.5,-48 627.5,-48 627.5,-78"/>
<text text-anchor="start" x="504.5" y="-66" font-family="FreeSans" font-size="10.00">DGtal::Viewer3D&lt; Space,</text>
<text text-anchor="middle" x="562" y="-55" font-family="FreeSans" font-size="10.00"> KSpace &gt;</text>
</a>
</g>
</g>
<!-- Node1&#45;&gt;Node4 -->
<g id="edge3" class="edge">
<title>Node1&#45;&gt;Node4</title>
<path fill="none" stroke="orange" stroke-dasharray="5,2" d="M319.79,-44.94C374.09,-49 445.21,-54.33 496.14,-58.14"/>
<polygon fill="orange" stroke="orange" points="320.21,-41.46 309.98,-44.2 319.69,-48.44 320.21,-41.46"/>
<text text-anchor="middle" x="385" y="-56" font-family="FreeSans" font-size="10.00"> &lt; Space, KSpace &gt;</text>
</g>
<!-- Node5 -->
<g id="node5" class="node">
<title>Node5</title>
<g id="a_node5"><a xlink:href="classDGtal_1_1Viewer3D.html" target="_top" xlink:title=" ">
<polygon fill="white" stroke="#666666" points="662,-30 462,-30 462,0 662,0 662,-30"/>
<text text-anchor="start" x="470" y="-18" font-family="FreeSans" font-size="10.00">DGtal::Viewer3D&lt; DGtal</text>
<text text-anchor="middle" x="562" y="-7" font-family="FreeSans" font-size="10.00">::SpaceND, DGtal::KhalimskySpaceND &gt;</text>
</a>
</g>
</g>
<!-- Node1&#45;&gt;Node5 -->
<g id="edge4" class="edge">
<title>Node1&#45;&gt;Node5</title>
<path fill="none" stroke="orange" stroke-dasharray="5,2" d="M310.07,-21.44C315.43,-20.48 320.79,-19.65 326,-19 370.34,-13.5 419.74,-11.97 461.77,-12.03"/>
<polygon fill="orange" stroke="orange" points="309.71,-17.94 300.56,-23.28 311.04,-24.82 309.71,-17.94"/>
<text text-anchor="start" x="326" y="-33" font-family="FreeSans" font-size="10.00"> &lt; DGtal::SpaceND, DGtal</text>
<text text-anchor="middle" x="385" y="-22" font-family="FreeSans" font-size="10.00">::KhalimskySpaceND &gt;</text>
</g>
<!-- Node2 -->
<g id="node2" class="node">
<title>Node2</title>
<g id="a_node2"><a xlink:title=" ">
<polygon fill="white" stroke="#666666" points="100,-70.5 34,-70.5 34,-51.5 100,-51.5 100,-70.5"/>
<text text-anchor="middle" x="67" y="-58.5" font-family="FreeSans" font-size="10.00">QGLViewer</text>
</a>
</g>
</g>
<!-- Node2&#45;&gt;Node1 -->
<g id="edge1" class="edge">
<title>Node2&#45;&gt;Node1</title>
<path fill="none" stroke="#63b8ff" d="M111.77,-55.35C129.74,-53.03 150.96,-50.3 170.85,-47.73"/>
<polygon fill="#63b8ff" stroke="#63b8ff" points="111.44,-51.87 101.97,-56.62 112.34,-58.81 111.44,-51.87"/>
</g>
<!-- Node3 -->
<g id="node3" class="node">
<title>Node3</title>
<g id="a_node3"><a xlink:href="classDGtal_1_1Display3D.html" target="_top" xlink:title="Aim: This semi abstract class defines the stream mechanism to display 3d primitive (like BallVector,...">
<polygon fill="white" stroke="#666666" points="134,-33 0,-33 0,-3 134,-3 134,-33"/>
<text text-anchor="start" x="8" y="-21" font-family="FreeSans" font-size="10.00">DGtal::Display3D&lt; Space,</text>
<text text-anchor="middle" x="67" y="-10" font-family="FreeSans" font-size="10.00"> KSpace &gt;</text>
</a>
</g>
</g>
<!-- Node3&#45;&gt;Node1 -->
<g id="edge2" class="edge">
<title>Node3&#45;&gt;Node1</title>
<path fill="none" stroke="#63b8ff" d="M145.66,-27.57C153.98,-28.59 162.4,-29.63 170.59,-30.64"/>
<polygon fill="#63b8ff" stroke="#63b8ff" points="146.26,-24.11 135.91,-26.36 145.41,-31.06 146.26,-24.11"/>
</g>
</g>
</svg>
