<?xml version="1.0" encoding="UTF-8" standalone="no"?>
<!DOCTYPE svg PUBLIC "-//W3C//DTD SVG 1.1//EN"
 "http://www.w3.org/Graphics/SVG/1.1/DTD/svg11.dtd">
<!-- Generated by graphviz version 7.0.1 (20221109.1506)
 -->
<!-- Title: DGtal::detail::PosIndepScaleIndepSCEstimator&lt; TSegmentComputer, Functor, ReturnType &gt; Pages: 1 -->
<svg width="826pt" height="179pt"
 viewBox="0.00 0.00 826.00 178.50" xmlns="http://www.w3.org/2000/svg" xmlns:xlink="http://www.w3.org/1999/xlink">
<g id="graph0" class="graph" transform="scale(1 1) rotate(0) translate(4 174.5)">
<title>DGtal::detail::PosIndepScaleIndepSCEstimator&lt; TSegmentComputer, Functor, ReturnType &gt;</title>
<!-- Node1 -->
<g id="node1" class="node">
<title>Node1</title>
<g id="a_node1"><a xlink:title=" ">
<polygon fill="#999999" stroke="#666666" points="196,-111.5 0,-111.5 0,-70.5 196,-70.5 196,-111.5"/>
<text text-anchor="start" x="8" y="-99.5" font-family="FreeSans" font-size="10.00">DGtal::detail::PosIndepScale</text>
<text text-anchor="start" x="8" y="-88.5" font-family="FreeSans" font-size="10.00">IndepSCEstimator&lt; TSegmentComputer,</text>
<text text-anchor="middle" x="98" y="-77.5" font-family="FreeSans" font-size="10.00"> Functor, ReturnType &gt;</text>
</a>
</g>
</g>
<!-- Node2 -->
<g id="node2" class="node">
<title>Node2</title>
<g id="a_node2"><a xlink:href="classDGtal_1_1detail_1_1PosIndepScaleIndepSCEstimator.html" target="_top" xlink:title=" ">
<polygon fill="white" stroke="#666666" points="567,-170.5 395,-170.5 395,-129.5 567,-129.5 567,-170.5"/>
<text text-anchor="start" x="403" y="-158.5" font-family="FreeSans" font-size="10.00">DGtal::detail::PosIndepScale</text>
<text text-anchor="start" x="403" y="-147.5" font-family="FreeSans" font-size="10.00">IndepSCEstimator&lt; DSSComputer,</text>
<text text-anchor="middle" x="481" y="-136.5" font-family="FreeSans" font-size="10.00"> detail::TangentAngleFromDSS &gt;</text>
</a>
</g>
</g>
<!-- Node1&#45;&gt;Node2 -->
<g id="edge1" class="edge">
<title>Node1&#45;&gt;Node2</title>
<path fill="none" stroke="orange" stroke-dasharray="5,2" d="M170.37,-115.2C184.68,-119.35 199.72,-123.21 214,-126 273.73,-137.66 342.13,-143.67 394.62,-146.76"/>
<polygon fill="orange" stroke="orange" points="171.62,-111.92 161.04,-112.42 169.62,-118.63 171.62,-111.92"/>
<text text-anchor="start" x="226" y="-157" font-family="FreeSans" font-size="10.00"> &lt; DSSComputer, detail</text>
<text text-anchor="middle" x="285" y="-146" font-family="FreeSans" font-size="10.00">::TangentAngleFromDSS &gt;</text>
</g>
<!-- Node4 -->
<g id="node4" class="node">
<title>Node4</title>
<g id="a_node4"><a xlink:href="classDGtal_1_1detail_1_1PosIndepScaleIndepSCEstimator.html" target="_top" xlink:title=" ">
<polygon fill="white" stroke="#666666" points="588,-111.5 374,-111.5 374,-70.5 588,-70.5 588,-111.5"/>
<text text-anchor="start" x="382" y="-99.5" font-family="FreeSans" font-size="10.00">DGtal::detail::PosIndepScale</text>
<text text-anchor="start" x="382" y="-88.5" font-family="FreeSans" font-size="10.00">IndepSCEstimator&lt; DSSComputer,</text>
<text text-anchor="middle" x="481" y="-77.5" font-family="FreeSans" font-size="10.00"> detail::NormalizedTangentVectorFromDSS &gt;</text>
</a>
</g>
</g>
<!-- Node1&#45;&gt;Node4 -->
<g id="edge3" class="edge">
<title>Node1&#45;&gt;Node4</title>
<path fill="none" stroke="orange" stroke-dasharray="5,2" d="M207.43,-91C259.56,-91 321.82,-91 373.67,-91"/>
<polygon fill="orange" stroke="orange" points="207.64,-87.5 197.64,-91 207.64,-94.5 207.64,-87.5"/>
<text text-anchor="start" x="214" y="-116" font-family="FreeSans" font-size="10.00"> &lt; DSSComputer, detail</text>
<text text-anchor="start" x="214" y="-105" font-family="FreeSans" font-size="10.00">::NormalizedTangentVectorFrom</text>
<text text-anchor="middle" x="285" y="-94" font-family="FreeSans" font-size="10.00">DSS &gt;</text>
</g>
<!-- Node6 -->
<g id="node6" class="node">
<title>Node6</title>
<g id="a_node6"><a xlink:href="classDGtal_1_1detail_1_1PosIndepScaleIndepSCEstimator.html" target="_top" xlink:title=" ">
<polygon fill="white" stroke="#666666" points="567,-52 395,-52 395,0 567,0 567,-52"/>
<text text-anchor="start" x="403" y="-40" font-family="FreeSans" font-size="10.00">DGtal::detail::PosIndepScale</text>
<text text-anchor="start" x="403" y="-29" font-family="FreeSans" font-size="10.00">IndepSCEstimator&lt; DSSComputer,</text>
<text text-anchor="start" x="403" y="-18" font-family="FreeSans" font-size="10.00"> detail::TangentVectorFromDSS</text>
<text text-anchor="middle" x="481" y="-7" font-family="FreeSans" font-size="10.00">&lt; DSSComputer &gt; &gt;</text>
</a>
</g>
</g>
<!-- Node1&#45;&gt;Node6 -->
<g id="edge5" class="edge">
<title>Node1&#45;&gt;Node6</title>
<path fill="none" stroke="orange" stroke-dasharray="5,2" d="M167.19,-66.51C182.44,-61.75 198.64,-57.24 214,-54 273.63,-41.41 342.04,-34.37 394.55,-30.5"/>
<polygon fill="orange" stroke="orange" points="166.18,-63.16 157.73,-69.54 168.32,-69.82 166.18,-63.16"/>
<text text-anchor="start" x="228.5" y="-79" font-family="FreeSans" font-size="10.00"> &lt; DSSComputer, detail</text>
<text text-anchor="start" x="228.5" y="-68" font-family="FreeSans" font-size="10.00">::TangentVectorFromDSS</text>
<text text-anchor="middle" x="285" y="-57" font-family="FreeSans" font-size="10.00">&lt; DSSComputer &gt; &gt;</text>
</g>
<!-- Node3 -->
<g id="node3" class="node">
<title>Node3</title>
<g id="a_node3"><a xlink:href="classDGtal_1_1TangentAngleFromDSSEstimator.html" target="_top" xlink:title=" ">
<polygon fill="white" stroke="#666666" points="818,-165 625,-165 625,-135 818,-135 818,-165"/>
<text text-anchor="start" x="633" y="-153" font-family="FreeSans" font-size="10.00">DGtal::TangentAngleFromDSSEstimator</text>
<text text-anchor="middle" x="721.5" y="-142" font-family="FreeSans" font-size="10.00">&lt; DSSComputer &gt;</text>
</a>
</g>
</g>
<!-- Node2&#45;&gt;Node3 -->
<g id="edge2" class="edge">
<title>Node2&#45;&gt;Node3</title>
<path fill="none" stroke="#63b8ff" d="M578.88,-150C594.01,-150 609.63,-150 624.73,-150"/>
<polygon fill="#63b8ff" stroke="#63b8ff" points="578.94,-146.5 568.94,-150 578.94,-153.5 578.94,-146.5"/>
</g>
<!-- Node5 -->
<g id="node5" class="node">
<title>Node5</title>
<g id="a_node5"><a xlink:href="classDGtal_1_1TangentFromDSSEstimator.html" target="_top" xlink:title=" ">
<polygon fill="white" stroke="#666666" points="805.5,-106 637.5,-106 637.5,-76 805.5,-76 805.5,-106"/>
<text text-anchor="start" x="645.5" y="-94" font-family="FreeSans" font-size="10.00">DGtal::TangentFromDSSEstimator</text>
<text text-anchor="middle" x="721.5" y="-83" font-family="FreeSans" font-size="10.00">&lt; DSSComputer &gt;</text>
</a>
</g>
</g>
<!-- Node4&#45;&gt;Node5 -->
<g id="edge4" class="edge">
<title>Node4&#45;&gt;Node5</title>
<path fill="none" stroke="#63b8ff" d="M599.53,-91C612.27,-91 625.05,-91 637.26,-91"/>
<polygon fill="#63b8ff" stroke="#63b8ff" points="599.86,-87.5 589.86,-91 599.86,-94.5 599.86,-87.5"/>
</g>
<!-- Node7 -->
<g id="node7" class="node">
<title>Node7</title>
<g id="a_node7"><a xlink:href="classDGtal_1_1TangentVectorFromDSSEstimator.html" target="_top" xlink:title=" ">
<polygon fill="white" stroke="#666666" points="802,-41 641,-41 641,-11 802,-11 802,-41"/>
<text text-anchor="start" x="649" y="-29" font-family="FreeSans" font-size="10.00">DGtal::TangentVectorFrom</text>
<text text-anchor="middle" x="721.5" y="-18" font-family="FreeSans" font-size="10.00">DSSEstimator&lt; DSSComputer &gt;</text>
</a>
</g>
</g>
<!-- Node6&#45;&gt;Node7 -->
<g id="edge6" class="edge">
<title>Node6&#45;&gt;Node7</title>
<path fill="none" stroke="#63b8ff" d="M578.77,-26C599.39,-26 620.95,-26 640.84,-26"/>
<polygon fill="#63b8ff" stroke="#63b8ff" points="578.94,-22.5 568.94,-26 578.94,-29.5 578.94,-22.5"/>
</g>
</g>
</svg>
