<?xml version="1.0" encoding="UTF-8" standalone="no"?>
<!DOCTYPE svg PUBLIC "-//W3C//DTD SVG 1.1//EN"
 "http://www.w3.org/Graphics/SVG/1.1/DTD/svg11.dtd">
<!-- Generated by graphviz version 7.0.1 (20221109.1506)
 -->
<!-- Title: DGtal::HyperRectDomain_Iterator&lt; TPoint &gt; Pages: 1 -->
<svg width="352pt" height="104pt"
 viewBox="0.00 0.00 352.00 104.00" xmlns="http://www.w3.org/2000/svg" xmlns:xlink="http://www.w3.org/1999/xlink">
<g id="graph0" class="graph" transform="scale(1 1) rotate(0) translate(4 100)">
<title>DGtal::HyperRectDomain_Iterator&lt; TPoint &gt;</title>
<!-- Node1 -->
<g id="node1" class="node">
<title>Node1</title>
<g id="a_node1"><a xlink:title="Iterator for HyperRectDomain.">
<polygon fill="#999999" stroke="#666666" points="344,-63 215,-63 215,-33 344,-33 344,-63"/>
<text text-anchor="start" x="223" y="-51" font-family="FreeSans" font-size="10.00">DGtal::HyperRectDomain</text>
<text text-anchor="middle" x="279.5" y="-40" font-family="FreeSans" font-size="10.00">_Iterator&lt; TPoint &gt;</text>
</a>
</g>
</g>
<!-- Node2 -->
<g id="node2" class="node">
<title>Node2</title>
<g id="a_node2"><a xlink:title=" ">
<polygon fill="white" stroke="#666666" points="179,-96 0,-96 0,0 179,0 179,-96"/>
<text text-anchor="start" x="8" y="-84" font-family="FreeSans" font-size="10.00">boost::iterator_facade</text>
<text text-anchor="start" x="8" y="-73" font-family="FreeSans" font-size="10.00">&lt; HyperRectDomain_Iterator</text>
<text text-anchor="start" x="8" y="-62" font-family="FreeSans" font-size="10.00">&lt; TPoint &gt;, TPoint const,</text>
<text text-anchor="start" x="8" y="-51" font-family="FreeSans" font-size="10.00"> std::random_access_iterator</text>
<text text-anchor="start" x="8" y="-40" font-family="FreeSans" font-size="10.00">_tag, TPoint const &amp;, std::conditional</text>
<text text-anchor="start" x="8" y="-29" font-family="FreeSans" font-size="10.00">&lt; std::is_same&lt; TPoint::Component,</text>
<text text-anchor="start" x="8" y="-18" font-family="FreeSans" font-size="10.00"> BigInteger &gt;::value, BigInteger, std</text>
<text text-anchor="middle" x="89.5" y="-7" font-family="FreeSans" font-size="10.00">::ptrdiff_t &gt;::type &gt;</text>
</a>
</g>
</g>
<!-- Node2&#45;&gt;Node1 -->
<g id="edge1" class="edge">
<title>Node2&#45;&gt;Node1</title>
<path fill="none" stroke="#63b8ff" d="M190.51,-48C198.74,-48 206.91,-48 214.77,-48"/>
<polygon fill="#63b8ff" stroke="#63b8ff" points="190.78,-44.5 180.78,-48 190.78,-51.5 190.78,-44.5"/>
</g>
</g>
</svg>
