<?xml version="1.0" encoding="UTF-8" standalone="no"?>
<!DOCTYPE svg PUBLIC "-//W3C//DTD SVG 1.1//EN"
 "http://www.w3.org/Graphics/SVG/1.1/DTD/svg11.dtd">
<!-- Generated by graphviz version 7.0.1 (20221109.1506)
 -->
<!-- Title: DGtal::ImageContainerBySTLVector&lt; TDomain, TValue &gt; Pages: 1 -->
<svg width="620pt" height="86pt"
 viewBox="0.00 0.00 620.00 86.00" xmlns="http://www.w3.org/2000/svg" xmlns:xlink="http://www.w3.org/1999/xlink">
<g id="graph0" class="graph" transform="scale(1 1) rotate(0) translate(4 82)">
<title>DGtal::ImageContainerBySTLVector&lt; TDomain, TValue &gt;</title>
<!-- Node1 -->
<g id="node1" class="node">
<title>Node1</title>
<g id="a_node1"><a xlink:title=" ">
<polygon fill="#999999" stroke="#666666" points="299,-54 124,-54 124,-24 299,-24 299,-54"/>
<text text-anchor="start" x="132" y="-42" font-family="FreeSans" font-size="10.00">DGtal::ImageContainerBySTLVector</text>
<text text-anchor="middle" x="211.5" y="-31" font-family="FreeSans" font-size="10.00">&lt; TDomain, TValue &gt;</text>
</a>
</g>
</g>
<!-- Node3 -->
<g id="node3" class="node">
<title>Node3</title>
<g id="a_node3"><a xlink:href="classDGtal_1_1ImageContainerBySTLVector.html" target="_top" xlink:title=" ">
<polygon fill="white" stroke="#666666" points="612,-78 437,-78 437,-48 612,-48 612,-78"/>
<text text-anchor="start" x="445" y="-66" font-family="FreeSans" font-size="10.00">DGtal::ImageContainerBySTLVector</text>
<text text-anchor="middle" x="524.5" y="-55" font-family="FreeSans" font-size="10.00">&lt; Domain, Value &gt;</text>
</a>
</g>
</g>
<!-- Node1&#45;&gt;Node3 -->
<g id="edge2" class="edge">
<title>Node1&#45;&gt;Node3</title>
<path fill="none" stroke="orange" stroke-dasharray="5,2" d="M310.36,-46.55C350.8,-49.67 397.3,-53.26 436.53,-56.29"/>
<polygon fill="orange" stroke="orange" points="310.88,-43.08 300.64,-45.8 310.34,-50.06 310.88,-43.08"/>
<text text-anchor="middle" x="368" y="-57" font-family="FreeSans" font-size="10.00"> &lt; Domain, Value &gt;</text>
</g>
<!-- Node4 -->
<g id="node4" class="node">
<title>Node4</title>
<g id="a_node4"><a xlink:href="classDGtal_1_1ImageContainerBySTLVector.html" target="_top" xlink:title=" ">
<polygon fill="white" stroke="#666666" points="612,-30 437,-30 437,0 612,0 612,-30"/>
<text text-anchor="start" x="445" y="-18" font-family="FreeSans" font-size="10.00">DGtal::ImageContainerBySTLVector</text>
<text text-anchor="middle" x="524.5" y="-7" font-family="FreeSans" font-size="10.00">&lt; Domain, Storage * &gt;</text>
</a>
</g>
</g>
<!-- Node1&#45;&gt;Node4 -->
<g id="edge3" class="edge">
<title>Node1&#45;&gt;Node4</title>
<path fill="none" stroke="orange" stroke-dasharray="5,2" d="M310.36,-31.45C350.8,-28.33 397.3,-24.74 436.53,-21.71"/>
<polygon fill="orange" stroke="orange" points="310.34,-27.94 300.64,-32.2 310.88,-34.92 310.34,-27.94"/>
<text text-anchor="middle" x="368" y="-34" font-family="FreeSans" font-size="10.00"> &lt; Domain, Storage * &gt;</text>
</g>
<!-- Node2 -->
<g id="node2" class="node">
<title>Node2</title>
<g id="a_node2"><a xlink:title=" ">
<polygon fill="white" stroke="#666666" points="87,-48.5 0,-48.5 0,-29.5 87,-29.5 87,-48.5"/>
<text text-anchor="middle" x="43.5" y="-36.5" font-family="FreeSans" font-size="10.00">std::vector&lt; T &gt;</text>
</a>
</g>
</g>
<!-- Node2&#45;&gt;Node1 -->
<g id="edge1" class="edge">
<title>Node2&#45;&gt;Node1</title>
<path fill="none" stroke="#63b8ff" d="M98.69,-39C106.73,-39 115.18,-39 123.68,-39"/>
<polygon fill="#63b8ff" stroke="#63b8ff" points="98.76,-35.5 88.76,-39 98.76,-42.5 98.76,-35.5"/>
</g>
</g>
</svg>
