<?xml version="1.0" encoding="UTF-8" standalone="no"?>
<!DOCTYPE svg PUBLIC "-//W3C//DTD SVG 1.1//EN"
 "http://www.w3.org/Graphics/SVG/1.1/DTD/svg11.dtd">
<!-- Generated by graphviz version 7.0.1 (20221109.1506)
 -->
<!-- Title: GTOPOLOGY Pages: 1 -->
<svg width="2073pt" height="514pt"
 viewBox="0.00 0.00 2073.00 514.00" xmlns="http://www.w3.org/2000/svg" xmlns:xlink="http://www.w3.org/1999/xlink">
<g id="graph0" class="graph" transform="scale(1 1) rotate(0) translate(4 510)">
<title>GTOPOLOGY</title>
<polygon fill="white" stroke="none" points="-4,4 -4,-510 2069,-510 2069,4 -4,4"/>
<g id="clust1" class="cluster">
<title>cluster_ext</title>
</g>
<g id="clust2" class="cluster">
<title>cluster_1</title>
<polygon fill="#eeeeff" stroke="#eeeeff" points="692,-342 692,-417 806,-417 806,-342 692,-342"/>
<text text-anchor="middle" x="749" y="-349.8" font-family="Times,serif" font-size="14.00">base</text>
</g>
<g id="clust3" class="cluster">
<title>cluster_2</title>
<polygon fill="#ddddff" stroke="#ddddff" points="814,-342 814,-490 1076,-490 1076,-342 814,-342"/>
<text text-anchor="middle" x="945" y="-349.8" font-family="Times,serif" font-size="14.00">graph</text>
</g>
<g id="clust4" class="cluster">
<title>cluster_3</title>
<polygon fill="#d4ddff" stroke="#d4ddff" points="1212,-342 1212,-417 1348,-417 1348,-342 1212,-342"/>
<text text-anchor="middle" x="1280" y="-349.8" font-family="Times,serif" font-size="14.00">image</text>
</g>
<g id="clust5" class="cluster">
<title>cluster_4</title>
<polygon fill="#e0eeff" stroke="#e0eeff" points="1084,-342 1084,-417 1204,-417 1204,-342 1084,-342"/>
<text text-anchor="middle" x="1144" y="-349.8" font-family="Times,serif" font-size="14.00">kernel</text>
</g>
<g id="clust6" class="cluster">
<title>cluster_5</title>
<polygon fill="white" stroke="white" points="466,-342 466,-417 684,-417 684,-342 466,-342"/>
<text text-anchor="middle" x="575" y="-349.8" font-family="Times,serif" font-size="14.00">boost</text>
</g>
<g id="clust7" class="cluster">
<title>cluster_0</title>
<polygon fill="lightgrey" stroke="lightgrey" points="266,-153 266,-315 680,-315 680,-153 266,-153"/>
<text text-anchor="middle" x="473" y="-160.8" font-family="Times,serif" font-size="14.00">topology (main concepts)</text>
</g>
<g id="clust8" class="cluster">
<title>cluster_models</title>
<polygon fill="#ccffcc" stroke="#ccffcc" points="8,-8 8,-122 2057,-122 2057,-8 8,-8"/>
<text text-anchor="middle" x="1032.5" y="-15.8" font-family="Times,serif" font-size="14.00">topology (main models)</text>
</g>
<g id="clust9" class="cluster">
<title>cluster_models_0</title>
<polygon fill="#ccf8cc" stroke="#ccf8cc" points="527,-39 527,-114 865,-114 865,-39 527,-39"/>
<text text-anchor="middle" x="696" y="-46.8" font-family="Times,serif" font-size="14.00">(main graph models)</text>
</g>
<g id="clust10" class="cluster">
<title>cluster_models_1</title>
<polygon fill="#cceecc" stroke="#cceecc" points="873,-39 873,-114 2049,-114 2049,-39 873,-39"/>
<text text-anchor="middle" x="1461" y="-46.8" font-family="Times,serif" font-size="14.00">(main digital surface container models)</text>
</g>
<g id="clust11" class="cluster">
<title>cluster_models_2</title>
<polygon fill="#cce8cc" stroke="#cce8cc" points="16,-39 16,-114 519,-114 519,-39 16,-39"/>
<text text-anchor="middle" x="267.5" y="-46.8" font-family="Times,serif" font-size="14.00">(others)</text>
</g>
<!-- CPredicate -->
<g id="node1" class="node">
<title>CPredicate</title>
<g id="a_node1"><a xlink:href="structDGtal_1_1concepts_1_1CPredicate.html" target="_top" xlink:title="CPredicate">
<ellipse fill="white" stroke="white" cx="749" cy="-391" rx="49.29" ry="18"/>
<text text-anchor="middle" x="749" y="-387.3" font-family="Times,serif" font-size="14.00">CPredicate</text>
</a>
</g>
</g>
<!-- CUndirectedSimpleGraph -->
<g id="node2" class="node">
<title>CUndirectedSimpleGraph</title>
<g id="a_node2"><a xlink:href="structDGtal_1_1concepts_1_1CUndirectedSimpleGraph.html" target="_top" xlink:title="CUndirectedSimpleGraph">
<ellipse fill="white" stroke="white" cx="925" cy="-391" rx="102.88" ry="18"/>
<text text-anchor="middle" x="925" y="-387.3" font-family="Times,serif" font-size="14.00">CUndirectedSimpleGraph</text>
</a>
</g>
</g>
<!-- CUndirectedSimpleLocalGraph -->
<g id="node3" class="node">
<title>CUndirectedSimpleLocalGraph</title>
<g id="a_node3"><a xlink:href="structDGtal_1_1concepts_1_1CUndirectedSimpleLocalGraph.html" target="_top" xlink:title="CUndirectedSimpleLocalGraph">
<ellipse fill="white" stroke="white" cx="945" cy="-464" rx="122.68" ry="18"/>
<text text-anchor="middle" x="945" y="-460.3" font-family="Times,serif" font-size="14.00">CUndirectedSimpleLocalGraph</text>
</a>
</g>
</g>
<!-- CUndirectedSimpleGraph&#45;&gt;CUndirectedSimpleLocalGraph -->
<g id="edge5" class="edge">
<title>CUndirectedSimpleGraph&#45;&gt;CUndirectedSimpleLocalGraph</title>
<path fill="none" stroke="black" d="M929.84,-409.19C932.03,-416.95 934.67,-426.32 937.13,-435.05"/>
<polygon fill="black" stroke="black" points="933.71,-435.84 939.79,-444.51 940.45,-433.94 933.71,-435.84"/>
</g>
<!-- CConstImage -->
<g id="node4" class="node">
<title>CConstImage</title>
<g id="a_node4"><a xlink:href="structDGtal_1_1concepts_1_1CConstImage.html" target="_top" xlink:title="CConstImage">
<ellipse fill="white" stroke="white" cx="1280" cy="-391" rx="59.59" ry="18"/>
<text text-anchor="middle" x="1280" y="-387.3" font-family="Times,serif" font-size="14.00">CConstImage</text>
</a>
</g>
</g>
<!-- CDigitalSet -->
<g id="node5" class="node">
<title>CDigitalSet</title>
<g id="a_node5"><a xlink:href="structDGtal_1_1concepts_1_1CDigitalSet.html" target="_top" xlink:title="CDigitalSet">
<ellipse fill="white" stroke="white" cx="1144" cy="-391" rx="51.99" ry="18"/>
<text text-anchor="middle" x="1144" y="-387.3" font-family="Times,serif" font-size="14.00">CDigitalSet</text>
</a>
</g>
</g>
<!-- boost_CopyConstructible -->
<g id="node6" class="node">
<title>boost_CopyConstructible</title>
<g id="a_node6"><a xlink:href="structboost_1_1CopyConstructible.html" target="_top" xlink:title="boost::CopyConstructible">
<ellipse fill="orange" stroke="orange" cx="575" cy="-391" rx="100.98" ry="18"/>
<text text-anchor="middle" x="575" y="-387.3" font-family="Times,serif" font-size="14.00">boost::CopyConstructible</text>
</a>
</g>
</g>
<!-- CDigitalSurfaceContainer -->
<g id="node7" class="node">
<title>CDigitalSurfaceContainer</title>
<g id="a_node7"><a xlink:href="structDGtal_1_1concepts_1_1CDigitalSurfaceContainer.html" target="_top" xlink:title="CDigitalSurfaceContainer">
<ellipse fill="white" stroke="white" cx="569" cy="-202" rx="102.88" ry="18"/>
<text text-anchor="middle" x="569" y="-198.3" font-family="Times,serif" font-size="14.00">CDigitalSurfaceContainer</text>
</a>
</g>
</g>
<!-- CDigitalSurfaceContainer&#45;&gt;boost_CopyConstructible -->
<g id="edge1" class="edge">
<title>CDigitalSurfaceContainer&#45;&gt;boost_CopyConstructible</title>
<path fill="none" stroke="black" d="M649.68,-213.55C678.19,-219.07 705.35,-227.01 714,-238 752.65,-287.09 673.78,-339.99 619.81,-368.62"/>
<polygon fill="black" stroke="black" points="618.34,-365.44 611.07,-373.15 621.56,-371.65 618.34,-365.44"/>
</g>
<!-- CDigitalSurfaceTracker -->
<g id="node8" class="node">
<title>CDigitalSurfaceTracker</title>
<g id="a_node8"><a xlink:href="structDGtal_1_1concepts_1_1CDigitalSurfaceTracker.html" target="_top" xlink:title="CDigitalSurfaceTracker">
<ellipse fill="white" stroke="white" cx="577" cy="-289" rx="94.78" ry="18"/>
<text text-anchor="middle" x="577" y="-285.3" font-family="Times,serif" font-size="14.00">CDigitalSurfaceTracker</text>
</a>
</g>
</g>
<!-- CDigitalSurfaceContainer&#45;&gt;CDigitalSurfaceTracker -->
<g id="edge3" class="edge">
<title>CDigitalSurfaceContainer&#45;&gt;CDigitalSurfaceTracker</title>
<path fill="none" stroke="black" stroke-dasharray="5,2" d="M570.62,-220.2C571.67,-231.42 573.08,-246.33 574.3,-259.31"/>
<polygon fill="black" stroke="black" points="570.79,-259.4 575.21,-269.03 577.76,-258.74 570.79,-259.4"/>
<text text-anchor="middle" x="582.5" y="-241.8" font-family="Times,serif" font-size="14.00">use</text>
</g>
<!-- CCellularGridSpaceND -->
<g id="node10" class="node">
<title>CCellularGridSpaceND</title>
<g id="a_node10"><a xlink:href="structDGtal_1_1concepts_1_1CCellularGridSpaceND.html" target="_top" xlink:title="CCellularGridSpaceND">
<ellipse fill="white" stroke="white" cx="369" cy="-289" rx="94.78" ry="18"/>
<text text-anchor="middle" x="369" y="-285.3" font-family="Times,serif" font-size="14.00">CCellularGridSpaceND</text>
</a>
</g>
</g>
<!-- CDigitalSurfaceContainer&#45;&gt;CCellularGridSpaceND -->
<g id="edge4" class="edge">
<title>CDigitalSurfaceContainer&#45;&gt;CCellularGridSpaceND</title>
<path fill="none" stroke="black" stroke-dasharray="5,2" d="M530.91,-219.19C498.56,-232.94 451.95,-252.75 417.04,-267.58"/>
<polygon fill="black" stroke="black" points="415.84,-264.29 408,-271.42 418.57,-270.73 415.84,-264.29"/>
<text text-anchor="middle" x="490.5" y="-241.8" font-family="Times,serif" font-size="14.00">use</text>
</g>
<!-- CDigitalSurfaceTracker&#45;&gt;boost_CopyConstructible -->
<g id="edge2" class="edge">
<title>CDigitalSurfaceTracker&#45;&gt;boost_CopyConstructible</title>
<path fill="none" stroke="black" d="M576.65,-307.42C576.35,-322.26 575.92,-343.88 575.57,-361.28"/>
<polygon fill="black" stroke="black" points="572.08,-361.2 575.37,-371.27 579.07,-361.34 572.08,-361.2"/>
</g>
<!-- CSurfelPredicate -->
<g id="node9" class="node">
<title>CSurfelPredicate</title>
<g id="a_node9"><a xlink:href="structDGtal_1_1concepts_1_1CSurfelPredicate.html" target="_top" xlink:title="CSurfelPredicate">
<ellipse fill="white" stroke="white" cx="377" cy="-202" rx="70.69" ry="18"/>
<text text-anchor="middle" x="377" y="-198.3" font-family="Times,serif" font-size="14.00">CSurfelPredicate</text>
</a>
</g>
</g>
<!-- CSurfelPredicate&#45;&gt;CPredicate -->
<g id="edge6" class="edge">
<title>CSurfelPredicate&#45;&gt;CPredicate</title>
<path fill="none" stroke="black" d="M428.52,-214.59C437.97,-216.53 447.76,-218.42 457,-220 557.65,-237.18 603.63,-204.37 681,-271 709.71,-295.73 729.02,-335.74 739.51,-362.45"/>
<polygon fill="black" stroke="black" points="736.14,-363.45 742.93,-371.59 742.7,-360.99 736.14,-363.45"/>
</g>
<!-- DigitalSurface -->
<g id="node11" class="node">
<title>DigitalSurface</title>
<g id="a_node11"><a xlink:href="classDGtal_1_1DigitalSurface.html" target="_top" xlink:title="DigitalSurface">
<ellipse fill="white" stroke="white" cx="597" cy="-88" rx="61.99" ry="18"/>
<text text-anchor="middle" x="597" y="-84.3" font-family="Times,serif" font-size="14.00">DigitalSurface</text>
</a>
</g>
</g>
<!-- DigitalSurface&#45;&gt;CUndirectedSimpleGraph -->
<g id="edge16" class="edge">
<title>DigitalSurface&#45;&gt;CUndirectedSimpleGraph</title>
<path fill="none" stroke="black" d="M625.72,-104.28C638.4,-110.51 653.65,-117.33 668,-122 736.05,-144.13 770.56,-107.76 826,-153 843.2,-167.04 893.56,-302.68 915.07,-362.22"/>
<polygon fill="black" stroke="black" points="911.66,-363.08 918.34,-371.3 918.25,-360.71 911.66,-363.08"/>
</g>
<!-- DigitalSurface&#45;&gt;CDigitalSurfaceContainer -->
<g id="edge17" class="edge">
<title>DigitalSurface&#45;&gt;CDigitalSurfaceContainer</title>
<path fill="none" stroke="black" stroke-dasharray="5,2" d="M592.75,-106.01C588.33,-123.69 581.33,-151.66 576.08,-172.68"/>
<polygon fill="black" stroke="black" points="572.69,-171.81 573.66,-182.36 579.48,-173.51 572.69,-171.81"/>
<text text-anchor="middle" x="595.5" y="-133.8" font-family="Times,serif" font-size="14.00">use</text>
</g>
<!-- IndexedDigitalSurface -->
<g id="node12" class="node">
<title>IndexedDigitalSurface</title>
<g id="a_node12"><a xlink:href="classDGtal_1_1IndexedDigitalSurface.html" target="_top" xlink:title="IndexedDigitalSurface">
<ellipse fill="white" stroke="white" cx="767" cy="-88" rx="90.18" ry="18"/>
<text text-anchor="middle" x="767" y="-84.3" font-family="Times,serif" font-size="14.00">IndexedDigitalSurface</text>
</a>
</g>
</g>
<!-- IndexedDigitalSurface&#45;&gt;CUndirectedSimpleGraph -->
<g id="edge18" class="edge">
<title>IndexedDigitalSurface&#45;&gt;CUndirectedSimpleGraph</title>
<path fill="none" stroke="black" d="M804.59,-104.77C825.63,-115.44 850.65,-131.52 866,-153 912.04,-217.42 922.3,-313.97 924.49,-361.49"/>
<polygon fill="black" stroke="black" points="920.98,-361.36 924.84,-371.22 927.98,-361.1 920.98,-361.36"/>
</g>
<!-- IndexedDigitalSurface&#45;&gt;CDigitalSurfaceContainer -->
<g id="edge19" class="edge">
<title>IndexedDigitalSurface&#45;&gt;CDigitalSurfaceContainer</title>
<path fill="none" stroke="black" stroke-dasharray="5,2" d="M738.21,-105.29C703.95,-124.67 646.57,-157.12 608.26,-178.79"/>
<polygon fill="black" stroke="black" points="606.77,-175.61 599.79,-183.58 610.22,-181.71 606.77,-175.61"/>
<text text-anchor="middle" x="700.5" y="-133.8" font-family="Times,serif" font-size="14.00">use</text>
</g>
<!-- DigitalSetBoundary -->
<g id="node13" class="node">
<title>DigitalSetBoundary</title>
<g id="a_node13"><a xlink:href="classDGtal_1_1DigitalSetBoundary.html" target="_top" xlink:title="DigitalSetBoundary">
<ellipse fill="white" stroke="white" cx="1488" cy="-88" rx="81.49" ry="18"/>
<text text-anchor="middle" x="1488" y="-84.3" font-family="Times,serif" font-size="14.00">DigitalSetBoundary</text>
</a>
</g>
</g>
<!-- DigitalSetBoundary&#45;&gt;CDigitalSet -->
<g id="edge8" class="edge">
<title>DigitalSetBoundary&#45;&gt;CDigitalSet</title>
<path fill="none" stroke="black" stroke-dasharray="5,2" d="M1448.29,-104.08C1432.68,-109.87 1414.56,-116.42 1398,-122 1386.54,-125.86 1382.15,-123.43 1372,-130 1273.74,-193.64 1192.88,-311.18 1159.93,-363.59"/>
<polygon fill="black" stroke="black" points="1157.08,-361.54 1154.78,-371.88 1163.03,-365.23 1157.08,-361.54"/>
<text text-anchor="middle" x="1260.5" y="-241.8" font-family="Times,serif" font-size="14.00">use</text>
</g>
<!-- DigitalSetBoundary&#45;&gt;CDigitalSurfaceContainer -->
<g id="edge7" class="edge">
<title>DigitalSetBoundary&#45;&gt;CDigitalSurfaceContainer</title>
<path fill="none" stroke="black" d="M1452.32,-104.61C1436.06,-111.07 1416.37,-117.97 1398,-122 1354.88,-131.46 1342.97,-126.09 1299,-130 1179.12,-140.67 838.26,-174.3 668.12,-191.16"/>
<polygon fill="black" stroke="black" points="667.78,-187.67 658.17,-192.14 668.47,-194.64 667.78,-187.67"/>
</g>
<!-- ImplicitDigitalSurface -->
<g id="node14" class="node">
<title>ImplicitDigitalSurface</title>
<g id="a_node14"><a xlink:href="classDGtal_1_1ImplicitDigitalSurface.html" target="_top" xlink:title="ImplicitDigitalSurface">
<ellipse fill="white" stroke="white" cx="971" cy="-88" rx="90.18" ry="18"/>
<text text-anchor="middle" x="971" y="-84.3" font-family="Times,serif" font-size="14.00">ImplicitDigitalSurface</text>
</a>
</g>
</g>
<!-- ImplicitDigitalSurface&#45;&gt;CDigitalSurfaceContainer -->
<g id="edge9" class="edge">
<title>ImplicitDigitalSurface&#45;&gt;CDigitalSurfaceContainer</title>
<path fill="none" stroke="black" d="M926.23,-104.08C908.48,-109.9 887.84,-116.48 869,-122 790.3,-145.07 699.08,-168.65 638.08,-183.97"/>
<polygon fill="black" stroke="black" points="637.37,-180.53 628.52,-186.36 639.07,-187.33 637.37,-180.53"/>
</g>
<!-- LightImplicitDigitalSurface -->
<g id="node15" class="node">
<title>LightImplicitDigitalSurface</title>
<g id="a_node15"><a xlink:href="classDGtal_1_1LightImplicitDigitalSurface.html" target="_top" xlink:title="LightImplicitDigitalSurface">
<ellipse fill="white" stroke="white" cx="1696" cy="-88" rx="109.38" ry="18"/>
<text text-anchor="middle" x="1696" y="-84.3" font-family="Times,serif" font-size="14.00">LightImplicitDigitalSurface</text>
</a>
</g>
</g>
<!-- LightImplicitDigitalSurface&#45;&gt;CUndirectedSimpleLocalGraph -->
<g id="edge13" class="edge">
<title>LightImplicitDigitalSurface&#45;&gt;CUndirectedSimpleLocalGraph</title>
<path fill="none" stroke="black" d="M1645.85,-104.46C1558.11,-131.86 1386,-187.36 1386,-201 1386,-201 1386,-201 1386,-392 1386,-410.76 1369.46,-410.16 1352,-417 1302.11,-436.54 1169.93,-449.01 1069.63,-455.97"/>
<polygon fill="black" stroke="black" points="1069.43,-452.48 1059.69,-456.65 1069.9,-459.46 1069.43,-452.48"/>
</g>
<!-- LightImplicitDigitalSurface&#45;&gt;CDigitalSurfaceContainer -->
<g id="edge12" class="edge">
<title>LightImplicitDigitalSurface&#45;&gt;CDigitalSurfaceContainer</title>
<path fill="none" stroke="black" d="M1649.47,-104.72C1627.98,-111.28 1601.96,-118.24 1578,-122 1487.48,-136.21 1463.37,-123.23 1372,-130 1310.91,-134.52 1295.97,-139.1 1235,-145 1036.51,-164.21 804.36,-182.87 673.2,-193.05"/>
<polygon fill="black" stroke="black" points="673.21,-189.54 663.51,-193.81 673.75,-196.52 673.21,-189.54"/>
</g>
<!-- SetOfSurfels -->
<g id="node16" class="node">
<title>SetOfSurfels</title>
<g id="a_node16"><a xlink:href="classDGtal_1_1SetOfSurfels.html" target="_top" xlink:title="SetOfSurfels">
<ellipse fill="white" stroke="white" cx="1135" cy="-88" rx="55.79" ry="18"/>
<text text-anchor="middle" x="1135" y="-84.3" font-family="Times,serif" font-size="14.00">SetOfSurfels</text>
</a>
</g>
</g>
<!-- SetOfSurfels&#45;&gt;CDigitalSurfaceContainer -->
<g id="edge10" class="edge">
<title>SetOfSurfels&#45;&gt;CDigitalSurfaceContainer</title>
<path fill="none" stroke="black" d="M1109.24,-104.43C1097.61,-110.77 1083.49,-117.63 1070,-122 937.98,-164.74 778.64,-184.8 675.65,-193.9"/>
<polygon fill="black" stroke="black" points="675.48,-190.4 665.82,-194.75 676.08,-197.38 675.48,-190.4"/>
</g>
<!-- ExplicitDigitalSurface -->
<g id="node17" class="node">
<title>ExplicitDigitalSurface</title>
<g id="a_node17"><a xlink:href="classDGtal_1_1ExplicitDigitalSurface.html" target="_top" xlink:title="ExplicitDigitalSurface">
<ellipse fill="white" stroke="white" cx="1299" cy="-88" rx="89.88" ry="18"/>
<text text-anchor="middle" x="1299" y="-84.3" font-family="Times,serif" font-size="14.00">ExplicitDigitalSurface</text>
</a>
</g>
</g>
<!-- ExplicitDigitalSurface&#45;&gt;CDigitalSurfaceContainer -->
<g id="edge11" class="edge">
<title>ExplicitDigitalSurface&#45;&gt;CDigitalSurfaceContainer</title>
<path fill="none" stroke="black" d="M1258.55,-104.38C1240.8,-110.64 1219.59,-117.44 1200,-122 1018.76,-164.15 802.67,-185.04 676.17,-194.4"/>
<polygon fill="black" stroke="black" points="676.19,-190.89 666.47,-195.1 676.7,-197.87 676.19,-190.89"/>
</g>
<!-- LightExplicitDigitalSurface -->
<g id="node18" class="node">
<title>LightExplicitDigitalSurface</title>
<g id="a_node18"><a xlink:href="classDGtal_1_1LightExplicitDigitalSurface.html" target="_top" xlink:title="LightExplicitDigitalSurface">
<ellipse fill="white" stroke="white" cx="1932" cy="-88" rx="108.58" ry="18"/>
<text text-anchor="middle" x="1932" y="-84.3" font-family="Times,serif" font-size="14.00">LightExplicitDigitalSurface</text>
</a>
</g>
</g>
<!-- LightExplicitDigitalSurface&#45;&gt;CUndirectedSimpleLocalGraph -->
<g id="edge15" class="edge">
<title>LightExplicitDigitalSurface&#45;&gt;CUndirectedSimpleLocalGraph</title>
<path fill="none" stroke="black" d="M1892.74,-105.11C1856.75,-122.79 1809,-154.94 1809,-201 1809,-201 1809,-201 1809,-392 1809,-428.37 1316.36,-450.3 1075.07,-458.85"/>
<polygon fill="black" stroke="black" points="1075.16,-455.35 1065.29,-459.2 1075.41,-462.34 1075.16,-455.35"/>
</g>
<!-- LightExplicitDigitalSurface&#45;&gt;CDigitalSurfaceContainer -->
<g id="edge14" class="edge">
<title>LightExplicitDigitalSurface&#45;&gt;CDigitalSurfaceContainer</title>
<path fill="none" stroke="black" d="M1884.86,-104.62C1863.47,-111.08 1837.7,-117.98 1814,-122 1402.11,-191.87 904.07,-201.3 683.57,-201.7"/>
<polygon fill="black" stroke="black" points="683.83,-198.2 673.83,-201.71 683.84,-205.2 683.83,-198.2"/>
</g>
<!-- SurfelSetPredicate -->
<g id="node19" class="node">
<title>SurfelSetPredicate</title>
<g id="a_node19"><a xlink:href="structDGtal_1_1functors_1_1SurfelSetPredicate.html" target="_top" xlink:title="SurfelSetPredicate">
<ellipse fill="white" stroke="white" cx="435" cy="-88" rx="76.09" ry="18"/>
<text text-anchor="middle" x="435" y="-84.3" font-family="Times,serif" font-size="14.00">SurfelSetPredicate</text>
</a>
</g>
</g>
<!-- SurfelSetPredicate&#45;&gt;CSurfelPredicate -->
<g id="edge20" class="edge">
<title>SurfelSetPredicate&#45;&gt;CSurfelPredicate</title>
<path fill="none" stroke="black" d="M426.19,-106.01C416.87,-124.02 402.01,-152.71 391.06,-173.85"/>
<polygon fill="black" stroke="black" points="388.08,-172 386.59,-182.49 394.29,-175.22 388.08,-172"/>
</g>
<!-- BoundaryPredicate -->
<g id="node20" class="node">
<title>BoundaryPredicate</title>
<g id="a_node20"><a xlink:href="classDGtal_1_1functors_1_1BoundaryPredicate.html" target="_top" xlink:title="BoundaryPredicate">
<ellipse fill="white" stroke="white" cx="102" cy="-88" rx="77.99" ry="18"/>
<text text-anchor="middle" x="102" y="-84.3" font-family="Times,serif" font-size="14.00">BoundaryPredicate</text>
</a>
</g>
</g>
<!-- BoundaryPredicate&#45;&gt;CConstImage -->
<g id="edge25" class="edge">
<title>BoundaryPredicate&#45;&gt;CConstImage</title>
<path fill="none" stroke="black" stroke-dasharray="5,2" d="M136.93,-104.49C152.58,-110.83 171.43,-117.69 189,-122 230.95,-132.29 338.92,-141.87 382,-145 398.74,-146.22 668.61,-146.31 684,-153 722.34,-169.65 718.41,-192.63 750,-220 803.82,-266.62 812.02,-290.84 879,-315 947.89,-339.85 1139.45,-308.25 1208,-334 1225.95,-340.74 1243.02,-353.63 1256.03,-365.35"/>
<polygon fill="black" stroke="black" points="1253.57,-367.84 1263.25,-372.14 1258.37,-362.74 1253.57,-367.84"/>
<text text-anchor="middle" x="793.5" y="-241.8" font-family="Times,serif" font-size="14.00">use</text>
</g>
<!-- BoundaryPredicate&#45;&gt;CSurfelPredicate -->
<g id="edge21" class="edge">
<title>BoundaryPredicate&#45;&gt;CSurfelPredicate</title>
<path fill="none" stroke="black" d="M131.88,-104.98C157.27,-117.84 195.05,-135.31 230,-145 256.77,-152.42 265.64,-144.23 292,-153 310.34,-159.1 329.2,-169.29 344.49,-178.71"/>
<polygon fill="black" stroke="black" points="342.38,-181.52 352.69,-183.93 346.13,-175.61 342.38,-181.52"/>
</g>
<!-- BoundaryPredicate&#45;&gt;CCellularGridSpaceND -->
<g id="edge23" class="edge">
<title>BoundaryPredicate&#45;&gt;CCellularGridSpaceND</title>
<path fill="none" stroke="black" stroke-dasharray="5,2" d="M116.58,-106.09C145.78,-139.24 214.91,-212.59 288,-253 297.55,-258.28 308.06,-263.33 318.26,-267.88"/>
<polygon fill="black" stroke="black" points="316.76,-271.04 327.32,-271.81 319.54,-264.62 316.76,-271.04"/>
<text text-anchor="middle" x="244.5" y="-198.3" font-family="Times,serif" font-size="14.00">use</text>
</g>
<!-- FrontierPredicate -->
<g id="node21" class="node">
<title>FrontierPredicate</title>
<g id="a_node21"><a xlink:href="classDGtal_1_1functors_1_1FrontierPredicate.html" target="_top" xlink:title="FrontierPredicate">
<ellipse fill="white" stroke="white" cx="269" cy="-88" rx="71.49" ry="18"/>
<text text-anchor="middle" x="269" y="-84.3" font-family="Times,serif" font-size="14.00">FrontierPredicate</text>
</a>
</g>
</g>
<!-- FrontierPredicate&#45;&gt;CConstImage -->
<g id="edge26" class="edge">
<title>FrontierPredicate&#45;&gt;CConstImage</title>
<path fill="none" stroke="black" stroke-dasharray="5,2" d="M301,-104.51C315.61,-110.95 333.35,-117.86 350,-122 449.27,-146.66 476.99,-137.5 579,-145 597.97,-146.4 732.7,-145.09 750,-153 805.75,-178.49 791.66,-222.79 845,-253 988.84,-334.46 1058.46,-263.55 1208,-334 1224.99,-342.01 1241.7,-354.62 1254.73,-365.85"/>
<polygon fill="black" stroke="black" points="1252.2,-368.28 1262,-372.32 1256.86,-363.05 1252.2,-368.28"/>
<text text-anchor="middle" x="854.5" y="-241.8" font-family="Times,serif" font-size="14.00">use</text>
</g>
<!-- FrontierPredicate&#45;&gt;CSurfelPredicate -->
<g id="edge22" class="edge">
<title>FrontierPredicate&#45;&gt;CSurfelPredicate</title>
<path fill="none" stroke="black" d="M285.4,-106.01C303.35,-124.62 332.29,-154.63 352.83,-175.94"/>
<polygon fill="black" stroke="black" points="350.29,-178.34 359.75,-183.11 355.32,-173.48 350.29,-178.34"/>
</g>
<!-- FrontierPredicate&#45;&gt;CCellularGridSpaceND -->
<g id="edge24" class="edge">
<title>FrontierPredicate&#45;&gt;CCellularGridSpaceND</title>
<path fill="none" stroke="black" stroke-dasharray="5,2" d="M265.85,-106.38C261.98,-132.72 258.15,-183.57 278,-220 288.59,-239.44 307.38,-254.9 325.15,-266.14"/>
<polygon fill="black" stroke="black" points="323.18,-269.04 333.56,-271.17 326.77,-263.03 323.18,-269.04"/>
<text text-anchor="middle" x="287.5" y="-198.3" font-family="Times,serif" font-size="14.00">use</text>
</g>
</g>
</svg>
