<?xml version="1.0" encoding="UTF-8" standalone="no"?>
<!DOCTYPE svg PUBLIC "-//W3C//DTD SVG 1.1//EN"
 "http://www.w3.org/Graphics/SVG/1.1/DTD/svg11.dtd">
<!-- Generated by graphviz version 7.0.1 (20221109.1506)
 -->
<!-- Title: GMath Pages: 1 -->
<svg width="2703pt" height="491pt"
 viewBox="0.00 0.00 2703.00 491.00" xmlns="http://www.w3.org/2000/svg" xmlns:xlink="http://www.w3.org/1999/xlink">
<g id="graph0" class="graph" transform="scale(1 1) rotate(0) translate(4 487)">
<title>GMath</title>
<polygon fill="white" stroke="none" points="-4,4 -4,-487 2699,-487 2699,4 -4,4"/>
<g id="clust1" class="cluster">
<title>cluster_ext</title>
<polygon fill="none" stroke="black" points="1365,-305 1365,-396 2687,-396 2687,-305 1365,-305"/>
</g>
<g id="clust2" class="cluster">
<title>cluster_kernel</title>
<polygon fill="#ddddee" stroke="#ddddee" points="2342,-313 2342,-388 2679,-388 2679,-313 2342,-313"/>
<text text-anchor="middle" x="2510.5" y="-320.8" font-family="Times,serif" font-size="14.00">kernel</text>
</g>
<g id="clust4" class="cluster">
<title>cluster_boost</title>
<polygon fill="white" stroke="white" points="1373,-313 1373,-388 2334,-388 2334,-313 1373,-313"/>
<text text-anchor="middle" x="1853.5" y="-320.8" font-family="Times,serif" font-size="14.00">boost</text>
</g>
<g id="clust6" class="cluster">
<title>cluster_math_cc</title>
<polygon fill="none" stroke="black" points="8,-116 8,-475 1357,-475 1357,-116 8,-116"/>
</g>
<g id="clust7" class="cluster">
<title>cluster_math_linalg</title>
<polygon fill="#e4e4ff" stroke="#e4e4ff" points="16,-124 16,-467 1204,-467 1204,-124 16,-124"/>
<text text-anchor="middle" x="610" y="-131.8" font-family="Times,serif" font-size="14.00">math/linalg</text>
</g>
<g id="clust8" class="cluster">
<title>cluster_concepts</title>
<polygon fill="lightgrey" stroke="lightgrey" points="1212,-124 1212,-199 1349,-199 1349,-124 1212,-124"/>
<text text-anchor="middle" x="1280.5" y="-131.8" font-family="Times,serif" font-size="14.00">Math (main concepts)</text>
</g>
<g id="clust9" class="cluster">
<title>cluster_models</title>
<polygon fill="#ccffcc" stroke="#ccffcc" points="1706,-8 1706,-83 2196,-83 2196,-8 1706,-8"/>
<text text-anchor="middle" x="1951" y="-15.8" font-family="Times,serif" font-size="14.00">Math (main models and classes)</text>
</g>
<!-- CCommutativeRing -->
<g id="node1" class="node">
<title>CCommutativeRing</title>
<g id="a_node1"><a xlink:href="structDGtal_1_1concepts_1_1CCommutativeRing.html" target="_top" xlink:title="CCommutativeRing">
<ellipse fill="white" stroke="white" cx="2588" cy="-362" rx="82.59" ry="18"/>
<text text-anchor="middle" x="2588" y="-358.3" font-family="Times,serif" font-size="14.00">CCommutativeRing</text>
</a>
</g>
</g>
<!-- CEuclideanRing -->
<g id="node2" class="node">
<title>CEuclideanRing</title>
<g id="a_node2"><a xlink:href="structDGtal_1_1concepts_1_1CEuclideanRing.html" target="_top" xlink:title="CEuclideanRing">
<ellipse fill="white" stroke="white" cx="2419" cy="-362" rx="68.79" ry="18"/>
<text text-anchor="middle" x="2419" y="-358.3" font-family="Times,serif" font-size="14.00">CEuclideanRing</text>
</a>
</g>
</g>
<!-- boost_CopyConstructible -->
<g id="node3" class="node">
<title>boost_CopyConstructible</title>
<g id="a_node3"><a xlink:href="structboost_1_1CopyConstructible.html" target="_top" xlink:title="boost::CopyConstructible">
<ellipse fill="orange" stroke="orange" cx="1717" cy="-362" rx="100.98" ry="18"/>
<text text-anchor="middle" x="1717" y="-358.3" font-family="Times,serif" font-size="14.00">boost::CopyConstructible</text>
</a>
</g>
</g>
<!-- boost_DefaultConstructible -->
<g id="node4" class="node">
<title>boost_DefaultConstructible</title>
<g id="a_node4"><a xlink:href="structboost_1_1DefaultConstructible.html" target="_top" xlink:title="boost::DefaultConstructible">
<ellipse fill="orange" stroke="orange" cx="1490" cy="-362" rx="108.58" ry="18"/>
<text text-anchor="middle" x="1490" y="-358.3" font-family="Times,serif" font-size="14.00">boost::DefaultConstructible</text>
</a>
</g>
</g>
<!-- boost_InputIterator -->
<g id="node5" class="node">
<title>boost_InputIterator</title>
<g id="a_node5"><a xlink:href="structboost_1_1InputIterator.html" target="_top" xlink:title="boost::InputIterator">
<ellipse fill="orange" stroke="orange" cx="2247" cy="-362" rx="79.09" ry="18"/>
<text text-anchor="middle" x="2247" y="-358.3" font-family="Times,serif" font-size="14.00">boost::InputIterator</text>
</a>
</g>
</g>
<!-- boost_is_integral -->
<g id="node6" class="node">
<title>boost_is_integral</title>
<g id="a_node6"><a xlink:href="structboost_1_1is__integral.html" target="_top" xlink:title="boost::is_integral">
<ellipse fill="orange" stroke="orange" cx="1907" cy="-362" rx="71.49" ry="18"/>
<text text-anchor="middle" x="1907" y="-358.3" font-family="Times,serif" font-size="14.00">boost::is_integral</text>
</a>
</g>
</g>
<!-- boost_is_unsigned -->
<g id="node7" class="node">
<title>boost_is_unsigned</title>
<g id="a_node7"><a xlink:href="structboost_1_1is__unsigned.html" target="_top" xlink:title="boost::is_unsigned">
<ellipse fill="orange" stroke="orange" cx="2073" cy="-362" rx="76.89" ry="18"/>
<text text-anchor="middle" x="2073" y="-358.3" font-family="Times,serif" font-size="14.00">boost::is_unsigned</text>
</a>
</g>
</g>
<!-- CVectorSpace -->
<g id="node8" class="node">
<title>CVectorSpace</title>
<g id="a_node8"><a xlink:href="structDGtal_1_1concepts_1_1CVectorSpace.html" target="_top" xlink:title="CVectorSpace">
<ellipse fill="white" stroke="white" cx="582" cy="-441" rx="60.39" ry="18"/>
<text text-anchor="middle" x="582" y="-437.3" font-family="Times,serif" font-size="14.00">CVectorSpace</text>
</a>
</g>
</g>
<!-- CMatrix -->
<g id="node9" class="node">
<title>CMatrix</title>
<g id="a_node9"><a xlink:href="structDGtal_1_1concepts_1_1CMatrix.html" target="_top" xlink:title="CMatrix">
<ellipse fill="white" stroke="white" cx="720" cy="-362" rx="40.89" ry="18"/>
<text text-anchor="middle" x="720" y="-358.3" font-family="Times,serif" font-size="14.00">CMatrix</text>
</a>
</g>
</g>
<!-- CMatrix&#45;&gt;CVectorSpace -->
<g id="edge6" class="edge">
<title>CMatrix&#45;&gt;CVectorSpace</title>
<path fill="none" stroke="black" d="M695.33,-376.77C674.16,-388.58 643.35,-405.77 619.19,-419.25"/>
<polygon fill="black" stroke="black" points="617.64,-416.1 610.62,-424.03 621.06,-422.22 617.64,-416.1"/>
</g>
<!-- CStaticMatrix -->
<g id="node10" class="node">
<title>CStaticMatrix</title>
<g id="a_node10"><a xlink:href="structDGtal_1_1concepts_1_1CStaticMatrix.html" target="_top" xlink:title="CStaticMatrix">
<ellipse fill="white" stroke="white" cx="1135" cy="-260" rx="61.19" ry="18"/>
<text text-anchor="middle" x="1135" y="-256.3" font-family="Times,serif" font-size="14.00">CStaticMatrix</text>
</a>
</g>
</g>
<!-- CStaticMatrix&#45;&gt;boost_DefaultConstructible -->
<g id="edge8" class="edge">
<title>CStaticMatrix&#45;&gt;boost_DefaultConstructible</title>
<path fill="none" stroke="black" d="M1178.18,-273.16C1239.95,-290.56 1354.02,-322.69 1425.73,-342.9"/>
<polygon fill="black" stroke="black" points="1424.4,-346.16 1434.98,-345.5 1426.3,-339.42 1424.4,-346.16"/>
</g>
<!-- CStaticMatrix&#45;&gt;CMatrix -->
<g id="edge7" class="edge">
<title>CStaticMatrix&#45;&gt;CMatrix</title>
<path fill="none" stroke="black" d="M1089.07,-272.17C1081.04,-274.12 1072.78,-276.12 1065,-278 958.02,-303.86 832.32,-334.05 766.14,-349.93"/>
<polygon fill="black" stroke="black" points="765.65,-346.45 756.74,-352.19 767.28,-353.26 765.65,-346.45"/>
</g>
<!-- CDynamicMatrix -->
<g id="node11" class="node">
<title>CDynamicMatrix</title>
<g id="a_node11"><a xlink:href="structDGtal_1_1concepts_1_1CDynamicMatrix.html" target="_top" xlink:title="CDynamicMatrix">
<ellipse fill="white" stroke="white" cx="836" cy="-260" rx="73.39" ry="18"/>
<text text-anchor="middle" x="836" y="-256.3" font-family="Times,serif" font-size="14.00">CDynamicMatrix</text>
</a>
</g>
</g>
<!-- CDynamicMatrix&#45;&gt;CMatrix -->
<g id="edge9" class="edge">
<title>CDynamicMatrix&#45;&gt;CMatrix</title>
<path fill="none" stroke="black" d="M816.58,-277.74C797.4,-294.28 767.9,-319.71 746.55,-338.11"/>
<polygon fill="black" stroke="black" points="744.39,-335.36 739.1,-344.54 748.96,-340.66 744.39,-335.36"/>
</g>
<!-- CDenseMatrix -->
<g id="node12" class="node">
<title>CDenseMatrix</title>
<g id="a_node12"><a xlink:href="structDGtal_1_1concepts_1_1CDenseMatrix.html" target="_top" xlink:title="CDenseMatrix">
<ellipse fill="white" stroke="white" cx="544" cy="-260" rx="63.09" ry="18"/>
<text text-anchor="middle" x="544" y="-256.3" font-family="Times,serif" font-size="14.00">CDenseMatrix</text>
</a>
</g>
</g>
<!-- CDenseMatrix&#45;&gt;CMatrix -->
<g id="edge10" class="edge">
<title>CDenseMatrix&#45;&gt;CMatrix</title>
<path fill="none" stroke="black" d="M571.5,-276.62C602.34,-294.15 652.4,-322.59 685.75,-341.54"/>
<polygon fill="black" stroke="black" points="683.79,-344.45 694.21,-346.35 687.25,-338.36 683.79,-344.45"/>
</g>
<!-- CSparseMatrix -->
<g id="node13" class="node">
<title>CSparseMatrix</title>
<g id="a_node13"><a xlink:href="structDGtal_1_1concepts_1_1CSparseMatrix.html" target="_top" xlink:title="CSparseMatrix">
<ellipse fill="white" stroke="white" cx="992" cy="-260" rx="64.19" ry="18"/>
<text text-anchor="middle" x="992" y="-256.3" font-family="Times,serif" font-size="14.00">CSparseMatrix</text>
</a>
</g>
</g>
<!-- CSparseMatrix&#45;&gt;CMatrix -->
<g id="edge11" class="edge">
<title>CSparseMatrix&#45;&gt;CMatrix</title>
<path fill="none" stroke="black" d="M954.18,-274.9C903.48,-293.54 813.81,-326.51 761.37,-345.79"/>
<polygon fill="black" stroke="black" points="760.37,-342.43 752.19,-349.16 762.79,-349 760.37,-342.43"/>
</g>
<!-- CVector -->
<g id="node14" class="node">
<title>CVector</title>
<g id="a_node14"><a xlink:href="structDGtal_1_1concepts_1_1CVector.html" target="_top" xlink:title="CVector">
<ellipse fill="white" stroke="white" cx="401" cy="-362" rx="39.79" ry="18"/>
<text text-anchor="middle" x="401" y="-358.3" font-family="Times,serif" font-size="14.00">CVector</text>
</a>
</g>
</g>
<!-- CVector&#45;&gt;CVectorSpace -->
<g id="edge1" class="edge">
<title>CVector&#45;&gt;CVectorSpace</title>
<path fill="none" stroke="black" d="M429.28,-375.03C458.35,-387.4 504.02,-406.82 537.85,-421.22"/>
<polygon fill="black" stroke="black" points="536.41,-424.41 546.99,-425.1 539.15,-417.97 536.41,-424.41"/>
</g>
<!-- CStaticVector -->
<g id="node15" class="node">
<title>CStaticVector</title>
<g id="a_node15"><a xlink:href="structDGtal_1_1concepts_1_1CStaticVector.html" target="_top" xlink:title="CStaticVector">
<ellipse fill="white" stroke="white" cx="685" cy="-260" rx="59.59" ry="18"/>
<text text-anchor="middle" x="685" y="-256.3" font-family="Times,serif" font-size="14.00">CStaticVector</text>
</a>
</g>
</g>
<!-- CStaticVector&#45;&gt;boost_DefaultConstructible -->
<g id="edge3" class="edge">
<title>CStaticVector&#45;&gt;boost_DefaultConstructible</title>
<path fill="none" stroke="black" d="M727.82,-272.83C736.43,-274.85 745.46,-276.71 754,-278 953.85,-308.3 1007.51,-279.25 1208,-305 1280.41,-314.3 1362.12,-331.25 1418.87,-344.07"/>
<polygon fill="black" stroke="black" points="1417.88,-347.44 1428.41,-346.24 1419.43,-340.61 1417.88,-347.44"/>
</g>
<!-- CStaticVector&#45;&gt;CVector -->
<g id="edge2" class="edge">
<title>CStaticVector&#45;&gt;CVector</title>
<path fill="none" stroke="black" d="M647.29,-274.28C594.21,-292.97 497.81,-326.91 442.67,-346.33"/>
<polygon fill="black" stroke="black" points="441.59,-343 433.32,-349.62 443.91,-349.6 441.59,-343"/>
</g>
<!-- CDynamicVector -->
<g id="node16" class="node">
<title>CDynamicVector</title>
<g id="a_node16"><a xlink:href="structDGtal_1_1concepts_1_1CDynamicVector.html" target="_top" xlink:title="CDynamicVector">
<ellipse fill="white" stroke="white" cx="96" cy="-260" rx="72.29" ry="18"/>
<text text-anchor="middle" x="96" y="-256.3" font-family="Times,serif" font-size="14.00">CDynamicVector</text>
</a>
</g>
</g>
<!-- CDynamicVector&#45;&gt;CVector -->
<g id="edge4" class="edge">
<title>CDynamicVector&#45;&gt;CVector</title>
<path fill="none" stroke="black" d="M138.41,-274.9C196.69,-294.01 300.9,-328.18 358.98,-347.22"/>
<polygon fill="black" stroke="black" points="357.58,-350.45 368.17,-350.24 359.76,-343.79 357.58,-350.45"/>
</g>
<!-- CDenseVector -->
<g id="node17" class="node">
<title>CDenseVector</title>
<g id="a_node17"><a xlink:href="structDGtal_1_1concepts_1_1CDenseVector.html" target="_top" xlink:title="CDenseVector">
<ellipse fill="white" stroke="white" cx="401" cy="-260" rx="61.99" ry="18"/>
<text text-anchor="middle" x="401" y="-256.3" font-family="Times,serif" font-size="14.00">CDenseVector</text>
</a>
</g>
</g>
<!-- CDenseVector&#45;&gt;CVector -->
<g id="edge5" class="edge">
<title>CDenseVector&#45;&gt;CVector</title>
<path fill="none" stroke="black" d="M401,-278.42C401,-293.26 401,-314.88 401,-332.28"/>
<polygon fill="black" stroke="black" points="397.5,-332.27 401,-342.27 404.5,-332.27 397.5,-332.27"/>
</g>
<!-- CLinearAlgebra -->
<g id="node18" class="node">
<title>CLinearAlgebra</title>
<g id="a_node18"><a xlink:href="structDGtal_1_1concepts_1_1CLinearAlgebra.html" target="_top" xlink:title="CLinearAlgebra">
<ellipse fill="white" stroke="white" cx="254" cy="-260" rx="67.69" ry="18"/>
<text text-anchor="middle" x="254" y="-256.3" font-family="Times,serif" font-size="14.00">CLinearAlgebra</text>
</a>
</g>
</g>
<!-- CLinearAlgebra&#45;&gt;CMatrix -->
<g id="edge12" class="edge">
<title>CLinearAlgebra&#45;&gt;CMatrix</title>
<path fill="none" stroke="black" d="M304.27,-272.32C312.85,-274.23 321.68,-276.18 330,-278 453.42,-304.94 599.06,-335.65 672.52,-351.06"/>
<polygon fill="black" stroke="black" points="671.69,-354.46 682.2,-353.09 673.13,-347.61 671.69,-354.46"/>
</g>
<!-- CLinearAlgebra&#45;&gt;CVector -->
<g id="edge13" class="edge">
<title>CLinearAlgebra&#45;&gt;CVector</title>
<path fill="none" stroke="black" d="M277.95,-277.29C303.16,-294.44 342.94,-321.5 370.41,-340.19"/>
<polygon fill="black" stroke="black" points="368.44,-343.08 378.67,-345.81 372.38,-337.29 368.44,-343.08"/>
</g>
<!-- CLinearAlgebraSolver -->
<g id="node19" class="node">
<title>CLinearAlgebraSolver</title>
<g id="a_node19"><a xlink:href="structDGtal_1_1concepts_1_1CLinearAlgebraSolver.html" target="_top" xlink:title="CLinearAlgebraSolver">
<ellipse fill="white" stroke="white" cx="892" cy="-173" rx="90.98" ry="18"/>
<text text-anchor="middle" x="892" y="-169.3" font-family="Times,serif" font-size="14.00">CLinearAlgebraSolver</text>
</a>
</g>
</g>
<!-- CLinearAlgebraSolver&#45;&gt;boost_DefaultConstructible -->
<g id="edge15" class="edge">
<title>CLinearAlgebraSolver&#45;&gt;boost_DefaultConstructible</title>
<path fill="none" stroke="black" d="M960.39,-185.16C1024.44,-196.48 1122.38,-216.01 1205,-242 1292.69,-269.58 1390.76,-313.6 1445.97,-339.66"/>
<polygon fill="black" stroke="black" points="1444.19,-342.69 1454.73,-343.82 1447.19,-336.37 1444.19,-342.69"/>
</g>
<!-- CLinearAlgebraSolver&#45;&gt;CLinearAlgebra -->
<g id="edge14" class="edge">
<title>CLinearAlgebraSolver&#45;&gt;CLinearAlgebra</title>
<path fill="none" stroke="black" d="M810.66,-181.27C701.03,-191.66 499.99,-212.78 330,-242 324.78,-242.9 319.37,-243.92 313.97,-245"/>
<polygon fill="black" stroke="black" points="313.48,-241.53 304.4,-247 314.9,-248.38 313.48,-241.53"/>
</g>
<!-- CBinner -->
<g id="node20" class="node">
<title>CBinner</title>
<g id="a_node20"><a xlink:href="structDGtal_1_1concepts_1_1CBinner.html" target="_top" xlink:title="CBinner">
<ellipse fill="white" stroke="white" cx="1301" cy="-173" rx="40.09" ry="18"/>
<text text-anchor="middle" x="1301" y="-169.3" font-family="Times,serif" font-size="14.00">CBinner</text>
</a>
</g>
</g>
<!-- CBinner&#45;&gt;CEuclideanRing -->
<g id="edge17" class="edge">
<title>CBinner&#45;&gt;CEuclideanRing</title>
<path fill="none" stroke="black" stroke-dasharray="5,2" d="M1341.4,-174.29C1489.79,-175.58 1999.54,-181.96 2067,-209 2122.26,-231.15 2112.75,-274.81 2168,-297 2203.1,-311.09 2302.17,-292.89 2338,-305 2358.12,-311.8 2377.78,-325.19 2392.7,-337.17"/>
<polygon fill="black" stroke="black" points="2390.25,-339.68 2400.17,-343.4 2394.74,-334.31 2390.25,-339.68"/>
<text text-anchor="middle" x="2146.5" y="-256.3" font-family="Times,serif" font-size="14.00">use</text>
</g>
<!-- CBinner&#45;&gt;boost_CopyConstructible -->
<g id="edge16" class="edge">
<title>CBinner&#45;&gt;boost_CopyConstructible</title>
<path fill="none" stroke="black" d="M1339.59,-178.63C1373.29,-183.53 1423.08,-192.83 1464,-209 1549.42,-242.75 1639.26,-303.76 1685.45,-337.31"/>
<polygon fill="black" stroke="black" points="1683.27,-340.05 1693.4,-343.13 1687.41,-334.4 1683.27,-340.05"/>
</g>
<!-- CBinner&#45;&gt;boost_is_integral -->
<g id="edge18" class="edge">
<title>CBinner&#45;&gt;boost_is_integral</title>
<path fill="none" stroke="black" stroke-dasharray="5,2" d="M1339.77,-178.25C1429.4,-189.2 1656.32,-223.46 1827,-305 1845.07,-313.63 1863.5,-326.22 1878.1,-337.28"/>
<polygon fill="black" stroke="black" points="1875.87,-339.97 1885.91,-343.34 1880.16,-334.44 1875.87,-339.97"/>
<text text-anchor="middle" x="1772.5" y="-256.3" font-family="Times,serif" font-size="14.00">use</text>
</g>
<!-- CBinner&#45;&gt;boost_is_unsigned -->
<g id="edge19" class="edge">
<title>CBinner&#45;&gt;boost_is_unsigned</title>
<path fill="none" stroke="black" stroke-dasharray="5,2" d="M1341.03,-174.77C1450.08,-178.29 1759.42,-197.73 1987,-305 2006.22,-314.06 2026.19,-326.83 2042.05,-337.89"/>
<polygon fill="black" stroke="black" points="2039.94,-340.68 2050.11,-343.63 2044,-334.98 2039.94,-340.68"/>
<text text-anchor="middle" x="1928.5" y="-256.3" font-family="Times,serif" font-size="14.00">use</text>
</g>
<!-- Statistic -->
<g id="node21" class="node">
<title>Statistic</title>
<g id="a_node21"><a xlink:href="classDGtal_1_1Statistic.html" target="_top" xlink:title="Statistic">
<ellipse fill="white" stroke="white" cx="2149" cy="-57" rx="38.99" ry="18"/>
<text text-anchor="middle" x="2149" y="-53.3" font-family="Times,serif" font-size="14.00">Statistic</text>
</a>
</g>
</g>
<!-- Statistic&#45;&gt;CCommutativeRing -->
<g id="edge20" class="edge">
<title>Statistic&#45;&gt;CCommutativeRing</title>
<path fill="none" stroke="black" stroke-dasharray="5,2" d="M2174.74,-70.89C2186.86,-77.21 2201.39,-85.13 2214,-93 2346.79,-175.86 2495.41,-288.88 2557.83,-337.35"/>
<polygon fill="black" stroke="black" points="2555.51,-339.98 2565.55,-343.36 2559.81,-334.46 2555.51,-339.98"/>
<text text-anchor="middle" x="2424.5" y="-212.8" font-family="Times,serif" font-size="14.00">tparam</text>
</g>
<!-- Statistic&#45;&gt;boost_InputIterator -->
<g id="edge21" class="edge">
<title>Statistic&#45;&gt;boost_InputIterator</title>
<path fill="none" stroke="black" stroke-dasharray="5,2" d="M2173.35,-71.36C2181.66,-77.03 2190.28,-84.34 2196,-93 2245.79,-168.37 2249.7,-280.17 2248.46,-332.3"/>
<polygon fill="black" stroke="black" points="2244.96,-332.02 2248.13,-342.13 2251.96,-332.25 2244.96,-332.02"/>
<text text-anchor="middle" x="2250.5" y="-212.8" font-family="Times,serif" font-size="14.00">use</text>
</g>
<!-- RegularBinner -->
<g id="node22" class="node">
<title>RegularBinner</title>
<g id="a_node22"><a xlink:href="structDGtal_1_1RegularBinner.html" target="_top" xlink:title="RegularBinner">
<ellipse fill="white" stroke="white" cx="1776" cy="-57" rx="62.29" ry="18"/>
<text text-anchor="middle" x="1776" y="-53.3" font-family="Times,serif" font-size="14.00">RegularBinner</text>
</a>
</g>
</g>
<!-- RegularBinner&#45;&gt;CBinner -->
<g id="edge22" class="edge">
<title>RegularBinner&#45;&gt;CBinner</title>
<path fill="none" stroke="black" d="M1713.46,-57.29C1613.23,-57.14 1421.89,-61.21 1363,-93 1341.58,-104.56 1325.09,-127.01 1314.51,-145.03"/>
<polygon fill="black" stroke="black" points="1311.5,-143.24 1309.71,-153.69 1317.62,-146.64 1311.5,-143.24"/>
</g>
<!-- Histogram -->
<g id="node23" class="node">
<title>Histogram</title>
<g id="a_node23"><a xlink:href="classDGtal_1_1Histogram.html" target="_top" xlink:title="Histogram">
<ellipse fill="white" stroke="white" cx="2044" cy="-57" rx="48.19" ry="18"/>
<text text-anchor="middle" x="2044" y="-53.3" font-family="Times,serif" font-size="14.00">Histogram</text>
</a>
</g>
</g>
<!-- Histogram&#45;&gt;CEuclideanRing -->
<g id="edge24" class="edge">
<title>Histogram&#45;&gt;CEuclideanRing</title>
<path fill="none" stroke="black" stroke-dasharray="5,2" d="M2056.38,-74.66C2080.6,-106.49 2137.07,-176.94 2196,-224 2252.77,-269.34 2276.5,-266.3 2338,-305 2354.5,-315.38 2372.37,-327.63 2387.12,-338.01"/>
<polygon fill="black" stroke="black" points="2384.89,-340.73 2395.08,-343.66 2388.94,-335.02 2384.89,-340.73"/>
<text text-anchor="middle" x="2215.5" y="-212.8" font-family="Times,serif" font-size="14.00">tparam</text>
</g>
<!-- Histogram&#45;&gt;boost_InputIterator -->
<g id="edge25" class="edge">
<title>Histogram&#45;&gt;boost_InputIterator</title>
<path fill="none" stroke="black" stroke-dasharray="5,2" d="M2044.21,-75.28C2045.59,-115.45 2054.24,-216.34 2105,-278 2122.06,-298.71 2135.65,-291.78 2159,-305 2177.27,-315.34 2197.04,-327.8 2213.21,-338.34"/>
<polygon fill="black" stroke="black" points="2211.21,-341.22 2221.49,-343.79 2215.06,-335.37 2211.21,-341.22"/>
<text text-anchor="middle" x="2081.5" y="-212.8" font-family="Times,serif" font-size="14.00">use</text>
</g>
<!-- Histogram&#45;&gt;CBinner -->
<g id="edge23" class="edge">
<title>Histogram&#45;&gt;CBinner</title>
<path fill="none" stroke="black" stroke-dasharray="5,2" d="M2015.95,-71.95C2006.62,-76.09 1996.04,-80.24 1986,-83 1755.13,-146.42 1467.75,-165.05 1352.41,-170.18"/>
<polygon fill="black" stroke="black" points="1352.5,-166.67 1342.66,-170.6 1352.8,-173.67 1352.5,-166.67"/>
<text text-anchor="middle" x="1950.5" y="-96.8" font-family="Times,serif" font-size="14.00">tparam</text>
</g>
<!-- SimpleMatrix -->
<g id="node24" class="node">
<title>SimpleMatrix</title>
<g id="a_node24"><a xlink:href="classDGtal_1_1SimpleMatrix.html" target="_top" xlink:title="SimpleMatrix">
<ellipse fill="white" stroke="white" cx="1917" cy="-57" rx="60.39" ry="18"/>
<text text-anchor="middle" x="1917" y="-53.3" font-family="Times,serif" font-size="14.00">SimpleMatrix</text>
</a>
</g>
</g>
<!-- SimpleMatrix&#45;&gt;CStaticMatrix -->
<g id="edge26" class="edge">
<title>SimpleMatrix&#45;&gt;CStaticMatrix</title>
<path fill="none" stroke="black" d="M1880.93,-71.81C1796.55,-103.59 1579.16,-182.34 1391,-224 1328.5,-237.84 1256.13,-247.12 1204.31,-252.63"/>
<polygon fill="black" stroke="black" points="1204.01,-249.15 1194.43,-253.66 1204.74,-256.11 1204.01,-249.15"/>
</g>
<!-- SimpleMatrix&#45;&gt;CDenseMatrix -->
<g id="edge27" class="edge">
<title>SimpleMatrix&#45;&gt;CDenseMatrix</title>
<path fill="none" stroke="black" d="M1882.61,-72.21C1871.43,-76.31 1858.84,-80.38 1847,-83 1769.64,-100.12 1567.32,-91.42 1492,-116 1423.6,-138.33 1421.78,-177.85 1353,-199 1196.19,-247.21 778.33,-218.28 616,-242 610.79,-242.76 605.41,-243.71 600.04,-244.78"/>
<polygon fill="black" stroke="black" points="599.63,-241.29 590.57,-246.78 601.08,-248.13 599.63,-241.29"/>
</g>
</g>
</svg>
