<?xml version="1.0" encoding="UTF-8" standalone="no"?>
<!DOCTYPE svg PUBLIC "-//W3C//DTD SVG 1.1//EN"
 "http://www.w3.org/Graphics/SVG/1.1/DTD/svg11.dtd">
<!-- Generated by graphviz version 7.0.1 (20221109.1506)
 -->
<!-- Title: GGeom Pages: 1 -->
<svg width="1228pt" height="326pt"
 viewBox="0.00 0.00 1228.00 326.00" xmlns="http://www.w3.org/2000/svg" xmlns:xlink="http://www.w3.org/1999/xlink">
<g id="graph0" class="graph" transform="scale(1 1) rotate(0) translate(4 322)">
<title>GGeom</title>
<polygon fill="white" stroke="none" points="-4,4 -4,-322 1224,-322 1224,4 -4,4"/>
<g id="clust2" class="cluster">
<title>cluster_concepts_1</title>
<polygon fill="lightgrey" stroke="lightgrey" points="8,-163 8,-310 1078,-310 1078,-163 8,-163"/>
<text text-anchor="middle" x="543" y="-170.8" font-family="Times,serif" font-size="14.00">Shapes (main concepts)</text>
</g>
<g id="clust3" class="cluster">
<title>cluster_models</title>
<polygon fill="#ccffcc" stroke="#ccffcc" points="450,-8 450,-155 1212,-155 1212,-8 450,-8"/>
<text text-anchor="middle" x="831" y="-15.8" font-family="Times,serif" font-size="14.00">Shapes (main models)</text>
</g>
<!-- CEuclideanOrientedShape -->
<g id="node1" class="node">
<title>CEuclideanOrientedShape</title>
<g id="a_node1"><a xlink:href="structDGtal_1_1concepts_1_1CEuclideanOrientedShape.html" target="_top" xlink:title="CEuclideanOrientedShape">
<ellipse fill="white" stroke="white" cx="966" cy="-212" rx="103.98" ry="18"/>
<text text-anchor="middle" x="966" y="-208.3" font-family="Times,serif" font-size="14.00">CEuclideanOrientedShape</text>
</a>
</g>
</g>
<!-- CEuclideanBoundedShape -->
<g id="node2" class="node">
<title>CEuclideanBoundedShape</title>
<g id="a_node2"><a xlink:href="structDGtal_1_1concepts_1_1CEuclideanBoundedShape.html" target="_top" xlink:title="CEuclideanBoundedShape">
<ellipse fill="white" stroke="white" cx="533" cy="-212" rx="104.78" ry="18"/>
<text text-anchor="middle" x="533" y="-208.3" font-family="Times,serif" font-size="14.00">CEuclideanBoundedShape</text>
</a>
</g>
</g>
<!-- CDigitalOrientedShape -->
<g id="node3" class="node">
<title>CDigitalOrientedShape</title>
<g id="a_node3"><a xlink:href="structDGtal_1_1concepts_1_1CDigitalOrientedShape.html" target="_top" xlink:title="CDigitalOrientedShape">
<ellipse fill="white" stroke="white" cx="317" cy="-212" rx="92.88" ry="18"/>
<text text-anchor="middle" x="317" y="-208.3" font-family="Times,serif" font-size="14.00">CDigitalOrientedShape</text>
</a>
</g>
</g>
<!-- CDigitalBoundedShape -->
<g id="node4" class="node">
<title>CDigitalBoundedShape</title>
<g id="a_node4"><a xlink:href="structDGtal_1_1concepts_1_1CDigitalBoundedShape.html" target="_top" xlink:title="CDigitalBoundedShape">
<ellipse fill="white" stroke="white" cx="750" cy="-212" rx="94.48" ry="18"/>
<text text-anchor="middle" x="750" y="-208.3" font-family="Times,serif" font-size="14.00">CDigitalBoundedShape</text>
</a>
</g>
</g>
<!-- CImplicitFunction -->
<g id="node5" class="node">
<title>CImplicitFunction</title>
<g id="a_node5"><a xlink:href="structDGtal_1_1concepts_1_1CImplicitFunction.html" target="_top" xlink:title="CImplicitFunction">
<ellipse fill="white" stroke="white" cx="552" cy="-284" rx="76.09" ry="18"/>
<text text-anchor="middle" x="552" y="-280.3" font-family="Times,serif" font-size="14.00">CImplicitFunction</text>
</a>
</g>
</g>
<!-- CImplicitFunctionDiff1 -->
<g id="node6" class="node">
<title>CImplicitFunctionDiff1</title>
<g id="a_node6"><a xlink:href="structDGtal_1_1concepts_1_1CImplicitFunctionDiff1.html" target="_top" xlink:title="CImplicitFunctionDiff1">
<ellipse fill="white" stroke="white" cx="111" cy="-212" rx="94.78" ry="18"/>
<text text-anchor="middle" x="111" y="-208.3" font-family="Times,serif" font-size="14.00">CImplicitFunctionDiff1</text>
</a>
</g>
</g>
<!-- CImplicitFunctionDiff1&#45;&gt;CImplicitFunction -->
<g id="edge1" class="edge">
<title>CImplicitFunctionDiff1&#45;&gt;CImplicitFunction</title>
<path fill="none" stroke="black" d="M180.92,-224.49C192.31,-226.34 203.98,-228.23 215,-230 305.71,-244.55 410.22,-260.92 478.5,-271.57"/>
<polygon fill="black" stroke="black" points="477.65,-274.98 488.07,-273.06 478.72,-268.06 477.65,-274.98"/>
</g>
<!-- StarShaped2D -->
<g id="node7" class="node">
<title>StarShaped2D</title>
<g id="a_node7"><a xlink:href="classDGtal_1_1StarShaped2D.html" target="_top" xlink:title="StarShaped2D">
<ellipse fill="white" stroke="white" cx="731" cy="-129" rx="61.99" ry="18"/>
<text text-anchor="middle" x="731" y="-125.3" font-family="Times,serif" font-size="14.00">StarShaped2D</text>
</a>
</g>
</g>
<!-- StarShaped2D&#45;&gt;CEuclideanOrientedShape -->
<g id="edge3" class="edge">
<title>StarShaped2D&#45;&gt;CEuclideanOrientedShape</title>
<path fill="none" stroke="black" d="M778.09,-141.13C800.93,-146.93 828.63,-154.57 853,-163 875.64,-170.83 900.19,-181.04 920.6,-190.03"/>
<polygon fill="black" stroke="black" points="918.92,-193.11 929.48,-193.98 921.77,-186.72 918.92,-193.11"/>
</g>
<!-- StarShaped2D&#45;&gt;CEuclideanBoundedShape -->
<g id="edge2" class="edge">
<title>StarShaped2D&#45;&gt;CEuclideanBoundedShape</title>
<path fill="none" stroke="black" d="M694.95,-143.94C680.07,-149.75 662.67,-156.62 647,-163 625.42,-171.78 601.65,-181.74 581.43,-190.3"/>
<polygon fill="black" stroke="black" points="580.14,-187.05 572.3,-194.18 582.87,-193.49 580.14,-187.05"/>
</g>
<!-- StarShaped2D&#45;&gt;CDigitalOrientedShape -->
<g id="edge5" class="edge">
<title>StarShaped2D&#45;&gt;CDigitalOrientedShape</title>
<path fill="none" stroke="black" d="M683.93,-141.03C660.11,-146.16 630.66,-151.82 604,-155 563.14,-159.88 458.96,-153.16 419,-163 396.55,-168.53 373.1,-179.18 354.36,-189.04"/>
<polygon fill="black" stroke="black" points="352.92,-185.84 345.79,-193.68 356.25,-191.99 352.92,-185.84"/>
</g>
<!-- StarShaped2D&#45;&gt;CDigitalBoundedShape -->
<g id="edge4" class="edge">
<title>StarShaped2D&#45;&gt;CDigitalBoundedShape</title>
<path fill="none" stroke="black" d="M735.03,-147.18C737.43,-157.42 740.54,-170.67 743.3,-182.45"/>
<polygon fill="black" stroke="black" points="739.87,-183.16 745.57,-192.09 746.69,-181.56 739.87,-183.16"/>
</g>
<!-- StarShaped3D -->
<g id="node8" class="node">
<title>StarShaped3D</title>
<g id="a_node8"><a xlink:href="classDGtal_1_1StarShaped3D.html" target="_top" xlink:title="StarShaped3D">
<ellipse fill="white" stroke="white" cx="533" cy="-129" rx="61.99" ry="18"/>
<text text-anchor="middle" x="533" y="-125.3" font-family="Times,serif" font-size="14.00">StarShaped3D</text>
</a>
</g>
</g>
<!-- StarShaped3D&#45;&gt;CEuclideanOrientedShape -->
<g id="edge7" class="edge">
<title>StarShaped3D&#45;&gt;CEuclideanOrientedShape</title>
<path fill="none" stroke="black" d="M580.07,-141.05C603.89,-146.18 633.33,-151.84 660,-155 702.63,-160.05 811.12,-153.57 853,-163 877.9,-168.61 904.24,-179.48 925.21,-189.45"/>
<polygon fill="black" stroke="black" points="923.47,-192.5 933.99,-193.74 926.54,-186.21 923.47,-192.5"/>
</g>
<!-- StarShaped3D&#45;&gt;CEuclideanBoundedShape -->
<g id="edge6" class="edge">
<title>StarShaped3D&#45;&gt;CEuclideanBoundedShape</title>
<path fill="none" stroke="black" d="M533,-147.18C533,-157.31 533,-170.4 533,-182.08"/>
<polygon fill="black" stroke="black" points="529.5,-182.05 533,-192.05 536.5,-182.05 529.5,-182.05"/>
</g>
<!-- StarShaped3D&#45;&gt;CDigitalOrientedShape -->
<g id="edge9" class="edge">
<title>StarShaped3D&#45;&gt;CDigitalOrientedShape</title>
<path fill="none" stroke="black" d="M487.25,-141.47C466.21,-147.19 441.07,-154.67 419,-163 398.64,-170.68 376.73,-180.74 358.45,-189.67"/>
<polygon fill="black" stroke="black" points="356.91,-186.53 349.5,-194.1 360.02,-192.8 356.91,-186.53"/>
</g>
<!-- StarShaped3D&#45;&gt;CDigitalBoundedShape -->
<g id="edge8" class="edge">
<title>StarShaped3D&#45;&gt;CDigitalBoundedShape</title>
<path fill="none" stroke="black" d="M578.74,-141.51C599.78,-147.24 624.91,-154.71 647,-163 667.63,-170.74 689.87,-180.86 708.38,-189.82"/>
<polygon fill="black" stroke="black" points="706.65,-192.87 717.17,-194.12 709.73,-186.58 706.65,-192.87"/>
</g>
<!-- Flower2D -->
<g id="node9" class="node">
<title>Flower2D</title>
<g id="a_node9"><a xlink:href="classDGtal_1_1Flower2D.html" target="_top" xlink:title="Flower2D">
<ellipse fill="white" stroke="white" cx="928" cy="-57" rx="46.29" ry="18"/>
<text text-anchor="middle" x="928" y="-53.3" font-family="Times,serif" font-size="14.00">Flower2D</text>
</a>
</g>
</g>
<!-- Flower2D&#45;&gt;StarShaped2D -->
<g id="edge10" class="edge">
<title>Flower2D&#45;&gt;StarShaped2D</title>
<path fill="none" stroke="black" d="M894.58,-69.87C863.14,-81.05 815.7,-97.9 779.99,-110.59"/>
<polygon fill="black" stroke="black" points="778.99,-107.23 770.74,-113.88 781.33,-113.83 778.99,-107.23"/>
</g>
<!-- Ball2D -->
<g id="node10" class="node">
<title>Ball2D</title>
<g id="a_node10"><a xlink:href="classDGtal_1_1Ball2D.html" target="_top" xlink:title="Ball2D">
<ellipse fill="white" stroke="white" cx="827" cy="-57" rx="36.29" ry="18"/>
<text text-anchor="middle" x="827" y="-53.3" font-family="Times,serif" font-size="14.00">Ball2D</text>
</a>
</g>
</g>
<!-- Ball2D&#45;&gt;StarShaped2D -->
<g id="edge12" class="edge">
<title>Ball2D&#45;&gt;StarShaped2D</title>
<path fill="none" stroke="black" d="M807.11,-72.5C794.22,-81.9 777.17,-94.34 762.47,-105.06"/>
<polygon fill="black" stroke="black" points="760.46,-102.19 754.44,-110.91 764.58,-107.85 760.46,-102.19"/>
</g>
<!-- AccFlower2D -->
<g id="node11" class="node">
<title>AccFlower2D</title>
<g id="a_node11"><a xlink:href="classDGtal_1_1AccFlower2D.html" target="_top" xlink:title="AccFlower2D">
<ellipse fill="white" stroke="white" cx="712" cy="-57" rx="60.39" ry="18"/>
<text text-anchor="middle" x="712" y="-53.3" font-family="Times,serif" font-size="14.00">AccFlower2D</text>
</a>
</g>
</g>
<!-- AccFlower2D&#45;&gt;StarShaped2D -->
<g id="edge13" class="edge">
<title>AccFlower2D&#45;&gt;StarShaped2D</title>
<path fill="none" stroke="black" d="M716.7,-75.3C718.72,-82.76 721.14,-91.68 723.41,-100.03"/>
<polygon fill="black" stroke="black" points="719.96,-100.7 725.96,-109.43 726.72,-98.87 719.96,-100.7"/>
</g>
<!-- NGon2D -->
<g id="node12" class="node">
<title>NGon2D</title>
<g id="a_node12"><a xlink:href="classDGtal_1_1NGon2D.html" target="_top" xlink:title="NGon2D">
<ellipse fill="white" stroke="white" cx="591" cy="-57" rx="42.79" ry="18"/>
<text text-anchor="middle" x="591" y="-53.3" font-family="Times,serif" font-size="14.00">NGon2D</text>
</a>
</g>
</g>
<!-- NGon2D&#45;&gt;StarShaped2D -->
<g id="edge11" class="edge">
<title>NGon2D&#45;&gt;StarShaped2D</title>
<path fill="none" stroke="black" d="M617.66,-71.33C638.4,-81.7 667.49,-96.24 691.01,-108"/>
<polygon fill="black" stroke="black" points="689.18,-111 699.69,-112.34 692.31,-104.74 689.18,-111"/>
</g>
<!-- Ball3D -->
<g id="node13" class="node">
<title>Ball3D</title>
<g id="a_node13"><a xlink:href="classDGtal_1_1Ball3D.html" target="_top" xlink:title="Ball3D">
<ellipse fill="white" stroke="white" cx="494" cy="-57" rx="36.29" ry="18"/>
<text text-anchor="middle" x="494" y="-53.3" font-family="Times,serif" font-size="14.00">Ball3D</text>
</a>
</g>
</g>
<!-- Ball3D&#45;&gt;StarShaped3D -->
<g id="edge14" class="edge">
<title>Ball3D&#45;&gt;StarShaped3D</title>
<path fill="none" stroke="black" d="M503.24,-74.59C507.65,-82.49 513.03,-92.15 517.99,-101.06"/>
<polygon fill="black" stroke="black" points="514.89,-102.69 522.82,-109.72 521.01,-99.28 514.89,-102.69"/>
</g>
<!-- ImplicitPolynomial3Shape -->
<g id="node14" class="node">
<title>ImplicitPolynomial3Shape</title>
<g id="a_node14"><a xlink:href="classDGtal_1_1ImplicitPolynomial3Shape.html" target="_top" xlink:title="ImplicitPolynomial3Shape">
<ellipse fill="white" stroke="white" cx="1098" cy="-57" rx="105.88" ry="18"/>
<text text-anchor="middle" x="1098" y="-53.3" font-family="Times,serif" font-size="14.00">ImplicitPolynomial3Shape</text>
</a>
</g>
</g>
<!-- ImplicitPolynomial3Shape&#45;&gt;CEuclideanOrientedShape -->
<g id="edge16" class="edge">
<title>ImplicitPolynomial3Shape&#45;&gt;CEuclideanOrientedShape</title>
<path fill="none" stroke="black" d="M1083.11,-75.25C1059.92,-102.14 1015.02,-154.19 988.05,-185.44"/>
<polygon fill="black" stroke="black" points="985.5,-183.04 981.62,-192.9 990.8,-187.61 985.5,-183.04"/>
</g>
<!-- ImplicitPolynomial3Shape&#45;&gt;CImplicitFunction -->
<g id="edge15" class="edge">
<title>ImplicitPolynomial3Shape&#45;&gt;CImplicitFunction</title>
<path fill="none" stroke="black" d="M1102.31,-75.35C1109.81,-110.16 1120.73,-188.67 1079,-230 1048.36,-260.34 779.77,-274.67 638.32,-280.17"/>
<polygon fill="black" stroke="black" points="638.49,-276.66 628.63,-280.53 638.75,-283.65 638.49,-276.66"/>
</g>
</g>
</svg>
