<?xml version="1.0" encoding="UTF-8" standalone="no"?>
<!DOCTYPE svg PUBLIC "-//W3C//DTD SVG 1.1//EN"
 "http://www.w3.org/Graphics/SVG/1.1/DTD/svg11.dtd">
<!-- Generated by graphviz version 7.0.1 (20221109.1506)
 -->
<!-- Title: GBASE Pages: 1 -->
<!--zoomable 426 -->
<svg id="main" version="1.1" xmlns="http://www.w3.org/2000/svg" xmlns:xlink="http://www.w3.org/1999/xlink" xml:space="preserve" onload="init(evt)">
<style type="text/css"><![CDATA[
.edge:hover path { stroke: red; }
.edge:hover polygon { stroke: red; fill: red; }
]]></style>
<script type="text/javascript"><![CDATA[
var edges = document.getElementsByTagName('g');
if (edges && edges.length) {
  for (var i=0;i<edges.length;i++) {
    if (edges[i].id.substr(0,4)=='edge') {
      edges[i].setAttribute('class','edge');
    }
  }
}
]]></script>
        <defs>
                <circle id="rim" cx="0" cy="0" r="7"/>
                <circle id="rim2" cx="0" cy="0" r="3.5"/>
                <g id="zoomPlus">
                        <use xlink:href="#rim" fill="#404040">
                                <set attributeName="fill" to="#808080" begin="zoomplus.mouseover" end="zoomplus.mouseout"/>
                        </use>
                        <path d="M-4,0h8M0,-4v8" fill="none" stroke="white" stroke-width="1.5" pointer-events="none"/>
                </g>
                <g id="zoomMin">
                        <use xlink:href="#rim" fill="#404040">
                                <set attributeName="fill" to="#808080" begin="zoomminus.mouseover" end="zoomminus.mouseout"/>
                        </use>
                        <path d="M-4,0h8" fill="none" stroke="white" stroke-width="1.5" pointer-events="none"/>
                </g>
                <g id="dirArrow">
                        <path fill="none" stroke="white" stroke-width="1.5" d="M0,-3.0v7 M-2.5,-0.5L0,-3.0L2.5,-0.5"/>
                </g>
               <g id="resetDef">
                       <use xlink:href="#rim2" fill="#404040">
                               <set attributeName="fill" to="#808080" begin="reset.mouseover" end="reset.mouseout"/>
                       </use>
               </g>
        </defs>

<script type="text/javascript">
var viewWidth = 1580;
var viewHeight = 426;
</script>
<script xlink:href="svgpan.js"/>
<svg id="graph" class="graph">
<g id="viewport">
<title>GBASE</title>
<polygon fill="white" stroke="none" points="-4,4 -4,-422 1576,-422 1576,4 -4,4"/>
<g id="clust1" class="cluster">
<title>cluster_ext</title>
<polygon fill="white" stroke="white" points="515,-335 515,-410 1564,-410 1564,-335 515,-335"/>
<text text-anchor="middle" x="1039.5" y="-342.8" font-family="Times,serif" font-size="14.00">std/boost concepts</text>
</g>
<g id="clust2" class="cluster">
<title>cluster_0</title>
<polygon fill="lightgrey" stroke="lightgrey" points="8,-8 8,-302 1465,-302 1465,-8 8,-8"/>
<text text-anchor="middle" x="736.5" y="-15.8" font-family="Times,serif" font-size="14.00">Base</text>
</g>
<!-- boost_OutputIterator -->
<g id="node1" class="node">
<title>boost_OutputIterator</title>
<g id="a_node1"><a xlink:href="structboost_1_1OutputIterator.html" target="_top" xlink:title="OutputIterator">
<ellipse fill="none" stroke="black" cx="810" cy="-384" rx="61.19" ry="18"/>
<text text-anchor="middle" x="810" y="-380.3" font-family="Times,serif" font-size="14.00">OutputIterator</text>
</a>
</g>
</g>
<!-- boost_SinglePassIteratorConcept -->
<g id="node2" class="node">
<title>boost_SinglePassIteratorConcept</title>
<g id="a_node2"><a xlink:href="structboost__concepts_1_1SinglePassIteratorConcept.html" target="_top" xlink:title="SinglePassIteratorConcept">
<ellipse fill="none" stroke="black" cx="627" cy="-384" rx="103.98" ry="18"/>
<text text-anchor="middle" x="627" y="-380.3" font-family="Times,serif" font-size="14.00">SinglePassIteratorConcept</text>
</a>
</g>
</g>
<!-- boost_Assignable -->
<g id="node3" class="node">
<title>boost_Assignable</title>
<g id="a_node3"><a xlink:href="structboost_1_1Assignable.html" target="_top" xlink:title="Assignable">
<ellipse fill="none" stroke="black" cx="1312" cy="-384" rx="50.09" ry="18"/>
<text text-anchor="middle" x="1312" y="-380.3" font-family="Times,serif" font-size="14.00">Assignable</text>
</a>
</g>
</g>
<!-- boost_LessThanComparable -->
<g id="node4" class="node">
<title>boost_LessThanComparable</title>
<g id="a_node4"><a xlink:href="structboost_1_1LessThanComparable.html" target="_top" xlink:title="LessThanComparable">
<ellipse fill="none" stroke="black" cx="1468" cy="-384" rx="88.28" ry="18"/>
<text text-anchor="middle" x="1468" y="-380.3" font-family="Times,serif" font-size="14.00">LessThanComparable</text>
</a>
</g>
</g>
<!-- boost_DefaultConstructible -->
<g id="node5" class="node">
<title>boost_DefaultConstructible</title>
<g id="a_node5"><a xlink:href="structboost_1_1DefaultConstructible.html" target="_top" xlink:title="DefaultConstructible">
<ellipse fill="none" stroke="black" cx="1159" cy="-384" rx="84.49" ry="18"/>
<text text-anchor="middle" x="1159" y="-380.3" font-family="Times,serif" font-size="14.00">DefaultConstructible</text>
</a>
</g>
</g>
<!-- boost_EqualityComparable -->
<g id="node6" class="node">
<title>boost_EqualityComparable</title>
<g id="a_node6"><a xlink:href="structboost_1_1EqualityComparable.html" target="_top" xlink:title="EqualityComparable">
<ellipse fill="none" stroke="black" cx="973" cy="-384" rx="83.69" ry="18"/>
<text text-anchor="middle" x="973" y="-380.3" font-family="Times,serif" font-size="14.00">EqualityComparable</text>
</a>
</g>
</g>
<!-- CSinglePassRange -->
<g id="node7" class="node">
<title>CSinglePassRange</title>
<g id="a_node7"><a xlink:href="structDGtal_1_1concepts_1_1CSinglePassRange.html" target="_top" xlink:title="CSinglePassRange">
<ellipse fill="white" stroke="white" cx="414" cy="-203" rx="77.19" ry="18"/>
<text text-anchor="middle" x="414" y="-199.3" font-family="Times,serif" font-size="14.00">CSinglePassRange</text>
</a>
</g>
</g>
<!-- CSinglePassRange&#45;&gt;boost_SinglePassIteratorConcept -->
<g id="edge14" class="edge">
<title>CSinglePassRange&#45;&gt;boost_SinglePassIteratorConcept</title>
<path fill="none" stroke="black" stroke-dasharray="5,2" d="M467.06,-216.47C518.7,-229.06 590.71,-248.04 600,-258 624.14,-283.88 628.68,-326 628.68,-354.1"/>
<polygon fill="black" stroke="black" points="625.18,-353.96 628.46,-364.04 632.18,-354.12 625.18,-353.96"/>
<text text-anchor="middle" x="631.5" y="-272.3" font-family="Times,serif" font-size="14.00">use</text>
</g>
<!-- CConstSinglePassRange -->
<g id="node8" class="node">
<title>CConstSinglePassRange</title>
<g id="a_node8"><a xlink:href="structDGtal_1_1concepts_1_1CConstSinglePassRange.html" target="_top" xlink:title="CConstSinglePassRange">
<ellipse fill="white" stroke="white" cx="494" cy="-276" rx="97.48" ry="18"/>
<text text-anchor="middle" x="494" y="-272.3" font-family="Times,serif" font-size="14.00">CConstSinglePassRange</text>
</a>
</g>
</g>
<!-- CSinglePassRange&#45;&gt;CConstSinglePassRange -->
<g id="edge1" class="edge">
<title>CSinglePassRange&#45;&gt;CConstSinglePassRange</title>
<path fill="none" stroke="black" d="M432.96,-220.83C442.95,-229.69 455.39,-240.73 466.42,-250.53"/>
<polygon fill="black" stroke="black" points="463.97,-253.02 473.77,-257.04 468.61,-247.79 463.97,-253.02"/>
</g>
<!-- CConstSinglePassRange&#45;&gt;boost_SinglePassIteratorConcept -->
<g id="edge13" class="edge">
<title>CConstSinglePassRange&#45;&gt;boost_SinglePassIteratorConcept</title>
<path fill="none" stroke="black" stroke-dasharray="5,2" d="M515.37,-294.03C537.38,-311.57 571.87,-339.06 596.69,-358.84"/>
<polygon fill="black" stroke="black" points="594.5,-361.57 604.5,-365.07 598.86,-356.1 594.5,-361.57"/>
<text text-anchor="middle" x="565.5" y="-315.8" font-family="Times,serif" font-size="14.00">use</text>
</g>
<!-- CSinglePassRangeFromPoint -->
<g id="node9" class="node">
<title>CSinglePassRangeFromPoint</title>
<g id="a_node9"><a xlink:href="structDGtal_1_1concepts_1_1CSinglePassRangeFromPoint.html" target="_top" xlink:title="CSinglePassRangeFromPoint">
<ellipse fill="white" stroke="white" cx="645" cy="-130" rx="115.08" ry="18"/>
<text text-anchor="middle" x="645" y="-126.3" font-family="Times,serif" font-size="14.00">CSinglePassRangeFromPoint</text>
</a>
</g>
</g>
<!-- CSinglePassRangeFromPoint&#45;&gt;CSinglePassRange -->
<g id="edge3" class="edge">
<title>CSinglePassRangeFromPoint&#45;&gt;CSinglePassRange</title>
<path fill="none" stroke="black" d="M594.31,-146.58C557.68,-157.84 508.2,-173.05 470.34,-184.68"/>
<polygon fill="black" stroke="black" points="469.47,-181.29 460.94,-187.57 471.52,-187.98 469.47,-181.29"/>
</g>
<!-- CConstSinglePassRangeFromPoint -->
<g id="node10" class="node">
<title>CConstSinglePassRangeFromPoint</title>
<g id="a_node10"><a xlink:href="structDGtal_1_1concepts_1_1CConstSinglePassRangeFromPoint.html" target="_top" xlink:title="CConstSinglePassRangeFromPoint">
<ellipse fill="white" stroke="white" cx="645" cy="-203" rx="135.68" ry="18"/>
<text text-anchor="middle" x="645" y="-199.3" font-family="Times,serif" font-size="14.00">CConstSinglePassRangeFromPoint</text>
</a>
</g>
</g>
<!-- CSinglePassRangeFromPoint&#45;&gt;CConstSinglePassRangeFromPoint -->
<g id="edge2" class="edge">
<title>CSinglePassRangeFromPoint&#45;&gt;CConstSinglePassRangeFromPoint</title>
<path fill="none" stroke="black" d="M645,-148.19C645,-155.77 645,-164.9 645,-173.46"/>
<polygon fill="black" stroke="black" points="641.5,-173.46 645,-183.46 648.5,-173.46 641.5,-173.46"/>
</g>
<!-- CConstSinglePassRangeFromPoint&#45;&gt;CConstSinglePassRange -->
<g id="edge4" class="edge">
<title>CConstSinglePassRangeFromPoint&#45;&gt;CConstSinglePassRange</title>
<path fill="none" stroke="black" d="M609.22,-220.83C588.13,-230.74 561.28,-243.37 538.8,-253.94"/>
<polygon fill="black" stroke="black" points="537.42,-250.72 529.86,-258.14 540.4,-257.05 537.42,-250.72"/>
</g>
<!-- CBidirectionalRange -->
<g id="node11" class="node">
<title>CBidirectionalRange</title>
<g id="a_node11"><a xlink:href="structDGtal_1_1concepts_1_1CBidirectionalRange.html" target="_top" xlink:title="CBidirectionalRange">
<ellipse fill="white" stroke="white" cx="427" cy="-130" rx="85.29" ry="18"/>
<text text-anchor="middle" x="427" y="-126.3" font-family="Times,serif" font-size="14.00">CBidirectionalRange</text>
</a>
</g>
</g>
<!-- CBidirectionalRange&#45;&gt;CSinglePassRange -->
<g id="edge5" class="edge">
<title>CBidirectionalRange&#45;&gt;CSinglePassRange</title>
<path fill="none" stroke="black" d="M423.85,-148.19C422.45,-155.86 420.75,-165.11 419.17,-173.76"/>
<polygon fill="black" stroke="black" points="415.75,-173.02 417.39,-183.48 422.63,-174.28 415.75,-173.02"/>
</g>
<!-- CConstBidirectionalRange -->
<g id="node12" class="node">
<title>CConstBidirectionalRange</title>
<g id="a_node12"><a xlink:href="structDGtal_1_1concepts_1_1CConstBidirectionalRange.html" target="_top" xlink:title="CConstBidirectionalRange">
<ellipse fill="white" stroke="white" cx="213" cy="-203" rx="105.08" ry="18"/>
<text text-anchor="middle" x="213" y="-199.3" font-family="Times,serif" font-size="14.00">CConstBidirectionalRange</text>
</a>
</g>
</g>
<!-- CBidirectionalRange&#45;&gt;CConstBidirectionalRange -->
<g id="edge6" class="edge">
<title>CBidirectionalRange&#45;&gt;CConstBidirectionalRange</title>
<path fill="none" stroke="black" d="M386.71,-146.2C368.81,-152.81 347.43,-160.52 328,-167 311.11,-172.64 292.71,-178.4 275.67,-183.59"/>
<polygon fill="black" stroke="black" points="274.72,-180.22 266.16,-186.46 276.74,-186.92 274.72,-180.22"/>
</g>
<!-- CBidirectionalRangeFromPoint -->
<g id="node13" class="node">
<title>CBidirectionalRangeFromPoint</title>
<g id="a_node13"><a xlink:href="structDGtal_1_1concepts_1_1CBidirectionalRangeFromPoint.html" target="_top" xlink:title="CBidirectionalRangeFromPoint">
<ellipse fill="white" stroke="white" cx="296" cy="-57" rx="122.68" ry="18"/>
<text text-anchor="middle" x="296" y="-53.3" font-family="Times,serif" font-size="14.00">CBidirectionalRangeFromPoint</text>
</a>
</g>
</g>
<!-- CBidirectionalRangeFromPoint&#45;&gt;CConstBidirectionalRange -->
<g id="edge7" class="edge">
<title>CBidirectionalRangeFromPoint&#45;&gt;CConstBidirectionalRange</title>
<path fill="none" stroke="black" d="M305.84,-75.14C315.36,-94.22 326.52,-125.33 313,-148 304.13,-162.87 289.58,-173.9 274.3,-181.96"/>
<polygon fill="black" stroke="black" points="273.05,-178.68 265.57,-186.18 276.09,-184.98 273.05,-178.68"/>
</g>
<!-- CConstBidirectionalRangeFromPoint -->
<g id="node14" class="node">
<title>CConstBidirectionalRangeFromPoint</title>
<g id="a_node14"><a xlink:href="structDGtal_1_1concepts_1_1CConstBidirectionalRangeFromPoint.html" target="_top" xlink:title="CConstBidirectionalRangeFromPoint">
<ellipse fill="white" stroke="white" cx="160" cy="-130" rx="143.77" ry="18"/>
<text text-anchor="middle" x="160" y="-126.3" font-family="Times,serif" font-size="14.00">CConstBidirectionalRangeFromPoint</text>
</a>
</g>
</g>
<!-- CBidirectionalRangeFromPoint&#45;&gt;CConstBidirectionalRangeFromPoint -->
<g id="edge8" class="edge">
<title>CBidirectionalRangeFromPoint&#45;&gt;CConstBidirectionalRangeFromPoint</title>
<path fill="none" stroke="black" d="M263.77,-74.83C245.44,-84.39 222.27,-96.49 202.47,-106.83"/>
<polygon fill="black" stroke="black" points="201.06,-103.62 193.81,-111.35 204.3,-109.82 201.06,-103.62"/>
</g>
<!-- CConstBidirectionalRangeFromPoint&#45;&gt;CConstBidirectionalRange -->
<g id="edge9" class="edge">
<title>CConstBidirectionalRangeFromPoint&#45;&gt;CConstBidirectionalRange</title>
<path fill="none" stroke="black" d="M172.83,-148.19C179.01,-156.47 186.57,-166.59 193.45,-175.81"/>
<polygon fill="black" stroke="black" points="190.6,-177.84 199.38,-183.76 196.21,-173.65 190.6,-177.84"/>
</g>
<!-- CSinglePassRangeWithWritableIterator -->
<g id="node15" class="node">
<title>CSinglePassRangeWithWritableIterator</title>
<g id="a_node15"><a xlink:href="structDGtal_1_1concepts_1_1CSinglePassRangeWithWritableIterator.html" target="_top" xlink:title="CSinglePassRangeWithWritableIterator">
<ellipse fill="white" stroke="white" cx="950" cy="-203" rx="151.37" ry="18"/>
<text text-anchor="middle" x="950" y="-199.3" font-family="Times,serif" font-size="14.00">CSinglePassRangeWithWritableIterator</text>
</a>
</g>
</g>
<!-- CSinglePassRangeWithWritableIterator&#45;&gt;boost_OutputIterator -->
<g id="edge12" class="edge">
<title>CSinglePassRangeWithWritableIterator&#45;&gt;boost_OutputIterator</title>
<path fill="none" stroke="black" stroke-dasharray="5,2" d="M936.58,-221.16C911.84,-252.79 858.97,-320.39 830,-357.43"/>
<polygon fill="black" stroke="black" points="827.52,-354.92 824.11,-364.96 833.03,-359.24 827.52,-354.92"/>
<text text-anchor="middle" x="916.5" y="-272.3" font-family="Times,serif" font-size="14.00">use</text>
</g>
<!-- CSinglePassRangeWithWritableIteratorFromPoint -->
<g id="node16" class="node">
<title>CSinglePassRangeWithWritableIteratorFromPoint</title>
<g id="a_node16"><a xlink:href="structDGtal_1_1concepts_1_1CSinglePassRangeWithWritableIteratorFromPoint.html" target="_top" xlink:title="CSinglePassRangeWithWritableIteratorFromPoint">
<ellipse fill="white" stroke="white" cx="1151" cy="-57" rx="189.27" ry="18"/>
<text text-anchor="middle" x="1151" y="-53.3" font-family="Times,serif" font-size="14.00">CSinglePassRangeWithWritableIteratorFromPoint</text>
</a>
</g>
</g>
<!-- CBidirectionalRangeWithWritableIterator -->
<g id="node17" class="node">
<title>CBidirectionalRangeWithWritableIterator</title>
<g id="a_node17"><a xlink:href="structDGtal_1_1concepts_1_1CBidirectionalRangeWithWritableIterator.html" target="_top" xlink:title="CBidirectionalRangeWithWritableIterator">
<ellipse fill="white" stroke="white" cx="942" cy="-130" rx="159.47" ry="18"/>
<text text-anchor="middle" x="942" y="-126.3" font-family="Times,serif" font-size="14.00">CBidirectionalRangeWithWritableIterator</text>
</a>
</g>
</g>
<!-- CBidirectionalRangeWithWritableIterator&#45;&gt;CSinglePassRangeWithWritableIterator -->
<g id="edge10" class="edge">
<title>CBidirectionalRangeWithWritableIterator&#45;&gt;CSinglePassRangeWithWritableIterator</title>
<path fill="none" stroke="black" d="M943.94,-148.19C944.8,-155.86 945.84,-165.11 946.82,-173.76"/>
<polygon fill="black" stroke="black" points="943.31,-173.92 947.91,-183.47 950.27,-173.14 943.31,-173.92"/>
</g>
<!-- CBidirectionalRangeWithWritableIteratorFromPoint -->
<g id="node18" class="node">
<title>CBidirectionalRangeWithWritableIteratorFromPoint</title>
<g id="a_node18"><a xlink:href="structDGtal_1_1concepts_1_1CBidirectionalRangeWithWritableIteratorFromPoint.html" target="_top" xlink:title="CBidirectionalRangeWithWritableIteratorFromPoint">
<ellipse fill="white" stroke="white" cx="634" cy="-57" rx="196.87" ry="18"/>
<text text-anchor="middle" x="634" y="-53.3" font-family="Times,serif" font-size="14.00">CBidirectionalRangeWithWritableIteratorFromPoint</text>
</a>
</g>
</g>
<!-- CBidirectionalRangeWithWritableIteratorFromPoint&#45;&gt;CBidirectionalRangeWithWritableIterator -->
<g id="edge11" class="edge">
<title>CBidirectionalRangeWithWritableIteratorFromPoint&#45;&gt;CBidirectionalRangeWithWritableIterator</title>
<path fill="none" stroke="black" d="M704.28,-74.2C751.47,-85.08 813.73,-99.43 862.69,-110.72"/>
<polygon fill="black" stroke="black" points="861.87,-114.12 872.41,-112.96 863.45,-107.3 861.87,-114.12"/>
</g>
<!-- CLabel -->
<g id="node19" class="node">
<title>CLabel</title>
<g id="a_node19"><a xlink:href="structDGtal_1_1concepts_1_1CLabel.html" target="_top" xlink:title="CLabel">
<ellipse fill="white" stroke="white" cx="1158" cy="-130" rx="36.29" ry="18"/>
<text text-anchor="middle" x="1158" y="-126.3" font-family="Times,serif" font-size="14.00">CLabel</text>
</a>
</g>
</g>
<!-- CLabel&#45;&gt;boost_Assignable -->
<g id="edge20" class="edge">
<title>CLabel&#45;&gt;boost_Assignable</title>
<path fill="none" stroke="black" d="M1168.1,-147.53C1194.2,-190.24 1264.03,-304.51 1295.83,-356.54"/>
<polygon fill="black" stroke="black" points="1292.67,-358.08 1300.87,-364.78 1298.64,-354.42 1292.67,-358.08"/>
</g>
<!-- CLabel&#45;&gt;boost_DefaultConstructible -->
<g id="edge19" class="edge">
<title>CLabel&#45;&gt;boost_DefaultConstructible</title>
<path fill="none" stroke="black" d="M1158.07,-148.32C1158.24,-191.03 1158.68,-301.73 1158.89,-354.37"/>
<polygon fill="black" stroke="black" points="1155.39,-354.06 1158.92,-364.04 1162.38,-354.03 1155.39,-354.06"/>
</g>
<!-- CLabel&#45;&gt;boost_EqualityComparable -->
<g id="edge21" class="edge">
<title>CLabel&#45;&gt;boost_EqualityComparable</title>
<path fill="none" stroke="black" d="M1150.33,-147.87C1141.6,-166.42 1126.4,-196.82 1110,-221 1074.85,-272.83 1025.96,-327.27 997.09,-357.99"/>
<polygon fill="black" stroke="black" points="994.87,-355.24 990.54,-364.91 999.96,-360.05 994.87,-355.24"/>
</g>
<!-- CQuantity -->
<g id="node20" class="node">
<title>CQuantity</title>
<g id="a_node20"><a xlink:href="structDGtal_1_1concepts_1_1CQuantity.html" target="_top" xlink:title="CQuantity">
<ellipse fill="white" stroke="white" cx="896" cy="-57" rx="47.39" ry="18"/>
<text text-anchor="middle" x="896" y="-53.3" font-family="Times,serif" font-size="14.00">CQuantity</text>
</a>
</g>
</g>
<!-- CQuantity&#45;&gt;boost_LessThanComparable -->
<g id="edge16" class="edge">
<title>CQuantity&#45;&gt;boost_LessThanComparable</title>
<path fill="none" stroke="black" d="M931,-69.62C938.21,-71.68 945.8,-73.61 953,-75 1128.73,-108.96 1189.92,-40.5 1354,-112 1364.39,-116.53 1373,-117.67 1373,-129 1373,-129 1373,-129 1373,-277 1373,-312.54 1402.99,-341.61 1429.27,-360.26"/>
<polygon fill="black" stroke="black" points="1427.22,-363.1 1437.47,-365.8 1431.14,-357.3 1427.22,-363.1"/>
</g>
<!-- CQuantity&#45;&gt;CLabel -->
<g id="edge17" class="edge">
<title>CQuantity&#45;&gt;CLabel</title>
<path fill="none" stroke="black" d="M932.09,-69.11C939.01,-71.14 946.22,-73.19 953,-75 1022.27,-93.47 1041.22,-91.78 1110,-112 1112.88,-112.85 1115.85,-113.77 1118.82,-114.73"/>
<polygon fill="black" stroke="black" points="1117.46,-117.97 1128.05,-117.84 1119.69,-111.33 1117.46,-117.97"/>
</g>
<!-- CPredicate -->
<g id="node21" class="node">
<title>CPredicate</title>
<g id="a_node21"><a xlink:href="structDGtal_1_1concepts_1_1CPredicate.html" target="_top" xlink:title="CPredicate">
<ellipse fill="white" stroke="white" cx="1408" cy="-57" rx="49.29" ry="18"/>
<text text-anchor="middle" x="1408" y="-53.3" font-family="Times,serif" font-size="14.00">CPredicate</text>
</a>
</g>
</g>
<!-- CPredicate&#45;&gt;boost_Assignable -->
<g id="edge15" class="edge">
<title>CPredicate&#45;&gt;boost_Assignable</title>
<path fill="none" stroke="black" d="M1409.13,-75.21C1409.98,-89.58 1411,-110.62 1411,-129 1411,-129 1411,-129 1411,-277 1411,-297.77 1369.9,-335.77 1340.67,-360.19"/>
<polygon fill="black" stroke="black" points="1338.7,-357.27 1333.2,-366.33 1343.15,-362.68 1338.7,-357.27"/>
</g>
<!-- CUnaryFunctor -->
<g id="node23" class="node">
<title>CUnaryFunctor</title>
<g id="a_node23"><a xlink:href="structDGtal_1_1concepts_1_1CUnaryFunctor.html" target="_top" xlink:title="CUnaryFunctor">
<ellipse fill="white" stroke="white" cx="1279" cy="-130" rx="65.79" ry="18"/>
<text text-anchor="middle" x="1279" y="-126.3" font-family="Times,serif" font-size="14.00">CUnaryFunctor</text>
</a>
</g>
</g>
<!-- CPredicate&#45;&gt;CUnaryFunctor -->
<g id="edge18" class="edge">
<title>CPredicate&#45;&gt;CUnaryFunctor</title>
<path fill="none" stroke="black" d="M1381.58,-72.54C1363.04,-82.74 1337.97,-96.55 1317.25,-107.95"/>
<polygon fill="black" stroke="black" points="1315.57,-104.88 1308.49,-112.77 1318.94,-111.01 1315.57,-104.88"/>
</g>
<!-- CBackInsertable -->
<g id="node22" class="node">
<title>CBackInsertable</title>
<g id="a_node22"><a xlink:href="structDGtal_1_1concepts_1_1CBackInsertable.html" target="_top" xlink:title="CBackInsertable">
<ellipse fill="white" stroke="white" cx="86" cy="-57" rx="69.59" ry="18"/>
<text text-anchor="middle" x="86" y="-53.3" font-family="Times,serif" font-size="14.00">CBackInsertable</text>
</a>
</g>
</g>
<!-- CUnaryFunctor&#45;&gt;boost_Assignable -->
<g id="edge22" class="edge">
<title>CUnaryFunctor&#45;&gt;boost_Assignable</title>
<path fill="none" stroke="black" d="M1281.27,-148.32C1286.86,-191.03 1301.36,-301.73 1308.25,-354.37"/>
<polygon fill="black" stroke="black" points="1304.75,-354.6 1309.52,-364.06 1311.69,-353.69 1304.75,-354.6"/>
</g>
</g>
</svg>
        <g id="navigator" transform="translate(0 0)" fill="#404254">
                <rect fill="#f2f5e9" fill-opacity="0.5" stroke="#606060" stroke-width=".5" x="0" y="0" width="60" height="60"/>
                <use id="zoomplus" xlink:href="#zoomPlus" x="17" y="9" onmousedown="handleZoom(evt,'in')"/>
                <use id="zoomminus" xlink:href="#zoomMin" x="42" y="9" onmousedown="handleZoom(evt,'out')"/>
                <use id="reset" xlink:href="#resetDef" x="30" y="36" onmousedown="handleReset()"/>
                <g id="arrowUp" xlink:href="#dirArrow" transform="translate(30 24)" onmousedown="handlePan(0,-1)">
                  <use xlink:href="#rim" fill="#404040">
                        <set attributeName="fill" to="#808080" begin="arrowUp.mouseover" end="arrowUp.mouseout"/>
                  </use>
                  <path fill="none" stroke="white" stroke-width="1.5" d="M0,-3.0v7 M-2.5,-0.5L0,-3.0L2.5,-0.5"/>
                </g>
                <g id="arrowRight" xlink:href="#dirArrow" transform="rotate(90) translate(36 -43)" onmousedown="handlePan(1,0)">
                  <use xlink:href="#rim" fill="#404040">
                        <set attributeName="fill" to="#808080" begin="arrowRight.mouseover" end="arrowRight.mouseout"/>
                  </use>
                  <path fill="none" stroke="white" stroke-width="1.5" d="M0,-3.0v7 M-2.5,-0.5L0,-3.0L2.5,-0.5"/>
                </g>
                <g id="arrowDown" xlink:href="#dirArrow" transform="rotate(180) translate(-30 -48)" onmousedown="handlePan(0,1)">
                  <use xlink:href="#rim" fill="#404040">
                        <set attributeName="fill" to="#808080" begin="arrowDown.mouseover" end="arrowDown.mouseout"/>
                  </use>
                  <path fill="none" stroke="white" stroke-width="1.5" d="M0,-3.0v7 M-2.5,-0.5L0,-3.0L2.5,-0.5"/>
                </g>
                <g id="arrowLeft" xlink:href="#dirArrow" transform="rotate(270) translate(-36 17)" onmousedown="handlePan(-1,0)">
                  <use xlink:href="#rim" fill="#404040">
                        <set attributeName="fill" to="#808080" begin="arrowLeft.mouseover" end="arrowLeft.mouseout"/>
                  </use>
                  <path fill="none" stroke="white" stroke-width="1.5" d="M0,-3.0v7 M-2.5,-0.5L0,-3.0L2.5,-0.5"/>
                </g>
        </g>
        <svg viewBox="0 0 15 15" width="100%" height="30px" preserveAspectRatio="xMaxYMin meet">
         <g id="arrow_out" transform="scale(0.3 0.3)">
          <a xlink:href="dot_inline_dotgraph_4_org.svg" target="_base">
           <rect id="button" ry="5" rx="5" y="6" x="6" height="38" width="38"
                fill="#f2f5e9" fill-opacity="0.5" stroke="#606060" stroke-width="1.0"/>
           <path id="arrow"
             d="M 11.500037,31.436501 C 11.940474,20.09759 22.043105,11.32322 32.158766,21.979434 L 37.068811,17.246167 C 37.068811,17.246167 37.088388,32 37.088388,32 L 22.160133,31.978069 C 22.160133,31.978069 26.997745,27.140456 26.997745,27.140456 C 18.528582,18.264221 13.291696,25.230495 11.500037,31.436501 z"
             style="fill:#404040;"/>
          </a>
         </g>
        </svg>
</svg>
