<?xml version="1.0" encoding="UTF-8" standalone="no"?>
<!DOCTYPE svg PUBLIC "-//W3C//DTD SVG 1.1//EN"
 "http://www.w3.org/Graphics/SVG/1.1/DTD/svg11.dtd">
<!-- Generated by graphviz version 7.0.1 (20221109.1506)
 -->
<!-- Title: exampleGridCurve3d&#45;2.cpp Pages: 1 -->
<svg width="3646pt" height="720pt"
 viewBox="0.00 0.00 3645.54 720.00" xmlns="http://www.w3.org/2000/svg" xmlns:xlink="http://www.w3.org/1999/xlink">
<g id="graph0" class="graph" transform="scale(1 1) rotate(0) translate(4 716)">
<title>exampleGridCurve3d&#45;2.cpp</title>
<!-- Node1 -->
<g id="node1" class="node">
<title>Node1</title>
<g id="a_node1"><a xlink:title=" ">
<polygon fill="#999999" stroke="#666666" points="2552.04,-712 2444.04,-712 2444.04,-682 2552.04,-682 2552.04,-712"/>
<text text-anchor="start" x="2452.04" y="-700" font-family="FreeSans" font-size="10.00">exampleGridCurve3d</text>
<text text-anchor="middle" x="2498.04" y="-689" font-family="FreeSans" font-size="10.00">&#45;2.cpp</text>
</a>
</g>
</g>
<!-- Node2 -->
<g id="node2" class="node">
<title>Node2</title>
<g id="a_node2"><a xlink:title=" ">
<polygon fill="#e0e0e0" stroke="#999999" points="2238.04,-19 2184.04,-19 2184.04,0 2238.04,0 2238.04,-19"/>
<text text-anchor="middle" x="2211.04" y="-7" font-family="FreeSans" font-size="10.00">iostream</text>
</a>
</g>
</g>
<!-- Node1&#45;&gt;Node2 -->
<g id="edge1" class="edge">
<title>Node1&#45;&gt;Node2</title>
<path fill="none" stroke="#63b8ff" d="M2552.2,-695.1C2762.32,-690.91 3512.04,-669.11 3512.04,-571.5 3512.04,-571.5 3512.04,-571.5 3512.04,-118.5 3512.04,-51.39 3440.29,-70.7 3375.04,-55 3263.76,-28.22 2438.96,-14 2249.68,-11.07"/>
<polygon fill="#63b8ff" stroke="#63b8ff" points="2249.95,-7.58 2239.9,-10.92 2249.85,-14.58 2249.95,-7.58"/>
</g>
<!-- Node3 -->
<g id="node3" class="node">
<title>Node3</title>
<g id="a_node3"><a xlink:href="Common_8h_source.html" target="_top" xlink:title=" ">
<polygon fill="white" stroke="#666666" points="1976.54,-250 1859.54,-250 1859.54,-231 1976.54,-231 1976.54,-250"/>
<text text-anchor="middle" x="1918.04" y="-238" font-family="FreeSans" font-size="10.00">DGtal/base/Common.h</text>
</a>
</g>
</g>
<!-- Node1&#45;&gt;Node3 -->
<g id="edge2" class="edge">
<title>Node1&#45;&gt;Node3</title>
<path fill="none" stroke="#63b8ff" d="M2443.67,-690.03C2376.51,-679.29 2271.04,-649.93 2271.04,-571.5 2271.04,-571.5 2271.04,-571.5 2271.04,-509 2271.04,-357.56 2062.1,-280.81 1965.72,-253.46"/>
<polygon fill="#63b8ff" stroke="#63b8ff" points="1966.85,-250.14 1956.28,-250.84 1964.98,-256.89 1966.85,-250.14"/>
</g>
<!-- Node35 -->
<g id="node23" class="node">
<title>Node35</title>
<g id="a_node23"><a xlink:href="Color_8h_source.html" target="_top" xlink:title=" ">
<polygon fill="#fff0f0" stroke="red" points="1857.04,-129 1771.04,-129 1771.04,-110 1857.04,-110 1857.04,-129"/>
<text text-anchor="middle" x="1814.04" y="-117" font-family="FreeSans" font-size="10.00">DGtal/io/Color.h</text>
</a>
</g>
</g>
<!-- Node1&#45;&gt;Node35 -->
<g id="edge139" class="edge">
<title>Node1&#45;&gt;Node35</title>
<path fill="none" stroke="#63b8ff" d="M2443.73,-694.56C2286.83,-690.09 1834.91,-675 1690.04,-646 1441,-596.14 1336.3,-631.67 1150.04,-459 1088.58,-402.03 1128.49,-350.54 1075.04,-286 1029.12,-230.55 974.74,-258.62 941.04,-195 934.8,-183.22 931.86,-174.67 941.04,-165 969.28,-135.28 1572,-124.03 1759.13,-121.24"/>
<polygon fill="#63b8ff" stroke="#63b8ff" points="1759.12,-124.74 1769.07,-121.09 1759.02,-117.74 1759.12,-124.74"/>
</g>
<!-- Node44 -->
<g id="node26" class="node">
<title>Node44</title>
<g id="a_node26"><a xlink:href="StdDefs_8h_source.html" target="_top" xlink:title=" ">
<polygon fill="white" stroke="#666666" points="1177.04,-580 1053.04,-580 1053.04,-561 1177.04,-561 1177.04,-580"/>
<text text-anchor="middle" x="1115.04" y="-568" font-family="FreeSans" font-size="10.00">DGtal/helpers/StdDefs.h</text>
</a>
</g>
</g>
<!-- Node1&#45;&gt;Node44 -->
<g id="edge45" class="edge">
<title>Node1&#45;&gt;Node44</title>
<path fill="none" stroke="#63b8ff" d="M2443.86,-695.07C2221.67,-691.07 1386.63,-674.27 1272.04,-646 1221.47,-633.52 1167.7,-603.99 1138.05,-586.08"/>
<polygon fill="#63b8ff" stroke="#63b8ff" points="1140.26,-583.33 1129.9,-581.07 1136.59,-589.29 1140.26,-583.33"/>
</g>
<!-- Node121 -->
<g id="node34" class="node">
<title>Node121</title>
<g id="a_node34"><a xlink:href="KhalimskySpaceND_8h_source.html" target="_top" xlink:title=" ">
<polygon fill="#fff0f0" stroke="red" points="1610.54,-459 1479.54,-459 1479.54,-429 1610.54,-429 1610.54,-459"/>
<text text-anchor="start" x="1487.54" y="-447" font-family="FreeSans" font-size="10.00">DGtal/topology/Khalimsky</text>
<text text-anchor="middle" x="1545.04" y="-436" font-family="FreeSans" font-size="10.00">SpaceND.h</text>
</a>
</g>
</g>
<!-- Node1&#45;&gt;Node121 -->
<g id="edge93" class="edge">
<title>Node1&#45;&gt;Node121</title>
<path fill="none" stroke="#63b8ff" d="M2443.73,-688.73C2384.97,-680.39 2288.72,-665.34 2207.04,-646 1976.24,-591.36 1707.61,-501.42 1596.84,-463.15"/>
<polygon fill="#63b8ff" stroke="#63b8ff" points="1598.02,-459.85 1587.42,-459.89 1595.73,-466.47 1598.02,-459.85"/>
</g>
<!-- Node125 -->
<g id="node36" class="node">
<title>Node125</title>
<g id="a_node36"><a xlink:href="GridCurve_8h_source.html" target="_top" xlink:title=" ">
<polygon fill="#fff0f0" stroke="red" points="1528.04,-525 1410.04,-525 1410.04,-495 1528.04,-495 1528.04,-525"/>
<text text-anchor="start" x="1418.04" y="-513" font-family="FreeSans" font-size="10.00">DGtal/geometry/curves</text>
<text text-anchor="middle" x="1469.04" y="-502" font-family="FreeSans" font-size="10.00">/GridCurve.h</text>
</a>
</g>
</g>
<!-- Node1&#45;&gt;Node125 -->
<g id="edge140" class="edge">
<title>Node1&#45;&gt;Node125</title>
<path fill="none" stroke="#63b8ff" d="M2443.8,-695.16C2343.12,-692.72 2120.98,-683.19 1938.04,-646 1895.48,-637.35 1886.63,-628.51 1845.04,-616 1736.48,-583.34 1609.25,-548.53 1534.11,-528.33"/>
<polygon fill="#63b8ff" stroke="#63b8ff" points="1535.43,-525.06 1524.87,-525.85 1533.62,-531.82 1535.43,-525.06"/>
</g>
<!-- Node160 -->
<g id="node39" class="node">
<title>Node160</title>
<g id="a_node39"><a xlink:href="SurfelAdjacency_8h_source.html" target="_top" xlink:title=" ">
<polygon fill="#fff0f0" stroke="red" points="2859.54,-316 2696.54,-316 2696.54,-297 2859.54,-297 2859.54,-316"/>
<text text-anchor="middle" x="2778.04" y="-304" font-family="FreeSans" font-size="10.00">DGtal/topology/SurfelAdjacency.h</text>
</a>
</g>
</g>
<!-- Node1&#45;&gt;Node160 -->
<g id="edge94" class="edge">
<title>Node1&#45;&gt;Node160</title>
<path fill="none" stroke="#63b8ff" d="M2552.51,-689.77C2619.1,-678.78 2723.04,-649.18 2723.04,-571.5 2723.04,-571.5 2723.04,-571.5 2723.04,-443 2723.04,-406.46 2727.66,-396.6 2742.04,-363 2747.73,-349.7 2756.54,-336.04 2764.02,-325.61"/>
<polygon fill="#63b8ff" stroke="#63b8ff" points="2766.83,-327.7 2769.99,-317.59 2761.21,-323.52 2766.83,-327.7"/>
</g>
<!-- Node163 -->
<g id="node40" class="node">
<title>Node163</title>
<g id="a_node40"><a xlink:href="DigitalSurface_8h_source.html" target="_top" xlink:title=" ">
<polygon fill="#fff0f0" stroke="red" points="2454.54,-387.5 2299.54,-387.5 2299.54,-368.5 2454.54,-368.5 2454.54,-387.5"/>
<text text-anchor="middle" x="2377.04" y="-375.5" font-family="FreeSans" font-size="10.00">DGtal/topology/DigitalSurface.h</text>
</a>
</g>
</g>
<!-- Node1&#45;&gt;Node163 -->
<g id="edge97" class="edge">
<title>Node1&#45;&gt;Node163</title>
<path fill="none" stroke="#63b8ff" d="M2494.38,-681.54C2488.86,-658.45 2479.04,-611.73 2479.04,-571.5 2479.04,-571.5 2479.04,-571.5 2479.04,-509 2479.04,-472.46 2481.6,-458.51 2460.04,-429 2448.12,-412.69 2429.13,-400.68 2412.31,-392.52"/>
<polygon fill="#63b8ff" stroke="#63b8ff" points="2414.14,-389.51 2403.58,-388.56 2411.25,-395.88 2414.14,-389.51"/>
</g>
<!-- Node172 -->
<g id="node41" class="node">
<title>Node172</title>
<g id="a_node41"><a xlink:href="SetOfSurfels_8h_source.html" target="_top" xlink:title=" ">
<polygon fill="#fff0f0" stroke="red" points="2694.54,-387.5 2545.54,-387.5 2545.54,-368.5 2694.54,-368.5 2694.54,-387.5"/>
<text text-anchor="middle" x="2620.04" y="-375.5" font-family="FreeSans" font-size="10.00">DGtal/topology/SetOfSurfels.h</text>
</a>
</g>
</g>
<!-- Node1&#45;&gt;Node172 -->
<g id="edge101" class="edge">
<title>Node1&#45;&gt;Node172</title>
<path fill="none" stroke="#63b8ff" d="M2518.01,-681.59C2544.53,-660.62 2588.04,-618.97 2588.04,-571.5 2588.04,-571.5 2588.04,-571.5 2588.04,-509 2588.04,-468.85 2602.61,-423.7 2612.09,-398.57"/>
<polygon fill="#63b8ff" stroke="#63b8ff" points="2615.3,-399.95 2615.69,-389.36 2608.79,-397.4 2615.3,-399.95"/>
</g>
<!-- Node178 -->
<g id="node42" class="node">
<title>Node178</title>
<g id="a_node42"><a xlink:href="DigitalSurface2DSlice_8h_source.html" target="_top" xlink:title=" ">
<polygon fill="#fff0f0" stroke="red" points="2451.04,-459 2299.04,-459 2299.04,-429 2451.04,-429 2451.04,-459"/>
<text text-anchor="start" x="2307.04" y="-447" font-family="FreeSans" font-size="10.00">DGtal/topology/DigitalSurface2</text>
<text text-anchor="middle" x="2375.04" y="-436" font-family="FreeSans" font-size="10.00">DSlice.h</text>
</a>
</g>
</g>
<!-- Node1&#45;&gt;Node178 -->
<g id="edge105" class="edge">
<title>Node1&#45;&gt;Node178</title>
<path fill="none" stroke="#63b8ff" d="M2487.57,-681.51C2480.74,-671.74 2471.85,-658.4 2465.04,-646 2431.35,-584.65 2399.82,-508.26 2384.59,-469.71"/>
<polygon fill="#63b8ff" stroke="#63b8ff" points="2387.86,-468.46 2380.95,-460.43 2381.34,-471.02 2387.86,-468.46"/>
</g>
<!-- Node181 -->
<g id="node43" class="node">
<title>Node181</title>
<g id="a_node43"><a xlink:href="Surfaces_8h_source.html" target="_top" xlink:title=" ">
<polygon fill="#fff0f0" stroke="red" points="2867.04,-393 2751.04,-393 2751.04,-363 2867.04,-363 2867.04,-393"/>
<text text-anchor="start" x="2759.04" y="-381" font-family="FreeSans" font-size="10.00">DGtal/topology/helpers</text>
<text text-anchor="middle" x="2809.04" y="-370" font-family="FreeSans" font-size="10.00">/Surfaces.h</text>
</a>
</g>
</g>
<!-- Node1&#45;&gt;Node181 -->
<g id="edge109" class="edge">
<title>Node1&#45;&gt;Node181</title>
<path fill="none" stroke="#63b8ff" d="M2552.36,-695.75C2635.56,-692.2 2785.04,-671.84 2785.04,-571.5 2785.04,-571.5 2785.04,-571.5 2785.04,-509 2785.04,-471.98 2794.57,-430 2801.62,-404.01"/>
<polygon fill="#63b8ff" stroke="#63b8ff" points="2804.89,-405.3 2804.23,-394.73 2798.15,-403.4 2804.89,-405.3"/>
</g>
<!-- Node183 -->
<g id="node44" class="node">
<title>Node183</title>
<g id="a_node44"><a xlink:href="Viewer3D_8h_source.html" target="_top" xlink:title=" ">
<polygon fill="#fff0f0" stroke="red" points="2177.54,-519.5 2034.54,-519.5 2034.54,-500.5 2177.54,-500.5 2177.54,-519.5"/>
<text text-anchor="middle" x="2106.04" y="-507.5" font-family="FreeSans" font-size="10.00">DGtal/io/viewers/Viewer3D.h</text>
</a>
</g>
</g>
<!-- Node1&#45;&gt;Node183 -->
<g id="edge114" class="edge">
<title>Node1&#45;&gt;Node183</title>
<path fill="none" stroke="#63b8ff" d="M2443.7,-692.81C2393.03,-688.02 2316.56,-676.01 2257.04,-646 2198.36,-616.41 2144.89,-558.08 2120.29,-528.74"/>
<polygon fill="#63b8ff" stroke="#63b8ff" points="2123.1,-526.65 2114.05,-521.15 2117.7,-531.1 2123.1,-526.65"/>
</g>
<!-- Node209 -->
<g id="node45" class="node">
<title>Node209</title>
<g id="a_node45"><a xlink:href="VolReader_8h_source.html" target="_top" xlink:title=" ">
<polygon fill="#fff0f0" stroke="red" points="3098.04,-316 2954.04,-316 2954.04,-297 3098.04,-297 3098.04,-316"/>
<text text-anchor="middle" x="3026.04" y="-304" font-family="FreeSans" font-size="10.00">DGtal/io/readers/VolReader.h</text>
</a>
</g>
</g>
<!-- Node1&#45;&gt;Node209 -->
<g id="edge120" class="edge">
<title>Node1&#45;&gt;Node209</title>
<path fill="none" stroke="#63b8ff" d="M2552.17,-693.86C2680.99,-687.29 2995.04,-662.01 2995.04,-571.5 2995.04,-571.5 2995.04,-571.5 2995.04,-443 2995.04,-400.71 3009.57,-352.82 3018.73,-326.82"/>
<polygon fill="#63b8ff" stroke="#63b8ff" points="3021.94,-328.23 3022.08,-317.64 3015.37,-325.83 3021.94,-328.23"/>
</g>
<!-- Node205 -->
<g id="node46" class="node">
<title>Node205</title>
<g id="a_node46"><a xlink:href="DrawWithDisplay3DModifier_8h_source.html" target="_top" xlink:title=" ">
<polygon fill="#fff0f0" stroke="red" points="1836.54,-646 1699.54,-646 1699.54,-616 1836.54,-616 1836.54,-646"/>
<text text-anchor="start" x="1707.54" y="-634" font-family="FreeSans" font-size="10.00">DGtal/io/DrawWithDisplay3</text>
<text text-anchor="middle" x="1768.04" y="-623" font-family="FreeSans" font-size="10.00">DModifier.h</text>
</a>
</g>
</g>
<!-- Node1&#45;&gt;Node205 -->
<g id="edge123" class="edge">
<title>Node1&#45;&gt;Node205</title>
<path fill="none" stroke="#63b8ff" d="M2443.86,-693.42C2332.63,-687.77 2070.62,-672.62 1852.04,-646 1850.64,-645.83 1849.22,-645.65 1847.8,-645.47"/>
<polygon fill="#63b8ff" stroke="#63b8ff" points="1848.61,-642.05 1838.23,-644.16 1847.66,-648.98 1848.61,-642.05"/>
</g>
<!-- Node212 -->
<g id="node47" class="node">
<title>Node212</title>
<g id="a_node47"><a xlink:href="ImageSelector_8h_source.html" target="_top" xlink:title=" ">
<polygon fill="#fff0f0" stroke="red" points="3304.04,-316 3154.04,-316 3154.04,-297 3304.04,-297 3304.04,-316"/>
<text text-anchor="middle" x="3229.04" y="-304" font-family="FreeSans" font-size="10.00">DGtal/images/ImageSelector.h</text>
</a>
</g>
</g>
<!-- Node1&#45;&gt;Node212 -->
<g id="edge128" class="edge">
<title>Node1&#45;&gt;Node212</title>
<path fill="none" stroke="#63b8ff" d="M2552.28,-696.78C2705.59,-697.53 3131.04,-689.03 3131.04,-571.5 3131.04,-571.5 3131.04,-571.5 3131.04,-443 3131.04,-391.35 3178.36,-346.06 3207.24,-323.22"/>
<polygon fill="#63b8ff" stroke="#63b8ff" points="3209.2,-326.13 3215.03,-317.28 3204.95,-320.56 3209.2,-326.13"/>
</g>
<!-- Node235 -->
<g id="node48" class="node">
<title>Node235</title>
<g id="a_node48"><a xlink:href="ImageHelper_8h_source.html" target="_top" xlink:title=" ">
<polygon fill="#fff0f0" stroke="red" points="2480.54,-316 2337.54,-316 2337.54,-297 2480.54,-297 2480.54,-316"/>
<text text-anchor="middle" x="2409.04" y="-304" font-family="FreeSans" font-size="10.00">DGtal/images/ImageHelper.h</text>
</a>
</g>
</g>
<!-- Node1&#45;&gt;Node235 -->
<g id="edge131" class="edge">
<title>Node1&#45;&gt;Node235</title>
<path fill="none" stroke="#63b8ff" d="M2501.7,-681.54C2507.22,-658.45 2517.04,-611.73 2517.04,-571.5 2517.04,-571.5 2517.04,-571.5 2517.04,-443 2517.04,-389.52 2464.97,-344.98 2433.14,-322.75"/>
<polygon fill="#63b8ff" stroke="#63b8ff" points="2435.11,-319.86 2424.86,-317.18 2431.2,-325.66 2435.11,-319.86"/>
</g>
<!-- Node241 -->
<g id="node49" class="node">
<title>Node241</title>
<g id="a_node49"><a xlink:href="DigitalSetInserter_8h_source.html" target="_top" xlink:title=" ">
<polygon fill="#fff0f0" stroke="red" points="3484.04,-321.5 3360.04,-321.5 3360.04,-291.5 3484.04,-291.5 3484.04,-321.5"/>
<text text-anchor="start" x="3368.04" y="-309.5" font-family="FreeSans" font-size="10.00">DGtal/kernel/sets/Digital</text>
<text text-anchor="middle" x="3422.04" y="-298.5" font-family="FreeSans" font-size="10.00">SetInserter.h</text>
</a>
</g>
</g>
<!-- Node1&#45;&gt;Node241 -->
<g id="edge136" class="edge">
<title>Node1&#45;&gt;Node241</title>
<path fill="none" stroke="#63b8ff" d="M2552.19,-696.3C2657.76,-695.83 2897.9,-689.56 3094.04,-646 3187.45,-625.26 3296.04,-667.19 3296.04,-571.5 3296.04,-571.5 3296.04,-571.5 3296.04,-443 3296.04,-390.66 3347.08,-350.05 3384.19,-327.45"/>
<polygon fill="#63b8ff" stroke="#63b8ff" points="3385.61,-330.68 3392.46,-322.59 3382.06,-324.64 3385.61,-330.68"/>
</g>
<!-- Node242 -->
<g id="node50" class="node">
<title>Node242</title>
<g id="a_node50"><a xlink:title=" ">
<polygon fill="#e0e0e0" stroke="#999999" points="3637.54,-640.5 3540.54,-640.5 3540.54,-621.5 3637.54,-621.5 3637.54,-640.5"/>
<text text-anchor="middle" x="3589.04" y="-628.5" font-family="FreeSans" font-size="10.00">ConfigExamples.h</text>
</a>
</g>
</g>
<!-- Node1&#45;&gt;Node242 -->
<g id="edge141" class="edge">
<title>Node1&#45;&gt;Node242</title>
<path fill="none" stroke="#63b8ff" d="M2552.39,-696.6C2706.03,-697.59 3156.36,-695.7 3526.04,-646 3531.38,-645.28 3536.94,-644.34 3542.44,-643.28"/>
<polygon fill="#63b8ff" stroke="#63b8ff" points="3543.01,-646.74 3552.1,-641.29 3541.6,-639.88 3543.01,-646.74"/>
</g>
<!-- Node3&#45;&gt;Node2 -->
<g id="edge3" class="edge">
<title>Node3&#45;&gt;Node2</title>
<path fill="none" stroke="#63b8ff" d="M1916.92,-230.7C1912.92,-197.62 1900.78,-81.27 1924.04,-55 1956.11,-18.78 2101.37,-11.86 2172.1,-10.66"/>
<polygon fill="#63b8ff" stroke="#63b8ff" points="2172.13,-14.16 2182.08,-10.53 2172.03,-7.16 2172.13,-14.16"/>
</g>
<!-- Node4 -->
<g id="node4" class="node">
<title>Node4</title>
<g id="a_node4"><a xlink:title=" ">
<polygon fill="#e0e0e0" stroke="#999999" points="1736.54,-189.5 1677.54,-189.5 1677.54,-170.5 1736.54,-170.5 1736.54,-189.5"/>
<text text-anchor="middle" x="1707.04" y="-177.5" font-family="FreeSans" font-size="10.00">exception</text>
</a>
</g>
</g>
<!-- Node3&#45;&gt;Node4 -->
<g id="edge4" class="edge">
<title>Node3&#45;&gt;Node4</title>
<path fill="none" stroke="#63b8ff" d="M1879.16,-230.52C1844.11,-222.16 1791.29,-208.94 1746.04,-195 1744.49,-194.52 1742.92,-194.02 1741.33,-193.5"/>
<polygon fill="#63b8ff" stroke="#63b8ff" points="1742.88,-190.33 1732.28,-190.42 1740.62,-196.96 1742.88,-190.33"/>
</g>
<!-- Node5 -->
<g id="node5" class="node">
<title>Node5</title>
<g id="a_node5"><a xlink:title=" ">
<polygon fill="#e0e0e0" stroke="#999999" points="1989.04,-74 1933.04,-74 1933.04,-55 1989.04,-55 1989.04,-74"/>
<text text-anchor="middle" x="1961.04" y="-62" font-family="FreeSans" font-size="10.00">algorithm</text>
</a>
</g>
</g>
<!-- Node3&#45;&gt;Node5 -->
<g id="edge5" class="edge">
<title>Node3&#45;&gt;Node5</title>
<path fill="none" stroke="#63b8ff" d="M1922.57,-230.51C1926.86,-221.68 1933.2,-207.71 1937.04,-195 1948.47,-157.18 1955.4,-111.41 1958.7,-85.66"/>
<polygon fill="#63b8ff" stroke="#63b8ff" points="1962.15,-86.31 1959.89,-75.96 1955.2,-85.46 1962.15,-86.31"/>
</g>
<!-- Node6 -->
<g id="node6" class="node">
<title>Node6</title>
<g id="a_node6"><a xlink:title=" ">
<polygon fill="#e0e0e0" stroke="#999999" points="2159.04,-189.5 2065.04,-189.5 2065.04,-170.5 2159.04,-170.5 2159.04,-189.5"/>
<text text-anchor="middle" x="2112.04" y="-177.5" font-family="FreeSans" font-size="10.00">boost/version.hpp</text>
</a>
</g>
</g>
<!-- Node3&#45;&gt;Node6 -->
<g id="edge6" class="edge">
<title>Node3&#45;&gt;Node6</title>
<path fill="none" stroke="#63b8ff" d="M1947.5,-230.62C1980.55,-220.65 2034.35,-204.43 2071.39,-193.26"/>
<polygon fill="#63b8ff" stroke="#63b8ff" points="2072.29,-196.64 2080.85,-190.41 2070.26,-189.94 2072.29,-196.64"/>
</g>
<!-- Node7 -->
<g id="node7" class="node">
<title>Node7</title>
<g id="a_node7"><a xlink:title=" ">
<polygon fill="#e0e0e0" stroke="#999999" points="2305.04,-189.5 2177.04,-189.5 2177.04,-170.5 2305.04,-170.5 2305.04,-189.5"/>
<text text-anchor="middle" x="2241.04" y="-177.5" font-family="FreeSans" font-size="10.00">boost/concept_check.hpp</text>
</a>
</g>
</g>
<!-- Node3&#45;&gt;Node7 -->
<g id="edge7" class="edge">
<title>Node3&#45;&gt;Node7</title>
<path fill="none" stroke="#63b8ff" d="M1969.31,-230.58C2019.87,-221.73 2099.33,-207.7 2168.04,-195 2173.16,-194.05 2178.49,-193.06 2183.82,-192.05"/>
<polygon fill="#63b8ff" stroke="#63b8ff" points="2184.06,-195.57 2193.23,-190.26 2182.75,-188.69 2184.06,-195.57"/>
</g>
<!-- Node8 -->
<g id="node8" class="node">
<title>Node8</title>
<g id="a_node8"><a xlink:title=" ">
<polygon fill="#e0e0e0" stroke="#999999" points="2442.54,-189.5 2323.54,-189.5 2323.54,-170.5 2442.54,-170.5 2442.54,-189.5"/>
<text text-anchor="middle" x="2383.04" y="-177.5" font-family="FreeSans" font-size="10.00">boost/static_assert.hpp</text>
</a>
</g>
</g>
<!-- Node3&#45;&gt;Node8 -->
<g id="edge8" class="edge">
<title>Node3&#45;&gt;Node8</title>
<path fill="none" stroke="#63b8ff" d="M1976.96,-234.52C2054.52,-227.58 2194.95,-213.73 2314.04,-195 2319.56,-194.13 2325.31,-193.13 2331.02,-192.06"/>
<polygon fill="#63b8ff" stroke="#63b8ff" points="2331.28,-195.58 2340.43,-190.25 2329.95,-188.71 2331.28,-195.58"/>
</g>
<!-- Node9 -->
<g id="node9" class="node">
<title>Node9</title>
<g id="a_node9"><a xlink:title=" ">
<polygon fill="#e0e0e0" stroke="#999999" points="1077.54,-189.5 950.54,-189.5 950.54,-170.5 1077.54,-170.5 1077.54,-189.5"/>
<text text-anchor="middle" x="1014.04" y="-177.5" font-family="FreeSans" font-size="10.00">boost/concept/assert.hpp</text>
</a>
</g>
</g>
<!-- Node3&#45;&gt;Node9 -->
<g id="edge9" class="edge">
<title>Node3&#45;&gt;Node9</title>
<path fill="none" stroke="#63b8ff" d="M1859.11,-239.09C1722.76,-237.55 1375.12,-230.17 1087.04,-195 1080.48,-194.2 1073.61,-193.16 1066.84,-192"/>
<polygon fill="#63b8ff" stroke="#63b8ff" points="1067.53,-188.57 1057.07,-190.25 1066.29,-195.46 1067.53,-188.57"/>
</g>
<!-- Node10 -->
<g id="node10" class="node">
<title>Node10</title>
<g id="a_node10"><a xlink:title=" ">
<polygon fill="#e0e0e0" stroke="#999999" points="1230.04,-189.5 1096.04,-189.5 1096.04,-170.5 1230.04,-170.5 1230.04,-189.5"/>
<text text-anchor="middle" x="1163.04" y="-177.5" font-family="FreeSans" font-size="10.00">boost/concept/requires.hpp</text>
</a>
</g>
</g>
<!-- Node3&#45;&gt;Node10 -->
<g id="edge10" class="edge">
<title>Node3&#45;&gt;Node10</title>
<path fill="none" stroke="#63b8ff" d="M1859.24,-237.96C1741.25,-234.35 1467.35,-223.41 1239.04,-195 1232.22,-194.15 1225.09,-193.08 1218.04,-191.91"/>
<polygon fill="#63b8ff" stroke="#63b8ff" points="1218.65,-188.47 1208.2,-190.21 1217.46,-195.36 1218.65,-188.47"/>
</g>
<!-- Node11 -->
<g id="node11" class="node">
<title>Node11</title>
<g id="a_node11"><a xlink:title=" ">
<polygon fill="#e0e0e0" stroke="#999999" points="1355.54,-195 1248.54,-195 1248.54,-165 1355.54,-165 1355.54,-195"/>
<text text-anchor="start" x="1256.54" y="-183" font-family="FreeSans" font-size="10.00">boost/iterator/iterator</text>
<text text-anchor="middle" x="1302.04" y="-172" font-family="FreeSans" font-size="10.00">_concepts.hpp</text>
</a>
</g>
</g>
<!-- Node3&#45;&gt;Node11 -->
<g id="edge11" class="edge">
<title>Node3&#45;&gt;Node11</title>
<path fill="none" stroke="#63b8ff" d="M1859.1,-237.51C1759.55,-233.56 1551.67,-222.72 1367.01,-195.31"/>
<polygon fill="#63b8ff" stroke="#63b8ff" points="1367.63,-191.87 1357.22,-193.84 1366.58,-198.79 1367.63,-191.87"/>
</g>
<!-- Node12 -->
<g id="node12" class="node">
<title>Node12</title>
<g id="a_node12"><a xlink:title=" ">
<polygon fill="#e0e0e0" stroke="#999999" points="1518.54,-189.5 1373.54,-189.5 1373.54,-170.5 1518.54,-170.5 1518.54,-189.5"/>
<text text-anchor="middle" x="1446.04" y="-177.5" font-family="FreeSans" font-size="10.00">boost/concept_archetype.hpp</text>
</a>
</g>
</g>
<!-- Node3&#45;&gt;Node12 -->
<g id="edge12" class="edge">
<title>Node3&#45;&gt;Node12</title>
<path fill="none" stroke="#63b8ff" d="M1859.11,-233.8C1782.62,-226.18 1645.1,-211.66 1528.04,-195 1521.27,-194.04 1514.2,-192.95 1507.18,-191.82"/>
<polygon fill="#63b8ff" stroke="#63b8ff" points="1507.77,-188.37 1497.33,-190.2 1506.63,-195.28 1507.77,-188.37"/>
</g>
<!-- Node13 -->
<g id="node13" class="node">
<title>Node13</title>
<g id="a_node13"><a xlink:title=" ">
<polygon fill="#e0e0e0" stroke="#999999" points="931.04,-129 887.04,-129 887.04,-110 931.04,-110 931.04,-129"/>
<text text-anchor="middle" x="909.04" y="-117" font-family="FreeSans" font-size="10.00">cmath</text>
</a>
</g>
</g>
<!-- Node3&#45;&gt;Node13 -->
<g id="edge13" class="edge">
<title>Node3&#45;&gt;Node13</title>
<path fill="none" stroke="#63b8ff" d="M1859.21,-238.53C1653.8,-234.94 978.89,-221.19 941.04,-195 923.16,-182.62 915.2,-158.05 911.71,-140.51"/>
<polygon fill="#63b8ff" stroke="#63b8ff" points="915.18,-140.06 910.12,-130.75 908.27,-141.18 915.18,-140.06"/>
</g>
<!-- Node14 -->
<g id="node14" class="node">
<title>Node14</title>
<g id="a_node14"><a xlink:title=" ">
<polygon fill="#e0e0e0" stroke="#999999" points="1583.04,-189.5 1537.04,-189.5 1537.04,-170.5 1583.04,-170.5 1583.04,-189.5"/>
<text text-anchor="middle" x="1560.04" y="-177.5" font-family="FreeSans" font-size="10.00">stdio.h</text>
</a>
</g>
</g>
<!-- Node3&#45;&gt;Node14 -->
<g id="edge14" class="edge">
<title>Node3&#45;&gt;Node14</title>
<path fill="none" stroke="#63b8ff" d="M1859.29,-235.33C1794.34,-229.8 1686.99,-217.94 1597.04,-195 1595.42,-194.59 1593.77,-194.12 1592.11,-193.63"/>
<polygon fill="#63b8ff" stroke="#63b8ff" points="1593.33,-190.34 1582.73,-190.46 1591.09,-196.97 1593.33,-190.34"/>
</g>
<!-- Node15 -->
<g id="node15" class="node">
<title>Node15</title>
<g id="a_node15"><a xlink:href="Config_8h_source.html" target="_top" xlink:title=" ">
<polygon fill="#fff0f0" stroke="red" points="2511.04,-74 2405.04,-74 2405.04,-55 2511.04,-55 2511.04,-74"/>
<text text-anchor="middle" x="2458.04" y="-62" font-family="FreeSans" font-size="10.00">DGtal/base/Config.h</text>
</a>
</g>
</g>
<!-- Node3&#45;&gt;Node15 -->
<g id="edge15" class="edge">
<title>Node3&#45;&gt;Node15</title>
<path fill="none" stroke="#63b8ff" d="M1976.89,-239.2C2113.06,-237.88 2440.83,-230.98 2474.04,-195 2525.55,-139.21 2412.85,-180.48 2377.04,-129 2362.09,-107.5 2390.8,-89.81 2418.08,-78.61"/>
<polygon fill="#63b8ff" stroke="#63b8ff" points="2419.28,-81.9 2427.35,-75.04 2416.76,-75.37 2419.28,-81.9"/>
</g>
<!-- Node17 -->
<g id="node16" class="node">
<title>Node17</title>
<g id="a_node16"><a xlink:href="Trace_8h_source.html" target="_top" xlink:title=" ">
<polygon fill="#fff0f0" stroke="red" points="2715.04,-189.5 2613.04,-189.5 2613.04,-170.5 2715.04,-170.5 2715.04,-189.5"/>
<text text-anchor="middle" x="2664.04" y="-177.5" font-family="FreeSans" font-size="10.00">DGtal/base/Trace.h</text>
</a>
</g>
</g>
<!-- Node3&#45;&gt;Node17 -->
<g id="edge17" class="edge">
<title>Node3&#45;&gt;Node17</title>
<path fill="none" stroke="#63b8ff" d="M1976.64,-238.57C2094.87,-236.04 2370.22,-226.94 2599.04,-195 2604.61,-194.22 2610.42,-193.23 2616.17,-192.14"/>
<polygon fill="#63b8ff" stroke="#63b8ff" points="2616.49,-195.65 2625.6,-190.24 2615.11,-188.78 2616.49,-195.65"/>
</g>
<!-- Node24 -->
<g id="node17" class="node">
<title>Node24</title>
<g id="a_node17"><a xlink:href="TraceWriterTerm_8h_source.html" target="_top" xlink:title=" ">
<polygon fill="#fff0f0" stroke="red" points="2735.54,-129 2586.54,-129 2586.54,-110 2735.54,-110 2735.54,-129"/>
<text text-anchor="middle" x="2661.04" y="-117" font-family="FreeSans" font-size="10.00">DGtal/base/TraceWriterTerm.h</text>
</a>
</g>
</g>
<!-- Node3&#45;&gt;Node24 -->
<g id="edge25" class="edge">
<title>Node3&#45;&gt;Node24</title>
<path fill="none" stroke="#63b8ff" d="M1976.77,-238.44C2158.08,-234.9 2698.41,-222.09 2724.04,-195 2733.2,-185.32 2730.17,-176.84 2724.04,-165 2717.3,-151.99 2704.82,-141.98 2692.74,-134.77"/>
<polygon fill="#63b8ff" stroke="#63b8ff" points="2694.6,-131.8 2684.14,-130.1 2691.26,-137.95 2694.6,-131.8"/>
</g>
<!-- Node25 -->
<g id="node18" class="node">
<title>Node25</title>
<g id="a_node18"><a xlink:href="Assert_8h_source.html" target="_top" xlink:title=" ">
<polygon fill="#fff0f0" stroke="red" points="2492.04,-129 2386.04,-129 2386.04,-110 2492.04,-110 2492.04,-129"/>
<text text-anchor="middle" x="2439.04" y="-117" font-family="FreeSans" font-size="10.00">DGtal/base/Assert.h</text>
</a>
</g>
</g>
<!-- Node3&#45;&gt;Node25 -->
<g id="edge28" class="edge">
<title>Node3&#45;&gt;Node25</title>
<path fill="none" stroke="#63b8ff" d="M1939.7,-230.62C1959.31,-222.28 1988.75,-209.02 2013.04,-195 2033.22,-183.35 2034.25,-173.26 2056.04,-165 2112.75,-143.5 2281.05,-130.14 2374.57,-124.17"/>
<polygon fill="#63b8ff" stroke="#63b8ff" points="2374.59,-127.68 2384.35,-123.56 2374.15,-120.69 2374.59,-127.68"/>
</g>
<!-- Node28 -->
<g id="node19" class="node">
<title>Node28</title>
<g id="a_node19"><a xlink:href="TraceWriterFile_8h_source.html" target="_top" xlink:title=" ">
<polygon fill="#fff0f0" stroke="red" points="2896.54,-129 2753.54,-129 2753.54,-110 2896.54,-110 2896.54,-129"/>
<text text-anchor="middle" x="2825.04" y="-117" font-family="FreeSans" font-size="10.00">DGtal/base/TraceWriterFile.h</text>
</a>
</g>
</g>
<!-- Node3&#45;&gt;Node28 -->
<g id="edge26" class="edge">
<title>Node3&#45;&gt;Node28</title>
<path fill="none" stroke="#63b8ff" d="M1977.03,-238.55C2153.74,-235.4 2670.97,-223.78 2741.04,-195 2770.25,-183 2796.13,-156.35 2811.2,-138.4"/>
<polygon fill="#63b8ff" stroke="#63b8ff" points="2813.9,-140.63 2817.46,-130.65 2808.45,-136.23 2813.9,-140.63"/>
</g>
<!-- Node29 -->
<g id="node20" class="node">
<title>Node29</title>
<g id="a_node20"><a xlink:href="ConceptUtils_8h_source.html" target="_top" xlink:title=" ">
<polygon fill="white" stroke="#666666" points="2368.04,-74 2234.04,-74 2234.04,-55 2368.04,-55 2368.04,-74"/>
<text text-anchor="middle" x="2301.04" y="-62" font-family="FreeSans" font-size="10.00">DGtal/base/ConceptUtils.h</text>
</a>
</g>
</g>
<!-- Node3&#45;&gt;Node29 -->
<g id="edge29" class="edge">
<title>Node3&#45;&gt;Node29</title>
<path fill="none" stroke="#63b8ff" d="M1976.9,-238.98C2108.89,-237.19 2419.45,-229.34 2451.04,-195 2509.32,-131.65 2408.07,-177.68 2344.04,-129 2328.65,-117.3 2316.89,-98.45 2309.59,-84.32"/>
<polygon fill="#63b8ff" stroke="#63b8ff" points="2312.87,-83.06 2305.36,-75.59 2306.57,-86.11 2312.87,-83.06"/>
</g>
<!-- Node30 -->
<g id="node21" class="node">
<title>Node30</title>
<g id="a_node21"><a xlink:href="BasicTypes_8h_source.html" target="_top" xlink:title=" ">
<polygon fill="#fff0f0" stroke="red" points="1739.04,-74 1611.04,-74 1611.04,-55 1739.04,-55 1739.04,-74"/>
<text text-anchor="middle" x="1675.04" y="-62" font-family="FreeSans" font-size="10.00">DGtal/base/BasicTypes.h</text>
</a>
</g>
</g>
<!-- Node3&#45;&gt;Node30 -->
<g id="edge31" class="edge">
<title>Node3&#45;&gt;Node30</title>
<path fill="none" stroke="#63b8ff" d="M1859.21,-237.97C1790.33,-234.8 1682.39,-225.03 1657.04,-195 1630.53,-163.59 1650.52,-111.84 1664.5,-84.22"/>
<polygon fill="#63b8ff" stroke="#63b8ff" points="1667.46,-86.11 1669.08,-75.64 1661.29,-82.81 1667.46,-86.11"/>
</g>
<!-- Node33 -->
<g id="node22" class="node">
<title>Node33</title>
<g id="a_node22"><a xlink:href="BasicFunctors_8h_source.html" target="_top" xlink:title=" ">
<polygon fill="#fff0f0" stroke="red" points="1895.04,-189.5 1755.04,-189.5 1755.04,-170.5 1895.04,-170.5 1895.04,-189.5"/>
<text text-anchor="middle" x="1825.04" y="-177.5" font-family="FreeSans" font-size="10.00">DGtal/base/BasicFunctors.h</text>
</a>
</g>
</g>
<!-- Node3&#45;&gt;Node33 -->
<g id="edge33" class="edge">
<title>Node3&#45;&gt;Node33</title>
<path fill="none" stroke="#63b8ff" d="M1898.91,-230.62C1882.51,-221.51 1859.39,-207.18 1843.28,-196.25"/>
<polygon fill="#63b8ff" stroke="#63b8ff" points="1845.72,-193.69 1835.51,-190.83 1841.71,-199.43 1845.72,-193.69"/>
</g>
<!-- Node42 -->
<g id="node24" class="node">
<title>Node42</title>
<g id="a_node24"><a xlink:href="BasicArchetypes_8h_source.html" target="_top" xlink:title=" ">
<polygon fill="white" stroke="#666666" points="2197.04,-74 2045.04,-74 2045.04,-55 2197.04,-55 2197.04,-74"/>
<text text-anchor="middle" x="2121.04" y="-62" font-family="FreeSans" font-size="10.00">DGtal/base/BasicArchetypes.h</text>
</a>
</g>
</g>
<!-- Node3&#45;&gt;Node42 -->
<g id="edge41" class="edge">
<title>Node3&#45;&gt;Node42</title>
<path fill="none" stroke="#63b8ff" d="M1928.39,-230.63C1960.77,-202.88 2060.5,-117.39 2102.3,-81.56"/>
<polygon fill="#63b8ff" stroke="#63b8ff" points="2104.49,-84.29 2109.81,-75.13 2099.94,-78.98 2104.49,-84.29"/>
</g>
<!-- Node43 -->
<g id="node25" class="node">
<title>Node43</title>
<g id="a_node25"><a xlink:href="Exceptions_8h_source.html" target="_top" xlink:title=" ">
<polygon fill="white" stroke="#666666" points="2973.04,-189.5 2847.04,-189.5 2847.04,-170.5 2973.04,-170.5 2973.04,-189.5"/>
<text text-anchor="middle" x="2910.04" y="-177.5" font-family="FreeSans" font-size="10.00">DGtal/base/Exceptions.h</text>
</a>
</g>
</g>
<!-- Node3&#45;&gt;Node43 -->
<g id="edge43" class="edge">
<title>Node3&#45;&gt;Node43</title>
<path fill="none" stroke="#63b8ff" d="M1976.9,-237.95C2118.19,-233.9 2487.65,-221.48 2795.04,-195 2808.11,-193.87 2821.99,-192.41 2835.41,-190.86"/>
<polygon fill="#63b8ff" stroke="#63b8ff" points="2835.53,-194.37 2845.05,-189.72 2834.71,-187.42 2835.53,-194.37"/>
</g>
<!-- Node15&#45;&gt;Node2 -->
<g id="edge16" class="edge">
<title>Node15&#45;&gt;Node2</title>
<path fill="none" stroke="#63b8ff" d="M2416.14,-54.51C2369.42,-44.48 2294.5,-28.41 2249.3,-18.71"/>
<polygon fill="#63b8ff" stroke="#63b8ff" points="2250.21,-15.32 2239.7,-16.65 2248.74,-22.17 2250.21,-15.32"/>
</g>
<!-- Node17&#45;&gt;Node2 -->
<g id="edge18" class="edge">
<title>Node17&#45;&gt;Node2</title>
<path fill="none" stroke="#63b8ff" d="M2643.6,-170.09C2624.98,-161.35 2597.38,-146.77 2577.04,-129 2545.78,-101.69 2555.89,-75.94 2520.04,-55 2474.82,-28.58 2321.8,-16.69 2249.49,-12.45"/>
<polygon fill="#63b8ff" stroke="#63b8ff" points="2249.89,-8.97 2239.71,-11.9 2249.5,-15.95 2249.89,-8.97"/>
</g>
<!-- Node17&#45;&gt;Node15 -->
<g id="edge19" class="edge">
<title>Node17&#45;&gt;Node15</title>
<path fill="none" stroke="#63b8ff" d="M2637.44,-170.02C2612.53,-161.12 2574.67,-146.35 2544.04,-129 2519.61,-115.16 2494.01,-95.5 2477.17,-81.73"/>
<polygon fill="#63b8ff" stroke="#63b8ff" points="2479.43,-79.06 2469.5,-75.36 2474.95,-84.44 2479.43,-79.06"/>
</g>
<!-- Node17&#45;&gt;Node24 -->
<g id="edge20" class="edge">
<title>Node17&#45;&gt;Node24</title>
<path fill="none" stroke="#63b8ff" d="M2663.6,-170.37C2663.19,-162.5 2662.58,-150.6 2662.06,-140.39"/>
<polygon fill="#63b8ff" stroke="#63b8ff" points="2665.57,-140.49 2661.56,-130.68 2658.58,-140.85 2665.57,-140.49"/>
</g>
<!-- Node17&#45;&gt;Node25 -->
<g id="edge23" class="edge">
<title>Node17&#45;&gt;Node25</title>
<path fill="none" stroke="#63b8ff" d="M2624.6,-170.05C2583.79,-159.99 2520.56,-143.6 2479.41,-132.44"/>
<polygon fill="#63b8ff" stroke="#63b8ff" points="2480.46,-129.1 2469.89,-129.85 2478.62,-135.85 2480.46,-129.1"/>
</g>
<!-- Node24&#45;&gt;Node2 -->
<g id="edge21" class="edge">
<title>Node24&#45;&gt;Node2</title>
<path fill="none" stroke="#63b8ff" d="M2652.1,-109.73C2637.02,-95.52 2604.94,-67.81 2572.04,-55 2513.85,-32.35 2330.11,-18.14 2249.54,-12.84"/>
<polygon fill="#63b8ff" stroke="#63b8ff" points="2250.14,-9.38 2239.94,-12.22 2249.69,-16.36 2250.14,-9.38"/>
</g>
<!-- Node24&#45;&gt;Node15 -->
<g id="edge22" class="edge">
<title>Node24&#45;&gt;Node15</title>
<path fill="none" stroke="#63b8ff" d="M2626.6,-109.51C2592.67,-100.65 2540.64,-87.07 2503.36,-77.33"/>
<polygon fill="#63b8ff" stroke="#63b8ff" points="2504.33,-73.97 2493.77,-74.83 2502.56,-80.74 2504.33,-73.97"/>
</g>
<!-- Node25&#45;&gt;Node17 -->
<g id="edge24" class="edge">
<title>Node25&#45;&gt;Node17</title>
<path fill="none" stroke="#63b8ff" d="M2478.56,-129.47C2519.46,-139.55 2582.79,-155.98 2623.91,-167.12"/>
<polygon fill="#63b8ff" stroke="#63b8ff" points="2622.85,-170.46 2633.42,-169.72 2624.69,-163.71 2622.85,-170.46"/>
</g>
<!-- Node28&#45;&gt;Node2 -->
<g id="edge27" class="edge">
<title>Node28&#45;&gt;Node2</title>
<path fill="none" stroke="#63b8ff" d="M2799.19,-109.54C2758.28,-95.72 2675.89,-69.29 2604.04,-55 2475.76,-29.49 2320.8,-17.31 2249.88,-12.74"/>
<polygon fill="#63b8ff" stroke="#63b8ff" points="2250.15,-9.25 2239.95,-12.12 2249.71,-16.24 2250.15,-9.25"/>
</g>
<!-- Node29&#45;&gt;Node2 -->
<g id="edge30" class="edge">
<title>Node29&#45;&gt;Node2</title>
<path fill="none" stroke="#63b8ff" d="M2285.77,-54.51C2272.11,-46.47 2251.84,-34.53 2235.86,-25.11"/>
<polygon fill="#63b8ff" stroke="#63b8ff" points="2237.78,-22.18 2227.39,-20.13 2234.23,-28.22 2237.78,-22.18"/>
</g>
<!-- Node30&#45;&gt;Node2 -->
<g id="edge32" class="edge">
<title>Node30&#45;&gt;Node2</title>
<path fill="none" stroke="#63b8ff" d="M1739.43,-57.13C1851.9,-46.01 2080.86,-23.37 2172.18,-14.34"/>
<polygon fill="#63b8ff" stroke="#63b8ff" points="2172.51,-17.83 2182.11,-13.36 2171.82,-10.86 2172.51,-17.83"/>
</g>
<!-- Node33&#45;&gt;Node3 -->
<g id="edge40" class="edge">
<title>Node33&#45;&gt;Node3</title>
<path fill="none" stroke="#63b8ff" d="M1844.32,-189.97C1860.6,-199.02 1883.44,-213.17 1899.49,-224.04"/>
<polygon fill="#63b8ff" stroke="#63b8ff" points="1897.48,-226.9 1907.68,-229.75 1901.48,-221.16 1897.48,-226.9"/>
</g>
<!-- Node33&#45;&gt;Node5 -->
<g id="edge34" class="edge">
<title>Node33&#45;&gt;Node5</title>
<path fill="none" stroke="#63b8ff" d="M1835.71,-170.09C1858.65,-150.95 1912.93,-105.65 1941.95,-81.43"/>
<polygon fill="#63b8ff" stroke="#63b8ff" points="1943.82,-84.43 1949.26,-75.33 1939.34,-79.05 1943.82,-84.43"/>
</g>
<!-- Node33&#45;&gt;Node13 -->
<g id="edge35" class="edge">
<title>Node33&#45;&gt;Node13</title>
<path fill="none" stroke="#63b8ff" d="M1779.49,-170.05C1768.26,-168.12 1756.25,-166.27 1745.04,-165 1434.67,-129.71 1056.21,-122.31 942.74,-120.84"/>
<polygon fill="#63b8ff" stroke="#63b8ff" points="942.96,-117.35 932.92,-120.72 942.88,-124.35 942.96,-117.35"/>
</g>
<!-- Node33&#45;&gt;Node35 -->
<g id="edge36" class="edge">
<title>Node33&#45;&gt;Node35</title>
<path fill="none" stroke="#63b8ff" d="M1823.42,-170.37C1821.94,-162.5 1819.7,-150.6 1817.78,-140.39"/>
<polygon fill="#63b8ff" stroke="#63b8ff" points="1821.24,-139.84 1815.95,-130.65 1814.36,-141.13 1821.24,-139.84"/>
</g>
<!-- Node35&#45;&gt;Node2 -->
<g id="edge37" class="edge">
<title>Node35&#45;&gt;Node2</title>
<path fill="none" stroke="#63b8ff" d="M1819.03,-109.73C1827.62,-95.54 1846.66,-67.84 1871.04,-55 1922.71,-27.79 2094.85,-16.15 2172.48,-12.2"/>
<polygon fill="#63b8ff" stroke="#63b8ff" points="2172.34,-15.71 2182.15,-11.72 2171.99,-8.72 2172.34,-15.71"/>
</g>
<!-- Node35&#45;&gt;Node3 -->
<g id="edge38" class="edge">
<title>Node35&#45;&gt;Node3</title>
<path fill="none" stroke="#63b8ff" d="M1770.76,-126.53C1716.95,-135.79 1635.88,-156.61 1668.04,-195 1690.65,-221.99 1782.4,-232.63 1848.19,-236.81"/>
<polygon fill="#63b8ff" stroke="#63b8ff" points="1847.63,-240.28 1857.82,-237.38 1848.05,-233.29 1847.63,-240.28"/>
</g>
<!-- Node35&#45;&gt;Node5 -->
<g id="edge39" class="edge">
<title>Node35&#45;&gt;Node5</title>
<path fill="none" stroke="#63b8ff" d="M1838.98,-109.51C1862.88,-100.89 1899.18,-87.8 1925.99,-78.14"/>
<polygon fill="#63b8ff" stroke="#63b8ff" points="1926.83,-81.56 1935.05,-74.87 1924.45,-74.97 1926.83,-81.56"/>
</g>
<!-- Node42&#45;&gt;Node2 -->
<g id="edge42" class="edge">
<title>Node42&#45;&gt;Node2</title>
<path fill="none" stroke="#63b8ff" d="M2136.31,-54.51C2149.97,-46.47 2170.24,-34.53 2186.22,-25.11"/>
<polygon fill="#63b8ff" stroke="#63b8ff" points="2187.85,-28.22 2194.69,-20.13 2184.3,-22.18 2187.85,-28.22"/>
</g>
<!-- Node43&#45;&gt;Node2 -->
<g id="edge44" class="edge">
<title>Node43&#45;&gt;Node2</title>
<path fill="none" stroke="#63b8ff" d="M2916.73,-170.13C2932.82,-147.67 2970.1,-88.01 2939.04,-55 2915.23,-29.69 2396.79,-15.06 2249.66,-11.41"/>
<polygon fill="#63b8ff" stroke="#63b8ff" points="2250.13,-7.92 2240.05,-11.17 2249.96,-14.92 2250.13,-7.92"/>
</g>
<!-- Node44&#45;&gt;Node2 -->
<g id="edge46" class="edge">
<title>Node44&#45;&gt;Node2</title>
<path fill="none" stroke="#63b8ff" d="M1052.7,-569.36C898.97,-568.44 505.21,-562.38 380.04,-525 193.58,-469.32 0.04,-502.1 0.04,-307.5 0.04,-307.5 0.04,-307.5 0.04,-118.5 0.04,-88.33 -0.6,-72.4 24.04,-55 69.72,-22.74 1883.8,-12.17 2172.49,-10.69"/>
<polygon fill="#63b8ff" stroke="#63b8ff" points="2172.12,-14.19 2182.1,-10.64 2172.08,-7.19 2172.12,-14.19"/>
</g>
<!-- Node44&#45;&gt;Node3 -->
<g id="edge47" class="edge">
<title>Node44&#45;&gt;Node3</title>
<path fill="none" stroke="#63b8ff" d="M1177.39,-569.94C1333.75,-569.39 1730.04,-556.93 1730.04,-445 1730.04,-445 1730.04,-445 1730.04,-377 1730.04,-308.16 1814.01,-270.81 1869.72,-253.61"/>
<polygon fill="#63b8ff" stroke="#63b8ff" points="1870.4,-257.06 1879,-250.87 1868.41,-250.35 1870.4,-257.06"/>
</g>
<!-- Node45 -->
<g id="node27" class="node">
<title>Node45</title>
<g id="a_node27"><a xlink:href="SpaceND_8h_source.html" target="_top" xlink:title=" ">
<polygon fill="#fff0f0" stroke="red" points="1506.54,-316 1381.54,-316 1381.54,-297 1506.54,-297 1506.54,-316"/>
<text text-anchor="middle" x="1444.04" y="-304" font-family="FreeSans" font-size="10.00">DGtal/kernel/SpaceND.h</text>
</a>
</g>
</g>
<!-- Node44&#45;&gt;Node45 -->
<g id="edge48" class="edge">
<title>Node44&#45;&gt;Node45</title>
<path fill="none" stroke="#63b8ff" d="M1122.81,-560.75C1135.82,-546.31 1163.16,-516.91 1189.04,-495 1248.9,-444.32 1270.24,-439.98 1333.04,-393 1350.27,-380.11 1354.03,-376.18 1371.04,-363 1388.42,-349.53 1408.3,-334.44 1422.92,-323.4"/>
<polygon fill="#63b8ff" stroke="#63b8ff" points="1425.02,-326.2 1430.9,-317.38 1420.8,-320.61 1425.02,-326.2"/>
</g>
<!-- Node66 -->
<g id="node28" class="node">
<title>Node66</title>
<g id="a_node28"><a xlink:href="HyperRectDomain_8h_source.html" target="_top" xlink:title=" ">
<polygon fill="#fff0f0" stroke="red" points="215.54,-321.5 104.54,-321.5 104.54,-291.5 215.54,-291.5 215.54,-321.5"/>
<text text-anchor="start" x="112.54" y="-309.5" font-family="FreeSans" font-size="10.00">DGtal/kernel/domains</text>
<text text-anchor="middle" x="160.04" y="-298.5" font-family="FreeSans" font-size="10.00">/HyperRectDomain.h</text>
</a>
</g>
</g>
<!-- Node44&#45;&gt;Node66 -->
<g id="edge51" class="edge">
<title>Node44&#45;&gt;Node66</title>
<path fill="none" stroke="#63b8ff" d="M1052.6,-569.98C907.73,-570.35 552.66,-566.83 442.04,-525 328.45,-482.05 223.17,-376.98 180.3,-330.39"/>
<polygon fill="#63b8ff" stroke="#63b8ff" points="182.91,-328.06 173.6,-323.01 177.73,-332.76 182.91,-328.06"/>
</g>
<!-- Node89 -->
<g id="node29" class="node">
<title>Node89</title>
<g id="a_node29"><a xlink:href="DigitalSetSelector_8h_source.html" target="_top" xlink:title=" ">
<polygon fill="#fff0f0" stroke="red" points="358.04,-321.5 234.04,-321.5 234.04,-291.5 358.04,-291.5 358.04,-321.5"/>
<text text-anchor="start" x="242.04" y="-309.5" font-family="FreeSans" font-size="10.00">DGtal/kernel/sets/Digital</text>
<text text-anchor="middle" x="296.04" y="-298.5" font-family="FreeSans" font-size="10.00">SetSelector.h</text>
</a>
</g>
</g>
<!-- Node44&#45;&gt;Node89 -->
<g id="edge54" class="edge">
<title>Node44&#45;&gt;Node89</title>
<path fill="none" stroke="#63b8ff" d="M1066.46,-560.56C1025.27,-552.57 964.82,-539.84 913.04,-525 706.29,-465.75 660.04,-434.05 457.04,-363 421.09,-350.42 380.56,-336.45 349.16,-325.67"/>
<polygon fill="#63b8ff" stroke="#63b8ff" points="350.48,-322.42 339.88,-322.49 348.21,-329.04 350.48,-322.42"/>
</g>
<!-- Node102 -->
<g id="node30" class="node">
<title>Node102</title>
<g id="a_node30"><a xlink:href="DigitalTopology_8h_source.html" target="_top" xlink:title=" ">
<polygon fill="#fff0f0" stroke="red" points="534.04,-316 376.04,-316 376.04,-297 534.04,-297 534.04,-316"/>
<text text-anchor="middle" x="455.04" y="-304" font-family="FreeSans" font-size="10.00">DGtal/topology/DigitalTopology.h</text>
</a>
</g>
</g>
<!-- Node44&#45;&gt;Node102 -->
<g id="edge57" class="edge">
<title>Node44&#45;&gt;Node102</title>
<path fill="none" stroke="#63b8ff" d="M1090.85,-560.67C1022.01,-535.47 819.27,-460.61 653.04,-393 592.96,-368.57 523.54,-338.05 484.92,-320.87"/>
<polygon fill="#63b8ff" stroke="#63b8ff" points="486.82,-317.89 476.26,-317.02 483.97,-324.28 486.82,-317.89"/>
</g>
<!-- Node109 -->
<g id="node31" class="node">
<title>Node109</title>
<g id="a_node31"><a xlink:href="MetricAdjacency_8h_source.html" target="_top" xlink:title=" ">
<polygon fill="#fff0f0" stroke="red" points="1324.04,-387.5 1160.04,-387.5 1160.04,-368.5 1324.04,-368.5 1324.04,-387.5"/>
<text text-anchor="middle" x="1242.04" y="-375.5" font-family="FreeSans" font-size="10.00">DGtal/topology/MetricAdjacency.h</text>
</a>
</g>
</g>
<!-- Node44&#45;&gt;Node109 -->
<g id="edge60" class="edge">
<title>Node44&#45;&gt;Node109</title>
<path fill="none" stroke="#63b8ff" d="M1113.96,-560.53C1111.57,-536.54 1108.28,-469.96 1139.04,-429 1152.38,-411.23 1173.72,-399.44 1193.51,-391.81"/>
<polygon fill="#63b8ff" stroke="#63b8ff" points="1194.62,-395.13 1202.87,-388.48 1192.27,-388.53 1194.62,-395.13"/>
</g>
<!-- Node112 -->
<g id="node33" class="node">
<title>Node112</title>
<g id="a_node33"><a xlink:href="Object_8h_source.html" target="_top" xlink:title=" ">
<polygon fill="#fff0f0" stroke="red" points="448.04,-387.5 326.04,-387.5 326.04,-368.5 448.04,-368.5 448.04,-387.5"/>
<text text-anchor="middle" x="387.04" y="-375.5" font-family="FreeSans" font-size="10.00">DGtal/topology/Object.h</text>
</a>
</g>
</g>
<!-- Node44&#45;&gt;Node112 -->
<g id="edge65" class="edge">
<title>Node44&#45;&gt;Node112</title>
<path fill="none" stroke="#63b8ff" d="M1052.59,-568.34C901.76,-565.08 526.46,-554.13 478.04,-525 430.16,-496.19 403.66,-431.51 392.86,-398.78"/>
<polygon fill="#63b8ff" stroke="#63b8ff" points="396.25,-397.89 389.93,-389.38 389.57,-399.97 396.25,-397.89"/>
</g>
<!-- Node44&#45;&gt;Node121 -->
<g id="edge69" class="edge">
<title>Node44&#45;&gt;Node121</title>
<path fill="none" stroke="#63b8ff" d="M1145.96,-560.55C1216.65,-540.08 1391.11,-489.57 1484.21,-462.61"/>
<polygon fill="#63b8ff" stroke="#63b8ff" points="1485.06,-466.01 1493.7,-459.87 1483.12,-459.29 1485.06,-466.01"/>
</g>
<!-- Node122 -->
<g id="node35" class="node">
<title>Node122</title>
<g id="a_node35"><a xlink:href="KhalimskyPreSpaceND_8h_source.html" target="_top" xlink:title=" ">
<polygon fill="#fff0f0" stroke="red" points="1511.54,-393 1380.54,-393 1380.54,-363 1511.54,-363 1511.54,-393"/>
<text text-anchor="start" x="1388.54" y="-381" font-family="FreeSans" font-size="10.00">DGtal/topology/Khalimsky</text>
<text text-anchor="middle" x="1446.04" y="-370" font-family="FreeSans" font-size="10.00">PreSpaceND.h</text>
</a>
</g>
</g>
<!-- Node44&#45;&gt;Node122 -->
<g id="edge79" class="edge">
<title>Node44&#45;&gt;Node122</title>
<path fill="none" stroke="#63b8ff" d="M1130.56,-560.57C1180.87,-531.61 1340.3,-439.86 1411.32,-398.98"/>
<polygon fill="#63b8ff" stroke="#63b8ff" points="1412.9,-402.11 1419.83,-394.09 1409.41,-396.04 1412.9,-402.11"/>
</g>
<!-- Node44&#45;&gt;Node125 -->
<g id="edge80" class="edge">
<title>Node44&#45;&gt;Node125</title>
<path fill="none" stroke="#63b8ff" d="M1169.19,-560.55C1230.65,-550.39 1331.11,-533.79 1398.62,-522.64"/>
<polygon fill="#63b8ff" stroke="#63b8ff" points="1398.79,-526.16 1408.08,-521.07 1397.64,-519.25 1398.79,-526.16"/>
</g>
<!-- Node153 -->
<g id="node37" class="node">
<title>Node153</title>
<g id="a_node37"><a xlink:href="ExactPredicateLpSeparableMetric_8h_source.html" target="_top" xlink:title=" ">
<polygon fill="#fff0f0" stroke="red" points="884.04,-327 704.04,-327 704.04,-286 884.04,-286 884.04,-327"/>
<text text-anchor="start" x="712.04" y="-315" font-family="FreeSans" font-size="10.00">DGtal/geometry/volumes</text>
<text text-anchor="start" x="712.04" y="-304" font-family="FreeSans" font-size="10.00">/distance/ExactPredicateLpSeparable</text>
<text text-anchor="middle" x="794.04" y="-293" font-family="FreeSans" font-size="10.00">Metric.h</text>
</a>
</g>
</g>
<!-- Node44&#45;&gt;Node153 -->
<g id="edge85" class="edge">
<title>Node44&#45;&gt;Node153</title>
<path fill="none" stroke="#63b8ff" d="M1099.59,-560.58C1085.11,-552.01 1063.06,-538.42 1045.04,-525 960.32,-461.91 868.32,-377.73 822.84,-334.96"/>
<polygon fill="#63b8ff" stroke="#63b8ff" points="825.42,-332.58 815.74,-328.26 820.61,-337.67 825.42,-332.58"/>
</g>
<!-- Node158 -->
<g id="node38" class="node">
<title>Node158</title>
<g id="a_node38"><a xlink:href="ExactPredicateLpPowerSeparableMetric_8h_source.html" target="_top" xlink:title=" ">
<polygon fill="#fff0f0" stroke="red" points="1066.04,-327 902.04,-327 902.04,-286 1066.04,-286 1066.04,-327"/>
<text text-anchor="start" x="910.04" y="-315" font-family="FreeSans" font-size="10.00">DGtal/geometry/volumes</text>
<text text-anchor="start" x="910.04" y="-304" font-family="FreeSans" font-size="10.00">/distance/ExactPredicateLpPower</text>
<text text-anchor="middle" x="984.04" y="-293" font-family="FreeSans" font-size="10.00">SeparableMetric.h</text>
</a>
</g>
</g>
<!-- Node44&#45;&gt;Node158 -->
<g id="edge89" class="edge">
<title>Node44&#45;&gt;Node158</title>
<path fill="none" stroke="#63b8ff" d="M1105.61,-560.71C1087.34,-543.15 1046.95,-501.71 1025.04,-459 1004.97,-419.87 993.91,-369.87 988.48,-338.25"/>
<polygon fill="#63b8ff" stroke="#63b8ff" points="991.97,-337.9 986.91,-328.59 985.06,-339.02 991.97,-337.9"/>
</g>
<!-- Node45&#45;&gt;Node2 -->
<g id="edge49" class="edge">
<title>Node45&#45;&gt;Node2</title>
<path fill="none" stroke="#63b8ff" d="M1381.09,-304.33C1205.01,-299.06 729.72,-270.02 878.04,-110 968.33,-12.59 1963.14,-9.83 2172.51,-10.33"/>
<polygon fill="#63b8ff" stroke="#63b8ff" points="2172.28,-13.83 2182.29,-10.36 2172.3,-6.83 2172.28,-13.83"/>
</g>
<!-- Node45&#45;&gt;Node3 -->
<g id="edge50" class="edge">
<title>Node45&#45;&gt;Node3</title>
<path fill="none" stroke="#63b8ff" d="M1475.3,-296.55C1489.21,-292.84 1505.84,-288.76 1521.04,-286 1634.53,-265.37 1768.13,-252.76 1847.8,-246.46"/>
<polygon fill="#63b8ff" stroke="#63b8ff" points="1847.95,-249.96 1857.65,-245.69 1847.4,-242.98 1847.95,-249.96"/>
</g>
<!-- Node66&#45;&gt;Node2 -->
<g id="edge52" class="edge">
<title>Node66&#45;&gt;Node2</title>
<path fill="none" stroke="#63b8ff" d="M185.87,-291.09C218.1,-270.99 269.04,-231.27 269.04,-181 269.04,-181 269.04,-181 269.04,-118.5 269.04,-62.82 323.49,-70.28 377.04,-55 555.11,-4.2 1923.25,-8.97 2172.23,-10.27"/>
<polygon fill="#63b8ff" stroke="#63b8ff" points="2172.02,-13.77 2182.04,-10.33 2172.06,-6.77 2172.02,-13.77"/>
</g>
<!-- Node66&#45;&gt;Node3 -->
<g id="edge53" class="edge">
<title>Node66&#45;&gt;Node3</title>
<path fill="none" stroke="#63b8ff" d="M202.32,-291.06C209.81,-289.01 217.6,-287.19 225.04,-286 386.72,-260.1 1548.93,-245.58 1848,-242.25"/>
<polygon fill="#63b8ff" stroke="#63b8ff" points="1847.63,-245.75 1857.6,-242.14 1847.56,-238.75 1847.63,-245.75"/>
</g>
<!-- Node89&#45;&gt;Node2 -->
<g id="edge55" class="edge">
<title>Node89&#45;&gt;Node2</title>
<path fill="none" stroke="#63b8ff" d="M308.18,-291.25C325.71,-269.17 356.04,-224.67 356.04,-181 356.04,-181 356.04,-181 356.04,-118.5 356.04,-50.58 428.87,-70.3 495.04,-55 663.33,-16.09 1934.15,-11.16 2172.56,-10.57"/>
<polygon fill="#63b8ff" stroke="#63b8ff" points="2172.23,-14.08 2182.23,-10.55 2172.22,-7.08 2172.23,-14.08"/>
</g>
<!-- Node89&#45;&gt;Node3 -->
<g id="edge56" class="edge">
<title>Node89&#45;&gt;Node3</title>
<path fill="none" stroke="#63b8ff" d="M342.29,-291.09C350.47,-289.03 358.95,-287.21 367.04,-286 658.6,-242.42 1585.34,-240.83 1848.03,-241.29"/>
<polygon fill="#63b8ff" stroke="#63b8ff" points="1847.78,-244.79 1857.78,-241.31 1847.79,-237.79 1847.78,-244.79"/>
</g>
<!-- Node102&#45;&gt;Node2 -->
<g id="edge58" class="edge">
<title>Node102&#45;&gt;Node2</title>
<path fill="none" stroke="#63b8ff" d="M457.98,-296.55C464.39,-276.25 479.04,-225.03 479.04,-181 479.04,-181 479.04,-181 479.04,-118.5 479.04,-82.85 496.26,-71.14 528.04,-55 603.68,-16.58 1926.77,-11.25 2172.08,-10.59"/>
<polygon fill="#63b8ff" stroke="#63b8ff" points="2172.07,-14.09 2182.06,-10.56 2172.05,-7.09 2172.07,-14.09"/>
</g>
<!-- Node102&#45;&gt;Node3 -->
<g id="edge59" class="edge">
<title>Node102&#45;&gt;Node3</title>
<path fill="none" stroke="#63b8ff" d="M534.43,-298.15C581.15,-294.05 641.41,-289.15 695.04,-286 1133.14,-260.25 1660.44,-247.08 1847.81,-242.96"/>
<polygon fill="#63b8ff" stroke="#63b8ff" points="1847.69,-246.46 1857.62,-242.74 1847.54,-239.46 1847.69,-246.46"/>
</g>
<!-- Node109&#45;&gt;Node2 -->
<g id="edge61" class="edge">
<title>Node109&#45;&gt;Node2</title>
<path fill="none" stroke="#63b8ff" d="M1159.77,-369.23C1137.47,-367.16 1113.33,-364.96 1091.04,-363 1043.06,-358.78 696.19,-357.66 659.04,-327 607.06,-284.09 618.04,-248.4 618.04,-181 618.04,-181 618.04,-181 618.04,-118.5 618.04,-79.98 641.95,-70.9 677.04,-55 747.15,-23.22 1940.93,-12.55 2172.36,-10.78"/>
<polygon fill="#63b8ff" stroke="#63b8ff" points="2172.36,-14.28 2182.33,-10.7 2172.31,-7.28 2172.36,-14.28"/>
</g>
<!-- Node109&#45;&gt;Node3 -->
<g id="edge63" class="edge">
<title>Node109&#45;&gt;Node3</title>
<path fill="none" stroke="#63b8ff" d="M1250.83,-368.24C1270.52,-349.27 1320.47,-304.59 1372.04,-286 1457.72,-255.11 1720.79,-245.53 1847.88,-242.67"/>
<polygon fill="#63b8ff" stroke="#63b8ff" points="1847.94,-246.17 1857.86,-242.45 1847.79,-239.17 1847.94,-246.17"/>
</g>
<!-- Node109&#45;&gt;Node45 -->
<g id="edge64" class="edge">
<title>Node109&#45;&gt;Node45</title>
<path fill="none" stroke="#63b8ff" d="M1268.03,-368.06C1303.49,-355.86 1367.19,-333.94 1407.45,-320.09"/>
<polygon fill="#63b8ff" stroke="#63b8ff" points="1408.4,-323.46 1416.71,-316.9 1406.12,-316.85 1408.4,-323.46"/>
</g>
<!-- Node91 -->
<g id="node32" class="node">
<title>Node91</title>
<g id="a_node32"><a xlink:title=" ">
<polygon fill="#e0e0e0" stroke="#999999" points="1593.04,-316 1563.04,-316 1563.04,-297 1593.04,-297 1593.04,-316"/>
<text text-anchor="middle" x="1578.04" y="-304" font-family="FreeSans" font-size="10.00">set</text>
</a>
</g>
</g>
<!-- Node109&#45;&gt;Node91 -->
<g id="edge62" class="edge">
<title>Node109&#45;&gt;Node91</title>
<path fill="none" stroke="#63b8ff" d="M1302.66,-368.02C1358.27,-359.28 1442.74,-344.74 1515.04,-327 1527.25,-324 1540.59,-319.99 1551.83,-316.38"/>
<polygon fill="#63b8ff" stroke="#63b8ff" points="1552.8,-319.74 1561.21,-313.3 1550.62,-313.09 1552.8,-319.74"/>
</g>
<!-- Node112&#45;&gt;Node2 -->
<g id="edge66" class="edge">
<title>Node112&#45;&gt;Node2</title>
<path fill="none" stroke="#63b8ff" d="M325.68,-374.35C249.99,-369.8 127.35,-357.77 95.04,-327 66.85,-300.16 76.04,-280.43 76.04,-241.5 76.04,-241.5 76.04,-241.5 76.04,-118.5 76.04,-17.16 194.88,-70.42 295.04,-55 486.74,-25.49 1918.78,-12.82 2172.63,-10.79"/>
<polygon fill="#63b8ff" stroke="#63b8ff" points="2172.33,-14.3 2182.3,-10.72 2172.28,-7.3 2172.33,-14.3"/>
</g>
<!-- Node112&#45;&gt;Node3 -->
<g id="edge67" class="edge">
<title>Node112&#45;&gt;Node3</title>
<path fill="none" stroke="#63b8ff" d="M448.47,-374.81C569.03,-370 844.89,-356.52 1075.04,-327 1174.56,-314.23 1197.51,-298.72 1297.04,-286 1495.8,-260.6 1732.35,-248.65 1847.72,-243.99"/>
<polygon fill="#63b8ff" stroke="#63b8ff" points="1847.81,-247.49 1857.66,-243.6 1847.53,-240.5 1847.81,-247.49"/>
</g>
<!-- Node112&#45;&gt;Node89 -->
<g id="edge68" class="edge">
<title>Node112&#45;&gt;Node89</title>
<path fill="none" stroke="#63b8ff" d="M375.52,-368.2C362.6,-358.34 341.21,-342 323.87,-328.75"/>
<polygon fill="#63b8ff" stroke="#63b8ff" points="326,-325.98 315.93,-322.69 321.76,-331.54 326,-325.98"/>
</g>
<!-- Node121&#45;&gt;Node2 -->
<g id="edge70" class="edge">
<title>Node121&#45;&gt;Node2</title>
<path fill="none" stroke="#63b8ff" d="M1479.17,-438.85C1279.12,-425.7 688.25,-382.46 623.04,-327 571.51,-283.18 580.04,-248.64 580.04,-181 580.04,-181 580.04,-181 580.04,-118.5 580.04,-80.28 603.29,-70.92 638.04,-55 709.91,-22.09 1937.86,-12.31 2172.48,-10.74"/>
<polygon fill="#63b8ff" stroke="#63b8ff" points="2172.31,-14.24 2182.29,-10.68 2172.27,-7.24 2172.31,-14.24"/>
</g>
<!-- Node121&#45;&gt;Node3 -->
<g id="edge72" class="edge">
<title>Node121&#45;&gt;Node3</title>
<path fill="none" stroke="#63b8ff" d="M1555.19,-428.72C1580.46,-393.56 1646.45,-304.33 1678.04,-286 1729.82,-255.97 1797.52,-245.53 1847.81,-242.2"/>
<polygon fill="#63b8ff" stroke="#63b8ff" points="1847.94,-245.7 1857.72,-241.64 1847.54,-238.71 1847.94,-245.7"/>
</g>
<!-- Node121&#45;&gt;Node45 -->
<g id="edge73" class="edge">
<title>Node121&#45;&gt;Node45</title>
<path fill="none" stroke="#63b8ff" d="M1543.35,-428.79C1540.74,-411.79 1534.44,-383.11 1520.04,-363 1507.71,-345.78 1488.39,-331.77 1472.31,-322.14"/>
<polygon fill="#63b8ff" stroke="#63b8ff" points="1474.05,-319.1 1463.63,-317.2 1470.59,-325.19 1474.05,-319.1"/>
</g>
<!-- Node121&#45;&gt;Node91 -->
<g id="edge71" class="edge">
<title>Node121&#45;&gt;Node91</title>
<path fill="none" stroke="#63b8ff" d="M1548.51,-428.76C1554.42,-404.48 1566.46,-355.04 1573.2,-327.38"/>
<polygon fill="#63b8ff" stroke="#63b8ff" points="1576.56,-328.38 1575.52,-317.84 1569.76,-326.72 1576.56,-328.38"/>
</g>
<!-- Node121&#45;&gt;Node122 -->
<g id="edge74" class="edge">
<title>Node121&#45;&gt;Node122</title>
<path fill="none" stroke="#63b8ff" d="M1523.07,-428.8C1509.7,-420.16 1492.41,-408.98 1477.6,-399.4"/>
<polygon fill="#63b8ff" stroke="#63b8ff" points="1479.86,-396.7 1469.56,-394.21 1476.06,-402.58 1479.86,-396.7"/>
</g>
<!-- Node122&#45;&gt;Node2 -->
<g id="edge75" class="edge">
<title>Node122&#45;&gt;Node2</title>
<path fill="none" stroke="#63b8ff" d="M1380.09,-368.08C1364.67,-366.2 1348.3,-364.37 1333.04,-363 1262.32,-356.63 750.11,-371.81 695.04,-327 642.95,-284.61 656.04,-248.16 656.04,-181 656.04,-181 656.04,-181 656.04,-118.5 656.04,-78.43 683.22,-70.81 720.04,-55 788.67,-25.52 1944.92,-13.03 2172.38,-10.85"/>
<polygon fill="#63b8ff" stroke="#63b8ff" points="2172.2,-14.36 2182.17,-10.76 2172.14,-7.36 2172.2,-14.36"/>
</g>
<!-- Node122&#45;&gt;Node3 -->
<g id="edge77" class="edge">
<title>Node122&#45;&gt;Node3</title>
<path fill="none" stroke="#63b8ff" d="M1467.95,-362.65C1481.91,-353.14 1500.12,-340.05 1515.04,-327 1533.97,-310.44 1531.57,-297.3 1554.04,-286 1604.02,-260.86 1756.91,-249.27 1847.87,-244.47"/>
<polygon fill="#63b8ff" stroke="#63b8ff" points="1847.87,-247.97 1857.67,-243.97 1847.51,-240.98 1847.87,-247.97"/>
</g>
<!-- Node122&#45;&gt;Node45 -->
<g id="edge78" class="edge">
<title>Node122&#45;&gt;Node45</title>
<path fill="none" stroke="#63b8ff" d="M1445.63,-362.6C1445.33,-352.43 1444.94,-338.67 1444.61,-327.45"/>
<polygon fill="#63b8ff" stroke="#63b8ff" points="1448.12,-327.59 1444.33,-317.69 1441.12,-327.79 1448.12,-327.59"/>
</g>
<!-- Node122&#45;&gt;Node91 -->
<g id="edge76" class="edge">
<title>Node122&#45;&gt;Node91</title>
<path fill="none" stroke="#63b8ff" d="M1478.65,-362.59C1499.22,-353.16 1526.12,-340.18 1549.04,-327 1551.39,-325.65 1553.81,-324.17 1556.19,-322.66"/>
<polygon fill="#63b8ff" stroke="#63b8ff" points="1557.92,-325.71 1564.32,-317.27 1554.05,-319.88 1557.92,-325.71"/>
</g>
<!-- Node125&#45;&gt;Node2 -->
<g id="edge81" class="edge">
<title>Node125&#45;&gt;Node2</title>
<path fill="none" stroke="#63b8ff" d="M1409.64,-499.81C1345.56,-489.86 1240.54,-473.49 1150.04,-459 1022.94,-438.66 672.47,-422.39 586.04,-327 540.54,-276.78 542.04,-248.77 542.04,-181 542.04,-181 542.04,-181 542.04,-118.5 542.04,-80.58 564.62,-70.93 599.04,-55 672.63,-20.94 1933.74,-12.08 2172.28,-10.71"/>
<polygon fill="#63b8ff" stroke="#63b8ff" points="2172.29,-14.21 2182.27,-10.65 2172.25,-7.21 2172.29,-14.21"/>
</g>
<!-- Node125&#45;&gt;Node3 -->
<g id="edge82" class="edge">
<title>Node125&#45;&gt;Node3</title>
<path fill="none" stroke="#63b8ff" d="M1528.46,-499.69C1558.24,-492.59 1593.33,-480.25 1619.04,-459 1686.98,-402.84 1645.25,-338.52 1716.04,-286 1753.95,-257.87 1806.19,-246.9 1848.04,-242.88"/>
<polygon fill="#63b8ff" stroke="#63b8ff" points="1848.09,-246.39 1857.76,-242.07 1847.51,-239.41 1848.09,-246.39"/>
</g>
<!-- Node125&#45;&gt;Node33 -->
<g id="edge83" class="edge">
<title>Node125&#45;&gt;Node33</title>
<path fill="none" stroke="#63b8ff" d="M1409.74,-505.07C1301.98,-495.4 1090.49,-463.4 1151.04,-363 1188.93,-300.18 1227.9,-310.52 1297.04,-286 1340.86,-270.46 1635.59,-215.63 1764.67,-191.99"/>
<polygon fill="#63b8ff" stroke="#63b8ff" points="1765.2,-195.45 1774.41,-190.21 1763.94,-188.56 1765.2,-195.45"/>
</g>
<!-- Node125&#45;&gt;Node121 -->
<g id="edge84" class="edge">
<title>Node125&#45;&gt;Node121</title>
<path fill="none" stroke="#63b8ff" d="M1485.91,-494.8C1495.68,-486.57 1508.18,-476.04 1519.17,-466.78"/>
<polygon fill="#63b8ff" stroke="#63b8ff" points="1521.41,-469.48 1526.8,-460.36 1516.9,-464.12 1521.41,-469.48"/>
</g>
<!-- Node153&#45;&gt;Node2 -->
<g id="edge86" class="edge">
<title>Node153&#45;&gt;Node2</title>
<path fill="none" stroke="#63b8ff" d="M763.49,-285.64C734.09,-263.84 694.04,-225.91 694.04,-181 694.04,-181 694.04,-181 694.04,-118.5 694.04,-69.91 737,-70.54 783.04,-55 917.83,-9.52 1957.83,-9.82 2172.39,-10.37"/>
<polygon fill="#63b8ff" stroke="#63b8ff" points="2172.14,-13.87 2182.15,-10.4 2172.16,-6.87 2172.14,-13.87"/>
</g>
<!-- Node153&#45;&gt;Node3 -->
<g id="edge88" class="edge">
<title>Node153&#45;&gt;Node3</title>
<path fill="none" stroke="#63b8ff" d="M884.32,-287.13C887.26,-286.72 890.17,-286.34 893.04,-286 1250.27,-243.31 1681.88,-240.28 1848.11,-240.91"/>
<polygon fill="#63b8ff" stroke="#63b8ff" points="1847.61,-244.4 1857.63,-240.95 1847.64,-237.4 1847.61,-244.4"/>
</g>
<!-- Node153&#45;&gt;Node13 -->
<g id="edge87" class="edge">
<title>Node153&#45;&gt;Node13</title>
<path fill="none" stroke="#63b8ff" d="M801.24,-285.69C812.08,-257.35 834.41,-204.33 863.04,-165 870.51,-154.73 880.48,-144.76 889.23,-136.87"/>
<polygon fill="#63b8ff" stroke="#63b8ff" points="891.35,-139.67 896.61,-130.47 886.76,-134.38 891.35,-139.67"/>
</g>
<!-- Node158&#45;&gt;Node2 -->
<g id="edge90" class="edge">
<title>Node158&#45;&gt;Node2</title>
<path fill="none" stroke="#63b8ff" d="M928.93,-285.59C865.52,-260.95 770.04,-217.75 770.04,-181 770.04,-181 770.04,-181 770.04,-118.5 770.04,-28.2 874.15,-70.88 963.04,-55 1203.61,-12.03 1988.27,-10.23 2172.21,-10.41"/>
<polygon fill="#63b8ff" stroke="#63b8ff" points="2172.16,-13.91 2182.17,-10.43 2172.17,-6.91 2172.16,-13.91"/>
</g>
<!-- Node158&#45;&gt;Node3 -->
<g id="edge92" class="edge">
<title>Node158&#45;&gt;Node3</title>
<path fill="none" stroke="#63b8ff" d="M1066.43,-297.56C1106.95,-293.79 1156.53,-289.38 1201.04,-286 1438.25,-267.98 1720.02,-252.11 1848.26,-245.19"/>
<polygon fill="#63b8ff" stroke="#63b8ff" points="1848.14,-248.7 1857.94,-244.67 1847.77,-241.71 1848.14,-248.7"/>
</g>
<!-- Node158&#45;&gt;Node13 -->
<g id="edge91" class="edge">
<title>Node158&#45;&gt;Node13</title>
<path fill="none" stroke="#63b8ff" d="M952.32,-285.66C924.73,-266.34 886.64,-234.22 870.04,-195 864.84,-182.72 865.35,-177.48 870.04,-165 874.08,-154.27 882.01,-144.43 889.67,-136.76"/>
<polygon fill="#63b8ff" stroke="#63b8ff" points="891.62,-139.72 896.57,-130.36 886.86,-134.59 891.62,-139.72"/>
</g>
<!-- Node160&#45;&gt;Node2 -->
<g id="edge95" class="edge">
<title>Node160&#45;&gt;Node2</title>
<path fill="none" stroke="#63b8ff" d="M2823.13,-296.52C2906.66,-278.58 3077.04,-235.33 3077.04,-181 3077.04,-181 3077.04,-181 3077.04,-118.5 3077.04,-88.33 3077.4,-72.8 3053.04,-55 2987.67,-7.23 2406.44,-8.79 2249.79,-10.1"/>
<polygon fill="#63b8ff" stroke="#63b8ff" points="2249.91,-6.59 2239.94,-10.18 2249.97,-13.59 2249.91,-6.59"/>
</g>
<!-- Node160&#45;&gt;Node3 -->
<g id="edge96" class="edge">
<title>Node160&#45;&gt;Node3</title>
<path fill="none" stroke="#63b8ff" d="M2696.36,-299.42C2528.24,-286.91 2146.1,-258.47 1988.26,-246.73"/>
<polygon fill="#63b8ff" stroke="#63b8ff" points="1988.58,-243.24 1978.34,-245.99 1988.06,-250.22 1988.58,-243.24"/>
</g>
<!-- Node163&#45;&gt;Node2 -->
<g id="edge98" class="edge">
<title>Node163&#45;&gt;Node2</title>
<path fill="none" stroke="#63b8ff" d="M2434.45,-368.01C2480.53,-359.91 2546.47,-346.29 2602.04,-327 2641.66,-313.25 2647.62,-300.34 2687.04,-286 2825.19,-235.75 2907.68,-305.14 3005.04,-195 3030.31,-166.41 3027.47,-146.7 3017.04,-110 3009.19,-82.36 3007.73,-69.71 2983.04,-55 2919.74,-17.28 2397.18,-11.53 2249.68,-10.66"/>
<polygon fill="#63b8ff" stroke="#63b8ff" points="2250.07,-7.16 2240.05,-10.6 2250.03,-14.16 2250.07,-7.16"/>
</g>
<!-- Node163&#45;&gt;Node3 -->
<g id="edge100" class="edge">
<title>Node163&#45;&gt;Node3</title>
<path fill="none" stroke="#63b8ff" d="M2348.68,-368.01C2323.58,-359.4 2286.46,-345.07 2257.04,-327 2233.13,-312.31 2234.55,-297.68 2209.04,-286 2138.43,-253.67 2049.11,-244.04 1988.18,-241.56"/>
<polygon fill="#63b8ff" stroke="#63b8ff" points="1988.39,-238.06 1978.28,-241.21 1988.15,-245.06 1988.39,-238.06"/>
</g>
<!-- Node163&#45;&gt;Node91 -->
<g id="edge99" class="edge">
<title>Node163&#45;&gt;Node91</title>
<path fill="none" stroke="#63b8ff" d="M2299.34,-370.24C2125.82,-355.15 1713.5,-319.28 1604.73,-309.82"/>
<polygon fill="#63b8ff" stroke="#63b8ff" points="1605.04,-306.34 1594.78,-308.96 1604.43,-313.31 1605.04,-306.34"/>
</g>
<!-- Node172&#45;&gt;Node2 -->
<g id="edge102" class="edge">
<title>Node172&#45;&gt;Node2</title>
<path fill="none" stroke="#63b8ff" d="M2694.86,-368.22C2710.45,-366.45 2726.78,-364.63 2742.04,-363 2823.09,-354.35 3038.58,-371.22 3107.04,-327 3138.48,-306.69 3191.04,-218.43 3191.04,-181 3191.04,-181 3191.04,-181 3191.04,-118.5 3191.04,-85.38 3180.56,-71.85 3152.04,-55 3073.53,-8.61 2417.57,-9.28 2249.93,-10.22"/>
<polygon fill="#63b8ff" stroke="#63b8ff" points="2249.99,-6.72 2240.01,-10.28 2250.03,-13.72 2249.99,-6.72"/>
</g>
<!-- Node172&#45;&gt;Node3 -->
<g id="edge103" class="edge">
<title>Node172&#45;&gt;Node3</title>
<path fill="none" stroke="#63b8ff" d="M2545.22,-370.27C2463.47,-362.09 2338.37,-346.86 2295.04,-327 2269.54,-315.31 2272.65,-297.46 2247.04,-286 2202.13,-265.91 2070.8,-252.82 1988.29,-246.34"/>
<polygon fill="#63b8ff" stroke="#63b8ff" points="1988.74,-242.86 1978.5,-245.58 1988.2,-249.84 1988.74,-242.86"/>
</g>
<!-- Node172&#45;&gt;Node160 -->
<g id="edge104" class="edge">
<title>Node172&#45;&gt;Node160</title>
<path fill="none" stroke="#63b8ff" d="M2640.37,-368.06C2667.51,-356.12 2715.81,-334.87 2747.38,-320.99"/>
<polygon fill="#63b8ff" stroke="#63b8ff" points="2748.66,-324.25 2756.4,-317.02 2745.84,-317.84 2748.66,-324.25"/>
</g>
<!-- Node178&#45;&gt;Node2 -->
<g id="edge106" class="edge">
<title>Node178&#45;&gt;Node2</title>
<path fill="none" stroke="#63b8ff" d="M2451.37,-443.34C2573.64,-442.58 2806.68,-435.4 2876.04,-393 2924.32,-363.48 2902.41,-323.21 2945.04,-286 3011.94,-227.6 3115.04,-269.81 3115.04,-181 3115.04,-181 3115.04,-181 3115.04,-118.5 3115.04,-85.38 3104.52,-71.91 3076.04,-55 3004.37,-12.46 2408.09,-10.23 2249.6,-10.39"/>
<polygon fill="#63b8ff" stroke="#63b8ff" points="2250.05,-6.89 2240.05,-10.41 2250.06,-13.89 2250.05,-6.89"/>
</g>
<!-- Node178&#45;&gt;Node3 -->
<g id="edge107" class="edge">
<title>Node178&#45;&gt;Node3</title>
<path fill="none" stroke="#63b8ff" d="M2348.36,-428.68C2331.28,-419.18 2308.87,-406.1 2290.04,-393 2251.92,-366.48 2242.91,-358.77 2209.04,-327 2190.92,-310 2192.86,-297.88 2171.04,-286 2114.57,-255.25 2041.47,-245.02 1988.37,-241.95"/>
<polygon fill="#63b8ff" stroke="#63b8ff" points="1988.69,-238.46 1978.53,-241.46 1988.35,-245.45 1988.69,-238.46"/>
</g>
<!-- Node178&#45;&gt;Node163 -->
<g id="edge108" class="edge">
<title>Node178&#45;&gt;Node163</title>
<path fill="none" stroke="#63b8ff" d="M2375.48,-428.8C2375.76,-420.09 2376.11,-408.81 2376.41,-399.18"/>
<polygon fill="#63b8ff" stroke="#63b8ff" points="2379.9,-399.46 2376.72,-389.36 2372.91,-399.24 2379.9,-399.46"/>
</g>
<!-- Node181&#45;&gt;Node2 -->
<g id="edge110" class="edge">
<title>Node181&#45;&gt;Node2</title>
<path fill="none" stroke="#63b8ff" d="M2867.53,-375C2993.2,-370.17 3280.27,-356.06 3313.04,-327 3342.16,-301.17 3332.04,-280.43 3332.04,-241.5 3332.04,-241.5 3332.04,-241.5 3332.04,-118.5 3332.04,-64.34 3279.84,-70.79 3228.04,-55 3133.27,-26.11 2424.26,-13.69 2249.76,-11.05"/>
<polygon fill="#63b8ff" stroke="#63b8ff" points="2249.92,-7.55 2239.87,-10.9 2249.82,-14.55 2249.92,-7.55"/>
</g>
<!-- Node181&#45;&gt;Node3 -->
<g id="edge111" class="edge">
<title>Node181&#45;&gt;Node3</title>
<path fill="none" stroke="#63b8ff" d="M2750.77,-368.92C2735.27,-366.88 2718.53,-364.77 2703.04,-363 2619.86,-353.52 2404.18,-361.8 2328.04,-327 2304.02,-316.02 2308.92,-297.27 2285.04,-286 2233.97,-261.89 2079.7,-249.9 1988.24,-244.76"/>
<polygon fill="#63b8ff" stroke="#63b8ff" points="1988.55,-241.27 1978.37,-244.22 1988.17,-248.26 1988.55,-241.27"/>
</g>
<!-- Node181&#45;&gt;Node43 -->
<g id="edge112" class="edge">
<title>Node181&#45;&gt;Node43</title>
<path fill="none" stroke="#63b8ff" d="M2831.83,-362.62C2844.19,-353.74 2858.78,-341.32 2868.04,-327 2893.86,-287.06 2904.15,-230.95 2907.97,-201.27"/>
<polygon fill="#63b8ff" stroke="#63b8ff" points="2911.43,-201.8 2909.1,-191.46 2904.48,-201 2911.43,-201.8"/>
</g>
<!-- Node181&#45;&gt;Node160 -->
<g id="edge113" class="edge">
<title>Node181&#45;&gt;Node160</title>
<path fill="none" stroke="#63b8ff" d="M2802.62,-362.6C2797.94,-352.1 2791.55,-337.78 2786.46,-326.37"/>
<polygon fill="#63b8ff" stroke="#63b8ff" points="2789.8,-325.27 2782.53,-317.56 2783.41,-328.12 2789.8,-325.27"/>
</g>
<!-- Node183&#45;&gt;Node2 -->
<g id="edge116" class="edge">
<title>Node183&#45;&gt;Node2</title>
<path fill="none" stroke="#63b8ff" d="M2117.82,-500.27C2131.09,-490.39 2153.27,-473.74 2172.04,-459 2185.33,-448.56 2274.62,-369.92 2290.04,-363 2381.23,-322.07 2416.89,-357.63 2512.04,-327 2543.35,-316.92 2747.7,-209.87 2777.04,-195 2780.61,-193.19 2902.96,-132.42 2905.04,-129 2975.41,-13.55 2405.84,-9.14 2249.85,-10.08"/>
<polygon fill="#63b8ff" stroke="#63b8ff" points="2250.01,-6.57 2240.03,-10.15 2250.06,-13.57 2250.01,-6.57"/>
</g>
<!-- Node183&#45;&gt;Node3 -->
<g id="edge115" class="edge">
<title>Node183&#45;&gt;Node3</title>
<path fill="none" stroke="#63b8ff" d="M2099.79,-500.1C2073.02,-462.02 1967.84,-312.36 1930.93,-259.84"/>
<polygon fill="#63b8ff" stroke="#63b8ff" points="1933.8,-257.84 1925.19,-251.67 1928.08,-261.87 1933.8,-257.84"/>
</g>
<!-- Node183&#45;&gt;Node5 -->
<g id="edge117" class="edge">
<title>Node183&#45;&gt;Node5</title>
<path fill="none" stroke="#63b8ff" d="M2112.01,-500.23C2130.24,-474.22 2188.14,-397.24 2257.04,-363 2350.48,-316.56 2421.15,-406.24 2489.04,-327 2515.05,-296.64 2521.96,-220.4 2471.04,-165 2438.91,-130.04 2114.65,-85.28 2000.52,-70.49"/>
<polygon fill="#63b8ff" stroke="#63b8ff" points="2001.08,-67.03 1990.72,-69.23 2000.19,-73.98 2001.08,-67.03"/>
</g>
<!-- Node183&#45;&gt;Node45 -->
<g id="edge118" class="edge">
<title>Node183&#45;&gt;Node45</title>
<path fill="none" stroke="#63b8ff" d="M2076.74,-500.08C1970.58,-467.77 1605.93,-356.78 1484.06,-319.68"/>
<polygon fill="#63b8ff" stroke="#63b8ff" points="1485.41,-316.43 1474.82,-316.87 1483.37,-323.13 1485.41,-316.43"/>
</g>
<!-- Node183&#45;&gt;Node121 -->
<g id="edge119" class="edge">
<title>Node183&#45;&gt;Node121</title>
<path fill="none" stroke="#63b8ff" d="M2034.13,-500.8C1928.19,-488.71 1730.99,-466.21 1622.15,-453.8"/>
<polygon fill="#63b8ff" stroke="#63b8ff" points="1622.77,-450.34 1612.44,-452.69 1621.97,-457.3 1622.77,-450.34"/>
</g>
<!-- Node209&#45;&gt;Node2 -->
<g id="edge121" class="edge">
<title>Node209&#45;&gt;Node2</title>
<path fill="none" stroke="#63b8ff" d="M3054.69,-296.59C3077.74,-288.06 3109.41,-273.04 3129.04,-250 3150.1,-225.29 3153.04,-213.47 3153.04,-181 3153.04,-181 3153.04,-181 3153.04,-118.5 3153.04,-88.33 3153.44,-72.75 3129.04,-55 3092.97,-28.76 2419.38,-14.41 2249.62,-11.2"/>
<polygon fill="#63b8ff" stroke="#63b8ff" points="2249.87,-7.7 2239.8,-11.01 2249.73,-14.7 2249.87,-7.7"/>
</g>
<!-- Node209&#45;&gt;Node3 -->
<g id="edge122" class="edge">
<title>Node209&#45;&gt;Node3</title>
<path fill="none" stroke="#63b8ff" d="M2962.35,-296.52C2933.59,-292.75 2899.16,-288.65 2868.04,-286 2539.61,-258.08 2145.72,-246.64 1988.17,-242.96"/>
<polygon fill="#63b8ff" stroke="#63b8ff" points="1988.38,-239.47 1978.3,-242.73 1988.22,-246.46 1988.38,-239.47"/>
</g>
<!-- Node205&#45;&gt;Node2 -->
<g id="edge124" class="edge">
<title>Node205&#45;&gt;Node2</title>
<path fill="none" stroke="#63b8ff" d="M1699.15,-628.93C1377.4,-623.49 38.04,-595.77 38.04,-511 38.04,-511 38.04,-511 38.04,-118.5 38.04,-82.58 55.89,-71.02 88.04,-55 184.96,-6.69 1892.92,-9.58 2172.48,-10.37"/>
<polygon fill="#63b8ff" stroke="#63b8ff" points="2172.11,-13.87 2182.12,-10.4 2172.13,-6.87 2172.11,-13.87"/>
</g>
<!-- Node205&#45;&gt;Node3 -->
<g id="edge125" class="edge">
<title>Node205&#45;&gt;Node3</title>
<path fill="none" stroke="#63b8ff" d="M1791.49,-615.69C1833.22,-588.21 1916.04,-523.77 1916.04,-445 1916.04,-445 1916.04,-445 1916.04,-377 1916.04,-336.14 1916.96,-288.36 1917.55,-261.86"/>
<polygon fill="#63b8ff" stroke="#63b8ff" points="1921.05,-261.97 1917.78,-251.89 1914.05,-261.81 1921.05,-261.97"/>
</g>
<!-- Node205&#45;&gt;Node44 -->
<g id="edge126" class="edge">
<title>Node205&#45;&gt;Node44</title>
<path fill="none" stroke="#63b8ff" d="M1699.08,-623.82C1575.13,-612.72 1315.76,-589.48 1188.56,-578.09"/>
<polygon fill="#63b8ff" stroke="#63b8ff" points="1189.19,-574.63 1178.92,-577.22 1188.57,-581.6 1189.19,-574.63"/>
</g>
<!-- Node205&#45;&gt;Node121 -->
<g id="edge127" class="edge">
<title>Node205&#45;&gt;Node121</title>
<path fill="none" stroke="#63b8ff" d="M1750.91,-615.79C1712.08,-583.57 1617.14,-504.82 1571.03,-466.56"/>
<polygon fill="#63b8ff" stroke="#63b8ff" points="1573.32,-463.92 1563.39,-460.22 1568.85,-469.3 1573.32,-463.92"/>
</g>
<!-- Node212&#45;&gt;Node2 -->
<g id="edge129" class="edge">
<title>Node212&#45;&gt;Node2</title>
<path fill="none" stroke="#63b8ff" d="M3229.04,-296.75C3229.04,-276.42 3229.04,-224.45 3229.04,-181 3229.04,-181 3229.04,-181 3229.04,-118.5 3229.04,-88.33 3229.47,-72.7 3205.04,-55 3165.73,-26.51 2428.76,-13.74 2249.9,-11.05"/>
<polygon fill="#63b8ff" stroke="#63b8ff" points="2250.04,-7.55 2239.99,-10.9 2249.93,-14.55 2250.04,-7.55"/>
</g>
<!-- Node212&#45;&gt;Node3 -->
<g id="edge130" class="edge">
<title>Node212&#45;&gt;Node3</title>
<path fill="none" stroke="#63b8ff" d="M3181.41,-296.52C3158.94,-292.63 3131.7,-288.42 3107.04,-286 2683.89,-244.42 2172.53,-240.93 1988.37,-241.17"/>
<polygon fill="#63b8ff" stroke="#63b8ff" points="1988.48,-237.67 1978.49,-241.18 1988.5,-244.67 1988.48,-237.67"/>
</g>
<!-- Node235&#45;&gt;Node2 -->
<g id="edge132" class="edge">
<title>Node235&#45;&gt;Node2</title>
<path fill="none" stroke="#63b8ff" d="M2460.28,-296.51C2599.28,-272 2973.64,-205.17 2982.04,-195 3008.56,-162.88 3024.97,-111.91 2959.04,-55 2905.1,-8.44 2395.63,-8.98 2249.84,-10.11"/>
<polygon fill="#63b8ff" stroke="#63b8ff" points="2249.91,-6.6 2239.94,-10.19 2249.97,-13.6 2249.91,-6.6"/>
</g>
<!-- Node235&#45;&gt;Node3 -->
<g id="edge134" class="edge">
<title>Node235&#45;&gt;Node3</title>
<path fill="none" stroke="#63b8ff" d="M2373.65,-296.52C2358.19,-292.85 2339.8,-288.81 2323.04,-286 2206.28,-266.41 2069.07,-253.42 1988.06,-246.76"/>
<polygon fill="#63b8ff" stroke="#63b8ff" points="1988.77,-243.31 1978.52,-245.99 1988.21,-250.29 1988.77,-243.31"/>
</g>
<!-- Node235&#45;&gt;Node5 -->
<g id="edge133" class="edge">
<title>Node235&#45;&gt;Node5</title>
<path fill="none" stroke="#63b8ff" d="M2416.75,-296.5C2436.39,-272.44 2484.52,-205.7 2451.04,-165 2398.39,-100.98 2349.29,-145.4 2268.04,-129 2171.76,-109.57 2058.66,-85.98 2000.3,-73.75"/>
<polygon fill="#63b8ff" stroke="#63b8ff" points="2001.37,-70.4 1990.86,-71.77 1999.93,-77.25 2001.37,-70.4"/>
</g>
<!-- Node235&#45;&gt;Node33 -->
<g id="edge135" class="edge">
<title>Node235&#45;&gt;Node33</title>
<path fill="none" stroke="#63b8ff" d="M2370.11,-296.54C2355.38,-293.19 2338.44,-289.37 2323.04,-286 2162.25,-250.82 1971.77,-211.24 1879.95,-192.29"/>
<polygon fill="#63b8ff" stroke="#63b8ff" points="1880.7,-188.88 1870.2,-190.28 1879.29,-195.73 1880.7,-188.88"/>
</g>
<!-- Node241&#45;&gt;Node2 -->
<g id="edge138" class="edge">
<title>Node241&#45;&gt;Node2</title>
<path fill="none" stroke="#63b8ff" d="M3417.03,-291.14C3409.47,-268.17 3396.04,-221.63 3396.04,-181 3396.04,-181 3396.04,-181 3396.04,-118.5 3396.04,-82.58 3378.04,-71.32 3346.04,-55 3296.19,-29.58 2442.35,-14.25 2249.52,-11.11"/>
<polygon fill="#63b8ff" stroke="#63b8ff" points="2249.86,-7.61 2239.81,-10.95 2249.75,-14.61 2249.86,-7.61"/>
</g>
<!-- Node241&#45;&gt;Node3 -->
<g id="edge137" class="edge">
<title>Node241&#45;&gt;Node3</title>
<path fill="none" stroke="#63b8ff" d="M3359.72,-292.75C3344.51,-290.08 3328.24,-287.59 3313.04,-286 3051.95,-258.63 2233.41,-245.71 1988.16,-242.39"/>
<polygon fill="#63b8ff" stroke="#63b8ff" points="1988.48,-238.89 1978.44,-242.26 1988.39,-245.89 1988.48,-238.89"/>
</g>
</g>
</svg>
