<?xml version="1.0" encoding="UTF-8" standalone="no"?>
<!DOCTYPE svg PUBLIC "-//W3C//DTD SVG 1.1//EN"
 "http://www.w3.org/Graphics/SVG/1.1/DTD/svg11.dtd">
<!-- Generated by graphviz version 7.0.1 (20221109.1506)
 -->
<!-- Title: Graphical Class Hierarchy Pages: 1 -->
<svg width="348pt" height="76pt"
 viewBox="0.00 0.00 348.00 75.50" xmlns="http://www.w3.org/2000/svg" xmlns:xlink="http://www.w3.org/1999/xlink">
<g id="graph0" class="graph" transform="scale(1 1) rotate(0) translate(4 71.5)">
<title>Graphical Class Hierarchy</title>
<!-- Node0 -->
<g id="node1" class="node">
<title>Node0</title>
<g id="a_node1"><a xlink:title=" ">
<polygon fill="#e0e0e0" stroke="#999999" points="114,-45.5 0,-45.5 0,-15.5 114,-15.5 114,-45.5"/>
<text text-anchor="start" x="8" y="-33.5" font-family="FreeSans" font-size="10.00">boost::forward_iterator</text>
<text text-anchor="middle" x="57" y="-22.5" font-family="FreeSans" font-size="10.00">_archetype</text>
</a>
</g>
</g>
<!-- Node1 -->
<g id="node2" class="node">
<title>Node1</title>
<g id="a_node2"><a xlink:href="structDGtal_1_1CForwardIteratorArchetype.html" target="_top" xlink:title=" ">
<polygon fill="white" stroke="#666666" points="328,-67.5 162,-67.5 162,-37.5 328,-37.5 328,-67.5"/>
<text text-anchor="start" x="170" y="-55.5" font-family="FreeSans" font-size="10.00">DGtal::CForwardIteratorArchetype</text>
<text text-anchor="middle" x="245" y="-44.5" font-family="FreeSans" font-size="10.00">&lt; Point &gt;</text>
</a>
</g>
</g>
<!-- Node0&#45;&gt;Node1 -->
<g id="edge1" class="edge">
<title>Node0&#45;&gt;Node1</title>
<path fill="none" stroke="#63b8ff" d="M125.43,-38.48C137.24,-39.87 149.65,-41.34 161.8,-42.78"/>
<polygon fill="#63b8ff" stroke="#63b8ff" points="126.16,-35.04 115.81,-37.34 125.33,-41.99 126.16,-35.04"/>
</g>
<!-- Node2 -->
<g id="node3" class="node">
<title>Node2</title>
<g id="a_node3"><a xlink:href="structDGtal_1_1CForwardIteratorArchetype.html" target="_top" xlink:title="An archetype of ForwardIterator.">
<polygon fill="white" stroke="#666666" points="340,-19 150,-19 150,0 340,0 340,-19"/>
<text text-anchor="middle" x="245" y="-7" font-family="FreeSans" font-size="10.00">DGtal::CForwardIteratorArchetype&lt; T &gt;</text>
</a>
</g>
</g>
<!-- Node0&#45;&gt;Node2 -->
<g id="edge2" class="edge">
<title>Node0&#45;&gt;Node2</title>
<path fill="none" stroke="#63b8ff" d="M125.56,-22.87C135.33,-21.77 145.5,-20.62 155.6,-19.48"/>
<polygon fill="#63b8ff" stroke="#63b8ff" points="125.36,-19.37 115.81,-23.97 126.14,-26.33 125.36,-19.37"/>
</g>
</g>
</svg>
