<?xml version="1.0" encoding="UTF-8" standalone="no"?>
<!DOCTYPE svg PUBLIC "-//W3C//DTD SVG 1.1//EN"
 "http://www.w3.org/Graphics/SVG/1.1/DTD/svg11.dtd">
<!-- Generated by graphviz version 7.0.1 (20221109.1506)
 -->
<!-- Title: Graphical Class Hierarchy Pages: 1 -->
<svg width="301pt" height="64pt"
 viewBox="0.00 0.00 301.00 64.00" xmlns="http://www.w3.org/2000/svg" xmlns:xlink="http://www.w3.org/1999/xlink">
<g id="graph0" class="graph" transform="scale(1 1) rotate(0) translate(4 60)">
<title>Graphical Class Hierarchy</title>
<!-- Node0 -->
<g id="node1" class="node">
<title>Node0</title>
<g id="a_node1"><a xlink:href="structDGtal_1_1DrawWithBoardModifier.html" target="_top" xlink:title=" ">
<polygon fill="white" stroke="#666666" points="152,-37 0,-37 0,-18 152,-18 152,-37"/>
<text text-anchor="middle" x="76" y="-25" font-family="FreeSans" font-size="10.00">DGtal::DrawWithBoardModifier</text>
</a>
</g>
</g>
<!-- Node1 -->
<g id="node2" class="node">
<title>Node1</title>
<g id="a_node2"><a xlink:href="structDGtal_1_1CustomStyle.html" target="_top" xlink:title=" ">
<polygon fill="white" stroke="#666666" points="293,-56 188,-56 188,-37 293,-37 293,-56"/>
<text text-anchor="middle" x="240.5" y="-44" font-family="FreeSans" font-size="10.00">DGtal::CustomStyle</text>
</a>
</g>
</g>
<!-- Node0&#45;&gt;Node1 -->
<g id="edge1" class="edge">
<title>Node0&#45;&gt;Node1</title>
<path fill="none" stroke="#63b8ff" d="M163.47,-37.61C171.82,-38.59 180.1,-39.56 187.95,-40.47"/>
<polygon fill="#63b8ff" stroke="#63b8ff" points="163.91,-34.14 153.57,-36.45 163.1,-41.09 163.91,-34.14"/>
</g>
<!-- Node2 -->
<g id="node3" class="node">
<title>Node2</title>
<g id="a_node3"><a xlink:href="structDGtal_1_1SetMode.html" target="_top" xlink:title="Modifier class in a Board2D stream. Useful to choose your own mode for a given class....">
<polygon fill="white" stroke="#666666" points="284,-19 197,-19 197,0 284,0 284,-19"/>
<text text-anchor="middle" x="240.5" y="-7" font-family="FreeSans" font-size="10.00">DGtal::SetMode</text>
</a>
</g>
</g>
<!-- Node0&#45;&gt;Node2 -->
<g id="edge2" class="edge">
<title>Node0&#45;&gt;Node2</title>
<path fill="none" stroke="#63b8ff" d="M163.2,-17.95C174.81,-16.67 186.28,-15.39 196.67,-14.24"/>
<polygon fill="#63b8ff" stroke="#63b8ff" points="163.12,-14.44 153.57,-19.02 163.9,-21.4 163.12,-14.44"/>
</g>
</g>
</svg>
