<?xml version="1.0" encoding="UTF-8" standalone="no"?>
<!DOCTYPE svg PUBLIC "-//W3C//DTD SVG 1.1//EN"
 "http://www.w3.org/Graphics/SVG/1.1/DTD/svg11.dtd">
<!-- Generated by graphviz version 7.0.1 (20221109.1506)
 -->
<!-- Title: Graphical Class Hierarchy Pages: 1 -->
<svg width="299pt" height="310pt"
 viewBox="0.00 0.00 299.00 310.00" xmlns="http://www.w3.org/2000/svg" xmlns:xlink="http://www.w3.org/1999/xlink">
<g id="graph0" class="graph" transform="scale(1 1) rotate(0) translate(4 306)">
<title>Graphical Class Hierarchy</title>
<!-- Node0 -->
<g id="node1" class="node">
<title>Node0</title>
<g id="a_node1"><a xlink:href="classDGtal_1_1StarShaped2D.html" target="_top" xlink:title=" ">
<polygon fill="white" stroke="#666666" points="112,-165.5 0,-165.5 0,-135.5 112,-135.5 112,-165.5"/>
<text text-anchor="start" x="8" y="-153.5" font-family="FreeSans" font-size="10.00">DGtal::StarShaped2D</text>
<text text-anchor="middle" x="56" y="-142.5" font-family="FreeSans" font-size="10.00">&lt; TSpace &gt;</text>
</a>
</g>
</g>
<!-- Node1 -->
<g id="node2" class="node">
<title>Node1</title>
<g id="a_node2"><a xlink:href="classDGtal_1_1Astroid2D.html" target="_top" xlink:title=" ">
<polygon fill="white" stroke="#666666" points="288,-302 151,-302 151,-283 288,-283 288,-302"/>
<text text-anchor="middle" x="219.5" y="-290" font-family="FreeSans" font-size="10.00">DGtal::Astroid2D&lt; Space &gt;</text>
</a>
</g>
</g>
<!-- Node0&#45;&gt;Node1 -->
<g id="edge1" class="edge">
<title>Node0&#45;&gt;Node1</title>
<path fill="none" stroke="#63b8ff" d="M69.33,-176.22C84.13,-204.33 111.58,-248.66 148,-273.5 153.45,-277.21 159.59,-280.2 165.92,-282.61"/>
<polygon fill="#63b8ff" stroke="#63b8ff" points="72.46,-174.64 64.8,-167.32 66.22,-177.82 72.46,-174.64"/>
</g>
<!-- Node2 -->
<g id="node3" class="node">
<title>Node2</title>
<g id="a_node3"><a xlink:href="classDGtal_1_1AccFlower2D.html" target="_top" xlink:title="Aim: Model of the concept StarShaped represents any accelerated flower in the plane.">
<polygon fill="white" stroke="#666666" points="273,-264.5 166,-264.5 166,-234.5 273,-234.5 273,-264.5"/>
<text text-anchor="start" x="174" y="-252.5" font-family="FreeSans" font-size="10.00">DGtal::AccFlower2D</text>
<text text-anchor="middle" x="219.5" y="-241.5" font-family="FreeSans" font-size="10.00">&lt; TSpace &gt;</text>
</a>
</g>
</g>
<!-- Node0&#45;&gt;Node2 -->
<g id="edge2" class="edge">
<title>Node0&#45;&gt;Node2</title>
<path fill="none" stroke="#63b8ff" d="M80.03,-173.52C97.46,-189.87 122.65,-211.36 148,-225.5 153.65,-228.65 159.78,-231.48 165.99,-234.01"/>
<polygon fill="#63b8ff" stroke="#63b8ff" points="82.87,-171.39 73.23,-167 78.03,-176.45 82.87,-171.39"/>
</g>
<!-- Node3 -->
<g id="node4" class="node">
<title>Node3</title>
<g id="a_node4"><a xlink:href="classDGtal_1_1Astroid2D.html" target="_top" xlink:title="Aim: Model of the concept StarShaped represents an astroid.">
<polygon fill="white" stroke="#666666" points="291,-216 148,-216 148,-197 291,-197 291,-216"/>
<text text-anchor="middle" x="219.5" y="-204" font-family="FreeSans" font-size="10.00">DGtal::Astroid2D&lt; TSpace &gt;</text>
</a>
</g>
</g>
<!-- Node0&#45;&gt;Node3 -->
<g id="edge3" class="edge">
<title>Node0&#45;&gt;Node3</title>
<path fill="none" stroke="#63b8ff" d="M101.05,-170.41C115.8,-176.67 132.45,-183.3 148,-188.5 156.75,-191.43 166.24,-194.15 175.34,-196.54"/>
<polygon fill="#63b8ff" stroke="#63b8ff" points="102.65,-167.29 92.08,-166.55 99.88,-173.72 102.65,-167.29"/>
</g>
<!-- Node4 -->
<g id="node5" class="node">
<title>Node4</title>
<g id="a_node5"><a xlink:href="classDGtal_1_1Ball2D.html" target="_top" xlink:title="Aim: Model of the concept StarShaped represents any circle in the plane.">
<polygon fill="white" stroke="#666666" points="284,-179 155,-179 155,-160 284,-160 284,-179"/>
<text text-anchor="middle" x="219.5" y="-167" font-family="FreeSans" font-size="10.00">DGtal::Ball2D&lt; TSpace &gt;</text>
</a>
</g>
</g>
<!-- Node0&#45;&gt;Node4 -->
<g id="edge4" class="edge">
<title>Node0&#45;&gt;Node4</title>
<path fill="none" stroke="#63b8ff" d="M123.25,-158.29C133.65,-159.52 144.38,-160.78 154.72,-162"/>
<polygon fill="#63b8ff" stroke="#63b8ff" points="123.97,-154.85 113.63,-157.16 123.15,-161.81 123.97,-154.85"/>
</g>
<!-- Node5 -->
<g id="node6" class="node">
<title>Node5</title>
<g id="a_node6"><a xlink:href="classDGtal_1_1Ellipse2D.html" target="_top" xlink:title="Aim: Model of the concept StarShaped represents any ellipse in the plane.">
<polygon fill="white" stroke="#666666" points="290.5,-142 148.5,-142 148.5,-123 290.5,-123 290.5,-142"/>
<text text-anchor="middle" x="219.5" y="-130" font-family="FreeSans" font-size="10.00">DGtal::Ellipse2D&lt; TSpace &gt;</text>
</a>
</g>
</g>
<!-- Node0&#45;&gt;Node5 -->
<g id="edge5" class="edge">
<title>Node0&#45;&gt;Node5</title>
<path fill="none" stroke="#63b8ff" d="M123.49,-143.09C131.64,-142.18 139.99,-141.25 148.2,-140.34"/>
<polygon fill="#63b8ff" stroke="#63b8ff" points="123.18,-139.6 113.63,-144.19 123.96,-146.56 123.18,-139.6"/>
</g>
<!-- Node6 -->
<g id="node7" class="node">
<title>Node6</title>
<g id="a_node7"><a xlink:href="classDGtal_1_1Flower2D.html" target="_top" xlink:title="Aim: Model of the concept StarShaped represents any flower with k&#45;petals in the plane.">
<polygon fill="white" stroke="#666666" points="290.5,-105 148.5,-105 148.5,-86 290.5,-86 290.5,-105"/>
<text text-anchor="middle" x="219.5" y="-93" font-family="FreeSans" font-size="10.00">DGtal::Flower2D&lt; TSpace &gt;</text>
</a>
</g>
</g>
<!-- Node0&#45;&gt;Node6 -->
<g id="edge6" class="edge">
<title>Node0&#45;&gt;Node6</title>
<path fill="none" stroke="#63b8ff" d="M103.84,-130.8C117.91,-125.19 133.48,-119.31 148,-114.5 157.75,-111.27 168.38,-108.18 178.37,-105.47"/>
<polygon fill="#63b8ff" stroke="#63b8ff" points="102.77,-127.45 94.81,-134.44 105.39,-133.94 102.77,-127.45"/>
</g>
<!-- Node7 -->
<g id="node8" class="node">
<title>Node7</title>
<g id="a_node8"><a xlink:href="classDGtal_1_1Lemniscate2D.html" target="_top" xlink:title="Aim: Model of the concept StarShaped represents a lemniscate.">
<polygon fill="white" stroke="#666666" points="275,-67.5 164,-67.5 164,-37.5 275,-37.5 275,-67.5"/>
<text text-anchor="start" x="172" y="-55.5" font-family="FreeSans" font-size="10.00">DGtal::Lemniscate2D</text>
<text text-anchor="middle" x="219.5" y="-44.5" font-family="FreeSans" font-size="10.00">&lt; TSpace &gt;</text>
</a>
</g>
</g>
<!-- Node0&#45;&gt;Node7 -->
<g id="edge7" class="edge">
<title>Node0&#45;&gt;Node7</title>
<path fill="none" stroke="#63b8ff" d="M80.99,-127.5C98.46,-111.74 123.29,-91.27 148,-77.5 154.35,-73.96 161.3,-70.77 168.28,-67.95"/>
<polygon fill="#63b8ff" stroke="#63b8ff" points="78.67,-124.88 73.68,-134.23 83.41,-130.04 78.67,-124.88"/>
</g>
<!-- Node8 -->
<g id="node9" class="node">
<title>Node8</title>
<g id="a_node9"><a xlink:href="classDGtal_1_1NGon2D.html" target="_top" xlink:title="Aim: Model of the concept StarShaped represents any regular k&#45;gon in the plane.">
<polygon fill="white" stroke="#666666" points="288.5,-19 150.5,-19 150.5,0 288.5,0 288.5,-19"/>
<text text-anchor="middle" x="219.5" y="-7" font-family="FreeSans" font-size="10.00">DGtal::NGon2D&lt; TSpace &gt;</text>
</a>
</g>
</g>
<!-- Node0&#45;&gt;Node8 -->
<g id="edge8" class="edge">
<title>Node0&#45;&gt;Node8</title>
<path fill="none" stroke="#63b8ff" d="M69.39,-124.99C84.23,-97.11 111.72,-53.14 148,-28.5 153.45,-24.8 159.6,-21.81 165.93,-19.41"/>
<polygon fill="#63b8ff" stroke="#63b8ff" points="66.31,-123.32 64.85,-133.81 72.53,-126.52 66.31,-123.32"/>
</g>
</g>
</svg>
