<?xml version="1.0" encoding="UTF-8" standalone="no"?>
<!DOCTYPE svg PUBLIC "-//W3C//DTD SVG 1.1//EN"
 "http://www.w3.org/Graphics/SVG/1.1/DTD/svg11.dtd">
<!-- Generated by graphviz version 7.0.1 (20221109.1506)
 -->
<!-- Title: Graphical Class Hierarchy Pages: 1 -->
<svg width="502pt" height="27pt"
 viewBox="0.00 0.00 502.00 27.00" xmlns="http://www.w3.org/2000/svg" xmlns:xlink="http://www.w3.org/1999/xlink">
<g id="graph0" class="graph" transform="scale(1 1) rotate(0) translate(4 23)">
<title>Graphical Class Hierarchy</title>
<!-- Node0 -->
<g id="node1" class="node">
<title>Node0</title>
<g id="a_node1"><a xlink:href="structDGtal_1_1ForwardCategory.html" target="_top" xlink:title=" ">
<polygon fill="white" stroke="#666666" points="123,-19 0,-19 0,0 123,0 123,-19"/>
<text text-anchor="middle" x="61.5" y="-7" font-family="FreeSans" font-size="10.00">DGtal::ForwardCategory</text>
</a>
</g>
</g>
<!-- Node1 -->
<g id="node2" class="node">
<title>Node1</title>
<g id="a_node2"><a xlink:href="structDGtal_1_1BidirectionalCategory.html" target="_top" xlink:title=" ">
<polygon fill="white" stroke="#666666" points="300,-19 159,-19 159,0 300,0 300,-19"/>
<text text-anchor="middle" x="229.5" y="-7" font-family="FreeSans" font-size="10.00">DGtal::BidirectionalCategory</text>
</a>
</g>
</g>
<!-- Node0&#45;&gt;Node1 -->
<g id="edge1" class="edge">
<title>Node0&#45;&gt;Node1</title>
<path fill="none" stroke="#63b8ff" d="M134.83,-9.5C142.73,-9.5 150.77,-9.5 158.65,-9.5"/>
<polygon fill="#63b8ff" stroke="#63b8ff" points="134.88,-6 124.88,-9.5 134.88,-13 134.88,-6"/>
</g>
<!-- Node2 -->
<g id="node3" class="node">
<title>Node2</title>
<g id="a_node3"><a xlink:href="structDGtal_1_1RandomAccessCategory.html" target="_top" xlink:title=" ">
<polygon fill="white" stroke="#666666" points="494,-19 336,-19 336,0 494,0 494,-19"/>
<text text-anchor="middle" x="415" y="-7" font-family="FreeSans" font-size="10.00">DGtal::RandomAccessCategory</text>
</a>
</g>
</g>
<!-- Node1&#45;&gt;Node2 -->
<g id="edge2" class="edge">
<title>Node1&#45;&gt;Node2</title>
<path fill="none" stroke="#63b8ff" d="M311.89,-9.5C319.81,-9.5 327.83,-9.5 335.72,-9.5"/>
<polygon fill="#63b8ff" stroke="#63b8ff" points="311.91,-6 301.91,-9.5 311.91,-13 311.91,-6"/>
</g>
</g>
</svg>
