<?xml version="1.0" encoding="UTF-8" standalone="no"?>
<!DOCTYPE svg PUBLIC "-//W3C//DTD SVG 1.1//EN"
 "http://www.w3.org/Graphics/SVG/1.1/DTD/svg11.dtd">
<!-- Generated by graphviz version 7.0.1 (20221109.1506)
 -->
<!-- Title: Graphical Class Hierarchy Pages: 1 -->
<svg width="315pt" height="138pt"
 viewBox="0.00 0.00 315.00 138.00" xmlns="http://www.w3.org/2000/svg" xmlns:xlink="http://www.w3.org/1999/xlink">
<g id="graph0" class="graph" transform="scale(1 1) rotate(0) translate(4 134)">
<title>Graphical Class Hierarchy</title>
<!-- Node0 -->
<g id="node1" class="node">
<title>Node0</title>
<g id="a_node1"><a xlink:href="structDGtal_1_1DrawableWithBoard2D.html" target="_top" xlink:title=" ">
<polygon fill="white" stroke="#666666" points="148,-74 0,-74 0,-55 148,-55 148,-74"/>
<text text-anchor="middle" x="74" y="-62" font-family="FreeSans" font-size="10.00">DGtal::DrawableWithBoard2D</text>
</a>
</g>
</g>
<!-- Node1 -->
<g id="node2" class="node">
<title>Node1</title>
<g id="a_node2"><a xlink:href="structDGtal_1_1CustomColors.html" target="_top" xlink:title="Custom style class redefining the pen color and the fill color. You may use Board2D::Color::None for ...">
<polygon fill="white" stroke="#666666" points="301,-130 190,-130 190,-111 301,-111 301,-130"/>
<text text-anchor="middle" x="245.5" y="-118" font-family="FreeSans" font-size="10.00">DGtal::CustomColors</text>
</a>
</g>
</g>
<!-- Node0&#45;&gt;Node1 -->
<g id="edge1" class="edge">
<title>Node0&#45;&gt;Node1</title>
<path fill="none" stroke="#63b8ff" d="M112.89,-78.19C133.78,-85.62 160.24,-94.83 184,-102.5 192.45,-105.23 201.61,-108.03 210.18,-110.59"/>
<polygon fill="#63b8ff" stroke="#63b8ff" points="114.23,-74.95 103.63,-74.89 111.87,-81.55 114.23,-74.95"/>
</g>
<!-- Node2 -->
<g id="node3" class="node">
<title>Node2</title>
<g id="a_node3"><a xlink:href="structDGtal_1_1CustomFillColor.html" target="_top" xlink:title="Custom style class redefining the fill color. You may use Board2D::Color::None for transparent color.">
<polygon fill="white" stroke="#666666" points="305,-93 186,-93 186,-74 305,-74 305,-93"/>
<text text-anchor="middle" x="245.5" y="-81" font-family="FreeSans" font-size="10.00">DGtal::CustomFillColor</text>
</a>
</g>
</g>
<!-- Node0&#45;&gt;Node2 -->
<g id="edge2" class="edge">
<title>Node0&#45;&gt;Node2</title>
<path fill="none" stroke="#63b8ff" d="M159.79,-74C168.51,-74.98 177.22,-75.96 185.57,-76.89"/>
<polygon fill="#63b8ff" stroke="#63b8ff" points="160.19,-70.53 149.86,-72.89 159.41,-77.48 160.19,-70.53"/>
</g>
<!-- Node3 -->
<g id="node4" class="node">
<title>Node3</title>
<g id="a_node4"><a xlink:href="structDGtal_1_1CustomPen.html" target="_top" xlink:title="Custom style class redefining the pen attributes. You may use Board2D::Color::None for transparent co...">
<polygon fill="white" stroke="#666666" points="295.5,-56 195.5,-56 195.5,-37 295.5,-37 295.5,-56"/>
<text text-anchor="middle" x="245.5" y="-44" font-family="FreeSans" font-size="10.00">DGtal::CustomPen</text>
</a>
</g>
</g>
<!-- Node0&#45;&gt;Node3 -->
<g id="edge3" class="edge">
<title>Node0&#45;&gt;Node3</title>
<path fill="none" stroke="#63b8ff" d="M159.62,-55.51C171.91,-54.21 184.21,-52.9 195.47,-51.71"/>
<polygon fill="#63b8ff" stroke="#63b8ff" points="159.44,-52.01 149.86,-56.55 160.18,-58.97 159.44,-52.01"/>
</g>
<!-- Node4 -->
<g id="node5" class="node">
<title>Node4</title>
<g id="a_node5"><a xlink:href="structDGtal_1_1CustomPenColor.html" target="_top" xlink:title="Custom style class redefining the pen color. You may use Board2D::Color::None for transparent color.">
<polygon fill="white" stroke="#666666" points="307,-19 184,-19 184,0 307,0 307,-19"/>
<text text-anchor="middle" x="245.5" y="-7" font-family="FreeSans" font-size="10.00">DGtal::CustomPenColor</text>
</a>
</g>
</g>
<!-- Node0&#45;&gt;Node4 -->
<g id="edge4" class="edge">
<title>Node0&#45;&gt;Node4</title>
<path fill="none" stroke="#63b8ff" d="M115.43,-50.99C135.94,-44.18 161.27,-35.82 184,-28.5 193.22,-25.53 203.25,-22.36 212.45,-19.47"/>
<polygon fill="#63b8ff" stroke="#63b8ff" points="114.39,-47.65 106.01,-54.13 116.6,-54.29 114.39,-47.65"/>
</g>
</g>
</svg>
