<?xml version="1.0" encoding="UTF-8" standalone="no"?>
<!DOCTYPE svg PUBLIC "-//W3C//DTD SVG 1.1//EN"
 "http://www.w3.org/Graphics/SVG/1.1/DTD/svg11.dtd">
<!-- Generated by graphviz version 7.0.1 (20221109.1506)
 -->
<!-- Title: sphereCotangentLaplaceOperator.cpp Pages: 1 -->
<svg width="4134pt" height="610pt"
 viewBox="0.00 0.00 4134.03 610.00" xmlns="http://www.w3.org/2000/svg" xmlns:xlink="http://www.w3.org/1999/xlink">
<g id="graph0" class="graph" transform="scale(1 1) rotate(0) translate(4 606)">
<title>sphereCotangentLaplaceOperator.cpp</title>
<!-- Node1 -->
<g id="node1" class="node">
<title>Node1</title>
<g id="a_node1"><a xlink:title=" ">
<polygon fill="#999999" stroke="#666666" points="2590.03,-602 2410.03,-602 2410.03,-583 2590.03,-583 2590.03,-602"/>
<text text-anchor="middle" x="2500.03" y="-590" font-family="FreeSans" font-size="10.00">sphereCotangentLaplaceOperator.cpp</text>
</a>
</g>
</g>
<!-- Node2 -->
<g id="node2" class="node">
<title>Node2</title>
<g id="a_node2"><a xlink:href="StdDefs_8h_source.html" target="_top" xlink:title=" ">
<polygon fill="white" stroke="#666666" points="1050.03,-536 926.03,-536 926.03,-517 1050.03,-517 1050.03,-536"/>
<text text-anchor="middle" x="988.03" y="-524" font-family="FreeSans" font-size="10.00">DGtal/helpers/StdDefs.h</text>
</a>
</g>
</g>
<!-- Node1&#45;&gt;Node2 -->
<g id="edge1" class="edge">
<title>Node1&#45;&gt;Node2</title>
<path fill="none" stroke="#63b8ff" d="M2409.68,-591.62C2190.78,-591.24 1614.81,-586.25 1136.03,-547 1110.16,-544.88 1081.88,-541.43 1057.03,-538.02"/>
<polygon fill="#63b8ff" stroke="#63b8ff" points="1057.77,-534.59 1047.38,-536.67 1056.8,-541.52 1057.77,-534.59"/>
</g>
<!-- Node34 -->
<g id="node7" class="node">
<title>Node34</title>
<g id="a_node7"><a xlink:href="BasicFunctors_8h_source.html" target="_top" xlink:title=" ">
<polygon fill="white" stroke="#666666" points="2206.03,-129 2066.03,-129 2066.03,-110 2206.03,-110 2206.03,-129"/>
<text text-anchor="middle" x="2136.03" y="-117" font-family="FreeSans" font-size="10.00">DGtal/base/BasicFunctors.h</text>
</a>
</g>
</g>
<!-- Node1&#45;&gt;Node34 -->
<g id="edge75" class="edge">
<title>Node1&#45;&gt;Node34</title>
<path fill="none" stroke="#63b8ff" d="M2530.7,-582.62C2549.6,-575.72 2573.01,-564.34 2588.03,-547 2611.69,-519.7 2608.18,-505.64 2614.03,-470 2623.34,-413.36 2592.42,-257.59 2549.03,-220 2522.24,-196.79 2302.78,-152.33 2195.14,-131.62"/>
<polygon fill="#63b8ff" stroke="#63b8ff" points="2195.79,-128.18 2185.31,-129.74 2194.48,-135.06 2195.79,-128.18"/>
</g>
<!-- Node160 -->
<g id="node28" class="node">
<title>Node160</title>
<g id="a_node28"><a xlink:href="DigitalSurface_8h_source.html" target="_top" xlink:title=" ">
<polygon fill="white" stroke="#666666" points="3021.53,-387.5 2866.53,-387.5 2866.53,-368.5 3021.53,-368.5 3021.53,-387.5"/>
<text text-anchor="middle" x="2944.03" y="-375.5" font-family="FreeSans" font-size="10.00">DGtal/topology/DigitalSurface.h</text>
</a>
</g>
</g>
<!-- Node1&#45;&gt;Node160 -->
<g id="edge76" class="edge">
<title>Node1&#45;&gt;Node160</title>
<path fill="none" stroke="#63b8ff" d="M2581.38,-582.54C2627.41,-575.88 2685.5,-564.8 2735.03,-547 2801.86,-522.98 2821.29,-516.42 2875.03,-470 2899.72,-448.68 2921.18,-417.17 2933.36,-397.38"/>
<polygon fill="#63b8ff" stroke="#63b8ff" points="2936.22,-399.41 2938.35,-389.03 2930.22,-395.82 2936.22,-399.41"/>
</g>
<!-- Node169 -->
<g id="node36" class="node">
<title>Node169</title>
<g id="a_node36"><a xlink:href="SetOfSurfels_8h_source.html" target="_top" xlink:title=" ">
<polygon fill="#fff0f0" stroke="red" points="1685.53,-387.5 1536.53,-387.5 1536.53,-368.5 1685.53,-368.5 1685.53,-387.5"/>
<text text-anchor="middle" x="1611.03" y="-375.5" font-family="FreeSans" font-size="10.00">DGtal/topology/SetOfSurfels.h</text>
</a>
</g>
</g>
<!-- Node1&#45;&gt;Node169 -->
<g id="edge105" class="edge">
<title>Node1&#45;&gt;Node169</title>
<path fill="none" stroke="#63b8ff" d="M2409.92,-589.87C2317.26,-586.54 2169.35,-576.56 2045.03,-547 1885.69,-509.12 1706.57,-425.89 1638.9,-392.88"/>
<polygon fill="#63b8ff" stroke="#63b8ff" points="1640.54,-389.79 1630.02,-388.52 1637.45,-396.07 1640.54,-389.79"/>
</g>
<!-- Node178 -->
<g id="node37" class="node">
<title>Node178</title>
<g id="a_node37"><a xlink:href="CanonicCellEmbedder_8h_source.html" target="_top" xlink:title=" ">
<polygon fill="#fff0f0" stroke="red" points="1012.03,-393 874.03,-393 874.03,-363 1012.03,-363 1012.03,-393"/>
<text text-anchor="start" x="882.03" y="-381" font-family="FreeSans" font-size="10.00">DGtal/topology/CanonicCell</text>
<text text-anchor="middle" x="943.03" y="-370" font-family="FreeSans" font-size="10.00">Embedder.h</text>
</a>
</g>
</g>
<!-- Node1&#45;&gt;Node178 -->
<g id="edge110" class="edge">
<title>Node1&#45;&gt;Node178</title>
<path fill="none" stroke="#63b8ff" d="M2409.75,-587.31C2210.63,-576.96 1719.36,-545.37 1315.03,-470 1204.99,-449.49 1078.8,-416.6 1005.29,-396.48"/>
<polygon fill="#63b8ff" stroke="#63b8ff" points="1006.42,-393.16 995.85,-393.89 1004.57,-399.91 1006.42,-393.16"/>
</g>
<!-- Node180 -->
<g id="node38" class="node">
<title>Node180</title>
<g id="a_node38"><a xlink:href="LightImplicitDigitalSurface_8h_source.html" target="_top" xlink:title=" ">
<polygon fill="#fff0f0" stroke="red" points="1917.53,-393 1780.53,-393 1780.53,-363 1917.53,-363 1917.53,-393"/>
<text text-anchor="start" x="1788.53" y="-381" font-family="FreeSans" font-size="10.00">DGtal/topology/LightImplicit</text>
<text text-anchor="middle" x="1849.03" y="-370" font-family="FreeSans" font-size="10.00">DigitalSurface.h</text>
</a>
</g>
</g>
<!-- Node1&#45;&gt;Node180 -->
<g id="edge114" class="edge">
<title>Node1&#45;&gt;Node180</title>
<path fill="none" stroke="#63b8ff" d="M2409.84,-587.92C2337.77,-583.21 2234.82,-572.29 2148.03,-547 2071.11,-524.59 2054.74,-509.5 1985.03,-470 1946.51,-448.17 1904.48,-419.19 1877.5,-399.86"/>
<polygon fill="#63b8ff" stroke="#63b8ff" points="1879.66,-397.1 1869.5,-394.09 1875.56,-402.78 1879.66,-397.1"/>
</g>
<!-- Node193 -->
<g id="node39" class="node">
<title>Node193</title>
<g id="a_node39"><a xlink:href="ColorBrightnessColorMap_8h_source.html" target="_top" xlink:title=" ">
<polygon fill="#fff0f0" stroke="red" points="2540.03,-255.5 2400.03,-255.5 2400.03,-225.5 2540.03,-225.5 2540.03,-255.5"/>
<text text-anchor="start" x="2408.03" y="-243.5" font-family="FreeSans" font-size="10.00">DGtal/io/colormaps</text>
<text text-anchor="middle" x="2470.03" y="-232.5" font-family="FreeSans" font-size="10.00">/ColorBrightnessColorMap.h</text>
</a>
</g>
</g>
<!-- Node1&#45;&gt;Node193 -->
<g id="edge119" class="edge">
<title>Node1&#45;&gt;Node193</title>
<path fill="none" stroke="#63b8ff" d="M2519.75,-582.54C2533.83,-575.08 2552,-563.08 2562.03,-547 2605.75,-476.93 2610.26,-442.54 2588.03,-363 2578.8,-329.96 2571.38,-322.13 2548.03,-297 2535.63,-283.64 2519.53,-271.54 2505.19,-262.08"/>
<polygon fill="#63b8ff" stroke="#63b8ff" points="2507.19,-259.2 2496.88,-256.77 2503.42,-265.1 2507.19,-259.2"/>
</g>
<!-- Node212 -->
<g id="node40" class="node">
<title>Node212</title>
<g id="a_node40"><a xlink:href="LocalEstimatorFromSurfelFunctorAdapter_8h_source.html" target="_top" xlink:title=" ">
<polygon fill="#fff0f0" stroke="red" points="2866.53,-470 2711.53,-470 2711.53,-429 2866.53,-429 2866.53,-470"/>
<text text-anchor="start" x="2719.53" y="-458" font-family="FreeSans" font-size="10.00">DGtal/geometry/surfaces</text>
<text text-anchor="start" x="2719.53" y="-447" font-family="FreeSans" font-size="10.00">/estimation/LocalEstimatorFrom</text>
<text text-anchor="middle" x="2789.03" y="-436" font-family="FreeSans" font-size="10.00">SurfelFunctorAdapter.h</text>
</a>
</g>
</g>
<!-- Node1&#45;&gt;Node212 -->
<g id="edge123" class="edge">
<title>Node1&#45;&gt;Node212</title>
<path fill="none" stroke="#63b8ff" d="M2589.88,-582.54C2625,-576.21 2664.55,-565.42 2697.03,-547 2726.33,-530.39 2752.04,-501.5 2768.77,-479.65"/>
<polygon fill="#63b8ff" stroke="#63b8ff" points="2771.54,-481.8 2774.7,-471.68 2765.92,-477.62 2771.54,-481.8"/>
</g>
<!-- Node218 -->
<g id="node41" class="node">
<title>Node218</title>
<g id="a_node41"><a xlink:href="IIGeometricFunctors_8h_source.html" target="_top" xlink:title=" ">
<polygon fill="#fff0f0" stroke="red" points="2499.53,-464.5 2334.53,-464.5 2334.53,-434.5 2499.53,-434.5 2499.53,-464.5"/>
<text text-anchor="start" x="2342.53" y="-452.5" font-family="FreeSans" font-size="10.00">DGtal/geometry/surfaces</text>
<text text-anchor="middle" x="2417.03" y="-441.5" font-family="FreeSans" font-size="10.00">/estimation/IIGeometricFunctors.h</text>
</a>
</g>
</g>
<!-- Node1&#45;&gt;Node218 -->
<g id="edge132" class="edge">
<title>Node1&#45;&gt;Node218</title>
<path fill="none" stroke="#63b8ff" d="M2494.84,-582.68C2482.34,-561.45 2450.22,-506.88 2431.39,-474.89"/>
<polygon fill="#63b8ff" stroke="#63b8ff" points="2434.42,-473.13 2426.33,-466.29 2428.38,-476.68 2434.42,-473.13"/>
</g>
<!-- Node228 -->
<g id="node42" class="node">
<title>Node228</title>
<g id="a_node42"><a xlink:href="IntegralInvariantCovarianceEstimator_8h_source.html" target="_top" xlink:title=" ">
<polygon fill="#fff0f0" stroke="red" points="2413.53,-547 2276.53,-547 2276.53,-506 2413.53,-506 2413.53,-547"/>
<text text-anchor="start" x="2284.53" y="-535" font-family="FreeSans" font-size="10.00">DGtal/geometry/surfaces</text>
<text text-anchor="start" x="2284.53" y="-524" font-family="FreeSans" font-size="10.00">/estimation/IntegralInvariant</text>
<text text-anchor="middle" x="2345.03" y="-513" font-family="FreeSans" font-size="10.00">CovarianceEstimator.h</text>
</a>
</g>
</g>
<!-- Node1&#45;&gt;Node228 -->
<g id="edge135" class="edge">
<title>Node1&#45;&gt;Node228</title>
<path fill="none" stroke="#63b8ff" d="M2478.48,-582.6C2459.18,-574.63 2429.97,-562.57 2403.79,-551.76"/>
<polygon fill="#63b8ff" stroke="#63b8ff" points="2405.15,-548.54 2394.57,-547.95 2402.48,-555.01 2405.15,-548.54"/>
</g>
<!-- Node234 -->
<g id="node43" class="node">
<title>Node234</title>
<g id="a_node43"><a xlink:href="GaussDigitizer_8h_source.html" target="_top" xlink:title=" ">
<polygon fill="#fff0f0" stroke="red" points="2202.03,-387.5 2050.03,-387.5 2050.03,-368.5 2202.03,-368.5 2202.03,-387.5"/>
<text text-anchor="middle" x="2126.03" y="-375.5" font-family="FreeSans" font-size="10.00">DGtal/shapes/GaussDigitizer.h</text>
</a>
</g>
</g>
<!-- Node1&#45;&gt;Node234 -->
<g id="edge154" class="edge">
<title>Node1&#45;&gt;Node234</title>
<path fill="none" stroke="#63b8ff" d="M2409.76,-586.65C2356.67,-581.34 2289.16,-570.22 2233.03,-547 2178.56,-524.46 2152.03,-522.41 2125.03,-470 2113.58,-447.76 2116.67,-418.23 2120.7,-398.92"/>
<polygon fill="#63b8ff" stroke="#63b8ff" points="2124.07,-399.91 2122.99,-389.37 2117.26,-398.28 2124.07,-399.91"/>
</g>
<!-- Node240 -->
<g id="node44" class="node">
<title>Node240</title>
<g id="a_node44"><a xlink:href="DGtal_2shapes_2Shapes_8h_source.html" target="_top" xlink:title=" ">
<polygon fill="#fff0f0" stroke="red" points="2277.53,-459 2156.53,-459 2156.53,-440 2277.53,-440 2277.53,-459"/>
<text text-anchor="middle" x="2217.03" y="-447" font-family="FreeSans" font-size="10.00">DGtal/shapes/Shapes.h</text>
</a>
</g>
</g>
<!-- Node1&#45;&gt;Node240 -->
<g id="edge153" class="edge">
<title>Node1&#45;&gt;Node240</title>
<path fill="none" stroke="#63b8ff" d="M2410.46,-582.52C2354.79,-575.42 2289.65,-563.86 2267.03,-547 2241.75,-528.15 2228.17,-492.78 2221.79,-470.5"/>
<polygon fill="#63b8ff" stroke="#63b8ff" points="2225.18,-469.64 2219.27,-460.85 2218.41,-471.41 2225.18,-469.64"/>
</g>
<!-- Node253 -->
<g id="node45" class="node">
<title>Node253</title>
<g id="a_node45"><a xlink:href="Ball3D_8h_source.html" target="_top" xlink:title=" ">
<polygon fill="#fff0f0" stroke="red" points="4025.53,-255.5 3900.53,-255.5 3900.53,-225.5 4025.53,-225.5 4025.53,-255.5"/>
<text text-anchor="start" x="3908.53" y="-243.5" font-family="FreeSans" font-size="10.00">DGtal/shapes/parametric</text>
<text text-anchor="middle" x="3963.03" y="-232.5" font-family="FreeSans" font-size="10.00">/Ball3D.h</text>
</a>
</g>
</g>
<!-- Node1&#45;&gt;Node253 -->
<g id="edge150" class="edge">
<title>Node1&#45;&gt;Node253</title>
<path fill="none" stroke="#63b8ff" d="M2590.47,-592.15C2905.71,-593.24 3937.03,-586.41 3937.03,-450.5 3937.03,-450.5 3937.03,-450.5 3937.03,-377 3937.03,-337.98 3947.56,-293.76 3955.22,-266.75"/>
<polygon fill="#63b8ff" stroke="#63b8ff" points="3958.5,-268 3957.96,-257.41 3951.78,-266.02 3958.5,-268"/>
</g>
<!-- Node257 -->
<g id="node46" class="node">
<title>Node257</title>
<g id="a_node46"><a xlink:href="Mesh_8h_source.html" target="_top" xlink:title=" ">
<polygon fill="#fff0f0" stroke="red" points="2579.03,-387.5 2467.03,-387.5 2467.03,-368.5 2579.03,-368.5 2579.03,-387.5"/>
<text text-anchor="middle" x="2523.03" y="-375.5" font-family="FreeSans" font-size="10.00">DGtal/shapes/Mesh.h</text>
</a>
</g>
</g>
<!-- Node1&#45;&gt;Node257 -->
<g id="edge155" class="edge">
<title>Node1&#45;&gt;Node257</title>
<path fill="none" stroke="#63b8ff" d="M2512.65,-582.55C2522.74,-574.54 2536.15,-561.81 2542.03,-547 2561.4,-498.26 2551.5,-480.58 2542.03,-429 2540.1,-418.47 2536.05,-407.28 2532.19,-398.16"/>
<polygon fill="#63b8ff" stroke="#63b8ff" points="2535.49,-396.98 2528.19,-389.31 2529.12,-399.86 2535.49,-396.98"/>
</g>
<!-- Node259 -->
<g id="node47" class="node">
<title>Node259</title>
<g id="a_node47"><a xlink:href="MeshHelpers_8h_source.html" target="_top" xlink:title=" ">
<polygon fill="#fff0f0" stroke="red" points="3483.03,-459 3337.03,-459 3337.03,-440 3483.03,-440 3483.03,-459"/>
<text text-anchor="middle" x="3410.03" y="-447" font-family="FreeSans" font-size="10.00">DGtal/shapes/MeshHelpers.h</text>
</a>
</g>
</g>
<!-- Node1&#45;&gt;Node259 -->
<g id="edge160" class="edge">
<title>Node1&#45;&gt;Node259</title>
<path fill="none" stroke="#63b8ff" d="M2590.13,-584.85C2678.13,-577.74 2815.72,-565.01 2934.03,-547 3091.39,-523.04 3275.51,-481.94 3361.35,-462.01"/>
<polygon fill="#63b8ff" stroke="#63b8ff" points="3361.89,-465.48 3370.84,-459.8 3360.3,-458.66 3361.89,-465.48"/>
</g>
<!-- Node260 -->
<g id="node48" class="node">
<title>Node260</title>
<g id="a_node48"><a xlink:href="TriangulatedSurface_8h_source.html" target="_top" xlink:title=" ">
<polygon fill="#fff0f0" stroke="red" points="2467.53,-327 2334.53,-327 2334.53,-297 2467.53,-297 2467.53,-327"/>
<text text-anchor="start" x="2342.53" y="-315" font-family="FreeSans" font-size="10.00">DGtal/shapes/Triangulated</text>
<text text-anchor="middle" x="2401.03" y="-304" font-family="FreeSans" font-size="10.00">Surface.h</text>
</a>
</g>
</g>
<!-- Node1&#45;&gt;Node260 -->
<g id="edge171" class="edge">
<title>Node1&#45;&gt;Node260</title>
<path fill="none" stroke="#63b8ff" d="M2503.73,-582.81C2514.13,-556.88 2540.84,-478.76 2508.03,-429 2485.67,-395.09 2450.9,-423.46 2424.03,-393 2410.81,-378.02 2405.16,-355.88 2402.76,-338.69"/>
<polygon fill="#63b8ff" stroke="#63b8ff" points="2406.27,-338.54 2401.71,-328.98 2399.31,-339.3 2406.27,-338.54"/>
</g>
<!-- Node272 -->
<g id="node49" class="node">
<title>Node272</title>
<g id="a_node49"><a xlink:href="Viewer3D_8h_source.html" target="_top" xlink:title=" ">
<polygon fill="#fff0f0" stroke="red" points="703.53,-459 560.53,-459 560.53,-440 703.53,-440 703.53,-459"/>
<text text-anchor="middle" x="632.03" y="-447" font-family="FreeSans" font-size="10.00">DGtal/io/viewers/Viewer3D.h</text>
</a>
</g>
</g>
<!-- Node1&#45;&gt;Node272 -->
<g id="edge172" class="edge">
<title>Node1&#45;&gt;Node272</title>
<path fill="none" stroke="#63b8ff" d="M2409.61,-590.53C2095.61,-586.94 1063.59,-573.26 917.03,-547 820.74,-529.75 712.83,-486.1 661.82,-463.91"/>
<polygon fill="#63b8ff" stroke="#63b8ff" points="663.48,-460.81 652.92,-459.99 660.67,-467.22 663.48,-460.81"/>
</g>
<!-- Node294 -->
<g id="node50" class="node">
<title>Node294</title>
<g id="a_node50"><a xlink:href="EigenSupport_8h_source.html" target="_top" xlink:title=" ">
<polygon fill="#fff0f0" stroke="red" points="4126.03,-184 3964.03,-184 3964.03,-165 4126.03,-165 4126.03,-184"/>
<text text-anchor="middle" x="4045.03" y="-172" font-family="FreeSans" font-size="10.00">DGtal/math/linalg/EigenSupport.h</text>
</a>
</g>
</g>
<!-- Node1&#45;&gt;Node294 -->
<g id="edge180" class="edge">
<title>Node1&#45;&gt;Node294</title>
<path fill="none" stroke="#63b8ff" d="M2590.12,-592.13C2844.09,-593.3 3562.32,-592.39 3793.03,-547 3914.38,-523.12 4054.03,-574.17 4054.03,-450.5 4054.03,-450.5 4054.03,-450.5 4054.03,-311 4054.03,-269.87 4049.85,-221.87 4047.19,-195.47"/>
<polygon fill="#63b8ff" stroke="#63b8ff" points="4050.71,-195.45 4046.19,-185.87 4043.75,-196.18 4050.71,-195.45"/>
</g>
<!-- Node3 -->
<g id="node3" class="node">
<title>Node3</title>
<g id="a_node3"><a xlink:title=" ">
<polygon fill="#e0e0e0" stroke="#999999" points="2499.03,-19 2445.03,-19 2445.03,0 2499.03,0 2499.03,-19"/>
<text text-anchor="middle" x="2472.03" y="-7" font-family="FreeSans" font-size="10.00">iostream</text>
</a>
</g>
</g>
<!-- Node2&#45;&gt;Node3 -->
<g id="edge2" class="edge">
<title>Node2&#45;&gt;Node3</title>
<path fill="none" stroke="#63b8ff" d="M1050.22,-524.92C1302.45,-522.33 2238.13,-510.01 2286.03,-470 2346.52,-419.47 2266.39,-349.67 2325.03,-297 2377.12,-250.22 2575.31,-292.11 2638.03,-261 2685.2,-237.61 2720.03,-228.15 2720.03,-175.5 2720.03,-175.5 2720.03,-175.5 2720.03,-118.5 2720.03,-28.38 2580.68,-12.68 2510.89,-10.47"/>
<polygon fill="#63b8ff" stroke="#63b8ff" points="2511.11,-6.98 2501.03,-10.25 2510.95,-13.97 2511.11,-6.98"/>
</g>
<!-- Node4 -->
<g id="node4" class="node">
<title>Node4</title>
<g id="a_node4"><a xlink:href="Common_8h_source.html" target="_top" xlink:title=" ">
<polygon fill="#fff0f0" stroke="red" points="1898.53,-184 1781.53,-184 1781.53,-165 1898.53,-165 1898.53,-184"/>
<text text-anchor="middle" x="1840.03" y="-172" font-family="FreeSans" font-size="10.00">DGtal/base/Common.h</text>
</a>
</g>
</g>
<!-- Node2&#45;&gt;Node4 -->
<g id="edge3" class="edge">
<title>Node2&#45;&gt;Node4</title>
<path fill="none" stroke="#63b8ff" d="M1050.43,-524.2C1160.73,-520.89 1384.75,-509.4 1451.03,-470 1501.18,-440.2 1479.97,-397.46 1527.03,-363 1569.22,-332.11 1595.31,-355.68 1639.03,-327 1691.96,-292.28 1681.59,-256.89 1733.03,-220 1752.57,-205.99 1777.19,-195.36 1797.89,-188.01"/>
<polygon fill="#63b8ff" stroke="#63b8ff" points="1798.84,-191.38 1807.18,-184.85 1796.58,-184.76 1798.84,-191.38"/>
</g>
<!-- Node45 -->
<g id="node11" class="node">
<title>Node45</title>
<g id="a_node11"><a xlink:href="SpaceND_8h_source.html" target="_top" xlink:title=" ">
<polygon fill="#fff0f0" stroke="red" points="413.53,-250 288.53,-250 288.53,-231 413.53,-231 413.53,-250"/>
<text text-anchor="middle" x="351.03" y="-238" font-family="FreeSans" font-size="10.00">DGtal/kernel/SpaceND.h</text>
</a>
</g>
</g>
<!-- Node2&#45;&gt;Node45 -->
<g id="edge18" class="edge">
<title>Node2&#45;&gt;Node45</title>
<path fill="none" stroke="#63b8ff" d="M925.63,-525.84C792.89,-525.58 487.38,-519.44 398.03,-470 332.12,-433.53 323.89,-400.42 307.03,-327 304.05,-314 302.65,-309.59 307.03,-297 312.16,-282.27 323.01,-268.51 332.65,-258.38"/>
<polygon fill="#63b8ff" stroke="#63b8ff" points="334.92,-261.06 339.56,-251.54 329.99,-256.09 334.92,-261.06"/>
</g>
<!-- Node66 -->
<g id="node12" class="node">
<title>Node66</title>
<g id="a_node12"><a xlink:href="HyperRectDomain_8h_source.html" target="_top" xlink:title=" ">
<polygon fill="#fff0f0" stroke="red" points="2163.53,-327 2052.53,-327 2052.53,-297 2163.53,-297 2163.53,-327"/>
<text text-anchor="start" x="2060.53" y="-315" font-family="FreeSans" font-size="10.00">DGtal/kernel/domains</text>
<text text-anchor="middle" x="2108.03" y="-304" font-family="FreeSans" font-size="10.00">/HyperRectDomain.h</text>
</a>
</g>
</g>
<!-- Node2&#45;&gt;Node66 -->
<g id="edge21" class="edge">
<title>Node2&#45;&gt;Node66</title>
<path fill="none" stroke="#63b8ff" d="M1050.21,-521.52C1242.34,-508.55 1824.05,-464.26 1998.03,-393 2002.64,-391.11 2048.87,-357.03 2079.91,-333.96"/>
<polygon fill="#63b8ff" stroke="#63b8ff" points="2081.85,-336.89 2087.78,-328.11 2077.67,-331.27 2081.85,-336.89"/>
</g>
<!-- Node89 -->
<g id="node13" class="node">
<title>Node89</title>
<g id="a_node13"><a xlink:href="DigitalSetSelector_8h_source.html" target="_top" xlink:title=" ">
<polygon fill="#fff0f0" stroke="red" points="906.03,-255.5 782.03,-255.5 782.03,-225.5 906.03,-225.5 906.03,-255.5"/>
<text text-anchor="start" x="790.03" y="-243.5" font-family="FreeSans" font-size="10.00">DGtal/kernel/sets/Digital</text>
<text text-anchor="middle" x="844.03" y="-232.5" font-family="FreeSans" font-size="10.00">SetSelector.h</text>
</a>
</g>
</g>
<!-- Node2&#45;&gt;Node89 -->
<g id="edge24" class="edge">
<title>Node2&#45;&gt;Node89</title>
<path fill="none" stroke="#63b8ff" d="M925.78,-523.42C808.58,-518.73 559.97,-504.89 482.03,-470 395.28,-431.17 361.71,-413.81 323.03,-327 272.51,-213.61 319.39,-340.71 773.03,-261 777.05,-260.29 781.16,-259.46 785.29,-258.55"/>
<polygon fill="#63b8ff" stroke="#63b8ff" points="785.8,-262.02 794.72,-256.3 784.18,-255.21 785.8,-262.02"/>
</g>
<!-- Node102 -->
<g id="node14" class="node">
<title>Node102</title>
<g id="a_node14"><a xlink:href="DigitalTopology_8h_source.html" target="_top" xlink:title=" ">
<polygon fill="#fff0f0" stroke="red" points="1226.03,-387.5 1068.03,-387.5 1068.03,-368.5 1226.03,-368.5 1226.03,-387.5"/>
<text text-anchor="middle" x="1147.03" y="-375.5" font-family="FreeSans" font-size="10.00">DGtal/topology/DigitalTopology.h</text>
</a>
</g>
</g>
<!-- Node2&#45;&gt;Node102 -->
<g id="edge27" class="edge">
<title>Node2&#45;&gt;Node102</title>
<path fill="none" stroke="#63b8ff" d="M997.5,-516.77C1023.4,-492.91 1095.71,-426.29 1129.37,-395.27"/>
<polygon fill="#63b8ff" stroke="#63b8ff" points="1131.32,-398.24 1136.3,-388.89 1126.57,-393.09 1131.32,-398.24"/>
</g>
<!-- Node109 -->
<g id="node17" class="node">
<title>Node109</title>
<g id="a_node17"><a xlink:href="MetricAdjacency_8h_source.html" target="_top" xlink:title=" ">
<polygon fill="#fff0f0" stroke="red" points="496.03,-321.5 332.03,-321.5 332.03,-302.5 496.03,-302.5 496.03,-321.5"/>
<text text-anchor="middle" x="414.03" y="-309.5" font-family="FreeSans" font-size="10.00">DGtal/topology/MetricAdjacency.h</text>
</a>
</g>
</g>
<!-- Node2&#45;&gt;Node109 -->
<g id="edge36" class="edge">
<title>Node2&#45;&gt;Node109</title>
<path fill="none" stroke="#63b8ff" d="M925.82,-523.89C817.05,-520.11 597.64,-507.89 532.03,-470 475.77,-437.51 437.89,-366.41 422.2,-332.18"/>
<polygon fill="#63b8ff" stroke="#63b8ff" points="425.44,-330.84 418.19,-323.11 419.03,-333.67 425.44,-330.84"/>
</g>
<!-- Node112 -->
<g id="node19" class="node">
<title>Node112</title>
<g id="a_node19"><a xlink:href="Object_8h_source.html" target="_top" xlink:title=" ">
<polygon fill="#fff0f0" stroke="red" points="1366.03,-387.5 1244.03,-387.5 1244.03,-368.5 1366.03,-368.5 1366.03,-387.5"/>
<text text-anchor="middle" x="1305.03" y="-375.5" font-family="FreeSans" font-size="10.00">DGtal/topology/Object.h</text>
</a>
</g>
</g>
<!-- Node2&#45;&gt;Node112 -->
<g id="edge41" class="edge">
<title>Node2&#45;&gt;Node112</title>
<path fill="none" stroke="#63b8ff" d="M1007.39,-516.56C1061.01,-491.77 1211.76,-422.1 1275.74,-392.54"/>
<polygon fill="#63b8ff" stroke="#63b8ff" points="1276.95,-395.83 1284.56,-388.46 1274.01,-389.48 1276.95,-395.83"/>
</g>
<!-- Node121 -->
<g id="node22" class="node">
<title>Node121</title>
<g id="a_node22"><a xlink:href="KhalimskySpaceND_8h_source.html" target="_top" xlink:title=" ">
<polygon fill="#fff0f0" stroke="red" points="741.53,-393 610.53,-393 610.53,-363 741.53,-363 741.53,-393"/>
<text text-anchor="start" x="618.53" y="-381" font-family="FreeSans" font-size="10.00">DGtal/topology/Khalimsky</text>
<text text-anchor="middle" x="676.03" y="-370" font-family="FreeSans" font-size="10.00">SpaceND.h</text>
</a>
</g>
</g>
<!-- Node2&#45;&gt;Node121 -->
<g id="edge49" class="edge">
<title>Node2&#45;&gt;Node121</title>
<path fill="none" stroke="#63b8ff" d="M934.15,-516.51C875.36,-506.03 785.65,-487.85 756.03,-470 741.24,-461.09 712.51,-426.17 693.81,-402.27"/>
<polygon fill="#63b8ff" stroke="#63b8ff" points="696.77,-400.38 687.88,-394.62 691.24,-404.67 696.77,-400.38"/>
</g>
<!-- Node122 -->
<g id="node23" class="node">
<title>Node122</title>
<g id="a_node23"><a xlink:href="KhalimskyPreSpaceND_8h_source.html" target="_top" xlink:title=" ">
<polygon fill="#fff0f0" stroke="red" points="645.53,-327 514.53,-327 514.53,-297 645.53,-297 645.53,-327"/>
<text text-anchor="start" x="522.53" y="-315" font-family="FreeSans" font-size="10.00">DGtal/topology/Khalimsky</text>
<text text-anchor="middle" x="580.03" y="-304" font-family="FreeSans" font-size="10.00">PreSpaceND.h</text>
</a>
</g>
</g>
<!-- Node2&#45;&gt;Node122 -->
<g id="edge59" class="edge">
<title>Node2&#45;&gt;Node122</title>
<path fill="none" stroke="#63b8ff" d="M925.65,-522.07C810.81,-515.13 575.39,-497.65 551.03,-470 518.15,-432.68 545.61,-370.54 564.98,-336.71"/>
<polygon fill="#63b8ff" stroke="#63b8ff" points="567.77,-338.87 569.88,-328.48 561.76,-335.29 567.77,-338.87"/>
</g>
<!-- Node125 -->
<g id="node24" class="node">
<title>Node125</title>
<g id="a_node24"><a xlink:href="GridCurve_8h_source.html" target="_top" xlink:title=" ">
<polygon fill="#fff0f0" stroke="red" points="1442.03,-464.5 1324.03,-464.5 1324.03,-434.5 1442.03,-434.5 1442.03,-464.5"/>
<text text-anchor="start" x="1332.03" y="-452.5" font-family="FreeSans" font-size="10.00">DGtal/geometry/curves</text>
<text text-anchor="middle" x="1383.03" y="-441.5" font-family="FreeSans" font-size="10.00">/GridCurve.h</text>
</a>
</g>
</g>
<!-- Node2&#45;&gt;Node125 -->
<g id="edge60" class="edge">
<title>Node2&#45;&gt;Node125</title>
<path fill="none" stroke="#63b8ff" d="M1040.03,-516.5C1100.64,-505.9 1203.76,-487.51 1292.03,-470 1298.71,-468.67 1305.66,-467.26 1312.6,-465.81"/>
<polygon fill="#63b8ff" stroke="#63b8ff" points="1313.31,-469.24 1322.38,-463.76 1311.87,-462.39 1313.31,-469.24"/>
</g>
<!-- Node153 -->
<g id="node26" class="node">
<title>Node153</title>
<g id="a_node26"><a xlink:href="ExactPredicateLpSeparableMetric_8h_source.html" target="_top" xlink:title=" ">
<polygon fill="#fff0f0" stroke="red" points="764.03,-261 584.03,-261 584.03,-220 764.03,-220 764.03,-261"/>
<text text-anchor="start" x="592.03" y="-249" font-family="FreeSans" font-size="10.00">DGtal/geometry/volumes</text>
<text text-anchor="start" x="592.03" y="-238" font-family="FreeSans" font-size="10.00">/distance/ExactPredicateLpSeparable</text>
<text text-anchor="middle" x="674.03" y="-227" font-family="FreeSans" font-size="10.00">Metric.h</text>
</a>
</g>
</g>
<!-- Node2&#45;&gt;Node153 -->
<g id="edge67" class="edge">
<title>Node2&#45;&gt;Node153</title>
<path fill="none" stroke="#63b8ff" d="M959.71,-516.52C933.9,-507.45 895.56,-491.67 867.03,-470 790.57,-411.9 723.86,-318.5 692.72,-271.12"/>
<polygon fill="#63b8ff" stroke="#63b8ff" points="695.65,-269.22 687.27,-262.74 689.78,-273.03 695.65,-269.22"/>
</g>
<!-- Node158 -->
<g id="node27" class="node">
<title>Node158</title>
<g id="a_node27"><a xlink:href="ExactPredicateLpPowerSeparableMetric_8h_source.html" target="_top" xlink:title=" ">
<polygon fill="#fff0f0" stroke="red" points="1136.03,-261 972.03,-261 972.03,-220 1136.03,-220 1136.03,-261"/>
<text text-anchor="start" x="980.03" y="-249" font-family="FreeSans" font-size="10.00">DGtal/geometry/volumes</text>
<text text-anchor="start" x="980.03" y="-238" font-family="FreeSans" font-size="10.00">/distance/ExactPredicateLpPower</text>
<text text-anchor="middle" x="1054.03" y="-227" font-family="FreeSans" font-size="10.00">SeparableMetric.h</text>
</a>
</g>
</g>
<!-- Node2&#45;&gt;Node158 -->
<g id="edge71" class="edge">
<title>Node2&#45;&gt;Node158</title>
<path fill="none" stroke="#63b8ff" d="M971.79,-516.65C931.03,-493.21 830.11,-426.97 865.03,-363 890.42,-316.5 942.06,-285.15 984.95,-265.95"/>
<polygon fill="#63b8ff" stroke="#63b8ff" points="986.18,-269.23 993.97,-262.05 983.41,-262.81 986.18,-269.23"/>
</g>
<!-- Node4&#45;&gt;Node3 -->
<g id="edge4" class="edge">
<title>Node4&#45;&gt;Node3</title>
<path fill="none" stroke="#63b8ff" d="M1841.11,-164.75C1844.42,-142.14 1856.65,-81.64 1895.03,-55 1939.12,-24.41 2311.46,-13.88 2433.48,-11.24"/>
<polygon fill="#63b8ff" stroke="#63b8ff" points="2433.38,-14.74 2443.3,-11.03 2433.23,-7.74 2433.38,-14.74"/>
</g>
<!-- Node6 -->
<g id="node5" class="node">
<title>Node6</title>
<g id="a_node5"><a xlink:title=" ">
<polygon fill="#e0e0e0" stroke="#999999" points="1367.03,-19 1311.03,-19 1311.03,0 1367.03,0 1367.03,-19"/>
<text text-anchor="middle" x="1339.03" y="-7" font-family="FreeSans" font-size="10.00">algorithm</text>
</a>
</g>
</g>
<!-- Node4&#45;&gt;Node6 -->
<g id="edge5" class="edge">
<title>Node4&#45;&gt;Node6</title>
<path fill="none" stroke="#63b8ff" d="M1812.38,-164.5C1728.13,-137.09 1474.43,-54.55 1377.37,-22.97"/>
<polygon fill="#63b8ff" stroke="#63b8ff" points="1378.63,-19.7 1368.04,-19.94 1376.46,-26.36 1378.63,-19.7"/>
</g>
<!-- Node14 -->
<g id="node6" class="node">
<title>Node14</title>
<g id="a_node6"><a xlink:title=" ">
<polygon fill="#e0e0e0" stroke="#999999" points="1700.03,-74 1656.03,-74 1656.03,-55 1700.03,-55 1700.03,-74"/>
<text text-anchor="middle" x="1678.03" y="-62" font-family="FreeSans" font-size="10.00">cmath</text>
</a>
</g>
</g>
<!-- Node4&#45;&gt;Node14 -->
<g id="edge6" class="edge">
<title>Node4&#45;&gt;Node14</title>
<path fill="none" stroke="#63b8ff" d="M1826.78,-164.66C1799.13,-146.23 1735.04,-103.5 1700.71,-80.62"/>
<polygon fill="#63b8ff" stroke="#63b8ff" points="1702.99,-77.93 1692.73,-75.3 1699.11,-83.76 1702.99,-77.93"/>
</g>
<!-- Node4&#45;&gt;Node34 -->
<g id="edge7" class="edge">
<title>Node4&#45;&gt;Node34</title>
<path fill="none" stroke="#63b8ff" d="M1885.03,-164.51C1934.12,-155.38 2013.03,-141.23 2069.31,-131.45"/>
<polygon fill="#63b8ff" stroke="#63b8ff" points="2069.86,-134.9 2079.11,-129.75 2068.66,-128.01 2069.86,-134.9"/>
</g>
<!-- Node34&#45;&gt;Node4 -->
<g id="edge15" class="edge">
<title>Node34&#45;&gt;Node4</title>
<path fill="none" stroke="#63b8ff" d="M2091.28,-129.45C2042.21,-138.58 1963.14,-152.76 1906.77,-162.55"/>
<polygon fill="#63b8ff" stroke="#63b8ff" points="1906.21,-159.1 1896.95,-164.25 1907.4,-165.99 1906.21,-159.1"/>
</g>
<!-- Node34&#45;&gt;Node6 -->
<g id="edge8" class="edge">
<title>Node34&#45;&gt;Node6</title>
<path fill="none" stroke="#63b8ff" d="M2115.44,-109.54C2095.34,-100.72 2063.93,-86.76 2037.03,-74 2019.97,-65.91 2017.25,-59.95 1999.03,-55 1880.94,-22.89 1502.04,-13.4 1378.43,-11.12"/>
<polygon fill="#63b8ff" stroke="#63b8ff" points="1378.86,-7.63 1368.8,-10.95 1378.73,-14.63 1378.86,-7.63"/>
</g>
<!-- Node34&#45;&gt;Node14 -->
<g id="edge10" class="edge">
<title>Node34&#45;&gt;Node14</title>
<path fill="none" stroke="#63b8ff" d="M2065.97,-110.39C1965.83,-98.8 1785.68,-77.96 1711.42,-69.36"/>
<polygon fill="#63b8ff" stroke="#63b8ff" points="1712.28,-65.94 1701.95,-68.27 1711.48,-72.89 1712.28,-65.94"/>
</g>
<!-- Node35 -->
<g id="node8" class="node">
<title>Node35</title>
<g id="a_node8"><a xlink:title=" ">
<polygon fill="#e0e0e0" stroke="#999999" points="2321.53,-74 2262.53,-74 2262.53,-55 2321.53,-55 2321.53,-74"/>
<text text-anchor="middle" x="2292.03" y="-62" font-family="FreeSans" font-size="10.00">functional</text>
</a>
</g>
</g>
<!-- Node34&#45;&gt;Node35 -->
<g id="edge9" class="edge">
<title>Node34&#45;&gt;Node35</title>
<path fill="none" stroke="#63b8ff" d="M2162.5,-109.51C2187.9,-100.88 2226.5,-87.76 2254.96,-78.1"/>
<polygon fill="#63b8ff" stroke="#63b8ff" points="2255.92,-81.46 2264.27,-74.93 2253.67,-74.84 2255.92,-81.46"/>
</g>
<!-- Node36 -->
<g id="node9" class="node">
<title>Node36</title>
<g id="a_node9"><a xlink:href="Color_8h_source.html" target="_top" xlink:title=" ">
<polygon fill="#fff0f0" stroke="red" points="1990.03,-74 1904.03,-74 1904.03,-55 1990.03,-55 1990.03,-74"/>
<text text-anchor="middle" x="1947.03" y="-62" font-family="FreeSans" font-size="10.00">DGtal/io/Color.h</text>
</a>
</g>
</g>
<!-- Node34&#45;&gt;Node36 -->
<g id="edge11" class="edge">
<title>Node34&#45;&gt;Node36</title>
<path fill="none" stroke="#63b8ff" d="M2103.97,-109.51C2072.52,-100.69 2024.35,-87.18 1989.68,-77.46"/>
<polygon fill="#63b8ff" stroke="#63b8ff" points="1990.97,-74.19 1980.39,-74.85 1989.08,-80.93 1990.97,-74.19"/>
</g>
<!-- Node40 -->
<g id="node10" class="node">
<title>Node40</title>
<g id="a_node10"><a xlink:href="BasicBoolFunctors_8h_source.html" target="_top" xlink:title=" ">
<polygon fill="#fff0f0" stroke="red" points="2206.03,-74 2046.03,-74 2046.03,-55 2206.03,-55 2206.03,-74"/>
<text text-anchor="middle" x="2126.03" y="-62" font-family="FreeSans" font-size="10.00">DGtal/base/BasicBoolFunctors.h</text>
</a>
</g>
</g>
<!-- Node34&#45;&gt;Node40 -->
<g id="edge16" class="edge">
<title>Node34&#45;&gt;Node40</title>
<path fill="none" stroke="#63b8ff" d="M2134.38,-109.75C2133.14,-103.19 2131.4,-93.95 2129.83,-85.6"/>
<polygon fill="#63b8ff" stroke="#63b8ff" points="2133.29,-85.11 2128,-75.93 2126.42,-86.4 2133.29,-85.11"/>
</g>
<!-- Node36&#45;&gt;Node3 -->
<g id="edge12" class="edge">
<title>Node36&#45;&gt;Node3</title>
<path fill="none" stroke="#63b8ff" d="M1990.44,-59.12C2090.81,-48.99 2337.61,-24.07 2433.27,-14.41"/>
<polygon fill="#63b8ff" stroke="#63b8ff" points="2433.59,-17.9 2443.19,-13.41 2432.89,-10.93 2433.59,-17.9"/>
</g>
<!-- Node36&#45;&gt;Node4 -->
<g id="edge13" class="edge">
<title>Node36&#45;&gt;Node4</title>
<path fill="none" stroke="#63b8ff" d="M1938.16,-74.46C1920.26,-92.52 1879.61,-133.55 1856.64,-156.74"/>
<polygon fill="#63b8ff" stroke="#63b8ff" points="1854.41,-154.02 1849.85,-163.59 1859.38,-158.95 1854.41,-154.02"/>
</g>
<!-- Node36&#45;&gt;Node6 -->
<g id="edge14" class="edge">
<title>Node36&#45;&gt;Node6</title>
<path fill="none" stroke="#63b8ff" d="M1903.79,-59.73C1790.83,-49.88 1488.07,-23.49 1378.94,-13.98"/>
<polygon fill="#63b8ff" stroke="#63b8ff" points="1379.28,-10.5 1369.01,-13.11 1378.67,-17.47 1379.28,-10.5"/>
</g>
<!-- Node40&#45;&gt;Node3 -->
<g id="edge17" class="edge">
<title>Node40&#45;&gt;Node3</title>
<path fill="none" stroke="#63b8ff" d="M2184.73,-54.51C2255.58,-43.66 2372.74,-25.71 2433.23,-16.44"/>
<polygon fill="#63b8ff" stroke="#63b8ff" points="2433.69,-19.91 2443.04,-14.94 2432.63,-13 2433.69,-19.91"/>
</g>
<!-- Node45&#45;&gt;Node3 -->
<g id="edge19" class="edge">
<title>Node45&#45;&gt;Node3</title>
<path fill="none" stroke="#63b8ff" d="M351.52,-230.91C353.75,-200.5 365.81,-97.44 428.03,-55 471.06,-25.65 2154.07,-12.71 2433.04,-10.76"/>
<polygon fill="#63b8ff" stroke="#63b8ff" points="2433.06,-14.26 2443.03,-10.69 2433.01,-7.26 2433.06,-14.26"/>
</g>
<!-- Node45&#45;&gt;Node4 -->
<g id="edge20" class="edge">
<title>Node45&#45;&gt;Node4</title>
<path fill="none" stroke="#63b8ff" d="M413.73,-233.17C458.61,-228.85 520.48,-223.33 575.03,-220 1030.2,-192.2 1578.63,-180.23 1770.06,-176.69"/>
<polygon fill="#63b8ff" stroke="#63b8ff" points="1769.9,-180.2 1779.83,-176.51 1769.77,-173.2 1769.9,-180.2"/>
</g>
<!-- Node66&#45;&gt;Node3 -->
<g id="edge22" class="edge">
<title>Node66&#45;&gt;Node3</title>
<path fill="none" stroke="#63b8ff" d="M2129.93,-296.59C2164.02,-273.88 2231.44,-227.8 2285.03,-184 2351.17,-129.95 2423.79,-58.86 2455.59,-27.09"/>
<polygon fill="#63b8ff" stroke="#63b8ff" points="2457.79,-29.84 2462.37,-20.29 2452.83,-24.9 2457.79,-29.84"/>
</g>
<!-- Node66&#45;&gt;Node4 -->
<g id="edge23" class="edge">
<title>Node66&#45;&gt;Node4</title>
<path fill="none" stroke="#63b8ff" d="M2052.44,-297.12C2011.44,-286.39 1959.55,-271.62 1940.03,-261 1939.74,-260.84 1887.66,-216.27 1858.78,-191.55"/>
<polygon fill="#63b8ff" stroke="#63b8ff" points="1861.34,-189.14 1851.47,-185.29 1856.79,-194.45 1861.34,-189.14"/>
</g>
<!-- Node89&#45;&gt;Node3 -->
<g id="edge25" class="edge">
<title>Node89&#45;&gt;Node3</title>
<path fill="none" stroke="#63b8ff" d="M880.05,-225.12C973.16,-188.72 1230.17,-93.13 1454.03,-55 1647.78,-22 2272.07,-12.76 2433.59,-10.9"/>
<polygon fill="#63b8ff" stroke="#63b8ff" points="2433.36,-14.4 2443.32,-10.79 2433.28,-7.4 2433.36,-14.4"/>
</g>
<!-- Node89&#45;&gt;Node4 -->
<g id="edge26" class="edge">
<title>Node89&#45;&gt;Node4</title>
<path fill="none" stroke="#63b8ff" d="M891.07,-225.03C899.01,-223.03 907.21,-221.25 915.03,-220 1079.49,-193.79 1583.52,-180.86 1769.84,-176.88"/>
<polygon fill="#63b8ff" stroke="#63b8ff" points="1769.68,-180.38 1779.61,-176.67 1769.54,-173.38 1769.68,-180.38"/>
</g>
<!-- Node102&#45;&gt;Node3 -->
<g id="edge28" class="edge">
<title>Node102&#45;&gt;Node3</title>
<path fill="none" stroke="#63b8ff" d="M1069.45,-368.03C955.07,-354.73 752.94,-330.92 737.03,-327 732.01,-325.76 566.9,-264.43 563.03,-261 530.87,-232.54 518.03,-218.44 518.03,-175.5 518.03,-175.5 518.03,-175.5 518.03,-118.5 518.03,3.04 663.52,-70.8 784.03,-55 1118.15,-11.2 2213.47,-10.18 2433.38,-10.43"/>
<polygon fill="#63b8ff" stroke="#63b8ff" points="2433.1,-13.93 2443.1,-10.44 2433.11,-6.93 2433.1,-13.93"/>
</g>
<!-- Node102&#45;&gt;Node4 -->
<g id="edge29" class="edge">
<title>Node102&#45;&gt;Node4</title>
<path fill="none" stroke="#63b8ff" d="M1136.15,-368.04C1118.37,-352.36 1086.9,-319.45 1106.03,-297 1171.43,-220.25 1239.7,-305.81 1330.03,-261 1353.69,-249.27 1349.01,-230.97 1373.03,-220 1441.97,-188.52 1657.49,-179.29 1770.03,-176.6"/>
<polygon fill="#63b8ff" stroke="#63b8ff" points="1769.82,-180.11 1779.74,-176.38 1769.66,-173.11 1769.82,-180.11"/>
</g>
<!-- Node73 -->
<g id="node15" class="node">
<title>Node73</title>
<g id="a_node15"><a xlink:href="ConstAlias_8h_source.html" target="_top" xlink:title=" ">
<polygon fill="#fff0f0" stroke="red" points="1321.53,-321.5 1196.53,-321.5 1196.53,-302.5 1321.53,-302.5 1321.53,-321.5"/>
<text text-anchor="middle" x="1259.03" y="-309.5" font-family="FreeSans" font-size="10.00">DGtal/base/ConstAlias.h</text>
</a>
</g>
</g>
<!-- Node102&#45;&gt;Node73 -->
<g id="edge30" class="edge">
<title>Node102&#45;&gt;Node73</title>
<path fill="none" stroke="#63b8ff" d="M1162.61,-368.1C1180.99,-357.59 1211.84,-339.97 1233.68,-327.49"/>
<polygon fill="#63b8ff" stroke="#63b8ff" points="1235.33,-330.57 1242.28,-322.57 1231.86,-324.5 1235.33,-330.57"/>
</g>
<!-- Node73&#45;&gt;Node3 -->
<g id="edge31" class="edge">
<title>Node73&#45;&gt;Node3</title>
<path fill="none" stroke="#63b8ff" d="M1305.12,-302.03C1313.73,-300.36 1322.66,-298.62 1331.03,-297 1413.69,-280.96 1446.93,-307.64 1517.03,-261 1555.06,-235.71 1574.03,-221.17 1574.03,-175.5 1574.03,-175.5 1574.03,-175.5 1574.03,-118.5 1574.03,-75.5 1607.18,-71.15 1647.03,-55 1720.4,-25.28 2280.68,-13.73 2433.59,-11.11"/>
<polygon fill="#63b8ff" stroke="#63b8ff" points="2433.24,-14.61 2443.18,-10.95 2433.12,-7.62 2433.24,-14.61"/>
</g>
<!-- Node73&#45;&gt;Node4 -->
<g id="edge32" class="edge">
<title>Node73&#45;&gt;Node4</title>
<path fill="none" stroke="#63b8ff" d="M1302.35,-302.06C1311.78,-300.26 1321.73,-298.47 1331.03,-297 1461.5,-276.38 1505.12,-314.15 1626.03,-261 1651.72,-249.71 1649.2,-233.07 1674.03,-220 1704.02,-204.22 1740.06,-193.69 1770.89,-186.85"/>
<polygon fill="#63b8ff" stroke="#63b8ff" points="1771.46,-190.3 1780.51,-184.8 1770,-183.46 1771.46,-190.3"/>
</g>
<!-- Node74 -->
<g id="node16" class="node">
<title>Node74</title>
<g id="a_node16"><a xlink:href="CountedPtr_8h_source.html" target="_top" xlink:title=" ">
<polygon fill="#fff0f0" stroke="red" points="1508.03,-250 1382.03,-250 1382.03,-231 1508.03,-231 1508.03,-250"/>
<text text-anchor="middle" x="1445.03" y="-238" font-family="FreeSans" font-size="10.00">DGtal/base/CountedPtr.h</text>
</a>
</g>
</g>
<!-- Node73&#45;&gt;Node74 -->
<g id="edge33" class="edge">
<title>Node73&#45;&gt;Node74</title>
<path fill="none" stroke="#63b8ff" d="M1282.97,-302.06C1315.47,-289.91 1373.77,-268.13 1410.87,-254.27"/>
<polygon fill="#63b8ff" stroke="#63b8ff" points="1411.63,-257.72 1419.77,-250.94 1409.18,-251.16 1411.63,-257.72"/>
</g>
<!-- Node74&#45;&gt;Node3 -->
<g id="edge34" class="edge">
<title>Node74&#45;&gt;Node3</title>
<path fill="none" stroke="#63b8ff" d="M1447.31,-230.85C1455.89,-200.21 1489.41,-96.48 1560.03,-55 1636.13,-10.31 2269.87,-9.7 2433.57,-10.29"/>
<polygon fill="#63b8ff" stroke="#63b8ff" points="2433.43,-13.79 2443.44,-10.33 2433.46,-6.79 2433.43,-13.79"/>
</g>
<!-- Node74&#45;&gt;Node4 -->
<g id="edge35" class="edge">
<title>Node74&#45;&gt;Node4</title>
<path fill="none" stroke="#63b8ff" d="M1477.08,-230.55C1490.84,-226.93 1507.15,-222.92 1522.03,-220 1606.67,-203.41 1705.15,-190.62 1769.83,-183.1"/>
<polygon fill="#63b8ff" stroke="#63b8ff" points="1770.07,-186.59 1779.6,-181.97 1769.27,-179.64 1770.07,-186.59"/>
</g>
<!-- Node109&#45;&gt;Node3 -->
<g id="edge37" class="edge">
<title>Node109&#45;&gt;Node3</title>
<path fill="none" stroke="#63b8ff" d="M417.14,-302.25C424.43,-280.89 442.03,-224.26 442.03,-175.5 442.03,-175.5 442.03,-175.5 442.03,-118.5 442.03,-84.91 453.71,-71.4 483.03,-55 527.22,-30.29 2159.58,-13.51 2433.28,-10.87"/>
<polygon fill="#63b8ff" stroke="#63b8ff" points="2433.1,-14.37 2443.07,-10.77 2433.03,-7.37 2433.1,-14.37"/>
</g>
<!-- Node109&#45;&gt;Node4 -->
<g id="edge39" class="edge">
<title>Node109&#45;&gt;Node4</title>
<path fill="none" stroke="#63b8ff" d="M466.37,-302.06C479,-300.15 492.47,-298.32 505.03,-297 575.87,-289.58 1081.68,-293.55 1145.03,-261 1165.84,-250.31 1157.29,-230.8 1178.03,-220 1229.54,-193.18 1610.69,-181 1770.18,-177.04"/>
<polygon fill="#63b8ff" stroke="#63b8ff" points="1769.84,-180.55 1779.76,-176.8 1769.67,-173.55 1769.84,-180.55"/>
</g>
<!-- Node109&#45;&gt;Node45 -->
<g id="edge40" class="edge">
<title>Node109&#45;&gt;Node45</title>
<path fill="none" stroke="#63b8ff" d="M406.05,-302.2C396.17,-291.29 379.1,-272.46 366.59,-258.66"/>
<polygon fill="#63b8ff" stroke="#63b8ff" points="369.47,-256.63 360.16,-251.57 364.29,-261.33 369.47,-256.63"/>
</g>
<!-- Node91 -->
<g id="node18" class="node">
<title>Node91</title>
<g id="a_node18"><a xlink:title=" ">
<polygon fill="#e0e0e0" stroke="#999999" points="954.03,-250 924.03,-250 924.03,-231 954.03,-231 954.03,-250"/>
<text text-anchor="middle" x="939.03" y="-238" font-family="FreeSans" font-size="10.00">set</text>
</a>
</g>
</g>
<!-- Node109&#45;&gt;Node91 -->
<g id="edge38" class="edge">
<title>Node109&#45;&gt;Node91</title>
<path fill="none" stroke="#63b8ff" d="M468.33,-302.06C480.39,-300.23 493.13,-298.44 505.03,-297 595.84,-286.04 830.26,-295.34 915.03,-261 917.46,-260.02 919.83,-258.7 922.08,-257.22"/>
<polygon fill="#63b8ff" stroke="#63b8ff" points="924.16,-260.04 929.78,-251.06 919.79,-254.57 924.16,-260.04"/>
</g>
<!-- Node112&#45;&gt;Node3 -->
<g id="edge42" class="edge">
<title>Node112&#45;&gt;Node3</title>
<path fill="none" stroke="#63b8ff" d="M1261.77,-368.04C1252.94,-366.3 1243.7,-364.54 1235.03,-363 1198.5,-356.53 599.18,-289.17 575.03,-261 563.17,-247.17 563.79,-234.34 575.03,-220 764.8,22 942.44,-97.47 1247.03,-55 1484.36,-21.91 2252.04,-12.6 2433.39,-10.84"/>
<polygon fill="#63b8ff" stroke="#63b8ff" points="2433.23,-14.34 2443.2,-10.75 2433.16,-7.34 2433.23,-14.34"/>
</g>
<!-- Node112&#45;&gt;Node4 -->
<g id="edge43" class="edge">
<title>Node112&#45;&gt;Node4</title>
<path fill="none" stroke="#63b8ff" d="M1259.68,-368.07C1219.96,-359.21 1166.64,-344.46 1154.03,-327 1146.23,-316.19 1145.08,-306.88 1154.03,-297 1208.45,-236.92 1439.21,-283.69 1517.03,-261 1555.77,-249.71 1559.8,-232.89 1598.03,-220 1654.36,-201.01 1720.96,-189.51 1770.02,-182.98"/>
<polygon fill="#63b8ff" stroke="#63b8ff" points="1770.18,-186.49 1779.65,-181.73 1769.28,-179.54 1770.18,-186.49"/>
</g>
<!-- Node112&#45;&gt;Node89 -->
<g id="edge46" class="edge">
<title>Node112&#45;&gt;Node89</title>
<path fill="none" stroke="#63b8ff" d="M1265.92,-368.02C1225.64,-358.57 1161.14,-342.89 1106.03,-327 1032.43,-305.77 948.4,-277.65 895.79,-259.56"/>
<polygon fill="#63b8ff" stroke="#63b8ff" points="897.08,-256.31 886.49,-256.36 894.8,-262.93 897.08,-256.31"/>
</g>
<!-- Node112&#45;&gt;Node73 -->
<g id="edge45" class="edge">
<title>Node112&#45;&gt;Node73</title>
<path fill="none" stroke="#63b8ff" d="M1298.64,-368.1C1291.77,-358.55 1280.68,-343.11 1271.98,-331.01"/>
<polygon fill="#63b8ff" stroke="#63b8ff" points="1274.94,-329.13 1266.26,-323.05 1269.25,-333.22 1274.94,-329.13"/>
</g>
<!-- Node112&#45;&gt;Node74 -->
<g id="edge44" class="edge">
<title>Node112&#45;&gt;Node74</title>
<path fill="none" stroke="#63b8ff" d="M1259.75,-368.02C1206.72,-357.05 1124.91,-338.53 1116.03,-327 1107.9,-316.43 1107.3,-307.07 1116.03,-297 1153.1,-254.27 1312.54,-271.96 1368.03,-261 1379.08,-258.82 1390.91,-256.05 1401.9,-253.28"/>
<polygon fill="#63b8ff" stroke="#63b8ff" points="1402.71,-256.69 1411.52,-250.8 1400.96,-249.91 1402.71,-256.69"/>
</g>
<!-- Node115 -->
<g id="node20" class="node">
<title>Node115</title>
<g id="a_node20"><a xlink:title=" ">
<polygon fill="#e0e0e0" stroke="#999999" points="1480.03,-321.5 1340.03,-321.5 1340.03,-302.5 1480.03,-302.5 1480.03,-321.5"/>
<text text-anchor="middle" x="1410.03" y="-309.5" font-family="FreeSans" font-size="10.00">boost/graph/graph_traits.hpp</text>
</a>
</g>
</g>
<!-- Node112&#45;&gt;Node115 -->
<g id="edge47" class="edge">
<title>Node112&#45;&gt;Node115</title>
<path fill="none" stroke="#63b8ff" d="M1319.63,-368.1C1336.79,-357.64 1365.52,-340.13 1385.99,-327.66"/>
<polygon fill="#63b8ff" stroke="#63b8ff" points="1387.55,-330.8 1394.26,-322.61 1383.9,-324.83 1387.55,-330.8"/>
</g>
<!-- Node116 -->
<g id="node21" class="node">
<title>Node116</title>
<g id="a_node21"><a xlink:title=" ">
<polygon fill="#e0e0e0" stroke="#999999" points="1630.03,-321.5 1498.03,-321.5 1498.03,-302.5 1630.03,-302.5 1630.03,-321.5"/>
<text text-anchor="middle" x="1564.03" y="-309.5" font-family="FreeSans" font-size="10.00">boost/graph/properties.hpp</text>
</a>
</g>
</g>
<!-- Node112&#45;&gt;Node116 -->
<g id="edge48" class="edge">
<title>Node112&#45;&gt;Node116</title>
<path fill="none" stroke="#63b8ff" d="M1341.32,-368.03C1387.27,-356.68 1466.52,-337.1 1517.05,-324.61"/>
<polygon fill="#63b8ff" stroke="#63b8ff" points="1517.66,-328.07 1526.52,-322.27 1515.98,-321.27 1517.66,-328.07"/>
</g>
<!-- Node121&#45;&gt;Node3 -->
<g id="edge50" class="edge">
<title>Node121&#45;&gt;Node3</title>
<path fill="none" stroke="#63b8ff" d="M610.19,-374.93C461.78,-368.47 114.03,-342.56 114.03,-241.5 114.03,-241.5 114.03,-241.5 114.03,-118.5 114.03,-39.51 202.51,-70.14 280.03,-55 389.89,-33.55 2148.84,-13.94 2433.31,-10.91"/>
<polygon fill="#63b8ff" stroke="#63b8ff" points="2433.18,-14.41 2443.14,-10.8 2433.1,-7.41 2433.18,-14.41"/>
</g>
<!-- Node121&#45;&gt;Node4 -->
<g id="edge52" class="edge">
<title>Node121&#45;&gt;Node4</title>
<path fill="none" stroke="#63b8ff" d="M716.38,-362.57C740.98,-353.33 772.81,-340.55 800.03,-327 823.23,-315.45 825.43,-305.13 850.03,-297 1005.23,-245.7 1065.64,-325.02 1216.03,-261 1241.85,-250.01 1238.1,-230.72 1264.03,-220 1353.76,-182.91 1637.22,-176.47 1770.06,-175.53"/>
<polygon fill="#63b8ff" stroke="#63b8ff" points="1769.79,-179.03 1779.77,-175.47 1769.74,-172.03 1769.79,-179.03"/>
</g>
<!-- Node121&#45;&gt;Node45 -->
<g id="edge53" class="edge">
<title>Node121&#45;&gt;Node45</title>
<path fill="none" stroke="#63b8ff" d="M610.06,-377.51C518.35,-376.65 359.46,-368.95 323.03,-327 306.28,-307.71 322.37,-278.15 336.17,-259.34"/>
<polygon fill="#63b8ff" stroke="#63b8ff" points="338.86,-261.58 342.26,-251.54 333.35,-257.27 338.86,-261.58"/>
</g>
<!-- Node121&#45;&gt;Node91 -->
<g id="edge51" class="edge">
<title>Node121&#45;&gt;Node91</title>
<path fill="none" stroke="#63b8ff" d="M697.46,-362.61C723.67,-345.43 769.78,-316.58 812.03,-297 856.03,-276.61 872.69,-284.64 915.03,-261 917,-259.9 918.97,-258.64 920.89,-257.29"/>
<polygon fill="#63b8ff" stroke="#63b8ff" points="922.9,-260.16 928.59,-251.22 918.57,-254.66 922.9,-260.16"/>
</g>
<!-- Node121&#45;&gt;Node122 -->
<g id="edge54" class="edge">
<title>Node121&#45;&gt;Node122</title>
<path fill="none" stroke="#63b8ff" d="M654.73,-362.8C641.89,-354.24 625.32,-343.19 611.05,-333.68"/>
<polygon fill="#63b8ff" stroke="#63b8ff" points="613.13,-330.86 602.87,-328.22 609.25,-336.68 613.13,-330.86"/>
</g>
<!-- Node122&#45;&gt;Node3 -->
<g id="edge55" class="edge">
<title>Node122&#45;&gt;Node3</title>
<path fill="none" stroke="#63b8ff" d="M547.95,-296.61C532.62,-288.24 515.22,-276.3 504.03,-261 480.74,-229.14 480.03,-214.97 480.03,-175.5 480.03,-175.5 480.03,-175.5 480.03,-118.5 480.03,-88.33 479.41,-72.43 504.03,-55 544.92,-26.06 2162.41,-12.8 2433.63,-10.78"/>
<polygon fill="#63b8ff" stroke="#63b8ff" points="2433.34,-14.28 2443.31,-10.7 2433.29,-7.28 2433.34,-14.28"/>
</g>
<!-- Node122&#45;&gt;Node4 -->
<g id="edge57" class="edge">
<title>Node122&#45;&gt;Node4</title>
<path fill="none" stroke="#63b8ff" d="M645.95,-306.58C796.35,-296.34 1153.78,-271.11 1178.03,-261 1203.93,-250.2 1200.08,-230.66 1226.03,-220 1322.8,-180.27 1630.57,-175.28 1770.09,-175.13"/>
<polygon fill="#63b8ff" stroke="#63b8ff" points="1769.93,-178.63 1779.93,-175.13 1769.93,-171.63 1769.93,-178.63"/>
</g>
<!-- Node122&#45;&gt;Node45 -->
<g id="edge58" class="edge">
<title>Node122&#45;&gt;Node45</title>
<path fill="none" stroke="#63b8ff" d="M532.31,-296.52C490.58,-283.85 430.67,-265.67 391.31,-253.72"/>
<polygon fill="#63b8ff" stroke="#63b8ff" points="392.58,-250.45 381.99,-250.9 390.54,-257.15 392.58,-250.45"/>
</g>
<!-- Node122&#45;&gt;Node91 -->
<g id="edge56" class="edge">
<title>Node122&#45;&gt;Node91</title>
<path fill="none" stroke="#63b8ff" d="M646,-305.32C729.49,-297.41 868.09,-281.7 915.03,-261 917.35,-259.98 919.62,-258.67 921.8,-257.22"/>
<polygon fill="#63b8ff" stroke="#63b8ff" points="923.61,-260.25 929.28,-251.3 919.26,-254.76 923.61,-260.25"/>
</g>
<!-- Node125&#45;&gt;Node3 -->
<g id="edge61" class="edge">
<title>Node125&#45;&gt;Node3</title>
<path fill="none" stroke="#63b8ff" d="M1323.82,-448.29C1108.1,-446.66 366.11,-433.29 159.03,-327 111.92,-302.82 76.03,-294.46 76.03,-241.5 76.03,-241.5 76.03,-241.5 76.03,-118.5 76.03,-80.87 97.89,-70.81 132.03,-55 186.5,-29.79 2134.83,-13.2 2433.72,-10.8"/>
<polygon fill="#63b8ff" stroke="#63b8ff" points="2433.33,-14.3 2443.3,-10.72 2433.27,-7.3 2433.33,-14.3"/>
</g>
<!-- Node125&#45;&gt;Node4 -->
<g id="edge63" class="edge">
<title>Node125&#45;&gt;Node4</title>
<path fill="none" stroke="#63b8ff" d="M1386.41,-434.04C1389.87,-415.17 1392.58,-382.31 1375.03,-363 1315.49,-297.45 1127.4,-362.47 1187.03,-297 1244.9,-233.47 1491.96,-292.18 1572.03,-261 1600.11,-250.07 1598.61,-232.49 1626.03,-220 1671.53,-199.29 1726.86,-188.11 1769.87,-182.14"/>
<polygon fill="#63b8ff" stroke="#63b8ff" points="1770.13,-185.63 1779.59,-180.85 1769.21,-178.69 1770.13,-185.63"/>
</g>
<!-- Node125&#45;&gt;Node34 -->
<g id="edge65" class="edge">
<title>Node125&#45;&gt;Node34</title>
<path fill="none" stroke="#63b8ff" d="M1442.38,-443.05C1581.07,-430.24 1915.54,-398.84 1926.03,-393 2034.24,-332.75 2104.93,-191.33 2127.89,-139.76"/>
<polygon fill="#63b8ff" stroke="#63b8ff" points="2131,-141.38 2131.77,-130.81 2124.58,-138.59 2131,-141.38"/>
</g>
<!-- Node125&#45;&gt;Node73 -->
<g id="edge64" class="edge">
<title>Node125&#45;&gt;Node73</title>
<path fill="none" stroke="#63b8ff" d="M1394.14,-434.21C1406.75,-416.13 1423.65,-384.72 1408.03,-363 1396.69,-347.22 1351.84,-333.52 1314.28,-324.47"/>
<polygon fill="#63b8ff" stroke="#63b8ff" points="1315.42,-321.15 1304.89,-322.28 1313.83,-327.96 1315.42,-321.15"/>
</g>
<!-- Node125&#45;&gt;Node121 -->
<g id="edge66" class="edge">
<title>Node125&#45;&gt;Node121</title>
<path fill="none" stroke="#63b8ff" d="M1323.67,-442.66C1196,-430.11 895.4,-400.56 753.18,-386.58"/>
<polygon fill="#63b8ff" stroke="#63b8ff" points="753.79,-383.13 743.49,-385.63 753.1,-390.09 753.79,-383.13"/>
</g>
<!-- Node59 -->
<g id="node25" class="node">
<title>Node59</title>
<g id="a_node25"><a xlink:title=" ">
<polygon fill="#e0e0e0" stroke="#999999" points="1806.03,-321.5 1762.03,-321.5 1762.03,-302.5 1806.03,-302.5 1806.03,-321.5"/>
<text text-anchor="middle" x="1784.03" y="-309.5" font-family="FreeSans" font-size="10.00">vector</text>
</a>
</g>
</g>
<!-- Node125&#45;&gt;Node59 -->
<g id="edge62" class="edge">
<title>Node125&#45;&gt;Node59</title>
<path fill="none" stroke="#63b8ff" d="M1442.18,-444.53C1527.89,-437.87 1681.45,-422.19 1728.03,-393 1750.99,-378.61 1767.11,-351.01 1775.98,-332.3"/>
<polygon fill="#63b8ff" stroke="#63b8ff" points="1779.08,-333.94 1779.95,-323.38 1772.69,-331.09 1779.08,-333.94"/>
</g>
<!-- Node153&#45;&gt;Node3 -->
<g id="edge68" class="edge">
<title>Node153&#45;&gt;Node3</title>
<path fill="none" stroke="#63b8ff" d="M730.58,-219.54C846.26,-179.76 1119,-91.32 1356.03,-55 1570.35,-22.16 2261.87,-12.74 2433.3,-10.88"/>
<polygon fill="#63b8ff" stroke="#63b8ff" points="2433.26,-14.38 2443.22,-10.77 2433.18,-7.38 2433.26,-14.38"/>
</g>
<!-- Node153&#45;&gt;Node4 -->
<g id="edge70" class="edge">
<title>Node153&#45;&gt;Node4</title>
<path fill="none" stroke="#63b8ff" d="M764.32,-221.13C767.25,-220.72 770.16,-220.34 773.03,-220 1146.71,-175.67 1598.55,-173.66 1769.73,-174.73"/>
<polygon fill="#63b8ff" stroke="#63b8ff" points="1769.54,-178.23 1779.57,-174.8 1769.59,-171.23 1769.54,-178.23"/>
</g>
<!-- Node153&#45;&gt;Node14 -->
<g id="edge69" class="edge">
<title>Node153&#45;&gt;Node14</title>
<path fill="none" stroke="#63b8ff" d="M764.39,-221.6C767.3,-221.06 770.19,-220.52 773.03,-220 1112.53,-157.6 1525.28,-90.21 1644.39,-70.93"/>
<polygon fill="#63b8ff" stroke="#63b8ff" points="1644.8,-74.41 1654.11,-69.35 1643.68,-67.5 1644.8,-74.41"/>
</g>
<!-- Node158&#45;&gt;Node3 -->
<g id="edge72" class="edge">
<title>Node158&#45;&gt;Node3</title>
<path fill="none" stroke="#63b8ff" d="M1092.77,-219.62C1172.62,-179.79 1362.33,-90.94 1533.03,-55 1709.3,-17.89 2279.78,-11.69 2433.55,-10.69"/>
<polygon fill="#63b8ff" stroke="#63b8ff" points="2433.21,-14.19 2443.19,-10.63 2433.17,-7.19 2433.21,-14.19"/>
</g>
<!-- Node158&#45;&gt;Node4 -->
<g id="edge74" class="edge">
<title>Node158&#45;&gt;Node4</title>
<path fill="none" stroke="#63b8ff" d="M1136.39,-222.02C1140.99,-221.28 1145.57,-220.59 1150.03,-220 1375.33,-190 1644.81,-180.03 1769.87,-176.88"/>
<polygon fill="#63b8ff" stroke="#63b8ff" points="1769.73,-180.38 1779.64,-176.64 1769.56,-173.38 1769.73,-180.38"/>
</g>
<!-- Node158&#45;&gt;Node14 -->
<g id="edge73" class="edge">
<title>Node158&#45;&gt;Node14</title>
<path fill="none" stroke="#63b8ff" d="M1125.61,-219.54C1260.35,-181.97 1546.87,-102.07 1644.58,-74.83"/>
<polygon fill="#63b8ff" stroke="#63b8ff" points="1645.39,-78.24 1654.08,-72.18 1643.51,-71.49 1645.39,-78.24"/>
</g>
<!-- Node160&#45;&gt;Node3 -->
<g id="edge77" class="edge">
<title>Node160&#45;&gt;Node3</title>
<path fill="none" stroke="#63b8ff" d="M3021.88,-375.58C3183.22,-371.96 3542.77,-360.25 3587.03,-327 3644.55,-283.79 3644.03,-247.44 3644.03,-175.5 3644.03,-175.5 3644.03,-175.5 3644.03,-118.5 3644.03,-60.89 3586.45,-70.75 3531.03,-55 3431.54,-26.72 2689.96,-13.79 2510.87,-11.06"/>
<polygon fill="#63b8ff" stroke="#63b8ff" points="2511,-7.56 2500.95,-10.91 2510.89,-14.56 2511,-7.56"/>
</g>
<!-- Node160&#45;&gt;Node4 -->
<g id="edge82" class="edge">
<title>Node160&#45;&gt;Node4</title>
<path fill="none" stroke="#63b8ff" d="M2910.99,-368.13C2849.18,-351.82 2711.72,-316.96 2594.03,-297 2452.06,-272.92 2400.59,-325.88 2272.03,-261 2249.85,-249.81 2256.21,-231.21 2234.03,-220 2178.92,-192.15 2007.57,-181.48 1909.95,-177.59"/>
<polygon fill="#63b8ff" stroke="#63b8ff" points="1910.35,-174.1 1900.23,-177.22 1910.09,-181.1 1910.35,-174.1"/>
</g>
<!-- Node160&#45;&gt;Node74 -->
<g id="edge83" class="edge">
<title>Node160&#45;&gt;Node74</title>
<path fill="none" stroke="#63b8ff" d="M2901.36,-368C2819.37,-351.09 2633.93,-314.69 2476.03,-297 2119.27,-257.04 1689.72,-245.64 1519.61,-242.56"/>
<polygon fill="#63b8ff" stroke="#63b8ff" points="1519.87,-239.07 1509.81,-242.39 1519.75,-246.07 1519.87,-239.07"/>
</g>
<!-- Node160&#45;&gt;Node91 -->
<g id="edge79" class="edge">
<title>Node160&#45;&gt;Node91</title>
<path fill="none" stroke="#63b8ff" d="M2866.04,-373.53C2748.37,-367.66 2518.61,-353.71 2325.03,-327 2256.39,-317.53 2240.9,-304.72 2172.03,-297 2038.48,-282.02 1089,-307.84 963.03,-261 960.58,-260.09 958.19,-258.82 955.93,-257.35"/>
<polygon fill="#63b8ff" stroke="#63b8ff" points="958.23,-254.71 948.23,-251.21 953.86,-260.18 958.23,-254.71"/>
</g>
<!-- Node160&#45;&gt;Node115 -->
<g id="edge80" class="edge">
<title>Node160&#45;&gt;Node115</title>
<path fill="none" stroke="#63b8ff" d="M2866.26,-373.79C2794.14,-370.86 2683.84,-366.45 2588.03,-363 2099.64,-345.4 1975.1,-377.77 1489.03,-327 1481.31,-326.19 1473.21,-325.07 1465.25,-323.82"/>
<polygon fill="#63b8ff" stroke="#63b8ff" points="1466.1,-320.41 1455.66,-322.22 1464.95,-327.31 1466.1,-320.41"/>
</g>
<!-- Node160&#45;&gt;Node116 -->
<g id="edge81" class="edge">
<title>Node160&#45;&gt;Node116</title>
<path fill="none" stroke="#63b8ff" d="M2866.44,-373.89C2619.79,-363.97 1863.44,-333.4 1753.03,-327 1716.44,-324.88 1675.9,-321.95 1641.78,-319.32"/>
<polygon fill="#63b8ff" stroke="#63b8ff" points="1642.22,-315.85 1631.98,-318.56 1641.68,-322.82 1642.22,-315.85"/>
</g>
<!-- Node160&#45;&gt;Node59 -->
<g id="edge78" class="edge">
<title>Node160&#45;&gt;Node59</title>
<path fill="none" stroke="#63b8ff" d="M2866.12,-372.7C2637.39,-360.08 1974.08,-323.49 1817.45,-314.84"/>
<polygon fill="#63b8ff" stroke="#63b8ff" points="1817.95,-311.37 1807.77,-314.31 1817.56,-318.36 1817.95,-311.37"/>
</g>
<!-- Node161 -->
<g id="node29" class="node">
<title>Node161</title>
<g id="a_node29"><a xlink:href="CWithGradientMap_8h_source.html" target="_top" xlink:title=" ">
<polygon fill="#fff0f0" stroke="red" points="3283.53,-255.5 3144.53,-255.5 3144.53,-225.5 3283.53,-225.5 3283.53,-255.5"/>
<text text-anchor="start" x="3152.53" y="-243.5" font-family="FreeSans" font-size="10.00">DGtal/kernel/CWithGradient</text>
<text text-anchor="middle" x="3214.03" y="-232.5" font-family="FreeSans" font-size="10.00">Map.h</text>
</a>
</g>
</g>
<!-- Node160&#45;&gt;Node161 -->
<g id="edge84" class="edge">
<title>Node160&#45;&gt;Node161</title>
<path fill="none" stroke="#63b8ff" d="M2986.76,-368.06C3019.95,-360.09 3066.51,-346.62 3104.03,-327 3136.85,-309.84 3169.77,-282.62 3190.92,-263.51"/>
<polygon fill="#63b8ff" stroke="#63b8ff" points="3193.12,-266.24 3198.12,-256.9 3188.38,-261.09 3193.12,-266.24"/>
</g>
<!-- Node162 -->
<g id="node30" class="node">
<title>Node162</title>
<g id="a_node30"><a xlink:href="CCellEmbedder_8h_source.html" target="_top" xlink:title=" ">
<polygon fill="#fff0f0" stroke="red" points="3577.53,-250 3416.53,-250 3416.53,-231 3577.53,-231 3577.53,-250"/>
<text text-anchor="middle" x="3497.03" y="-238" font-family="FreeSans" font-size="10.00">DGtal/topology/CCellEmbedder.h</text>
</a>
</g>
</g>
<!-- Node160&#45;&gt;Node162 -->
<g id="edge87" class="edge">
<title>Node160&#45;&gt;Node162</title>
<path fill="none" stroke="#63b8ff" d="M3021.67,-372.99C3128.2,-366.65 3313.59,-352.34 3376.03,-327 3396.3,-318.78 3397.3,-309.8 3415.03,-297 3434.54,-282.92 3457.22,-267.64 3473.78,-256.69"/>
<polygon fill="#63b8ff" stroke="#63b8ff" points="3475.53,-259.73 3481.96,-251.31 3471.68,-253.89 3475.53,-259.73"/>
</g>
<!-- Node163 -->
<g id="node31" class="node">
<title>Node163</title>
<g id="a_node31"><a xlink:href="CSCellEmbedder_8h_source.html" target="_top" xlink:title=" ">
<polygon fill="#fff0f0" stroke="red" points="2916.03,-250 2748.03,-250 2748.03,-231 2916.03,-231 2916.03,-250"/>
<text text-anchor="middle" x="2832.03" y="-238" font-family="FreeSans" font-size="10.00">DGtal/topology/CSCellEmbedder.h</text>
</a>
</g>
</g>
<!-- Node160&#45;&gt;Node163 -->
<g id="edge90" class="edge">
<title>Node160&#45;&gt;Node163</title>
<path fill="none" stroke="#63b8ff" d="M2934.6,-368.15C2924.43,-358.43 2907.95,-342.18 2895.03,-327 2876.05,-304.7 2856.37,-277.16 2844.17,-259.47"/>
<polygon fill="#63b8ff" stroke="#63b8ff" points="2847.29,-257.83 2838.76,-251.55 2841.51,-261.78 2847.29,-257.83"/>
</g>
<!-- Node164 -->
<g id="node32" class="node">
<title>Node164</title>
<g id="a_node32"><a xlink:href="CDigitalSurfaceContainer_8h_source.html" target="_top" xlink:title=" ">
<polygon fill="#fff0f0" stroke="red" points="3578.03,-327 3424.03,-327 3424.03,-297 3578.03,-297 3578.03,-327"/>
<text text-anchor="start" x="3432.03" y="-315" font-family="FreeSans" font-size="10.00">DGtal/topology/CDigitalSurface</text>
<text text-anchor="middle" x="3501.03" y="-304" font-family="FreeSans" font-size="10.00">Container.h</text>
</a>
</g>
</g>
<!-- Node160&#45;&gt;Node164 -->
<g id="edge93" class="edge">
<title>Node160&#45;&gt;Node164</title>
<path fill="none" stroke="#63b8ff" d="M3021.67,-369.77C3114.27,-360.88 3273.68,-344.79 3410.03,-327 3410.87,-326.89 3411.7,-326.78 3412.54,-326.67"/>
<polygon fill="#63b8ff" stroke="#63b8ff" points="3412.69,-330.18 3422.12,-325.36 3411.74,-323.25 3412.69,-330.18"/>
</g>
<!-- Node165 -->
<g id="node33" class="node">
<title>Node165</title>
<g id="a_node33"><a xlink:href="CDigitalSurfaceTracker_8h_source.html" target="_top" xlink:title=" ">
<polygon fill="white" stroke="#666666" points="3088.03,-255.5 2934.03,-255.5 2934.03,-225.5 3088.03,-225.5 3088.03,-255.5"/>
<text text-anchor="start" x="2942.03" y="-243.5" font-family="FreeSans" font-size="10.00">DGtal/topology/CDigitalSurface</text>
<text text-anchor="middle" x="3011.03" y="-232.5" font-family="FreeSans" font-size="10.00">Tracker.h</text>
</a>
</g>
</g>
<!-- Node160&#45;&gt;Node165 -->
<g id="edge99" class="edge">
<title>Node160&#45;&gt;Node165</title>
<path fill="none" stroke="#63b8ff" d="M3020.91,-368.03C3046.16,-361.01 3071.66,-348.66 3087.03,-327 3103.98,-303.13 3076.21,-278.4 3049.61,-261.72"/>
<polygon fill="#63b8ff" stroke="#63b8ff" points="3051.62,-258.84 3041.24,-256.73 3048.04,-264.86 3051.62,-258.84"/>
</g>
<!-- Node166 -->
<g id="node34" class="node">
<title>Node166</title>
<g id="a_node34"><a xlink:href="UmbrellaComputer_8h_source.html" target="_top" xlink:title=" ">
<polygon fill="#fff0f0" stroke="red" points="3078.03,-321.5 2904.03,-321.5 2904.03,-302.5 3078.03,-302.5 3078.03,-321.5"/>
<text text-anchor="middle" x="2991.03" y="-309.5" font-family="FreeSans" font-size="10.00">DGtal/topology/UmbrellaComputer.h</text>
</a>
</g>
</g>
<!-- Node160&#45;&gt;Node166 -->
<g id="edge100" class="edge">
<title>Node160&#45;&gt;Node166</title>
<path fill="none" stroke="#63b8ff" d="M2950.57,-368.1C2957.58,-358.55 2968.92,-343.11 2977.81,-331.01"/>
<polygon fill="#63b8ff" stroke="#63b8ff" points="2980.56,-333.18 2983.66,-323.04 2974.92,-329.03 2980.56,-333.18"/>
</g>
<!-- Node168 -->
<g id="node35" class="node">
<title>Node168</title>
<g id="a_node35"><a xlink:href="DigitalSurface_8ih_source.html" target="_top" xlink:title=" ">
<polygon fill="white" stroke="#666666" points="3367.53,-321.5 3210.53,-321.5 3210.53,-302.5 3367.53,-302.5 3367.53,-321.5"/>
<text text-anchor="middle" x="3289.03" y="-309.5" font-family="FreeSans" font-size="10.00">DGtal/topology/DigitalSurface.ih</text>
</a>
</g>
</g>
<!-- Node160&#45;&gt;Node168 -->
<g id="edge104" class="edge">
<title>Node160&#45;&gt;Node168</title>
<path fill="none" stroke="#63b8ff" d="M2992.37,-368.03C3054.51,-356.51 3162.4,-336.49 3229.52,-324.04"/>
<polygon fill="#63b8ff" stroke="#63b8ff" points="3230.07,-327.5 3239.26,-322.23 3228.79,-320.62 3230.07,-327.5"/>
</g>
<!-- Node161&#45;&gt;Node3 -->
<g id="edge85" class="edge">
<title>Node161&#45;&gt;Node3</title>
<path fill="none" stroke="#63b8ff" d="M3188.37,-225.23C3124.01,-190.14 2949.69,-99.27 2793.03,-55 2693.55,-26.89 2571.5,-16.21 2510.53,-12.42"/>
<polygon fill="#63b8ff" stroke="#63b8ff" points="2510.88,-8.93 2500.69,-11.84 2510.47,-15.92 2510.88,-8.93"/>
</g>
<!-- Node161&#45;&gt;Node4 -->
<g id="edge86" class="edge">
<title>Node161&#45;&gt;Node4</title>
<path fill="none" stroke="#63b8ff" d="M3158.73,-225.07C3149.22,-223.04 3139.38,-221.23 3130.03,-220 2891.21,-188.46 2143.68,-178.51 1910.34,-176.13"/>
<polygon fill="#63b8ff" stroke="#63b8ff" points="1910.51,-172.63 1900.48,-176.03 1910.44,-179.63 1910.51,-172.63"/>
</g>
<!-- Node162&#45;&gt;Node3 -->
<g id="edge88" class="edge">
<title>Node162&#45;&gt;Node3</title>
<path fill="none" stroke="#63b8ff" d="M3495.67,-230.9C3490.33,-200.45 3467.79,-97.29 3402.03,-55 3326.23,-6.25 2676.61,-8.67 2510.56,-10.1"/>
<polygon fill="#63b8ff" stroke="#63b8ff" points="2510.72,-6.6 2500.75,-10.19 2510.78,-13.6 2510.72,-6.6"/>
</g>
<!-- Node162&#45;&gt;Node4 -->
<g id="edge89" class="edge">
<title>Node162&#45;&gt;Node4</title>
<path fill="none" stroke="#63b8ff" d="M3416.31,-230.62C3378.6,-226.77 3333.07,-222.58 3292.03,-220 2761.52,-186.67 2120.35,-178.06 1910.32,-176.06"/>
<polygon fill="#63b8ff" stroke="#63b8ff" points="1910.42,-172.56 1900.39,-175.96 1910.36,-179.56 1910.42,-172.56"/>
</g>
<!-- Node163&#45;&gt;Node3 -->
<g id="edge91" class="edge">
<title>Node163&#45;&gt;Node3</title>
<path fill="none" stroke="#63b8ff" d="M2830.25,-230.75C2823.65,-200.68 2797.55,-100.86 2734.03,-55 2698.91,-29.64 2574.31,-17.54 2510.42,-12.89"/>
<polygon fill="#63b8ff" stroke="#63b8ff" points="2510.96,-9.42 2500.74,-12.21 2510.47,-16.4 2510.96,-9.42"/>
</g>
<!-- Node163&#45;&gt;Node4 -->
<g id="edge92" class="edge">
<title>Node163&#45;&gt;Node4</title>
<path fill="none" stroke="#63b8ff" d="M2747.84,-233.56C2691.56,-229.63 2615.87,-224.4 2549.03,-220 2315.13,-204.6 2037.73,-187.54 1910.35,-179.77"/>
<polygon fill="#63b8ff" stroke="#63b8ff" points="1910.57,-176.28 1900.38,-179.16 1910.15,-183.26 1910.57,-176.28"/>
</g>
<!-- Node164&#45;&gt;Node3 -->
<g id="edge94" class="edge">
<title>Node164&#45;&gt;Node3</title>
<path fill="none" stroke="#63b8ff" d="M3539.36,-296.64C3556.02,-288.56 3574.36,-276.86 3586.03,-261 3609.16,-229.57 3606.03,-214.53 3606.03,-175.5 3606.03,-175.5 3606.03,-175.5 3606.03,-118.5 3606.03,-5.97 2709.68,-8.17 2510.8,-10.04"/>
<polygon fill="#63b8ff" stroke="#63b8ff" points="2510.98,-6.54 2501.02,-10.14 2511.05,-13.54 2510.98,-6.54"/>
</g>
<!-- Node164&#45;&gt;Node4 -->
<g id="edge95" class="edge">
<title>Node164&#45;&gt;Node4</title>
<path fill="none" stroke="#63b8ff" d="M3423.77,-301.43C3408,-299.73 3391.49,-298.15 3376.03,-297 3266.82,-288.9 2495.32,-294.45 2391.03,-261 2359.58,-250.91 2360.2,-230.94 2329.03,-220 2253.62,-193.53 2026.34,-181.97 1910.12,-177.67"/>
<polygon fill="#63b8ff" stroke="#63b8ff" points="1910.52,-174.18 1900.4,-177.32 1910.27,-181.18 1910.52,-174.18"/>
</g>
<!-- Node164&#45;&gt;Node165 -->
<g id="edge96" class="edge">
<title>Node164&#45;&gt;Node165</title>
<path fill="none" stroke="#63b8ff" d="M3423.72,-302.12C3325.66,-290.71 3162.09,-271.18 3102.03,-261 3096.83,-260.12 3091.47,-259.14 3086.09,-258.12"/>
<polygon fill="#63b8ff" stroke="#63b8ff" points="3087.01,-254.73 3076.52,-256.23 3085.65,-261.6 3087.01,-254.73"/>
</g>
<!-- Node165&#45;&gt;Node3 -->
<g id="edge97" class="edge">
<title>Node165&#45;&gt;Node3</title>
<path fill="none" stroke="#63b8ff" d="M2996.98,-225.26C2961.06,-189.82 2861.47,-97.45 2759.03,-55 2675.1,-20.22 2567.14,-12.35 2510.56,-10.74"/>
<polygon fill="#63b8ff" stroke="#63b8ff" points="2510.88,-7.25 2500.8,-10.52 2510.72,-14.25 2510.88,-7.25"/>
</g>
<!-- Node165&#45;&gt;Node4 -->
<g id="edge98" class="edge">
<title>Node165&#45;&gt;Node4</title>
<path fill="none" stroke="#63b8ff" d="M2953.93,-225.03C2944.34,-223.04 2934.44,-221.25 2925.03,-220 2727.74,-193.81 2117.87,-180.55 1910.15,-176.71"/>
<polygon fill="#63b8ff" stroke="#63b8ff" points="1910.38,-173.21 1900.32,-176.53 1910.26,-180.21 1910.38,-173.21"/>
</g>
<!-- Node166&#45;&gt;Node3 -->
<g id="edge101" class="edge">
<title>Node166&#45;&gt;Node3</title>
<path fill="none" stroke="#63b8ff" d="M3054.96,-302.01C3148.43,-288.76 3311.94,-265.09 3317.03,-261 3348.77,-235.47 3350.03,-216.23 3350.03,-175.5 3350.03,-175.5 3350.03,-175.5 3350.03,-118.5 3350.03,-46.92 3271.67,-71.53 3202.03,-55 3068.76,-23.36 2641.58,-13.44 2510.59,-11.11"/>
<polygon fill="#63b8ff" stroke="#63b8ff" points="2510.78,-7.61 2500.72,-10.94 2510.65,-14.61 2510.78,-7.61"/>
</g>
<!-- Node166&#45;&gt;Node4 -->
<g id="edge102" class="edge">
<title>Node166&#45;&gt;Node4</title>
<path fill="none" stroke="#63b8ff" d="M2903.71,-304.09C2875.13,-301.83 2843.23,-299.31 2814.03,-297 2611.37,-280.99 2554.4,-313.62 2358.03,-261 2317.13,-250.04 2312.8,-231.45 2272.03,-220 2205.83,-201.41 2014.63,-186.72 1910.19,-179.81"/>
<polygon fill="#63b8ff" stroke="#63b8ff" points="1910.54,-176.32 1900.33,-179.16 1910.08,-183.31 1910.54,-176.32"/>
</g>
<!-- Node166&#45;&gt;Node165 -->
<g id="edge103" class="edge">
<title>Node166&#45;&gt;Node165</title>
<path fill="none" stroke="#63b8ff" d="M2993.57,-302.2C2996.14,-293.25 3000.25,-278.97 3003.84,-266.5"/>
<polygon fill="#63b8ff" stroke="#63b8ff" points="3007.1,-267.81 3006.51,-257.23 3000.38,-265.87 3007.1,-267.81"/>
</g>
<!-- Node169&#45;&gt;Node3 -->
<g id="edge106" class="edge">
<title>Node169&#45;&gt;Node3</title>
<path fill="none" stroke="#63b8ff" d="M1627.34,-368.05C1645.4,-358.1 1675.37,-341.53 1701.03,-327 1724.25,-313.85 1728.85,-308.27 1753.03,-297 1852.06,-250.86 2133.09,-201.25 2215.03,-129 2242.77,-104.55 2223.57,-77.33 2253.03,-55 2280.91,-33.88 2378.12,-20.44 2433.2,-14.33"/>
<polygon fill="#63b8ff" stroke="#63b8ff" points="2433.52,-17.82 2443.09,-13.27 2432.77,-10.86 2433.52,-17.82"/>
</g>
<!-- Node169&#45;&gt;Node4 -->
<g id="edge108" class="edge">
<title>Node169&#45;&gt;Node4</title>
<path fill="none" stroke="#63b8ff" d="M1622.56,-368.11C1635.04,-358.36 1655.39,-342.08 1672.03,-327 1721.88,-281.85 1727.94,-263.73 1779.03,-220 1791.17,-209.61 1805.58,-199.03 1817.34,-190.79"/>
<polygon fill="#63b8ff" stroke="#63b8ff" points="1819,-193.9 1825.25,-185.34 1815.03,-188.14 1819,-193.9"/>
</g>
<!-- Node169&#45;&gt;Node73 -->
<g id="edge109" class="edge">
<title>Node169&#45;&gt;Node73</title>
<path fill="none" stroke="#63b8ff" d="M1559.38,-368.02C1503.17,-358.19 1410.64,-341.85 1331.03,-327 1326.11,-326.08 1321,-325.12 1315.88,-324.14"/>
<polygon fill="#63b8ff" stroke="#63b8ff" points="1316.69,-320.73 1306.21,-322.28 1315.37,-327.6 1316.69,-320.73"/>
</g>
<!-- Node169&#45;&gt;Node59 -->
<g id="edge107" class="edge">
<title>Node169&#45;&gt;Node59</title>
<path fill="none" stroke="#63b8ff" d="M1635.84,-368.12C1663.33,-358.25 1708.94,-341.73 1748.03,-327 1748.99,-326.64 1749.97,-326.27 1750.95,-325.9"/>
<polygon fill="#63b8ff" stroke="#63b8ff" points="1752.1,-329.2 1760.18,-322.35 1749.59,-322.67 1752.1,-329.2"/>
</g>
<!-- Node178&#45;&gt;Node3 -->
<g id="edge111" class="edge">
<title>Node178&#45;&gt;Node3</title>
<path fill="none" stroke="#63b8ff" d="M873.59,-371.79C712.96,-359.7 328.92,-330.46 323.03,-327 260.17,-290.03 260.03,-248.42 260.03,-175.5 260.03,-175.5 260.03,-175.5 260.03,-118.5 260.03,-48.15 336.33,-70.16 405.03,-55 507.84,-32.32 2158.6,-13.83 2433.4,-10.9"/>
<polygon fill="#63b8ff" stroke="#63b8ff" points="2433.26,-14.41 2443.22,-10.8 2433.18,-7.41 2433.26,-14.41"/>
</g>
<!-- Node178&#45;&gt;Node4 -->
<g id="edge112" class="edge">
<title>Node178&#45;&gt;Node4</title>
<path fill="none" stroke="#63b8ff" d="M965.55,-362.56C994.74,-344.51 1047.74,-313.93 1097.03,-297 1180.38,-268.37 1214.82,-303.48 1292.03,-261 1313.8,-249.02 1307.72,-230.92 1330.03,-220 1405.63,-183 1648.5,-176.39 1769.77,-175.46"/>
<polygon fill="#63b8ff" stroke="#63b8ff" points="1769.63,-178.96 1779.61,-175.39 1769.58,-171.96 1769.63,-178.96"/>
</g>
<!-- Node178&#45;&gt;Node73 -->
<g id="edge113" class="edge">
<title>Node178&#45;&gt;Node73</title>
<path fill="none" stroke="#63b8ff" d="M1012.38,-362.95C1069.76,-351.33 1150.2,-335.04 1203.42,-324.26"/>
<polygon fill="#63b8ff" stroke="#63b8ff" points="1204.09,-327.7 1213.19,-322.28 1202.7,-320.84 1204.09,-327.7"/>
</g>
<!-- Node180&#45;&gt;Node3 -->
<g id="edge115" class="edge">
<title>Node180&#45;&gt;Node3</title>
<path fill="none" stroke="#63b8ff" d="M1873.46,-362.63C1972.87,-304.15 2346.57,-84.31 2447.03,-25.21"/>
<polygon fill="#63b8ff" stroke="#63b8ff" points="2448.75,-28.26 2455.6,-20.17 2445.2,-22.22 2448.75,-28.26"/>
</g>
<!-- Node180&#45;&gt;Node4 -->
<g id="edge117" class="edge">
<title>Node180&#45;&gt;Node4</title>
<path fill="none" stroke="#63b8ff" d="M1844.12,-362.63C1838.25,-346.23 1827.61,-318.84 1815.03,-297 1805.05,-279.67 1794.36,-279.97 1788.03,-261 1782.27,-243.71 1780.41,-236.55 1788.03,-220 1793.53,-208.06 1803.99,-198.13 1814.09,-190.7"/>
<polygon fill="#63b8ff" stroke="#63b8ff" points="1815.91,-193.7 1822.24,-185.21 1812,-187.89 1815.91,-193.7"/>
</g>
<!-- Node180&#45;&gt;Node73 -->
<g id="edge118" class="edge">
<title>Node180&#45;&gt;Node73</title>
<path fill="none" stroke="#63b8ff" d="M1780.23,-370.73C1649.51,-358.76 1374.4,-333.29 1331.03,-327 1325.05,-326.13 1318.8,-325.1 1312.6,-324"/>
<polygon fill="#63b8ff" stroke="#63b8ff" points="1313.52,-320.61 1303.05,-322.24 1312.25,-327.5 1313.52,-320.61"/>
</g>
<!-- Node180&#45;&gt;Node59 -->
<g id="edge116" class="edge">
<title>Node180&#45;&gt;Node59</title>
<path fill="none" stroke="#63b8ff" d="M1834.61,-362.8C1824.67,-353.01 1811.43,-339.98 1800.99,-329.7"/>
<polygon fill="#63b8ff" stroke="#63b8ff" points="1803.68,-327.43 1794.09,-322.91 1798.76,-332.42 1803.68,-327.43"/>
</g>
<!-- Node193&#45;&gt;Node3 -->
<g id="edge120" class="edge">
<title>Node193&#45;&gt;Node3</title>
<path fill="none" stroke="#63b8ff" d="M2475.38,-225.14C2479.2,-214.07 2484.01,-198.3 2486.03,-184 2494.05,-127.23 2494.74,-111.67 2486.03,-55 2484.74,-46.59 2482.15,-37.6 2479.55,-29.91"/>
<polygon fill="#63b8ff" stroke="#63b8ff" points="2482.87,-28.79 2476.15,-20.6 2476.29,-31.19 2482.87,-28.79"/>
</g>
<!-- Node193&#45;&gt;Node4 -->
<g id="edge121" class="edge">
<title>Node193&#45;&gt;Node4</title>
<path fill="none" stroke="#63b8ff" d="M2412.87,-225.05C2403.93,-223.13 2394.76,-221.36 2386.03,-220 2216.43,-193.55 2014.59,-182.28 1910.26,-177.93"/>
<polygon fill="#63b8ff" stroke="#63b8ff" points="1910.59,-174.44 1900.46,-177.53 1910.31,-181.43 1910.59,-174.44"/>
</g>
<!-- Node193&#45;&gt;Node36 -->
<g id="edge122" class="edge">
<title>Node193&#45;&gt;Node36</title>
<path fill="none" stroke="#63b8ff" d="M2408.19,-225.06C2309.42,-201.65 2120.73,-155.37 2057.03,-129 2024.99,-115.74 1990.8,-94.8 1969.2,-80.63"/>
<polygon fill="#63b8ff" stroke="#63b8ff" points="1971.19,-77.75 1960.93,-75.12 1967.31,-83.58 1971.19,-77.75"/>
</g>
<!-- Node212&#45;&gt;Node3 -->
<g id="edge124" class="edge">
<title>Node212&#45;&gt;Node3</title>
<path fill="none" stroke="#63b8ff" d="M2866.83,-445.39C3058.54,-437.44 3543.18,-415.37 3613.03,-393 3713.59,-360.79 3796.03,-347.09 3796.03,-241.5 3796.03,-241.5 3796.03,-241.5 3796.03,-118.5 3796.03,-74.14 3760.51,-70.74 3719.03,-55 3603.85,-11.3 2708.75,-10.13 2510.73,-10.41"/>
<polygon fill="#63b8ff" stroke="#63b8ff" points="2510.99,-6.91 2500.99,-10.42 2511,-13.91 2510.99,-6.91"/>
</g>
<!-- Node212&#45;&gt;Node4 -->
<g id="edge126" class="edge">
<title>Node212&#45;&gt;Node4</title>
<path fill="none" stroke="#63b8ff" d="M2760.22,-428.66C2710.46,-395.45 2604.07,-329.11 2504.03,-297 2388.76,-260 2349.58,-297.13 2234.03,-261 2195.9,-249.08 2192.12,-232.08 2154.03,-220 2072.72,-194.2 1974.8,-183.33 1910.17,-178.77"/>
<polygon fill="#63b8ff" stroke="#63b8ff" points="1910.63,-175.29 1900.41,-178.11 1910.16,-182.28 1910.63,-175.29"/>
</g>
<!-- Node212&#45;&gt;Node34 -->
<g id="edge131" class="edge">
<title>Node212&#45;&gt;Node34</title>
<path fill="none" stroke="#63b8ff" d="M2773.56,-428.62C2734.06,-378.36 2629.27,-248.18 2582.03,-220 2467.74,-151.82 2311.72,-130.27 2217.74,-123.51"/>
<polygon fill="#63b8ff" stroke="#63b8ff" points="2218.04,-120.02 2207.83,-122.84 2217.57,-127.01 2218.04,-120.02"/>
</g>
<!-- Node212&#45;&gt;Node35 -->
<g id="edge125" class="edge">
<title>Node212&#45;&gt;Node35</title>
<path fill="none" stroke="#63b8ff" d="M2780.99,-428.74C2773.36,-410.92 2760.99,-384.3 2747.03,-363 2700.44,-291.9 2688.56,-270.29 2620.03,-220 2525.48,-150.62 2394.82,-100.39 2330.7,-78.19"/>
<polygon fill="#63b8ff" stroke="#63b8ff" points="2331.91,-74.91 2321.32,-74.98 2329.65,-81.53 2331.91,-74.91"/>
</g>
<!-- Node212&#45;&gt;Node73 -->
<g id="edge127" class="edge">
<title>Node212&#45;&gt;Node73</title>
<path fill="none" stroke="#63b8ff" d="M2711.25,-442.42C2654.86,-438.18 2576.77,-432.65 2508.03,-429 2290.19,-417.45 1742.27,-428.48 1527.03,-393 1525.59,-392.76 1374.61,-347.59 1299.92,-325.24"/>
<polygon fill="#63b8ff" stroke="#63b8ff" points="1301.09,-321.94 1290.51,-322.42 1299.08,-328.64 1301.09,-321.94"/>
</g>
<!-- Node212&#45;&gt;Node160 -->
<g id="edge130" class="edge">
<title>Node212&#45;&gt;Node160</title>
<path fill="none" stroke="#63b8ff" d="M2833.45,-428.58C2859.13,-417.07 2890.77,-402.88 2913.62,-392.64"/>
<polygon fill="#63b8ff" stroke="#63b8ff" points="2914.99,-395.86 2922.68,-388.57 2912.13,-389.47 2914.99,-395.86"/>
</g>
<!-- Node212&#45;&gt;Node163 -->
<g id="edge128" class="edge">
<title>Node212&#45;&gt;Node163</title>
<path fill="none" stroke="#63b8ff" d="M2793.16,-428.65C2801.37,-389.11 2819.69,-300.91 2827.91,-261.36"/>
<polygon fill="#63b8ff" stroke="#63b8ff" points="2831.32,-262.13 2829.93,-251.63 2824.47,-260.71 2831.32,-262.13"/>
</g>
<!-- Node212&#45;&gt;Node164 -->
<g id="edge129" class="edge">
<title>Node212&#45;&gt;Node164</title>
<path fill="none" stroke="#63b8ff" d="M2866.93,-433.68C3000.87,-408.19 3273.89,-356.23 3413.93,-329.58"/>
<polygon fill="#63b8ff" stroke="#63b8ff" points="3414.35,-333.06 3423.52,-327.75 3413.04,-326.18 3414.35,-333.06"/>
</g>
<!-- Node218&#45;&gt;Node3 -->
<g id="edge133" class="edge">
<title>Node218&#45;&gt;Node3</title>
<path fill="none" stroke="#63b8ff" d="M2499.93,-442.27C2556.78,-438.13 2633.95,-432.78 2702.03,-429 2889.03,-418.61 3361.52,-435 3544.03,-393 3615.81,-376.48 3647.61,-382.5 3696.03,-327 3721.98,-297.26 3720.03,-280.97 3720.03,-241.5 3720.03,-241.5 3720.03,-241.5 3720.03,-118.5 3720.03,-88.33 3720.54,-72.6 3696.03,-55 3646.79,-19.63 2713.71,-11.96 2510.77,-10.71"/>
<polygon fill="#63b8ff" stroke="#63b8ff" points="2511.06,-7.21 2501.04,-10.65 2511.02,-14.21 2511.06,-7.21"/>
</g>
<!-- Node218&#45;&gt;Node4 -->
<g id="edge134" class="edge">
<title>Node218&#45;&gt;Node4</title>
<path fill="none" stroke="#63b8ff" d="M2399.21,-434.22C2360.41,-403.9 2264.32,-332.9 2172.03,-297 2092.34,-266 2060.83,-296.49 1983.03,-261 1956.26,-248.79 1955.95,-235.66 1931.03,-220 1912.17,-208.14 1889.69,-197.12 1871.79,-189.01"/>
<polygon fill="#63b8ff" stroke="#63b8ff" points="1873.25,-185.83 1862.69,-184.97 1870.41,-192.23 1873.25,-185.83"/>
</g>
<!-- Node228&#45;&gt;Node3 -->
<g id="edge136" class="edge">
<title>Node228&#45;&gt;Node3</title>
<path fill="none" stroke="#63b8ff" d="M2413.83,-523.86C2628.15,-518.47 3281.96,-499.97 3492.03,-470 3663.96,-445.47 3872.03,-552.66 3872.03,-379 3872.03,-379 3872.03,-379 3872.03,-118.5 3872.03,-74.82 3837.78,-70.72 3797.03,-55 3674.45,-7.73 2716.51,-9.38 2510.84,-10.29"/>
<polygon fill="#63b8ff" stroke="#63b8ff" points="2510.95,-6.79 2500.97,-10.34 2510.98,-13.79 2510.95,-6.79"/>
</g>
<!-- Node228&#45;&gt;Node4 -->
<g id="edge137" class="edge">
<title>Node228&#45;&gt;Node4</title>
<path fill="none" stroke="#63b8ff" d="M2276.28,-515.24C2231.67,-506.9 2173.12,-492.71 2125.03,-470 2054.34,-436.62 1878,-330.42 1842.03,-261 1831.48,-240.64 1832.93,-213.73 1835.75,-195.58"/>
<polygon fill="#63b8ff" stroke="#63b8ff" points="1839.17,-196.33 1837.55,-185.86 1832.29,-195.05 1839.17,-196.33"/>
</g>
<!-- Node228&#45;&gt;Node218 -->
<g id="edge149" class="edge">
<title>Node228&#45;&gt;Node218</title>
<path fill="none" stroke="#63b8ff" d="M2363.95,-505.79C2373.59,-495.76 2385.35,-483.51 2395.35,-473.09"/>
<polygon fill="#63b8ff" stroke="#63b8ff" points="2397.8,-475.59 2402.2,-465.95 2392.75,-470.74 2397.8,-475.59"/>
</g>
<!-- Node228&#45;&gt;Node234 -->
<g id="edge138" class="edge">
<title>Node228&#45;&gt;Node234</title>
<path fill="none" stroke="#63b8ff" d="M2276.45,-523.39C2233.55,-518.39 2180.31,-504.86 2147.03,-470 2128.95,-451.05 2125.32,-419.78 2125.11,-399.28"/>
<polygon fill="#63b8ff" stroke="#63b8ff" points="2128.61,-399.44 2125.31,-389.38 2121.61,-399.31 2128.61,-399.44"/>
</g>
<!-- Node228&#45;&gt;Node240 -->
<g id="edge143" class="edge">
<title>Node228&#45;&gt;Node240</title>
<path fill="none" stroke="#63b8ff" d="M2311.07,-505.6C2289.35,-492.87 2261.65,-476.64 2241.96,-465.11"/>
<polygon fill="#63b8ff" stroke="#63b8ff" points="2243.9,-462.19 2233.5,-460.15 2240.36,-468.23 2243.9,-462.19"/>
</g>
<!-- Node234&#45;&gt;Node3 -->
<g id="edge139" class="edge">
<title>Node234&#45;&gt;Node3</title>
<path fill="none" stroke="#63b8ff" d="M2140.51,-368.1C2168.6,-351.28 2232.94,-314.9 2292.03,-297 2450.43,-249.02 2644.03,-341 2644.03,-175.5 2644.03,-175.5 2644.03,-175.5 2644.03,-118.5 2644.03,-55.86 2561.19,-28.15 2510.5,-17.05"/>
<polygon fill="#63b8ff" stroke="#63b8ff" points="2511.27,-13.64 2500.77,-15.06 2509.86,-20.5 2511.27,-13.64"/>
</g>
<!-- Node234&#45;&gt;Node4 -->
<g id="edge140" class="edge">
<title>Node234&#45;&gt;Node4</title>
<path fill="none" stroke="#63b8ff" d="M2102.76,-368.02C2041.76,-344.32 1880.81,-280.52 1864.03,-261 1848.27,-242.66 1842.82,-214.71 1840.95,-195.8"/>
<polygon fill="#63b8ff" stroke="#63b8ff" points="1844.45,-195.63 1840.26,-185.9 1837.47,-196.12 1844.45,-195.63"/>
</g>
<!-- Node234&#45;&gt;Node66 -->
<g id="edge142" class="edge">
<title>Node234&#45;&gt;Node66</title>
<path fill="none" stroke="#63b8ff" d="M2123.53,-368.1C2121.35,-360.33 2118.07,-348.67 2115.09,-338.08"/>
<polygon fill="#63b8ff" stroke="#63b8ff" points="2118.52,-337.37 2112.45,-328.69 2111.78,-339.26 2118.52,-337.37"/>
</g>
<!-- Node234&#45;&gt;Node73 -->
<g id="edge141" class="edge">
<title>Node234&#45;&gt;Node73</title>
<path fill="none" stroke="#63b8ff" d="M2049.59,-371.48C2012.33,-368.83 1966.84,-365.66 1926.03,-363 1661.67,-345.75 1593.85,-360.36 1331.03,-327 1324.56,-326.18 1317.79,-325.12 1311.11,-323.96"/>
<polygon fill="#63b8ff" stroke="#63b8ff" points="1311.96,-320.56 1301.49,-322.21 1310.7,-327.45 1311.96,-320.56"/>
</g>
<!-- Node240&#45;&gt;Node3 -->
<g id="edge144" class="edge">
<title>Node240&#45;&gt;Node3</title>
<path fill="none" stroke="#63b8ff" d="M2259.68,-439.5C2279.47,-435.66 2303.36,-431.5 2325.03,-429 2611.14,-396 3366.58,-469.2 3617.03,-327 3658.54,-303.43 3682.03,-289.23 3682.03,-241.5 3682.03,-241.5 3682.03,-241.5 3682.03,-118.5 3682.03,-68.08 3635.94,-70.72 3588.03,-55 3484.03,-20.88 2695.32,-12.33 2510.64,-10.79"/>
<polygon fill="#63b8ff" stroke="#63b8ff" points="2510.9,-7.29 2500.87,-10.71 2510.84,-14.29 2510.9,-7.29"/>
</g>
<!-- Node240&#45;&gt;Node4 -->
<g id="edge145" class="edge">
<title>Node240&#45;&gt;Node4</title>
<path fill="none" stroke="#63b8ff" d="M2219.48,-439.72C2223.64,-422.66 2229.96,-384.8 2211.03,-363 2160.98,-305.33 2115.33,-351.58 2043.03,-327 2013.67,-317.02 2008.4,-309.54 1980.03,-297 1941.39,-279.91 1924.18,-288.43 1892.03,-261 1886.24,-256.06 1864.01,-217.82 1850.56,-194.18"/>
<polygon fill="#63b8ff" stroke="#63b8ff" points="1853.65,-192.53 1845.68,-185.56 1847.56,-195.98 1853.65,-192.53"/>
</g>
<!-- Node240&#45;&gt;Node66 -->
<g id="edge146" class="edge">
<title>Node240&#45;&gt;Node66</title>
<path fill="none" stroke="#63b8ff" d="M2224.46,-439.74C2237.4,-423.35 2261.14,-387.51 2244.03,-363 2235.38,-350.6 2204.85,-338.82 2174.91,-329.81"/>
<polygon fill="#63b8ff" stroke="#63b8ff" points="2175.98,-326.47 2165.4,-327.04 2174.03,-333.2 2175.98,-326.47"/>
</g>
<!-- Node240&#45;&gt;Node121 -->
<g id="edge147" class="edge">
<title>Node240&#45;&gt;Node121</title>
<path fill="none" stroke="#63b8ff" d="M2156.36,-446.72C1965.97,-440.99 1363.41,-421.68 865.03,-393 828.14,-390.88 787.25,-387.92 752.96,-385.27"/>
<polygon fill="#63b8ff" stroke="#63b8ff" points="753.35,-381.79 743.11,-384.51 752.81,-388.77 753.35,-381.79"/>
</g>
<!-- Node240&#45;&gt;Node234 -->
<g id="edge148" class="edge">
<title>Node240&#45;&gt;Node234</title>
<path fill="none" stroke="#63b8ff" d="M2205.51,-439.7C2190.68,-428.38 2164.68,-408.52 2146.47,-394.61"/>
<polygon fill="#63b8ff" stroke="#63b8ff" points="2149.03,-392.16 2138.95,-388.87 2144.78,-397.72 2149.03,-392.16"/>
</g>
<!-- Node253&#45;&gt;Node3 -->
<g id="edge151" class="edge">
<title>Node253&#45;&gt;Node3</title>
<path fill="none" stroke="#63b8ff" d="M3959.22,-225.21C3948.32,-185.53 3915.9,-75.58 3886.03,-55 3827.86,-14.9 2731.52,-10.94 2510.62,-10.54"/>
<polygon fill="#63b8ff" stroke="#63b8ff" points="2510.85,-7.04 2500.84,-10.53 2510.84,-14.04 2510.85,-7.04"/>
</g>
<!-- Node253&#45;&gt;Node4 -->
<g id="edge152" class="edge">
<title>Node253&#45;&gt;Node4</title>
<path fill="none" stroke="#63b8ff" d="M3900.35,-235.75C3825.56,-231.4 3696.71,-224.27 3586.03,-220 2934.97,-194.87 2146.78,-180.58 1910.33,-176.63"/>
<polygon fill="#63b8ff" stroke="#63b8ff" points="1910.4,-173.13 1900.35,-176.46 1910.29,-180.13 1910.4,-173.13"/>
</g>
<!-- Node257&#45;&gt;Node3 -->
<g id="edge156" class="edge">
<title>Node257&#45;&gt;Node3</title>
<path fill="none" stroke="#63b8ff" d="M2579.48,-375.15C2681.49,-371.11 2903.05,-359.13 3087.03,-327 3138.64,-317.99 3150.27,-309.98 3201.03,-297 3265.36,-280.55 3294.35,-302.69 3346.03,-261 3378.99,-234.42 3388.03,-217.84 3388.03,-175.5 3388.03,-175.5 3388.03,-175.5 3388.03,-118.5 3388.03,-62.43 3332.74,-71.1 3279.03,-55 3132.6,-11.1 2650.78,-9.69 2510.61,-10.25"/>
<polygon fill="#63b8ff" stroke="#63b8ff" points="2510.74,-6.75 2500.75,-10.29 2510.77,-13.75 2510.74,-6.75"/>
</g>
<!-- Node257&#45;&gt;Node4 -->
<g id="edge158" class="edge">
<title>Node257&#45;&gt;Node4</title>
<path fill="none" stroke="#63b8ff" d="M2520.68,-368.24C2515.63,-351.31 2502.07,-314.28 2476.03,-297 2375.17,-230.04 2324.29,-286.92 2206.03,-261 2145.61,-247.76 2133.06,-234.94 2073.03,-220 2017.84,-206.27 1954.38,-194.4 1907.64,-186.38"/>
<polygon fill="#63b8ff" stroke="#63b8ff" points="1908.37,-182.96 1897.93,-184.73 1907.2,-189.86 1908.37,-182.96"/>
</g>
<!-- Node257&#45;&gt;Node36 -->
<g id="edge159" class="edge">
<title>Node257&#45;&gt;Node36</title>
<path fill="none" stroke="#63b8ff" d="M2523.57,-368.01C2524.02,-351.68 2522.57,-316.99 2504.03,-297 2468.19,-258.35 2441.02,-277.73 2391.03,-261 2223.08,-204.78 2166.54,-220.73 2015.03,-129 1994.18,-116.37 1974.28,-96.56 1961.45,-82.43"/>
<polygon fill="#63b8ff" stroke="#63b8ff" points="1964.35,-80.42 1955.11,-75.23 1959.09,-85.04 1964.35,-80.42"/>
</g>
<!-- Node257&#45;&gt;Node59 -->
<g id="edge157" class="edge">
<title>Node257&#45;&gt;Node59</title>
<path fill="none" stroke="#63b8ff" d="M2466.58,-372.11C2320.59,-359.47 1933.89,-325.98 1817.58,-315.91"/>
<polygon fill="#63b8ff" stroke="#63b8ff" points="1818.05,-312.43 1807.78,-315.06 1817.44,-319.41 1818.05,-312.43"/>
</g>
<!-- Node259&#45;&gt;Node3 -->
<g id="edge161" class="edge">
<title>Node259&#45;&gt;Node3</title>
<path fill="none" stroke="#63b8ff" d="M3483.4,-440.34C3604.76,-424.77 3834.03,-385.74 3834.03,-313 3834.03,-313 3834.03,-313 3834.03,-118.5 3834.03,-74.48 3799.14,-70.72 3758.03,-55 3639.18,-9.54 2713.2,-9.75 2510.96,-10.35"/>
<polygon fill="#63b8ff" stroke="#63b8ff" points="2510.99,-6.85 2501,-10.38 2511.01,-13.85 2510.99,-6.85"/>
</g>
<!-- Node259&#45;&gt;Node4 -->
<g id="edge162" class="edge">
<title>Node259&#45;&gt;Node4</title>
<path fill="none" stroke="#63b8ff" d="M3436.36,-439.63C3498.09,-417.54 3642.88,-357.47 3587.03,-297 3518.67,-222.98 3225.7,-304.96 3135.03,-261 3112.68,-250.16 3119.62,-230.34 3097.03,-220 3042.86,-195.2 2167.28,-180.34 1910.37,-176.5"/>
<polygon fill="#63b8ff" stroke="#63b8ff" points="1910.53,-173 1900.48,-176.35 1910.42,-180 1910.53,-173"/>
</g>
<!-- Node259&#45;&gt;Node160 -->
<g id="edge165" class="edge">
<title>Node259&#45;&gt;Node160</title>
<path fill="none" stroke="#63b8ff" d="M3350.07,-439.56C3264.38,-426.78 3107.15,-403.33 3015.52,-389.66"/>
<polygon fill="#63b8ff" stroke="#63b8ff" points="3016.04,-386.2 3005.64,-388.19 3015.01,-393.12 3016.04,-386.2"/>
</g>
<!-- Node259&#45;&gt;Node162 -->
<g id="edge163" class="edge">
<title>Node259&#45;&gt;Node162</title>
<path fill="none" stroke="#63b8ff" d="M3483.52,-442.08C3548.57,-434.69 3636.45,-419.95 3658.03,-393 3684.71,-359.7 3682.8,-331.74 3658.03,-297 3641.74,-274.15 3615.39,-260.61 3588.69,-252.63"/>
<polygon fill="#63b8ff" stroke="#63b8ff" points="3589.69,-249.27 3579.12,-250.03 3587.85,-256.03 3589.69,-249.27"/>
</g>
<!-- Node259&#45;&gt;Node164 -->
<g id="edge164" class="edge">
<title>Node259&#45;&gt;Node164</title>
<path fill="none" stroke="#63b8ff" d="M3416,-439.61C3429.86,-418.98 3464.57,-367.29 3485.11,-336.71"/>
<polygon fill="#63b8ff" stroke="#63b8ff" points="3487.96,-338.74 3490.63,-328.49 3482.15,-334.84 3487.96,-338.74"/>
</g>
<!-- Node259&#45;&gt;Node257 -->
<g id="edge170" class="edge">
<title>Node259&#45;&gt;Node257</title>
<path fill="none" stroke="#63b8ff" d="M3336.69,-442.75C3167.87,-429.53 2753.78,-397.08 2590.66,-384.3"/>
<polygon fill="#63b8ff" stroke="#63b8ff" points="2591.1,-380.82 2580.86,-383.53 2590.56,-387.8 2591.1,-380.82"/>
</g>
<!-- Node259&#45;&gt;Node260 -->
<g id="edge166" class="edge">
<title>Node259&#45;&gt;Node260</title>
<path fill="none" stroke="#63b8ff" d="M3336.82,-445.96C3120.41,-438.22 2496.32,-414.16 2458.03,-393 2436.07,-380.86 2420.53,-356.25 2411.28,-337.52"/>
<polygon fill="#63b8ff" stroke="#63b8ff" points="2414.56,-336.28 2407.19,-328.67 2408.21,-339.22 2414.56,-336.28"/>
</g>
<!-- Node260&#45;&gt;Node3 -->
<g id="edge167" class="edge">
<title>Node260&#45;&gt;Node3</title>
<path fill="none" stroke="#63b8ff" d="M2467.8,-309.43C2669.49,-304.39 3260.57,-287.42 3292.03,-261 3321.92,-235.9 3312.03,-214.53 3312.03,-175.5 3312.03,-175.5 3312.03,-175.5 3312.03,-118.5 3312.03,-36.57 2675.21,-15.43 2510.53,-11.34"/>
<polygon fill="#63b8ff" stroke="#63b8ff" points="2511.1,-7.85 2501.02,-11.11 2510.93,-14.85 2511.1,-7.85"/>
</g>
<!-- Node260&#45;&gt;Node4 -->
<g id="edge169" class="edge">
<title>Node260&#45;&gt;Node4</title>
<path fill="none" stroke="#63b8ff" d="M2334.08,-300.64C2278.99,-291.65 2199.02,-277.49 2130.03,-261 2038.33,-239.09 1932.54,-205.83 1877.58,-187.94"/>
<polygon fill="#63b8ff" stroke="#63b8ff" points="1879,-184.72 1868.41,-184.94 1876.82,-191.37 1879,-184.72"/>
</g>
<!-- Node260&#45;&gt;Node91 -->
<g id="edge168" class="edge">
<title>Node260&#45;&gt;Node91</title>
<path fill="none" stroke="#63b8ff" d="M2334.29,-305.5C2296.65,-302.58 2248.74,-299.15 2206.03,-297 2068.04,-290.05 1092.56,-309.11 963.03,-261 960.58,-260.09 958.19,-258.82 955.93,-257.36"/>
<polygon fill="#63b8ff" stroke="#63b8ff" points="958.23,-254.71 948.23,-251.21 953.86,-260.18 958.23,-254.71"/>
</g>
<!-- Node272&#45;&gt;Node3 -->
<g id="edge174" class="edge">
<title>Node272&#45;&gt;Node3</title>
<path fill="none" stroke="#63b8ff" d="M560.34,-442.54C485.63,-435.2 365.65,-420.22 265.03,-393 188.39,-372.26 161.52,-375.98 99.03,-327 62.29,-298.2 38.03,-288.18 38.03,-241.5 38.03,-241.5 38.03,-241.5 38.03,-118.5 38.03,-80.87 59.88,-70.8 94.03,-55 149.42,-29.37 2131.42,-13.12 2433.58,-10.79"/>
<polygon fill="#63b8ff" stroke="#63b8ff" points="2433.29,-14.29 2443.26,-10.72 2433.24,-7.29 2433.29,-14.29"/>
</g>
<!-- Node272&#45;&gt;Node4 -->
<g id="edge173" class="edge">
<title>Node272&#45;&gt;Node4</title>
<path fill="none" stroke="#63b8ff" d="M650.77,-439.62C706.47,-413.6 876.36,-336.86 1025.03,-297 1124.55,-270.32 1163.11,-309.45 1254.03,-261 1275.96,-249.32 1269.68,-230.86 1292.03,-220 1374.54,-179.92 1642.05,-174.94 1770.26,-174.95"/>
<polygon fill="#63b8ff" stroke="#63b8ff" points="1769.96,-178.45 1779.97,-174.96 1769.97,-171.45 1769.96,-178.45"/>
</g>
<!-- Node272&#45;&gt;Node6 -->
<g id="edge176" class="edge">
<title>Node272&#45;&gt;Node6</title>
<path fill="none" stroke="#63b8ff" d="M560.15,-448.1C394.5,-445.23 0.03,-426.48 0.03,-313 0.03,-313 0.03,-313 0.03,-118.5 0.03,-88.33 -0.49,-72.57 24.03,-55 77.14,-16.95 1085.72,-11.37 1299.45,-10.61"/>
<polygon fill="#63b8ff" stroke="#63b8ff" points="1299.21,-14.11 1309.19,-10.58 1299.18,-7.11 1299.21,-14.11"/>
</g>
<!-- Node272&#45;&gt;Node45 -->
<g id="edge177" class="edge">
<title>Node272&#45;&gt;Node45</title>
<path fill="none" stroke="#63b8ff" d="M560.24,-443.91C484.2,-434.77 367.63,-407.58 312.03,-327 296.82,-304.96 317.15,-276.03 333.7,-258.11"/>
<polygon fill="#63b8ff" stroke="#63b8ff" points="335.81,-260.96 340.29,-251.36 330.8,-256.07 335.81,-260.96"/>
</g>
<!-- Node272&#45;&gt;Node74 -->
<g id="edge179" class="edge">
<title>Node272&#45;&gt;Node74</title>
<path fill="none" stroke="#63b8ff" d="M703.89,-444.17C800.86,-437.33 967.65,-421.74 1021.03,-393 1071.21,-365.98 1056.1,-324.46 1106.03,-297 1194.39,-248.42 1230.55,-277.43 1330.03,-261 1346.67,-258.25 1364.66,-255.23 1381.35,-252.4"/>
<polygon fill="#63b8ff" stroke="#63b8ff" points="1381.9,-255.86 1391.17,-250.73 1380.73,-248.95 1381.9,-255.86"/>
</g>
<!-- Node272&#45;&gt;Node121 -->
<g id="edge178" class="edge">
<title>Node272&#45;&gt;Node121</title>
<path fill="none" stroke="#63b8ff" d="M637.61,-439.7C643.44,-430.47 652.87,-415.59 660.93,-402.86"/>
<polygon fill="#63b8ff" stroke="#63b8ff" points="663.79,-404.87 666.19,-394.55 657.88,-401.13 663.79,-404.87"/>
</g>
<!-- Node272&#45;&gt;Node59 -->
<g id="edge175" class="edge">
<title>Node272&#45;&gt;Node59</title>
<path fill="none" stroke="#63b8ff" d="M703.91,-446.05C935.26,-438 1648.29,-411.77 1694.03,-393 1694.58,-392.77 1739.64,-352.62 1765.78,-329.29"/>
<polygon fill="#63b8ff" stroke="#63b8ff" points="1767.88,-332.11 1773.01,-322.84 1763.22,-326.89 1767.88,-332.11"/>
</g>
<!-- Node294&#45;&gt;Node3 -->
<g id="edge181" class="edge">
<title>Node294&#45;&gt;Node3</title>
<path fill="none" stroke="#63b8ff" d="M4040.17,-164.78C4026.72,-141.67 3986.49,-79 3933.03,-55 3866.37,-25.07 2736.42,-12.97 2510.98,-10.85"/>
<polygon fill="#63b8ff" stroke="#63b8ff" points="2511.01,-7.35 2500.98,-10.76 2510.95,-14.35 2511.01,-7.35"/>
</g>
</g>
</svg>
