<?xml version="1.0" encoding="UTF-8" standalone="no"?>
<!DOCTYPE svg PUBLIC "-//W3C//DTD SVG 1.1//EN"
 "http://www.w3.org/Graphics/SVG/1.1/DTD/svg11.dtd">
<!-- Generated by graphviz version 7.0.1 (20221109.1506)
 -->
<!-- Title: DGtal::concepts::CConstSinglePassRangeFromPoint&lt; T &gt; Pages: 1 -->
<!--zoomable 92 -->
<svg id="main" version="1.1" xmlns="http://www.w3.org/2000/svg" xmlns:xlink="http://www.w3.org/1999/xlink" xml:space="preserve" onload="init(evt)">
<style type="text/css"><![CDATA[
.edge:hover path { stroke: red; }
.edge:hover polygon { stroke: red; fill: red; }
]]></style>
<script type="text/javascript"><![CDATA[
var edges = document.getElementsByTagName('g');
if (edges && edges.length) {
  for (var i=0;i<edges.length;i++) {
    if (edges[i].id.substr(0,4)=='edge') {
      edges[i].setAttribute('class','edge');
    }
  }
}
]]></script>
        <defs>
                <circle id="rim" cx="0" cy="0" r="7"/>
                <circle id="rim2" cx="0" cy="0" r="3.5"/>
                <g id="zoomPlus">
                        <use xlink:href="#rim" fill="#404040">
                                <set attributeName="fill" to="#808080" begin="zoomplus.mouseover" end="zoomplus.mouseout"/>
                        </use>
                        <path d="M-4,0h8M0,-4v8" fill="none" stroke="white" stroke-width="1.5" pointer-events="none"/>
                </g>
                <g id="zoomMin">
                        <use xlink:href="#rim" fill="#404040">
                                <set attributeName="fill" to="#808080" begin="zoomminus.mouseover" end="zoomminus.mouseout"/>
                        </use>
                        <path d="M-4,0h8" fill="none" stroke="white" stroke-width="1.5" pointer-events="none"/>
                </g>
                <g id="dirArrow">
                        <path fill="none" stroke="white" stroke-width="1.5" d="M0,-3.0v7 M-2.5,-0.5L0,-3.0L2.5,-0.5"/>
                </g>
               <g id="resetDef">
                       <use xlink:href="#rim2" fill="#404040">
                               <set attributeName="fill" to="#808080" begin="reset.mouseover" end="reset.mouseout"/>
                       </use>
               </g>
        </defs>

<script type="text/javascript">
var viewWidth = 803;
var viewHeight = 92;
var sectionId = 'dynsection-0';
</script>
<script xlink:href="svgpan.js"/>
<svg id="graph" class="graph">
<g id="viewport">
<title>DGtal::concepts::CConstSinglePassRangeFromPoint&lt; T &gt;</title>
<!-- Node1 -->
<g id="node1" class="node">
<title>Node1</title>
<g id="a_node1"><a xlink:title="Aim: refined concept of const single pass range with a begin() method from a point.">
<polygon fill="#999999" stroke="#666666" points="347,-59.5 192,-59.5 192,-29.5 347,-29.5 347,-59.5"/>
<text text-anchor="start" x="200" y="-47.5" font-family="FreeSans" font-size="10.00">DGtal::concepts::CConstSingle</text>
<text text-anchor="middle" x="269.5" y="-36.5" font-family="FreeSans" font-size="10.00">PassRangeFromPoint&lt; T &gt;</text>
</a>
</g>
</g>
<!-- Node3 -->
<g id="node3" class="node">
<title>Node3</title>
<g id="a_node3"><a xlink:href="structDGtal_1_1concepts_1_1CSinglePassRangeFromPoint.html" target="_top" xlink:title="Aim: refined concept of single pass range with a begin() method from a point.">
<polygon fill="white" stroke="#666666" points="590,-83.5 453,-83.5 453,-53.5 590,-53.5 590,-83.5"/>
<text text-anchor="start" x="461" y="-71.5" font-family="FreeSans" font-size="10.00">DGtal::concepts::CSingle</text>
<text text-anchor="middle" x="521.5" y="-60.5" font-family="FreeSans" font-size="10.00">PassRangeFromPoint&lt; T &gt;</text>
</a>
</g>
</g>
<!-- Node1&#45;&gt;Node3 -->
<g id="edge2" class="edge">
<title>Node1&#45;&gt;Node3</title>
<path fill="none" stroke="#63b8ff" d="M358.46,-52.94C389.45,-55.92 423.78,-59.21 452.83,-62"/>
<polygon fill="#63b8ff" stroke="#63b8ff" points="359,-49.48 348.71,-52.01 358.33,-56.45 359,-49.48"/>
</g>
<!-- Node4 -->
<g id="node4" class="node">
<title>Node4</title>
<g id="a_node4"><a xlink:href="structDGtal_1_1concepts_1_1CConstSinglePassRangeFromPoint.html" target="_top" xlink:title=" ">
<polygon fill="white" stroke="#666666" points="604,-35.5 439,-35.5 439,-5.5 604,-5.5 604,-35.5"/>
<text text-anchor="start" x="447" y="-23.5" font-family="FreeSans" font-size="10.00">DGtal::concepts::CConstSingle</text>
<text text-anchor="middle" x="521.5" y="-12.5" font-family="FreeSans" font-size="10.00">PassRangeFromPoint&lt; T, Value &gt;</text>
</a>
</g>
</g>
<!-- Node1&#45;&gt;Node4 -->
<g id="edge3" class="edge">
<title>Node1&#45;&gt;Node4</title>
<path fill="none" stroke="orange" stroke-dasharray="5,2" d="M358.61,-36.04C384.67,-33.54 413.09,-30.81 438.73,-28.35"/>
<polygon fill="orange" stroke="orange" points="358.33,-32.55 348.71,-36.99 359,-39.52 358.33,-32.55"/>
<text text-anchor="middle" x="393" y="-38.5" font-family="FreeSans" font-size="10.00"> &lt; T, Value &gt;</text>
</g>
<!-- Node2 -->
<g id="node2" class="node">
<title>Node2</title>
<g id="a_node2"><a xlink:href="structDGtal_1_1concepts_1_1CConstSinglePassRange.html" target="_top" xlink:title="Aim: Defines the concept describing a const single pass range.">
<polygon fill="white" stroke="#666666" points="155,-59.5 0,-59.5 0,-29.5 155,-29.5 155,-59.5"/>
<text text-anchor="start" x="8" y="-47.5" font-family="FreeSans" font-size="10.00">DGtal::concepts::CConstSingle</text>
<text text-anchor="middle" x="77.5" y="-36.5" font-family="FreeSans" font-size="10.00">PassRange&lt; T &gt;</text>
</a>
</g>
</g>
<!-- Node2&#45;&gt;Node1 -->
<g id="edge1" class="edge">
<title>Node2&#45;&gt;Node1</title>
<path fill="none" stroke="#63b8ff" d="M166.62,-44.5C175.03,-44.5 183.51,-44.5 191.79,-44.5"/>
<polygon fill="#63b8ff" stroke="#63b8ff" points="166.75,-41 156.75,-44.5 166.75,-48 166.75,-41"/>
</g>
<!-- Node5 -->
<g id="node5" class="node">
<title>Node5</title>
<g id="a_node5"><a xlink:href="structDGtal_1_1concepts_1_1CSinglePassRangeWithWritableIteratorFromPoint.html" target="_top" xlink:title="Aim: refined concept of single pass range with a outputIterator() method from a point.">
<polygon fill="white" stroke="#666666" points="795,-41 641,-41 641,0 795,0 795,-41"/>
<text text-anchor="start" x="649" y="-29" font-family="FreeSans" font-size="10.00">DGtal::concepts::CSingle</text>
<text text-anchor="start" x="649" y="-18" font-family="FreeSans" font-size="10.00">PassRangeWithWritableIterator</text>
<text text-anchor="middle" x="718" y="-7" font-family="FreeSans" font-size="10.00">FromPoint&lt; T, Value &gt;</text>
</a>
</g>
</g>
<!-- Node4&#45;&gt;Node5 -->
<g id="edge4" class="edge">
<title>Node4&#45;&gt;Node5</title>
<path fill="none" stroke="#63b8ff" d="M615.78,-20.5C624.15,-20.5 632.56,-20.5 640.75,-20.5"/>
<polygon fill="#63b8ff" stroke="#63b8ff" points="615.94,-17 605.94,-20.5 615.94,-24 615.94,-17"/>
</g>
</g>
</svg>
        <g id="navigator" transform="translate(0 0)" fill="#404254">
                <rect fill="#f2f5e9" fill-opacity="0.5" stroke="#606060" stroke-width=".5" x="0" y="0" width="60" height="60"/>
                <use id="zoomplus" xlink:href="#zoomPlus" x="17" y="9" onmousedown="handleZoom(evt,'in')"/>
                <use id="zoomminus" xlink:href="#zoomMin" x="42" y="9" onmousedown="handleZoom(evt,'out')"/>
                <use id="reset" xlink:href="#resetDef" x="30" y="36" onmousedown="handleReset()"/>
                <g id="arrowUp" xlink:href="#dirArrow" transform="translate(30 24)" onmousedown="handlePan(0,-1)">
                  <use xlink:href="#rim" fill="#404040">
                        <set attributeName="fill" to="#808080" begin="arrowUp.mouseover" end="arrowUp.mouseout"/>
                  </use>
                  <path fill="none" stroke="white" stroke-width="1.5" d="M0,-3.0v7 M-2.5,-0.5L0,-3.0L2.5,-0.5"/>
                </g>
                <g id="arrowRight" xlink:href="#dirArrow" transform="rotate(90) translate(36 -43)" onmousedown="handlePan(1,0)">
                  <use xlink:href="#rim" fill="#404040">
                        <set attributeName="fill" to="#808080" begin="arrowRight.mouseover" end="arrowRight.mouseout"/>
                  </use>
                  <path fill="none" stroke="white" stroke-width="1.5" d="M0,-3.0v7 M-2.5,-0.5L0,-3.0L2.5,-0.5"/>
                </g>
                <g id="arrowDown" xlink:href="#dirArrow" transform="rotate(180) translate(-30 -48)" onmousedown="handlePan(0,1)">
                  <use xlink:href="#rim" fill="#404040">
                        <set attributeName="fill" to="#808080" begin="arrowDown.mouseover" end="arrowDown.mouseout"/>
                  </use>
                  <path fill="none" stroke="white" stroke-width="1.5" d="M0,-3.0v7 M-2.5,-0.5L0,-3.0L2.5,-0.5"/>
                </g>
                <g id="arrowLeft" xlink:href="#dirArrow" transform="rotate(270) translate(-36 17)" onmousedown="handlePan(-1,0)">
                  <use xlink:href="#rim" fill="#404040">
                        <set attributeName="fill" to="#808080" begin="arrowLeft.mouseover" end="arrowLeft.mouseout"/>
                  </use>
                  <path fill="none" stroke="white" stroke-width="1.5" d="M0,-3.0v7 M-2.5,-0.5L0,-3.0L2.5,-0.5"/>
                </g>
        </g>
        <svg viewBox="0 0 15 15" width="100%" height="30px" preserveAspectRatio="xMaxYMin meet">
         <g id="arrow_out" transform="scale(0.3 0.3)">
          <a xlink:href="structDGtal_1_1concepts_1_1CConstSinglePassRangeFromPoint__inherit__graph_org.svg" target="_base">
           <rect id="button" ry="5" rx="5" y="6" x="6" height="38" width="38"
                fill="#f2f5e9" fill-opacity="0.5" stroke="#606060" stroke-width="1.0"/>
           <path id="arrow"
             d="M 11.500037,31.436501 C 11.940474,20.09759 22.043105,11.32322 32.158766,21.979434 L 37.068811,17.246167 C 37.068811,17.246167 37.088388,32 37.088388,32 L 22.160133,31.978069 C 22.160133,31.978069 26.997745,27.140456 26.997745,27.140456 C 18.528582,18.264221 13.291696,25.230495 11.500037,31.436501 z"
             style="fill:#404040;"/>
          </a>
         </g>
        </svg>
</svg>
