<?xml version="1.0" encoding="UTF-8" standalone="no"?>
<!DOCTYPE svg PUBLIC "-//W3C//DTD SVG 1.1//EN"
 "http://www.w3.org/Graphics/SVG/1.1/DTD/svg11.dtd">
<!-- Generated by graphviz version 7.0.1 (20221109.1506)
 -->
<!-- Title: DGtal::concepts::CUndirectedSimpleLocalGraph&lt; T &gt; Pages: 1 -->
<svg width="968pt" height="108pt"
 viewBox="0.00 0.00 968.00 108.00" xmlns="http://www.w3.org/2000/svg" xmlns:xlink="http://www.w3.org/1999/xlink">
<g id="graph0" class="graph" transform="scale(1 1) rotate(0) translate(4 104)">
<title>DGtal::concepts::CUndirectedSimpleLocalGraph&lt; T &gt;</title>
<!-- Node1 -->
<g id="node1" class="node">
<title>Node1</title>
<g id="a_node1"><a xlink:title="Aim: Represents the concept of local graph: each vertex has neighboring vertices, but we do not neces...">
<polygon fill="#999999" stroke="#666666" points="149,-78 0,-78 0,-48 149,-48 149,-78"/>
<text text-anchor="start" x="8" y="-66" font-family="FreeSans" font-size="10.00">DGtal::concepts::CUndirected</text>
<text text-anchor="middle" x="74.5" y="-55" font-family="FreeSans" font-size="10.00">SimpleLocalGraph&lt; T &gt;</text>
</a>
</g>
</g>
<!-- Node2 -->
<g id="node2" class="node">
<title>Node2</title>
<g id="a_node2"><a xlink:href="structDGtal_1_1concepts_1_1CAdjacency.html" target="_top" xlink:title=" ">
<polygon fill="white" stroke="#666666" points="788,-94.5 617,-94.5 617,-75.5 788,-75.5 788,-94.5"/>
<text text-anchor="middle" x="702.5" y="-82.5" font-family="FreeSans" font-size="10.00">DGtal::concepts::CAdjacency&lt; T &gt;</text>
</a>
</g>
</g>
<!-- Node1&#45;&gt;Node2 -->
<g id="edge1" class="edge">
<title>Node1&#45;&gt;Node2</title>
<path fill="none" stroke="#63b8ff" d="M160.73,-79.55C180.14,-82.65 200.72,-85.41 220,-87 358.51,-98.42 520.18,-94.17 616.52,-89.78"/>
<polygon fill="#63b8ff" stroke="#63b8ff" points="161.39,-76.11 150.95,-77.93 160.25,-83.01 161.39,-76.11"/>
</g>
<!-- Node4 -->
<g id="node4" class="node">
<title>Node4</title>
<g id="a_node4"><a xlink:href="structDGtal_1_1concepts_1_1CUndirectedSimpleGraph.html" target="_top" xlink:title="Aim: Represents the concept of local graph: each vertex has neighboring vertices, but we do not neces...">
<polygon fill="white" stroke="#666666" points="369,-78 220,-78 220,-48 369,-48 369,-78"/>
<text text-anchor="start" x="228" y="-66" font-family="FreeSans" font-size="10.00">DGtal::concepts::CUndirected</text>
<text text-anchor="middle" x="294.5" y="-55" font-family="FreeSans" font-size="10.00">SimpleGraph&lt; T &gt;</text>
</a>
</g>
</g>
<!-- Node1&#45;&gt;Node4 -->
<g id="edge3" class="edge">
<title>Node1&#45;&gt;Node4</title>
<path fill="none" stroke="#63b8ff" d="M160.66,-63C180.18,-63 200.78,-63 219.77,-63"/>
<polygon fill="#63b8ff" stroke="#63b8ff" points="160.82,-59.5 150.82,-63 160.82,-66.5 160.82,-59.5"/>
</g>
<!-- Node5 -->
<g id="node5" class="node">
<title>Node5</title>
<g id="a_node5"><a xlink:href="structDGtal_1_1concepts_1_1CUndirectedSimpleLocalGraph.html" target="_top" xlink:title=" ">
<polygon fill="white" stroke="#666666" points="369,-30 220,-30 220,0 369,0 369,-30"/>
<text text-anchor="start" x="228" y="-18" font-family="FreeSans" font-size="10.00">DGtal::concepts::CUndirected</text>
<text text-anchor="middle" x="294.5" y="-7" font-family="FreeSans" font-size="10.00">SimpleLocalGraph&lt; Adj &gt;</text>
</a>
</g>
</g>
<!-- Node1&#45;&gt;Node5 -->
<g id="edge4" class="edge">
<title>Node1&#45;&gt;Node5</title>
<path fill="none" stroke="orange" stroke-dasharray="5,2" d="M156.65,-45.13C178.6,-40.3 202.17,-35.11 223.45,-30.42"/>
<polygon fill="orange" stroke="orange" points="156.17,-41.65 147.15,-47.22 157.67,-48.49 156.17,-41.65"/>
<text text-anchor="middle" x="184.5" y="-44" font-family="FreeSans" font-size="10.00"> &lt; Adj &gt;</text>
</g>
<!-- Node3 -->
<g id="node3" class="node">
<title>Node3</title>
<g id="a_node3"><a xlink:href="structDGtal_1_1concepts_1_1CDomainAdjacency.html" target="_top" xlink:title="Aim: Refines the concept CAdjacency by telling that the adjacency is specific to a given domain of th...">
<polygon fill="white" stroke="#666666" points="960,-100 825,-100 825,-70 960,-70 960,-100"/>
<text text-anchor="start" x="833" y="-88" font-family="FreeSans" font-size="10.00">DGtal::concepts::CDomain</text>
<text text-anchor="middle" x="892.5" y="-77" font-family="FreeSans" font-size="10.00">Adjacency&lt; T &gt;</text>
</a>
</g>
</g>
<!-- Node2&#45;&gt;Node3 -->
<g id="edge2" class="edge">
<title>Node2&#45;&gt;Node3</title>
<path fill="none" stroke="#63b8ff" d="M799.86,-85C808.26,-85 816.63,-85 824.7,-85"/>
<polygon fill="#63b8ff" stroke="#63b8ff" points="799.94,-81.5 789.94,-85 799.94,-88.5 799.94,-81.5"/>
</g>
<!-- Node6 -->
<g id="node6" class="node">
<title>Node6</title>
<g id="a_node6"><a xlink:href="structDGtal_1_1concepts_1_1CAdjacency.html" target="_top" xlink:title="Aim: The concept CAdjacency defines an elementary adjacency relation between points of a digital spac...">
<polygon fill="white" stroke="#666666" points="553,-66 406,-66 406,-36 553,-36 553,-66"/>
<text text-anchor="start" x="414" y="-54" font-family="FreeSans" font-size="10.00">DGtal::concepts::CAdjacency</text>
<text text-anchor="middle" x="479.5" y="-43" font-family="FreeSans" font-size="10.00">&lt; Adj &gt;</text>
</a>
</g>
</g>
<!-- Node5&#45;&gt;Node6 -->
<g id="edge5" class="edge">
<title>Node5&#45;&gt;Node6</title>
<path fill="none" stroke="#63b8ff" d="M380.66,-31.75C388.96,-33.39 397.34,-35.03 405.51,-36.64"/>
<polygon fill="#63b8ff" stroke="#63b8ff" points="381.38,-28.33 370.89,-29.83 380.03,-35.2 381.38,-28.33"/>
</g>
<!-- Node6&#45;&gt;Node2 -->
<g id="edge6" class="edge">
<title>Node6&#45;&gt;Node2</title>
<path fill="none" stroke="orange" stroke-dasharray="5,2" d="M564.68,-63.95C588.58,-67.63 614.23,-71.57 636.78,-75.04"/>
<polygon fill="orange" stroke="orange" points="565.39,-60.52 554.97,-62.46 564.32,-67.44 565.39,-60.52"/>
<text text-anchor="middle" x="585" y="-72" font-family="FreeSans" font-size="10.00"> &lt; T &gt;</text>
</g>
</g>
</svg>
