<?xml version="1.0" encoding="UTF-8" standalone="no"?>
<!DOCTYPE svg PUBLIC "-//W3C//DTD SVG 1.1//EN"
 "http://www.w3.org/Graphics/SVG/1.1/DTD/svg11.dtd">
<!-- Generated by graphviz version 7.0.1 (20221109.1506)
 -->
<!-- Title: DGtal::UniqueAssociativeCategory Pages: 1 -->
<svg width="678pt" height="161pt"
 viewBox="0.00 0.00 678.00 160.50" xmlns="http://www.w3.org/2000/svg" xmlns:xlink="http://www.w3.org/1999/xlink">
<g id="graph0" class="graph" transform="scale(1 1) rotate(0) translate(4 156.5)">
<title>DGtal::UniqueAssociativeCategory</title>
<!-- Node1 -->
<g id="node1" class="node">
<title>Node1</title>
<g id="a_node1"><a xlink:title=" ">
<polygon fill="#999999" stroke="#666666" points="471,-99 341,-99 341,-69 471,-69 471,-99"/>
<text text-anchor="start" x="349" y="-87" font-family="FreeSans" font-size="10.00">DGtal::UniqueAssociative</text>
<text text-anchor="middle" x="406" y="-76" font-family="FreeSans" font-size="10.00">Category</text>
</a>
</g>
</g>
<!-- Node4 -->
<g id="node4" class="node">
<title>Node4</title>
<g id="a_node4"><a xlink:href="structDGtal_1_1MapAssociativeCategory.html" target="_top" xlink:title=" ">
<polygon fill="white" stroke="#666666" points="667.5,-152.5 509.5,-152.5 509.5,-133.5 667.5,-133.5 667.5,-152.5"/>
<text text-anchor="middle" x="588.5" y="-140.5" font-family="FreeSans" font-size="10.00">DGtal::MapAssociativeCategory</text>
</a>
</g>
</g>
<!-- Node1&#45;&gt;Node4 -->
<g id="edge3" class="edge">
<title>Node1&#45;&gt;Node4</title>
<path fill="none" stroke="#63b8ff" d="M451.04,-103.94C468.26,-111.23 488.32,-119.13 507,-125 516.56,-128.01 526.92,-130.71 536.91,-133.06"/>
<polygon fill="#63b8ff" stroke="#63b8ff" points="452.68,-100.83 442.11,-100.09 449.91,-107.26 452.68,-100.83"/>
</g>
<!-- Node5 -->
<g id="node5" class="node">
<title>Node5</title>
<g id="a_node5"><a xlink:href="structDGtal_1_1SetAssociativeCategory.html" target="_top" xlink:title=" ">
<polygon fill="white" stroke="#666666" points="665.5,-115.5 511.5,-115.5 511.5,-96.5 665.5,-96.5 665.5,-115.5"/>
<text text-anchor="middle" x="588.5" y="-103.5" font-family="FreeSans" font-size="10.00">DGtal::SetAssociativeCategory</text>
</a>
</g>
</g>
<!-- Node1&#45;&gt;Node5 -->
<g id="edge4" class="edge">
<title>Node1&#45;&gt;Node5</title>
<path fill="none" stroke="#63b8ff" d="M482.71,-93.23C492.1,-94.37 501.7,-95.54 511.1,-96.69"/>
<polygon fill="#63b8ff" stroke="#63b8ff" points="483.25,-89.77 472.9,-92.03 482.41,-96.72 483.25,-89.77"/>
</g>
<!-- Node6 -->
<g id="node6" class="node">
<title>Node6</title>
<g id="a_node6"><a xlink:href="structDGtal_1_1UnorderedMapAssociativeCategory.html" target="_top" xlink:title=" ">
<polygon fill="white" stroke="#666666" points="670,-78 507,-78 507,-48 670,-48 670,-78"/>
<text text-anchor="start" x="515" y="-66" font-family="FreeSans" font-size="10.00">DGtal::UnorderedMapAssociative</text>
<text text-anchor="middle" x="588.5" y="-55" font-family="FreeSans" font-size="10.00">Category</text>
</a>
</g>
</g>
<!-- Node1&#45;&gt;Node6 -->
<g id="edge5" class="edge">
<title>Node1&#45;&gt;Node6</title>
<path fill="none" stroke="#63b8ff" d="M482.83,-75.18C490.72,-74.26 498.77,-73.32 506.71,-72.4"/>
<polygon fill="#63b8ff" stroke="#63b8ff" points="482.43,-71.7 472.9,-76.33 483.24,-78.65 482.43,-71.7"/>
</g>
<!-- Node7 -->
<g id="node7" class="node">
<title>Node7</title>
<g id="a_node7"><a xlink:href="structDGtal_1_1UnorderedSetAssociativeCategory.html" target="_top" xlink:title=" ">
<polygon fill="white" stroke="#666666" points="668,-30 509,-30 509,0 668,0 668,-30"/>
<text text-anchor="start" x="517" y="-18" font-family="FreeSans" font-size="10.00">DGtal::UnorderedSetAssociative</text>
<text text-anchor="middle" x="588.5" y="-7" font-family="FreeSans" font-size="10.00">Category</text>
</a>
</g>
</g>
<!-- Node1&#45;&gt;Node7 -->
<g id="edge6" class="edge">
<title>Node1&#45;&gt;Node7</title>
<path fill="none" stroke="#63b8ff" d="M448.57,-63.8C466.34,-55.56 487.46,-46.27 507,-39 515.06,-36 523.69,-33.11 532.18,-30.43"/>
<polygon fill="#63b8ff" stroke="#63b8ff" points="447.46,-60.45 439.89,-67.87 450.43,-66.79 447.46,-60.45"/>
</g>
<!-- Node2 -->
<g id="node2" class="node">
<title>Node2</title>
<g id="a_node2"><a xlink:href="structDGtal_1_1AssociativeCategory.html" target="_top" xlink:title=" ">
<polygon fill="white" stroke="#666666" points="305,-93.5 166,-93.5 166,-74.5 305,-74.5 305,-93.5"/>
<text text-anchor="middle" x="235.5" y="-81.5" font-family="FreeSans" font-size="10.00">DGtal::AssociativeCategory</text>
</a>
</g>
</g>
<!-- Node2&#45;&gt;Node1 -->
<g id="edge1" class="edge">
<title>Node2&#45;&gt;Node1</title>
<path fill="none" stroke="#63b8ff" d="M316.43,-84C324.53,-84 332.69,-84 340.61,-84"/>
<polygon fill="#63b8ff" stroke="#63b8ff" points="316.55,-80.5 306.55,-84 316.55,-87.5 316.55,-80.5"/>
</g>
<!-- Node3 -->
<g id="node3" class="node">
<title>Node3</title>
<g id="a_node3"><a xlink:href="structDGtal_1_1ContainerCategory.html" target="_top" xlink:title=" ">
<polygon fill="white" stroke="#666666" points="130,-93.5 0,-93.5 0,-74.5 130,-74.5 130,-93.5"/>
<text text-anchor="middle" x="65" y="-81.5" font-family="FreeSans" font-size="10.00">DGtal::ContainerCategory</text>
</a>
</g>
</g>
<!-- Node3&#45;&gt;Node2 -->
<g id="edge2" class="edge">
<title>Node3&#45;&gt;Node2</title>
<path fill="none" stroke="#63b8ff" d="M141.49,-84C149.56,-84 157.74,-84 165.73,-84"/>
<polygon fill="#63b8ff" stroke="#63b8ff" points="141.7,-80.5 131.7,-84 141.7,-87.5 141.7,-80.5"/>
</g>
</g>
</svg>
