<?xml version="1.0" encoding="UTF-8" standalone="no"?>
<!DOCTYPE svg PUBLIC "-//W3C//DTD SVG 1.1//EN"
 "http://www.w3.org/Graphics/SVG/1.1/DTD/svg11.dtd">
<!-- Generated by graphviz version 7.0.1 (20221109.1506)
 -->
<!-- Title: DGtal::concepts::CSTLAssociativeContainer&lt; T &gt; Pages: 1 -->
<svg width="335pt" height="160pt"
 viewBox="0.00 0.00 334.50 160.00" xmlns="http://www.w3.org/2000/svg" xmlns:xlink="http://www.w3.org/1999/xlink">
<g id="graph0" class="graph" transform="scale(1 1) rotate(0) translate(4 156)">
<title>DGtal::concepts::CSTLAssociativeContainer&lt; T &gt;</title>
<!-- Node1 -->
<g id="node1" class="node">
<title>Node1</title>
<g id="a_node1"><a xlink:title="Aim: Defines the concept describing an Associative Container of the STL (https://www....">
<polygon fill="#999999" stroke="#666666" points="288.5,-30 118.5,-30 118.5,0 288.5,0 288.5,-30"/>
<text text-anchor="start" x="126.5" y="-18" font-family="FreeSans" font-size="10.00">DGtal::concepts::CSTLAssociative</text>
<text text-anchor="middle" x="203.5" y="-7" font-family="FreeSans" font-size="10.00">Container&lt; T &gt;</text>
</a>
</g>
</g>
<!-- Node2 -->
<g id="node2" class="node">
<title>Node2</title>
<g id="a_node2"><a xlink:href="structboost_1_1ForwardContainer.html" target="_top" xlink:title=" ">
<polygon fill="white" stroke="#666666" points="148.5,-86 0.5,-86 0.5,-67 148.5,-67 148.5,-86"/>
<text text-anchor="middle" x="74.5" y="-74" font-family="FreeSans" font-size="10.00">boost::ForwardContainer&lt; T &gt;</text>
</a>
</g>
</g>
<!-- Node2&#45;&gt;Node1 -->
<g id="edge1" class="edge">
<title>Node2&#45;&gt;Node1</title>
<path fill="none" stroke="#63b8ff" d="M104.12,-61.84C124.59,-52.4 151.76,-39.87 172.51,-30.29"/>
<polygon fill="#63b8ff" stroke="#63b8ff" points="102.8,-58.59 95.19,-65.96 105.73,-64.95 102.8,-58.59"/>
</g>
<!-- Node3 -->
<g id="node3" class="node">
<title>Node3</title>
<g id="a_node3"><a xlink:href="structboost_1_1ForwardContainer.html" target="_top" xlink:title="Go to http://www.sgi.com/tech/stl/ForwardContainer.html.">
<polygon fill="white" stroke="#666666" points="149,-152 0,-152 0,-133 149,-133 149,-152"/>
<text text-anchor="middle" x="74.5" y="-140" font-family="FreeSans" font-size="10.00">boost::ForwardContainer&lt; C &gt;</text>
</a>
</g>
</g>
<!-- Node3&#45;&gt;Node2 -->
<g id="edge2" class="edge">
<title>Node3&#45;&gt;Node2</title>
<path fill="none" stroke="orange" stroke-dasharray="5,2" d="M74.5,-121.18C74.5,-109.44 74.5,-95.27 74.5,-86.32"/>
<polygon fill="orange" stroke="orange" points="71,-121.09 74.5,-131.09 78,-121.09 71,-121.09"/>
<text text-anchor="middle" x="88.5" y="-107" font-family="FreeSans" font-size="10.00"> &lt; T &gt;</text>
</g>
<!-- Node4 -->
<g id="node4" class="node">
<title>Node4</title>
<g id="a_node4"><a xlink:href="structboost_1_1DefaultConstructible.html" target="_top" xlink:title="Go to http://www.sgi.com/tech/stl/DefaultConstructible.html.">
<polygon fill="white" stroke="#666666" points="326.5,-86 166.5,-86 166.5,-67 326.5,-67 326.5,-86"/>
<text text-anchor="middle" x="246.5" y="-74" font-family="FreeSans" font-size="10.00">boost::DefaultConstructible&lt; T &gt;</text>
</a>
</g>
</g>
<!-- Node4&#45;&gt;Node1 -->
<g id="edge3" class="edge">
<title>Node4&#45;&gt;Node1</title>
<path fill="none" stroke="#63b8ff" d="M233.47,-57.47C227.19,-48.78 219.76,-38.51 213.87,-30.36"/>
<polygon fill="#63b8ff" stroke="#63b8ff" points="230.57,-59.44 239.27,-65.49 236.25,-55.34 230.57,-59.44"/>
</g>
</g>
</svg>
