<?xml version="1.0" encoding="UTF-8" standalone="no"?>
<!DOCTYPE svg PUBLIC "-//W3C//DTD SVG 1.1//EN"
 "http://www.w3.org/Graphics/SVG/1.1/DTD/svg11.dtd">
<!-- Generated by graphviz version 7.0.1 (20221109.1506)
 -->
<!-- Title: DGtal::concepts::CDrawableWithViewer3D&lt; T, S, KS &gt; Pages: 1 -->
<svg width="156pt" height="182pt"
 viewBox="0.00 0.00 156.00 182.00" xmlns="http://www.w3.org/2000/svg" xmlns:xlink="http://www.w3.org/1999/xlink">
<g id="graph0" class="graph" transform="scale(1 1) rotate(0) translate(4 178)">
<title>DGtal::concepts::CDrawableWithViewer3D&lt; T, S, KS &gt;</title>
<!-- Node1 -->
<g id="node1" class="node">
<title>Node1</title>
<g id="a_node1"><a xlink:title="Aim: The concept CDrawableWithViewer3D specifies what are the classes that admit an export with Viewe...">
<polygon fill="#999999" stroke="#666666" points="145.5,-30 2.5,-30 2.5,0 145.5,0 145.5,-30"/>
<text text-anchor="start" x="10.5" y="-18" font-family="FreeSans" font-size="10.00">DGtal::concepts::CDrawable</text>
<text text-anchor="middle" x="74" y="-7" font-family="FreeSans" font-size="10.00">WithViewer3D&lt; T, S, KS &gt;</text>
</a>
</g>
</g>
<!-- Node2 -->
<g id="node2" class="node">
<title>Node2</title>
<g id="a_node2"><a xlink:href="structDGtal_1_1concepts_1_1CDrawableWithDisplay3D.html" target="_top" xlink:title=" ">
<polygon fill="white" stroke="#666666" points="145.5,-97 2.5,-97 2.5,-67 145.5,-67 145.5,-97"/>
<text text-anchor="start" x="10.5" y="-85" font-family="FreeSans" font-size="10.00">DGtal::concepts::CDrawable</text>
<text text-anchor="middle" x="74" y="-74" font-family="FreeSans" font-size="10.00">WithDisplay3D&lt; T, S, KS &gt;</text>
</a>
</g>
</g>
<!-- Node2&#45;&gt;Node1 -->
<g id="edge1" class="edge">
<title>Node2&#45;&gt;Node1</title>
<path fill="none" stroke="#63b8ff" d="M74,-55.28C74,-46.81 74,-37.7 74,-30.39"/>
<polygon fill="#63b8ff" stroke="#63b8ff" points="70.5,-55.06 74,-65.06 77.5,-55.06 70.5,-55.06"/>
</g>
<!-- Node3 -->
<g id="node3" class="node">
<title>Node3</title>
<g id="a_node3"><a xlink:href="structDGtal_1_1concepts_1_1CDrawableWithDisplay3D.html" target="_top" xlink:title=" ">
<polygon fill="white" stroke="#666666" points="148,-174 0,-174 0,-144 148,-144 148,-174"/>
<text text-anchor="start" x="8" y="-162" font-family="FreeSans" font-size="10.00">DGtal::concepts::CDrawable</text>
<text text-anchor="middle" x="74" y="-151" font-family="FreeSans" font-size="10.00">WithDisplay3D&lt; T, Sp, KSp &gt;</text>
</a>
</g>
</g>
<!-- Node3&#45;&gt;Node2 -->
<g id="edge2" class="edge">
<title>Node3&#45;&gt;Node2</title>
<path fill="none" stroke="orange" stroke-dasharray="5,2" d="M74,-132.23C74,-120.58 74,-107.26 74,-97.42"/>
<polygon fill="orange" stroke="orange" points="70.5,-132.03 74,-142.03 77.5,-132.03 70.5,-132.03"/>
<text text-anchor="middle" x="103" y="-118" font-family="FreeSans" font-size="10.00"> &lt; T, S, KS &gt;</text>
</g>
</g>
</svg>
