<?xml version="1.0" encoding="UTF-8" standalone="no"?>
<!DOCTYPE svg PUBLIC "-//W3C//DTD SVG 1.1//EN"
 "http://www.w3.org/Graphics/SVG/1.1/DTD/svg11.dtd">
<!-- Generated by graphviz version 7.0.1 (20221109.1506)
 -->
<!-- Title: DGtal::concepts::CUnaryFunctor&lt; X, A, R &gt; Pages: 1 -->
<svg width="1972pt" height="659pt"
 viewBox="0.00 0.00 1972.00 659.24" xmlns="http://www.w3.org/2000/svg" xmlns:xlink="http://www.w3.org/1999/xlink">
<g id="graph0" class="graph" transform="scale(1 1) rotate(0) translate(4 655.24)">
<title>DGtal::concepts::CUnaryFunctor&lt; X, A, R &gt;</title>
<!-- Node1 -->
<g id="node1" class="node">
<title>Node1</title>
<g id="a_node1"><a xlink:title="Aim: Defines a unary functor, which associates arguments to results.">
<polygon fill="#999999" stroke="#666666" points="500,-318 339,-318 339,-288 500,-288 500,-318"/>
<text text-anchor="start" x="347" y="-306" font-family="FreeSans" font-size="10.00">DGtal::concepts::CUnaryFunctor</text>
<text text-anchor="middle" x="419.5" y="-295" font-family="FreeSans" font-size="10.00">&lt; X, A, R &gt;</text>
</a>
</g>
</g>
<!-- Node4 -->
<g id="node4" class="node">
<title>Node4</title>
<g id="a_node4"><a xlink:href="structDGtal_1_1concepts_1_1CPointFunctor.html" target="_top" xlink:title=" ">
<polygon fill="white" stroke="#666666" points="1339,-587.5 1161,-587.5 1161,-568.5 1339,-568.5 1339,-587.5"/>
<text text-anchor="middle" x="1250" y="-575.5" font-family="FreeSans" font-size="10.00">DGtal::concepts::CPointFunctor&lt; I &gt;</text>
</a>
</g>
</g>
<!-- Node1&#45;&gt;Node4 -->
<g id="edge3" class="edge">
<title>Node1&#45;&gt;Node4</title>
<path fill="none" stroke="#63b8ff" d="M421.34,-329.97C424.67,-384.72 440.81,-508.33 518,-563 743.3,-722.58 1113.43,-621.83 1219.66,-587.91"/>
<polygon fill="#63b8ff" stroke="#63b8ff" points="424.84,-329.82 420.85,-320.01 417.84,-330.17 424.84,-329.82"/>
</g>
<!-- Node9 -->
<g id="node9" class="node">
<title>Node9</title>
<g id="a_node9"><a xlink:href="structDGtal_1_1concepts_1_1CPredicate.html" target="_top" xlink:title=" ">
<polygon fill="white" stroke="#666666" points="1321.5,-489 1178.5,-489 1178.5,-459 1321.5,-459 1321.5,-489"/>
<text text-anchor="start" x="1186.5" y="-477" font-family="FreeSans" font-size="10.00">DGtal::concepts::CPredicate</text>
<text text-anchor="middle" x="1250" y="-466" font-family="FreeSans" font-size="10.00">&lt; T, T::Point &gt;</text>
</a>
</g>
</g>
<!-- Node1&#45;&gt;Node9 -->
<g id="edge9" class="edge">
<title>Node1&#45;&gt;Node9</title>
<path fill="none" stroke="#63b8ff" d="M430.23,-328.69C444.15,-361.45 473.14,-416.87 518,-442 629.51,-504.49 1017.46,-488.5 1178.3,-478.81"/>
<polygon fill="#63b8ff" stroke="#63b8ff" points="433.51,-327.47 426.5,-319.53 427.03,-330.11 433.51,-327.47"/>
</g>
<!-- Node12 -->
<g id="node12" class="node">
<title>Node12</title>
<g id="a_node12"><a xlink:href="structDGtal_1_1concepts_1_1CPredicate.html" target="_top" xlink:title=" ">
<polygon fill="white" stroke="#666666" points="1321.5,-371 1178.5,-371 1178.5,-341 1321.5,-341 1321.5,-371"/>
<text text-anchor="start" x="1186.5" y="-359" font-family="FreeSans" font-size="10.00">DGtal::concepts::CPredicate</text>
<text text-anchor="middle" x="1250" y="-348" font-family="FreeSans" font-size="10.00">&lt; T, T::Surfel &gt;</text>
</a>
</g>
</g>
<!-- Node1&#45;&gt;Node12 -->
<g id="edge12" class="edge">
<title>Node1&#45;&gt;Node12</title>
<path fill="none" stroke="#63b8ff" d="M511.42,-317.26C513.63,-317.52 515.83,-317.77 518,-318 581.75,-324.88 597.98,-323.42 662,-327 848.18,-337.42 1067.68,-347.74 1178.05,-352.79"/>
<polygon fill="#63b8ff" stroke="#63b8ff" points="512.09,-313.81 501.74,-316.05 511.23,-320.76 512.09,-313.81"/>
</g>
<!-- Node14 -->
<g id="node14" class="node">
<title>Node14</title>
<g id="a_node14"><a xlink:href="structDGtal_1_1concepts_1_1CPredicate.html" target="_top" xlink:title=" ">
<polygon fill="white" stroke="#666666" points="1321.5,-426 1178.5,-426 1178.5,-396 1321.5,-396 1321.5,-426"/>
<text text-anchor="start" x="1186.5" y="-414" font-family="FreeSans" font-size="10.00">DGtal::concepts::CPredicate</text>
<text text-anchor="middle" x="1250" y="-403" font-family="FreeSans" font-size="10.00">&lt; T, T::Vertex &gt;</text>
</a>
</g>
</g>
<!-- Node1&#45;&gt;Node14 -->
<g id="edge14" class="edge">
<title>Node1&#45;&gt;Node14</title>
<path fill="none" stroke="#63b8ff" d="M467.87,-322.28C483.58,-327.93 501.32,-333.51 518,-337 790.7,-394.01 867.9,-341 1143,-385 1159.47,-387.63 1177.14,-391.53 1193.24,-395.51"/>
<polygon fill="#63b8ff" stroke="#63b8ff" points="469.37,-319.11 458.78,-318.92 466.94,-325.67 469.37,-319.11"/>
</g>
<!-- Node16 -->
<g id="node16" class="node">
<title>Node16</title>
<g id="a_node16"><a xlink:href="structDGtal_1_1concepts_1_1CUnaryFunctor.html" target="_top" xlink:title=" ">
<polygon fill="white" stroke="#666666" points="823,-318 662,-318 662,-288 823,-288 823,-318"/>
<text text-anchor="start" x="670" y="-306" font-family="FreeSans" font-size="10.00">DGtal::concepts::CUnaryFunctor</text>
<text text-anchor="middle" x="742.5" y="-295" font-family="FreeSans" font-size="10.00">&lt; T, T::Cell, T::RealPoint &gt;</text>
</a>
</g>
</g>
<!-- Node1&#45;&gt;Node16 -->
<g id="edge16" class="edge">
<title>Node1&#45;&gt;Node16</title>
<path fill="none" stroke="orange" stroke-dasharray="5,2" d="M511.73,-303C558.97,-303 616.11,-303 661.59,-303"/>
<polygon fill="orange" stroke="orange" points="511.77,-299.5 501.77,-303 511.77,-306.5 511.77,-299.5"/>
<text text-anchor="middle" x="581" y="-306" font-family="FreeSans" font-size="10.00"> &lt; T, T::Cell, T::RealPoint &gt;</text>
</g>
<!-- Node18 -->
<g id="node18" class="node">
<title>Node18</title>
<g id="a_node18"><a xlink:href="structDGtal_1_1concepts_1_1CUnaryFunctor.html" target="_top" xlink:title=" ">
<polygon fill="white" stroke="#666666" points="823,-270 662,-270 662,-240 823,-240 823,-270"/>
<text text-anchor="start" x="670" y="-258" font-family="FreeSans" font-size="10.00">DGtal::concepts::CUnaryFunctor</text>
<text text-anchor="middle" x="742.5" y="-247" font-family="FreeSans" font-size="10.00">&lt; T, T::Point, T::RealPoint &gt;</text>
</a>
</g>
</g>
<!-- Node1&#45;&gt;Node18 -->
<g id="edge18" class="edge">
<title>Node1&#45;&gt;Node18</title>
<path fill="none" stroke="orange" stroke-dasharray="5,2" d="M511.45,-288.99C513.65,-288.66 515.84,-288.33 518,-288 565.61,-280.82 618.95,-272.94 661.57,-266.68"/>
<polygon fill="orange" stroke="orange" points="511.16,-285.49 501.8,-290.45 512.22,-292.41 511.16,-285.49"/>
<text text-anchor="middle" x="581" y="-291" font-family="FreeSans" font-size="10.00"> &lt; T, T::Point, T::RealPoint &gt;</text>
</g>
<!-- Node20 -->
<g id="node20" class="node">
<title>Node20</title>
<g id="a_node20"><a xlink:href="structDGtal_1_1concepts_1_1CUnaryFunctor.html" target="_top" xlink:title=" ">
<polygon fill="white" stroke="#666666" points="823,-556 662,-556 662,-526 823,-526 823,-556"/>
<text text-anchor="start" x="670" y="-544" font-family="FreeSans" font-size="10.00">DGtal::concepts::CUnaryFunctor</text>
<text text-anchor="middle" x="742.5" y="-533" font-family="FreeSans" font-size="10.00">&lt; T, T::Point, T::Value &gt;</text>
</a>
</g>
</g>
<!-- Node1&#45;&gt;Node20 -->
<g id="edge20" class="edge">
<title>Node1&#45;&gt;Node20</title>
<path fill="none" stroke="orange" stroke-dasharray="5,2" d="M424.53,-329.49C432.97,-374.99 457.03,-467.39 518,-512 558.89,-541.92 615.61,-548.99 661.67,-548.67"/>
<polygon fill="orange" stroke="orange" points="427.99,-328.98 422.84,-319.72 421.1,-330.17 427.99,-328.98"/>
<text text-anchor="middle" x="581" y="-551" font-family="FreeSans" font-size="10.00"> &lt; T, T::Point, T::Value &gt;</text>
</g>
<!-- Node24 -->
<g id="node24" class="node">
<title>Node24</title>
<g id="a_node24"><a xlink:href="structDGtal_1_1concepts_1_1CUnaryFunctor.html" target="_top" xlink:title=" ">
<polygon fill="white" stroke="#666666" points="823,-222 662,-222 662,-192 823,-192 823,-222"/>
<text text-anchor="start" x="670" y="-210" font-family="FreeSans" font-size="10.00">DGtal::concepts::CUnaryFunctor</text>
<text text-anchor="middle" x="742.5" y="-199" font-family="FreeSans" font-size="10.00">&lt; T, T::Point, bool &gt;</text>
</a>
</g>
</g>
<!-- Node1&#45;&gt;Node24 -->
<g id="edge25" class="edge">
<title>Node1&#45;&gt;Node24</title>
<path fill="none" stroke="orange" stroke-dasharray="5,2" d="M457.06,-282.33C474.98,-272.9 497.14,-262.25 518,-255 564.48,-238.84 618.37,-227.08 661.59,-219.24"/>
<polygon fill="orange" stroke="orange" points="455.54,-279.18 448.38,-286.99 458.85,-285.35 455.54,-279.18"/>
<text text-anchor="middle" x="581" y="-258" font-family="FreeSans" font-size="10.00"> &lt; T, T::Point, bool &gt;</text>
</g>
<!-- Node25 -->
<g id="node25" class="node">
<title>Node25</title>
<g id="a_node25"><a xlink:href="structDGtal_1_1concepts_1_1CUnaryFunctor.html" target="_top" xlink:title=" ">
<polygon fill="white" stroke="#666666" points="823,-442 662,-442 662,-412 823,-412 823,-442"/>
<text text-anchor="start" x="670" y="-430" font-family="FreeSans" font-size="10.00">DGtal::concepts::CUnaryFunctor</text>
<text text-anchor="middle" x="742.5" y="-419" font-family="FreeSans" font-size="10.00">&lt; T, TElement, bool &gt;</text>
</a>
</g>
</g>
<!-- Node1&#45;&gt;Node25 -->
<g id="edge26" class="edge">
<title>Node1&#45;&gt;Node25</title>
<path fill="none" stroke="orange" stroke-dasharray="5,2" d="M437.81,-327.17C455.31,-349.56 484.49,-381.79 518,-398 562.47,-419.52 617.43,-426.87 661.73,-428.79"/>
<polygon fill="orange" stroke="orange" points="440.8,-325.31 431.97,-319.45 435.22,-329.54 440.8,-325.31"/>
<text text-anchor="middle" x="581" y="-430" font-family="FreeSans" font-size="10.00"> &lt; T, TElement, bool &gt;</text>
</g>
<!-- Node27 -->
<g id="node27" class="node">
<title>Node27</title>
<g id="a_node27"><a xlink:href="structDGtal_1_1concepts_1_1CUnaryFunctor.html" target="_top" xlink:title=" ">
<polygon fill="white" stroke="#666666" points="823,-174 662,-174 662,-144 823,-144 823,-174"/>
<text text-anchor="start" x="670" y="-162" font-family="FreeSans" font-size="10.00">DGtal::concepts::CUnaryFunctor</text>
<text text-anchor="middle" x="742.5" y="-151" font-family="FreeSans" font-size="10.00">&lt; T, T::SCell, T::RealPoint &gt;</text>
</a>
</g>
</g>
<!-- Node1&#45;&gt;Node27 -->
<g id="edge31" class="edge">
<title>Node1&#45;&gt;Node27</title>
<path fill="none" stroke="orange" stroke-dasharray="5,2" d="M438.68,-278.81C456.46,-256.91 485.56,-225.48 518,-208 562.24,-184.17 617.33,-171.92 661.75,-165.64"/>
<polygon fill="orange" stroke="orange" points="435.94,-276.63 432.49,-286.64 441.43,-280.97 435.94,-276.63"/>
<text text-anchor="middle" x="581" y="-211" font-family="FreeSans" font-size="10.00"> &lt; T, T::SCell, T::RealPoint &gt;</text>
</g>
<!-- Node30 -->
<g id="node30" class="node">
<title>Node30</title>
<g id="a_node30"><a xlink:href="structDGtal_1_1concepts_1_1CUnaryFunctor.html" target="_top" xlink:title=" ">
<polygon fill="white" stroke="#666666" points="823,-126 662,-126 662,-96 823,-96 823,-126"/>
<text text-anchor="start" x="670" y="-114" font-family="FreeSans" font-size="10.00">DGtal::concepts::CUnaryFunctor</text>
<text text-anchor="middle" x="742.5" y="-103" font-family="FreeSans" font-size="10.00">&lt; T, T::Surfel, bool &gt;</text>
</a>
</g>
</g>
<!-- Node1&#45;&gt;Node30 -->
<g id="edge34" class="edge">
<title>Node1&#45;&gt;Node30</title>
<path fill="none" stroke="orange" stroke-dasharray="5,2" d="M429.85,-277.37C443.64,-243.43 472.79,-184.32 518,-154 560.09,-125.78 616.1,-115.04 661.52,-111.35"/>
<polygon fill="orange" stroke="orange" points="426.69,-275.85 426.31,-286.43 433.21,-278.39 426.69,-275.85"/>
<text text-anchor="middle" x="581" y="-157" font-family="FreeSans" font-size="10.00"> &lt; T, T::Surfel, bool &gt;</text>
</g>
<!-- Node31 -->
<g id="node31" class="node">
<title>Node31</title>
<g id="a_node31"><a xlink:href="structDGtal_1_1concepts_1_1CUnaryFunctor.html" target="_top" xlink:title=" ">
<polygon fill="white" stroke="#666666" points="823,-78 662,-78 662,-48 823,-48 823,-78"/>
<text text-anchor="start" x="670" y="-66" font-family="FreeSans" font-size="10.00">DGtal::concepts::CUnaryFunctor</text>
<text text-anchor="middle" x="742.5" y="-55" font-family="FreeSans" font-size="10.00">&lt; I, T::Point, T::Value &gt;</text>
</a>
</g>
</g>
<!-- Node1&#45;&gt;Node31 -->
<g id="edge35" class="edge">
<title>Node1&#45;&gt;Node31</title>
<path fill="none" stroke="orange" stroke-dasharray="5,2" d="M425.07,-276.39C434.19,-231.92 459.1,-143.06 518,-99 558.75,-68.51 615.47,-59.66 661.57,-58.35"/>
<polygon fill="orange" stroke="orange" points="421.63,-275.71 423.18,-286.19 428.51,-277.03 421.63,-275.71"/>
<text text-anchor="middle" x="581" y="-102" font-family="FreeSans" font-size="10.00"> &lt; I, T::Point, T::Value &gt;</text>
</g>
<!-- Node32 -->
<g id="node32" class="node">
<title>Node32</title>
<g id="a_node32"><a xlink:href="structDGtal_1_1concepts_1_1CUnaryFunctor.html" target="_top" xlink:title=" ">
<polygon fill="white" stroke="#666666" points="823,-30 662,-30 662,0 823,0 823,-30"/>
<text text-anchor="start" x="670" y="-18" font-family="FreeSans" font-size="10.00">DGtal::concepts::CUnaryFunctor</text>
<text text-anchor="middle" x="742.5" y="-7" font-family="FreeSans" font-size="10.00">&lt; T, T::Vertex, bool &gt;</text>
</a>
</g>
</g>
<!-- Node1&#45;&gt;Node32 -->
<g id="edge36" class="edge">
<title>Node1&#45;&gt;Node32</title>
<path fill="none" stroke="orange" stroke-dasharray="5,2" d="M421.97,-276.55C426.45,-223.3 444.62,-103.31 518,-45 557.92,-13.28 615.08,-6.07 661.6,-6.64"/>
<polygon fill="orange" stroke="orange" points="418.5,-275.97 421.26,-286.2 425.48,-276.49 418.5,-275.97"/>
<text text-anchor="middle" x="581" y="-48" font-family="FreeSans" font-size="10.00"> &lt; T, T::Vertex, bool &gt;</text>
</g>
<!-- Node2 -->
<g id="node2" class="node">
<title>Node2</title>
<g id="a_node2"><a xlink:href="structboost_1_1Assignable.html" target="_top" xlink:title=" ">
<polygon fill="white" stroke="#666666" points="302,-312.5 183,-312.5 183,-293.5 302,-293.5 302,-312.5"/>
<text text-anchor="middle" x="242.5" y="-300.5" font-family="FreeSans" font-size="10.00">boost::Assignable&lt; X &gt;</text>
</a>
</g>
</g>
<!-- Node2&#45;&gt;Node1 -->
<g id="edge1" class="edge">
<title>Node2&#45;&gt;Node1</title>
<path fill="none" stroke="#63b8ff" d="M313.72,-303C321.96,-303 330.4,-303 338.75,-303"/>
<polygon fill="#63b8ff" stroke="#63b8ff" points="313.77,-299.5 303.77,-303 313.77,-306.5 313.77,-299.5"/>
</g>
<!-- Node3 -->
<g id="node3" class="node">
<title>Node3</title>
<g id="a_node3"><a xlink:href="structboost_1_1Assignable.html" target="_top" xlink:title="Go to http://www.sgi.com/tech/stl/Assignable.html.">
<polygon fill="white" stroke="#666666" points="119,-312.5 0,-312.5 0,-293.5 119,-293.5 119,-312.5"/>
<text text-anchor="middle" x="59.5" y="-300.5" font-family="FreeSans" font-size="10.00">boost::Assignable&lt; T &gt;</text>
</a>
</g>
</g>
<!-- Node3&#45;&gt;Node2 -->
<g id="edge2" class="edge">
<title>Node3&#45;&gt;Node2</title>
<path fill="none" stroke="orange" stroke-dasharray="5,2" d="M130.44,-303C147.71,-303 166.04,-303 182.72,-303"/>
<polygon fill="orange" stroke="orange" points="130.78,-299.5 120.78,-303 130.78,-306.5 130.78,-299.5"/>
<text text-anchor="middle" x="151" y="-306" font-family="FreeSans" font-size="10.00"> &lt; X &gt;</text>
</g>
<!-- Node5 -->
<g id="node5" class="node">
<title>Node5</title>
<g id="a_node5"><a xlink:href="structDGtal_1_1concepts_1_1CTrivialConstImage.html" target="_top" xlink:title="Aim: Defines the concept describing a read&#45;only image, which is a refinement of CPointFunctor.">
<polygon fill="white" stroke="#666666" points="1534.5,-593 1406.5,-593 1406.5,-563 1534.5,-563 1534.5,-593"/>
<text text-anchor="start" x="1414.5" y="-581" font-family="FreeSans" font-size="10.00">DGtal::concepts::CTrivial</text>
<text text-anchor="middle" x="1470.5" y="-570" font-family="FreeSans" font-size="10.00">ConstImage&lt; I &gt;</text>
</a>
</g>
</g>
<!-- Node4&#45;&gt;Node5 -->
<g id="edge4" class="edge">
<title>Node4&#45;&gt;Node5</title>
<path fill="none" stroke="#63b8ff" d="M1350.61,-578C1369.48,-578 1388.74,-578 1406.11,-578"/>
<polygon fill="#63b8ff" stroke="#63b8ff" points="1350.76,-574.5 1340.76,-578 1350.76,-581.5 1350.76,-574.5"/>
</g>
<!-- Node6 -->
<g id="node6" class="node">
<title>Node6</title>
<g id="a_node6"><a xlink:href="structDGtal_1_1concepts_1_1CConstImage.html" target="_top" xlink:title="Aim: Defines the concept describing a read&#45;only image, which is a refinement of CPointFunctor.">
<polygon fill="white" stroke="#666666" points="1778,-570.5 1602,-570.5 1602,-551.5 1778,-551.5 1778,-570.5"/>
<text text-anchor="middle" x="1690" y="-558.5" font-family="FreeSans" font-size="10.00">DGtal::concepts::CConstImage&lt; I &gt;</text>
</a>
</g>
</g>
<!-- Node5&#45;&gt;Node6 -->
<g id="edge5" class="edge">
<title>Node5&#45;&gt;Node6</title>
<path fill="none" stroke="#63b8ff" d="M1546.45,-572.14C1564.22,-570.75 1583.32,-569.26 1601.58,-567.83"/>
<polygon fill="#63b8ff" stroke="#63b8ff" points="1546.2,-568.65 1536.5,-572.92 1546.75,-575.63 1546.2,-568.65"/>
</g>
<!-- Node8 -->
<g id="node8" class="node">
<title>Node8</title>
<g id="a_node8"><a xlink:href="structDGtal_1_1concepts_1_1CTrivialImage.html" target="_top" xlink:title="Aim: Defines the concept describing an image without extra ranges, which is a refinement of CTrivialC...">
<polygon fill="white" stroke="#666666" points="1754,-619 1626,-619 1626,-589 1754,-589 1754,-619"/>
<text text-anchor="start" x="1634" y="-607" font-family="FreeSans" font-size="10.00">DGtal::concepts::CTrivial</text>
<text text-anchor="middle" x="1690" y="-596" font-family="FreeSans" font-size="10.00">Image&lt; I &gt;</text>
</a>
</g>
</g>
<!-- Node5&#45;&gt;Node8 -->
<g id="edge7" class="edge">
<title>Node5&#45;&gt;Node8</title>
<path fill="none" stroke="#63b8ff" d="M1546.28,-586.94C1572.18,-590.04 1600.93,-593.47 1625.8,-596.45"/>
<polygon fill="#63b8ff" stroke="#63b8ff" points="1546.84,-583.48 1536.5,-585.77 1546.01,-590.43 1546.84,-583.48"/>
</g>
<!-- Node7 -->
<g id="node7" class="node">
<title>Node7</title>
<g id="a_node7"><a xlink:href="structDGtal_1_1concepts_1_1CImage.html" target="_top" xlink:title="Aim: Defines the concept describing a read/write image, having an output iterator.">
<polygon fill="white" stroke="#666666" points="1964,-591.5 1815,-591.5 1815,-572.5 1964,-572.5 1964,-591.5"/>
<text text-anchor="middle" x="1889.5" y="-579.5" font-family="FreeSans" font-size="10.00">DGtal::concepts::CImage&lt; I &gt;</text>
</a>
</g>
</g>
<!-- Node6&#45;&gt;Node7 -->
<g id="edge6" class="edge">
<title>Node6&#45;&gt;Node7</title>
<path fill="none" stroke="#63b8ff" d="M1789.85,-571.51C1798.2,-572.4 1806.55,-573.29 1814.65,-574.15"/>
<polygon fill="#63b8ff" stroke="#63b8ff" points="1790.31,-568.04 1779.99,-570.46 1789.57,-575 1790.31,-568.04"/>
</g>
<!-- Node8&#45;&gt;Node7 -->
<g id="edge8" class="edge">
<title>Node8&#45;&gt;Node7</title>
<path fill="none" stroke="#63b8ff" d="M1765.29,-595.72C1781.4,-593.93 1798.44,-592.03 1814.54,-590.24"/>
<polygon fill="#63b8ff" stroke="#63b8ff" points="1765.36,-592.2 1755.81,-596.78 1766.14,-599.15 1765.36,-592.2"/>
</g>
<!-- Node10 -->
<g id="node10" class="node">
<title>Node10</title>
<g id="a_node10"><a xlink:href="structDGtal_1_1concepts_1_1CPointPredicate.html" target="_top" xlink:title="Aim: Defines a predicate on a point.">
<polygon fill="white" stroke="#666666" points="1565,-483.5 1376,-483.5 1376,-464.5 1565,-464.5 1565,-483.5"/>
<text text-anchor="middle" x="1470.5" y="-471.5" font-family="FreeSans" font-size="10.00">DGtal::concepts::CPointPredicate&lt; T &gt;</text>
</a>
</g>
</g>
<!-- Node9&#45;&gt;Node10 -->
<g id="edge10" class="edge">
<title>Node9&#45;&gt;Node10</title>
<path fill="none" stroke="#63b8ff" d="M1333.41,-474C1347.27,-474 1361.73,-474 1375.85,-474"/>
<polygon fill="#63b8ff" stroke="#63b8ff" points="1333.45,-470.5 1323.45,-474 1333.45,-477.5 1333.45,-470.5"/>
</g>
<!-- Node11 -->
<g id="node11" class="node">
<title>Node11</title>
<g id="a_node11"><a xlink:href="structDGtal_1_1concepts_1_1CDigitalSet.html" target="_top" xlink:title="Aim: Represents a set of points within the given domain. This set of points is modifiable by the user...">
<polygon fill="white" stroke="#666666" points="1754.5,-489 1625.5,-489 1625.5,-459 1754.5,-459 1754.5,-489"/>
<text text-anchor="start" x="1633.5" y="-477" font-family="FreeSans" font-size="10.00">DGtal::concepts::CDigital</text>
<text text-anchor="middle" x="1690" y="-466" font-family="FreeSans" font-size="10.00">Set&lt; T &gt;</text>
</a>
</g>
</g>
<!-- Node10&#45;&gt;Node11 -->
<g id="edge11" class="edge">
<title>Node10&#45;&gt;Node11</title>
<path fill="none" stroke="#63b8ff" d="M1576.76,-474C1593.33,-474 1610.01,-474 1625.26,-474"/>
<polygon fill="#63b8ff" stroke="#63b8ff" points="1576.83,-470.5 1566.83,-474 1576.83,-477.5 1576.83,-470.5"/>
</g>
<!-- Node13 -->
<g id="node13" class="node">
<title>Node13</title>
<g id="a_node13"><a xlink:href="structDGtal_1_1concepts_1_1CSurfelPredicate.html" target="_top" xlink:title="Aim: Defines a predicate on a surfel.">
<polygon fill="white" stroke="#666666" points="1534,-371 1407,-371 1407,-341 1534,-341 1534,-371"/>
<text text-anchor="start" x="1415" y="-359" font-family="FreeSans" font-size="10.00">DGtal::concepts::CSurfel</text>
<text text-anchor="middle" x="1470.5" y="-348" font-family="FreeSans" font-size="10.00">Predicate&lt; T &gt;</text>
</a>
</g>
</g>
<!-- Node12&#45;&gt;Node13 -->
<g id="edge13" class="edge">
<title>Node12&#45;&gt;Node13</title>
<path fill="none" stroke="#63b8ff" d="M1333.32,-356C1357.61,-356 1383.79,-356 1406.65,-356"/>
<polygon fill="#63b8ff" stroke="#63b8ff" points="1333.45,-352.5 1323.45,-356 1333.45,-359.5 1333.45,-352.5"/>
</g>
<!-- Node15 -->
<g id="node15" class="node">
<title>Node15</title>
<g id="a_node15"><a xlink:href="structDGtal_1_1concepts_1_1CVertexPredicate.html" target="_top" xlink:title="Aim: Defines a predicate on a vertex.">
<polygon fill="white" stroke="#666666" points="1535.5,-426 1405.5,-426 1405.5,-396 1535.5,-396 1535.5,-426"/>
<text text-anchor="start" x="1413.5" y="-414" font-family="FreeSans" font-size="10.00">DGtal::concepts::CVertex</text>
<text text-anchor="middle" x="1470.5" y="-403" font-family="FreeSans" font-size="10.00">Predicate&lt; T &gt;</text>
</a>
</g>
</g>
<!-- Node14&#45;&gt;Node15 -->
<g id="edge15" class="edge">
<title>Node14&#45;&gt;Node15</title>
<path fill="none" stroke="#63b8ff" d="M1333.43,-411C1357.17,-411 1382.72,-411 1405.19,-411"/>
<polygon fill="#63b8ff" stroke="#63b8ff" points="1333.45,-407.5 1323.45,-411 1333.45,-414.5 1333.45,-407.5"/>
</g>
<!-- Node17 -->
<g id="node17" class="node">
<title>Node17</title>
<g id="a_node17"><a xlink:href="structDGtal_1_1concepts_1_1CCellEmbedder.html" target="_top" xlink:title="Aim: A cell embedder is a mapping from unsigned cells to Euclidean points. It adds inner types to fun...">
<polygon fill="white" stroke="#666666" points="1050.5,-312.5 863.5,-312.5 863.5,-293.5 1050.5,-293.5 1050.5,-312.5"/>
<text text-anchor="middle" x="957" y="-300.5" font-family="FreeSans" font-size="10.00">DGtal::concepts::CCellEmbedder&lt; T &gt;</text>
</a>
</g>
</g>
<!-- Node16&#45;&gt;Node17 -->
<g id="edge17" class="edge">
<title>Node16&#45;&gt;Node17</title>
<path fill="none" stroke="#63b8ff" d="M834.69,-303C844.17,-303 853.81,-303 863.3,-303"/>
<polygon fill="#63b8ff" stroke="#63b8ff" points="834.75,-299.5 824.75,-303 834.75,-306.5 834.75,-299.5"/>
</g>
<!-- Node19 -->
<g id="node19" class="node">
<title>Node19</title>
<g id="a_node19"><a xlink:href="structDGtal_1_1concepts_1_1CPointEmbedder.html" target="_top" xlink:title="Aim: A point embedder is a mapping from digital points to Euclidean points. It adds inner types to fu...">
<polygon fill="white" stroke="#666666" points="1053,-264.5 861,-264.5 861,-245.5 1053,-245.5 1053,-264.5"/>
<text text-anchor="middle" x="957" y="-252.5" font-family="FreeSans" font-size="10.00">DGtal::concepts::CPointEmbedder&lt; T &gt;</text>
</a>
</g>
</g>
<!-- Node18&#45;&gt;Node19 -->
<g id="edge19" class="edge">
<title>Node18&#45;&gt;Node19</title>
<path fill="none" stroke="#63b8ff" d="M834.55,-255C843.23,-255 852.05,-255 860.77,-255"/>
<polygon fill="#63b8ff" stroke="#63b8ff" points="834.75,-251.5 824.75,-255 834.75,-258.5 834.75,-251.5"/>
</g>
<!-- Node21 -->
<g id="node21" class="node">
<title>Node21</title>
<g id="a_node21"><a xlink:href="structDGtal_1_1concepts_1_1CPointFunctor.html" target="_top" xlink:title="Aim: Defines a functor on points.">
<polygon fill="white" stroke="#666666" points="1047.5,-550.5 866.5,-550.5 866.5,-531.5 1047.5,-531.5 1047.5,-550.5"/>
<text text-anchor="middle" x="957" y="-538.5" font-family="FreeSans" font-size="10.00">DGtal::concepts::CPointFunctor&lt; T &gt;</text>
</a>
</g>
</g>
<!-- Node20&#45;&gt;Node21 -->
<g id="edge21" class="edge">
<title>Node20&#45;&gt;Node21</title>
<path fill="none" stroke="#63b8ff" d="M834.52,-541C845.01,-541 855.71,-541 866.19,-541"/>
<polygon fill="#63b8ff" stroke="#63b8ff" points="834.75,-537.5 824.75,-541 834.75,-544.5 834.75,-537.5"/>
</g>
<!-- Node21&#45;&gt;Node4 -->
<g id="edge24" class="edge">
<title>Node21&#45;&gt;Node4</title>
<path fill="none" stroke="orange" stroke-dasharray="5,2" d="M1058.74,-549.32C1086.13,-551.99 1115.75,-555.24 1143,-559 1161.06,-561.49 1180.74,-564.84 1198.18,-568.04"/>
<polygon fill="orange" stroke="orange" points="1059.36,-545.86 1049.07,-548.4 1058.69,-552.83 1059.36,-545.86"/>
<text text-anchor="middle" x="1107.5" y="-562" font-family="FreeSans" font-size="10.00"> &lt; I &gt;</text>
</g>
<!-- Node22 -->
<g id="node22" class="node">
<title>Node22</title>
<g id="a_node22"><a xlink:href="structDGtal_1_1concepts_1_1COrientationFunctor.html" target="_top" xlink:title="Aim: This concept gathers models implementing an orientation test of &#160;points in a space of dimension ...">
<polygon fill="white" stroke="#666666" points="1324.5,-540 1175.5,-540 1175.5,-510 1324.5,-510 1324.5,-540"/>
<text text-anchor="start" x="1183.5" y="-528" font-family="FreeSans" font-size="10.00">DGtal::concepts::COrientation</text>
<text text-anchor="middle" x="1250" y="-517" font-family="FreeSans" font-size="10.00">Functor&lt; T &gt;</text>
</a>
</g>
</g>
<!-- Node21&#45;&gt;Node22 -->
<g id="edge22" class="edge">
<title>Node21&#45;&gt;Node22</title>
<path fill="none" stroke="#63b8ff" d="M1058.87,-535.45C1097.12,-533.35 1139.94,-531 1175.24,-529.06"/>
<polygon fill="#63b8ff" stroke="#63b8ff" points="1058.99,-531.94 1049.2,-535.99 1059.37,-538.93 1058.99,-531.94"/>
</g>
<!-- Node23 -->
<g id="node23" class="node">
<title>Node23</title>
<g id="a_node23"><a xlink:href="structDGtal_1_1concepts_1_1COrientationFunctor2.html" target="_top" xlink:title="Aim: This concept is a refinement of COrientationFunctor, useful for simple algebraic curves that can...">
<polygon fill="white" stroke="#666666" points="1545,-540 1396,-540 1396,-510 1545,-510 1545,-540"/>
<text text-anchor="start" x="1404" y="-528" font-family="FreeSans" font-size="10.00">DGtal::concepts::COrientation</text>
<text text-anchor="middle" x="1470.5" y="-517" font-family="FreeSans" font-size="10.00">Functor2&lt; T &gt;</text>
</a>
</g>
</g>
<!-- Node22&#45;&gt;Node23 -->
<g id="edge23" class="edge">
<title>Node22&#45;&gt;Node23</title>
<path fill="none" stroke="#63b8ff" d="M1336.35,-525C1355.92,-525 1376.56,-525 1395.6,-525"/>
<polygon fill="#63b8ff" stroke="#63b8ff" points="1336.49,-521.5 1326.49,-525 1336.49,-528.5 1336.49,-521.5"/>
</g>
<!-- Node26 -->
<g id="node26" class="node">
<title>Node26</title>
<g id="a_node26"><a xlink:href="structDGtal_1_1concepts_1_1CPredicate.html" target="_top" xlink:title="Aim: Defines a predicate function, ie. a functor mapping a domain into the set of booleans.">
<polygon fill="white" stroke="#666666" points="1028.5,-442 885.5,-442 885.5,-412 1028.5,-412 1028.5,-442"/>
<text text-anchor="start" x="893.5" y="-430" font-family="FreeSans" font-size="10.00">DGtal::concepts::CPredicate</text>
<text text-anchor="middle" x="957" y="-419" font-family="FreeSans" font-size="10.00">&lt; T, TElement &gt;</text>
</a>
</g>
</g>
<!-- Node25&#45;&gt;Node26 -->
<g id="edge27" class="edge">
<title>Node25&#45;&gt;Node26</title>
<path fill="none" stroke="#63b8ff" d="M834.33,-427C851.37,-427 868.94,-427 885.26,-427"/>
<polygon fill="#63b8ff" stroke="#63b8ff" points="834.75,-423.5 824.75,-427 834.75,-430.5 834.75,-423.5"/>
</g>
<!-- Node26&#45;&gt;Node9 -->
<g id="edge28" class="edge">
<title>Node26&#45;&gt;Node9</title>
<path fill="none" stroke="orange" stroke-dasharray="5,2" d="M1039.95,-440.24C1083.46,-447.26 1136.4,-455.81 1178.12,-462.55"/>
<polygon fill="orange" stroke="orange" points="1040.74,-436.82 1030.31,-438.68 1039.62,-443.73 1040.74,-436.82"/>
<text text-anchor="middle" x="1107.5" y="-459" font-family="FreeSans" font-size="10.00"> &lt; T, T::Point &gt;</text>
</g>
<!-- Node26&#45;&gt;Node12 -->
<g id="edge29" class="edge">
<title>Node26&#45;&gt;Node12</title>
<path fill="none" stroke="orange" stroke-dasharray="5,2" d="M1032.62,-408.79C1079.99,-397.24 1140.61,-382.45 1185.63,-371.46"/>
<polygon fill="orange" stroke="orange" points="1031.86,-405.38 1022.97,-411.15 1033.52,-412.18 1031.86,-405.38"/>
<text text-anchor="middle" x="1107.5" y="-401" font-family="FreeSans" font-size="10.00"> &lt; T, T::Surfel &gt;</text>
</g>
<!-- Node26&#45;&gt;Node14 -->
<g id="edge30" class="edge">
<title>Node26&#45;&gt;Node14</title>
<path fill="none" stroke="orange" stroke-dasharray="5,2" d="M1040.23,-422.48C1083.68,-420.09 1136.49,-417.19 1178.12,-414.9"/>
<polygon fill="orange" stroke="orange" points="1040.12,-418.98 1030.33,-423.02 1040.5,-425.97 1040.12,-418.98"/>
<text text-anchor="middle" x="1107.5" y="-423" font-family="FreeSans" font-size="10.00"> &lt; T, T::Vertex &gt;</text>
</g>
<!-- Node28 -->
<g id="node28" class="node">
<title>Node28</title>
<g id="a_node28"><a xlink:href="structDGtal_1_1concepts_1_1CSCellEmbedder.html" target="_top" xlink:title="Aim: A cell embedder is a mapping from signed cells to Euclidean points. It adds inner types to funct...">
<polygon fill="white" stroke="#666666" points="1054,-168.5 860,-168.5 860,-149.5 1054,-149.5 1054,-168.5"/>
<text text-anchor="middle" x="957" y="-156.5" font-family="FreeSans" font-size="10.00">DGtal::concepts::CSCellEmbedder&lt; T &gt;</text>
</a>
</g>
</g>
<!-- Node27&#45;&gt;Node28 -->
<g id="edge32" class="edge">
<title>Node27&#45;&gt;Node28</title>
<path fill="none" stroke="#63b8ff" d="M834.5,-159C842.84,-159 851.3,-159 859.69,-159"/>
<polygon fill="#63b8ff" stroke="#63b8ff" points="834.75,-155.5 824.75,-159 834.75,-162.5 834.75,-155.5"/>
</g>
<!-- Node29 -->
<g id="node29" class="node">
<title>Node29</title>
<g id="a_node29"><a xlink:href="structDGtal_1_1concepts_1_1CDigitalSurfaceEmbedder.html" target="_top" xlink:title="Aim: A digital surface embedder is a specialized mapping from signed cells to Euclidean points....">
<polygon fill="white" stroke="#666666" points="1314.5,-174 1185.5,-174 1185.5,-144 1314.5,-144 1314.5,-174"/>
<text text-anchor="start" x="1193.5" y="-162" font-family="FreeSans" font-size="10.00">DGtal::concepts::CDigital</text>
<text text-anchor="middle" x="1250" y="-151" font-family="FreeSans" font-size="10.00">SurfaceEmbedder&lt; T &gt;</text>
</a>
</g>
</g>
<!-- Node28&#45;&gt;Node29 -->
<g id="edge33" class="edge">
<title>Node28&#45;&gt;Node29</title>
<path fill="none" stroke="#63b8ff" d="M1065.97,-159C1106.12,-159 1150.36,-159 1185.29,-159"/>
<polygon fill="#63b8ff" stroke="#63b8ff" points="1066.01,-155.5 1056.01,-159 1066.01,-162.5 1066.01,-155.5"/>
</g>
</g>
</svg>
