<?xml version="1.0" encoding="UTF-8" standalone="no"?>
<!DOCTYPE svg PUBLIC "-//W3C//DTD SVG 1.1//EN"
 "http://www.w3.org/Graphics/SVG/1.1/DTD/svg11.dtd">
<!-- Generated by graphviz version 7.0.1 (20221109.1506)
 -->
<!-- Title: DGtal::concepts::CSinglePassRangeWithWritableIteratorFromPoint&lt; T, Value &gt; Pages: 1 -->
<!--zoomable 101 -->
<svg id="main" version="1.1" xmlns="http://www.w3.org/2000/svg" xmlns:xlink="http://www.w3.org/1999/xlink" xml:space="preserve" onload="init(evt)">
<style type="text/css"><![CDATA[
.edge:hover path { stroke: red; }
.edge:hover polygon { stroke: red; fill: red; }
]]></style>
<script type="text/javascript"><![CDATA[
var edges = document.getElementsByTagName('g');
if (edges && edges.length) {
  for (var i=0;i<edges.length;i++) {
    if (edges[i].id.substr(0,4)=='edge') {
      edges[i].setAttribute('class','edge');
    }
  }
}
]]></script>
        <defs>
                <circle id="rim" cx="0" cy="0" r="7"/>
                <circle id="rim2" cx="0" cy="0" r="3.5"/>
                <g id="zoomPlus">
                        <use xlink:href="#rim" fill="#404040">
                                <set attributeName="fill" to="#808080" begin="zoomplus.mouseover" end="zoomplus.mouseout"/>
                        </use>
                        <path d="M-4,0h8M0,-4v8" fill="none" stroke="white" stroke-width="1.5" pointer-events="none"/>
                </g>
                <g id="zoomMin">
                        <use xlink:href="#rim" fill="#404040">
                                <set attributeName="fill" to="#808080" begin="zoomminus.mouseover" end="zoomminus.mouseout"/>
                        </use>
                        <path d="M-4,0h8" fill="none" stroke="white" stroke-width="1.5" pointer-events="none"/>
                </g>
                <g id="dirArrow">
                        <path fill="none" stroke="white" stroke-width="1.5" d="M0,-3.0v7 M-2.5,-0.5L0,-3.0L2.5,-0.5"/>
                </g>
               <g id="resetDef">
                       <use xlink:href="#rim2" fill="#404040">
                               <set attributeName="fill" to="#808080" begin="reset.mouseover" end="reset.mouseout"/>
                       </use>
               </g>
        </defs>

<script type="text/javascript">
var viewWidth = 901;
var viewHeight = 101;
var sectionId = 'dynsection-0';
</script>
<script xlink:href="svgpan.js"/>
<svg id="graph" class="graph">
<g id="viewport">
<title>DGtal::concepts::CSinglePassRangeWithWritableIteratorFromPoint&lt; T, Value &gt;</title>
<!-- Node1 -->
<g id="node1" class="node">
<title>Node1</title>
<g id="a_node1"><a xlink:title="Aim: refined concept of single pass range with a outputIterator() method from a point.">
<polygon fill="#999999" stroke="#666666" points="893,-59 739,-59 739,-18 893,-18 893,-59"/>
<text text-anchor="start" x="747" y="-47" font-family="FreeSans" font-size="10.00">DGtal::concepts::CSingle</text>
<text text-anchor="start" x="747" y="-36" font-family="FreeSans" font-size="10.00">PassRangeWithWritableIterator</text>
<text text-anchor="middle" x="816" y="-25" font-family="FreeSans" font-size="10.00">FromPoint&lt; T, Value &gt;</text>
</a>
</g>
</g>
<!-- Node2 -->
<g id="node2" class="node">
<title>Node2</title>
<g id="a_node2"><a xlink:href="structDGtal_1_1concepts_1_1CConstSinglePassRangeFromPoint.html" target="_top" xlink:title=" ">
<polygon fill="white" stroke="#666666" points="702,-79.5 537,-79.5 537,-49.5 702,-49.5 702,-79.5"/>
<text text-anchor="start" x="545" y="-67.5" font-family="FreeSans" font-size="10.00">DGtal::concepts::CConstSingle</text>
<text text-anchor="middle" x="619.5" y="-56.5" font-family="FreeSans" font-size="10.00">PassRangeFromPoint&lt; T, Value &gt;</text>
</a>
</g>
</g>
<!-- Node2&#45;&gt;Node1 -->
<g id="edge1" class="edge">
<title>Node2&#45;&gt;Node1</title>
<path fill="none" stroke="#63b8ff" d="M713.78,-52.03C722.15,-50.91 730.56,-49.79 738.75,-48.69"/>
<polygon fill="#63b8ff" stroke="#63b8ff" points="713.37,-48.55 703.92,-53.35 714.3,-55.49 713.37,-48.55"/>
</g>
<!-- Node3 -->
<g id="node3" class="node">
<title>Node3</title>
<g id="a_node3"><a xlink:href="structDGtal_1_1concepts_1_1CConstSinglePassRange.html" target="_top" xlink:title="Aim: Defines the concept describing a const single pass range.">
<polygon fill="white" stroke="#666666" points="155,-78.5 0,-78.5 0,-48.5 155,-48.5 155,-78.5"/>
<text text-anchor="start" x="8" y="-66.5" font-family="FreeSans" font-size="10.00">DGtal::concepts::CConstSingle</text>
<text text-anchor="middle" x="77.5" y="-55.5" font-family="FreeSans" font-size="10.00">PassRange&lt; T &gt;</text>
</a>
</g>
</g>
<!-- Node3&#45;&gt;Node2 -->
<g id="edge2" class="edge">
<title>Node3&#45;&gt;Node2</title>
<path fill="none" stroke="#63b8ff" d="M151.4,-81.25C164.82,-83.85 178.78,-86.12 192,-87.5 311.48,-99.99 450.53,-87.46 536.54,-76.58"/>
<polygon fill="#63b8ff" stroke="#63b8ff" points="152.25,-77.85 141.76,-79.3 150.87,-84.71 152.25,-77.85"/>
</g>
<!-- Node4 -->
<g id="node4" class="node">
<title>Node4</title>
<g id="a_node4"><a xlink:href="structDGtal_1_1concepts_1_1CConstSinglePassRangeFromPoint.html" target="_top" xlink:title="Aim: refined concept of const single pass range with a begin() method from a point.">
<polygon fill="white" stroke="#666666" points="347,-78.5 192,-78.5 192,-48.5 347,-48.5 347,-78.5"/>
<text text-anchor="start" x="200" y="-66.5" font-family="FreeSans" font-size="10.00">DGtal::concepts::CConstSingle</text>
<text text-anchor="middle" x="269.5" y="-55.5" font-family="FreeSans" font-size="10.00">PassRangeFromPoint&lt; T &gt;</text>
</a>
</g>
</g>
<!-- Node3&#45;&gt;Node4 -->
<g id="edge4" class="edge">
<title>Node3&#45;&gt;Node4</title>
<path fill="none" stroke="#63b8ff" d="M166.62,-63.5C175.03,-63.5 183.51,-63.5 191.79,-63.5"/>
<polygon fill="#63b8ff" stroke="#63b8ff" points="166.75,-60 156.75,-63.5 166.75,-67 166.75,-60"/>
</g>
<!-- Node5 -->
<g id="node5" class="node">
<title>Node5</title>
<g id="a_node5"><a xlink:href="structDGtal_1_1concepts_1_1CSinglePassRangeWithWritableIterator.html" target="_top" xlink:title="Aim: refined concept of const single pass range which require that an output iterator exists.">
<polygon fill="white" stroke="#666666" points="519,-41 365,-41 365,0 519,0 519,-41"/>
<text text-anchor="start" x="373" y="-29" font-family="FreeSans" font-size="10.00">DGtal::concepts::CSingle</text>
<text text-anchor="start" x="373" y="-18" font-family="FreeSans" font-size="10.00">PassRangeWithWritableIterator</text>
<text text-anchor="middle" x="442" y="-7" font-family="FreeSans" font-size="10.00">&lt; T, Value &gt;</text>
</a>
</g>
</g>
<!-- Node3&#45;&gt;Node5 -->
<g id="edge6" class="edge">
<title>Node3&#45;&gt;Node5</title>
<path fill="none" stroke="#63b8ff" d="M155.35,-45.82C167.57,-43.42 180.09,-41.21 192,-39.5 249.62,-31.25 315.28,-26.42 364.71,-23.7"/>
<polygon fill="#63b8ff" stroke="#63b8ff" points="154.85,-42.35 145.74,-47.76 156.23,-49.21 154.85,-42.35"/>
</g>
<!-- Node4&#45;&gt;Node2 -->
<g id="edge3" class="edge">
<title>Node4&#45;&gt;Node2</title>
<path fill="none" stroke="orange" stroke-dasharray="5,2" d="M358.74,-63.75C413.46,-63.91 483.27,-64.11 536.74,-64.27"/>
<polygon fill="orange" stroke="orange" points="358.82,-60.25 348.81,-63.73 358.8,-67.25 358.82,-60.25"/>
<text text-anchor="middle" x="442" y="-66.5" font-family="FreeSans" font-size="10.00"> &lt; T, Value &gt;</text>
</g>
<!-- Node5&#45;&gt;Node1 -->
<g id="edge5" class="edge">
<title>Node5&#45;&gt;Node1</title>
<path fill="none" stroke="#63b8ff" d="M530.32,-24.73C593.51,-27.78 678.09,-31.88 738.61,-34.8"/>
<polygon fill="#63b8ff" stroke="#63b8ff" points="530.85,-21.25 520.69,-24.26 530.51,-28.24 530.85,-21.25"/>
</g>
</g>
</svg>
        <g id="navigator" transform="translate(0 0)" fill="#404254">
                <rect fill="#f2f5e9" fill-opacity="0.5" stroke="#606060" stroke-width=".5" x="0" y="0" width="60" height="60"/>
                <use id="zoomplus" xlink:href="#zoomPlus" x="17" y="9" onmousedown="handleZoom(evt,'in')"/>
                <use id="zoomminus" xlink:href="#zoomMin" x="42" y="9" onmousedown="handleZoom(evt,'out')"/>
                <use id="reset" xlink:href="#resetDef" x="30" y="36" onmousedown="handleReset()"/>
                <g id="arrowUp" xlink:href="#dirArrow" transform="translate(30 24)" onmousedown="handlePan(0,-1)">
                  <use xlink:href="#rim" fill="#404040">
                        <set attributeName="fill" to="#808080" begin="arrowUp.mouseover" end="arrowUp.mouseout"/>
                  </use>
                  <path fill="none" stroke="white" stroke-width="1.5" d="M0,-3.0v7 M-2.5,-0.5L0,-3.0L2.5,-0.5"/>
                </g>
                <g id="arrowRight" xlink:href="#dirArrow" transform="rotate(90) translate(36 -43)" onmousedown="handlePan(1,0)">
                  <use xlink:href="#rim" fill="#404040">
                        <set attributeName="fill" to="#808080" begin="arrowRight.mouseover" end="arrowRight.mouseout"/>
                  </use>
                  <path fill="none" stroke="white" stroke-width="1.5" d="M0,-3.0v7 M-2.5,-0.5L0,-3.0L2.5,-0.5"/>
                </g>
                <g id="arrowDown" xlink:href="#dirArrow" transform="rotate(180) translate(-30 -48)" onmousedown="handlePan(0,1)">
                  <use xlink:href="#rim" fill="#404040">
                        <set attributeName="fill" to="#808080" begin="arrowDown.mouseover" end="arrowDown.mouseout"/>
                  </use>
                  <path fill="none" stroke="white" stroke-width="1.5" d="M0,-3.0v7 M-2.5,-0.5L0,-3.0L2.5,-0.5"/>
                </g>
                <g id="arrowLeft" xlink:href="#dirArrow" transform="rotate(270) translate(-36 17)" onmousedown="handlePan(-1,0)">
                  <use xlink:href="#rim" fill="#404040">
                        <set attributeName="fill" to="#808080" begin="arrowLeft.mouseover" end="arrowLeft.mouseout"/>
                  </use>
                  <path fill="none" stroke="white" stroke-width="1.5" d="M0,-3.0v7 M-2.5,-0.5L0,-3.0L2.5,-0.5"/>
                </g>
        </g>
        <svg viewBox="0 0 15 15" width="100%" height="30px" preserveAspectRatio="xMaxYMin meet">
         <g id="arrow_out" transform="scale(0.3 0.3)">
          <a xlink:href="structDGtal_1_1concepts_1_1CSinglePassRangeWithWritableIteratorFromPoint__inherit__graph_org.svg" target="_base">
           <rect id="button" ry="5" rx="5" y="6" x="6" height="38" width="38"
                fill="#f2f5e9" fill-opacity="0.5" stroke="#606060" stroke-width="1.0"/>
           <path id="arrow"
             d="M 11.500037,31.436501 C 11.940474,20.09759 22.043105,11.32322 32.158766,21.979434 L 37.068811,17.246167 C 37.068811,17.246167 37.088388,32 37.088388,32 L 22.160133,31.978069 C 22.160133,31.978069 26.997745,27.140456 26.997745,27.140456 C 18.528582,18.264221 13.291696,25.230495 11.500037,31.436501 z"
             style="fill:#404040;"/>
          </a>
         </g>
        </svg>
</svg>
