<?xml version="1.0" encoding="UTF-8" standalone="no"?>
<!DOCTYPE svg PUBLIC "-//W3C//DTD SVG 1.1//EN"
 "http://www.w3.org/Graphics/SVG/1.1/DTD/svg11.dtd">
<!-- Generated by graphviz version 7.0.1 (20221109.1506)
 -->
<!-- Title: DGtal::deprecated::concepts::CConvolutionWeights&lt; T &gt; Pages: 1 -->
<svg width="298pt" height="93pt"
 viewBox="0.00 0.00 297.50 93.00" xmlns="http://www.w3.org/2000/svg" xmlns:xlink="http://www.w3.org/1999/xlink">
<g id="graph0" class="graph" transform="scale(1 1) rotate(0) translate(4 89)">
<title>DGtal::deprecated::concepts::CConvolutionWeights&lt; T &gt;</title>
<!-- Node1 -->
<g id="node1" class="node">
<title>Node1</title>
<g id="a_node1"><a xlink:title="Aim: defines models of centered convolution kernel used for normal vector integration for instance.">
<polygon fill="#999999" stroke="#666666" points="243.5,-30 62.5,-30 62.5,0 243.5,0 243.5,-30"/>
<text text-anchor="start" x="70.5" y="-18" font-family="FreeSans" font-size="10.00">DGtal::deprecated::</text>
<text text-anchor="middle" x="153" y="-7" font-family="FreeSans" font-size="10.00">concepts::CConvolutionWeights&lt; T &gt;</text>
</a>
</g>
</g>
<!-- Node2 -->
<g id="node2" class="node">
<title>Node2</title>
<g id="a_node2"><a xlink:href="structboost_1_1CopyConstructible.html" target="_top" xlink:title="Go to http://www.sgi.com/tech/stl/CopyConstructible.html.">
<polygon fill="white" stroke="#666666" points="152,-85 0,-85 0,-66 152,-66 152,-85"/>
<text text-anchor="middle" x="76" y="-73" font-family="FreeSans" font-size="10.00">boost::CopyConstructible&lt; T &gt;</text>
</a>
</g>
</g>
<!-- Node2&#45;&gt;Node1 -->
<g id="edge1" class="edge">
<title>Node2&#45;&gt;Node1</title>
<path fill="none" stroke="#63b8ff" d="M96.67,-58.8C108.28,-49.98 122.67,-39.05 133.99,-30.44"/>
<polygon fill="#63b8ff" stroke="#63b8ff" points="94.75,-55.86 88.9,-64.7 98.98,-61.44 94.75,-55.86"/>
</g>
<!-- Node3 -->
<g id="node3" class="node">
<title>Node3</title>
<g id="a_node3"><a xlink:href="structboost_1_1Assignable.html" target="_top" xlink:title="Go to http://www.sgi.com/tech/stl/Assignable.html.">
<polygon fill="white" stroke="#666666" points="289.5,-85 170.5,-85 170.5,-66 289.5,-66 289.5,-85"/>
<text text-anchor="middle" x="230" y="-73" font-family="FreeSans" font-size="10.00">boost::Assignable&lt; T &gt;</text>
</a>
</g>
</g>
<!-- Node3&#45;&gt;Node1 -->
<g id="edge2" class="edge">
<title>Node3&#45;&gt;Node1</title>
<path fill="none" stroke="#63b8ff" d="M209.33,-58.8C197.72,-49.98 183.33,-39.05 172.01,-30.44"/>
<polygon fill="#63b8ff" stroke="#63b8ff" points="207.02,-61.44 217.1,-64.7 211.25,-55.86 207.02,-61.44"/>
</g>
</g>
</svg>
