<?xml version="1.0" encoding="UTF-8" standalone="no"?>
<!DOCTYPE svg PUBLIC "-//W3C//DTD SVG 1.1//EN"
 "http://www.w3.org/Graphics/SVG/1.1/DTD/svg11.dtd">
<!-- Generated by graphviz version 7.0.1 (20221109.1506)
 -->
<!-- Title: DGtal::concepts::CInteger&lt; T &gt; Pages: 1 -->
<svg width="1302pt" height="112pt"
 viewBox="0.00 0.00 1302.00 111.50" xmlns="http://www.w3.org/2000/svg" xmlns:xlink="http://www.w3.org/1999/xlink">
<g id="graph0" class="graph" transform="scale(1 1) rotate(0) translate(4 107.5)">
<title>DGtal::concepts::CInteger&lt; T &gt;</title>
<!-- Node1 -->
<g id="node1" class="node">
<title>Node1</title>
<g id="a_node1"><a xlink:title="Aim: Concept checking for Integer Numbers. More precisely, this concept is a refinement of both CEucl...">
<polygon fill="#999999" stroke="#666666" points="1294,-47.5 1139,-47.5 1139,-28.5 1294,-28.5 1294,-47.5"/>
<text text-anchor="middle" x="1216.5" y="-35.5" font-family="FreeSans" font-size="10.00">DGtal::concepts::CInteger&lt; T &gt;</text>
</a>
</g>
</g>
<!-- Node2 -->
<g id="node2" class="node">
<title>Node2</title>
<g id="a_node2"><a xlink:href="structDGtal_1_1concepts_1_1CEuclideanRing.html" target="_top" xlink:title="Aim: Defines the mathematical concept equivalent to a unitary commutative ring with a division operat...">
<polygon fill="white" stroke="#666666" points="1103,-76 959,-76 959,-46 1103,-46 1103,-76"/>
<text text-anchor="start" x="967" y="-64" font-family="FreeSans" font-size="10.00">DGtal::concepts::CEuclidean</text>
<text text-anchor="middle" x="1031" y="-53" font-family="FreeSans" font-size="10.00">Ring&lt; T &gt;</text>
</a>
</g>
</g>
<!-- Node2&#45;&gt;Node1 -->
<g id="edge1" class="edge">
<title>Node2&#45;&gt;Node1</title>
<path fill="none" stroke="#63b8ff" d="M1114.71,-50.63C1122.71,-49.63 1130.81,-48.61 1138.76,-47.62"/>
<polygon fill="#63b8ff" stroke="#63b8ff" points="1114.46,-47.14 1104.97,-51.85 1115.33,-54.08 1114.46,-47.14"/>
</g>
<!-- Node3 -->
<g id="node3" class="node">
<title>Node3</title>
<g id="a_node3"><a xlink:href="structDGtal_1_1concepts_1_1CCommutativeRing.html" target="_top" xlink:title="Aim: Defines the mathematical concept equivalent to a unitary commutative ring.">
<polygon fill="white" stroke="#666666" points="923,-78 763,-78 763,-48 923,-48 923,-78"/>
<text text-anchor="start" x="771" y="-66" font-family="FreeSans" font-size="10.00">DGtal::concepts::CCommutative</text>
<text text-anchor="middle" x="843" y="-55" font-family="FreeSans" font-size="10.00">Ring&lt; T &gt;</text>
</a>
</g>
</g>
<!-- Node3&#45;&gt;Node2 -->
<g id="edge2" class="edge">
<title>Node3&#45;&gt;Node2</title>
<path fill="none" stroke="#63b8ff" d="M934.78,-62.02C942.84,-61.94 950.92,-61.85 958.78,-61.77"/>
<polygon fill="#63b8ff" stroke="#63b8ff" points="934.9,-58.52 924.93,-62.13 934.97,-65.52 934.9,-58.52"/>
</g>
<!-- Node4 -->
<g id="node4" class="node">
<title>Node4</title>
<g id="a_node4"><a xlink:href="structDGtal_1_1concepts_1_1CSignedNumber.html" target="_top" xlink:title="Aim: Concept checking for Signed Numbers. Models of this concept should be listed in NumberTraits cla...">
<polygon fill="white" stroke="#666666" points="727,-76 596,-76 596,-46 727,-46 727,-76"/>
<text text-anchor="start" x="604" y="-64" font-family="FreeSans" font-size="10.00">DGtal::concepts::CSigned</text>
<text text-anchor="middle" x="661.5" y="-53" font-family="FreeSans" font-size="10.00">Number&lt; T &gt;</text>
</a>
</g>
</g>
<!-- Node4&#45;&gt;Node3 -->
<g id="edge3" class="edge">
<title>Node4&#45;&gt;Node3</title>
<path fill="none" stroke="#63b8ff" d="M738.73,-61.85C746.62,-61.94 754.66,-62.03 762.58,-62.12"/>
<polygon fill="#63b8ff" stroke="#63b8ff" points="738.86,-58.35 728.82,-61.74 738.78,-65.35 738.86,-58.35"/>
</g>
<!-- Node5 -->
<g id="node5" class="node">
<title>Node5</title>
<g id="a_node5"><a xlink:href="structDGtal_1_1concepts_1_1CQuantity.html" target="_top" xlink:title="Aim: defines the concept of quantity in DGtal.">
<polygon fill="white" stroke="#666666" points="560,-47.5 398,-47.5 398,-28.5 560,-28.5 560,-47.5"/>
<text text-anchor="middle" x="479" y="-35.5" font-family="FreeSans" font-size="10.00">DGtal::concepts::CQuantity&lt; T &gt;</text>
</a>
</g>
</g>
<!-- Node5&#45;&gt;Node4 -->
<g id="edge4" class="edge">
<title>Node5&#45;&gt;Node4</title>
<path fill="none" stroke="#63b8ff" d="M569.54,-49.41C578.37,-50.53 587.21,-51.66 595.72,-52.75"/>
<polygon fill="#63b8ff" stroke="#63b8ff" points="570.25,-45.97 559.88,-48.18 569.36,-52.92 570.25,-45.97"/>
</g>
<!-- Node11 -->
<g id="node11" class="node">
<title>Node11</title>
<g id="a_node11"><a xlink:href="structDGtal_1_1concepts_1_1CIntegralNumber.html" target="_top" xlink:title="Aim: Concept checking for Integral Numbers. Models of this concept should be listed in NumberTraits c...">
<polygon fill="white" stroke="#666666" points="910,-30 776,-30 776,0 910,0 910,-30"/>
<text text-anchor="start" x="784" y="-18" font-family="FreeSans" font-size="10.00">DGtal::concepts::CIntegral</text>
<text text-anchor="middle" x="843" y="-7" font-family="FreeSans" font-size="10.00">Number&lt; T &gt;</text>
</a>
</g>
</g>
<!-- Node5&#45;&gt;Node11 -->
<g id="edge11" class="edge">
<title>Node5&#45;&gt;Node11</title>
<path fill="none" stroke="#63b8ff" d="M571.56,-32.18C635.1,-28.15 718.27,-22.86 775.51,-19.22"/>
<polygon fill="#63b8ff" stroke="#63b8ff" points="571.61,-28.67 561.85,-32.8 572.05,-35.66 571.61,-28.67"/>
</g>
<!-- Node6 -->
<g id="node6" class="node">
<title>Node6</title>
<g id="a_node6"><a xlink:href="structDGtal_1_1concepts_1_1CLabel.html" target="_top" xlink:title="Aim: Define the concept of DGtal labels. Models of CLabel can be default&#45;constructible,...">
<polygon fill="white" stroke="#666666" points="353.5,-66.5 204.5,-66.5 204.5,-47.5 353.5,-47.5 353.5,-66.5"/>
<text text-anchor="middle" x="279" y="-54.5" font-family="FreeSans" font-size="10.00">DGtal::concepts::CLabel&lt; T &gt;</text>
</a>
</g>
</g>
<!-- Node6&#45;&gt;Node5 -->
<g id="edge5" class="edge">
<title>Node6&#45;&gt;Node5</title>
<path fill="none" stroke="#63b8ff" d="M364.91,-48.85C375.74,-47.81 386.81,-46.75 397.56,-45.72"/>
<polygon fill="#63b8ff" stroke="#63b8ff" points="364.85,-45.34 355.23,-49.78 365.52,-52.31 364.85,-45.34"/>
</g>
<!-- Node7 -->
<g id="node7" class="node">
<title>Node7</title>
<g id="a_node7"><a xlink:href="structboost_1_1DefaultConstructible.html" target="_top" xlink:title="Go to http://www.sgi.com/tech/stl/DefaultConstructible.html.">
<polygon fill="white" stroke="#666666" points="160,-103.5 0,-103.5 0,-84.5 160,-84.5 160,-103.5"/>
<text text-anchor="middle" x="80" y="-91.5" font-family="FreeSans" font-size="10.00">boost::DefaultConstructible&lt; T &gt;</text>
</a>
</g>
</g>
<!-- Node7&#45;&gt;Node6 -->
<g id="edge6" class="edge">
<title>Node7&#45;&gt;Node6</title>
<path fill="none" stroke="#63b8ff" d="M145.23,-81.94C170.99,-77.1 200.32,-71.59 224.85,-66.98"/>
<polygon fill="#63b8ff" stroke="#63b8ff" points="144.72,-78.47 135.54,-83.76 146.01,-85.35 144.72,-78.47"/>
</g>
<!-- Node8 -->
<g id="node8" class="node">
<title>Node8</title>
<g id="a_node8"><a xlink:href="structboost_1_1Assignable.html" target="_top" xlink:title="Go to http://www.sgi.com/tech/stl/Assignable.html.">
<polygon fill="white" stroke="#666666" points="139.5,-66.5 20.5,-66.5 20.5,-47.5 139.5,-47.5 139.5,-66.5"/>
<text text-anchor="middle" x="80" y="-54.5" font-family="FreeSans" font-size="10.00">boost::Assignable&lt; T &gt;</text>
</a>
</g>
</g>
<!-- Node8&#45;&gt;Node6 -->
<g id="edge7" class="edge">
<title>Node8&#45;&gt;Node6</title>
<path fill="none" stroke="#63b8ff" d="M150.95,-57C168.18,-57 186.68,-57 204.09,-57"/>
<polygon fill="#63b8ff" stroke="#63b8ff" points="151.35,-53.5 141.35,-57 151.35,-60.5 151.35,-53.5"/>
</g>
<!-- Node9 -->
<g id="node9" class="node">
<title>Node9</title>
<g id="a_node9"><a xlink:href="structboost_1_1EqualityComparable.html" target="_top" xlink:title="Go to http://www.sgi.com/tech/stl/EqualityComparable.html.">
<polygon fill="white" stroke="#666666" points="159,-29.5 1,-29.5 1,-10.5 159,-10.5 159,-29.5"/>
<text text-anchor="middle" x="80" y="-17.5" font-family="FreeSans" font-size="10.00">boost::EqualityComparable&lt; T &gt;</text>
</a>
</g>
</g>
<!-- Node9&#45;&gt;Node6 -->
<g id="edge8" class="edge">
<title>Node9&#45;&gt;Node6</title>
<path fill="none" stroke="#63b8ff" d="M145.23,-32.06C170.99,-36.9 200.32,-42.41 224.85,-47.02"/>
<polygon fill="#63b8ff" stroke="#63b8ff" points="146.01,-28.65 135.54,-30.24 144.72,-35.53 146.01,-28.65"/>
</g>
<!-- Node10 -->
<g id="node10" class="node">
<title>Node10</title>
<g id="a_node10"><a xlink:href="structboost_1_1LessThanComparable.html" target="_top" xlink:title="Go to http://www.sgi.com/tech/stl/LessThanComparable.html.">
<polygon fill="white" stroke="#666666" points="362,-29.5 196,-29.5 196,-10.5 362,-10.5 362,-29.5"/>
<text text-anchor="middle" x="279" y="-17.5" font-family="FreeSans" font-size="10.00">boost::LessThanComparable&lt; T &gt;</text>
</a>
</g>
</g>
<!-- Node10&#45;&gt;Node5 -->
<g id="edge9" class="edge">
<title>Node10&#45;&gt;Node5</title>
<path fill="none" stroke="#63b8ff" d="M373.56,-28.51C381.59,-29.24 389.68,-29.97 397.6,-30.69"/>
<polygon fill="#63b8ff" stroke="#63b8ff" points="374.03,-25.03 363.76,-27.61 373.4,-32.01 374.03,-25.03"/>
</g>
<!-- Node11&#45;&gt;Node1 -->
<g id="edge10" class="edge">
<title>Node11&#45;&gt;Node1</title>
<path fill="none" stroke="#63b8ff" d="M921.61,-19.8C985.37,-23.75 1075.23,-29.32 1138.75,-33.25"/>
<polygon fill="#63b8ff" stroke="#63b8ff" points="922.12,-16.33 911.93,-19.21 921.69,-23.32 922.12,-16.33"/>
</g>
</g>
</svg>
