<?xml version="1.0" encoding="UTF-8" standalone="no"?>
<!DOCTYPE svg PUBLIC "-//W3C//DTD SVG 1.1//EN"
 "http://www.w3.org/Graphics/SVG/1.1/DTD/svg11.dtd">
<!-- Generated by graphviz version 7.0.1 (20221109.1506)
 -->
<!-- Title: DGtal::AssociativeCategory Pages: 1 -->
<svg width="704pt" height="353pt"
 viewBox="0.00 0.00 704.00 353.00" xmlns="http://www.w3.org/2000/svg" xmlns:xlink="http://www.w3.org/1999/xlink">
<g id="graph0" class="graph" transform="scale(1 1) rotate(0) translate(4 349)">
<title>DGtal::AssociativeCategory</title>
<!-- Node1 -->
<g id="node1" class="node">
<title>Node1</title>
<g id="a_node1"><a xlink:title=" ">
<polygon fill="#999999" stroke="#666666" points="305,-183.5 166,-183.5 166,-164.5 305,-164.5 305,-183.5"/>
<text text-anchor="middle" x="235.5" y="-171.5" font-family="FreeSans" font-size="10.00">DGtal::AssociativeCategory</text>
</a>
</g>
</g>
<!-- Node3 -->
<g id="node3" class="node">
<title>Node3</title>
<g id="a_node3"><a xlink:href="structDGtal_1_1MultipleAssociativeCategory.html" target="_top" xlink:title=" ">
<polygon fill="white" stroke="#666666" points="485.5,-302 352.5,-302 352.5,-272 485.5,-272 485.5,-302"/>
<text text-anchor="start" x="360.5" y="-290" font-family="FreeSans" font-size="10.00">DGtal::MultipleAssociative</text>
<text text-anchor="middle" x="419" y="-279" font-family="FreeSans" font-size="10.00">Category</text>
</a>
</g>
</g>
<!-- Node1&#45;&gt;Node3 -->
<g id="edge2" class="edge">
<title>Node1&#45;&gt;Node3</title>
<path fill="none" stroke="#63b8ff" d="M253.15,-192C272.5,-211.96 306.25,-243.85 341,-263 346.89,-266.24 353.27,-269.12 359.76,-271.64"/>
<polygon fill="#63b8ff" stroke="#63b8ff" points="255.78,-189.7 246.36,-184.86 250.71,-194.52 255.78,-189.7"/>
</g>
<!-- Node8 -->
<g id="node8" class="node">
<title>Node8</title>
<g id="a_node8"><a xlink:href="structDGtal_1_1OrderedAssociativeCategory.html" target="_top" xlink:title=" ">
<polygon fill="white" stroke="#666666" points="486,-254 352,-254 352,-224 486,-224 486,-254"/>
<text text-anchor="start" x="360" y="-242" font-family="FreeSans" font-size="10.00">DGtal::OrderedAssociative</text>
<text text-anchor="middle" x="419" y="-231" font-family="FreeSans" font-size="10.00">Category</text>
</a>
</g>
</g>
<!-- Node1&#45;&gt;Node8 -->
<g id="edge7" class="edge">
<title>Node1&#45;&gt;Node8</title>
<path fill="none" stroke="#63b8ff" d="M271.85,-188.05C292.02,-195.94 317.82,-205.81 341,-214 350.01,-217.19 359.67,-220.44 368.99,-223.51"/>
<polygon fill="#63b8ff" stroke="#63b8ff" points="273.28,-184.85 262.69,-184.45 270.72,-191.37 273.28,-184.85"/>
</g>
<!-- Node11 -->
<g id="node11" class="node">
<title>Node11</title>
<g id="a_node11"><a xlink:href="structDGtal_1_1PairAssociativeCategory.html" target="_top" xlink:title=" ">
<polygon fill="white" stroke="#666666" points="497,-205.5 341,-205.5 341,-186.5 497,-186.5 497,-205.5"/>
<text text-anchor="middle" x="419" y="-193.5" font-family="FreeSans" font-size="10.00">DGtal::PairAssociativeCategory</text>
</a>
</g>
</g>
<!-- Node1&#45;&gt;Node11 -->
<g id="edge12" class="edge">
<title>Node1&#45;&gt;Node11</title>
<path fill="none" stroke="#63b8ff" d="M316.59,-183.71C324.59,-184.68 332.7,-185.66 340.67,-186.63"/>
<polygon fill="#63b8ff" stroke="#63b8ff" points="317.23,-180.26 306.88,-182.53 316.38,-187.21 317.23,-180.26"/>
</g>
<!-- Node13 -->
<g id="node13" class="node">
<title>Node13</title>
<g id="a_node13"><a xlink:href="structDGtal_1_1SimpleAssociativeCategory.html" target="_top" xlink:title=" ">
<polygon fill="white" stroke="#666666" points="483.5,-168 354.5,-168 354.5,-138 483.5,-138 483.5,-168"/>
<text text-anchor="start" x="362.5" y="-156" font-family="FreeSans" font-size="10.00">DGtal::SimpleAssociative</text>
<text text-anchor="middle" x="419" y="-145" font-family="FreeSans" font-size="10.00">Category</text>
</a>
</g>
</g>
<!-- Node1&#45;&gt;Node13 -->
<g id="edge17" class="edge">
<title>Node1&#45;&gt;Node13</title>
<path fill="none" stroke="#63b8ff" d="M316.79,-164.71C329.33,-163.26 342.14,-161.78 354.25,-160.38"/>
<polygon fill="#63b8ff" stroke="#63b8ff" points="316.41,-161.23 306.88,-165.86 317.22,-168.18 316.41,-161.23"/>
</g>
<!-- Node15 -->
<g id="node15" class="node">
<title>Node15</title>
<g id="a_node15"><a xlink:href="structDGtal_1_1UniqueAssociativeCategory.html" target="_top" xlink:title=" ">
<polygon fill="white" stroke="#666666" points="484,-72 354,-72 354,-42 484,-42 484,-72"/>
<text text-anchor="start" x="362" y="-60" font-family="FreeSans" font-size="10.00">DGtal::UniqueAssociative</text>
<text text-anchor="middle" x="419" y="-49" font-family="FreeSans" font-size="10.00">Category</text>
</a>
</g>
</g>
<!-- Node1&#45;&gt;Node15 -->
<g id="edge22" class="edge">
<title>Node1&#45;&gt;Node15</title>
<path fill="none" stroke="#63b8ff" d="M252.42,-155.75C271.53,-134.91 305.46,-101.1 341,-81 346.73,-77.76 352.95,-74.9 359.29,-72.39"/>
<polygon fill="#63b8ff" stroke="#63b8ff" points="250.05,-153.16 245.97,-162.94 255.25,-157.84 250.05,-153.16"/>
</g>
<!-- Node16 -->
<g id="node16" class="node">
<title>Node16</title>
<g id="a_node16"><a xlink:href="structDGtal_1_1UnorderedAssociativeCategory.html" target="_top" xlink:title=" ">
<polygon fill="white" stroke="#666666" points="491,-120 347,-120 347,-90 491,-90 491,-120"/>
<text text-anchor="start" x="355" y="-108" font-family="FreeSans" font-size="10.00">DGtal::UnorderedAssociative</text>
<text text-anchor="middle" x="419" y="-97" font-family="FreeSans" font-size="10.00">Category</text>
</a>
</g>
</g>
<!-- Node1&#45;&gt;Node16 -->
<g id="edge27" class="edge">
<title>Node1&#45;&gt;Node16</title>
<path fill="none" stroke="#63b8ff" d="M268.2,-159.32C288.74,-150.07 316.19,-138.18 341,-129 349.01,-126.04 357.58,-123.12 365.98,-120.4"/>
<polygon fill="#63b8ff" stroke="#63b8ff" points="266.88,-156.08 259.23,-163.4 269.78,-162.45 266.88,-156.08"/>
</g>
<!-- Node2 -->
<g id="node2" class="node">
<title>Node2</title>
<g id="a_node2"><a xlink:href="structDGtal_1_1ContainerCategory.html" target="_top" xlink:title=" ">
<polygon fill="white" stroke="#666666" points="130,-183.5 0,-183.5 0,-164.5 130,-164.5 130,-183.5"/>
<text text-anchor="middle" x="65" y="-171.5" font-family="FreeSans" font-size="10.00">DGtal::ContainerCategory</text>
</a>
</g>
</g>
<!-- Node2&#45;&gt;Node1 -->
<g id="edge1" class="edge">
<title>Node2&#45;&gt;Node1</title>
<path fill="none" stroke="#63b8ff" d="M141.49,-174C149.56,-174 157.74,-174 165.73,-174"/>
<polygon fill="#63b8ff" stroke="#63b8ff" points="141.7,-170.5 131.7,-174 141.7,-177.5 141.7,-170.5"/>
</g>
<!-- Node4 -->
<g id="node4" class="node">
<title>Node4</title>
<g id="a_node4"><a xlink:href="structDGtal_1_1MultimapAssociativeCategory.html" target="_top" xlink:title=" ">
<polygon fill="white" stroke="#666666" points="684,-345 545,-345 545,-315 684,-315 684,-345"/>
<text text-anchor="start" x="553" y="-333" font-family="FreeSans" font-size="10.00">DGtal::MultimapAssociative</text>
<text text-anchor="middle" x="614.5" y="-322" font-family="FreeSans" font-size="10.00">Category</text>
</a>
</g>
</g>
<!-- Node3&#45;&gt;Node4 -->
<g id="edge3" class="edge">
<title>Node3&#45;&gt;Node4</title>
<path fill="none" stroke="#63b8ff" d="M496.61,-304.02C512.45,-307.54 529.05,-311.23 544.6,-314.69"/>
<polygon fill="#63b8ff" stroke="#63b8ff" points="497.78,-300.7 487.26,-301.95 496.26,-307.53 497.78,-300.7"/>
</g>
<!-- Node5 -->
<g id="node5" class="node">
<title>Node5</title>
<g id="a_node5"><a xlink:href="structDGtal_1_1MultisetAssociativeCategory.html" target="_top" xlink:title=" ">
<polygon fill="white" stroke="#666666" points="681.5,-297 547.5,-297 547.5,-267 681.5,-267 681.5,-297"/>
<text text-anchor="start" x="555.5" y="-285" font-family="FreeSans" font-size="10.00">DGtal::MultisetAssociative</text>
<text text-anchor="middle" x="614.5" y="-274" font-family="FreeSans" font-size="10.00">Category</text>
</a>
</g>
</g>
<!-- Node3&#45;&gt;Node5 -->
<g id="edge4" class="edge">
<title>Node3&#45;&gt;Node5</title>
<path fill="none" stroke="#63b8ff" d="M497.11,-285.01C513.71,-284.58 531.11,-284.13 547.24,-283.71"/>
<polygon fill="#63b8ff" stroke="#63b8ff" points="497.2,-281.5 487.29,-285.26 497.38,-288.5 497.2,-281.5"/>
</g>
<!-- Node6 -->
<g id="node6" class="node">
<title>Node6</title>
<g id="a_node6"><a xlink:href="structDGtal_1_1UnorderedMultimapAssociativeCategory.html" target="_top" xlink:title=" ">
<polygon fill="white" stroke="#666666" points="681,-249 548,-249 548,-219 681,-219 681,-249"/>
<text text-anchor="start" x="556" y="-237" font-family="FreeSans" font-size="10.00">DGtal::UnorderedMultimap</text>
<text text-anchor="middle" x="614.5" y="-226" font-family="FreeSans" font-size="10.00">AssociativeCategory</text>
</a>
</g>
</g>
<!-- Node3&#45;&gt;Node6 -->
<g id="edge5" class="edge">
<title>Node3&#45;&gt;Node6</title>
<path fill="none" stroke="#63b8ff" d="M487.41,-268.54C510.1,-262.32 535.17,-255.45 556.94,-249.49"/>
<polygon fill="#63b8ff" stroke="#63b8ff" points="486.67,-265.11 477.95,-271.13 488.52,-271.86 486.67,-265.11"/>
</g>
<!-- Node7 -->
<g id="node7" class="node">
<title>Node7</title>
<g id="a_node7"><a xlink:href="structDGtal_1_1UnorderedMultisetAssociativeCategory.html" target="_top" xlink:title=" ">
<polygon fill="white" stroke="#666666" points="678.5,-201 550.5,-201 550.5,-171 678.5,-171 678.5,-201"/>
<text text-anchor="start" x="558.5" y="-189" font-family="FreeSans" font-size="10.00">DGtal::UnorderedMultiset</text>
<text text-anchor="middle" x="614.5" y="-178" font-family="FreeSans" font-size="10.00">AssociativeCategory</text>
</a>
</g>
</g>
<!-- Node3&#45;&gt;Node7 -->
<g id="edge6" class="edge">
<title>Node3&#45;&gt;Node7</title>
<path fill="none" stroke="#63b8ff" d="M492.76,-265.92C494.21,-264.99 495.63,-264.02 497,-263 519.87,-246.04 510.02,-226.82 533,-210 538.3,-206.12 544.22,-202.87 550.38,-200.14"/>
<polygon fill="#63b8ff" stroke="#63b8ff" points="491.08,-262.85 484.05,-270.78 494.49,-268.97 491.08,-262.85"/>
</g>
<!-- Node8&#45;&gt;Node4 -->
<g id="edge9" class="edge">
<title>Node8&#45;&gt;Node4</title>
<path fill="none" stroke="#63b8ff" d="M491.31,-259.51C493.26,-260.61 495.16,-261.78 497,-263 517.74,-276.82 512.18,-292.3 533,-306 538,-309.29 543.46,-312.13 549.1,-314.6"/>
<polygon fill="#63b8ff" stroke="#63b8ff" points="493.06,-256.47 482.56,-255.11 489.93,-262.73 493.06,-256.47"/>
</g>
<!-- Node8&#45;&gt;Node5 -->
<g id="edge10" class="edge">
<title>Node8&#45;&gt;Node5</title>
<path fill="none" stroke="#63b8ff" d="M497.1,-256.13C513.7,-259.82 531.12,-263.69 547.27,-267.28"/>
<polygon fill="#63b8ff" stroke="#63b8ff" points="498.32,-252.82 487.8,-254.07 496.8,-259.65 498.32,-252.82"/>
</g>
<!-- Node9 -->
<g id="node9" class="node">
<title>Node9</title>
<g id="a_node9"><a xlink:href="structDGtal_1_1MapAssociativeCategory.html" target="_top" xlink:title=" ">
<polygon fill="white" stroke="#666666" points="693.5,-152.5 535.5,-152.5 535.5,-133.5 693.5,-133.5 693.5,-152.5"/>
<text text-anchor="middle" x="614.5" y="-140.5" font-family="FreeSans" font-size="10.00">DGtal::MapAssociativeCategory</text>
</a>
</g>
</g>
<!-- Node8&#45;&gt;Node9 -->
<g id="edge8" class="edge">
<title>Node8&#45;&gt;Node9</title>
<path fill="none" stroke="#63b8ff" d="M490.69,-218.24C492.87,-216.91 494.98,-215.5 497,-214 519.55,-197.22 509.78,-177.84 533,-162 538.46,-158.28 544.55,-155.28 550.88,-152.87"/>
<polygon fill="#63b8ff" stroke="#63b8ff" points="489.25,-215.04 482.08,-222.84 492.55,-221.22 489.25,-215.04"/>
</g>
<!-- Node10 -->
<g id="node10" class="node">
<title>Node10</title>
<g id="a_node10"><a xlink:href="structDGtal_1_1SetAssociativeCategory.html" target="_top" xlink:title=" ">
<polygon fill="white" stroke="#666666" points="691.5,-115.5 537.5,-115.5 537.5,-96.5 691.5,-96.5 691.5,-115.5"/>
<text text-anchor="middle" x="614.5" y="-103.5" font-family="FreeSans" font-size="10.00">DGtal::SetAssociativeCategory</text>
</a>
</g>
</g>
<!-- Node8&#45;&gt;Node10 -->
<g id="edge11" class="edge">
<title>Node8&#45;&gt;Node10</title>
<path fill="none" stroke="#63b8ff" d="M493.09,-217.35C494.44,-216.29 495.75,-215.17 497,-214 528.46,-184.57 500.19,-151.92 533,-124 536.82,-120.75 541.09,-118.05 545.64,-115.82"/>
<polygon fill="#63b8ff" stroke="#63b8ff" points="491.24,-214.38 484.82,-222.8 495.09,-220.22 491.24,-214.38"/>
</g>
<!-- Node11&#45;&gt;Node4 -->
<g id="edge14" class="edge">
<title>Node11&#45;&gt;Node4</title>
<path fill="none" stroke="#63b8ff" d="M492.41,-211.41C494,-212.53 495.54,-213.72 497,-215 529.76,-243.61 500.94,-276.61 533,-306 536.66,-309.35 540.76,-312.23 545.13,-314.72"/>
<polygon fill="#63b8ff" stroke="#63b8ff" points="494.44,-208.54 484.02,-206.59 490.95,-214.61 494.44,-208.54"/>
</g>
<!-- Node11&#45;&gt;Node6 -->
<g id="edge16" class="edge">
<title>Node11&#45;&gt;Node6</title>
<path fill="none" stroke="#63b8ff" d="M481.89,-208.15C502.88,-212.28 526.41,-216.9 547.69,-221.08"/>
<polygon fill="#63b8ff" stroke="#63b8ff" points="482.81,-204.77 472.33,-206.28 481.46,-211.64 482.81,-204.77"/>
</g>
<!-- Node11&#45;&gt;Node9 -->
<g id="edge13" class="edge">
<title>Node11&#45;&gt;Node9</title>
<path fill="none" stroke="#63b8ff" d="M476.14,-183.21C483.21,-181.29 490.31,-179.21 497,-177 513.46,-171.57 516.51,-167.34 533,-162 543.38,-158.64 554.69,-155.6 565.47,-152.98"/>
<polygon fill="#63b8ff" stroke="#63b8ff" points="475.37,-179.79 466.58,-185.71 477.14,-186.57 475.37,-179.79"/>
</g>
<!-- Node12 -->
<g id="node12" class="node">
<title>Node12</title>
<g id="a_node12"><a xlink:href="structDGtal_1_1UnorderedMapAssociativeCategory.html" target="_top" xlink:title=" ">
<polygon fill="white" stroke="#666666" points="696,-78 533,-78 533,-48 696,-48 696,-78"/>
<text text-anchor="start" x="541" y="-66" font-family="FreeSans" font-size="10.00">DGtal::UnorderedMapAssociative</text>
<text text-anchor="middle" x="614.5" y="-55" font-family="FreeSans" font-size="10.00">Category</text>
</a>
</g>
</g>
<!-- Node11&#45;&gt;Node12 -->
<g id="edge15" class="edge">
<title>Node11&#45;&gt;Node12</title>
<path fill="none" stroke="#63b8ff" d="M492.4,-180.58C494,-179.47 495.54,-178.27 497,-177 529.5,-148.72 501.19,-116.05 533,-87 536.66,-83.66 540.77,-80.78 545.14,-78.3"/>
<polygon fill="#63b8ff" stroke="#63b8ff" points="490.94,-177.38 484.01,-185.39 494.42,-183.45 490.94,-177.38"/>
</g>
<!-- Node13&#45;&gt;Node5 -->
<g id="edge18" class="edge">
<title>Node13&#45;&gt;Node5</title>
<path fill="none" stroke="#63b8ff" d="M493.13,-173.83C494.47,-174.84 495.76,-175.89 497,-177 526.43,-203.19 503.41,-231.99 533,-258 537.27,-261.76 542.11,-264.92 547.24,-267.6"/>
<polygon fill="#63b8ff" stroke="#63b8ff" points="495.36,-171.1 485.04,-168.69 491.6,-177.01 495.36,-171.1"/>
</g>
<!-- Node13&#45;&gt;Node7 -->
<g id="edge20" class="edge">
<title>Node13&#45;&gt;Node7</title>
<path fill="none" stroke="#63b8ff" d="M495.04,-165.8C513.2,-168.89 532.43,-172.17 550,-175.17"/>
<polygon fill="#63b8ff" stroke="#63b8ff" points="495.83,-162.38 485.39,-164.15 494.66,-169.28 495.83,-162.38"/>
</g>
<!-- Node13&#45;&gt;Node10 -->
<g id="edge19" class="edge">
<title>Node13&#45;&gt;Node10</title>
<path fill="none" stroke="#63b8ff" d="M489.65,-134.76C503.96,-131.12 518.95,-127.37 533,-124 544.28,-121.29 556.48,-118.5 567.89,-115.94"/>
<polygon fill="#63b8ff" stroke="#63b8ff" points="489.14,-131.28 480.32,-137.15 490.88,-138.06 489.14,-131.28"/>
</g>
<!-- Node14 -->
<g id="node14" class="node">
<title>Node14</title>
<g id="a_node14"><a xlink:href="structDGtal_1_1UnorderedSetAssociativeCategory.html" target="_top" xlink:title=" ">
<polygon fill="white" stroke="#666666" points="694,-30 535,-30 535,0 694,0 694,-30"/>
<text text-anchor="start" x="543" y="-18" font-family="FreeSans" font-size="10.00">DGtal::UnorderedSetAssociative</text>
<text text-anchor="middle" x="614.5" y="-7" font-family="FreeSans" font-size="10.00">Category</text>
</a>
</g>
</g>
<!-- Node13&#45;&gt;Node14 -->
<g id="edge21" class="edge">
<title>Node13&#45;&gt;Node14</title>
<path fill="none" stroke="#63b8ff" d="M493.19,-132.23C494.51,-131.2 495.78,-130.13 497,-129 528.63,-99.75 501.19,-68.05 533,-39 536.66,-35.66 540.77,-32.78 545.14,-30.3"/>
<polygon fill="#63b8ff" stroke="#63b8ff" points="491.64,-129.06 485.18,-137.46 495.47,-134.92 491.64,-129.06"/>
</g>
<!-- Node15&#45;&gt;Node9 -->
<g id="edge23" class="edge">
<title>Node15&#45;&gt;Node9</title>
<path fill="none" stroke="#63b8ff" d="M491.31,-77.51C493.26,-78.61 495.16,-79.78 497,-81 517.74,-94.82 511.79,-110.91 533,-124 538.99,-127.69 545.63,-130.67 552.46,-133.07"/>
<polygon fill="#63b8ff" stroke="#63b8ff" points="493.06,-74.47 482.56,-73.11 489.93,-80.73 493.06,-74.47"/>
</g>
<!-- Node15&#45;&gt;Node10 -->
<g id="edge24" class="edge">
<title>Node15&#45;&gt;Node10</title>
<path fill="none" stroke="#63b8ff" d="M488.21,-75.44C502.96,-79.33 518.49,-83.36 533,-87 545.12,-90.04 558.3,-93.21 570.42,-96.06"/>
<polygon fill="#63b8ff" stroke="#63b8ff" points="489.14,-72.06 478.58,-72.88 487.35,-78.83 489.14,-72.06"/>
</g>
<!-- Node15&#45;&gt;Node12 -->
<g id="edge25" class="edge">
<title>Node15&#45;&gt;Node12</title>
<path fill="none" stroke="#63b8ff" d="M495.89,-59.35C508.01,-59.73 520.59,-60.12 532.82,-60.5"/>
<polygon fill="#63b8ff" stroke="#63b8ff" points="496.05,-55.86 485.95,-59.04 495.83,-62.85 496.05,-55.86"/>
</g>
<!-- Node15&#45;&gt;Node14 -->
<g id="edge26" class="edge">
<title>Node15&#45;&gt;Node14</title>
<path fill="none" stroke="#63b8ff" d="M495.5,-40.61C510.92,-37.27 527.09,-33.76 542.35,-30.44"/>
<polygon fill="#63b8ff" stroke="#63b8ff" points="494.94,-37.15 485.91,-42.69 496.43,-43.99 494.94,-37.15"/>
</g>
<!-- Node16&#45;&gt;Node6 -->
<g id="edge29" class="edge">
<title>Node16&#45;&gt;Node6</title>
<path fill="none" stroke="#63b8ff" d="M494.18,-126.64C495.14,-127.4 496.08,-128.19 497,-129 526.43,-155.19 503.41,-183.99 533,-210 537.38,-213.85 542.36,-217.09 547.64,-219.8"/>
<polygon fill="#63b8ff" stroke="#63b8ff" points="496.42,-123.93 486.15,-121.33 492.56,-129.77 496.42,-123.93"/>
</g>
<!-- Node16&#45;&gt;Node7 -->
<g id="edge30" class="edge">
<title>Node16&#45;&gt;Node7</title>
<path fill="none" stroke="#63b8ff" d="M489.23,-124.97C491.89,-126.24 494.49,-127.58 497,-129 515.64,-139.53 514.36,-150.48 533,-161 539.5,-164.67 546.6,-167.87 553.82,-170.64"/>
<polygon fill="#63b8ff" stroke="#63b8ff" points="490.67,-121.77 480.1,-121 487.88,-128.19 490.67,-121.77"/>
</g>
<!-- Node16&#45;&gt;Node12 -->
<g id="edge28" class="edge">
<title>Node16&#45;&gt;Node12</title>
<path fill="none" stroke="#63b8ff" d="M502.25,-87.15C515.5,-84.27 529.13,-81.31 542.1,-78.5"/>
<polygon fill="#63b8ff" stroke="#63b8ff" points="501.74,-83.68 492.71,-89.22 503.22,-90.52 501.74,-83.68"/>
</g>
<!-- Node16&#45;&gt;Node14 -->
<g id="edge31" class="edge">
<title>Node16&#45;&gt;Node14</title>
<path fill="none" stroke="#63b8ff" d="M491.29,-84.47C493.25,-83.37 495.16,-82.21 497,-81 517.54,-67.48 512.38,-52.39 533,-39 538.01,-35.74 543.49,-32.91 549.14,-30.46"/>
<polygon fill="#63b8ff" stroke="#63b8ff" points="489.91,-81.24 482.52,-88.83 493.03,-87.51 489.91,-81.24"/>
</g>
</g>
</svg>
