<?xml version="1.0" encoding="UTF-8" standalone="no"?>
<!DOCTYPE svg PUBLIC "-//W3C//DTD SVG 1.1//EN"
 "http://www.w3.org/Graphics/SVG/1.1/DTD/svg11.dtd">
<!-- Generated by graphviz version 7.0.1 (20221109.1506)
 -->
<!-- Title: LibBoard::Ellipse Pages: 1 -->
<svg width="98pt" height="192pt"
 viewBox="0.00 0.00 98.00 192.00" xmlns="http://www.w3.org/2000/svg" xmlns:xlink="http://www.w3.org/1999/xlink">
<g id="graph0" class="graph" transform="scale(1 1) rotate(0) translate(4 188)">
<title>LibBoard::Ellipse</title>
<!-- Node1 -->
<g id="node1" class="node">
<title>Node1</title>
<g id="a_node1"><a xlink:title="An ellipse.">
<polygon fill="#999999" stroke="#666666" points="90,-129 0,-129 0,-110 90,-110 90,-129"/>
<text text-anchor="middle" x="45" y="-117" font-family="FreeSans" font-size="10.00">LibBoard::Ellipse</text>
</a>
</g>
</g>
<!-- Node3 -->
<g id="node3" class="node">
<title>Node3</title>
<g id="a_node3"><a xlink:href="structLibBoard_1_1Circle.html" target="_top" xlink:title="A circle.">
<polygon fill="white" stroke="#666666" points="88,-74 2,-74 2,-55 88,-55 88,-74"/>
<text text-anchor="middle" x="45" y="-62" font-family="FreeSans" font-size="10.00">LibBoard::Circle</text>
</a>
</g>
</g>
<!-- Node1&#45;&gt;Node3 -->
<g id="edge2" class="edge">
<title>Node1&#45;&gt;Node3</title>
<path fill="none" stroke="#63b8ff" d="M45,-98.35C45,-90.1 45,-80.97 45,-74.44"/>
<polygon fill="#63b8ff" stroke="#63b8ff" points="41.5,-98.23 45,-108.23 48.5,-98.23 41.5,-98.23"/>
</g>
<!-- Node2 -->
<g id="node2" class="node">
<title>Node2</title>
<g id="a_node2"><a xlink:href="structLibBoard_1_1Shape.html" target="_top" xlink:title="Abstract structure for a 2D shape.">
<polygon fill="white" stroke="#666666" points="89.5,-184 0.5,-184 0.5,-165 89.5,-165 89.5,-184"/>
<text text-anchor="middle" x="45" y="-172" font-family="FreeSans" font-size="10.00">LibBoard::Shape</text>
</a>
</g>
</g>
<!-- Node2&#45;&gt;Node1 -->
<g id="edge1" class="edge">
<title>Node2&#45;&gt;Node1</title>
<path fill="none" stroke="#63b8ff" d="M45,-153.35C45,-145.1 45,-135.97 45,-129.44"/>
<polygon fill="#63b8ff" stroke="#63b8ff" points="41.5,-153.23 45,-163.23 48.5,-153.23 41.5,-153.23"/>
</g>
<!-- Node4 -->
<g id="node4" class="node">
<title>Node4</title>
<g id="a_node4"><a xlink:href="structLibBoard_1_1Arc.html" target="_top" xlink:title="An arc.">
<polygon fill="white" stroke="#666666" points="83,-19 7,-19 7,0 83,0 83,-19"/>
<text text-anchor="middle" x="45" y="-7" font-family="FreeSans" font-size="10.00">LibBoard::Arc</text>
</a>
</g>
</g>
<!-- Node3&#45;&gt;Node4 -->
<g id="edge3" class="edge">
<title>Node3&#45;&gt;Node4</title>
<path fill="none" stroke="#63b8ff" d="M45,-43.35C45,-35.1 45,-25.97 45,-19.44"/>
<polygon fill="#63b8ff" stroke="#63b8ff" points="41.5,-43.23 45,-53.23 48.5,-43.23 41.5,-43.23"/>
</g>
</g>
</svg>
