<?xml version="1.0" encoding="UTF-8" standalone="no"?>
<!DOCTYPE svg PUBLIC "-//W3C//DTD SVG 1.1//EN"
 "http://www.w3.org/Graphics/SVG/1.1/DTD/svg11.dtd">
<!-- Generated by graphviz version 7.0.1 (20221109.1506)
 -->
<!-- Title: DGtal::DrawableWithDisplay3D Pages: 1 -->
<svg width="505pt" height="138pt"
 viewBox="0.00 0.00 505.00 138.00" xmlns="http://www.w3.org/2000/svg" xmlns:xlink="http://www.w3.org/1999/xlink">
<g id="graph0" class="graph" transform="scale(1 1) rotate(0) translate(4 134)">
<title>DGtal::DrawableWithDisplay3D</title>
<!-- Node1 -->
<g id="node1" class="node">
<title>Node1</title>
<g id="a_node1"><a xlink:title=" ">
<polygon fill="#999999" stroke="#666666" points="155,-74 0,-74 0,-55 155,-55 155,-74"/>
<text text-anchor="middle" x="77.5" y="-62" font-family="FreeSans" font-size="10.00">DGtal::DrawableWithDisplay3D</text>
</a>
</g>
</g>
<!-- Node2 -->
<g id="node2" class="node">
<title>Node2</title>
<g id="a_node2"><a xlink:href="structDGtal_1_1DrawWithBoard3DTo2DModifier.html" target="_top" xlink:title="Base class specifying the methods for classes which intend to modify a Viewer3D stream.">
<polygon fill="white" stroke="#666666" points="337,-79.5 191,-79.5 191,-49.5 337,-49.5 337,-79.5"/>
<text text-anchor="start" x="199" y="-67.5" font-family="FreeSans" font-size="10.00">DGtal::DrawWithBoard3DTo2</text>
<text text-anchor="middle" x="264" y="-56.5" font-family="FreeSans" font-size="10.00">DModifier</text>
</a>
</g>
</g>
<!-- Node1&#45;&gt;Node2 -->
<g id="edge1" class="edge">
<title>Node1&#45;&gt;Node2</title>
<path fill="none" stroke="#63b8ff" d="M166.7,-64.5C174.72,-64.5 182.79,-64.5 190.65,-64.5"/>
<polygon fill="#63b8ff" stroke="#63b8ff" points="166.92,-61 156.92,-64.5 166.92,-68 166.92,-61"/>
</g>
<!-- Node3 -->
<g id="node3" class="node">
<title>Node3</title>
<g id="a_node3"><a xlink:href="structDGtal_1_1CameraDirection.html" target="_top" xlink:title="CameraDirection class to set camera direction.">
<polygon fill="white" stroke="#666666" points="496,-130 374,-130 374,-111 496,-111 496,-130"/>
<text text-anchor="middle" x="435" y="-118" font-family="FreeSans" font-size="10.00">DGtal::CameraDirection</text>
</a>
</g>
</g>
<!-- Node2&#45;&gt;Node3 -->
<g id="edge2" class="edge">
<title>Node2&#45;&gt;Node3</title>
<path fill="none" stroke="#63b8ff" d="M317.97,-83.75C335.43,-89.93 354.99,-96.68 373,-102.5 381.41,-105.22 390.51,-107.99 399.07,-110.53"/>
<polygon fill="#63b8ff" stroke="#63b8ff" points="319.42,-80.55 308.83,-80.49 317.08,-87.14 319.42,-80.55"/>
</g>
<!-- Node4 -->
<g id="node4" class="node">
<title>Node4</title>
<g id="a_node4"><a xlink:href="structDGtal_1_1CameraPosition.html" target="_top" xlink:title="CameraPosition class to set camera position.">
<polygon fill="white" stroke="#666666" points="494,-93 376,-93 376,-74 494,-74 494,-93"/>
<text text-anchor="middle" x="435" y="-81" font-family="FreeSans" font-size="10.00">DGtal::CameraPosition</text>
</a>
</g>
</g>
<!-- Node2&#45;&gt;Node4 -->
<g id="edge3" class="edge">
<title>Node2&#45;&gt;Node4</title>
<path fill="none" stroke="#63b8ff" d="M348.35,-73.87C357.56,-74.91 366.79,-75.94 375.59,-76.93"/>
<polygon fill="#63b8ff" stroke="#63b8ff" points="348.99,-70.42 338.67,-72.78 348.21,-77.38 348.99,-70.42"/>
</g>
<!-- Node5 -->
<g id="node5" class="node">
<title>Node5</title>
<g id="a_node5"><a xlink:href="structDGtal_1_1CameraUpVector.html" target="_top" xlink:title="CameraUpVector class to set camera up&#45;vector.">
<polygon fill="white" stroke="#666666" points="497,-56 373,-56 373,-37 497,-37 497,-56"/>
<text text-anchor="middle" x="435" y="-44" font-family="FreeSans" font-size="10.00">DGtal::CameraUpVector</text>
</a>
</g>
</g>
<!-- Node2&#45;&gt;Node5 -->
<g id="edge4" class="edge">
<title>Node2&#45;&gt;Node5</title>
<path fill="none" stroke="#63b8ff" d="M348.33,-55.62C356.55,-54.75 364.78,-53.87 372.72,-53.03"/>
<polygon fill="#63b8ff" stroke="#63b8ff" points="348.24,-52.11 338.67,-56.65 348.98,-59.07 348.24,-52.11"/>
</g>
<!-- Node6 -->
<g id="node6" class="node">
<title>Node6</title>
<g id="a_node6"><a xlink:href="structDGtal_1_1CameraZNearFar.html" target="_top" xlink:title="CameraZNearFar class to set near and far distance.">
<polygon fill="white" stroke="#666666" points="497,-19 373,-19 373,0 497,0 497,-19"/>
<text text-anchor="middle" x="435" y="-7" font-family="FreeSans" font-size="10.00">DGtal::CameraZNearFar</text>
</a>
</g>
</g>
<!-- Node2&#45;&gt;Node6 -->
<g id="edge5" class="edge">
<title>Node2&#45;&gt;Node6</title>
<path fill="none" stroke="#63b8ff" d="M321.31,-45.5C337.93,-39.95 356.18,-33.92 373,-28.5 382.29,-25.51 392.4,-22.32 401.67,-19.44"/>
<polygon fill="#63b8ff" stroke="#63b8ff" points="320.46,-42.09 312.09,-48.58 322.68,-48.73 320.46,-42.09"/>
</g>
</g>
</svg>
