<?xml version="1.0" encoding="UTF-8" standalone="no"?>
<!DOCTYPE svg PUBLIC "-//W3C//DTD SVG 1.1//EN"
 "http://www.w3.org/Graphics/SVG/1.1/DTD/svg11.dtd">
<!-- Generated by graphviz version 7.0.1 (20221109.1506)
 -->
<!-- Title: LibBoard::QuadraticBezierCurve Pages: 1 -->
<svg width="139pt" height="203pt"
 viewBox="0.00 0.00 139.00 203.00" xmlns="http://www.w3.org/2000/svg" xmlns:xlink="http://www.w3.org/1999/xlink">
<g id="graph0" class="graph" transform="scale(1 1) rotate(0) translate(4 199)">
<title>LibBoard::QuadraticBezierCurve</title>
<!-- Node1 -->
<g id="node1" class="node">
<title>Node1</title>
<g id="a_node1"><a xlink:title="A quadratic Bezier curve having 3 control points. NB. It is also a parabola arc.">
<polygon fill="#999999" stroke="#666666" points="131,-30 0,-30 0,0 131,0 131,-30"/>
<text text-anchor="start" x="8" y="-18" font-family="FreeSans" font-size="10.00">LibBoard::QuadraticBezier</text>
<text text-anchor="middle" x="65.5" y="-7" font-family="FreeSans" font-size="10.00">Curve</text>
</a>
</g>
</g>
<!-- Node2 -->
<g id="node2" class="node">
<title>Node2</title>
<g id="a_node2"><a xlink:href="structLibBoard_1_1Triangle.html" target="_top" xlink:title="A triangle. Basically a Polyline with a convenient constructor.">
<polygon fill="white" stroke="#666666" points="113,-85 18,-85 18,-66 113,-66 113,-85"/>
<text text-anchor="middle" x="65.5" y="-73" font-family="FreeSans" font-size="10.00">LibBoard::Triangle</text>
</a>
</g>
</g>
<!-- Node2&#45;&gt;Node1 -->
<g id="edge1" class="edge">
<title>Node2&#45;&gt;Node1</title>
<path fill="none" stroke="#63b8ff" d="M65.5,-54.51C65.5,-46.49 65.5,-37.43 65.5,-30.11"/>
<polygon fill="#63b8ff" stroke="#63b8ff" points="62,-54.35 65.5,-64.35 69,-54.35 62,-54.35"/>
</g>
<!-- Node3 -->
<g id="node3" class="node">
<title>Node3</title>
<g id="a_node3"><a xlink:href="structLibBoard_1_1Polyline.html" target="_top" xlink:title="A polygonal line described by a series of 2D points.">
<polygon fill="white" stroke="#666666" points="113,-140 18,-140 18,-121 113,-121 113,-140"/>
<text text-anchor="middle" x="65.5" y="-128" font-family="FreeSans" font-size="10.00">LibBoard::Polyline</text>
</a>
</g>
</g>
<!-- Node3&#45;&gt;Node2 -->
<g id="edge2" class="edge">
<title>Node3&#45;&gt;Node2</title>
<path fill="none" stroke="#63b8ff" d="M65.5,-109.35C65.5,-101.1 65.5,-91.97 65.5,-85.44"/>
<polygon fill="#63b8ff" stroke="#63b8ff" points="62,-109.23 65.5,-119.23 69,-109.23 62,-109.23"/>
</g>
<!-- Node4 -->
<g id="node4" class="node">
<title>Node4</title>
<g id="a_node4"><a xlink:href="structLibBoard_1_1Shape.html" target="_top" xlink:title="Abstract structure for a 2D shape.">
<polygon fill="white" stroke="#666666" points="110,-195 21,-195 21,-176 110,-176 110,-195"/>
<text text-anchor="middle" x="65.5" y="-183" font-family="FreeSans" font-size="10.00">LibBoard::Shape</text>
</a>
</g>
</g>
<!-- Node4&#45;&gt;Node3 -->
<g id="edge3" class="edge">
<title>Node4&#45;&gt;Node3</title>
<path fill="none" stroke="#63b8ff" d="M65.5,-164.35C65.5,-156.1 65.5,-146.97 65.5,-140.44"/>
<polygon fill="#63b8ff" stroke="#63b8ff" points="62,-164.23 65.5,-174.23 69,-164.23 62,-164.23"/>
</g>
</g>
</svg>
