<?xml version="1.0" encoding="UTF-8" standalone="no"?>
<!DOCTYPE svg PUBLIC "-//W3C//DTD SVG 1.1//EN"
 "http://www.w3.org/Graphics/SVG/1.1/DTD/svg11.dtd">
<!-- Generated by graphviz version 7.0.1 (20221109.1506)
 -->
<!-- Title: DGtal::concepts::CMetricSpace&lt; T &gt; Pages: 1 -->
<svg width="312pt" height="159pt"
 viewBox="0.00 0.00 311.50 159.00" xmlns="http://www.w3.org/2000/svg" xmlns:xlink="http://www.w3.org/1999/xlink">
<g id="graph0" class="graph" transform="scale(1 1) rotate(0) translate(4 155)">
<title>DGtal::concepts::CMetricSpace&lt; T &gt;</title>
<!-- Node1 -->
<g id="node1" class="node">
<title>Node1</title>
<g id="a_node1"><a xlink:title="Aim: defines the concept of metric spaces.">
<polygon fill="#999999" stroke="#666666" points="217,-96 89,-96 89,-66 217,-66 217,-96"/>
<text text-anchor="start" x="97" y="-84" font-family="FreeSans" font-size="10.00">DGtal::concepts::CMetric</text>
<text text-anchor="middle" x="153" y="-73" font-family="FreeSans" font-size="10.00">Space&lt; T &gt;</text>
</a>
</g>
</g>
<!-- Node4 -->
<g id="node4" class="node">
<title>Node4</title>
<g id="a_node4"><a xlink:href="structDGtal_1_1concepts_1_1CDigitalMetricSpace.html" target="_top" xlink:title="Aim: defines the concept of digital metric spaces.">
<polygon fill="white" stroke="#666666" points="140.5,-30 11.5,-30 11.5,0 140.5,0 140.5,-30"/>
<text text-anchor="start" x="19.5" y="-18" font-family="FreeSans" font-size="10.00">DGtal::concepts::CDigital</text>
<text text-anchor="middle" x="76" y="-7" font-family="FreeSans" font-size="10.00">MetricSpace&lt; T &gt;</text>
</a>
</g>
</g>
<!-- Node1&#45;&gt;Node4 -->
<g id="edge3" class="edge">
<title>Node1&#45;&gt;Node4</title>
<path fill="none" stroke="#63b8ff" d="M127.37,-58.7C116.18,-49.4 103.35,-38.73 93.31,-30.39"/>
<polygon fill="#63b8ff" stroke="#63b8ff" points="124.82,-61.13 134.75,-64.83 129.29,-55.75 124.82,-61.13"/>
</g>
<!-- Node5 -->
<g id="node5" class="node">
<title>Node5</title>
<g id="a_node5"><a xlink:href="structDGtal_1_1concepts_1_1CSeparableMetric.html" target="_top" xlink:title="Aim: defines the concept of separable metrics.">
<polygon fill="white" stroke="#666666" points="303.5,-30 158.5,-30 158.5,0 303.5,0 303.5,-30"/>
<text text-anchor="start" x="166.5" y="-18" font-family="FreeSans" font-size="10.00">DGtal::concepts::CSeparable</text>
<text text-anchor="middle" x="231" y="-7" font-family="FreeSans" font-size="10.00">Metric&lt; T &gt;</text>
</a>
</g>
</g>
<!-- Node1&#45;&gt;Node5 -->
<g id="edge4" class="edge">
<title>Node1&#45;&gt;Node5</title>
<path fill="none" stroke="#63b8ff" d="M178.96,-58.7C190.3,-49.4 203.3,-38.73 213.47,-30.39"/>
<polygon fill="#63b8ff" stroke="#63b8ff" points="176.99,-55.79 171.48,-64.84 181.43,-61.2 176.99,-55.79"/>
</g>
<!-- Node2 -->
<g id="node2" class="node">
<title>Node2</title>
<g id="a_node2"><a xlink:href="structboost_1_1CopyConstructible.html" target="_top" xlink:title="Go to http://www.sgi.com/tech/stl/CopyConstructible.html.">
<polygon fill="white" stroke="#666666" points="152,-151 0,-151 0,-132 152,-132 152,-151"/>
<text text-anchor="middle" x="76" y="-139" font-family="FreeSans" font-size="10.00">boost::CopyConstructible&lt; T &gt;</text>
</a>
</g>
</g>
<!-- Node2&#45;&gt;Node1 -->
<g id="edge1" class="edge">
<title>Node2&#45;&gt;Node1</title>
<path fill="none" stroke="#63b8ff" d="M96.67,-124.8C108.28,-115.98 122.67,-105.05 133.99,-96.44"/>
<polygon fill="#63b8ff" stroke="#63b8ff" points="94.75,-121.86 88.9,-130.7 98.98,-127.44 94.75,-121.86"/>
</g>
<!-- Node3 -->
<g id="node3" class="node">
<title>Node3</title>
<g id="a_node3"><a xlink:href="structboost_1_1Assignable.html" target="_top" xlink:title="Go to http://www.sgi.com/tech/stl/Assignable.html.">
<polygon fill="white" stroke="#666666" points="289.5,-151 170.5,-151 170.5,-132 289.5,-132 289.5,-151"/>
<text text-anchor="middle" x="230" y="-139" font-family="FreeSans" font-size="10.00">boost::Assignable&lt; T &gt;</text>
</a>
</g>
</g>
<!-- Node3&#45;&gt;Node1 -->
<g id="edge2" class="edge">
<title>Node3&#45;&gt;Node1</title>
<path fill="none" stroke="#63b8ff" d="M209.33,-124.8C197.72,-115.98 183.33,-105.05 172.01,-96.44"/>
<polygon fill="#63b8ff" stroke="#63b8ff" points="207.02,-127.44 217.1,-130.7 211.25,-121.86 207.02,-127.44"/>
</g>
</g>
</svg>
