<?xml version="1.0" encoding="UTF-8" standalone="no"?>
<!DOCTYPE svg PUBLIC "-//W3C//DTD SVG 1.1//EN"
 "http://www.w3.org/Graphics/SVG/1.1/DTD/svg11.dtd">
<!-- Generated by graphviz version 7.0.1 (20221109.1506)
 -->
<!-- Title: DGtal::CameraDirection Pages: 1 -->
<svg width="354pt" height="148pt"
 viewBox="0.00 0.00 353.50 148.00" xmlns="http://www.w3.org/2000/svg" xmlns:xlink="http://www.w3.org/1999/xlink">
<g id="graph0" class="graph" transform="scale(1 1) rotate(0) translate(4 144)">
<title>DGtal::CameraDirection</title>
<!-- Node1 -->
<g id="node1" class="node">
<title>Node1</title>
<g id="a_node1"><a xlink:title="CameraDirection class to set camera direction.">
<polygon fill="#999999" stroke="#666666" points="229.5,-19 107.5,-19 107.5,0 229.5,0 229.5,-19"/>
<text text-anchor="middle" x="168.5" y="-7" font-family="FreeSans" font-size="10.00">DGtal::CameraDirection</text>
</a>
</g>
</g>
<!-- Node2 -->
<g id="node2" class="node">
<title>Node2</title>
<g id="a_node2"><a xlink:href="structDGtal_1_1DrawWithBoard3DTo2DModifier.html" target="_top" xlink:title="Base class specifying the methods for classes which intend to modify a Viewer3D stream.">
<polygon fill="white" stroke="#666666" points="153.5,-85 7.5,-85 7.5,-55 153.5,-55 153.5,-85"/>
<text text-anchor="start" x="15.5" y="-73" font-family="FreeSans" font-size="10.00">DGtal::DrawWithBoard3DTo2</text>
<text text-anchor="middle" x="80.5" y="-62" font-family="FreeSans" font-size="10.00">DModifier</text>
</a>
</g>
</g>
<!-- Node2&#45;&gt;Node1 -->
<g id="edge1" class="edge">
<title>Node2&#45;&gt;Node1</title>
<path fill="none" stroke="#63b8ff" d="M111.67,-48.28C126.6,-38.35 143.69,-27 155.19,-19.35"/>
<polygon fill="#63b8ff" stroke="#63b8ff" points="109.9,-45.25 103.51,-53.7 113.78,-51.08 109.9,-45.25"/>
</g>
<!-- Node3 -->
<g id="node3" class="node">
<title>Node3</title>
<g id="a_node3"><a xlink:href="structDGtal_1_1DrawableWithDisplay3D.html" target="_top" xlink:title=" ">
<polygon fill="white" stroke="#666666" points="155,-140 0,-140 0,-121 155,-121 155,-140"/>
<text text-anchor="middle" x="77.5" y="-128" font-family="FreeSans" font-size="10.00">DGtal::DrawableWithDisplay3D</text>
</a>
</g>
</g>
<!-- Node3&#45;&gt;Node2 -->
<g id="edge2" class="edge">
<title>Node3&#45;&gt;Node2</title>
<path fill="none" stroke="#63b8ff" d="M78.52,-109.51C78.94,-101.49 79.4,-92.43 79.78,-85.11"/>
<polygon fill="#63b8ff" stroke="#63b8ff" points="75.04,-109.19 78.02,-119.36 82.03,-109.55 75.04,-109.19"/>
</g>
<!-- Node4 -->
<g id="node4" class="node">
<title>Node4</title>
<g id="a_node4"><a xlink:href="structDGtal_1_1DrawWithViewer3DModifier.html" target="_top" xlink:title="Base class specifying the methods for classes which intend to modify a Viewer3D stream.">
<polygon fill="white" stroke="#666666" points="342,-79.5 173,-79.5 173,-60.5 342,-60.5 342,-79.5"/>
<text text-anchor="middle" x="257.5" y="-67.5" font-family="FreeSans" font-size="10.00">DGtal::DrawWithViewer3DModifier</text>
</a>
</g>
</g>
<!-- Node4&#45;&gt;Node1 -->
<g id="edge3" class="edge">
<title>Node4&#45;&gt;Node1</title>
<path fill="none" stroke="#63b8ff" d="M234.45,-53.85C217.86,-42.94 196.05,-28.61 182.14,-19.47"/>
<polygon fill="#63b8ff" stroke="#63b8ff" points="232.44,-56.72 242.72,-59.28 236.28,-50.87 232.44,-56.72"/>
</g>
<!-- Node5 -->
<g id="node5" class="node">
<title>Node5</title>
<g id="a_node5"><a xlink:href="structDGtal_1_1DrawWithDisplay3DModifier.html" target="_top" xlink:title="Base class specifying the methods for classes which intend to modify a Viewer3D stream.">
<polygon fill="white" stroke="#666666" points="345.5,-140 173.5,-140 173.5,-121 345.5,-121 345.5,-140"/>
<text text-anchor="middle" x="259.5" y="-128" font-family="FreeSans" font-size="10.00">DGtal::DrawWithDisplay3DModifier</text>
</a>
</g>
</g>
<!-- Node5&#45;&gt;Node4 -->
<g id="edge4" class="edge">
<title>Node5&#45;&gt;Node4</title>
<path fill="none" stroke="#63b8ff" d="M258.82,-109.66C258.47,-99.45 258.07,-87.54 257.8,-79.67"/>
<polygon fill="#63b8ff" stroke="#63b8ff" points="255.31,-109.48 259.15,-119.36 262.31,-109.24 255.31,-109.48"/>
</g>
</g>
</svg>
