<?xml version="1.0" encoding="UTF-8" standalone="no"?>
<!DOCTYPE svg PUBLIC "-//W3C//DTD SVG 1.1//EN"
 "http://www.w3.org/Graphics/SVG/1.1/DTD/svg11.dtd">
<!-- Generated by graphviz version 7.0.1 (20221109.1506)
 -->
<!-- Title: LibBoard::TransformTikZ Pages: 1 -->
<svg width="134pt" height="137pt"
 viewBox="0.00 0.00 134.00 137.00" xmlns="http://www.w3.org/2000/svg" xmlns:xlink="http://www.w3.org/1999/xlink">
<g id="graph0" class="graph" transform="scale(1 1) rotate(0) translate(4 133)">
<title>LibBoard::TransformTikZ</title>
<!-- Node1 -->
<g id="node1" class="node">
<title>Node1</title>
<g id="a_node1"><a xlink:title="Structure representing a scaling and translation suitable for an TikZ output.">
<polygon fill="#999999" stroke="#666666" points="125.5,-19 0.5,-19 0.5,0 125.5,0 125.5,-19"/>
<text text-anchor="middle" x="63" y="-7" font-family="FreeSans" font-size="10.00">LibBoard::TransformTikZ</text>
</a>
</g>
</g>
<!-- Node2 -->
<g id="node2" class="node">
<title>Node2</title>
<g id="a_node2"><a xlink:href="structLibBoard_1_1TransformSVG.html" target="_top" xlink:title="Structure representing a scaling and translation suitable for an SVG output.">
<polygon fill="white" stroke="#666666" points="126,-74 0,-74 0,-55 126,-55 126,-74"/>
<text text-anchor="middle" x="63" y="-62" font-family="FreeSans" font-size="10.00">LibBoard::TransformSVG</text>
</a>
</g>
</g>
<!-- Node2&#45;&gt;Node1 -->
<g id="edge1" class="edge">
<title>Node2&#45;&gt;Node1</title>
<path fill="none" stroke="#63b8ff" d="M63,-43.35C63,-35.1 63,-25.97 63,-19.44"/>
<polygon fill="#63b8ff" stroke="#63b8ff" points="59.5,-43.23 63,-53.23 66.5,-43.23 59.5,-43.23"/>
</g>
<!-- Node3 -->
<g id="node3" class="node">
<title>Node3</title>
<g id="a_node3"><a xlink:href="structLibBoard_1_1Transform.html" target="_top" xlink:title="base class for transforms.">
<polygon fill="white" stroke="#666666" points="115.5,-129 10.5,-129 10.5,-110 115.5,-110 115.5,-129"/>
<text text-anchor="middle" x="63" y="-117" font-family="FreeSans" font-size="10.00">LibBoard::Transform</text>
</a>
</g>
</g>
<!-- Node3&#45;&gt;Node2 -->
<g id="edge2" class="edge">
<title>Node3&#45;&gt;Node2</title>
<path fill="none" stroke="#63b8ff" d="M63,-98.35C63,-90.1 63,-80.97 63,-74.44"/>
<polygon fill="#63b8ff" stroke="#63b8ff" points="59.5,-98.23 63,-108.23 66.5,-98.23 59.5,-98.23"/>
</g>
</g>
</svg>
