<?xml version="1.0" encoding="UTF-8" standalone="no"?>
<!DOCTYPE svg PUBLIC "-//W3C//DTD SVG 1.1//EN"
 "http://www.w3.org/Graphics/SVG/1.1/DTD/svg11.dtd">
<!-- Generated by graphviz version 7.0.1 (20221109.1506)
 -->
<!-- Title: DGtal::concepts::CStaticVector&lt; T &gt; Pages: 1 -->
<svg width="340pt" height="214pt"
 viewBox="0.00 0.00 340.00 214.00" xmlns="http://www.w3.org/2000/svg" xmlns:xlink="http://www.w3.org/1999/xlink">
<g id="graph0" class="graph" transform="scale(1 1) rotate(0) translate(4 210)">
<title>DGtal::concepts::CStaticVector&lt; T &gt;</title>
<!-- Node1 -->
<g id="node1" class="node">
<title>Node1</title>
<g id="a_node1"><a xlink:title="Aim: Represent any static sized column vector having sparse or dense representation.">
<polygon fill="#999999" stroke="#666666" points="227.5,-30 100.5,-30 100.5,0 227.5,0 227.5,-30"/>
<text text-anchor="start" x="108.5" y="-18" font-family="FreeSans" font-size="10.00">DGtal::concepts::CStatic</text>
<text text-anchor="middle" x="164" y="-7" font-family="FreeSans" font-size="10.00">Vector&lt; T &gt;</text>
</a>
</g>
</g>
<!-- Node2 -->
<g id="node2" class="node">
<title>Node2</title>
<g id="a_node2"><a xlink:href="structDGtal_1_1concepts_1_1CVector.html" target="_top" xlink:title="Aim: Represent any static or dynamic sized column vector having sparse or dense representation.">
<polygon fill="white" stroke="#666666" points="154,-85 0,-85 0,-66 154,-66 154,-85"/>
<text text-anchor="middle" x="77" y="-73" font-family="FreeSans" font-size="10.00">DGtal::concepts::CVector&lt; T &gt;</text>
</a>
</g>
</g>
<!-- Node2&#45;&gt;Node1 -->
<g id="edge1" class="edge">
<title>Node2&#45;&gt;Node1</title>
<path fill="none" stroke="#63b8ff" d="M99.57,-59.33C112.82,-50.42 129.47,-39.22 142.53,-30.44"/>
<polygon fill="#63b8ff" stroke="#63b8ff" points="97.81,-56.29 91.47,-64.77 101.72,-62.09 97.81,-56.29"/>
</g>
<!-- Node3 -->
<g id="node3" class="node">
<title>Node3</title>
<g id="a_node3"><a xlink:href="structDGtal_1_1concepts_1_1CVectorSpace.html" target="_top" xlink:title="Aim: Base concept for vector space structure.">
<polygon fill="white" stroke="#666666" points="142,-151 12,-151 12,-121 142,-121 142,-151"/>
<text text-anchor="start" x="20" y="-139" font-family="FreeSans" font-size="10.00">DGtal::concepts::CVector</text>
<text text-anchor="middle" x="77" y="-128" font-family="FreeSans" font-size="10.00">Space&lt; T &gt;</text>
</a>
</g>
</g>
<!-- Node3&#45;&gt;Node2 -->
<g id="edge2" class="edge">
<title>Node3&#45;&gt;Node2</title>
<path fill="none" stroke="#63b8ff" d="M77,-109.3C77,-100.65 77,-91.58 77,-85.18"/>
<polygon fill="#63b8ff" stroke="#63b8ff" points="73.5,-109.03 77,-119.03 80.5,-109.03 73.5,-109.03"/>
</g>
<!-- Node4 -->
<g id="node4" class="node">
<title>Node4</title>
<g id="a_node4"><a xlink:href="structboost_1_1Assignable.html" target="_top" xlink:title="Go to http://www.sgi.com/tech/stl/Assignable.html.">
<polygon fill="white" stroke="#666666" points="136.5,-206 17.5,-206 17.5,-187 136.5,-187 136.5,-206"/>
<text text-anchor="middle" x="77" y="-194" font-family="FreeSans" font-size="10.00">boost::Assignable&lt; T &gt;</text>
</a>
</g>
</g>
<!-- Node4&#45;&gt;Node3 -->
<g id="edge3" class="edge">
<title>Node4&#45;&gt;Node3</title>
<path fill="none" stroke="#63b8ff" d="M77,-175.51C77,-167.49 77,-158.43 77,-151.11"/>
<polygon fill="#63b8ff" stroke="#63b8ff" points="73.5,-175.35 77,-185.35 80.5,-175.35 73.5,-175.35"/>
</g>
<!-- Node5 -->
<g id="node5" class="node">
<title>Node5</title>
<g id="a_node5"><a xlink:href="structboost_1_1DefaultConstructible.html" target="_top" xlink:title="Go to http://www.sgi.com/tech/stl/DefaultConstructible.html.">
<polygon fill="white" stroke="#666666" points="332,-85 172,-85 172,-66 332,-66 332,-85"/>
<text text-anchor="middle" x="252" y="-73" font-family="FreeSans" font-size="10.00">boost::DefaultConstructible&lt; T &gt;</text>
</a>
</g>
</g>
<!-- Node5&#45;&gt;Node1 -->
<g id="edge4" class="edge">
<title>Node5&#45;&gt;Node1</title>
<path fill="none" stroke="#63b8ff" d="M229.17,-59.33C215.77,-50.42 198.93,-39.22 185.72,-30.44"/>
<polygon fill="#63b8ff" stroke="#63b8ff" points="227.11,-62.16 237.37,-64.78 230.98,-56.33 227.11,-62.16"/>
</g>
</g>
</svg>
