<?xml version="1.0" encoding="UTF-8" standalone="no"?>
<!DOCTYPE svg PUBLIC "-//W3C//DTD SVG 1.1//EN"
 "http://www.w3.org/Graphics/SVG/1.1/DTD/svg11.dtd">
<!-- Generated by graphviz version 7.0.1 (20221109.1506)
 -->
<!-- Title: DGtal::concepts::CStack&lt; T &gt; Pages: 1 -->
<svg width="298pt" height="82pt"
 viewBox="0.00 0.00 297.50 82.00" xmlns="http://www.w3.org/2000/svg" xmlns:xlink="http://www.w3.org/1999/xlink">
<g id="graph0" class="graph" transform="scale(1 1) rotate(0) translate(4 78)">
<title>DGtal::concepts::CStack&lt; T &gt;</title>
<!-- Node1 -->
<g id="node1" class="node">
<title>Node1</title>
<g id="a_node1"><a xlink:title="Aim: This concept gathers classes that provide a stack interface.">
<polygon fill="#999999" stroke="#666666" points="228.5,-19 77.5,-19 77.5,0 228.5,0 228.5,-19"/>
<text text-anchor="middle" x="153" y="-7" font-family="FreeSans" font-size="10.00">DGtal::concepts::CStack&lt; T &gt;</text>
</a>
</g>
</g>
<!-- Node2 -->
<g id="node2" class="node">
<title>Node2</title>
<g id="a_node2"><a xlink:href="structboost_1_1CopyConstructible.html" target="_top" xlink:title="Go to http://www.sgi.com/tech/stl/CopyConstructible.html.">
<polygon fill="white" stroke="#666666" points="152,-74 0,-74 0,-55 152,-55 152,-74"/>
<text text-anchor="middle" x="76" y="-62" font-family="FreeSans" font-size="10.00">boost::CopyConstructible&lt; T &gt;</text>
</a>
</g>
</g>
<!-- Node2&#45;&gt;Node1 -->
<g id="edge1" class="edge">
<title>Node2&#45;&gt;Node1</title>
<path fill="none" stroke="#63b8ff" d="M98.25,-48.19C111.83,-38.84 128.73,-27.21 140.13,-19.36"/>
<polygon fill="#63b8ff" stroke="#63b8ff" points="96.56,-45.1 90.31,-53.65 100.53,-50.86 96.56,-45.1"/>
</g>
<!-- Node3 -->
<g id="node3" class="node">
<title>Node3</title>
<g id="a_node3"><a xlink:href="structboost_1_1Assignable.html" target="_top" xlink:title="Go to http://www.sgi.com/tech/stl/Assignable.html.">
<polygon fill="white" stroke="#666666" points="289.5,-74 170.5,-74 170.5,-55 289.5,-55 289.5,-74"/>
<text text-anchor="middle" x="230" y="-62" font-family="FreeSans" font-size="10.00">boost::Assignable&lt; T &gt;</text>
</a>
</g>
</g>
<!-- Node3&#45;&gt;Node1 -->
<g id="edge2" class="edge">
<title>Node3&#45;&gt;Node1</title>
<path fill="none" stroke="#63b8ff" d="M207.75,-48.19C194.17,-38.84 177.27,-27.21 165.87,-19.36"/>
<polygon fill="#63b8ff" stroke="#63b8ff" points="205.47,-50.86 215.69,-53.65 209.44,-45.1 205.47,-50.86"/>
</g>
</g>
</svg>
