<?xml version="1.0" encoding="UTF-8" standalone="no"?>
<!DOCTYPE svg PUBLIC "-//W3C//DTD SVG 1.1//EN"
 "http://www.w3.org/Graphics/SVG/1.1/DTD/svg11.dtd">
<!-- Generated by graphviz version 7.0.1 (20221109.1506)
 -->
<!-- Title: DGtal::functors::ConstantPointPredicate&lt; TPoint, boolCst &gt; Pages: 1 -->
<svg width="552pt" height="108pt"
 viewBox="0.00 0.00 552.00 108.00" xmlns="http://www.w3.org/2000/svg" xmlns:xlink="http://www.w3.org/1999/xlink">
<g id="graph0" class="graph" transform="scale(1 1) rotate(0) translate(4 104)">
<title>DGtal::functors::ConstantPointPredicate&lt; TPoint, boolCst &gt;</title>
<!-- Node1 -->
<g id="node1" class="node">
<title>Node1</title>
<g id="a_node1"><a xlink:title="Aim: The predicate that returns always the same value boolCst.">
<polygon fill="#999999" stroke="#666666" points="129,-70 0,-70 0,-29 129,-29 129,-70"/>
<text text-anchor="start" x="8" y="-58" font-family="FreeSans" font-size="10.00">DGtal::functors::Constant</text>
<text text-anchor="start" x="8" y="-47" font-family="FreeSans" font-size="10.00">PointPredicate&lt; TPoint,</text>
<text text-anchor="middle" x="64.5" y="-36" font-family="FreeSans" font-size="10.00"> boolCst &gt;</text>
</a>
</g>
</g>
<!-- Node2 -->
<g id="node2" class="node">
<title>Node2</title>
<g id="a_node2"><a xlink:href="structDGtal_1_1functors_1_1ConstantPointPredicate.html" target="_top" xlink:title=" ">
<polygon fill="white" stroke="#666666" points="371,-100 242,-100 242,-59 371,-59 371,-100"/>
<text text-anchor="start" x="250" y="-88" font-family="FreeSans" font-size="10.00">DGtal::functors::Constant</text>
<text text-anchor="start" x="250" y="-77" font-family="FreeSans" font-size="10.00">PointPredicate&lt; TPoint,</text>
<text text-anchor="middle" x="306.5" y="-66" font-family="FreeSans" font-size="10.00"> false &gt;</text>
</a>
</g>
</g>
<!-- Node1&#45;&gt;Node2 -->
<g id="edge1" class="edge">
<title>Node1&#45;&gt;Node2</title>
<path fill="none" stroke="orange" stroke-dasharray="5,2" d="M140.42,-58.87C172.85,-62.92 210.42,-67.61 241.52,-71.5"/>
<polygon fill="orange" stroke="orange" points="141.04,-55.42 130.69,-57.65 140.18,-62.36 141.04,-55.42"/>
<text text-anchor="middle" x="185.5" y="-71.5" font-family="FreeSans" font-size="10.00"> &lt; TPoint, false &gt;</text>
</g>
<!-- Node4 -->
<g id="node4" class="node">
<title>Node4</title>
<g id="a_node4"><a xlink:href="structDGtal_1_1functors_1_1ConstantPointPredicate.html" target="_top" xlink:title=" ">
<polygon fill="white" stroke="#666666" points="371,-41 242,-41 242,0 371,0 371,-41"/>
<text text-anchor="start" x="250" y="-29" font-family="FreeSans" font-size="10.00">DGtal::functors::Constant</text>
<text text-anchor="start" x="250" y="-18" font-family="FreeSans" font-size="10.00">PointPredicate&lt; TPoint,</text>
<text text-anchor="middle" x="306.5" y="-7" font-family="FreeSans" font-size="10.00"> true &gt;</text>
</a>
</g>
</g>
<!-- Node1&#45;&gt;Node4 -->
<g id="edge3" class="edge">
<title>Node1&#45;&gt;Node4</title>
<path fill="none" stroke="orange" stroke-dasharray="5,2" d="M140.39,-40.3C142.62,-40.03 144.82,-39.76 147,-39.5 178.23,-35.71 212.92,-31.55 241.87,-28.09"/>
<polygon fill="orange" stroke="orange" points="140.13,-36.81 130.62,-41.49 140.97,-43.76 140.13,-36.81"/>
<text text-anchor="middle" x="185.5" y="-42.5" font-family="FreeSans" font-size="10.00"> &lt; TPoint, true &gt;</text>
</g>
<!-- Node3 -->
<g id="node3" class="node">
<title>Node3</title>
<g id="a_node3"><a xlink:href="structDGtal_1_1functors_1_1FalsePointPredicate.html" target="_top" xlink:title="Aim: The predicate that returns always false.">
<polygon fill="white" stroke="#666666" points="544,-94.5 408,-94.5 408,-64.5 544,-64.5 544,-94.5"/>
<text text-anchor="start" x="416" y="-82.5" font-family="FreeSans" font-size="10.00">DGtal::functors::FalsePoint</text>
<text text-anchor="middle" x="476" y="-71.5" font-family="FreeSans" font-size="10.00">Predicate&lt; TPoint &gt;</text>
</a>
</g>
</g>
<!-- Node2&#45;&gt;Node3 -->
<g id="edge2" class="edge">
<title>Node2&#45;&gt;Node3</title>
<path fill="none" stroke="#63b8ff" d="M382.62,-79.5C390.99,-79.5 399.49,-79.5 407.75,-79.5"/>
<polygon fill="#63b8ff" stroke="#63b8ff" points="382.82,-76 372.82,-79.5 382.82,-83 382.82,-76"/>
</g>
<!-- Node5 -->
<g id="node5" class="node">
<title>Node5</title>
<g id="a_node5"><a xlink:href="structDGtal_1_1functors_1_1TruePointPredicate.html" target="_top" xlink:title="Aim: The predicate that returns always true.">
<polygon fill="white" stroke="#666666" points="541.5,-35.5 410.5,-35.5 410.5,-5.5 541.5,-5.5 541.5,-35.5"/>
<text text-anchor="start" x="418.5" y="-23.5" font-family="FreeSans" font-size="10.00">DGtal::functors::TruePoint</text>
<text text-anchor="middle" x="476" y="-12.5" font-family="FreeSans" font-size="10.00">Predicate&lt; TPoint &gt;</text>
</a>
</g>
</g>
<!-- Node4&#45;&gt;Node5 -->
<g id="edge4" class="edge">
<title>Node4&#45;&gt;Node5</title>
<path fill="none" stroke="#63b8ff" d="M382.81,-20.5C391.97,-20.5 401.27,-20.5 410.26,-20.5"/>
<polygon fill="#63b8ff" stroke="#63b8ff" points="382.82,-17 372.82,-20.5 382.82,-24 382.82,-17"/>
</g>
</g>
</svg>
