<?xml version="1.0" encoding="UTF-8" standalone="no"?>
<!DOCTYPE svg PUBLIC "-//W3C//DTD SVG 1.1//EN"
 "http://www.w3.org/Graphics/SVG/1.1/DTD/svg11.dtd">
<!-- Generated by graphviz version 7.0.1 (20221109.1506)
 -->
<!-- Title: DGtal::NumberTraitsImpl&lt; T, Enable &gt; Pages: 1 -->
<!--zoomable 238 -->
<svg id="main" version="1.1" xmlns="http://www.w3.org/2000/svg" xmlns:xlink="http://www.w3.org/1999/xlink" xml:space="preserve" onload="init(evt)">
<style type="text/css"><![CDATA[
.edge:hover path { stroke: red; }
.edge:hover polygon { stroke: red; fill: red; }
]]></style>
<script type="text/javascript"><![CDATA[
var edges = document.getElementsByTagName('g');
if (edges && edges.length) {
  for (var i=0;i<edges.length;i++) {
    if (edges[i].id.substr(0,4)=='edge') {
      edges[i].setAttribute('class','edge');
    }
  }
}
]]></script>
        <defs>
                <circle id="rim" cx="0" cy="0" r="7"/>
                <circle id="rim2" cx="0" cy="0" r="3.5"/>
                <g id="zoomPlus">
                        <use xlink:href="#rim" fill="#404040">
                                <set attributeName="fill" to="#808080" begin="zoomplus.mouseover" end="zoomplus.mouseout"/>
                        </use>
                        <path d="M-4,0h8M0,-4v8" fill="none" stroke="white" stroke-width="1.5" pointer-events="none"/>
                </g>
                <g id="zoomMin">
                        <use xlink:href="#rim" fill="#404040">
                                <set attributeName="fill" to="#808080" begin="zoomminus.mouseover" end="zoomminus.mouseout"/>
                        </use>
                        <path d="M-4,0h8" fill="none" stroke="white" stroke-width="1.5" pointer-events="none"/>
                </g>
                <g id="dirArrow">
                        <path fill="none" stroke="white" stroke-width="1.5" d="M0,-3.0v7 M-2.5,-0.5L0,-3.0L2.5,-0.5"/>
                </g>
               <g id="resetDef">
                       <use xlink:href="#rim2" fill="#404040">
                               <set attributeName="fill" to="#808080" begin="reset.mouseover" end="reset.mouseout"/>
                       </use>
               </g>
        </defs>

<script type="text/javascript">
var viewWidth = 771;
var viewHeight = 238;
var sectionId = 'dynsection-0';
</script>
<script xlink:href="svgpan.js"/>
<svg id="graph" class="graph">
<g id="viewport">
<title>DGtal::NumberTraitsImpl&lt; T, Enable &gt;</title>
<!-- Node1 -->
<g id="node1" class="node">
<title>Node1</title>
<g id="a_node1"><a xlink:title="Aim: The traits class for all models of Cinteger (implementation)">
<polygon fill="#999999" stroke="#666666" points="126,-143.5 0,-143.5 0,-113.5 126,-113.5 126,-143.5"/>
<text text-anchor="start" x="8" y="-131.5" font-family="FreeSans" font-size="10.00">DGtal::NumberTraitsImpl</text>
<text text-anchor="middle" x="63" y="-120.5" font-family="FreeSans" font-size="10.00">&lt; T, Enable &gt;</text>
</a>
</g>
</g>
<!-- Node2 -->
<g id="node2" class="node">
<title>Node2</title>
<g id="a_node2"><a xlink:href="structDGtal_1_1NumberTraits.html" target="_top" xlink:title=" ">
<polygon fill="white" stroke="#666666" points="763,-221.5 656,-221.5 656,-191.5 763,-191.5 763,-221.5"/>
<text text-anchor="start" x="664" y="-209.5" font-family="FreeSans" font-size="10.00">DGtal::NumberTraits</text>
<text text-anchor="middle" x="709.5" y="-198.5" font-family="FreeSans" font-size="10.00">&lt; Integer &gt;</text>
</a>
</g>
</g>
<!-- Node1&#45;&gt;Node2 -->
<g id="edge1" class="edge">
<title>Node1&#45;&gt;Node2</title>
<path fill="none" stroke="#63b8ff" d="M88.88,-151.04C103.77,-163.15 123.69,-177.07 144,-184.5 322.23,-249.7 553.54,-228.9 655.86,-214.86"/>
<polygon fill="#63b8ff" stroke="#63b8ff" points="91.36,-148.56 81.46,-144.79 86.85,-153.91 91.36,-148.56"/>
</g>
<!-- Node3 -->
<g id="node3" class="node">
<title>Node3</title>
<g id="a_node3"><a xlink:href="structDGtal_1_1NumberTraits.html" target="_top" xlink:title=" ">
<polygon fill="white" stroke="#666666" points="763,-164.5 656,-164.5 656,-134.5 763,-134.5 763,-164.5"/>
<text text-anchor="start" x="664" y="-152.5" font-family="FreeSans" font-size="10.00">DGtal::NumberTraits</text>
<text text-anchor="middle" x="709.5" y="-141.5" font-family="FreeSans" font-size="10.00">&lt; TInteger &gt;</text>
</a>
</g>
</g>
<!-- Node1&#45;&gt;Node3 -->
<g id="edge2" class="edge">
<title>Node1&#45;&gt;Node3</title>
<path fill="none" stroke="#63b8ff" d="M137.51,-130.9C268.9,-135.18 541.02,-144.04 655.7,-147.78"/>
<polygon fill="#63b8ff" stroke="#63b8ff" points="138,-127.41 127.9,-130.58 137.78,-134.41 138,-127.41"/>
</g>
<!-- Node4 -->
<g id="node4" class="node">
<title>Node4</title>
<g id="a_node4"><a xlink:href="structDGtal_1_1NumberTraitsImpl.html" target="_top" xlink:title=" ">
<polygon fill="white" stroke="#666666" points="394,-186.5 265,-186.5 265,-156.5 394,-156.5 394,-186.5"/>
<text text-anchor="start" x="273" y="-174.5" font-family="FreeSans" font-size="10.00">DGtal::NumberTraitsImpl</text>
<text text-anchor="middle" x="329.5" y="-163.5" font-family="FreeSans" font-size="10.00">&lt; std::decay&lt; T &gt;::type &gt;</text>
</a>
</g>
</g>
<!-- Node1&#45;&gt;Node4 -->
<g id="edge3" class="edge">
<title>Node1&#45;&gt;Node4</title>
<path fill="none" stroke="orange" stroke-dasharray="5,2" d="M137.77,-141.46C139.87,-141.81 141.95,-142.16 144,-142.5 184.14,-149.17 229.27,-156.27 264.84,-161.77"/>
<polygon fill="orange" stroke="orange" points="138.37,-138.01 127.93,-139.79 137.2,-144.91 138.37,-138.01"/>
<text text-anchor="start" x="151.5" y="-172.5" font-family="FreeSans" font-size="10.00"> &lt; std::decay&lt; T &gt;::</text>
<text text-anchor="middle" x="195.5" y="-161.5" font-family="FreeSans" font-size="10.00">type &gt;</text>
</g>
<!-- Node6 -->
<g id="node6" class="node">
<title>Node6</title>
<g id="a_node6"><a xlink:href="structDGtal_1_1NumberTraitsImpl.html" target="_top" xlink:title=" ">
<polygon fill="white" stroke="#666666" points="392.5,-100 266.5,-100 266.5,-59 392.5,-59 392.5,-100"/>
<text text-anchor="start" x="274.5" y="-88" font-family="FreeSans" font-size="10.00">DGtal::NumberTraitsImpl</text>
<text text-anchor="start" x="274.5" y="-77" font-family="FreeSans" font-size="10.00">&lt; std::decay&lt; Integer</text>
<text text-anchor="middle" x="329.5" y="-66" font-family="FreeSans" font-size="10.00"> &gt;::type &gt;</text>
</a>
</g>
</g>
<!-- Node1&#45;&gt;Node6 -->
<g id="edge7" class="edge">
<title>Node1&#45;&gt;Node6</title>
<path fill="none" stroke="orange" stroke-dasharray="5,2" d="M101.65,-108.27C114.7,-102.16 129.67,-96.11 144,-92.5 183.86,-82.47 229.98,-79.22 266.14,-78.48"/>
<polygon fill="orange" stroke="orange" points="100.45,-104.96 92.99,-112.49 103.52,-111.25 100.45,-104.96"/>
<text text-anchor="start" x="147" y="-106.5" font-family="FreeSans" font-size="10.00"> &lt; std::decay&lt; Integer</text>
<text text-anchor="middle" x="195.5" y="-95.5" font-family="FreeSans" font-size="10.00"> &gt;::type &gt;</text>
</g>
<!-- Node7 -->
<g id="node7" class="node">
<title>Node7</title>
<g id="a_node7"><a xlink:href="structDGtal_1_1NumberTraitsImpl.html" target="_top" xlink:title=" ">
<polygon fill="white" stroke="#666666" points="392.5,-41 266.5,-41 266.5,0 392.5,0 392.5,-41"/>
<text text-anchor="start" x="274.5" y="-29" font-family="FreeSans" font-size="10.00">DGtal::NumberTraitsImpl</text>
<text text-anchor="start" x="274.5" y="-18" font-family="FreeSans" font-size="10.00">&lt; std::decay&lt; TInteger</text>
<text text-anchor="middle" x="329.5" y="-7" font-family="FreeSans" font-size="10.00"> &gt;::type &gt;</text>
</a>
</g>
</g>
<!-- Node1&#45;&gt;Node7 -->
<g id="edge8" class="edge">
<title>Node1&#45;&gt;Node7</title>
<path fill="none" stroke="orange" stroke-dasharray="5,2" d="M82.41,-104.67C97.15,-87.36 119.37,-64.88 144,-52.5 181.91,-33.45 229.11,-25.5 266.28,-22.29"/>
<polygon fill="orange" stroke="orange" points="80.03,-102.06 76.38,-112 85.44,-106.51 80.03,-102.06"/>
<text text-anchor="start" x="144" y="-66.5" font-family="FreeSans" font-size="10.00"> &lt; std::decay&lt; TInteger</text>
<text text-anchor="middle" x="195.5" y="-55.5" font-family="FreeSans" font-size="10.00"> &gt;::type &gt;</text>
</g>
<!-- Node5 -->
<g id="node5" class="node">
<title>Node5</title>
<g id="a_node5"><a xlink:href="structDGtal_1_1NumberTraits.html" target="_top" xlink:title="Aim: The traits class for all models of Cinteger.">
<polygon fill="white" stroke="#666666" points="562,-181 431,-181 431,-162 562,-162 562,-181"/>
<text text-anchor="middle" x="496.5" y="-169" font-family="FreeSans" font-size="10.00">DGtal::NumberTraits&lt; T &gt;</text>
</a>
</g>
</g>
<!-- Node4&#45;&gt;Node5 -->
<g id="edge4" class="edge">
<title>Node4&#45;&gt;Node5</title>
<path fill="none" stroke="#63b8ff" d="M405.56,-171.5C413.89,-171.5 422.32,-171.5 430.51,-171.5"/>
<polygon fill="#63b8ff" stroke="#63b8ff" points="405.81,-168 395.81,-171.5 405.81,-175 405.81,-168"/>
</g>
<!-- Node5&#45;&gt;Node2 -->
<g id="edge5" class="edge">
<title>Node5&#45;&gt;Node2</title>
<path fill="none" stroke="orange" stroke-dasharray="5,2" d="M568.8,-183.33C597.27,-188.05 629.47,-193.39 655.78,-197.75"/>
<polygon fill="orange" stroke="orange" points="569.61,-179.91 559.17,-181.73 568.47,-186.82 569.61,-179.91"/>
<text text-anchor="middle" x="609" y="-196.5" font-family="FreeSans" font-size="10.00"> &lt; Integer &gt;</text>
</g>
<!-- Node5&#45;&gt;Node3 -->
<g id="edge6" class="edge">
<title>Node5&#45;&gt;Node3</title>
<path fill="none" stroke="orange" stroke-dasharray="5,2" d="M573.74,-163.16C575.85,-162.94 577.94,-162.72 580,-162.5 604.86,-159.89 632.45,-157.08 655.66,-154.75"/>
<polygon fill="orange" stroke="orange" points="573.42,-159.67 563.85,-164.22 574.17,-166.64 573.42,-159.67"/>
<text text-anchor="middle" x="609" y="-165.5" font-family="FreeSans" font-size="10.00"> &lt; TInteger &gt;</text>
</g>
</g>
</svg>
        <g id="navigator" transform="translate(0 0)" fill="#404254">
                <rect fill="#f2f5e9" fill-opacity="0.5" stroke="#606060" stroke-width=".5" x="0" y="0" width="60" height="60"/>
                <use id="zoomplus" xlink:href="#zoomPlus" x="17" y="9" onmousedown="handleZoom(evt,'in')"/>
                <use id="zoomminus" xlink:href="#zoomMin" x="42" y="9" onmousedown="handleZoom(evt,'out')"/>
                <use id="reset" xlink:href="#resetDef" x="30" y="36" onmousedown="handleReset()"/>
                <g id="arrowUp" xlink:href="#dirArrow" transform="translate(30 24)" onmousedown="handlePan(0,-1)">
                  <use xlink:href="#rim" fill="#404040">
                        <set attributeName="fill" to="#808080" begin="arrowUp.mouseover" end="arrowUp.mouseout"/>
                  </use>
                  <path fill="none" stroke="white" stroke-width="1.5" d="M0,-3.0v7 M-2.5,-0.5L0,-3.0L2.5,-0.5"/>
                </g>
                <g id="arrowRight" xlink:href="#dirArrow" transform="rotate(90) translate(36 -43)" onmousedown="handlePan(1,0)">
                  <use xlink:href="#rim" fill="#404040">
                        <set attributeName="fill" to="#808080" begin="arrowRight.mouseover" end="arrowRight.mouseout"/>
                  </use>
                  <path fill="none" stroke="white" stroke-width="1.5" d="M0,-3.0v7 M-2.5,-0.5L0,-3.0L2.5,-0.5"/>
                </g>
                <g id="arrowDown" xlink:href="#dirArrow" transform="rotate(180) translate(-30 -48)" onmousedown="handlePan(0,1)">
                  <use xlink:href="#rim" fill="#404040">
                        <set attributeName="fill" to="#808080" begin="arrowDown.mouseover" end="arrowDown.mouseout"/>
                  </use>
                  <path fill="none" stroke="white" stroke-width="1.5" d="M0,-3.0v7 M-2.5,-0.5L0,-3.0L2.5,-0.5"/>
                </g>
                <g id="arrowLeft" xlink:href="#dirArrow" transform="rotate(270) translate(-36 17)" onmousedown="handlePan(-1,0)">
                  <use xlink:href="#rim" fill="#404040">
                        <set attributeName="fill" to="#808080" begin="arrowLeft.mouseover" end="arrowLeft.mouseout"/>
                  </use>
                  <path fill="none" stroke="white" stroke-width="1.5" d="M0,-3.0v7 M-2.5,-0.5L0,-3.0L2.5,-0.5"/>
                </g>
        </g>
        <svg viewBox="0 0 15 15" width="100%" height="30px" preserveAspectRatio="xMaxYMin meet">
         <g id="arrow_out" transform="scale(0.3 0.3)">
          <a xlink:href="structDGtal_1_1NumberTraitsImpl__inherit__graph_org.svg" target="_base">
           <rect id="button" ry="5" rx="5" y="6" x="6" height="38" width="38"
                fill="#f2f5e9" fill-opacity="0.5" stroke="#606060" stroke-width="1.0"/>
           <path id="arrow"
             d="M 11.500037,31.436501 C 11.940474,20.09759 22.043105,11.32322 32.158766,21.979434 L 37.068811,17.246167 C 37.068811,17.246167 37.088388,32 37.088388,32 L 22.160133,31.978069 C 22.160133,31.978069 26.997745,27.140456 26.997745,27.140456 C 18.528582,18.264221 13.291696,25.230495 11.500037,31.436501 z"
             style="fill:#404040;"/>
          </a>
         </g>
        </svg>
</svg>
