<?xml version="1.0" encoding="UTF-8" standalone="no"?>
<!DOCTYPE svg PUBLIC "-//W3C//DTD SVG 1.1//EN"
 "http://www.w3.org/Graphics/SVG/1.1/DTD/svg11.dtd">
<!-- Generated by graphviz version 7.0.1 (20221109.1506)
 -->
<!-- Title: DGtal::concepts::CConstBidirectionalRange&lt; T &gt; Pages: 1 -->
<svg width="788pt" height="86pt"
 viewBox="0.00 0.00 788.00 86.00" xmlns="http://www.w3.org/2000/svg" xmlns:xlink="http://www.w3.org/1999/xlink">
<g id="graph0" class="graph" transform="scale(1 1) rotate(0) translate(4 82)">
<title>DGtal::concepts::CConstBidirectionalRange&lt; T &gt;</title>
<!-- Node1 -->
<g id="node1" class="node">
<title>Node1</title>
<g id="a_node1"><a xlink:title="Aim: Defines the concept describing a bidirectional const range.">
<polygon fill="#999999" stroke="#666666" points="372,-54 191,-54 191,-24 372,-24 372,-54"/>
<text text-anchor="start" x="199" y="-42" font-family="FreeSans" font-size="10.00">DGtal::concepts::CConstBidirectional</text>
<text text-anchor="middle" x="281.5" y="-31" font-family="FreeSans" font-size="10.00">Range&lt; T &gt;</text>
</a>
</g>
</g>
<!-- Node3 -->
<g id="node3" class="node">
<title>Node3</title>
<g id="a_node3"><a xlink:href="structDGtal_1_1concepts_1_1CBidirectionalRange.html" target="_top" xlink:title="Aim: Defines the concept describing a bidirectional range.">
<polygon fill="white" stroke="#666666" points="576,-78 421,-78 421,-48 576,-48 576,-78"/>
<text text-anchor="start" x="429" y="-66" font-family="FreeSans" font-size="10.00">DGtal::concepts::CBidirectional</text>
<text text-anchor="middle" x="498.5" y="-55" font-family="FreeSans" font-size="10.00">Range&lt; T &gt;</text>
</a>
</g>
</g>
<!-- Node1&#45;&gt;Node3 -->
<g id="edge2" class="edge">
<title>Node1&#45;&gt;Node3</title>
<path fill="none" stroke="#63b8ff" d="M383.75,-50.3C396.12,-51.68 408.61,-53.08 420.55,-54.41"/>
<polygon fill="#63b8ff" stroke="#63b8ff" points="384.26,-46.84 373.94,-49.21 383.49,-53.79 384.26,-46.84"/>
</g>
<!-- Node5 -->
<g id="node5" class="node">
<title>Node5</title>
<g id="a_node5"><a xlink:href="structDGtal_1_1concepts_1_1CConstBidirectionalRangeFromPoint.html" target="_top" xlink:title="Aim: refined concept of const bidirectional range with a begin() method from a point.">
<polygon fill="white" stroke="#666666" points="589,-30 408,-30 408,0 589,0 589,-30"/>
<text text-anchor="start" x="416" y="-18" font-family="FreeSans" font-size="10.00">DGtal::concepts::CConstBidirectional</text>
<text text-anchor="middle" x="498.5" y="-7" font-family="FreeSans" font-size="10.00">RangeFromPoint&lt; T &gt;</text>
</a>
</g>
</g>
<!-- Node1&#45;&gt;Node5 -->
<g id="edge4" class="edge">
<title>Node1&#45;&gt;Node5</title>
<path fill="none" stroke="#63b8ff" d="M383.67,-27.71C391.65,-26.82 399.68,-25.92 407.58,-25.04"/>
<polygon fill="#63b8ff" stroke="#63b8ff" points="383.49,-24.21 373.94,-28.79 384.26,-31.16 383.49,-24.21"/>
</g>
<!-- Node2 -->
<g id="node2" class="node">
<title>Node2</title>
<g id="a_node2"><a xlink:href="structDGtal_1_1concepts_1_1CConstSinglePassRange.html" target="_top" xlink:title="Aim: Defines the concept describing a const single pass range.">
<polygon fill="white" stroke="#666666" points="155,-54 0,-54 0,-24 155,-24 155,-54"/>
<text text-anchor="start" x="8" y="-42" font-family="FreeSans" font-size="10.00">DGtal::concepts::CConstSingle</text>
<text text-anchor="middle" x="77.5" y="-31" font-family="FreeSans" font-size="10.00">PassRange&lt; T &gt;</text>
</a>
</g>
</g>
<!-- Node2&#45;&gt;Node1 -->
<g id="edge1" class="edge">
<title>Node2&#45;&gt;Node1</title>
<path fill="none" stroke="#63b8ff" d="M166.87,-39C174.73,-39 182.7,-39 190.58,-39"/>
<polygon fill="#63b8ff" stroke="#63b8ff" points="166.96,-35.5 156.96,-39 166.96,-42.5 166.96,-35.5"/>
</g>
<!-- Node4 -->
<g id="node4" class="node">
<title>Node4</title>
<g id="a_node4"><a xlink:href="structDGtal_1_1concepts_1_1CBidirectionalRangeFromPoint.html" target="_top" xlink:title="Aim: refined concept of single pass range with a begin() method from a point.">
<polygon fill="white" stroke="#666666" points="780,-54 625,-54 625,-24 780,-24 780,-54"/>
<text text-anchor="start" x="633" y="-42" font-family="FreeSans" font-size="10.00">DGtal::concepts::CBidirectional</text>
<text text-anchor="middle" x="702.5" y="-31" font-family="FreeSans" font-size="10.00">RangeFromPoint&lt; T &gt;</text>
</a>
</g>
</g>
<!-- Node3&#45;&gt;Node4 -->
<g id="edge3" class="edge">
<title>Node3&#45;&gt;Node4</title>
<path fill="none" stroke="#63b8ff" d="M587.69,-52.52C600.04,-51.05 612.65,-49.56 624.77,-48.12"/>
<polygon fill="#63b8ff" stroke="#63b8ff" points="587.46,-49.02 577.95,-53.68 588.29,-55.98 587.46,-49.02"/>
</g>
<!-- Node5&#45;&gt;Node4 -->
<g id="edge5" class="edge">
<title>Node5&#45;&gt;Node4</title>
<path fill="none" stroke="#63b8ff" d="M600.66,-27.02C608.72,-27.98 616.79,-28.94 624.65,-29.87"/>
<polygon fill="#63b8ff" stroke="#63b8ff" points="601.12,-23.55 590.78,-25.85 600.3,-30.5 601.12,-23.55"/>
</g>
</g>
</svg>
