<?xml version="1.0" encoding="UTF-8" standalone="no"?>
<!DOCTYPE svg PUBLIC "-//W3C//DTD SVG 1.1//EN"
 "http://www.w3.org/Graphics/SVG/1.1/DTD/svg11.dtd">
<!-- Generated by graphviz version 7.0.1 (20221109.1506)
 -->
<!-- Title: DGtal::DrawWithDisplay3DModifier Pages: 1 -->
<!--zoomable 534 -->
<svg id="main" version="1.1" xmlns="http://www.w3.org/2000/svg" xmlns:xlink="http://www.w3.org/1999/xlink" xml:space="preserve" onload="init(evt)">
<style type="text/css"><![CDATA[
.edge:hover path { stroke: red; }
.edge:hover polygon { stroke: red; fill: red; }
]]></style>
<script type="text/javascript"><![CDATA[
var edges = document.getElementsByTagName('g');
if (edges && edges.length) {
  for (var i=0;i<edges.length;i++) {
    if (edges[i].id.substr(0,4)=='edge') {
      edges[i].setAttribute('class','edge');
    }
  }
}
]]></script>
        <defs>
                <circle id="rim" cx="0" cy="0" r="7"/>
                <circle id="rim2" cx="0" cy="0" r="3.5"/>
                <g id="zoomPlus">
                        <use xlink:href="#rim" fill="#404040">
                                <set attributeName="fill" to="#808080" begin="zoomplus.mouseover" end="zoomplus.mouseout"/>
                        </use>
                        <path d="M-4,0h8M0,-4v8" fill="none" stroke="white" stroke-width="1.5" pointer-events="none"/>
                </g>
                <g id="zoomMin">
                        <use xlink:href="#rim" fill="#404040">
                                <set attributeName="fill" to="#808080" begin="zoomminus.mouseover" end="zoomminus.mouseout"/>
                        </use>
                        <path d="M-4,0h8" fill="none" stroke="white" stroke-width="1.5" pointer-events="none"/>
                </g>
                <g id="dirArrow">
                        <path fill="none" stroke="white" stroke-width="1.5" d="M0,-3.0v7 M-2.5,-0.5L0,-3.0L2.5,-0.5"/>
                </g>
               <g id="resetDef">
                       <use xlink:href="#rim2" fill="#404040">
                               <set attributeName="fill" to="#808080" begin="reset.mouseover" end="reset.mouseout"/>
                       </use>
               </g>
        </defs>

<script type="text/javascript">
var viewWidth = 589;
var viewHeight = 534;
var sectionId = 'dynsection-0';
</script>
<script xlink:href="svgpan.js"/>
<svg id="graph" class="graph">
<g id="viewport">
<title>DGtal::DrawWithDisplay3DModifier</title>
<!-- Node1 -->
<g id="node1" class="node">
<title>Node1</title>
<g id="a_node1"><a xlink:title="Base class specifying the methods for classes which intend to modify a Viewer3D stream.">
<polygon fill="#999999" stroke="#666666" points="172,-258.5 0,-258.5 0,-239.5 172,-239.5 172,-258.5"/>
<text text-anchor="middle" x="86" y="-246.5" font-family="FreeSans" font-size="10.00">DGtal::DrawWithDisplay3DModifier</text>
</a>
</g>
</g>
<!-- Node2 -->
<g id="node2" class="node">
<title>Node2</title>
<g id="a_node2"><a xlink:href="structDGtal_1_1ClippingPlane.html" target="_top" xlink:title="Class for adding a Clipping plane through the Viewer3D stream. Realizes the concept CDrawableWithView...">
<polygon fill="white" stroke="#666666" points="346.5,-388.5 238.5,-388.5 238.5,-369.5 346.5,-369.5 346.5,-388.5"/>
<text text-anchor="middle" x="292.5" y="-376.5" font-family="FreeSans" font-size="10.00">DGtal::ClippingPlane</text>
</a>
</g>
</g>
<!-- Node1&#45;&gt;Node2 -->
<g id="edge1" class="edge">
<title>Node1&#45;&gt;Node2</title>
<path fill="none" stroke="#63b8ff" d="M101.49,-267.59C122.26,-292.86 162.96,-337.58 208,-361 217.34,-365.86 227.92,-369.41 238.34,-372"/>
<polygon fill="#63b8ff" stroke="#63b8ff" points="104.49,-265.72 95.49,-260.12 99.03,-270.11 104.49,-265.72"/>
</g>
<!-- Node3 -->
<g id="node3" class="node">
<title>Node3</title>
<g id="a_node3"><a xlink:href="structDGtal_1_1CustomColors3D.html" target="_top" xlink:title=" ">
<polygon fill="white" stroke="#666666" points="354.5,-351.5 230.5,-351.5 230.5,-332.5 354.5,-332.5 354.5,-351.5"/>
<text text-anchor="middle" x="292.5" y="-339.5" font-family="FreeSans" font-size="10.00">DGtal::CustomColors3D</text>
</a>
</g>
</g>
<!-- Node1&#45;&gt;Node3 -->
<g id="edge2" class="edge">
<title>Node1&#45;&gt;Node3</title>
<path fill="none" stroke="#63b8ff" d="M108.62,-265.61C131.92,-282.72 170.7,-308.95 208,-324 215.84,-327.16 224.33,-329.81 232.78,-332.01"/>
<polygon fill="#63b8ff" stroke="#63b8ff" points="110.95,-262.98 100.84,-259.8 106.76,-268.59 110.95,-262.98"/>
</g>
<!-- Node4 -->
<g id="node4" class="node">
<title>Node4</title>
<g id="a_node4"><a xlink:href="structDGtal_1_1CustomStyle3D.html" target="_top" xlink:title="Modifier class in a Display3D stream. Useful to choose your own style for a given class....">
<polygon fill="white" stroke="#666666" points="351.5,-314.5 233.5,-314.5 233.5,-295.5 351.5,-295.5 351.5,-314.5"/>
<text text-anchor="middle" x="292.5" y="-302.5" font-family="FreeSans" font-size="10.00">DGtal::CustomStyle3D</text>
</a>
</g>
</g>
<!-- Node1&#45;&gt;Node4 -->
<g id="edge3" class="edge">
<title>Node1&#45;&gt;Node4</title>
<path fill="none" stroke="#63b8ff" d="M127.04,-262.59C150.48,-270.29 180.74,-279.8 208,-287 218.9,-289.88 230.68,-292.63 241.87,-295.09"/>
<polygon fill="#63b8ff" stroke="#63b8ff" points="128.15,-259.27 117.56,-259.45 125.95,-265.92 128.15,-259.27"/>
</g>
<!-- Node5 -->
<g id="node5" class="node">
<title>Node5</title>
<g id="a_node5"><a xlink:href="structDGtal_1_1DrawWithViewer3DModifier.html" target="_top" xlink:title="Base class specifying the methods for classes which intend to modify a Viewer3D stream.">
<polygon fill="white" stroke="#666666" points="377,-277.5 208,-277.5 208,-258.5 377,-258.5 377,-277.5"/>
<text text-anchor="middle" x="292.5" y="-265.5" font-family="FreeSans" font-size="10.00">DGtal::DrawWithViewer3DModifier</text>
</a>
</g>
</g>
<!-- Node1&#45;&gt;Node5 -->
<g id="edge4" class="edge">
<title>Node1&#45;&gt;Node5</title>
<path fill="none" stroke="#63b8ff" d="M183.59,-257.97C191.65,-258.72 199.75,-259.48 207.71,-260.21"/>
<polygon fill="#63b8ff" stroke="#63b8ff" points="184.03,-254.5 173.75,-257.06 183.39,-261.47 184.03,-254.5"/>
</g>
<!-- Node18 -->
<g id="node18" class="node">
<title>Node18</title>
<g id="a_node18"><a xlink:href="structDGtal_1_1SetMode3D.html" target="_top" xlink:title="Modifier class in a Display3D stream. Useful to choose your own mode for a given class....">
<polygon fill="white" stroke="#666666" points="342.5,-240.5 242.5,-240.5 242.5,-221.5 342.5,-221.5 342.5,-240.5"/>
<text text-anchor="middle" x="292.5" y="-228.5" font-family="FreeSans" font-size="10.00">DGtal::SetMode3D</text>
</a>
</g>
</g>
<!-- Node1&#45;&gt;Node18 -->
<g id="edge17" class="edge">
<title>Node1&#45;&gt;Node18</title>
<path fill="none" stroke="#63b8ff" d="M183.47,-240.51C203.75,-238.72 224.35,-236.91 242.04,-235.35"/>
<polygon fill="#63b8ff" stroke="#63b8ff" points="183.41,-237 173.75,-241.36 184.02,-243.97 183.41,-237"/>
</g>
<!-- Node19 -->
<g id="node19" class="node">
<title>Node19</title>
<g id="a_node19"><a xlink:href="structDGtal_1_1SetName3D.html" target="_top" xlink:title=" ">
<polygon fill="white" stroke="#666666" points="343.5,-203.5 241.5,-203.5 241.5,-184.5 343.5,-184.5 343.5,-203.5"/>
<text text-anchor="middle" x="292.5" y="-191.5" font-family="FreeSans" font-size="10.00">DGtal::SetName3D</text>
</a>
</g>
</g>
<!-- Node1&#45;&gt;Node19 -->
<g id="edge18" class="edge">
<title>Node1&#45;&gt;Node19</title>
<path fill="none" stroke="#63b8ff" d="M129.27,-235.69C152.42,-228.58 181.67,-219.9 208,-213 220.08,-209.83 233.22,-206.7 245.43,-203.92"/>
<polygon fill="#63b8ff" stroke="#63b8ff" points="128.4,-232.29 119.88,-238.59 130.47,-238.98 128.4,-232.29"/>
</g>
<!-- Node20 -->
<g id="node20" class="node">
<title>Node20</title>
<g id="a_node20"><a xlink:href="structDGtal_1_1SetSelectCallback3D.html" target="_top" xlink:title=" ">
<polygon fill="white" stroke="#666666" points="363.5,-166.5 221.5,-166.5 221.5,-147.5 363.5,-147.5 363.5,-166.5"/>
<text text-anchor="middle" x="292.5" y="-154.5" font-family="FreeSans" font-size="10.00">DGtal::SetSelectCallback3D</text>
</a>
</g>
</g>
<!-- Node1&#45;&gt;Node20 -->
<g id="edge19" class="edge">
<title>Node1&#45;&gt;Node20</title>
<path fill="none" stroke="#63b8ff" d="M109.11,-232.67C132.54,-216.11 171.17,-190.85 208,-176 216.96,-172.39 226.76,-169.38 236.38,-166.91"/>
<polygon fill="#63b8ff" stroke="#63b8ff" points="107.35,-229.62 101.27,-238.3 111.44,-235.31 107.35,-229.62"/>
</g>
<!-- Node21 -->
<g id="node21" class="node">
<title>Node21</title>
<g id="a_node21"><a xlink:href="structDGtal_1_1TransformedPrism.html" target="_top" xlink:title="class to modify the position and scale to construct better illustration mode.">
<polygon fill="white" stroke="#666666" points="356.5,-129.5 228.5,-129.5 228.5,-110.5 356.5,-110.5 356.5,-129.5"/>
<text text-anchor="middle" x="292.5" y="-117.5" font-family="FreeSans" font-size="10.00">DGtal::TransformedPrism</text>
</a>
</g>
</g>
<!-- Node1&#45;&gt;Node21 -->
<g id="edge20" class="edge">
<title>Node1&#45;&gt;Node21</title>
<path fill="none" stroke="#63b8ff" d="M101.88,-230.49C122.86,-205.71 163.56,-162.18 208,-139 215.12,-135.29 222.95,-132.3 230.87,-129.89"/>
<polygon fill="#63b8ff" stroke="#63b8ff" points="99.26,-228.18 95.58,-238.12 104.65,-232.64 99.26,-228.18"/>
</g>
<!-- Node6 -->
<g id="node6" class="node">
<title>Node6</title>
<g id="a_node6"><a xlink:href="structDGtal_1_1AddTextureImage2DWithFunctor.html" target="_top" xlink:title="class to insert a custom 2D textured image by using a conversion functor and allows to change the def...">
<polygon fill="white" stroke="#666666" points="577,-525.5 417,-525.5 417,-484.5 577,-484.5 577,-525.5"/>
<text text-anchor="start" x="425" y="-513.5" font-family="FreeSans" font-size="10.00">DGtal::AddTextureImage2DWith</text>
<text text-anchor="start" x="425" y="-502.5" font-family="FreeSans" font-size="10.00">Functor&lt; TImageType, TFunctor,</text>
<text text-anchor="middle" x="497" y="-491.5" font-family="FreeSans" font-size="10.00"> Space, KSpace &gt;</text>
</a>
</g>
</g>
<!-- Node5&#45;&gt;Node6 -->
<g id="edge5" class="edge">
<title>Node5&#45;&gt;Node6</title>
<path fill="none" stroke="#63b8ff" d="M374.27,-284.39C375.21,-285.22 376.12,-286.09 377,-287 436.38,-348.53 357.17,-411.23 413,-476 415.59,-479.01 418.51,-481.7 421.67,-484.12"/>
<polygon fill="#63b8ff" stroke="#63b8ff" points="376.48,-281.66 366.29,-278.75 372.44,-287.38 376.48,-281.66"/>
</g>
<!-- Node7 -->
<g id="node7" class="node">
<title>Node7</title>
<g id="a_node7"><a xlink:href="structDGtal_1_1AddTextureImage3DWithFunctor.html" target="_top" xlink:title="class to insert a custom 3D textured image by using a conversion functor and allows to change the def...">
<polygon fill="white" stroke="#666666" points="577,-466.5 417,-466.5 417,-425.5 577,-425.5 577,-466.5"/>
<text text-anchor="start" x="425" y="-454.5" font-family="FreeSans" font-size="10.00">DGtal::AddTextureImage3DWith</text>
<text text-anchor="start" x="425" y="-443.5" font-family="FreeSans" font-size="10.00">Functor&lt; TImageType, TFunctor,</text>
<text text-anchor="middle" x="497" y="-432.5" font-family="FreeSans" font-size="10.00"> Space, KSpace &gt;</text>
</a>
</g>
</g>
<!-- Node5&#45;&gt;Node7 -->
<g id="edge6" class="edge">
<title>Node5&#45;&gt;Node7</title>
<path fill="none" stroke="#63b8ff" d="M373.7,-284.11C374.84,-285.03 375.94,-285.99 377,-287 420.37,-328.4 372.03,-373.23 413,-417 415.82,-420.01 418.96,-422.71 422.34,-425.12"/>
<polygon fill="#63b8ff" stroke="#63b8ff" points="375.88,-281.36 365.6,-278.83 372.06,-287.22 375.88,-281.36"/>
</g>
<!-- Node8 -->
<g id="node8" class="node">
<title>Node8</title>
<g id="a_node8"><a xlink:href="structDGtal_1_1CameraDirection.html" target="_top" xlink:title="CameraDirection class to set camera direction.">
<polygon fill="white" stroke="#666666" points="558,-407.5 436,-407.5 436,-388.5 558,-388.5 558,-407.5"/>
<text text-anchor="middle" x="497" y="-395.5" font-family="FreeSans" font-size="10.00">DGtal::CameraDirection</text>
</a>
</g>
</g>
<!-- Node5&#45;&gt;Node8 -->
<g id="edge7" class="edge">
<title>Node5&#45;&gt;Node8</title>
<path fill="none" stroke="#63b8ff" d="M372.4,-283.43C373.99,-284.54 375.53,-285.73 377,-287 410.54,-315.98 379.32,-351.19 413,-380 419.5,-385.56 427.31,-389.52 435.51,-392.33"/>
<polygon fill="#63b8ff" stroke="#63b8ff" points="374.45,-280.57 364.04,-278.59 370.94,-286.63 374.45,-280.57"/>
</g>
<!-- Node9 -->
<g id="node9" class="node">
<title>Node9</title>
<g id="a_node9"><a xlink:href="structDGtal_1_1CameraPosition.html" target="_top" xlink:title="CameraPosition class to set camera position.">
<polygon fill="white" stroke="#666666" points="556,-370.5 438,-370.5 438,-351.5 556,-351.5 556,-370.5"/>
<text text-anchor="middle" x="497" y="-358.5" font-family="FreeSans" font-size="10.00">DGtal::CameraPosition</text>
</a>
</g>
</g>
<!-- Node5&#45;&gt;Node9 -->
<g id="edge8" class="edge">
<title>Node5&#45;&gt;Node9</title>
<path fill="none" stroke="#63b8ff" d="M370.08,-282.72C372.48,-284.03 374.79,-285.45 377,-287 401.22,-303.99 388.69,-326.13 413,-343 420.39,-348.13 428.97,-351.83 437.76,-354.5"/>
<polygon fill="#63b8ff" stroke="#63b8ff" points="371.77,-279.64 361.23,-278.59 368.81,-285.99 371.77,-279.64"/>
</g>
<!-- Node10 -->
<g id="node10" class="node">
<title>Node10</title>
<g id="a_node10"><a xlink:href="structDGtal_1_1CameraUpVector.html" target="_top" xlink:title="CameraUpVector class to set camera up&#45;vector.">
<polygon fill="white" stroke="#666666" points="559,-333.5 435,-333.5 435,-314.5 559,-314.5 559,-333.5"/>
<text text-anchor="middle" x="497" y="-321.5" font-family="FreeSans" font-size="10.00">DGtal::CameraUpVector</text>
</a>
</g>
</g>
<!-- Node5&#45;&gt;Node10 -->
<g id="edge9" class="edge">
<title>Node5&#45;&gt;Node10</title>
<path fill="none" stroke="#63b8ff" d="M357.74,-280.81C364.31,-282.66 370.84,-284.72 377,-287 393.97,-293.28 396,-299.8 413,-306 421.59,-309.13 430.89,-311.8 440.04,-314.05"/>
<polygon fill="#63b8ff" stroke="#63b8ff" points="358.7,-277.44 348.14,-278.29 356.92,-284.21 358.7,-277.44"/>
</g>
<!-- Node11 -->
<g id="node11" class="node">
<title>Node11</title>
<g id="a_node11"><a xlink:href="structDGtal_1_1CameraZNearFar.html" target="_top" xlink:title="CameraZNearFar class to set near and far distance.">
<polygon fill="white" stroke="#666666" points="559,-296.5 435,-296.5 435,-277.5 559,-277.5 559,-296.5"/>
<text text-anchor="middle" x="497" y="-284.5" font-family="FreeSans" font-size="10.00">DGtal::CameraZNearFar</text>
</a>
</g>
</g>
<!-- Node5&#45;&gt;Node11 -->
<g id="edge10" class="edge">
<title>Node5&#45;&gt;Node11</title>
<path fill="none" stroke="#63b8ff" d="M388.69,-276.93C404.37,-278.4 420.24,-279.89 434.8,-281.26"/>
<polygon fill="#63b8ff" stroke="#63b8ff" points="389.12,-273.46 378.83,-276.01 388.46,-280.43 389.12,-273.46"/>
</g>
<!-- Node12 -->
<g id="node12" class="node">
<title>Node12</title>
<g id="a_node12"><a xlink:href="structDGtal_1_1Translate2DDomain.html" target="_top" xlink:title="class to modify the data of an given image and also the possibility to translate it (optional).">
<polygon fill="white" stroke="#666666" points="564.5,-259.5 429.5,-259.5 429.5,-240.5 564.5,-240.5 564.5,-259.5"/>
<text text-anchor="middle" x="497" y="-247.5" font-family="FreeSans" font-size="10.00">DGtal::Translate2DDomain</text>
</a>
</g>
</g>
<!-- Node5&#45;&gt;Node12 -->
<g id="edge11" class="edge">
<title>Node5&#45;&gt;Node12</title>
<path fill="none" stroke="#63b8ff" d="M388.76,-259.53C402.43,-258.32 416.26,-257.09 429.22,-255.94"/>
<polygon fill="#63b8ff" stroke="#63b8ff" points="388.48,-256.04 378.83,-260.41 389.1,-263.02 388.48,-256.04"/>
</g>
<!-- Node13 -->
<g id="node13" class="node">
<title>Node13</title>
<g id="a_node13"><a xlink:href="structDGtal_1_1Update2DDomainPosition.html" target="_top" xlink:title="class to modify the position and orientation of an 2D domain.">
<polygon fill="white" stroke="#666666" points="577.5,-222 416.5,-222 416.5,-192 577.5,-192 577.5,-222"/>
<text text-anchor="start" x="424.5" y="-210" font-family="FreeSans" font-size="10.00">DGtal::Update2DDomainPosition</text>
<text text-anchor="middle" x="497" y="-199" font-family="FreeSans" font-size="10.00">&lt; Space, KSpace &gt;</text>
</a>
</g>
</g>
<!-- Node5&#45;&gt;Node13 -->
<g id="edge12" class="edge">
<title>Node5&#45;&gt;Node13</title>
<path fill="none" stroke="#63b8ff" d="M360.29,-255.19C365.99,-253.61 371.63,-251.89 377,-250 393.88,-244.07 396.37,-238.6 413,-232 421.67,-228.56 431.01,-225.31 440.19,-222.38"/>
<polygon fill="#63b8ff" stroke="#63b8ff" points="359.57,-251.76 350.75,-257.64 361.31,-258.54 359.57,-251.76"/>
</g>
<!-- Node14 -->
<g id="node14" class="node">
<title>Node14</title>
<g id="a_node14"><a xlink:href="structDGtal_1_1UpdateImage3DEmbedding.html" target="_top" xlink:title="class to modify the 3d embedding of the image (useful to display not only 2D slice images)....">
<polygon fill="white" stroke="#666666" points="581,-174 413,-174 413,-144 581,-144 581,-174"/>
<text text-anchor="start" x="421" y="-162" font-family="FreeSans" font-size="10.00">DGtal::UpdateImage3DEmbedding</text>
<text text-anchor="middle" x="497" y="-151" font-family="FreeSans" font-size="10.00">&lt; Space, KSpace &gt;</text>
</a>
</g>
</g>
<!-- Node5&#45;&gt;Node14 -->
<g id="edge13" class="edge">
<title>Node5&#45;&gt;Node14</title>
<path fill="none" stroke="#63b8ff" d="M372.87,-252.85C374.29,-251.95 375.67,-251 377,-250 404.01,-229.68 386.71,-204.25 413,-183 417.08,-179.7 421.6,-176.85 426.36,-174.4"/>
<polygon fill="#63b8ff" stroke="#63b8ff" points="371.58,-249.58 364.39,-257.37 374.87,-255.76 371.58,-249.58"/>
</g>
<!-- Node15 -->
<g id="node15" class="node">
<title>Node15</title>
<g id="a_node15"><a xlink:href="structDGtal_1_1UpdateImageData.html" target="_top" xlink:title="class to modify the data of an given image and also the possibility to translate it (optional).">
<polygon fill="white" stroke="#666666" points="564,-126 430,-126 430,-96 564,-96 564,-126"/>
<text text-anchor="start" x="438" y="-114" font-family="FreeSans" font-size="10.00">DGtal::UpdateImageData</text>
<text text-anchor="middle" x="497" y="-103" font-family="FreeSans" font-size="10.00">&lt; TImageType, TFunctor &gt;</text>
</a>
</g>
</g>
<!-- Node5&#45;&gt;Node15 -->
<g id="edge14" class="edge">
<title>Node5&#45;&gt;Node15</title>
<path fill="none" stroke="#63b8ff" d="M374.64,-252.03C375.45,-251.37 376.23,-250.7 377,-250 416.55,-213.89 374.72,-172.45 413,-135 417.82,-130.28 423.52,-126.48 429.63,-123.42"/>
<polygon fill="#63b8ff" stroke="#63b8ff" points="373.06,-248.87 366.63,-257.29 376.91,-254.72 373.06,-248.87"/>
</g>
<!-- Node16 -->
<g id="node16" class="node">
<title>Node16</title>
<g id="a_node16"><a xlink:href="structDGtal_1_1UpdateImagePosition.html" target="_top" xlink:title="class to modify the position and orientation of an textured 2D image.">
<polygon fill="white" stroke="#666666" points="568,-78 426,-78 426,-48 568,-48 568,-78"/>
<text text-anchor="start" x="434" y="-66" font-family="FreeSans" font-size="10.00">DGtal::UpdateImagePosition</text>
<text text-anchor="middle" x="497" y="-55" font-family="FreeSans" font-size="10.00">&lt; Space, KSpace &gt;</text>
</a>
</g>
</g>
<!-- Node5&#45;&gt;Node16 -->
<g id="edge15" class="edge">
<title>Node5&#45;&gt;Node16</title>
<path fill="none" stroke="#63b8ff" d="M375.49,-251.44C376,-250.97 376.51,-250.49 377,-250 429.59,-197.67 362.25,-141.11 413,-87 416.69,-83.06 420.99,-79.76 425.65,-76.98"/>
<polygon fill="#63b8ff" stroke="#63b8ff" points="373.7,-248.41 367.68,-257.13 377.82,-254.07 373.7,-248.41"/>
</g>
<!-- Node17 -->
<g id="node17" class="node">
<title>Node17</title>
<g id="a_node17"><a xlink:href="structDGtal_1_1UpdateLastImagePosition.html" target="_top" xlink:title="class to modify the position and orientation of an textured 2D image.">
<polygon fill="white" stroke="#666666" points="577.5,-30 416.5,-30 416.5,0 577.5,0 577.5,-30"/>
<text text-anchor="start" x="424.5" y="-18" font-family="FreeSans" font-size="10.00">DGtal::UpdateLastImagePosition</text>
<text text-anchor="middle" x="497" y="-7" font-family="FreeSans" font-size="10.00">&lt; Space, KSpace &gt;</text>
</a>
</g>
</g>
<!-- Node5&#45;&gt;Node17 -->
<g id="edge16" class="edge">
<title>Node5&#45;&gt;Node17</title>
<path fill="none" stroke="#63b8ff" d="M375.53,-251.47C376.03,-250.99 376.52,-250.5 377,-250 442.8,-181.29 349.62,-109.94 413,-39 415.9,-35.76 419.2,-32.94 422.79,-30.49"/>
<polygon fill="#63b8ff" stroke="#63b8ff" points="373.71,-248.46 367.84,-257.28 377.93,-254.04 373.71,-248.46"/>
</g>
</g>
</svg>
        <g id="navigator" transform="translate(0 0)" fill="#404254">
                <rect fill="#f2f5e9" fill-opacity="0.5" stroke="#606060" stroke-width=".5" x="0" y="0" width="60" height="60"/>
                <use id="zoomplus" xlink:href="#zoomPlus" x="17" y="9" onmousedown="handleZoom(evt,'in')"/>
                <use id="zoomminus" xlink:href="#zoomMin" x="42" y="9" onmousedown="handleZoom(evt,'out')"/>
                <use id="reset" xlink:href="#resetDef" x="30" y="36" onmousedown="handleReset()"/>
                <g id="arrowUp" xlink:href="#dirArrow" transform="translate(30 24)" onmousedown="handlePan(0,-1)">
                  <use xlink:href="#rim" fill="#404040">
                        <set attributeName="fill" to="#808080" begin="arrowUp.mouseover" end="arrowUp.mouseout"/>
                  </use>
                  <path fill="none" stroke="white" stroke-width="1.5" d="M0,-3.0v7 M-2.5,-0.5L0,-3.0L2.5,-0.5"/>
                </g>
                <g id="arrowRight" xlink:href="#dirArrow" transform="rotate(90) translate(36 -43)" onmousedown="handlePan(1,0)">
                  <use xlink:href="#rim" fill="#404040">
                        <set attributeName="fill" to="#808080" begin="arrowRight.mouseover" end="arrowRight.mouseout"/>
                  </use>
                  <path fill="none" stroke="white" stroke-width="1.5" d="M0,-3.0v7 M-2.5,-0.5L0,-3.0L2.5,-0.5"/>
                </g>
                <g id="arrowDown" xlink:href="#dirArrow" transform="rotate(180) translate(-30 -48)" onmousedown="handlePan(0,1)">
                  <use xlink:href="#rim" fill="#404040">
                        <set attributeName="fill" to="#808080" begin="arrowDown.mouseover" end="arrowDown.mouseout"/>
                  </use>
                  <path fill="none" stroke="white" stroke-width="1.5" d="M0,-3.0v7 M-2.5,-0.5L0,-3.0L2.5,-0.5"/>
                </g>
                <g id="arrowLeft" xlink:href="#dirArrow" transform="rotate(270) translate(-36 17)" onmousedown="handlePan(-1,0)">
                  <use xlink:href="#rim" fill="#404040">
                        <set attributeName="fill" to="#808080" begin="arrowLeft.mouseover" end="arrowLeft.mouseout"/>
                  </use>
                  <path fill="none" stroke="white" stroke-width="1.5" d="M0,-3.0v7 M-2.5,-0.5L0,-3.0L2.5,-0.5"/>
                </g>
        </g>
        <svg viewBox="0 0 15 15" width="100%" height="30px" preserveAspectRatio="xMaxYMin meet">
         <g id="arrow_out" transform="scale(0.3 0.3)">
          <a xlink:href="structDGtal_1_1DrawWithDisplay3DModifier__inherit__graph_org.svg" target="_base">
           <rect id="button" ry="5" rx="5" y="6" x="6" height="38" width="38"
                fill="#f2f5e9" fill-opacity="0.5" stroke="#606060" stroke-width="1.0"/>
           <path id="arrow"
             d="M 11.500037,31.436501 C 11.940474,20.09759 22.043105,11.32322 32.158766,21.979434 L 37.068811,17.246167 C 37.068811,17.246167 37.088388,32 37.088388,32 L 22.160133,31.978069 C 22.160133,31.978069 26.997745,27.140456 26.997745,27.140456 C 18.528582,18.264221 13.291696,25.230495 11.500037,31.436501 z"
             style="fill:#404040;"/>
          </a>
         </g>
        </svg>
</svg>
