<?xml version="1.0" encoding="UTF-8" standalone="no"?>
<!DOCTYPE svg PUBLIC "-//W3C//DTD SVG 1.1//EN"
 "http://www.w3.org/Graphics/SVG/1.1/DTD/svg11.dtd">
<!-- Generated by graphviz version 7.0.1 (20221109.1506)
 -->
<!-- Title: DGtal::CForwardIteratorArchetype&lt; T &gt; Pages: 1 -->
<svg width="198pt" height="171pt"
 viewBox="0.00 0.00 198.00 171.00" xmlns="http://www.w3.org/2000/svg" xmlns:xlink="http://www.w3.org/1999/xlink">
<g id="graph0" class="graph" transform="scale(1 1) rotate(0) translate(4 167)">
<title>DGtal::CForwardIteratorArchetype&lt; T &gt;</title>
<!-- Node1 -->
<g id="node1" class="node">
<title>Node1</title>
<g id="a_node1"><a xlink:title="An archetype of ForwardIterator.">
<polygon fill="#999999" stroke="#666666" points="190,-96 0,-96 0,-77 190,-77 190,-96"/>
<text text-anchor="middle" x="95" y="-84" font-family="FreeSans" font-size="10.00">DGtal::CForwardIteratorArchetype&lt; T &gt;</text>
</a>
</g>
</g>
<!-- Node3 -->
<g id="node3" class="node">
<title>Node3</title>
<g id="a_node3"><a xlink:href="structDGtal_1_1CForwardIteratorArchetype.html" target="_top" xlink:title=" ">
<polygon fill="white" stroke="#666666" points="178,-30 12,-30 12,0 178,0 178,-30"/>
<text text-anchor="start" x="20" y="-18" font-family="FreeSans" font-size="10.00">DGtal::CForwardIteratorArchetype</text>
<text text-anchor="middle" x="95" y="-7" font-family="FreeSans" font-size="10.00">&lt; Point &gt;</text>
</a>
</g>
</g>
<!-- Node1&#45;&gt;Node3 -->
<g id="edge2" class="edge">
<title>Node1&#45;&gt;Node3</title>
<path fill="none" stroke="orange" stroke-dasharray="5,2" d="M95,-65.39C95,-54.15 95,-40.41 95,-30.27"/>
<polygon fill="orange" stroke="orange" points="91.5,-65.18 95,-75.18 98.5,-65.18 91.5,-65.18"/>
<text text-anchor="middle" x="117" y="-51" font-family="FreeSans" font-size="10.00"> &lt; Point &gt;</text>
</g>
<!-- Node2 -->
<g id="node2" class="node">
<title>Node2</title>
<g id="a_node2"><a xlink:title=" ">
<polygon fill="white" stroke="#666666" points="152,-163 38,-163 38,-133 152,-133 152,-163"/>
<text text-anchor="start" x="46" y="-151" font-family="FreeSans" font-size="10.00">boost::forward_iterator</text>
<text text-anchor="middle" x="95" y="-140" font-family="FreeSans" font-size="10.00">_archetype&lt; T &gt;</text>
</a>
</g>
</g>
<!-- Node2&#45;&gt;Node1 -->
<g id="edge1" class="edge">
<title>Node2&#45;&gt;Node1</title>
<path fill="none" stroke="#63b8ff" d="M95,-121.13C95,-112.29 95,-102.99 95,-96.42"/>
<polygon fill="#63b8ff" stroke="#63b8ff" points="91.5,-121.08 95,-131.08 98.5,-121.08 91.5,-121.08"/>
</g>
</g>
</svg>
