<?xml version="1.0" encoding="UTF-8" standalone="no"?>
<!DOCTYPE svg PUBLIC "-//W3C//DTD SVG 1.1//EN"
 "http://www.w3.org/Graphics/SVG/1.1/DTD/svg11.dtd">
<!-- Generated by graphviz version 7.0.1 (20221109.1506)
 -->
<!-- Title: DGtal::concepts::CVertexPredicate&lt; T &gt; Pages: 1 -->
<svg width="1463pt" height="119pt"
 viewBox="0.00 0.00 1463.00 119.00" xmlns="http://www.w3.org/2000/svg" xmlns:xlink="http://www.w3.org/1999/xlink">
<g id="graph0" class="graph" transform="scale(1 1) rotate(0) translate(4 115)">
<title>DGtal::concepts::CVertexPredicate&lt; T &gt;</title>
<!-- Node1 -->
<g id="node1" class="node">
<title>Node1</title>
<g id="a_node1"><a xlink:title="Aim: Defines a predicate on a vertex.">
<polygon fill="#999999" stroke="#666666" points="1455,-46 1325,-46 1325,-16 1455,-16 1455,-46"/>
<text text-anchor="start" x="1333" y="-34" font-family="FreeSans" font-size="10.00">DGtal::concepts::CVertex</text>
<text text-anchor="middle" x="1390" y="-23" font-family="FreeSans" font-size="10.00">Predicate&lt; T &gt;</text>
</a>
</g>
</g>
<!-- Node2 -->
<g id="node2" class="node">
<title>Node2</title>
<g id="a_node2"><a xlink:href="structDGtal_1_1concepts_1_1CPredicate.html" target="_top" xlink:title=" ">
<polygon fill="white" stroke="#666666" points="1288,-46 1145,-46 1145,-16 1288,-16 1288,-46"/>
<text text-anchor="start" x="1153" y="-34" font-family="FreeSans" font-size="10.00">DGtal::concepts::CPredicate</text>
<text text-anchor="middle" x="1216.5" y="-23" font-family="FreeSans" font-size="10.00">&lt; T, T::Vertex &gt;</text>
</a>
</g>
</g>
<!-- Node2&#45;&gt;Node1 -->
<g id="edge1" class="edge">
<title>Node2&#45;&gt;Node1</title>
<path fill="none" stroke="#63b8ff" d="M1299.67,-31C1308.09,-31 1316.55,-31 1324.74,-31"/>
<polygon fill="#63b8ff" stroke="#63b8ff" points="1299.76,-27.5 1289.76,-31 1299.76,-34.5 1299.76,-27.5"/>
</g>
<!-- Node3 -->
<g id="node3" class="node">
<title>Node3</title>
<g id="a_node3"><a xlink:href="structDGtal_1_1concepts_1_1CUnaryFunctor.html" target="_top" xlink:title="Aim: Defines a unary functor, which associates arguments to results.">
<polygon fill="white" stroke="#666666" points="679,-30 518,-30 518,0 679,0 679,-30"/>
<text text-anchor="start" x="526" y="-18" font-family="FreeSans" font-size="10.00">DGtal::concepts::CUnaryFunctor</text>
<text text-anchor="middle" x="598.5" y="-7" font-family="FreeSans" font-size="10.00">&lt; X, A, R &gt;</text>
</a>
</g>
</g>
<!-- Node3&#45;&gt;Node2 -->
<g id="edge2" class="edge">
<title>Node3&#45;&gt;Node2</title>
<path fill="none" stroke="#63b8ff" d="M690.7,-17.37C814.4,-20.58 1032.74,-26.25 1144.8,-29.16"/>
<polygon fill="#63b8ff" stroke="#63b8ff" points="691,-13.88 680.91,-17.11 690.82,-20.87 691,-13.88"/>
</g>
<!-- Node4 -->
<g id="node4" class="node">
<title>Node4</title>
<g id="a_node4"><a xlink:href="structboost_1_1Assignable.html" target="_top" xlink:title=" ">
<polygon fill="white" stroke="#666666" points="302,-36.5 183,-36.5 183,-17.5 302,-17.5 302,-36.5"/>
<text text-anchor="middle" x="242.5" y="-24.5" font-family="FreeSans" font-size="10.00">boost::Assignable&lt; X &gt;</text>
</a>
</g>
</g>
<!-- Node4&#45;&gt;Node3 -->
<g id="edge3" class="edge">
<title>Node4&#45;&gt;Node3</title>
<path fill="none" stroke="#63b8ff" d="M313.76,-24.62C372.51,-22.63 456.31,-19.79 517.61,-17.71"/>
<polygon fill="#63b8ff" stroke="#63b8ff" points="313.74,-21.12 303.87,-24.95 313.98,-28.11 313.74,-21.12"/>
</g>
<!-- Node9 -->
<g id="node9" class="node">
<title>Node9</title>
<g id="a_node9"><a xlink:href="structDGtal_1_1concepts_1_1CUnaryFunctor.html" target="_top" xlink:title="Aim: Defines a unary functor, which associates arguments to results.">
<polygon fill="white" stroke="#666666" points="500,-111 339,-111 339,-81 500,-81 500,-111"/>
<text text-anchor="start" x="347" y="-99" font-family="FreeSans" font-size="10.00">DGtal::concepts::CUnaryFunctor</text>
<text text-anchor="middle" x="419.5" y="-88" font-family="FreeSans" font-size="10.00">&lt; X, A, R &gt;</text>
</a>
</g>
</g>
<!-- Node4&#45;&gt;Node9 -->
<g id="edge9" class="edge">
<title>Node4&#45;&gt;Node9</title>
<path fill="none" stroke="#63b8ff" d="M272.73,-42.15C291.39,-51.47 316.26,-63.26 339,-72 346.81,-75 355.16,-77.87 363.4,-80.52"/>
<polygon fill="#63b8ff" stroke="#63b8ff" points="274.38,-39.06 263.88,-37.67 271.22,-45.3 274.38,-39.06"/>
</g>
<!-- Node5 -->
<g id="node5" class="node">
<title>Node5</title>
<g id="a_node5"><a xlink:href="structboost_1_1Assignable.html" target="_top" xlink:title="Go to http://www.sgi.com/tech/stl/Assignable.html.">
<polygon fill="white" stroke="#666666" points="119,-36.5 0,-36.5 0,-17.5 119,-17.5 119,-36.5"/>
<text text-anchor="middle" x="59.5" y="-24.5" font-family="FreeSans" font-size="10.00">boost::Assignable&lt; T &gt;</text>
</a>
</g>
</g>
<!-- Node5&#45;&gt;Node4 -->
<g id="edge4" class="edge">
<title>Node5&#45;&gt;Node4</title>
<path fill="none" stroke="orange" stroke-dasharray="5,2" d="M130.44,-27C147.71,-27 166.04,-27 182.72,-27"/>
<polygon fill="orange" stroke="orange" points="130.78,-23.5 120.78,-27 130.78,-30.5 130.78,-23.5"/>
<text text-anchor="middle" x="151" y="-30" font-family="FreeSans" font-size="10.00"> &lt; X &gt;</text>
</g>
<!-- Node6 -->
<g id="node6" class="node">
<title>Node6</title>
<g id="a_node6"><a xlink:href="structDGtal_1_1concepts_1_1CPredicate.html" target="_top" xlink:title="Aim: Defines a predicate function, ie. a functor mapping a domain into the set of booleans.">
<polygon fill="white" stroke="#666666" points="1038,-73 895,-73 895,-43 1038,-43 1038,-73"/>
<text text-anchor="start" x="903" y="-61" font-family="FreeSans" font-size="10.00">DGtal::concepts::CPredicate</text>
<text text-anchor="middle" x="966.5" y="-50" font-family="FreeSans" font-size="10.00">&lt; T, TElement &gt;</text>
</a>
</g>
</g>
<!-- Node6&#45;&gt;Node2 -->
<g id="edge5" class="edge">
<title>Node6&#45;&gt;Node2</title>
<path fill="none" stroke="orange" stroke-dasharray="5,2" d="M1049.39,-49.08C1080.2,-45.73 1114.95,-41.95 1144.67,-38.71"/>
<polygon fill="orange" stroke="orange" points="1049.3,-45.57 1039.74,-50.14 1050.06,-52.53 1049.3,-45.57"/>
<text text-anchor="middle" x="1091.5" y="-51" font-family="FreeSans" font-size="10.00"> &lt; T, T::Vertex &gt;</text>
</g>
<!-- Node7 -->
<g id="node7" class="node">
<title>Node7</title>
<g id="a_node7"><a xlink:href="structDGtal_1_1concepts_1_1CUnaryFunctor.html" target="_top" xlink:title=" ">
<polygon fill="white" stroke="#666666" points="858,-73 697,-73 697,-43 858,-43 858,-73"/>
<text text-anchor="start" x="705" y="-61" font-family="FreeSans" font-size="10.00">DGtal::concepts::CUnaryFunctor</text>
<text text-anchor="middle" x="777.5" y="-50" font-family="FreeSans" font-size="10.00">&lt; T, TElement, bool &gt;</text>
</a>
</g>
</g>
<!-- Node7&#45;&gt;Node6 -->
<g id="edge6" class="edge">
<title>Node7&#45;&gt;Node6</title>
<path fill="none" stroke="#63b8ff" d="M869.77,-58C878.17,-58 886.6,-58 894.78,-58"/>
<polygon fill="#63b8ff" stroke="#63b8ff" points="869.86,-54.5 859.86,-58 869.86,-61.5 869.86,-54.5"/>
</g>
<!-- Node8 -->
<g id="node8" class="node">
<title>Node8</title>
<g id="a_node8"><a xlink:href="structboost_1_1Assignable.html" target="_top" xlink:title="Go to http://www.sgi.com/tech/stl/Assignable.html.">
<polygon fill="white" stroke="#666666" points="479,-62.5 360,-62.5 360,-43.5 479,-43.5 479,-62.5"/>
<text text-anchor="middle" x="419.5" y="-50.5" font-family="FreeSans" font-size="10.00">boost::Assignable&lt; T &gt;</text>
</a>
</g>
</g>
<!-- Node8&#45;&gt;Node7 -->
<g id="edge7" class="edge">
<title>Node8&#45;&gt;Node7</title>
<path fill="none" stroke="#63b8ff" d="M490.78,-53.99C550.04,-54.82 634.82,-56.01 696.63,-56.88"/>
<polygon fill="#63b8ff" stroke="#63b8ff" points="490.85,-50.49 480.8,-53.85 490.75,-57.49 490.85,-50.49"/>
</g>
<!-- Node9&#45;&gt;Node7 -->
<g id="edge8" class="edge">
<title>Node9&#45;&gt;Node7</title>
<path fill="none" stroke="orange" stroke-dasharray="5,2" d="M511.62,-86.67C561.14,-81.55 623.44,-75.04 679,-69 684.76,-68.37 690.71,-67.72 696.69,-67.06"/>
<polygon fill="orange" stroke="orange" points="511.38,-83.17 501.79,-87.68 512.1,-90.14 511.38,-83.17"/>
<text text-anchor="middle" x="598.5" y="-88" font-family="FreeSans" font-size="10.00"> &lt; T, TElement, bool &gt;</text>
</g>
</g>
</svg>
