<?xml version="1.0" encoding="UTF-8" standalone="no"?>
<!DOCTYPE svg PUBLIC "-//W3C//DTD SVG 1.1//EN"
 "http://www.w3.org/Graphics/SVG/1.1/DTD/svg11.dtd">
<!-- Generated by graphviz version 7.0.1 (20221109.1506)
 -->
<!-- Title: DGtal::DrawWithViewer3DModifier Pages: 1 -->
<svg width="589pt" height="534pt"
 viewBox="0.00 0.00 589.00 533.50" xmlns="http://www.w3.org/2000/svg" xmlns:xlink="http://www.w3.org/1999/xlink">
<g id="graph0" class="graph" transform="scale(1 1) rotate(0) translate(4 529.5)">
<title>DGtal::DrawWithViewer3DModifier</title>
<!-- Node1 -->
<g id="node1" class="node">
<title>Node1</title>
<g id="a_node1"><a xlink:title="Base class specifying the methods for classes which intend to modify a Viewer3D stream.">
<polygon fill="#999999" stroke="#666666" points="377,-277.5 208,-277.5 208,-258.5 377,-258.5 377,-277.5"/>
<text text-anchor="middle" x="292.5" y="-265.5" font-family="FreeSans" font-size="10.00">DGtal::DrawWithViewer3DModifier</text>
</a>
</g>
</g>
<!-- Node3 -->
<g id="node3" class="node">
<title>Node3</title>
<g id="a_node3"><a xlink:href="structDGtal_1_1AddTextureImage2DWithFunctor.html" target="_top" xlink:title="class to insert a custom 2D textured image by using a conversion functor and allows to change the def...">
<polygon fill="white" stroke="#666666" points="577,-525.5 417,-525.5 417,-484.5 577,-484.5 577,-525.5"/>
<text text-anchor="start" x="425" y="-513.5" font-family="FreeSans" font-size="10.00">DGtal::AddTextureImage2DWith</text>
<text text-anchor="start" x="425" y="-502.5" font-family="FreeSans" font-size="10.00">Functor&lt; TImageType, TFunctor,</text>
<text text-anchor="middle" x="497" y="-491.5" font-family="FreeSans" font-size="10.00"> Space, KSpace &gt;</text>
</a>
</g>
</g>
<!-- Node1&#45;&gt;Node3 -->
<g id="edge2" class="edge">
<title>Node1&#45;&gt;Node3</title>
<path fill="none" stroke="#63b8ff" d="M299.92,-288.8C313.78,-330.35 350.42,-424.07 413,-476 416.64,-479.02 420.62,-481.74 424.79,-484.18"/>
<polygon fill="#63b8ff" stroke="#63b8ff" points="303.27,-287.78 296.88,-279.34 296.61,-289.93 303.27,-287.78"/>
</g>
<!-- Node4 -->
<g id="node4" class="node">
<title>Node4</title>
<g id="a_node4"><a xlink:href="structDGtal_1_1AddTextureImage3DWithFunctor.html" target="_top" xlink:title="class to insert a custom 3D textured image by using a conversion functor and allows to change the def...">
<polygon fill="white" stroke="#666666" points="577,-466.5 417,-466.5 417,-425.5 577,-425.5 577,-466.5"/>
<text text-anchor="start" x="425" y="-454.5" font-family="FreeSans" font-size="10.00">DGtal::AddTextureImage3DWith</text>
<text text-anchor="start" x="425" y="-443.5" font-family="FreeSans" font-size="10.00">Functor&lt; TImageType, TFunctor,</text>
<text text-anchor="middle" x="497" y="-432.5" font-family="FreeSans" font-size="10.00"> Space, KSpace &gt;</text>
</a>
</g>
</g>
<!-- Node1&#45;&gt;Node4 -->
<g id="edge3" class="edge">
<title>Node1&#45;&gt;Node4</title>
<path fill="none" stroke="#63b8ff" d="M304.37,-287.77C322.74,-319.43 362.87,-381.55 413,-417 417.24,-420 421.81,-422.71 426.56,-425.16"/>
<polygon fill="#63b8ff" stroke="#63b8ff" points="307.52,-286.22 299.54,-279.25 301.43,-289.67 307.52,-286.22"/>
</g>
<!-- Node5 -->
<g id="node5" class="node">
<title>Node5</title>
<g id="a_node5"><a xlink:href="structDGtal_1_1CameraDirection.html" target="_top" xlink:title="CameraDirection class to set camera direction.">
<polygon fill="white" stroke="#666666" points="558,-407.5 436,-407.5 436,-388.5 558,-388.5 558,-407.5"/>
<text text-anchor="middle" x="497" y="-395.5" font-family="FreeSans" font-size="10.00">DGtal::CameraDirection</text>
</a>
</g>
</g>
<!-- Node1&#45;&gt;Node5 -->
<g id="edge4" class="edge">
<title>Node1&#45;&gt;Node5</title>
<path fill="none" stroke="#63b8ff" d="M308.04,-286.92C328.57,-312.25 368.55,-356.67 413,-380 420.05,-383.7 427.82,-386.64 435.69,-388.98"/>
<polygon fill="#63b8ff" stroke="#63b8ff" points="310.82,-284.79 301.86,-279.13 305.33,-289.14 310.82,-284.79"/>
</g>
<!-- Node6 -->
<g id="node6" class="node">
<title>Node6</title>
<g id="a_node6"><a xlink:href="structDGtal_1_1CameraPosition.html" target="_top" xlink:title="CameraPosition class to set camera position.">
<polygon fill="white" stroke="#666666" points="556,-370.5 438,-370.5 438,-351.5 556,-351.5 556,-370.5"/>
<text text-anchor="middle" x="497" y="-358.5" font-family="FreeSans" font-size="10.00">DGtal::CameraPosition</text>
</a>
</g>
</g>
<!-- Node1&#45;&gt;Node6 -->
<g id="edge5" class="edge">
<title>Node1&#45;&gt;Node6</title>
<path fill="none" stroke="#63b8ff" d="M315.13,-284.84C338.15,-301.96 376.25,-328.02 413,-343 420.78,-346.17 429.21,-348.82 437.62,-351.03"/>
<polygon fill="#63b8ff" stroke="#63b8ff" points="317.25,-282.06 307.16,-278.81 313.02,-287.64 317.25,-282.06"/>
</g>
<!-- Node7 -->
<g id="node7" class="node">
<title>Node7</title>
<g id="a_node7"><a xlink:href="structDGtal_1_1CameraUpVector.html" target="_top" xlink:title="CameraUpVector class to set camera up&#45;vector.">
<polygon fill="white" stroke="#666666" points="559,-333.5 435,-333.5 435,-314.5 559,-314.5 559,-333.5"/>
<text text-anchor="middle" x="497" y="-321.5" font-family="FreeSans" font-size="10.00">DGtal::CameraUpVector</text>
</a>
</g>
</g>
<!-- Node1&#45;&gt;Node7 -->
<g id="edge6" class="edge">
<title>Node1&#45;&gt;Node7</title>
<path fill="none" stroke="#63b8ff" d="M333.03,-281.6C356.18,-289.31 386.07,-298.81 413,-306 423.68,-308.85 435.23,-311.58 446.22,-314"/>
<polygon fill="#63b8ff" stroke="#63b8ff" points="334.28,-278.33 323.69,-278.47 332.05,-284.97 334.28,-278.33"/>
</g>
<!-- Node8 -->
<g id="node8" class="node">
<title>Node8</title>
<g id="a_node8"><a xlink:href="structDGtal_1_1CameraZNearFar.html" target="_top" xlink:title="CameraZNearFar class to set near and far distance.">
<polygon fill="white" stroke="#666666" points="559,-296.5 435,-296.5 435,-277.5 559,-277.5 559,-296.5"/>
<text text-anchor="middle" x="497" y="-284.5" font-family="FreeSans" font-size="10.00">DGtal::CameraZNearFar</text>
</a>
</g>
</g>
<!-- Node1&#45;&gt;Node8 -->
<g id="edge7" class="edge">
<title>Node1&#45;&gt;Node8</title>
<path fill="none" stroke="#63b8ff" d="M388.69,-276.93C404.37,-278.4 420.24,-279.89 434.8,-281.26"/>
<polygon fill="#63b8ff" stroke="#63b8ff" points="389.12,-273.46 378.83,-276.01 388.46,-280.43 389.12,-273.46"/>
</g>
<!-- Node9 -->
<g id="node9" class="node">
<title>Node9</title>
<g id="a_node9"><a xlink:href="structDGtal_1_1Translate2DDomain.html" target="_top" xlink:title="class to modify the data of an given image and also the possibility to translate it (optional).">
<polygon fill="white" stroke="#666666" points="564.5,-259.5 429.5,-259.5 429.5,-240.5 564.5,-240.5 564.5,-259.5"/>
<text text-anchor="middle" x="497" y="-247.5" font-family="FreeSans" font-size="10.00">DGtal::Translate2DDomain</text>
</a>
</g>
</g>
<!-- Node1&#45;&gt;Node9 -->
<g id="edge8" class="edge">
<title>Node1&#45;&gt;Node9</title>
<path fill="none" stroke="#63b8ff" d="M388.76,-259.53C402.43,-258.32 416.26,-257.09 429.22,-255.94"/>
<polygon fill="#63b8ff" stroke="#63b8ff" points="388.48,-256.04 378.83,-260.41 389.1,-263.02 388.48,-256.04"/>
</g>
<!-- Node10 -->
<g id="node10" class="node">
<title>Node10</title>
<g id="a_node10"><a xlink:href="structDGtal_1_1Update2DDomainPosition.html" target="_top" xlink:title="class to modify the position and orientation of an 2D domain.">
<polygon fill="white" stroke="#666666" points="577.5,-222 416.5,-222 416.5,-192 577.5,-192 577.5,-222"/>
<text text-anchor="start" x="424.5" y="-210" font-family="FreeSans" font-size="10.00">DGtal::Update2DDomainPosition</text>
<text text-anchor="middle" x="497" y="-199" font-family="FreeSans" font-size="10.00">&lt; Space, KSpace &gt;</text>
</a>
</g>
</g>
<!-- Node1&#45;&gt;Node10 -->
<g id="edge9" class="edge">
<title>Node1&#45;&gt;Node10</title>
<path fill="none" stroke="#63b8ff" d="M335.85,-254.68C358.67,-247.55 387.34,-238.68 413,-231 422.34,-228.2 432.29,-225.28 441.93,-222.47"/>
<polygon fill="#63b8ff" stroke="#63b8ff" points="335.1,-251.24 326.6,-257.57 337.19,-257.92 335.1,-251.24"/>
</g>
<!-- Node11 -->
<g id="node11" class="node">
<title>Node11</title>
<g id="a_node11"><a xlink:href="structDGtal_1_1UpdateImage3DEmbedding.html" target="_top" xlink:title="class to modify the 3d embedding of the image (useful to display not only 2D slice images)....">
<polygon fill="white" stroke="#666666" points="581,-174 413,-174 413,-144 581,-144 581,-174"/>
<text text-anchor="start" x="421" y="-162" font-family="FreeSans" font-size="10.00">DGtal::UpdateImage3DEmbedding</text>
<text text-anchor="middle" x="497" y="-151" font-family="FreeSans" font-size="10.00">&lt; Space, KSpace &gt;</text>
</a>
</g>
</g>
<!-- Node1&#45;&gt;Node11 -->
<g id="edge10" class="edge">
<title>Node1&#45;&gt;Node11</title>
<path fill="none" stroke="#63b8ff" d="M313.21,-250.77C335.88,-231.75 374.88,-201.41 413,-183 419.62,-179.8 426.74,-176.95 433.94,-174.43"/>
<polygon fill="#63b8ff" stroke="#63b8ff" points="311.04,-248.02 305.7,-257.18 315.58,-253.35 311.04,-248.02"/>
</g>
<!-- Node12 -->
<g id="node12" class="node">
<title>Node12</title>
<g id="a_node12"><a xlink:href="structDGtal_1_1UpdateImageData.html" target="_top" xlink:title="class to modify the data of an given image and also the possibility to translate it (optional).">
<polygon fill="white" stroke="#666666" points="564,-126 430,-126 430,-96 564,-96 564,-126"/>
<text text-anchor="start" x="438" y="-114" font-family="FreeSans" font-size="10.00">DGtal::UpdateImageData</text>
<text text-anchor="middle" x="497" y="-103" font-family="FreeSans" font-size="10.00">&lt; TImageType, TFunctor &gt;</text>
</a>
</g>
</g>
<!-- Node1&#45;&gt;Node12 -->
<g id="edge11" class="edge">
<title>Node1&#45;&gt;Node12</title>
<path fill="none" stroke="#63b8ff" d="M305.5,-248.89C324.68,-219.92 364.99,-165.11 413,-135 418.21,-131.73 423.88,-128.9 429.73,-126.44"/>
<polygon fill="#63b8ff" stroke="#63b8ff" points="302.73,-246.72 300.24,-257.02 308.61,-250.52 302.73,-246.72"/>
</g>
<!-- Node13 -->
<g id="node13" class="node">
<title>Node13</title>
<g id="a_node13"><a xlink:href="structDGtal_1_1UpdateImagePosition.html" target="_top" xlink:title="class to modify the position and orientation of an textured 2D image.">
<polygon fill="white" stroke="#666666" points="568,-78 426,-78 426,-48 568,-48 568,-78"/>
<text text-anchor="start" x="434" y="-66" font-family="FreeSans" font-size="10.00">DGtal::UpdateImagePosition</text>
<text text-anchor="middle" x="497" y="-55" font-family="FreeSans" font-size="10.00">&lt; Space, KSpace &gt;</text>
</a>
</g>
</g>
<!-- Node1&#45;&gt;Node13 -->
<g id="edge12" class="edge">
<title>Node1&#45;&gt;Node13</title>
<path fill="none" stroke="#63b8ff" d="M301.21,-247.87C316.59,-210.4 354.71,-129.89 413,-87 417.47,-83.71 422.38,-80.87 427.51,-78.42"/>
<polygon fill="#63b8ff" stroke="#63b8ff" points="298.01,-246.43 297.57,-257.01 304.52,-249.01 298.01,-246.43"/>
</g>
<!-- Node14 -->
<g id="node14" class="node">
<title>Node14</title>
<g id="a_node14"><a xlink:href="structDGtal_1_1UpdateLastImagePosition.html" target="_top" xlink:title="class to modify the position and orientation of an textured 2D image.">
<polygon fill="white" stroke="#666666" points="577.5,-30 416.5,-30 416.5,0 577.5,0 577.5,-30"/>
<text text-anchor="start" x="424.5" y="-18" font-family="FreeSans" font-size="10.00">DGtal::UpdateLastImagePosition</text>
<text text-anchor="middle" x="497" y="-7" font-family="FreeSans" font-size="10.00">&lt; Space, KSpace &gt;</text>
</a>
</g>
</g>
<!-- Node1&#45;&gt;Node14 -->
<g id="edge13" class="edge">
<title>Node1&#45;&gt;Node14</title>
<path fill="none" stroke="#63b8ff" d="M298.39,-247.29C310.09,-202.37 343.98,-95.46 413,-39 417.06,-35.68 421.57,-32.81 426.32,-30.34"/>
<polygon fill="#63b8ff" stroke="#63b8ff" points="295,-246.43 295.98,-256.98 301.79,-248.12 295,-246.43"/>
</g>
<!-- Node2 -->
<g id="node2" class="node">
<title>Node2</title>
<g id="a_node2"><a xlink:href="structDGtal_1_1DrawWithDisplay3DModifier.html" target="_top" xlink:title="Base class specifying the methods for classes which intend to modify a Viewer3D stream.">
<polygon fill="white" stroke="#666666" points="172,-277.5 0,-277.5 0,-258.5 172,-258.5 172,-277.5"/>
<text text-anchor="middle" x="86" y="-265.5" font-family="FreeSans" font-size="10.00">DGtal::DrawWithDisplay3DModifier</text>
</a>
</g>
</g>
<!-- Node2&#45;&gt;Node1 -->
<g id="edge1" class="edge">
<title>Node2&#45;&gt;Node1</title>
<path fill="none" stroke="#63b8ff" d="M183.59,-268C191.65,-268 199.75,-268 207.71,-268"/>
<polygon fill="#63b8ff" stroke="#63b8ff" points="183.76,-264.5 173.76,-268 183.76,-271.5 183.76,-264.5"/>
</g>
</g>
</svg>
