<?xml version="1.0" encoding="UTF-8" standalone="no"?>
<!DOCTYPE svg PUBLIC "-//W3C//DTD SVG 1.1//EN"
 "http://www.w3.org/Graphics/SVG/1.1/DTD/svg11.dtd">
<!-- Generated by graphviz version 7.0.1 (20221109.1506)
 -->
<!-- Title: LibBoard::ShapeList Pages: 1 -->
<svg width="200pt" height="192pt"
 viewBox="0.00 0.00 199.50 192.00" xmlns="http://www.w3.org/2000/svg" xmlns:xlink="http://www.w3.org/1999/xlink">
<g id="graph0" class="graph" transform="scale(1 1) rotate(0) translate(4 188)">
<title>LibBoard::ShapeList</title>
<!-- Node1 -->
<g id="node1" class="node">
<title>Node1</title>
<g id="a_node1"><a xlink:title="A group of shapes.">
<polygon fill="#999999" stroke="#666666" points="147,-129 43,-129 43,-110 147,-110 147,-129"/>
<text text-anchor="middle" x="95" y="-117" font-family="FreeSans" font-size="10.00">LibBoard::ShapeList</text>
</a>
</g>
</g>
<!-- Node3 -->
<g id="node3" class="node">
<title>Node3</title>
<g id="a_node3"><a xlink:href="classLibBoard_1_1Board.html" target="_top" xlink:title="Class for EPS, FIG or SVG drawings.">
<polygon fill="white" stroke="#666666" points="86,-74 0,-74 0,-55 86,-55 86,-74"/>
<text text-anchor="middle" x="43" y="-62" font-family="FreeSans" font-size="10.00">LibBoard::Board</text>
</a>
</g>
</g>
<!-- Node1&#45;&gt;Node3 -->
<g id="edge2" class="edge">
<title>Node1&#45;&gt;Node3</title>
<path fill="none" stroke="#63b8ff" d="M78.59,-101.78C69.71,-92.72 59.09,-81.9 51.77,-74.44"/>
<polygon fill="#63b8ff" stroke="#63b8ff" points="75.85,-103.98 85.35,-108.67 80.85,-99.08 75.85,-103.98"/>
</g>
<!-- Node5 -->
<g id="node5" class="node">
<title>Node5</title>
<g id="a_node5"><a xlink:href="structLibBoard_1_1Group.html" target="_top" xlink:title="A group of shapes. A group is basically a ShapeList except that when rendered in either an SVG of a F...">
<polygon fill="white" stroke="#666666" points="191.5,-74 104.5,-74 104.5,-55 191.5,-55 191.5,-74"/>
<text text-anchor="middle" x="148" y="-62" font-family="FreeSans" font-size="10.00">LibBoard::Group</text>
</a>
</g>
</g>
<!-- Node1&#45;&gt;Node5 -->
<g id="edge4" class="edge">
<title>Node1&#45;&gt;Node5</title>
<path fill="none" stroke="#63b8ff" d="M111.72,-101.78C120.78,-92.72 131.6,-81.9 139.06,-74.44"/>
<polygon fill="#63b8ff" stroke="#63b8ff" points="109.42,-99.13 104.82,-108.68 114.37,-104.08 109.42,-99.13"/>
</g>
<!-- Node2 -->
<g id="node2" class="node">
<title>Node2</title>
<g id="a_node2"><a xlink:href="structLibBoard_1_1Shape.html" target="_top" xlink:title="Abstract structure for a 2D shape.">
<polygon fill="white" stroke="#666666" points="139.5,-184 50.5,-184 50.5,-165 139.5,-165 139.5,-184"/>
<text text-anchor="middle" x="95" y="-172" font-family="FreeSans" font-size="10.00">LibBoard::Shape</text>
</a>
</g>
</g>
<!-- Node2&#45;&gt;Node1 -->
<g id="edge1" class="edge">
<title>Node2&#45;&gt;Node1</title>
<path fill="none" stroke="#63b8ff" d="M95,-153.35C95,-145.1 95,-135.97 95,-129.44"/>
<polygon fill="#63b8ff" stroke="#63b8ff" points="91.5,-153.23 95,-163.23 98.5,-153.23 91.5,-153.23"/>
</g>
<!-- Node4 -->
<g id="node4" class="node">
<title>Node4</title>
<g id="a_node4"><a xlink:href="classDGtal_1_1Board2D.html" target="_top" xlink:title="Aim: This class specializes a &#39;Board&#39; class so as to display DGtal objects more naturally (with &lt;&lt;)....">
<polygon fill="white" stroke="#666666" points="86,-19 0,-19 0,0 86,0 86,-19"/>
<text text-anchor="middle" x="43" y="-7" font-family="FreeSans" font-size="10.00">DGtal::Board2D</text>
</a>
</g>
</g>
<!-- Node3&#45;&gt;Node4 -->
<g id="edge3" class="edge">
<title>Node3&#45;&gt;Node4</title>
<path fill="none" stroke="#63b8ff" d="M43,-43.35C43,-35.1 43,-25.97 43,-19.44"/>
<polygon fill="#63b8ff" stroke="#63b8ff" points="39.5,-43.23 43,-53.23 46.5,-43.23 39.5,-43.23"/>
</g>
</g>
</svg>
