<?xml version="1.0" encoding="UTF-8" standalone="no"?>
<!DOCTYPE svg PUBLIC "-//W3C//DTD SVG 1.1//EN"
 "http://www.w3.org/Graphics/SVG/1.1/DTD/svg11.dtd">
<!-- Generated by graphviz version 7.0.1 (20221109.1506)
 -->
<!-- Title: testParDirCollapse.cpp Pages: 1 -->
<svg width="2884pt" height="698pt"
 viewBox="0.00 0.00 2884.01 698.00" xmlns="http://www.w3.org/2000/svg" xmlns:xlink="http://www.w3.org/1999/xlink">
<g id="graph0" class="graph" transform="scale(1 1) rotate(0) translate(4 694)">
<title>testParDirCollapse.cpp</title>
<!-- Node1 -->
<g id="node1" class="node">
<title>Node1</title>
<g id="a_node1"><a xlink:title=" ">
<polygon fill="#999999" stroke="#666666" points="1002.01,-690 884.01,-690 884.01,-671 1002.01,-671 1002.01,-690"/>
<text text-anchor="middle" x="943.01" y="-678" font-family="FreeSans" font-size="10.00">testParDirCollapse.cpp</text>
</a>
</g>
</g>
<!-- Node2 -->
<g id="node2" class="node">
<title>Node2</title>
<g id="a_node2"><a xlink:title=" ">
<polygon fill="#e0e0e0" stroke="#999999" points="1574.01,-19 1520.01,-19 1520.01,0 1574.01,0 1574.01,-19"/>
<text text-anchor="middle" x="1547.01" y="-7" font-family="FreeSans" font-size="10.00">iostream</text>
</a>
</g>
</g>
<!-- Node1&#45;&gt;Node2 -->
<g id="edge1" class="edge">
<title>Node1&#45;&gt;Node2</title>
<path fill="none" stroke="#63b8ff" d="M1002.47,-679.54C1260.83,-679.48 2287.29,-676.56 2607.01,-635 2728.83,-619.16 2876.01,-694.34 2876.01,-571.5 2876.01,-571.5 2876.01,-571.5 2876.01,-118.5 2876.01,-61.66 2819.66,-70.6 2765.01,-55 2649.48,-22.02 1780.26,-12.53 1585.61,-10.81"/>
<polygon fill="#63b8ff" stroke="#63b8ff" points="1585.82,-7.31 1575.79,-10.73 1585.76,-14.31 1585.82,-7.31"/>
</g>
<!-- Node3 -->
<g id="node3" class="node">
<title>Node3</title>
<g id="a_node3"><a xlink:href="Common_8h_source.html" target="_top" xlink:title=" ">
<polygon fill="white" stroke="#666666" points="1443.51,-250 1326.51,-250 1326.51,-231 1443.51,-231 1443.51,-250"/>
<text text-anchor="middle" x="1385.01" y="-238" font-family="FreeSans" font-size="10.00">DGtal/base/Common.h</text>
</a>
</g>
</g>
<!-- Node1&#45;&gt;Node3 -->
<g id="edge2" class="edge">
<title>Node1&#45;&gt;Node3</title>
<path fill="none" stroke="#63b8ff" d="M911.79,-670.57C892.92,-663.69 869.75,-652.36 855.01,-635 835.86,-612.44 835.01,-601.09 835.01,-571.5 835.01,-571.5 835.01,-571.5 835.01,-377 835.01,-335.68 823.07,-313.38 854.01,-286 887.83,-256.08 1178.98,-245.91 1315.23,-242.77"/>
<polygon fill="#63b8ff" stroke="#63b8ff" points="1314.91,-246.28 1324.83,-242.56 1314.76,-239.28 1314.91,-246.28"/>
</g>
<!-- Node44 -->
<g id="node26" class="node">
<title>Node44</title>
<g id="a_node26"><a xlink:title=" ">
<polygon fill="#e0e0e0" stroke="#999999" points="731.01,-635 659.01,-635 659.01,-616 731.01,-616 731.01,-635"/>
<text text-anchor="middle" x="695.01" y="-623" font-family="FreeSans" font-size="10.00">ConfigTest.h</text>
</a>
</g>
</g>
<!-- Node1&#45;&gt;Node44 -->
<g id="edge46" class="edge">
<title>Node1&#45;&gt;Node44</title>
<path fill="none" stroke="#63b8ff" d="M900.94,-670.51C856.99,-661.12 788.18,-646.41 742.35,-636.62"/>
<polygon fill="#63b8ff" stroke="#63b8ff" points="743.22,-633.22 732.71,-634.56 741.75,-640.07 743.22,-633.22"/>
</g>
<!-- Node45 -->
<g id="node27" class="node">
<title>Node45</title>
<g id="a_node27"><a xlink:href="DGtalCatch_8h_source.html" target="_top" xlink:title=" ">
<polygon fill="white" stroke="#666666" points="640.51,-635 563.51,-635 563.51,-616 640.51,-616 640.51,-635"/>
<text text-anchor="middle" x="602.01" y="-623" font-family="FreeSans" font-size="10.00">DGtalCatch.h</text>
</a>
</g>
</g>
<!-- Node1&#45;&gt;Node45 -->
<g id="edge47" class="edge">
<title>Node1&#45;&gt;Node45</title>
<path fill="none" stroke="#63b8ff" d="M883.74,-670.93C826.93,-662.63 738.48,-649.43 651.87,-635.27"/>
<polygon fill="#63b8ff" stroke="#63b8ff" points="652.7,-631.86 642.26,-633.69 651.56,-638.77 652.7,-631.86"/>
</g>
<!-- Node47 -->
<g id="node29" class="node">
<title>Node47</title>
<g id="a_node29"><a xlink:href="StdDefs_8h_source.html" target="_top" xlink:title=" ">
<polygon fill="white" stroke="#666666" points="1584.01,-580 1460.01,-580 1460.01,-561 1584.01,-561 1584.01,-580"/>
<text text-anchor="middle" x="1522.01" y="-568" font-family="FreeSans" font-size="10.00">DGtal/helpers/StdDefs.h</text>
</a>
</g>
</g>
<!-- Node1&#45;&gt;Node47 -->
<g id="edge49" class="edge">
<title>Node1&#45;&gt;Node47</title>
<path fill="none" stroke="#63b8ff" d="M990.88,-670.57C1096.29,-650.91 1348.17,-603.93 1463.07,-582.49"/>
<polygon fill="#63b8ff" stroke="#63b8ff" points="1463.4,-585.99 1472.59,-580.72 1462.12,-579.11 1463.4,-585.99"/>
</g>
<!-- Node163 -->
<g id="node43" class="node">
<title>Node163</title>
<g id="a_node43"><a xlink:href="CubicalComplex_8h_source.html" target="_top" xlink:title=" ">
<polygon fill="#fff0f0" stroke="red" points="539.51,-387.5 374.51,-387.5 374.51,-368.5 539.51,-368.5 539.51,-387.5"/>
<text text-anchor="middle" x="457.01" y="-375.5" font-family="FreeSans" font-size="10.00">DGtal/topology/CubicalComplex.h</text>
</a>
</g>
</g>
<!-- Node1&#45;&gt;Node163 -->
<g id="edge101" class="edge">
<title>Node1&#45;&gt;Node163</title>
<path fill="none" stroke="#63b8ff" d="M883.66,-678.23C789.07,-675.31 609.14,-665.76 554.01,-635 522.64,-617.5 504.01,-607.42 504.01,-571.5 504.01,-571.5 504.01,-571.5 504.01,-509 504.01,-467.17 482.22,-422.03 468.31,-397.49"/>
<polygon fill="#63b8ff" stroke="#63b8ff" points="471.44,-395.9 463.35,-389.05 465.4,-399.44 471.44,-395.9"/>
</g>
<!-- Node172 -->
<g id="node46" class="node">
<title>Node172</title>
<g id="a_node46"><a xlink:href="ParDirCollapse_8h_source.html" target="_top" xlink:title=" ">
<polygon fill="#fff0f0" stroke="red" points="1022.51,-635 863.51,-635 863.51,-616 1022.51,-616 1022.51,-635"/>
<text text-anchor="middle" x="943.01" y="-623" font-family="FreeSans" font-size="10.00">DGtal/topology/ParDirCollapse.h</text>
</a>
</g>
</g>
<!-- Node1&#45;&gt;Node172 -->
<g id="edge110" class="edge">
<title>Node1&#45;&gt;Node172</title>
<path fill="none" stroke="#63b8ff" d="M943.01,-670.75C943.01,-664.27 943.01,-655.16 943.01,-646.9"/>
<polygon fill="#63b8ff" stroke="#63b8ff" points="946.51,-646.96 943.01,-636.96 939.51,-646.96 946.51,-646.96"/>
</g>
<!-- Node176 -->
<g id="node47" class="node">
<title>Node176</title>
<g id="a_node47"><a xlink:href="GaussDigitizer_8h_source.html" target="_top" xlink:title=" ">
<polygon fill="#fff0f0" stroke="red" points="2636.01,-387.5 2484.01,-387.5 2484.01,-368.5 2636.01,-368.5 2636.01,-387.5"/>
<text text-anchor="middle" x="2560.01" y="-375.5" font-family="FreeSans" font-size="10.00">DGtal/shapes/GaussDigitizer.h</text>
</a>
</g>
</g>
<!-- Node1&#45;&gt;Node176 -->
<g id="edge114" class="edge">
<title>Node1&#45;&gt;Node176</title>
<path fill="none" stroke="#63b8ff" d="M1002.27,-679.01C1308.14,-676.12 2694.01,-658.21 2694.01,-571.5 2694.01,-571.5 2694.01,-571.5 2694.01,-509 2694.01,-452.29 2631.42,-412.38 2591.79,-392.79"/>
<polygon fill="#63b8ff" stroke="#63b8ff" points="2593.44,-389.69 2582.91,-388.56 2590.44,-396.02 2593.44,-389.69"/>
</g>
<!-- Node182 -->
<g id="node48" class="node">
<title>Node182</title>
<g id="a_node48"><a xlink:href="DGtal_2shapes_2Shapes_8h_source.html" target="_top" xlink:title=" ">
<polygon fill="#fff0f0" stroke="red" points="2529.51,-519.5 2408.51,-519.5 2408.51,-500.5 2529.51,-500.5 2529.51,-519.5"/>
<text text-anchor="middle" x="2469.01" y="-507.5" font-family="FreeSans" font-size="10.00">DGtal/shapes/Shapes.h</text>
</a>
</g>
</g>
<!-- Node1&#45;&gt;Node182 -->
<g id="edge119" class="edge">
<title>Node1&#45;&gt;Node182</title>
<path fill="none" stroke="#63b8ff" d="M1002.31,-674.87C1200.23,-659.04 1856.02,-603.73 2394.01,-525 2400.31,-524.08 2406.88,-523.01 2413.41,-521.88"/>
<polygon fill="#63b8ff" stroke="#63b8ff" points="2413.57,-525.41 2422.8,-520.21 2412.34,-518.52 2413.57,-525.41"/>
</g>
<!-- Node193 -->
<g id="node49" class="node">
<title>Node193</title>
<g id="a_node49"><a xlink:href="EuclideanShapesDecorator_8h_source.html" target="_top" xlink:title=" ">
<polygon fill="#fff0f0" stroke="red" points="2809.51,-393 2654.51,-393 2654.51,-363 2809.51,-363 2809.51,-393"/>
<text text-anchor="start" x="2662.51" y="-381" font-family="FreeSans" font-size="10.00">DGtal/shapes/EuclideanShapes</text>
<text text-anchor="middle" x="2732.01" y="-370" font-family="FreeSans" font-size="10.00">Decorator.h</text>
</a>
</g>
</g>
<!-- Node1&#45;&gt;Node193 -->
<g id="edge125" class="edge">
<title>Node1&#45;&gt;Node193</title>
<path fill="none" stroke="#63b8ff" d="M1002.25,-679.31C1246.27,-678.3 2174.43,-672.04 2465.01,-635 2586.01,-619.57 2732.01,-693.48 2732.01,-571.5 2732.01,-571.5 2732.01,-571.5 2732.01,-509 2732.01,-472.76 2732.01,-430.84 2732.01,-404.62"/>
<polygon fill="#63b8ff" stroke="#63b8ff" points="2735.51,-404.94 2732.01,-394.94 2728.51,-404.94 2735.51,-404.94"/>
</g>
<!-- Node194 -->
<g id="node50" class="node">
<title>Node194</title>
<g id="a_node50"><a xlink:href="Flower2D_8h_source.html" target="_top" xlink:title=" ">
<polygon fill="#fff0f0" stroke="red" points="586.51,-321.5 461.51,-321.5 461.51,-291.5 586.51,-291.5 586.51,-321.5"/>
<text text-anchor="start" x="469.51" y="-309.5" font-family="FreeSans" font-size="10.00">DGtal/shapes/parametric</text>
<text text-anchor="middle" x="524.01" y="-298.5" font-family="FreeSans" font-size="10.00">/Flower2D.h</text>
</a>
</g>
</g>
<!-- Node1&#45;&gt;Node194 -->
<g id="edge129" class="edge">
<title>Node1&#45;&gt;Node194</title>
<path fill="none" stroke="#63b8ff" d="M885.55,-670.5C831.56,-658.39 759.01,-631.04 759.01,-571.5 759.01,-571.5 759.01,-571.5 759.01,-443 759.01,-401.09 645.42,-351.96 576.19,-325.91"/>
<polygon fill="#63b8ff" stroke="#63b8ff" points="577.49,-322.66 566.9,-322.46 575.06,-329.22 577.49,-322.66"/>
</g>
<!-- Node3&#45;&gt;Node2 -->
<g id="edge3" class="edge">
<title>Node3&#45;&gt;Node2</title>
<path fill="none" stroke="#63b8ff" d="M1326.04,-231.05C1266.45,-221.9 1181.78,-207.02 1172.01,-195 1163.6,-184.65 1163.69,-175.42 1172.01,-165 1200.6,-129.22 1545.42,-109.78 1574.01,-74 1585.07,-60.16 1574.34,-41.12 1563.31,-27.51"/>
<polygon fill="#63b8ff" stroke="#63b8ff" points="1566.12,-25.41 1556.89,-20.22 1560.87,-30.03 1566.12,-25.41"/>
</g>
<!-- Node4 -->
<g id="node4" class="node">
<title>Node4</title>
<g id="a_node4"><a xlink:title=" ">
<polygon fill="#e0e0e0" stroke="#999999" points="2027.51,-189.5 1968.51,-189.5 1968.51,-170.5 2027.51,-170.5 2027.51,-189.5"/>
<text text-anchor="middle" x="1998.01" y="-177.5" font-family="FreeSans" font-size="10.00">exception</text>
</a>
</g>
</g>
<!-- Node3&#45;&gt;Node4 -->
<g id="edge4" class="edge">
<title>Node3&#45;&gt;Node4</title>
<path fill="none" stroke="#63b8ff" d="M1444.01,-240.08C1548.86,-239.98 1774.05,-234.62 1959.01,-195 1961.17,-194.54 1963.38,-193.98 1965.59,-193.37"/>
<polygon fill="#63b8ff" stroke="#63b8ff" points="1966.54,-196.74 1975,-190.36 1964.41,-190.07 1966.54,-196.74"/>
</g>
<!-- Node5 -->
<g id="node5" class="node">
<title>Node5</title>
<g id="a_node5"><a xlink:title=" ">
<polygon fill="#e0e0e0" stroke="#999999" points="528.01,-129 472.01,-129 472.01,-110 528.01,-110 528.01,-129"/>
<text text-anchor="middle" x="500.01" y="-117" font-family="FreeSans" font-size="10.00">algorithm</text>
</a>
</g>
</g>
<!-- Node3&#45;&gt;Node5 -->
<g id="edge5" class="edge">
<title>Node3&#45;&gt;Node5</title>
<path fill="none" stroke="#63b8ff" d="M1326.07,-232.35C1321.32,-231.86 1316.59,-231.4 1312.01,-231 1179.4,-219.3 839.75,-238.72 714.01,-195 692,-187.35 692.17,-174.75 671.01,-165 647.79,-154.3 582.29,-138.66 539.43,-129.06"/>
<polygon fill="#63b8ff" stroke="#63b8ff" points="540.26,-125.66 529.74,-126.9 538.74,-132.49 540.26,-125.66"/>
</g>
<!-- Node6 -->
<g id="node6" class="node">
<title>Node6</title>
<g id="a_node6"><a xlink:title=" ">
<polygon fill="#e0e0e0" stroke="#999999" points="2140.01,-189.5 2046.01,-189.5 2046.01,-170.5 2140.01,-170.5 2140.01,-189.5"/>
<text text-anchor="middle" x="2093.01" y="-177.5" font-family="FreeSans" font-size="10.00">boost/version.hpp</text>
</a>
</g>
</g>
<!-- Node3&#45;&gt;Node6 -->
<g id="edge6" class="edge">
<title>Node3&#45;&gt;Node6</title>
<path fill="none" stroke="#63b8ff" d="M1443.84,-238.96C1558.62,-237.14 1820.15,-229.23 2037.01,-195 2041.34,-194.32 2045.83,-193.46 2050.29,-192.5"/>
<polygon fill="#63b8ff" stroke="#63b8ff" points="2050.8,-195.98 2059.75,-190.32 2049.22,-189.16 2050.8,-195.98"/>
</g>
<!-- Node7 -->
<g id="node7" class="node">
<title>Node7</title>
<g id="a_node7"><a xlink:title=" ">
<polygon fill="#e0e0e0" stroke="#999999" points="2286.01,-189.5 2158.01,-189.5 2158.01,-170.5 2286.01,-170.5 2286.01,-189.5"/>
<text text-anchor="middle" x="2222.01" y="-177.5" font-family="FreeSans" font-size="10.00">boost/concept_check.hpp</text>
</a>
</g>
</g>
<!-- Node3&#45;&gt;Node7 -->
<g id="edge7" class="edge">
<title>Node3&#45;&gt;Node7</title>
<path fill="none" stroke="#63b8ff" d="M1443.72,-238.7C1572.1,-236.39 1887.3,-227.57 2149.01,-195 2155.57,-194.18 2162.43,-193.13 2169.21,-191.97"/>
<polygon fill="#63b8ff" stroke="#63b8ff" points="2169.76,-195.43 2178.98,-190.21 2168.52,-188.54 2169.76,-195.43"/>
</g>
<!-- Node8 -->
<g id="node8" class="node">
<title>Node8</title>
<g id="a_node8"><a xlink:title=" ">
<polygon fill="#e0e0e0" stroke="#999999" points="1299.51,-189.5 1180.51,-189.5 1180.51,-170.5 1299.51,-170.5 1299.51,-189.5"/>
<text text-anchor="middle" x="1240.01" y="-177.5" font-family="FreeSans" font-size="10.00">boost/static_assert.hpp</text>
</a>
</g>
</g>
<!-- Node3&#45;&gt;Node8 -->
<g id="edge8" class="edge">
<title>Node3&#45;&gt;Node8</title>
<path fill="none" stroke="#63b8ff" d="M1362.99,-230.62C1338.93,-220.91 1300.14,-205.26 1272.57,-194.14"/>
<polygon fill="#63b8ff" stroke="#63b8ff" points="1274.23,-191.03 1263.64,-190.53 1271.61,-197.52 1274.23,-191.03"/>
</g>
<!-- Node9 -->
<g id="node9" class="node">
<title>Node9</title>
<g id="a_node9"><a xlink:title=" ">
<polygon fill="#e0e0e0" stroke="#999999" points="1444.51,-189.5 1317.51,-189.5 1317.51,-170.5 1444.51,-170.5 1444.51,-189.5"/>
<text text-anchor="middle" x="1381.01" y="-177.5" font-family="FreeSans" font-size="10.00">boost/concept/assert.hpp</text>
</a>
</g>
</g>
<!-- Node3&#45;&gt;Node9 -->
<g id="edge9" class="edge">
<title>Node3&#45;&gt;Node9</title>
<path fill="none" stroke="#63b8ff" d="M1384.42,-230.87C1383.88,-223 1383.07,-211.1 1382.37,-200.89"/>
<polygon fill="#63b8ff" stroke="#63b8ff" points="1385.88,-200.92 1381.71,-191.18 1378.9,-201.39 1385.88,-200.92"/>
</g>
<!-- Node10 -->
<g id="node10" class="node">
<title>Node10</title>
<g id="a_node10"><a xlink:title=" ">
<polygon fill="#e0e0e0" stroke="#999999" points="1597.01,-189.5 1463.01,-189.5 1463.01,-170.5 1597.01,-170.5 1597.01,-189.5"/>
<text text-anchor="middle" x="1530.01" y="-177.5" font-family="FreeSans" font-size="10.00">boost/concept/requires.hpp</text>
</a>
</g>
</g>
<!-- Node3&#45;&gt;Node10 -->
<g id="edge10" class="edge">
<title>Node3&#45;&gt;Node10</title>
<path fill="none" stroke="#63b8ff" d="M1407.03,-230.62C1431.09,-220.91 1469.88,-205.26 1497.45,-194.14"/>
<polygon fill="#63b8ff" stroke="#63b8ff" points="1498.41,-197.52 1506.38,-190.53 1495.79,-191.03 1498.41,-197.52"/>
</g>
<!-- Node11 -->
<g id="node11" class="node">
<title>Node11</title>
<g id="a_node11"><a xlink:title=" ">
<polygon fill="#e0e0e0" stroke="#999999" points="1722.51,-195 1615.51,-195 1615.51,-165 1722.51,-165 1722.51,-195"/>
<text text-anchor="start" x="1623.51" y="-183" font-family="FreeSans" font-size="10.00">boost/iterator/iterator</text>
<text text-anchor="middle" x="1669.01" y="-172" font-family="FreeSans" font-size="10.00">_concepts.hpp</text>
</a>
</g>
</g>
<!-- Node3&#45;&gt;Node11 -->
<g id="edge11" class="edge">
<title>Node3&#45;&gt;Node11</title>
<path fill="none" stroke="#63b8ff" d="M1430.78,-230.56C1473.15,-222.22 1538.2,-209.27 1604.07,-195.39"/>
<polygon fill="#63b8ff" stroke="#63b8ff" points="1604.53,-198.87 1613.59,-193.37 1603.08,-192.02 1604.53,-198.87"/>
</g>
<!-- Node12 -->
<g id="node12" class="node">
<title>Node12</title>
<g id="a_node12"><a xlink:title=" ">
<polygon fill="#e0e0e0" stroke="#999999" points="1885.51,-189.5 1740.51,-189.5 1740.51,-170.5 1885.51,-170.5 1885.51,-189.5"/>
<text text-anchor="middle" x="1813.01" y="-177.5" font-family="FreeSans" font-size="10.00">boost/concept_archetype.hpp</text>
</a>
</g>
</g>
<!-- Node3&#45;&gt;Node12 -->
<g id="edge12" class="edge">
<title>Node3&#45;&gt;Node12</title>
<path fill="none" stroke="#63b8ff" d="M1443.75,-232.76C1512.85,-224.65 1630.96,-210.2 1732.01,-195 1738.52,-194.02 1745.31,-192.94 1752.08,-191.83"/>
<polygon fill="#63b8ff" stroke="#63b8ff" points="1752.6,-195.29 1761.88,-190.18 1751.44,-188.38 1752.6,-195.29"/>
</g>
<!-- Node13 -->
<g id="node13" class="node">
<title>Node13</title>
<g id="a_node13"><a xlink:title=" ">
<polygon fill="#e0e0e0" stroke="#999999" points="352.01,-129 308.01,-129 308.01,-110 352.01,-110 352.01,-129"/>
<text text-anchor="middle" x="330.01" y="-117" font-family="FreeSans" font-size="10.00">cmath</text>
</a>
</g>
</g>
<!-- Node3&#45;&gt;Node13 -->
<g id="edge13" class="edge">
<title>Node3&#45;&gt;Node13</title>
<path fill="none" stroke="#63b8ff" d="M1326.02,-239.06C1156.21,-237.37 668.47,-229.57 513.01,-195 454.75,-182.04 391.14,-152.28 356.38,-134.55"/>
<polygon fill="#63b8ff" stroke="#63b8ff" points="358.38,-131.64 347.89,-130.16 355.17,-137.86 358.38,-131.64"/>
</g>
<!-- Node14 -->
<g id="node14" class="node">
<title>Node14</title>
<g id="a_node14"><a xlink:title=" ">
<polygon fill="#e0e0e0" stroke="#999999" points="1950.01,-189.5 1904.01,-189.5 1904.01,-170.5 1950.01,-170.5 1950.01,-189.5"/>
<text text-anchor="middle" x="1927.01" y="-177.5" font-family="FreeSans" font-size="10.00">stdio.h</text>
</a>
</g>
</g>
<!-- Node3&#45;&gt;Node14 -->
<g id="edge14" class="edge">
<title>Node3&#45;&gt;Node14</title>
<path fill="none" stroke="#63b8ff" d="M1443.78,-236.77C1559.08,-231.03 1811.04,-216.42 1895.01,-195 1896.37,-194.65 1897.74,-194.26 1899.11,-193.82"/>
<polygon fill="#63b8ff" stroke="#63b8ff" points="1899.91,-197.26 1908.02,-190.44 1897.43,-190.72 1899.91,-197.26"/>
</g>
<!-- Node15 -->
<g id="node15" class="node">
<title>Node15</title>
<g id="a_node15"><a xlink:href="Config_8h_source.html" target="_top" xlink:title=" ">
<polygon fill="white" stroke="#666666" points="791.01,-74 685.01,-74 685.01,-55 791.01,-55 791.01,-74"/>
<text text-anchor="middle" x="738.01" y="-62" font-family="FreeSans" font-size="10.00">DGtal/base/Config.h</text>
</a>
</g>
</g>
<!-- Node3&#45;&gt;Node15 -->
<g id="edge15" class="edge">
<title>Node3&#45;&gt;Node15</title>
<path fill="none" stroke="#63b8ff" d="M1326.07,-232.37C1321.32,-231.87 1316.59,-231.41 1312.01,-231 1185.6,-219.66 859.6,-242.77 742.01,-195 723.03,-187.29 725.11,-174.6 707.01,-165 653.28,-136.52 611.92,-177.33 575.01,-129 569.88,-122.29 569.89,-116.71 575.01,-110 587.26,-93.96 633.41,-82.31 673.49,-74.96"/>
<polygon fill="#63b8ff" stroke="#63b8ff" points="673.87,-78.45 683.11,-73.27 672.66,-71.56 673.87,-78.45"/>
</g>
<!-- Node17 -->
<g id="node17" class="node">
<title>Node17</title>
<g id="a_node17"><a xlink:href="Trace_8h_source.html" target="_top" xlink:title=" ">
<polygon fill="#fff0f0" stroke="red" points="896.01,-189.5 794.01,-189.5 794.01,-170.5 896.01,-170.5 896.01,-189.5"/>
<text text-anchor="middle" x="845.01" y="-177.5" font-family="FreeSans" font-size="10.00">DGtal/base/Trace.h</text>
</a>
</g>
</g>
<!-- Node3&#45;&gt;Node17 -->
<g id="edge18" class="edge">
<title>Node3&#45;&gt;Node17</title>
<path fill="none" stroke="#63b8ff" d="M1326.06,-232.5C1321.31,-231.98 1316.58,-231.47 1312.01,-231 1133.57,-212.63 1087.36,-221.94 910.01,-195 904.72,-194.2 899.22,-193.23 893.76,-192.18"/>
<polygon fill="#63b8ff" stroke="#63b8ff" points="894.65,-188.79 884.16,-190.23 893.26,-195.65 894.65,-188.79"/>
</g>
<!-- Node24 -->
<g id="node18" class="node">
<title>Node24</title>
<g id="a_node18"><a xlink:href="TraceWriterTerm_8h_source.html" target="_top" xlink:title=" ">
<polygon fill="#fff0f0" stroke="red" points="933.51,-129 784.51,-129 784.51,-110 933.51,-110 933.51,-129"/>
<text text-anchor="middle" x="859.01" y="-117" font-family="FreeSans" font-size="10.00">DGtal/base/TraceWriterTerm.h</text>
</a>
</g>
</g>
<!-- Node3&#45;&gt;Node24 -->
<g id="edge29" class="edge">
<title>Node3&#45;&gt;Node24</title>
<path fill="none" stroke="#63b8ff" d="M1326.05,-232.55C1321.3,-232.01 1316.58,-231.49 1312.01,-231 1150.38,-213.6 1097.89,-257.97 948.01,-195 932,-188.27 897.2,-156.83 876.17,-137"/>
<polygon fill="#63b8ff" stroke="#63b8ff" points="878.85,-134.72 869.19,-130.37 874.03,-139.79 878.85,-134.72"/>
</g>
<!-- Node25 -->
<g id="node19" class="node">
<title>Node25</title>
<g id="a_node19"><a xlink:href="Assert_8h_source.html" target="_top" xlink:title=" ">
<polygon fill="#fff0f0" stroke="red" points="690.01,-129 584.01,-129 584.01,-110 690.01,-110 690.01,-129"/>
<text text-anchor="middle" x="637.01" y="-117" font-family="FreeSans" font-size="10.00">DGtal/base/Assert.h</text>
</a>
</g>
</g>
<!-- Node3&#45;&gt;Node25 -->
<g id="edge33" class="edge">
<title>Node3&#45;&gt;Node25</title>
<path fill="none" stroke="#63b8ff" d="M1326.07,-232.39C1321.32,-231.89 1316.58,-231.42 1312.01,-231 1195.12,-220.21 895.73,-234 785.01,-195 763.03,-187.26 762.4,-176.27 742.01,-165 719.69,-152.66 693.24,-141.47 672.47,-133.4"/>
<polygon fill="#63b8ff" stroke="#63b8ff" points="673.88,-130.19 663.29,-129.9 671.39,-136.73 673.88,-130.19"/>
</g>
<!-- Node28 -->
<g id="node20" class="node">
<title>Node28</title>
<g id="a_node20"><a xlink:href="TraceWriterFile_8h_source.html" target="_top" xlink:title=" ">
<polygon fill="#fff0f0" stroke="red" points="1028.51,-74 885.51,-74 885.51,-55 1028.51,-55 1028.51,-74"/>
<text text-anchor="middle" x="957.01" y="-62" font-family="FreeSans" font-size="10.00">DGtal/base/TraceWriterFile.h</text>
</a>
</g>
</g>
<!-- Node3&#45;&gt;Node28 -->
<g id="edge30" class="edge">
<title>Node3&#45;&gt;Node28</title>
<path fill="none" stroke="#63b8ff" d="M1326.11,-232.62C1221.86,-220.42 1015.57,-196.15 1014.01,-195 978.25,-168.5 964.56,-114.64 959.61,-85.43"/>
<polygon fill="#63b8ff" stroke="#63b8ff" points="963.1,-85.11 958.16,-75.74 956.18,-86.15 963.1,-85.11"/>
</g>
<!-- Node29 -->
<g id="node21" class="node">
<title>Node29</title>
<g id="a_node21"><a xlink:href="ConceptUtils_8h_source.html" target="_top" xlink:title=" ">
<polygon fill="white" stroke="#666666" points="1162.01,-129 1028.01,-129 1028.01,-110 1162.01,-110 1162.01,-129"/>
<text text-anchor="middle" x="1095.01" y="-117" font-family="FreeSans" font-size="10.00">DGtal/base/ConceptUtils.h</text>
</a>
</g>
</g>
<!-- Node3&#45;&gt;Node29 -->
<g id="edge34" class="edge">
<title>Node3&#45;&gt;Node29</title>
<path fill="none" stroke="#63b8ff" d="M1326.05,-232.48C1224.03,-220.3 1025.25,-196.41 1024.01,-195 1015.18,-185.01 1017.55,-176.67 1024.01,-165 1031.59,-151.31 1045.34,-141.26 1058.73,-134.22"/>
<polygon fill="#63b8ff" stroke="#63b8ff" points="1059.91,-137.53 1067.43,-130.06 1056.9,-131.22 1059.91,-137.53"/>
</g>
<!-- Node30 -->
<g id="node22" class="node">
<title>Node30</title>
<g id="a_node22"><a xlink:href="BasicTypes_8h_source.html" target="_top" xlink:title=" ">
<polygon fill="#fff0f0" stroke="red" points="1251.01,-74 1123.01,-74 1123.01,-55 1251.01,-55 1251.01,-74"/>
<text text-anchor="middle" x="1187.01" y="-62" font-family="FreeSans" font-size="10.00">DGtal/base/BasicTypes.h</text>
</a>
</g>
</g>
<!-- Node3&#45;&gt;Node30 -->
<g id="edge36" class="edge">
<title>Node3&#45;&gt;Node30</title>
<path fill="none" stroke="#63b8ff" d="M1326.35,-232.66C1242.27,-222.57 1096.7,-203.93 1089.01,-195 1042.05,-140.45 1152.38,-151.04 1171.01,-129 1181.24,-116.9 1185.07,-99.16 1186.44,-85.5"/>
<polygon fill="#63b8ff" stroke="#63b8ff" points="1189.91,-86.1 1187.03,-75.9 1182.93,-85.67 1189.91,-86.1"/>
</g>
<!-- Node33 -->
<g id="node23" class="node">
<title>Node33</title>
<g id="a_node23"><a xlink:href="BasicFunctors_8h_source.html" target="_top" xlink:title=" ">
<polygon fill="#fff0f0" stroke="red" points="662.01,-189.5 522.01,-189.5 522.01,-170.5 662.01,-170.5 662.01,-189.5"/>
<text text-anchor="middle" x="592.01" y="-177.5" font-family="FreeSans" font-size="10.00">DGtal/base/BasicFunctors.h</text>
</a>
</g>
</g>
<!-- Node3&#45;&gt;Node33 -->
<g id="edge38" class="edge">
<title>Node3&#45;&gt;Node33</title>
<path fill="none" stroke="#63b8ff" d="M1326.29,-233.3C1318.43,-232.45 1310.51,-231.65 1303.01,-231 1020.94,-206.62 948.39,-226.32 667.01,-195 659.12,-194.12 650.84,-193 642.78,-191.77"/>
<polygon fill="#63b8ff" stroke="#63b8ff" points="643.49,-188.34 633.06,-190.21 642.38,-195.25 643.49,-188.34"/>
</g>
<!-- Node42 -->
<g id="node24" class="node">
<title>Node42</title>
<g id="a_node24"><a xlink:href="BasicArchetypes_8h_source.html" target="_top" xlink:title=" ">
<polygon fill="white" stroke="#666666" points="1421.01,-74 1269.01,-74 1269.01,-55 1421.01,-55 1421.01,-74"/>
<text text-anchor="middle" x="1345.01" y="-62" font-family="FreeSans" font-size="10.00">DGtal/base/BasicArchetypes.h</text>
</a>
</g>
</g>
<!-- Node3&#45;&gt;Node42 -->
<g id="edge42" class="edge">
<title>Node3&#45;&gt;Node42</title>
<path fill="none" stroke="#63b8ff" d="M1326.17,-232.28C1244.88,-222.03 1107.33,-203.55 1100.01,-195 1091.34,-184.87 1092.28,-175.86 1100.01,-165 1128.38,-125.16 1158.55,-147.06 1204.01,-129 1243.44,-113.33 1287.91,-92.81 1316.18,-79.4"/>
<polygon fill="#63b8ff" stroke="#63b8ff" points="1317.65,-82.58 1325.17,-75.11 1314.64,-76.26 1317.65,-82.58"/>
</g>
<!-- Node43 -->
<g id="node25" class="node">
<title>Node43</title>
<g id="a_node25"><a xlink:href="Exceptions_8h_source.html" target="_top" xlink:title=" ">
<polygon fill="white" stroke="#666666" points="1565.01,-74 1439.01,-74 1439.01,-55 1565.01,-55 1565.01,-74"/>
<text text-anchor="middle" x="1502.01" y="-62" font-family="FreeSans" font-size="10.00">DGtal/base/Exceptions.h</text>
</a>
</g>
</g>
<!-- Node3&#45;&gt;Node43 -->
<g id="edge44" class="edge">
<title>Node3&#45;&gt;Node43</title>
<path fill="none" stroke="#63b8ff" d="M1326.17,-230.83C1255.05,-220.06 1144.06,-202.24 1138.01,-195 1129.46,-184.77 1129.92,-175.6 1138.01,-165 1147.77,-152.21 1356.95,-100.45 1453.7,-77.06"/>
<polygon fill="#63b8ff" stroke="#63b8ff" points="1454.27,-80.53 1463.17,-74.78 1452.63,-73.72 1454.27,-80.53"/>
</g>
<!-- Node15&#45;&gt;Node2 -->
<g id="edge16" class="edge">
<title>Node15&#45;&gt;Node2</title>
<path fill="none" stroke="#63b8ff" d="M791.41,-58.99C807.95,-57.65 826.23,-56.21 843.01,-55 1096.77,-36.71 1402.28,-18.8 1508.45,-12.7"/>
<polygon fill="#63b8ff" stroke="#63b8ff" points="1508.52,-16.2 1518.31,-12.13 1508.12,-9.21 1508.52,-16.2"/>
</g>
<!-- Node16 -->
<g id="node16" class="node">
<title>Node16</title>
<g id="a_node16"><a xlink:title=" ">
<polygon fill="#e0e0e0" stroke="#999999" points="639.51,-19 598.51,-19 598.51,0 639.51,0 639.51,-19"/>
<text text-anchor="middle" x="619.01" y="-7" font-family="FreeSans" font-size="10.00">string</text>
</a>
</g>
</g>
<!-- Node15&#45;&gt;Node16 -->
<g id="edge17" class="edge">
<title>Node15&#45;&gt;Node16</title>
<path fill="none" stroke="#63b8ff" d="M717.82,-54.51C698.99,-46.12 670.65,-33.5 649.14,-23.92"/>
<polygon fill="#63b8ff" stroke="#63b8ff" points="650.84,-20.85 640.28,-19.97 647.99,-27.24 650.84,-20.85"/>
</g>
<!-- Node17&#45;&gt;Node2 -->
<g id="edge19" class="edge">
<title>Node17&#45;&gt;Node2</title>
<path fill="none" stroke="#63b8ff" d="M862.51,-170.18C917.58,-142.43 1084.5,-58.57 1097.01,-55 1244.75,-12.85 1429.59,-9.14 1508.47,-9.73"/>
<polygon fill="#63b8ff" stroke="#63b8ff" points="1508.21,-13.23 1518.24,-9.83 1508.28,-6.23 1508.21,-13.23"/>
</g>
<!-- Node17&#45;&gt;Node15 -->
<g id="edge21" class="edge">
<title>Node17&#45;&gt;Node15</title>
<path fill="none" stroke="#63b8ff" d="M829.07,-170.04C814.09,-161.05 791.7,-146.13 776.01,-129 763.81,-115.68 753.55,-97.83 746.77,-84.45"/>
<polygon fill="#63b8ff" stroke="#63b8ff" points="750.1,-83.3 742.6,-75.82 743.8,-86.35 750.1,-83.3"/>
</g>
<!-- Node17&#45;&gt;Node16 -->
<g id="edge20" class="edge">
<title>Node17&#45;&gt;Node16</title>
<path fill="none" stroke="#63b8ff" d="M826.73,-170.11C794.29,-153.83 725.43,-116.92 676.01,-74 659.81,-59.93 643.69,-41.45 632.75,-28.06"/>
<polygon fill="#63b8ff" stroke="#63b8ff" points="635.7,-26.15 626.72,-20.53 630.24,-30.52 635.7,-26.15"/>
</g>
<!-- Node17&#45;&gt;Node24 -->
<g id="edge22" class="edge">
<title>Node17&#45;&gt;Node24</title>
<path fill="none" stroke="#63b8ff" d="M847.08,-170.37C848.98,-162.42 851.87,-150.33 854.33,-140.05"/>
<polygon fill="#63b8ff" stroke="#63b8ff" points="857.66,-141.18 856.58,-130.64 850.85,-139.55 857.66,-141.18"/>
</g>
<!-- Node17&#45;&gt;Node25 -->
<g id="edge26" class="edge">
<title>Node17&#45;&gt;Node25</title>
<path fill="none" stroke="#63b8ff" d="M808.41,-170.12C770.72,-160.11 712.49,-143.79 674.49,-132.62"/>
<polygon fill="#63b8ff" stroke="#63b8ff" points="675.9,-129.38 665.32,-129.9 673.92,-136.09 675.9,-129.38"/>
</g>
<!-- Node24&#45;&gt;Node2 -->
<g id="edge23" class="edge">
<title>Node24&#45;&gt;Node2</title>
<path fill="none" stroke="#63b8ff" d="M858.6,-109.86C858.45,-95.85 860.44,-68.41 877.01,-55 926.16,-15.22 1373.2,-10.9 1508.43,-10.51"/>
<polygon fill="#63b8ff" stroke="#63b8ff" points="1508.3,-14.01 1518.29,-10.49 1508.28,-7.01 1508.3,-14.01"/>
</g>
<!-- Node24&#45;&gt;Node15 -->
<g id="edge25" class="edge">
<title>Node24&#45;&gt;Node15</title>
<path fill="none" stroke="#63b8ff" d="M838.48,-109.51C819.33,-101.12 790.51,-88.5 768.64,-78.92"/>
<polygon fill="#63b8ff" stroke="#63b8ff" points="770.18,-75.77 759.62,-74.97 767.37,-82.18 770.18,-75.77"/>
</g>
<!-- Node24&#45;&gt;Node16 -->
<g id="edge24" class="edge">
<title>Node24&#45;&gt;Node16</title>
<path fill="none" stroke="#63b8ff" d="M853.3,-109.59C843.92,-95.7 823.88,-69.04 800.01,-55 752.94,-27.32 689.29,-16.8 651.36,-12.84"/>
<polygon fill="#63b8ff" stroke="#63b8ff" points="651.79,-9.36 641.51,-11.91 651.14,-16.33 651.79,-9.36"/>
</g>
<!-- Node25&#45;&gt;Node16 -->
<g id="edge28" class="edge">
<title>Node25&#45;&gt;Node16</title>
<path fill="none" stroke="#63b8ff" d="M627.96,-109.58C620.17,-101.22 609.5,-87.95 605.01,-74 600.29,-59.36 604.56,-42.31 609.59,-29.57"/>
<polygon fill="#63b8ff" stroke="#63b8ff" points="612.69,-31.21 613.57,-20.65 606.3,-28.36 612.69,-31.21"/>
</g>
<!-- Node25&#45;&gt;Node17 -->
<g id="edge27" class="edge">
<title>Node25&#45;&gt;Node17</title>
<path fill="none" stroke="#63b8ff" d="M673.93,-129.47C711.73,-139.51 769.95,-155.84 807.84,-166.98"/>
<polygon fill="#63b8ff" stroke="#63b8ff" points="806.4,-170.2 816.98,-169.69 808.38,-163.49 806.4,-170.2"/>
</g>
<!-- Node28&#45;&gt;Node2 -->
<g id="edge31" class="edge">
<title>Node28&#45;&gt;Node2</title>
<path fill="none" stroke="#63b8ff" d="M1028.8,-56.35C1033.61,-55.89 1038.38,-55.43 1043.01,-55 1216.57,-38.76 1423.92,-20.96 1508.37,-13.77"/>
<polygon fill="#63b8ff" stroke="#63b8ff" points="1508.51,-17.27 1518.18,-12.94 1507.92,-10.3 1508.51,-17.27"/>
</g>
<!-- Node28&#45;&gt;Node16 -->
<g id="edge32" class="edge">
<title>Node28&#45;&gt;Node16</title>
<path fill="none" stroke="#63b8ff" d="M899.67,-54.51C828.11,-43.29 708.19,-24.48 651.1,-15.53"/>
<polygon fill="#63b8ff" stroke="#63b8ff" points="651.83,-12.1 641.4,-14.01 650.74,-19.02 651.83,-12.1"/>
</g>
<!-- Node29&#45;&gt;Node2 -->
<g id="edge35" class="edge">
<title>Node29&#45;&gt;Node2</title>
<path fill="none" stroke="#63b8ff" d="M1094.8,-109.91C1094.96,-95.98 1097.52,-68.64 1114.01,-55 1144.08,-30.12 1407.63,-16.41 1508.22,-12.05"/>
<polygon fill="#63b8ff" stroke="#63b8ff" points="1508.3,-15.55 1518.14,-11.63 1508,-8.56 1508.3,-15.55"/>
</g>
<!-- Node30&#45;&gt;Node2 -->
<g id="edge37" class="edge">
<title>Node30&#45;&gt;Node2</title>
<path fill="none" stroke="#63b8ff" d="M1248.08,-54.51C1322.52,-43.55 1446.08,-25.36 1508.46,-16.18"/>
<polygon fill="#63b8ff" stroke="#63b8ff" points="1508.85,-19.66 1518.23,-14.74 1507.83,-12.73 1508.85,-19.66"/>
</g>
<!-- Node33&#45;&gt;Node3 -->
<g id="edge41" class="edge">
<title>Node33&#45;&gt;Node3</title>
<path fill="none" stroke="#63b8ff" d="M649.04,-189.97C660.96,-191.88 673.4,-193.71 685.01,-195 962.68,-225.91 1036.99,-207.13 1314.78,-230.49"/>
<polygon fill="#63b8ff" stroke="#63b8ff" points="1314.25,-233.96 1324.51,-231.32 1314.85,-226.98 1314.25,-233.96"/>
</g>
<!-- Node33&#45;&gt;Node5 -->
<g id="edge39" class="edge">
<title>Node33&#45;&gt;Node5</title>
<path fill="none" stroke="#63b8ff" d="M578.04,-170.12C563.58,-160.92 540.75,-146.41 523.51,-135.44"/>
<polygon fill="#63b8ff" stroke="#63b8ff" points="525.71,-132.69 515.39,-130.28 521.95,-138.6 525.71,-132.69"/>
</g>
<!-- Node33&#45;&gt;Node13 -->
<g id="edge40" class="edge">
<title>Node33&#45;&gt;Node13</title>
<path fill="none" stroke="#63b8ff" d="M551.93,-170.05C500.29,-158.52 411.43,-138.68 363.31,-127.94"/>
<polygon fill="#63b8ff" stroke="#63b8ff" points="364.28,-124.57 353.76,-125.8 362.76,-131.4 364.28,-124.57"/>
</g>
<!-- Node42&#45;&gt;Node2 -->
<g id="edge43" class="edge">
<title>Node42&#45;&gt;Node2</title>
<path fill="none" stroke="#63b8ff" d="M1379.28,-54.51C1415.18,-45.09 1471.46,-30.32 1508.78,-20.53"/>
<polygon fill="#63b8ff" stroke="#63b8ff" points="1509.47,-23.97 1518.25,-18.05 1507.69,-17.2 1509.47,-23.97"/>
</g>
<!-- Node43&#45;&gt;Node2 -->
<g id="edge45" class="edge">
<title>Node43&#45;&gt;Node2</title>
<path fill="none" stroke="#63b8ff" d="M1509.44,-54.75C1515.59,-47.5 1524.52,-36.98 1532.14,-28.02"/>
<polygon fill="#63b8ff" stroke="#63b8ff" points="1534.63,-30.48 1538.44,-20.6 1529.3,-25.95 1534.63,-30.48"/>
</g>
<!-- Node46 -->
<g id="node28" class="node">
<title>Node46</title>
<g id="a_node28"><a xlink:title=" ">
<polygon fill="#e0e0e0" stroke="#999999" points="648.01,-580 556.01,-580 556.01,-561 648.01,-561 648.01,-580"/>
<text text-anchor="middle" x="602.01" y="-568" font-family="FreeSans" font-size="10.00">catch2/catch.hpp</text>
</a>
</g>
</g>
<!-- Node45&#45;&gt;Node46 -->
<g id="edge48" class="edge">
<title>Node45&#45;&gt;Node46</title>
<path fill="none" stroke="#63b8ff" d="M602.01,-615.75C602.01,-609.27 602.01,-600.16 602.01,-591.9"/>
<polygon fill="#63b8ff" stroke="#63b8ff" points="605.51,-591.96 602.01,-581.96 598.51,-591.96 605.51,-591.96"/>
</g>
<!-- Node47&#45;&gt;Node2 -->
<g id="edge50" class="edge">
<title>Node47&#45;&gt;Node2</title>
<path fill="none" stroke="#63b8ff" d="M1584.33,-569.73C1678.67,-568.78 1862.75,-561.78 2014.01,-525 2159.12,-489.71 2195.96,-471.5 2323.01,-393 2386.96,-353.49 2391.01,-327.01 2454.01,-286 2515.1,-246.23 2580.01,-253.9 2580.01,-181 2580.01,-181 2580.01,-181 2580.01,-118.5 2580.01,-82.02 2560.61,-71.36 2528.01,-55 2442.72,-12.21 1756.35,-10.23 1585.44,-10.41"/>
<polygon fill="#63b8ff" stroke="#63b8ff" points="1585.55,-6.9 1575.56,-10.42 1585.56,-13.9 1585.55,-6.9"/>
</g>
<!-- Node47&#45;&gt;Node3 -->
<g id="edge51" class="edge">
<title>Node47&#45;&gt;Node3</title>
<path fill="none" stroke="#63b8ff" d="M1501.49,-560.63C1486.4,-553.14 1466.44,-541.07 1454.01,-525 1431.05,-495.32 1427.01,-482.53 1427.01,-445 1427.01,-445 1427.01,-445 1427.01,-377 1427.01,-333.86 1407.34,-286.31 1394.93,-260.59"/>
<polygon fill="#63b8ff" stroke="#63b8ff" points="1398.11,-259.13 1390.51,-251.76 1391.85,-262.27 1398.11,-259.13"/>
</g>
<!-- Node48 -->
<g id="node30" class="node">
<title>Node48</title>
<g id="a_node30"><a xlink:href="SpaceND_8h_source.html" target="_top" xlink:title=" ">
<polygon fill="#fff0f0" stroke="red" points="1967.51,-316 1842.51,-316 1842.51,-297 1967.51,-297 1967.51,-316"/>
<text text-anchor="middle" x="1905.01" y="-304" font-family="FreeSans" font-size="10.00">DGtal/kernel/SpaceND.h</text>
</a>
</g>
</g>
<!-- Node47&#45;&gt;Node48 -->
<g id="edge52" class="edge">
<title>Node47&#45;&gt;Node48</title>
<path fill="none" stroke="#63b8ff" d="M1545.07,-560.61C1600.15,-538.57 1741.89,-477.06 1837.01,-393 1859.82,-372.84 1880.76,-344.35 1893.2,-325.9"/>
<polygon fill="#63b8ff" stroke="#63b8ff" points="1896.09,-327.88 1898.67,-317.6 1890.25,-324.03 1896.09,-327.88"/>
</g>
<!-- Node69 -->
<g id="node31" class="node">
<title>Node69</title>
<g id="a_node31"><a xlink:href="HyperRectDomain_8h_source.html" target="_top" xlink:title=" ">
<polygon fill="#fff0f0" stroke="red" points="2573.51,-321.5 2462.51,-321.5 2462.51,-291.5 2573.51,-291.5 2573.51,-321.5"/>
<text text-anchor="start" x="2470.51" y="-309.5" font-family="FreeSans" font-size="10.00">DGtal/kernel/domains</text>
<text text-anchor="middle" x="2518.01" y="-298.5" font-family="FreeSans" font-size="10.00">/HyperRectDomain.h</text>
</a>
</g>
</g>
<!-- Node47&#45;&gt;Node69 -->
<g id="edge55" class="edge">
<title>Node47&#45;&gt;Node69</title>
<path fill="none" stroke="#63b8ff" d="M1584.5,-567.7C1772.6,-562.08 2322.67,-544.1 2356.01,-525 2430.88,-482.11 2408.6,-429.97 2463.01,-363 2472.5,-351.32 2484.09,-339.34 2494.19,-329.51"/>
<polygon fill="#63b8ff" stroke="#63b8ff" points="2496.33,-332.31 2501.14,-322.87 2491.49,-327.25 2496.33,-332.31"/>
</g>
<!-- Node92 -->
<g id="node32" class="node">
<title>Node92</title>
<g id="a_node32"><a xlink:href="DigitalSetSelector_8h_source.html" target="_top" xlink:title=" ">
<polygon fill="#fff0f0" stroke="red" points="1087.01,-321.5 963.01,-321.5 963.01,-291.5 1087.01,-291.5 1087.01,-321.5"/>
<text text-anchor="start" x="971.01" y="-309.5" font-family="FreeSans" font-size="10.00">DGtal/kernel/sets/Digital</text>
<text text-anchor="middle" x="1025.01" y="-298.5" font-family="FreeSans" font-size="10.00">SetSelector.h</text>
</a>
</g>
</g>
<!-- Node47&#45;&gt;Node92 -->
<g id="edge58" class="edge">
<title>Node47&#45;&gt;Node92</title>
<path fill="none" stroke="#63b8ff" d="M1461.25,-560.51C1424.73,-553.71 1377.93,-542.48 1339.01,-525 1220.84,-471.92 1100.18,-373.21 1049.64,-329.41"/>
<polygon fill="#63b8ff" stroke="#63b8ff" points="1052.01,-326.83 1042.17,-322.89 1047.4,-332.1 1052.01,-326.83"/>
</g>
<!-- Node105 -->
<g id="node33" class="node">
<title>Node105</title>
<g id="a_node33"><a xlink:href="DigitalTopology_8h_source.html" target="_top" xlink:title=" ">
<polygon fill="#fff0f0" stroke="red" points="2314.01,-387.5 2156.01,-387.5 2156.01,-368.5 2314.01,-368.5 2314.01,-387.5"/>
<text text-anchor="middle" x="2235.01" y="-375.5" font-family="FreeSans" font-size="10.00">DGtal/topology/DigitalTopology.h</text>
</a>
</g>
</g>
<!-- Node47&#45;&gt;Node105 -->
<g id="edge61" class="edge">
<title>Node47&#45;&gt;Node105</title>
<path fill="none" stroke="#63b8ff" d="M1584.51,-566.79C1666.28,-562.33 1813.67,-551.18 1937.01,-525 2030.64,-505.13 2058.52,-505.8 2142.01,-459 2172.66,-441.82 2202.44,-413.55 2219.73,-395.63"/>
<polygon fill="#63b8ff" stroke="#63b8ff" points="2221.81,-398.52 2226.13,-388.85 2216.72,-393.72 2221.81,-398.52"/>
</g>
<!-- Node112 -->
<g id="node35" class="node">
<title>Node112</title>
<g id="a_node35"><a xlink:href="MetricAdjacency_8h_source.html" target="_top" xlink:title=" ">
<polygon fill="#fff0f0" stroke="red" points="1828.01,-387.5 1664.01,-387.5 1664.01,-368.5 1828.01,-368.5 1828.01,-387.5"/>
<text text-anchor="middle" x="1746.01" y="-375.5" font-family="FreeSans" font-size="10.00">DGtal/topology/MetricAdjacency.h</text>
</a>
</g>
</g>
<!-- Node47&#45;&gt;Node112 -->
<g id="edge67" class="edge">
<title>Node47&#45;&gt;Node112</title>
<path fill="none" stroke="#63b8ff" d="M1537.11,-560.66C1551.24,-552.15 1572.7,-538.6 1590.01,-525 1644.5,-482.2 1702.52,-424.13 1729.91,-395.86"/>
<polygon fill="#63b8ff" stroke="#63b8ff" points="1732.22,-398.51 1736.64,-388.88 1727.18,-393.65 1732.22,-398.51"/>
</g>
<!-- Node115 -->
<g id="node36" class="node">
<title>Node115</title>
<g id="a_node36"><a xlink:href="Object_8h_source.html" target="_top" xlink:title=" ">
<polygon fill="#fff0f0" stroke="red" points="1399.01,-387.5 1277.01,-387.5 1277.01,-368.5 1399.01,-368.5 1399.01,-387.5"/>
<text text-anchor="middle" x="1338.01" y="-375.5" font-family="FreeSans" font-size="10.00">DGtal/topology/Object.h</text>
</a>
</g>
</g>
<!-- Node47&#45;&gt;Node115 -->
<g id="edge71" class="edge">
<title>Node47&#45;&gt;Node115</title>
<path fill="none" stroke="#63b8ff" d="M1481.98,-560.51C1459.55,-553.8 1432.3,-542.68 1413.01,-525 1374.42,-489.63 1352.6,-429.85 1343.35,-398.9"/>
<polygon fill="#63b8ff" stroke="#63b8ff" points="1346.73,-398.01 1340.64,-389.34 1340,-399.92 1346.73,-398.01"/>
</g>
<!-- Node124 -->
<g id="node37" class="node">
<title>Node124</title>
<g id="a_node37"><a xlink:href="KhalimskySpaceND_8h_source.html" target="_top" xlink:title=" ">
<polygon fill="#fff0f0" stroke="red" points="1991.51,-459 1860.51,-459 1860.51,-429 1991.51,-429 1991.51,-459"/>
<text text-anchor="start" x="1868.51" y="-447" font-family="FreeSans" font-size="10.00">DGtal/topology/Khalimsky</text>
<text text-anchor="middle" x="1926.01" y="-436" font-family="FreeSans" font-size="10.00">SpaceND.h</text>
</a>
</g>
</g>
<!-- Node47&#45;&gt;Node124 -->
<g id="edge77" class="edge">
<title>Node47&#45;&gt;Node124</title>
<path fill="none" stroke="#63b8ff" d="M1584.39,-565.67C1665.29,-559.89 1801.32,-547.19 1846.01,-525 1872.23,-511.98 1895.03,-487.01 1909.51,-468.41"/>
<polygon fill="#63b8ff" stroke="#63b8ff" points="1912.19,-470.68 1915.39,-460.58 1906.59,-466.48 1912.19,-470.68"/>
</g>
<!-- Node125 -->
<g id="node38" class="node">
<title>Node125</title>
<g id="a_node38"><a xlink:href="KhalimskyPreSpaceND_8h_source.html" target="_top" xlink:title=" ">
<polygon fill="#fff0f0" stroke="red" points="2061.51,-393 1930.51,-393 1930.51,-363 2061.51,-363 2061.51,-393"/>
<text text-anchor="start" x="1938.51" y="-381" font-family="FreeSans" font-size="10.00">DGtal/topology/Khalimsky</text>
<text text-anchor="middle" x="1996.01" y="-370" font-family="FreeSans" font-size="10.00">PreSpaceND.h</text>
</a>
</g>
</g>
<!-- Node47&#45;&gt;Node125 -->
<g id="edge85" class="edge">
<title>Node47&#45;&gt;Node125</title>
<path fill="none" stroke="#63b8ff" d="M1584.46,-568.67C1656.93,-566.14 1779.23,-556.96 1879.01,-525 1937.72,-506.2 1969.45,-511.96 2001.01,-459 2010.79,-442.59 2008.64,-420.76 2004.55,-404.06"/>
<polygon fill="#63b8ff" stroke="#63b8ff" points="2008.04,-403.55 2001.94,-394.89 2001.31,-405.47 2008.04,-403.55"/>
</g>
<!-- Node128 -->
<g id="node39" class="node">
<title>Node128</title>
<g id="a_node39"><a xlink:href="GridCurve_8h_source.html" target="_top" xlink:title=" ">
<polygon fill="#fff0f0" stroke="red" points="1581.01,-525 1463.01,-525 1463.01,-495 1581.01,-495 1581.01,-525"/>
<text text-anchor="start" x="1471.01" y="-513" font-family="FreeSans" font-size="10.00">DGtal/geometry/curves</text>
<text text-anchor="middle" x="1522.01" y="-502" font-family="FreeSans" font-size="10.00">/GridCurve.h</text>
</a>
</g>
</g>
<!-- Node47&#45;&gt;Node128 -->
<g id="edge86" class="edge">
<title>Node47&#45;&gt;Node128</title>
<path fill="none" stroke="#63b8ff" d="M1522.01,-560.87C1522.01,-554.4 1522.01,-545.2 1522.01,-536.45"/>
<polygon fill="#63b8ff" stroke="#63b8ff" points="1525.51,-536.63 1522.01,-526.63 1518.51,-536.63 1525.51,-536.63"/>
</g>
<!-- Node156 -->
<g id="node41" class="node">
<title>Node156</title>
<g id="a_node41"><a xlink:href="ExactPredicateLpSeparableMetric_8h_source.html" target="_top" xlink:title=" ">
<polygon fill="#fff0f0" stroke="red" points="1323.01,-327 1143.01,-327 1143.01,-286 1323.01,-286 1323.01,-327"/>
<text text-anchor="start" x="1151.01" y="-315" font-family="FreeSans" font-size="10.00">DGtal/geometry/volumes</text>
<text text-anchor="start" x="1151.01" y="-304" font-family="FreeSans" font-size="10.00">/distance/ExactPredicateLpSeparable</text>
<text text-anchor="middle" x="1233.01" y="-293" font-family="FreeSans" font-size="10.00">Metric.h</text>
</a>
</g>
</g>
<!-- Node47&#45;&gt;Node156 -->
<g id="edge93" class="edge">
<title>Node47&#45;&gt;Node156</title>
<path fill="none" stroke="#63b8ff" d="M1473.21,-560.51C1445.45,-553.81 1410.95,-542.68 1384.01,-525 1318.72,-482.14 1309.15,-459.39 1268.01,-393 1257.34,-375.78 1248.68,-354.73 1242.64,-337.83"/>
<polygon fill="#63b8ff" stroke="#63b8ff" points="1246.11,-337.16 1239.55,-328.84 1239.49,-339.43 1246.11,-337.16"/>
</g>
<!-- Node161 -->
<g id="node42" class="node">
<title>Node161</title>
<g id="a_node42"><a xlink:href="ExactPredicateLpPowerSeparableMetric_8h_source.html" target="_top" xlink:title=" ">
<polygon fill="#fff0f0" stroke="red" points="769.01,-327 605.01,-327 605.01,-286 769.01,-286 769.01,-327"/>
<text text-anchor="start" x="613.01" y="-315" font-family="FreeSans" font-size="10.00">DGtal/geometry/volumes</text>
<text text-anchor="start" x="613.01" y="-304" font-family="FreeSans" font-size="10.00">/distance/ExactPredicateLpPower</text>
<text text-anchor="middle" x="687.01" y="-293" font-family="FreeSans" font-size="10.00">SeparableMetric.h</text>
</a>
</g>
</g>
<!-- Node47&#45;&gt;Node161 -->
<g id="edge97" class="edge">
<title>Node47&#45;&gt;Node161</title>
<path fill="none" stroke="#63b8ff" d="M1459.68,-561.16C1409.98,-553.79 1338.87,-541.61 1278.01,-525 1076.82,-470.07 847.33,-376.24 743.41,-331.98"/>
<polygon fill="#63b8ff" stroke="#63b8ff" points="744.82,-328.78 734.25,-328.07 742.07,-335.22 744.82,-328.78"/>
</g>
<!-- Node48&#45;&gt;Node2 -->
<g id="edge53" class="edge">
<title>Node48&#45;&gt;Node2</title>
<path fill="none" stroke="#63b8ff" d="M1964,-296.55C2093.25,-276.13 2390.01,-224.52 2390.01,-181 2390.01,-181 2390.01,-181 2390.01,-118.5 2390.01,-88.33 2390.36,-72.82 2366.01,-55 2302.53,-8.53 1738.33,-9.13 1585.21,-10.16"/>
<polygon fill="#63b8ff" stroke="#63b8ff" points="1585.58,-6.66 1575.61,-10.23 1585.63,-13.66 1585.58,-6.66"/>
</g>
<!-- Node48&#45;&gt;Node3 -->
<g id="edge54" class="edge">
<title>Node48&#45;&gt;Node3</title>
<path fill="none" stroke="#63b8ff" d="M1842.03,-297.75C1744.39,-285.73 1557.16,-262.69 1455.27,-250.15"/>
<polygon fill="#63b8ff" stroke="#63b8ff" points="1455.74,-246.68 1445.39,-248.93 1454.88,-253.63 1455.74,-246.68"/>
</g>
<!-- Node69&#45;&gt;Node2 -->
<g id="edge56" class="edge">
<title>Node69&#45;&gt;Node2</title>
<path fill="none" stroke="#63b8ff" d="M2545.56,-291.03C2561.67,-281.33 2581.27,-267.2 2594.01,-250 2613.33,-223.91 2618.01,-213.47 2618.01,-181 2618.01,-181 2618.01,-181 2618.01,-118.5 2618.01,-88.33 2618.46,-72.68 2594.01,-55 2552.4,-24.92 1769.7,-13.28 1585.57,-10.96"/>
<polygon fill="#63b8ff" stroke="#63b8ff" points="1585.87,-7.46 1575.83,-10.83 1585.79,-14.46 1585.87,-7.46"/>
</g>
<!-- Node69&#45;&gt;Node3 -->
<g id="edge57" class="edge">
<title>Node69&#45;&gt;Node3</title>
<path fill="none" stroke="#63b8ff" d="M2462.26,-297.76C2431.07,-293.68 2391.44,-288.94 2356.01,-286 2019.13,-258.04 1614.92,-246.59 1455.03,-242.93"/>
<polygon fill="#63b8ff" stroke="#63b8ff" points="1455.53,-239.44 1445.45,-242.72 1455.37,-246.44 1455.53,-239.44"/>
</g>
<!-- Node92&#45;&gt;Node2 -->
<g id="edge59" class="edge">
<title>Node92&#45;&gt;Node2</title>
<path fill="none" stroke="#63b8ff" d="M962.65,-293.12C947.44,-290.44 931.18,-287.86 916.01,-286 797.08,-271.43 482.56,-308.54 378.01,-250 315.67,-215.1 255.16,-166.41 299.01,-110 375.03,-12.2 1305.31,-9.68 1508.13,-10.3"/>
<polygon fill="#63b8ff" stroke="#63b8ff" points="1508.11,-13.8 1518.12,-10.34 1508.13,-6.8 1508.11,-13.8"/>
</g>
<!-- Node92&#45;&gt;Node3 -->
<g id="edge60" class="edge">
<title>Node92&#45;&gt;Node3</title>
<path fill="none" stroke="#63b8ff" d="M1087.26,-294.35C1102.55,-291.61 1118.87,-288.7 1134.01,-286 1198.62,-274.49 1272.59,-261.39 1323.41,-252.39"/>
<polygon fill="#63b8ff" stroke="#63b8ff" points="1323.8,-255.88 1333.04,-250.69 1322.58,-248.99 1323.8,-255.88"/>
</g>
<!-- Node105&#45;&gt;Node2 -->
<g id="edge62" class="edge">
<title>Node105&#45;&gt;Node2</title>
<path fill="none" stroke="#63b8ff" d="M2252.5,-368.11C2285.2,-351.56 2357.93,-315.05 2420.01,-286 2455.69,-269.3 2471.56,-276.17 2501.01,-250 2527.68,-226.31 2542.01,-216.67 2542.01,-181 2542.01,-181 2542.01,-181 2542.01,-118.5 2542.01,-85.15 2530.83,-71.79 2502.01,-55 2421.92,-8.33 1754.42,-9.23 1585.66,-10.21"/>
<polygon fill="#63b8ff" stroke="#63b8ff" points="1585.87,-6.71 1575.89,-10.27 1585.92,-13.71 1585.87,-6.71"/>
</g>
<!-- Node105&#45;&gt;Node3 -->
<g id="edge63" class="edge">
<title>Node105&#45;&gt;Node3</title>
<path fill="none" stroke="#63b8ff" d="M2217.3,-368.03C2178.89,-349.04 2084.53,-304.98 2000.01,-286 1898.04,-263.11 1593.83,-249.25 1455.22,-243.96"/>
<polygon fill="#63b8ff" stroke="#63b8ff" points="1455.57,-240.47 1445.45,-243.59 1455.31,-247.47 1455.57,-240.47"/>
</g>
<!-- Node76 -->
<g id="node34" class="node">
<title>Node76</title>
<g id="a_node34"><a xlink:href="ConstAlias_8h_source.html" target="_top" xlink:title=" ">
<polygon fill="#fff0f0" stroke="red" points="2313.51,-316 2188.51,-316 2188.51,-297 2313.51,-297 2313.51,-316"/>
<text text-anchor="middle" x="2251.01" y="-304" font-family="FreeSans" font-size="10.00">DGtal/base/ConstAlias.h</text>
</a>
</g>
</g>
<!-- Node105&#45;&gt;Node76 -->
<g id="edge64" class="edge">
<title>Node105&#45;&gt;Node76</title>
<path fill="none" stroke="#63b8ff" d="M2237.04,-368.2C2239.38,-358.02 2243.31,-340.94 2246.41,-327.48"/>
<polygon fill="#63b8ff" stroke="#63b8ff" points="2249.78,-328.46 2248.61,-317.93 2242.96,-326.89 2249.78,-328.46"/>
</g>
<!-- Node76&#45;&gt;Node2 -->
<g id="edge65" class="edge">
<title>Node76&#45;&gt;Node2</title>
<path fill="none" stroke="#63b8ff" d="M2313.8,-297.13C2372.9,-288.07 2455.85,-271.92 2480.01,-250 2504.05,-228.18 2504.01,-213.47 2504.01,-181 2504.01,-181 2504.01,-181 2504.01,-118.5 2504.01,-88.33 2504.41,-72.74 2480.01,-55 2443.3,-28.32 1757.25,-14.27 1585.66,-11.17"/>
<polygon fill="#63b8ff" stroke="#63b8ff" points="1585.79,-7.67 1575.72,-10.99 1585.66,-14.67 1585.79,-7.67"/>
</g>
<!-- Node76&#45;&gt;Node3 -->
<g id="edge66" class="edge">
<title>Node76&#45;&gt;Node3</title>
<path fill="none" stroke="#63b8ff" d="M2188.06,-297.91C2154.03,-293.99 2111.26,-289.33 2073.01,-286 1847.53,-266.37 1579.77,-251.46 1455.22,-245.01"/>
<polygon fill="#63b8ff" stroke="#63b8ff" points="1455.66,-241.52 1445.49,-244.51 1455.3,-248.52 1455.66,-241.52"/>
</g>
<!-- Node112&#45;&gt;Node2 -->
<g id="edge68" class="edge">
<title>Node112&#45;&gt;Node2</title>
<path fill="none" stroke="#63b8ff" d="M1751.61,-368.27C1763.99,-349.75 1795.66,-306.56 1834.01,-286 1883.2,-259.63 2292.3,-237.89 2328.01,-195 2367.82,-147.18 2370.74,-100.23 2328.01,-55 2302.25,-27.73 1738.96,-14.38 1585.38,-11.24"/>
<polygon fill="#63b8ff" stroke="#63b8ff" points="1585.81,-7.75 1575.75,-11.04 1585.67,-14.75 1585.81,-7.75"/>
</g>
<!-- Node112&#45;&gt;Node3 -->
<g id="edge69" class="edge">
<title>Node112&#45;&gt;Node3</title>
<path fill="none" stroke="#63b8ff" d="M1734.67,-368.24C1710.56,-350.06 1651.81,-308.07 1596.01,-286 1550.73,-268.09 1496.99,-256.89 1455.07,-250.21"/>
<polygon fill="#63b8ff" stroke="#63b8ff" points="1455.77,-246.78 1445.36,-248.71 1454.71,-253.69 1455.77,-246.78"/>
</g>
<!-- Node112&#45;&gt;Node48 -->
<g id="edge70" class="edge">
<title>Node112&#45;&gt;Node48</title>
<path fill="none" stroke="#63b8ff" d="M1766.47,-368.06C1793.78,-356.12 1842.39,-334.87 1874.16,-320.99"/>
<polygon fill="#63b8ff" stroke="#63b8ff" points="1875.48,-324.23 1883.24,-317.02 1872.68,-317.81 1875.48,-324.23"/>
</g>
<!-- Node115&#45;&gt;Node2 -->
<g id="edge72" class="edge">
<title>Node115&#45;&gt;Node2</title>
<path fill="none" stroke="#63b8ff" d="M1340.71,-368.04C1345.58,-349.86 1353.46,-308.43 1332.01,-286 1268.73,-219.82 592.62,-240.22 513.01,-195 474.9,-173.35 436.17,-144.65 463.01,-110 470.49,-100.34 663.93,-56.85 676.01,-55 839.97,-29.91 1361.24,-15.17 1508.14,-11.44"/>
<polygon fill="#63b8ff" stroke="#63b8ff" points="1508.2,-14.94 1518.11,-11.19 1508.03,-7.95 1508.2,-14.94"/>
</g>
<!-- Node115&#45;&gt;Node3 -->
<g id="edge74" class="edge">
<title>Node115&#45;&gt;Node3</title>
<path fill="none" stroke="#63b8ff" d="M1343.74,-368.13C1349.81,-358.39 1359.27,-342.13 1365.01,-327 1373.23,-305.32 1378.74,-279.22 1381.86,-261.61"/>
<polygon fill="#63b8ff" stroke="#63b8ff" points="1385.28,-262.4 1383.47,-251.96 1378.37,-261.25 1385.28,-262.4"/>
</g>
<!-- Node115&#45;&gt;Node16 -->
<g id="edge73" class="edge">
<title>Node115&#45;&gt;Node16</title>
<path fill="none" stroke="#63b8ff" d="M1276.96,-371.39C1234.49,-365.33 1177.85,-352.8 1134.01,-327 1112.6,-314.4 1118.52,-296.51 1096.01,-286 951.25,-218.43 518.05,-326.88 378.01,-250 315.38,-215.62 256.65,-167.53 299.01,-110 333.88,-62.64 513.27,-28.02 587.15,-15.56"/>
<polygon fill="#63b8ff" stroke="#63b8ff" points="587.28,-19.09 596.57,-14 586.14,-12.18 587.28,-19.09"/>
</g>
<!-- Node115&#45;&gt;Node92 -->
<g id="edge76" class="edge">
<title>Node115&#45;&gt;Node92</title>
<path fill="none" stroke="#63b8ff" d="M1292.89,-368.08C1245.11,-358.5 1167.55,-342.55 1101.01,-327 1097.84,-326.26 1094.6,-325.49 1091.33,-324.69"/>
<polygon fill="#63b8ff" stroke="#63b8ff" points="1092.17,-321.3 1081.62,-322.31 1090.49,-328.09 1092.17,-321.3"/>
</g>
<!-- Node115&#45;&gt;Node76 -->
<g id="edge75" class="edge">
<title>Node115&#45;&gt;Node76</title>
<path fill="none" stroke="#63b8ff" d="M1399.33,-372.33C1561.41,-359.99 2000.76,-326.55 2176.7,-313.16"/>
<polygon fill="#63b8ff" stroke="#63b8ff" points="2176.93,-316.65 2186.64,-312.4 2176.4,-309.67 2176.93,-316.65"/>
</g>
<!-- Node124&#45;&gt;Node2 -->
<g id="edge78" class="edge">
<title>Node124&#45;&gt;Node2</title>
<path fill="none" stroke="#63b8ff" d="M1986.89,-428.55C2013.9,-420.53 2045.31,-408.9 2071.01,-393 2099.87,-375.14 2149.64,-301.15 2180.01,-286 2301.17,-225.54 2466.01,-316.41 2466.01,-181 2466.01,-181 2466.01,-181 2466.01,-118.5 2466.01,-82.02 2446.57,-71.45 2414.01,-55 2339.45,-17.32 1743.79,-11.53 1585.51,-10.65"/>
<polygon fill="#63b8ff" stroke="#63b8ff" points="1586,-7.16 1575.98,-10.6 1585.96,-14.16 1586,-7.16"/>
</g>
<!-- Node124&#45;&gt;Node3 -->
<g id="edge79" class="edge">
<title>Node124&#45;&gt;Node3</title>
<path fill="none" stroke="#63b8ff" d="M1860.23,-440.16C1803.52,-435.58 1720.67,-423.71 1655.01,-393 1587.54,-361.44 1591.41,-321.65 1526.01,-286 1498.87,-271.21 1466.07,-260.48 1438.93,-253.28"/>
<polygon fill="#63b8ff" stroke="#63b8ff" points="1440.09,-249.96 1429.54,-250.87 1438.36,-256.74 1440.09,-249.96"/>
</g>
<!-- Node124&#45;&gt;Node48 -->
<g id="edge80" class="edge">
<title>Node124&#45;&gt;Node48</title>
<path fill="none" stroke="#63b8ff" d="M1923.8,-428.76C1920.04,-404.48 1912.38,-355.04 1908.09,-327.38"/>
<polygon fill="#63b8ff" stroke="#63b8ff" points="1911.61,-327.21 1906.62,-317.86 1904.69,-328.28 1911.61,-327.21"/>
</g>
<!-- Node124&#45;&gt;Node125 -->
<g id="edge81" class="edge">
<title>Node124&#45;&gt;Node125</title>
<path fill="none" stroke="#63b8ff" d="M1941.55,-428.8C1950.52,-420.59 1961.99,-410.1 1972.09,-400.87"/>
<polygon fill="#63b8ff" stroke="#63b8ff" points="1974.38,-403.52 1979.4,-394.19 1969.66,-398.35 1974.38,-403.52"/>
</g>
<!-- Node125&#45;&gt;Node2 -->
<g id="edge82" class="edge">
<title>Node125&#45;&gt;Node2</title>
<path fill="none" stroke="#63b8ff" d="M2015.97,-362.61C2043.9,-343.02 2096.75,-307.9 2146.01,-286 2268.21,-231.66 2428.01,-314.74 2428.01,-181 2428.01,-181 2428.01,-181 2428.01,-118.5 2428.01,-85.15 2416.78,-71.88 2388.01,-55 2318.27,-14.07 1740.97,-10.65 1585.47,-10.47"/>
<polygon fill="#63b8ff" stroke="#63b8ff" points="1585.7,-6.97 1575.7,-10.47 1585.7,-13.97 1585.7,-6.97"/>
</g>
<!-- Node125&#45;&gt;Node3 -->
<g id="edge83" class="edge">
<title>Node125&#45;&gt;Node3</title>
<path fill="none" stroke="#63b8ff" d="M1997.76,-362.77C1999.37,-342.36 1998.85,-305.16 1977.01,-286 1938.54,-252.26 1603.55,-244.09 1455.2,-242.12"/>
<polygon fill="#63b8ff" stroke="#63b8ff" points="1455.55,-238.62 1445.51,-242 1455.46,-245.62 1455.55,-238.62"/>
</g>
<!-- Node125&#45;&gt;Node48 -->
<g id="edge84" class="edge">
<title>Node125&#45;&gt;Node48</title>
<path fill="none" stroke="#63b8ff" d="M1977.15,-362.6C1962.07,-351.08 1940.94,-334.94 1925.45,-323.11"/>
<polygon fill="#63b8ff" stroke="#63b8ff" points="1927.91,-320.59 1917.84,-317.3 1923.66,-326.15 1927.91,-320.59"/>
</g>
<!-- Node128&#45;&gt;Node2 -->
<g id="edge87" class="edge">
<title>Node128&#45;&gt;Node2</title>
<path fill="none" stroke="#63b8ff" d="M1532.62,-494.93C1553.82,-467.4 1603.79,-405.45 1655.01,-363 1705.25,-321.36 1719.28,-309.86 1780.01,-286 1896.42,-240.26 1932.8,-252.54 2056.01,-231 2164.56,-212.02 2364.61,-250.44 2295.01,-165 2203.77,-52.99 1725.93,-19.72 1585.72,-12.3"/>
<polygon fill="#63b8ff" stroke="#63b8ff" points="1586.02,-8.82 1575.85,-11.8 1585.66,-15.81 1586.02,-8.82"/>
</g>
<!-- Node128&#45;&gt;Node3 -->
<g id="edge89" class="edge">
<title>Node128&#45;&gt;Node3</title>
<path fill="none" stroke="#63b8ff" d="M1523.38,-494.71C1526.27,-456.49 1529.02,-350.5 1479.01,-286 1467.47,-271.11 1449.72,-260.97 1432.74,-254.17"/>
<polygon fill="#63b8ff" stroke="#63b8ff" points="1434.34,-251.03 1423.75,-250.88 1431.94,-257.61 1434.34,-251.03"/>
</g>
<!-- Node128&#45;&gt;Node33 -->
<g id="edge91" class="edge">
<title>Node128&#45;&gt;Node33</title>
<path fill="none" stroke="#63b8ff" d="M1516.76,-494.68C1501,-453.98 1449.91,-337.3 1365.01,-286 1097.24,-124.21 976.01,-243.94 667.01,-195 661.12,-194.07 654.99,-193.03 648.87,-191.95"/>
<polygon fill="#63b8ff" stroke="#63b8ff" points="649.9,-188.58 639.44,-190.26 648.66,-195.47 649.9,-188.58"/>
</g>
<!-- Node128&#45;&gt;Node76 -->
<g id="edge90" class="edge">
<title>Node128&#45;&gt;Node76</title>
<path fill="none" stroke="#63b8ff" d="M1581.35,-506.23C1691.88,-500.51 1924.96,-485.64 2001.01,-459 2074.3,-433.33 2080.79,-403.57 2147.01,-363 2171.83,-347.8 2201.17,-332.36 2222.34,-321.64"/>
<polygon fill="#63b8ff" stroke="#63b8ff" points="2223.89,-324.78 2231.25,-317.16 2220.75,-318.52 2223.89,-324.78"/>
</g>
<!-- Node128&#45;&gt;Node124 -->
<g id="edge92" class="edge">
<title>Node128&#45;&gt;Node124</title>
<path fill="none" stroke="#63b8ff" d="M1581.19,-499.63C1652.11,-488.39 1771.12,-469.54 1849.1,-457.18"/>
<polygon fill="#63b8ff" stroke="#63b8ff" points="1849.48,-460.67 1858.8,-455.65 1848.38,-453.75 1849.48,-460.67"/>
</g>
<!-- Node62 -->
<g id="node40" class="node">
<title>Node62</title>
<g id="a_node40"><a xlink:title=" ">
<polygon fill="#e0e0e0" stroke="#999999" points="907.01,-316 863.01,-316 863.01,-297 907.01,-297 907.01,-316"/>
<text text-anchor="middle" x="885.01" y="-304" font-family="FreeSans" font-size="10.00">vector</text>
</a>
</g>
</g>
<!-- Node128&#45;&gt;Node62 -->
<g id="edge88" class="edge">
<title>Node128&#45;&gt;Node62</title>
<path fill="none" stroke="#63b8ff" d="M1476.2,-494.51C1354.39,-455.98 1024.58,-351.65 918.42,-318.07"/>
<polygon fill="#63b8ff" stroke="#63b8ff" points="919.47,-314.73 908.88,-315.05 917.36,-321.41 919.47,-314.73"/>
</g>
<!-- Node156&#45;&gt;Node2 -->
<g id="edge94" class="edge">
<title>Node156&#45;&gt;Node2</title>
<path fill="none" stroke="#63b8ff" d="M1142.6,-288.14C1138.01,-287.39 1133.46,-286.67 1129.01,-286 812.19,-238.49 233.83,-363.27 430.01,-110 497.49,-22.88 1319.2,-12.03 1508.36,-10.69"/>
<polygon fill="#63b8ff" stroke="#63b8ff" points="1508.15,-14.19 1518.13,-10.62 1508.1,-7.19 1508.15,-14.19"/>
</g>
<!-- Node156&#45;&gt;Node3 -->
<g id="edge96" class="edge">
<title>Node156&#45;&gt;Node3</title>
<path fill="none" stroke="#63b8ff" d="M1280.27,-285.6C1304.17,-275.54 1332.51,-263.61 1353.68,-254.69"/>
<polygon fill="#63b8ff" stroke="#63b8ff" points="1354.78,-258.02 1362.64,-250.92 1352.07,-251.57 1354.78,-258.02"/>
</g>
<!-- Node156&#45;&gt;Node13 -->
<g id="edge95" class="edge">
<title>Node156&#45;&gt;Node13</title>
<path fill="none" stroke="#63b8ff" d="M1142.65,-287.8C1138.05,-287.13 1133.48,-286.53 1129.01,-286 1048.91,-276.55 474.48,-289.23 404.01,-250 362.45,-226.87 342.43,-170.26 334.44,-140.12"/>
<polygon fill="#63b8ff" stroke="#63b8ff" points="337.93,-139.68 332.16,-130.8 331.14,-141.35 337.93,-139.68"/>
</g>
<!-- Node161&#45;&gt;Node2 -->
<g id="edge98" class="edge">
<title>Node161&#45;&gt;Node2</title>
<path fill="none" stroke="#63b8ff" d="M604.81,-287.78C601.5,-287.16 598.23,-286.57 595.01,-286 482.29,-266.12 442.88,-300.19 340.01,-250 279.93,-220.69 251.11,-167.62 285.01,-110 308.97,-69.27 330.74,-68.55 376.01,-55 486.38,-21.97 1318.24,-12.55 1508.38,-10.82"/>
<polygon fill="#63b8ff" stroke="#63b8ff" points="1508.24,-14.32 1518.21,-10.73 1508.17,-7.32 1508.24,-14.32"/>
</g>
<!-- Node161&#45;&gt;Node3 -->
<g id="edge100" class="edge">
<title>Node161&#45;&gt;Node3</title>
<path fill="none" stroke="#63b8ff" d="M769.37,-288.07C773.98,-287.31 778.55,-286.62 783.01,-286 974.46,-259.59 1202.48,-248.14 1315.03,-243.8"/>
<polygon fill="#63b8ff" stroke="#63b8ff" points="1314.84,-247.31 1324.7,-243.43 1314.58,-240.31 1314.84,-247.31"/>
</g>
<!-- Node161&#45;&gt;Node13 -->
<g id="edge99" class="edge">
<title>Node161&#45;&gt;Node13</title>
<path fill="none" stroke="#63b8ff" d="M604.79,-287.85C601.49,-287.21 598.22,-286.59 595.01,-286 493.69,-267.31 453.24,-304.82 366.01,-250 340.85,-234.19 336.86,-223.36 328.01,-195 322.47,-177.24 323.78,-155.94 326,-140.67"/>
<polygon fill="#63b8ff" stroke="#63b8ff" points="329.42,-141.41 327.68,-130.96 322.53,-140.22 329.42,-141.41"/>
</g>
<!-- Node163&#45;&gt;Node2 -->
<g id="edge102" class="edge">
<title>Node163&#45;&gt;Node2</title>
<path fill="none" stroke="#63b8ff" d="M455.6,-368.01C452.18,-349.4 441.57,-306.63 414.01,-286 331.54,-224.25 258.09,-322.62 185.01,-250 116.77,-182.18 188.54,-87.73 279.01,-55 396.94,-12.34 1308.41,-10.36 1508.33,-10.45"/>
<polygon fill="#63b8ff" stroke="#63b8ff" points="1508.17,-13.95 1518.17,-10.45 1508.17,-6.95 1508.17,-13.95"/>
</g>
<!-- Node163&#45;&gt;Node3 -->
<g id="edge108" class="edge">
<title>Node163&#45;&gt;Node3</title>
<path fill="none" stroke="#63b8ff" d="M539.99,-369.75C620.82,-361.68 737.29,-347.08 778.01,-327 801.69,-315.32 796.9,-296.77 821.01,-286 907.52,-247.35 1183.96,-241.68 1314.93,-241.23"/>
<polygon fill="#63b8ff" stroke="#63b8ff" points="1314.87,-244.73 1324.86,-241.21 1314.86,-237.73 1314.87,-244.73"/>
</g>
<!-- Node163&#45;&gt;Node5 -->
<g id="edge105" class="edge">
<title>Node163&#45;&gt;Node5</title>
<path fill="none" stroke="#63b8ff" d="M374.26,-374.53C296.68,-370.27 188.74,-358.65 162.01,-327 150.25,-313.08 152.37,-301.46 162.01,-286 228.64,-179.18 386.46,-139.4 460.45,-126.26"/>
<polygon fill="#63b8ff" stroke="#63b8ff" points="460.81,-129.75 470.08,-124.63 459.64,-122.85 460.81,-129.75"/>
</g>
<!-- Node163&#45;&gt;Node16 -->
<g id="edge104" class="edge">
<title>Node163&#45;&gt;Node16</title>
<path fill="none" stroke="#63b8ff" d="M374.25,-369.52C242.56,-355.31 0.01,-318.67 0.01,-241.5 0.01,-241.5 0.01,-241.5 0.01,-118.5 0.01,-88.33 -0.15,-73.07 24.01,-55 69.23,-21.19 469.03,-12.69 586.62,-10.91"/>
<polygon fill="#63b8ff" stroke="#63b8ff" points="586.55,-14.42 596.5,-10.77 586.45,-7.42 586.55,-14.42"/>
</g>
<!-- Node163&#45;&gt;Node76 -->
<g id="edge109" class="edge">
<title>Node163&#45;&gt;Node76</title>
<path fill="none" stroke="#63b8ff" d="M539.85,-375.39C768.7,-370.69 1428.9,-355.51 1977.01,-327 2044.7,-323.48 2121.7,-317.86 2176.79,-313.55"/>
<polygon fill="#63b8ff" stroke="#63b8ff" points="2177,-317.05 2186.7,-312.77 2176.45,-310.07 2177,-317.05"/>
</g>
<!-- Node163&#45;&gt;Node62 -->
<g id="edge103" class="edge">
<title>Node163&#45;&gt;Node62</title>
<path fill="none" stroke="#63b8ff" d="M539.73,-368.1C611.78,-359.69 718.83,-345.59 811.01,-327 824.47,-324.29 839.13,-320.58 851.82,-317.14"/>
<polygon fill="#63b8ff" stroke="#63b8ff" points="852.67,-320.53 861.37,-314.48 850.8,-313.79 852.67,-320.53"/>
</g>
<!-- Node164 -->
<g id="node44" class="node">
<title>Node164</title>
<g id="a_node44"><a xlink:title=" ">
<polygon fill="#e0e0e0" stroke="#999999" points="405.01,-316 297.01,-316 297.01,-297 405.01,-297 405.01,-316"/>
<text text-anchor="middle" x="351.01" y="-304" font-family="FreeSans" font-size="10.00">boost/type_traits.hpp</text>
</a>
</g>
</g>
<!-- Node163&#45;&gt;Node164 -->
<g id="edge106" class="edge">
<title>Node163&#45;&gt;Node164</title>
<path fill="none" stroke="#63b8ff" d="M443.59,-368.2C426.16,-356.77 395.47,-336.65 374.23,-322.72"/>
<polygon fill="#63b8ff" stroke="#63b8ff" points="376.21,-319.84 365.93,-317.28 372.37,-325.69 376.21,-319.84"/>
</g>
<!-- Node90 -->
<g id="node45" class="node">
<title>Node90</title>
<g id="a_node45"><a xlink:title=" ">
<polygon fill="#e0e0e0" stroke="#999999" points="278.51,-321.5 171.51,-321.5 171.51,-291.5 278.51,-291.5 278.51,-321.5"/>
<text text-anchor="start" x="179.51" y="-309.5" font-family="FreeSans" font-size="10.00">boost/iterator/iterator</text>
<text text-anchor="middle" x="225.01" y="-298.5" font-family="FreeSans" font-size="10.00">_facade.hpp</text>
</a>
</g>
</g>
<!-- Node163&#45;&gt;Node90 -->
<g id="edge107" class="edge">
<title>Node163&#45;&gt;Node90</title>
<path fill="none" stroke="#63b8ff" d="M426.45,-368.08C392.57,-358.17 336.33,-341.63 288.01,-327 286.16,-326.44 284.29,-325.87 282.4,-325.3"/>
<polygon fill="#63b8ff" stroke="#63b8ff" points="283.47,-321.96 272.88,-322.39 281.42,-328.66 283.47,-321.96"/>
</g>
<!-- Node172&#45;&gt;Node3 -->
<g id="edge112" class="edge">
<title>Node172&#45;&gt;Node3</title>
<path fill="none" stroke="#63b8ff" d="M941.96,-615.68C939.8,-596.62 935.01,-550.11 935.01,-511 935.01,-511 935.01,-511 935.01,-377 935.01,-335.68 923.33,-313.67 954.01,-286 980.2,-262.38 1199.37,-249.48 1314.68,-244.28"/>
<polygon fill="#63b8ff" stroke="#63b8ff" points="1314.83,-247.77 1324.67,-243.83 1314.52,-240.78 1314.83,-247.77"/>
</g>
<!-- Node172&#45;&gt;Node47 -->
<g id="edge111" class="edge">
<title>Node172&#45;&gt;Node47</title>
<path fill="none" stroke="#63b8ff" d="M1022.91,-617.19C1135.57,-606.87 1339.5,-588.21 1448.55,-578.22"/>
<polygon fill="#63b8ff" stroke="#63b8ff" points="1448.62,-581.73 1458.26,-577.34 1447.98,-574.76 1448.62,-581.73"/>
</g>
<!-- Node172&#45;&gt;Node163 -->
<g id="edge113" class="edge">
<title>Node172&#45;&gt;Node163</title>
<path fill="none" stroke="#63b8ff" d="M925.43,-615.62C852.65,-578.85 574.64,-438.42 485.03,-393.15"/>
<polygon fill="#63b8ff" stroke="#63b8ff" points="486.68,-390.07 476.18,-388.68 483.53,-396.32 486.68,-390.07"/>
</g>
<!-- Node176&#45;&gt;Node2 -->
<g id="edge115" class="edge">
<title>Node176&#45;&gt;Node2</title>
<path fill="none" stroke="#63b8ff" d="M2572.56,-368.08C2598.58,-348.42 2656.01,-298.58 2656.01,-241.5 2656.01,-241.5 2656.01,-241.5 2656.01,-118.5 2656.01,-85.15 2644.87,-71.72 2616.01,-55 2570.6,-28.69 1771.97,-14.15 1585.65,-11.1"/>
<polygon fill="#63b8ff" stroke="#63b8ff" points="1585.84,-7.61 1575.79,-10.95 1585.73,-14.61 1585.84,-7.61"/>
</g>
<!-- Node176&#45;&gt;Node3 -->
<g id="edge116" class="edge">
<title>Node176&#45;&gt;Node3</title>
<path fill="none" stroke="#63b8ff" d="M2566.86,-368.14C2579.92,-350.12 2605.17,-309 2583.01,-286 2543.74,-245.24 1706.08,-241.62 1455.32,-241.45"/>
<polygon fill="#63b8ff" stroke="#63b8ff" points="1455.34,-237.95 1445.34,-241.45 1455.34,-244.95 1455.34,-237.95"/>
</g>
<!-- Node176&#45;&gt;Node69 -->
<g id="edge118" class="edge">
<title>Node176&#45;&gt;Node69</title>
<path fill="none" stroke="#63b8ff" d="M2554.69,-368.2C2549.12,-358.97 2540.12,-344.09 2532.43,-331.36"/>
<polygon fill="#63b8ff" stroke="#63b8ff" points="2535.59,-329.82 2527.42,-323.07 2529.6,-333.44 2535.59,-329.82"/>
</g>
<!-- Node176&#45;&gt;Node76 -->
<g id="edge117" class="edge">
<title>Node176&#45;&gt;Node76</title>
<path fill="none" stroke="#63b8ff" d="M2520.25,-368.06C2464.39,-355.49 2362.7,-332.62 2301.55,-318.87"/>
<polygon fill="#63b8ff" stroke="#63b8ff" points="2302.62,-315.52 2292.1,-316.74 2301.09,-322.35 2302.62,-315.52"/>
</g>
<!-- Node182&#45;&gt;Node2 -->
<g id="edge120" class="edge">
<title>Node182&#45;&gt;Node2</title>
<path fill="none" stroke="#63b8ff" d="M2529.74,-506.45C2608.32,-499.74 2744.02,-476.01 2819.01,-393 2845.11,-364.12 2838.01,-346.43 2838.01,-307.5 2838.01,-307.5 2838.01,-307.5 2838.01,-118.5 2838.01,-45.29 2757.5,-70.79 2686.01,-55 2469.6,-7.2 1759.93,-8.98 1585.83,-10.17"/>
<polygon fill="#63b8ff" stroke="#63b8ff" points="1585.95,-6.67 1575.98,-10.24 1586,-13.67 1585.95,-6.67"/>
</g>
<!-- Node182&#45;&gt;Node3 -->
<g id="edge121" class="edge">
<title>Node182&#45;&gt;Node3</title>
<path fill="none" stroke="#63b8ff" d="M2466.4,-500.01C2455.69,-464.9 2411.4,-336.52 2323.01,-286 2248.39,-243.35 1660.17,-240.77 1455.18,-241.19"/>
<polygon fill="#63b8ff" stroke="#63b8ff" points="1455.47,-237.68 1445.48,-241.21 1455.49,-244.68 1455.47,-237.68"/>
</g>
<!-- Node182&#45;&gt;Node69 -->
<g id="edge122" class="edge">
<title>Node182&#45;&gt;Node69</title>
<path fill="none" stroke="#63b8ff" d="M2467.56,-500.08C2464.12,-476.71 2457.08,-412.09 2475.01,-363 2479.34,-351.15 2487.19,-339.81 2495.02,-330.5"/>
<polygon fill="#63b8ff" stroke="#63b8ff" points="2497.62,-332.84 2501.69,-323.06 2492.41,-328.17 2497.62,-332.84"/>
</g>
<!-- Node182&#45;&gt;Node124 -->
<g id="edge123" class="edge">
<title>Node182&#45;&gt;Node124</title>
<path fill="none" stroke="#63b8ff" d="M2408.04,-501.81C2308.63,-490.1 2111.83,-466.9 2002.95,-454.07"/>
<polygon fill="#63b8ff" stroke="#63b8ff" points="2003.58,-450.62 1993.23,-452.92 2002.76,-457.57 2003.58,-450.62"/>
</g>
<!-- Node182&#45;&gt;Node176 -->
<g id="edge124" class="edge">
<title>Node182&#45;&gt;Node176</title>
<path fill="none" stroke="#63b8ff" d="M2475.26,-500.06C2490.07,-478.91 2527.5,-425.44 2547.29,-397.17"/>
<polygon fill="#63b8ff" stroke="#63b8ff" points="2549.98,-399.44 2552.84,-389.24 2544.24,-395.42 2549.98,-399.44"/>
</g>
<!-- Node193&#45;&gt;Node2 -->
<g id="edge126" class="edge">
<title>Node193&#45;&gt;Node2</title>
<path fill="none" stroke="#63b8ff" d="M2732.01,-362.76C2732.01,-338.07 2732.01,-285.73 2732.01,-241.5 2732.01,-241.5 2732.01,-241.5 2732.01,-118.5 2732.01,-69.55 2688.36,-70.75 2642.01,-55 2540.48,-20.5 1768.63,-12.25 1585.77,-10.78"/>
<polygon fill="#63b8ff" stroke="#63b8ff" points="1585.89,-7.28 1575.86,-10.7 1585.84,-14.28 1585.89,-7.28"/>
</g>
<!-- Node193&#45;&gt;Node3 -->
<g id="edge127" class="edge">
<title>Node193&#45;&gt;Node3</title>
<path fill="none" stroke="#63b8ff" d="M2717.49,-362.58C2694.86,-341.21 2648.82,-301.94 2601.01,-286 2492.56,-249.84 1698.17,-243.01 1455.33,-241.77"/>
<polygon fill="#63b8ff" stroke="#63b8ff" points="1455.38,-238.27 1445.36,-241.72 1455.34,-245.27 1455.38,-238.27"/>
</g>
<!-- Node193&#45;&gt;Node76 -->
<g id="edge128" class="edge">
<title>Node193&#45;&gt;Node76</title>
<path fill="none" stroke="#63b8ff" d="M2654.23,-364.41C2651.12,-363.93 2648.04,-363.46 2645.01,-363 2533.68,-346.2 2404.41,-328.3 2325.17,-317.5"/>
<polygon fill="#63b8ff" stroke="#63b8ff" points="2325.72,-314.05 2315.34,-316.17 2324.78,-320.98 2325.72,-314.05"/>
</g>
<!-- Node194&#45;&gt;Node2 -->
<g id="edge130" class="edge">
<title>Node194&#45;&gt;Node2</title>
<path fill="none" stroke="#63b8ff" d="M469.9,-291.06C462.24,-289.23 454.45,-287.48 447.01,-286 393.05,-275.23 237.98,-291.64 202.01,-250 136.39,-174.03 226.58,-100.62 316.01,-55 370.35,-27.28 1306,-13.62 1508.55,-10.98"/>
<polygon fill="#63b8ff" stroke="#63b8ff" points="1508.3,-14.48 1518.25,-10.85 1508.21,-7.48 1508.3,-14.48"/>
</g>
<!-- Node194&#45;&gt;Node3 -->
<g id="edge131" class="edge">
<title>Node194&#45;&gt;Node3</title>
<path fill="none" stroke="#63b8ff" d="M571.73,-291.09C579.77,-289.09 588.08,-287.28 596.01,-286 858.82,-243.48 1176.53,-239.85 1314.92,-240.59"/>
<polygon fill="#63b8ff" stroke="#63b8ff" points="1314.63,-244.08 1324.65,-240.65 1314.67,-237.08 1314.63,-244.08"/>
</g>
<!-- Node194&#45;&gt;Node13 -->
<g id="edge132" class="edge">
<title>Node194&#45;&gt;Node13</title>
<path fill="none" stroke="#63b8ff" d="M469.47,-291.01C461.95,-289.21 454.31,-287.48 447.01,-286 395.67,-275.56 248.11,-289.77 214.01,-250 177.45,-207.36 255.33,-158.29 300.6,-134.66"/>
<polygon fill="#63b8ff" stroke="#63b8ff" points="302.1,-137.82 309.43,-130.17 298.93,-131.58 302.1,-137.82"/>
</g>
</g>
</svg>
