<?xml version="1.0" encoding="UTF-8" standalone="no"?>
<!DOCTYPE svg PUBLIC "-//W3C//DTD SVG 1.1//EN"
 "http://www.w3.org/Graphics/SVG/1.1/DTD/svg11.dtd">
<!-- Generated by graphviz version 7.0.1 (20221109.1506)
 -->
<!-- Title: testBenchmark.cpp Pages: 1 -->
<svg width="334pt" height="82pt"
 viewBox="0.00 0.00 334.00 82.00" xmlns="http://www.w3.org/2000/svg" xmlns:xlink="http://www.w3.org/1999/xlink">
<g id="graph0" class="graph" transform="scale(1 1) rotate(0) translate(4 78)">
<title>testBenchmark.cpp</title>
<!-- Node1 -->
<g id="node1" class="node">
<title>Node1</title>
<g id="a_node1"><a xlink:title=" ">
<polygon fill="#999999" stroke="#666666" points="175.5,-74 74.5,-74 74.5,-55 175.5,-55 175.5,-74"/>
<text text-anchor="middle" x="125" y="-62" font-family="FreeSans" font-size="10.00">testBenchmark.cpp</text>
</a>
</g>
</g>
<!-- Node2 -->
<g id="node2" class="node">
<title>Node2</title>
<g id="a_node2"><a xlink:title=" ">
<polygon fill="#e0e0e0" stroke="#999999" points="54,-19 0,-19 0,0 54,0 54,-19"/>
<text text-anchor="middle" x="27" y="-7" font-family="FreeSans" font-size="10.00">iostream</text>
</a>
</g>
</g>
<!-- Node1&#45;&gt;Node2 -->
<g id="edge1" class="edge">
<title>Node1&#45;&gt;Node2</title>
<path fill="none" stroke="#63b8ff" d="M108.38,-54.51C93.22,-46.31 70.58,-34.07 53.03,-24.58"/>
<polygon fill="#63b8ff" stroke="#63b8ff" points="55.17,-21.76 44.71,-20.08 51.84,-27.91 55.17,-21.76"/>
</g>
<!-- Node3 -->
<g id="node3" class="node">
<title>Node3</title>
<g id="a_node3"><a xlink:title=" ">
<polygon fill="#e0e0e0" stroke="#999999" points="113.5,-19 72.5,-19 72.5,0 113.5,0 113.5,-19"/>
<text text-anchor="middle" x="93" y="-7" font-family="FreeSans" font-size="10.00">string</text>
</a>
</g>
</g>
<!-- Node1&#45;&gt;Node3 -->
<g id="edge2" class="edge">
<title>Node1&#45;&gt;Node3</title>
<path fill="none" stroke="#63b8ff" d="M119.72,-54.75C115.53,-47.81 109.52,-37.86 104.27,-29.16"/>
<polygon fill="#63b8ff" stroke="#63b8ff" points="107.35,-27.49 99.18,-20.74 101.35,-31.11 107.35,-27.49"/>
</g>
<!-- Node4 -->
<g id="node4" class="node">
<title>Node4</title>
<g id="a_node4"><a xlink:title=" ">
<polygon fill="#e0e0e0" stroke="#999999" points="184,-19 132,-19 132,0 184,0 184,-19"/>
<text text-anchor="middle" x="158" y="-7" font-family="FreeSans" font-size="10.00">sstream</text>
</a>
</g>
</g>
<!-- Node1&#45;&gt;Node4 -->
<g id="edge3" class="edge">
<title>Node1&#45;&gt;Node4</title>
<path fill="none" stroke="#63b8ff" d="M130.45,-54.75C134.77,-47.81 140.96,-37.86 146.38,-29.16"/>
<polygon fill="#63b8ff" stroke="#63b8ff" points="149.32,-31.07 151.63,-20.73 143.38,-27.37 149.32,-31.07"/>
</g>
<!-- Node5 -->
<g id="node5" class="node">
<title>Node5</title>
<g id="a_node5"><a xlink:title=" ">
<polygon fill="#e0e0e0" stroke="#999999" points="326,-19 202,-19 202,0 326,0 326,-19"/>
<text text-anchor="middle" x="264" y="-7" font-family="FreeSans" font-size="10.00">benchmark/benchmark.h</text>
</a>
</g>
</g>
<!-- Node1&#45;&gt;Node5 -->
<g id="edge4" class="edge">
<title>Node1&#45;&gt;Node5</title>
<path fill="none" stroke="#63b8ff" d="M148.58,-54.51C170.98,-45.97 204.9,-33.03 230.18,-23.4"/>
<polygon fill="#63b8ff" stroke="#63b8ff" points="231.26,-26.73 239.35,-19.9 228.76,-20.19 231.26,-26.73"/>
</g>
</g>
</svg>
