<?xml version="1.0" encoding="UTF-8" standalone="no"?>
<!DOCTYPE svg PUBLIC "-//W3C//DTD SVG 1.1//EN"
 "http://www.w3.org/Graphics/SVG/1.1/DTD/svg11.dtd">
<!-- Generated by graphviz version 7.0.1 (20221109.1506)
 -->
<!-- Title: testProgressBar.cpp Pages: 1 -->
<!--zoomable 313 -->
<svg id="main" version="1.1" xmlns="http://www.w3.org/2000/svg" xmlns:xlink="http://www.w3.org/1999/xlink" xml:space="preserve" onload="init(evt)">
<style type="text/css"><![CDATA[
.edge:hover path { stroke: red; }
.edge:hover polygon { stroke: red; fill: red; }
]]></style>
<script type="text/javascript"><![CDATA[
var edges = document.getElementsByTagName('g');
if (edges && edges.length) {
  for (var i=0;i<edges.length;i++) {
    if (edges[i].id.substr(0,4)=='edge') {
      edges[i].setAttribute('class','edge');
    }
  }
}
]]></script>
        <defs>
                <circle id="rim" cx="0" cy="0" r="7"/>
                <circle id="rim2" cx="0" cy="0" r="3.5"/>
                <g id="zoomPlus">
                        <use xlink:href="#rim" fill="#404040">
                                <set attributeName="fill" to="#808080" begin="zoomplus.mouseover" end="zoomplus.mouseout"/>
                        </use>
                        <path d="M-4,0h8M0,-4v8" fill="none" stroke="white" stroke-width="1.5" pointer-events="none"/>
                </g>
                <g id="zoomMin">
                        <use xlink:href="#rim" fill="#404040">
                                <set attributeName="fill" to="#808080" begin="zoomminus.mouseover" end="zoomminus.mouseout"/>
                        </use>
                        <path d="M-4,0h8" fill="none" stroke="white" stroke-width="1.5" pointer-events="none"/>
                </g>
                <g id="dirArrow">
                        <path fill="none" stroke="white" stroke-width="1.5" d="M0,-3.0v7 M-2.5,-0.5L0,-3.0L2.5,-0.5"/>
                </g>
               <g id="resetDef">
                       <use xlink:href="#rim2" fill="#404040">
                               <set attributeName="fill" to="#808080" begin="reset.mouseover" end="reset.mouseout"/>
                       </use>
               </g>
        </defs>

<script type="text/javascript">
var viewWidth = 2574;
var viewHeight = 313;
var sectionId = 'dynsection-0';
</script>
<script xlink:href="svgpan.js"/>
<svg id="graph" class="graph">
<g id="viewport">
<title>testProgressBar.cpp</title>
<!-- Node1 -->
<g id="node1" class="node">
<title>Node1</title>
<g id="a_node1"><a xlink:title=" ">
<polygon fill="#999999" stroke="#666666" points="1980.5,-305 1875.5,-305 1875.5,-286 1980.5,-286 1980.5,-305"/>
<text text-anchor="middle" x="1928" y="-293" font-family="FreeSans" font-size="10.00">testProgressBar.cpp</text>
</a>
</g>
</g>
<!-- Node2 -->
<g id="node2" class="node">
<title>Node2</title>
<g id="a_node2"><a xlink:title=" ">
<polygon fill="#e0e0e0" stroke="#999999" points="1589,-19 1535,-19 1535,0 1589,0 1589,-19"/>
<text text-anchor="middle" x="1562" y="-7" font-family="FreeSans" font-size="10.00">iostream</text>
</a>
</g>
</g>
<!-- Node1&#45;&gt;Node2 -->
<g id="edge1" class="edge">
<title>Node1&#45;&gt;Node2</title>
<path fill="none" stroke="#63b8ff" d="M1980.75,-290.67C2133.61,-278.88 2566,-240.28 2566,-181 2566,-181 2566,-181 2566,-118.5 2566,-79.67 2541.29,-71.2 2506,-55 2422.86,-16.83 1768.06,-11.39 1600.8,-10.62"/>
<polygon fill="#63b8ff" stroke="#63b8ff" points="1600.92,-7.13 1590.9,-10.58 1600.89,-14.13 1600.92,-7.13"/>
</g>
<!-- Node3 -->
<g id="node3" class="node">
<title>Node3</title>
<g id="a_node3"><a xlink:href="Common_8h_source.html" target="_top" xlink:title=" ">
<polygon fill="white" stroke="#666666" points="1348.5,-250 1231.5,-250 1231.5,-231 1348.5,-231 1348.5,-250"/>
<text text-anchor="middle" x="1290" y="-238" font-family="FreeSans" font-size="10.00">DGtal/base/Common.h</text>
</a>
</g>
</g>
<!-- Node1&#45;&gt;Node3 -->
<g id="edge2" class="edge">
<title>Node1&#45;&gt;Node3</title>
<path fill="none" stroke="#63b8ff" d="M1875.25,-290.12C1760.63,-280.6 1488.85,-258.02 1360.04,-247.32"/>
<polygon fill="#63b8ff" stroke="#63b8ff" points="1360.54,-243.85 1350.28,-246.51 1359.96,-250.82 1360.54,-243.85"/>
</g>
<!-- Node3&#45;&gt;Node2 -->
<g id="edge3" class="edge">
<title>Node3&#45;&gt;Node2</title>
<path fill="none" stroke="#63b8ff" d="M1300.85,-230.54C1322.66,-212.35 1372.94,-169.36 1411,-129 1440.05,-98.19 1437.87,-81.36 1471,-55 1487.52,-41.85 1508.57,-31.25 1526.26,-23.69"/>
<polygon fill="#63b8ff" stroke="#63b8ff" points="1527.44,-26.99 1535.36,-19.96 1524.78,-20.51 1527.44,-26.99"/>
</g>
<!-- Node4 -->
<g id="node4" class="node">
<title>Node4</title>
<g id="a_node4"><a xlink:title=" ">
<polygon fill="#e0e0e0" stroke="#999999" points="2216.5,-189.5 2157.5,-189.5 2157.5,-170.5 2216.5,-170.5 2216.5,-189.5"/>
<text text-anchor="middle" x="2187" y="-177.5" font-family="FreeSans" font-size="10.00">exception</text>
</a>
</g>
</g>
<!-- Node3&#45;&gt;Node4 -->
<g id="edge4" class="edge">
<title>Node3&#45;&gt;Node4</title>
<path fill="none" stroke="#63b8ff" d="M1348.78,-238.39C1515.65,-234.92 1990.09,-222.84 2143,-195 2145.83,-194.48 2148.73,-193.84 2151.63,-193.11"/>
<polygon fill="#63b8ff" stroke="#63b8ff" points="2152.5,-196.5 2161.16,-190.39 2150.58,-189.77 2152.5,-196.5"/>
</g>
<!-- Node5 -->
<g id="node5" class="node">
<title>Node5</title>
<g id="a_node5"><a xlink:title=" ">
<polygon fill="#e0e0e0" stroke="#999999" points="2128,-74 2072,-74 2072,-55 2128,-55 2128,-74"/>
<text text-anchor="middle" x="2100" y="-62" font-family="FreeSans" font-size="10.00">algorithm</text>
</a>
</g>
</g>
<!-- Node3&#45;&gt;Node5 -->
<g id="edge5" class="edge">
<title>Node3&#45;&gt;Node5</title>
<path fill="none" stroke="#63b8ff" d="M1348.99,-238.98C1496.33,-237.17 1877.38,-229.21 1999,-195 2059.48,-177.99 2091.57,-182.8 2124,-129 2132.73,-114.52 2124.14,-96.33 2114.9,-83.14"/>
<polygon fill="#63b8ff" stroke="#63b8ff" points="2117.79,-81.15 2108.91,-75.36 2112.24,-85.42 2117.79,-81.15"/>
</g>
<!-- Node6 -->
<g id="node6" class="node">
<title>Node6</title>
<g id="a_node6"><a xlink:title=" ">
<polygon fill="#e0e0e0" stroke="#999999" points="94,-189.5 0,-189.5 0,-170.5 94,-170.5 94,-189.5"/>
<text text-anchor="middle" x="47" y="-177.5" font-family="FreeSans" font-size="10.00">boost/version.hpp</text>
</a>
</g>
</g>
<!-- Node3&#45;&gt;Node6 -->
<g id="edge6" class="edge">
<title>Node3&#45;&gt;Node6</title>
<path fill="none" stroke="#63b8ff" d="M1231.17,-238.91C1023.38,-236.57 324.52,-226.49 103,-195 98.37,-194.34 93.56,-193.46 88.8,-192.45"/>
<polygon fill="#63b8ff" stroke="#63b8ff" points="89.88,-189.11 79.35,-190.28 88.31,-195.93 89.88,-189.11"/>
</g>
<!-- Node7 -->
<g id="node7" class="node">
<title>Node7</title>
<g id="a_node7"><a xlink:title=" ">
<polygon fill="#e0e0e0" stroke="#999999" points="240,-189.5 112,-189.5 112,-170.5 240,-170.5 240,-189.5"/>
<text text-anchor="middle" x="176" y="-177.5" font-family="FreeSans" font-size="10.00">boost/concept_check.hpp</text>
</a>
</g>
</g>
<!-- Node3&#45;&gt;Node7 -->
<g id="edge7" class="edge">
<title>Node3&#45;&gt;Node7</title>
<path fill="none" stroke="#63b8ff" d="M1231.06,-240C1072.01,-240.7 620.93,-238.38 249,-195 242.27,-194.21 235.23,-193.16 228.28,-191.99"/>
<polygon fill="#63b8ff" stroke="#63b8ff" points="229.1,-188.58 218.63,-190.25 227.86,-195.47 229.1,-188.58"/>
</g>
<!-- Node8 -->
<g id="node8" class="node">
<title>Node8</title>
<g id="a_node8"><a xlink:title=" ">
<polygon fill="#e0e0e0" stroke="#999999" points="377.5,-189.5 258.5,-189.5 258.5,-170.5 377.5,-170.5 377.5,-189.5"/>
<text text-anchor="middle" x="318" y="-177.5" font-family="FreeSans" font-size="10.00">boost/static_assert.hpp</text>
</a>
</g>
</g>
<!-- Node3&#45;&gt;Node8 -->
<g id="edge8" class="edge">
<title>Node3&#45;&gt;Node8</title>
<path fill="none" stroke="#63b8ff" d="M1231.03,-239.73C1086.41,-239.61 702.84,-235.17 386,-195 379.95,-194.23 373.63,-193.22 367.39,-192.09"/>
<polygon fill="#63b8ff" stroke="#63b8ff" points="368.27,-188.7 357.79,-190.25 366.95,-195.57 368.27,-188.7"/>
</g>
<!-- Node9 -->
<g id="node9" class="node">
<title>Node9</title>
<g id="a_node9"><a xlink:title=" ">
<polygon fill="#e0e0e0" stroke="#999999" points="522.5,-189.5 395.5,-189.5 395.5,-170.5 522.5,-170.5 522.5,-189.5"/>
<text text-anchor="middle" x="459" y="-177.5" font-family="FreeSans" font-size="10.00">boost/concept/assert.hpp</text>
</a>
</g>
</g>
<!-- Node3&#45;&gt;Node9 -->
<g id="edge9" class="edge">
<title>Node3&#45;&gt;Node9</title>
<path fill="none" stroke="#63b8ff" d="M1231.27,-238.67C1103.59,-236.28 791.33,-227.34 532,-195 525.44,-194.18 518.58,-193.13 511.8,-191.97"/>
<polygon fill="#63b8ff" stroke="#63b8ff" points="512.49,-188.54 502.03,-190.21 511.25,-195.43 512.49,-188.54"/>
</g>
<!-- Node10 -->
<g id="node10" class="node">
<title>Node10</title>
<g id="a_node10"><a xlink:title=" ">
<polygon fill="#e0e0e0" stroke="#999999" points="675,-189.5 541,-189.5 541,-170.5 675,-170.5 675,-189.5"/>
<text text-anchor="middle" x="608" y="-177.5" font-family="FreeSans" font-size="10.00">boost/concept/requires.hpp</text>
</a>
</g>
</g>
<!-- Node3&#45;&gt;Node10 -->
<g id="edge10" class="edge">
<title>Node3&#45;&gt;Node10</title>
<path fill="none" stroke="#63b8ff" d="M1231.29,-237.31C1122.82,-232.81 883.85,-220.67 684,-195 677.27,-194.14 670.23,-193.07 663.27,-191.91"/>
<polygon fill="#63b8ff" stroke="#63b8ff" points="664.02,-188.48 653.57,-190.22 662.82,-195.38 664.02,-188.48"/>
</g>
<!-- Node11 -->
<g id="node11" class="node">
<title>Node11</title>
<g id="a_node11"><a xlink:title=" ">
<polygon fill="#e0e0e0" stroke="#999999" points="800.5,-195 693.5,-195 693.5,-165 800.5,-165 800.5,-195"/>
<text text-anchor="start" x="701.5" y="-183" font-family="FreeSans" font-size="10.00">boost/iterator/iterator</text>
<text text-anchor="middle" x="747" y="-172" font-family="FreeSans" font-size="10.00">_concepts.hpp</text>
</a>
</g>
</g>
<!-- Node3&#45;&gt;Node11 -->
<g id="edge11" class="edge">
<title>Node3&#45;&gt;Node11</title>
<path fill="none" stroke="#63b8ff" d="M1231.2,-236.53C1142.38,-231.49 968.56,-219.53 811.93,-195.33"/>
<polygon fill="#63b8ff" stroke="#63b8ff" points="812.6,-191.9 802.18,-193.81 811.52,-198.81 812.6,-191.9"/>
</g>
<!-- Node12 -->
<g id="node12" class="node">
<title>Node12</title>
<g id="a_node12"><a xlink:title=" ">
<polygon fill="#e0e0e0" stroke="#999999" points="963.5,-189.5 818.5,-189.5 818.5,-170.5 963.5,-170.5 963.5,-189.5"/>
<text text-anchor="middle" x="891" y="-177.5" font-family="FreeSans" font-size="10.00">boost/concept_archetype.hpp</text>
</a>
</g>
</g>
<!-- Node3&#45;&gt;Node12 -->
<g id="edge12" class="edge">
<title>Node3&#45;&gt;Node12</title>
<path fill="none" stroke="#63b8ff" d="M1231.01,-231.41C1168.24,-222.72 1066.04,-208.36 978,-195 971.15,-193.96 964,-192.85 956.88,-191.73"/>
<polygon fill="#63b8ff" stroke="#63b8ff" points="957.66,-188.31 947.23,-190.2 956.56,-195.22 957.66,-188.31"/>
</g>
<!-- Node13 -->
<g id="node13" class="node">
<title>Node13</title>
<g id="a_node13"><a xlink:title=" ">
<polygon fill="#e0e0e0" stroke="#999999" points="1822,-129 1778,-129 1778,-110 1822,-110 1822,-129"/>
<text text-anchor="middle" x="1800" y="-117" font-family="FreeSans" font-size="10.00">cmath</text>
</a>
</g>
</g>
<!-- Node3&#45;&gt;Node13 -->
<g id="edge13" class="edge">
<title>Node3&#45;&gt;Node13</title>
<path fill="none" stroke="#63b8ff" d="M1348.78,-231.98C1403.18,-224.49 1486.1,-211.7 1557,-195 1633.38,-177.01 1720.91,-148.06 1767.24,-132.06"/>
<polygon fill="#63b8ff" stroke="#63b8ff" points="1768.1,-135.47 1776.4,-128.88 1765.8,-128.86 1768.1,-135.47"/>
</g>
<!-- Node14 -->
<g id="node14" class="node">
<title>Node14</title>
<g id="a_node14"><a xlink:title=" ">
<polygon fill="#e0e0e0" stroke="#999999" points="1066,-189.5 1020,-189.5 1020,-170.5 1066,-170.5 1066,-189.5"/>
<text text-anchor="middle" x="1043" y="-177.5" font-family="FreeSans" font-size="10.00">stdio.h</text>
</a>
</g>
</g>
<!-- Node3&#45;&gt;Node14 -->
<g id="edge14" class="edge">
<title>Node3&#45;&gt;Node14</title>
<path fill="none" stroke="#63b8ff" d="M1236.8,-230.55C1194.01,-222.8 1132.57,-210.42 1080,-195 1078.63,-194.6 1077.24,-194.17 1075.83,-193.72"/>
<polygon fill="#63b8ff" stroke="#63b8ff" points="1077.14,-190.47 1066.55,-190.49 1074.85,-197.08 1077.14,-190.47"/>
</g>
<!-- Node15 -->
<g id="node15" class="node">
<title>Node15</title>
<g id="a_node15"><a xlink:href="Config_8h_source.html" target="_top" xlink:title=" ">
<polygon fill="white" stroke="#666666" points="972,-74 866,-74 866,-55 972,-55 972,-74"/>
<text text-anchor="middle" x="919" y="-62" font-family="FreeSans" font-size="10.00">DGtal/base/Config.h</text>
</a>
</g>
</g>
<!-- Node3&#45;&gt;Node15 -->
<g id="edge15" class="edge">
<title>Node3&#45;&gt;Node15</title>
<path fill="none" stroke="#63b8ff" d="M1289.22,-230.76C1286.57,-206.9 1275.69,-140.42 1235,-110 1215.25,-95.24 1070.18,-79.49 983.62,-71.26"/>
<polygon fill="#63b8ff" stroke="#63b8ff" points="984.12,-67.8 973.84,-70.34 983.47,-74.76 984.12,-67.8"/>
</g>
<!-- Node17 -->
<g id="node17" class="node">
<title>Node17</title>
<g id="a_node17"><a xlink:href="Trace_8h_source.html" target="_top" xlink:title=" ">
<polygon fill="white" stroke="#666666" points="1224,-189.5 1122,-189.5 1122,-170.5 1224,-170.5 1224,-189.5"/>
<text text-anchor="middle" x="1173" y="-177.5" font-family="FreeSans" font-size="10.00">DGtal/base/Trace.h</text>
</a>
</g>
</g>
<!-- Node3&#45;&gt;Node17 -->
<g id="edge18" class="edge">
<title>Node3&#45;&gt;Node17</title>
<path fill="none" stroke="#63b8ff" d="M1272.23,-230.62C1253.33,-221.17 1223.18,-206.09 1201.06,-195.03"/>
<polygon fill="#63b8ff" stroke="#63b8ff" points="1202.8,-191.99 1192.29,-190.65 1199.67,-198.25 1202.8,-191.99"/>
</g>
<!-- Node24 -->
<g id="node24" class="node">
<title>Node24</title>
<g id="a_node24"><a xlink:href="TraceWriterTerm_8h_source.html" target="_top" xlink:title=" ">
<polygon fill="white" stroke="#666666" points="881.5,-129 732.5,-129 732.5,-110 881.5,-110 881.5,-129"/>
<text text-anchor="middle" x="807" y="-117" font-family="FreeSans" font-size="10.00">DGtal/base/TraceWriterTerm.h</text>
</a>
</g>
</g>
<!-- Node3&#45;&gt;Node24 -->
<g id="edge41" class="edge">
<title>Node3&#45;&gt;Node24</title>
<path fill="none" stroke="#63b8ff" d="M1231.25,-231.14C1195.72,-224.55 1150.24,-213.33 1113,-195 1093.69,-185.5 1094.68,-173.7 1075,-165 1043.09,-150.89 958.56,-138.23 892.88,-130.05"/>
<polygon fill="#63b8ff" stroke="#63b8ff" points="893.54,-126.6 883.19,-128.86 892.69,-133.55 893.54,-126.6"/>
</g>
<!-- Node25 -->
<g id="node25" class="node">
<title>Node25</title>
<g id="a_node25"><a xlink:href="Assert_8h_source.html" target="_top" xlink:title=" ">
<polygon fill="white" stroke="#666666" points="1226,-129 1120,-129 1120,-110 1226,-110 1226,-129"/>
<text text-anchor="middle" x="1173" y="-117" font-family="FreeSans" font-size="10.00">DGtal/base/Assert.h</text>
</a>
</g>
</g>
<!-- Node3&#45;&gt;Node25 -->
<g id="edge46" class="edge">
<title>Node3&#45;&gt;Node25</title>
<path fill="none" stroke="#63b8ff" d="M1284.39,-230.6C1274.89,-215.95 1254.58,-186.26 1233,-165 1222,-154.16 1208.24,-143.77 1196.68,-135.77"/>
<polygon fill="#63b8ff" stroke="#63b8ff" points="1198.71,-132.91 1188.46,-130.23 1194.81,-138.72 1198.71,-132.91"/>
</g>
<!-- Node28 -->
<g id="node28" class="node">
<title>Node28</title>
<g id="a_node28"><a xlink:href="TraceWriterFile_8h_source.html" target="_top" xlink:title=" ">
<polygon fill="white" stroke="#666666" points="675.5,-129 532.5,-129 532.5,-110 675.5,-110 675.5,-129"/>
<text text-anchor="middle" x="604" y="-117" font-family="FreeSans" font-size="10.00">DGtal/base/TraceWriterFile.h</text>
</a>
</g>
</g>
<!-- Node3&#45;&gt;Node28 -->
<g id="edge42" class="edge">
<title>Node3&#45;&gt;Node28</title>
<path fill="none" stroke="#63b8ff" d="M1231.03,-238.47C1172.9,-235.56 1082.62,-225.87 1011,-195 990.92,-186.34 992.24,-173.27 972,-165 946.26,-154.48 787.53,-137.88 687.12,-128.21"/>
<polygon fill="#63b8ff" stroke="#63b8ff" points="687.58,-124.73 677.29,-127.26 686.91,-131.7 687.58,-124.73"/>
</g>
<!-- Node29 -->
<g id="node29" class="node">
<title>Node29</title>
<g id="a_node29"><a xlink:href="ConceptUtils_8h_source.html" target="_top" xlink:title=" ">
<polygon fill="white" stroke="#666666" points="1760,-129 1626,-129 1626,-110 1760,-110 1760,-129"/>
<text text-anchor="middle" x="1693" y="-117" font-family="FreeSans" font-size="10.00">DGtal/base/ConceptUtils.h</text>
</a>
</g>
</g>
<!-- Node3&#45;&gt;Node29 -->
<g id="edge47" class="edge">
<title>Node3&#45;&gt;Node29</title>
<path fill="none" stroke="#63b8ff" d="M1343.4,-230.52C1385.98,-222.79 1446.89,-210.45 1499,-195 1558.19,-177.45 1624.92,-150.08 1662.68,-133.85"/>
<polygon fill="#63b8ff" stroke="#63b8ff" points="1663.8,-137.18 1671.58,-130 1661.02,-130.76 1663.8,-137.18"/>
</g>
<!-- Node30 -->
<g id="node30" class="node">
<title>Node30</title>
<g id="a_node30"><a xlink:href="BasicTypes_8h_source.html" target="_top" xlink:title=" ">
<polygon fill="white" stroke="#666666" points="1608,-129 1480,-129 1480,-110 1608,-110 1608,-129"/>
<text text-anchor="middle" x="1544" y="-117" font-family="FreeSans" font-size="10.00">DGtal/base/BasicTypes.h</text>
</a>
</g>
</g>
<!-- Node3&#45;&gt;Node30 -->
<g id="edge49" class="edge">
<title>Node3&#45;&gt;Node30</title>
<path fill="none" stroke="#63b8ff" d="M1348.66,-232.39C1384.28,-226.25 1429.73,-215.05 1466,-195 1492.27,-180.47 1516.23,-154.93 1530.47,-137.86"/>
<polygon fill="#63b8ff" stroke="#63b8ff" points="1532.81,-140.52 1536.38,-130.55 1527.37,-136.12 1532.81,-140.52"/>
</g>
<!-- Node33 -->
<g id="node33" class="node">
<title>Node33</title>
<g id="a_node33"><a xlink:href="BasicFunctors_8h_source.html" target="_top" xlink:title=" ">
<polygon fill="white" stroke="#666666" points="1990,-189.5 1850,-189.5 1850,-170.5 1990,-170.5 1990,-189.5"/>
<text text-anchor="middle" x="1920" y="-177.5" font-family="FreeSans" font-size="10.00">DGtal/base/BasicFunctors.h</text>
</a>
</g>
</g>
<!-- Node3&#45;&gt;Node33 -->
<g id="edge54" class="edge">
<title>Node3&#45;&gt;Node33</title>
<path fill="none" stroke="#63b8ff" d="M1348.71,-233.82C1439.37,-225.54 1618.58,-209.54 1771,-195 1792.74,-192.93 1816.38,-190.59 1838.31,-188.43"/>
<polygon fill="#63b8ff" stroke="#63b8ff" points="1838.49,-191.93 1848.1,-187.47 1837.81,-184.97 1838.49,-191.93"/>
</g>
<!-- Node42 -->
<g id="node42" class="node">
<title>Node42</title>
<g id="a_node42"><a xlink:href="BasicArchetypes_8h_source.html" target="_top" xlink:title=" ">
<polygon fill="white" stroke="#666666" points="2480,-129 2328,-129 2328,-110 2480,-110 2480,-129"/>
<text text-anchor="middle" x="2404" y="-117" font-family="FreeSans" font-size="10.00">DGtal/base/BasicArchetypes.h</text>
</a>
</g>
</g>
<!-- Node3&#45;&gt;Node42 -->
<g id="edge70" class="edge">
<title>Node3&#45;&gt;Node42</title>
<path fill="none" stroke="#63b8ff" d="M1348.84,-239.75C1529.44,-240.04 2073.9,-237.3 2245,-195 2296.09,-182.37 2350.59,-152.89 2380.66,-135.03"/>
<polygon fill="#63b8ff" stroke="#63b8ff" points="2382.18,-138.2 2388.93,-130.03 2378.56,-132.21 2382.18,-138.2"/>
</g>
<!-- Node43 -->
<g id="node43" class="node">
<title>Node43</title>
<g id="a_node43"><a xlink:href="Exceptions_8h_source.html" target="_top" xlink:title=" ">
<polygon fill="white" stroke="#666666" points="2517,-189.5 2391,-189.5 2391,-170.5 2517,-170.5 2517,-189.5"/>
<text text-anchor="middle" x="2454" y="-177.5" font-family="FreeSans" font-size="10.00">DGtal/base/Exceptions.h</text>
</a>
</g>
</g>
<!-- Node3&#45;&gt;Node43 -->
<g id="edge72" class="edge">
<title>Node3&#45;&gt;Node43</title>
<path fill="none" stroke="#63b8ff" d="M1348.96,-238.51C1508.1,-235.49 1959.65,-224.77 2334,-195 2348.66,-193.83 2364.3,-192.26 2379.27,-190.58"/>
<polygon fill="#63b8ff" stroke="#63b8ff" points="2379.52,-194.07 2389.06,-189.46 2378.73,-187.12 2379.52,-194.07"/>
</g>
<!-- Node15&#45;&gt;Node2 -->
<g id="edge16" class="edge">
<title>Node15&#45;&gt;Node2</title>
<path fill="none" stroke="#63b8ff" d="M972.45,-58.93C987.51,-57.65 1003.89,-56.26 1019,-55 1208.02,-39.22 1434.1,-20.86 1523.19,-13.64"/>
<polygon fill="#63b8ff" stroke="#63b8ff" points="1523.4,-17.13 1533.08,-12.84 1522.83,-10.16 1523.4,-17.13"/>
</g>
<!-- Node16 -->
<g id="node16" class="node">
<title>Node16</title>
<g id="a_node16"><a xlink:title=" ">
<polygon fill="#e0e0e0" stroke="#999999" points="820.5,-19 779.5,-19 779.5,0 820.5,0 820.5,-19"/>
<text text-anchor="middle" x="800" y="-7" font-family="FreeSans" font-size="10.00">string</text>
</a>
</g>
</g>
<!-- Node15&#45;&gt;Node16 -->
<g id="edge17" class="edge">
<title>Node15&#45;&gt;Node16</title>
<path fill="none" stroke="#63b8ff" d="M898.81,-54.51C879.98,-46.12 851.63,-33.5 830.13,-23.92"/>
<polygon fill="#63b8ff" stroke="#63b8ff" points="831.83,-20.85 821.27,-19.97 828.98,-27.24 831.83,-20.85"/>
</g>
<!-- Node17&#45;&gt;Node2 -->
<g id="edge19" class="edge">
<title>Node17&#45;&gt;Node2</title>
<path fill="none" stroke="#63b8ff" d="M1224.26,-174.68C1282.79,-168.56 1373.16,-155.08 1394,-129 1415.67,-101.88 1347.39,-82.17 1369,-55 1387.92,-31.22 1472.7,-19.07 1523.39,-13.82"/>
<polygon fill="#63b8ff" stroke="#63b8ff" points="1523.45,-17.33 1533.06,-12.86 1522.77,-10.36 1523.45,-17.33"/>
</g>
<!-- Node17&#45;&gt;Node15 -->
<g id="edge23" class="edge">
<title>Node17&#45;&gt;Node15</title>
<path fill="none" stroke="#63b8ff" d="M1162.49,-170.13C1144.85,-155.65 1107.72,-126.87 1072,-110 1040.95,-95.34 1004.03,-84.43 974.24,-77.08"/>
<polygon fill="#63b8ff" stroke="#63b8ff" points="975.21,-73.72 964.67,-74.8 973.59,-80.53 975.21,-73.72"/>
</g>
<!-- Node17&#45;&gt;Node16 -->
<g id="edge21" class="edge">
<title>Node17&#45;&gt;Node16</title>
<path fill="none" stroke="#63b8ff" d="M1121.72,-170.92C1106.69,-168.75 1090.21,-166.58 1075,-165 1013.87,-158.65 565.02,-173.85 523,-129 448.28,-49.25 680.01,-20.75 767.76,-12.96"/>
<polygon fill="#63b8ff" stroke="#63b8ff" points="767.97,-16.45 777.64,-12.12 767.38,-9.48 767.97,-16.45"/>
</g>
<!-- Node18 -->
<g id="node18" class="node">
<title>Node18</title>
<g id="a_node18"><a xlink:title=" ">
<polygon fill="#e0e0e0" stroke="#999999" points="613,-19 561,-19 561,0 613,0 613,-19"/>
<text text-anchor="middle" x="587" y="-7" font-family="FreeSans" font-size="10.00">ostream</text>
</a>
</g>
</g>
<!-- Node17&#45;&gt;Node18 -->
<g id="edge20" class="edge">
<title>Node17&#45;&gt;Node18</title>
<path fill="none" stroke="#63b8ff" d="M1121.72,-170.9C1106.7,-168.74 1090.22,-166.57 1075,-165 1012.21,-158.53 551.2,-175.03 508,-129 495.9,-116.11 499.6,-83.7 519,-55 527.79,-41.99 541.78,-31.89 554.8,-24.62"/>
<polygon fill="#63b8ff" stroke="#63b8ff" points="556.28,-27.79 563.56,-20.09 553.07,-21.57 556.28,-27.79"/>
</g>
<!-- Node19 -->
<g id="node19" class="node">
<title>Node19</title>
<g id="a_node19"><a xlink:title=" ">
<polygon fill="#e0e0e0" stroke="#999999" points="1063.5,-129 1022.5,-129 1022.5,-110 1063.5,-110 1063.5,-129"/>
<text text-anchor="middle" x="1043" y="-117" font-family="FreeSans" font-size="10.00">stack</text>
</a>
</g>
</g>
<!-- Node17&#45;&gt;Node19 -->
<g id="edge22" class="edge">
<title>Node17&#45;&gt;Node19</title>
<path fill="none" stroke="#63b8ff" d="M1153.26,-170.12C1131.97,-160.54 1097.83,-145.18 1073.18,-134.08"/>
<polygon fill="#63b8ff" stroke="#63b8ff" points="1074.87,-131 1064.31,-130.09 1071.99,-137.39 1074.87,-131"/>
</g>
<!-- Node20 -->
<g id="node20" class="node">
<title>Node20</title>
<g id="a_node20"><a xlink:href="Clock_8h_source.html" target="_top" xlink:title=" ">
<polygon fill="white" stroke="#666666" points="1385.5,-129 1282.5,-129 1282.5,-110 1385.5,-110 1385.5,-129"/>
<text text-anchor="middle" x="1334" y="-117" font-family="FreeSans" font-size="10.00">DGtal/base/Clock.h</text>
</a>
</g>
</g>
<!-- Node17&#45;&gt;Node20 -->
<g id="edge24" class="edge">
<title>Node17&#45;&gt;Node20</title>
<path fill="none" stroke="#63b8ff" d="M1197.45,-170.12C1224.4,-160.32 1267.99,-144.48 1298.66,-133.34"/>
<polygon fill="#63b8ff" stroke="#63b8ff" points="1299.69,-136.69 1307.89,-129.99 1297.3,-130.11 1299.69,-136.69"/>
</g>
<!-- Node23 -->
<g id="node23" class="node">
<title>Node23</title>
<g id="a_node23"><a xlink:href="TraceWriter_8h_source.html" target="_top" xlink:title=" ">
<polygon fill="white" stroke="#666666" points="771.5,-74 644.5,-74 644.5,-55 771.5,-55 771.5,-74"/>
<text text-anchor="middle" x="708" y="-62" font-family="FreeSans" font-size="10.00">DGtal/base/TraceWriter.h</text>
</a>
</g>
</g>
<!-- Node17&#45;&gt;Node23 -->
<g id="edge28" class="edge">
<title>Node17&#45;&gt;Node23</title>
<path fill="none" stroke="#63b8ff" d="M1121.68,-171.27C1106.65,-169.12 1090.18,-166.86 1075,-165 996.95,-155.44 782.1,-180.87 723,-129 710.88,-118.37 707.6,-99.93 707.08,-85.66"/>
<polygon fill="#63b8ff" stroke="#63b8ff" points="710.58,-86.02 707.16,-75.99 703.58,-85.96 710.58,-86.02"/>
</g>
<!-- Node17&#45;&gt;Node24 -->
<g id="edge31" class="edge">
<title>Node17&#45;&gt;Node24</title>
<path fill="none" stroke="#63b8ff" d="M1133.55,-170.07C1125.14,-168.29 1116.29,-166.5 1108,-165 1033.62,-151.51 948.35,-139.2 887.6,-130.96"/>
<polygon fill="#63b8ff" stroke="#63b8ff" points="888.43,-127.54 878.05,-129.67 887.49,-134.48 888.43,-127.54"/>
</g>
<!-- Node17&#45;&gt;Node25 -->
<g id="edge36" class="edge">
<title>Node17&#45;&gt;Node25</title>
<path fill="none" stroke="#63b8ff" d="M1168.04,-170.37C1166.35,-162.5 1165.85,-150.6 1166.57,-140.39"/>
<polygon fill="#63b8ff" stroke="#63b8ff" points="1170.01,-141.04 1167.84,-130.67 1163.07,-140.13 1170.01,-141.04"/>
</g>
<!-- Node27 -->
<g id="node27" class="node">
<title>Node27</title>
<g id="a_node27"><a xlink:href="Trace_8ih_source.html" target="_top" xlink:title=" ">
<polygon fill="white" stroke="#666666" points="1004,-129 900,-129 900,-110 1004,-110 1004,-129"/>
<text text-anchor="middle" x="952" y="-117" font-family="FreeSans" font-size="10.00">DGtal/base/Trace.ih</text>
</a>
</g>
</g>
<!-- Node17&#45;&gt;Node27 -->
<g id="edge40" class="edge">
<title>Node17&#45;&gt;Node27</title>
<path fill="none" stroke="#63b8ff" d="M1139.43,-170.12C1101.39,-160.04 1039.17,-143.58 996.96,-132.4"/>
<polygon fill="#63b8ff" stroke="#63b8ff" points="997.91,-129.03 987.34,-129.86 996.12,-135.8 997.91,-129.03"/>
</g>
<!-- Node20&#45;&gt;Node2 -->
<g id="edge25" class="edge">
<title>Node20&#45;&gt;Node2</title>
<path fill="none" stroke="#63b8ff" d="M1331.27,-109.93C1327.58,-96.51 1322.86,-70.47 1336,-55 1359.73,-27.05 1465.42,-16.31 1523.48,-12.46"/>
<polygon fill="#63b8ff" stroke="#63b8ff" points="1523.48,-15.97 1533.24,-11.86 1523.05,-8.98 1523.48,-15.97"/>
</g>
<!-- Node21 -->
<g id="node21" class="node">
<title>Node21</title>
<g id="a_node21"><a xlink:title=" ">
<polygon fill="#e0e0e0" stroke="#999999" points="1423.5,-74 1378.5,-74 1378.5,-55 1423.5,-55 1423.5,-74"/>
<text text-anchor="middle" x="1401" y="-62" font-family="FreeSans" font-size="10.00">cstdlib</text>
</a>
</g>
</g>
<!-- Node20&#45;&gt;Node21 -->
<g id="edge26" class="edge">
<title>Node20&#45;&gt;Node21</title>
<path fill="none" stroke="#63b8ff" d="M1345.37,-109.51C1355.05,-101.85 1369.2,-90.66 1380.81,-81.47"/>
<polygon fill="#63b8ff" stroke="#63b8ff" points="1382.94,-84.25 1388.62,-75.3 1378.6,-78.76 1382.94,-84.25"/>
</g>
<!-- Node22 -->
<g id="node22" class="node">
<title>Node22</title>
<g id="a_node22"><a xlink:href="Clock_8ih_source.html" target="_top" xlink:title=" ">
<polygon fill="white" stroke="#666666" points="1283.5,-74 1178.5,-74 1178.5,-55 1283.5,-55 1283.5,-74"/>
<text text-anchor="middle" x="1231" y="-62" font-family="FreeSans" font-size="10.00">DGtal/base/Clock.ih</text>
</a>
</g>
</g>
<!-- Node20&#45;&gt;Node22 -->
<g id="edge27" class="edge">
<title>Node20&#45;&gt;Node22</title>
<path fill="none" stroke="#63b8ff" d="M1316.53,-109.51C1300.6,-101.31 1276.81,-89.07 1258.36,-79.58"/>
<polygon fill="#63b8ff" stroke="#63b8ff" points="1260.05,-76.51 1249.56,-75.05 1256.85,-82.74 1260.05,-76.51"/>
</g>
<!-- Node23&#45;&gt;Node2 -->
<g id="edge29" class="edge">
<title>Node23&#45;&gt;Node2</title>
<path fill="none" stroke="#63b8ff" d="M771.81,-58.68C788.77,-57.43 807.08,-56.13 824,-55 1091.26,-37.15 1413.18,-18.83 1523.07,-12.67"/>
<polygon fill="#63b8ff" stroke="#63b8ff" points="1523.22,-16.17 1533,-12.11 1522.82,-9.18 1523.22,-16.17"/>
</g>
<!-- Node23&#45;&gt;Node18 -->
<g id="edge30" class="edge">
<title>Node23&#45;&gt;Node18</title>
<path fill="none" stroke="#63b8ff" d="M687.47,-54.51C668.32,-46.12 639.5,-33.5 617.63,-23.92"/>
<polygon fill="#63b8ff" stroke="#63b8ff" points="619.17,-20.77 608.61,-19.97 616.36,-27.18 619.17,-20.77"/>
</g>
<!-- Node24&#45;&gt;Node2 -->
<g id="edge32" class="edge">
<title>Node24&#45;&gt;Node2</title>
<path fill="none" stroke="#63b8ff" d="M810.99,-109.57C817.97,-95.16 833.89,-67.13 857,-55 916.09,-23.98 1384.33,-13.54 1523.27,-11.11"/>
<polygon fill="#63b8ff" stroke="#63b8ff" points="1523.11,-14.61 1533.04,-10.94 1522.99,-7.61 1523.11,-14.61"/>
</g>
<!-- Node24&#45;&gt;Node15 -->
<g id="edge35" class="edge">
<title>Node24&#45;&gt;Node15</title>
<path fill="none" stroke="#63b8ff" d="M826,-109.51C843.56,-101.2 869.92,-88.73 890.09,-79.18"/>
<polygon fill="#63b8ff" stroke="#63b8ff" points="891.37,-82.45 898.91,-75.01 888.38,-76.12 891.37,-82.45"/>
</g>
<!-- Node24&#45;&gt;Node16 -->
<g id="edge33" class="edge">
<title>Node24&#45;&gt;Node16</title>
<path fill="none" stroke="#63b8ff" d="M806.43,-109.66C805.32,-92.57 802.86,-54.61 801.32,-30.92"/>
<polygon fill="#63b8ff" stroke="#63b8ff" points="804.82,-30.72 800.68,-20.97 797.83,-31.18 804.82,-30.72"/>
</g>
<!-- Node24&#45;&gt;Node23 -->
<g id="edge34" class="edge">
<title>Node24&#45;&gt;Node23</title>
<path fill="none" stroke="#63b8ff" d="M790.21,-109.51C774.9,-101.31 752.03,-89.07 734.3,-79.58"/>
<polygon fill="#63b8ff" stroke="#63b8ff" points="736.35,-76.71 725.88,-75.07 733.04,-82.88 736.35,-76.71"/>
</g>
<!-- Node25&#45;&gt;Node16 -->
<g id="edge39" class="edge">
<title>Node25&#45;&gt;Node16</title>
<path fill="none" stroke="#63b8ff" d="M1134.7,-109.51C1103.15,-101.6 1057.49,-89.04 1019,-74 1001.41,-67.13 998.72,-61.52 981,-55 930.16,-36.31 868.43,-23.03 831.77,-16.09"/>
<polygon fill="#63b8ff" stroke="#63b8ff" points="832.76,-12.71 822.29,-14.33 831.49,-19.59 832.76,-12.71"/>
</g>
<!-- Node25&#45;&gt;Node17 -->
<g id="edge37" class="edge">
<title>Node25&#45;&gt;Node17</title>
<path fill="none" stroke="#63b8ff" d="M1177.96,-129.17C1179.66,-137.04 1180.15,-148.95 1179.43,-159.16"/>
<polygon fill="#63b8ff" stroke="#63b8ff" points="1175.99,-158.5 1178.15,-168.87 1182.93,-159.41 1175.99,-158.5"/>
</g>
<!-- Node26 -->
<g id="node26" class="node">
<title>Node26</title>
<g id="a_node26"><a xlink:title=" ">
<polygon fill="#e0e0e0" stroke="#999999" points="1160,-74 1028,-74 1028,-55 1160,-55 1160,-74"/>
<text text-anchor="middle" x="1094" y="-62" font-family="FreeSans" font-size="10.00">boost/current_function.hpp</text>
</a>
</g>
</g>
<!-- Node25&#45;&gt;Node26 -->
<g id="edge38" class="edge">
<title>Node25&#45;&gt;Node26</title>
<path fill="none" stroke="#63b8ff" d="M1159.6,-109.51C1147.84,-101.62 1130.49,-89.98 1116.59,-80.65"/>
<polygon fill="#63b8ff" stroke="#63b8ff" points="1118.71,-77.87 1108.46,-75.2 1114.81,-83.68 1118.71,-77.87"/>
</g>
<!-- Node28&#45;&gt;Node2 -->
<g id="edge43" class="edge">
<title>Node28&#45;&gt;Node2</title>
<path fill="none" stroke="#63b8ff" d="M605.41,-109.67C608.21,-95.38 615.94,-67.55 635,-55 672.62,-30.23 1351.92,-14.78 1523.1,-11.27"/>
<polygon fill="#63b8ff" stroke="#63b8ff" points="1523.09,-14.77 1533.01,-11.06 1522.94,-7.77 1523.09,-14.77"/>
</g>
<!-- Node28&#45;&gt;Node16 -->
<g id="edge44" class="edge">
<title>Node28&#45;&gt;Node16</title>
<path fill="none" stroke="#63b8ff" d="M600.45,-109.58C595.76,-96.16 589.46,-70.67 602,-55 622.43,-29.47 717.33,-17.57 767.96,-12.95"/>
<polygon fill="#63b8ff" stroke="#63b8ff" points="768.06,-16.46 777.72,-12.11 767.46,-9.48 768.06,-16.46"/>
</g>
<!-- Node28&#45;&gt;Node23 -->
<g id="edge45" class="edge">
<title>Node28&#45;&gt;Node23</title>
<path fill="none" stroke="#63b8ff" d="M621.64,-109.51C637.73,-101.31 661.75,-89.07 680.37,-79.58"/>
<polygon fill="#63b8ff" stroke="#63b8ff" points="681.95,-82.7 689.27,-75.05 678.77,-76.47 681.95,-82.7"/>
</g>
<!-- Node29&#45;&gt;Node2 -->
<g id="edge48" class="edge">
<title>Node29&#45;&gt;Node2</title>
<path fill="none" stroke="#63b8ff" d="M1692.05,-109.51C1690.16,-96.01 1684.76,-70.41 1670,-55 1651.52,-35.7 1623.46,-24.48 1600.57,-18.14"/>
<polygon fill="#63b8ff" stroke="#63b8ff" points="1601.51,-14.76 1590.95,-15.69 1599.78,-21.55 1601.51,-14.76"/>
</g>
<!-- Node30&#45;&gt;Node2 -->
<g id="edge51" class="edge">
<title>Node30&#45;&gt;Node2</title>
<path fill="none" stroke="#63b8ff" d="M1598.54,-109.54C1619.17,-103.21 1640.63,-92.41 1653,-74 1669.77,-49.04 1632.26,-30.91 1600.42,-20.56"/>
<polygon fill="#63b8ff" stroke="#63b8ff" points="1601.53,-17.24 1590.94,-17.67 1599.49,-23.93 1601.53,-17.24"/>
</g>
<!-- Node30&#45;&gt;Node21 -->
<g id="edge50" class="edge">
<title>Node30&#45;&gt;Node21</title>
<path fill="none" stroke="#63b8ff" d="M1519.74,-109.51C1496.31,-100.83 1460.64,-87.6 1434.51,-77.92"/>
<polygon fill="#63b8ff" stroke="#63b8ff" points="1435.97,-74.73 1425.37,-74.53 1433.54,-81.29 1435.97,-74.73"/>
</g>
<!-- Node31 -->
<g id="node31" class="node">
<title>Node31</title>
<g id="a_node31"><a xlink:title=" ">
<polygon fill="#e0e0e0" stroke="#999999" points="1572,-74 1480,-74 1480,-55 1572,-55 1572,-74"/>
<text text-anchor="middle" x="1526" y="-62" font-family="FreeSans" font-size="10.00">boost/cstdint.hpp</text>
</a>
</g>
</g>
<!-- Node30&#45;&gt;Node31 -->
<g id="edge52" class="edge">
<title>Node30&#45;&gt;Node31</title>
<path fill="none" stroke="#63b8ff" d="M1541.03,-109.75C1538.77,-103.11 1535.59,-93.73 1532.73,-85.31"/>
<polygon fill="#63b8ff" stroke="#63b8ff" points="1536.05,-84.22 1529.52,-75.88 1529.43,-86.47 1536.05,-84.22"/>
</g>
<!-- Node32 -->
<g id="node32" class="node">
<title>Node32</title>
<g id="a_node32"><a xlink:title=" ">
<polygon fill="#e0e0e0" stroke="#999999" points="1644,-74 1590,-74 1590,-55 1644,-55 1644,-74"/>
<text text-anchor="middle" x="1617" y="-62" font-family="FreeSans" font-size="10.00">gmpxx.h</text>
</a>
</g>
</g>
<!-- Node30&#45;&gt;Node32 -->
<g id="edge53" class="edge">
<title>Node30&#45;&gt;Node32</title>
<path fill="none" stroke="#63b8ff" d="M1556.38,-109.51C1567.15,-101.7 1582.97,-90.21 1595.75,-80.93"/>
<polygon fill="#63b8ff" stroke="#63b8ff" points="1597.54,-83.95 1603.57,-75.25 1593.43,-78.29 1597.54,-83.95"/>
</g>
<!-- Node33&#45;&gt;Node3 -->
<g id="edge65" class="edge">
<title>Node33&#45;&gt;Node3</title>
<path fill="none" stroke="#63b8ff" d="M1849.51,-189.05C1829.94,-191.03 1808.7,-193.12 1789,-195 1636.4,-209.56 1456.96,-225.57 1360.2,-233.85"/>
<polygon fill="#63b8ff" stroke="#63b8ff" points="1359.99,-230.35 1350.32,-234.69 1360.58,-237.33 1359.99,-230.35"/>
</g>
<!-- Node33&#45;&gt;Node5 -->
<g id="edge55" class="edge">
<title>Node33&#45;&gt;Node5</title>
<path fill="none" stroke="#63b8ff" d="M1937.02,-170.08C1955.14,-160.43 1984.53,-144.36 2009,-129 2033.64,-113.53 2060.88,-94.21 2079.08,-80.97"/>
<polygon fill="#63b8ff" stroke="#63b8ff" points="2080.96,-83.93 2086.96,-75.2 2076.82,-78.28 2080.96,-83.93"/>
</g>
<!-- Node33&#45;&gt;Node13 -->
<g id="edge57" class="edge">
<title>Node33&#45;&gt;Node13</title>
<path fill="none" stroke="#63b8ff" d="M1901.77,-170.12C1882.3,-160.62 1851.18,-145.45 1828.47,-134.38"/>
<polygon fill="#63b8ff" stroke="#63b8ff" points="1830.28,-131.37 1819.76,-130.13 1827.21,-137.66 1830.28,-131.37"/>
</g>
<!-- Node34 -->
<g id="node34" class="node">
<title>Node34</title>
<g id="a_node34"><a xlink:title=" ">
<polygon fill="#e0e0e0" stroke="#999999" points="2115.5,-129 2056.5,-129 2056.5,-110 2115.5,-110 2115.5,-129"/>
<text text-anchor="middle" x="2086" y="-117" font-family="FreeSans" font-size="10.00">functional</text>
</a>
</g>
</g>
<!-- Node33&#45;&gt;Node34 -->
<g id="edge56" class="edge">
<title>Node33&#45;&gt;Node34</title>
<path fill="none" stroke="#63b8ff" d="M1945.21,-170.12C1973.12,-160.28 2018.34,-144.34 2049.98,-133.19"/>
<polygon fill="#63b8ff" stroke="#63b8ff" points="2050.86,-136.6 2059.12,-129.97 2048.53,-129.99 2050.86,-136.6"/>
</g>
<!-- Node35 -->
<g id="node35" class="node">
<title>Node35</title>
<g id="a_node35"><a xlink:href="Color_8h_source.html" target="_top" xlink:title=" ">
<polygon fill="white" stroke="#666666" points="2272,-129 2186,-129 2186,-110 2272,-110 2272,-129"/>
<text text-anchor="middle" x="2229" y="-117" font-family="FreeSans" font-size="10.00">DGtal/io/Color.h</text>
</a>
</g>
</g>
<!-- Node33&#45;&gt;Node35 -->
<g id="edge58" class="edge">
<title>Node33&#45;&gt;Node35</title>
<path fill="none" stroke="#63b8ff" d="M1967.27,-170.05C2023.06,-159.49 2115.66,-141.96 2174.44,-130.83"/>
<polygon fill="#63b8ff" stroke="#63b8ff" points="2175.07,-134.27 2184.24,-128.97 2173.77,-127.39 2175.07,-134.27"/>
</g>
<!-- Node39 -->
<g id="node39" class="node">
<title>Node39</title>
<g id="a_node39"><a xlink:href="BasicBoolFunctors_8h_source.html" target="_top" xlink:title=" ">
<polygon fill="white" stroke="#666666" points="2000,-129 1840,-129 1840,-110 2000,-110 2000,-129"/>
<text text-anchor="middle" x="1920" y="-117" font-family="FreeSans" font-size="10.00">DGtal/base/BasicBoolFunctors.h</text>
</a>
</g>
</g>
<!-- Node33&#45;&gt;Node39 -->
<g id="edge66" class="edge">
<title>Node33&#45;&gt;Node39</title>
<path fill="none" stroke="#63b8ff" d="M1920,-170.37C1920,-162.5 1920,-150.6 1920,-140.39"/>
<polygon fill="#63b8ff" stroke="#63b8ff" points="1923.5,-140.68 1920,-130.68 1916.5,-140.68 1923.5,-140.68"/>
</g>
<!-- Node35&#45;&gt;Node2 -->
<g id="edge59" class="edge">
<title>Node35&#45;&gt;Node2</title>
<path fill="none" stroke="#63b8ff" d="M2219.76,-109.56C2204.17,-95.12 2171.02,-67.06 2137,-55 2037.75,-19.82 1713.43,-12.41 1600.89,-10.88"/>
<polygon fill="#63b8ff" stroke="#63b8ff" points="1601,-7.39 1590.96,-10.76 1600.92,-14.38 1601,-7.39"/>
</g>
<!-- Node35&#45;&gt;Node3 -->
<g id="edge60" class="edge">
<title>Node35&#45;&gt;Node3</title>
<path fill="none" stroke="#63b8ff" d="M2231.82,-129.34C2236.2,-145.02 2242.45,-177.65 2225,-195 2194.42,-225.39 1571.99,-235.98 1360,-238.71"/>
<polygon fill="#63b8ff" stroke="#63b8ff" points="1360.19,-235.2 1350.23,-238.83 1360.28,-242.2 1360.19,-235.2"/>
</g>
<!-- Node35&#45;&gt;Node5 -->
<g id="edge62" class="edge">
<title>Node35&#45;&gt;Node5</title>
<path fill="none" stroke="#63b8ff" d="M2207.12,-109.51C2186.51,-101.04 2155.41,-88.27 2132.02,-78.66"/>
<polygon fill="#63b8ff" stroke="#63b8ff" points="2133.54,-75.5 2122.96,-74.93 2130.88,-81.97 2133.54,-75.5"/>
</g>
<!-- Node36 -->
<g id="node36" class="node">
<title>Node36</title>
<g id="a_node36"><a xlink:title=" ">
<polygon fill="#e0e0e0" stroke="#999999" points="2406,-74 2292,-74 2292,-55 2406,-55 2406,-74"/>
<text text-anchor="middle" x="2349" y="-62" font-family="FreeSans" font-size="10.00">boost/lexical_cast.hpp</text>
</a>
</g>
</g>
<!-- Node35&#45;&gt;Node36 -->
<g id="edge61" class="edge">
<title>Node35&#45;&gt;Node36</title>
<path fill="none" stroke="#63b8ff" d="M2249.36,-109.51C2268.35,-101.12 2296.93,-88.5 2318.62,-78.92"/>
<polygon fill="#63b8ff" stroke="#63b8ff" points="2319.83,-82.21 2327.56,-74.97 2317,-75.81 2319.83,-82.21"/>
</g>
<!-- Node37 -->
<g id="node37" class="node">
<title>Node37</title>
<g id="a_node37"><a xlink:title=" ">
<polygon fill="#e0e0e0" stroke="#999999" points="2462,-74 2424,-74 2424,-55 2462,-55 2462,-74"/>
<text text-anchor="middle" x="2443" y="-62" font-family="FreeSans" font-size="10.00">array</text>
</a>
</g>
</g>
<!-- Node35&#45;&gt;Node37 -->
<g id="edge63" class="edge">
<title>Node35&#45;&gt;Node37</title>
<path fill="none" stroke="#63b8ff" d="M2269.45,-109.56C2304.89,-101.56 2358.01,-89.18 2412.79,-74.48"/>
<polygon fill="#63b8ff" stroke="#63b8ff" points="2413.57,-77.89 2422.3,-71.9 2411.74,-71.14 2413.57,-77.89"/>
</g>
<!-- Node38 -->
<g id="node38" class="node">
<title>Node38</title>
<g id="a_node38"><a xlink:href="Color_8ih_source.html" target="_top" xlink:title=" ">
<polygon fill="white" stroke="#666666" points="2273.5,-74 2184.5,-74 2184.5,-55 2273.5,-55 2273.5,-74"/>
<text text-anchor="middle" x="2229" y="-62" font-family="FreeSans" font-size="10.00">DGtal/io/Color.ih</text>
</a>
</g>
</g>
<!-- Node35&#45;&gt;Node38 -->
<g id="edge64" class="edge">
<title>Node35&#45;&gt;Node38</title>
<path fill="none" stroke="#63b8ff" d="M2229,-109.75C2229,-103.27 2229,-94.16 2229,-85.9"/>
<polygon fill="#63b8ff" stroke="#63b8ff" points="2232.5,-85.96 2229,-75.96 2225.5,-85.96 2232.5,-85.96"/>
</g>
<!-- Node39&#45;&gt;Node2 -->
<g id="edge67" class="edge">
<title>Node39&#45;&gt;Node2</title>
<path fill="none" stroke="#63b8ff" d="M1888.6,-109.54C1857.64,-100.66 1808.99,-86.61 1767,-74 1708.78,-56.52 1641.5,-35.53 1600.36,-22.6"/>
<polygon fill="#63b8ff" stroke="#63b8ff" points="1601.51,-19.29 1590.92,-19.63 1599.41,-25.97 1601.51,-19.29"/>
</g>
<!-- Node40 -->
<g id="node40" class="node">
<title>Node40</title>
<g id="a_node40"><a xlink:title=" ">
<polygon fill="#e0e0e0" stroke="#999999" points="1873.5,-74 1776.5,-74 1776.5,-55 1873.5,-55 1873.5,-74"/>
<text text-anchor="middle" x="1825" y="-62" font-family="FreeSans" font-size="10.00">boost/function.hpp</text>
</a>
</g>
</g>
<!-- Node39&#45;&gt;Node40 -->
<g id="edge68" class="edge">
<title>Node39&#45;&gt;Node40</title>
<path fill="none" stroke="#63b8ff" d="M1903.88,-109.51C1889.33,-101.39 1867.66,-89.3 1850.71,-79.85"/>
<polygon fill="#63b8ff" stroke="#63b8ff" points="1852.64,-76.91 1842.2,-75.1 1849.23,-83.02 1852.64,-76.91"/>
</g>
<!-- Node41 -->
<g id="node41" class="node">
<title>Node41</title>
<g id="a_node41"><a xlink:href="BasicBoolFunctors_8ih_source.html" target="_top" xlink:title=" ">
<polygon fill="white" stroke="#666666" points="2054,-74 1892,-74 1892,-55 2054,-55 2054,-74"/>
<text text-anchor="middle" x="1973" y="-62" font-family="FreeSans" font-size="10.00">DGtal/base/BasicBoolFunctors.ih</text>
</a>
</g>
</g>
<!-- Node39&#45;&gt;Node41 -->
<g id="edge69" class="edge">
<title>Node39&#45;&gt;Node41</title>
<path fill="none" stroke="#63b8ff" d="M1928.75,-109.75C1936.15,-102.35 1946.96,-91.54 1956.05,-82.45"/>
<polygon fill="#63b8ff" stroke="#63b8ff" points="1958.39,-85.06 1962.99,-75.51 1953.44,-80.11 1958.39,-85.06"/>
</g>
<!-- Node42&#45;&gt;Node2 -->
<g id="edge71" class="edge">
<title>Node42&#45;&gt;Node2</title>
<path fill="none" stroke="#63b8ff" d="M2425.69,-109.55C2451.93,-97.53 2490.34,-75.31 2471,-55 2440.54,-23.01 1769.62,-12.95 1600.46,-10.92"/>
<polygon fill="#63b8ff" stroke="#63b8ff" points="1600.71,-7.42 1590.67,-10.81 1600.63,-14.42 1600.71,-7.42"/>
</g>
<!-- Node43&#45;&gt;Node2 -->
<g id="edge73" class="edge">
<title>Node43&#45;&gt;Node2</title>
<path fill="none" stroke="#63b8ff" d="M2462.92,-170C2471.51,-160.66 2483.9,-145.17 2489,-129 2494.25,-112.34 2501.71,-69.13 2488,-55 2456.63,-22.68 1771.94,-12.86 1600.6,-10.9"/>
<polygon fill="#63b8ff" stroke="#63b8ff" points="1600.72,-7.4 1590.68,-10.79 1600.64,-14.4 1600.72,-7.4"/>
</g>
</g>
</svg>
        <g id="navigator" transform="translate(0 0)" fill="#404254">
                <rect fill="#f2f5e9" fill-opacity="0.5" stroke="#606060" stroke-width=".5" x="0" y="0" width="60" height="60"/>
                <use id="zoomplus" xlink:href="#zoomPlus" x="17" y="9" onmousedown="handleZoom(evt,'in')"/>
                <use id="zoomminus" xlink:href="#zoomMin" x="42" y="9" onmousedown="handleZoom(evt,'out')"/>
                <use id="reset" xlink:href="#resetDef" x="30" y="36" onmousedown="handleReset()"/>
                <g id="arrowUp" xlink:href="#dirArrow" transform="translate(30 24)" onmousedown="handlePan(0,-1)">
                  <use xlink:href="#rim" fill="#404040">
                        <set attributeName="fill" to="#808080" begin="arrowUp.mouseover" end="arrowUp.mouseout"/>
                  </use>
                  <path fill="none" stroke="white" stroke-width="1.5" d="M0,-3.0v7 M-2.5,-0.5L0,-3.0L2.5,-0.5"/>
                </g>
                <g id="arrowRight" xlink:href="#dirArrow" transform="rotate(90) translate(36 -43)" onmousedown="handlePan(1,0)">
                  <use xlink:href="#rim" fill="#404040">
                        <set attributeName="fill" to="#808080" begin="arrowRight.mouseover" end="arrowRight.mouseout"/>
                  </use>
                  <path fill="none" stroke="white" stroke-width="1.5" d="M0,-3.0v7 M-2.5,-0.5L0,-3.0L2.5,-0.5"/>
                </g>
                <g id="arrowDown" xlink:href="#dirArrow" transform="rotate(180) translate(-30 -48)" onmousedown="handlePan(0,1)">
                  <use xlink:href="#rim" fill="#404040">
                        <set attributeName="fill" to="#808080" begin="arrowDown.mouseover" end="arrowDown.mouseout"/>
                  </use>
                  <path fill="none" stroke="white" stroke-width="1.5" d="M0,-3.0v7 M-2.5,-0.5L0,-3.0L2.5,-0.5"/>
                </g>
                <g id="arrowLeft" xlink:href="#dirArrow" transform="rotate(270) translate(-36 17)" onmousedown="handlePan(-1,0)">
                  <use xlink:href="#rim" fill="#404040">
                        <set attributeName="fill" to="#808080" begin="arrowLeft.mouseover" end="arrowLeft.mouseout"/>
                  </use>
                  <path fill="none" stroke="white" stroke-width="1.5" d="M0,-3.0v7 M-2.5,-0.5L0,-3.0L2.5,-0.5"/>
                </g>
        </g>
        <svg viewBox="0 0 15 15" width="100%" height="30px" preserveAspectRatio="xMaxYMin meet">
         <g id="arrow_out" transform="scale(0.3 0.3)">
          <a xlink:href="testProgressBar_8cpp__incl_org.svg" target="_base">
           <rect id="button" ry="5" rx="5" y="6" x="6" height="38" width="38"
                fill="#f2f5e9" fill-opacity="0.5" stroke="#606060" stroke-width="1.0"/>
           <path id="arrow"
             d="M 11.500037,31.436501 C 11.940474,20.09759 22.043105,11.32322 32.158766,21.979434 L 37.068811,17.246167 C 37.068811,17.246167 37.088388,32 37.088388,32 L 22.160133,31.978069 C 22.160133,31.978069 26.997745,27.140456 26.997745,27.140456 C 18.528582,18.264221 13.291696,25.230495 11.500037,31.436501 z"
             style="fill:#404040;"/>
          </a>
         </g>
        </svg>
</svg>
