<?xml version="1.0" encoding="UTF-8" standalone="no"?>
<!DOCTYPE svg PUBLIC "-//W3C//DTD SVG 1.1//EN"
 "http://www.w3.org/Graphics/SVG/1.1/DTD/svg11.dtd">
<!-- Generated by graphviz version 7.0.1 (20221109.1506)
 -->
<!-- Title: testCountedConstPtrOrConstPtr.cpp Pages: 1 -->
<svg width="2282pt" height="511pt"
 viewBox="0.00 0.00 2281.93 511.00" xmlns="http://www.w3.org/2000/svg" xmlns:xlink="http://www.w3.org/1999/xlink">
<g id="graph0" class="graph" transform="scale(1 1) rotate(0) translate(4 507)">
<title>testCountedConstPtrOrConstPtr.cpp</title>
<!-- Node1 -->
<g id="node1" class="node">
<title>Node1</title>
<g id="a_node1"><a xlink:title=" ">
<polygon fill="#999999" stroke="#666666" points="2106.93,-503 1960.93,-503 1960.93,-473 2106.93,-473 2106.93,-503"/>
<text text-anchor="start" x="1968.93" y="-491" font-family="FreeSans" font-size="10.00">testCountedConstPtrOrConst</text>
<text text-anchor="middle" x="2033.93" y="-480" font-family="FreeSans" font-size="10.00">Ptr.cpp</text>
</a>
</g>
</g>
<!-- Node2 -->
<g id="node2" class="node">
<title>Node2</title>
<g id="a_node2"><a xlink:title=" ">
<polygon fill="#e0e0e0" stroke="#999999" points="1330.93,-19 1276.93,-19 1276.93,0 1330.93,0 1330.93,-19"/>
<text text-anchor="middle" x="1303.93" y="-7" font-family="FreeSans" font-size="10.00">iostream</text>
</a>
</g>
</g>
<!-- Node1&#45;&gt;Node2 -->
<g id="edge1" class="edge">
<title>Node1&#45;&gt;Node2</title>
<path fill="none" stroke="#63b8ff" d="M2107.25,-478.34C2177.82,-465.43 2273.93,-433.77 2273.93,-357 2273.93,-357 2273.93,-357 2273.93,-118.5 2273.93,-82.02 2254.51,-71.41 2221.93,-55 2142.6,-15.05 1506.71,-10.93 1342.51,-10.53"/>
<polygon fill="#63b8ff" stroke="#63b8ff" points="1342.61,-7.04 1332.6,-10.51 1342.59,-14.04 1342.61,-7.04"/>
</g>
<!-- Node3 -->
<g id="node3" class="node">
<title>Node3</title>
<g id="a_node3"><a xlink:href="Common_8h_source.html" target="_top" xlink:title=" ">
<polygon fill="white" stroke="#666666" points="1346.43,-250 1229.43,-250 1229.43,-231 1346.43,-231 1346.43,-250"/>
<text text-anchor="middle" x="1287.93" y="-238" font-family="FreeSans" font-size="10.00">DGtal/base/Common.h</text>
</a>
</g>
</g>
<!-- Node1&#45;&gt;Node3 -->
<g id="edge2" class="edge">
<title>Node1&#45;&gt;Node3</title>
<path fill="none" stroke="#63b8ff" d="M1988.31,-472.55C1892.47,-442.13 1663.3,-369 1471.93,-305 1420.53,-287.81 1361.3,-267.23 1324.24,-254.26"/>
<polygon fill="#63b8ff" stroke="#63b8ff" points="1325.5,-250.99 1314.91,-250.99 1323.19,-257.6 1325.5,-250.99"/>
</g>
<!-- Node44 -->
<g id="node44" class="node">
<title>Node44</title>
<g id="a_node44"><a xlink:href="CountedConstPtrOrConstPtr_8h_source.html" target="_top" xlink:title=" ">
<polygon fill="white" stroke="#666666" points="2106.43,-437 1961.43,-437 1961.43,-407 2106.43,-407 2106.43,-437"/>
<text text-anchor="start" x="1969.43" y="-425" font-family="FreeSans" font-size="10.00">DGtal/base/CountedConstPtr</text>
<text text-anchor="middle" x="2033.93" y="-414" font-family="FreeSans" font-size="10.00">OrConstPtr.h</text>
</a>
</g>
</g>
<!-- Node1&#45;&gt;Node44 -->
<g id="edge74" class="edge">
<title>Node1&#45;&gt;Node44</title>
<path fill="none" stroke="#63b8ff" d="M2033.93,-472.8C2033.93,-465.67 2033.93,-456.82 2033.93,-448.56"/>
<polygon fill="#63b8ff" stroke="#63b8ff" points="2037.43,-448.68 2033.93,-438.68 2030.43,-448.68 2037.43,-448.68"/>
</g>
<!-- Node3&#45;&gt;Node2 -->
<g id="edge3" class="edge">
<title>Node3&#45;&gt;Node2</title>
<path fill="none" stroke="#63b8ff" d="M1346.85,-237.41C1470.91,-232.6 1755.29,-219.23 1848.93,-195 1917.48,-177.27 1930.09,-159.62 1993.93,-129 2046.73,-103.68 2143.17,-97.54 2102.93,-55 2076.53,-27.09 1499.03,-14.18 1342.67,-11.19"/>
<polygon fill="#63b8ff" stroke="#63b8ff" points="1342.9,-7.7 1332.84,-11.01 1342.77,-14.7 1342.9,-7.7"/>
</g>
<!-- Node4 -->
<g id="node4" class="node">
<title>Node4</title>
<g id="a_node4"><a xlink:title=" ">
<polygon fill="#e0e0e0" stroke="#999999" points="2019.43,-189.5 1960.43,-189.5 1960.43,-170.5 2019.43,-170.5 2019.43,-189.5"/>
<text text-anchor="middle" x="1989.93" y="-177.5" font-family="FreeSans" font-size="10.00">exception</text>
</a>
</g>
</g>
<!-- Node3&#45;&gt;Node4 -->
<g id="edge4" class="edge">
<title>Node3&#45;&gt;Node4</title>
<path fill="none" stroke="#63b8ff" d="M1346.62,-240.23C1462.36,-240.64 1727.71,-236.47 1945.93,-195 1948.76,-194.46 1951.66,-193.8 1954.55,-193.06"/>
<polygon fill="#63b8ff" stroke="#63b8ff" points="1955.43,-196.45 1964.08,-190.33 1953.5,-189.72 1955.43,-196.45"/>
</g>
<!-- Node5 -->
<g id="node5" class="node">
<title>Node5</title>
<g id="a_node5"><a xlink:title=" ">
<polygon fill="#e0e0e0" stroke="#999999" points="2093.93,-74 2037.93,-74 2037.93,-55 2093.93,-55 2093.93,-74"/>
<text text-anchor="middle" x="2065.93" y="-62" font-family="FreeSans" font-size="10.00">algorithm</text>
</a>
</g>
</g>
<!-- Node3&#45;&gt;Node5 -->
<g id="edge5" class="edge">
<title>Node3&#45;&gt;Node5</title>
<path fill="none" stroke="#63b8ff" d="M1346.6,-239.27C1440.52,-237.8 1629.93,-230.23 1785.93,-195 1868.24,-176.41 1888.18,-166.15 1963.93,-129 1992.93,-114.78 2024.17,-94.53 2044.32,-80.75"/>
<polygon fill="#63b8ff" stroke="#63b8ff" points="2046.05,-83.81 2052.28,-75.24 2042.07,-78.05 2046.05,-83.81"/>
</g>
<!-- Node6 -->
<g id="node6" class="node">
<title>Node6</title>
<g id="a_node6"><a xlink:title=" ">
<polygon fill="#e0e0e0" stroke="#999999" points="2131.93,-189.5 2037.93,-189.5 2037.93,-170.5 2131.93,-170.5 2131.93,-189.5"/>
<text text-anchor="middle" x="2084.93" y="-177.5" font-family="FreeSans" font-size="10.00">boost/version.hpp</text>
</a>
</g>
</g>
<!-- Node3&#45;&gt;Node6 -->
<g id="edge6" class="edge">
<title>Node3&#45;&gt;Node6</title>
<path fill="none" stroke="#63b8ff" d="M1346.92,-239.65C1472.92,-239.16 1777.35,-233.66 2028.93,-195 2033.32,-194.33 2037.87,-193.47 2042.38,-192.5"/>
<polygon fill="#63b8ff" stroke="#63b8ff" points="2043.02,-195.95 2051.98,-190.29 2041.45,-189.13 2043.02,-195.95"/>
</g>
<!-- Node7 -->
<g id="node7" class="node">
<title>Node7</title>
<g id="a_node7"><a xlink:title=" ">
<polygon fill="#e0e0e0" stroke="#999999" points="154.93,-189.5 26.93,-189.5 26.93,-170.5 154.93,-170.5 154.93,-189.5"/>
<text text-anchor="middle" x="90.93" y="-177.5" font-family="FreeSans" font-size="10.00">boost/concept_check.hpp</text>
</a>
</g>
</g>
<!-- Node3&#45;&gt;Node7 -->
<g id="edge7" class="edge">
<title>Node3&#45;&gt;Node7</title>
<path fill="none" stroke="#63b8ff" d="M1229.18,-238.34C1028.84,-234.19 373.35,-219.09 163.93,-195 157.12,-194.22 149.98,-193.15 142.96,-191.96"/>
<polygon fill="#63b8ff" stroke="#63b8ff" points="143.64,-188.53 133.18,-190.2 142.4,-195.42 143.64,-188.53"/>
</g>
<!-- Node8 -->
<g id="node8" class="node">
<title>Node8</title>
<g id="a_node8"><a xlink:title=" ">
<polygon fill="#e0e0e0" stroke="#999999" points="292.43,-189.5 173.43,-189.5 173.43,-170.5 292.43,-170.5 292.43,-189.5"/>
<text text-anchor="middle" x="232.93" y="-177.5" font-family="FreeSans" font-size="10.00">boost/static_assert.hpp</text>
</a>
</g>
</g>
<!-- Node3&#45;&gt;Node8 -->
<g id="edge8" class="edge">
<title>Node3&#45;&gt;Node8</title>
<path fill="none" stroke="#63b8ff" d="M1228.98,-240.08C1075.45,-240.89 650.93,-238.64 300.93,-195 294.88,-194.24 288.56,-193.24 282.32,-192.12"/>
<polygon fill="#63b8ff" stroke="#63b8ff" points="283.2,-188.72 272.72,-190.27 281.88,-195.6 283.2,-188.72"/>
</g>
<!-- Node9 -->
<g id="node9" class="node">
<title>Node9</title>
<g id="a_node9"><a xlink:title=" ">
<polygon fill="#e0e0e0" stroke="#999999" points="437.43,-189.5 310.43,-189.5 310.43,-170.5 437.43,-170.5 437.43,-189.5"/>
<text text-anchor="middle" x="373.93" y="-177.5" font-family="FreeSans" font-size="10.00">boost/concept/assert.hpp</text>
</a>
</g>
</g>
<!-- Node3&#45;&gt;Node9 -->
<g id="edge9" class="edge">
<title>Node3&#45;&gt;Node9</title>
<path fill="none" stroke="#63b8ff" d="M1229.07,-239.14C1091.61,-237.71 739.03,-230.57 446.93,-195 440.37,-194.2 433.51,-193.16 426.73,-192.01"/>
<polygon fill="#63b8ff" stroke="#63b8ff" points="427.42,-188.58 416.96,-190.25 426.18,-195.47 427.42,-188.58"/>
</g>
<!-- Node10 -->
<g id="node10" class="node">
<title>Node10</title>
<g id="a_node10"><a xlink:title=" ">
<polygon fill="#e0e0e0" stroke="#999999" points="589.93,-189.5 455.93,-189.5 455.93,-170.5 589.93,-170.5 589.93,-189.5"/>
<text text-anchor="middle" x="522.93" y="-177.5" font-family="FreeSans" font-size="10.00">boost/concept/requires.hpp</text>
</a>
</g>
</g>
<!-- Node3&#45;&gt;Node10 -->
<g id="edge10" class="edge">
<title>Node3&#45;&gt;Node10</title>
<path fill="none" stroke="#63b8ff" d="M1229.19,-238.04C1109.96,-234.55 831.2,-223.79 598.93,-195 592.11,-194.15 584.98,-193.09 577.93,-191.92"/>
<polygon fill="#63b8ff" stroke="#63b8ff" points="578.55,-188.47 568.09,-190.21 577.35,-195.37 578.55,-188.47"/>
</g>
<!-- Node11 -->
<g id="node11" class="node">
<title>Node11</title>
<g id="a_node11"><a xlink:title=" ">
<polygon fill="#e0e0e0" stroke="#999999" points="715.43,-195 608.43,-195 608.43,-165 715.43,-165 715.43,-195"/>
<text text-anchor="start" x="616.43" y="-183" font-family="FreeSans" font-size="10.00">boost/iterator/iterator</text>
<text text-anchor="middle" x="661.93" y="-172" font-family="FreeSans" font-size="10.00">_concepts.hpp</text>
</a>
</g>
</g>
<!-- Node3&#45;&gt;Node11 -->
<g id="edge11" class="edge">
<title>Node3&#45;&gt;Node11</title>
<path fill="none" stroke="#63b8ff" d="M1229.16,-237.64C1128.27,-233.83 915.51,-223.17 726.86,-195.3"/>
<polygon fill="#63b8ff" stroke="#63b8ff" points="727.52,-191.86 717.11,-193.84 726.48,-198.78 727.52,-191.86"/>
</g>
<!-- Node12 -->
<g id="node12" class="node">
<title>Node12</title>
<g id="a_node12"><a xlink:title=" ">
<polygon fill="#e0e0e0" stroke="#999999" points="878.43,-189.5 733.43,-189.5 733.43,-170.5 878.43,-170.5 878.43,-189.5"/>
<text text-anchor="middle" x="805.93" y="-177.5" font-family="FreeSans" font-size="10.00">boost/concept_archetype.hpp</text>
</a>
</g>
</g>
<!-- Node3&#45;&gt;Node12 -->
<g id="edge12" class="edge">
<title>Node3&#45;&gt;Node12</title>
<path fill="none" stroke="#63b8ff" d="M1229.17,-234.04C1151.07,-226.55 1008.84,-212.03 887.93,-195 881.16,-194.05 874.09,-192.97 867.07,-191.84"/>
<polygon fill="#63b8ff" stroke="#63b8ff" points="867.66,-188.39 857.22,-190.22 866.52,-195.3 867.66,-188.39"/>
</g>
<!-- Node13 -->
<g id="node13" class="node">
<title>Node13</title>
<g id="a_node13"><a xlink:title=" ">
<polygon fill="#e0e0e0" stroke="#999999" points="1561.93,-129 1517.93,-129 1517.93,-110 1561.93,-110 1561.93,-129"/>
<text text-anchor="middle" x="1539.93" y="-117" font-family="FreeSans" font-size="10.00">cmath</text>
</a>
</g>
</g>
<!-- Node3&#45;&gt;Node13 -->
<g id="edge13" class="edge">
<title>Node3&#45;&gt;Node13</title>
<path fill="none" stroke="#63b8ff" d="M1346.78,-235.9C1386.88,-231.14 1439.79,-220.18 1479.93,-195 1502.07,-181.11 1519.66,-156.15 1529.93,-138.98"/>
<polygon fill="#63b8ff" stroke="#63b8ff" points="1532.7,-141.19 1534.61,-130.77 1526.61,-137.73 1532.7,-141.19"/>
</g>
<!-- Node14 -->
<g id="node14" class="node">
<title>Node14</title>
<g id="a_node14"><a xlink:title=" ">
<polygon fill="#e0e0e0" stroke="#999999" points="1062.93,-189.5 1016.93,-189.5 1016.93,-170.5 1062.93,-170.5 1062.93,-189.5"/>
<text text-anchor="middle" x="1039.93" y="-177.5" font-family="FreeSans" font-size="10.00">stdio.h</text>
</a>
</g>
</g>
<!-- Node3&#45;&gt;Node14 -->
<g id="edge14" class="edge">
<title>Node3&#45;&gt;Node14</title>
<path fill="none" stroke="#63b8ff" d="M1234.48,-230.58C1191.48,-222.84 1129.75,-210.46 1076.93,-195 1075.37,-194.54 1073.77,-194.05 1072.17,-193.53"/>
<polygon fill="#63b8ff" stroke="#63b8ff" points="1073.68,-190.35 1063.09,-190.36 1071.37,-196.96 1073.68,-190.35"/>
</g>
<!-- Node15 -->
<g id="node15" class="node">
<title>Node15</title>
<g id="a_node15"><a xlink:href="Config_8h_source.html" target="_top" xlink:title=" ">
<polygon fill="white" stroke="#666666" points="565.93,-74 459.93,-74 459.93,-55 565.93,-55 565.93,-74"/>
<text text-anchor="middle" x="512.93" y="-62" font-family="FreeSans" font-size="10.00">DGtal/base/Config.h</text>
</a>
</g>
</g>
<!-- Node3&#45;&gt;Node15 -->
<g id="edge15" class="edge">
<title>Node3&#45;&gt;Node15</title>
<path fill="none" stroke="#63b8ff" d="M1253.7,-230.56C1226.29,-222.81 1187.23,-210.42 1154.93,-195 1132.57,-184.32 1131.2,-173.53 1107.93,-165 996.34,-124.07 956.51,-164.05 842.93,-129 824.89,-123.43 822.93,-115.71 804.93,-110 763.76,-96.93 650.3,-81.79 577.54,-72.96"/>
<polygon fill="#63b8ff" stroke="#63b8ff" points="578.08,-69.5 567.73,-71.78 577.24,-76.45 578.08,-69.5"/>
</g>
<!-- Node17 -->
<g id="node17" class="node">
<title>Node17</title>
<g id="a_node17"><a xlink:href="Trace_8h_source.html" target="_top" xlink:title=" ">
<polygon fill="white" stroke="#666666" points="998.93,-189.5 896.93,-189.5 896.93,-170.5 998.93,-170.5 998.93,-189.5"/>
<text text-anchor="middle" x="947.93" y="-177.5" font-family="FreeSans" font-size="10.00">DGtal/base/Trace.h</text>
</a>
</g>
</g>
<!-- Node3&#45;&gt;Node17 -->
<g id="edge18" class="edge">
<title>Node3&#45;&gt;Node17</title>
<path fill="none" stroke="#63b8ff" d="M1228.99,-231.39C1172.18,-223.27 1083.89,-209.88 1007.93,-195 1003.86,-194.2 999.65,-193.33 995.43,-192.41"/>
<polygon fill="#63b8ff" stroke="#63b8ff" points="996.33,-189.03 985.81,-190.26 994.81,-195.86 996.33,-189.03"/>
</g>
<!-- Node24 -->
<g id="node24" class="node">
<title>Node24</title>
<g id="a_node24"><a xlink:href="TraceWriterTerm_8h_source.html" target="_top" xlink:title=" ">
<polygon fill="white" stroke="#666666" points="413.43,-129 264.43,-129 264.43,-110 413.43,-110 413.43,-129"/>
<text text-anchor="middle" x="338.93" y="-117" font-family="FreeSans" font-size="10.00">DGtal/base/TraceWriterTerm.h</text>
</a>
</g>
</g>
<!-- Node3&#45;&gt;Node24 -->
<g id="edge41" class="edge">
<title>Node3&#45;&gt;Node24</title>
<path fill="none" stroke="#63b8ff" d="M1229.34,-239.68C985.33,-240.16 60.48,-239.07 17.93,-195 8.67,-185.41 9.18,-175.05 17.93,-165 33.24,-147.43 163.16,-133.96 252.95,-126.65"/>
<polygon fill="#63b8ff" stroke="#63b8ff" points="253.04,-130.15 262.73,-125.86 252.48,-123.18 253.04,-130.15"/>
</g>
<!-- Node25 -->
<g id="node25" class="node">
<title>Node25</title>
<g id="a_node25"><a xlink:href="Assert_8h_source.html" target="_top" xlink:title=" ">
<polygon fill="white" stroke="#666666" points="795.93,-129 689.93,-129 689.93,-110 795.93,-110 795.93,-129"/>
<text text-anchor="middle" x="742.93" y="-117" font-family="FreeSans" font-size="10.00">DGtal/base/Assert.h</text>
</a>
</g>
</g>
<!-- Node3&#45;&gt;Node25 -->
<g id="edge46" class="edge">
<title>Node3&#45;&gt;Node25</title>
<path fill="none" stroke="#63b8ff" d="M1232.85,-230.55C1197.99,-223.64 1152.56,-212.28 1114.93,-195 1093.76,-185.28 1093.64,-173.47 1071.93,-165 1065.82,-162.62 901.84,-141.1 807.74,-128.88"/>
<polygon fill="#63b8ff" stroke="#63b8ff" points="808.22,-125.41 797.85,-127.59 807.32,-132.35 808.22,-125.41"/>
</g>
<!-- Node28 -->
<g id="node28" class="node">
<title>Node28</title>
<g id="a_node28"><a xlink:href="TraceWriterFile_8h_source.html" target="_top" xlink:title=" ">
<polygon fill="white" stroke="#666666" points="207.43,-129 64.43,-129 64.43,-110 207.43,-110 207.43,-129"/>
<text text-anchor="middle" x="135.93" y="-117" font-family="FreeSans" font-size="10.00">DGtal/base/TraceWriterFile.h</text>
</a>
</g>
</g>
<!-- Node3&#45;&gt;Node28 -->
<g id="edge42" class="edge">
<title>Node3&#45;&gt;Node28</title>
<path fill="none" stroke="#63b8ff" d="M1229.29,-239.7C984,-240.26 50.85,-239.43 7.93,-195 -20.18,-165.89 34.65,-144.42 81.07,-132.19"/>
<polygon fill="#63b8ff" stroke="#63b8ff" points="81.71,-135.64 90.55,-129.8 80,-128.85 81.71,-135.64"/>
</g>
<!-- Node29 -->
<g id="node29" class="node">
<title>Node29</title>
<g id="a_node29"><a xlink:href="ConceptUtils_8h_source.html" target="_top" xlink:title=" ">
<polygon fill="white" stroke="#666666" points="1145.93,-129 1011.93,-129 1011.93,-110 1145.93,-110 1145.93,-129"/>
<text text-anchor="middle" x="1078.93" y="-117" font-family="FreeSans" font-size="10.00">DGtal/base/ConceptUtils.h</text>
</a>
</g>
</g>
<!-- Node3&#45;&gt;Node29 -->
<g id="edge47" class="edge">
<title>Node3&#45;&gt;Node29</title>
<path fill="none" stroke="#63b8ff" d="M1272.22,-230.56C1236.35,-210.13 1148.16,-159.92 1104.4,-135"/>
<polygon fill="#63b8ff" stroke="#63b8ff" points="1106.28,-132.04 1095.85,-130.13 1102.81,-138.12 1106.28,-132.04"/>
</g>
<!-- Node30 -->
<g id="node30" class="node">
<title>Node30</title>
<g id="a_node30"><a xlink:href="BasicTypes_8h_source.html" target="_top" xlink:title=" ">
<polygon fill="white" stroke="#666666" points="1291.93,-129 1163.93,-129 1163.93,-110 1291.93,-110 1291.93,-129"/>
<text text-anchor="middle" x="1227.93" y="-117" font-family="FreeSans" font-size="10.00">DGtal/base/BasicTypes.h</text>
</a>
</g>
</g>
<!-- Node3&#45;&gt;Node30 -->
<g id="edge49" class="edge">
<title>Node3&#45;&gt;Node30</title>
<path fill="none" stroke="#63b8ff" d="M1283.42,-230.56C1273.69,-211.25 1250.54,-165.33 1237.42,-139.31"/>
<polygon fill="#63b8ff" stroke="#63b8ff" points="1240.64,-137.93 1233.01,-130.58 1234.39,-141.08 1240.64,-137.93"/>
</g>
<!-- Node33 -->
<g id="node33" class="node">
<title>Node33</title>
<g id="a_node33"><a xlink:href="BasicFunctors_8h_source.html" target="_top" xlink:title=" ">
<polygon fill="white" stroke="#666666" points="1729.93,-189.5 1589.93,-189.5 1589.93,-170.5 1729.93,-170.5 1729.93,-189.5"/>
<text text-anchor="middle" x="1659.93" y="-177.5" font-family="FreeSans" font-size="10.00">DGtal/base/BasicFunctors.h</text>
</a>
</g>
</g>
<!-- Node3&#45;&gt;Node33 -->
<g id="edge54" class="edge">
<title>Node3&#45;&gt;Node33</title>
<path fill="none" stroke="#63b8ff" d="M1339.81,-230.55C1403.99,-220.12 1513.51,-202.88 1586.34,-191.73"/>
<polygon fill="#63b8ff" stroke="#63b8ff" points="1586.84,-195.19 1596.2,-190.22 1585.79,-188.27 1586.84,-195.19"/>
</g>
<!-- Node42 -->
<g id="node42" class="node">
<title>Node42</title>
<g id="a_node42"><a xlink:href="BasicArchetypes_8h_source.html" target="_top" xlink:title=" ">
<polygon fill="white" stroke="#666666" points="1461.93,-129 1309.93,-129 1309.93,-110 1461.93,-110 1461.93,-129"/>
<text text-anchor="middle" x="1385.93" y="-117" font-family="FreeSans" font-size="10.00">DGtal/base/BasicArchetypes.h</text>
</a>
</g>
</g>
<!-- Node3&#45;&gt;Node42 -->
<g id="edge70" class="edge">
<title>Node3&#45;&gt;Node42</title>
<path fill="none" stroke="#63b8ff" d="M1292.56,-230.71C1300.42,-216.22 1317.32,-186.74 1335.93,-165 1344.77,-154.67 1355.98,-144.49 1365.54,-136.48"/>
<polygon fill="#63b8ff" stroke="#63b8ff" points="1367.68,-139.24 1373.23,-130.22 1363.26,-133.81 1367.68,-139.24"/>
</g>
<!-- Node43 -->
<g id="node43" class="node">
<title>Node43</title>
<g id="a_node43"><a xlink:href="Exceptions_8h_source.html" target="_top" xlink:title=" ">
<polygon fill="white" stroke="#666666" points="1470.93,-189.5 1344.93,-189.5 1344.93,-170.5 1470.93,-170.5 1470.93,-189.5"/>
<text text-anchor="middle" x="1407.93" y="-177.5" font-family="FreeSans" font-size="10.00">DGtal/base/Exceptions.h</text>
</a>
</g>
</g>
<!-- Node3&#45;&gt;Node43 -->
<g id="edge72" class="edge">
<title>Node3&#45;&gt;Node43</title>
<path fill="none" stroke="#63b8ff" d="M1306.16,-230.62C1325.63,-221.12 1356.75,-205.95 1379.46,-194.88"/>
<polygon fill="#63b8ff" stroke="#63b8ff" points="1380.72,-198.16 1388.18,-190.63 1377.65,-191.87 1380.72,-198.16"/>
</g>
<!-- Node15&#45;&gt;Node2 -->
<g id="edge16" class="edge">
<title>Node15&#45;&gt;Node2</title>
<path fill="none" stroke="#63b8ff" d="M566.37,-58.75C581.43,-57.47 597.82,-56.13 612.93,-55 861.4,-36.44 1160.48,-18.76 1265.35,-12.71"/>
<polygon fill="#63b8ff" stroke="#63b8ff" points="1265.3,-16.22 1275.09,-12.15 1264.9,-9.23 1265.3,-16.22"/>
</g>
<!-- Node16 -->
<g id="node16" class="node">
<title>Node16</title>
<g id="a_node16"><a xlink:title=" ">
<polygon fill="#e0e0e0" stroke="#999999" points="414.43,-19 373.43,-19 373.43,0 414.43,0 414.43,-19"/>
<text text-anchor="middle" x="393.93" y="-7" font-family="FreeSans" font-size="10.00">string</text>
</a>
</g>
</g>
<!-- Node15&#45;&gt;Node16 -->
<g id="edge17" class="edge">
<title>Node15&#45;&gt;Node16</title>
<path fill="none" stroke="#63b8ff" d="M492.75,-54.51C473.91,-46.12 445.57,-33.5 424.06,-23.92"/>
<polygon fill="#63b8ff" stroke="#63b8ff" points="425.76,-20.85 415.2,-19.97 422.92,-27.24 425.76,-20.85"/>
</g>
<!-- Node17&#45;&gt;Node2 -->
<g id="edge19" class="edge">
<title>Node17&#45;&gt;Node2</title>
<path fill="none" stroke="#63b8ff" d="M953.68,-170.3C963.02,-156.56 982.48,-129.4 1002.93,-110 1033.44,-81.06 1041.33,-71.69 1079.93,-55 1141.53,-28.36 1219.6,-17.49 1265.43,-13.19"/>
<polygon fill="#63b8ff" stroke="#63b8ff" points="1265.47,-16.7 1275.13,-12.34 1264.86,-9.73 1265.47,-16.7"/>
</g>
<!-- Node17&#45;&gt;Node15 -->
<g id="edge23" class="edge">
<title>Node17&#45;&gt;Node15</title>
<path fill="none" stroke="#63b8ff" d="M912.61,-170.05C904.23,-168.17 895.3,-166.34 886.93,-165 844.18,-158.14 528.1,-161 498.93,-129 487.78,-116.77 494,-97.72 501.34,-83.67"/>
<polygon fill="#63b8ff" stroke="#63b8ff" points="504.15,-85.81 506.15,-75.41 498.1,-82.29 504.15,-85.81"/>
</g>
<!-- Node17&#45;&gt;Node16 -->
<g id="edge21" class="edge">
<title>Node17&#45;&gt;Node16</title>
<path fill="none" stroke="#63b8ff" d="M912.61,-170.04C904.24,-168.15 895.3,-166.33 886.93,-165 799.23,-151.04 567.18,-171 488.93,-129 447.06,-106.52 417.05,-56.95 402.96,-29.58"/>
<polygon fill="#63b8ff" stroke="#63b8ff" points="406.15,-28.13 398.58,-20.71 399.87,-31.23 406.15,-28.13"/>
</g>
<!-- Node18 -->
<g id="node18" class="node">
<title>Node18</title>
<g id="a_node18"><a xlink:title=" ">
<polygon fill="#e0e0e0" stroke="#999999" points="174.93,-19 122.93,-19 122.93,0 174.93,0 174.93,-19"/>
<text text-anchor="middle" x="148.93" y="-7" font-family="FreeSans" font-size="10.00">ostream</text>
</a>
</g>
</g>
<!-- Node17&#45;&gt;Node18 -->
<g id="edge20" class="edge">
<title>Node17&#45;&gt;Node18</title>
<path fill="none" stroke="#63b8ff" d="M913.94,-170.04C905.19,-168.06 895.76,-166.19 886.93,-165 841.09,-158.8 86.93,-162.41 54.93,-129 21.5,-94.09 84.73,-48.13 122.91,-25.05"/>
<polygon fill="#63b8ff" stroke="#63b8ff" points="124.31,-28.29 131.16,-20.2 120.76,-22.25 124.31,-28.29"/>
</g>
<!-- Node19 -->
<g id="node19" class="node">
<title>Node19</title>
<g id="a_node19"><a xlink:title=" ">
<polygon fill="#e0e0e0" stroke="#999999" points="549.43,-129 508.43,-129 508.43,-110 549.43,-110 549.43,-129"/>
<text text-anchor="middle" x="528.93" y="-117" font-family="FreeSans" font-size="10.00">stack</text>
</a>
</g>
</g>
<!-- Node17&#45;&gt;Node19 -->
<g id="edge22" class="edge">
<title>Node17&#45;&gt;Node19</title>
<path fill="none" stroke="#63b8ff" d="M911.95,-170.01C903.76,-168.17 895.08,-166.38 886.93,-165 745.86,-141.15 704.86,-156.3 560.82,-129.02"/>
<polygon fill="#63b8ff" stroke="#63b8ff" points="561.78,-125.64 551.29,-127.18 560.45,-132.52 561.78,-125.64"/>
</g>
<!-- Node20 -->
<g id="node20" class="node">
<title>Node20</title>
<g id="a_node20"><a xlink:href="Clock_8h_source.html" target="_top" xlink:title=" ">
<polygon fill="white" stroke="#666666" points="955.43,-129 852.43,-129 852.43,-110 955.43,-110 955.43,-129"/>
<text text-anchor="middle" x="903.93" y="-117" font-family="FreeSans" font-size="10.00">DGtal/base/Clock.h</text>
</a>
</g>
</g>
<!-- Node17&#45;&gt;Node20 -->
<g id="edge24" class="edge">
<title>Node17&#45;&gt;Node20</title>
<path fill="none" stroke="#63b8ff" d="M941.44,-170.37C935.07,-161.9 925.17,-148.74 917.15,-138.07"/>
<polygon fill="#63b8ff" stroke="#63b8ff" points="920.17,-136.26 911.36,-130.38 914.58,-140.47 920.17,-136.26"/>
</g>
<!-- Node23 -->
<g id="node23" class="node">
<title>Node23</title>
<g id="a_node23"><a xlink:href="TraceWriter_8h_source.html" target="_top" xlink:title=" ">
<polygon fill="white" stroke="#666666" points="327.43,-74 200.43,-74 200.43,-55 327.43,-55 327.43,-74"/>
<text text-anchor="middle" x="263.93" y="-62" font-family="FreeSans" font-size="10.00">DGtal/base/TraceWriter.h</text>
</a>
</g>
</g>
<!-- Node17&#45;&gt;Node23 -->
<g id="edge28" class="edge">
<title>Node17&#45;&gt;Node23</title>
<path fill="none" stroke="#63b8ff" d="M913.6,-170.05C904.95,-168.1 895.65,-166.24 886.93,-165 817.3,-155.1 303.23,-180.13 254.93,-129 243.83,-117.25 248.22,-98.4 254.09,-84.29"/>
<polygon fill="#63b8ff" stroke="#63b8ff" points="257.1,-86.11 258.21,-75.58 250.77,-83.12 257.1,-86.11"/>
</g>
<!-- Node17&#45;&gt;Node24 -->
<g id="edge31" class="edge">
<title>Node17&#45;&gt;Node24</title>
<path fill="none" stroke="#63b8ff" d="M912.94,-170.04C904.48,-168.13 895.42,-166.3 886.93,-165 684.66,-134.03 631.79,-146.73 427.93,-129 426.92,-128.91 425.9,-128.82 424.87,-128.73"/>
<polygon fill="#63b8ff" stroke="#63b8ff" points="425.49,-125.27 415.21,-127.87 424.86,-132.25 425.49,-125.27"/>
</g>
<!-- Node17&#45;&gt;Node25 -->
<g id="edge36" class="edge">
<title>Node17&#45;&gt;Node25</title>
<path fill="none" stroke="#63b8ff" d="M911.79,-170.12C874.77,-160.15 817.72,-143.93 780.28,-132.76"/>
<polygon fill="#63b8ff" stroke="#63b8ff" points="781.37,-129.43 770.78,-129.9 779.35,-136.14 781.37,-129.43"/>
</g>
<!-- Node27 -->
<g id="node27" class="node">
<title>Node27</title>
<g id="a_node27"><a xlink:href="Trace_8ih_source.html" target="_top" xlink:title=" ">
<polygon fill="white" stroke="#666666" points="671.93,-129 567.93,-129 567.93,-110 671.93,-110 671.93,-129"/>
<text text-anchor="middle" x="619.93" y="-117" font-family="FreeSans" font-size="10.00">DGtal/base/Trace.ih</text>
</a>
</g>
</g>
<!-- Node17&#45;&gt;Node27 -->
<g id="edge40" class="edge">
<title>Node17&#45;&gt;Node27</title>
<path fill="none" stroke="#63b8ff" d="M910.59,-170.05C902.79,-168.29 894.61,-166.52 886.93,-165 817.64,-151.29 737.67,-138.34 683.45,-129.98"/>
<polygon fill="#63b8ff" stroke="#63b8ff" points="684.2,-126.55 673.78,-128.5 683.14,-133.47 684.2,-126.55"/>
</g>
<!-- Node20&#45;&gt;Node2 -->
<g id="edge25" class="edge">
<title>Node20&#45;&gt;Node2</title>
<path fill="none" stroke="#63b8ff" d="M904.03,-109.91C904.69,-95.99 908.2,-68.65 924.93,-55 976.36,-13.06 1179.38,-9.51 1265.25,-9.95"/>
<polygon fill="#63b8ff" stroke="#63b8ff" points="1265.02,-13.45 1275.05,-10.02 1265.08,-6.45 1265.02,-13.45"/>
</g>
<!-- Node21 -->
<g id="node21" class="node">
<title>Node21</title>
<g id="a_node21"><a xlink:title=" ">
<polygon fill="#e0e0e0" stroke="#999999" points="979.43,-74 934.43,-74 934.43,-55 979.43,-55 979.43,-74"/>
<text text-anchor="middle" x="956.93" y="-62" font-family="FreeSans" font-size="10.00">cstdlib</text>
</a>
</g>
</g>
<!-- Node20&#45;&gt;Node21 -->
<g id="edge26" class="edge">
<title>Node20&#45;&gt;Node21</title>
<path fill="none" stroke="#63b8ff" d="M912.69,-109.75C920.08,-102.35 930.89,-91.54 939.98,-82.45"/>
<polygon fill="#63b8ff" stroke="#63b8ff" points="942.32,-85.06 946.92,-75.51 937.38,-80.11 942.32,-85.06"/>
</g>
<!-- Node22 -->
<g id="node22" class="node">
<title>Node22</title>
<g id="a_node22"><a xlink:href="Clock_8ih_source.html" target="_top" xlink:title=" ">
<polygon fill="white" stroke="#666666" points="877.43,-74 772.43,-74 772.43,-55 877.43,-55 877.43,-74"/>
<text text-anchor="middle" x="824.93" y="-62" font-family="FreeSans" font-size="10.00">DGtal/base/Clock.ih</text>
</a>
</g>
</g>
<!-- Node20&#45;&gt;Node22 -->
<g id="edge27" class="edge">
<title>Node20&#45;&gt;Node22</title>
<path fill="none" stroke="#63b8ff" d="M890.53,-109.51C878.77,-101.62 861.42,-89.98 847.52,-80.65"/>
<polygon fill="#63b8ff" stroke="#63b8ff" points="849.65,-77.87 839.39,-75.2 845.75,-83.68 849.65,-77.87"/>
</g>
<!-- Node23&#45;&gt;Node2 -->
<g id="edge29" class="edge">
<title>Node23&#45;&gt;Node2</title>
<path fill="none" stroke="#63b8ff" d="M327.62,-59.91C355.36,-58.37 388.25,-56.56 417.93,-55 745.76,-37.72 1141.91,-18.37 1265.33,-12.37"/>
<polygon fill="#63b8ff" stroke="#63b8ff" points="1265.41,-15.87 1275.23,-11.89 1265.07,-8.88 1265.41,-15.87"/>
</g>
<!-- Node23&#45;&gt;Node18 -->
<g id="edge30" class="edge">
<title>Node23&#45;&gt;Node18</title>
<path fill="none" stroke="#63b8ff" d="M244.43,-54.51C226.31,-46.16 199.08,-33.61 178.33,-24.05"/>
<polygon fill="#63b8ff" stroke="#63b8ff" points="180.07,-21 169.53,-19.99 177.14,-27.36 180.07,-21"/>
</g>
<!-- Node24&#45;&gt;Node2 -->
<g id="edge32" class="edge">
<title>Node24&#45;&gt;Node2</title>
<path fill="none" stroke="#63b8ff" d="M350.21,-109.7C369.54,-95.19 410.81,-66.71 450.93,-55 606.7,-9.54 1119.53,-9.28 1265.09,-10.17"/>
<polygon fill="#63b8ff" stroke="#63b8ff" points="1264.95,-13.67 1274.97,-10.23 1264.99,-6.67 1264.95,-13.67"/>
</g>
<!-- Node24&#45;&gt;Node15 -->
<g id="edge35" class="edge">
<title>Node24&#45;&gt;Node15</title>
<path fill="none" stroke="#63b8ff" d="M368.45,-109.51C397.16,-100.76 440.98,-87.42 472.84,-77.71"/>
<polygon fill="#63b8ff" stroke="#63b8ff" points="473.57,-81.15 482.11,-74.89 471.53,-74.45 473.57,-81.15"/>
</g>
<!-- Node24&#45;&gt;Node16 -->
<g id="edge33" class="edge">
<title>Node24&#45;&gt;Node16</title>
<path fill="none" stroke="#63b8ff" d="M343.43,-109.66C352.3,-92.26 372.19,-53.19 384.19,-29.62"/>
<polygon fill="#63b8ff" stroke="#63b8ff" points="387.26,-31.31 388.68,-20.81 381.03,-28.13 387.26,-31.31"/>
</g>
<!-- Node24&#45;&gt;Node23 -->
<g id="edge34" class="edge">
<title>Node24&#45;&gt;Node23</title>
<path fill="none" stroke="#63b8ff" d="M326.21,-109.51C315.15,-101.7 298.9,-90.21 285.76,-80.93"/>
<polygon fill="#63b8ff" stroke="#63b8ff" points="287.89,-78.14 277.7,-75.23 283.85,-83.86 287.89,-78.14"/>
</g>
<!-- Node25&#45;&gt;Node16 -->
<g id="edge39" class="edge">
<title>Node25&#45;&gt;Node16</title>
<path fill="none" stroke="#63b8ff" d="M713.08,-109.53C686.46,-101.24 646.6,-88.1 612.93,-74 595.52,-66.7 592.66,-61.52 574.93,-55 524.1,-36.31 462.36,-23.03 425.71,-16.09"/>
<polygon fill="#63b8ff" stroke="#63b8ff" points="426.69,-12.71 416.22,-14.33 425.42,-19.59 426.69,-12.71"/>
</g>
<!-- Node25&#45;&gt;Node17 -->
<g id="edge37" class="edge">
<title>Node25&#45;&gt;Node17</title>
<path fill="none" stroke="#63b8ff" d="M779.39,-129.47C816.52,-139.47 873.57,-155.7 910.9,-166.83"/>
<polygon fill="#63b8ff" stroke="#63b8ff" points="909.77,-170.15 920.36,-169.68 911.79,-163.45 909.77,-170.15"/>
</g>
<!-- Node26 -->
<g id="node26" class="node">
<title>Node26</title>
<g id="a_node26"><a xlink:title=" ">
<polygon fill="#e0e0e0" stroke="#999999" points="753.93,-74 621.93,-74 621.93,-55 753.93,-55 753.93,-74"/>
<text text-anchor="middle" x="687.93" y="-62" font-family="FreeSans" font-size="10.00">boost/current_function.hpp</text>
</a>
</g>
</g>
<!-- Node25&#45;&gt;Node26 -->
<g id="edge38" class="edge">
<title>Node25&#45;&gt;Node26</title>
<path fill="none" stroke="#63b8ff" d="M733.85,-109.75C726.1,-102.27 714.72,-91.32 705.24,-82.17"/>
<polygon fill="#63b8ff" stroke="#63b8ff" points="707.93,-79.91 698.3,-75.49 703.07,-84.95 707.93,-79.91"/>
</g>
<!-- Node28&#45;&gt;Node2 -->
<g id="edge43" class="edge">
<title>Node28&#45;&gt;Node2</title>
<path fill="none" stroke="#63b8ff" d="M140.28,-109.96C148.15,-95.56 166.23,-66.89 190.93,-55 289.3,-7.67 1079.98,-9.21 1265.21,-10.24"/>
<polygon fill="#63b8ff" stroke="#63b8ff" points="1264.99,-13.73 1275.01,-10.29 1265.03,-6.73 1264.99,-13.73"/>
</g>
<!-- Node28&#45;&gt;Node16 -->
<g id="edge44" class="edge">
<title>Node28&#45;&gt;Node16</title>
<path fill="none" stroke="#63b8ff" d="M136.32,-109.58C137.42,-95.69 141.68,-69.02 157.93,-55 188.07,-29 304.52,-17.03 361.77,-12.62"/>
<polygon fill="#63b8ff" stroke="#63b8ff" points="361.82,-16.13 371.53,-11.91 361.3,-9.15 361.82,-16.13"/>
</g>
<!-- Node28&#45;&gt;Node23 -->
<g id="edge45" class="edge">
<title>Node28&#45;&gt;Node23</title>
<path fill="none" stroke="#63b8ff" d="M157.65,-109.51C178.09,-101.04 208.95,-88.27 232.16,-78.66"/>
<polygon fill="#63b8ff" stroke="#63b8ff" points="233.24,-82 241.14,-74.94 230.56,-75.53 233.24,-82"/>
</g>
<!-- Node29&#45;&gt;Node2 -->
<g id="edge48" class="edge">
<title>Node29&#45;&gt;Node2</title>
<path fill="none" stroke="#63b8ff" d="M1078.29,-109.71C1077.8,-96 1079.03,-69.57 1093.93,-55 1117.9,-31.58 1211.8,-19.11 1265.57,-13.76"/>
<polygon fill="#63b8ff" stroke="#63b8ff" points="1265.58,-17.27 1275.21,-12.84 1264.92,-10.3 1265.58,-17.27"/>
</g>
<!-- Node30&#45;&gt;Node2 -->
<g id="edge51" class="edge">
<title>Node30&#45;&gt;Node2</title>
<path fill="none" stroke="#63b8ff" d="M1170.06,-109.59C1127.23,-100.49 1080,-83.57 1102.93,-55 1122.9,-30.13 1212.75,-18.3 1265.31,-13.43"/>
<polygon fill="#63b8ff" stroke="#63b8ff" points="1265.39,-16.93 1275.05,-12.57 1264.78,-9.96 1265.39,-16.93"/>
</g>
<!-- Node30&#45;&gt;Node21 -->
<g id="edge50" class="edge">
<title>Node30&#45;&gt;Node21</title>
<path fill="none" stroke="#63b8ff" d="M1181.96,-109.51C1127.83,-98.92 1039.2,-81.59 990.91,-72.14"/>
<polygon fill="#63b8ff" stroke="#63b8ff" points="991.8,-68.75 981.31,-70.27 990.45,-75.62 991.8,-68.75"/>
</g>
<!-- Node31 -->
<g id="node31" class="node">
<title>Node31</title>
<g id="a_node31"><a xlink:title=" ">
<polygon fill="#e0e0e0" stroke="#999999" points="1203.93,-74 1111.93,-74 1111.93,-55 1203.93,-55 1203.93,-74"/>
<text text-anchor="middle" x="1157.93" y="-62" font-family="FreeSans" font-size="10.00">boost/cstdint.hpp</text>
</a>
</g>
</g>
<!-- Node30&#45;&gt;Node31 -->
<g id="edge52" class="edge">
<title>Node30&#45;&gt;Node31</title>
<path fill="none" stroke="#63b8ff" d="M1216.06,-109.51C1205.84,-101.77 1190.86,-90.43 1178.67,-81.2"/>
<polygon fill="#63b8ff" stroke="#63b8ff" points="1180.92,-78.52 1170.84,-75.27 1176.7,-84.1 1180.92,-78.52"/>
</g>
<!-- Node32 -->
<g id="node32" class="node">
<title>Node32</title>
<g id="a_node32"><a xlink:title=" ">
<polygon fill="#e0e0e0" stroke="#999999" points="1275.93,-74 1221.93,-74 1221.93,-55 1275.93,-55 1275.93,-74"/>
<text text-anchor="middle" x="1248.93" y="-62" font-family="FreeSans" font-size="10.00">gmpxx.h</text>
</a>
</g>
</g>
<!-- Node30&#45;&gt;Node32 -->
<g id="edge53" class="edge">
<title>Node30&#45;&gt;Node32</title>
<path fill="none" stroke="#63b8ff" d="M1231.4,-109.75C1234.06,-103.04 1237.83,-93.52 1241.2,-85.02"/>
<polygon fill="#63b8ff" stroke="#63b8ff" points="1244.4,-86.44 1244.83,-75.85 1237.9,-83.86 1244.4,-86.44"/>
</g>
<!-- Node33&#45;&gt;Node3 -->
<g id="edge65" class="edge">
<title>Node33&#45;&gt;Node3</title>
<path fill="none" stroke="#63b8ff" d="M1607.92,-189.97C1542.64,-200.58 1430.59,-218.22 1357.86,-229.33"/>
<polygon fill="#63b8ff" stroke="#63b8ff" points="1357.4,-225.86 1348.04,-230.83 1358.45,-232.78 1357.4,-225.86"/>
</g>
<!-- Node33&#45;&gt;Node5 -->
<g id="edge55" class="edge">
<title>Node33&#45;&gt;Node5</title>
<path fill="none" stroke="#63b8ff" d="M1730.21,-171.08C1785.64,-163.64 1864.43,-150.38 1930.93,-129 1941.76,-125.52 2001.29,-96.92 2037.59,-79.31"/>
<polygon fill="#63b8ff" stroke="#63b8ff" points="2038.76,-82.63 2046.23,-75.11 2035.71,-76.33 2038.76,-82.63"/>
</g>
<!-- Node33&#45;&gt;Node13 -->
<g id="edge57" class="edge">
<title>Node33&#45;&gt;Node13</title>
<path fill="none" stroke="#63b8ff" d="M1641.71,-170.12C1622.24,-160.62 1591.11,-145.45 1568.41,-134.38"/>
<polygon fill="#63b8ff" stroke="#63b8ff" points="1570.21,-131.37 1559.69,-130.13 1567.15,-137.66 1570.21,-131.37"/>
</g>
<!-- Node34 -->
<g id="node34" class="node">
<title>Node34</title>
<g id="a_node34"><a xlink:title=" ">
<polygon fill="#e0e0e0" stroke="#999999" points="1817.43,-129 1758.43,-129 1758.43,-110 1817.43,-110 1817.43,-129"/>
<text text-anchor="middle" x="1787.93" y="-117" font-family="FreeSans" font-size="10.00">functional</text>
</a>
</g>
</g>
<!-- Node33&#45;&gt;Node34 -->
<g id="edge56" class="edge">
<title>Node33&#45;&gt;Node34</title>
<path fill="none" stroke="#63b8ff" d="M1679.37,-170.12C1700.24,-160.58 1733.64,-145.31 1757.89,-134.23"/>
<polygon fill="#63b8ff" stroke="#63b8ff" points="1759.29,-137.44 1766.93,-130.1 1756.38,-131.07 1759.29,-137.44"/>
</g>
<!-- Node35 -->
<g id="node35" class="node">
<title>Node35</title>
<g id="a_node35"><a xlink:href="Color_8h_source.html" target="_top" xlink:title=" ">
<polygon fill="white" stroke="#666666" points="1921.93,-129 1835.93,-129 1835.93,-110 1921.93,-110 1921.93,-129"/>
<text text-anchor="middle" x="1878.93" y="-117" font-family="FreeSans" font-size="10.00">DGtal/io/Color.h</text>
</a>
</g>
</g>
<!-- Node33&#45;&gt;Node35 -->
<g id="edge58" class="edge">
<title>Node33&#45;&gt;Node35</title>
<path fill="none" stroke="#63b8ff" d="M1693.19,-170.12C1730.9,-160.04 1792.55,-143.58 1834.38,-132.4"/>
<polygon fill="#63b8ff" stroke="#63b8ff" points="1835.14,-135.82 1843.9,-129.86 1833.33,-129.06 1835.14,-135.82"/>
</g>
<!-- Node39 -->
<g id="node39" class="node">
<title>Node39</title>
<g id="a_node39"><a xlink:href="BasicBoolFunctors_8h_source.html" target="_top" xlink:title=" ">
<polygon fill="white" stroke="#666666" points="1739.93,-129 1579.93,-129 1579.93,-110 1739.93,-110 1739.93,-129"/>
<text text-anchor="middle" x="1659.93" y="-117" font-family="FreeSans" font-size="10.00">DGtal/base/BasicBoolFunctors.h</text>
</a>
</g>
</g>
<!-- Node33&#45;&gt;Node39 -->
<g id="edge66" class="edge">
<title>Node33&#45;&gt;Node39</title>
<path fill="none" stroke="#63b8ff" d="M1659.93,-170.37C1659.93,-162.5 1659.93,-150.6 1659.93,-140.39"/>
<polygon fill="#63b8ff" stroke="#63b8ff" points="1663.43,-140.68 1659.93,-130.68 1656.43,-140.68 1663.43,-140.68"/>
</g>
<!-- Node35&#45;&gt;Node2 -->
<g id="edge59" class="edge">
<title>Node35&#45;&gt;Node2</title>
<path fill="none" stroke="#63b8ff" d="M1843.56,-109.51C1813.63,-101.48 1769.85,-88.73 1732.93,-74 1715.4,-67 1713.04,-60.37 1694.93,-55 1569.86,-17.88 1413.83,-11.38 1342.61,-10.47"/>
<polygon fill="#63b8ff" stroke="#63b8ff" points="1342.67,-6.97 1332.64,-10.38 1342.61,-13.97 1342.67,-6.97"/>
</g>
<!-- Node35&#45;&gt;Node3 -->
<g id="edge60" class="edge">
<title>Node35&#45;&gt;Node3</title>
<path fill="none" stroke="#63b8ff" d="M1866.55,-129.27C1842.98,-145.44 1789.53,-179.7 1738.93,-195 1669.63,-215.96 1466.88,-229.78 1358.37,-235.9"/>
<polygon fill="#63b8ff" stroke="#63b8ff" points="1358.2,-232.4 1348.41,-236.45 1358.59,-239.39 1358.2,-232.4"/>
</g>
<!-- Node35&#45;&gt;Node5 -->
<g id="edge62" class="edge">
<title>Node35&#45;&gt;Node5</title>
<path fill="none" stroke="#63b8ff" d="M1910.66,-109.51C1942.67,-100.43 1992.19,-86.4 2026.66,-76.63"/>
<polygon fill="#63b8ff" stroke="#63b8ff" points="2027.61,-80 2036.28,-73.91 2025.7,-73.27 2027.61,-80"/>
</g>
<!-- Node36 -->
<g id="node36" class="node">
<title>Node36</title>
<g id="a_node36"><a xlink:title=" ">
<polygon fill="#e0e0e0" stroke="#999999" points="1855.93,-74 1741.93,-74 1741.93,-55 1855.93,-55 1855.93,-74"/>
<text text-anchor="middle" x="1798.93" y="-62" font-family="FreeSans" font-size="10.00">boost/lexical_cast.hpp</text>
</a>
</g>
</g>
<!-- Node35&#45;&gt;Node36 -->
<g id="edge61" class="edge">
<title>Node35&#45;&gt;Node36</title>
<path fill="none" stroke="#63b8ff" d="M1865.36,-109.51C1853.45,-101.62 1835.89,-89.98 1821.81,-80.65"/>
<polygon fill="#63b8ff" stroke="#63b8ff" points="1823.84,-77.8 1813.57,-75.19 1819.97,-83.63 1823.84,-77.8"/>
</g>
<!-- Node37 -->
<g id="node37" class="node">
<title>Node37</title>
<g id="a_node37"><a xlink:title=" ">
<polygon fill="#e0e0e0" stroke="#999999" points="1911.93,-74 1873.93,-74 1873.93,-55 1911.93,-55 1911.93,-74"/>
<text text-anchor="middle" x="1892.93" y="-62" font-family="FreeSans" font-size="10.00">array</text>
</a>
</g>
</g>
<!-- Node35&#45;&gt;Node37 -->
<g id="edge63" class="edge">
<title>Node35&#45;&gt;Node37</title>
<path fill="none" stroke="#63b8ff" d="M1881.25,-109.75C1883,-103.11 1885.48,-93.73 1887.7,-85.31"/>
<polygon fill="#63b8ff" stroke="#63b8ff" points="1891.01,-86.47 1890.18,-75.91 1884.25,-84.68 1891.01,-86.47"/>
</g>
<!-- Node38 -->
<g id="node38" class="node">
<title>Node38</title>
<g id="a_node38"><a xlink:href="Color_8ih_source.html" target="_top" xlink:title=" ">
<polygon fill="white" stroke="#666666" points="2019.43,-74 1930.43,-74 1930.43,-55 2019.43,-55 2019.43,-74"/>
<text text-anchor="middle" x="1974.93" y="-62" font-family="FreeSans" font-size="10.00">DGtal/io/Color.ih</text>
</a>
</g>
</g>
<!-- Node35&#45;&gt;Node38 -->
<g id="edge64" class="edge">
<title>Node35&#45;&gt;Node38</title>
<path fill="none" stroke="#63b8ff" d="M1895.22,-109.51C1909.93,-101.39 1931.82,-89.3 1948.95,-79.85"/>
<polygon fill="#63b8ff" stroke="#63b8ff" points="1950.5,-82.99 1957.56,-75.09 1947.12,-76.86 1950.5,-82.99"/>
</g>
<!-- Node39&#45;&gt;Node2 -->
<g id="edge67" class="edge">
<title>Node39&#45;&gt;Node2</title>
<path fill="none" stroke="#63b8ff" d="M1586.82,-109.51C1521.87,-100.89 1432.24,-87.27 1398.93,-74 1369.9,-62.44 1340.62,-41.06 1322.4,-26.32"/>
<polygon fill="#63b8ff" stroke="#63b8ff" points="1325.03,-23.96 1315.1,-20.28 1320.57,-29.35 1325.03,-23.96"/>
</g>
<!-- Node40 -->
<g id="node40" class="node">
<title>Node40</title>
<g id="a_node40"><a xlink:title=" ">
<polygon fill="#e0e0e0" stroke="#999999" points="1505.43,-74 1408.43,-74 1408.43,-55 1505.43,-55 1505.43,-74"/>
<text text-anchor="middle" x="1456.93" y="-62" font-family="FreeSans" font-size="10.00">boost/function.hpp</text>
</a>
</g>
</g>
<!-- Node39&#45;&gt;Node40 -->
<g id="edge68" class="edge">
<title>Node39&#45;&gt;Node40</title>
<path fill="none" stroke="#63b8ff" d="M1625.5,-109.51C1591.56,-100.65 1539.53,-87.07 1502.26,-77.33"/>
<polygon fill="#63b8ff" stroke="#63b8ff" points="1503.22,-73.97 1492.66,-74.83 1501.45,-80.74 1503.22,-73.97"/>
</g>
<!-- Node41 -->
<g id="node41" class="node">
<title>Node41</title>
<g id="a_node41"><a xlink:href="BasicBoolFunctors_8ih_source.html" target="_top" xlink:title=" ">
<polygon fill="white" stroke="#666666" points="1685.93,-74 1523.93,-74 1523.93,-55 1685.93,-55 1685.93,-74"/>
<text text-anchor="middle" x="1604.93" y="-62" font-family="FreeSans" font-size="10.00">DGtal/base/BasicBoolFunctors.ih</text>
</a>
</g>
</g>
<!-- Node39&#45;&gt;Node41 -->
<g id="edge69" class="edge">
<title>Node39&#45;&gt;Node41</title>
<path fill="none" stroke="#63b8ff" d="M1650.85,-109.75C1643.1,-102.27 1631.72,-91.32 1622.24,-82.17"/>
<polygon fill="#63b8ff" stroke="#63b8ff" points="1624.93,-79.91 1615.3,-75.49 1620.07,-84.95 1624.93,-79.91"/>
</g>
<!-- Node42&#45;&gt;Node2 -->
<g id="edge71" class="edge">
<title>Node42&#45;&gt;Node2</title>
<path fill="none" stroke="#63b8ff" d="M1369.92,-109.63C1357.01,-101.77 1339.21,-89.18 1327.93,-74 1318.25,-60.96 1312.04,-43.56 1308.36,-30.27"/>
<polygon fill="#63b8ff" stroke="#63b8ff" points="1311.85,-29.79 1306.04,-20.93 1305.06,-31.48 1311.85,-29.79"/>
</g>
<!-- Node43&#45;&gt;Node2 -->
<g id="edge73" class="edge">
<title>Node43&#45;&gt;Node2</title>
<path fill="none" stroke="#63b8ff" d="M1426.65,-170.18C1450.84,-157.58 1487.94,-133.33 1470.93,-110 1440.13,-67.75 1402.55,-102.83 1358.93,-74 1340.92,-62.09 1325.34,-42.72 1315.41,-28.5"/>
<polygon fill="#63b8ff" stroke="#63b8ff" points="1318.53,-26.86 1310.07,-20.49 1312.71,-30.75 1318.53,-26.86"/>
</g>
<!-- Node44&#45;&gt;Node2 -->
<g id="edge75" class="edge">
<title>Node44&#45;&gt;Node2</title>
<path fill="none" stroke="#63b8ff" d="M2106.88,-418.06C2144.47,-412.76 2188.3,-400.12 2216.93,-371 2240.89,-346.63 2235.93,-330.67 2235.93,-296.5 2235.93,-296.5 2235.93,-296.5 2235.93,-118.5 2235.93,-85.15 2224.72,-71.84 2195.93,-55 2121.59,-11.51 1504.35,-9.99 1342.61,-10.35"/>
<polygon fill="#63b8ff" stroke="#63b8ff" points="1342.84,-6.85 1332.85,-10.37 1342.86,-13.85 1342.84,-6.85"/>
</g>
<!-- Node44&#45;&gt;Node3 -->
<g id="edge76" class="edge">
<title>Node44&#45;&gt;Node3</title>
<path fill="none" stroke="#63b8ff" d="M1973.83,-406.54C1829.81,-371.88 1467.22,-284.64 1336.15,-253.1"/>
<polygon fill="#63b8ff" stroke="#63b8ff" points="1337.31,-249.78 1326.76,-250.84 1335.67,-256.59 1337.31,-249.78"/>
</g>
<!-- Node45 -->
<g id="node45" class="node">
<title>Node45</title>
<g id="a_node45"><a xlink:href="CountedPtr_8h_source.html" target="_top" xlink:title=" ">
<polygon fill="white" stroke="#666666" points="2207.93,-305 2081.93,-305 2081.93,-286 2207.93,-286 2207.93,-305"/>
<text text-anchor="middle" x="2144.93" y="-293" font-family="FreeSans" font-size="10.00">DGtal/base/CountedPtr.h</text>
</a>
</g>
</g>
<!-- Node44&#45;&gt;Node45 -->
<g id="edge77" class="edge">
<title>Node44&#45;&gt;Node45</title>
<path fill="none" stroke="#63b8ff" d="M2033.99,-406.69C2034.78,-389.33 2038.53,-360.03 2053.93,-341 2065.64,-326.53 2083.22,-316.42 2099.81,-309.54"/>
<polygon fill="#63b8ff" stroke="#63b8ff" points="2100.99,-312.84 2109.09,-306.01 2098.5,-306.3 2100.99,-312.84"/>
</g>
<!-- Node47 -->
<g id="node47" class="node">
<title>Node47</title>
<g id="a_node47"><a xlink:href="CountedPtrOrPtr_8h_source.html" target="_top" xlink:title=" ">
<polygon fill="white" stroke="#666666" points="2005.43,-365.5 1856.43,-365.5 1856.43,-346.5 2005.43,-346.5 2005.43,-365.5"/>
<text text-anchor="middle" x="1930.93" y="-353.5" font-family="FreeSans" font-size="10.00">DGtal/base/CountedPtrOrPtr.h</text>
</a>
</g>
</g>
<!-- Node44&#45;&gt;Node47 -->
<g id="edge81" class="edge">
<title>Node44&#45;&gt;Node47</title>
<path fill="none" stroke="#63b8ff" d="M2010.82,-406.64C1994.22,-396.32 1971.89,-382.45 1955.06,-371.99"/>
<polygon fill="#63b8ff" stroke="#63b8ff" points="1957.02,-369.09 1946.68,-366.78 1953.33,-375.04 1957.02,-369.09"/>
</g>
<!-- Node49 -->
<g id="node49" class="node">
<title>Node49</title>
<g id="a_node49"><a xlink:href="CountedConstPtrOrConstPtr_8ih_source.html" target="_top" xlink:title=" ">
<polygon fill="white" stroke="#666666" points="2207.43,-371 2062.43,-371 2062.43,-341 2207.43,-341 2207.43,-371"/>
<text text-anchor="start" x="2070.43" y="-359" font-family="FreeSans" font-size="10.00">DGtal/base/CountedConstPtr</text>
<text text-anchor="middle" x="2134.93" y="-348" font-family="FreeSans" font-size="10.00">OrConstPtr.ih</text>
</a>
</g>
</g>
<!-- Node44&#45;&gt;Node49 -->
<g id="edge86" class="edge">
<title>Node44&#45;&gt;Node49</title>
<path fill="none" stroke="#63b8ff" d="M2056.6,-406.64C2070.24,-397.99 2087.83,-386.85 2102.88,-377.31"/>
<polygon fill="#63b8ff" stroke="#63b8ff" points="2104.49,-380.43 2111.06,-372.13 2100.74,-374.52 2104.49,-380.43"/>
</g>
<!-- Node45&#45;&gt;Node2 -->
<g id="edge78" class="edge">
<title>Node45&#45;&gt;Node2</title>
<path fill="none" stroke="#63b8ff" d="M2153.36,-285.65C2161.04,-277.14 2172.19,-263.59 2178.93,-250 2193.07,-221.51 2197.93,-212.81 2197.93,-181 2197.93,-181 2197.93,-181 2197.93,-118.5 2197.93,-88.33 2198.31,-72.78 2173.93,-55 2139.92,-30.19 1506.83,-14.87 1342.59,-11.3"/>
<polygon fill="#63b8ff" stroke="#63b8ff" points="1342.74,-7.81 1332.67,-11.09 1342.59,-14.81 1342.74,-7.81"/>
</g>
<!-- Node45&#45;&gt;Node3 -->
<g id="edge79" class="edge">
<title>Node45&#45;&gt;Node3</title>
<path fill="none" stroke="#63b8ff" d="M2081.74,-286.82C2078.76,-286.53 2075.82,-286.25 2072.93,-286 1809.39,-263 1494.98,-249.32 1357.76,-244.03"/>
<polygon fill="#63b8ff" stroke="#63b8ff" points="1358.25,-240.55 1348.13,-243.66 1357.99,-247.54 1358.25,-240.55"/>
</g>
<!-- Node46 -->
<g id="node46" class="node">
<title>Node46</title>
<g id="a_node46"><a xlink:href="CountedPtr_8ih_source.html" target="_top" xlink:title=" ">
<polygon fill="white" stroke="#666666" points="2169.93,-250 2041.93,-250 2041.93,-231 2169.93,-231 2169.93,-250"/>
<text text-anchor="middle" x="2105.93" y="-238" font-family="FreeSans" font-size="10.00">DGtal/base/CountedPtr.ih</text>
</a>
</g>
</g>
<!-- Node45&#45;&gt;Node46 -->
<g id="edge80" class="edge">
<title>Node45&#45;&gt;Node46</title>
<path fill="none" stroke="#63b8ff" d="M2138.49,-285.75C2133.27,-278.66 2125.75,-268.42 2119.24,-259.59"/>
<polygon fill="#63b8ff" stroke="#63b8ff" points="2122.16,-257.64 2113.41,-251.66 2116.52,-261.79 2122.16,-257.64"/>
</g>
<!-- Node47&#45;&gt;Node2 -->
<g id="edge82" class="edge">
<title>Node47&#45;&gt;Node2</title>
<path fill="none" stroke="#63b8ff" d="M1922.42,-346.4C1910.01,-332.8 1889.79,-305.83 1902.93,-286 1937.59,-233.71 1974.24,-253.16 2032.93,-231 2080.27,-213.13 2111.35,-236.05 2140.93,-195 2164.59,-162.17 2180.06,-107.14 2120.93,-55 2091.44,-28.99 1501.46,-14.68 1342.88,-11.29"/>
<polygon fill="#63b8ff" stroke="#63b8ff" points="1342.97,-7.79 1332.9,-11.08 1342.82,-14.79 1342.97,-7.79"/>
</g>
<!-- Node47&#45;&gt;Node3 -->
<g id="edge83" class="edge">
<title>Node47&#45;&gt;Node3</title>
<path fill="none" stroke="#63b8ff" d="M1900.69,-346.08C1850.34,-331.54 1745.96,-302.67 1655.93,-286 1553.01,-266.94 1432.32,-254.14 1357.99,-247.33"/>
<polygon fill="#63b8ff" stroke="#63b8ff" points="1358.7,-243.88 1348.42,-246.47 1358.07,-250.86 1358.7,-243.88"/>
</g>
<!-- Node47&#45;&gt;Node45 -->
<g id="edge84" class="edge">
<title>Node47&#45;&gt;Node45</title>
<path fill="none" stroke="#63b8ff" d="M1963.44,-346.12C2000.2,-336.06 2060.26,-319.65 2101.14,-308.47"/>
<polygon fill="#63b8ff" stroke="#63b8ff" points="2101.94,-311.88 2110.67,-305.87 2100.1,-305.13 2101.94,-311.88"/>
</g>
<!-- Node48 -->
<g id="node48" class="node">
<title>Node48</title>
<g id="a_node48"><a xlink:href="CountedPtrOrPtr_8ih_source.html" target="_top" xlink:title=" ">
<polygon fill="white" stroke="#666666" points="2063.93,-305 1911.93,-305 1911.93,-286 2063.93,-286 2063.93,-305"/>
<text text-anchor="middle" x="1987.93" y="-293" font-family="FreeSans" font-size="10.00">DGtal/base/CountedPtrOrPtr.ih</text>
</a>
</g>
</g>
<!-- Node47&#45;&gt;Node48 -->
<g id="edge85" class="edge">
<title>Node47&#45;&gt;Node48</title>
<path fill="none" stroke="#63b8ff" d="M1939.34,-346.37C1947.85,-337.64 1961.21,-323.93 1971.77,-313.09"/>
<polygon fill="#63b8ff" stroke="#63b8ff" points="1973.96,-315.86 1978.43,-306.25 1968.95,-310.97 1973.96,-315.86"/>
</g>
</g>
</svg>
