<?xml version="1.0" encoding="UTF-8" standalone="no"?>
<!DOCTYPE svg PUBLIC "-//W3C//DTD SVG 1.1//EN"
 "http://www.w3.org/Graphics/SVG/1.1/DTD/svg11.dtd">
<!-- Generated by graphviz version 7.0.1 (20221109.1506)
 -->
<!-- Title: testTensorVoting.cpp Pages: 1 -->
<svg width="3497pt" height="654pt"
 viewBox="0.00 0.00 3497.04 654.00" xmlns="http://www.w3.org/2000/svg" xmlns:xlink="http://www.w3.org/1999/xlink">
<g id="graph0" class="graph" transform="scale(1 1) rotate(0) translate(4 650)">
<title>testTensorVoting.cpp</title>
<!-- Node1 -->
<g id="node1" class="node">
<title>Node1</title>
<g id="a_node1"><a xlink:title=" ">
<polygon fill="#999999" stroke="#666666" points="2426.54,-646 2317.54,-646 2317.54,-627 2426.54,-627 2426.54,-646"/>
<text text-anchor="middle" x="2372.04" y="-634" font-family="FreeSans" font-size="10.00">testTensorVoting.cpp</text>
</a>
</g>
</g>
<!-- Node2 -->
<g id="node2" class="node">
<title>Node2</title>
<g id="a_node2"><a xlink:title=" ">
<polygon fill="#e0e0e0" stroke="#999999" points="1599.04,-19 1545.04,-19 1545.04,0 1599.04,0 1599.04,-19"/>
<text text-anchor="middle" x="1572.04" y="-7" font-family="FreeSans" font-size="10.00">iostream</text>
</a>
</g>
</g>
<!-- Node1&#45;&gt;Node2 -->
<g id="edge1" class="edge">
<title>Node1&#45;&gt;Node2</title>
<path fill="none" stroke="#63b8ff" d="M2426.95,-635.68C2605.09,-635.85 3165.58,-632.96 3341.04,-591 3411.62,-574.12 3489.04,-594.58 3489.04,-522 3489.04,-522 3489.04,-522 3489.04,-118.5 3489.04,-41.58 3403.41,-70.32 3328.04,-55 3154.64,-19.76 1852.43,-11.84 1610.62,-10.67"/>
<polygon fill="#63b8ff" stroke="#63b8ff" points="1610.82,-7.17 1600.8,-10.62 1610.78,-14.17 1610.82,-7.17"/>
</g>
<!-- Node3 -->
<g id="node3" class="node">
<title>Node3</title>
<g id="a_node3"><a xlink:href="Common_8h_source.html" target="_top" xlink:title=" ">
<polygon fill="white" stroke="#666666" points="1692.54,-250 1575.54,-250 1575.54,-231 1692.54,-231 1692.54,-250"/>
<text text-anchor="middle" x="1634.04" y="-238" font-family="FreeSans" font-size="10.00">DGtal/base/Common.h</text>
</a>
</g>
</g>
<!-- Node1&#45;&gt;Node3 -->
<g id="edge2" class="edge">
<title>Node1&#45;&gt;Node3</title>
<path fill="none" stroke="#63b8ff" d="M2317.33,-635.48C2208.3,-634.61 1968.17,-628.37 1896.04,-591 1758.89,-519.95 1751.2,-458.41 1670.04,-327 1656.97,-305.85 1646.57,-279.11 1640.37,-261.22"/>
<polygon fill="#63b8ff" stroke="#63b8ff" points="1643.74,-260.24 1637.25,-251.86 1637.1,-262.46 1643.74,-260.24"/>
</g>
<!-- Node33 -->
<g id="node22" class="node">
<title>Node33</title>
<g id="a_node22"><a xlink:href="BasicFunctors_8h_source.html" target="_top" xlink:title=" ">
<polygon fill="#fff0f0" stroke="red" points="2643.04,-189.5 2503.04,-189.5 2503.04,-170.5 2643.04,-170.5 2643.04,-189.5"/>
<text text-anchor="middle" x="2573.04" y="-177.5" font-family="FreeSans" font-size="10.00">DGtal/base/BasicFunctors.h</text>
</a>
</g>
</g>
<!-- Node1&#45;&gt;Node33 -->
<g id="edge89" class="edge">
<title>Node1&#45;&gt;Node33</title>
<path fill="none" stroke="#63b8ff" d="M2317.26,-630.32C2254.57,-623.59 2156.49,-610.35 2125.04,-591 2092.33,-570.88 2073.04,-560.4 2073.04,-522 2073.04,-522 2073.04,-522 2073.04,-382.5 2073.04,-338.79 2061.45,-317.22 2092.04,-286 2092.99,-285.03 2396.07,-219.32 2520.58,-192.35"/>
<polygon fill="#63b8ff" stroke="#63b8ff" points="2521.19,-195.8 2530.23,-190.27 2519.71,-188.96 2521.19,-195.8"/>
</g>
<!-- Node35 -->
<g id="node23" class="node">
<title>Node35</title>
<g id="a_node23"><a xlink:href="Color_8h_source.html" target="_top" xlink:title=" ">
<polygon fill="#fff0f0" stroke="red" points="2937.04,-129 2851.04,-129 2851.04,-110 2937.04,-110 2937.04,-129"/>
<text text-anchor="middle" x="2894.04" y="-117" font-family="FreeSans" font-size="10.00">DGtal/io/Color.h</text>
</a>
</g>
</g>
<!-- Node1&#45;&gt;Node35 -->
<g id="edge97" class="edge">
<title>Node1&#45;&gt;Node35</title>
<path fill="none" stroke="#63b8ff" d="M2427.03,-635.55C2646.91,-635.04 3451.04,-626.07 3451.04,-522 3451.04,-522 3451.04,-522 3451.04,-382.5 3451.04,-338.79 3461.3,-318.47 3432.04,-286 3304.23,-144.16 3058.13,-122.42 2948.75,-120.08"/>
<polygon fill="#63b8ff" stroke="#63b8ff" points="2948.92,-116.59 2938.86,-119.93 2948.81,-123.59 2948.92,-116.59"/>
</g>
<!-- Node44 -->
<g id="node26" class="node">
<title>Node44</title>
<g id="a_node26"><a xlink:href="StdDefs_8h_source.html" target="_top" xlink:title=" ">
<polygon fill="#fff0f0" stroke="red" points="765.04,-591 641.04,-591 641.04,-572 765.04,-572 765.04,-591"/>
<text text-anchor="middle" x="703.04" y="-579" font-family="FreeSans" font-size="10.00">DGtal/helpers/StdDefs.h</text>
</a>
</g>
</g>
<!-- Node1&#45;&gt;Node44 -->
<g id="edge45" class="edge">
<title>Node1&#45;&gt;Node44</title>
<path fill="none" stroke="#63b8ff" d="M2317.45,-633.77C2070.73,-625.93 1059.5,-593.82 776.78,-584.84"/>
<polygon fill="#63b8ff" stroke="#63b8ff" points="777.06,-581.35 766.96,-584.53 776.84,-588.35 777.06,-581.35"/>
</g>
<!-- Node150 -->
<g id="node36" class="node">
<title>Node150</title>
<g id="a_node36"><a xlink:href="CanonicSCellEmbedder_8h_source.html" target="_top" xlink:title=" ">
<polygon fill="#fff0f0" stroke="red" points="1824.54,-321.5 1679.54,-321.5 1679.54,-291.5 1824.54,-291.5 1824.54,-321.5"/>
<text text-anchor="start" x="1687.54" y="-309.5" font-family="FreeSans" font-size="10.00">DGtal/topology/CanonicSCell</text>
<text text-anchor="middle" x="1752.04" y="-298.5" font-family="FreeSans" font-size="10.00">Embedder.h</text>
</a>
</g>
</g>
<!-- Node1&#45;&gt;Node150 -->
<g id="edge111" class="edge">
<title>Node1&#45;&gt;Node150</title>
<path fill="none" stroke="#63b8ff" d="M2317.2,-634.97C2184.14,-632.19 1855.04,-615.85 1855.04,-522 1855.04,-522 1855.04,-522 1855.04,-454 1855.04,-401.65 1810.48,-354.79 1779.97,-328.84"/>
<polygon fill="#63b8ff" stroke="#63b8ff" points="1782.52,-326.4 1772.58,-322.75 1778.07,-331.81 1782.52,-326.4"/>
</g>
<!-- Node160 -->
<g id="node38" class="node">
<title>Node160</title>
<g id="a_node38"><a xlink:href="GraphVisitorRange_8h_source.html" target="_top" xlink:title=" ">
<polygon fill="#fff0f0" stroke="red" points="2227.04,-321.5 2101.04,-321.5 2101.04,-291.5 2227.04,-291.5 2227.04,-321.5"/>
<text text-anchor="start" x="2109.04" y="-309.5" font-family="FreeSans" font-size="10.00">DGtal/graph/GraphVisitor</text>
<text text-anchor="middle" x="2164.04" y="-298.5" font-family="FreeSans" font-size="10.00">Range.h</text>
</a>
</g>
</g>
<!-- Node1&#45;&gt;Node160 -->
<g id="edge90" class="edge">
<title>Node1&#45;&gt;Node160</title>
<path fill="none" stroke="#63b8ff" d="M2317.32,-634.98C2240.79,-631.03 2111.04,-611.19 2111.04,-522 2111.04,-522 2111.04,-522 2111.04,-454 2111.04,-412.68 2114.8,-401.4 2130.04,-363 2134.38,-352.05 2140.83,-340.81 2146.94,-331.33"/>
<polygon fill="#63b8ff" stroke="#63b8ff" points="2149.81,-333.35 2152.49,-323.1 2144,-329.44 2149.81,-333.35"/>
</g>
<!-- Node162 -->
<g id="node39" class="node">
<title>Node162</title>
<g id="a_node39"><a xlink:href="Board2D_8h_source.html" target="_top" xlink:title=" ">
<polygon fill="#fff0f0" stroke="red" points="3257.04,-316 3123.04,-316 3123.04,-297 3257.04,-297 3257.04,-316"/>
<text text-anchor="middle" x="3190.04" y="-304" font-family="FreeSans" font-size="10.00">DGtal/io/boards/Board2D.h</text>
</a>
</g>
</g>
<!-- Node1&#45;&gt;Node162 -->
<g id="edge93" class="edge">
<title>Node1&#45;&gt;Node162</title>
<path fill="none" stroke="#63b8ff" d="M2426.85,-636.11C2525.31,-636.07 2738.04,-630.84 2912.04,-591 2995.15,-571.97 3091.04,-607.26 3091.04,-522 3091.04,-522 3091.04,-522 3091.04,-454 3091.04,-398.32 3140.73,-348 3169.7,-323.4"/>
<polygon fill="#63b8ff" stroke="#63b8ff" points="3171.62,-326.35 3177.12,-317.3 3167.17,-320.94 3171.62,-326.35"/>
</g>
<!-- Node316 -->
<g id="node40" class="node">
<title>Node316</title>
<g id="a_node40"><a xlink:href="GradientColorMap_8h_source.html" target="_top" xlink:title=" ">
<polygon fill="#fff0f0" stroke="red" points="2976.54,-321.5 2869.54,-321.5 2869.54,-291.5 2976.54,-291.5 2976.54,-321.5"/>
<text text-anchor="start" x="2877.54" y="-309.5" font-family="FreeSans" font-size="10.00">DGtal/io/colormaps</text>
<text text-anchor="middle" x="2923.04" y="-298.5" font-family="FreeSans" font-size="10.00">/GradientColorMap.h</text>
</a>
</g>
</g>
<!-- Node1&#45;&gt;Node316 -->
<g id="edge98" class="edge">
<title>Node1&#45;&gt;Node316</title>
<path fill="none" stroke="#63b8ff" d="M2426.97,-633.1C2546.6,-626.38 2820.04,-602.24 2820.04,-522 2820.04,-522 2820.04,-522 2820.04,-454 2820.04,-401.65 2864.59,-354.79 2895.1,-328.84"/>
<polygon fill="#63b8ff" stroke="#63b8ff" points="2897,-331.81 2902.49,-322.75 2892.55,-326.4 2897,-331.81"/>
</g>
<!-- Node322 -->
<g id="node41" class="node">
<title>Node322</title>
<g id="a_node41"><a xlink:href="DGtal_2shapes_2Shapes_8h_source.html" target="_top" xlink:title=" ">
<polygon fill="#fff0f0" stroke="red" points="1161.54,-530.5 1040.54,-530.5 1040.54,-511.5 1161.54,-511.5 1161.54,-530.5"/>
<text text-anchor="middle" x="1101.04" y="-518.5" font-family="FreeSans" font-size="10.00">DGtal/shapes/Shapes.h</text>
</a>
</g>
</g>
<!-- Node1&#45;&gt;Node322 -->
<g id="edge102" class="edge">
<title>Node1&#45;&gt;Node322</title>
<path fill="none" stroke="#63b8ff" d="M2317.2,-634.82C2103.68,-631.97 1334.46,-619.8 1229.04,-591 1188.55,-579.94 1146.66,-554.15 1122.27,-537.42"/>
<polygon fill="#63b8ff" stroke="#63b8ff" points="1124.38,-534.62 1114.18,-531.74 1120.36,-540.35 1124.38,-534.62"/>
</g>
<!-- Node333 -->
<g id="node42" class="node">
<title>Node333</title>
<g id="a_node42"><a xlink:href="GaussDigitizer_8h_source.html" target="_top" xlink:title=" ">
<polygon fill="#fff0f0" stroke="red" points="1223.04,-464.5 1071.04,-464.5 1071.04,-445.5 1223.04,-445.5 1223.04,-464.5"/>
<text text-anchor="middle" x="1147.04" y="-452.5" font-family="FreeSans" font-size="10.00">DGtal/shapes/GaussDigitizer.h</text>
</a>
</g>
</g>
<!-- Node1&#45;&gt;Node333 -->
<g id="edge141" class="edge">
<title>Node1&#45;&gt;Node333</title>
<path fill="none" stroke="#63b8ff" d="M2317.25,-633.2C2128.31,-624.82 1505.08,-593.4 1314.04,-536 1260.65,-519.96 1202.97,-488.95 1171.3,-470.6"/>
<polygon fill="#63b8ff" stroke="#63b8ff" points="1173.3,-467.72 1162.91,-465.67 1169.76,-473.76 1173.3,-467.72"/>
</g>
<!-- Node338 -->
<g id="node43" class="node">
<title>Node338</title>
<g id="a_node43"><a xlink:href="DistanceBreadthFirstVisitor_8h_source.html" target="_top" xlink:title=" ">
<polygon fill="#fff0f0" stroke="red" points="2466.54,-321.5 2321.54,-321.5 2321.54,-291.5 2466.54,-291.5 2466.54,-321.5"/>
<text text-anchor="start" x="2329.54" y="-309.5" font-family="FreeSans" font-size="10.00">DGtal/graph/DistanceBreadth</text>
<text text-anchor="middle" x="2394.04" y="-298.5" font-family="FreeSans" font-size="10.00">FirstVisitor.h</text>
</a>
</g>
</g>
<!-- Node1&#45;&gt;Node338 -->
<g id="edge112" class="edge">
<title>Node1&#45;&gt;Node338</title>
<path fill="none" stroke="#63b8ff" d="M2390.02,-626.72C2420.26,-610.54 2478.04,-572.96 2478.04,-522 2478.04,-522 2478.04,-522 2478.04,-454 2478.04,-412.59 2479.2,-398.59 2458.04,-363 2450.15,-349.73 2437.97,-338.02 2426.35,-328.81"/>
<polygon fill="#63b8ff" stroke="#63b8ff" points="2428.55,-326.09 2418.45,-322.89 2424.35,-331.69 2428.55,-326.09"/>
</g>
<!-- Node341 -->
<g id="node44" class="node">
<title>Node341</title>
<g id="a_node44"><a xlink:href="LpMetric_8h_source.html" target="_top" xlink:title=" ">
<polygon fill="#fff0f0" stroke="red" points="2044.54,-321.5 1919.54,-321.5 1919.54,-291.5 2044.54,-291.5 2044.54,-321.5"/>
<text text-anchor="start" x="1927.54" y="-309.5" font-family="FreeSans" font-size="10.00">DGtal/geometry/volumes</text>
<text text-anchor="middle" x="1982.04" y="-298.5" font-family="FreeSans" font-size="10.00">/distance/LpMetric.h</text>
</a>
</g>
</g>
<!-- Node1&#45;&gt;Node341 -->
<g id="edge115" class="edge">
<title>Node1&#45;&gt;Node341</title>
<path fill="none" stroke="#63b8ff" d="M2317.17,-632.82C2239.28,-628.17 2101.4,-616.54 2059.04,-591 2026.6,-571.45 2009.04,-559.87 2009.04,-522 2009.04,-522 2009.04,-522 2009.04,-454 2009.04,-410.81 1997.55,-361.63 1989.56,-332.65"/>
<polygon fill="#63b8ff" stroke="#63b8ff" points="1993.01,-332.01 1986.91,-323.35 1986.28,-333.93 1993.01,-332.01"/>
</g>
<!-- Node342 -->
<g id="node45" class="node">
<title>Node342</title>
<g id="a_node45"><a xlink:href="LocalEstimatorFromSurfelFunctorAdapter_8h_source.html" target="_top" xlink:title=" ">
<polygon fill="#fff0f0" stroke="red" points="2449.54,-404 2294.54,-404 2294.54,-363 2449.54,-363 2449.54,-404"/>
<text text-anchor="start" x="2302.54" y="-392" font-family="FreeSans" font-size="10.00">DGtal/geometry/surfaces</text>
<text text-anchor="start" x="2302.54" y="-381" font-family="FreeSans" font-size="10.00">/estimation/LocalEstimatorFrom</text>
<text text-anchor="middle" x="2372.04" y="-370" font-family="FreeSans" font-size="10.00">SurfelFunctorAdapter.h</text>
</a>
</g>
</g>
<!-- Node1&#45;&gt;Node342 -->
<g id="edge119" class="edge">
<title>Node1&#45;&gt;Node342</title>
<path fill="none" stroke="#63b8ff" d="M2372.04,-626.57C2372.04,-592.98 2372.04,-473.24 2372.04,-415.75"/>
<polygon fill="#63b8ff" stroke="#63b8ff" points="2375.54,-415.99 2372.04,-405.99 2368.54,-415.99 2375.54,-415.99"/>
</g>
<!-- Node355 -->
<g id="node46" class="node">
<title>Node355</title>
<g id="a_node46"><a xlink:href="BasicEstimatorFromSurfelsFunctors_8h_source.html" target="_top" xlink:title=" ">
<polygon fill="#fff0f0" stroke="red" points="2671.04,-327 2485.04,-327 2485.04,-286 2671.04,-286 2671.04,-327"/>
<text text-anchor="start" x="2493.04" y="-315" font-family="FreeSans" font-size="10.00">DGtal/geometry/surfaces</text>
<text text-anchor="start" x="2493.04" y="-304" font-family="FreeSans" font-size="10.00">/estimation/estimationFunctors</text>
<text text-anchor="middle" x="2578.04" y="-293" font-family="FreeSans" font-size="10.00">/BasicEstimatorFromSurfelsFunctors.h</text>
</a>
</g>
</g>
<!-- Node1&#45;&gt;Node355 -->
<g id="edge125" class="edge">
<title>Node1&#45;&gt;Node355</title>
<path fill="none" stroke="#63b8ff" d="M2418.01,-626.52C2469.86,-613.41 2547.04,-583.56 2547.04,-522 2547.04,-522 2547.04,-522 2547.04,-454 2547.04,-413.15 2558.72,-367.25 2567.74,-337.89"/>
<polygon fill="#63b8ff" stroke="#63b8ff" points="2571.01,-339.16 2570.7,-328.57 2564.34,-337.04 2571.01,-339.16"/>
</g>
<!-- Node356 -->
<g id="node47" class="node">
<title>Node356</title>
<g id="a_node47"><a xlink:href="LightImplicitDigitalSurface_8h_source.html" target="_top" xlink:title=" ">
<polygon fill="#fff0f0" stroke="red" points="2276.54,-398.5 2139.54,-398.5 2139.54,-368.5 2276.54,-368.5 2276.54,-398.5"/>
<text text-anchor="start" x="2147.54" y="-386.5" font-family="FreeSans" font-size="10.00">DGtal/topology/LightImplicit</text>
<text text-anchor="middle" x="2208.04" y="-375.5" font-family="FreeSans" font-size="10.00">DigitalSurface.h</text>
</a>
</g>
</g>
<!-- Node1&#45;&gt;Node356 -->
<g id="edge128" class="edge">
<title>Node1&#45;&gt;Node356</title>
<path fill="none" stroke="#63b8ff" d="M2366.2,-626.57C2343.26,-591.45 2258.8,-462.2 2223.6,-408.32"/>
<polygon fill="#63b8ff" stroke="#63b8ff" points="2226.67,-406.61 2218.27,-400.16 2220.81,-410.44 2226.67,-406.61"/>
</g>
<!-- Node366 -->
<g id="node48" class="node">
<title>Node366</title>
<g id="a_node48"><a xlink:href="TensorVotingFeatureExtraction_8h_source.html" target="_top" xlink:title=" ">
<polygon fill="#fff0f0" stroke="red" points="2851.04,-327 2689.04,-327 2689.04,-286 2851.04,-286 2851.04,-327"/>
<text text-anchor="start" x="2697.04" y="-315" font-family="FreeSans" font-size="10.00">DGtal/geometry/surfaces</text>
<text text-anchor="start" x="2697.04" y="-304" font-family="FreeSans" font-size="10.00">/estimation/estimationFunctors</text>
<text text-anchor="middle" x="2770.04" y="-293" font-family="FreeSans" font-size="10.00">/TensorVotingFeatureExtraction.h</text>
</a>
</g>
</g>
<!-- Node1&#45;&gt;Node366 -->
<g id="edge132" class="edge">
<title>Node1&#45;&gt;Node366</title>
<path fill="none" stroke="#63b8ff" d="M2426.74,-626.75C2514.76,-611.12 2678.04,-574.98 2678.04,-522 2678.04,-522 2678.04,-522 2678.04,-454 2678.04,-406.91 2712.54,-362.55 2739.29,-335.24"/>
<polygon fill="#63b8ff" stroke="#63b8ff" points="2741.57,-337.91 2746.22,-328.39 2736.65,-332.93 2741.57,-337.91"/>
</g>
<!-- Node369 -->
<g id="node49" class="node">
<title>Node369</title>
<g id="a_node49"><a xlink:href="ImplicitHyperCube_8h_source.html" target="_top" xlink:title=" ">
<polygon fill="#fff0f0" stroke="red" points="3105.04,-321.5 2995.04,-321.5 2995.04,-291.5 3105.04,-291.5 3105.04,-321.5"/>
<text text-anchor="start" x="3003.04" y="-309.5" font-family="FreeSans" font-size="10.00">DGtal/shapes/implicit</text>
<text text-anchor="middle" x="3050.04" y="-298.5" font-family="FreeSans" font-size="10.00">/ImplicitHyperCube.h</text>
</a>
</g>
</g>
<!-- Node1&#45;&gt;Node369 -->
<g id="edge135" class="edge">
<title>Node1&#45;&gt;Node369</title>
<path fill="none" stroke="#63b8ff" d="M2426.79,-636.32C2571.67,-637.04 2954.04,-628.81 2954.04,-522 2954.04,-522 2954.04,-522 2954.04,-454 2954.04,-402.74 2995.66,-355.47 3024.09,-329.16"/>
<polygon fill="#63b8ff" stroke="#63b8ff" points="3026.19,-331.97 3031.3,-322.69 3021.52,-326.76 3026.19,-331.97"/>
</g>
<!-- Node371 -->
<g id="node50" class="node">
<title>Node371</title>
<g id="a_node50"><a xlink:href="ImplicitBall_8h_source.html" target="_top" xlink:title=" ">
<polygon fill="#fff0f0" stroke="red" points="3423.04,-321.5 3313.04,-321.5 3313.04,-291.5 3423.04,-291.5 3423.04,-321.5"/>
<text text-anchor="start" x="3321.04" y="-309.5" font-family="FreeSans" font-size="10.00">DGtal/shapes/implicit</text>
<text text-anchor="middle" x="3368.04" y="-298.5" font-family="FreeSans" font-size="10.00">/ImplicitBall.h</text>
</a>
</g>
</g>
<!-- Node1&#45;&gt;Node371 -->
<g id="edge138" class="edge">
<title>Node1&#45;&gt;Node371</title>
<path fill="none" stroke="#63b8ff" d="M2426.9,-634.2C2618.89,-628.93 3249.04,-605.29 3249.04,-522 3249.04,-522 3249.04,-522 3249.04,-454 3249.04,-399.19 3299.84,-353.46 3335.06,-328.34"/>
<polygon fill="#63b8ff" stroke="#63b8ff" points="3337.03,-331.23 3343.28,-322.68 3333.06,-325.47 3337.03,-331.23"/>
</g>
<!-- Node3&#45;&gt;Node2 -->
<g id="edge3" class="edge">
<title>Node3&#45;&gt;Node2</title>
<path fill="none" stroke="#63b8ff" d="M1575.21,-238.43C1394.25,-234.85 856.55,-221.97 831.04,-195 729.43,-87.61 1367.31,-27.3 1533.28,-13.55"/>
<polygon fill="#63b8ff" stroke="#63b8ff" points="1533.43,-17.05 1543.11,-12.74 1532.86,-10.07 1533.43,-17.05"/>
</g>
<!-- Node4 -->
<g id="node4" class="node">
<title>Node4</title>
<g id="a_node4"><a xlink:title=" ">
<polygon fill="#e0e0e0" stroke="#999999" points="1974.54,-189.5 1915.54,-189.5 1915.54,-170.5 1974.54,-170.5 1974.54,-189.5"/>
<text text-anchor="middle" x="1945.04" y="-177.5" font-family="FreeSans" font-size="10.00">exception</text>
</a>
</g>
</g>
<!-- Node3&#45;&gt;Node4 -->
<g id="edge4" class="edge">
<title>Node3&#45;&gt;Node4</title>
<path fill="none" stroke="#63b8ff" d="M1692.86,-232.16C1747.28,-224.79 1830.22,-212.07 1901.04,-195 1903.44,-194.42 1905.91,-193.78 1908.38,-193.09"/>
<polygon fill="#63b8ff" stroke="#63b8ff" points="1909.1,-196.53 1917.7,-190.34 1907.12,-189.82 1909.1,-196.53"/>
</g>
<!-- Node5 -->
<g id="node5" class="node">
<title>Node5</title>
<g id="a_node5"><a xlink:title=" ">
<polygon fill="#e0e0e0" stroke="#999999" points="2601.04,-74 2545.04,-74 2545.04,-55 2601.04,-55 2601.04,-74"/>
<text text-anchor="middle" x="2573.04" y="-62" font-family="FreeSans" font-size="10.00">algorithm</text>
</a>
</g>
</g>
<!-- Node3&#45;&gt;Node5 -->
<g id="edge5" class="edge">
<title>Node3&#45;&gt;Node5</title>
<path fill="none" stroke="#63b8ff" d="M1687.5,-230.56C1728.64,-223 1786.63,-210.87 1836.04,-195 1868.26,-184.65 1873.5,-174.32 1906.04,-165 2060.37,-120.81 2104.25,-133.63 2263.04,-110 2360.14,-95.55 2474.48,-79.35 2533.44,-71.05"/>
<polygon fill="#63b8ff" stroke="#63b8ff" points="2533.9,-74.52 2543.31,-69.66 2532.92,-67.59 2533.9,-74.52"/>
</g>
<!-- Node6 -->
<g id="node6" class="node">
<title>Node6</title>
<g id="a_node6"><a xlink:title=" ">
<polygon fill="#e0e0e0" stroke="#999999" points="2125.04,-189.5 2031.04,-189.5 2031.04,-170.5 2125.04,-170.5 2125.04,-189.5"/>
<text text-anchor="middle" x="2078.04" y="-177.5" font-family="FreeSans" font-size="10.00">boost/version.hpp</text>
</a>
</g>
</g>
<!-- Node3&#45;&gt;Node6 -->
<g id="edge6" class="edge">
<title>Node3&#45;&gt;Node6</title>
<path fill="none" stroke="#63b8ff" d="M1693,-232.63C1697.75,-232.08 1702.47,-231.53 1707.04,-231 1844.81,-214.98 1880.35,-218.55 2017.04,-195 2021.61,-194.21 2026.36,-193.3 2031.1,-192.32"/>
<polygon fill="#63b8ff" stroke="#63b8ff" points="2031.53,-195.81 2040.56,-190.27 2030.05,-188.96 2031.53,-195.81"/>
</g>
<!-- Node7 -->
<g id="node7" class="node">
<title>Node7</title>
<g id="a_node7"><a xlink:title=" ">
<polygon fill="#e0e0e0" stroke="#999999" points="2271.04,-189.5 2143.04,-189.5 2143.04,-170.5 2271.04,-170.5 2271.04,-189.5"/>
<text text-anchor="middle" x="2207.04" y="-177.5" font-family="FreeSans" font-size="10.00">boost/concept_check.hpp</text>
</a>
</g>
</g>
<!-- Node3&#45;&gt;Node7 -->
<g id="edge7" class="edge">
<title>Node3&#45;&gt;Node7</title>
<path fill="none" stroke="#63b8ff" d="M1692.98,-232.47C1697.74,-231.96 1702.47,-231.46 1707.04,-231 1896.54,-211.98 1945.36,-220.97 2134.04,-195 2140.34,-194.13 2146.93,-193.08 2153.45,-191.94"/>
<polygon fill="#63b8ff" stroke="#63b8ff" points="2153.61,-195.47 2162.82,-190.24 2152.36,-188.58 2153.61,-195.47"/>
</g>
<!-- Node8 -->
<g id="node8" class="node">
<title>Node8</title>
<g id="a_node8"><a xlink:title=" ">
<polygon fill="#e0e0e0" stroke="#999999" points="2408.54,-189.5 2289.54,-189.5 2289.54,-170.5 2408.54,-170.5 2408.54,-189.5"/>
<text text-anchor="middle" x="2349.04" y="-177.5" font-family="FreeSans" font-size="10.00">boost/static_assert.hpp</text>
</a>
</g>
</g>
<!-- Node3&#45;&gt;Node8 -->
<g id="edge8" class="edge">
<title>Node3&#45;&gt;Node8</title>
<path fill="none" stroke="#63b8ff" d="M1692.97,-232.36C1697.73,-231.87 1702.46,-231.41 1707.04,-231 1961.19,-208.24 2027.07,-228.45 2280.04,-195 2286.09,-194.2 2292.42,-193.18 2298.67,-192.05"/>
<polygon fill="#63b8ff" stroke="#63b8ff" points="2299.13,-195.53 2308.3,-190.22 2297.82,-188.65 2299.13,-195.53"/>
</g>
<!-- Node9 -->
<g id="node9" class="node">
<title>Node9</title>
<g id="a_node9"><a xlink:title=" ">
<polygon fill="#e0e0e0" stroke="#999999" points="967.54,-189.5 840.54,-189.5 840.54,-170.5 967.54,-170.5 967.54,-189.5"/>
<text text-anchor="middle" x="904.04" y="-177.5" font-family="FreeSans" font-size="10.00">boost/concept/assert.hpp</text>
</a>
</g>
</g>
<!-- Node3&#45;&gt;Node9 -->
<g id="edge9" class="edge">
<title>Node3&#45;&gt;Node9</title>
<path fill="none" stroke="#63b8ff" d="M1575.35,-237.92C1460.2,-234.3 1196.71,-223.4 977.04,-195 970.56,-194.16 963.79,-193.11 957.1,-191.96"/>
<polygon fill="#63b8ff" stroke="#63b8ff" points="957.92,-188.55 947.46,-190.22 956.68,-195.44 957.92,-188.55"/>
</g>
<!-- Node10 -->
<g id="node10" class="node">
<title>Node10</title>
<g id="a_node10"><a xlink:title=" ">
<polygon fill="#e0e0e0" stroke="#999999" points="1120.04,-189.5 986.04,-189.5 986.04,-170.5 1120.04,-170.5 1120.04,-189.5"/>
<text text-anchor="middle" x="1053.04" y="-177.5" font-family="FreeSans" font-size="10.00">boost/concept/requires.hpp</text>
</a>
</g>
</g>
<!-- Node3&#45;&gt;Node10 -->
<g id="edge10" class="edge">
<title>Node3&#45;&gt;Node10</title>
<path fill="none" stroke="#63b8ff" d="M1575.13,-236.12C1480.7,-230.29 1289.72,-216.83 1129.04,-195 1122.56,-194.12 1115.8,-193.07 1109.1,-191.94"/>
<polygon fill="#63b8ff" stroke="#63b8ff" points="1109.88,-188.53 1099.42,-190.26 1108.67,-195.42 1109.88,-188.53"/>
</g>
<!-- Node11 -->
<g id="node11" class="node">
<title>Node11</title>
<g id="a_node11"><a xlink:title=" ">
<polygon fill="#e0e0e0" stroke="#999999" points="1245.54,-195 1138.54,-195 1138.54,-165 1245.54,-165 1245.54,-195"/>
<text text-anchor="start" x="1146.54" y="-183" font-family="FreeSans" font-size="10.00">boost/iterator/iterator</text>
<text text-anchor="middle" x="1192.04" y="-172" font-family="FreeSans" font-size="10.00">_concepts.hpp</text>
</a>
</g>
</g>
<!-- Node3&#45;&gt;Node11 -->
<g id="edge11" class="edge">
<title>Node3&#45;&gt;Node11</title>
<path fill="none" stroke="#63b8ff" d="M1575.17,-234.55C1502.52,-228.01 1374.99,-215.12 1256.78,-195.36"/>
<polygon fill="#63b8ff" stroke="#63b8ff" points="1257.67,-191.96 1247.23,-193.74 1256.5,-198.86 1257.67,-191.96"/>
</g>
<!-- Node12 -->
<g id="node12" class="node">
<title>Node12</title>
<g id="a_node12"><a xlink:title=" ">
<polygon fill="#e0e0e0" stroke="#999999" points="1408.54,-189.5 1263.54,-189.5 1263.54,-170.5 1408.54,-170.5 1408.54,-189.5"/>
<text text-anchor="middle" x="1336.04" y="-177.5" font-family="FreeSans" font-size="10.00">boost/concept_archetype.hpp</text>
</a>
</g>
</g>
<!-- Node3&#45;&gt;Node12 -->
<g id="edge12" class="edge">
<title>Node3&#45;&gt;Node12</title>
<path fill="none" stroke="#63b8ff" d="M1588.45,-230.55C1535.87,-220.23 1449.38,-203.25 1392.56,-192.1"/>
<polygon fill="#63b8ff" stroke="#63b8ff" points="1393.59,-188.73 1383.1,-190.24 1392.24,-195.6 1393.59,-188.73"/>
</g>
<!-- Node13 -->
<g id="node13" class="node">
<title>Node13</title>
<g id="a_node13"><a xlink:title=" ">
<polygon fill="#e0e0e0" stroke="#999999" points="2316.04,-129 2272.04,-129 2272.04,-110 2316.04,-110 2316.04,-129"/>
<text text-anchor="middle" x="2294.04" y="-117" font-family="FreeSans" font-size="10.00">cmath</text>
</a>
</g>
</g>
<!-- Node3&#45;&gt;Node13 -->
<g id="edge13" class="edge">
<title>Node3&#45;&gt;Node13</title>
<path fill="none" stroke="#63b8ff" d="M1693.03,-232.38C1790.8,-220.51 1976.39,-197.74 1983.04,-195 2003.25,-186.66 2001.97,-173.7 2022.04,-165 2102.68,-130.05 2207.64,-122.34 2260.5,-120.78"/>
<polygon fill="#63b8ff" stroke="#63b8ff" points="2260.43,-124.28 2270.35,-120.55 2260.27,-117.28 2260.43,-124.28"/>
</g>
<!-- Node14 -->
<g id="node14" class="node">
<title>Node14</title>
<g id="a_node14"><a xlink:title=" ">
<polygon fill="#e0e0e0" stroke="#999999" points="1473.04,-189.5 1427.04,-189.5 1427.04,-170.5 1473.04,-170.5 1473.04,-189.5"/>
<text text-anchor="middle" x="1450.04" y="-177.5" font-family="FreeSans" font-size="10.00">stdio.h</text>
</a>
</g>
</g>
<!-- Node3&#45;&gt;Node14 -->
<g id="edge14" class="edge">
<title>Node3&#45;&gt;Node14</title>
<path fill="none" stroke="#63b8ff" d="M1602.3,-230.57C1572.39,-221.99 1526.42,-208.39 1487.04,-195 1485.9,-194.61 1484.74,-194.21 1483.58,-193.8"/>
<polygon fill="#63b8ff" stroke="#63b8ff" points="1485.06,-190.62 1474.46,-190.5 1482.67,-197.2 1485.06,-190.62"/>
</g>
<!-- Node15 -->
<g id="node15" class="node">
<title>Node15</title>
<g id="a_node15"><a xlink:href="Config_8h_source.html" target="_top" xlink:title=" ">
<polygon fill="#fff0f0" stroke="red" points="1555.04,-74 1449.04,-74 1449.04,-55 1555.04,-55 1555.04,-74"/>
<text text-anchor="middle" x="1502.04" y="-62" font-family="FreeSans" font-size="10.00">DGtal/base/Config.h</text>
</a>
</g>
</g>
<!-- Node3&#45;&gt;Node15 -->
<g id="edge15" class="edge">
<title>Node3&#45;&gt;Node15</title>
<path fill="none" stroke="#63b8ff" d="M1619.3,-230.66C1604.66,-221.81 1581.63,-207.73 1562.04,-195 1542.19,-182.11 1537.77,-178.07 1518.04,-165 1493.37,-148.66 1476.21,-154.97 1462.04,-129 1452.94,-112.33 1467.16,-94.06 1481.11,-81.41"/>
<polygon fill="#63b8ff" stroke="#63b8ff" points="1482.97,-84.42 1488.38,-75.3 1478.47,-79.06 1482.97,-84.42"/>
</g>
<!-- Node17 -->
<g id="node16" class="node">
<title>Node17</title>
<g id="a_node16"><a xlink:href="Trace_8h_source.html" target="_top" xlink:title=" ">
<polygon fill="#fff0f0" stroke="red" points="1707.04,-189.5 1605.04,-189.5 1605.04,-170.5 1707.04,-170.5 1707.04,-189.5"/>
<text text-anchor="middle" x="1656.04" y="-177.5" font-family="FreeSans" font-size="10.00">DGtal/base/Trace.h</text>
</a>
</g>
</g>
<!-- Node3&#45;&gt;Node17 -->
<g id="edge17" class="edge">
<title>Node3&#45;&gt;Node17</title>
<path fill="none" stroke="#63b8ff" d="M1637.28,-230.87C1640.3,-222.83 1644.91,-210.57 1648.81,-200.22"/>
<polygon fill="#63b8ff" stroke="#63b8ff" points="1652,-201.68 1652.24,-191.08 1645.45,-199.21 1652,-201.68"/>
</g>
<!-- Node24 -->
<g id="node17" class="node">
<title>Node24</title>
<g id="a_node17"><a xlink:href="TraceWriterTerm_8h_source.html" target="_top" xlink:title=" ">
<polygon fill="#fff0f0" stroke="red" points="1414.54,-129 1265.54,-129 1265.54,-110 1414.54,-110 1414.54,-129"/>
<text text-anchor="middle" x="1340.04" y="-117" font-family="FreeSans" font-size="10.00">DGtal/base/TraceWriterTerm.h</text>
</a>
</g>
</g>
<!-- Node3&#45;&gt;Node24 -->
<g id="edge25" class="edge">
<title>Node3&#45;&gt;Node24</title>
<path fill="none" stroke="#63b8ff" d="M1607.75,-230.63C1585.2,-222.58 1552.15,-209.75 1525.04,-195 1504.57,-183.86 1502.95,-175.27 1482.04,-165 1453.09,-150.79 1418.62,-139.86 1390.89,-132.39"/>
<polygon fill="#63b8ff" stroke="#63b8ff" points="1391.87,-129.02 1381.31,-129.88 1390.1,-135.8 1391.87,-129.02"/>
</g>
<!-- Node25 -->
<g id="node18" class="node">
<title>Node25</title>
<g id="a_node18"><a xlink:href="Assert_8h_source.html" target="_top" xlink:title=" ">
<polygon fill="#fff0f0" stroke="red" points="1577.04,-129 1471.04,-129 1471.04,-110 1577.04,-110 1577.04,-129"/>
<text text-anchor="middle" x="1524.04" y="-117" font-family="FreeSans" font-size="10.00">DGtal/base/Assert.h</text>
</a>
</g>
</g>
<!-- Node3&#45;&gt;Node25 -->
<g id="edge28" class="edge">
<title>Node3&#45;&gt;Node25</title>
<path fill="none" stroke="#63b8ff" d="M1625.77,-230.56C1607.52,-210.82 1563.56,-163.25 1539.84,-137.6"/>
<polygon fill="#63b8ff" stroke="#63b8ff" points="1542.49,-135.3 1533.13,-130.34 1537.35,-140.06 1542.49,-135.3"/>
</g>
<!-- Node28 -->
<g id="node19" class="node">
<title>Node28</title>
<g id="a_node19"><a xlink:href="TraceWriterFile_8h_source.html" target="_top" xlink:title=" ">
<polygon fill="#fff0f0" stroke="red" points="2022.54,-129 1879.54,-129 1879.54,-110 2022.54,-110 2022.54,-129"/>
<text text-anchor="middle" x="1951.04" y="-117" font-family="FreeSans" font-size="10.00">DGtal/base/TraceWriterFile.h</text>
</a>
</g>
</g>
<!-- Node3&#45;&gt;Node28 -->
<g id="edge26" class="edge">
<title>Node3&#45;&gt;Node28</title>
<path fill="none" stroke="#63b8ff" d="M1670.37,-230.5C1701.67,-222.38 1747.86,-209.51 1787.04,-195 1836.3,-176.75 1891.54,-150.37 1923.69,-134.39"/>
<polygon fill="#63b8ff" stroke="#63b8ff" points="1924.94,-137.68 1932.31,-130.07 1921.81,-131.42 1924.94,-137.68"/>
</g>
<!-- Node29 -->
<g id="node20" class="node">
<title>Node29</title>
<g id="a_node20"><a xlink:href="ConceptUtils_8h_source.html" target="_top" xlink:title=" ">
<polygon fill="white" stroke="#666666" points="860.04,-74 726.04,-74 726.04,-55 860.04,-55 860.04,-74"/>
<text text-anchor="middle" x="793.04" y="-62" font-family="FreeSans" font-size="10.00">DGtal/base/ConceptUtils.h</text>
</a>
</g>
</g>
<!-- Node3&#45;&gt;Node29 -->
<g id="edge29" class="edge">
<title>Node3&#45;&gt;Node29</title>
<path fill="none" stroke="#63b8ff" d="M1575.1,-238.61C1386.94,-235.5 811.25,-223.67 784.04,-195 755.94,-165.39 772.1,-112.85 783.97,-84.66"/>
<polygon fill="#63b8ff" stroke="#63b8ff" points="787.14,-86.14 788.03,-75.58 780.75,-83.28 787.14,-86.14"/>
</g>
<!-- Node30 -->
<g id="node21" class="node">
<title>Node30</title>
<g id="a_node21"><a xlink:href="BasicTypes_8h_source.html" target="_top" xlink:title=" ">
<polygon fill="#fff0f0" stroke="red" points="1006.04,-74 878.04,-74 878.04,-55 1006.04,-55 1006.04,-74"/>
<text text-anchor="middle" x="942.04" y="-62" font-family="FreeSans" font-size="10.00">DGtal/base/BasicTypes.h</text>
</a>
</g>
</g>
<!-- Node3&#45;&gt;Node30 -->
<g id="edge31" class="edge">
<title>Node3&#45;&gt;Node30</title>
<path fill="none" stroke="#63b8ff" d="M1575.1,-238.56C1389.02,-235.31 824.74,-223.16 798.04,-195 754.66,-149.25 852.07,-101.05 907.31,-78.53"/>
<polygon fill="#63b8ff" stroke="#63b8ff" points="908.33,-81.89 916.33,-74.93 905.74,-75.38 908.33,-81.89"/>
</g>
<!-- Node3&#45;&gt;Node33 -->
<g id="edge33" class="edge">
<title>Node3&#45;&gt;Node33</title>
<path fill="none" stroke="#63b8ff" d="M1693.02,-231.43C1694.71,-231.28 1696.38,-231.14 1698.04,-231 2027.97,-203.84 2112.08,-221.89 2442.04,-195 2458.01,-193.7 2475.11,-191.95 2491.54,-190.14"/>
<polygon fill="#63b8ff" stroke="#63b8ff" points="2491.74,-193.64 2501.28,-189.05 2490.95,-186.68 2491.74,-193.64"/>
</g>
<!-- Node42 -->
<g id="node24" class="node">
<title>Node42</title>
<g id="a_node24"><a xlink:href="BasicArchetypes_8h_source.html" target="_top" xlink:title=" ">
<polygon fill="white" stroke="#666666" points="1823.04,-129 1671.04,-129 1671.04,-110 1823.04,-110 1823.04,-129"/>
<text text-anchor="middle" x="1747.04" y="-117" font-family="FreeSans" font-size="10.00">DGtal/base/BasicArchetypes.h</text>
</a>
</g>
</g>
<!-- Node3&#45;&gt;Node42 -->
<g id="edge41" class="edge">
<title>Node3&#45;&gt;Node42</title>
<path fill="none" stroke="#63b8ff" d="M1660.31,-230.59C1678.08,-223.4 1700.96,-211.72 1716.04,-195 1730.09,-179.42 1738.31,-156.56 1742.72,-140.28"/>
<polygon fill="#63b8ff" stroke="#63b8ff" points="1746.06,-141.35 1745.01,-130.81 1739.25,-139.7 1746.06,-141.35"/>
</g>
<!-- Node43 -->
<g id="node25" class="node">
<title>Node43</title>
<g id="a_node25"><a xlink:href="Exceptions_8h_source.html" target="_top" xlink:title=" ">
<polygon fill="white" stroke="#666666" points="1891.04,-74 1765.04,-74 1765.04,-55 1891.04,-55 1891.04,-74"/>
<text text-anchor="middle" x="1828.04" y="-62" font-family="FreeSans" font-size="10.00">DGtal/base/Exceptions.h</text>
</a>
</g>
</g>
<!-- Node3&#45;&gt;Node43 -->
<g id="edge43" class="edge">
<title>Node3&#45;&gt;Node43</title>
<path fill="none" stroke="#63b8ff" d="M1659.63,-230.61C1681.58,-222.55 1713.73,-209.71 1740.04,-195 1751.02,-188.86 1826.29,-140.19 1832.04,-129 1838.92,-115.6 1837.33,-98.45 1834.34,-85.35"/>
<polygon fill="#63b8ff" stroke="#63b8ff" points="1837.73,-84.45 1831.69,-75.75 1830.98,-86.32 1837.73,-84.45"/>
</g>
<!-- Node15&#45;&gt;Node2 -->
<g id="edge16" class="edge">
<title>Node15&#45;&gt;Node2</title>
<path fill="none" stroke="#63b8ff" d="M1513.91,-54.51C1524.13,-46.77 1539.11,-35.43 1551.3,-26.2"/>
<polygon fill="#63b8ff" stroke="#63b8ff" points="1553.27,-29.1 1559.13,-20.27 1549.04,-23.52 1553.27,-29.1"/>
</g>
<!-- Node17&#45;&gt;Node2 -->
<g id="edge18" class="edge">
<title>Node17&#45;&gt;Node2</title>
<path fill="none" stroke="#63b8ff" d="M1651.75,-170.41C1638.78,-144.39 1599.69,-65.97 1581.51,-29.51"/>
<polygon fill="#63b8ff" stroke="#63b8ff" points="1584.68,-28.01 1577.08,-20.63 1578.41,-31.14 1584.68,-28.01"/>
</g>
<!-- Node17&#45;&gt;Node15 -->
<g id="edge19" class="edge">
<title>Node17&#45;&gt;Node15</title>
<path fill="none" stroke="#63b8ff" d="M1648.55,-170.1C1636.44,-156.09 1611.36,-128.57 1586.04,-110 1569.55,-97.91 1549.35,-87.1 1532.89,-79.17"/>
<polygon fill="#63b8ff" stroke="#63b8ff" points="1534.6,-76.1 1524.07,-75.02 1531.63,-82.44 1534.6,-76.1"/>
</g>
<!-- Node17&#45;&gt;Node24 -->
<g id="edge20" class="edge">
<title>Node17&#45;&gt;Node24</title>
<path fill="none" stroke="#63b8ff" d="M1607.7,-170.05C1551.91,-159.72 1460.11,-142.73 1399.87,-131.58"/>
<polygon fill="#63b8ff" stroke="#63b8ff" points="1400.59,-128.15 1390.12,-129.77 1399.31,-135.03 1400.59,-128.15"/>
</g>
<!-- Node17&#45;&gt;Node25 -->
<g id="edge23" class="edge">
<title>Node17&#45;&gt;Node25</title>
<path fill="none" stroke="#63b8ff" d="M1630.98,-170.12C1607.56,-160.62 1573.05,-145.45 1549.51,-134.38"/>
<polygon fill="#63b8ff" stroke="#63b8ff" points="1551.14,-131.28 1540.61,-130.12 1548.12,-137.59 1551.14,-131.28"/>
</g>
<!-- Node24&#45;&gt;Node2 -->
<g id="edge21" class="edge">
<title>Node24&#45;&gt;Node2</title>
<path fill="none" stroke="#63b8ff" d="M1351.81,-109.69C1369.97,-96.42 1406.26,-71.13 1440.04,-55 1470.49,-40.46 1506.97,-28.55 1533.86,-20.72"/>
<polygon fill="#63b8ff" stroke="#63b8ff" points="1534.63,-24.14 1543.29,-18.03 1532.71,-17.4 1534.63,-24.14"/>
</g>
<!-- Node24&#45;&gt;Node15 -->
<g id="edge22" class="edge">
<title>Node24&#45;&gt;Node15</title>
<path fill="none" stroke="#63b8ff" d="M1367.52,-109.51C1394.01,-100.84 1434.34,-87.65 1463.93,-77.97"/>
<polygon fill="#63b8ff" stroke="#63b8ff" points="1464.84,-81.35 1473.25,-74.92 1462.66,-74.7 1464.84,-81.35"/>
</g>
<!-- Node25&#45;&gt;Node17 -->
<g id="edge24" class="edge">
<title>Node25&#45;&gt;Node17</title>
<path fill="none" stroke="#63b8ff" d="M1549.3,-129.47C1572.78,-138.99 1607.29,-154.17 1630.76,-165.22"/>
<polygon fill="#63b8ff" stroke="#63b8ff" points="1629.1,-168.3 1639.63,-169.46 1632.12,-161.99 1629.1,-168.3"/>
</g>
<!-- Node28&#45;&gt;Node2 -->
<g id="edge27" class="edge">
<title>Node28&#45;&gt;Node2</title>
<path fill="none" stroke="#63b8ff" d="M1946.82,-109.76C1939.48,-95.6 1922.93,-67.94 1900.04,-55 1851.24,-27.42 1686.37,-16.03 1610.65,-12.18"/>
<polygon fill="#63b8ff" stroke="#63b8ff" points="1610.96,-8.69 1600.8,-11.69 1610.62,-15.68 1610.96,-8.69"/>
</g>
<!-- Node29&#45;&gt;Node2 -->
<g id="edge30" class="edge">
<title>Node29&#45;&gt;Node2</title>
<path fill="none" stroke="#63b8ff" d="M860.15,-55.82C863.16,-55.53 866.13,-55.25 869.04,-55 1122.12,-32.85 1427.4,-17.34 1533.49,-12.29"/>
<polygon fill="#63b8ff" stroke="#63b8ff" points="1533.52,-15.79 1543.35,-11.82 1533.19,-8.8 1533.52,-15.79"/>
</g>
<!-- Node30&#45;&gt;Node2 -->
<g id="edge32" class="edge">
<title>Node30&#45;&gt;Node2</title>
<path fill="none" stroke="#63b8ff" d="M1006.29,-56.35C1010.94,-55.88 1015.56,-55.42 1020.04,-55 1212.63,-36.75 1443.49,-19.7 1533.48,-13.23"/>
<polygon fill="#63b8ff" stroke="#63b8ff" points="1533.5,-16.74 1543.22,-12.54 1533,-9.76 1533.5,-16.74"/>
</g>
<!-- Node33&#45;&gt;Node3 -->
<g id="edge40" class="edge">
<title>Node33&#45;&gt;Node3</title>
<path fill="none" stroke="#63b8ff" d="M2510.58,-189.97C2494.18,-191.85 2476.5,-193.66 2460.04,-195 2130.08,-221.89 2045.97,-203.84 1716.04,-231 1712.17,-231.32 1708.19,-231.68 1704.16,-232.07"/>
<polygon fill="#63b8ff" stroke="#63b8ff" points="1703.85,-228.59 1694.26,-233.09 1704.56,-235.55 1703.85,-228.59"/>
</g>
<!-- Node33&#45;&gt;Node5 -->
<g id="edge34" class="edge">
<title>Node33&#45;&gt;Node5</title>
<path fill="none" stroke="#63b8ff" d="M2573.04,-170.09C2573.04,-152.03 2573.04,-110.67 2573.04,-85.71"/>
<polygon fill="#63b8ff" stroke="#63b8ff" points="2576.54,-85.88 2573.04,-75.88 2569.54,-85.88 2576.54,-85.88"/>
</g>
<!-- Node33&#45;&gt;Node13 -->
<g id="edge35" class="edge">
<title>Node33&#45;&gt;Node13</title>
<path fill="none" stroke="#63b8ff" d="M2530.36,-170.05C2474.56,-158.35 2377.98,-138.1 2327.29,-127.47"/>
<polygon fill="#63b8ff" stroke="#63b8ff" points="2328.31,-124.11 2317.8,-125.48 2326.87,-130.96 2328.31,-124.11"/>
</g>
<!-- Node33&#45;&gt;Node35 -->
<g id="edge36" class="edge">
<title>Node33&#45;&gt;Node35</title>
<path fill="none" stroke="#63b8ff" d="M2622.14,-170.05C2680.71,-159.38 2778.34,-141.58 2839.3,-130.48"/>
<polygon fill="#63b8ff" stroke="#63b8ff" points="2839.9,-133.92 2849.12,-128.69 2838.65,-127.04 2839.9,-133.92"/>
</g>
<!-- Node35&#45;&gt;Node2 -->
<g id="edge37" class="edge">
<title>Node35&#45;&gt;Node2</title>
<path fill="none" stroke="#63b8ff" d="M2889.45,-109.94C2881.18,-95.51 2862.27,-66.79 2837.04,-55 2780.19,-28.43 1817.43,-13.84 1610.86,-11.01"/>
<polygon fill="#63b8ff" stroke="#63b8ff" points="1610.99,-7.51 1600.94,-10.88 1610.89,-14.51 1610.99,-7.51"/>
</g>
<!-- Node35&#45;&gt;Node3 -->
<g id="edge38" class="edge">
<title>Node35&#45;&gt;Node3</title>
<path fill="none" stroke="#63b8ff" d="M2850.77,-121.63C2776.7,-124.38 2621.26,-133.71 2494.04,-165 2458.37,-173.77 2452.95,-187.3 2417.04,-195 2108.09,-261.2 2021.9,-204.71 1707.04,-231 1706.03,-231.08 1705.03,-231.17 1704.01,-231.26"/>
<polygon fill="#63b8ff" stroke="#63b8ff" points="1704.1,-227.73 1694.48,-232.16 1704.76,-234.7 1704.1,-227.73"/>
</g>
<!-- Node35&#45;&gt;Node5 -->
<g id="edge39" class="edge">
<title>Node35&#45;&gt;Node5</title>
<path fill="none" stroke="#63b8ff" d="M2850.74,-111.35C2788.17,-101.02 2673.35,-82.06 2612.81,-72.07"/>
<polygon fill="#63b8ff" stroke="#63b8ff" points="2613.39,-68.61 2602.95,-70.44 2612.25,-75.52 2613.39,-68.61"/>
</g>
<!-- Node42&#45;&gt;Node2 -->
<g id="edge42" class="edge">
<title>Node42&#45;&gt;Node2</title>
<path fill="none" stroke="#63b8ff" d="M1735.44,-109.56C1718.61,-96.78 1686.25,-72.84 1657.04,-55 1638.85,-43.89 1617.6,-32.77 1600.9,-24.42"/>
<polygon fill="#63b8ff" stroke="#63b8ff" points="1602.54,-21.32 1592.02,-20.03 1599.44,-27.6 1602.54,-21.32"/>
</g>
<!-- Node43&#45;&gt;Node2 -->
<g id="edge44" class="edge">
<title>Node43&#45;&gt;Node2</title>
<path fill="none" stroke="#63b8ff" d="M1784.61,-54.51C1735.82,-44.41 1657.36,-28.16 1610.64,-18.49"/>
<polygon fill="#63b8ff" stroke="#63b8ff" points="1611.46,-15.09 1600.96,-16.49 1610.04,-21.94 1611.46,-15.09"/>
</g>
<!-- Node44&#45;&gt;Node2 -->
<g id="edge46" class="edge">
<title>Node44&#45;&gt;Node2</title>
<path fill="none" stroke="#63b8ff" d="M640.57,-580.08C550.59,-578.23 379.84,-570.04 239.04,-536 145.58,-513.41 38.04,-552.15 38.04,-456 38.04,-456 38.04,-456 38.04,-118.5 38.04,-53.4 106.8,-70.48 170.04,-55 305.49,-21.84 1320.94,-12.4 1533.21,-10.77"/>
<polygon fill="#63b8ff" stroke="#63b8ff" points="1533.16,-14.27 1543.14,-10.7 1533.11,-7.27 1533.16,-14.27"/>
</g>
<!-- Node44&#45;&gt;Node3 -->
<g id="edge47" class="edge">
<title>Node44&#45;&gt;Node3</title>
<path fill="none" stroke="#63b8ff" d="M765.45,-581.04C921.31,-581.71 1324.12,-579.08 1450.04,-536 1509.64,-515.61 1567.04,-518.99 1567.04,-456 1567.04,-456 1567.04,-456 1567.04,-382.5 1567.04,-337.31 1577.64,-325.8 1599.04,-286 1604.2,-276.4 1611.46,-266.76 1618.03,-258.93"/>
<polygon fill="#63b8ff" stroke="#63b8ff" points="1620.56,-261.35 1624.51,-251.52 1615.29,-256.74 1620.56,-261.35"/>
</g>
<!-- Node45 -->
<g id="node27" class="node">
<title>Node45</title>
<g id="a_node27"><a xlink:href="SpaceND_8h_source.html" target="_top" xlink:title=" ">
<polygon fill="#fff0f0" stroke="red" points="699.54,-316 574.54,-316 574.54,-297 699.54,-297 699.54,-316"/>
<text text-anchor="middle" x="637.04" y="-304" font-family="FreeSans" font-size="10.00">DGtal/kernel/SpaceND.h</text>
</a>
</g>
</g>
<!-- Node44&#45;&gt;Node45 -->
<g id="edge48" class="edge">
<title>Node44&#45;&gt;Node45</title>
<path fill="none" stroke="#63b8ff" d="M699.35,-571.5C689,-545.85 659.58,-469.92 646.04,-404 640.7,-378.03 638.52,-347.47 637.64,-327.81"/>
<polygon fill="#63b8ff" stroke="#63b8ff" points="641.14,-327.75 637.27,-317.89 634.14,-328.01 641.14,-327.75"/>
</g>
<!-- Node66 -->
<g id="node28" class="node">
<title>Node66</title>
<g id="a_node28"><a xlink:href="HyperRectDomain_8h_source.html" target="_top" xlink:title=" ">
<polygon fill="#fff0f0" stroke="red" points="1106.54,-398.5 995.54,-398.5 995.54,-368.5 1106.54,-368.5 1106.54,-398.5"/>
<text text-anchor="start" x="1003.54" y="-386.5" font-family="FreeSans" font-size="10.00">DGtal/kernel/domains</text>
<text text-anchor="middle" x="1051.04" y="-375.5" font-family="FreeSans" font-size="10.00">/HyperRectDomain.h</text>
</a>
</g>
</g>
<!-- Node44&#45;&gt;Node66 -->
<g id="edge51" class="edge">
<title>Node44&#45;&gt;Node66</title>
<path fill="none" stroke="#63b8ff" d="M765.12,-576.23C806.87,-571.17 861.95,-560.12 905.04,-536 962.47,-503.84 1011.39,-441.89 1035.33,-408.02"/>
<polygon fill="#63b8ff" stroke="#63b8ff" points="1037.99,-410.32 1040.81,-400.11 1032.23,-406.34 1037.99,-410.32"/>
</g>
<!-- Node89 -->
<g id="node29" class="node">
<title>Node89</title>
<g id="a_node29"><a xlink:href="DigitalSetSelector_8h_source.html" target="_top" xlink:title=" ">
<polygon fill="#fff0f0" stroke="red" points="190.04,-321.5 66.04,-321.5 66.04,-291.5 190.04,-291.5 190.04,-321.5"/>
<text text-anchor="start" x="74.04" y="-309.5" font-family="FreeSans" font-size="10.00">DGtal/kernel/sets/Digital</text>
<text text-anchor="middle" x="128.04" y="-298.5" font-family="FreeSans" font-size="10.00">SetSelector.h</text>
</a>
</g>
</g>
<!-- Node44&#45;&gt;Node89 -->
<g id="edge54" class="edge">
<title>Node44&#45;&gt;Node89</title>
<path fill="none" stroke="#63b8ff" d="M640.83,-578.68C542.14,-574.98 354.74,-564.34 295.04,-536 219.52,-500.15 205.53,-474.78 161.04,-404 147.16,-381.92 138.33,-353.31 133.33,-332.99"/>
<polygon fill="#63b8ff" stroke="#63b8ff" points="136.75,-332.25 131.1,-323.29 129.93,-333.82 136.75,-332.25"/>
</g>
<!-- Node102 -->
<g id="node30" class="node">
<title>Node102</title>
<g id="a_node30"><a xlink:href="DigitalTopology_8h_source.html" target="_top" xlink:title=" ">
<polygon fill="#fff0f0" stroke="red" points="404.04,-316 246.04,-316 246.04,-297 404.04,-297 404.04,-316"/>
<text text-anchor="middle" x="325.04" y="-304" font-family="FreeSans" font-size="10.00">DGtal/topology/DigitalTopology.h</text>
</a>
</g>
</g>
<!-- Node44&#45;&gt;Node102 -->
<g id="edge57" class="edge">
<title>Node44&#45;&gt;Node102</title>
<path fill="none" stroke="#63b8ff" d="M672.55,-571.55C647.74,-563.71 612.19,-551.22 583.04,-536 491.89,-488.41 465.98,-476.46 393.04,-404 368.99,-380.11 347.63,-346.82 335.53,-326.24"/>
<polygon fill="#63b8ff" stroke="#63b8ff" points="338.56,-324.49 330.55,-317.57 332.49,-327.98 338.56,-324.49"/>
</g>
<!-- Node109 -->
<g id="node31" class="node">
<title>Node109</title>
<g id="a_node31"><a xlink:href="MetricAdjacency_8h_source.html" target="_top" xlink:title=" ">
<polygon fill="#fff0f0" stroke="red" points="599.04,-393 435.04,-393 435.04,-374 599.04,-374 599.04,-393"/>
<text text-anchor="middle" x="517.04" y="-381" font-family="FreeSans" font-size="10.00">DGtal/topology/MetricAdjacency.h</text>
</a>
</g>
</g>
<!-- Node44&#45;&gt;Node109 -->
<g id="edge60" class="edge">
<title>Node44&#45;&gt;Node109</title>
<path fill="none" stroke="#63b8ff" d="M675.93,-571.58C656.75,-564.27 631.31,-552.44 613.04,-536 569.93,-497.22 538.74,-434.7 524.94,-403.49"/>
<polygon fill="#63b8ff" stroke="#63b8ff" points="528.27,-402.38 521.11,-394.57 521.84,-405.14 528.27,-402.38"/>
</g>
<!-- Node112 -->
<g id="node32" class="node">
<title>Node112</title>
<g id="a_node32"><a xlink:href="Object_8h_source.html" target="_top" xlink:title=" ">
<polygon fill="#fff0f0" stroke="red" points="292.04,-393 170.04,-393 170.04,-374 292.04,-374 292.04,-393"/>
<text text-anchor="middle" x="231.04" y="-381" font-family="FreeSans" font-size="10.00">DGtal/topology/Object.h</text>
</a>
</g>
</g>
<!-- Node44&#45;&gt;Node112 -->
<g id="edge64" class="edge">
<title>Node44&#45;&gt;Node112</title>
<path fill="none" stroke="#63b8ff" d="M640.75,-579.2C549.08,-576.25 383.26,-566.72 333.04,-536 281.96,-504.76 250.74,-437.19 237.87,-403.87"/>
<polygon fill="#63b8ff" stroke="#63b8ff" points="241.23,-402.87 234.48,-394.7 234.66,-405.29 241.23,-402.87"/>
</g>
<!-- Node121 -->
<g id="node33" class="node">
<title>Node121</title>
<g id="a_node33"><a xlink:href="KhalimskySpaceND_8h_source.html" target="_top" xlink:title=" ">
<polygon fill="#fff0f0" stroke="red" points="862.54,-470 731.54,-470 731.54,-440 862.54,-440 862.54,-470"/>
<text text-anchor="start" x="739.54" y="-458" font-family="FreeSans" font-size="10.00">DGtal/topology/Khalimsky</text>
<text text-anchor="middle" x="797.04" y="-447" font-family="FreeSans" font-size="10.00">SpaceND.h</text>
</a>
</g>
</g>
<!-- Node44&#45;&gt;Node121 -->
<g id="edge68" class="edge">
<title>Node44&#45;&gt;Node121</title>
<path fill="none" stroke="#63b8ff" d="M709.8,-571.55C724.18,-552.49 758.22,-507.41 779.28,-479.52"/>
<polygon fill="#63b8ff" stroke="#63b8ff" points="781.98,-481.74 785.22,-471.65 776.4,-477.52 781.98,-481.74"/>
</g>
<!-- Node122 -->
<g id="node34" class="node">
<title>Node122</title>
<g id="a_node34"><a xlink:href="KhalimskyPreSpaceND_8h_source.html" target="_top" xlink:title=" ">
<polygon fill="#fff0f0" stroke="red" points="786.54,-398.5 655.54,-398.5 655.54,-368.5 786.54,-368.5 786.54,-398.5"/>
<text text-anchor="start" x="663.54" y="-386.5" font-family="FreeSans" font-size="10.00">DGtal/topology/Khalimsky</text>
<text text-anchor="middle" x="721.04" y="-375.5" font-family="FreeSans" font-size="10.00">PreSpaceND.h</text>
</a>
</g>
</g>
<!-- Node44&#45;&gt;Node122 -->
<g id="edge76" class="edge">
<title>Node44&#45;&gt;Node122</title>
<path fill="none" stroke="#63b8ff" d="M703.86,-571.57C706.46,-543.16 714.64,-454.16 718.7,-409.95"/>
<polygon fill="#63b8ff" stroke="#63b8ff" points="722.16,-410.54 719.59,-400.26 715.19,-409.9 722.16,-410.54"/>
</g>
<!-- Node125 -->
<g id="node35" class="node">
<title>Node125</title>
<g id="a_node35"><a xlink:href="GridCurve_8h_source.html" target="_top" xlink:title=" ">
<polygon fill="#fff0f0" stroke="red" points="1441.04,-536 1323.04,-536 1323.04,-506 1441.04,-506 1441.04,-536"/>
<text text-anchor="start" x="1331.04" y="-524" font-family="FreeSans" font-size="10.00">DGtal/geometry/curves</text>
<text text-anchor="middle" x="1382.04" y="-513" font-family="FreeSans" font-size="10.00">/GridCurve.h</text>
</a>
</g>
</g>
<!-- Node44&#45;&gt;Node125 -->
<g id="edge77" class="edge">
<title>Node44&#45;&gt;Node125</title>
<path fill="none" stroke="#63b8ff" d="M765.39,-575.13C892.02,-564.22 1178.52,-539.53 1311.62,-528.07"/>
<polygon fill="#63b8ff" stroke="#63b8ff" points="1311.69,-531.57 1321.36,-527.23 1311.09,-524.6 1311.69,-531.57"/>
</g>
<!-- Node153 -->
<g id="node37" class="node">
<title>Node153</title>
<g id="a_node37"><a xlink:href="ExactPredicateLpSeparableMetric_8h_source.html" target="_top" xlink:title=" ">
<polygon fill="#fff0f0" stroke="red" points="1050.04,-327 870.04,-327 870.04,-286 1050.04,-286 1050.04,-327"/>
<text text-anchor="start" x="878.04" y="-315" font-family="FreeSans" font-size="10.00">DGtal/geometry/volumes</text>
<text text-anchor="start" x="878.04" y="-304" font-family="FreeSans" font-size="10.00">/distance/ExactPredicateLpSeparable</text>
<text text-anchor="middle" x="960.04" y="-293" font-family="FreeSans" font-size="10.00">Metric.h</text>
</a>
</g>
</g>
<!-- Node44&#45;&gt;Node153 -->
<g id="edge85" class="edge">
<title>Node44&#45;&gt;Node153</title>
<path fill="none" stroke="#63b8ff" d="M722.61,-571.59C756.42,-555.42 826.42,-518.37 871.04,-470 907.64,-430.32 934.5,-372.82 948.66,-337.92"/>
<polygon fill="#63b8ff" stroke="#63b8ff" points="951.83,-339.43 952.25,-328.85 945.32,-336.86 951.83,-339.43"/>
</g>
<!-- Node45&#45;&gt;Node2 -->
<g id="edge49" class="edge">
<title>Node45&#45;&gt;Node2</title>
<path fill="none" stroke="#63b8ff" d="M607.36,-296.56C583.91,-288.08 551.92,-273.15 532.04,-250 510.88,-225.37 508.04,-213.47 508.04,-181 508.04,-181 508.04,-181 508.04,-118.5 508.04,-88.33 507.59,-72.68 532.04,-55 573.32,-25.14 1349.22,-13.35 1533.17,-10.97"/>
<polygon fill="#63b8ff" stroke="#63b8ff" points="1533.18,-14.47 1543.14,-10.84 1533.09,-7.47 1533.18,-14.47"/>
</g>
<!-- Node45&#45;&gt;Node3 -->
<g id="edge50" class="edge">
<title>Node45&#45;&gt;Node3</title>
<path fill="none" stroke="#63b8ff" d="M699.76,-299.54C744.65,-295.4 806.53,-289.94 861.04,-286 1119.96,-267.28 1428.14,-251.48 1563.9,-244.85"/>
<polygon fill="#63b8ff" stroke="#63b8ff" points="1564,-248.35 1573.82,-244.36 1563.66,-241.36 1564,-248.35"/>
</g>
<!-- Node66&#45;&gt;Node2 -->
<g id="edge52" class="edge">
<title>Node66&#45;&gt;Node2</title>
<path fill="none" stroke="#63b8ff" d="M995.06,-371.64C938.94,-360.2 856.86,-341.84 828.04,-327 803.09,-314.16 804.86,-299.07 780.04,-286 725.47,-257.27 691.19,-292 646.04,-250 622.26,-227.89 622.04,-213.47 622.04,-181 622.04,-181 622.04,-181 622.04,-118.5 622.04,-88.33 621.63,-72.74 646.04,-55 682.42,-28.54 1361.88,-14.35 1533.12,-11.19"/>
<polygon fill="#63b8ff" stroke="#63b8ff" points="1533.1,-14.69 1543.04,-11 1532.97,-7.69 1533.1,-14.69"/>
</g>
<!-- Node66&#45;&gt;Node3 -->
<g id="edge53" class="edge">
<title>Node66&#45;&gt;Node3</title>
<path fill="none" stroke="#63b8ff" d="M1086.34,-368.01C1138.98,-346.95 1241.57,-308 1332.04,-286 1374.71,-275.62 1488.72,-260.03 1563.8,-250.32"/>
<polygon fill="#63b8ff" stroke="#63b8ff" points="1564.07,-253.82 1573.54,-249.07 1563.17,-246.88 1564.07,-253.82"/>
</g>
<!-- Node89&#45;&gt;Node2 -->
<g id="edge55" class="edge">
<title>Node89&#45;&gt;Node2</title>
<path fill="none" stroke="#63b8ff" d="M133.05,-291.14C140.6,-268.17 154.04,-221.63 154.04,-181 154.04,-181 154.04,-181 154.04,-118.5 154.04,-82.58 171.98,-71.21 204.04,-55 264.88,-24.23 1316.4,-12.86 1533.15,-10.84"/>
<polygon fill="#63b8ff" stroke="#63b8ff" points="1533.06,-14.34 1543.02,-10.75 1532.99,-7.34 1533.06,-14.34"/>
</g>
<!-- Node89&#45;&gt;Node3 -->
<g id="edge56" class="edge">
<title>Node89&#45;&gt;Node3</title>
<path fill="none" stroke="#63b8ff" d="M190.35,-292.75C205.56,-290.08 221.84,-287.59 237.04,-286 498.51,-258.59 1318.21,-245.7 1563.81,-242.39"/>
<polygon fill="#63b8ff" stroke="#63b8ff" points="1563.6,-245.89 1573.56,-242.26 1563.51,-238.89 1563.6,-245.89"/>
</g>
<!-- Node102&#45;&gt;Node2 -->
<g id="edge58" class="edge">
<title>Node102&#45;&gt;Node2</title>
<path fill="none" stroke="#63b8ff" d="M329.2,-296.67C338.28,-276.59 359.04,-225.81 359.04,-181 359.04,-181 359.04,-181 359.04,-118.5 359.04,-79.98 383.02,-71.07 418.04,-55 521.17,-7.66 1344.41,-9.25 1533.44,-10.25"/>
<polygon fill="#63b8ff" stroke="#63b8ff" points="1533.18,-13.75 1543.2,-10.3 1533.22,-6.75 1533.18,-13.75"/>
</g>
<!-- Node102&#45;&gt;Node3 -->
<g id="edge59" class="edge">
<title>Node102&#45;&gt;Node3</title>
<path fill="none" stroke="#63b8ff" d="M376.2,-296.55C400.34,-292.67 429.59,-288.46 456.04,-286 874.99,-247.02 1380.78,-241.95 1563.73,-241.46"/>
<polygon fill="#63b8ff" stroke="#63b8ff" points="1563.55,-244.96 1573.54,-241.44 1563.53,-237.96 1563.55,-244.96"/>
</g>
<!-- Node109&#45;&gt;Node2 -->
<g id="edge61" class="edge">
<title>Node109&#45;&gt;Node2</title>
<path fill="none" stroke="#63b8ff" d="M434.55,-376.04C362.29,-368.67 264.64,-353.97 237.04,-327 209.2,-299.79 218.04,-280.43 218.04,-241.5 218.04,-241.5 218.04,-241.5 218.04,-118.5 218.04,-41.58 303.75,-70.77 379.04,-55 606.96,-7.26 1353.95,-9.04 1533.14,-10.19"/>
<polygon fill="#63b8ff" stroke="#63b8ff" points="1533.05,-13.69 1543.07,-10.26 1533.09,-6.69 1533.05,-13.69"/>
</g>
<!-- Node109&#45;&gt;Node3 -->
<g id="edge62" class="edge">
<title>Node109&#45;&gt;Node3</title>
<path fill="none" stroke="#63b8ff" d="M518.41,-373.59C522,-353.81 533.64,-306.37 565.04,-286 606.92,-258.83 1332.43,-245.91 1563.77,-242.47"/>
<polygon fill="#63b8ff" stroke="#63b8ff" points="1563.59,-245.97 1573.54,-242.32 1563.49,-238.97 1563.59,-245.97"/>
</g>
<!-- Node109&#45;&gt;Node45 -->
<g id="edge63" class="edge">
<title>Node109&#45;&gt;Node45</title>
<path fill="none" stroke="#63b8ff" d="M531.27,-373.6C551.48,-360.97 588.74,-337.68 613.2,-322.39"/>
<polygon fill="#63b8ff" stroke="#63b8ff" points="614.91,-325.46 621.53,-317.19 611.2,-319.52 614.91,-325.46"/>
</g>
<!-- Node112&#45;&gt;Node2 -->
<g id="edge65" class="edge">
<title>Node112&#45;&gt;Node2</title>
<path fill="none" stroke="#63b8ff" d="M175.12,-373.53C106.75,-359.01 0.04,-323.25 0.04,-241.5 0.04,-241.5 0.04,-241.5 0.04,-118.5 0.04,-88.33 -0.54,-72.51 24.04,-55 87.36,-9.88 1300.5,-9.97 1533.51,-10.4"/>
<polygon fill="#63b8ff" stroke="#63b8ff" points="1533.24,-13.9 1543.25,-10.42 1533.26,-6.9 1533.24,-13.9"/>
</g>
<!-- Node112&#45;&gt;Node3 -->
<g id="edge66" class="edge">
<title>Node112&#45;&gt;Node3</title>
<path fill="none" stroke="#63b8ff" d="M261.75,-373.55C298.03,-362.89 360.14,-344.33 413.04,-327 465.4,-309.85 475.91,-296.33 530.04,-286 729.29,-247.95 1352.86,-242.4 1563.62,-241.62"/>
<polygon fill="#63b8ff" stroke="#63b8ff" points="1563.63,-245.12 1573.62,-241.58 1563.6,-238.12 1563.63,-245.12"/>
</g>
<!-- Node112&#45;&gt;Node89 -->
<g id="edge67" class="edge">
<title>Node112&#45;&gt;Node89</title>
<path fill="none" stroke="#63b8ff" d="M218.82,-373.6C203.63,-362.55 177.24,-343.33 156.82,-328.46"/>
<polygon fill="#63b8ff" stroke="#63b8ff" points="158.99,-325.71 148.85,-322.66 154.87,-331.37 158.99,-325.71"/>
</g>
<!-- Node121&#45;&gt;Node2 -->
<g id="edge69" class="edge">
<title>Node121&#45;&gt;Node2</title>
<path fill="none" stroke="#63b8ff" d="M731.41,-449.79C630.26,-442.62 445.79,-426.6 426.04,-404 414.04,-390.28 425.59,-381.22 426.04,-363 427.37,-308.95 432.04,-295.57 432.04,-241.5 432.04,-241.5 432.04,-241.5 432.04,-118.5 432.04,-82.85 449.37,-71.37 481.04,-55 575.94,-5.93 1349.73,-8.78 1533.15,-10.15"/>
<polygon fill="#63b8ff" stroke="#63b8ff" points="1533.07,-13.65 1543.09,-10.23 1533.12,-6.65 1533.07,-13.65"/>
</g>
<!-- Node121&#45;&gt;Node3 -->
<g id="edge70" class="edge">
<title>Node121&#45;&gt;Node3</title>
<path fill="none" stroke="#63b8ff" d="M824.08,-439.6C860.32,-420.63 926.94,-386.87 986.04,-363 1033.34,-343.89 1047.15,-344.6 1095.04,-327 1140.51,-310.28 1149,-297.61 1196.04,-286 1354.3,-246.94 1398.96,-267.43 1561.04,-250 1562.03,-249.89 1563.04,-249.78 1564.05,-249.67"/>
<polygon fill="#63b8ff" stroke="#63b8ff" points="1564.02,-253.2 1573.57,-248.62 1563.25,-246.24 1564.02,-253.2"/>
</g>
<!-- Node121&#45;&gt;Node45 -->
<g id="edge71" class="edge">
<title>Node121&#45;&gt;Node45</title>
<path fill="none" stroke="#63b8ff" d="M801.27,-439.82C806.13,-420.48 811.46,-385.64 795.04,-363 787.95,-353.24 723.67,-332.81 679.31,-319.65"/>
<polygon fill="#63b8ff" stroke="#63b8ff" points="680.55,-316.36 669.96,-316.9 678.57,-323.08 680.55,-316.36"/>
</g>
<!-- Node121&#45;&gt;Node122 -->
<g id="edge72" class="edge">
<title>Node121&#45;&gt;Node122</title>
<path fill="none" stroke="#63b8ff" d="M781.29,-439.6C770.79,-430 756.8,-417.21 744.94,-406.36"/>
<polygon fill="#63b8ff" stroke="#63b8ff" points="747.62,-404.07 737.88,-399.9 742.9,-409.23 747.62,-404.07"/>
</g>
<!-- Node122&#45;&gt;Node2 -->
<g id="edge73" class="edge">
<title>Node122&#45;&gt;Node2</title>
<path fill="none" stroke="#63b8ff" d="M655.2,-369.28C625.4,-360.87 591.1,-347.56 565.04,-327 504.25,-279.05 470.04,-258.42 470.04,-181 470.04,-181 470.04,-181 470.04,-118.5 470.04,-84.91 481.88,-71.68 511.04,-55 556.22,-29.14 1347.93,-14.27 1533.39,-11.13"/>
<polygon fill="#63b8ff" stroke="#63b8ff" points="1533.26,-14.63 1543.2,-10.96 1533.15,-7.63 1533.26,-14.63"/>
</g>
<!-- Node122&#45;&gt;Node3 -->
<g id="edge74" class="edge">
<title>Node122&#45;&gt;Node3</title>
<path fill="none" stroke="#63b8ff" d="M786.79,-376.35C871.21,-367.67 1012.4,-350.23 1059.04,-327 1082.67,-315.23 1077.92,-296.77 1102.04,-286 1195.46,-244.29 1459.2,-259.92 1561.04,-250 1562.04,-249.9 1563.04,-249.8 1564.06,-249.7"/>
<polygon fill="#63b8ff" stroke="#63b8ff" points="1564,-253.23 1573.58,-248.71 1563.28,-246.26 1564,-253.23"/>
</g>
<!-- Node122&#45;&gt;Node45 -->
<g id="edge75" class="edge">
<title>Node122&#45;&gt;Node45</title>
<path fill="none" stroke="#63b8ff" d="M704.84,-368.04C690.63,-355.35 669.98,-336.91 655.21,-323.72"/>
<polygon fill="#63b8ff" stroke="#63b8ff" points="657.8,-321.34 648.01,-317.3 653.13,-326.57 657.8,-321.34"/>
</g>
<!-- Node125&#45;&gt;Node2 -->
<g id="edge78" class="edge">
<title>Node125&#45;&gt;Node2</title>
<path fill="none" stroke="#63b8ff" d="M1322.68,-516.22C1257.47,-510.81 1150.28,-498.2 1062.04,-470 926.67,-426.74 900.54,-395.52 776.04,-327 745.12,-309.98 740.56,-299.71 708.04,-286 649.63,-261.38 616.6,-293 570.04,-250 546.18,-227.97 546.04,-213.47 546.04,-181 546.04,-181 546.04,-181 546.04,-118.5 546.04,-88.33 545.6,-72.7 570.04,-55 609.69,-26.28 1353.37,-13.67 1533.15,-11.04"/>
<polygon fill="#63b8ff" stroke="#63b8ff" points="1533.18,-14.54 1543.13,-10.89 1533.08,-7.54 1533.18,-14.54"/>
</g>
<!-- Node125&#45;&gt;Node3 -->
<g id="edge79" class="edge">
<title>Node125&#45;&gt;Node3</title>
<path fill="none" stroke="#63b8ff" d="M1411.78,-505.54C1427.32,-496.87 1445.8,-484.68 1459.04,-470 1520.52,-401.79 1489.08,-351.9 1553.04,-286 1565.93,-272.71 1583.65,-262.37 1599.23,-255"/>
<polygon fill="#63b8ff" stroke="#63b8ff" points="1600.5,-258.27 1608.21,-251 1597.65,-251.88 1600.5,-258.27"/>
</g>
<!-- Node125&#45;&gt;Node33 -->
<g id="edge80" class="edge">
<title>Node125&#45;&gt;Node33</title>
<path fill="none" stroke="#63b8ff" d="M1418.56,-505.55C1438.76,-496.73 1463.78,-484.4 1484.04,-470 1578.82,-402.64 1565.16,-336.23 1670.04,-286 1992.78,-131.44 2114.94,-239.32 2470.04,-195 2478.88,-193.9 2488.15,-192.7 2497.35,-191.48"/>
<polygon fill="#63b8ff" stroke="#63b8ff" points="2497.55,-194.98 2507,-190.19 2496.63,-188.04 2497.55,-194.98"/>
</g>
<!-- Node125&#45;&gt;Node121 -->
<g id="edge81" class="edge">
<title>Node125&#45;&gt;Node121</title>
<path fill="none" stroke="#63b8ff" d="M1322.72,-513.51C1216.07,-501.84 992.05,-477.34 873.84,-464.4"/>
<polygon fill="#63b8ff" stroke="#63b8ff" points="874.56,-460.96 864.24,-463.35 873.8,-467.92 874.56,-460.96"/>
</g>
<!-- Node125&#45;&gt;Node150 -->
<g id="edge82" class="edge">
<title>Node125&#45;&gt;Node150</title>
<path fill="none" stroke="#63b8ff" d="M1441.28,-515.6C1513.47,-509.21 1630.14,-495.29 1665.04,-470 1711.83,-436.09 1735.9,-369.16 1746.02,-332.67"/>
<polygon fill="#63b8ff" stroke="#63b8ff" points="1749.4,-333.58 1748.54,-323.02 1742.63,-331.8 1749.4,-333.58"/>
</g>
<!-- Node150&#45;&gt;Node2 -->
<g id="edge83" class="edge">
<title>Node150&#45;&gt;Node2</title>
<path fill="none" stroke="#63b8ff" d="M1824.79,-296.51C1851.59,-293.2 1882.19,-289.43 1910.04,-286 1951.26,-280.93 2624.51,-226.1 2652.04,-195 2660.87,-185.01 2654.45,-178.11 2652.04,-165 2642.54,-113.54 2652.49,-85.6 2610.04,-55 2568.78,-25.27 1794.41,-13.38 1610.83,-10.98"/>
<polygon fill="#63b8ff" stroke="#63b8ff" points="1610.92,-7.48 1600.88,-10.85 1610.83,-14.48 1610.92,-7.48"/>
</g>
<!-- Node150&#45;&gt;Node3 -->
<g id="edge84" class="edge">
<title>Node150&#45;&gt;Node3</title>
<path fill="none" stroke="#63b8ff" d="M1725.55,-291.14C1706.18,-280.63 1679.99,-266.42 1660.59,-255.9"/>
<polygon fill="#63b8ff" stroke="#63b8ff" points="1662.39,-252.9 1651.93,-251.21 1659.06,-259.05 1662.39,-252.9"/>
</g>
<!-- Node153&#45;&gt;Node2 -->
<g id="edge86" class="edge">
<title>Node153&#45;&gt;Node2</title>
<path fill="none" stroke="#63b8ff" d="M885.31,-285.55C807.87,-262.62 698.04,-222.74 698.04,-181 698.04,-181 698.04,-181 698.04,-118.5 698.04,-89.04 693.87,-73.2 717.04,-55 749.53,-29.46 1371.04,-14.71 1533.47,-11.28"/>
<polygon fill="#63b8ff" stroke="#63b8ff" points="1533.35,-14.78 1543.27,-11.07 1533.2,-7.78 1533.35,-14.78"/>
</g>
<!-- Node153&#45;&gt;Node3 -->
<g id="edge88" class="edge">
<title>Node153&#45;&gt;Node3</title>
<path fill="none" stroke="#63b8ff" d="M1050.41,-287.92C1055.01,-287.22 1059.57,-286.58 1064.04,-286 1283.67,-257.55 1340.55,-270.81 1561.04,-250 1562.04,-249.91 1563.04,-249.81 1564.06,-249.71"/>
<polygon fill="#63b8ff" stroke="#63b8ff" points="1563.99,-253.24 1573.59,-248.74 1563.28,-246.27 1563.99,-253.24"/>
</g>
<!-- Node153&#45;&gt;Node13 -->
<g id="edge87" class="edge">
<title>Node153&#45;&gt;Node13</title>
<path fill="none" stroke="#63b8ff" d="M1050.52,-286.79C1052.04,-286.52 1053.54,-286.26 1055.04,-286 1347.33,-235.94 1422.67,-238.35 1716.04,-195 1800.61,-182.5 1821.33,-176.54 1906.04,-165 2036.91,-147.17 2193.28,-130.71 2260.56,-123.86"/>
<polygon fill="#63b8ff" stroke="#63b8ff" points="2260.59,-127.37 2270.18,-122.88 2259.88,-120.41 2260.59,-127.37"/>
</g>
<!-- Node160&#45;&gt;Node2 -->
<g id="edge91" class="edge">
<title>Node160&#45;&gt;Node2</title>
<path fill="none" stroke="#63b8ff" d="M2216.84,-291.06C2224.9,-289.17 2233.16,-287.4 2241.04,-286 2354.1,-265.91 2747.04,-295.84 2747.04,-181 2747.04,-181 2747.04,-181 2747.04,-118.5 2747.04,-69.55 2703.38,-70.76 2657.04,-55 2556.49,-20.82 1792.46,-12.33 1610.74,-10.79"/>
<polygon fill="#63b8ff" stroke="#63b8ff" points="1610.92,-7.29 1600.9,-10.71 1610.87,-14.29 1610.92,-7.29"/>
</g>
<!-- Node160&#45;&gt;Node3 -->
<g id="edge92" class="edge">
<title>Node160&#45;&gt;Node3</title>
<path fill="none" stroke="#63b8ff" d="M2100.76,-293.62C2085.19,-290.9 2068.54,-288.18 2053.04,-286 1930.75,-268.79 1787.55,-254.92 1704.18,-247.48"/>
<polygon fill="#63b8ff" stroke="#63b8ff" points="1704.61,-244 1694.34,-246.61 1703.99,-250.98 1704.61,-244"/>
</g>
<!-- Node162&#45;&gt;Node2 -->
<g id="edge94" class="edge">
<title>Node162&#45;&gt;Node2</title>
<path fill="none" stroke="#63b8ff" d="M3190.04,-296.75C3190.04,-276.42 3190.04,-224.45 3190.04,-181 3190.04,-181 3190.04,-181 3190.04,-118.5 3190.04,-55.39 3124.23,-70.41 3063.04,-55 2918.63,-18.63 1830.01,-11.69 1610.53,-10.66"/>
<polygon fill="#63b8ff" stroke="#63b8ff" points="1610.84,-7.16 1600.82,-10.61 1610.81,-14.16 1610.84,-7.16"/>
</g>
<!-- Node162&#45;&gt;Node3 -->
<g id="edge95" class="edge">
<title>Node162&#45;&gt;Node3</title>
<path fill="none" stroke="#63b8ff" d="M3161.47,-296.57C3147.34,-292.57 3129.95,-288.25 3114.04,-286 2836.73,-246.75 1959.24,-242.08 1704.19,-241.56"/>
<polygon fill="#63b8ff" stroke="#63b8ff" points="1704.4,-238.06 1694.39,-241.54 1704.39,-245.06 1704.4,-238.06"/>
</g>
<!-- Node162&#45;&gt;Node35 -->
<g id="edge96" class="edge">
<title>Node162&#45;&gt;Node35</title>
<path fill="none" stroke="#63b8ff" d="M3175.36,-296.5C3157.52,-285.56 3126.53,-266.49 3100.04,-250 3033.82,-208.77 2955.96,-159.65 2917.7,-135.47"/>
<polygon fill="#63b8ff" stroke="#63b8ff" points="2919.6,-132.53 2909.28,-130.14 2915.86,-138.45 2919.6,-132.53"/>
</g>
<!-- Node316&#45;&gt;Node2 -->
<g id="edge99" class="edge">
<title>Node316&#45;&gt;Node2</title>
<path fill="none" stroke="#63b8ff" d="M2931.49,-291.05C2943.12,-270.47 2963.77,-231.18 2974.04,-195 2991.64,-132.98 2993.99,-83.24 2936.04,-55 2874.93,-25.22 1826.84,-13.07 1610.79,-10.87"/>
<polygon fill="#63b8ff" stroke="#63b8ff" points="1610.99,-7.38 1600.96,-10.77 1610.92,-14.38 1610.99,-7.38"/>
</g>
<!-- Node316&#45;&gt;Node3 -->
<g id="edge100" class="edge">
<title>Node316&#45;&gt;Node3</title>
<path fill="none" stroke="#63b8ff" d="M2881.73,-291.02C2874.57,-289 2867.15,-287.21 2860.04,-286 2635.46,-247.86 1930.22,-242.39 1704.36,-241.62"/>
<polygon fill="#63b8ff" stroke="#63b8ff" points="1704.55,-238.12 1694.53,-241.59 1704.52,-245.12 1704.55,-238.12"/>
</g>
<!-- Node316&#45;&gt;Node35 -->
<g id="edge101" class="edge">
<title>Node316&#45;&gt;Node35</title>
<path fill="none" stroke="#63b8ff" d="M2920.81,-291.29C2915.68,-258.6 2903.05,-178.01 2897.16,-140.41"/>
<polygon fill="#63b8ff" stroke="#63b8ff" points="2900.68,-140.27 2895.67,-130.93 2893.76,-141.36 2900.68,-140.27"/>
</g>
<!-- Node322&#45;&gt;Node2 -->
<g id="edge103" class="edge">
<title>Node322&#45;&gt;Node2</title>
<path fill="none" stroke="#63b8ff" d="M1086.45,-511.17C1020.01,-471 747.62,-306.49 708.04,-286 673.05,-267.89 656.76,-275.85 627.04,-250 599.77,-226.29 584.04,-217.13 584.04,-181 584.04,-181 584.04,-181 584.04,-118.5 584.04,-84.91 595.92,-71.76 625.04,-55 704.66,-9.17 1365.77,-9.43 1533.48,-10.25"/>
<polygon fill="#63b8ff" stroke="#63b8ff" points="1533.37,-13.75 1543.39,-10.3 1533.41,-6.75 1533.37,-13.75"/>
</g>
<!-- Node322&#45;&gt;Node3 -->
<g id="edge104" class="edge">
<title>Node322&#45;&gt;Node3</title>
<path fill="none" stroke="#63b8ff" d="M1129.34,-511.06C1156.36,-502.1 1197.9,-487.19 1232.04,-470 1367.69,-401.67 1384.64,-354.84 1520.04,-286 1544.5,-273.56 1573.3,-262.35 1595.83,-254.29"/>
<polygon fill="#63b8ff" stroke="#63b8ff" points="1596.96,-257.6 1605.24,-250.98 1594.64,-250.99 1596.96,-257.6"/>
</g>
<!-- Node322&#45;&gt;Node66 -->
<g id="edge105" class="edge">
<title>Node322&#45;&gt;Node66</title>
<path fill="none" stroke="#63b8ff" d="M1091.56,-511.04C1082.36,-501.72 1068.82,-486.26 1062.04,-470 1054.07,-450.9 1051.5,-427.49 1050.82,-410"/>
<polygon fill="#63b8ff" stroke="#63b8ff" points="1054.32,-410.15 1050.64,-400.22 1047.33,-410.28 1054.32,-410.15"/>
</g>
<!-- Node322&#45;&gt;Node121 -->
<g id="edge106" class="edge">
<title>Node322&#45;&gt;Node121</title>
<path fill="none" stroke="#63b8ff" d="M1058.45,-511.03C1010.7,-500.98 932.32,-484.48 873.82,-472.17"/>
<polygon fill="#63b8ff" stroke="#63b8ff" points="874.76,-468.79 864.25,-470.15 873.32,-475.64 874.76,-468.79"/>
</g>
<!-- Node322&#45;&gt;Node333 -->
<g id="edge107" class="edge">
<title>Node322&#45;&gt;Node333</title>
<path fill="none" stroke="#63b8ff" d="M1107.43,-511.1C1114.3,-501.55 1125.39,-486.11 1134.09,-474.01"/>
<polygon fill="#63b8ff" stroke="#63b8ff" points="1136.82,-476.22 1139.81,-466.05 1131.13,-472.13 1136.82,-476.22"/>
</g>
<!-- Node333&#45;&gt;Node2 -->
<g id="edge108" class="edge">
<title>Node333&#45;&gt;Node2</title>
<path fill="none" stroke="#63b8ff" d="M1146.79,-445.06C1145.75,-426.53 1140.55,-383.92 1115.04,-363 1026.86,-290.71 963.64,-376.72 861.04,-327 837.27,-315.49 839.68,-301.12 818.04,-286 748.92,-237.71 660.04,-265.31 660.04,-181 660.04,-181 660.04,-181 660.04,-118.5 660.04,-85.61 669.85,-71.94 698.04,-55 770.29,-11.57 1374.2,-10 1533.59,-10.35"/>
<polygon fill="#63b8ff" stroke="#63b8ff" points="1533.18,-13.85 1543.19,-10.37 1533.2,-6.85 1533.18,-13.85"/>
</g>
<!-- Node333&#45;&gt;Node3 -->
<g id="edge109" class="edge">
<title>Node333&#45;&gt;Node3</title>
<path fill="none" stroke="#63b8ff" d="M1158.77,-445.16C1196.29,-417.32 1317.49,-330.69 1431.04,-286 1473.75,-269.19 1524.16,-258.09 1564.05,-251.19"/>
<polygon fill="#63b8ff" stroke="#63b8ff" points="1564.5,-254.66 1573.78,-249.56 1563.34,-247.76 1564.5,-254.66"/>
</g>
<!-- Node333&#45;&gt;Node66 -->
<g id="edge110" class="edge">
<title>Node333&#45;&gt;Node66</title>
<path fill="none" stroke="#63b8ff" d="M1134.88,-445.2C1121.13,-435.24 1098.27,-418.69 1079.88,-405.39"/>
<polygon fill="#63b8ff" stroke="#63b8ff" points="1082.13,-402.69 1071.98,-399.66 1078.03,-408.36 1082.13,-402.69"/>
</g>
<!-- Node338&#45;&gt;Node2 -->
<g id="edge113" class="edge">
<title>Node338&#45;&gt;Node2</title>
<path fill="none" stroke="#63b8ff" d="M2450.75,-291.06C2459.19,-289.19 2467.82,-287.43 2476.04,-286 2634.78,-258.39 2823.04,-342.13 2823.04,-181 2823.04,-181 2823.04,-181 2823.04,-118.5 2823.04,-88.33 2823.54,-72.6 2799.04,-55 2749.65,-19.53 1813.3,-11.94 1610.54,-10.71"/>
<polygon fill="#63b8ff" stroke="#63b8ff" points="1610.85,-7.21 1600.83,-10.65 1610.81,-14.21 1610.85,-7.21"/>
</g>
<!-- Node338&#45;&gt;Node3 -->
<g id="edge114" class="edge">
<title>Node338&#45;&gt;Node3</title>
<path fill="none" stroke="#63b8ff" d="M2321.36,-295.77C2294.57,-292.39 2263.95,-288.75 2236.04,-286 2043.9,-267.05 1816.53,-252.33 1704.15,-245.56"/>
<polygon fill="#63b8ff" stroke="#63b8ff" points="1704.36,-242.07 1694.16,-244.97 1703.94,-249.06 1704.36,-242.07"/>
</g>
<!-- Node341&#45;&gt;Node2 -->
<g id="edge116" class="edge">
<title>Node341&#45;&gt;Node2</title>
<path fill="none" stroke="#63b8ff" d="M2044.76,-293.77C2060.19,-291.05 2076.69,-288.29 2092.04,-286 2220.42,-266.85 2586.57,-295.24 2669.04,-195 2678.02,-184.08 2665.1,-123.11 2661.04,-110 2652.98,-83.99 2656.84,-69.88 2634.04,-55 2590.39,-26.52 1796.72,-13.65 1610.78,-11.02"/>
<polygon fill="#63b8ff" stroke="#63b8ff" points="1610.99,-7.52 1600.94,-10.88 1610.89,-14.52 1610.99,-7.52"/>
</g>
<!-- Node341&#45;&gt;Node3 -->
<g id="edge118" class="edge">
<title>Node341&#45;&gt;Node3</title>
<path fill="none" stroke="#63b8ff" d="M1927.49,-291.07C1919.97,-289.26 1912.33,-287.52 1905.04,-286 1837.27,-271.88 1759.22,-259.47 1704.33,-251.36"/>
<polygon fill="#63b8ff" stroke="#63b8ff" points="1704.88,-247.91 1694.48,-249.92 1703.87,-254.83 1704.88,-247.91"/>
</g>
<!-- Node341&#45;&gt;Node13 -->
<g id="edge117" class="edge">
<title>Node341&#45;&gt;Node13</title>
<path fill="none" stroke="#63b8ff" d="M2038.88,-291.09C2156.73,-261.21 2416.85,-195.24 2417.04,-195 2444.6,-159.56 2372.73,-137.14 2327.53,-126.95"/>
<polygon fill="#63b8ff" stroke="#63b8ff" points="2328.41,-123.56 2317.9,-124.88 2326.94,-130.4 2328.41,-123.56"/>
</g>
<!-- Node342&#45;&gt;Node2 -->
<g id="edge120" class="edge">
<title>Node342&#45;&gt;Node2</title>
<path fill="none" stroke="#63b8ff" d="M2449.91,-382.92C2656.11,-383.31 3204.74,-379.37 3266.04,-327 3295.63,-301.71 3285.04,-280.43 3285.04,-241.5 3285.04,-241.5 3285.04,-241.5 3285.04,-118.5 3285.04,-42.82 3201.13,-70.43 3127.04,-55 2974.67,-23.26 1836.03,-12.6 1610.71,-10.79"/>
<polygon fill="#63b8ff" stroke="#63b8ff" points="1611.05,-7.29 1601.02,-10.72 1610.99,-14.29 1611.05,-7.29"/>
</g>
<!-- Node342&#45;&gt;Node3 -->
<g id="edge121" class="edge">
<title>Node342&#45;&gt;Node3</title>
<path fill="none" stroke="#63b8ff" d="M2294.34,-364.58C2291.2,-364.02 2288.09,-363.49 2285.04,-363 2119.69,-336.64 2061.48,-398.4 1910.04,-327 1886.73,-316.01 1891.82,-298.04 1869.04,-286 1817.89,-258.96 1752.8,-248.17 1704.1,-243.96"/>
<polygon fill="#63b8ff" stroke="#63b8ff" points="1704.48,-240.47 1694.23,-243.18 1703.93,-247.45 1704.48,-240.47"/>
</g>
<!-- Node342&#45;&gt;Node33 -->
<g id="edge124" class="edge">
<title>Node342&#45;&gt;Node33</title>
<path fill="none" stroke="#63b8ff" d="M2341.53,-362.63C2330.03,-353.34 2318.23,-341.17 2312.04,-327 2304.74,-310.3 2300.02,-299.7 2312.04,-286 2393.34,-193.35 2505.73,-342.65 2587.04,-250 2599.1,-236.25 2592.27,-214.99 2584.52,-199.71"/>
<polygon fill="#63b8ff" stroke="#63b8ff" points="2587.66,-198.15 2579.71,-191.14 2581.56,-201.57 2587.66,-198.15"/>
</g>
<!-- Node342&#45;&gt;Node150 -->
<g id="edge122" class="edge">
<title>Node342&#45;&gt;Node150</title>
<path fill="none" stroke="#63b8ff" d="M2294.34,-364.55C2291.21,-364 2288.09,-363.48 2285.04,-363 2105.16,-335.03 2057.73,-349.04 1877.04,-327 1863.84,-325.39 1849.89,-323.45 1836.28,-321.43"/>
<polygon fill="#63b8ff" stroke="#63b8ff" points="1836.87,-317.98 1826.46,-319.94 1835.82,-324.9 1836.87,-317.98"/>
</g>
<!-- Node342&#45;&gt;Node338 -->
<g id="edge123" class="edge">
<title>Node342&#45;&gt;Node338</title>
<path fill="none" stroke="#63b8ff" d="M2377.82,-362.79C2380.52,-353.56 2383.78,-342.45 2386.67,-332.62"/>
<polygon fill="#63b8ff" stroke="#63b8ff" points="2389.94,-333.89 2389.4,-323.31 2383.22,-331.92 2389.94,-333.89"/>
</g>
<!-- Node355&#45;&gt;Node2 -->
<g id="edge126" class="edge">
<title>Node355&#45;&gt;Node2</title>
<path fill="none" stroke="#63b8ff" d="M2671.49,-287C2735.16,-273.96 2810.31,-257.53 2824.04,-250 2896.4,-210.32 2984.88,-182.82 2946.04,-110 2925.38,-71.28 2905.79,-68.5 2864.04,-55 2742.32,-15.66 1812.84,-11.1 1610.74,-10.57"/>
<polygon fill="#63b8ff" stroke="#63b8ff" points="1610.8,-7.07 1600.79,-10.54 1610.78,-14.07 1610.8,-7.07"/>
</g>
<!-- Node355&#45;&gt;Node3 -->
<g id="edge127" class="edge">
<title>Node355&#45;&gt;Node3</title>
<path fill="none" stroke="#63b8ff" d="M2484.65,-287.25C2481.41,-286.8 2478.2,-286.38 2475.04,-286 2190.6,-251.71 1848.89,-243.84 1704.21,-242.04"/>
<polygon fill="#63b8ff" stroke="#63b8ff" points="1704.45,-238.54 1694.41,-241.92 1704.37,-245.54 1704.45,-238.54"/>
</g>
<!-- Node356&#45;&gt;Node2 -->
<g id="edge129" class="edge">
<title>Node356&#45;&gt;Node2</title>
<path fill="none" stroke="#63b8ff" d="M2218.27,-368.28C2235.03,-346.25 2270.65,-304.48 2312.04,-286 2508.66,-198.19 2785.04,-396.34 2785.04,-181 2785.04,-181 2785.04,-181 2785.04,-118.5 2785.04,-72.05 2745.73,-70.76 2702.04,-55 2597.73,-17.37 1797.51,-11.5 1610.87,-10.64"/>
<polygon fill="#63b8ff" stroke="#63b8ff" points="1611,-7.14 1600.99,-10.6 1610.97,-14.14 1611,-7.14"/>
</g>
<!-- Node356&#45;&gt;Node3 -->
<g id="edge130" class="edge">
<title>Node356&#45;&gt;Node3</title>
<path fill="none" stroke="#63b8ff" d="M2139.23,-382.36C2069.72,-379.67 1960.91,-368.36 1877.04,-327 1853.06,-315.18 1856.68,-298.46 1833.04,-286 1793.19,-265 1743.79,-253.88 1704.18,-248.01"/>
<polygon fill="#63b8ff" stroke="#63b8ff" points="1704.91,-244.58 1694.52,-246.66 1703.94,-251.51 1704.91,-244.58"/>
</g>
<!-- Node356&#45;&gt;Node160 -->
<g id="edge131" class="edge">
<title>Node356&#45;&gt;Node160</title>
<path fill="none" stroke="#63b8ff" d="M2199.55,-368.04C2193.53,-357.77 2185.29,-343.73 2178.27,-331.76"/>
<polygon fill="#63b8ff" stroke="#63b8ff" points="2181.34,-330.08 2173.26,-323.22 2175.3,-333.62 2181.34,-330.08"/>
</g>
<!-- Node366&#45;&gt;Node2 -->
<g id="edge133" class="edge">
<title>Node366&#45;&gt;Node2</title>
<path fill="none" stroke="#63b8ff" d="M2826.25,-285.53C2867.25,-268.02 2920.73,-238.5 2951.04,-195 2972.88,-163.64 2979.42,-144.98 2964.04,-110 2949.47,-76.89 2937.53,-68.68 2904.04,-55 2781.7,-5.04 1816.98,-8.81 1610.75,-10.2"/>
<polygon fill="#63b8ff" stroke="#63b8ff" points="1610.83,-6.7 1600.85,-10.27 1610.88,-13.7 1610.83,-6.7"/>
</g>
<!-- Node366&#45;&gt;Node3 -->
<g id="edge134" class="edge">
<title>Node366&#45;&gt;Node3</title>
<path fill="none" stroke="#63b8ff" d="M2688.71,-287.23C2685.79,-286.78 2682.89,-286.37 2680.04,-286 2490.59,-261.63 1907.2,-247.28 1704.39,-242.92"/>
<polygon fill="#63b8ff" stroke="#63b8ff" points="1704.6,-239.43 1694.53,-242.71 1704.45,-246.43 1704.6,-239.43"/>
</g>
<!-- Node369&#45;&gt;Node2 -->
<g id="edge136" class="edge">
<title>Node369&#45;&gt;Node2</title>
<path fill="none" stroke="#63b8ff" d="M3073.69,-291.03C3103.82,-270.58 3152.04,-230.18 3152.04,-181 3152.04,-181 3152.04,-181 3152.04,-118.5 3152.04,-30.31 3050.82,-70.69 2964.04,-55 2693.84,-6.15 1807.43,-8.95 1610.87,-10.21"/>
<polygon fill="#63b8ff" stroke="#63b8ff" points="1610.93,-6.71 1600.96,-10.27 1610.98,-13.71 1610.93,-6.71"/>
</g>
<!-- Node369&#45;&gt;Node3 -->
<g id="edge137" class="edge">
<title>Node369&#45;&gt;Node3</title>
<path fill="none" stroke="#63b8ff" d="M3007.4,-291.01C3000.02,-288.99 2992.36,-287.2 2985.04,-286 2734.81,-245.06 1944.45,-241.53 1704.07,-241.42"/>
<polygon fill="#63b8ff" stroke="#63b8ff" points="1704.22,-237.92 1694.22,-241.42 1704.22,-244.92 1704.22,-237.92"/>
</g>
<!-- Node371&#45;&gt;Node2 -->
<g id="edge139" class="edge">
<title>Node371&#45;&gt;Node2</title>
<path fill="none" stroke="#63b8ff" d="M3363.79,-291.08C3357.4,-268.03 3346.04,-221.39 3346.04,-181 3346.04,-181 3346.04,-181 3346.04,-118.5 3346.04,-83.39 3330.18,-71.2 3299.04,-55 3221.64,-14.74 1858.14,-10.9 1610.46,-10.54"/>
<polygon fill="#63b8ff" stroke="#63b8ff" points="1610.72,-7.04 1600.71,-10.53 1610.71,-14.04 1610.72,-7.04"/>
</g>
<!-- Node371&#45;&gt;Node3 -->
<g id="edge140" class="edge">
<title>Node371&#45;&gt;Node3</title>
<path fill="none" stroke="#63b8ff" d="M3312.7,-293.23C3297.63,-290.36 3281.27,-287.65 3266.04,-286 2956.29,-252.39 1974.99,-243.69 1703.97,-241.9"/>
<polygon fill="#63b8ff" stroke="#63b8ff" points="1704.27,-238.4 1694.25,-241.84 1704.23,-245.4 1704.27,-238.4"/>
</g>
</g>
</svg>
