<?xml version="1.0" encoding="UTF-8" standalone="no"?>
<!DOCTYPE svg PUBLIC "-//W3C//DTD SVG 1.1//EN"
 "http://www.w3.org/Graphics/SVG/1.1/DTD/svg11.dtd">
<!-- Generated by graphviz version 13.1.2 (20250808.2320)
 -->
<!-- Title: DGtal::Display3D&lt; Space, KSpace &gt; Pages: 1 -->
<!--zoomable 286 -->

<svg id="main" version="1.1" xmlns="http://www.w3.org/2000/svg" xmlns:xlink="http://www.w3.org/1999/xlink" xml:space="preserve" onload="init(evt)">

<style type="text/css"><![CDATA[
.node, .edge {opacity: 0.7;}
.node.selected, .edge.selected {opacity: 1;}
.edge:hover path { stroke: red; }
.edge:hover polygon { stroke: red; fill: red; }
]]></style>

<defs>
  <circle id="rim" cx="0" cy="0" r="7"/>
  <circle id="rim2" cx="0" cy="0" r="3.5"/>
  <g id="zoomPlus">
    <use xlink:href="#rim" fill="#404040"><set attributeName="fill" to="#808080" begin="zoomplus.mouseover" end="zoomplus.mouseout"/></use>
    <path d="M-4,0h8M0,-4v8" fill="none" stroke="white" stroke-width="1.5" pointer-events="none"/>
  </g>
  <g id="zoomMin">
    <use xlink:href="#rim" fill="#404040"><set attributeName="fill" to="#808080" begin="zoomminus.mouseover" end="zoomminus.mouseout"/></use>
    <path d="M-4,0h8" fill="none" stroke="white" stroke-width="1.5" pointer-events="none"/>
  </g>
  <g id="arrowUp" transform="translate(30 24)">
    <use xlink:href="#rim"/>
    <path pointer-events="none" fill="none" stroke="white" stroke-width="1.5" d="M0,-3.0v7 M-2.5,-0.5L0,-3.0L2.5,-0.5"/>
  </g>
  <g id="arrowRight" transform="rotate(90) translate(36 -43)">
    <use xlink:href="#rim"/>
    <path pointer-events="none" fill="none" stroke="white" stroke-width="1.5" d="M0,-3.0v7 M-2.5,-0.5L0,-3.0L2.5,-0.5"/>
  </g>
  <g id="arrowDown" transform="rotate(180) translate(-30 -48)">
    <use xlink:href="#rim"/>
    <path pointer-events="none" fill="none" stroke="white" stroke-width="1.5" d="M0,-3.0v7 M-2.5,-0.5L0,-3.0L2.5,-0.5"/>
  </g>
  <g id="arrowLeft" transform="rotate(270) translate(-36 17)">
    <use xlink:href="#rim"/>
    <path pointer-events="none" fill="none" stroke="white" stroke-width="1.5" d="M0,-3.0v7 M-2.5,-0.5L0,-3.0L2.5,-0.5"/>
  </g>
  <g id="resetDef">
    <use xlink:href="#rim2" fill="#404040"><set attributeName="fill" to="#808080" begin="reset.mouseover" end="reset.mouseout"/></use>
  </g>
</defs>
<script type="application/ecmascript">
var viewWidth = 960;
var viewHeight = 286;
var sectionId = 'dynsection-0';
</script>
<script type="application/ecmascript" xlink:href="svg.min.js"/>
<svg id="graph" class="graph">
<g id="viewport">
<title>DGtal::Display3D&lt; Space, KSpace &gt;</title>
<!-- Node1 -->
<g id="Node000001" class="node">
<title>Node1</title>
<g id="a_Node000001"><a xlink:title="Base class for viewing DGtal objects.">
<polygon fill="#999999" stroke="#666666" points="133,-173.5 0,-173.5 0,-143 133,-143 133,-173.5"/>
<text xml:space="preserve" text-anchor="start" x="8" y="-160" font-family="FreeSans" font-size="10.00">DGtal::Display3D&lt; Space,</text>
<text xml:space="preserve" text-anchor="middle" x="66.5" y="-148.75" font-family="FreeSans" font-size="10.00"> KSpace &gt;</text>
</a>
</g>
</g>
<!-- Node2 -->
<g id="Node000002" class="node">
<title>Node2</title>
<g id="a_Node000002"><a xlink:href="classDGtal_1_1PolyscopeViewer.html" target="_top" xlink:title=" ">
<polygon fill="white" stroke="#666666" points="951.5,-263.12 816.25,-263.12 816.25,-221.38 951.5,-221.38 951.5,-263.12"/>
<text xml:space="preserve" text-anchor="start" x="824.25" y="-249.62" font-family="FreeSans" font-size="10.00">DGtal::PolyscopeViewer</text>
<text xml:space="preserve" text-anchor="start" x="824.25" y="-238.38" font-family="FreeSans" font-size="10.00">&lt; DGtal::Z3i::Space, DGtal</text>
<text xml:space="preserve" text-anchor="middle" x="883.88" y="-227.12" font-family="FreeSans" font-size="10.00">::Z3i::KSpace &gt;</text>
</a>
</g>
</g>
<!-- Node1&#45;&gt;Node2 -->
<g id="edge1_Node000001_Node000002" class="edge">
<title>Node1&#45;&gt;Node2</title>
<g id="a_edge1_Node000001_Node000002"><a xlink:title=" ">
<path fill="none" stroke="#63b8ff" d="M87.82,-181.78C103.33,-197.95 126.2,-218.25 151,-228.25 373.19,-317.82 449.33,-257.02 688.75,-265.25 737.39,-266.92 750.01,-271.69 798.25,-265.25 803.98,-264.48 809.88,-263.44 815.77,-262.21"/>
<polygon fill="#63b8ff" stroke="#63b8ff" points="90.8,-179.84 81.43,-174.88 85.66,-184.6 90.8,-179.84"/>
</a>
</g>
</g>
<!-- Node3 -->
<g id="Node000003" class="node">
<title>Node3</title>
<g id="a_Node000003"><a xlink:href="classDGtal_1_1PolyscopeViewer.html" target="_top" xlink:title=" ">
<polygon fill="white" stroke="#666666" points="945.5,-194.5 822.25,-194.5 822.25,-164 945.5,-164 945.5,-194.5"/>
<text xml:space="preserve" text-anchor="start" x="830.25" y="-181" font-family="FreeSans" font-size="10.00">DGtal::PolyscopeViewer</text>
<text xml:space="preserve" text-anchor="middle" x="883.88" y="-169.75" font-family="FreeSans" font-size="10.00">&lt; Space, KSpace &gt;</text>
</a>
</g>
</g>
<!-- Node1&#45;&gt;Node3 -->
<g id="edge2_Node000001_Node000003" class="edge">
<title>Node1&#45;&gt;Node3</title>
<g id="a_edge2_Node000001_Node000003"><a xlink:title=" ">
<path fill="none" stroke="#63b8ff" d="M144.42,-160.23C305.51,-164.38 675.5,-173.91 821.76,-177.68"/>
<polygon fill="#63b8ff" stroke="#63b8ff" points="144.79,-156.74 134.7,-159.98 144.61,-163.74 144.79,-156.74"/>
</a>
</g>
</g>
<!-- Node4 -->
<g id="Node000004" class="node">
<title>Node4</title>
<g id="a_Node000004"><a xlink:href="classDGtal_1_1Display3D.html" target="_top" xlink:title=" ">
<polygon fill="white" stroke="#666666" points="485,-216.5 366.25,-216.5 366.25,-186 485,-186 485,-216.5"/>
<text xml:space="preserve" text-anchor="start" x="374.25" y="-203" font-family="FreeSans" font-size="10.00">DGtal::Display3D&lt; Z3i</text>
<text xml:space="preserve" text-anchor="middle" x="425.62" y="-191.75" font-family="FreeSans" font-size="10.00">::Space, Z3i::KSpace &gt;</text>
</a>
</g>
</g>
<!-- Node1&#45;&gt;Node4 -->
<g id="edge3_Node000001_Node000004" class="edge">
<title>Node1&#45;&gt;Node4</title>
<g id="a_edge3_Node000001_Node000004"><a xlink:title=" ">
<path fill="none" stroke="orange" stroke-dasharray="5,2" d="M144.37,-171.32C146.6,-171.64 148.82,-171.95 151,-172.25 224.84,-182.34 310.29,-190.9 365.79,-196.05"/>
<polygon fill="orange" stroke="orange" points="144.98,-167.87 134.58,-169.85 143.95,-174.79 144.98,-167.87"/>
</a>
</g>
<text xml:space="preserve" text-anchor="start" x="196" y="-211.68" font-family="FreeSans" font-size="10.00" fill="grey">&lt; Z3i::Space, Z3i::</text>
<text xml:space="preserve" text-anchor="start" x="196" y="-196.43" font-family="FreeSans" font-size="10.00" fill="grey">  KSpace &gt;</text>
</g>
<!-- Node6 -->
<g id="Node000006" class="node">
<title>Node6</title>
<g id="a_Node000006"><a xlink:href="classDGtal_1_1Display3D.html" target="_top" xlink:title=" ">
<polygon fill="white" stroke="#666666" points="510.5,-112.38 340.75,-112.38 340.75,-48.12 510.5,-48.12 510.5,-112.38"/>
<text xml:space="preserve" text-anchor="start" x="348.75" y="-98.88" font-family="FreeSans" font-size="10.00">DGtal::Display3D&lt; DGtal</text>
<text xml:space="preserve" text-anchor="start" x="348.75" y="-87.62" font-family="FreeSans" font-size="10.00">::ArithmeticalDSLKernel</text>
<text xml:space="preserve" text-anchor="start" x="348.75" y="-76.38" font-family="FreeSans" font-size="10.00">&lt; Coordinate, adjacency</text>
<text xml:space="preserve" text-anchor="start" x="348.75" y="-65.12" font-family="FreeSans" font-size="10.00"> &gt;::Space, DGtal::KhalimskySpace</text>
<text xml:space="preserve" text-anchor="middle" x="425.62" y="-53.88" font-family="FreeSans" font-size="10.00">ND&lt; 3, Integer &gt; &gt;</text>
</a>
</g>
</g>
<!-- Node1&#45;&gt;Node6 -->
<g id="edge7_Node000001_Node000006" class="edge">
<title>Node1&#45;&gt;Node6</title>
<g id="a_edge7_Node000001_Node000006"><a xlink:title=" ">
<path fill="none" stroke="orange" stroke-dasharray="5,2" d="M85.51,-133.82C100.66,-115.49 124.12,-91.81 151,-81.25 211.13,-57.63 284.6,-58.82 340.26,-65.13"/>
<polygon fill="orange" stroke="orange" points="82.79,-131.63 79.31,-141.64 88.27,-135.98 82.79,-131.63"/>
</a>
</g>
<text xml:space="preserve" text-anchor="start" x="154" y="-131.75" font-family="FreeSans" font-size="10.00" fill="grey">&lt; DGtal::ArithmeticalDSLKernel</text>
<text xml:space="preserve" text-anchor="start" x="154" y="-116.5" font-family="FreeSans" font-size="10.00" fill="grey">  &lt; Coordinate, adjacency &gt;</text>
<text xml:space="preserve" text-anchor="start" x="154" y="-101.25" font-family="FreeSans" font-size="10.00" fill="grey">  ::Space, DGtal::KhalimskySpaceND</text>
<text xml:space="preserve" text-anchor="start" x="154" y="-86" font-family="FreeSans" font-size="10.00" fill="grey">  &lt; 3, Integer &gt; &gt;</text>
</g>
<!-- Node7 -->
<g id="Node000007" class="node">
<title>Node7</title>
<g id="a_Node000007"><a xlink:href="classDGtal_1_1Display3D.html" target="_top" xlink:title=" ">
<polygon fill="white" stroke="#666666" points="484.25,-30.5 367,-30.5 367,0 484.25,0 484.25,-30.5"/>
<text xml:space="preserve" text-anchor="start" x="375" y="-17" font-family="FreeSans" font-size="10.00">DGtal::Display3D&lt; Sp,</text>
<text xml:space="preserve" text-anchor="middle" x="425.62" y="-5.75" font-family="FreeSans" font-size="10.00"> KSp &gt;</text>
</a>
</g>
</g>
<!-- Node1&#45;&gt;Node7 -->
<g id="edge8_Node000001_Node000007" class="edge">
<title>Node1&#45;&gt;Node7</title>
<g id="a_edge8_Node000001_Node000007"><a xlink:title=" ">
<path fill="none" stroke="orange" stroke-dasharray="5,2" d="M77.81,-132.39C90.49,-104.36 114.87,-60.84 151,-40 217.42,-1.7 308.32,-1.74 366.76,-7.07"/>
<polygon fill="orange" stroke="orange" points="74.73,-130.69 73.98,-141.26 81.16,-133.47 74.73,-130.69"/>
</a>
</g>
<text xml:space="preserve" text-anchor="start" x="209.5" y="-44.75" font-family="FreeSans" font-size="10.00" fill="grey">&lt; Sp, KSp &gt;</text>
</g>
<!-- Node5 -->
<g id="Node000005" class="node">
<title>Node5</title>
<g id="a_Node000005"><a xlink:href="classDGtal_1_1PolyscopeViewer.html" target="_top" xlink:title=" ">
<polygon fill="white" stroke="#666666" points="670.75,-216.5 547.5,-216.5 547.5,-186 670.75,-186 670.75,-216.5"/>
<text xml:space="preserve" text-anchor="start" x="555.5" y="-203" font-family="FreeSans" font-size="10.00">DGtal::PolyscopeViewer</text>
<text xml:space="preserve" text-anchor="middle" x="609.12" y="-191.75" font-family="FreeSans" font-size="10.00">&lt; Space, KSpace &gt;</text>
</a>
</g>
</g>
<!-- Node4&#45;&gt;Node5 -->
<g id="edge4_Node000004_Node000005" class="edge">
<title>Node4&#45;&gt;Node5</title>
<g id="a_edge4_Node000004_Node000005"><a xlink:title=" ">
<path fill="none" stroke="#63b8ff" d="M496.65,-201.25C513.3,-201.25 530.94,-201.25 547.15,-201.25"/>
<polygon fill="#63b8ff" stroke="#63b8ff" points="496.82,-197.75 486.82,-201.25 496.82,-204.75 496.82,-197.75"/>
</a>
</g>
</g>
<!-- Node5&#45;&gt;Node2 -->
<g id="edge5_Node000005_Node000002" class="edge">
<title>Node5&#45;&gt;Node2</title>
<g id="a_edge5_Node000005_Node000002"><a xlink:title=" ">
<path fill="none" stroke="orange" stroke-dasharray="5,2" d="M682.13,-212.07C723.61,-218.31 775.39,-226.09 815.98,-232.19"/>
<polygon fill="orange" stroke="orange" points="682.9,-208.65 672.49,-210.63 681.86,-215.57 682.9,-208.65"/>
</a>
</g>
<text xml:space="preserve" text-anchor="start" x="691.75" y="-248.99" font-family="FreeSans" font-size="10.00" fill="grey">&lt; DGtal::Z3i::Space,</text>
<text xml:space="preserve" text-anchor="start" x="691.75" y="-233.74" font-family="FreeSans" font-size="10.00" fill="grey">   DGtal::Z3i::KSpace &gt;</text>
</g>
<!-- Node5&#45;&gt;Node3 -->
<g id="edge6_Node000005_Node000003" class="edge">
<title>Node5&#45;&gt;Node3</title>
<g id="a_edge6_Node000005_Node000003"><a xlink:title=" ">
<path fill="none" stroke="orange" stroke-dasharray="5,2" d="M682.47,-192.6C684.59,-192.39 686.68,-192.19 688.75,-192 733.32,-187.92 783.75,-184.65 822.04,-182.44"/>
<polygon fill="orange" stroke="orange" points="682.14,-189.11 672.55,-193.61 682.86,-196.07 682.14,-189.11"/>
</a>
</g>
<text xml:space="preserve" text-anchor="start" x="700.38" y="-196.75" font-family="FreeSans" font-size="10.00" fill="grey">&lt; Space, KSpace &gt;</text>
</g>
</g>
</svg>

<g id="navigator" transform="translate(0 0)" fill="#404254">
  <rect fill="#f2f5e9" fill-opacity="0.5" stroke="#606060" stroke-width=".5" x="0" y="0" width="60" height="60"/>
  <use id="zoomplus" xlink:href="#zoomPlus" x="17" y="9" onmousedown="handleZoom(evt,'in')"/>
  <use id="zoomminus" xlink:href="#zoomMin" x="42" y="9" onmousedown="handleZoom(evt,'out')"/>
  <use id="reset" xlink:href="#resetDef" x="30" y="36" onmousedown="handleReset()"/>
   <use id="arrowup" xlink:href="#arrowUp" x="0" y="0" onmousedown="handlePan(0,-1)"/>
  <use id="arrowright" xlink:href="#arrowRight" x="0" y="0" onmousedown="handlePan(1,0)"/>
  <use id="arrowdown" xlink:href="#arrowDown" x="0" y="0" onmousedown="handlePan(0,1)"/>
  <use id="arrowleft" xlink:href="#arrowLeft" x="0" y="0" onmousedown="handlePan(-1,0)"/>
</g>
<svg viewBox="0 0 15 15" width="100%" height="30px" preserveAspectRatio="xMaxYMin meet">
 <g id="arrow_out" transform="scale(0.3 0.3)">
  <a xlink:href="classDGtal_1_1Display3D__inherit__graph_org.svg" target="_base">
   <rect id="button" ry="5" rx="5" y="6" x="6" height="38" width="38"
        fill="#f2f5e9" fill-opacity="0.5" stroke="#606060" stroke-width="1.0"/>
   <path id="arrow"
     d="M 11.500037,31.436501 C 11.940474,20.09759 22.043105,11.32322 32.158766,21.979434 L 37.068811,17.246167 C 37.068811,17.246167 37.088388,32 37.088388,32 L 22.160133,31.978069 C 22.160133,31.978069 26.997745,27.140456 26.997745,27.140456 C 18.528582,18.264221 13.291696,25.230495 11.500037,31.436501 z"
     style="fill:#404040;"/>
  </a>
 </g>
</svg>

<style type='text/css'>
<![CDATA[
[data-mouse-over-selected='false'] { opacity: 0.7; }
[data-mouse-over-selected='true']  { opacity: 1.0; }
]]>
</style>
<script type="application/ecmascript"><![CDATA[
document.addEventListener('DOMContentLoaded', (event) => {
  highlightEdges();
  highlightAdjacentNodes();
});
]]></script>
</svg>
