<?xml version="1.0" encoding="UTF-8" standalone="no"?>
<!DOCTYPE svg PUBLIC "-//W3C//DTD SVG 1.1//EN"
 "http://www.w3.org/Graphics/SVG/1.1/DTD/svg11.dtd">
<!-- Generated by graphviz version 11.0.0 (20240428.1522)
 -->
<!-- Title: DGtal::TangentAngleFromDSSEstimator&lt; DSSComputer &gt; Pages: 1 -->
<svg width="757pt" height="51pt"
 viewBox="0.00 0.00 756.50 51.38" xmlns="http://www.w3.org/2000/svg" xmlns:xlink="http://www.w3.org/1999/xlink">
<g id="graph0" class="graph" transform="scale(1 1) rotate(0) translate(4 47.38)">
<title>DGtal::TangentAngleFromDSSEstimator&lt; DSSComputer &gt;</title>
<!-- Node1 -->
<g id="Node000001" class="node">
<title>Node1</title>
<g id="a_Node000001"><a xlink:title=" ">
<polygon fill="#999999" stroke="#666666" points="748.5,-36.12 556.25,-36.12 556.25,-5.62 748.5,-5.62 748.5,-36.12"/>
<text text-anchor="start" x="564.25" y="-22.62" font-family="FreeSans" font-size="10.00">DGtal::TangentAngleFromDSSEstimator</text>
<text text-anchor="middle" x="652.38" y="-11.38" font-family="FreeSans" font-size="10.00">&lt; DSSComputer &gt;</text>
</a>
</g>
</g>
<!-- Node2 -->
<g id="Node000002" class="node">
<title>Node2</title>
<g id="a_Node000002"><a xlink:href="classDGtal_1_1detail_1_1PosIndepScaleIndepSCEstimator.html" target="_top" xlink:title=" ">
<polygon fill="white" stroke="#666666" points="520.25,-41.75 349,-41.75 349,0 520.25,0 520.25,-41.75"/>
<text text-anchor="start" x="357" y="-28.25" font-family="FreeSans" font-size="10.00">DGtal::detail::PosIndepScale</text>
<text text-anchor="start" x="357" y="-17" font-family="FreeSans" font-size="10.00">IndepSCEstimator&lt; DSSComputer,</text>
<text text-anchor="middle" x="434.62" y="-5.75" font-family="FreeSans" font-size="10.00"> detail::TangentAngleFromDSS &gt;</text>
</a>
</g>
</g>
<!-- Node2&#45;&gt;Node1 -->
<g id="edge1_Node000001_Node000002" class="edge">
<title>Node2&#45;&gt;Node1</title>
<g id="a_edge1_Node000001_Node000002"><a xlink:title=" ">
<path fill="none" stroke="#63b8ff" d="M532.06,-20.88C539.95,-20.88 547.91,-20.88 555.79,-20.88"/>
<polygon fill="#63b8ff" stroke="#63b8ff" points="532.1,-17.38 522.1,-20.88 532.1,-24.38 532.1,-17.38"/>
</a>
</g>
</g>
<!-- Node3 -->
<g id="Node000003" class="node">
<title>Node3</title>
<g id="a_Node000003"><a xlink:href="classDGtal_1_1detail_1_1PosIndepScaleIndepSCEstimator.html" target="_top" xlink:title=" ">
<polygon fill="white" stroke="#666666" points="195.25,-41.75 0,-41.75 0,0 195.25,0 195.25,-41.75"/>
<text text-anchor="start" x="8" y="-28.25" font-family="FreeSans" font-size="10.00">DGtal::detail::PosIndepScale</text>
<text text-anchor="start" x="8" y="-17" font-family="FreeSans" font-size="10.00">IndepSCEstimator&lt; TSegmentComputer,</text>
<text text-anchor="middle" x="97.62" y="-5.75" font-family="FreeSans" font-size="10.00"> Functor, ReturnType &gt;</text>
</a>
</g>
</g>
<!-- Node3&#45;&gt;Node2 -->
<g id="edge2_Node000002_Node000003" class="edge">
<title>Node3&#45;&gt;Node2</title>
<g id="a_edge2_Node000002_Node000003"><a xlink:title=" ">
<path fill="none" stroke="orange" stroke-dasharray="5,2" d="M207.03,-20.88C252.93,-20.88 305.61,-20.88 348.62,-20.88"/>
<polygon fill="orange" stroke="orange" points="207.03,-17.38 197.03,-20.88 207.03,-24.38 207.03,-17.38"/>
</a>
</g>
<text text-anchor="start" x="213.25" y="-33.88" font-family="FreeSans" font-size="10.00" fill="grey"> &lt; DSSComputer, detail</text>
<text text-anchor="middle" x="272.12" y="-22.62" font-family="FreeSans" font-size="10.00" fill="grey">::TangentAngleFromDSS &gt;</text>
</g>
</g>
</svg>
