<?xml version="1.0" encoding="UTF-8" standalone="no"?>
<!DOCTYPE svg PUBLIC "-//W3C//DTD SVG 1.1//EN"
 "http://www.w3.org/Graphics/SVG/1.1/DTD/svg11.dtd">
<!-- Generated by graphviz version 11.0.0 (20240428.1522)
 -->
<!-- Title: DGtal::DistanceFromDCAEstimator&lt; DCAComputer &gt; Pages: 1 -->
<svg width="713pt" height="51pt"
 viewBox="0.00 0.00 713.00 51.38" xmlns="http://www.w3.org/2000/svg" xmlns:xlink="http://www.w3.org/1999/xlink">
<g id="graph0" class="graph" transform="scale(1 1) rotate(0) translate(4 47.38)">
<title>DGtal::DistanceFromDCAEstimator&lt; DCAComputer &gt;</title>
<!-- Node1 -->
<g id="Node000001" class="node">
<title>Node1</title>
<g id="a_Node000001"><a xlink:title=" ">
<polygon fill="#999999" stroke="#666666" points="705,-36.12 532.25,-36.12 532.25,-5.62 705,-5.62 705,-36.12"/>
<text text-anchor="start" x="540.25" y="-22.62" font-family="FreeSans" font-size="10.00">DGtal::DistanceFromDCAEstimator</text>
<text text-anchor="middle" x="618.62" y="-11.38" font-family="FreeSans" font-size="10.00">&lt; DCAComputer &gt;</text>
</a>
</g>
</g>
<!-- Node2 -->
<g id="Node000002" class="node">
<title>Node2</title>
<g id="a_Node000002"><a xlink:href="classDGtal_1_1detail_1_1PosDepScaleDepSCEstimator.html" target="_top" xlink:title=" ">
<polygon fill="white" stroke="#666666" points="496.25,-41.75 330.25,-41.75 330.25,0 496.25,0 496.25,-41.75"/>
<text text-anchor="start" x="338.25" y="-28.25" font-family="FreeSans" font-size="10.00">DGtal::detail::PosDepScale</text>
<text text-anchor="start" x="338.25" y="-17" font-family="FreeSans" font-size="10.00">DepSCEstimator&lt; DCAComputer,</text>
<text text-anchor="middle" x="413.25" y="-5.75" font-family="FreeSans" font-size="10.00"> detail::DistanceFromDCA &gt;</text>
</a>
</g>
</g>
<!-- Node2&#45;&gt;Node1 -->
<g id="edge1_Node000001_Node000002" class="edge">
<title>Node2&#45;&gt;Node1</title>
<g id="a_edge1_Node000001_Node000002"><a xlink:title=" ">
<path fill="none" stroke="#63b8ff" d="M508.15,-20.88C516.02,-20.88 523.96,-20.88 531.77,-20.88"/>
<polygon fill="#63b8ff" stroke="#63b8ff" points="508.19,-17.38 498.19,-20.88 508.19,-24.38 508.19,-17.38"/>
</a>
</g>
</g>
<!-- Node3 -->
<g id="Node000003" class="node">
<title>Node3</title>
<g id="a_Node000003"><a xlink:href="classDGtal_1_1detail_1_1PosDepScaleDepSCEstimator.html" target="_top" xlink:title=" ">
<polygon fill="white" stroke="#666666" points="189.25,-41.75 0,-41.75 0,0 189.25,0 189.25,-41.75"/>
<text text-anchor="start" x="8" y="-28.25" font-family="FreeSans" font-size="10.00">DGtal::detail::PosDepScale</text>
<text text-anchor="start" x="8" y="-17" font-family="FreeSans" font-size="10.00">DepSCEstimator&lt; TSegmentComputer,</text>
<text text-anchor="middle" x="94.62" y="-5.75" font-family="FreeSans" font-size="10.00"> Functor, ReturnType &gt;</text>
</a>
</g>
</g>
<!-- Node3&#45;&gt;Node2 -->
<g id="edge2_Node000002_Node000003" class="edge">
<title>Node3&#45;&gt;Node2</title>
<g id="a_edge2_Node000002_Node000003"><a xlink:title=" ">
<path fill="none" stroke="orange" stroke-dasharray="5,2" d="M200.74,-20.88C242.73,-20.88 290.37,-20.88 329.8,-20.88"/>
<polygon fill="orange" stroke="orange" points="200.85,-17.38 190.85,-20.88 200.85,-24.38 200.85,-17.38"/>
</a>
</g>
<text text-anchor="start" x="207.25" y="-33.88" font-family="FreeSans" font-size="10.00" fill="grey"> &lt; DCAComputer, detail</text>
<text text-anchor="middle" x="259.75" y="-22.62" font-family="FreeSans" font-size="10.00" fill="grey">::DistanceFromDCA &gt;</text>
</g>
</g>
</svg>
