<?xml version="1.0" encoding="UTF-8" standalone="no"?>
<!DOCTYPE svg PUBLIC "-//W3C//DTD SVG 1.1//EN"
 "http://www.w3.org/Graphics/SVG/1.1/DTD/svg11.dtd">
<!-- Generated by graphviz version 11.0.0 (20240428.1522)
 -->
<!-- Title: DGtal::Viewer3D&lt; TSpace, TKSpace &gt; Pages: 1 -->
<svg width="667pt" height="88pt"
 viewBox="0.00 0.00 666.50 87.50" xmlns="http://www.w3.org/2000/svg" xmlns:xlink="http://www.w3.org/1999/xlink">
<g id="graph0" class="graph" transform="scale(1 1) rotate(0) translate(4 83.5)">
<title>DGtal::Viewer3D&lt; TSpace, TKSpace &gt;</title>
<!-- Node1 -->
<g id="Node000001" class="node">
<title>Node1</title>
<g id="a_Node000001"><a xlink:title=" ">
<polygon fill="#999999" stroke="#666666" points="305,-54.5 169,-54.5 169,-24 305,-24 305,-54.5"/>
<text text-anchor="start" x="177" y="-41" font-family="FreeSans" font-size="10.00">DGtal::Viewer3D&lt; TSpace,</text>
<text text-anchor="middle" x="237" y="-29.75" font-family="FreeSans" font-size="10.00"> TKSpace &gt;</text>
</a>
</g>
</g>
<!-- Node4 -->
<g id="Node000004" class="node">
<title>Node4</title>
<g id="a_Node000004"><a xlink:href="classDGtal_1_1Viewer3D.html" target="_top" xlink:title=" ">
<polygon fill="white" stroke="#666666" points="623.62,-79.5 493.62,-79.5 493.62,-49 623.62,-49 623.62,-79.5"/>
<text text-anchor="start" x="501.62" y="-66" font-family="FreeSans" font-size="10.00">DGtal::Viewer3D&lt; Space,</text>
<text text-anchor="middle" x="558.62" y="-54.75" font-family="FreeSans" font-size="10.00"> KSpace &gt;</text>
</a>
</g>
</g>
<!-- Node1&#45;&gt;Node4 -->
<g id="edge3_Node000001_Node000004" class="edge">
<title>Node1&#45;&gt;Node4</title>
<g id="a_edge3_Node000001_Node000004"><a xlink:title=" ">
<path fill="none" stroke="orange" stroke-dasharray="5,2" d="M316.72,-45.41C371.05,-49.66 442.4,-55.24 493.32,-59.22"/>
<polygon fill="orange" stroke="orange" points="317.15,-41.93 306.9,-44.64 316.6,-48.91 317.15,-41.93"/>
</a>
</g>
<text text-anchor="middle" x="381.88" y="-56" font-family="FreeSans" font-size="10.00" fill="grey"> &lt; Space, KSpace &gt;</text>
</g>
<!-- Node5 -->
<g id="Node000005" class="node">
<title>Node5</title>
<g id="a_Node000005"><a xlink:href="classDGtal_1_1Viewer3D.html" target="_top" xlink:title=" ">
<polygon fill="white" stroke="#666666" points="658.5,-30.5 458.75,-30.5 458.75,0 658.5,0 658.5,-30.5"/>
<text text-anchor="start" x="466.75" y="-17" font-family="FreeSans" font-size="10.00">DGtal::Viewer3D&lt; DGtal</text>
<text text-anchor="middle" x="558.62" y="-5.75" font-family="FreeSans" font-size="10.00">::SpaceND, DGtal::KhalimskySpaceND &gt;</text>
</a>
</g>
</g>
<!-- Node1&#45;&gt;Node5 -->
<g id="edge4_Node000001_Node000005" class="edge">
<title>Node1&#45;&gt;Node5</title>
<g id="a_edge4_Node000001_Node000005"><a xlink:title=" ">
<path fill="none" stroke="orange" stroke-dasharray="5,2" d="M310.58,-21.56C314.77,-20.86 318.93,-20.25 323,-19.75 367.18,-14.32 416.38,-12.7 458.27,-12.64"/>
<polygon fill="orange" stroke="orange" points="310.18,-18.07 300.97,-23.31 311.43,-24.96 310.18,-18.07"/>
</a>
</g>
<text text-anchor="start" x="323" y="-32.25" font-family="FreeSans" font-size="10.00" fill="grey"> &lt; DGtal::SpaceND, DGtal</text>
<text text-anchor="middle" x="381.88" y="-21" font-family="FreeSans" font-size="10.00" fill="grey">::KhalimskySpaceND &gt;</text>
</g>
<!-- Node2 -->
<g id="Node000002" class="node">
<title>Node2</title>
<g id="a_Node000002"><a xlink:title=" ">
<polygon fill="white" stroke="#666666" points="99.25,-70.88 33.75,-70.88 33.75,-51.62 99.25,-51.62 99.25,-70.88"/>
<text text-anchor="middle" x="66.5" y="-57.38" font-family="FreeSans" font-size="10.00">QGLViewer</text>
</a>
</g>
</g>
<!-- Node2&#45;&gt;Node1 -->
<g id="edge1_Node000001_Node000002" class="edge">
<title>Node2&#45;&gt;Node1</title>
<g id="a_edge1_Node000001_Node000002"><a xlink:title=" ">
<path fill="none" stroke="#63b8ff" d="M110.95,-55.58C128.56,-53.28 149.31,-50.57 168.8,-48.02"/>
<polygon fill="#63b8ff" stroke="#63b8ff" points="110.55,-52.1 101.09,-56.86 111.46,-59.04 110.55,-52.1"/>
</a>
</g>
</g>
<!-- Node3 -->
<g id="Node000003" class="node">
<title>Node3</title>
<g id="a_Node000003"><a xlink:href="classDGtal_1_1Display3D.html" target="_top" xlink:title="Aim: This semi abstract class defines the stream mechanism to display 3d primitive (like BallVector,...">
<polygon fill="white" stroke="#666666" points="133,-33.5 0,-33.5 0,-3 133,-3 133,-33.5"/>
<text text-anchor="start" x="8" y="-20" font-family="FreeSans" font-size="10.00">DGtal::Display3D&lt; Space,</text>
<text text-anchor="middle" x="66.5" y="-8.75" font-family="FreeSans" font-size="10.00"> KSpace &gt;</text>
</a>
</g>
</g>
<!-- Node3&#45;&gt;Node1 -->
<g id="edge2_Node000001_Node000003" class="edge">
<title>Node3&#45;&gt;Node1</title>
<g id="a_edge2_Node000001_Node000003"><a xlink:title=" ">
<path fill="none" stroke="#63b8ff" d="M144.44,-27.84C152.5,-28.84 160.66,-29.86 168.61,-30.85"/>
<polygon fill="#63b8ff" stroke="#63b8ff" points="144.99,-24.38 134.63,-26.62 144.12,-31.33 144.99,-24.38"/>
</a>
</g>
</g>
</g>
</svg>
