<?xml version="1.0" encoding="UTF-8" standalone="no"?>
<!DOCTYPE svg PUBLIC "-//W3C//DTD SVG 1.1//EN"
 "http://www.w3.org/Graphics/SVG/1.1/DTD/svg11.dtd">
<!-- Generated by graphviz version 13.1.2 (20250808.2320)
 -->
<!-- Title: DGtal::LambdaMST2DEstimator&lt; TSpace, TSegmentation, Functor &gt; Pages: 1 -->
<!--zoomable 233 -->

<svg id="main" version="1.1" xmlns="http://www.w3.org/2000/svg" xmlns:xlink="http://www.w3.org/1999/xlink" xml:space="preserve" onload="init(evt)">

<style type="text/css"><![CDATA[
.node, .edge {opacity: 0.7;}
.node.selected, .edge.selected {opacity: 1;}
.edge:hover path { stroke: red; }
.edge:hover polygon { stroke: red; fill: red; }
]]></style>

<defs>
  <circle id="rim" cx="0" cy="0" r="7"/>
  <circle id="rim2" cx="0" cy="0" r="3.5"/>
  <g id="zoomPlus">
    <use xlink:href="#rim" fill="#404040"><set attributeName="fill" to="#808080" begin="zoomplus.mouseover" end="zoomplus.mouseout"/></use>
    <path d="M-4,0h8M0,-4v8" fill="none" stroke="white" stroke-width="1.5" pointer-events="none"/>
  </g>
  <g id="zoomMin">
    <use xlink:href="#rim" fill="#404040"><set attributeName="fill" to="#808080" begin="zoomminus.mouseover" end="zoomminus.mouseout"/></use>
    <path d="M-4,0h8" fill="none" stroke="white" stroke-width="1.5" pointer-events="none"/>
  </g>
  <g id="arrowUp" transform="translate(30 24)">
    <use xlink:href="#rim"/>
    <path pointer-events="none" fill="none" stroke="white" stroke-width="1.5" d="M0,-3.0v7 M-2.5,-0.5L0,-3.0L2.5,-0.5"/>
  </g>
  <g id="arrowRight" transform="rotate(90) translate(36 -43)">
    <use xlink:href="#rim"/>
    <path pointer-events="none" fill="none" stroke="white" stroke-width="1.5" d="M0,-3.0v7 M-2.5,-0.5L0,-3.0L2.5,-0.5"/>
  </g>
  <g id="arrowDown" transform="rotate(180) translate(-30 -48)">
    <use xlink:href="#rim"/>
    <path pointer-events="none" fill="none" stroke="white" stroke-width="1.5" d="M0,-3.0v7 M-2.5,-0.5L0,-3.0L2.5,-0.5"/>
  </g>
  <g id="arrowLeft" transform="rotate(270) translate(-36 17)">
    <use xlink:href="#rim"/>
    <path pointer-events="none" fill="none" stroke="white" stroke-width="1.5" d="M0,-3.0v7 M-2.5,-0.5L0,-3.0L2.5,-0.5"/>
  </g>
  <g id="resetDef">
    <use xlink:href="#rim2" fill="#404040"><set attributeName="fill" to="#808080" begin="reset.mouseover" end="reset.mouseout"/></use>
  </g>
</defs>
<script type="application/ecmascript">
var viewWidth = 1245;
var viewHeight = 233;
var sectionId = 'dynsection-0';
</script>
<script type="application/ecmascript" xlink:href="svg.min.js"/>
<svg id="graph" class="graph">
<g id="viewport">
<title>DGtal::LambdaMST2DEstimator&lt; TSpace, TSegmentation, Functor &gt;</title>
<!-- Node1 -->
<g id="Node000001" class="node">
<title>Node1</title>
<g id="a_Node000001"><a xlink:title=" ">
<polygon fill="#999999" stroke="#666666" points="157.75,-128.38 0,-128.38 0,-86.62 157.75,-86.62 157.75,-128.38"/>
<text xml:space="preserve" text-anchor="start" x="8" y="-114.88" font-family="FreeSans" font-size="10.00">DGtal::LambdaMST2DEstimator</text>
<text xml:space="preserve" text-anchor="start" x="8" y="-103.62" font-family="FreeSans" font-size="10.00">&lt; TSpace, TSegmentation,</text>
<text xml:space="preserve" text-anchor="middle" x="78.88" y="-92.38" font-family="FreeSans" font-size="10.00"> Functor &gt;</text>
</a>
</g>
</g>
<!-- Node2 -->
<g id="Node000002" class="node">
<title>Node2</title>
<g id="a_Node000002"><a xlink:href="classDGtal_1_1LambdaMST2D.html" target="_top" xlink:title=" ">
<polygon fill="white" stroke="#666666" points="1236.5,-176.75 1056.25,-176.75 1056.25,-146.25 1236.5,-146.25 1236.5,-176.75"/>
<text xml:space="preserve" text-anchor="start" x="1064.25" y="-163.25" font-family="FreeSans" font-size="10.00">DGtal::LambdaMST2D</text>
<text xml:space="preserve" text-anchor="middle" x="1146.38" y="-152" font-family="FreeSans" font-size="10.00">&lt; Segmentation2D, LambdaFunctor &gt;</text>
</a>
</g>
</g>
<!-- Node1&#45;&gt;Node2 -->
<g id="edge1_Node000001_Node000002" class="edge">
<title>Node1&#45;&gt;Node2</title>
<g id="a_edge1_Node000001_Node000002"><a xlink:title=" ">
<path fill="none" stroke="#63b8ff" d="M111.71,-135.72C129.28,-149.4 152.26,-164.38 175.75,-171.5 496.36,-268.68 904.43,-208.73 1070.25,-177.22"/>
<polygon fill="#63b8ff" stroke="#63b8ff" points="114.2,-133.23 104.21,-129.68 109.8,-138.68 114.2,-133.23"/>
</a>
</g>
</g>
<!-- Node3 -->
<g id="Node000003" class="node">
<title>Node3</title>
<g id="a_Node000003"><a xlink:href="classDGtal_1_1LambdaMST2DEstimator.html" target="_top" xlink:title=" ">
<polygon fill="white" stroke="#666666" points="682.62,-139.62 449.88,-139.62 449.88,-75.38 682.62,-75.38 682.62,-139.62"/>
<text xml:space="preserve" text-anchor="start" x="457.88" y="-126.12" font-family="FreeSans" font-size="10.00">DGtal::LambdaMST2DEstimator</text>
<text xml:space="preserve" text-anchor="start" x="457.88" y="-114.88" font-family="FreeSans" font-size="10.00">&lt; Z2i::Space, DSSSegmentationComputer,</text>
<text xml:space="preserve" text-anchor="start" x="457.88" y="-103.62" font-family="FreeSans" font-size="10.00"> TangentFromDSS2DFunctor&lt; typename</text>
<text xml:space="preserve" text-anchor="start" x="457.88" y="-92.38" font-family="FreeSans" font-size="10.00"> DSSSegmentationComputer::SegmentComputer,</text>
<text xml:space="preserve" text-anchor="middle" x="566.25" y="-81.12" font-family="FreeSans" font-size="10.00"> LambdaFunction &gt; &gt;</text>
</a>
</g>
</g>
<!-- Node1&#45;&gt;Node3 -->
<g id="edge2_Node000001_Node000003" class="edge">
<title>Node1&#45;&gt;Node3</title>
<g id="a_edge2_Node000001_Node000003"><a xlink:title=" ">
<path fill="none" stroke="orange" stroke-dasharray="5,2" d="M169.49,-107.5C248.38,-107.5 363.72,-107.5 449.56,-107.5"/>
<polygon fill="orange" stroke="orange" points="169.64,-104 159.64,-107.5 169.64,-111 169.64,-104"/>
</a>
</g>
<text xml:space="preserve" text-anchor="start" x="198.62" y="-158" font-family="FreeSans" font-size="10.00" fill="grey">&lt; Z2i::Space, DSSSegmentation</text>
<text xml:space="preserve" text-anchor="start" x="198.62" y="-142.75" font-family="FreeSans" font-size="10.00" fill="grey">  Computer, TangentFromDSS2DFunctor</text>
<text xml:space="preserve" text-anchor="start" x="198.62" y="-127.5" font-family="FreeSans" font-size="10.00" fill="grey">  &lt; typename DSSSegmentationComputer</text>
<text xml:space="preserve" text-anchor="start" x="198.62" y="-112.25" font-family="FreeSans" font-size="10.00" fill="grey">  ::SegmentComputer, LambdaFunction &gt; &gt;</text>
</g>
<!-- Node4 -->
<g id="Node000004" class="node">
<title>Node4</title>
<g id="a_Node000004"><a xlink:href="classDGtal_1_1LambdaMST2DEstimator.html" target="_top" xlink:title=" ">
<polygon fill="white" stroke="#666666" points="704,-53 428.5,-53 428.5,0 704,0 704,-53"/>
<text xml:space="preserve" text-anchor="start" x="436.5" y="-39.5" font-family="FreeSans" font-size="10.00">DGtal::LambdaMST2DEstimator</text>
<text xml:space="preserve" text-anchor="start" x="436.5" y="-28.25" font-family="FreeSans" font-size="10.00">&lt; Z2i::Space, DSSSegmentationComputer,</text>
<text xml:space="preserve" text-anchor="start" x="436.5" y="-17" font-family="FreeSans" font-size="10.00"> TangentFromDSS2DFunctor&lt; DSSSegmentationComputer</text>
<text xml:space="preserve" text-anchor="middle" x="566.25" y="-5.75" font-family="FreeSans" font-size="10.00">::SegmentComputer, functors::Lambda64Function &gt; &gt;</text>
</a>
</g>
</g>
<!-- Node1&#45;&gt;Node4 -->
<g id="edge3_Node000001_Node000004" class="edge">
<title>Node1&#45;&gt;Node4</title>
<g id="a_edge3_Node000001_Node000004"><a xlink:title=" ">
<path fill="none" stroke="orange" stroke-dasharray="5,2" d="M110.87,-78.92C128.51,-64.54 151.81,-48.51 175.75,-40.5 256.44,-13.5 351.84,-9.64 428.03,-12.71"/>
<polygon fill="orange" stroke="orange" points="108.74,-76.14 103.35,-85.26 113.25,-81.49 108.74,-76.14"/>
</a>
</g>
<text xml:space="preserve" text-anchor="start" x="178.75" y="-91" font-family="FreeSans" font-size="10.00" fill="grey">&lt; Z2i::Space, DSSSegmentation</text>
<text xml:space="preserve" text-anchor="start" x="178.75" y="-75.75" font-family="FreeSans" font-size="10.00" fill="grey">  Computer, TangentFromDSS2DFunctor</text>
<text xml:space="preserve" text-anchor="start" x="178.75" y="-60.5" font-family="FreeSans" font-size="10.00" fill="grey">  &lt; DSSSegmentationComputer::SegmentComputer,</text>
<text xml:space="preserve" text-anchor="start" x="178.75" y="-45.25" font-family="FreeSans" font-size="10.00" fill="grey">   functors::Lambda64Function &gt; &gt;</text>
</g>
<!-- Node5 -->
<g id="Node000005" class="node">
<title>Node5</title>
<g id="a_Node000005"><a xlink:href="classDGtal_1_1LambdaMST2D.html" target="_top" xlink:title="Aim: Simplify creation of Lambda MST tangent estimator.">
<polygon fill="white" stroke="#666666" points="892,-131.38 741,-131.38 741,-89.62 892,-89.62 892,-131.38"/>
<text xml:space="preserve" text-anchor="start" x="749" y="-117.88" font-family="FreeSans" font-size="10.00">DGtal::LambdaMST2D</text>
<text xml:space="preserve" text-anchor="start" x="749" y="-106.62" font-family="FreeSans" font-size="10.00">&lt; DSSSegmentationComputer,</text>
<text xml:space="preserve" text-anchor="middle" x="816.5" y="-95.38" font-family="FreeSans" font-size="10.00"> LambdaFunction &gt;</text>
</a>
</g>
</g>
<!-- Node4&#45;&gt;Node5 -->
<g id="edge4_Node000004_Node000005" class="edge">
<title>Node4&#45;&gt;Node5</title>
<g id="a_edge4_Node000004_Node000005"><a xlink:title=" ">
<path fill="none" stroke="#63b8ff" d="M674.48,-56.85C684.5,-59.99 694.46,-63.23 704,-66.5 723.88,-73.32 745.43,-81.6 764.24,-89.14"/>
<polygon fill="#63b8ff" stroke="#63b8ff" points="675.64,-53.54 665.05,-53.93 673.57,-60.23 675.64,-53.54"/>
</a>
</g>
</g>
<!-- Node5&#45;&gt;Node2 -->
<g id="edge5_Node000005_Node000002" class="edge">
<title>Node5&#45;&gt;Node2</title>
<g id="a_edge5_Node000005_Node000002"><a xlink:title=" ">
<path fill="none" stroke="orange" stroke-dasharray="5,2" d="M903.61,-120.02C944.51,-124.95 994.02,-131.51 1038.25,-139 1049.96,-140.98 1062.34,-143.34 1074.36,-145.77"/>
<polygon fill="orange" stroke="orange" points="904.16,-116.56 893.81,-118.86 903.33,-123.52 904.16,-116.56"/>
</a>
</g>
<text xml:space="preserve" text-anchor="start" x="913" y="-159" font-family="FreeSans" font-size="10.00" fill="grey">&lt; Segmentation2D, Lambda</text>
<text xml:space="preserve" text-anchor="start" x="913" y="-143.75" font-family="FreeSans" font-size="10.00" fill="grey">  Functor &gt;</text>
</g>
</g>
</svg>

<g id="navigator" transform="translate(0 0)" fill="#404254">
  <rect fill="#f2f5e9" fill-opacity="0.5" stroke="#606060" stroke-width=".5" x="0" y="0" width="60" height="60"/>
  <use id="zoomplus" xlink:href="#zoomPlus" x="17" y="9" onmousedown="handleZoom(evt,'in')"/>
  <use id="zoomminus" xlink:href="#zoomMin" x="42" y="9" onmousedown="handleZoom(evt,'out')"/>
  <use id="reset" xlink:href="#resetDef" x="30" y="36" onmousedown="handleReset()"/>
   <use id="arrowup" xlink:href="#arrowUp" x="0" y="0" onmousedown="handlePan(0,-1)"/>
  <use id="arrowright" xlink:href="#arrowRight" x="0" y="0" onmousedown="handlePan(1,0)"/>
  <use id="arrowdown" xlink:href="#arrowDown" x="0" y="0" onmousedown="handlePan(0,1)"/>
  <use id="arrowleft" xlink:href="#arrowLeft" x="0" y="0" onmousedown="handlePan(-1,0)"/>
</g>
<svg viewBox="0 0 15 15" width="100%" height="30px" preserveAspectRatio="xMaxYMin meet">
 <g id="arrow_out" transform="scale(0.3 0.3)">
  <a xlink:href="classDGtal_1_1LambdaMST2DEstimator__inherit__graph_org.svg" target="_base">
   <rect id="button" ry="5" rx="5" y="6" x="6" height="38" width="38"
        fill="#f2f5e9" fill-opacity="0.5" stroke="#606060" stroke-width="1.0"/>
   <path id="arrow"
     d="M 11.500037,31.436501 C 11.940474,20.09759 22.043105,11.32322 32.158766,21.979434 L 37.068811,17.246167 C 37.068811,17.246167 37.088388,32 37.088388,32 L 22.160133,31.978069 C 22.160133,31.978069 26.997745,27.140456 26.997745,27.140456 C 18.528582,18.264221 13.291696,25.230495 11.500037,31.436501 z"
     style="fill:#404040;"/>
  </a>
 </g>
</svg>

<style type='text/css'>
<![CDATA[
[data-mouse-over-selected='false'] { opacity: 0.7; }
[data-mouse-over-selected='true']  { opacity: 1.0; }
]]>
</style>
<script type="application/ecmascript"><![CDATA[
document.addEventListener('DOMContentLoaded', (event) => {
  highlightEdges();
  highlightAdjacentNodes();
});
]]></script>
</svg>
