<?xml version="1.0" encoding="UTF-8" standalone="no"?>
<!DOCTYPE svg PUBLIC "-//W3C//DTD SVG 1.1//EN"
 "http://www.w3.org/Graphics/SVG/1.1/DTD/svg11.dtd">
<!-- Generated by graphviz version 13.1.2 (20250808.2320)
 -->
<!-- Title: DGtal::ImageContainerBySTLVector&lt; TDomain, TValue &gt; Pages: 1 -->
<!--zoomable 472 -->

<svg id="main" version="1.1" xmlns="http://www.w3.org/2000/svg" xmlns:xlink="http://www.w3.org/1999/xlink" xml:space="preserve" onload="init(evt)">

<style type="text/css"><![CDATA[
.node, .edge {opacity: 0.7;}
.node.selected, .edge.selected {opacity: 1;}
.edge:hover path { stroke: red; }
.edge:hover polygon { stroke: red; fill: red; }
]]></style>

<defs>
  <circle id="rim" cx="0" cy="0" r="7"/>
  <circle id="rim2" cx="0" cy="0" r="3.5"/>
  <g id="zoomPlus">
    <use xlink:href="#rim" fill="#404040"><set attributeName="fill" to="#808080" begin="zoomplus.mouseover" end="zoomplus.mouseout"/></use>
    <path d="M-4,0h8M0,-4v8" fill="none" stroke="white" stroke-width="1.5" pointer-events="none"/>
  </g>
  <g id="zoomMin">
    <use xlink:href="#rim" fill="#404040"><set attributeName="fill" to="#808080" begin="zoomminus.mouseover" end="zoomminus.mouseout"/></use>
    <path d="M-4,0h8" fill="none" stroke="white" stroke-width="1.5" pointer-events="none"/>
  </g>
  <g id="arrowUp" transform="translate(30 24)">
    <use xlink:href="#rim"/>
    <path pointer-events="none" fill="none" stroke="white" stroke-width="1.5" d="M0,-3.0v7 M-2.5,-0.5L0,-3.0L2.5,-0.5"/>
  </g>
  <g id="arrowRight" transform="rotate(90) translate(36 -43)">
    <use xlink:href="#rim"/>
    <path pointer-events="none" fill="none" stroke="white" stroke-width="1.5" d="M0,-3.0v7 M-2.5,-0.5L0,-3.0L2.5,-0.5"/>
  </g>
  <g id="arrowDown" transform="rotate(180) translate(-30 -48)">
    <use xlink:href="#rim"/>
    <path pointer-events="none" fill="none" stroke="white" stroke-width="1.5" d="M0,-3.0v7 M-2.5,-0.5L0,-3.0L2.5,-0.5"/>
  </g>
  <g id="arrowLeft" transform="rotate(270) translate(-36 17)">
    <use xlink:href="#rim"/>
    <path pointer-events="none" fill="none" stroke="white" stroke-width="1.5" d="M0,-3.0v7 M-2.5,-0.5L0,-3.0L2.5,-0.5"/>
  </g>
  <g id="resetDef">
    <use xlink:href="#rim2" fill="#404040"><set attributeName="fill" to="#808080" begin="reset.mouseover" end="reset.mouseout"/></use>
  </g>
</defs>
<script type="application/ecmascript">
var viewWidth = 659;
var viewHeight = 472;
var sectionId = 'dynsection-0';
</script>
<script type="application/ecmascript" xlink:href="svg.min.js"/>
<svg id="graph" class="graph">
<g id="viewport">
<title>DGtal::ImageContainerBySTLVector&lt; TDomain, TValue &gt;</title>
<!-- Node1 -->
<g id="Node000001" class="node">
<title>Node1</title>
<g id="a_Node000001"><a xlink:title=" ">
<polygon fill="#999999" stroke="#666666" points="297.75,-258.5 123.5,-258.5 123.5,-228 297.75,-228 297.75,-258.5"/>
<text xml:space="preserve" text-anchor="start" x="131.5" y="-245" font-family="FreeSans" font-size="10.00">DGtal::ImageContainerBySTLVector</text>
<text xml:space="preserve" text-anchor="middle" x="210.62" y="-233.75" font-family="FreeSans" font-size="10.00">&lt; TDomain, TValue &gt;</text>
</a>
</g>
</g>
<!-- Node3 -->
<g id="Node000003" class="node">
<title>Node3</title>
<g id="a_Node000003"><a xlink:href="classDGtal_1_1ImageContainerBySTLVector.html" target="_top" xlink:title=" ">
<polygon fill="white" stroke="#666666" points="650.5,-454.5 476.25,-454.5 476.25,-424 650.5,-424 650.5,-454.5"/>
<text xml:space="preserve" text-anchor="start" x="484.25" y="-441" font-family="FreeSans" font-size="10.00">DGtal::ImageContainerBySTLVector</text>
<text xml:space="preserve" text-anchor="middle" x="563.38" y="-429.75" font-family="FreeSans" font-size="10.00">&lt; Domain, Storage * &gt;</text>
</a>
</g>
</g>
<!-- Node1&#45;&gt;Node3 -->
<g id="edge2_Node000001_Node000003" class="edge">
<title>Node1&#45;&gt;Node3</title>
<g id="a_edge2_Node000001_Node000003"><a xlink:title=" ">
<path fill="none" stroke="orange" stroke-dasharray="5,2" d="M219.73,-269.63C233.02,-307.96 263.34,-378.06 315.75,-411.25 362.9,-441.1 425.45,-447.92 475.77,-447.37"/>
<polygon fill="orange" stroke="orange" points="223.1,-268.66 216.63,-260.27 216.45,-270.87 223.1,-268.66"/>
</a>
</g>
<text xml:space="preserve" text-anchor="start" x="337.88" y="-451.92" font-family="FreeSans" font-size="10.00" fill="grey">&lt; Domain, Storage * &gt;</text>
</g>
<!-- Node4 -->
<g id="Node000004" class="node">
<title>Node4</title>
<g id="a_Node000004"><a xlink:href="classDGtal_1_1ImageContainerBySTLVector.html" target="_top" xlink:title=" ">
<polygon fill="white" stroke="#666666" points="650.5,-405.5 476.25,-405.5 476.25,-375 650.5,-375 650.5,-405.5"/>
<text xml:space="preserve" text-anchor="start" x="484.25" y="-392" font-family="FreeSans" font-size="10.00">DGtal::ImageContainerBySTLVector</text>
<text xml:space="preserve" text-anchor="middle" x="563.38" y="-380.75" font-family="FreeSans" font-size="10.00">&lt; Domain, bool &gt;</text>
</a>
</g>
</g>
<!-- Node1&#45;&gt;Node4 -->
<g id="edge3_Node000001_Node000004" class="edge">
<title>Node1&#45;&gt;Node4</title>
<g id="a_edge3_Node000001_Node000004"><a xlink:title=" ">
<path fill="none" stroke="orange" stroke-dasharray="5,2" d="M227.41,-268.16C245.39,-294.26 277.33,-334.19 315.75,-354.25 364.85,-379.88 426.5,-388.88 475.89,-391.47"/>
<polygon fill="orange" stroke="orange" points="230.52,-266.53 222.05,-260.17 224.71,-270.42 230.52,-266.53"/>
</a>
</g>
<text xml:space="preserve" text-anchor="start" x="349.12" y="-395" font-family="FreeSans" font-size="10.00" fill="grey">&lt; Domain, bool &gt;</text>
</g>
<!-- Node5 -->
<g id="Node000005" class="node">
<title>Node5</title>
<g id="a_Node000005"><a xlink:href="classDGtal_1_1ImageContainerBySTLVector.html" target="_top" xlink:title=" ">
<polygon fill="white" stroke="#666666" points="650.5,-356.5 476.25,-356.5 476.25,-326 650.5,-326 650.5,-356.5"/>
<text xml:space="preserve" text-anchor="start" x="484.25" y="-343" font-family="FreeSans" font-size="10.00">DGtal::ImageContainerBySTLVector</text>
<text xml:space="preserve" text-anchor="middle" x="563.38" y="-331.75" font-family="FreeSans" font-size="10.00">&lt; Domain, GrayScale &gt;</text>
</a>
</g>
</g>
<!-- Node1&#45;&gt;Node5 -->
<g id="edge4_Node000001_Node000005" class="edge">
<title>Node1&#45;&gt;Node5</title>
<g id="a_edge4_Node000001_Node000005"><a xlink:title=" ">
<path fill="none" stroke="orange" stroke-dasharray="5,2" d="M242.69,-265.24C262.65,-278.31 289.65,-294.08 315.75,-303.25 367.25,-321.34 427.8,-330.83 476.01,-335.8"/>
<polygon fill="orange" stroke="orange" points="244.72,-262.39 234.47,-259.74 240.83,-268.21 244.72,-262.39"/>
</a>
</g>
<text xml:space="preserve" text-anchor="start" x="335.25" y="-338.06" font-family="FreeSans" font-size="10.00" fill="grey">&lt; Domain, GrayScale &gt;</text>
</g>
<!-- Node6 -->
<g id="Node000006" class="node">
<title>Node6</title>
<g id="a_Node000006"><a xlink:href="classDGtal_1_1ImageContainerBySTLVector.html" target="_top" xlink:title=" ">
<polygon fill="white" stroke="#666666" points="650.5,-307.5 476.25,-307.5 476.25,-277 650.5,-277 650.5,-307.5"/>
<text xml:space="preserve" text-anchor="start" x="484.25" y="-294" font-family="FreeSans" font-size="10.00">DGtal::ImageContainerBySTLVector</text>
<text xml:space="preserve" text-anchor="middle" x="563.38" y="-282.75" font-family="FreeSans" font-size="10.00">&lt; Domain, float &gt;</text>
</a>
</g>
</g>
<!-- Node1&#45;&gt;Node6 -->
<g id="edge5_Node000001_Node000006" class="edge">
<title>Node1&#45;&gt;Node6</title>
<g id="a_edge5_Node000001_Node000006"><a xlink:title=" ">
<path fill="none" stroke="orange" stroke-dasharray="5,2" d="M296.42,-260.98C302.95,-262.15 309.45,-263.26 315.75,-264.25 368.75,-272.59 428.53,-279.44 475.96,-284.28"/>
<polygon fill="orange" stroke="orange" points="297.39,-257.6 286.92,-259.23 296.12,-264.48 297.39,-257.6"/>
</a>
</g>
<text xml:space="preserve" text-anchor="start" x="348.75" y="-286.93" font-family="FreeSans" font-size="10.00" fill="grey">&lt; Domain, float &gt;</text>
</g>
<!-- Node7 -->
<g id="Node000007" class="node">
<title>Node7</title>
<g id="a_Node000007"><a xlink:href="classDGtal_1_1ImageContainerBySTLVector.html" target="_top" xlink:title=" ">
<polygon fill="white" stroke="#666666" points="650.5,-258.5 476.25,-258.5 476.25,-228 650.5,-228 650.5,-258.5"/>
<text xml:space="preserve" text-anchor="start" x="484.25" y="-245" font-family="FreeSans" font-size="10.00">DGtal::ImageContainerBySTLVector</text>
<text xml:space="preserve" text-anchor="middle" x="563.38" y="-233.75" font-family="FreeSans" font-size="10.00">&lt; Domain, double &gt;</text>
</a>
</g>
</g>
<!-- Node1&#45;&gt;Node7 -->
<g id="edge6_Node000001_Node000007" class="edge">
<title>Node1&#45;&gt;Node7</title>
<g id="a_edge6_Node000001_Node000007"><a xlink:title=" ">
<path fill="none" stroke="orange" stroke-dasharray="5,2" d="M309.19,-243.25C361.48,-243.25 425.34,-243.25 475.85,-243.25"/>
<polygon fill="orange" stroke="orange" points="309.39,-239.75 299.39,-243.25 309.39,-246.75 309.39,-239.75"/>
</a>
</g>
<text xml:space="preserve" text-anchor="start" x="343.88" y="-248" font-family="FreeSans" font-size="10.00" fill="grey">&lt; Domain, double &gt;</text>
</g>
<!-- Node8 -->
<g id="Node000008" class="node">
<title>Node8</title>
<g id="a_Node000008"><a xlink:href="classDGtal_1_1ImageContainerBySTLVector.html" target="_top" xlink:title=" ">
<polygon fill="white" stroke="#666666" points="650.5,-209.5 476.25,-209.5 476.25,-179 650.5,-179 650.5,-209.5"/>
<text xml:space="preserve" text-anchor="start" x="484.25" y="-196" font-family="FreeSans" font-size="10.00">DGtal::ImageContainerBySTLVector</text>
<text xml:space="preserve" text-anchor="middle" x="563.38" y="-184.75" font-family="FreeSans" font-size="10.00">&lt; Domain, Value &gt;</text>
</a>
</g>
</g>
<!-- Node1&#45;&gt;Node8 -->
<g id="edge7_Node000001_Node000008" class="edge">
<title>Node1&#45;&gt;Node8</title>
<g id="a_edge7_Node000001_Node000008"><a xlink:title=" ">
<path fill="none" stroke="orange" stroke-dasharray="5,2" d="M295.87,-225.39C302.58,-224.17 309.27,-223.02 315.75,-222 368.74,-213.63 428.52,-206.84 475.95,-202.07"/>
<polygon fill="orange" stroke="orange" points="295.25,-221.95 286.07,-227.23 296.54,-228.83 295.25,-221.95"/>
</a>
</g>
<text xml:space="preserve" text-anchor="start" x="346.12" y="-226.75" font-family="FreeSans" font-size="10.00" fill="grey">&lt; Domain, Value &gt;</text>
</g>
<!-- Node9 -->
<g id="Node000009" class="node">
<title>Node9</title>
<g id="a_Node000009"><a xlink:href="classDGtal_1_1ImageContainerBySTLVector.html" target="_top" xlink:title=" ">
<polygon fill="white" stroke="#666666" points="650.5,-160.5 476.25,-160.5 476.25,-130 650.5,-130 650.5,-160.5"/>
<text xml:space="preserve" text-anchor="start" x="484.25" y="-147" font-family="FreeSans" font-size="10.00">DGtal::ImageContainerBySTLVector</text>
<text xml:space="preserve" text-anchor="middle" x="563.38" y="-135.75" font-family="FreeSans" font-size="10.00">&lt; Z2i::Domain, DGtal::int32_t &gt;</text>
</a>
</g>
</g>
<!-- Node1&#45;&gt;Node9 -->
<g id="edge8_Node000001_Node000009" class="edge">
<title>Node1&#45;&gt;Node9</title>
<g id="a_edge8_Node000001_Node000009"><a xlink:title=" ">
<path fill="none" stroke="orange" stroke-dasharray="5,2" d="M235.65,-219.96C255.43,-202.33 285.11,-179.25 315.75,-167.75 366.67,-148.63 427.48,-142.91 475.98,-142.02"/>
<polygon fill="orange" stroke="orange" points="233.42,-217.26 228.4,-226.59 238.14,-222.42 233.42,-217.26"/>
</a>
</g>
<text xml:space="preserve" text-anchor="start" x="340.12" y="-187.75" font-family="FreeSans" font-size="10.00" fill="grey">&lt; Z2i::Domain, DGtal</text>
<text xml:space="preserve" text-anchor="start" x="340.12" y="-172.5" font-family="FreeSans" font-size="10.00" fill="grey">  ::int32_t &gt;</text>
</g>
<!-- Node10 -->
<g id="Node000010" class="node">
<title>Node10</title>
<g id="a_Node000010"><a xlink:href="classDGtal_1_1ImageContainerBySTLVector.html" target="_top" xlink:title=" ">
<polygon fill="white" stroke="#666666" points="650.5,-101.75 476.25,-101.75 476.25,-48.75 650.5,-48.75 650.5,-101.75"/>
<text xml:space="preserve" text-anchor="start" x="484.25" y="-88.25" font-family="FreeSans" font-size="10.00">DGtal::ImageContainerBySTLVector</text>
<text xml:space="preserve" text-anchor="start" x="484.25" y="-77" font-family="FreeSans" font-size="10.00">&lt; HyperRectDomain&lt; Z2i::Space</text>
<text xml:space="preserve" text-anchor="start" x="484.25" y="-65.75" font-family="FreeSans" font-size="10.00"> &gt;, std::unordered_set&lt; Z2i::</text>
<text xml:space="preserve" text-anchor="middle" x="563.38" y="-54.5" font-family="FreeSans" font-size="10.00">Point &gt; &gt;</text>
</a>
</g>
</g>
<!-- Node1&#45;&gt;Node10 -->
<g id="edge9_Node000001_Node000010" class="edge">
<title>Node1&#45;&gt;Node10</title>
<g id="a_edge9_Node000001_Node000010"><a xlink:title=" ">
<path fill="none" stroke="orange" stroke-dasharray="5,2" d="M221.03,-217.27C235.38,-181.85 266.39,-119.6 315.75,-91.5 363.85,-64.11 426.1,-60.2 476.02,-63.06"/>
<polygon fill="orange" stroke="orange" points="217.86,-215.75 217.5,-226.34 224.39,-218.28 217.86,-215.75"/>
</a>
</g>
<text xml:space="preserve" text-anchor="start" x="318.75" y="-126.75" font-family="FreeSans" font-size="10.00" fill="grey">&lt; HyperRectDomain&lt;</text>
<text xml:space="preserve" text-anchor="start" x="318.75" y="-111.5" font-family="FreeSans" font-size="10.00" fill="grey">   Z2i::Space &gt;, std::</text>
<text xml:space="preserve" text-anchor="start" x="318.75" y="-96.25" font-family="FreeSans" font-size="10.00" fill="grey">  unordered_set&lt; Z2i::Point &gt; &gt;</text>
</g>
<!-- Node11 -->
<g id="Node000011" class="node">
<title>Node11</title>
<g id="a_Node000011"><a xlink:href="classDGtal_1_1ImageContainerBySTLVector.html" target="_top" xlink:title=" ">
<polygon fill="white" stroke="#666666" points="650.5,-30.5 476.25,-30.5 476.25,0 650.5,0 650.5,-30.5"/>
<text xml:space="preserve" text-anchor="start" x="484.25" y="-17" font-family="FreeSans" font-size="10.00">DGtal::ImageContainerBySTLVector</text>
<text xml:space="preserve" text-anchor="middle" x="563.38" y="-5.75" font-family="FreeSans" font-size="10.00">&lt; Z2i::Domain, int &gt;</text>
</a>
</g>
</g>
<!-- Node1&#45;&gt;Node11 -->
<g id="edge10_Node000001_Node000011" class="edge">
<title>Node1&#45;&gt;Node11</title>
<g id="a_edge10_Node000001_Node000011"><a xlink:title=" ">
<path fill="none" stroke="orange" stroke-dasharray="5,2" d="M216.9,-216.41C227.23,-171.69 254.68,-82.75 315.75,-41 362.04,-9.35 425.07,-3.24 475.82,-4.88"/>
<polygon fill="orange" stroke="orange" points="213.51,-215.53 214.8,-226.04 220.35,-217.02 213.51,-215.53"/>
</a>
</g>
<text xml:space="preserve" text-anchor="start" x="343.12" y="-45.75" font-family="FreeSans" font-size="10.00" fill="grey">&lt; Z2i::Domain, int &gt;</text>
</g>
<!-- Node2 -->
<g id="Node000002" class="node">
<title>Node2</title>
<g id="a_Node000002"><a xlink:title=" ">
<polygon fill="white" stroke="#666666" points="86.5,-252.88 0,-252.88 0,-233.62 86.5,-233.62 86.5,-252.88"/>
<text xml:space="preserve" text-anchor="middle" x="43.25" y="-239.38" font-family="FreeSans" font-size="10.00">std::vector&lt; T &gt;</text>
</a>
</g>
</g>
<!-- Node2&#45;&gt;Node1 -->
<g id="edge1_Node000001_Node000002" class="edge">
<title>Node2&#45;&gt;Node1</title>
<g id="a_edge1_Node000001_Node000002"><a xlink:title=" ">
<path fill="none" stroke="#63b8ff" d="M98.24,-243.25C106.25,-243.25 114.66,-243.25 123.14,-243.25"/>
<polygon fill="#63b8ff" stroke="#63b8ff" points="98.35,-239.75 88.35,-243.25 98.35,-246.75 98.35,-239.75"/>
</a>
</g>
</g>
</g>
</svg>

<g id="navigator" transform="translate(0 0)" fill="#404254">
  <rect fill="#f2f5e9" fill-opacity="0.5" stroke="#606060" stroke-width=".5" x="0" y="0" width="60" height="60"/>
  <use id="zoomplus" xlink:href="#zoomPlus" x="17" y="9" onmousedown="handleZoom(evt,'in')"/>
  <use id="zoomminus" xlink:href="#zoomMin" x="42" y="9" onmousedown="handleZoom(evt,'out')"/>
  <use id="reset" xlink:href="#resetDef" x="30" y="36" onmousedown="handleReset()"/>
   <use id="arrowup" xlink:href="#arrowUp" x="0" y="0" onmousedown="handlePan(0,-1)"/>
  <use id="arrowright" xlink:href="#arrowRight" x="0" y="0" onmousedown="handlePan(1,0)"/>
  <use id="arrowdown" xlink:href="#arrowDown" x="0" y="0" onmousedown="handlePan(0,1)"/>
  <use id="arrowleft" xlink:href="#arrowLeft" x="0" y="0" onmousedown="handlePan(-1,0)"/>
</g>
<svg viewBox="0 0 15 15" width="100%" height="30px" preserveAspectRatio="xMaxYMin meet">
 <g id="arrow_out" transform="scale(0.3 0.3)">
  <a xlink:href="classDGtal_1_1ImageContainerBySTLVector__inherit__graph_org.svg" target="_base">
   <rect id="button" ry="5" rx="5" y="6" x="6" height="38" width="38"
        fill="#f2f5e9" fill-opacity="0.5" stroke="#606060" stroke-width="1.0"/>
   <path id="arrow"
     d="M 11.500037,31.436501 C 11.940474,20.09759 22.043105,11.32322 32.158766,21.979434 L 37.068811,17.246167 C 37.068811,17.246167 37.088388,32 37.088388,32 L 22.160133,31.978069 C 22.160133,31.978069 26.997745,27.140456 26.997745,27.140456 C 18.528582,18.264221 13.291696,25.230495 11.500037,31.436501 z"
     style="fill:#404040;"/>
  </a>
 </g>
</svg>

<style type='text/css'>
<![CDATA[
[data-mouse-over-selected='false'] { opacity: 0.7; }
[data-mouse-over-selected='true']  { opacity: 1.0; }
]]>
</style>
<script type="application/ecmascript"><![CDATA[
document.addEventListener('DOMContentLoaded', (event) => {
  highlightEdges();
  highlightAdjacentNodes();
});
]]></script>
</svg>
