<?xml version="1.0" encoding="UTF-8" standalone="no"?>
<!DOCTYPE svg PUBLIC "-//W3C//DTD SVG 1.1//EN"
 "http://www.w3.org/Graphics/SVG/1.1/DTD/svg11.dtd">
<!-- Generated by graphviz version 12.2.1 (20241206.2353)
 -->
<!-- Title: DGtal::detail::GridPoint&lt; Integer, Index &gt; Pages: 1 -->
<svg width="322pt" height="116pt"
 viewBox="0.00 0.00 321.75 116.25" xmlns="http://www.w3.org/2000/svg" xmlns:xlink="http://www.w3.org/1999/xlink">
<g id="graph0" class="graph" transform="scale(1 1) rotate(0) translate(4 112.25)">
<title>DGtal::detail::GridPoint&lt; Integer, Index &gt;</title>
<!-- Node1 -->
<g id="Node000001" class="node">
<title>Node1</title>
<g id="a_Node000001"><a xlink:title="A grid point consists of a couple of nonnegative coordinates &#160;and an integer index &#160;that determines a...">
<polygon fill="#999999" stroke="#666666" points="117.25,-108.25 0,-108.25 0,-77.75 117.25,-77.75 117.25,-108.25"/>
<text text-anchor="start" x="8" y="-94.75" font-family="FreeSans" font-size="10.00">DGtal::detail::GridPoint</text>
<text text-anchor="middle" x="58.62" y="-83.5" font-family="FreeSans" font-size="10.00">&lt; Integer, Index &gt;</text>
</a>
</g>
</g>
<!-- Node1&#45;&gt;Node1 -->
<g id="edge1_Node000001_Node000001" class="edge">
<title>Node1&#45;&gt;Node1</title>
<g id="a_edge1_Node000001_Node000001"><a xlink:title=" ">
<path fill="none" stroke="orange" stroke-dasharray="5,2" d="M129.15,-95.43C132.98,-94.83 135.25,-94.03 135.25,-93 135.25,-91.18 128.07,-90.04 117.74,-89.58"/>
<polygon fill="orange" stroke="orange" points="128.91,-91.93 119.25,-96.29 129.51,-98.91 128.91,-91.93"/>
</a>
</g>
<text text-anchor="middle" x="175.38" y="-89.12" font-family="FreeSans" font-size="10.00" fill="grey"> &lt; Integer, Index &gt;</text>
</g>
<!-- Node1&#45;&gt;Node1 -->
<g id="edge2_Node000001_Node000001" class="edge">
<title>Node1&#45;&gt;Node1</title>
<g id="a_edge2_Node000001_Node000001"><a xlink:title=" ">
<path fill="none" stroke="orange" stroke-dasharray="5,2" d="M128.88,-100.03C171.36,-101.11 215.5,-98.77 215.5,-93 215.5,-86.72 163.12,-84.5 117.56,-86.34"/>
<polygon fill="orange" stroke="orange" points="129.18,-96.54 119.07,-99.71 128.95,-103.54 129.18,-96.54"/>
</a>
</g>
<text text-anchor="middle" x="255.62" y="-89.12" font-family="FreeSans" font-size="10.00" fill="grey"> &lt; Integer, Index &gt;</text>
</g>
<!-- Node2 -->
<g id="Node000002" class="node">
<title>Node2</title>
<g id="a_Node000002"><a xlink:href="classDGtal_1_1detail_1_1GridPoint.html" target="_top" xlink:title=" ">
<polygon fill="white" stroke="#666666" points="117.25,-30.5 0,-30.5 0,0 117.25,0 117.25,-30.5"/>
<text text-anchor="start" x="8" y="-17" font-family="FreeSans" font-size="10.00">DGtal::detail::GridPoint</text>
<text text-anchor="middle" x="58.62" y="-5.75" font-family="FreeSans" font-size="10.00">&lt; int, std::size_t &gt;</text>
</a>
</g>
</g>
<!-- Node1&#45;&gt;Node2 -->
<g id="edge3_Node000001_Node000002" class="edge">
<title>Node1&#45;&gt;Node2</title>
<g id="a_edge3_Node000001_Node000002"><a xlink:title=" ">
<path fill="none" stroke="orange" stroke-dasharray="5,2" d="M58.62,-65.97C58.62,-54.21 58.62,-40.76 58.62,-30.81"/>
<polygon fill="orange" stroke="orange" points="55.13,-65.88 58.63,-75.88 62.13,-65.88 55.13,-65.88"/>
</a>
</g>
<text text-anchor="middle" x="100.25" y="-50.25" font-family="FreeSans" font-size="10.00" fill="grey"> &lt; int, std::size_t &gt;</text>
</g>
</g>
</svg>
