<?xml version="1.0" encoding="UTF-8" standalone="no"?>
<!DOCTYPE svg PUBLIC "-//W3C//DTD SVG 1.1//EN"
 "http://www.w3.org/Graphics/SVG/1.1/DTD/svg11.dtd">
<!-- Generated by graphviz version 13.1.2 (20250808.2320)
 -->
<!-- Title: DGtal::ArithmeticalDSSComputerOnSurfels&lt; TKSpace, TIterator, TInteger &gt; Pages: 1 -->
<!--zoomable 245 -->

<svg id="main" version="1.1" xmlns="http://www.w3.org/2000/svg" xmlns:xlink="http://www.w3.org/1999/xlink" xml:space="preserve" onload="init(evt)">

<style type="text/css"><![CDATA[
.node, .edge {opacity: 0.7;}
.node.selected, .edge.selected {opacity: 1;}
.edge:hover path { stroke: red; }
.edge:hover polygon { stroke: red; fill: red; }
]]></style>

<defs>
  <circle id="rim" cx="0" cy="0" r="7"/>
  <circle id="rim2" cx="0" cy="0" r="3.5"/>
  <g id="zoomPlus">
    <use xlink:href="#rim" fill="#404040"><set attributeName="fill" to="#808080" begin="zoomplus.mouseover" end="zoomplus.mouseout"/></use>
    <path d="M-4,0h8M0,-4v8" fill="none" stroke="white" stroke-width="1.5" pointer-events="none"/>
  </g>
  <g id="zoomMin">
    <use xlink:href="#rim" fill="#404040"><set attributeName="fill" to="#808080" begin="zoomminus.mouseover" end="zoomminus.mouseout"/></use>
    <path d="M-4,0h8" fill="none" stroke="white" stroke-width="1.5" pointer-events="none"/>
  </g>
  <g id="arrowUp" transform="translate(30 24)">
    <use xlink:href="#rim"/>
    <path pointer-events="none" fill="none" stroke="white" stroke-width="1.5" d="M0,-3.0v7 M-2.5,-0.5L0,-3.0L2.5,-0.5"/>
  </g>
  <g id="arrowRight" transform="rotate(90) translate(36 -43)">
    <use xlink:href="#rim"/>
    <path pointer-events="none" fill="none" stroke="white" stroke-width="1.5" d="M0,-3.0v7 M-2.5,-0.5L0,-3.0L2.5,-0.5"/>
  </g>
  <g id="arrowDown" transform="rotate(180) translate(-30 -48)">
    <use xlink:href="#rim"/>
    <path pointer-events="none" fill="none" stroke="white" stroke-width="1.5" d="M0,-3.0v7 M-2.5,-0.5L0,-3.0L2.5,-0.5"/>
  </g>
  <g id="arrowLeft" transform="rotate(270) translate(-36 17)">
    <use xlink:href="#rim"/>
    <path pointer-events="none" fill="none" stroke="white" stroke-width="1.5" d="M0,-3.0v7 M-2.5,-0.5L0,-3.0L2.5,-0.5"/>
  </g>
  <g id="resetDef">
    <use xlink:href="#rim2" fill="#404040"><set attributeName="fill" to="#808080" begin="reset.mouseover" end="reset.mouseout"/></use>
  </g>
</defs>
<script type="application/ecmascript">
var viewWidth = 522;
var viewHeight = 245;
var sectionId = 'dynsection-0';
</script>
<script type="application/ecmascript" xlink:href="svg.min.js"/>
<svg id="graph" class="graph">
<g id="viewport">
<title>DGtal::ArithmeticalDSSComputerOnSurfels&lt; TKSpace, TIterator, TInteger &gt;</title>
<!-- Node1 -->
<g id="Node000001" class="node">
<title>Node1</title>
<g id="a_Node000001"><a xlink:title="Aim: This class is a wrapper around ArithmeticalDSS that is devoted to the dynamic recognition of dig...">
<polygon fill="#999999" stroke="#666666" points="163,-140.75 0,-140.75 0,-99 163,-99 163,-140.75"/>
<text xml:space="preserve" text-anchor="start" x="8" y="-127.25" font-family="FreeSans" font-size="10.00">DGtal::ArithmeticalDSSComputer</text>
<text xml:space="preserve" text-anchor="start" x="8" y="-116" font-family="FreeSans" font-size="10.00">OnSurfels&lt; TKSpace, TIterator,</text>
<text xml:space="preserve" text-anchor="middle" x="81.5" y="-104.75" font-family="FreeSans" font-size="10.00"> TInteger &gt;</text>
</a>
</g>
</g>
<!-- Node2 -->
<g id="Node000002" class="node">
<title>Node2</title>
<g id="a_Node000002"><a xlink:href="classDGtal_1_1ArithmeticalDSSComputerOnSurfels.html" target="_top" xlink:title=" ">
<polygon fill="white" stroke="#666666" points="509.38,-230.75 341.12,-230.75 341.12,-189 509.38,-189 509.38,-230.75"/>
<text xml:space="preserve" text-anchor="start" x="349.12" y="-217.25" font-family="FreeSans" font-size="10.00">DGtal::ArithmeticalDSSComputer</text>
<text xml:space="preserve" text-anchor="start" x="349.12" y="-206" font-family="FreeSans" font-size="10.00">OnSurfels&lt; KSpace, ConstIterator,</text>
<text xml:space="preserve" text-anchor="middle" x="425.25" y="-194.75" font-family="FreeSans" font-size="10.00"> TInteger &gt;</text>
</a>
</g>
</g>
<!-- Node1&#45;&gt;Node2 -->
<g id="edge1_Node000001_Node000002" class="edge">
<title>Node1&#45;&gt;Node2</title>
<g id="a_edge1_Node000001_Node000002"><a xlink:title=" ">
<path fill="none" stroke="orange" stroke-dasharray="5,2" d="M121.36,-147.07C138.83,-158.04 160.18,-169.75 181,-176.88 232.41,-194.47 292.95,-202.72 340.77,-206.58"/>
<polygon fill="orange" stroke="orange" points="123.65,-144.39 113.35,-141.92 119.86,-150.27 123.65,-144.39"/>
</a>
</g>
<text xml:space="preserve" text-anchor="start" x="195.62" y="-224.42" font-family="FreeSans" font-size="10.00" fill="grey">&lt; KSpace, ConstIterator,</text>
<text xml:space="preserve" text-anchor="start" x="195.62" y="-209.17" font-family="FreeSans" font-size="10.00" fill="grey">   TInteger &gt;</text>
</g>
<!-- Node3 -->
<g id="Node000003" class="node">
<title>Node3</title>
<g id="a_Node000003"><a xlink:href="classDGtal_1_1ArithmeticalDSSComputerOnSurfels.html" target="_top" xlink:title=" ">
<polygon fill="white" stroke="#666666" points="513.5,-170.75 337,-170.75 337,-129 513.5,-129 513.5,-170.75"/>
<text xml:space="preserve" text-anchor="start" x="345" y="-157.25" font-family="FreeSans" font-size="10.00">DGtal::ArithmeticalDSSComputer</text>
<text xml:space="preserve" text-anchor="start" x="345" y="-146" font-family="FreeSans" font-size="10.00">OnSurfels&lt; KSpace, ReverseIterator</text>
<text xml:space="preserve" text-anchor="middle" x="425.25" y="-134.75" font-family="FreeSans" font-size="10.00">&lt; ConstIterator &gt;, TInteger &gt;</text>
</a>
</g>
</g>
<!-- Node1&#45;&gt;Node3 -->
<g id="edge2_Node000001_Node000003" class="edge">
<title>Node1&#45;&gt;Node3</title>
<g id="a_edge2_Node000001_Node000003"><a xlink:title=" ">
<path fill="none" stroke="orange" stroke-dasharray="5,2" d="M174.7,-127.97C225.05,-132.39 287.05,-137.83 336.66,-142.19"/>
<polygon fill="orange" stroke="orange" points="175.27,-124.5 165,-127.12 174.65,-131.48 175.27,-124.5"/>
</a>
</g>
<text xml:space="preserve" text-anchor="start" x="184" y="-160.17" font-family="FreeSans" font-size="10.00" fill="grey">&lt; KSpace, ReverseIterator</text>
<text xml:space="preserve" text-anchor="start" x="184" y="-144.92" font-family="FreeSans" font-size="10.00" fill="grey">  &lt; ConstIterator &gt;, TInteger &gt;</text>
</g>
<!-- Node4 -->
<g id="Node000004" class="node">
<title>Node4</title>
<g id="a_Node000004"><a xlink:href="classDGtal_1_1ArithmeticalDSSComputerOnSurfels.html" target="_top" xlink:title=" ">
<polygon fill="white" stroke="#666666" points="506.75,-110.75 343.75,-110.75 343.75,-69 506.75,-69 506.75,-110.75"/>
<text xml:space="preserve" text-anchor="start" x="351.75" y="-97.25" font-family="FreeSans" font-size="10.00">DGtal::ArithmeticalDSSComputer</text>
<text xml:space="preserve" text-anchor="start" x="351.75" y="-86" font-family="FreeSans" font-size="10.00">OnSurfels&lt; KSpace, Circulator</text>
<text xml:space="preserve" text-anchor="middle" x="425.25" y="-74.75" font-family="FreeSans" font-size="10.00">&lt; Iterator &gt;, Integer &gt;</text>
</a>
</g>
</g>
<!-- Node1&#45;&gt;Node4 -->
<g id="edge3_Node000001_Node000004" class="edge">
<title>Node1&#45;&gt;Node4</title>
<g id="a_edge3_Node000001_Node000004"><a xlink:title=" ">
<path fill="none" stroke="orange" stroke-dasharray="5,2" d="M161.23,-95.94C167.87,-94.52 174.53,-93.3 181,-92.38 234.73,-84.73 295.81,-84.13 343.32,-85.43"/>
<polygon fill="orange" stroke="orange" points="160.53,-92.51 151.57,-98.17 162.1,-99.34 160.53,-92.51"/>
</a>
</g>
<text xml:space="preserve" text-anchor="start" x="200.12" y="-112.38" font-family="FreeSans" font-size="10.00" fill="grey">&lt; KSpace, Circulator</text>
<text xml:space="preserve" text-anchor="start" x="200.12" y="-97.12" font-family="FreeSans" font-size="10.00" fill="grey">  &lt; Iterator &gt;, Integer &gt;</text>
</g>
<!-- Node5 -->
<g id="Node000005" class="node">
<title>Node5</title>
<g id="a_Node000005"><a xlink:href="classDGtal_1_1ArithmeticalDSSComputerOnSurfels.html" target="_top" xlink:title=" ">
<polygon fill="white" stroke="#666666" points="506.75,-41.75 343.75,-41.75 343.75,0 506.75,0 506.75,-41.75"/>
<text xml:space="preserve" text-anchor="start" x="351.75" y="-28.25" font-family="FreeSans" font-size="10.00">DGtal::ArithmeticalDSSComputer</text>
<text xml:space="preserve" text-anchor="start" x="351.75" y="-17" font-family="FreeSans" font-size="10.00">OnSurfels&lt; KSpace, std::vector</text>
<text xml:space="preserve" text-anchor="middle" x="425.25" y="-5.75" font-family="FreeSans" font-size="10.00">&lt; Surfel &gt;::const_iterator, int &gt;</text>
</a>
</g>
</g>
<!-- Node1&#45;&gt;Node5 -->
<g id="edge4_Node000001_Node000005" class="edge">
<title>Node1&#45;&gt;Node5</title>
<g id="a_edge4_Node000001_Node000005"><a xlink:title=" ">
<path fill="none" stroke="orange" stroke-dasharray="5,2" d="M106.55,-90.09C124.67,-70.05 151.4,-45.16 181,-33.12 232.22,-12.3 294.57,-9.55 343.32,-11.85"/>
<polygon fill="orange" stroke="orange" points="104.04,-87.64 100.08,-97.47 109.3,-92.25 104.04,-87.64"/>
</a>
</g>
<text xml:space="preserve" text-anchor="start" x="191.5" y="-68.38" font-family="FreeSans" font-size="10.00" fill="grey">&lt; KSpace, std::vector</text>
<text xml:space="preserve" text-anchor="start" x="191.5" y="-53.12" font-family="FreeSans" font-size="10.00" fill="grey">  &lt; Surfel &gt;::const_iterator,</text>
<text xml:space="preserve" text-anchor="start" x="191.5" y="-37.88" font-family="FreeSans" font-size="10.00" fill="grey">   int &gt;</text>
</g>
</g>
</svg>

<g id="navigator" transform="translate(0 0)" fill="#404254">
  <rect fill="#f2f5e9" fill-opacity="0.5" stroke="#606060" stroke-width=".5" x="0" y="0" width="60" height="60"/>
  <use id="zoomplus" xlink:href="#zoomPlus" x="17" y="9" onmousedown="handleZoom(evt,'in')"/>
  <use id="zoomminus" xlink:href="#zoomMin" x="42" y="9" onmousedown="handleZoom(evt,'out')"/>
  <use id="reset" xlink:href="#resetDef" x="30" y="36" onmousedown="handleReset()"/>
   <use id="arrowup" xlink:href="#arrowUp" x="0" y="0" onmousedown="handlePan(0,-1)"/>
  <use id="arrowright" xlink:href="#arrowRight" x="0" y="0" onmousedown="handlePan(1,0)"/>
  <use id="arrowdown" xlink:href="#arrowDown" x="0" y="0" onmousedown="handlePan(0,1)"/>
  <use id="arrowleft" xlink:href="#arrowLeft" x="0" y="0" onmousedown="handlePan(-1,0)"/>
</g>
<svg viewBox="0 0 15 15" width="100%" height="30px" preserveAspectRatio="xMaxYMin meet">
 <g id="arrow_out" transform="scale(0.3 0.3)">
  <a xlink:href="classDGtal_1_1ArithmeticalDSSComputerOnSurfels__inherit__graph_org.svg" target="_base">
   <rect id="button" ry="5" rx="5" y="6" x="6" height="38" width="38"
        fill="#f2f5e9" fill-opacity="0.5" stroke="#606060" stroke-width="1.0"/>
   <path id="arrow"
     d="M 11.500037,31.436501 C 11.940474,20.09759 22.043105,11.32322 32.158766,21.979434 L 37.068811,17.246167 C 37.068811,17.246167 37.088388,32 37.088388,32 L 22.160133,31.978069 C 22.160133,31.978069 26.997745,27.140456 26.997745,27.140456 C 18.528582,18.264221 13.291696,25.230495 11.500037,31.436501 z"
     style="fill:#404040;"/>
  </a>
 </g>
</svg>

<style type='text/css'>
<![CDATA[
[data-mouse-over-selected='false'] { opacity: 0.7; }
[data-mouse-over-selected='true']  { opacity: 1.0; }
]]>
</style>
<script type="application/ecmascript"><![CDATA[
document.addEventListener('DOMContentLoaded', (event) => {
  highlightEdges();
  highlightAdjacentNodes();
});
]]></script>
</svg>
