<?xml version="1.0" encoding="UTF-8" standalone="no"?>
<!DOCTYPE svg PUBLIC "-//W3C//DTD SVG 1.1//EN"
 "http://www.w3.org/Graphics/SVG/1.1/DTD/svg11.dtd">
<!-- Generated by graphviz version 7.0.1 (20221109.1506)
 -->
<!-- Title: DGtal::TangentFromDSSEstimator&lt; DSSComputer &gt; Pages: 1 -->
<svg width="801pt" height="62pt"
 viewBox="0.00 0.00 801.00 61.50" xmlns="http://www.w3.org/2000/svg" xmlns:xlink="http://www.w3.org/1999/xlink">
<g id="graph0" class="graph" transform="scale(1 1) rotate(0) translate(4 57.5)">
<title>DGtal::TangentFromDSSEstimator&lt; DSSComputer &gt;</title>
<!-- Node1 -->
<g id="node1" class="node">
<title>Node1</title>
<g id="a_node1"><a xlink:title=" ">
<polygon fill="#999999" stroke="#666666" points="793,-35.5 625,-35.5 625,-5.5 793,-5.5 793,-35.5"/>
<text text-anchor="start" x="633" y="-23.5" font-family="FreeSans" font-size="10.00">DGtal::TangentFromDSSEstimator</text>
<text text-anchor="middle" x="709" y="-12.5" font-family="FreeSans" font-size="10.00">&lt; DSSComputer &gt;</text>
</a>
</g>
</g>
<!-- Node2 -->
<g id="node2" class="node">
<title>Node2</title>
<g id="a_node2"><a xlink:href="classDGtal_1_1detail_1_1PosIndepScaleIndepSCEstimator.html" target="_top" xlink:title=" ">
<polygon fill="white" stroke="#666666" points="588,-41 374,-41 374,0 588,0 588,-41"/>
<text text-anchor="start" x="382" y="-29" font-family="FreeSans" font-size="10.00">DGtal::detail::PosIndepScale</text>
<text text-anchor="start" x="382" y="-18" font-family="FreeSans" font-size="10.00">IndepSCEstimator&lt; DSSComputer,</text>
<text text-anchor="middle" x="481" y="-7" font-family="FreeSans" font-size="10.00"> detail::NormalizedTangentVectorFromDSS &gt;</text>
</a>
</g>
</g>
<!-- Node2&#45;&gt;Node1 -->
<g id="edge1" class="edge">
<title>Node2&#45;&gt;Node1</title>
<path fill="none" stroke="#63b8ff" d="M599.77,-20.5C608.12,-20.5 616.44,-20.5 624.53,-20.5"/>
<polygon fill="#63b8ff" stroke="#63b8ff" points="599.9,-17 589.9,-20.5 599.9,-24 599.9,-17"/>
</g>
<!-- Node3 -->
<g id="node3" class="node">
<title>Node3</title>
<g id="a_node3"><a xlink:href="classDGtal_1_1detail_1_1PosIndepScaleIndepSCEstimator.html" target="_top" xlink:title=" ">
<polygon fill="white" stroke="#666666" points="196,-41 0,-41 0,0 196,0 196,-41"/>
<text text-anchor="start" x="8" y="-29" font-family="FreeSans" font-size="10.00">DGtal::detail::PosIndepScale</text>
<text text-anchor="start" x="8" y="-18" font-family="FreeSans" font-size="10.00">IndepSCEstimator&lt; TSegmentComputer,</text>
<text text-anchor="middle" x="98" y="-7" font-family="FreeSans" font-size="10.00"> Functor, ReturnType &gt;</text>
</a>
</g>
</g>
<!-- Node3&#45;&gt;Node2 -->
<g id="edge2" class="edge">
<title>Node3&#45;&gt;Node2</title>
<path fill="none" stroke="orange" stroke-dasharray="5,2" d="M207.43,-20.5C259.56,-20.5 321.82,-20.5 373.67,-20.5"/>
<polygon fill="orange" stroke="orange" points="207.64,-17 197.64,-20.5 207.64,-24 207.64,-17"/>
<text text-anchor="start" x="214" y="-45.5" font-family="FreeSans" font-size="10.00"> &lt; DSSComputer, detail</text>
<text text-anchor="start" x="214" y="-34.5" font-family="FreeSans" font-size="10.00">::NormalizedTangentVectorFrom</text>
<text text-anchor="middle" x="285" y="-23.5" font-family="FreeSans" font-size="10.00">DSS &gt;</text>
</g>
</g>
</svg>
