<?xml version="1.0" encoding="UTF-8" standalone="no"?>
<!DOCTYPE svg PUBLIC "-//W3C//DTD SVG 1.1//EN"
 "http://www.w3.org/Graphics/SVG/1.1/DTD/svg11.dtd">
<!-- Generated by graphviz version 7.0.1 (20221109.1506)
 -->
<!-- Title: DGtal::TangentFromDCAEstimator&lt; DCAComputer &gt; Pages: 1 -->
<svg width="741pt" height="51pt"
 viewBox="0.00 0.00 741.00 50.50" xmlns="http://www.w3.org/2000/svg" xmlns:xlink="http://www.w3.org/1999/xlink">
<g id="graph0" class="graph" transform="scale(1 1) rotate(0) translate(4 46.5)">
<title>DGtal::TangentFromDCAEstimator&lt; DCAComputer &gt;</title>
<!-- Node1 -->
<g id="node1" class="node">
<title>Node1</title>
<g id="a_node1"><a xlink:title=" ">
<polygon fill="#999999" stroke="#666666" points="733,-35.5 564,-35.5 564,-5.5 733,-5.5 733,-35.5"/>
<text text-anchor="start" x="572" y="-23.5" font-family="FreeSans" font-size="10.00">DGtal::TangentFromDCAEstimator</text>
<text text-anchor="middle" x="648.5" y="-12.5" font-family="FreeSans" font-size="10.00">&lt; DCAComputer &gt;</text>
</a>
</g>
</g>
<!-- Node2 -->
<g id="node2" class="node">
<title>Node2</title>
<g id="a_node2"><a xlink:href="classDGtal_1_1detail_1_1PosDepScaleIndepSCEstimator.html" target="_top" xlink:title=" ">
<polygon fill="white" stroke="#666666" points="527,-41 354,-41 354,0 527,0 527,-41"/>
<text text-anchor="start" x="362" y="-29" font-family="FreeSans" font-size="10.00">DGtal::detail::PosDepScale</text>
<text text-anchor="start" x="362" y="-18" font-family="FreeSans" font-size="10.00">IndepSCEstimator&lt; DCAComputer,</text>
<text text-anchor="middle" x="440.5" y="-7" font-family="FreeSans" font-size="10.00"> detail::TangentVectorFromDCA &gt;</text>
</a>
</g>
</g>
<!-- Node2&#45;&gt;Node1 -->
<g id="edge1" class="edge">
<title>Node2&#45;&gt;Node1</title>
<path fill="none" stroke="#63b8ff" d="M538.73,-20.5C547.09,-20.5 555.51,-20.5 563.75,-20.5"/>
<polygon fill="#63b8ff" stroke="#63b8ff" points="538.88,-17 528.88,-20.5 538.88,-24 538.88,-17"/>
</g>
<!-- Node3 -->
<g id="node3" class="node">
<title>Node3</title>
<g id="a_node3"><a xlink:href="classDGtal_1_1detail_1_1PosDepScaleIndepSCEstimator.html" target="_top" xlink:title=" ">
<polygon fill="white" stroke="#666666" points="196,-41 0,-41 0,0 196,0 196,-41"/>
<text text-anchor="start" x="8" y="-29" font-family="FreeSans" font-size="10.00">DGtal::detail::PosDepScale</text>
<text text-anchor="start" x="8" y="-18" font-family="FreeSans" font-size="10.00">IndepSCEstimator&lt; TSegmentComputer,</text>
<text text-anchor="middle" x="98" y="-7" font-family="FreeSans" font-size="10.00"> Functor, ReturnType &gt;</text>
</a>
</g>
</g>
<!-- Node3&#45;&gt;Node2 -->
<g id="edge2" class="edge">
<title>Node3&#45;&gt;Node2</title>
<path fill="none" stroke="orange" stroke-dasharray="5,2" d="M207.63,-20.5C254.8,-20.5 309.27,-20.5 353.56,-20.5"/>
<polygon fill="orange" stroke="orange" points="207.63,-17 197.63,-20.5 207.63,-24 207.63,-17"/>
<text text-anchor="start" x="214" y="-34.5" font-family="FreeSans" font-size="10.00"> &lt; DCAComputer, detail</text>
<text text-anchor="middle" x="275" y="-23.5" font-family="FreeSans" font-size="10.00">::TangentVectorFromDCA &gt;</text>
</g>
</g>
</svg>
