<?xml version="1.0" encoding="UTF-8" standalone="no"?>
<!DOCTYPE svg PUBLIC "-//W3C//DTD SVG 1.1//EN"
 "http://www.w3.org/Graphics/SVG/1.1/DTD/svg11.dtd">
<!-- Generated by graphviz version 7.0.1 (20221109.1506)
 -->
<!-- Title: DGtal::StarShaped2D&lt; TSpace &gt; Pages: 1 -->
<svg width="570pt" height="346pt"
 viewBox="0.00 0.00 570.00 345.86" xmlns="http://www.w3.org/2000/svg" xmlns:xlink="http://www.w3.org/1999/xlink">
<g id="graph0" class="graph" transform="scale(1 1) rotate(0) translate(4 341.86)">
<title>DGtal::StarShaped2D&lt; TSpace &gt;</title>
<!-- Node1 -->
<g id="node1" class="node">
<title>Node1</title>
<g id="a_node1"><a xlink:title=" ">
<polygon fill="#999999" stroke="#666666" points="112,-196 0,-196 0,-166 112,-166 112,-196"/>
<text text-anchor="start" x="8" y="-184" font-family="FreeSans" font-size="10.00">DGtal::StarShaped2D</text>
<text text-anchor="middle" x="56" y="-173" font-family="FreeSans" font-size="10.00">&lt; TSpace &gt;</text>
</a>
</g>
</g>
<!-- Node2 -->
<g id="node2" class="node">
<title>Node2</title>
<g id="a_node2"><a xlink:href="classDGtal_1_1Astroid2D.html" target="_top" xlink:title=" ">
<polygon fill="white" stroke="#666666" points="562,-307.5 425,-307.5 425,-288.5 562,-288.5 562,-307.5"/>
<text text-anchor="middle" x="493.5" y="-295.5" font-family="FreeSans" font-size="10.00">DGtal::Astroid2D&lt; Space &gt;</text>
</a>
</g>
</g>
<!-- Node1&#45;&gt;Node2 -->
<g id="edge1" class="edge">
<title>Node1&#45;&gt;Node2</title>
<path fill="none" stroke="#63b8ff" d="M71.56,-205.57C93.59,-239.89 139.04,-300.4 197,-322 290.08,-356.69 410.77,-325.43 464.53,-307.95"/>
<polygon fill="#63b8ff" stroke="#63b8ff" points="74.8,-204.15 66.54,-197.52 68.86,-207.85 74.8,-204.15"/>
</g>
<!-- Node3 -->
<g id="node3" class="node">
<title>Node3</title>
<g id="a_node3"><a xlink:href="classDGtal_1_1AccFlower2D.html" target="_top" xlink:title="Aim: Model of the concept StarShaped represents any accelerated flower in the plane.">
<polygon fill="white" stroke="#666666" points="322,-313 215,-313 215,-283 322,-283 322,-313"/>
<text text-anchor="start" x="223" y="-301" font-family="FreeSans" font-size="10.00">DGtal::AccFlower2D</text>
<text text-anchor="middle" x="268.5" y="-290" font-family="FreeSans" font-size="10.00">&lt; TSpace &gt;</text>
</a>
</g>
</g>
<!-- Node1&#45;&gt;Node3 -->
<g id="edge2" class="edge">
<title>Node1&#45;&gt;Node3</title>
<path fill="none" stroke="#63b8ff" d="M84.69,-203.27C111.86,-224.16 155.2,-254.95 197,-274 203.71,-277.06 210.92,-279.94 218.09,-282.58"/>
<polygon fill="#63b8ff" stroke="#63b8ff" points="87.01,-200.64 76.97,-197.26 82.71,-206.17 87.01,-200.64"/>
</g>
<!-- Node4 -->
<g id="node4" class="node">
<title>Node4</title>
<g id="a_node4"><a xlink:href="classDGtal_1_1Astroid2D.html" target="_top" xlink:title="Aim: Model of the concept StarShaped represents an astroid.">
<polygon fill="white" stroke="#666666" points="340,-264.5 197,-264.5 197,-245.5 340,-245.5 340,-264.5"/>
<text text-anchor="middle" x="268.5" y="-252.5" font-family="FreeSans" font-size="10.00">DGtal::Astroid2D&lt; TSpace &gt;</text>
</a>
</g>
</g>
<!-- Node1&#45;&gt;Node4 -->
<g id="edge3" class="edge">
<title>Node1&#45;&gt;Node4</title>
<path fill="none" stroke="#63b8ff" d="M101.62,-200.89C128.81,-212.5 164.47,-226.81 197,-237 206.16,-239.87 216.1,-242.62 225.54,-245.07"/>
<polygon fill="#63b8ff" stroke="#63b8ff" points="103.23,-197.77 92.66,-197.03 100.46,-204.2 103.23,-197.77"/>
</g>
<!-- Node5 -->
<g id="node5" class="node">
<title>Node5</title>
<g id="a_node5"><a xlink:href="classDGtal_1_1Ball2D.html" target="_top" xlink:title="Aim: Model of the concept StarShaped represents any circle in the plane.">
<polygon fill="white" stroke="#666666" points="333,-227.5 204,-227.5 204,-208.5 333,-208.5 333,-227.5"/>
<text text-anchor="middle" x="268.5" y="-215.5" font-family="FreeSans" font-size="10.00">DGtal::Ball2D&lt; TSpace &gt;</text>
</a>
</g>
</g>
<!-- Node1&#45;&gt;Node5 -->
<g id="edge5" class="edge">
<title>Node1&#45;&gt;Node5</title>
<path fill="none" stroke="#63b8ff" d="M123.48,-193.82C125.68,-194.22 127.86,-194.62 130,-195 154.78,-199.45 182.11,-204.08 205.84,-208.01"/>
<polygon fill="#63b8ff" stroke="#63b8ff" points="124.34,-190.42 113.87,-192.04 123.06,-197.3 124.34,-190.42"/>
</g>
<!-- Node6 -->
<g id="node6" class="node">
<title>Node6</title>
<g id="a_node6"><a xlink:href="classDGtal_1_1Ellipse2D.html" target="_top" xlink:title="Aim: Model of the concept StarShaped represents any ellipse in the plane.">
<polygon fill="white" stroke="#666666" points="339.5,-190.5 197.5,-190.5 197.5,-171.5 339.5,-171.5 339.5,-190.5"/>
<text text-anchor="middle" x="268.5" y="-178.5" font-family="FreeSans" font-size="10.00">DGtal::Ellipse2D&lt; TSpace &gt;</text>
</a>
</g>
</g>
<!-- Node1&#45;&gt;Node6 -->
<g id="edge6" class="edge">
<title>Node1&#45;&gt;Node6</title>
<path fill="none" stroke="#63b8ff" d="M123.54,-181C146.96,-181 173.35,-181 197.08,-181"/>
<polygon fill="#63b8ff" stroke="#63b8ff" points="123.82,-177.5 113.82,-181 123.82,-184.5 123.82,-177.5"/>
</g>
<!-- Node7 -->
<g id="node7" class="node">
<title>Node7</title>
<g id="a_node7"><a xlink:href="classDGtal_1_1Flower2D.html" target="_top" xlink:title="Aim: Model of the concept StarShaped represents any flower with k&#45;petals in the plane.">
<polygon fill="white" stroke="#666666" points="339.5,-153.5 197.5,-153.5 197.5,-134.5 339.5,-134.5 339.5,-153.5"/>
<text text-anchor="middle" x="268.5" y="-141.5" font-family="FreeSans" font-size="10.00">DGtal::Flower2D&lt; TSpace &gt;</text>
</a>
</g>
</g>
<!-- Node1&#45;&gt;Node7 -->
<g id="edge7" class="edge">
<title>Node1&#45;&gt;Node7</title>
<path fill="none" stroke="#63b8ff" d="M123.62,-169.29C151.63,-164.37 183.87,-158.7 210.73,-153.98"/>
<polygon fill="#63b8ff" stroke="#63b8ff" points="123.04,-165.84 113.8,-171.02 124.25,-172.73 123.04,-165.84"/>
</g>
<!-- Node8 -->
<g id="node8" class="node">
<title>Node8</title>
<g id="a_node8"><a xlink:href="classDGtal_1_1Lemniscate2D.html" target="_top" xlink:title="Aim: Model of the concept StarShaped represents a lemniscate.">
<polygon fill="white" stroke="#666666" points="324,-116 213,-116 213,-86 324,-86 324,-116"/>
<text text-anchor="start" x="221" y="-104" font-family="FreeSans" font-size="10.00">DGtal::Lemniscate2D</text>
<text text-anchor="middle" x="268.5" y="-93" font-family="FreeSans" font-size="10.00">&lt; TSpace &gt;</text>
</a>
</g>
</g>
<!-- Node1&#45;&gt;Node8 -->
<g id="edge8" class="edge">
<title>Node1&#45;&gt;Node8</title>
<path fill="none" stroke="#63b8ff" d="M105.85,-161.34C132.67,-150.67 166.58,-137.37 197,-126 205.52,-122.82 214.65,-119.51 223.42,-116.38"/>
<polygon fill="#63b8ff" stroke="#63b8ff" points="104.59,-158.08 96.6,-165.03 107.18,-164.58 104.59,-158.08"/>
</g>
<!-- Node9 -->
<g id="node9" class="node">
<title>Node9</title>
<g id="a_node9"><a xlink:href="classDGtal_1_1NGon2D.html" target="_top" xlink:title="Aim: Model of the concept StarShaped represents any regular k&#45;gon in the plane.">
<polygon fill="white" stroke="#666666" points="337.5,-67.5 199.5,-67.5 199.5,-48.5 337.5,-48.5 337.5,-67.5"/>
<text text-anchor="middle" x="268.5" y="-55.5" font-family="FreeSans" font-size="10.00">DGtal::NGon2D&lt; TSpace &gt;</text>
</a>
</g>
</g>
<!-- Node1&#45;&gt;Node9 -->
<g id="edge9" class="edge">
<title>Node1&#45;&gt;Node9</title>
<path fill="none" stroke="#63b8ff" d="M81.61,-158.15C108.18,-134.62 152.69,-98.46 197,-77 204.42,-73.41 212.61,-70.42 220.71,-67.95"/>
<polygon fill="#63b8ff" stroke="#63b8ff" points="79.53,-155.31 74.43,-164.59 84.21,-160.51 79.53,-155.31"/>
</g>
<!-- Node10 -->
<g id="node10" class="node">
<title>Node10</title>
<g id="a_node10"><a xlink:href="classDGtal_1_1StarShaped2D.html" target="_top" xlink:title=" ">
<polygon fill="white" stroke="#666666" points="324.5,-30 212.5,-30 212.5,0 324.5,0 324.5,-30"/>
<text text-anchor="start" x="220.5" y="-18" font-family="FreeSans" font-size="10.00">DGtal::StarShaped2D</text>
<text text-anchor="middle" x="268.5" y="-7" font-family="FreeSans" font-size="10.00">&lt; Space &gt;</text>
</a>
</g>
</g>
<!-- Node1&#45;&gt;Node10 -->
<g id="edge10" class="edge">
<title>Node1&#45;&gt;Node10</title>
<path fill="none" stroke="orange" stroke-dasharray="5,2" d="M69.36,-155.57C81.95,-131.79 103.36,-96.5 130,-73 153.31,-52.43 184.98,-38.4 212.05,-29.3"/>
<polygon fill="orange" stroke="orange" points="66.36,-153.76 64.91,-164.25 72.59,-156.95 66.36,-153.76"/>
<text text-anchor="middle" x="154.5" y="-76" font-family="FreeSans" font-size="10.00"> &lt; Space &gt;</text>
</g>
<!-- Node4&#45;&gt;Node2 -->
<g id="edge4" class="edge">
<title>Node4&#45;&gt;Node2</title>
<path fill="none" stroke="orange" stroke-dasharray="5,2" d="M332.5,-267.15C366.67,-273.74 408.4,-281.78 440.67,-288.01"/>
<polygon fill="orange" stroke="orange" points="333.19,-263.72 322.71,-265.26 331.86,-270.59 333.19,-263.72"/>
<text text-anchor="middle" x="382.5" y="-283" font-family="FreeSans" font-size="10.00"> &lt; Space &gt;</text>
</g>
</g>
</svg>
