<?xml version="1.0" encoding="UTF-8" standalone="no"?>
<!DOCTYPE svg PUBLIC "-//W3C//DTD SVG 1.1//EN"
 "http://www.w3.org/Graphics/SVG/1.1/DTD/svg11.dtd">
<!-- Generated by graphviz version 7.0.1 (20221109.1506)
 -->
<!-- Title: DGtal::CowPtr&lt; T &gt; Pages: 1 -->
<!--zoomable 556 -->
<svg id="main" version="1.1" xmlns="http://www.w3.org/2000/svg" xmlns:xlink="http://www.w3.org/1999/xlink" xml:space="preserve" onload="init(evt)">
<style type="text/css"><![CDATA[
.edge:hover path { stroke: red; }
.edge:hover polygon { stroke: red; fill: red; }
]]></style>
<script type="text/javascript"><![CDATA[
var edges = document.getElementsByTagName('g');
if (edges && edges.length) {
  for (var i=0;i<edges.length;i++) {
    if (edges[i].id.substr(0,4)=='edge') {
      edges[i].setAttribute('class','edge');
    }
  }
}
]]></script>
        <defs>
                <circle id="rim" cx="0" cy="0" r="7"/>
                <circle id="rim2" cx="0" cy="0" r="3.5"/>
                <g id="zoomPlus">
                        <use xlink:href="#rim" fill="#404040">
                                <set attributeName="fill" to="#808080" begin="zoomplus.mouseover" end="zoomplus.mouseout"/>
                        </use>
                        <path d="M-4,0h8M0,-4v8" fill="none" stroke="white" stroke-width="1.5" pointer-events="none"/>
                </g>
                <g id="zoomMin">
                        <use xlink:href="#rim" fill="#404040">
                                <set attributeName="fill" to="#808080" begin="zoomminus.mouseover" end="zoomminus.mouseout"/>
                        </use>
                        <path d="M-4,0h8" fill="none" stroke="white" stroke-width="1.5" pointer-events="none"/>
                </g>
                <g id="dirArrow">
                        <path fill="none" stroke="white" stroke-width="1.5" d="M0,-3.0v7 M-2.5,-0.5L0,-3.0L2.5,-0.5"/>
                </g>
               <g id="resetDef">
                       <use xlink:href="#rim2" fill="#404040">
                               <set attributeName="fill" to="#808080" begin="reset.mouseover" end="reset.mouseout"/>
                       </use>
               </g>
        </defs>

<script type="text/javascript">
var viewWidth = 435;
var viewHeight = 556;
var sectionId = 'dynsection-0';
</script>
<script xlink:href="svgpan.js"/>
<svg id="graph" class="graph">
<g id="viewport">
<title>DGtal::CowPtr&lt; T &gt;</title>
<!-- Node1 -->
<g id="node1" class="node">
<title>Node1</title>
<g id="a_node1"><a xlink:title="Aim: Copy on write shared pointer.">
<polygon fill="#999999" stroke="#666666" points="105,-289.53 0,-289.53 0,-270.53 105,-270.53 105,-289.53"/>
<text text-anchor="middle" x="52.5" y="-277.53" font-family="FreeSans" font-size="10.00">DGtal::CowPtr&lt; T &gt;</text>
</a>
</g>
</g>
<!-- Node2 -->
<g id="node2" class="node">
<title>Node2</title>
<g id="a_node2"><a xlink:href="classDGtal_1_1CowPtr.html" target="_top" xlink:title=" ">
<polygon fill="white" stroke="#666666" points="413.5,-534.53 266.5,-534.53 266.5,-515.53 413.5,-515.53 413.5,-534.53"/>
<text text-anchor="middle" x="340" y="-522.53" font-family="FreeSans" font-size="10.00">DGtal::CowPtr&lt; DummyTbl &gt;</text>
</a>
</g>
</g>
<!-- Node1&#45;&gt;Node2 -->
<g id="edge1" class="edge">
<title>Node1&#45;&gt;Node2</title>
<path fill="none" stroke="orange" stroke-dasharray="5,2" d="M53.01,-301.08C53.22,-346.17 60.69,-452.12 123,-503.03 167.51,-539.4 235.64,-540.25 283.46,-534.99"/>
<polygon fill="orange" stroke="orange" points="56.51,-301.16 53.1,-291.13 49.51,-301.1 56.51,-301.16"/>
<text text-anchor="middle" x="179" y="-540.03" font-family="FreeSans" font-size="10.00"> &lt; DummyTbl &gt;</text>
</g>
<!-- Node3 -->
<g id="node3" class="node">
<title>Node3</title>
<g id="a_node3"><a xlink:href="classDGtal_1_1CowPtr.html" target="_top" xlink:title=" ">
<polygon fill="white" stroke="#666666" points="401,-496.03 279,-496.03 279,-466.03 401,-466.03 401,-496.03"/>
<text text-anchor="start" x="287" y="-484.03" font-family="FreeSans" font-size="10.00">DGtal::CowPtr&lt; DGtal</text>
<text text-anchor="middle" x="340" y="-473.03" font-family="FreeSans" font-size="10.00">::SignalData&lt; Value &gt; &gt;</text>
</a>
</g>
</g>
<!-- Node1&#45;&gt;Node3 -->
<g id="edge2" class="edge">
<title>Node1&#45;&gt;Node3</title>
<path fill="none" stroke="orange" stroke-dasharray="5,2" d="M54.91,-300.97C58.69,-339.11 72.55,-419.49 123,-458.03 146.68,-476.12 223.41,-480.64 278.68,-481.45"/>
<polygon fill="orange" stroke="orange" points="58.42,-300.96 54.1,-291.29 51.44,-301.54 58.42,-300.96"/>
<text text-anchor="start" x="133" y="-493.03" font-family="FreeSans" font-size="10.00"> &lt; DGtal::SignalData</text>
<text text-anchor="middle" x="179" y="-482.03" font-family="FreeSans" font-size="10.00">&lt; Value &gt; &gt;</text>
</g>
<!-- Node4 -->
<g id="node4" class="node">
<title>Node4</title>
<g id="a_node4"><a xlink:href="classDGtal_1_1CowPtr.html" target="_top" xlink:title=" ">
<polygon fill="white" stroke="#666666" points="406.5,-447.53 273.5,-447.53 273.5,-428.53 406.5,-428.53 406.5,-447.53"/>
<text text-anchor="middle" x="340" y="-435.53" font-family="FreeSans" font-size="10.00">DGtal::CowPtr&lt; Domain &gt;</text>
</a>
</g>
</g>
<!-- Node1&#45;&gt;Node4 -->
<g id="edge3" class="edge">
<title>Node1&#45;&gt;Node4</title>
<path fill="none" stroke="orange" stroke-dasharray="5,2" d="M58.3,-300.99C66.27,-330.59 85.23,-383.94 123,-410.03 166.72,-440.22 227.51,-445.71 273.47,-444.51"/>
<polygon fill="orange" stroke="orange" points="61.72,-300.23 55.9,-291.37 54.93,-301.92 61.72,-300.23"/>
<text text-anchor="middle" x="179" y="-446.03" font-family="FreeSans" font-size="10.00"> &lt; Domain &gt;</text>
</g>
<!-- Node5 -->
<g id="node5" class="node">
<title>Node5</title>
<g id="a_node5"><a xlink:href="classDGtal_1_1CowPtr.html" target="_top" xlink:title=" ">
<polygon fill="white" stroke="#666666" points="427,-410.53 253,-410.53 253,-391.53 427,-391.53 427,-410.53"/>
<text text-anchor="middle" x="340" y="-398.53" font-family="FreeSans" font-size="10.00">DGtal::CowPtr&lt; TImageContainer &gt;</text>
</a>
</g>
</g>
<!-- Node1&#45;&gt;Node5 -->
<g id="edge4" class="edge">
<title>Node1&#45;&gt;Node5</title>
<path fill="none" stroke="orange" stroke-dasharray="5,2" d="M64.49,-299.54C76.35,-318.67 97.07,-347.07 123,-362.03 162.03,-384.54 211.09,-394.58 252.59,-398.86"/>
<polygon fill="orange" stroke="orange" points="67.58,-297.88 59.47,-291.06 61.55,-301.45 67.58,-297.88"/>
<text text-anchor="middle" x="179" y="-398.03" font-family="FreeSans" font-size="10.00"> &lt; TImageContainer &gt;</text>
</g>
<!-- Node6 -->
<g id="node6" class="node">
<title>Node6</title>
<g id="a_node6"><a xlink:href="classDGtal_1_1CowPtr.html" target="_top" xlink:title=" ">
<polygon fill="white" stroke="#666666" points="397,-373.03 283,-373.03 283,-343.03 397,-343.03 397,-373.03"/>
<text text-anchor="start" x="291" y="-361.03" font-family="FreeSans" font-size="10.00">DGtal::CowPtr&lt; const</text>
<text text-anchor="middle" x="340" y="-350.03" font-family="FreeSans" font-size="10.00"> Domain &gt;</text>
</a>
</g>
</g>
<!-- Node1&#45;&gt;Node6 -->
<g id="edge5" class="edge">
<title>Node1&#45;&gt;Node6</title>
<path fill="none" stroke="orange" stroke-dasharray="5,2" d="M76.02,-296.17C89.14,-304.82 106.33,-314.92 123,-321.03 175.15,-340.15 238.08,-349.49 282.52,-354"/>
<polygon fill="orange" stroke="orange" points="78.35,-293.52 68.12,-290.78 74.41,-299.3 78.35,-293.52"/>
<text text-anchor="middle" x="179" y="-350.03" font-family="FreeSans" font-size="10.00"> &lt; const Domain &gt;</text>
</g>
<!-- Node7 -->
<g id="node7" class="node">
<title>Node7</title>
<g id="a_node7"><a xlink:href="classDGtal_1_1CowPtr.html" target="_top" xlink:title=" ">
<polygon fill="white" stroke="#666666" points="423,-324.53 257,-324.53 257,-305.53 423,-305.53 423,-324.53"/>
<text text-anchor="middle" x="340" y="-312.53" font-family="FreeSans" font-size="10.00">DGtal::CowPtr&lt; DigitalTopology &gt;</text>
</a>
</g>
</g>
<!-- Node1&#45;&gt;Node7 -->
<g id="edge6" class="edge">
<title>Node1&#45;&gt;Node7</title>
<path fill="none" stroke="orange" stroke-dasharray="5,2" d="M115.03,-291.82C117.72,-292.25 120.39,-292.65 123,-293.03 167.02,-299.38 216.36,-304.55 256.75,-308.28"/>
<polygon fill="orange" stroke="orange" points="115.84,-288.41 105.4,-290.22 114.69,-295.31 115.84,-288.41"/>
<text text-anchor="middle" x="179" y="-309.03" font-family="FreeSans" font-size="10.00"> &lt; DigitalTopology &gt;</text>
</g>
<!-- Node8 -->
<g id="node8" class="node">
<title>Node8</title>
<g id="a_node8"><a xlink:href="classDGtal_1_1CowPtr.html" target="_top" xlink:title=" ">
<polygon fill="white" stroke="#666666" points="411,-287.53 269,-287.53 269,-268.53 411,-268.53 411,-287.53"/>
<text text-anchor="middle" x="340" y="-275.53" font-family="FreeSans" font-size="10.00">DGtal::CowPtr&lt; DigitalSet &gt;</text>
</a>
</g>
</g>
<!-- Node1&#45;&gt;Node8 -->
<g id="edge7" class="edge">
<title>Node1&#45;&gt;Node8</title>
<path fill="none" stroke="orange" stroke-dasharray="5,2" d="M116.58,-279.59C161.56,-279.27 222.07,-278.85 268.62,-278.52"/>
<polygon fill="orange" stroke="orange" points="116.69,-276.09 106.72,-279.66 116.74,-283.09 116.69,-276.09"/>
<text text-anchor="middle" x="179" y="-282.03" font-family="FreeSans" font-size="10.00"> &lt; DigitalSet &gt;</text>
</g>
<!-- Node9 -->
<g id="node9" class="node">
<title>Node9</title>
<g id="a_node9"><a xlink:href="classDGtal_1_1CowPtr.html" target="_top" xlink:title=" ">
<polygon fill="white" stroke="#666666" points="404,-250.03 276,-250.03 276,-220.03 404,-220.03 404,-250.03"/>
<text text-anchor="start" x="284" y="-238.03" font-family="FreeSans" font-size="10.00">DGtal::CowPtr&lt; DGtal</text>
<text text-anchor="middle" x="340" y="-227.03" font-family="FreeSans" font-size="10.00">::SignalData&lt; TValue &gt; &gt;</text>
</a>
</g>
</g>
<!-- Node1&#45;&gt;Node9 -->
<g id="edge8" class="edge">
<title>Node1&#45;&gt;Node9</title>
<path fill="none" stroke="orange" stroke-dasharray="5,2" d="M83.67,-265.54C95.65,-260.42 109.72,-255.15 123,-252.03 173.53,-240.16 232.35,-236.15 275.84,-234.97"/>
<polygon fill="orange" stroke="orange" points="82.44,-262.26 74.73,-269.53 85.29,-268.66 82.44,-262.26"/>
<text text-anchor="start" x="133" y="-266.03" font-family="FreeSans" font-size="10.00"> &lt; DGtal::SignalData</text>
<text text-anchor="middle" x="179" y="-255.03" font-family="FreeSans" font-size="10.00">&lt; TValue &gt; &gt;</text>
</g>
<!-- Node10 -->
<g id="node10" class="node">
<title>Node10</title>
<g id="a_node10"><a xlink:href="classDGtal_1_1CowPtr.html" target="_top" xlink:title=" ">
<polygon fill="white" stroke="#666666" points="413,-202.03 267,-202.03 267,-172.03 413,-172.03 413,-202.03"/>
<text text-anchor="start" x="275" y="-190.03" font-family="FreeSans" font-size="10.00">DGtal::CowPtr&lt; StabbingLine</text>
<text text-anchor="middle" x="340" y="-179.03" font-family="FreeSans" font-size="10.00">Computer&lt; ConstIterator &gt; &gt;</text>
</a>
</g>
</g>
<!-- Node1&#45;&gt;Node10 -->
<g id="edge9" class="edge">
<title>Node1&#45;&gt;Node10</title>
<path fill="none" stroke="orange" stroke-dasharray="5,2" d="M66.48,-260.99C78.89,-244.47 99.22,-221.45 123,-210.03 167.54,-188.65 223.05,-183.13 266.65,-182.84"/>
<polygon fill="orange" stroke="orange" points="63.68,-258.89 60.69,-269.05 69.36,-262.97 63.68,-258.89"/>
<text text-anchor="start" x="123" y="-224.03" font-family="FreeSans" font-size="10.00"> &lt; StabbingLineComputer</text>
<text text-anchor="middle" x="179" y="-213.03" font-family="FreeSans" font-size="10.00">&lt; ConstIterator &gt; &gt;</text>
</g>
<!-- Node11 -->
<g id="node11" class="node">
<title>Node11</title>
<g id="a_node11"><a xlink:href="classDGtal_1_1CowPtr.html" target="_top" xlink:title=" ">
<polygon fill="white" stroke="#666666" points="410,-153.53 270,-153.53 270,-134.53 410,-134.53 410,-153.53"/>
<text text-anchor="middle" x="340" y="-141.53" font-family="FreeSans" font-size="10.00">DGtal::CowPtr&lt; Preimage &gt;</text>
</a>
</g>
</g>
<!-- Node1&#45;&gt;Node11 -->
<g id="edge10" class="edge">
<title>Node1&#45;&gt;Node11</title>
<path fill="none" stroke="orange" stroke-dasharray="5,2" d="M60.11,-259.45C69.58,-233.6 89.64,-190.1 123,-169.03 166.41,-141.62 224.66,-136.27 269.73,-137.29"/>
<polygon fill="orange" stroke="orange" points="56.83,-258.21 56.89,-268.81 63.45,-260.49 56.83,-258.21"/>
<text text-anchor="middle" x="179" y="-172.03" font-family="FreeSans" font-size="10.00"> &lt; Preimage &gt;</text>
</g>
<!-- Node12 -->
<g id="node12" class="node">
<title>Node12</title>
<g id="a_node12"><a xlink:href="classDGtal_1_1CowPtr.html" target="_top" xlink:title=" ">
<polygon fill="white" stroke="#666666" points="407.5,-116.03 272.5,-116.03 272.5,-86.03 407.5,-86.03 407.5,-116.03"/>
<text text-anchor="start" x="280.5" y="-104.03" font-family="FreeSans" font-size="10.00">DGtal::CowPtr&lt; Geometric</text>
<text text-anchor="middle" x="340" y="-93.03" font-family="FreeSans" font-size="10.00">Functor &gt;</text>
</a>
</g>
</g>
<!-- Node1&#45;&gt;Node12 -->
<g id="edge11" class="edge">
<title>Node1&#45;&gt;Node12</title>
<path fill="none" stroke="orange" stroke-dasharray="5,2" d="M56.03,-258.96C61.44,-224.08 77.6,-154.9 123,-122.03 165.73,-91.1 226.32,-87.72 272.46,-91"/>
<polygon fill="orange" stroke="orange" points="52.6,-258.25 54.7,-268.64 59.53,-259.21 52.6,-258.25"/>
<text text-anchor="middle" x="179" y="-125.03" font-family="FreeSans" font-size="10.00"> &lt; GeometricFunctor &gt;</text>
</g>
<!-- Node13 -->
<g id="node13" class="node">
<title>Node13</title>
<g id="a_node13"><a xlink:href="classDGtal_1_1CowPtr.html" target="_top" xlink:title=" ">
<polygon fill="white" stroke="#666666" points="395,-67.53 285,-67.53 285,-48.53 395,-48.53 395,-67.53"/>
<text text-anchor="middle" x="340" y="-55.53" font-family="FreeSans" font-size="10.00">DGtal::CowPtr&lt; A1 &gt;</text>
</a>
</g>
</g>
<!-- Node1&#45;&gt;Node13 -->
<g id="edge12" class="edge">
<title>Node1&#45;&gt;Node13</title>
<path fill="none" stroke="orange" stroke-dasharray="5,2" d="M53.59,-258.82C55.04,-216.16 64.94,-120.21 123,-75.03 171.09,-37.61 244.82,-40.74 292.47,-48.09"/>
<polygon fill="orange" stroke="orange" points="50.09,-258.65 53.4,-268.72 57.09,-258.79 50.09,-258.65"/>
<text text-anchor="middle" x="179" y="-78.03" font-family="FreeSans" font-size="10.00"> &lt; A1 &gt;</text>
</g>
<!-- Node14 -->
<g id="node14" class="node">
<title>Node14</title>
<g id="a_node14"><a xlink:href="classDGtal_1_1CowPtr.html" target="_top" xlink:title=" ">
<polygon fill="white" stroke="#666666" points="401,-30.53 279,-30.53 279,-11.53 401,-11.53 401,-30.53"/>
<text text-anchor="middle" x="340" y="-18.53" font-family="FreeSans" font-size="10.00">DGtal::CowPtr&lt; Point &gt;</text>
</a>
</g>
</g>
<!-- Node1&#45;&gt;Node14 -->
<g id="edge13" class="edge">
<title>Node1&#45;&gt;Node14</title>
<path fill="none" stroke="orange" stroke-dasharray="5,2" d="M56.14,-259.06C63.53,-204.09 86.31,-58.03 123,-29.03 175.11,12.16 258.42,0.21 304.87,-11.08"/>
<polygon fill="orange" stroke="orange" points="52.71,-258.28 54.89,-268.65 59.65,-259.19 52.71,-258.28"/>
<text text-anchor="middle" x="179" y="-32.03" font-family="FreeSans" font-size="10.00"> &lt; Point &gt;</text>
</g>
</g>
</svg>
        <g id="navigator" transform="translate(0 0)" fill="#404254">
                <rect fill="#f2f5e9" fill-opacity="0.5" stroke="#606060" stroke-width=".5" x="0" y="0" width="60" height="60"/>
                <use id="zoomplus" xlink:href="#zoomPlus" x="17" y="9" onmousedown="handleZoom(evt,'in')"/>
                <use id="zoomminus" xlink:href="#zoomMin" x="42" y="9" onmousedown="handleZoom(evt,'out')"/>
                <use id="reset" xlink:href="#resetDef" x="30" y="36" onmousedown="handleReset()"/>
                <g id="arrowUp" xlink:href="#dirArrow" transform="translate(30 24)" onmousedown="handlePan(0,-1)">
                  <use xlink:href="#rim" fill="#404040">
                        <set attributeName="fill" to="#808080" begin="arrowUp.mouseover" end="arrowUp.mouseout"/>
                  </use>
                  <path fill="none" stroke="white" stroke-width="1.5" d="M0,-3.0v7 M-2.5,-0.5L0,-3.0L2.5,-0.5"/>
                </g>
                <g id="arrowRight" xlink:href="#dirArrow" transform="rotate(90) translate(36 -43)" onmousedown="handlePan(1,0)">
                  <use xlink:href="#rim" fill="#404040">
                        <set attributeName="fill" to="#808080" begin="arrowRight.mouseover" end="arrowRight.mouseout"/>
                  </use>
                  <path fill="none" stroke="white" stroke-width="1.5" d="M0,-3.0v7 M-2.5,-0.5L0,-3.0L2.5,-0.5"/>
                </g>
                <g id="arrowDown" xlink:href="#dirArrow" transform="rotate(180) translate(-30 -48)" onmousedown="handlePan(0,1)">
                  <use xlink:href="#rim" fill="#404040">
                        <set attributeName="fill" to="#808080" begin="arrowDown.mouseover" end="arrowDown.mouseout"/>
                  </use>
                  <path fill="none" stroke="white" stroke-width="1.5" d="M0,-3.0v7 M-2.5,-0.5L0,-3.0L2.5,-0.5"/>
                </g>
                <g id="arrowLeft" xlink:href="#dirArrow" transform="rotate(270) translate(-36 17)" onmousedown="handlePan(-1,0)">
                  <use xlink:href="#rim" fill="#404040">
                        <set attributeName="fill" to="#808080" begin="arrowLeft.mouseover" end="arrowLeft.mouseout"/>
                  </use>
                  <path fill="none" stroke="white" stroke-width="1.5" d="M0,-3.0v7 M-2.5,-0.5L0,-3.0L2.5,-0.5"/>
                </g>
        </g>
        <svg viewBox="0 0 15 15" width="100%" height="30px" preserveAspectRatio="xMaxYMin meet">
         <g id="arrow_out" transform="scale(0.3 0.3)">
          <a xlink:href="classDGtal_1_1CowPtr__inherit__graph_org.svg" target="_base">
           <rect id="button" ry="5" rx="5" y="6" x="6" height="38" width="38"
                fill="#f2f5e9" fill-opacity="0.5" stroke="#606060" stroke-width="1.0"/>
           <path id="arrow"
             d="M 11.500037,31.436501 C 11.940474,20.09759 22.043105,11.32322 32.158766,21.979434 L 37.068811,17.246167 C 37.068811,17.246167 37.088388,32 37.088388,32 L 22.160133,31.978069 C 22.160133,31.978069 26.997745,27.140456 26.997745,27.140456 C 18.528582,18.264221 13.291696,25.230495 11.500037,31.436501 z"
             style="fill:#404040;"/>
          </a>
         </g>
        </svg>
</svg>
