<?xml version="1.0" encoding="UTF-8" standalone="no"?>
<!DOCTYPE svg PUBLIC "-//W3C//DTD SVG 1.1//EN"
 "http://www.w3.org/Graphics/SVG/1.1/DTD/svg11.dtd">
<!-- Generated by graphviz version 13.0.1 (20250615.1724)
 -->
<!-- Title: DGtal::DirichletConditions&lt; TLinearAlgebraBackend &gt; Pages: 1 -->
<svg width="401pt" height="88pt"
 viewBox="0.00 0.00 401.00 88.00" xmlns="http://www.w3.org/2000/svg" xmlns:xlink="http://www.w3.org/1999/xlink">
<g id="graph0" class="graph" transform="scale(1 1) rotate(0) translate(4 83.5)">
<title>DGtal::DirichletConditions&lt; TLinearAlgebraBackend &gt;</title>
<!-- Node1 -->
<g id="Node000001" class="node">
<title>Node1</title>
<g id="a_Node000001"><a xlink:title="Aim: A helper class to solve a system with Dirichlet boundary conditions.">
<polygon fill="#999999" stroke="#666666" points="137.5,-54.5 0,-54.5 0,-24 137.5,-24 137.5,-54.5"/>
<text xml:space="preserve" text-anchor="start" x="8" y="-41" font-family="FreeSans" font-size="10.00">DGtal::DirichletConditions</text>
<text xml:space="preserve" text-anchor="middle" x="68.75" y="-29.75" font-family="FreeSans" font-size="10.00">&lt; TLinearAlgebraBackend &gt;</text>
</a>
</g>
</g>
<!-- Node2 -->
<g id="Node000002" class="node">
<title>Node2</title>
<g id="a_Node000002"><a xlink:href="classDGtal_1_1DirichletConditions.html" target="_top" xlink:title=" ">
<polygon fill="white" stroke="#666666" points="392.75,-79.5 262.75,-79.5 262.75,-49 392.75,-49 392.75,-79.5"/>
<text xml:space="preserve" text-anchor="start" x="270.75" y="-66" font-family="FreeSans" font-size="10.00">DGtal::DirichletConditions</text>
<text xml:space="preserve" text-anchor="middle" x="327.75" y="-54.75" font-family="FreeSans" font-size="10.00">&lt; LinAlgBackend &gt;</text>
</a>
</g>
</g>
<!-- Node1&#45;&gt;Node2 -->
<g id="edge1_Node000001_Node000002" class="edge">
<title>Node1&#45;&gt;Node2</title>
<g id="a_edge1_Node000001_Node000002"><a xlink:title=" ">
<path fill="none" stroke="orange" stroke-dasharray="5,2" d="M149.05,-46.96C185.54,-50.51 228.25,-54.67 262.66,-58.02"/>
<polygon fill="orange" stroke="orange" points="149.74,-43.52 139.45,-46.03 149.07,-50.48 149.74,-43.52"/>
</a>
</g>
<text xml:space="preserve" text-anchor="start" x="158.5" y="-60.91" font-family="FreeSans" font-size="10.00" fill="grey">&lt; LinAlgBackend &gt;</text>
</g>
<!-- Node3 -->
<g id="Node000003" class="node">
<title>Node3</title>
<g id="a_Node000003"><a xlink:href="classDGtal_1_1DirichletConditions.html" target="_top" xlink:title=" ">
<polygon fill="white" stroke="#666666" points="392.75,-30.5 262.75,-30.5 262.75,0 392.75,0 392.75,-30.5"/>
<text xml:space="preserve" text-anchor="start" x="270.75" y="-17" font-family="FreeSans" font-size="10.00">DGtal::DirichletConditions</text>
<text xml:space="preserve" text-anchor="middle" x="327.75" y="-5.75" font-family="FreeSans" font-size="10.00">&lt; PC::LinAlg &gt;</text>
</a>
</g>
</g>
<!-- Node1&#45;&gt;Node3 -->
<g id="edge2_Node000001_Node000003" class="edge">
<title>Node1&#45;&gt;Node3</title>
<g id="a_edge2_Node000001_Node000003"><a xlink:title=" ">
<path fill="none" stroke="orange" stroke-dasharray="5,2" d="M149.29,-25.73C151.38,-25.47 153.45,-25.23 155.5,-25 190.72,-21.08 230.2,-18.7 262.37,-17.27"/>
<polygon fill="orange" stroke="orange" points="148.95,-22.24 139.49,-27.03 149.87,-29.18 148.95,-22.24"/>
</a>
</g>
<text xml:space="preserve" text-anchor="start" x="167.5" y="-29.75" font-family="FreeSans" font-size="10.00" fill="grey">&lt; PC::LinAlg &gt;</text>
</g>
</g>
</svg>
