<?xml version="1.0" encoding="UTF-8" standalone="no"?>
<!DOCTYPE svg PUBLIC "-//W3C//DTD SVG 1.1//EN"
 "http://www.w3.org/Graphics/SVG/1.1/DTD/svg11.dtd">
<!-- Generated by graphviz version 13.1.2 (20250808.2320)
 -->
<!-- Title: DGtal::DepthFirstVisitor&lt; TGraph, TMarkSet &gt; Pages: 1 -->
<svg width="375pt" height="39pt"
 viewBox="0.00 0.00 375.00 39.00" xmlns="http://www.w3.org/2000/svg" xmlns:xlink="http://www.w3.org/1999/xlink">
<g id="graph0" class="graph" transform="scale(1 1) rotate(0) translate(4 34.5)">
<title>DGtal::DepthFirstVisitor&lt; TGraph, TMarkSet &gt;</title>
<!-- Node1 -->
<g id="Node000001" class="node">
<title>Node1</title>
<g id="a_Node000001"><a xlink:title="Aim: This class is useful to perform a depth&#45;first exploration of a graph given a starting point or s...">
<polygon fill="#999999" stroke="#666666" points="121,-30.5 0,-30.5 0,0 121,0 121,-30.5"/>
<text xml:space="preserve" text-anchor="start" x="8" y="-17" font-family="FreeSans" font-size="10.00">DGtal::DepthFirstVisitor</text>
<text xml:space="preserve" text-anchor="middle" x="60.5" y="-5.75" font-family="FreeSans" font-size="10.00">&lt; TGraph, TMarkSet &gt;</text>
</a>
</g>
</g>
<!-- Node1&#45;&gt;Node1 -->
<g id="edge1_Node000001_Node000001" class="edge">
<title>Node1&#45;&gt;Node1</title>
<g id="a_edge1_Node000001_Node000001"><a xlink:title=" ">
<path fill="none" stroke="orange" stroke-dasharray="5,2" d="M132.87,-17.14C136.72,-16.68 139,-16.05 139,-15.25 139,-13.84 131.79,-12.95 121.39,-12.58"/>
<polygon fill="orange" stroke="orange" points="132.64,-13.65 122.9,-17.82 133.12,-20.63 132.64,-13.65"/>
</a>
</g>
<text xml:space="preserve" text-anchor="start" x="142" y="-11.38" font-family="FreeSans" font-size="10.00" fill="grey">&lt; TGraph, TMarkSet &gt;</text>
</g>
<!-- Node1&#45;&gt;Node1 -->
<g id="edge2_Node000001_Node000001" class="edge">
<title>Node1&#45;&gt;Node1</title>
<g id="a_edge2_Node000001_Node000001"><a xlink:title=" ">
<path fill="none" stroke="orange" stroke-dasharray="5,2" d="M132.46,-20.61C184.71,-21.81 244,-20.02 244,-15.25 244,-10.13 175.69,-8.45 121.1,-10.21"/>
<polygon fill="orange" stroke="orange" points="132.7,-17.11 122.61,-20.33 132.51,-24.11 132.7,-17.11"/>
</a>
</g>
<text xml:space="preserve" text-anchor="start" x="247" y="-11.38" font-family="FreeSans" font-size="10.00" fill="grey">&lt; TGraph, TMarkSet &gt;</text>
</g>
</g>
</svg>
