<?xml version="1.0" encoding="UTF-8" standalone="no"?>
<!DOCTYPE svg PUBLIC "-//W3C//DTD SVG 1.1//EN"
 "http://www.w3.org/Graphics/SVG/1.1/DTD/svg11.dtd">
<!-- Generated by graphviz version 11.0.0 (20240428.1522)
 -->
<!-- Title: DGtal::VoxelComplex&lt; TKSpace, TCellContainer &gt; Pages: 1 -->
<svg width="946pt" height="88pt"
 viewBox="0.00 0.00 945.75 87.50" xmlns="http://www.w3.org/2000/svg" xmlns:xlink="http://www.w3.org/1999/xlink">
<g id="graph0" class="graph" transform="scale(1 1) rotate(0) translate(4 83.5)">
<title>DGtal::VoxelComplex&lt; TKSpace, TCellContainer &gt;</title>
<!-- Node1 -->
<g id="Node000001" class="node">
<title>Node1</title>
<g id="a_Node000001"><a xlink:title="This class represents a voxel complex living in some Khalimsky space. Voxel complexes are derived fro...">
<polygon fill="#999999" stroke="#666666" points="668.25,-54.5 522.5,-54.5 522.5,-24 668.25,-24 668.25,-54.5"/>
<text text-anchor="start" x="530.5" y="-41" font-family="FreeSans" font-size="10.00">DGtal::VoxelComplex</text>
<text text-anchor="middle" x="595.38" y="-29.75" font-family="FreeSans" font-size="10.00">&lt; TKSpace, TCellContainer &gt;</text>
</a>
</g>
</g>
<!-- Node4 -->
<g id="Node000004" class="node">
<title>Node4</title>
<g id="a_Node000004"><a xlink:href="classDGtal_1_1VoxelComplex.html" target="_top" xlink:title=" ">
<polygon fill="white" stroke="#666666" points="931.75,-79.5 820.5,-79.5 820.5,-49 931.75,-49 931.75,-79.5"/>
<text text-anchor="start" x="828.5" y="-66" font-family="FreeSans" font-size="10.00">DGtal::VoxelComplex</text>
<text text-anchor="middle" x="876.12" y="-54.75" font-family="FreeSans" font-size="10.00">&lt; KSpace &gt;</text>
</a>
</g>
</g>
<!-- Node1&#45;&gt;Node4 -->
<g id="edge3_Node000001_Node000004" class="edge">
<title>Node1&#45;&gt;Node4</title>
<g id="a_edge3_Node000001_Node000004"><a xlink:title=" ">
<path fill="none" stroke="orange" stroke-dasharray="5,2" d="M679.83,-46.74C725.19,-50.8 780.01,-55.72 820.01,-59.31"/>
<polygon fill="orange" stroke="orange" points="680.3,-43.26 670.03,-45.86 679.68,-50.24 680.3,-43.26"/>
</a>
</g>
<text text-anchor="middle" x="741.38" y="-58" font-family="FreeSans" font-size="10.00" fill="grey"> &lt; KSpace &gt;</text>
</g>
<!-- Node5 -->
<g id="Node000005" class="node">
<title>Node5</title>
<g id="a_Node000005"><a xlink:href="classDGtal_1_1VoxelComplex.html" target="_top" xlink:title=" ">
<polygon fill="white" stroke="#666666" points="937.75,-30.5 814.5,-30.5 814.5,0 937.75,0 937.75,-30.5"/>
<text text-anchor="start" x="822.5" y="-17" font-family="FreeSans" font-size="10.00">DGtal::VoxelComplex</text>
<text text-anchor="middle" x="876.12" y="-5.75" font-family="FreeSans" font-size="10.00">&lt; KSpace, FixtureMap &gt;</text>
</a>
</g>
</g>
<!-- Node1&#45;&gt;Node5 -->
<g id="edge4_Node000001_Node000005" class="edge">
<title>Node1&#45;&gt;Node5</title>
<g id="a_edge4_Node000001_Node000005"><a xlink:title=" ">
<path fill="none" stroke="orange" stroke-dasharray="5,2" d="M679.67,-31.58C681.89,-31.38 684.08,-31.19 686.25,-31 729.03,-27.25 777.27,-23.23 814.3,-20.19"/>
<polygon fill="orange" stroke="orange" points="679.64,-28.07 669.99,-32.44 680.26,-35.04 679.64,-28.07"/>
</a>
</g>
<text text-anchor="middle" x="741.38" y="-33" font-family="FreeSans" font-size="10.00" fill="grey"> &lt; KSpace, FixtureMap &gt;</text>
</g>
<!-- Node2 -->
<g id="Node000002" class="node">
<title>Node2</title>
<g id="a_Node000002"><a xlink:href="classDGtal_1_1CubicalComplex.html" target="_top" xlink:title=" ">
<polygon fill="white" stroke="#666666" points="486.5,-65.75 307.75,-65.75 307.75,-12.75 486.5,-12.75 486.5,-65.75"/>
<text text-anchor="start" x="315.75" y="-52.25" font-family="FreeSans" font-size="10.00">DGtal::CubicalComplex</text>
<text text-anchor="start" x="315.75" y="-41" font-family="FreeSans" font-size="10.00">&lt; TKSpace, typename TKSpace</text>
<text text-anchor="start" x="315.75" y="-29.75" font-family="FreeSans" font-size="10.00">::template CellMap&lt; CubicalCellData</text>
<text text-anchor="middle" x="397.12" y="-18.5" font-family="FreeSans" font-size="10.00"> &gt;::Type &gt;</text>
</a>
</g>
</g>
<!-- Node2&#45;&gt;Node1 -->
<g id="edge1_Node000001_Node000002" class="edge">
<title>Node2&#45;&gt;Node1</title>
<g id="a_edge1_Node000001_Node000002"><a xlink:title=" ">
<path fill="none" stroke="#63b8ff" d="M498.23,-39.25C506.34,-39.25 514.43,-39.25 522.29,-39.25"/>
<polygon fill="#63b8ff" stroke="#63b8ff" points="498.29,-35.75 488.29,-39.25 498.29,-42.75 498.29,-35.75"/>
</a>
</g>
</g>
<!-- Node3 -->
<g id="Node000003" class="node">
<title>Node3</title>
<g id="a_Node000003"><a xlink:href="classDGtal_1_1CubicalComplex.html" target="_top" xlink:title="Aim: This class represents an arbitrary cubical complex living in some Khalimsky space....">
<polygon fill="white" stroke="#666666" points="145.75,-54.5 0,-54.5 0,-24 145.75,-24 145.75,-54.5"/>
<text text-anchor="start" x="8" y="-41" font-family="FreeSans" font-size="10.00">DGtal::CubicalComplex</text>
<text text-anchor="middle" x="72.88" y="-29.75" font-family="FreeSans" font-size="10.00">&lt; TKSpace, TCellContainer &gt;</text>
</a>
</g>
</g>
<!-- Node3&#45;&gt;Node2 -->
<g id="edge2_Node000002_Node000003" class="edge">
<title>Node3&#45;&gt;Node2</title>
<g id="a_edge2_Node000002_Node000003"><a xlink:title=" ">
<path fill="none" stroke="orange" stroke-dasharray="5,2" d="M157.64,-39.25C203.62,-39.25 260.63,-39.25 307.38,-39.25"/>
<polygon fill="orange" stroke="orange" points="157.71,-35.75 147.71,-39.25 157.71,-42.75 157.71,-35.75"/>
</a>
</g>
<text text-anchor="start" x="163.75" y="-63.5" font-family="FreeSans" font-size="10.00" fill="grey"> &lt; TKSpace, typename</text>
<text text-anchor="start" x="163.75" y="-52.25" font-family="FreeSans" font-size="10.00" fill="grey"> TKSpace::template CellMap</text>
<text text-anchor="middle" x="226.75" y="-41" font-family="FreeSans" font-size="10.00" fill="grey">&lt; CubicalCellData &gt;::Type &gt;</text>
</g>
</g>
</svg>
