<?xml version="1.0" encoding="UTF-8" standalone="no"?>
<!DOCTYPE svg PUBLIC "-//W3C//DTD SVG 1.1//EN"
 "http://www.w3.org/Graphics/SVG/1.1/DTD/svg11.dtd">
<!-- Generated by graphviz version 13.0.1 (20250615.1724)
 -->
<!-- Title: DGtal::InputIteratorWithRankOnSequence&lt; TSequence, TRank &gt; Pages: 1 -->
<!--zoomable 110 -->

<svg id="main" version="1.1" xmlns="http://www.w3.org/2000/svg" xmlns:xlink="http://www.w3.org/1999/xlink" xml:space="preserve" onload="init(evt)">

<style type="text/css"><![CDATA[
.node, .edge {opacity: 0.7;}
.node.selected, .edge.selected {opacity: 1;}
.edge:hover path { stroke: red; }
.edge:hover polygon { stroke: red; fill: red; }
]]></style>

<defs>
  <circle id="rim" cx="0" cy="0" r="7"/>
  <circle id="rim2" cx="0" cy="0" r="3.5"/>
  <g id="zoomPlus">
    <use xlink:href="#rim" fill="#404040"><set attributeName="fill" to="#808080" begin="zoomplus.mouseover" end="zoomplus.mouseout"/></use>
    <path d="M-4,0h8M0,-4v8" fill="none" stroke="white" stroke-width="1.5" pointer-events="none"/>
  </g>
  <g id="zoomMin">
    <use xlink:href="#rim" fill="#404040"><set attributeName="fill" to="#808080" begin="zoomminus.mouseover" end="zoomminus.mouseout"/></use>
    <path d="M-4,0h8" fill="none" stroke="white" stroke-width="1.5" pointer-events="none"/>
  </g>
  <g id="arrowUp" transform="translate(30 24)">
    <use xlink:href="#rim"/>
    <path pointer-events="none" fill="none" stroke="white" stroke-width="1.5" d="M0,-3.0v7 M-2.5,-0.5L0,-3.0L2.5,-0.5"/>
  </g>
  <g id="arrowRight" transform="rotate(90) translate(36 -43)">
    <use xlink:href="#rim"/>
    <path pointer-events="none" fill="none" stroke="white" stroke-width="1.5" d="M0,-3.0v7 M-2.5,-0.5L0,-3.0L2.5,-0.5"/>
  </g>
  <g id="arrowDown" transform="rotate(180) translate(-30 -48)">
    <use xlink:href="#rim"/>
    <path pointer-events="none" fill="none" stroke="white" stroke-width="1.5" d="M0,-3.0v7 M-2.5,-0.5L0,-3.0L2.5,-0.5"/>
  </g>
  <g id="arrowLeft" transform="rotate(270) translate(-36 17)">
    <use xlink:href="#rim"/>
    <path pointer-events="none" fill="none" stroke="white" stroke-width="1.5" d="M0,-3.0v7 M-2.5,-0.5L0,-3.0L2.5,-0.5"/>
  </g>
  <g id="resetDef">
    <use xlink:href="#rim2" fill="#404040"><set attributeName="fill" to="#808080" begin="reset.mouseover" end="reset.mouseout"/></use>
  </g>
</defs>
<script type="application/ecmascript">
var viewWidth = 516;
var viewHeight = 110;
var sectionId = 'dynsection-0';
</script>
<script type="application/ecmascript" xlink:href="svg.min.js"/>
<svg id="graph" class="graph">
<g id="viewport">
<title>DGtal::InputIteratorWithRankOnSequence&lt; TSequence, TRank &gt;</title>
<!-- Node1 -->
<g id="Node000001" class="node">
<title>Node1</title>
<g id="a_Node000001"><a xlink:title="Aim: Useful to create an iterator that returns a pair (value,rank) when visiting a sequence....">
<polygon fill="#999999" stroke="#666666" points="157,-71.75 0,-71.75 0,-30 157,-30 157,-71.75"/>
<text xml:space="preserve" text-anchor="start" x="8" y="-58.25" font-family="FreeSans" font-size="10.00">DGtal::InputIteratorWith</text>
<text xml:space="preserve" text-anchor="start" x="8" y="-47" font-family="FreeSans" font-size="10.00">RankOnSequence&lt; TSequence,</text>
<text xml:space="preserve" text-anchor="middle" x="78.5" y="-35.75" font-family="FreeSans" font-size="10.00"> TRank &gt;</text>
</a>
</g>
</g>
<!-- Node2 -->
<g id="Node000002" class="node">
<title>Node2</title>
<g id="a_Node000002"><a xlink:href="classDGtal_1_1InputIteratorWithRankOnSequence.html" target="_top" xlink:title=" ">
<polygon fill="white" stroke="#666666" points="508.25,-101.75 330.25,-101.75 330.25,-60 508.25,-60 508.25,-101.75"/>
<text xml:space="preserve" text-anchor="start" x="338.25" y="-88.25" font-family="FreeSans" font-size="10.00">DGtal::InputIteratorWith</text>
<text xml:space="preserve" text-anchor="start" x="338.25" y="-77" font-family="FreeSans" font-size="10.00">RankOnSequence&lt; CFracSequence,</text>
<text xml:space="preserve" text-anchor="middle" x="419.25" y="-65.75" font-family="FreeSans" font-size="10.00"> Quotient &gt;</text>
</a>
</g>
</g>
<!-- Node1&#45;&gt;Node2 -->
<g id="edge1_Node000001_Node000002" class="edge">
<title>Node1&#45;&gt;Node2</title>
<g id="a_edge1_Node000001_Node000002"><a xlink:title=" ">
<path fill="none" stroke="orange" stroke-dasharray="5,2" d="M168.62,-58.77C218.39,-63.17 280.18,-68.65 329.84,-73.05"/>
<polygon fill="orange" stroke="orange" points="168.99,-55.29 158.72,-57.89 168.38,-62.26 168.99,-55.29"/>
</a>
</g>
<text xml:space="preserve" text-anchor="start" x="178" y="-75.92" font-family="FreeSans" font-size="10.00" fill="grey">&lt; CFracSequence, Quotient &gt;</text>
</g>
<!-- Node3 -->
<g id="Node000003" class="node">
<title>Node3</title>
<g id="a_Node000003"><a xlink:href="classDGtal_1_1InputIteratorWithRankOnSequence.html" target="_top" xlink:title=" ">
<polygon fill="white" stroke="#666666" points="494.75,-41.75 343.75,-41.75 343.75,0 494.75,0 494.75,-41.75"/>
<text xml:space="preserve" text-anchor="start" x="351.75" y="-28.25" font-family="FreeSans" font-size="10.00">DGtal::InputIteratorWith</text>
<text xml:space="preserve" text-anchor="start" x="351.75" y="-17" font-family="FreeSans" font-size="10.00">RankOnSequence&lt; Sequence,</text>
<text xml:space="preserve" text-anchor="middle" x="419.25" y="-5.75" font-family="FreeSans" font-size="10.00"> Rank &gt;</text>
</a>
</g>
</g>
<!-- Node1&#45;&gt;Node3 -->
<g id="edge2_Node000001_Node000003" class="edge">
<title>Node1&#45;&gt;Node3</title>
<g id="a_edge2_Node000001_Node000003"><a xlink:title=" ">
<path fill="none" stroke="orange" stroke-dasharray="5,2" d="M168.75,-39.27C170.85,-39.05 172.94,-38.83 175,-38.62 231.35,-32.96 295.22,-28.37 343.37,-25.28"/>
<polygon fill="orange" stroke="orange" points="168.44,-35.78 158.88,-40.36 169.21,-42.74 168.44,-35.78"/>
</a>
</g>
<text xml:space="preserve" text-anchor="start" x="198.25" y="-43.38" font-family="FreeSans" font-size="10.00" fill="grey">&lt; Sequence, Rank &gt;</text>
</g>
</g>
</svg>

<g id="navigator" transform="translate(0 0)" fill="#404254">
  <rect fill="#f2f5e9" fill-opacity="0.5" stroke="#606060" stroke-width=".5" x="0" y="0" width="60" height="60"/>
  <use id="zoomplus" xlink:href="#zoomPlus" x="17" y="9" onmousedown="handleZoom(evt,'in')"/>
  <use id="zoomminus" xlink:href="#zoomMin" x="42" y="9" onmousedown="handleZoom(evt,'out')"/>
  <use id="reset" xlink:href="#resetDef" x="30" y="36" onmousedown="handleReset()"/>
   <use id="arrowup" xlink:href="#arrowUp" x="0" y="0" onmousedown="handlePan(0,-1)"/>
  <use id="arrowright" xlink:href="#arrowRight" x="0" y="0" onmousedown="handlePan(1,0)"/>
  <use id="arrowdown" xlink:href="#arrowDown" x="0" y="0" onmousedown="handlePan(0,1)"/>
  <use id="arrowleft" xlink:href="#arrowLeft" x="0" y="0" onmousedown="handlePan(-1,0)"/>
</g>
<svg viewBox="0 0 15 15" width="100%" height="30px" preserveAspectRatio="xMaxYMin meet">
 <g id="arrow_out" transform="scale(0.3 0.3)">
  <a xlink:href="classDGtal_1_1InputIteratorWithRankOnSequence__inherit__graph_org.svg" target="_base">
   <rect id="button" ry="5" rx="5" y="6" x="6" height="38" width="38"
        fill="#f2f5e9" fill-opacity="0.5" stroke="#606060" stroke-width="1.0"/>
   <path id="arrow"
     d="M 11.500037,31.436501 C 11.940474,20.09759 22.043105,11.32322 32.158766,21.979434 L 37.068811,17.246167 C 37.068811,17.246167 37.088388,32 37.088388,32 L 22.160133,31.978069 C 22.160133,31.978069 26.997745,27.140456 26.997745,27.140456 C 18.528582,18.264221 13.291696,25.230495 11.500037,31.436501 z"
     style="fill:#404040;"/>
  </a>
 </g>
</svg>

<style type='text/css'>
<![CDATA[
[data-mouse-over-selected='false'] { opacity: 0.7; }
[data-mouse-over-selected='true']  { opacity: 1.0; }
]]>
</style>
<script type="application/ecmascript"><![CDATA[
document.addEventListener('DOMContentLoaded', (event) => {
  highlightEdges();
  highlightAdjacentNodes();
});
]]></script>
</svg>
