<?xml version="1.0" encoding="UTF-8" standalone="no"?>
<!DOCTYPE svg PUBLIC "-//W3C//DTD SVG 1.1//EN"
 "http://www.w3.org/Graphics/SVG/1.1/DTD/svg11.dtd">
<!-- Generated by graphviz version 7.0.1 (20221109.1506)
 -->
<!-- Title: DGtal::CountedPtrOrPtr&lt; T &gt; Pages: 1 -->
<svg width="462pt" height="242pt"
 viewBox="0.00 0.00 462.00 242.00" xmlns="http://www.w3.org/2000/svg" xmlns:xlink="http://www.w3.org/1999/xlink">
<g id="graph0" class="graph" transform="scale(1 1) rotate(0) translate(4 238)">
<title>DGtal::CountedPtrOrPtr&lt; T &gt;</title>
<!-- Node1 -->
<g id="node1" class="node">
<title>Node1</title>
<g id="a_node1"><a xlink:title="Aim: Smart or simple pointer on T. It can be a smart pointer based on reference counts or a simple po...">
<polygon fill="#999999" stroke="#666666" points="145,-126.5 0,-126.5 0,-107.5 145,-107.5 145,-126.5"/>
<text text-anchor="middle" x="72.5" y="-114.5" font-family="FreeSans" font-size="10.00">DGtal::CountedPtrOrPtr&lt; T &gt;</text>
</a>
</g>
</g>
<!-- Node2 -->
<g id="node2" class="node">
<title>Node2</title>
<g id="a_node2"><a xlink:href="classDGtal_1_1CountedPtrOrPtr.html" target="_top" xlink:title=" ">
<polygon fill="white" stroke="#666666" points="443,-234 322,-234 322,-204 443,-204 443,-234"/>
<text text-anchor="start" x="330" y="-222" font-family="FreeSans" font-size="10.00">DGtal::CountedPtrOrPtr</text>
<text text-anchor="middle" x="382.5" y="-211" font-family="FreeSans" font-size="10.00">&lt; DummyTbl &gt;</text>
</a>
</g>
</g>
<!-- Node1&#45;&gt;Node2 -->
<g id="edge1" class="edge">
<title>Node1&#45;&gt;Node2</title>
<path fill="none" stroke="orange" stroke-dasharray="5,2" d="M93.41,-133.8C110.72,-147.51 137.02,-166.31 163,-177 214.26,-198.09 276.71,-208.73 321.7,-214.01"/>
<polygon fill="orange" stroke="orange" points="95.93,-131.33 85.96,-127.74 91.51,-136.77 95.93,-131.33"/>
<text text-anchor="middle" x="228" y="-212" font-family="FreeSans" font-size="10.00"> &lt; DummyTbl &gt;</text>
</g>
<!-- Node3 -->
<g id="node3" class="node">
<title>Node3</title>
<g id="a_node3"><a xlink:href="classDGtal_1_1CountedPtrOrPtr.html" target="_top" xlink:title=" ">
<polygon fill="white" stroke="#666666" points="454,-186 311,-186 311,-156 454,-156 454,-186"/>
<text text-anchor="start" x="319" y="-174" font-family="FreeSans" font-size="10.00">DGtal::CountedPtrOrPtr</text>
<text text-anchor="middle" x="382.5" y="-163" font-family="FreeSans" font-size="10.00">&lt; boost::dynamic_bitset&lt;&gt; &gt;</text>
</a>
</g>
</g>
<!-- Node1&#45;&gt;Node3 -->
<g id="edge2" class="edge">
<title>Node1&#45;&gt;Node3</title>
<path fill="none" stroke="orange" stroke-dasharray="5,2" d="M114.07,-130.23C129.28,-134.81 146.81,-139.63 163,-143 211.86,-153.16 267.69,-160.24 310.68,-164.74"/>
<polygon fill="orange" stroke="orange" points="115.48,-127 104.9,-127.41 113.42,-133.7 115.48,-127"/>
<text text-anchor="middle" x="228" y="-165" font-family="FreeSans" font-size="10.00"> &lt; boost::dynamic_bitset&lt;&gt; &gt;</text>
</g>
<!-- Node4 -->
<g id="node4" class="node">
<title>Node4</title>
<g id="a_node4"><a xlink:href="classDGtal_1_1CountedPtrOrPtr.html" target="_top" xlink:title=" ">
<polygon fill="white" stroke="#666666" points="443,-137.5 322,-137.5 322,-96.5 443,-96.5 443,-137.5"/>
<text text-anchor="start" x="330" y="-125.5" font-family="FreeSans" font-size="10.00">DGtal::CountedPtrOrPtr</text>
<text text-anchor="start" x="330" y="-114.5" font-family="FreeSans" font-size="10.00">&lt; std::unordered_map&lt;</text>
<text text-anchor="middle" x="382.5" y="-103.5" font-family="FreeSans" font-size="10.00"> Point, unsigned int &gt; &gt;</text>
</a>
</g>
</g>
<!-- Node1&#45;&gt;Node4 -->
<g id="edge3" class="edge">
<title>Node1&#45;&gt;Node4</title>
<path fill="none" stroke="orange" stroke-dasharray="5,2" d="M156.56,-117C208.71,-117 274.74,-117 321.74,-117"/>
<polygon fill="orange" stroke="orange" points="156.84,-113.5 146.84,-117 156.84,-120.5 156.84,-113.5"/>
<text text-anchor="start" x="173.5" y="-131" font-family="FreeSans" font-size="10.00"> &lt; std::unordered_map</text>
<text text-anchor="middle" x="228" y="-120" font-family="FreeSans" font-size="10.00">&lt; Point, unsigned int &gt; &gt;</text>
</g>
<!-- Node5 -->
<g id="node5" class="node">
<title>Node5</title>
<g id="a_node5"><a xlink:href="classDGtal_1_1CountedPtrOrPtr.html" target="_top" xlink:title=" ">
<polygon fill="white" stroke="#666666" points="443,-78 322,-78 322,-48 443,-48 443,-78"/>
<text text-anchor="start" x="330" y="-66" font-family="FreeSans" font-size="10.00">DGtal::CountedPtrOrPtr</text>
<text text-anchor="middle" x="382.5" y="-55" font-family="FreeSans" font-size="10.00">&lt; ConfigMap &gt;</text>
</a>
</g>
</g>
<!-- Node1&#45;&gt;Node5 -->
<g id="edge4" class="edge">
<title>Node1&#45;&gt;Node5</title>
<path fill="none" stroke="orange" stroke-dasharray="5,2" d="M141.52,-105.07C195.39,-95.63 269.91,-82.56 321.56,-73.51"/>
<polygon fill="orange" stroke="orange" points="141.09,-101.6 131.84,-106.77 142.3,-108.49 141.09,-101.6"/>
<text text-anchor="middle" x="228" y="-104" font-family="FreeSans" font-size="10.00"> &lt; ConfigMap &gt;</text>
</g>
<!-- Node6 -->
<g id="node6" class="node">
<title>Node6</title>
<g id="a_node6"><a xlink:href="classDGtal_1_1CountedPtrOrPtr.html" target="_top" xlink:title=" ">
<polygon fill="white" stroke="#666666" points="443,-30 322,-30 322,0 443,0 443,-30"/>
<text text-anchor="start" x="330" y="-18" font-family="FreeSans" font-size="10.00">DGtal::CountedPtrOrPtr</text>
<text text-anchor="middle" x="382.5" y="-7" font-family="FreeSans" font-size="10.00">&lt; PointToMaskMap &gt;</text>
</a>
</g>
</g>
<!-- Node1&#45;&gt;Node6 -->
<g id="edge5" class="edge">
<title>Node1&#45;&gt;Node6</title>
<path fill="none" stroke="orange" stroke-dasharray="5,2" d="M96.05,-100.54C113.52,-88.51 138.76,-72.67 163,-63 214.59,-42.42 276.72,-29.86 321.52,-22.77"/>
<polygon fill="orange" stroke="orange" points="94.12,-97.62 87.96,-106.24 98.15,-103.34 94.12,-97.62"/>
<text text-anchor="middle" x="228" y="-66" font-family="FreeSans" font-size="10.00"> &lt; PointToMaskMap &gt;</text>
</g>
</g>
</svg>
