<?xml version="1.0" encoding="UTF-8" standalone="no"?>
<!DOCTYPE svg PUBLIC "-//W3C//DTD SVG 1.1//EN"
 "http://www.w3.org/Graphics/SVG/1.1/DTD/svg11.dtd">
<!-- Generated by graphviz version 7.0.1 (20221109.1506)
 -->
<!-- Title: DGtal::VoronoiMap&lt; TSpace, TPointPredicate, TSeparableMetric, TImageContainer &gt; Pages: 1 -->
<svg width="626pt" height="130pt"
 viewBox="0.00 0.00 626.00 130.00" xmlns="http://www.w3.org/2000/svg" xmlns:xlink="http://www.w3.org/1999/xlink">
<g id="graph0" class="graph" transform="scale(1 1) rotate(0) translate(4 126)">
<title>DGtal::VoronoiMap&lt; TSpace, TPointPredicate, TSeparableMetric, TImageContainer &gt;</title>
<!-- Node1 -->
<g id="node1" class="node">
<title>Node1</title>
<g id="a_node1"><a xlink:title="Aim: Implementation of the linear in time Voronoi map construction.">
<polygon fill="#999999" stroke="#666666" points="186,-87 0,-87 0,-46 186,-46 186,-87"/>
<text text-anchor="start" x="8" y="-75" font-family="FreeSans" font-size="10.00">DGtal::VoronoiMap&lt;</text>
<text text-anchor="start" x="8" y="-64" font-family="FreeSans" font-size="10.00"> TSpace, TPointPredicate,</text>
<text text-anchor="middle" x="93" y="-53" font-family="FreeSans" font-size="10.00"> TSeparableMetric, TImageContainer &gt;</text>
</a>
</g>
</g>
<!-- Node2 -->
<g id="node2" class="node">
<title>Node2</title>
<g id="a_node2"><a xlink:href="classDGtal_1_1DistanceTransformation.html" target="_top" xlink:title="Aim: Implementation of the linear in time distance transformation for separable metrics.">
<polygon fill="white" stroke="#666666" points="608,-122 422,-122 422,-81 608,-81 608,-122"/>
<text text-anchor="start" x="430" y="-110" font-family="FreeSans" font-size="10.00">DGtal::DistanceTransformation</text>
<text text-anchor="start" x="430" y="-99" font-family="FreeSans" font-size="10.00">&lt; TSpace, TPointPredicate,</text>
<text text-anchor="middle" x="515" y="-88" font-family="FreeSans" font-size="10.00"> TSeparableMetric, TImageContainer &gt;</text>
</a>
</g>
</g>
<!-- Node1&#45;&gt;Node2 -->
<g id="edge1" class="edge">
<title>Node1&#45;&gt;Node2</title>
<path fill="none" stroke="#63b8ff" d="M197.75,-78.9C199.85,-79.1 201.94,-79.3 204,-79.5 277.05,-86.41 359.98,-92.18 421.67,-96.08"/>
<polygon fill="#63b8ff" stroke="#63b8ff" points="198.2,-75.42 187.9,-77.89 197.49,-82.39 198.2,-75.42"/>
</g>
<!-- Node3 -->
<g id="node3" class="node">
<title>Node3</title>
<g id="a_node3"><a xlink:href="classDGtal_1_1VoronoiMap.html" target="_top" xlink:title=" ">
<polygon fill="white" stroke="#666666" points="618,-63 412,-63 412,0 618,0 618,-63"/>
<text text-anchor="start" x="420" y="-51" font-family="FreeSans" font-size="10.00">DGtal::VoronoiMap&lt;</text>
<text text-anchor="start" x="420" y="-40" font-family="FreeSans" font-size="10.00"> TSpace, TPointPredicate,</text>
<text text-anchor="start" x="420" y="-29" font-family="FreeSans" font-size="10.00"> TSeparableMetric, ImageContainer</text>
<text text-anchor="start" x="420" y="-18" font-family="FreeSans" font-size="10.00">BySTLVector&lt; HyperRectDomain</text>
<text text-anchor="middle" x="515" y="-7" font-family="FreeSans" font-size="10.00">&lt; TSpace &gt;, typename TSpace::Vector &gt; &gt;</text>
</a>
</g>
</g>
<!-- Node1&#45;&gt;Node3 -->
<g id="edge2" class="edge">
<title>Node1&#45;&gt;Node3</title>
<path fill="none" stroke="orange" stroke-dasharray="5,2" d="M159.22,-42.12C173.76,-37.71 189.24,-33.79 204,-31.5 272.74,-20.83 351.09,-20.93 411.82,-23.65"/>
<polygon fill="orange" stroke="orange" points="158.24,-38.76 149.76,-45.11 160.35,-45.44 158.24,-38.76"/>
<text text-anchor="start" x="204" y="-67.5" font-family="FreeSans" font-size="10.00"> &lt; TSpace, TPointPredicate,</text>
<text text-anchor="start" x="204" y="-56.5" font-family="FreeSans" font-size="10.00"> TSeparableMetric, ImageContainer</text>
<text text-anchor="start" x="204" y="-45.5" font-family="FreeSans" font-size="10.00">BySTLVector&lt; HyperRectDomain</text>
<text text-anchor="middle" x="299" y="-34.5" font-family="FreeSans" font-size="10.00">&lt; TSpace &gt;, typename TSpace::Vector &gt; &gt;</text>
</g>
</g>
</svg>
