<?xml version="1.0" encoding="UTF-8" standalone="no"?>
<!DOCTYPE svg PUBLIC "-//W3C//DTD SVG 1.1//EN"
 "http://www.w3.org/Graphics/SVG/1.1/DTD/svg11.dtd">
<!-- Generated by graphviz version 13.1.2 (20250808.2320)
 -->
<!-- Title: DGtal::POW&lt; X, exponent &gt; Pages: 1 -->
<svg width="404pt" height="100pt"
 viewBox="0.00 0.00 404.00 100.00" xmlns="http://www.w3.org/2000/svg" xmlns:xlink="http://www.w3.org/1999/xlink">
<g id="graph0" class="graph" transform="scale(1 1) rotate(0) translate(4 95.75)">
<title>DGtal::POW&lt; X, exponent &gt;</title>
<!-- Node1 -->
<g id="Node000001" class="node">
<title>Node1</title>
<g id="a_Node000001"><a xlink:title=" ">
<polygon fill="#999999" stroke="#666666" points="287.5,-91.75 145.5,-91.75 145.5,-72.5 287.5,-72.5 287.5,-91.75"/>
<text xml:space="preserve" text-anchor="middle" x="216.5" y="-78.25" font-family="FreeSans" font-size="10.00">DGtal::POW&lt; X, exponent &gt;</text>
</a>
</g>
</g>
<!-- Node2 -->
<g id="Node000002" class="node">
<title>Node2</title>
<g id="a_Node000002"><a xlink:href="classDGtal_1_1POW.html" target="_top" xlink:title=" ">
<polygon fill="white" stroke="#666666" points="145,-19.25 0,-19.25 0,0 145,0 145,-19.25"/>
<text xml:space="preserve" text-anchor="middle" x="72.5" y="-5.75" font-family="FreeSans" font-size="10.00">DGtal::POW&lt; 2, dimension &gt;</text>
</a>
</g>
</g>
<!-- Node1&#45;&gt;Node2 -->
<g id="edge1_Node000001_Node000002" class="edge">
<title>Node1&#45;&gt;Node2</title>
<g id="a_edge1_Node000001_Node000002"><a xlink:title=" ">
<path fill="none" stroke="orange" stroke-dasharray="5,2" d="M168.61,-68.74C156.68,-64.87 144.12,-60.12 133,-54.5 113.78,-44.78 94.05,-29.22 82.55,-19.48"/>
<polygon fill="orange" stroke="orange" points="167.3,-71.99 177.89,-71.59 169.36,-65.3 167.3,-71.99"/>
</a>
</g>
<text xml:space="preserve" text-anchor="start" x="136" y="-42" font-family="FreeSans" font-size="10.00" fill="grey">&lt; 2, dimension &gt;</text>
</g>
<!-- Node3 -->
<g id="Node000003" class="node">
<title>Node3</title>
<g id="a_Node000003"><a xlink:href="classDGtal_1_1POW_3_01X_00_010_01_4.html" target="_top" xlink:title=" ">
<polygon fill="white" stroke="#666666" points="270.25,-19.25 162.75,-19.25 162.75,0 270.25,0 270.25,-19.25"/>
<text xml:space="preserve" text-anchor="middle" x="216.5" y="-5.75" font-family="FreeSans" font-size="10.00">DGtal::POW&lt; X, 0 &gt;</text>
</a>
</g>
</g>
<!-- Node1&#45;&gt;Node3 -->
<g id="edge2_Node000001_Node000003" class="edge">
<title>Node1&#45;&gt;Node3</title>
<g id="a_edge2_Node000001_Node000003"><a xlink:title=" ">
<path fill="none" stroke="orange" stroke-dasharray="5,2" d="M216.5,-61.05C216.5,-47.44 216.5,-30.1 216.5,-19.7"/>
<polygon fill="orange" stroke="orange" points="213,-60.68 216.5,-70.68 220,-60.68 213,-60.68"/>
</a>
</g>
<text xml:space="preserve" text-anchor="start" x="219.5" y="-42" font-family="FreeSans" font-size="10.00" fill="grey">&lt; X, 0 &gt;</text>
</g>
<!-- Node4 -->
<g id="Node000004" class="node">
<title>Node4</title>
<g id="a_Node000004"><a xlink:href="classDGtal_1_1POW_3_01X_00_011_01_4.html" target="_top" xlink:title=" ">
<polygon fill="white" stroke="#666666" points="396.25,-19.25 288.75,-19.25 288.75,0 396.25,0 396.25,-19.25"/>
<text xml:space="preserve" text-anchor="middle" x="342.5" y="-5.75" font-family="FreeSans" font-size="10.00">DGtal::POW&lt; X, 1 &gt;</text>
</a>
</g>
</g>
<!-- Node1&#45;&gt;Node4 -->
<g id="edge3_Node000001_Node000004" class="edge">
<title>Node1&#45;&gt;Node4</title>
<g id="a_edge3_Node000001_Node000004"><a xlink:title=" ">
<path fill="none" stroke="orange" stroke-dasharray="5,2" d="M242.69,-66.47C267.9,-52.37 305.21,-31.49 326.35,-19.66"/>
<polygon fill="orange" stroke="orange" points="241.05,-63.38 234.04,-71.31 244.47,-69.49 241.05,-63.38"/>
</a>
</g>
<text xml:space="preserve" text-anchor="start" x="297.49" y="-42" font-family="FreeSans" font-size="10.00" fill="grey">&lt; X, 1 &gt;</text>
</g>
</g>
</svg>
