<?xml version="1.0" encoding="UTF-8" standalone="no"?>
<!DOCTYPE svg PUBLIC "-//W3C//DTD SVG 1.1//EN"
 "http://www.w3.org/Graphics/SVG/1.1/DTD/svg11.dtd">
<!-- Generated by graphviz version 13.1.2 (20250808.2320)
 -->
<!-- Title: DGtal::VectorField&lt; TCalculus, duality &gt; Pages: 1 -->
<svg width="233pt" height="122pt"
 viewBox="0.00 0.00 233.00 122.00" xmlns="http://www.w3.org/2000/svg" xmlns:xlink="http://www.w3.org/1999/xlink">
<g id="graph0" class="graph" transform="scale(1 1) rotate(0) translate(4 118.25)">
<title>DGtal::VectorField&lt; TCalculus, duality &gt;</title>
<!-- Node1 -->
<g id="Node000001" class="node">
<title>Node1</title>
<g id="a_Node000001"><a xlink:title="Aim: VectorField represents a discrete vector field in the dec package. Vector field values are attac...">
<polygon fill="#999999" stroke="#666666" points="161.88,-114.25 49.12,-114.25 49.12,-83.75 161.88,-83.75 161.88,-114.25"/>
<text xml:space="preserve" text-anchor="start" x="57.12" y="-100.75" font-family="FreeSans" font-size="10.00">DGtal::VectorField</text>
<text xml:space="preserve" text-anchor="middle" x="105.5" y="-89.5" font-family="FreeSans" font-size="10.00">&lt; TCalculus, duality &gt;</text>
</a>
</g>
</g>
<!-- Node2 -->
<g id="Node000002" class="node">
<title>Node2</title>
<g id="a_Node000002"><a xlink:href="classDGtal_1_1VectorField.html" target="_top" xlink:title=" ">
<polygon fill="white" stroke="#666666" points="97,-30.5 0,-30.5 0,0 97,0 97,-30.5"/>
<text xml:space="preserve" text-anchor="start" x="8" y="-17" font-family="FreeSans" font-size="10.00">DGtal::VectorField</text>
<text xml:space="preserve" text-anchor="middle" x="48.5" y="-5.75" font-family="FreeSans" font-size="10.00">&lt; Self, PRIMAL &gt;</text>
</a>
</g>
</g>
<!-- Node1&#45;&gt;Node2 -->
<g id="edge1_Node000001_Node000002" class="edge">
<title>Node1&#45;&gt;Node2</title>
<g id="a_edge1_Node000001_Node000002"><a xlink:title=" ">
<path fill="none" stroke="orange" stroke-dasharray="5,2" d="M66.98,-76.56C63.37,-73.32 60.1,-69.72 57.5,-65.75 50.71,-55.37 48.68,-41.28 48.22,-30.78"/>
<polygon fill="orange" stroke="orange" points="64.62,-79.16 74.67,-82.52 68.91,-73.62 64.62,-79.16"/>
</a>
</g>
<text xml:space="preserve" text-anchor="start" x="60.5" y="-53.25" font-family="FreeSans" font-size="10.00" fill="grey">&lt; Self, PRIMAL &gt;</text>
</g>
<!-- Node3 -->
<g id="Node000003" class="node">
<title>Node3</title>
<g id="a_Node000003"><a xlink:href="classDGtal_1_1VectorField.html" target="_top" xlink:title=" ">
<polygon fill="white" stroke="#666666" points="212,-30.5 115,-30.5 115,0 212,0 212,-30.5"/>
<text xml:space="preserve" text-anchor="start" x="123" y="-17" font-family="FreeSans" font-size="10.00">DGtal::VectorField</text>
<text xml:space="preserve" text-anchor="middle" x="163.5" y="-5.75" font-family="FreeSans" font-size="10.00">&lt; Self, DUAL &gt;</text>
</a>
</g>
</g>
<!-- Node1&#45;&gt;Node3 -->
<g id="edge2_Node000001_Node000003" class="edge">
<title>Node1&#45;&gt;Node3</title>
<g id="a_edge2_Node000001_Node000003"><a xlink:title=" ">
<path fill="none" stroke="orange" stroke-dasharray="5,2" d="M133.13,-75.54C136.16,-72.43 139.03,-69.14 141.5,-65.75 149.25,-55.11 155.1,-41.3 158.82,-30.97"/>
<polygon fill="orange" stroke="orange" points="130.91,-72.82 126.03,-82.22 135.71,-77.92 130.91,-72.82"/>
</a>
</g>
<text xml:space="preserve" text-anchor="start" x="154.24" y="-53.25" font-family="FreeSans" font-size="10.00" fill="grey">&lt; Self, DUAL &gt;</text>
</g>
</g>
</svg>
