<?xml version="1.0" encoding="UTF-8" standalone="no"?>
<!DOCTYPE svg PUBLIC "-//W3C//DTD SVG 1.1//EN"
 "http://www.w3.org/Graphics/SVG/1.1/DTD/svg11.dtd">
<!-- Generated by graphviz version 11.0.0 (20240428.1522)
 -->
<!-- Title: DGtal::ArithmeticalDSS&lt; TCoordinate, TInteger, adjacency &gt; Pages: 1 -->
<svg width="670pt" height="196pt"
 viewBox="0.00 0.00 669.50 196.12" xmlns="http://www.w3.org/2000/svg" xmlns:xlink="http://www.w3.org/1999/xlink">
<g id="graph0" class="graph" transform="scale(1 1) rotate(0) translate(4 192.12)">
<title>DGtal::ArithmeticalDSS&lt; TCoordinate, TInteger, adjacency &gt;</title>
<!-- Node1 -->
<g id="Node000001" class="node">
<title>Node1</title>
<g id="a_Node000001"><a xlink:title="Aim: This class represents a naive (resp. standard) digital straight segment (DSS),...">
<polygon fill="#999999" stroke="#666666" points="122.5,-112.75 0,-112.75 0,-71 122.5,-71 122.5,-112.75"/>
<text text-anchor="start" x="8" y="-99.25" font-family="FreeSans" font-size="10.00">DGtal::ArithmeticalDSS</text>
<text text-anchor="start" x="8" y="-88" font-family="FreeSans" font-size="10.00">&lt; TCoordinate, TInteger,</text>
<text text-anchor="middle" x="61.25" y="-76.75" font-family="FreeSans" font-size="10.00"> adjacency &gt;</text>
</a>
</g>
</g>
<!-- Node2 -->
<g id="Node000002" class="node">
<title>Node2</title>
<g id="a_Node000002"><a xlink:href="classDGtal_1_1ArithmeticalDSS.html" target="_top" xlink:title=" ">
<polygon fill="white" stroke="#666666" points="461,-188.12 303.25,-188.12 303.25,-157.62 461,-157.62 461,-188.12"/>
<text text-anchor="start" x="311.25" y="-174.62" font-family="FreeSans" font-size="10.00">DGtal::ArithmeticalDSS</text>
<text text-anchor="middle" x="382.12" y="-163.38" font-family="FreeSans" font-size="10.00">&lt; TCoordinate, TCoordinate, 8 &gt;</text>
</a>
</g>
</g>
<!-- Node1&#45;&gt;Node2 -->
<g id="edge1_Node000001_Node000002" class="edge">
<title>Node1&#45;&gt;Node2</title>
<g id="a_edge1_Node000001_Node000002"><a xlink:title=" ">
<path fill="none" stroke="orange" stroke-dasharray="5,2" d="M113.8,-117.75C122.56,-121.52 131.69,-125.07 140.5,-127.88 193.55,-144.75 255.32,-156.14 302.99,-163.24"/>
<polygon fill="orange" stroke="orange" points="115.26,-114.57 104.7,-113.69 112.41,-120.96 115.26,-114.57"/>
</a>
</g>
<text text-anchor="middle" x="212.88" y="-161.62" font-family="FreeSans" font-size="10.00" fill="grey"> &lt; TCoordinate, TCoordinate, 8 &gt;</text>
</g>
<!-- Node4 -->
<g id="Node000004" class="node">
<title>Node4</title>
<g id="a_Node000004"><a xlink:href="classDGtal_1_1ArithmeticalDSS.html" target="_top" xlink:title=" ">
<polygon fill="white" stroke="#666666" points="461,-139.12 303.25,-139.12 303.25,-108.62 461,-108.62 461,-139.12"/>
<text text-anchor="start" x="311.25" y="-125.62" font-family="FreeSans" font-size="10.00">DGtal::ArithmeticalDSS</text>
<text text-anchor="middle" x="382.12" y="-114.38" font-family="FreeSans" font-size="10.00">&lt; TCoordinate, TCoordinate, 4 &gt;</text>
</a>
</g>
</g>
<!-- Node1&#45;&gt;Node4 -->
<g id="edge3_Node000001_Node000004" class="edge">
<title>Node1&#45;&gt;Node4</title>
<g id="a_edge3_Node000001_Node000004"><a xlink:title=" ">
<path fill="none" stroke="orange" stroke-dasharray="5,2" d="M134.38,-99.11C184.53,-104.15 251.34,-110.85 302.79,-116.01"/>
<polygon fill="orange" stroke="orange" points="134.78,-95.64 124.48,-98.12 134.09,-102.6 134.78,-95.64"/>
</a>
</g>
<text text-anchor="middle" x="212.88" y="-114.62" font-family="FreeSans" font-size="10.00" fill="grey"> &lt; TCoordinate, TCoordinate, 4 &gt;</text>
</g>
<!-- Node6 -->
<g id="Node000006" class="node">
<title>Node6</title>
<g id="a_Node000006"><a xlink:href="classDGtal_1_1ArithmeticalDSS.html" target="_top" xlink:title=" ">
<polygon fill="white" stroke="#666666" points="446,-90.12 318.25,-90.12 318.25,-59.62 446,-59.62 446,-90.12"/>
<text text-anchor="start" x="326.25" y="-76.62" font-family="FreeSans" font-size="10.00">DGtal::ArithmeticalDSS</text>
<text text-anchor="middle" x="382.12" y="-65.38" font-family="FreeSans" font-size="10.00">&lt; Coordinate, Integer, 8 &gt;</text>
</a>
</g>
</g>
<!-- Node1&#45;&gt;Node6 -->
<g id="edge5_Node000001_Node000006" class="edge">
<title>Node1&#45;&gt;Node6</title>
<g id="a_edge5_Node000001_Node000006"><a xlink:title=" ">
<path fill="none" stroke="orange" stroke-dasharray="5,2" d="M134.25,-83.13C136.35,-82.95 138.44,-82.78 140.5,-82.62 200.62,-78.11 269.39,-76.22 317.97,-75.44"/>
<polygon fill="orange" stroke="orange" points="134,-79.64 124.37,-84.05 134.65,-86.61 134,-79.64"/>
</a>
</g>
<text text-anchor="middle" x="212.88" y="-83.62" font-family="FreeSans" font-size="10.00" fill="grey"> &lt; Coordinate, Integer, 8 &gt;</text>
</g>
<!-- Node7 -->
<g id="Node000007" class="node">
<title>Node7</title>
<g id="a_Node000007"><a xlink:href="classDGtal_1_1ArithmeticalDSS.html" target="_top" xlink:title=" ">
<polygon fill="white" stroke="#666666" points="442.25,-41.75 322,-41.75 322,0 442.25,0 442.25,-41.75"/>
<text text-anchor="start" x="330" y="-28.25" font-family="FreeSans" font-size="10.00">DGtal::ArithmeticalDSS</text>
<text text-anchor="start" x="330" y="-17" font-family="FreeSans" font-size="10.00">&lt; Coordinate, Integer,</text>
<text text-anchor="middle" x="382.12" y="-5.75" font-family="FreeSans" font-size="10.00"> adjacency &gt;</text>
</a>
</g>
</g>
<!-- Node1&#45;&gt;Node7 -->
<g id="edge6_Node000001_Node000007" class="edge">
<title>Node1&#45;&gt;Node7</title>
<g id="a_edge6_Node000001_Node000007"><a xlink:title=" ">
<path fill="none" stroke="orange" stroke-dasharray="5,2" d="M104.85,-64.97C116.07,-58.94 128.43,-53.21 140.5,-49.38 200.44,-30.33 272.43,-23.81 321.96,-21.68"/>
<polygon fill="orange" stroke="orange" points="103.23,-61.86 96.22,-69.8 106.65,-67.97 103.23,-61.86"/>
</a>
</g>
<text text-anchor="start" x="164.12" y="-61.88" font-family="FreeSans" font-size="10.00" fill="grey"> &lt; Coordinate, Integer,</text>
<text text-anchor="middle" x="212.88" y="-50.62" font-family="FreeSans" font-size="10.00" fill="grey"> adjacency &gt;</text>
</g>
<!-- Node3 -->
<g id="Node000003" class="node">
<title>Node3</title>
<g id="a_Node000003"><a xlink:href="classDGtal_1_1NaiveDSS8.html" target="_top" xlink:title="Aim: This class represents a standard digital straight segment (DSS), ie. the sequence of simply 8&#45;co...">
<polygon fill="white" stroke="#666666" points="661.5,-188.12 497,-188.12 497,-157.62 661.5,-157.62 661.5,-188.12"/>
<text text-anchor="start" x="505" y="-174.62" font-family="FreeSans" font-size="10.00">DGtal::NaiveDSS8&lt; TCoordinate,</text>
<text text-anchor="middle" x="579.25" y="-163.38" font-family="FreeSans" font-size="10.00"> TInteger &gt;</text>
</a>
</g>
</g>
<!-- Node2&#45;&gt;Node3 -->
<g id="edge2_Node000002_Node000003" class="edge">
<title>Node2&#45;&gt;Node3</title>
<g id="a_edge2_Node000002_Node000003"><a xlink:title=" ">
<path fill="none" stroke="#63b8ff" d="M472.67,-172.88C480.71,-172.88 488.83,-172.88 496.8,-172.88"/>
<polygon fill="#63b8ff" stroke="#63b8ff" points="472.88,-169.38 462.88,-172.88 472.88,-176.38 472.88,-169.38"/>
</a>
</g>
</g>
<!-- Node5 -->
<g id="Node000005" class="node">
<title>Node5</title>
<g id="a_Node000005"><a xlink:href="classDGtal_1_1StandardDSS4.html" target="_top" xlink:title="Aim: This class represents a standard digital straight segment (DSS), ie. the sequence of simply 4&#45;co...">
<polygon fill="white" stroke="#666666" points="643.88,-139.12 514.62,-139.12 514.62,-108.62 643.88,-108.62 643.88,-139.12"/>
<text text-anchor="start" x="522.62" y="-125.62" font-family="FreeSans" font-size="10.00">DGtal::StandardDSS4</text>
<text text-anchor="middle" x="579.25" y="-114.38" font-family="FreeSans" font-size="10.00">&lt; TCoordinate, TInteger &gt;</text>
</a>
</g>
</g>
<!-- Node4&#45;&gt;Node5 -->
<g id="edge4_Node000004_Node000005" class="edge">
<title>Node4&#45;&gt;Node5</title>
<g id="a_edge4_Node000004_Node000005"><a xlink:title=" ">
<path fill="none" stroke="#63b8ff" d="M472.6,-123.88C486.69,-123.88 501.01,-123.88 514.37,-123.88"/>
<polygon fill="#63b8ff" stroke="#63b8ff" points="472.88,-120.38 462.88,-123.88 472.88,-127.38 472.88,-120.38"/>
</a>
</g>
</g>
</g>
</svg>
