<?xml version="1.0" encoding="UTF-8" standalone="no"?>
<!DOCTYPE svg PUBLIC "-//W3C//DTD SVG 1.1//EN"
 "http://www.w3.org/Graphics/SVG/1.1/DTD/svg11.dtd">
<!-- Generated by graphviz version 7.0.1 (20221109.1506)
 -->
<!-- Title: DGtal::detail::PosDepScaleIndepSCEstimator&lt; TSegmentComputer, Functor, ReturnType &gt; Pages: 1 -->
<svg width="741pt" height="108pt"
 viewBox="0.00 0.00 741.00 108.00" xmlns="http://www.w3.org/2000/svg" xmlns:xlink="http://www.w3.org/1999/xlink">
<g id="graph0" class="graph" transform="scale(1 1) rotate(0) translate(4 104)">
<title>DGtal::detail::PosDepScaleIndepSCEstimator&lt; TSegmentComputer, Functor, ReturnType &gt;</title>
<!-- Node1 -->
<g id="node1" class="node">
<title>Node1</title>
<g id="a_node1"><a xlink:title=" ">
<polygon fill="#999999" stroke="#666666" points="196,-70 0,-70 0,-29 196,-29 196,-70"/>
<text text-anchor="start" x="8" y="-58" font-family="FreeSans" font-size="10.00">DGtal::detail::PosDepScale</text>
<text text-anchor="start" x="8" y="-47" font-family="FreeSans" font-size="10.00">IndepSCEstimator&lt; TSegmentComputer,</text>
<text text-anchor="middle" x="98" y="-36" font-family="FreeSans" font-size="10.00"> Functor, ReturnType &gt;</text>
</a>
</g>
</g>
<!-- Node2 -->
<g id="node2" class="node">
<title>Node2</title>
<g id="a_node2"><a xlink:href="classDGtal_1_1detail_1_1PosDepScaleIndepSCEstimator.html" target="_top" xlink:title=" ">
<polygon fill="white" stroke="#666666" points="527,-100 354,-100 354,-59 527,-59 527,-100"/>
<text text-anchor="start" x="362" y="-88" font-family="FreeSans" font-size="10.00">DGtal::detail::PosDepScale</text>
<text text-anchor="start" x="362" y="-77" font-family="FreeSans" font-size="10.00">IndepSCEstimator&lt; DCAComputer,</text>
<text text-anchor="middle" x="440.5" y="-66" font-family="FreeSans" font-size="10.00"> detail::NormalVectorFromDCA &gt;</text>
</a>
</g>
</g>
<!-- Node1&#45;&gt;Node2 -->
<g id="edge1" class="edge">
<title>Node1&#45;&gt;Node2</title>
<path fill="none" stroke="orange" stroke-dasharray="5,2" d="M207.33,-59.04C254.57,-63.21 309.18,-68.02 353.56,-71.93"/>
<polygon fill="orange" stroke="orange" points="207.89,-55.58 197.63,-58.19 207.28,-62.55 207.89,-55.58"/>
<text text-anchor="start" x="215.5" y="-83.5" font-family="FreeSans" font-size="10.00"> &lt; DCAComputer, detail</text>
<text text-anchor="middle" x="275" y="-72.5" font-family="FreeSans" font-size="10.00">::NormalVectorFromDCA &gt;</text>
</g>
<!-- Node4 -->
<g id="node4" class="node">
<title>Node4</title>
<g id="a_node4"><a xlink:href="classDGtal_1_1detail_1_1PosDepScaleIndepSCEstimator.html" target="_top" xlink:title=" ">
<polygon fill="white" stroke="#666666" points="527,-41 354,-41 354,0 527,0 527,-41"/>
<text text-anchor="start" x="362" y="-29" font-family="FreeSans" font-size="10.00">DGtal::detail::PosDepScale</text>
<text text-anchor="start" x="362" y="-18" font-family="FreeSans" font-size="10.00">IndepSCEstimator&lt; DCAComputer,</text>
<text text-anchor="middle" x="440.5" y="-7" font-family="FreeSans" font-size="10.00"> detail::TangentVectorFromDCA &gt;</text>
</a>
</g>
</g>
<!-- Node1&#45;&gt;Node4 -->
<g id="edge3" class="edge">
<title>Node1&#45;&gt;Node4</title>
<path fill="none" stroke="orange" stroke-dasharray="5,2" d="M207.77,-32.17C209.86,-31.93 211.94,-31.71 214,-31.5 260.01,-26.79 311.52,-24.09 353.67,-22.54"/>
<polygon fill="orange" stroke="orange" points="207.49,-28.68 197.97,-33.33 208.31,-35.63 207.49,-28.68"/>
<text text-anchor="start" x="214" y="-45.5" font-family="FreeSans" font-size="10.00"> &lt; DCAComputer, detail</text>
<text text-anchor="middle" x="275" y="-34.5" font-family="FreeSans" font-size="10.00">::TangentVectorFromDCA &gt;</text>
</g>
<!-- Node3 -->
<g id="node3" class="node">
<title>Node3</title>
<g id="a_node3"><a xlink:href="classDGtal_1_1NormalFromDCAEstimator.html" target="_top" xlink:title=" ">
<polygon fill="white" stroke="#666666" points="731.5,-94.5 565.5,-94.5 565.5,-64.5 731.5,-64.5 731.5,-94.5"/>
<text text-anchor="start" x="573.5" y="-82.5" font-family="FreeSans" font-size="10.00">DGtal::NormalFromDCAEstimator</text>
<text text-anchor="middle" x="648.5" y="-71.5" font-family="FreeSans" font-size="10.00">&lt; DCAComputer &gt;</text>
</a>
</g>
</g>
<!-- Node2&#45;&gt;Node3 -->
<g id="edge2" class="edge">
<title>Node2&#45;&gt;Node3</title>
<path fill="none" stroke="#63b8ff" d="M538.85,-79.5C547.62,-79.5 556.45,-79.5 565.07,-79.5"/>
<polygon fill="#63b8ff" stroke="#63b8ff" points="538.88,-76 528.88,-79.5 538.88,-83 538.88,-76"/>
</g>
<!-- Node5 -->
<g id="node5" class="node">
<title>Node5</title>
<g id="a_node5"><a xlink:href="classDGtal_1_1TangentFromDCAEstimator.html" target="_top" xlink:title=" ">
<polygon fill="white" stroke="#666666" points="733,-35.5 564,-35.5 564,-5.5 733,-5.5 733,-35.5"/>
<text text-anchor="start" x="572" y="-23.5" font-family="FreeSans" font-size="10.00">DGtal::TangentFromDCAEstimator</text>
<text text-anchor="middle" x="648.5" y="-12.5" font-family="FreeSans" font-size="10.00">&lt; DCAComputer &gt;</text>
</a>
</g>
</g>
<!-- Node4&#45;&gt;Node5 -->
<g id="edge4" class="edge">
<title>Node4&#45;&gt;Node5</title>
<path fill="none" stroke="#63b8ff" d="M538.73,-20.5C547.09,-20.5 555.51,-20.5 563.75,-20.5"/>
<polygon fill="#63b8ff" stroke="#63b8ff" points="538.88,-17 528.88,-20.5 538.88,-24 538.88,-17"/>
</g>
</g>
</svg>
