<?xml version="1.0" encoding="UTF-8" standalone="no"?>
<!DOCTYPE svg PUBLIC "-//W3C//DTD SVG 1.1//EN"
 "http://www.w3.org/Graphics/SVG/1.1/DTD/svg11.dtd">
<!-- Generated by graphviz version 13.1.2 (20250808.2320)
 -->
<!-- Title: DGtal::VoronoiMap&lt; TSpace, TPointPredicate, TSeparableMetric, TImageContainer &gt; Pages: 1 -->
<!--zoomable 326 -->

<svg id="main" version="1.1" xmlns="http://www.w3.org/2000/svg" xmlns:xlink="http://www.w3.org/1999/xlink" xml:space="preserve" onload="init(evt)">

<style type="text/css"><![CDATA[
.node, .edge {opacity: 0.7;}
.node.selected, .edge.selected {opacity: 1;}
.edge:hover path { stroke: red; }
.edge:hover polygon { stroke: red; fill: red; }
]]></style>

<defs>
  <circle id="rim" cx="0" cy="0" r="7"/>
  <circle id="rim2" cx="0" cy="0" r="3.5"/>
  <g id="zoomPlus">
    <use xlink:href="#rim" fill="#404040"><set attributeName="fill" to="#808080" begin="zoomplus.mouseover" end="zoomplus.mouseout"/></use>
    <path d="M-4,0h8M0,-4v8" fill="none" stroke="white" stroke-width="1.5" pointer-events="none"/>
  </g>
  <g id="zoomMin">
    <use xlink:href="#rim" fill="#404040"><set attributeName="fill" to="#808080" begin="zoomminus.mouseover" end="zoomminus.mouseout"/></use>
    <path d="M-4,0h8" fill="none" stroke="white" stroke-width="1.5" pointer-events="none"/>
  </g>
  <g id="arrowUp" transform="translate(30 24)">
    <use xlink:href="#rim"/>
    <path pointer-events="none" fill="none" stroke="white" stroke-width="1.5" d="M0,-3.0v7 M-2.5,-0.5L0,-3.0L2.5,-0.5"/>
  </g>
  <g id="arrowRight" transform="rotate(90) translate(36 -43)">
    <use xlink:href="#rim"/>
    <path pointer-events="none" fill="none" stroke="white" stroke-width="1.5" d="M0,-3.0v7 M-2.5,-0.5L0,-3.0L2.5,-0.5"/>
  </g>
  <g id="arrowDown" transform="rotate(180) translate(-30 -48)">
    <use xlink:href="#rim"/>
    <path pointer-events="none" fill="none" stroke="white" stroke-width="1.5" d="M0,-3.0v7 M-2.5,-0.5L0,-3.0L2.5,-0.5"/>
  </g>
  <g id="arrowLeft" transform="rotate(270) translate(-36 17)">
    <use xlink:href="#rim"/>
    <path pointer-events="none" fill="none" stroke="white" stroke-width="1.5" d="M0,-3.0v7 M-2.5,-0.5L0,-3.0L2.5,-0.5"/>
  </g>
  <g id="resetDef">
    <use xlink:href="#rim2" fill="#404040"><set attributeName="fill" to="#808080" begin="reset.mouseover" end="reset.mouseout"/></use>
  </g>
</defs>
<script type="application/ecmascript">
var viewWidth = 637;
var viewHeight = 326;
var sectionId = 'dynsection-0';
</script>
<script type="application/ecmascript" xlink:href="svg.min.js"/>
<svg id="graph" class="graph">
<g id="viewport">
<title>DGtal::VoronoiMap&lt; TSpace, TPointPredicate, TSeparableMetric, TImageContainer &gt;</title>
<!-- Node1 -->
<g id="Node000001" class="node">
<title>Node1</title>
<g id="a_Node000001"><a xlink:title="Aim: Implementation of the linear in time Voronoi map construction.">
<polygon fill="#999999" stroke="#666666" points="185.5,-197 0,-197 0,-155.25 185.5,-155.25 185.5,-197"/>
<text xml:space="preserve" text-anchor="start" x="8" y="-183.5" font-family="FreeSans" font-size="10.00">DGtal::VoronoiMap&lt;</text>
<text xml:space="preserve" text-anchor="start" x="8" y="-172.25" font-family="FreeSans" font-size="10.00"> TSpace, TPointPredicate,</text>
<text xml:space="preserve" text-anchor="middle" x="92.75" y="-161" font-family="FreeSans" font-size="10.00"> TSeparableMetric, TImageContainer &gt;</text>
</a>
</g>
</g>
<!-- Node1&#45;&gt;Node1 -->
<g id="edge1_Node000001_Node000001" class="edge">
<title>Node1&#45;&gt;Node1</title>
<g id="a_edge1_Node000001_Node000001"><a xlink:title=" ">
<path fill="none" stroke="orange" stroke-dasharray="5,2" d="M75.59,-208.45C78.66,-212.41 84.38,-215 92.75,-215 107.63,-215 114.14,-206.8 112.28,-197.32"/>
<polygon fill="orange" stroke="orange" points="79.04,-207.85 73.53,-198.8 72.19,-209.31 79.04,-207.85"/>
</a>
</g>
<text xml:space="preserve" text-anchor="start" x="5" y="-235" font-family="FreeSans" font-size="10.00" fill="grey">&lt; TSpace, TPointPredicate,</text>
<text xml:space="preserve" text-anchor="start" x="5" y="-219.75" font-family="FreeSans" font-size="10.00" fill="grey">   TSeparableMetric, TImageContainer &gt;</text>
</g>
<!-- Node1&#45;&gt;Node1 -->
<g id="edge4_Node000001_Node000001" class="edge">
<title>Node1&#45;&gt;Node1</title>
<g id="a_edge4_Node000001_Node000001"><a xlink:title=" ">
<path fill="none" stroke="orange" stroke-dasharray="5,2" d="M55.42,-207.37C47.42,-227.25 59.87,-247.5 92.75,-247.5 131.19,-247.5 141.7,-219.83 124.28,-197.43"/>
<polygon fill="orange" stroke="orange" points="58.44,-209.13 60.45,-198.73 52.39,-205.61 58.44,-209.13"/>
</a>
</g>
<text xml:space="preserve" text-anchor="start" x="5" y="-267.5" font-family="FreeSans" font-size="10.00" fill="grey">&lt; TSpace, TPointPredicate,</text>
<text xml:space="preserve" text-anchor="start" x="5" y="-252.25" font-family="FreeSans" font-size="10.00" fill="grey">   TSeparableMetric, TImageContainer &gt;</text>
</g>
<!-- Node2 -->
<g id="Node000002" class="node">
<title>Node2</title>
<g id="a_Node000002"><a xlink:href="classDGtal_1_1DistanceTransformation.html" target="_top" xlink:title="Aim: Implementation of the linear in time distance transformation for separable metrics.">
<polygon fill="white" stroke="#666666" points="618.88,-318 433.38,-318 433.38,-276.25 618.88,-276.25 618.88,-318"/>
<text xml:space="preserve" text-anchor="start" x="441.38" y="-304.5" font-family="FreeSans" font-size="10.00">DGtal::DistanceTransformation</text>
<text xml:space="preserve" text-anchor="start" x="441.38" y="-293.25" font-family="FreeSans" font-size="10.00">&lt; TSpace, TPointPredicate,</text>
<text xml:space="preserve" text-anchor="middle" x="526.12" y="-282" font-family="FreeSans" font-size="10.00"> TSeparableMetric, TImageContainer &gt;</text>
</a>
</g>
</g>
<!-- Node1&#45;&gt;Node2 -->
<g id="edge2_Node000001_Node000002" class="edge">
<title>Node1&#45;&gt;Node2</title>
<g id="a_edge2_Node000001_Node000002"><a xlink:title=" ">
<path fill="none" stroke="#63b8ff" d="M114.53,-206.21C134.15,-231.82 166.08,-266.95 203.5,-283.12 276.09,-314.51 366.7,-315.48 433.22,-310.06"/>
<polygon fill="#63b8ff" stroke="#63b8ff" points="117.55,-204.41 108.78,-198.47 111.94,-208.59 117.55,-204.41"/>
</a>
</g>
</g>
<!-- Node3 -->
<g id="Node000003" class="node">
<title>Node3</title>
<g id="a_Node000003"><a xlink:href="classDGtal_1_1VoronoiMap.html" target="_top" xlink:title=" ">
<polygon fill="white" stroke="#666666" points="598.25,-257 454,-257 454,-215.25 598.25,-215.25 598.25,-257"/>
<text xml:space="preserve" text-anchor="start" x="462" y="-243.5" font-family="FreeSans" font-size="10.00">DGtal::Domain&lt; TSpace,</text>
<text xml:space="preserve" text-anchor="start" x="462" y="-232.25" font-family="FreeSans" font-size="10.00"> TPointPredicate, TSeparable</text>
<text xml:space="preserve" text-anchor="middle" x="526.12" y="-221" font-family="FreeSans" font-size="10.00">Metric, TImageContainer &gt;</text>
</a>
</g>
</g>
<!-- Node1&#45;&gt;Node3 -->
<g id="edge3_Node000001_Node000003" class="edge">
<title>Node1&#45;&gt;Node3</title>
<g id="a_edge3_Node000001_Node000003"><a xlink:title=" ">
<path fill="none" stroke="orange" stroke-dasharray="5,2" d="M160.97,-201.01C174.87,-205.35 189.53,-209.36 203.5,-212.12 288.36,-228.95 387.94,-234.21 453.56,-235.73"/>
<polygon fill="orange" stroke="orange" points="162.05,-197.68 151.45,-197.94 159.9,-204.34 162.05,-197.68"/>
</a>
</g>
<text xml:space="preserve" text-anchor="start" x="221.12" y="-269.16" font-family="FreeSans" font-size="10.00" fill="grey">&lt; TSpace, TPointPredicate,</text>
<text xml:space="preserve" text-anchor="start" x="221.12" y="-253.91" font-family="FreeSans" font-size="10.00" fill="grey">   TSeparableMetric, TImageContainer</text>
<text xml:space="preserve" text-anchor="start" x="221.12" y="-238.66" font-family="FreeSans" font-size="10.00" fill="grey">   &gt;::Domain</text>
</g>
<!-- Node4 -->
<g id="Node000004" class="node">
<title>Node4</title>
<g id="a_Node000004"><a xlink:href="classDGtal_1_1VoronoiMap.html" target="_top" xlink:title=" ">
<polygon fill="white" stroke="#666666" points="582.5,-197 469.75,-197 469.75,-155.25 582.5,-155.25 582.5,-197"/>
<text xml:space="preserve" text-anchor="start" x="477.75" y="-183.5" font-family="FreeSans" font-size="10.00">DGtal::VoronoiMap&lt;</text>
<text xml:space="preserve" text-anchor="start" x="477.75" y="-172.25" font-family="FreeSans" font-size="10.00"> Space, NotPredicate,</text>
<text xml:space="preserve" text-anchor="middle" x="526.12" y="-161" font-family="FreeSans" font-size="10.00"> Metric &gt;</text>
</a>
</g>
</g>
<!-- Node1&#45;&gt;Node4 -->
<g id="edge5_Node000001_Node000004" class="edge">
<title>Node1&#45;&gt;Node4</title>
<g id="a_edge5_Node000001_Node000004"><a xlink:title=" ">
<path fill="none" stroke="orange" stroke-dasharray="5,2" d="M197.07,-176.12C282.59,-176.12 400.79,-176.12 469.48,-176.12"/>
<polygon fill="orange" stroke="orange" points="197.28,-172.63 187.28,-176.13 197.28,-179.63 197.28,-172.63"/>
</a>
</g>
<text xml:space="preserve" text-anchor="start" x="253" y="-196.12" font-family="FreeSans" font-size="10.00" fill="grey">&lt; Space, NotPredicate,</text>
<text xml:space="preserve" text-anchor="start" x="253" y="-180.88" font-family="FreeSans" font-size="10.00" fill="grey">   Metric &gt;</text>
</g>
<!-- Node5 -->
<g id="Node000005" class="node">
<title>Node5</title>
<g id="a_Node000005"><a xlink:href="classDGtal_1_1VoronoiMap.html" target="_top" xlink:title=" ">
<polygon fill="white" stroke="#666666" points="585.12,-137 467.12,-137 467.12,-95.25 585.12,-95.25 585.12,-137"/>
<text xml:space="preserve" text-anchor="start" x="475.12" y="-123.5" font-family="FreeSans" font-size="10.00">DGtal::VoronoiMap&lt;</text>
<text xml:space="preserve" text-anchor="start" x="475.12" y="-112.25" font-family="FreeSans" font-size="10.00"> Z2i::Space, DigitalSet,</text>
<text xml:space="preserve" text-anchor="middle" x="526.12" y="-101" font-family="FreeSans" font-size="10.00"> Z2i::L2Metric &gt;</text>
</a>
</g>
</g>
<!-- Node1&#45;&gt;Node5 -->
<g id="edge6_Node000001_Node000005" class="edge">
<title>Node1&#45;&gt;Node5</title>
<g id="a_edge6_Node000001_Node000005"><a xlink:title=" ">
<path fill="none" stroke="orange" stroke-dasharray="5,2" d="M159.6,-151.29C173.89,-146.73 189.06,-142.51 203.5,-139.62 294.23,-121.52 401.84,-116.99 466.73,-116.06"/>
<polygon fill="orange" stroke="orange" points="158.7,-147.9 150.3,-154.36 160.89,-154.55 158.7,-147.9"/>
</a>
</g>
<text xml:space="preserve" text-anchor="start" x="250.38" y="-159.62" font-family="FreeSans" font-size="10.00" fill="grey">&lt; Z2i::Space, DigitalSet,</text>
<text xml:space="preserve" text-anchor="start" x="250.38" y="-144.38" font-family="FreeSans" font-size="10.00" fill="grey">   Z2i::L2Metric &gt;</text>
</g>
<!-- Node6 -->
<g id="Node000006" class="node">
<title>Node6</title>
<g id="a_Node000006"><a xlink:href="classDGtal_1_1VoronoiMap.html" target="_top" xlink:title=" ">
<polygon fill="white" stroke="#666666" points="629,-64.25 423.25,-64.25 423.25,0 629,0 629,-64.25"/>
<text xml:space="preserve" text-anchor="start" x="431.25" y="-50.75" font-family="FreeSans" font-size="10.00">DGtal::VoronoiMap&lt;</text>
<text xml:space="preserve" text-anchor="start" x="431.25" y="-39.5" font-family="FreeSans" font-size="10.00"> TSpace, TPointPredicate,</text>
<text xml:space="preserve" text-anchor="start" x="431.25" y="-28.25" font-family="FreeSans" font-size="10.00"> TSeparableMetric, ImageContainer</text>
<text xml:space="preserve" text-anchor="start" x="431.25" y="-17" font-family="FreeSans" font-size="10.00">BySTLVector&lt; HyperRectDomain</text>
<text xml:space="preserve" text-anchor="middle" x="526.12" y="-5.75" font-family="FreeSans" font-size="10.00">&lt; TSpace &gt;, typename TSpace::Vector &gt; &gt;</text>
</a>
</g>
</g>
<!-- Node1&#45;&gt;Node6 -->
<g id="edge7_Node000001_Node000006" class="edge">
<title>Node1&#45;&gt;Node6</title>
<g id="a_edge7_Node000001_Node000006"><a xlink:title=" ">
<path fill="none" stroke="orange" stroke-dasharray="5,2" d="M110.68,-145.59C129.16,-115.62 161.77,-71.52 203.5,-51.12 271.34,-17.96 357.07,-14.49 422.96,-18.62"/>
<polygon fill="orange" stroke="orange" points="107.86,-143.48 105.74,-153.86 113.87,-147.08 107.86,-143.48"/>
</a>
</g>
<text xml:space="preserve" text-anchor="start" x="206.5" y="-101.62" font-family="FreeSans" font-size="10.00" fill="grey">&lt; TSpace, TPointPredicate,</text>
<text xml:space="preserve" text-anchor="start" x="206.5" y="-86.38" font-family="FreeSans" font-size="10.00" fill="grey">   TSeparableMetric, ImageContainer</text>
<text xml:space="preserve" text-anchor="start" x="206.5" y="-71.12" font-family="FreeSans" font-size="10.00" fill="grey">  BySTLVector&lt; HyperRectDomain</text>
<text xml:space="preserve" text-anchor="start" x="206.5" y="-55.88" font-family="FreeSans" font-size="10.00" fill="grey">  &lt; TSpace &gt;, typename TSpace::Vector &gt; &gt;</text>
</g>
</g>
</svg>

<g id="navigator" transform="translate(0 0)" fill="#404254">
  <rect fill="#f2f5e9" fill-opacity="0.5" stroke="#606060" stroke-width=".5" x="0" y="0" width="60" height="60"/>
  <use id="zoomplus" xlink:href="#zoomPlus" x="17" y="9" onmousedown="handleZoom(evt,'in')"/>
  <use id="zoomminus" xlink:href="#zoomMin" x="42" y="9" onmousedown="handleZoom(evt,'out')"/>
  <use id="reset" xlink:href="#resetDef" x="30" y="36" onmousedown="handleReset()"/>
   <use id="arrowup" xlink:href="#arrowUp" x="0" y="0" onmousedown="handlePan(0,-1)"/>
  <use id="arrowright" xlink:href="#arrowRight" x="0" y="0" onmousedown="handlePan(1,0)"/>
  <use id="arrowdown" xlink:href="#arrowDown" x="0" y="0" onmousedown="handlePan(0,1)"/>
  <use id="arrowleft" xlink:href="#arrowLeft" x="0" y="0" onmousedown="handlePan(-1,0)"/>
</g>
<svg viewBox="0 0 15 15" width="100%" height="30px" preserveAspectRatio="xMaxYMin meet">
 <g id="arrow_out" transform="scale(0.3 0.3)">
  <a xlink:href="classDGtal_1_1VoronoiMap__inherit__graph_org.svg" target="_base">
   <rect id="button" ry="5" rx="5" y="6" x="6" height="38" width="38"
        fill="#f2f5e9" fill-opacity="0.5" stroke="#606060" stroke-width="1.0"/>
   <path id="arrow"
     d="M 11.500037,31.436501 C 11.940474,20.09759 22.043105,11.32322 32.158766,21.979434 L 37.068811,17.246167 C 37.068811,17.246167 37.088388,32 37.088388,32 L 22.160133,31.978069 C 22.160133,31.978069 26.997745,27.140456 26.997745,27.140456 C 18.528582,18.264221 13.291696,25.230495 11.500037,31.436501 z"
     style="fill:#404040;"/>
  </a>
 </g>
</svg>

<style type='text/css'>
<![CDATA[
[data-mouse-over-selected='false'] { opacity: 0.7; }
[data-mouse-over-selected='true']  { opacity: 1.0; }
]]>
</style>
<script type="application/ecmascript"><![CDATA[
document.addEventListener('DOMContentLoaded', (event) => {
  highlightEdges();
  highlightAdjacentNodes();
});
]]></script>
</svg>
