<?xml version="1.0" encoding="UTF-8" standalone="no"?>
<!DOCTYPE svg PUBLIC "-//W3C//DTD SVG 1.1//EN"
 "http://www.w3.org/Graphics/SVG/1.1/DTD/svg11.dtd">
<!-- Generated by graphviz version 7.0.1 (20221109.1506)
 -->
<!-- Title: DGtal::TwoStepLocalLengthEstimator&lt; TConstIterator &gt; Pages: 1 -->
<svg width="353pt" height="86pt"
 viewBox="0.00 0.00 353.00 86.00" xmlns="http://www.w3.org/2000/svg" xmlns:xlink="http://www.w3.org/1999/xlink">
<g id="graph0" class="graph" transform="scale(1 1) rotate(0) translate(4 82)">
<title>DGtal::TwoStepLocalLengthEstimator&lt; TConstIterator &gt;</title>
<!-- Node1 -->
<g id="node1" class="node">
<title>Node1</title>
<g id="a_node1"><a xlink:title="Aim: a simple model of CGlobalCurveEstimator that compute the length of a curve using the l_1 metric ...">
<polygon fill="#999999" stroke="#666666" points="140,-54 0,-54 0,-24 140,-24 140,-54"/>
<text text-anchor="start" x="8" y="-42" font-family="FreeSans" font-size="10.00">DGtal::TwoStepLocalLength</text>
<text text-anchor="middle" x="70" y="-31" font-family="FreeSans" font-size="10.00">Estimator&lt; TConstIterator &gt;</text>
</a>
</g>
</g>
<!-- Node2 -->
<g id="node2" class="node">
<title>Node2</title>
<g id="a_node2"><a xlink:href="classDGtal_1_1BLUELocalLengthEstimator.html" target="_top" xlink:title="Aim: Best Linear Unbiased Two step length estimator.">
<polygon fill="white" stroke="#666666" points="345,-78 176,-78 176,-48 345,-48 345,-78"/>
<text text-anchor="start" x="184" y="-66" font-family="FreeSans" font-size="10.00">DGtal::BLUELocalLengthEstimator</text>
<text text-anchor="middle" x="260.5" y="-55" font-family="FreeSans" font-size="10.00">&lt; TConstIterator &gt;</text>
</a>
</g>
</g>
<!-- Node1&#45;&gt;Node2 -->
<g id="edge1" class="edge">
<title>Node1&#45;&gt;Node2</title>
<path fill="none" stroke="#63b8ff" d="M151.79,-49.29C159.66,-50.29 167.65,-51.31 175.55,-52.31"/>
<polygon fill="#63b8ff" stroke="#63b8ff" points="152.25,-45.82 141.89,-48.03 151.37,-52.76 152.25,-45.82"/>
</g>
<!-- Node3 -->
<g id="node3" class="node">
<title>Node3</title>
<g id="a_node3"><a xlink:href="classDGtal_1_1RosenProffittLocalLengthEstimator.html" target="_top" xlink:title="Aim: Rosen&#45;Proffitt Length Estimator.">
<polygon fill="white" stroke="#666666" points="345,-30 176,-30 176,0 345,0 345,-30"/>
<text text-anchor="start" x="184" y="-18" font-family="FreeSans" font-size="10.00">DGtal::RosenProffittLocal</text>
<text text-anchor="middle" x="260.5" y="-7" font-family="FreeSans" font-size="10.00">LengthEstimator&lt; TConstIterator &gt;</text>
</a>
</g>
</g>
<!-- Node1&#45;&gt;Node3 -->
<g id="edge2" class="edge">
<title>Node1&#45;&gt;Node3</title>
<path fill="none" stroke="#63b8ff" d="M151.79,-28.71C159.66,-27.71 167.65,-26.69 175.55,-25.69"/>
<polygon fill="#63b8ff" stroke="#63b8ff" points="151.37,-25.24 141.89,-29.97 152.25,-32.18 151.37,-25.24"/>
</g>
</g>
</svg>
