<?xml version="1.0" encoding="UTF-8" standalone="no"?>
<!DOCTYPE svg PUBLIC "-//W3C//DTD SVG 1.1//EN"
 "http://www.w3.org/Graphics/SVG/1.1/DTD/svg11.dtd">
<!-- Generated by graphviz version 7.0.1 (20221109.1506)
 -->
<!-- Title: DGtal::PredicateFromOrientationFunctor2&lt; TOrientationFunctor, acceptNeg, acceptZero &gt; Pages: 1 -->
<svg width="470pt" height="86pt"
 viewBox="0.00 0.00 470.00 86.00" xmlns="http://www.w3.org/2000/svg" xmlns:xlink="http://www.w3.org/1999/xlink">
<g id="graph0" class="graph" transform="scale(1 1) rotate(0) translate(4 82)">
<title>DGtal::PredicateFromOrientationFunctor2&lt; TOrientationFunctor, acceptNeg, acceptZero &gt;</title>
<!-- Node1 -->
<g id="node1" class="node">
<title>Node1</title>
<g id="a_node1"><a xlink:title="Aim: Small adapter to models of COrientationFunctor2. It is a model of concepts::CPointPredicate....">
<polygon fill="#999999" stroke="#666666" points="159,-59.5 0,-59.5 0,-18.5 159,-18.5 159,-59.5"/>
<text text-anchor="start" x="8" y="-47.5" font-family="FreeSans" font-size="10.00">DGtal::PredicateFromOrientation</text>
<text text-anchor="start" x="8" y="-36.5" font-family="FreeSans" font-size="10.00">Functor2&lt; TOrientationFunctor,</text>
<text text-anchor="middle" x="79.5" y="-25.5" font-family="FreeSans" font-size="10.00"> acceptNeg, acceptZero &gt;</text>
</a>
</g>
</g>
<!-- Node2 -->
<g id="node2" class="node">
<title>Node2</title>
<g id="a_node2"><a xlink:href="classDGtal_1_1PredicateFromOrientationFunctor2.html" target="_top" xlink:title=" ">
<polygon fill="white" stroke="#666666" points="462,-78 303,-78 303,-48 462,-48 462,-78"/>
<text text-anchor="start" x="311" y="-66" font-family="FreeSans" font-size="10.00">DGtal::PredicateFromOrientation</text>
<text text-anchor="middle" x="382.5" y="-55" font-family="FreeSans" font-size="10.00">Functor2&lt; Functor, false, false &gt;</text>
</a>
</g>
</g>
<!-- Node1&#45;&gt;Node2 -->
<g id="edge1" class="edge">
<title>Node1&#45;&gt;Node2</title>
<path fill="none" stroke="orange" stroke-dasharray="5,2" d="M170.55,-46.18C212.61,-49.53 262.21,-53.49 302.75,-56.72"/>
<polygon fill="orange" stroke="orange" points="170.95,-42.7 160.7,-45.39 170.39,-49.68 170.95,-42.7"/>
<text text-anchor="middle" x="231" y="-58" font-family="FreeSans" font-size="10.00"> &lt; Functor, false, false &gt;</text>
</g>
<!-- Node3 -->
<g id="node3" class="node">
<title>Node3</title>
<g id="a_node3"><a xlink:href="classDGtal_1_1PredicateFromOrientationFunctor2.html" target="_top" xlink:title=" ">
<polygon fill="white" stroke="#666666" points="462,-30 303,-30 303,0 462,0 462,-30"/>
<text text-anchor="start" x="311" y="-18" font-family="FreeSans" font-size="10.00">DGtal::PredicateFromOrientation</text>
<text text-anchor="middle" x="382.5" y="-7" font-family="FreeSans" font-size="10.00">Functor2&lt; Functor, true, false &gt;</text>
</a>
</g>
</g>
<!-- Node1&#45;&gt;Node3 -->
<g id="edge2" class="edge">
<title>Node1&#45;&gt;Node3</title>
<path fill="none" stroke="orange" stroke-dasharray="5,2" d="M170.79,-31.5C172.88,-31.33 174.95,-31.16 177,-31 218.53,-27.65 264.82,-24.02 302.83,-21.07"/>
<polygon fill="orange" stroke="orange" points="170.68,-28 161,-32.3 171.25,-34.98 170.68,-28"/>
<text text-anchor="middle" x="231" y="-34" font-family="FreeSans" font-size="10.00"> &lt; Functor, true, false &gt;</text>
</g>
</g>
</svg>
