<?xml version="1.0" encoding="UTF-8" standalone="no"?>
<!DOCTYPE svg PUBLIC "-//W3C//DTD SVG 1.1//EN"
 "http://www.w3.org/Graphics/SVG/1.1/DTD/svg11.dtd">
<!-- Generated by graphviz version 7.0.1 (20221109.1506)
 -->
<!-- Title: DGtal::CountedConstPtrOrConstPtr&lt; T &gt; Pages: 1 -->
<!--zoomable 696 -->
<svg id="main" version="1.1" xmlns="http://www.w3.org/2000/svg" xmlns:xlink="http://www.w3.org/1999/xlink" xml:space="preserve" onload="init(evt)">
<style type="text/css"><![CDATA[
.edge:hover path { stroke: red; }
.edge:hover polygon { stroke: red; fill: red; }
]]></style>
<script type="text/javascript"><![CDATA[
var edges = document.getElementsByTagName('g');
if (edges && edges.length) {
  for (var i=0;i<edges.length;i++) {
    if (edges[i].id.substr(0,4)=='edge') {
      edges[i].setAttribute('class','edge');
    }
  }
}
]]></script>
        <defs>
                <circle id="rim" cx="0" cy="0" r="7"/>
                <circle id="rim2" cx="0" cy="0" r="3.5"/>
                <g id="zoomPlus">
                        <use xlink:href="#rim" fill="#404040">
                                <set attributeName="fill" to="#808080" begin="zoomplus.mouseover" end="zoomplus.mouseout"/>
                        </use>
                        <path d="M-4,0h8M0,-4v8" fill="none" stroke="white" stroke-width="1.5" pointer-events="none"/>
                </g>
                <g id="zoomMin">
                        <use xlink:href="#rim" fill="#404040">
                                <set attributeName="fill" to="#808080" begin="zoomminus.mouseover" end="zoomminus.mouseout"/>
                        </use>
                        <path d="M-4,0h8" fill="none" stroke="white" stroke-width="1.5" pointer-events="none"/>
                </g>
                <g id="dirArrow">
                        <path fill="none" stroke="white" stroke-width="1.5" d="M0,-3.0v7 M-2.5,-0.5L0,-3.0L2.5,-0.5"/>
                </g>
               <g id="resetDef">
                       <use xlink:href="#rim2" fill="#404040">
                               <set attributeName="fill" to="#808080" begin="reset.mouseover" end="reset.mouseout"/>
                       </use>
               </g>
        </defs>

<script type="text/javascript">
var viewWidth = 484;
var viewHeight = 696;
var sectionId = 'dynsection-0';
</script>
<script xlink:href="svgpan.js"/>
<svg id="graph" class="graph">
<g id="viewport">
<title>DGtal::CountedConstPtrOrConstPtr&lt; T &gt;</title>
<!-- Node1 -->
<g id="node1" class="node">
<title>Node1</title>
<g id="a_node1"><a xlink:title="Aim: Smart or simple const pointer on T. It can be a smart pointer based on reference counts or a sim...">
<polygon fill="#999999" stroke="#666666" points="134,-354 0,-354 0,-324 134,-324 134,-354"/>
<text text-anchor="start" x="8" y="-342" font-family="FreeSans" font-size="10.00">DGtal::CountedConstPtrOr</text>
<text text-anchor="middle" x="67" y="-331" font-family="FreeSans" font-size="10.00">ConstPtr&lt; T &gt;</text>
</a>
</g>
</g>
<!-- Node2 -->
<g id="node2" class="node">
<title>Node2</title>
<g id="a_node2"><a xlink:href="classDGtal_1_1CountedConstPtrOrConstPtr.html" target="_top" xlink:title=" ">
<polygon fill="white" stroke="#666666" points="453.5,-678 319.5,-678 319.5,-648 453.5,-648 453.5,-678"/>
<text text-anchor="start" x="327.5" y="-666" font-family="FreeSans" font-size="10.00">DGtal::CountedConstPtrOr</text>
<text text-anchor="middle" x="386.5" y="-655" font-family="FreeSans" font-size="10.00">ConstPtr&lt; DummyTbl &gt;</text>
</a>
</g>
</g>
<!-- Node1&#45;&gt;Node2 -->
<g id="edge1" class="edge">
<title>Node1&#45;&gt;Node2</title>
<path fill="none" stroke="orange" stroke-dasharray="5,2" d="M71.55,-365.7C81.03,-432.7 109.17,-605.16 152,-641 197.83,-679.34 267.84,-680.96 319.26,-675.35"/>
<polygon fill="orange" stroke="orange" points="75.04,-365.4 70.2,-355.97 68.11,-366.36 75.04,-365.4"/>
<text text-anchor="middle" x="215.5" y="-680" font-family="FreeSans" font-size="10.00"> &lt; DummyTbl &gt;</text>
</g>
<!-- Node3 -->
<g id="node3" class="node">
<title>Node3</title>
<g id="a_node3"><a xlink:href="classDGtal_1_1CountedConstPtrOrConstPtr.html" target="_top" xlink:title=" ">
<polygon fill="white" stroke="#666666" points="470,-629.5 303,-629.5 303,-588.5 470,-588.5 470,-629.5"/>
<text text-anchor="start" x="311" y="-617.5" font-family="FreeSans" font-size="10.00">DGtal::CountedConstPtrOr</text>
<text text-anchor="start" x="311" y="-606.5" font-family="FreeSans" font-size="10.00">ConstPtr&lt; DGtal::DiscreteExterior</text>
<text text-anchor="middle" x="386.5" y="-595.5" font-family="FreeSans" font-size="10.00">Calculus &gt;</text>
</a>
</g>
</g>
<!-- Node1&#45;&gt;Node3 -->
<g id="edge2" class="edge">
<title>Node1&#45;&gt;Node3</title>
<path fill="none" stroke="orange" stroke-dasharray="5,2" d="M69.12,-365.51C72.75,-414.78 87.99,-520.22 152,-573 193.46,-607.18 253.63,-615.81 302.51,-616.08"/>
<polygon fill="orange" stroke="orange" points="72.63,-365.54 68.52,-355.78 65.65,-365.97 72.63,-365.54"/>
<text text-anchor="start" x="158" y="-629" font-family="FreeSans" font-size="10.00"> &lt; DGtal::DiscreteExterior</text>
<text text-anchor="middle" x="215.5" y="-618" font-family="FreeSans" font-size="10.00">Calculus &gt;</text>
</g>
<!-- Node4 -->
<g id="node4" class="node">
<title>Node4</title>
<g id="a_node4"><a xlink:href="classDGtal_1_1CountedConstPtrOrConstPtr.html" target="_top" xlink:title=" ">
<polygon fill="white" stroke="#666666" points="453.5,-570 319.5,-570 319.5,-540 453.5,-540 453.5,-570"/>
<text text-anchor="start" x="327.5" y="-558" font-family="FreeSans" font-size="10.00">DGtal::CountedConstPtrOr</text>
<text text-anchor="middle" x="386.5" y="-547" font-family="FreeSans" font-size="10.00">ConstPtr&lt; ShapeA &gt;</text>
</a>
</g>
</g>
<!-- Node1&#45;&gt;Node4 -->
<g id="edge3" class="edge">
<title>Node1&#45;&gt;Node4</title>
<path fill="none" stroke="orange" stroke-dasharray="5,2" d="M72.46,-365.71C80.63,-405.7 102.02,-480.43 152,-518 199.74,-553.88 268.64,-560.93 319.23,-560.33"/>
<polygon fill="orange" stroke="orange" points="75.92,-365.15 70.61,-355.98 69.04,-366.46 75.92,-365.15"/>
<text text-anchor="middle" x="215.5" y="-561" font-family="FreeSans" font-size="10.00"> &lt; ShapeA &gt;</text>
</g>
<!-- Node5 -->
<g id="node5" class="node">
<title>Node5</title>
<g id="a_node5"><a xlink:href="classDGtal_1_1CountedConstPtrOrConstPtr.html" target="_top" xlink:title=" ">
<polygon fill="white" stroke="#666666" points="453.5,-522 319.5,-522 319.5,-492 453.5,-492 453.5,-522"/>
<text text-anchor="start" x="327.5" y="-510" font-family="FreeSans" font-size="10.00">DGtal::CountedConstPtrOr</text>
<text text-anchor="middle" x="386.5" y="-499" font-family="FreeSans" font-size="10.00">ConstPtr&lt; Surface &gt;</text>
</a>
</g>
</g>
<!-- Node1&#45;&gt;Node5 -->
<g id="edge4" class="edge">
<title>Node1&#45;&gt;Node5</title>
<path fill="none" stroke="orange" stroke-dasharray="5,2" d="M78.34,-364.74C91.2,-393.26 115.93,-438.32 152,-462 201.69,-494.63 269.36,-504.79 319.06,-507.43"/>
<polygon fill="orange" stroke="orange" points="81.63,-363.53 74.45,-355.74 75.21,-366.31 81.63,-363.53"/>
<text text-anchor="middle" x="215.5" y="-506" font-family="FreeSans" font-size="10.00"> &lt; Surface &gt;</text>
</g>
<!-- Node6 -->
<g id="node6" class="node">
<title>Node6</title>
<g id="a_node6"><a xlink:href="classDGtal_1_1CountedConstPtrOrConstPtr.html" target="_top" xlink:title=" ">
<polygon fill="white" stroke="#666666" points="458.5,-474 314.5,-474 314.5,-444 458.5,-444 458.5,-474"/>
<text text-anchor="start" x="322.5" y="-462" font-family="FreeSans" font-size="10.00">DGtal::CountedConstPtrOr</text>
<text text-anchor="middle" x="386.5" y="-451" font-family="FreeSans" font-size="10.00">ConstPtr&lt; EuclideanShape &gt;</text>
</a>
</g>
</g>
<!-- Node1&#45;&gt;Node6 -->
<g id="edge5" class="edge">
<title>Node1&#45;&gt;Node6</title>
<path fill="none" stroke="orange" stroke-dasharray="5,2" d="M89.14,-362.12C104.94,-377.99 127.89,-398.23 152,-410 202.99,-434.9 266.28,-447.18 314.1,-453.22"/>
<polygon fill="orange" stroke="orange" points="92.09,-360.13 82.62,-355.38 87.06,-365 92.09,-360.13"/>
<text text-anchor="middle" x="215.5" y="-450" font-family="FreeSans" font-size="10.00"> &lt; EuclideanShape &gt;</text>
</g>
<!-- Node7 -->
<g id="node7" class="node">
<title>Node7</title>
<g id="a_node7"><a xlink:href="classDGtal_1_1CountedConstPtrOrConstPtr.html" target="_top" xlink:title=" ">
<polygon fill="white" stroke="#666666" points="475,-426 298,-426 298,-396 475,-396 475,-426"/>
<text text-anchor="start" x="306" y="-414" font-family="FreeSans" font-size="10.00">DGtal::CountedConstPtrOr</text>
<text text-anchor="middle" x="386.5" y="-403" font-family="FreeSans" font-size="10.00">ConstPtr&lt; DigitalSurfaceContainer &gt;</text>
</a>
</g>
</g>
<!-- Node1&#45;&gt;Node7 -->
<g id="edge6" class="edge">
<title>Node1&#45;&gt;Node7</title>
<path fill="none" stroke="orange" stroke-dasharray="5,2" d="M117.42,-358.18C128.67,-362.12 140.66,-365.98 152,-369 199.56,-381.68 253.6,-391.67 297.7,-398.72"/>
<polygon fill="orange" stroke="orange" points="118.91,-354.99 108.32,-354.91 116.55,-361.58 118.91,-354.99"/>
<text text-anchor="middle" x="215.5" y="-398" font-family="FreeSans" font-size="10.00"> &lt; DigitalSurfaceContainer &gt;</text>
</g>
<!-- Node8 -->
<g id="node8" class="node">
<title>Node8</title>
<g id="a_node8"><a xlink:href="classDGtal_1_1CountedConstPtrOrConstPtr.html" target="_top" xlink:title=" ">
<polygon fill="white" stroke="#666666" points="455,-378 318,-378 318,-348 455,-348 455,-378"/>
<text text-anchor="start" x="326" y="-366" font-family="FreeSans" font-size="10.00">DGtal::CountedConstPtrOr</text>
<text text-anchor="middle" x="386.5" y="-355" font-family="FreeSans" font-size="10.00">ConstPtr&lt; PointPredicate &gt;</text>
</a>
</g>
</g>
<!-- Node1&#45;&gt;Node8 -->
<g id="edge7" class="edge">
<title>Node1&#45;&gt;Node8</title>
<path fill="none" stroke="orange" stroke-dasharray="5,2" d="M145.5,-344.86C198.2,-348.84 267.27,-354.06 317.77,-357.88"/>
<polygon fill="orange" stroke="orange" points="145.92,-341.38 135.68,-344.12 145.39,-348.36 145.92,-341.38"/>
<text text-anchor="middle" x="215.5" y="-357" font-family="FreeSans" font-size="10.00"> &lt; PointPredicate &gt;</text>
</g>
<!-- Node9 -->
<g id="node9" class="node">
<title>Node9</title>
<g id="a_node9"><a xlink:href="classDGtal_1_1CountedConstPtrOrConstPtr.html" target="_top" xlink:title=" ">
<polygon fill="white" stroke="#666666" points="470,-330 303,-330 303,-300 470,-300 470,-330"/>
<text text-anchor="start" x="311" y="-318" font-family="FreeSans" font-size="10.00">DGtal::CountedConstPtrOr</text>
<text text-anchor="middle" x="386.5" y="-307" font-family="FreeSans" font-size="10.00">ConstPtr&lt; DGtal::DigitalSurface &gt;</text>
</a>
</g>
</g>
<!-- Node1&#45;&gt;Node9 -->
<g id="edge8" class="edge">
<title>Node1&#45;&gt;Node9</title>
<path fill="none" stroke="orange" stroke-dasharray="5,2" d="M145.78,-330.55C147.88,-330.36 149.95,-330.18 152,-330 201.98,-325.72 258.08,-322.08 302.77,-319.45"/>
<polygon fill="orange" stroke="orange" points="145.59,-327.05 135.97,-331.47 146.25,-334.02 145.59,-327.05"/>
<text text-anchor="middle" x="215.5" y="-333" font-family="FreeSans" font-size="10.00"> &lt; DGtal::DigitalSurface &gt;</text>
</g>
<!-- Node10 -->
<g id="node10" class="node">
<title>Node10</title>
<g id="a_node10"><a xlink:href="classDGtal_1_1CountedConstPtrOrConstPtr.html" target="_top" xlink:title=" ">
<polygon fill="white" stroke="#666666" points="453.5,-282 319.5,-282 319.5,-252 453.5,-252 453.5,-282"/>
<text text-anchor="start" x="327.5" y="-270" font-family="FreeSans" font-size="10.00">DGtal::CountedConstPtrOr</text>
<text text-anchor="middle" x="386.5" y="-259" font-family="FreeSans" font-size="10.00">ConstPtr&lt; Metric &gt;</text>
</a>
</g>
</g>
<!-- Node1&#45;&gt;Node10 -->
<g id="edge9" class="edge">
<title>Node1&#45;&gt;Node10</title>
<path fill="none" stroke="orange" stroke-dasharray="5,2" d="M111.7,-319.16C124.49,-313.95 138.63,-308.74 152,-305 207.37,-289.5 272.01,-279.59 319.23,-273.79"/>
<polygon fill="orange" stroke="orange" points="110.59,-315.83 102.72,-322.93 113.3,-322.29 110.59,-315.83"/>
<text text-anchor="middle" x="215.5" y="-308" font-family="FreeSans" font-size="10.00"> &lt; Metric &gt;</text>
</g>
<!-- Node11 -->
<g id="node11" class="node">
<title>Node11</title>
<g id="a_node11"><a xlink:href="classDGtal_1_1CountedConstPtrOrConstPtr.html" target="_top" xlink:title=" ">
<polygon fill="white" stroke="#666666" points="465.5,-234 307.5,-234 307.5,-204 465.5,-204 465.5,-234"/>
<text text-anchor="start" x="315.5" y="-222" font-family="FreeSans" font-size="10.00">DGtal::CountedConstPtrOr</text>
<text text-anchor="middle" x="386.5" y="-211" font-family="FreeSans" font-size="10.00">ConstPtr&lt; ConvolutionFunctor &gt;</text>
</a>
</g>
</g>
<!-- Node1&#45;&gt;Node11 -->
<g id="edge10" class="edge">
<title>Node1&#45;&gt;Node11</title>
<path fill="none" stroke="orange" stroke-dasharray="5,2" d="M87.98,-315.33C103.65,-298.37 126.93,-276.41 152,-264 200.38,-240.05 260.25,-228.83 307.25,-223.58"/>
<polygon fill="orange" stroke="orange" points="85.59,-312.76 81.53,-322.54 90.81,-317.43 85.59,-312.76"/>
<text text-anchor="middle" x="215.5" y="-267" font-family="FreeSans" font-size="10.00"> &lt; ConvolutionFunctor &gt;</text>
</g>
<!-- Node12 -->
<g id="node12" class="node">
<title>Node12</title>
<g id="a_node12"><a xlink:href="classDGtal_1_1CountedConstPtrOrConstPtr.html" target="_top" xlink:title=" ">
<polygon fill="white" stroke="#666666" points="453.5,-186 319.5,-186 319.5,-156 453.5,-156 453.5,-186"/>
<text text-anchor="start" x="327.5" y="-174" font-family="FreeSans" font-size="10.00">DGtal::CountedConstPtrOr</text>
<text text-anchor="middle" x="386.5" y="-163" font-family="FreeSans" font-size="10.00">ConstPtr&lt; KSpace &gt;</text>
</a>
</g>
</g>
<!-- Node1&#45;&gt;Node12 -->
<g id="edge11" class="edge">
<title>Node1&#45;&gt;Node12</title>
<path fill="none" stroke="orange" stroke-dasharray="5,2" d="M77.68,-313.18C90.15,-283.7 114.75,-236.41 152,-212 201.66,-179.46 269.49,-170.57 319.25,-169.01"/>
<polygon fill="orange" stroke="orange" points="74.57,-311.53 74.06,-322.12 81.06,-314.16 74.57,-311.53"/>
<text text-anchor="middle" x="215.5" y="-215" font-family="FreeSans" font-size="10.00"> &lt; KSpace &gt;</text>
</g>
<!-- Node13 -->
<g id="node13" class="node">
<title>Node13</title>
<g id="a_node13"><a xlink:href="classDGtal_1_1CountedConstPtrOrConstPtr.html" target="_top" xlink:title=" ">
<polygon fill="white" stroke="#666666" points="453.5,-138 319.5,-138 319.5,-108 453.5,-108 453.5,-138"/>
<text text-anchor="start" x="327.5" y="-126" font-family="FreeSans" font-size="10.00">DGtal::CountedConstPtrOr</text>
<text text-anchor="middle" x="386.5" y="-115" font-family="FreeSans" font-size="10.00">ConstPtr&lt; Shape &gt;</text>
</a>
</g>
</g>
<!-- Node1&#45;&gt;Node13 -->
<g id="edge12" class="edge">
<title>Node1&#45;&gt;Node13</title>
<path fill="none" stroke="orange" stroke-dasharray="5,2" d="M72.02,-312.48C79.72,-271.7 100.58,-194.32 152,-156 199.76,-120.4 268.66,-114.61 319.24,-116.24"/>
<polygon fill="orange" stroke="orange" points="68.61,-311.7 70.34,-322.15 75.5,-312.9 68.61,-311.7"/>
<text text-anchor="middle" x="215.5" y="-159" font-family="FreeSans" font-size="10.00"> &lt; Shape &gt;</text>
</g>
<!-- Node14 -->
<g id="node14" class="node">
<title>Node14</title>
<g id="a_node14"><a xlink:href="classDGtal_1_1CountedConstPtrOrConstPtr.html" target="_top" xlink:title=" ">
<polygon fill="white" stroke="#666666" points="476,-89.5 297,-89.5 297,-48.5 476,-48.5 476,-89.5"/>
<text text-anchor="start" x="305" y="-77.5" font-family="FreeSans" font-size="10.00">DGtal::CountedConstPtrOr</text>
<text text-anchor="start" x="305" y="-66.5" font-family="FreeSans" font-size="10.00">ConstPtr&lt; DGtal::VoronoiCovariance</text>
<text text-anchor="middle" x="386.5" y="-55.5" font-family="FreeSans" font-size="10.00">MeasureOnDigitalSurface &gt;</text>
</a>
</g>
</g>
<!-- Node1&#45;&gt;Node14 -->
<g id="edge13" class="edge">
<title>Node1&#45;&gt;Node14</title>
<path fill="none" stroke="orange" stroke-dasharray="5,2" d="M68.15,-312.24C70.04,-260.03 82.34,-144.91 152,-90 192.12,-58.38 249.02,-52.71 296.6,-55.15"/>
<polygon fill="orange" stroke="orange" points="64.66,-311.92 67.91,-322 71.66,-312.09 64.66,-311.92"/>
<text text-anchor="start" x="152" y="-104" font-family="FreeSans" font-size="10.00"> &lt; DGtal::VoronoiCovariance</text>
<text text-anchor="middle" x="215.5" y="-93" font-family="FreeSans" font-size="10.00">MeasureOnDigitalSurface &gt;</text>
</g>
<!-- Node15 -->
<g id="node15" class="node">
<title>Node15</title>
<g id="a_node15"><a xlink:href="classDGtal_1_1CountedConstPtrOrConstPtr.html" target="_top" xlink:title=" ">
<polygon fill="white" stroke="#666666" points="471.5,-30 301.5,-30 301.5,0 471.5,0 471.5,-30"/>
<text text-anchor="start" x="309.5" y="-18" font-family="FreeSans" font-size="10.00">DGtal::CountedConstPtrOr</text>
<text text-anchor="middle" x="386.5" y="-7" font-family="FreeSans" font-size="10.00">ConstPtr&lt; VCMOnDigitalSurface &gt;</text>
</a>
</g>
</g>
<!-- Node1&#45;&gt;Node15 -->
<g id="edge14" class="edge">
<title>Node1&#45;&gt;Node15</title>
<path fill="none" stroke="orange" stroke-dasharray="5,2" d="M71.59,-312.5C81.18,-245.98 109.56,-74.76 152,-39 192.59,-4.8 252.33,0.81 301.21,-1.93"/>
<polygon fill="orange" stroke="orange" points="68.16,-311.75 70.23,-322.14 75.1,-312.73 68.16,-311.75"/>
<text text-anchor="middle" x="215.5" y="-42" font-family="FreeSans" font-size="10.00"> &lt; VCMOnDigitalSurface &gt;</text>
</g>
</g>
</svg>
        <g id="navigator" transform="translate(0 0)" fill="#404254">
                <rect fill="#f2f5e9" fill-opacity="0.5" stroke="#606060" stroke-width=".5" x="0" y="0" width="60" height="60"/>
                <use id="zoomplus" xlink:href="#zoomPlus" x="17" y="9" onmousedown="handleZoom(evt,'in')"/>
                <use id="zoomminus" xlink:href="#zoomMin" x="42" y="9" onmousedown="handleZoom(evt,'out')"/>
                <use id="reset" xlink:href="#resetDef" x="30" y="36" onmousedown="handleReset()"/>
                <g id="arrowUp" xlink:href="#dirArrow" transform="translate(30 24)" onmousedown="handlePan(0,-1)">
                  <use xlink:href="#rim" fill="#404040">
                        <set attributeName="fill" to="#808080" begin="arrowUp.mouseover" end="arrowUp.mouseout"/>
                  </use>
                  <path fill="none" stroke="white" stroke-width="1.5" d="M0,-3.0v7 M-2.5,-0.5L0,-3.0L2.5,-0.5"/>
                </g>
                <g id="arrowRight" xlink:href="#dirArrow" transform="rotate(90) translate(36 -43)" onmousedown="handlePan(1,0)">
                  <use xlink:href="#rim" fill="#404040">
                        <set attributeName="fill" to="#808080" begin="arrowRight.mouseover" end="arrowRight.mouseout"/>
                  </use>
                  <path fill="none" stroke="white" stroke-width="1.5" d="M0,-3.0v7 M-2.5,-0.5L0,-3.0L2.5,-0.5"/>
                </g>
                <g id="arrowDown" xlink:href="#dirArrow" transform="rotate(180) translate(-30 -48)" onmousedown="handlePan(0,1)">
                  <use xlink:href="#rim" fill="#404040">
                        <set attributeName="fill" to="#808080" begin="arrowDown.mouseover" end="arrowDown.mouseout"/>
                  </use>
                  <path fill="none" stroke="white" stroke-width="1.5" d="M0,-3.0v7 M-2.5,-0.5L0,-3.0L2.5,-0.5"/>
                </g>
                <g id="arrowLeft" xlink:href="#dirArrow" transform="rotate(270) translate(-36 17)" onmousedown="handlePan(-1,0)">
                  <use xlink:href="#rim" fill="#404040">
                        <set attributeName="fill" to="#808080" begin="arrowLeft.mouseover" end="arrowLeft.mouseout"/>
                  </use>
                  <path fill="none" stroke="white" stroke-width="1.5" d="M0,-3.0v7 M-2.5,-0.5L0,-3.0L2.5,-0.5"/>
                </g>
        </g>
        <svg viewBox="0 0 15 15" width="100%" height="30px" preserveAspectRatio="xMaxYMin meet">
         <g id="arrow_out" transform="scale(0.3 0.3)">
          <a xlink:href="classDGtal_1_1CountedConstPtrOrConstPtr__inherit__graph_org.svg" target="_base">
           <rect id="button" ry="5" rx="5" y="6" x="6" height="38" width="38"
                fill="#f2f5e9" fill-opacity="0.5" stroke="#606060" stroke-width="1.0"/>
           <path id="arrow"
             d="M 11.500037,31.436501 C 11.940474,20.09759 22.043105,11.32322 32.158766,21.979434 L 37.068811,17.246167 C 37.068811,17.246167 37.088388,32 37.088388,32 L 22.160133,31.978069 C 22.160133,31.978069 26.997745,27.140456 26.997745,27.140456 C 18.528582,18.264221 13.291696,25.230495 11.500037,31.436501 z"
             style="fill:#404040;"/>
          </a>
         </g>
        </svg>
</svg>
