<?xml version="1.0" encoding="UTF-8" standalone="no"?>
<!DOCTYPE svg PUBLIC "-//W3C//DTD SVG 1.1//EN"
 "http://www.w3.org/Graphics/SVG/1.1/DTD/svg11.dtd">
<!-- Generated by graphviz version 7.0.1 (20221109.1506)
 -->
<!-- Title: GITERATORS Pages: 1 -->
<svg width="647pt" height="427pt"
 viewBox="0.00 0.00 647.03 427.00" xmlns="http://www.w3.org/2000/svg" xmlns:xlink="http://www.w3.org/1999/xlink">
<g id="graph0" class="graph" transform="scale(1 1) rotate(0) translate(4 423)">
<title>GITERATORS</title>
<polygon fill="white" stroke="none" points="-4,4 -4,-423 643.03,-423 643.03,4 -4,4"/>
<text text-anchor="middle" x="319.52" y="-7.8" font-family="Times,serif" font-size="14.00">boost_concepts</text>
<!-- ReadableIteratorConcept -->
<g id="node1" class="node">
<title>ReadableIteratorConcept</title>
<ellipse fill="none" stroke="black" cx="128.04" cy="-41" rx="98.58" ry="18"/>
<text text-anchor="middle" x="128.04" y="-37.3" font-family="Times,serif" font-size="14.00">ReadableIteratorConcept</text>
</g>
<!-- WritableIteratorConcept -->
<g id="node2" class="node">
<title>WritableIteratorConcept</title>
<ellipse fill="none" stroke="black" cx="342.04" cy="-41" rx="96.68" ry="18"/>
<text text-anchor="middle" x="342.04" y="-37.3" font-family="Times,serif" font-size="14.00">WritableIteratorConcept</text>
</g>
<!-- LValueIteratorConcept -->
<g id="node3" class="node">
<title>LValueIteratorConcept</title>
<ellipse fill="none" stroke="black" cx="548.04" cy="-41" rx="90.98" ry="18"/>
<text text-anchor="middle" x="548.04" y="-37.3" font-family="Times,serif" font-size="14.00">LValueIteratorConcept</text>
</g>
<!-- RandomAccessTraversalConcept -->
<g id="node4" class="node">
<title>RandomAccessTraversalConcept</title>
<ellipse fill="none" stroke="black" cx="128.04" cy="-113" rx="128.08" ry="18"/>
<text text-anchor="middle" x="128.04" y="-109.3" font-family="Times,serif" font-size="14.00">RandomAccessTraversalConcept</text>
</g>
<!-- BidirectionalTraversalConcept -->
<g id="node5" class="node">
<title>BidirectionalTraversalConcept</title>
<ellipse fill="none" stroke="black" cx="128.04" cy="-185" rx="118.88" ry="18"/>
<text text-anchor="middle" x="128.04" y="-181.3" font-family="Times,serif" font-size="14.00">BidirectionalTraversalConcept</text>
</g>
<!-- RandomAccessTraversalConcept&#45;&gt;BidirectionalTraversalConcept -->
<g id="edge1" class="edge">
<title>RandomAccessTraversalConcept&#45;&gt;BidirectionalTraversalConcept</title>
<path fill="none" stroke="black" d="M128.04,-131.3C128.04,-138.59 128.04,-147.27 128.04,-155.46"/>
<polygon fill="black" stroke="black" points="124.54,-155.38 128.04,-165.38 131.54,-155.38 124.54,-155.38"/>
</g>
<!-- ForwardTraversalConcept -->
<g id="node6" class="node">
<title>ForwardTraversalConcept</title>
<ellipse fill="none" stroke="black" cx="128.04" cy="-257" rx="102.88" ry="18"/>
<text text-anchor="middle" x="128.04" y="-253.3" font-family="Times,serif" font-size="14.00">ForwardTraversalConcept</text>
</g>
<!-- BidirectionalTraversalConcept&#45;&gt;ForwardTraversalConcept -->
<g id="edge2" class="edge">
<title>BidirectionalTraversalConcept&#45;&gt;ForwardTraversalConcept</title>
<path fill="none" stroke="black" d="M128.04,-203.3C128.04,-210.59 128.04,-219.27 128.04,-227.46"/>
<polygon fill="black" stroke="black" points="124.54,-227.38 128.04,-237.38 131.54,-227.38 124.54,-227.38"/>
</g>
<!-- SinglePassTraversalConcept -->
<g id="node7" class="node">
<title>SinglePassTraversalConcept</title>
<ellipse fill="none" stroke="black" cx="128.04" cy="-329" rx="111.28" ry="18"/>
<text text-anchor="middle" x="128.04" y="-325.3" font-family="Times,serif" font-size="14.00">SinglePassTraversalConcept</text>
</g>
<!-- ForwardTraversalConcept&#45;&gt;SinglePassTraversalConcept -->
<g id="edge3" class="edge">
<title>ForwardTraversalConcept&#45;&gt;SinglePassTraversalConcept</title>
<path fill="none" stroke="black" d="M128.04,-275.3C128.04,-282.59 128.04,-291.27 128.04,-299.46"/>
<polygon fill="black" stroke="black" points="124.54,-299.38 128.04,-309.38 131.54,-299.38 124.54,-299.38"/>
</g>
<!-- IncrementableTraversalConcept -->
<g id="node8" class="node">
<title>IncrementableTraversalConcept</title>
<ellipse fill="none" stroke="black" cx="128.04" cy="-401" rx="124.28" ry="18"/>
<text text-anchor="middle" x="128.04" y="-397.3" font-family="Times,serif" font-size="14.00">IncrementableTraversalConcept</text>
</g>
<!-- SinglePassTraversalConcept&#45;&gt;IncrementableTraversalConcept -->
<g id="edge4" class="edge">
<title>SinglePassTraversalConcept&#45;&gt;IncrementableTraversalConcept</title>
<path fill="none" stroke="black" d="M128.04,-347.3C128.04,-354.59 128.04,-363.27 128.04,-371.46"/>
<polygon fill="black" stroke="black" points="124.54,-371.38 128.04,-381.38 131.54,-371.38 124.54,-371.38"/>
</g>
</g>
</svg>
