<?xml version="1.0" encoding="UTF-8" standalone="no"?>
<!DOCTYPE svg PUBLIC "-//W3C//DTD SVG 1.1//EN"
 "http://www.w3.org/Graphics/SVG/1.1/DTD/svg11.dtd">
<!-- Generated by graphviz version 7.0.1 (20221109.1506)
 -->
<!-- Title: GARITHMETIC Pages: 1 -->
<!--zoomable 317 -->
<svg id="main" version="1.1" xmlns="http://www.w3.org/2000/svg" xmlns:xlink="http://www.w3.org/1999/xlink" xml:space="preserve" onload="init(evt)">
<style type="text/css"><![CDATA[
.edge:hover path { stroke: red; }
.edge:hover polygon { stroke: red; fill: red; }
]]></style>
<script type="text/javascript"><![CDATA[
var edges = document.getElementsByTagName('g');
if (edges && edges.length) {
  for (var i=0;i<edges.length;i++) {
    if (edges[i].id.substr(0,4)=='edge') {
      edges[i].setAttribute('class','edge');
    }
  }
}
]]></script>
        <defs>
                <circle id="rim" cx="0" cy="0" r="7"/>
                <circle id="rim2" cx="0" cy="0" r="3.5"/>
                <g id="zoomPlus">
                        <use xlink:href="#rim" fill="#404040">
                                <set attributeName="fill" to="#808080" begin="zoomplus.mouseover" end="zoomplus.mouseout"/>
                        </use>
                        <path d="M-4,0h8M0,-4v8" fill="none" stroke="white" stroke-width="1.5" pointer-events="none"/>
                </g>
                <g id="zoomMin">
                        <use xlink:href="#rim" fill="#404040">
                                <set attributeName="fill" to="#808080" begin="zoomminus.mouseover" end="zoomminus.mouseout"/>
                        </use>
                        <path d="M-4,0h8" fill="none" stroke="white" stroke-width="1.5" pointer-events="none"/>
                </g>
                <g id="dirArrow">
                        <path fill="none" stroke="white" stroke-width="1.5" d="M0,-3.0v7 M-2.5,-0.5L0,-3.0L2.5,-0.5"/>
                </g>
               <g id="resetDef">
                       <use xlink:href="#rim2" fill="#404040">
                               <set attributeName="fill" to="#808080" begin="reset.mouseover" end="reset.mouseout"/>
                       </use>
               </g>
        </defs>

<script type="text/javascript">
var viewWidth = 1723;
var viewHeight = 317;
</script>
<script xlink:href="svgpan.js"/>
<svg id="graph" class="graph">
<g id="viewport">
<title>GARITHMETIC</title>
<polygon fill="white" stroke="none" points="-4,4 -4,-313 1719,-313 1719,4 -4,4"/>
<g id="clust1" class="cluster">
<title>cluster_ext</title>
</g>
<g id="clust2" class="cluster">
<title>cluster_base</title>
<polygon fill="#eeeeff" stroke="#eeeeff" points="16,-218 16,-293 384,-293 384,-218 16,-218"/>
<text text-anchor="middle" x="200" y="-225.8" font-family="Times,serif" font-size="14.00">base</text>
</g>
<g id="clust3" class="cluster">
<title>cluster_kernel</title>
<polygon fill="#ddddee" stroke="#ddddee" points="392,-218 392,-293 919,-293 919,-218 392,-218"/>
<text text-anchor="middle" x="655.5" y="-225.8" font-family="Times,serif" font-size="14.00">kernel</text>
</g>
<g id="clust4" class="cluster">
<title>cluster_boost</title>
<polygon fill="white" stroke="white" points="927,-218 927,-293 1699,-293 1699,-218 927,-218"/>
<text text-anchor="middle" x="1313" y="-225.8" font-family="Times,serif" font-size="14.00">boost</text>
</g>
<g id="clust5" class="cluster">
<title>cluster_concepts</title>
<polygon fill="lightgrey" stroke="lightgrey" points="404,-102 404,-177 644,-177 644,-102 404,-102"/>
<text text-anchor="middle" x="524" y="-109.8" font-family="Times,serif" font-size="14.00">arithmetic (main concepts)</text>
</g>
<g id="clust6" class="cluster">
<title>cluster_models</title>
<polygon fill="#ccffcc" stroke="#ccffcc" points="114,-8 114,-83 1321,-83 1321,-8 114,-8"/>
<text text-anchor="middle" x="717.5" y="-15.8" font-family="Times,serif" font-size="14.00">arithmetic (main models)</text>
</g>
<!-- CBackInsertable -->
<g id="node1" class="node">
<title>CBackInsertable</title>
<g id="a_node1"><a xlink:href="structDGtal_1_1concepts_1_1CBackInsertable.html" target="_top" xlink:title="CBackInsertable">
<ellipse fill="white" stroke="white" cx="94" cy="-267" rx="69.59" ry="18"/>
<text text-anchor="middle" x="94" y="-263.3" font-family="Times,serif" font-size="14.00">CBackInsertable</text>
</a>
</g>
</g>
<!-- CConstSinglePassRange -->
<g id="node2" class="node">
<title>CConstSinglePassRange</title>
<g id="a_node2"><a xlink:href="structDGtal_1_1concepts_1_1CConstSinglePassRange.html" target="_top" xlink:title="CConstSinglePassRange">
<ellipse fill="white" stroke="white" cx="279" cy="-267" rx="97.48" ry="18"/>
<text text-anchor="middle" x="279" y="-263.3" font-family="Times,serif" font-size="14.00">CConstSinglePassRange</text>
</a>
</g>
</g>
<!-- CInteger -->
<g id="node3" class="node">
<title>CInteger</title>
<g id="a_node3"><a xlink:href="structDGtal_1_1concepts_1_1CInteger.html" target="_top" xlink:title="CInteger">
<ellipse fill="white" stroke="white" cx="600" cy="-267" rx="41.69" ry="18"/>
<text text-anchor="middle" x="600" y="-263.3" font-family="Times,serif" font-size="14.00">CInteger</text>
</a>
</g>
</g>
<!-- CSignedNumber -->
<g id="node4" class="node">
<title>CSignedNumber</title>
<g id="a_node4"><a xlink:href="structDGtal_1_1concepts_1_1CSignedNumber.html" target="_top" xlink:title="CSignedNumber">
<ellipse fill="white" stroke="white" cx="470" cy="-267" rx="70.39" ry="18"/>
<text text-anchor="middle" x="470" y="-263.3" font-family="Times,serif" font-size="14.00">CSignedNumber</text>
</a>
</g>
</g>
<!-- CUnsignedNumber -->
<g id="node5" class="node">
<title>CUnsignedNumber</title>
<g id="a_node5"><a xlink:href="structDGtal_1_1concepts_1_1CUnsignedNumber.html" target="_top" xlink:title="CUnsignedNumber">
<ellipse fill="white" stroke="white" cx="832" cy="-267" rx="79.09" ry="18"/>
<text text-anchor="middle" x="832" y="-263.3" font-family="Times,serif" font-size="14.00">CUnsignedNumber</text>
</a>
</g>
</g>
<!-- CSpace -->
<g id="node6" class="node">
<title>CSpace</title>
<g id="a_node6"><a xlink:href="structDGtal_1_1concepts_1_1CSpace.html" target="_top" xlink:title="CSpace">
<ellipse fill="white" stroke="white" cx="697" cy="-267" rx="37.89" ry="18"/>
<text text-anchor="middle" x="697" y="-263.3" font-family="Times,serif" font-size="14.00">CSpace</text>
</a>
</g>
</g>
<!-- boost_CopyConstructible -->
<g id="node7" class="node">
<title>boost_CopyConstructible</title>
<g id="a_node7"><a xlink:href="structboost_1_1CopyConstructible.html" target="_top" xlink:title="boost::CopyConstructible">
<ellipse fill="orange" stroke="orange" cx="1271" cy="-267" rx="100.98" ry="18"/>
<text text-anchor="middle" x="1271" y="-263.3" font-family="Times,serif" font-size="14.00">boost::CopyConstructible</text>
</a>
</g>
</g>
<!-- boost_DefaultConstructible -->
<g id="node8" class="node">
<title>boost_DefaultConstructible</title>
<g id="a_node8"><a xlink:href="structboost_1_1DefaultConstructible.html" target="_top" xlink:title="boost::DefaultConstructible">
<ellipse fill="orange" stroke="orange" cx="1044" cy="-267" rx="108.58" ry="18"/>
<text text-anchor="middle" x="1044" y="-263.3" font-family="Times,serif" font-size="14.00">boost::DefaultConstructible</text>
</a>
</g>
</g>
<!-- boost_Assignable -->
<g id="node9" class="node">
<title>boost_Assignable</title>
<g id="a_node9"><a xlink:href="structboost_1_1Assignable.html" target="_top" xlink:title="boost::Assignable">
<ellipse fill="orange" stroke="orange" cx="1463" cy="-267" rx="73.39" ry="18"/>
<text text-anchor="middle" x="1463" y="-263.3" font-family="Times,serif" font-size="14.00">boost::Assignable</text>
</a>
</g>
</g>
<!-- boost_Sequence -->
<g id="node10" class="node">
<title>boost_Sequence</title>
<g id="a_node10"><a xlink:href="structboost_1_1Sequence.html" target="_top" xlink:title="boost::Sequence">
<ellipse fill="orange" stroke="orange" cx="1623" cy="-267" rx="68.49" ry="18"/>
<text text-anchor="middle" x="1623" y="-263.3" font-family="Times,serif" font-size="14.00">boost::Sequence</text>
</a>
</g>
</g>
<!-- CPositiveIrreducibleFraction -->
<g id="node11" class="node">
<title>CPositiveIrreducibleFraction</title>
<g id="a_node11"><a xlink:href="structDGtal_1_1concepts_1_1CPositiveIrreducibleFraction.html" target="_top" xlink:title="CPositiveIrreducibleFraction">
<ellipse fill="white" stroke="white" cx="524" cy="-151" rx="112.38" ry="18"/>
<text text-anchor="middle" x="524" y="-147.3" font-family="Times,serif" font-size="14.00">CPositiveIrreducibleFraction</text>
</a>
</g>
</g>
<!-- CPositiveIrreducibleFraction&#45;&gt;CBackInsertable -->
<g id="edge1" class="edge">
<title>CPositiveIrreducibleFraction&#45;&gt;CBackInsertable</title>
<path fill="none" stroke="black" d="M417.71,-157.08C346.28,-163.47 251.26,-177.81 173,-210 154.25,-217.71 135.64,-230.58 121.19,-242.04"/>
<polygon fill="black" stroke="black" points="119.02,-239.29 113.51,-248.34 123.46,-244.71 119.02,-239.29"/>
</g>
<!-- CPositiveIrreducibleFraction&#45;&gt;CConstSinglePassRange -->
<g id="edge2" class="edge">
<title>CPositiveIrreducibleFraction&#45;&gt;CConstSinglePassRange</title>
<path fill="none" stroke="black" d="M483.8,-168.26C456.54,-179.5 419.83,-195.06 388,-210 365.2,-220.7 340.19,-233.48 319.87,-244.12"/>
<polygon fill="black" stroke="black" points="318.27,-241.01 311.06,-248.77 321.53,-247.2 318.27,-241.01"/>
</g>
<!-- CPositiveIrreducibleFraction&#45;&gt;CInteger -->
<g id="edge6" class="edge">
<title>CPositiveIrreducibleFraction&#45;&gt;CInteger</title>
<path fill="none" stroke="black" stroke-dasharray="5,2" d="M535.54,-169.31C548.02,-188.03 568.04,-218.07 582.47,-239.7"/>
<polygon fill="black" stroke="black" points="579.55,-241.63 588.01,-248.01 585.37,-237.75 579.55,-241.63"/>
<text text-anchor="middle" x="564.5" y="-190.8" font-family="Times,serif" font-size="14.00">use</text>
</g>
<!-- CPositiveIrreducibleFraction&#45;&gt;CSignedNumber -->
<g id="edge7" class="edge">
<title>CPositiveIrreducibleFraction&#45;&gt;CSignedNumber</title>
<path fill="none" stroke="black" stroke-dasharray="5,2" d="M515.8,-169.31C507.07,-187.75 493.12,-217.18 482.91,-238.74"/>
<polygon fill="black" stroke="black" points="479.87,-236.99 478.75,-247.53 486.19,-239.99 479.87,-236.99"/>
<text text-anchor="middle" x="515.5" y="-190.8" font-family="Times,serif" font-size="14.00">use</text>
</g>
<!-- CPositiveIrreducibleFraction&#45;&gt;boost_CopyConstructible -->
<g id="edge4" class="edge">
<title>CPositiveIrreducibleFraction&#45;&gt;boost_CopyConstructible</title>
<path fill="none" stroke="black" d="M620.31,-160.64C797.79,-176.57 1158.78,-209.06 1162,-210 1187.87,-217.51 1214.81,-231.29 1235.44,-243.3"/>
<polygon fill="black" stroke="black" points="1233.63,-246.3 1244.01,-248.42 1237.22,-240.29 1233.63,-246.3"/>
</g>
<!-- CPositiveIrreducibleFraction&#45;&gt;boost_DefaultConstructible -->
<g id="edge3" class="edge">
<title>CPositiveIrreducibleFraction&#45;&gt;boost_DefaultConstructible</title>
<path fill="none" stroke="black" d="M581,-166.96C627.9,-178.6 696.28,-194.08 757,-202 830.24,-211.56 851.27,-192.38 923,-210 952.05,-217.13 982.6,-231.33 1005.73,-243.65"/>
<polygon fill="black" stroke="black" points="1004.03,-246.7 1014.48,-248.42 1007.38,-240.56 1004.03,-246.7"/>
</g>
<!-- CPositiveIrreducibleFraction&#45;&gt;boost_Assignable -->
<g id="edge5" class="edge">
<title>CPositiveIrreducibleFraction&#45;&gt;boost_Assignable</title>
<path fill="none" stroke="black" d="M621.03,-160.43C681.88,-165.57 761.99,-172.08 833,-177 840.61,-177.53 1373.79,-207.53 1381,-210 1401.12,-216.9 1420.9,-230.16 1435.98,-242.04"/>
<polygon fill="black" stroke="black" points="1433.61,-244.62 1443.56,-248.24 1438.04,-239.2 1433.61,-244.62"/>
</g>
<!-- SternBrocot_Fraction -->
<g id="node12" class="node">
<title>SternBrocot_Fraction</title>
<g id="a_node12"><a xlink:href="classDGtal_1_1SternBrocot_1_1Fraction.html" target="_top" xlink:title="SternBrocot::Fraction">
<ellipse fill="white" stroke="white" cx="209" cy="-57" rx="87.18" ry="18"/>
<text text-anchor="middle" x="209" y="-53.3" font-family="Times,serif" font-size="14.00">SternBrocot::Fraction</text>
</a>
</g>
</g>
<!-- SternBrocot_Fraction&#45;&gt;CPositiveIrreducibleFraction -->
<g id="edge8" class="edge">
<title>SternBrocot_Fraction&#45;&gt;CPositiveIrreducibleFraction</title>
<path fill="none" stroke="black" d="M257.87,-72.27C312.45,-88.21 400.97,-114.07 460.78,-131.54"/>
<polygon fill="black" stroke="black" points="459.56,-134.83 470.14,-134.27 461.53,-128.11 459.56,-134.83"/>
</g>
<!-- LightSternBrocot_Fraction -->
<g id="node13" class="node">
<title>LightSternBrocot_Fraction</title>
<g id="a_node13"><a xlink:href="classDGtal_1_1LightSternBrocot_1_1Fraction.html" target="_top" xlink:title="LightSternBrocot::Fraction">
<ellipse fill="white" stroke="white" cx="421" cy="-57" rx="106.68" ry="18"/>
<text text-anchor="middle" x="421" y="-53.3" font-family="Times,serif" font-size="14.00">LightSternBrocot::Fraction</text>
</a>
</g>
</g>
<!-- LightSternBrocot_Fraction&#45;&gt;CPositiveIrreducibleFraction -->
<g id="edge9" class="edge">
<title>LightSternBrocot_Fraction&#45;&gt;CPositiveIrreducibleFraction</title>
<path fill="none" stroke="black" d="M439.89,-74.87C455.76,-89.05 478.65,-109.5 496.55,-125.48"/>
<polygon fill="black" stroke="black" points="493.96,-127.86 503.75,-131.91 498.62,-122.64 493.96,-127.86"/>
</g>
<!-- LighterSternBrocot_Fraction -->
<g id="node14" class="node">
<title>LighterSternBrocot_Fraction</title>
<g id="a_node14"><a xlink:href="classDGtal_1_1LighterSternBrocot_1_1Fraction.html" target="_top" xlink:title="LighterSternBrocot::Fraction">
<ellipse fill="white" stroke="white" cx="659" cy="-57" rx="113.18" ry="18"/>
<text text-anchor="middle" x="659" y="-53.3" font-family="Times,serif" font-size="14.00">LighterSternBrocot::Fraction</text>
</a>
</g>
</g>
<!-- LighterSternBrocot_Fraction&#45;&gt;CPositiveIrreducibleFraction -->
<g id="edge10" class="edge">
<title>LighterSternBrocot_Fraction&#45;&gt;CPositiveIrreducibleFraction</title>
<path fill="none" stroke="black" d="M634.24,-74.87C612.83,-89.46 581.68,-110.69 557.95,-126.87"/>
<polygon fill="black" stroke="black" points="556.15,-123.86 549.85,-132.38 560.09,-129.64 556.15,-123.86"/>
</g>
<!-- IntegerComputer -->
<g id="node15" class="node">
<title>IntegerComputer</title>
<g id="a_node15"><a xlink:href="classDGtal_1_1IntegerComputer.html" target="_top" xlink:title="IntegerComputer">
<ellipse fill="white" stroke="white" cx="1069" cy="-57" rx="71.49" ry="18"/>
<text text-anchor="middle" x="1069" y="-53.3" font-family="Times,serif" font-size="14.00">IntegerComputer</text>
</a>
</g>
</g>
<!-- IntegerComputer&#45;&gt;CInteger -->
<g id="edge14" class="edge">
<title>IntegerComputer&#45;&gt;CInteger</title>
<path fill="none" stroke="black" stroke-dasharray="5,2" d="M1027.23,-71.94C1006.65,-79.57 981.85,-89.92 961,-102 914.15,-129.14 914.7,-155.53 865,-177 776.25,-215.34 734.97,-163.9 650,-210 636.98,-217.07 625.66,-228.9 617.1,-239.88"/>
<polygon fill="black" stroke="black" points="614.28,-237.8 611.21,-247.94 619.94,-241.93 614.28,-237.8"/>
<text text-anchor="middle" x="970.5" y="-147.3" font-family="Times,serif" font-size="14.00">use</text>
</g>
<!-- IntegerComputer&#45;&gt;CUnsignedNumber -->
<g id="edge15" class="edge">
<title>IntegerComputer&#45;&gt;CUnsignedNumber</title>
<path fill="none" stroke="black" stroke-dasharray="5,2" d="M1053.95,-74.92C1046.87,-83.02 1038.37,-92.9 1031,-102 995.85,-145.37 1001.6,-171.27 955,-202 942.76,-210.07 936.51,-204.31 923,-210 902.28,-218.72 880.78,-231.74 863.88,-243.03"/>
<polygon fill="black" stroke="black" points="862.04,-240.05 855.76,-248.58 865.99,-245.83 862.04,-240.05"/>
<text text-anchor="middle" x="1040.5" y="-147.3" font-family="Times,serif" font-size="14.00">use</text>
</g>
<!-- IntegerComputer&#45;&gt;boost_CopyConstructible -->
<g id="edge12" class="edge">
<title>IntegerComputer&#45;&gt;boost_CopyConstructible</title>
<path fill="none" stroke="black" d="M1074.45,-75.38C1083.82,-104.42 1103.27,-161.19 1117,-177 1132.89,-195.3 1187.2,-224.62 1226.83,-244.57"/>
<polygon fill="black" stroke="black" points="1225.2,-247.66 1235.71,-249 1228.33,-241.4 1225.2,-247.66"/>
</g>
<!-- IntegerComputer&#45;&gt;boost_DefaultConstructible -->
<g id="edge11" class="edge">
<title>IntegerComputer&#45;&gt;boost_DefaultConstructible</title>
<path fill="none" stroke="black" d="M1066.91,-75.38C1062.61,-111.16 1052.73,-193.41 1047.46,-237.25"/>
<polygon fill="black" stroke="black" points="1044,-236.68 1046.28,-247.02 1050.95,-237.51 1044,-236.68"/>
</g>
<!-- IntegerComputer&#45;&gt;boost_Assignable -->
<g id="edge13" class="edge">
<title>IntegerComputer&#45;&gt;boost_Assignable</title>
<path fill="none" stroke="black" d="M1088.23,-74.43C1096.73,-82.26 1106.48,-92.07 1114,-102 1136.94,-132.28 1123.81,-155.31 1155,-177 1238.33,-234.96 1286.44,-173.1 1381,-210 1400.55,-217.63 1420.05,-230.67 1435.13,-242.24"/>
<polygon fill="black" stroke="black" points="1432.7,-244.79 1442.72,-248.26 1437.05,-239.3 1432.7,-244.79"/>
</g>
<!-- LatticePolytope2D -->
<g id="node16" class="node">
<title>LatticePolytope2D</title>
<g id="a_node16"><a xlink:href="classDGtal_1_1LatticePolytope2D.html" target="_top" xlink:title="LatticePolytope2D">
<ellipse fill="white" stroke="white" cx="1236" cy="-57" rx="77.19" ry="18"/>
<text text-anchor="middle" x="1236" y="-53.3" font-family="Times,serif" font-size="14.00">LatticePolytope2D</text>
</a>
</g>
</g>
<!-- LatticePolytope2D&#45;&gt;CSpace -->
<g id="edge16" class="edge">
<title>LatticePolytope2D&#45;&gt;CSpace</title>
<path fill="none" stroke="black" stroke-dasharray="5,2" d="M1217.2,-74.75C1185.89,-101.56 1119.96,-153.48 1054,-177 988.75,-200.27 805.15,-177.44 744,-210 731.18,-216.83 720.42,-228.75 712.45,-239.84"/>
<polygon fill="black" stroke="black" points="709.67,-237.71 707.02,-247.96 715.49,-241.59 709.67,-237.71"/>
<text text-anchor="middle" x="1190.5" y="-147.3" font-family="Times,serif" font-size="14.00">use</text>
</g>
<!-- LatticePolytope2D&#45;&gt;boost_CopyConstructible -->
<g id="edge18" class="edge">
<title>LatticePolytope2D&#45;&gt;boost_CopyConstructible</title>
<path fill="none" stroke="black" d="M1238.92,-75.38C1244.95,-111.16 1258.78,-193.41 1266.16,-237.25"/>
<polygon fill="black" stroke="black" points="1262.7,-237.75 1267.81,-247.03 1269.6,-236.59 1262.7,-237.75"/>
</g>
<!-- LatticePolytope2D&#45;&gt;boost_DefaultConstructible -->
<g id="edge17" class="edge">
<title>LatticePolytope2D&#45;&gt;boost_DefaultConstructible</title>
<path fill="none" stroke="black" d="M1235.88,-75.07C1234.69,-105.32 1227.65,-168.34 1191,-202 1180.84,-211.33 1173.95,-205.22 1161,-210 1134.92,-219.62 1106.78,-232.99 1084.64,-244.25"/>
<polygon fill="black" stroke="black" points="1083.24,-241.03 1075.95,-248.72 1086.44,-247.26 1083.24,-241.03"/>
</g>
<!-- LatticePolytope2D&#45;&gt;boost_Assignable -->
<g id="edge19" class="edge">
<title>LatticePolytope2D&#45;&gt;boost_Assignable</title>
<path fill="none" stroke="black" d="M1254.19,-74.67C1294.12,-111.26 1389.59,-198.74 1436.32,-241.55"/>
<polygon fill="black" stroke="black" points="1433.87,-244.05 1443.6,-248.23 1438.6,-238.89 1433.87,-244.05"/>
</g>
<!-- LatticePolytope2D&#45;&gt;boost_Sequence -->
<g id="edge20" class="edge">
<title>LatticePolytope2D&#45;&gt;boost_Sequence</title>
<path fill="none" stroke="black" d="M1273.12,-73.24C1292.59,-81.42 1316.75,-91.89 1338,-102 1431.7,-146.58 1456.63,-155.6 1545,-210 1561.3,-220.04 1578.68,-232.34 1592.88,-242.85"/>
<polygon fill="black" stroke="black" points="1590.4,-245.37 1600.5,-248.55 1594.59,-239.76 1590.4,-245.37"/>
</g>
<!-- ClosedIntegerHalfPlane -->
<g id="node17" class="node">
<title>ClosedIntegerHalfPlane</title>
<g id="a_node17"><a xlink:href="structDGtal_1_1ClosedIntegerHalfPlane.html" target="_top" xlink:title="ClosedIntegerHalfPlane">
<ellipse fill="white" stroke="white" cx="885" cy="-57" rx="94.78" ry="18"/>
<text text-anchor="middle" x="885" y="-53.3" font-family="Times,serif" font-size="14.00">ClosedIntegerHalfPlane</text>
</a>
</g>
</g>
<!-- ClosedIntegerHalfPlane&#45;&gt;CSpace -->
<g id="edge21" class="edge">
<title>ClosedIntegerHalfPlane&#45;&gt;CSpace</title>
<path fill="none" stroke="black" stroke-dasharray="5,2" d="M868.65,-75.07C842.07,-102.93 788.06,-160.07 744,-210 735.09,-220.1 725.49,-231.44 717.31,-241.27"/>
<polygon fill="black" stroke="black" points="714.61,-239.03 710.93,-248.97 720,-243.5 714.61,-239.03"/>
<text text-anchor="middle" x="851.5" y="-147.3" font-family="Times,serif" font-size="14.00">use</text>
</g>
</g>
</svg>
        <g id="navigator" transform="translate(0 0)" fill="#404254">
                <rect fill="#f2f5e9" fill-opacity="0.5" stroke="#606060" stroke-width=".5" x="0" y="0" width="60" height="60"/>
                <use id="zoomplus" xlink:href="#zoomPlus" x="17" y="9" onmousedown="handleZoom(evt,'in')"/>
                <use id="zoomminus" xlink:href="#zoomMin" x="42" y="9" onmousedown="handleZoom(evt,'out')"/>
                <use id="reset" xlink:href="#resetDef" x="30" y="36" onmousedown="handleReset()"/>
                <g id="arrowUp" xlink:href="#dirArrow" transform="translate(30 24)" onmousedown="handlePan(0,-1)">
                  <use xlink:href="#rim" fill="#404040">
                        <set attributeName="fill" to="#808080" begin="arrowUp.mouseover" end="arrowUp.mouseout"/>
                  </use>
                  <path fill="none" stroke="white" stroke-width="1.5" d="M0,-3.0v7 M-2.5,-0.5L0,-3.0L2.5,-0.5"/>
                </g>
                <g id="arrowRight" xlink:href="#dirArrow" transform="rotate(90) translate(36 -43)" onmousedown="handlePan(1,0)">
                  <use xlink:href="#rim" fill="#404040">
                        <set attributeName="fill" to="#808080" begin="arrowRight.mouseover" end="arrowRight.mouseout"/>
                  </use>
                  <path fill="none" stroke="white" stroke-width="1.5" d="M0,-3.0v7 M-2.5,-0.5L0,-3.0L2.5,-0.5"/>
                </g>
                <g id="arrowDown" xlink:href="#dirArrow" transform="rotate(180) translate(-30 -48)" onmousedown="handlePan(0,1)">
                  <use xlink:href="#rim" fill="#404040">
                        <set attributeName="fill" to="#808080" begin="arrowDown.mouseover" end="arrowDown.mouseout"/>
                  </use>
                  <path fill="none" stroke="white" stroke-width="1.5" d="M0,-3.0v7 M-2.5,-0.5L0,-3.0L2.5,-0.5"/>
                </g>
                <g id="arrowLeft" xlink:href="#dirArrow" transform="rotate(270) translate(-36 17)" onmousedown="handlePan(-1,0)">
                  <use xlink:href="#rim" fill="#404040">
                        <set attributeName="fill" to="#808080" begin="arrowLeft.mouseover" end="arrowLeft.mouseout"/>
                  </use>
                  <path fill="none" stroke="white" stroke-width="1.5" d="M0,-3.0v7 M-2.5,-0.5L0,-3.0L2.5,-0.5"/>
                </g>
        </g>
        <svg viewBox="0 0 15 15" width="100%" height="30px" preserveAspectRatio="xMaxYMin meet">
         <g id="arrow_out" transform="scale(0.3 0.3)">
          <a xlink:href="dot_inline_dotgraph_1_org.svg" target="_base">
           <rect id="button" ry="5" rx="5" y="6" x="6" height="38" width="38"
                fill="#f2f5e9" fill-opacity="0.5" stroke="#606060" stroke-width="1.0"/>
           <path id="arrow"
             d="M 11.500037,31.436501 C 11.940474,20.09759 22.043105,11.32322 32.158766,21.979434 L 37.068811,17.246167 C 37.068811,17.246167 37.088388,32 37.088388,32 L 22.160133,31.978069 C 22.160133,31.978069 26.997745,27.140456 26.997745,27.140456 C 18.528582,18.264221 13.291696,25.230495 11.500037,31.436501 z"
             style="fill:#404040;"/>
          </a>
         </g>
        </svg>
</svg>
