<?xml version="1.0" encoding="UTF-8" standalone="no"?>
<!DOCTYPE svg PUBLIC "-//W3C//DTD SVG 1.1//EN"
 "http://www.w3.org/Graphics/SVG/1.1/DTD/svg11.dtd">
<!-- Generated by graphviz version 11.0.0 (20240428.1522)
 -->
<!-- Title: GDEC Pages: 1 -->
<!--zoomable 526 -->

<svg id="main" version="1.1" xmlns="http://www.w3.org/2000/svg" xmlns:xlink="http://www.w3.org/1999/xlink" xml:space="preserve" onload="init(evt)">
<style type="text/css"><![CDATA[
.node, .edge {opacity: 0.7;}
.node.selected, .edge.selected {opacity: 1;}
.edge:hover path { stroke: red; }
.edge:hover polygon { stroke: red; fill: red; }
]]></style>

<defs>
  <circle id="rim" cx="0" cy="0" r="7"/>
  <circle id="rim2" cx="0" cy="0" r="3.5"/>
  <g id="zoomPlus">
    <use xlink:href="#rim" fill="#404040"><set attributeName="fill" to="#808080" begin="zoomplus.mouseover" end="zoomplus.mouseout"/></use>
    <path d="M-4,0h8M0,-4v8" fill="none" stroke="white" stroke-width="1.5" pointer-events="none"/>
  </g>
  <g id="zoomMin">
    <use xlink:href="#rim" fill="#404040"><set attributeName="fill" to="#808080" begin="zoomminus.mouseover" end="zoomminus.mouseout"/></use>
    <path d="M-4,0h8" fill="none" stroke="white" stroke-width="1.5" pointer-events="none"/>
  </g>
  <g id="arrowUp" transform="translate(30 24)">
    <use xlink:href="#rim"/>
    <path pointer-events="none" fill="none" stroke="white" stroke-width="1.5" d="M0,-3.0v7 M-2.5,-0.5L0,-3.0L2.5,-0.5"/>
  </g>
  <g id="arrowRight" transform="rotate(90) translate(36 -43)">
    <use xlink:href="#rim"/>
    <path pointer-events="none" fill="none" stroke="white" stroke-width="1.5" d="M0,-3.0v7 M-2.5,-0.5L0,-3.0L2.5,-0.5"/>
  </g>
  <g id="arrowDown" transform="rotate(180) translate(-30 -48)">
    <use xlink:href="#rim"/>
    <path pointer-events="none" fill="none" stroke="white" stroke-width="1.5" d="M0,-3.0v7 M-2.5,-0.5L0,-3.0L2.5,-0.5"/>
  </g>
  <g id="arrowLeft" transform="rotate(270) translate(-36 17)">
    <use xlink:href="#rim"/>
    <path pointer-events="none" fill="none" stroke="white" stroke-width="1.5" d="M0,-3.0v7 M-2.5,-0.5L0,-3.0L2.5,-0.5"/>
  </g>
  <g id="resetDef">
    <use xlink:href="#rim2" fill="#404040"><set attributeName="fill" to="#808080" begin="reset.mouseover" end="reset.mouseout"/></use>
  </g>
</defs>
<script type="application/ecmascript">
var viewWidth = 1158;
var viewHeight = 526;
</script>
<script type="application/ecmascript" xlink:href="svg.min.js"/>
<svg id="graph" class="graph">
<g id="viewport">
<title>GDEC</title>
<polygon fill="white" stroke="none" points="-4,4 -4,-522 1154,-522 1154,4 -4,4"/>
<g id="clust1" class="cluster">
<title>cluster_boost</title>
<polygon fill="white" stroke="white" points="36,-433.5 36,-510 450,-510 450,-433.5 36,-433.5"/>
<text text-anchor="middle" x="243" y="-440.7" font-family="Times,serif" font-size="14.00">boost</text>
</g>
<g id="clust2" class="cluster">
<title>cluster_math_linalg</title>
<polygon fill="#e4e4ff" stroke="#e4e4ff" points="20,-119 20,-414.5 806,-414.5 806,-119 20,-119"/>
<text text-anchor="middle" x="413" y="-126.2" font-family="Times,serif" font-size="14.00">math/linalg</text>
</g>
<g id="clust3" class="cluster">
<title>cluster_concepts</title>
<polygon fill="lightgrey" stroke="lightgrey" points="814,-119 814,-195.5 1142,-195.5 1142,-119 814,-119"/>
<text text-anchor="middle" x="978" y="-126.2" font-family="Times,serif" font-size="14.00">DEC (main concepts)</text>
</g>
<g id="clust4" class="cluster">
<title>cluster_models</title>
<polygon fill="#ccffcc" stroke="#ccffcc" points="232,-8 232,-84.5 1104,-84.5 1104,-8 232,-8"/>
<text text-anchor="middle" x="668" y="-15.2" font-family="Times,serif" font-size="14.00">DEC (main models)</text>
</g>
<!-- boost_DefaultConstructible -->
<g id="node1" class="node">
<title>boost_DefaultConstructible</title>
<g id="a_node1"><a xlink:href="structboost_1_1DefaultConstructible.html" target="_top" xlink:title="boost::DefaultConstructible">
<ellipse fill="orange" stroke="orange" cx="157" cy="-484" rx="113.28" ry="18"/>
<text text-anchor="middle" x="157" y="-478.95" font-family="Times,serif" font-size="14.00">boost::DefaultConstructible</text>
</a>
</g>
</g>
<!-- boost_Assignable -->
<g id="node2" class="node">
<title>boost_Assignable</title>
<g id="a_node2"><a xlink:href="structboost_1_1Assignable.html" target="_top" xlink:title="boost::Assignable">
<ellipse fill="orange" stroke="orange" cx="365" cy="-484" rx="76.94" ry="18"/>
<text text-anchor="middle" x="365" y="-478.95" font-family="Times,serif" font-size="14.00">boost::Assignable</text>
</a>
</g>
</g>
<!-- CVectorSpace -->
<g id="node3" class="node">
<title>CVectorSpace</title>
<g id="a_node3"><a xlink:href="structDGtal_1_1concepts_1_1CVectorSpace.html" target="_top" xlink:title="CVectorSpace">
<ellipse fill="white" stroke="white" cx="427" cy="-388.5" rx="63.12" ry="18"/>
<text text-anchor="middle" x="427" y="-383.45" font-family="Times,serif" font-size="14.00">CVectorSpace</text>
</a>
</g>
</g>
<!-- CVectorSpace&#45;&gt;boost_Assignable -->
<g id="edge14" class="edge">
<title>CVectorSpace&#45;&gt;boost_Assignable</title>
<path fill="none" stroke="black" d="M415.63,-406.65C406.36,-420.62 393.13,-440.58 382.51,-456.59"/>
<polygon fill="black" stroke="black" points="379.75,-454.43 377.14,-464.7 385.58,-458.3 379.75,-454.43"/>
</g>
<!-- CMatrix -->
<g id="node4" class="node">
<title>CMatrix</title>
<g id="a_node4"><a xlink:href="structDGtal_1_1concepts_1_1CMatrix.html" target="_top" xlink:title="CMatrix">
<ellipse fill="white" stroke="white" cx="412" cy="-315.5" rx="42.65" ry="18"/>
<text text-anchor="middle" x="412" y="-310.45" font-family="Times,serif" font-size="14.00">CMatrix</text>
</a>
</g>
</g>
<!-- CMatrix&#45;&gt;CVectorSpace -->
<g id="edge5" class="edge">
<title>CMatrix&#45;&gt;CVectorSpace</title>
<path fill="none" stroke="black" d="M415.63,-333.69C417.25,-341.36 419.21,-350.61 421.03,-359.26"/>
<polygon fill="black" stroke="black" points="417.6,-359.93 423.09,-368.99 424.45,-358.48 417.6,-359.93"/>
</g>
<!-- CStaticMatrix -->
<g id="node5" class="node">
<title>CStaticMatrix</title>
<g id="a_node5"><a xlink:href="structDGtal_1_1concepts_1_1CStaticMatrix.html" target="_top" xlink:title="CStaticMatrix">
<ellipse fill="white" stroke="white" cx="92" cy="-242.5" rx="63.63" ry="18"/>
<text text-anchor="middle" x="92" y="-237.45" font-family="Times,serif" font-size="14.00">CStaticMatrix</text>
</a>
</g>
</g>
<!-- CStaticMatrix&#45;&gt;boost_DefaultConstructible -->
<g id="edge7" class="edge">
<title>CStaticMatrix&#45;&gt;boost_DefaultConstructible</title>
<path fill="none" stroke="black" d="M96.67,-260.72C107.75,-301.53 135.68,-404.45 149.3,-454.62"/>
<polygon fill="black" stroke="black" points="145.89,-455.42 151.88,-464.15 152.64,-453.58 145.89,-455.42"/>
</g>
<!-- CStaticMatrix&#45;&gt;CMatrix -->
<g id="edge6" class="edge">
<title>CStaticMatrix&#45;&gt;CMatrix</title>
<path fill="none" stroke="black" d="M139.88,-254.75C148.25,-256.69 156.88,-258.67 165,-260.5 233.92,-276.06 313.82,-293.4 363.65,-304.13"/>
<polygon fill="black" stroke="black" points="362.73,-307.51 373.24,-306.2 364.2,-300.67 362.73,-307.51"/>
</g>
<!-- CDynamicMatrix -->
<g id="node6" class="node">
<title>CDynamicMatrix</title>
<g id="a_node6"><a xlink:href="structDGtal_1_1concepts_1_1CDynamicMatrix.html" target="_top" xlink:title="CDynamicMatrix">
<ellipse fill="white" stroke="white" cx="393" cy="-242.5" rx="76.94" ry="18"/>
<text text-anchor="middle" x="393" y="-237.45" font-family="Times,serif" font-size="14.00">CDynamicMatrix</text>
</a>
</g>
</g>
<!-- CDynamicMatrix&#45;&gt;CMatrix -->
<g id="edge8" class="edge">
<title>CDynamicMatrix&#45;&gt;CMatrix</title>
<path fill="none" stroke="black" d="M397.6,-260.69C399.68,-268.45 402.18,-277.82 404.52,-286.55"/>
<polygon fill="black" stroke="black" points="401.09,-287.25 407.05,-296.01 407.85,-285.44 401.09,-287.25"/>
</g>
<!-- CVector -->
<g id="node7" class="node">
<title>CVector</title>
<g id="a_node7"><a xlink:href="structDGtal_1_1concepts_1_1CVector.html" target="_top" xlink:title="CVector">
<ellipse fill="white" stroke="white" cx="521" cy="-315.5" rx="41.12" ry="18"/>
<text text-anchor="middle" x="521" y="-310.45" font-family="Times,serif" font-size="14.00">CVector</text>
</a>
</g>
</g>
<!-- CVector&#45;&gt;CVectorSpace -->
<g id="edge1" class="edge">
<title>CVector&#45;&gt;CVectorSpace</title>
<path fill="none" stroke="black" d="M501.07,-331.56C488.42,-341.11 471.81,-353.65 457.53,-364.44"/>
<polygon fill="black" stroke="black" points="455.62,-361.5 449.75,-370.32 459.84,-367.08 455.62,-361.5"/>
</g>
<!-- CStaticVector -->
<g id="node8" class="node">
<title>CStaticVector</title>
<g id="a_node8"><a xlink:href="structDGtal_1_1concepts_1_1CStaticVector.html" target="_top" xlink:title="CStaticVector">
<ellipse fill="white" stroke="white" cx="236" cy="-242.5" rx="62.1" ry="18"/>
<text text-anchor="middle" x="236" y="-237.45" font-family="Times,serif" font-size="14.00">CStaticVector</text>
</a>
</g>
</g>
<!-- CStaticVector&#45;&gt;boost_DefaultConstructible -->
<g id="edge3" class="edge">
<title>CStaticVector&#45;&gt;boost_DefaultConstructible</title>
<path fill="none" stroke="black" d="M230.32,-260.72C216.83,-301.62 182.77,-404.88 166.26,-454.94"/>
<polygon fill="black" stroke="black" points="163.02,-453.58 163.21,-464.17 169.67,-455.77 163.02,-453.58"/>
</g>
<!-- CStaticVector&#45;&gt;CVector -->
<g id="edge2" class="edge">
<title>CStaticVector&#45;&gt;CVector</title>
<path fill="none" stroke="black" d="M282.59,-254.68C290.72,-256.63 299.11,-258.63 307,-260.5 376.75,-277.07 394.73,-279.03 464,-297.5 468.26,-298.64 472.68,-299.86 477.09,-301.12"/>
<polygon fill="black" stroke="black" points="475.9,-304.42 486.48,-303.86 477.86,-297.7 475.9,-304.42"/>
</g>
<!-- CDynamicVector -->
<g id="node9" class="node">
<title>CDynamicVector</title>
<g id="a_node9"><a xlink:href="structDGtal_1_1concepts_1_1CDynamicVector.html" target="_top" xlink:title="CDynamicVector">
<ellipse fill="white" stroke="white" cx="723" cy="-242.5" rx="75.41" ry="18"/>
<text text-anchor="middle" x="723" y="-237.45" font-family="Times,serif" font-size="14.00">CDynamicVector</text>
</a>
</g>
</g>
<!-- CDynamicVector&#45;&gt;CVector -->
<g id="edge4" class="edge">
<title>CDynamicVector&#45;&gt;CVector</title>
<path fill="none" stroke="black" d="M682.12,-257.87C647.48,-270.04 598.01,-287.43 563.04,-299.72"/>
<polygon fill="black" stroke="black" points="561.94,-296.4 553.66,-303.02 564.26,-303.01 561.94,-296.4"/>
</g>
<!-- CLinearAlgebra -->
<g id="node10" class="node">
<title>CLinearAlgebra</title>
<g id="a_node10"><a xlink:href="structDGtal_1_1concepts_1_1CLinearAlgebra.html" target="_top" xlink:title="CLinearAlgebra">
<ellipse fill="white" stroke="white" cx="559" cy="-242.5" rx="70.8" ry="18"/>
<text text-anchor="middle" x="559" y="-237.45" font-family="Times,serif" font-size="14.00">CLinearAlgebra</text>
</a>
</g>
</g>
<!-- CLinearAlgebra&#45;&gt;CMatrix -->
<g id="edge9" class="edge">
<title>CLinearAlgebra&#45;&gt;CMatrix</title>
<path fill="none" stroke="black" d="M527.1,-258.91C504.3,-269.92 473.53,-284.78 449.54,-296.37"/>
<polygon fill="black" stroke="black" points="448.23,-293.11 440.75,-300.61 451.28,-299.42 448.23,-293.11"/>
</g>
<!-- CLinearAlgebra&#45;&gt;CVector -->
<g id="edge10" class="edge">
<title>CLinearAlgebra&#45;&gt;CVector</title>
<path fill="none" stroke="black" d="M549.8,-260.69C545.51,-268.71 540.29,-278.45 535.49,-287.43"/>
<polygon fill="black" stroke="black" points="532.46,-285.67 530.83,-296.14 538.63,-288.97 532.46,-285.67"/>
</g>
<!-- CLinearAlgebraSolver -->
<g id="node11" class="node">
<title>CLinearAlgebraSolver</title>
<g id="a_node11"><a xlink:href="structDGtal_1_1concepts_1_1CLinearAlgebraSolver.html" target="_top" xlink:title="CLinearAlgebraSolver">
<ellipse fill="white" stroke="white" cx="368" cy="-169.5" rx="94.86" ry="18"/>
<text text-anchor="middle" x="368" y="-164.45" font-family="Times,serif" font-size="14.00">CLinearAlgebraSolver</text>
</a>
</g>
</g>
<!-- CLinearAlgebraSolver&#45;&gt;boost_DefaultConstructible -->
<g id="edge12" class="edge">
<title>CLinearAlgebraSolver&#45;&gt;boost_DefaultConstructible</title>
<path fill="none" stroke="black" d="M273.23,-170.38C164.2,-172.88 0,-185.87 0,-241.5 0,-241.5 0,-241.5 0,-389.5 0,-429.37 37.84,-452.63 76.37,-465.98"/>
<polygon fill="black" stroke="black" points="75.19,-469.27 85.78,-469.02 77.34,-462.61 75.19,-469.27"/>
</g>
<!-- CLinearAlgebraSolver&#45;&gt;CLinearAlgebra -->
<g id="edge11" class="edge">
<title>CLinearAlgebraSolver&#45;&gt;CLinearAlgebra</title>
<path fill="none" stroke="black" d="M409.92,-186.08C439.29,-197 478.66,-211.63 509.56,-223.12"/>
<polygon fill="black" stroke="black" points="508.1,-226.31 518.69,-226.52 510.54,-219.75 508.1,-226.31"/>
</g>
<!-- CDiscreteExteriorCalculusVectorSpace -->
<g id="node12" class="node">
<title>CDiscreteExteriorCalculusVectorSpace</title>
<g id="a_node12"><a xlink:href="structDGtal_1_1concepts_1_1CDiscreteExteriorCalculusVectorSpace.html" target="_top" xlink:title="CDiscreteExteriorCalculusVectorSpace">
<ellipse fill="white" stroke="white" cx="978" cy="-169.5" rx="156.27" ry="18"/>
<text text-anchor="middle" x="978" y="-164.45" font-family="Times,serif" font-size="14.00">CDiscreteExteriorCalculusVectorSpace</text>
</a>
</g>
</g>
<!-- CDiscreteExteriorCalculusVectorSpace&#45;&gt;CVectorSpace -->
<g id="edge13" class="edge">
<title>CDiscreteExteriorCalculusVectorSpace&#45;&gt;CVectorSpace</title>
<path fill="none" stroke="black" d="M949.05,-187.59C915.6,-206.9 858.53,-238.5 807,-260.5 694.43,-308.56 557.07,-350.55 482.19,-372.12"/>
<polygon fill="black" stroke="black" points="481.27,-368.74 472.62,-374.86 483.2,-375.47 481.27,-368.74"/>
</g>
<!-- KForm -->
<g id="node13" class="node">
<title>KForm</title>
<g id="a_node13"><a xlink:href="classDGtal_1_1KForm.html" target="_top" xlink:title="KForm">
<ellipse fill="white" stroke="white" cx="778" cy="-58.5" rx="38.04" ry="18"/>
<text text-anchor="middle" x="778" y="-53.45" font-family="Times,serif" font-size="14.00">KForm</text>
</a>
</g>
</g>
<!-- KForm&#45;&gt;CDiscreteExteriorCalculusVectorSpace -->
<g id="edge15" class="edge">
<title>KForm&#45;&gt;CDiscreteExteriorCalculusVectorSpace</title>
<path fill="none" stroke="black" d="M802.12,-72.65C835.55,-90.87 896.42,-124.04 937.04,-146.17"/>
<polygon fill="black" stroke="black" points="935.11,-149.11 945.57,-150.83 938.46,-142.97 935.11,-149.11"/>
</g>
<!-- LinearOperator -->
<g id="node14" class="node">
<title>LinearOperator</title>
<g id="a_node14"><a xlink:href="classDGtal_1_1LinearOperator.html" target="_top" xlink:title="LinearOperator">
<ellipse fill="white" stroke="white" cx="902" cy="-58.5" rx="67.73" ry="18"/>
<text text-anchor="middle" x="902" y="-53.45" font-family="Times,serif" font-size="14.00">LinearOperator</text>
</a>
</g>
</g>
<!-- LinearOperator&#45;&gt;CDiscreteExteriorCalculusVectorSpace -->
<g id="edge16" class="edge">
<title>LinearOperator&#45;&gt;CDiscreteExteriorCalculusVectorSpace</title>
<path fill="none" stroke="black" d="M913.88,-76.53C926.07,-94.03 945.23,-121.5 959.44,-141.87"/>
<polygon fill="black" stroke="black" points="956.5,-143.79 965.09,-149.99 962.24,-139.78 956.5,-143.79"/>
</g>
<!-- VectorField -->
<g id="node15" class="node">
<title>VectorField</title>
<g id="a_node15"><a xlink:href="classDGtal_1_1VectorField.html" target="_top" xlink:title="VectorField">
<ellipse fill="white" stroke="white" cx="1042" cy="-58.5" rx="53.91" ry="18"/>
<text text-anchor="middle" x="1042" y="-53.45" font-family="Times,serif" font-size="14.00">VectorField</text>
</a>
</g>
</g>
<!-- VectorField&#45;&gt;CDiscreteExteriorCalculusVectorSpace -->
<g id="edge17" class="edge">
<title>VectorField&#45;&gt;CDiscreteExteriorCalculusVectorSpace</title>
<path fill="none" stroke="black" d="M1032,-76.53C1021.82,-93.87 1005.89,-121.01 993.96,-141.32"/>
<polygon fill="black" stroke="black" points="990.95,-139.53 988.91,-149.92 996.99,-143.07 990.95,-139.53"/>
</g>
<!-- DiscreteExteriorCalculus -->
<g id="node16" class="node">
<title>DiscreteExteriorCalculus</title>
<g id="a_node16"><a xlink:href="classDGtal_1_1DiscreteExteriorCalculus.html" target="_top" xlink:title="DiscreteExteriorCalculus">
<ellipse fill="white" stroke="white" cx="618" cy="-58.5" rx="104.07" ry="18"/>
<text text-anchor="middle" x="618" y="-53.45" font-family="Times,serif" font-size="14.00">DiscreteExteriorCalculus</text>
</a>
</g>
</g>
<!-- DiscreteExteriorCalculus&#45;&gt;CDynamicMatrix -->
<g id="edge19" class="edge">
<title>DiscreteExteriorCalculus&#45;&gt;CDynamicMatrix</title>
<path fill="none" stroke="black" stroke-dasharray="5,2" d="M598.34,-76.61C585.05,-88.33 567.22,-104.34 552,-119 512.96,-156.62 511.1,-174.96 467,-206.5 459.19,-212.09 450.35,-217.16 441.56,-221.61"/>
<polygon fill="black" stroke="black" points="440.2,-218.38 432.71,-225.87 443.23,-224.69 440.2,-218.38"/>
<text text-anchor="middle" x="561" y="-164.45" font-family="Times,serif" font-size="14.00">use</text>
</g>
<!-- DiscreteExteriorCalculus&#45;&gt;CDynamicVector -->
<g id="edge20" class="edge">
<title>DiscreteExteriorCalculus&#45;&gt;CDynamicVector</title>
<path fill="none" stroke="black" stroke-dasharray="5,2" d="M627.88,-76.62C646.17,-108.33 685.45,-176.41 707.38,-214.42"/>
<polygon fill="black" stroke="black" points="704.29,-216.07 712.32,-222.98 710.35,-212.57 704.29,-216.07"/>
<text text-anchor="middle" x="704" y="-164.45" font-family="Times,serif" font-size="14.00">use</text>
</g>
<!-- DiscreteExteriorCalculus&#45;&gt;CLinearAlgebra -->
<g id="edge18" class="edge">
<title>DiscreteExteriorCalculus&#45;&gt;CLinearAlgebra</title>
<path fill="none" stroke="black" stroke-dasharray="5,2" d="M612.34,-76.95C602.12,-108.48 580.5,-175.18 568.15,-213.27"/>
<polygon fill="black" stroke="black" points="564.86,-212.07 565.11,-222.66 571.52,-214.23 564.86,-212.07"/>
<text text-anchor="middle" x="607" y="-164.45" font-family="Times,serif" font-size="14.00">use</text>
</g>
<!-- DiscreteExteriorCalculusSolver -->
<g id="node17" class="node">
<title>DiscreteExteriorCalculusSolver</title>
<g id="a_node17"><a xlink:href="classDGtal_1_1DiscreteExteriorCalculusSolver.html" target="_top" xlink:title="DiscreteExteriorCalculusSolver">
<ellipse fill="white" stroke="white" cx="368" cy="-58.5" rx="128.12" ry="18"/>
<text text-anchor="middle" x="368" y="-53.45" font-family="Times,serif" font-size="14.00">DiscreteExteriorCalculusSolver</text>
</a>
</g>
</g>
<!-- DiscreteExteriorCalculusSolver&#45;&gt;CLinearAlgebraSolver -->
<g id="edge21" class="edge">
<title>DiscreteExteriorCalculusSolver&#45;&gt;CLinearAlgebraSolver</title>
<path fill="none" stroke="black" stroke-dasharray="5,2" d="M368,-76.53C368,-93.47 368,-119.77 368,-139.91"/>
<polygon fill="black" stroke="black" points="364.5,-139.72 368,-149.72 371.5,-139.72 364.5,-139.72"/>
<text text-anchor="middle" x="377" y="-97.7" font-family="Times,serif" font-size="14.00">use</text>
</g>
</g>
</svg>

<g id="navigator" transform="translate(0 0)" fill="#404254">
  <rect fill="#f2f5e9" fill-opacity="0.5" stroke="#606060" stroke-width=".5" x="0" y="0" width="60" height="60"/>
  <use id="zoomplus" xlink:href="#zoomPlus" x="17" y="9" onmousedown="handleZoom(evt,'in')"/>
  <use id="zoomminus" xlink:href="#zoomMin" x="42" y="9" onmousedown="handleZoom(evt,'out')"/>
  <use id="reset" xlink:href="#resetDef" x="30" y="36" onmousedown="handleReset()"/>
   <use id="arrowup" xlink:href="#arrowUp" x="0" y="0" onmousedown="handlePan(0,-1)"/>
  <use id="arrowright" xlink:href="#arrowRight" x="0" y="0" onmousedown="handlePan(1,0)"/>
  <use id="arrowdown" xlink:href="#arrowDown" x="0" y="0" onmousedown="handlePan(0,1)"/>
  <use id="arrowleft" xlink:href="#arrowLeft" x="0" y="0" onmousedown="handlePan(-1,0)"/>
</g>
<svg viewBox="0 0 15 15" width="100%" height="30px" preserveAspectRatio="xMaxYMin meet">
 <g id="arrow_out" transform="scale(0.3 0.3)">
  <a xlink:href="dot_inline_dotgraph_5_org.svg" target="_base">
   <rect id="button" ry="5" rx="5" y="6" x="6" height="38" width="38"
        fill="#f2f5e9" fill-opacity="0.5" stroke="#606060" stroke-width="1.0"/>
   <path id="arrow"
     d="M 11.500037,31.436501 C 11.940474,20.09759 22.043105,11.32322 32.158766,21.979434 L 37.068811,17.246167 C 37.068811,17.246167 37.088388,32 37.088388,32 L 22.160133,31.978069 C 22.160133,31.978069 26.997745,27.140456 26.997745,27.140456 C 18.528582,18.264221 13.291696,25.230495 11.500037,31.436501 z"
     style="fill:#404040;"/>
  </a>
 </g>
</svg>

<style type='text/css'>
<![CDATA[
[data-mouse-over-selected='false'] { opacity: 0.7; }
[data-mouse-over-selected='true']  { opacity: 1.0; }
]]>
</style>
<script type="application/ecmascript"><![CDATA[
document.addEventListener('DOMContentLoaded', (event) => {
  highlightEdges();
  highlightAdjacentNodes();
});
]]></script>
</svg>
