<?xml version="1.0" encoding="UTF-8" standalone="no"?>
<!DOCTYPE svg PUBLIC "-//W3C//DTD SVG 1.1//EN"
 "http://www.w3.org/Graphics/SVG/1.1/DTD/svg11.dtd">
<!-- Generated by graphviz version 7.0.1 (20221109.1506)
 -->
<!-- Title: GDEC Pages: 1 -->
<!--zoomable 520 -->
<svg id="main" version="1.1" xmlns="http://www.w3.org/2000/svg" xmlns:xlink="http://www.w3.org/1999/xlink" xml:space="preserve" onload="init(evt)">
<style type="text/css"><![CDATA[
.edge:hover path { stroke: red; }
.edge:hover polygon { stroke: red; fill: red; }
]]></style>
<script type="text/javascript"><![CDATA[
var edges = document.getElementsByTagName('g');
if (edges && edges.length) {
  for (var i=0;i<edges.length;i++) {
    if (edges[i].id.substr(0,4)=='edge') {
      edges[i].setAttribute('class','edge');
    }
  }
}
]]></script>
        <defs>
                <circle id="rim" cx="0" cy="0" r="7"/>
                <circle id="rim2" cx="0" cy="0" r="3.5"/>
                <g id="zoomPlus">
                        <use xlink:href="#rim" fill="#404040">
                                <set attributeName="fill" to="#808080" begin="zoomplus.mouseover" end="zoomplus.mouseout"/>
                        </use>
                        <path d="M-4,0h8M0,-4v8" fill="none" stroke="white" stroke-width="1.5" pointer-events="none"/>
                </g>
                <g id="zoomMin">
                        <use xlink:href="#rim" fill="#404040">
                                <set attributeName="fill" to="#808080" begin="zoomminus.mouseover" end="zoomminus.mouseout"/>
                        </use>
                        <path d="M-4,0h8" fill="none" stroke="white" stroke-width="1.5" pointer-events="none"/>
                </g>
                <g id="dirArrow">
                        <path fill="none" stroke="white" stroke-width="1.5" d="M0,-3.0v7 M-2.5,-0.5L0,-3.0L2.5,-0.5"/>
                </g>
               <g id="resetDef">
                       <use xlink:href="#rim2" fill="#404040">
                               <set attributeName="fill" to="#808080" begin="reset.mouseover" end="reset.mouseout"/>
                       </use>
               </g>
        </defs>

<script type="text/javascript">
var viewWidth = 1114;
var viewHeight = 520;
</script>
<script xlink:href="svgpan.js"/>
<svg id="graph" class="graph">
<g id="viewport">
<title>GDEC</title>
<polygon fill="white" stroke="none" points="-4,4 -4,-516 1110,-516 1110,4 -4,4"/>
<g id="clust1" class="cluster">
<title>cluster_boost</title>
<polygon fill="white" stroke="white" points="22,-429 22,-504 420,-504 420,-429 22,-429"/>
<text text-anchor="middle" x="221" y="-436.8" font-family="Times,serif" font-size="14.00">boost</text>
</g>
<g id="clust2" class="cluster">
<title>cluster_math_linalg</title>
<polygon fill="#e4e4ff" stroke="#e4e4ff" points="20,-116 20,-410 776,-410 776,-116 20,-116"/>
<text text-anchor="middle" x="398" y="-123.8" font-family="Times,serif" font-size="14.00">math/linalg</text>
</g>
<g id="clust3" class="cluster">
<title>cluster_concepts</title>
<polygon fill="lightgrey" stroke="lightgrey" points="784,-116 784,-191 1098,-191 1098,-116 784,-116"/>
<text text-anchor="middle" x="941" y="-123.8" font-family="Times,serif" font-size="14.00">DEC (main concepts)</text>
</g>
<g id="clust4" class="cluster">
<title>cluster_models</title>
<polygon fill="#ccffcc" stroke="#ccffcc" points="214,-8 214,-83 1052,-83 1052,-8 214,-8"/>
<text text-anchor="middle" x="633" y="-15.8" font-family="Times,serif" font-size="14.00">DEC (main models)</text>
</g>
<!-- boost_DefaultConstructible -->
<g id="node1" class="node">
<title>boost_DefaultConstructible</title>
<g id="a_node1"><a xlink:href="structboost_1_1DefaultConstructible.html" target="_top" xlink:title="boost::DefaultConstructible">
<ellipse fill="orange" stroke="orange" cx="139" cy="-478" rx="108.58" ry="18"/>
<text text-anchor="middle" x="139" y="-474.3" font-family="Times,serif" font-size="14.00">boost::DefaultConstructible</text>
</a>
</g>
</g>
<!-- boost_Assignable -->
<g id="node2" class="node">
<title>boost_Assignable</title>
<g id="a_node2"><a xlink:href="structboost_1_1Assignable.html" target="_top" xlink:title="boost::Assignable">
<ellipse fill="orange" stroke="orange" cx="339" cy="-478" rx="73.39" ry="18"/>
<text text-anchor="middle" x="339" y="-474.3" font-family="Times,serif" font-size="14.00">boost::Assignable</text>
</a>
</g>
</g>
<!-- CVectorSpace -->
<g id="node3" class="node">
<title>CVectorSpace</title>
<g id="a_node3"><a xlink:href="structDGtal_1_1concepts_1_1CVectorSpace.html" target="_top" xlink:title="CVectorSpace">
<ellipse fill="white" stroke="white" cx="427" cy="-384" rx="60.39" ry="18"/>
<text text-anchor="middle" x="427" y="-380.3" font-family="Times,serif" font-size="14.00">CVectorSpace</text>
</a>
</g>
</g>
<!-- CVectorSpace&#45;&gt;boost_Assignable -->
<g id="edge14" class="edge">
<title>CVectorSpace&#45;&gt;boost_Assignable</title>
<path fill="none" stroke="black" d="M411.27,-401.45C397.8,-415.53 378.19,-436.03 362.8,-452.12"/>
<polygon fill="black" stroke="black" points="360.62,-449.33 356.24,-458.98 365.68,-454.17 360.62,-449.33"/>
</g>
<!-- CMatrix -->
<g id="node4" class="node">
<title>CMatrix</title>
<g id="a_node4"><a xlink:href="structDGtal_1_1concepts_1_1CMatrix.html" target="_top" xlink:title="CMatrix">
<ellipse fill="white" stroke="white" cx="504" cy="-311" rx="40.89" ry="18"/>
<text text-anchor="middle" x="504" y="-307.3" font-family="Times,serif" font-size="14.00">CMatrix</text>
</a>
</g>
</g>
<!-- CMatrix&#45;&gt;CVectorSpace -->
<g id="edge5" class="edge">
<title>CMatrix&#45;&gt;CVectorSpace</title>
<path fill="none" stroke="black" d="M486.91,-327.76C476.95,-336.94 464.2,-348.7 453.02,-359.01"/>
<polygon fill="black" stroke="black" points="450.94,-356.17 445.96,-365.52 455.68,-361.31 450.94,-356.17"/>
</g>
<!-- CStaticMatrix -->
<g id="node5" class="node">
<title>CStaticMatrix</title>
<g id="a_node5"><a xlink:href="structDGtal_1_1concepts_1_1CStaticMatrix.html" target="_top" xlink:title="CStaticMatrix">
<ellipse fill="white" stroke="white" cx="227" cy="-238" rx="61.19" ry="18"/>
<text text-anchor="middle" x="227" y="-234.3" font-family="Times,serif" font-size="14.00">CStaticMatrix</text>
</a>
</g>
</g>
<!-- CStaticMatrix&#45;&gt;boost_DefaultConstructible -->
<g id="edge7" class="edge">
<title>CStaticMatrix&#45;&gt;boost_DefaultConstructible</title>
<path fill="none" stroke="black" d="M220.67,-256.12C205.64,-296.76 167.7,-399.37 149.31,-449.11"/>
<polygon fill="black" stroke="black" points="146.1,-447.71 145.91,-458.3 152.67,-450.13 146.1,-447.71"/>
</g>
<!-- CStaticMatrix&#45;&gt;CMatrix -->
<g id="edge6" class="edge">
<title>CStaticMatrix&#45;&gt;CMatrix</title>
<path fill="none" stroke="black" d="M272.12,-250.57C323.43,-263.72 406.74,-285.07 458.29,-298.28"/>
<polygon fill="black" stroke="black" points="457.39,-301.67 467.95,-300.76 459.13,-294.89 457.39,-301.67"/>
</g>
<!-- CDynamicMatrix -->
<g id="node6" class="node">
<title>CDynamicMatrix</title>
<g id="a_node6"><a xlink:href="structDGtal_1_1concepts_1_1CDynamicMatrix.html" target="_top" xlink:title="CDynamicMatrix">
<ellipse fill="white" stroke="white" cx="695" cy="-238" rx="73.39" ry="18"/>
<text text-anchor="middle" x="695" y="-234.3" font-family="Times,serif" font-size="14.00">CDynamicMatrix</text>
</a>
</g>
</g>
<!-- CDynamicMatrix&#45;&gt;CMatrix -->
<g id="edge8" class="edge">
<title>CDynamicMatrix&#45;&gt;CMatrix</title>
<path fill="none" stroke="black" d="M655.89,-253.54C623.63,-265.53 577.99,-282.49 545.18,-294.69"/>
<polygon fill="black" stroke="black" points="544.15,-291.34 536,-298.11 546.59,-297.9 544.15,-291.34"/>
</g>
<!-- CVector -->
<g id="node7" class="node">
<title>CVector</title>
<g id="a_node7"><a xlink:href="structDGtal_1_1concepts_1_1CVector.html" target="_top" xlink:title="CVector">
<ellipse fill="white" stroke="white" cx="387" cy="-311" rx="39.79" ry="18"/>
<text text-anchor="middle" x="387" y="-307.3" font-family="Times,serif" font-size="14.00">CVector</text>
</a>
</g>
</g>
<!-- CVector&#45;&gt;CVectorSpace -->
<g id="edge1" class="edge">
<title>CVector&#45;&gt;CVectorSpace</title>
<path fill="none" stroke="black" d="M396.48,-328.83C401.05,-336.93 406.63,-346.85 411.77,-355.97"/>
<polygon fill="black" stroke="black" points="408.61,-357.49 416.57,-364.48 414.71,-354.05 408.61,-357.49"/>
</g>
<!-- CStaticVector -->
<g id="node8" class="node">
<title>CStaticVector</title>
<g id="a_node8"><a xlink:href="structDGtal_1_1concepts_1_1CStaticVector.html" target="_top" xlink:title="CStaticVector">
<ellipse fill="white" stroke="white" cx="88" cy="-238" rx="59.59" ry="18"/>
<text text-anchor="middle" x="88" y="-234.3" font-family="Times,serif" font-size="14.00">CStaticVector</text>
</a>
</g>
</g>
<!-- CStaticVector&#45;&gt;boost_DefaultConstructible -->
<g id="edge3" class="edge">
<title>CStaticVector&#45;&gt;boost_DefaultConstructible</title>
<path fill="none" stroke="black" d="M91.67,-256.12C100.34,-296.59 122.18,-398.51 132.89,-448.48"/>
<polygon fill="black" stroke="black" points="129.46,-449.19 134.98,-458.24 136.31,-447.73 129.46,-449.19"/>
</g>
<!-- CStaticVector&#45;&gt;CVector -->
<g id="edge2" class="edge">
<title>CStaticVector&#45;&gt;CVector</title>
<path fill="none" stroke="black" d="M132.89,-250.14C140.92,-252.11 149.2,-254.12 157,-256 220.78,-271.34 294.65,-288.59 341.1,-299.38"/>
<polygon fill="black" stroke="black" points="340.29,-302.78 350.82,-301.63 341.87,-295.96 340.29,-302.78"/>
</g>
<!-- CDynamicVector -->
<g id="node9" class="node">
<title>CDynamicVector</title>
<g id="a_node9"><a xlink:href="structDGtal_1_1concepts_1_1CDynamicVector.html" target="_top" xlink:title="CDynamicVector">
<ellipse fill="white" stroke="white" cx="378" cy="-238" rx="72.29" ry="18"/>
<text text-anchor="middle" x="378" y="-234.3" font-family="Times,serif" font-size="14.00">CDynamicVector</text>
</a>
</g>
</g>
<!-- CDynamicVector&#45;&gt;CVector -->
<g id="edge4" class="edge">
<title>CDynamicVector&#45;&gt;CVector</title>
<path fill="none" stroke="black" d="M380.18,-256.19C381.15,-263.86 382.32,-273.11 383.42,-281.76"/>
<polygon fill="black" stroke="black" points="379.92,-281.99 384.65,-291.47 386.87,-281.11 379.92,-281.99"/>
</g>
<!-- CLinearAlgebra -->
<g id="node10" class="node">
<title>CLinearAlgebra</title>
<g id="a_node10"><a xlink:href="structDGtal_1_1concepts_1_1CLinearAlgebra.html" target="_top" xlink:title="CLinearAlgebra">
<ellipse fill="white" stroke="white" cx="536" cy="-238" rx="67.69" ry="18"/>
<text text-anchor="middle" x="536" y="-234.3" font-family="Times,serif" font-size="14.00">CLinearAlgebra</text>
</a>
</g>
</g>
<!-- CLinearAlgebra&#45;&gt;CMatrix -->
<g id="edge9" class="edge">
<title>CLinearAlgebra&#45;&gt;CMatrix</title>
<path fill="none" stroke="black" d="M528.25,-256.19C524.68,-264.12 520.34,-273.74 516.33,-282.64"/>
<polygon fill="black" stroke="black" points="513.22,-281.04 512.3,-291.59 519.6,-283.91 513.22,-281.04"/>
</g>
<!-- CLinearAlgebra&#45;&gt;CVector -->
<g id="edge10" class="edge">
<title>CLinearAlgebra&#45;&gt;CVector</title>
<path fill="none" stroke="black" d="M504.04,-254.23C480.5,-265.45 448.44,-280.72 423.83,-292.45"/>
<polygon fill="black" stroke="black" points="422.33,-289.29 414.81,-296.75 425.34,-295.61 422.33,-289.29"/>
</g>
<!-- CLinearAlgebraSolver -->
<g id="node11" class="node">
<title>CLinearAlgebraSolver</title>
<g id="a_node11"><a xlink:href="structDGtal_1_1concepts_1_1CLinearAlgebraSolver.html" target="_top" xlink:title="CLinearAlgebraSolver">
<ellipse fill="white" stroke="white" cx="344" cy="-165" rx="90.98" ry="18"/>
<text text-anchor="middle" x="344" y="-161.3" font-family="Times,serif" font-size="14.00">CLinearAlgebraSolver</text>
</a>
</g>
</g>
<!-- CLinearAlgebraSolver&#45;&gt;boost_DefaultConstructible -->
<g id="edge12" class="edge">
<title>CLinearAlgebraSolver&#45;&gt;boost_DefaultConstructible</title>
<path fill="none" stroke="black" d="M253.17,-167.12C151.25,-170.91 0,-185.24 0,-237 0,-237 0,-237 0,-385 0,-421.85 34.39,-444.8 68.95,-458.56"/>
<polygon fill="black" stroke="black" points="67.64,-461.81 78.23,-462.02 70.08,-455.25 67.64,-461.81"/>
</g>
<!-- CLinearAlgebraSolver&#45;&gt;CLinearAlgebra -->
<g id="edge11" class="edge">
<title>CLinearAlgebraSolver&#45;&gt;CLinearAlgebra</title>
<path fill="none" stroke="black" d="M385.66,-181.41C415.46,-192.42 455.66,-207.29 487,-218.88"/>
<polygon fill="black" stroke="black" points="485.67,-222.12 496.26,-222.31 488.1,-215.55 485.67,-222.12"/>
</g>
<!-- CDiscreteExteriorCalculusVectorSpace -->
<g id="node12" class="node">
<title>CDiscreteExteriorCalculusVectorSpace</title>
<g id="a_node12"><a xlink:href="structDGtal_1_1concepts_1_1CDiscreteExteriorCalculusVectorSpace.html" target="_top" xlink:title="CDiscreteExteriorCalculusVectorSpace">
<ellipse fill="white" stroke="white" cx="941" cy="-165" rx="149.47" ry="18"/>
<text text-anchor="middle" x="941" y="-161.3" font-family="Times,serif" font-size="14.00">CDiscreteExteriorCalculusVectorSpace</text>
</a>
</g>
</g>
<!-- CDiscreteExteriorCalculusVectorSpace&#45;&gt;CVectorSpace -->
<g id="edge13" class="edge">
<title>CDiscreteExteriorCalculusVectorSpace&#45;&gt;CVectorSpace</title>
<path fill="none" stroke="black" d="M912.94,-183.13C880.82,-202.34 826.27,-233.7 777,-256 673.73,-302.74 547.7,-345.04 478.56,-367.05"/>
<polygon fill="black" stroke="black" points="477.88,-363.59 469.4,-369.95 479.99,-370.27 477.88,-363.59"/>
</g>
<!-- KForm -->
<g id="node13" class="node">
<title>KForm</title>
<g id="a_node13"><a xlink:href="classDGtal_1_1KForm.html" target="_top" xlink:title="KForm">
<ellipse fill="white" stroke="white" cx="738" cy="-57" rx="36.29" ry="18"/>
<text text-anchor="middle" x="738" y="-53.3" font-family="Times,serif" font-size="14.00">KForm</text>
</a>
</g>
</g>
<!-- KForm&#45;&gt;CDiscreteExteriorCalculusVectorSpace -->
<g id="edge15" class="edge">
<title>KForm&#45;&gt;CDiscreteExteriorCalculusVectorSpace</title>
<path fill="none" stroke="black" d="M761.27,-71.12C768.24,-75 775.9,-79.21 783,-83 821.4,-103.5 865.51,-126.03 897.35,-142.12"/>
<polygon fill="black" stroke="black" points="895.38,-145.04 905.88,-146.42 898.53,-138.79 895.38,-145.04"/>
</g>
<!-- LinearOperator -->
<g id="node14" class="node">
<title>LinearOperator</title>
<g id="a_node14"><a xlink:href="classDGtal_1_1LinearOperator.html" target="_top" xlink:title="LinearOperator">
<ellipse fill="white" stroke="white" cx="857" cy="-57" rx="64.99" ry="18"/>
<text text-anchor="middle" x="857" y="-53.3" font-family="Times,serif" font-size="14.00">LinearOperator</text>
</a>
</g>
</g>
<!-- LinearOperator&#45;&gt;CDiscreteExteriorCalculusVectorSpace -->
<g id="edge16" class="edge">
<title>LinearOperator&#45;&gt;CDiscreteExteriorCalculusVectorSpace</title>
<path fill="none" stroke="black" d="M870.5,-75.03C883.89,-91.93 904.6,-118.06 920.11,-137.64"/>
<polygon fill="black" stroke="black" points="917.36,-139.81 926.32,-145.47 922.85,-135.46 917.36,-139.81"/>
</g>
<!-- VectorField -->
<g id="node15" class="node">
<title>VectorField</title>
<g id="a_node15"><a xlink:href="classDGtal_1_1VectorField.html" target="_top" xlink:title="VectorField">
<ellipse fill="white" stroke="white" cx="992" cy="-57" rx="51.99" ry="18"/>
<text text-anchor="middle" x="992" y="-53.3" font-family="Times,serif" font-size="14.00">VectorField</text>
</a>
</g>
</g>
<!-- VectorField&#45;&gt;CDiscreteExteriorCalculusVectorSpace -->
<g id="edge17" class="edge">
<title>VectorField&#45;&gt;CDiscreteExteriorCalculusVectorSpace</title>
<path fill="none" stroke="black" d="M983.81,-75.03C975.86,-91.55 963.67,-116.88 954.33,-136.3"/>
<polygon fill="black" stroke="black" points="951.18,-134.77 950,-145.3 957.49,-137.8 951.18,-134.77"/>
</g>
<!-- DiscreteExteriorCalculus -->
<g id="node16" class="node">
<title>DiscreteExteriorCalculus</title>
<g id="a_node16"><a xlink:href="classDGtal_1_1DiscreteExteriorCalculus.html" target="_top" xlink:title="DiscreteExteriorCalculus">
<ellipse fill="white" stroke="white" cx="584" cy="-57" rx="99.38" ry="18"/>
<text text-anchor="middle" x="584" y="-53.3" font-family="Times,serif" font-size="14.00">DiscreteExteriorCalculus</text>
</a>
</g>
</g>
<!-- DiscreteExteriorCalculus&#45;&gt;CDynamicMatrix -->
<g id="edge19" class="edge">
<title>DiscreteExteriorCalculus&#45;&gt;CDynamicMatrix</title>
<path fill="none" stroke="black" stroke-dasharray="5,2" d="M594.64,-75.16C614.04,-106.44 655.26,-172.91 678.38,-210.2"/>
<polygon fill="black" stroke="black" points="675.35,-211.95 683.59,-218.6 681.3,-208.26 675.35,-211.95"/>
<text text-anchor="middle" x="675.5" y="-161.3" font-family="Times,serif" font-size="14.00">use</text>
</g>
<!-- DiscreteExteriorCalculus&#45;&gt;CDynamicVector -->
<g id="edge20" class="edge">
<title>DiscreteExteriorCalculus&#45;&gt;CDynamicVector</title>
<path fill="none" stroke="black" stroke-dasharray="5,2" d="M566.55,-75.21C534.87,-106.35 468.87,-170.71 444,-191 434.06,-199.11 422.75,-207.32 412.34,-214.52"/>
<polygon fill="black" stroke="black" points="410.64,-211.44 404.34,-219.96 414.58,-217.23 410.64,-211.44"/>
<text text-anchor="middle" x="533.5" y="-161.3" font-family="Times,serif" font-size="14.00">use</text>
</g>
<!-- DiscreteExteriorCalculus&#45;&gt;CLinearAlgebra -->
<g id="edge18" class="edge">
<title>DiscreteExteriorCalculus&#45;&gt;CLinearAlgebra</title>
<path fill="none" stroke="black" stroke-dasharray="5,2" d="M579.4,-75.16C571.1,-106.09 553.58,-171.44 543.52,-208.95"/>
<polygon fill="black" stroke="black" points="540.26,-207.6 541.05,-218.16 547.02,-209.41 540.26,-207.6"/>
<text text-anchor="middle" x="577.5" y="-161.3" font-family="Times,serif" font-size="14.00">use</text>
</g>
<!-- DiscreteExteriorCalculusSolver -->
<g id="node17" class="node">
<title>DiscreteExteriorCalculusSolver</title>
<g id="a_node17"><a xlink:href="classDGtal_1_1DiscreteExteriorCalculusSolver.html" target="_top" xlink:title="DiscreteExteriorCalculusSolver">
<ellipse fill="white" stroke="white" cx="344" cy="-57" rx="122.38" ry="18"/>
<text text-anchor="middle" x="344" y="-53.3" font-family="Times,serif" font-size="14.00">DiscreteExteriorCalculusSolver</text>
</a>
</g>
</g>
<!-- DiscreteExteriorCalculusSolver&#45;&gt;CLinearAlgebraSolver -->
<g id="edge21" class="edge">
<title>DiscreteExteriorCalculusSolver&#45;&gt;CLinearAlgebraSolver</title>
<path fill="none" stroke="black" stroke-dasharray="5,2" d="M344,-75.03C344,-91.24 344,-115.94 344,-135.21"/>
<polygon fill="black" stroke="black" points="340.5,-135.15 344,-145.15 347.5,-135.15 340.5,-135.15"/>
<text text-anchor="middle" x="353.5" y="-96.8" font-family="Times,serif" font-size="14.00">use</text>
</g>
</g>
</svg>
        <g id="navigator" transform="translate(0 0)" fill="#404254">
                <rect fill="#f2f5e9" fill-opacity="0.5" stroke="#606060" stroke-width=".5" x="0" y="0" width="60" height="60"/>
                <use id="zoomplus" xlink:href="#zoomPlus" x="17" y="9" onmousedown="handleZoom(evt,'in')"/>
                <use id="zoomminus" xlink:href="#zoomMin" x="42" y="9" onmousedown="handleZoom(evt,'out')"/>
                <use id="reset" xlink:href="#resetDef" x="30" y="36" onmousedown="handleReset()"/>
                <g id="arrowUp" xlink:href="#dirArrow" transform="translate(30 24)" onmousedown="handlePan(0,-1)">
                  <use xlink:href="#rim" fill="#404040">
                        <set attributeName="fill" to="#808080" begin="arrowUp.mouseover" end="arrowUp.mouseout"/>
                  </use>
                  <path fill="none" stroke="white" stroke-width="1.5" d="M0,-3.0v7 M-2.5,-0.5L0,-3.0L2.5,-0.5"/>
                </g>
                <g id="arrowRight" xlink:href="#dirArrow" transform="rotate(90) translate(36 -43)" onmousedown="handlePan(1,0)">
                  <use xlink:href="#rim" fill="#404040">
                        <set attributeName="fill" to="#808080" begin="arrowRight.mouseover" end="arrowRight.mouseout"/>
                  </use>
                  <path fill="none" stroke="white" stroke-width="1.5" d="M0,-3.0v7 M-2.5,-0.5L0,-3.0L2.5,-0.5"/>
                </g>
                <g id="arrowDown" xlink:href="#dirArrow" transform="rotate(180) translate(-30 -48)" onmousedown="handlePan(0,1)">
                  <use xlink:href="#rim" fill="#404040">
                        <set attributeName="fill" to="#808080" begin="arrowDown.mouseover" end="arrowDown.mouseout"/>
                  </use>
                  <path fill="none" stroke="white" stroke-width="1.5" d="M0,-3.0v7 M-2.5,-0.5L0,-3.0L2.5,-0.5"/>
                </g>
                <g id="arrowLeft" xlink:href="#dirArrow" transform="rotate(270) translate(-36 17)" onmousedown="handlePan(-1,0)">
                  <use xlink:href="#rim" fill="#404040">
                        <set attributeName="fill" to="#808080" begin="arrowLeft.mouseover" end="arrowLeft.mouseout"/>
                  </use>
                  <path fill="none" stroke="white" stroke-width="1.5" d="M0,-3.0v7 M-2.5,-0.5L0,-3.0L2.5,-0.5"/>
                </g>
        </g>
        <svg viewBox="0 0 15 15" width="100%" height="30px" preserveAspectRatio="xMaxYMin meet">
         <g id="arrow_out" transform="scale(0.3 0.3)">
          <a xlink:href="dot_inline_dotgraph_5_org.svg" target="_base">
           <rect id="button" ry="5" rx="5" y="6" x="6" height="38" width="38"
                fill="#f2f5e9" fill-opacity="0.5" stroke="#606060" stroke-width="1.0"/>
           <path id="arrow"
             d="M 11.500037,31.436501 C 11.940474,20.09759 22.043105,11.32322 32.158766,21.979434 L 37.068811,17.246167 C 37.068811,17.246167 37.088388,32 37.088388,32 L 22.160133,31.978069 C 22.160133,31.978069 26.997745,27.140456 26.997745,27.140456 C 18.528582,18.264221 13.291696,25.230495 11.500037,31.436501 z"
             style="fill:#404040;"/>
          </a>
         </g>
        </svg>
</svg>
