<?xml version="1.0" encoding="UTF-8" standalone="no"?>
<!DOCTYPE svg PUBLIC "-//W3C//DTD SVG 1.1//EN"
 "http://www.w3.org/Graphics/SVG/1.1/DTD/svg11.dtd">
<!-- Generated by graphviz version 13.1.2 (20250808.2320)
 -->
<!-- Title: GGraph Pages: 1 -->
<svg width="1918pt" height="499pt"
 viewBox="0.00 0.00 1918.00 499.00" xmlns="http://www.w3.org/2000/svg" xmlns:xlink="http://www.w3.org/1999/xlink">
<g id="graph0" class="graph" transform="scale(1 1) rotate(0) translate(4 494.5)">
<title>GGraph</title>
<polygon fill="white" stroke="none" points="-4,4 -4,-494.5 1914,-494.5 1914,4 -4,4"/>
<g id="clust1" class="cluster">
<title>cluster_ext</title>
</g>
<g id="clust2" class="cluster">
<title>cluster_base</title>
<polygon fill="#eeeeff" stroke="#eeeeff" points="487,-398 487,-474.5 605,-474.5 605,-398 487,-398"/>
<text xml:space="preserve" text-anchor="middle" x="546" y="-405.2" font-family="Times,serif" font-size="14.00">base</text>
</g>
<g id="clust5" class="cluster">
<title>cluster_boost</title>
<polygon fill="white" stroke="white" points="613,-398 613,-474.5 1789,-474.5 1789,-398 613,-398"/>
<text xml:space="preserve" text-anchor="middle" x="1201" y="-405.2" font-family="Times,serif" font-size="14.00">boost</text>
</g>
<g id="clust7" class="cluster">
<title>cluster_concepts</title>
<polygon fill="lightgrey" stroke="lightgrey" points="617,-133 617,-371 998,-371 998,-133 617,-133"/>
<text xml:space="preserve" text-anchor="middle" x="807.5" y="-140.2" font-family="Times,serif" font-size="14.00">Graph (main concepts)</text>
</g>
<g id="clust8" class="cluster">
<title>cluster_down</title>
<polygon fill="none" stroke="black" points="8,-8 8,-100.5 1902,-100.5 1902,-8 8,-8"/>
</g>
<g id="clust9" class="cluster">
<title>cluster_models</title>
<polygon fill="#ccffcc" stroke="#ccffcc" points="596,-16 596,-92.5 1894,-92.5 1894,-16 596,-16"/>
<text xml:space="preserve" text-anchor="middle" x="1245" y="-23.2" font-family="Times,serif" font-size="14.00">Graph (main models and classes)</text>
</g>
<g id="clust10" class="cluster">
<title>cluster_topology</title>
<polygon fill="#ccffcc" stroke="#ccffcc" points="16,-16 16,-92.5 588,-92.5 588,-16 16,-16"/>
<text xml:space="preserve" text-anchor="middle" x="302" y="-23.2" font-family="Times,serif" font-size="14.00">Topology (related concepts and models)</text>
</g>
<!-- CPredicate -->
<g id="node1" class="node">
<title>CPredicate</title>
<g id="a_node1"><a xlink:href="structDGtal_1_1concepts_1_1CPredicate.html" target="_top" xlink:title="CPredicate">
<ellipse fill="white" stroke="white" cx="546" cy="-448.5" rx="51.35" ry="18"/>
<text xml:space="preserve" text-anchor="middle" x="546" y="-443.45" font-family="Times,serif" font-size="14.00">CPredicate</text>
</a>
</g>
</g>
<!-- boost_Assignable -->
<g id="node2" class="node">
<title>boost_Assignable</title>
<g id="a_node2"><a xlink:href="structboost_1_1Assignable.html" target="_top" xlink:title="boost::Assignable">
<ellipse fill="orange" stroke="orange" cx="1123" cy="-448.5" rx="76.94" ry="18"/>
<text xml:space="preserve" text-anchor="middle" x="1123" y="-443.45" font-family="Times,serif" font-size="14.00">boost::Assignable</text>
</a>
</g>
</g>
<!-- boost_CopyConstructible -->
<g id="node3" class="node">
<title>boost_CopyConstructible</title>
<g id="a_node3"><a xlink:href="structboost_1_1CopyConstructible.html" target="_top" xlink:title="boost::CopyConstructible">
<ellipse fill="orange" stroke="orange" cx="727" cy="-448.5" rx="105.6" ry="18"/>
<text xml:space="preserve" text-anchor="middle" x="727" y="-443.45" font-family="Times,serif" font-size="14.00">boost::CopyConstructible</text>
</a>
</g>
</g>
<!-- boost_OutputIterator -->
<g id="node4" class="node">
<title>boost_OutputIterator</title>
<g id="a_node4"><a xlink:href="structboost_1_1OutputIterator.html" target="_top" xlink:title="boost::OutputIterator">
<ellipse fill="orange" stroke="orange" cx="939" cy="-448.5" rx="88.71" ry="18"/>
<text xml:space="preserve" text-anchor="middle" x="939" y="-443.45" font-family="Times,serif" font-size="14.00">boost::OutputIterator</text>
</a>
</g>
</g>
<!-- boost_UniqueAssociativeContainer -->
<g id="node5" class="node">
<title>boost_UniqueAssociativeContainer</title>
<g id="a_node5"><a xlink:href="structboost_1_1UniqueAssociativeContainer.html" target="_top" xlink:title="boost::UniqueAssociativeContainer">
<ellipse fill="orange" stroke="orange" cx="1360" cy="-448.5" rx="142.45" ry="18"/>
<text xml:space="preserve" text-anchor="middle" x="1360" y="-443.45" font-family="Times,serif" font-size="14.00">boost::UniqueAssociativeContainer</text>
</a>
</g>
</g>
<!-- boost_PairAssociativeContainer -->
<g id="node6" class="node">
<title>boost_PairAssociativeContainer</title>
<g id="a_node6"><a xlink:href="structboost_1_1PairAssociativeContainer.html" target="_top" xlink:title="boost::PairAssociativeContainer">
<ellipse fill="orange" stroke="orange" cx="1651" cy="-448.5" rx="130.17" ry="18"/>
<text xml:space="preserve" text-anchor="middle" x="1651" y="-443.45" font-family="Times,serif" font-size="14.00">boost::PairAssociativeContainer</text>
</a>
</g>
</g>
<!-- CUndirectedSimpleLocalGraph -->
<g id="node7" class="node">
<title>CUndirectedSimpleLocalGraph</title>
<g id="a_node7"><a xlink:href="structDGtal_1_1concepts_1_1CUndirectedSimpleLocalGraph.html" target="_top" xlink:title="CUndirectedSimpleLocalGraph">
<ellipse fill="white" stroke="white" cx="861" cy="-256.5" rx="128.63" ry="18"/>
<text xml:space="preserve" text-anchor="middle" x="861" y="-251.45" font-family="Times,serif" font-size="14.00">CUndirectedSimpleLocalGraph</text>
</a>
</g>
</g>
<!-- CUndirectedSimpleLocalGraph&#45;&gt;boost_OutputIterator -->
<g id="edge5" class="edge">
<title>CUndirectedSimpleLocalGraph&#45;&gt;boost_OutputIterator</title>
<path fill="none" stroke="black" stroke-dasharray="5,2" d="M794.01,-272.31C725.76,-290.37 635.42,-324.35 677,-371 701.56,-398.55 807.02,-378.22 842,-390 865.43,-397.89 889.35,-411.99 907.58,-424.25"/>
<polygon fill="black" stroke="black" points="905.36,-426.97 915.57,-429.78 909.34,-421.21 905.36,-426.97"/>
<text xml:space="preserve" text-anchor="middle" x="686" y="-339.95" font-family="Times,serif" font-size="14.00">use</text>
</g>
<!-- CVertexPredicate -->
<g id="node9" class="node">
<title>CVertexPredicate</title>
<g id="a_node9"><a xlink:href="structDGtal_1_1concepts_1_1CVertexPredicate.html" target="_top" xlink:title="CVertexPredicate">
<ellipse fill="white" stroke="white" cx="779" cy="-345" rx="75.41" ry="18"/>
<text xml:space="preserve" text-anchor="middle" x="779" y="-339.95" font-family="Times,serif" font-size="14.00">CVertexPredicate</text>
</a>
</g>
</g>
<!-- CUndirectedSimpleLocalGraph&#45;&gt;CVertexPredicate -->
<g id="edge6" class="edge">
<title>CUndirectedSimpleLocalGraph&#45;&gt;CVertexPredicate</title>
<path fill="none" stroke="black" stroke-dasharray="5,2" d="M844.8,-274.59C832.89,-287.15 816.52,-304.42 803.09,-318.59"/>
<polygon fill="black" stroke="black" points="800.55,-316.18 796.21,-325.85 805.63,-321 800.55,-316.18"/>
<text xml:space="preserve" text-anchor="middle" x="836.34" y="-295.7" font-family="Times,serif" font-size="14.00">use</text>
</g>
<!-- CVertexMap -->
<g id="node10" class="node">
<title>CVertexMap</title>
<g id="a_node10"><a xlink:href="structDGtal_1_1concepts_1_1CVertexMap.html" target="_top" xlink:title="CVertexMap">
<ellipse fill="white" stroke="white" cx="931" cy="-345" rx="58.52" ry="18"/>
<text xml:space="preserve" text-anchor="middle" x="931" y="-339.95" font-family="Times,serif" font-size="14.00">CVertexMap</text>
</a>
</g>
</g>
<!-- CUndirectedSimpleLocalGraph&#45;&gt;CVertexMap -->
<g id="edge4" class="edge">
<title>CUndirectedSimpleLocalGraph&#45;&gt;CVertexMap</title>
<path fill="none" stroke="black" stroke-dasharray="5,2" d="M874.83,-274.59C884.96,-287.11 898.89,-304.32 910.34,-318.46"/>
<polygon fill="black" stroke="black" points="907.47,-320.49 916.49,-326.06 912.92,-316.09 907.47,-320.49"/>
<text xml:space="preserve" text-anchor="middle" x="911.27" y="-295.7" font-family="Times,serif" font-size="14.00">use</text>
</g>
<!-- CUndirectedSimpleGraph -->
<g id="node8" class="node">
<title>CUndirectedSimpleGraph</title>
<g id="a_node8"><a xlink:href="structDGtal_1_1concepts_1_1CUndirectedSimpleGraph.html" target="_top" xlink:title="CUndirectedSimpleGraph">
<ellipse fill="white" stroke="white" cx="733" cy="-183.5" rx="107.65" ry="18"/>
<text xml:space="preserve" text-anchor="middle" x="733" y="-178.45" font-family="Times,serif" font-size="14.00">CUndirectedSimpleGraph</text>
</a>
</g>
</g>
<!-- CUndirectedSimpleGraph&#45;&gt;CUndirectedSimpleLocalGraph -->
<g id="edge3" class="edge">
<title>CUndirectedSimpleGraph&#45;&gt;CUndirectedSimpleLocalGraph</title>
<path fill="none" stroke="black" d="M763.01,-201.15C780.22,-210.69 802.04,-222.8 820.73,-233.16"/>
<polygon fill="black" stroke="black" points="818.97,-236.19 829.41,-237.98 822.36,-230.07 818.97,-236.19"/>
</g>
<!-- CVertexPredicate&#45;&gt;CPredicate -->
<g id="edge1" class="edge">
<title>CVertexPredicate&#45;&gt;CPredicate</title>
<path fill="none" stroke="black" d="M732.45,-359.49C718.8,-363.33 703.83,-367.44 690,-371 654.19,-380.22 641.71,-372.76 609,-390 593.4,-398.22 578.68,-411.24 567.4,-422.81"/>
<polygon fill="black" stroke="black" points="565.14,-420.1 560.86,-429.79 570.25,-424.88 565.14,-420.1"/>
</g>
<!-- CVertexMap&#45;&gt;boost_Assignable -->
<g id="edge2" class="edge">
<title>CVertexMap&#45;&gt;boost_Assignable</title>
<path fill="none" stroke="black" d="M968.12,-359.35C988.84,-367.31 1014.86,-378.15 1037,-390 1055.75,-400.04 1075.56,-413.09 1091.43,-424.22"/>
<polygon fill="black" stroke="black" points="1089.35,-427.04 1099.53,-429.99 1093.41,-421.34 1089.35,-427.04"/>
</g>
<!-- CGraphVisitor -->
<g id="node11" class="node">
<title>CGraphVisitor</title>
<g id="a_node11"><a xlink:href="structDGtal_1_1concepts_1_1CGraphVisitor.html" target="_top" xlink:title="CGraphVisitor">
<ellipse fill="white" stroke="white" cx="924" cy="-183.5" rx="65.68" ry="18"/>
<text xml:space="preserve" text-anchor="middle" x="924" y="-178.45" font-family="Times,serif" font-size="14.00">CGraphVisitor</text>
</a>
</g>
</g>
<!-- CGraphVisitor&#45;&gt;boost_CopyConstructible -->
<g id="edge7" class="edge">
<title>CGraphVisitor&#45;&gt;boost_CopyConstructible</title>
<path fill="none" stroke="black" d="M874.95,-195.8C819.57,-208.86 735.51,-229.67 723,-238.5 670.04,-275.9 639.64,-310.15 662,-371 669.27,-390.78 684.17,-408.94 697.87,-422.6"/>
<polygon fill="black" stroke="black" points="695.42,-425.09 705.08,-429.45 700.24,-420.02 695.42,-425.09"/>
</g>
<!-- CVertexPredicateArchetype -->
<g id="node12" class="node">
<title>CVertexPredicateArchetype</title>
<g id="a_node12"><a xlink:href="structDGtal_1_1concepts_1_1CVertexPredicateArchetype.html" target="_top" xlink:title="CVertexPredicateArchetype">
<ellipse fill="white" stroke="white" cx="1502" cy="-66.5" rx="113.79" ry="18"/>
<text xml:space="preserve" text-anchor="middle" x="1502" y="-61.45" font-family="Times,serif" font-size="14.00">CVertexPredicateArchetype</text>
</a>
</g>
</g>
<!-- CVertexPredicateArchetype&#45;&gt;CVertexPredicate -->
<g id="edge8" class="edge">
<title>CVertexPredicateArchetype&#45;&gt;CVertexPredicate</title>
<path fill="none" stroke="black" d="M1457.15,-83.41C1438.81,-90.42 1417.58,-99.17 1399,-108.5 1328.57,-143.87 1319.44,-168.2 1248,-201.5 1110.49,-265.6 1069.87,-267.28 924,-309 897.97,-316.44 869.03,-323.65 843.88,-329.56"/>
<polygon fill="black" stroke="black" points="843.41,-326.08 834.47,-331.75 845,-332.89 843.41,-326.08"/>
</g>
<!-- STLMapToVertexMapAdapter -->
<g id="node13" class="node">
<title>STLMapToVertexMapAdapter</title>
<g id="a_node13"><a xlink:href="classDGtal_1_1STLMapToVertexMapAdapter.html" target="_top" xlink:title="STLMapToVertexMapAdapter">
<ellipse fill="white" stroke="white" cx="1760" cy="-66.5" rx="126.08" ry="18"/>
<text xml:space="preserve" text-anchor="middle" x="1760" y="-61.45" font-family="Times,serif" font-size="14.00">STLMapToVertexMapAdapter</text>
</a>
</g>
</g>
<!-- STLMapToVertexMapAdapter&#45;&gt;boost_UniqueAssociativeContainer -->
<g id="edge10" class="edge">
<title>STLMapToVertexMapAdapter&#45;&gt;boost_UniqueAssociativeContainer</title>
<path fill="none" stroke="black" stroke-dasharray="5,2" d="M1707.06,-83.23C1624.64,-108.49 1475,-157.76 1475,-182.5 1475,-182.5 1475,-182.5 1475,-346 1475,-382.52 1441.99,-409.05 1411.34,-425.8"/>
<polygon fill="black" stroke="black" points="1410.13,-422.49 1402.86,-430.2 1413.35,-428.7 1410.13,-422.49"/>
<text xml:space="preserve" text-anchor="middle" x="1484" y="-251.45" font-family="Times,serif" font-size="14.00">use</text>
</g>
<!-- STLMapToVertexMapAdapter&#45;&gt;boost_PairAssociativeContainer -->
<g id="edge11" class="edge">
<title>STLMapToVertexMapAdapter&#45;&gt;boost_PairAssociativeContainer</title>
<path fill="none" stroke="black" stroke-dasharray="5,2" d="M1745.84,-84.6C1729.54,-106.06 1705,-144.66 1705,-182.5 1705,-182.5 1705,-182.5 1705,-346 1705,-374.13 1688.63,-402.05 1673.92,-421.47"/>
<polygon fill="black" stroke="black" points="1671.34,-419.09 1667.85,-429.09 1676.82,-423.45 1671.34,-419.09"/>
<text xml:space="preserve" text-anchor="middle" x="1714" y="-251.45" font-family="Times,serif" font-size="14.00">use</text>
</g>
<!-- STLMapToVertexMapAdapter&#45;&gt;CVertexMap -->
<g id="edge9" class="edge">
<title>STLMapToVertexMapAdapter&#45;&gt;CVertexMap</title>
<path fill="none" stroke="black" d="M1705.95,-83.22C1681.45,-89.69 1651.98,-96.58 1625,-100.5 1588.89,-105.74 1495.75,-97.39 1461,-108.5 1388.08,-131.82 1384.46,-167.22 1316,-201.5 1233.25,-242.94 1207.79,-242.38 1121,-274.5 1072.37,-292.5 1016.65,-312.85 978.18,-326.85"/>
<polygon fill="black" stroke="black" points="977.43,-323.4 969.23,-330.11 979.83,-329.98 977.43,-323.4"/>
</g>
<!-- BreadthFirstVisitor -->
<g id="node14" class="node">
<title>BreadthFirstVisitor</title>
<g id="a_node14"><a xlink:href="classDGtal_1_1BreadthFirstVisitor.html" target="_top" xlink:title="BreadthFirstVisitor">
<ellipse fill="white" stroke="white" cx="1118" cy="-66.5" rx="82.57" ry="18"/>
<text xml:space="preserve" text-anchor="middle" x="1118" y="-61.45" font-family="Times,serif" font-size="14.00">BreadthFirstVisitor</text>
</a>
</g>
</g>
<!-- BreadthFirstVisitor&#45;&gt;CUndirectedSimpleLocalGraph -->
<g id="edge16" class="edge">
<title>BreadthFirstVisitor&#45;&gt;CUndirectedSimpleLocalGraph</title>
<path fill="none" stroke="black" stroke-dasharray="5,2" d="M1116.65,-84.92C1112.85,-119.86 1098.58,-197.12 1046,-220.5 1023.34,-230.58 997.86,-237.76 973.22,-242.87"/>
<polygon fill="black" stroke="black" points="972.59,-239.42 963.45,-244.78 973.94,-246.29 972.59,-239.42"/>
<text xml:space="preserve" text-anchor="middle" x="1116.11" y="-178.45" font-family="Times,serif" font-size="14.00">use</text>
</g>
<!-- BreadthFirstVisitor&#45;&gt;CGraphVisitor -->
<g id="edge17" class="edge">
<title>BreadthFirstVisitor&#45;&gt;CGraphVisitor</title>
<path fill="none" stroke="black" d="M1090.62,-83.73C1056.48,-103.97 998.04,-138.61 960.23,-161.02"/>
<polygon fill="black" stroke="black" points="958.74,-157.84 951.92,-165.95 962.31,-163.86 958.74,-157.84"/>
</g>
<!-- DepthFirstVisitor -->
<g id="node15" class="node">
<title>DepthFirstVisitor</title>
<g id="a_node15"><a xlink:href="classDGtal_1_1DepthFirstVisitor.html" target="_top" xlink:title="DepthFirstVisitor">
<ellipse fill="white" stroke="white" cx="1294" cy="-66.5" rx="75.92" ry="18"/>
<text xml:space="preserve" text-anchor="middle" x="1294" y="-61.45" font-family="Times,serif" font-size="14.00">DepthFirstVisitor</text>
</a>
</g>
</g>
<!-- DepthFirstVisitor&#45;&gt;CUndirectedSimpleLocalGraph -->
<g id="edge18" class="edge">
<title>DepthFirstVisitor&#45;&gt;CUndirectedSimpleLocalGraph</title>
<path fill="none" stroke="black" stroke-dasharray="5,2" d="M1277.87,-84.57C1250.12,-112.97 1190.36,-169.92 1129,-201.5 1084.27,-224.53 1030.63,-237.74 983.13,-245.32"/>
<polygon fill="black" stroke="black" points="982.69,-241.85 973.33,-246.81 983.74,-248.77 982.69,-241.85"/>
<text xml:space="preserve" text-anchor="middle" x="1234.66" y="-178.45" font-family="Times,serif" font-size="14.00">use</text>
</g>
<!-- DepthFirstVisitor&#45;&gt;CGraphVisitor -->
<g id="edge19" class="edge">
<title>DepthFirstVisitor&#45;&gt;CGraphVisitor</title>
<path fill="none" stroke="black" d="M1258.94,-82.93C1244.06,-89.05 1226.4,-95.74 1210,-100.5 1136.97,-121.72 1114.78,-110.95 1042,-133 1016.05,-140.86 988.03,-152.47 965.81,-162.48"/>
<polygon fill="black" stroke="black" points="964.41,-159.27 956.77,-166.61 967.32,-165.63 964.41,-159.27"/>
</g>
<!-- DistanceBreadthFirstVisitor -->
<g id="node16" class="node">
<title>DistanceBreadthFirstVisitor</title>
<g id="a_node16"><a xlink:href="classDGtal_1_1DistanceBreadthFirstVisitor.html" target="_top" xlink:title="DistanceBreadthFirstVisitor">
<ellipse fill="white" stroke="white" cx="903" cy="-66.5" rx="114.82" ry="18"/>
<text xml:space="preserve" text-anchor="middle" x="903" y="-61.45" font-family="Times,serif" font-size="14.00">DistanceBreadthFirstVisitor</text>
</a>
</g>
</g>
<!-- DistanceBreadthFirstVisitor&#45;&gt;CUndirectedSimpleLocalGraph -->
<g id="edge20" class="edge">
<title>DistanceBreadthFirstVisitor&#45;&gt;CUndirectedSimpleLocalGraph</title>
<path fill="none" stroke="black" stroke-dasharray="5,2" d="M962.2,-82.31C988.36,-92.12 1016.63,-107.95 1032,-133 1052.34,-166.14 1056.59,-190.37 1032,-220.5 1023.62,-230.77 1001.01,-238.1 974.87,-243.31"/>
<polygon fill="black" stroke="black" points="974.58,-239.81 965.39,-245.07 975.86,-246.69 974.58,-239.81"/>
<text xml:space="preserve" text-anchor="middle" x="1057.89" y="-178.45" font-family="Times,serif" font-size="14.00">use</text>
</g>
<!-- DistanceBreadthFirstVisitor&#45;&gt;CGraphVisitor -->
<g id="edge21" class="edge">
<title>DistanceBreadthFirstVisitor&#45;&gt;CGraphVisitor</title>
<path fill="none" stroke="black" d="M925.28,-84.36C932.33,-91.02 939.25,-99.29 943,-108.5 949.1,-123.48 945.08,-140.97 939.19,-155.19"/>
<polygon fill="black" stroke="black" points="936.16,-153.42 935.11,-163.96 942.5,-156.37 936.16,-153.42"/>
</g>
<!-- GraphVisitorRange -->
<g id="node17" class="node">
<title>GraphVisitorRange</title>
<g id="a_node17"><a xlink:href="classDGtal_1_1GraphVisitorRange.html" target="_top" xlink:title="GraphVisitorRange">
<ellipse fill="white" stroke="white" cx="687" cy="-66.5" rx="83.08" ry="18"/>
<text xml:space="preserve" text-anchor="middle" x="687" y="-61.45" font-family="Times,serif" font-size="14.00">GraphVisitorRange</text>
</a>
</g>
</g>
<!-- GraphVisitorRange&#45;&gt;CGraphVisitor -->
<g id="edge22" class="edge">
<title>GraphVisitorRange&#45;&gt;CGraphVisitor</title>
<path fill="none" stroke="black" stroke-dasharray="5,2" d="M730.65,-82.24C764.12,-94.21 811.03,-112.42 850,-133 864.59,-140.71 879.89,-150.6 892.76,-159.51"/>
<polygon fill="black" stroke="black" points="890.65,-162.3 900.84,-165.21 894.69,-156.58 890.65,-162.3"/>
<text xml:space="preserve" text-anchor="middle" x="842.01" y="-111.7" font-family="Times,serif" font-size="14.00">use</text>
</g>
<!-- CAdjacency -->
<g id="node18" class="node">
<title>CAdjacency</title>
<g id="a_node18"><a xlink:href="structDGtal_1_1concepts_1_1CAdjacency.html" target="_top" xlink:title="CAdjacency">
<ellipse fill="white" stroke="white" cx="524" cy="-66.5" rx="56.47" ry="18"/>
<text xml:space="preserve" text-anchor="middle" x="524" y="-61.45" font-family="Times,serif" font-size="14.00">CAdjacency</text>
</a>
</g>
</g>
<!-- CAdjacency&#45;&gt;CUndirectedSimpleLocalGraph -->
<g id="edge12" class="edge">
<title>CAdjacency&#45;&gt;CUndirectedSimpleLocalGraph</title>
<path fill="none" stroke="black" d="M549.91,-82.9C562.24,-89.47 577.44,-96.54 592,-100.5 593.37,-100.87 998.04,-131.96 999,-133 1019.65,-155.37 1016.16,-176.35 999,-201.5 987.5,-218.35 969.88,-229.95 951.03,-237.92"/>
<polygon fill="black" stroke="black" points="949.95,-234.59 941.88,-241.45 952.47,-241.12 949.95,-234.59"/>
</g>
<!-- DigitalSurface -->
<g id="node19" class="node">
<title>DigitalSurface</title>
<g id="a_node19"><a xlink:href="classDGtal_1_1DigitalSurface.html" target="_top" xlink:title="DigitalSurface">
<ellipse fill="white" stroke="white" cx="89" cy="-66.5" rx="64.66" ry="18"/>
<text xml:space="preserve" text-anchor="middle" x="89" y="-61.45" font-family="Times,serif" font-size="14.00">DigitalSurface</text>
</a>
</g>
</g>
<!-- DigitalSurface&#45;&gt;CUndirectedSimpleGraph -->
<g id="edge13" class="edge">
<title>DigitalSurface&#45;&gt;CUndirectedSimpleGraph</title>
<path fill="none" stroke="black" d="M118.53,-82.93C131.81,-89.27 147.86,-96.13 163,-100.5 318.47,-145.4 505.21,-166.31 621.52,-175.61"/>
<polygon fill="black" stroke="black" points="621.15,-179.09 631.39,-176.38 621.7,-172.11 621.15,-179.09"/>
</g>
<!-- IndexedDigitalSurface -->
<g id="node20" class="node">
<title>IndexedDigitalSurface</title>
<g id="a_node20"><a xlink:href="classDGtal_1_1IndexedDigitalSurface.html" target="_top" xlink:title="IndexedDigitalSurface">
<ellipse fill="white" stroke="white" cx="266" cy="-66.5" rx="94.34" ry="18"/>
<text xml:space="preserve" text-anchor="middle" x="266" y="-61.45" font-family="Times,serif" font-size="14.00">IndexedDigitalSurface</text>
</a>
</g>
</g>
<!-- IndexedDigitalSurface&#45;&gt;CUndirectedSimpleGraph -->
<g id="edge14" class="edge">
<title>IndexedDigitalSurface&#45;&gt;CUndirectedSimpleGraph</title>
<path fill="none" stroke="black" d="M311.06,-82.72C329.26,-88.62 350.53,-95.22 370,-100.5 467.27,-126.87 580.78,-151.55 654.62,-166.81"/>
<polygon fill="black" stroke="black" points="653.69,-170.19 664.19,-168.78 655.1,-163.33 653.69,-170.19"/>
</g>
<!-- Object -->
<g id="node21" class="node">
<title>Object</title>
<g id="a_node21"><a xlink:href="classDGtal_1_1Object.html" target="_top" xlink:title="Object">
<ellipse fill="white" stroke="white" cx="414" cy="-66.5" rx="35.49" ry="18"/>
<text xml:space="preserve" text-anchor="middle" x="414" y="-61.45" font-family="Times,serif" font-size="14.00">Object</text>
</a>
</g>
</g>
<!-- Object&#45;&gt;CUndirectedSimpleGraph -->
<g id="edge15" class="edge">
<title>Object&#45;&gt;CUndirectedSimpleGraph</title>
<path fill="none" stroke="black" d="M430.83,-82.63C438.84,-89.07 448.87,-96.09 459,-100.5 476.42,-108.08 482.58,-103.83 501,-108.5 562.46,-124.09 631.53,-146.81 678.21,-162.96"/>
<polygon fill="black" stroke="black" points="676.96,-166.23 687.55,-166.21 679.26,-159.62 676.96,-166.23"/>
</g>
</g>
</svg>
