<?xml version="1.0" encoding="UTF-8" standalone="no"?>
<!DOCTYPE svg PUBLIC "-//W3C//DTD SVG 1.1//EN"
 "http://www.w3.org/Graphics/SVG/1.1/DTD/svg11.dtd">
<!-- Generated by graphviz version 11.0.0 (20240428.1522)
 -->
<!-- Title: SegmentComputerHierarchy Pages: 1 -->
<svg width="571pt" height="461pt"
 viewBox="0.00 0.00 571.00 460.50" xmlns="http://www.w3.org/2000/svg" xmlns:xlink="http://www.w3.org/1999/xlink">
<g id="graph0" class="graph" transform="scale(1 1) rotate(0) translate(4 456.5)">
<title>SegmentComputerHierarchy</title>
<polygon fill="white" stroke="none" points="-4,4 -4,-456.5 567,-456.5 567,4 -4,4"/>
<g id="clust1" class="cluster">
<title>cluster_concepts_1</title>
<polygon fill="lightgrey" stroke="lightgrey" points="8,-8 8,-444.5 555,-444.5 555,-8 8,-8"/>
<text text-anchor="middle" x="281.5" y="-15.2" font-family="Times,serif" font-size="14.00">geometry/curves (main concepts)</text>
</g>
<!-- CSegment -->
<g id="node1" class="node">
<title>CSegment</title>
<g id="a_node1"><a xlink:href="structDGtal_1_1concepts_1_1CSegment.html" target="_top" xlink:title="CSegment">
<ellipse fill="white" stroke="white" cx="283" cy="-418.5" rx="49.82" ry="18"/>
<text text-anchor="middle" x="283" y="-413.45" font-family="Times,serif" font-size="14.00">CSegment</text>
</a>
</g>
</g>
<!-- CBidirectionalSegmentComputer -->
<g id="node2" class="node">
<title>CBidirectionalSegmentComputer</title>
<g id="a_node2"><a xlink:href="structDGtal_1_1concepts_1_1CBidirectionalSegmentComputer.html" target="_top" xlink:title="CBidirectionalSegmentComputer">
<ellipse fill="white" stroke="white" cx="151" cy="-130.5" rx="135.29" ry="18"/>
<text text-anchor="middle" x="151" y="-125.45" font-family="Times,serif" font-size="14.00">CBidirectionalSegmentComputer</text>
</a>
</g>
</g>
<!-- CForwardSegmentComputer -->
<g id="node4" class="node">
<title>CForwardSegmentComputer</title>
<g id="a_node4"><a xlink:href="structDGtal_1_1concepts_1_1CForwardSegmentComputer.html" target="_top" xlink:title="CForwardSegmentComputer">
<ellipse fill="white" stroke="white" cx="283" cy="-202.5" rx="118.4" ry="18"/>
<text text-anchor="middle" x="283" y="-197.45" font-family="Times,serif" font-size="14.00">CForwardSegmentComputer</text>
</a>
</g>
</g>
<!-- CBidirectionalSegmentComputer&#45;&gt;CForwardSegmentComputer -->
<g id="edge1" class="edge">
<title>CBidirectionalSegmentComputer&#45;&gt;CForwardSegmentComputer</title>
<path fill="none" stroke="black" d="M182.95,-148.45C200.46,-157.73 222.38,-169.35 241.23,-179.35"/>
<polygon fill="black" stroke="black" points="239.53,-182.41 250,-184 242.81,-176.22 239.53,-182.41"/>
</g>
<!-- CIncrementalSegmentComputer -->
<g id="node3" class="node">
<title>CIncrementalSegmentComputer</title>
<g id="a_node3"><a xlink:href="structDGtal_1_1concepts_1_1CIncrementalSegmentComputer.html" target="_top" xlink:title="CIncrementalSegmentComputer">
<ellipse fill="white" stroke="white" cx="283" cy="-274.5" rx="131.71" ry="18"/>
<text text-anchor="middle" x="283" y="-269.45" font-family="Times,serif" font-size="14.00">CIncrementalSegmentComputer</text>
</a>
</g>
</g>
<!-- CSegmentFactory -->
<g id="node5" class="node">
<title>CSegmentFactory</title>
<g id="a_node5"><a xlink:href="structDGtal_1_1concepts_1_1CSegmentFactory.html" target="_top" xlink:title="CSegmentFactory">
<ellipse fill="white" stroke="white" cx="283" cy="-346.5" rx="77.97" ry="18"/>
<text text-anchor="middle" x="283" y="-341.45" font-family="Times,serif" font-size="14.00">CSegmentFactory</text>
</a>
</g>
</g>
<!-- CIncrementalSegmentComputer&#45;&gt;CSegmentFactory -->
<g id="edge3" class="edge">
<title>CIncrementalSegmentComputer&#45;&gt;CSegmentFactory</title>
<path fill="none" stroke="black" d="M283,-292.8C283,-300.09 283,-308.77 283,-316.96"/>
<polygon fill="black" stroke="black" points="279.5,-316.88 283,-326.88 286.5,-316.88 279.5,-316.88"/>
</g>
<!-- CForwardSegmentComputer&#45;&gt;CIncrementalSegmentComputer -->
<g id="edge2" class="edge">
<title>CForwardSegmentComputer&#45;&gt;CIncrementalSegmentComputer</title>
<path fill="none" stroke="black" d="M283,-220.8C283,-228.09 283,-236.77 283,-244.96"/>
<polygon fill="black" stroke="black" points="279.5,-244.88 283,-254.88 286.5,-244.88 279.5,-244.88"/>
</g>
<!-- CSegmentFactory&#45;&gt;CSegment -->
<g id="edge4" class="edge">
<title>CSegmentFactory&#45;&gt;CSegment</title>
<path fill="none" stroke="black" d="M283,-364.8C283,-372.09 283,-380.77 283,-388.96"/>
<polygon fill="black" stroke="black" points="279.5,-388.88 283,-398.88 286.5,-388.88 279.5,-388.88"/>
</g>
<!-- CDynamicBidirectionalSegmentComputer -->
<g id="node6" class="node">
<title>CDynamicBidirectionalSegmentComputer</title>
<g id="a_node6"><a xlink:href="structDGtal_1_1concepts_1_1CDynamicBidirectionalSegmentComputer.html" target="_top" xlink:title="CDynamicBidirectionalSegmentComputer">
<ellipse fill="white" stroke="white" cx="281" cy="-58.5" rx="169.58" ry="18"/>
<text text-anchor="middle" x="281" y="-53.45" font-family="Times,serif" font-size="14.00">CDynamicBidirectionalSegmentComputer</text>
</a>
</g>
</g>
<!-- CDynamicBidirectionalSegmentComputer&#45;&gt;CBidirectionalSegmentComputer -->
<g id="edge7" class="edge">
<title>CDynamicBidirectionalSegmentComputer&#45;&gt;CBidirectionalSegmentComputer</title>
<path fill="none" stroke="black" d="M249.2,-76.62C232.15,-85.8 210.94,-97.22 192.6,-107.1"/>
<polygon fill="black" stroke="black" points="190.95,-104.01 183.81,-111.84 194.27,-110.18 190.95,-104.01"/>
</g>
<!-- CDynamicSegmentComputer -->
<g id="node7" class="node">
<title>CDynamicSegmentComputer</title>
<g id="a_node7"><a xlink:href="structDGtal_1_1concepts_1_1CDynamicSegmentComputer.html" target="_top" xlink:title="CDynamicSegmentComputer">
<ellipse fill="white" stroke="white" cx="426" cy="-130.5" rx="121.47" ry="18"/>
<text text-anchor="middle" x="426" y="-125.45" font-family="Times,serif" font-size="14.00">CDynamicSegmentComputer</text>
</a>
</g>
</g>
<!-- CDynamicBidirectionalSegmentComputer&#45;&gt;CDynamicSegmentComputer -->
<g id="edge6" class="edge">
<title>CDynamicBidirectionalSegmentComputer&#45;&gt;CDynamicSegmentComputer</title>
<path fill="none" stroke="black" d="M316.1,-76.45C335.75,-85.93 360.44,-97.85 381.44,-107.99"/>
<polygon fill="black" stroke="black" points="379.83,-111.1 390.36,-112.29 382.88,-104.8 379.83,-111.1"/>
</g>
<!-- CDynamicSegmentComputer&#45;&gt;CForwardSegmentComputer -->
<g id="edge5" class="edge">
<title>CDynamicSegmentComputer&#45;&gt;CForwardSegmentComputer</title>
<path fill="none" stroke="black" d="M392.11,-148.09C372.75,-157.57 348.25,-169.56 327.37,-179.78"/>
<polygon fill="black" stroke="black" points="325.94,-176.58 318.5,-184.12 329.02,-182.87 325.94,-176.58"/>
</g>
</g>
</svg>
