<?xml version="1.0" encoding="UTF-8" standalone="no"?>
<!DOCTYPE svg PUBLIC "-//W3C//DTD SVG 1.1//EN"
 "http://www.w3.org/Graphics/SVG/1.1/DTD/svg11.dtd">
<!-- Generated by graphviz version 11.0.0 (20240428.1522)
 -->
<!-- Title: SegmentComputerHierarchy Pages: 1 -->
<!--zoomable 461 -->

<svg id="main" version="1.1" xmlns="http://www.w3.org/2000/svg" xmlns:xlink="http://www.w3.org/1999/xlink" xml:space="preserve" onload="init(evt)">
<style type="text/css"><![CDATA[
.node, .edge {opacity: 0.7;}
.node.selected, .edge.selected {opacity: 1;}
.edge:hover path { stroke: red; }
.edge:hover polygon { stroke: red; fill: red; }
]]></style>

<defs>
  <circle id="rim" cx="0" cy="0" r="7"/>
  <circle id="rim2" cx="0" cy="0" r="3.5"/>
  <g id="zoomPlus">
    <use xlink:href="#rim" fill="#404040"><set attributeName="fill" to="#808080" begin="zoomplus.mouseover" end="zoomplus.mouseout"/></use>
    <path d="M-4,0h8M0,-4v8" fill="none" stroke="white" stroke-width="1.5" pointer-events="none"/>
  </g>
  <g id="zoomMin">
    <use xlink:href="#rim" fill="#404040"><set attributeName="fill" to="#808080" begin="zoomminus.mouseover" end="zoomminus.mouseout"/></use>
    <path d="M-4,0h8" fill="none" stroke="white" stroke-width="1.5" pointer-events="none"/>
  </g>
  <g id="arrowUp" transform="translate(30 24)">
    <use xlink:href="#rim"/>
    <path pointer-events="none" fill="none" stroke="white" stroke-width="1.5" d="M0,-3.0v7 M-2.5,-0.5L0,-3.0L2.5,-0.5"/>
  </g>
  <g id="arrowRight" transform="rotate(90) translate(36 -43)">
    <use xlink:href="#rim"/>
    <path pointer-events="none" fill="none" stroke="white" stroke-width="1.5" d="M0,-3.0v7 M-2.5,-0.5L0,-3.0L2.5,-0.5"/>
  </g>
  <g id="arrowDown" transform="rotate(180) translate(-30 -48)">
    <use xlink:href="#rim"/>
    <path pointer-events="none" fill="none" stroke="white" stroke-width="1.5" d="M0,-3.0v7 M-2.5,-0.5L0,-3.0L2.5,-0.5"/>
  </g>
  <g id="arrowLeft" transform="rotate(270) translate(-36 17)">
    <use xlink:href="#rim"/>
    <path pointer-events="none" fill="none" stroke="white" stroke-width="1.5" d="M0,-3.0v7 M-2.5,-0.5L0,-3.0L2.5,-0.5"/>
  </g>
  <g id="resetDef">
    <use xlink:href="#rim2" fill="#404040"><set attributeName="fill" to="#808080" begin="reset.mouseover" end="reset.mouseout"/></use>
  </g>
</defs>
<script type="application/ecmascript">
var viewWidth = 571;
var viewHeight = 461;
</script>
<script type="application/ecmascript" xlink:href="svg.min.js"/>
<svg id="graph" class="graph">
<g id="viewport">
<title>SegmentComputerHierarchy</title>
<polygon fill="white" stroke="none" points="-4,4 -4,-456.5 567,-456.5 567,4 -4,4"/>
<g id="clust1" class="cluster">
<title>cluster_concepts_1</title>
<polygon fill="lightgrey" stroke="lightgrey" points="8,-8 8,-444.5 555,-444.5 555,-8 8,-8"/>
<text text-anchor="middle" x="281.5" y="-15.2" font-family="Times,serif" font-size="14.00">geometry/curves (main concepts)</text>
</g>
<!-- CSegment -->
<g id="node1" class="node">
<title>CSegment</title>
<g id="a_node1"><a xlink:href="structDGtal_1_1concepts_1_1CSegment.html" target="_top" xlink:title="CSegment">
<ellipse fill="white" stroke="white" cx="283" cy="-418.5" rx="49.82" ry="18"/>
<text text-anchor="middle" x="283" y="-413.45" font-family="Times,serif" font-size="14.00">CSegment</text>
</a>
</g>
</g>
<!-- CBidirectionalSegmentComputer -->
<g id="node2" class="node">
<title>CBidirectionalSegmentComputer</title>
<g id="a_node2"><a xlink:href="structDGtal_1_1concepts_1_1CBidirectionalSegmentComputer.html" target="_top" xlink:title="CBidirectionalSegmentComputer">
<ellipse fill="white" stroke="white" cx="151" cy="-130.5" rx="135.29" ry="18"/>
<text text-anchor="middle" x="151" y="-125.45" font-family="Times,serif" font-size="14.00">CBidirectionalSegmentComputer</text>
</a>
</g>
</g>
<!-- CForwardSegmentComputer -->
<g id="node4" class="node">
<title>CForwardSegmentComputer</title>
<g id="a_node4"><a xlink:href="structDGtal_1_1concepts_1_1CForwardSegmentComputer.html" target="_top" xlink:title="CForwardSegmentComputer">
<ellipse fill="white" stroke="white" cx="283" cy="-202.5" rx="118.4" ry="18"/>
<text text-anchor="middle" x="283" y="-197.45" font-family="Times,serif" font-size="14.00">CForwardSegmentComputer</text>
</a>
</g>
</g>
<!-- CBidirectionalSegmentComputer&#45;&gt;CForwardSegmentComputer -->
<g id="edge1" class="edge">
<title>CBidirectionalSegmentComputer&#45;&gt;CForwardSegmentComputer</title>
<path fill="none" stroke="black" d="M182.95,-148.45C200.46,-157.73 222.38,-169.35 241.23,-179.35"/>
<polygon fill="black" stroke="black" points="239.53,-182.41 250,-184 242.81,-176.22 239.53,-182.41"/>
</g>
<!-- CIncrementalSegmentComputer -->
<g id="node3" class="node">
<title>CIncrementalSegmentComputer</title>
<g id="a_node3"><a xlink:href="structDGtal_1_1concepts_1_1CIncrementalSegmentComputer.html" target="_top" xlink:title="CIncrementalSegmentComputer">
<ellipse fill="white" stroke="white" cx="283" cy="-274.5" rx="131.71" ry="18"/>
<text text-anchor="middle" x="283" y="-269.45" font-family="Times,serif" font-size="14.00">CIncrementalSegmentComputer</text>
</a>
</g>
</g>
<!-- CSegmentFactory -->
<g id="node5" class="node">
<title>CSegmentFactory</title>
<g id="a_node5"><a xlink:href="structDGtal_1_1concepts_1_1CSegmentFactory.html" target="_top" xlink:title="CSegmentFactory">
<ellipse fill="white" stroke="white" cx="283" cy="-346.5" rx="77.97" ry="18"/>
<text text-anchor="middle" x="283" y="-341.45" font-family="Times,serif" font-size="14.00">CSegmentFactory</text>
</a>
</g>
</g>
<!-- CIncrementalSegmentComputer&#45;&gt;CSegmentFactory -->
<g id="edge3" class="edge">
<title>CIncrementalSegmentComputer&#45;&gt;CSegmentFactory</title>
<path fill="none" stroke="black" d="M283,-292.8C283,-300.09 283,-308.77 283,-316.96"/>
<polygon fill="black" stroke="black" points="279.5,-316.88 283,-326.88 286.5,-316.88 279.5,-316.88"/>
</g>
<!-- CForwardSegmentComputer&#45;&gt;CIncrementalSegmentComputer -->
<g id="edge2" class="edge">
<title>CForwardSegmentComputer&#45;&gt;CIncrementalSegmentComputer</title>
<path fill="none" stroke="black" d="M283,-220.8C283,-228.09 283,-236.77 283,-244.96"/>
<polygon fill="black" stroke="black" points="279.5,-244.88 283,-254.88 286.5,-244.88 279.5,-244.88"/>
</g>
<!-- CSegmentFactory&#45;&gt;CSegment -->
<g id="edge4" class="edge">
<title>CSegmentFactory&#45;&gt;CSegment</title>
<path fill="none" stroke="black" d="M283,-364.8C283,-372.09 283,-380.77 283,-388.96"/>
<polygon fill="black" stroke="black" points="279.5,-388.88 283,-398.88 286.5,-388.88 279.5,-388.88"/>
</g>
<!-- CDynamicBidirectionalSegmentComputer -->
<g id="node6" class="node">
<title>CDynamicBidirectionalSegmentComputer</title>
<g id="a_node6"><a xlink:href="structDGtal_1_1concepts_1_1CDynamicBidirectionalSegmentComputer.html" target="_top" xlink:title="CDynamicBidirectionalSegmentComputer">
<ellipse fill="white" stroke="white" cx="281" cy="-58.5" rx="169.58" ry="18"/>
<text text-anchor="middle" x="281" y="-53.45" font-family="Times,serif" font-size="14.00">CDynamicBidirectionalSegmentComputer</text>
</a>
</g>
</g>
<!-- CDynamicBidirectionalSegmentComputer&#45;&gt;CBidirectionalSegmentComputer -->
<g id="edge7" class="edge">
<title>CDynamicBidirectionalSegmentComputer&#45;&gt;CBidirectionalSegmentComputer</title>
<path fill="none" stroke="black" d="M249.2,-76.62C232.15,-85.8 210.94,-97.22 192.6,-107.1"/>
<polygon fill="black" stroke="black" points="190.95,-104.01 183.81,-111.84 194.27,-110.18 190.95,-104.01"/>
</g>
<!-- CDynamicSegmentComputer -->
<g id="node7" class="node">
<title>CDynamicSegmentComputer</title>
<g id="a_node7"><a xlink:href="structDGtal_1_1concepts_1_1CDynamicSegmentComputer.html" target="_top" xlink:title="CDynamicSegmentComputer">
<ellipse fill="white" stroke="white" cx="426" cy="-130.5" rx="121.47" ry="18"/>
<text text-anchor="middle" x="426" y="-125.45" font-family="Times,serif" font-size="14.00">CDynamicSegmentComputer</text>
</a>
</g>
</g>
<!-- CDynamicBidirectionalSegmentComputer&#45;&gt;CDynamicSegmentComputer -->
<g id="edge6" class="edge">
<title>CDynamicBidirectionalSegmentComputer&#45;&gt;CDynamicSegmentComputer</title>
<path fill="none" stroke="black" d="M316.1,-76.45C335.75,-85.93 360.44,-97.85 381.44,-107.99"/>
<polygon fill="black" stroke="black" points="379.83,-111.1 390.36,-112.29 382.88,-104.8 379.83,-111.1"/>
</g>
<!-- CDynamicSegmentComputer&#45;&gt;CForwardSegmentComputer -->
<g id="edge5" class="edge">
<title>CDynamicSegmentComputer&#45;&gt;CForwardSegmentComputer</title>
<path fill="none" stroke="black" d="M392.11,-148.09C372.75,-157.57 348.25,-169.56 327.37,-179.78"/>
<polygon fill="black" stroke="black" points="325.94,-176.58 318.5,-184.12 329.02,-182.87 325.94,-176.58"/>
</g>
</g>
</svg>

<g id="navigator" transform="translate(0 0)" fill="#404254">
  <rect fill="#f2f5e9" fill-opacity="0.5" stroke="#606060" stroke-width=".5" x="0" y="0" width="60" height="60"/>
  <use id="zoomplus" xlink:href="#zoomPlus" x="17" y="9" onmousedown="handleZoom(evt,'in')"/>
  <use id="zoomminus" xlink:href="#zoomMin" x="42" y="9" onmousedown="handleZoom(evt,'out')"/>
  <use id="reset" xlink:href="#resetDef" x="30" y="36" onmousedown="handleReset()"/>
   <use id="arrowup" xlink:href="#arrowUp" x="0" y="0" onmousedown="handlePan(0,-1)"/>
  <use id="arrowright" xlink:href="#arrowRight" x="0" y="0" onmousedown="handlePan(1,0)"/>
  <use id="arrowdown" xlink:href="#arrowDown" x="0" y="0" onmousedown="handlePan(0,1)"/>
  <use id="arrowleft" xlink:href="#arrowLeft" x="0" y="0" onmousedown="handlePan(-1,0)"/>
</g>
<svg viewBox="0 0 15 15" width="100%" height="30px" preserveAspectRatio="xMaxYMin meet">
 <g id="arrow_out" transform="scale(0.3 0.3)">
  <a xlink:href="dot_inline_dotgraph_6_org.svg" target="_base">
   <rect id="button" ry="5" rx="5" y="6" x="6" height="38" width="38"
        fill="#f2f5e9" fill-opacity="0.5" stroke="#606060" stroke-width="1.0"/>
   <path id="arrow"
     d="M 11.500037,31.436501 C 11.940474,20.09759 22.043105,11.32322 32.158766,21.979434 L 37.068811,17.246167 C 37.068811,17.246167 37.088388,32 37.088388,32 L 22.160133,31.978069 C 22.160133,31.978069 26.997745,27.140456 26.997745,27.140456 C 18.528582,18.264221 13.291696,25.230495 11.500037,31.436501 z"
     style="fill:#404040;"/>
  </a>
 </g>
</svg>

<style type='text/css'>
<![CDATA[
[data-mouse-over-selected='false'] { opacity: 0.7; }
[data-mouse-over-selected='true']  { opacity: 1.0; }
]]>
</style>
<script type="application/ecmascript"><![CDATA[
document.addEventListener('DOMContentLoaded', (event) => {
  highlightEdges();
  highlightAdjacentNodes();
});
]]></script>
</svg>
