<?xml version="1.0" encoding="UTF-8" standalone="no"?>
<!DOCTYPE svg PUBLIC "-//W3C//DTD SVG 1.1//EN"
 "http://www.w3.org/Graphics/SVG/1.1/DTD/svg11.dtd">
<!-- Generated by graphviz version 11.0.0 (20240428.1522)
 -->
<!-- Title: GGraph Pages: 1 -->
<!--zoomable 499 -->

<svg id="main" version="1.1" xmlns="http://www.w3.org/2000/svg" xmlns:xlink="http://www.w3.org/1999/xlink" xml:space="preserve" onload="init(evt)">
<style type="text/css"><![CDATA[
.node, .edge {opacity: 0.7;}
.node.selected, .edge.selected {opacity: 1;}
.edge:hover path { stroke: red; }
.edge:hover polygon { stroke: red; fill: red; }
]]></style>

<defs>
  <circle id="rim" cx="0" cy="0" r="7"/>
  <circle id="rim2" cx="0" cy="0" r="3.5"/>
  <g id="zoomPlus">
    <use xlink:href="#rim" fill="#404040"><set attributeName="fill" to="#808080" begin="zoomplus.mouseover" end="zoomplus.mouseout"/></use>
    <path d="M-4,0h8M0,-4v8" fill="none" stroke="white" stroke-width="1.5" pointer-events="none"/>
  </g>
  <g id="zoomMin">
    <use xlink:href="#rim" fill="#404040"><set attributeName="fill" to="#808080" begin="zoomminus.mouseover" end="zoomminus.mouseout"/></use>
    <path d="M-4,0h8" fill="none" stroke="white" stroke-width="1.5" pointer-events="none"/>
  </g>
  <g id="arrowUp" transform="translate(30 24)">
    <use xlink:href="#rim"/>
    <path pointer-events="none" fill="none" stroke="white" stroke-width="1.5" d="M0,-3.0v7 M-2.5,-0.5L0,-3.0L2.5,-0.5"/>
  </g>
  <g id="arrowRight" transform="rotate(90) translate(36 -43)">
    <use xlink:href="#rim"/>
    <path pointer-events="none" fill="none" stroke="white" stroke-width="1.5" d="M0,-3.0v7 M-2.5,-0.5L0,-3.0L2.5,-0.5"/>
  </g>
  <g id="arrowDown" transform="rotate(180) translate(-30 -48)">
    <use xlink:href="#rim"/>
    <path pointer-events="none" fill="none" stroke="white" stroke-width="1.5" d="M0,-3.0v7 M-2.5,-0.5L0,-3.0L2.5,-0.5"/>
  </g>
  <g id="arrowLeft" transform="rotate(270) translate(-36 17)">
    <use xlink:href="#rim"/>
    <path pointer-events="none" fill="none" stroke="white" stroke-width="1.5" d="M0,-3.0v7 M-2.5,-0.5L0,-3.0L2.5,-0.5"/>
  </g>
  <g id="resetDef">
    <use xlink:href="#rim2" fill="#404040"><set attributeName="fill" to="#808080" begin="reset.mouseover" end="reset.mouseout"/></use>
  </g>
</defs>
<script type="application/ecmascript">
var viewWidth = 1918;
var viewHeight = 499;
</script>
<script type="application/ecmascript" xlink:href="svg.min.js"/>
<svg id="graph" class="graph">
<g id="viewport">
<title>GGraph</title>
<polygon fill="white" stroke="none" points="-4,4 -4,-494.5 1914,-494.5 1914,4 -4,4"/>
<g id="clust1" class="cluster">
<title>cluster_ext</title>
</g>
<g id="clust2" class="cluster">
<title>cluster_base</title>
<polygon fill="#eeeeff" stroke="#eeeeff" points="460,-398 460,-474.5 578,-474.5 578,-398 460,-398"/>
<text text-anchor="middle" x="519" y="-405.2" font-family="Times,serif" font-size="14.00">base</text>
</g>
<g id="clust5" class="cluster">
<title>cluster_boost</title>
<polygon fill="white" stroke="white" points="586,-398 586,-474.5 1762,-474.5 1762,-398 586,-398"/>
<text text-anchor="middle" x="1174" y="-405.2" font-family="Times,serif" font-size="14.00">boost</text>
</g>
<g id="clust7" class="cluster">
<title>cluster_concepts</title>
<polygon fill="lightgrey" stroke="lightgrey" points="619,-133 619,-371 1000,-371 1000,-133 619,-133"/>
<text text-anchor="middle" x="809.5" y="-140.2" font-family="Times,serif" font-size="14.00">Graph (main concepts)</text>
</g>
<g id="clust8" class="cluster">
<title>cluster_down</title>
<polygon fill="none" stroke="black" points="8,-8 8,-100.5 1902,-100.5 1902,-8 8,-8"/>
</g>
<g id="clust9" class="cluster">
<title>cluster_models</title>
<polygon fill="#ccffcc" stroke="#ccffcc" points="596,-16 596,-92.5 1894,-92.5 1894,-16 596,-16"/>
<text text-anchor="middle" x="1245" y="-23.2" font-family="Times,serif" font-size="14.00">Graph (main models and classes)</text>
</g>
<g id="clust10" class="cluster">
<title>cluster_topology</title>
<polygon fill="#ccffcc" stroke="#ccffcc" points="16,-16 16,-92.5 588,-92.5 588,-16 16,-16"/>
<text text-anchor="middle" x="302" y="-23.2" font-family="Times,serif" font-size="14.00">Topology (related concepts and models)</text>
</g>
<!-- CPredicate -->
<g id="node1" class="node">
<title>CPredicate</title>
<g id="a_node1"><a xlink:href="structDGtal_1_1concepts_1_1CPredicate.html" target="_top" xlink:title="CPredicate">
<ellipse fill="white" stroke="white" cx="519" cy="-448.5" rx="51.35" ry="18"/>
<text text-anchor="middle" x="519" y="-443.45" font-family="Times,serif" font-size="14.00">CPredicate</text>
</a>
</g>
</g>
<!-- boost_Assignable -->
<g id="node2" class="node">
<title>boost_Assignable</title>
<g id="a_node2"><a xlink:href="structboost_1_1Assignable.html" target="_top" xlink:title="boost::Assignable">
<ellipse fill="orange" stroke="orange" cx="1096" cy="-448.5" rx="76.94" ry="18"/>
<text text-anchor="middle" x="1096" y="-443.45" font-family="Times,serif" font-size="14.00">boost::Assignable</text>
</a>
</g>
</g>
<!-- boost_CopyConstructible -->
<g id="node3" class="node">
<title>boost_CopyConstructible</title>
<g id="a_node3"><a xlink:href="structboost_1_1CopyConstructible.html" target="_top" xlink:title="boost::CopyConstructible">
<ellipse fill="orange" stroke="orange" cx="700" cy="-448.5" rx="105.6" ry="18"/>
<text text-anchor="middle" x="700" y="-443.45" font-family="Times,serif" font-size="14.00">boost::CopyConstructible</text>
</a>
</g>
</g>
<!-- boost_OutputIterator -->
<g id="node4" class="node">
<title>boost_OutputIterator</title>
<g id="a_node4"><a xlink:href="structboost_1_1OutputIterator.html" target="_top" xlink:title="boost::OutputIterator">
<ellipse fill="orange" stroke="orange" cx="912" cy="-448.5" rx="88.71" ry="18"/>
<text text-anchor="middle" x="912" y="-443.45" font-family="Times,serif" font-size="14.00">boost::OutputIterator</text>
</a>
</g>
</g>
<!-- boost_UniqueAssociativeContainer -->
<g id="node5" class="node">
<title>boost_UniqueAssociativeContainer</title>
<g id="a_node5"><a xlink:href="structboost_1_1UniqueAssociativeContainer.html" target="_top" xlink:title="boost::UniqueAssociativeContainer">
<ellipse fill="orange" stroke="orange" cx="1333" cy="-448.5" rx="142.45" ry="18"/>
<text text-anchor="middle" x="1333" y="-443.45" font-family="Times,serif" font-size="14.00">boost::UniqueAssociativeContainer</text>
</a>
</g>
</g>
<!-- boost_PairAssociativeContainer -->
<g id="node6" class="node">
<title>boost_PairAssociativeContainer</title>
<g id="a_node6"><a xlink:href="structboost_1_1PairAssociativeContainer.html" target="_top" xlink:title="boost::PairAssociativeContainer">
<ellipse fill="orange" stroke="orange" cx="1624" cy="-448.5" rx="130.17" ry="18"/>
<text text-anchor="middle" x="1624" y="-443.45" font-family="Times,serif" font-size="14.00">boost::PairAssociativeContainer</text>
</a>
</g>
</g>
<!-- CUndirectedSimpleLocalGraph -->
<g id="node7" class="node">
<title>CUndirectedSimpleLocalGraph</title>
<g id="a_node7"><a xlink:href="structDGtal_1_1concepts_1_1CUndirectedSimpleLocalGraph.html" target="_top" xlink:title="CUndirectedSimpleLocalGraph">
<ellipse fill="white" stroke="white" cx="863" cy="-256.5" rx="128.63" ry="18"/>
<text text-anchor="middle" x="863" y="-251.45" font-family="Times,serif" font-size="14.00">CUndirectedSimpleLocalGraph</text>
</a>
</g>
</g>
<!-- CUndirectedSimpleLocalGraph&#45;&gt;boost_OutputIterator -->
<g id="edge5" class="edge">
<title>CUndirectedSimpleLocalGraph&#45;&gt;boost_OutputIterator</title>
<path fill="none" stroke="black" stroke-dasharray="5,2" d="M772.08,-269.51C737,-279.08 700.26,-296.24 679,-327 667.88,-343.09 674.86,-351.89 679,-371 680.14,-376.25 679.58,-378.96 684,-382 708.03,-398.53 787.12,-381.44 815,-390 838.95,-397.36 863.2,-411.73 881.46,-424.27"/>
<polygon fill="black" stroke="black" points="879.27,-427 889.46,-429.92 883.31,-421.29 879.27,-427"/>
<text text-anchor="middle" x="688" y="-339.95" font-family="Times,serif" font-size="14.00">use</text>
</g>
<!-- CVertexPredicate -->
<g id="node9" class="node">
<title>CVertexPredicate</title>
<g id="a_node9"><a xlink:href="structDGtal_1_1concepts_1_1CVertexPredicate.html" target="_top" xlink:title="CVertexPredicate">
<ellipse fill="white" stroke="white" cx="781" cy="-345" rx="75.41" ry="18"/>
<text text-anchor="middle" x="781" y="-339.95" font-family="Times,serif" font-size="14.00">CVertexPredicate</text>
</a>
</g>
</g>
<!-- CUndirectedSimpleLocalGraph&#45;&gt;CVertexPredicate -->
<g id="edge6" class="edge">
<title>CUndirectedSimpleLocalGraph&#45;&gt;CVertexPredicate</title>
<path fill="none" stroke="black" stroke-dasharray="5,2" d="M846.8,-274.59C834.89,-287.15 818.52,-304.42 805.09,-318.59"/>
<polygon fill="black" stroke="black" points="802.55,-316.18 798.21,-325.85 807.63,-321 802.55,-316.18"/>
<text text-anchor="middle" x="838" y="-295.7" font-family="Times,serif" font-size="14.00">use</text>
</g>
<!-- CVertexMap -->
<g id="node10" class="node">
<title>CVertexMap</title>
<g id="a_node10"><a xlink:href="structDGtal_1_1concepts_1_1CVertexMap.html" target="_top" xlink:title="CVertexMap">
<ellipse fill="white" stroke="white" cx="933" cy="-345" rx="58.52" ry="18"/>
<text text-anchor="middle" x="933" y="-339.95" font-family="Times,serif" font-size="14.00">CVertexMap</text>
</a>
</g>
</g>
<!-- CUndirectedSimpleLocalGraph&#45;&gt;CVertexMap -->
<g id="edge4" class="edge">
<title>CUndirectedSimpleLocalGraph&#45;&gt;CVertexMap</title>
<path fill="none" stroke="black" stroke-dasharray="5,2" d="M876.83,-274.59C886.96,-287.11 900.89,-304.32 912.34,-318.46"/>
<polygon fill="black" stroke="black" points="909.47,-320.49 918.49,-326.06 914.92,-316.09 909.47,-320.49"/>
<text text-anchor="middle" x="913" y="-295.7" font-family="Times,serif" font-size="14.00">use</text>
</g>
<!-- CUndirectedSimpleGraph -->
<g id="node8" class="node">
<title>CUndirectedSimpleGraph</title>
<g id="a_node8"><a xlink:href="structDGtal_1_1concepts_1_1CUndirectedSimpleGraph.html" target="_top" xlink:title="CUndirectedSimpleGraph">
<ellipse fill="white" stroke="white" cx="735" cy="-183.5" rx="107.65" ry="18"/>
<text text-anchor="middle" x="735" y="-178.45" font-family="Times,serif" font-size="14.00">CUndirectedSimpleGraph</text>
</a>
</g>
</g>
<!-- CUndirectedSimpleGraph&#45;&gt;CUndirectedSimpleLocalGraph -->
<g id="edge3" class="edge">
<title>CUndirectedSimpleGraph&#45;&gt;CUndirectedSimpleLocalGraph</title>
<path fill="none" stroke="black" d="M765.01,-201.15C782.22,-210.69 804.04,-222.8 822.73,-233.16"/>
<polygon fill="black" stroke="black" points="820.97,-236.19 831.41,-237.98 824.36,-230.07 820.97,-236.19"/>
</g>
<!-- CVertexPredicate&#45;&gt;CPredicate -->
<g id="edge1" class="edge">
<title>CVertexPredicate&#45;&gt;CPredicate</title>
<path fill="none" stroke="black" d="M735.5,-359.75C721.61,-363.69 706.25,-367.78 692,-371 643.61,-381.95 626.56,-368.18 582,-390 566.05,-397.81 551.23,-410.92 539.97,-422.65"/>
<polygon fill="black" stroke="black" points="537.64,-420 533.46,-429.73 542.8,-424.74 537.64,-420"/>
</g>
<!-- CVertexMap&#45;&gt;boost_Assignable -->
<g id="edge2" class="edge">
<title>CVertexMap&#45;&gt;boost_Assignable</title>
<path fill="none" stroke="black" d="M960.72,-361.22C975.49,-369.49 993.9,-380.03 1010,-390 1027.71,-400.96 1047.01,-413.79 1062.84,-424.54"/>
<polygon fill="black" stroke="black" points="1060.72,-427.33 1070.95,-430.08 1064.67,-421.55 1060.72,-427.33"/>
</g>
<!-- CGraphVisitor -->
<g id="node11" class="node">
<title>CGraphVisitor</title>
<g id="a_node11"><a xlink:href="structDGtal_1_1concepts_1_1CGraphVisitor.html" target="_top" xlink:title="CGraphVisitor">
<ellipse fill="white" stroke="white" cx="926" cy="-183.5" rx="65.68" ry="18"/>
<text text-anchor="middle" x="926" y="-178.45" font-family="Times,serif" font-size="14.00">CGraphVisitor</text>
</a>
</g>
</g>
<!-- CGraphVisitor&#45;&gt;boost_CopyConstructible -->
<g id="edge7" class="edge">
<title>CGraphVisitor&#45;&gt;boost_CopyConstructible</title>
<path fill="none" stroke="black" d="M876.88,-195.71C821.44,-208.68 737.32,-229.41 725,-238.5 673.56,-276.47 656.77,-308.25 669,-371 672.3,-387.92 679.35,-405.84 685.89,-420.08"/>
<polygon fill="black" stroke="black" points="682.59,-421.3 690.07,-428.8 688.9,-418.27 682.59,-421.3"/>
</g>
<!-- CVertexPredicateArchetype -->
<g id="node12" class="node">
<title>CVertexPredicateArchetype</title>
<g id="a_node12"><a xlink:href="structDGtal_1_1concepts_1_1CVertexPredicateArchetype.html" target="_top" xlink:title="CVertexPredicateArchetype">
<ellipse fill="white" stroke="white" cx="1502" cy="-66.5" rx="113.79" ry="18"/>
<text text-anchor="middle" x="1502" y="-61.45" font-family="Times,serif" font-size="14.00">CVertexPredicateArchetype</text>
</a>
</g>
</g>
<!-- CVertexPredicateArchetype&#45;&gt;CVertexPredicate -->
<g id="edge8" class="edge">
<title>CVertexPredicateArchetype&#45;&gt;CVertexPredicate</title>
<path fill="none" stroke="black" d="M1473.92,-84.36C1428.02,-111.46 1333.54,-165.34 1249,-201.5 1109.89,-261 1071.44,-267.32 926,-309 899.98,-316.46 871.03,-323.66 845.89,-329.57"/>
<polygon fill="black" stroke="black" points="845.41,-326.09 836.47,-331.77 847,-332.91 845.41,-326.09"/>
</g>
<!-- STLMapToVertexMapAdapter -->
<g id="node13" class="node">
<title>STLMapToVertexMapAdapter</title>
<g id="a_node13"><a xlink:href="classDGtal_1_1STLMapToVertexMapAdapter.html" target="_top" xlink:title="STLMapToVertexMapAdapter">
<ellipse fill="white" stroke="white" cx="1760" cy="-66.5" rx="126.08" ry="18"/>
<text text-anchor="middle" x="1760" y="-61.45" font-family="Times,serif" font-size="14.00">STLMapToVertexMapAdapter</text>
</a>
</g>
</g>
<!-- STLMapToVertexMapAdapter&#45;&gt;boost_UniqueAssociativeContainer -->
<g id="edge10" class="edge">
<title>STLMapToVertexMapAdapter&#45;&gt;boost_UniqueAssociativeContainer</title>
<path fill="none" stroke="black" stroke-dasharray="5,2" d="M1687.7,-81.67C1635.08,-96.67 1573,-126.28 1573,-182.5 1573,-182.5 1573,-182.5 1573,-346 1573,-355.98 1458.99,-400.42 1388.13,-427.08"/>
<polygon fill="black" stroke="black" points="1387.13,-423.71 1379,-430.5 1389.59,-430.27 1387.13,-423.71"/>
<text text-anchor="middle" x="1582" y="-251.45" font-family="Times,serif" font-size="14.00">use</text>
</g>
<!-- STLMapToVertexMapAdapter&#45;&gt;boost_PairAssociativeContainer -->
<g id="edge11" class="edge">
<title>STLMapToVertexMapAdapter&#45;&gt;boost_PairAssociativeContainer</title>
<path fill="none" stroke="black" stroke-dasharray="5,2" d="M1731.65,-84.36C1702.71,-103.96 1662,-139.22 1662,-182.5 1662,-182.5 1662,-182.5 1662,-346 1662,-372.48 1650.52,-400.51 1640.18,-420.39"/>
<polygon fill="black" stroke="black" points="1637.23,-418.48 1635.51,-428.94 1643.38,-421.84 1637.23,-418.48"/>
<text text-anchor="middle" x="1671" y="-251.45" font-family="Times,serif" font-size="14.00">use</text>
</g>
<!-- STLMapToVertexMapAdapter&#45;&gt;CVertexMap -->
<g id="edge9" class="edge">
<title>STLMapToVertexMapAdapter&#45;&gt;CVertexMap</title>
<path fill="none" stroke="black" d="M1703.17,-82.98C1679.19,-89.1 1650.87,-95.79 1625,-100.5 1595.93,-105.8 1587.6,-101.08 1559,-108.5 1453.07,-136 1433.21,-162.38 1331,-201.5 1205.89,-249.39 1056.86,-301.43 981.62,-327.36"/>
<polygon fill="black" stroke="black" points="980.81,-323.93 972.5,-330.5 983.09,-330.55 980.81,-323.93"/>
</g>
<!-- BreadthFirstVisitor -->
<g id="node14" class="node">
<title>BreadthFirstVisitor</title>
<g id="a_node14"><a xlink:href="classDGtal_1_1BreadthFirstVisitor.html" target="_top" xlink:title="BreadthFirstVisitor">
<ellipse fill="white" stroke="white" cx="1118" cy="-66.5" rx="82.57" ry="18"/>
<text text-anchor="middle" x="1118" y="-61.45" font-family="Times,serif" font-size="14.00">BreadthFirstVisitor</text>
</a>
</g>
</g>
<!-- BreadthFirstVisitor&#45;&gt;CUndirectedSimpleLocalGraph -->
<g id="edge16" class="edge">
<title>BreadthFirstVisitor&#45;&gt;CUndirectedSimpleLocalGraph</title>
<path fill="none" stroke="black" stroke-dasharray="5,2" d="M1117.67,-84.95C1115.92,-119.58 1106.27,-195.75 1056,-220.5 1033.44,-231.6 1007.85,-239.21 982.84,-244.42"/>
<polygon fill="black" stroke="black" points="982.42,-240.94 973.27,-246.29 983.76,-247.81 982.42,-240.94"/>
<text text-anchor="middle" x="1120" y="-178.45" font-family="Times,serif" font-size="14.00">use</text>
</g>
<!-- BreadthFirstVisitor&#45;&gt;CGraphVisitor -->
<g id="edge17" class="edge">
<title>BreadthFirstVisitor&#45;&gt;CGraphVisitor</title>
<path fill="none" stroke="black" d="M1089.81,-83.73C1067.09,-96.87 1034.37,-115.93 1006,-133 991.25,-141.88 975.08,-151.84 961.16,-160.48"/>
<polygon fill="black" stroke="black" points="959.4,-157.45 952.77,-165.71 963.1,-163.4 959.4,-157.45"/>
</g>
<!-- DepthFirstVisitor -->
<g id="node15" class="node">
<title>DepthFirstVisitor</title>
<g id="a_node15"><a xlink:href="classDGtal_1_1DepthFirstVisitor.html" target="_top" xlink:title="DepthFirstVisitor">
<ellipse fill="white" stroke="white" cx="1294" cy="-66.5" rx="75.92" ry="18"/>
<text text-anchor="middle" x="1294" y="-61.45" font-family="Times,serif" font-size="14.00">DepthFirstVisitor</text>
</a>
</g>
</g>
<!-- DepthFirstVisitor&#45;&gt;CUndirectedSimpleLocalGraph -->
<g id="edge18" class="edge">
<title>DepthFirstVisitor&#45;&gt;CUndirectedSimpleLocalGraph</title>
<path fill="none" stroke="black" stroke-dasharray="5,2" d="M1278.27,-84.44C1251.19,-112.63 1192.89,-169.28 1133,-201.5 1088.86,-225.24 1035.59,-238.6 988.07,-246.09"/>
<polygon fill="black" stroke="black" points="987.63,-242.61 978.25,-247.55 988.66,-249.54 987.63,-242.61"/>
<text text-anchor="middle" x="1236" y="-178.45" font-family="Times,serif" font-size="14.00">use</text>
</g>
<!-- DepthFirstVisitor&#45;&gt;CGraphVisitor -->
<g id="edge19" class="edge">
<title>DepthFirstVisitor&#45;&gt;CGraphVisitor</title>
<path fill="none" stroke="black" d="M1259.83,-82.87C1244.8,-89.11 1226.78,-95.93 1210,-100.5 1198.93,-103.52 1016.76,-129 1006,-133 988.59,-139.48 970.85,-149.97 956.52,-159.63"/>
<polygon fill="black" stroke="black" points="954.64,-156.68 948.43,-165.26 958.64,-162.42 954.64,-156.68"/>
</g>
<!-- DistanceBreadthFirstVisitor -->
<g id="node16" class="node">
<title>DistanceBreadthFirstVisitor</title>
<g id="a_node16"><a xlink:href="classDGtal_1_1DistanceBreadthFirstVisitor.html" target="_top" xlink:title="DistanceBreadthFirstVisitor">
<ellipse fill="white" stroke="white" cx="903" cy="-66.5" rx="114.82" ry="18"/>
<text text-anchor="middle" x="903" y="-61.45" font-family="Times,serif" font-size="14.00">DistanceBreadthFirstVisitor</text>
</a>
</g>
</g>
<!-- DistanceBreadthFirstVisitor&#45;&gt;CUndirectedSimpleLocalGraph -->
<g id="edge20" class="edge">
<title>DistanceBreadthFirstVisitor&#45;&gt;CUndirectedSimpleLocalGraph</title>
<path fill="none" stroke="black" stroke-dasharray="5,2" d="M959.29,-82.5C985.61,-92.46 1014.85,-108.36 1032,-133 1054.36,-165.13 1066.88,-190.28 1042,-220.5 1033.03,-231.4 1008.59,-238.95 980.55,-244.17"/>
<polygon fill="black" stroke="black" points="979.97,-240.71 970.71,-245.86 981.16,-247.61 979.97,-240.71"/>
<text text-anchor="middle" x="1064" y="-178.45" font-family="Times,serif" font-size="14.00">use</text>
</g>
<!-- DistanceBreadthFirstVisitor&#45;&gt;CGraphVisitor -->
<g id="edge21" class="edge">
<title>DistanceBreadthFirstVisitor&#45;&gt;CGraphVisitor</title>
<path fill="none" stroke="black" d="M926.82,-84.56C934.06,-91.13 941.12,-99.3 945,-108.5 951.28,-123.4 947.27,-140.9 941.34,-155.13"/>
<polygon fill="black" stroke="black" points="938.3,-153.37 937.22,-163.91 944.64,-156.35 938.3,-153.37"/>
</g>
<!-- GraphVisitorRange -->
<g id="node17" class="node">
<title>GraphVisitorRange</title>
<g id="a_node17"><a xlink:href="classDGtal_1_1GraphVisitorRange.html" target="_top" xlink:title="GraphVisitorRange">
<ellipse fill="white" stroke="white" cx="687" cy="-66.5" rx="83.08" ry="18"/>
<text text-anchor="middle" x="687" y="-61.45" font-family="Times,serif" font-size="14.00">GraphVisitorRange</text>
</a>
</g>
</g>
<!-- GraphVisitorRange&#45;&gt;CGraphVisitor -->
<g id="edge22" class="edge">
<title>GraphVisitorRange&#45;&gt;CGraphVisitor</title>
<path fill="none" stroke="black" stroke-dasharray="5,2" d="M727.7,-82.53C768.95,-97.96 829.76,-121.32 852,-133 866.61,-140.68 881.91,-150.56 894.78,-159.48"/>
<polygon fill="black" stroke="black" points="892.67,-162.27 902.86,-165.18 896.7,-156.55 892.67,-162.27"/>
<text text-anchor="middle" x="841" y="-111.7" font-family="Times,serif" font-size="14.00">use</text>
</g>
<!-- CAdjacency -->
<g id="node18" class="node">
<title>CAdjacency</title>
<g id="a_node18"><a xlink:href="structDGtal_1_1concepts_1_1CAdjacency.html" target="_top" xlink:title="CAdjacency">
<ellipse fill="white" stroke="white" cx="524" cy="-66.5" rx="56.47" ry="18"/>
<text text-anchor="middle" x="524" y="-61.45" font-family="Times,serif" font-size="14.00">CAdjacency</text>
</a>
</g>
</g>
<!-- CAdjacency&#45;&gt;CUndirectedSimpleLocalGraph -->
<g id="edge12" class="edge">
<title>CAdjacency&#45;&gt;CUndirectedSimpleLocalGraph</title>
<path fill="none" stroke="black" d="M549.91,-82.9C562.24,-89.48 577.44,-96.54 592,-100.5 593.37,-100.87 1000.03,-131.95 1001,-133 1021.66,-155.36 1018.16,-176.35 1001,-201.5 989.5,-218.35 971.88,-229.95 953.03,-237.92"/>
<polygon fill="black" stroke="black" points="951.95,-234.59 943.88,-241.45 954.47,-241.12 951.95,-234.59"/>
</g>
<!-- DigitalSurface -->
<g id="node19" class="node">
<title>DigitalSurface</title>
<g id="a_node19"><a xlink:href="classDGtal_1_1DigitalSurface.html" target="_top" xlink:title="DigitalSurface">
<ellipse fill="white" stroke="white" cx="89" cy="-66.5" rx="64.66" ry="18"/>
<text text-anchor="middle" x="89" y="-61.45" font-family="Times,serif" font-size="14.00">DigitalSurface</text>
</a>
</g>
</g>
<!-- DigitalSurface&#45;&gt;CUndirectedSimpleGraph -->
<g id="edge13" class="edge">
<title>DigitalSurface&#45;&gt;CUndirectedSimpleGraph</title>
<path fill="none" stroke="black" d="M118.53,-82.93C131.81,-89.27 147.86,-96.13 163,-100.5 319.13,-145.55 506.69,-166.42 623.39,-175.67"/>
<polygon fill="black" stroke="black" points="623.06,-179.16 633.3,-176.44 623.6,-172.18 623.06,-179.16"/>
</g>
<!-- IndexedDigitalSurface -->
<g id="node20" class="node">
<title>IndexedDigitalSurface</title>
<g id="a_node20"><a xlink:href="classDGtal_1_1IndexedDigitalSurface.html" target="_top" xlink:title="IndexedDigitalSurface">
<ellipse fill="white" stroke="white" cx="266" cy="-66.5" rx="94.34" ry="18"/>
<text text-anchor="middle" x="266" y="-61.45" font-family="Times,serif" font-size="14.00">IndexedDigitalSurface</text>
</a>
</g>
</g>
<!-- IndexedDigitalSurface&#45;&gt;CUndirectedSimpleGraph -->
<g id="edge14" class="edge">
<title>IndexedDigitalSurface&#45;&gt;CUndirectedSimpleGraph</title>
<path fill="none" stroke="black" d="M311.07,-82.67C329.27,-88.57 350.54,-95.17 370,-100.5 467.57,-127.21 581.52,-151.77 655.81,-166.91"/>
<polygon fill="black" stroke="black" points="654.95,-170.31 665.45,-168.87 656.34,-163.45 654.95,-170.31"/>
</g>
<!-- Object -->
<g id="node21" class="node">
<title>Object</title>
<g id="a_node21"><a xlink:href="classDGtal_1_1Object.html" target="_top" xlink:title="Object">
<ellipse fill="white" stroke="white" cx="414" cy="-66.5" rx="35.49" ry="18"/>
<text text-anchor="middle" x="414" y="-61.45" font-family="Times,serif" font-size="14.00">Object</text>
</a>
</g>
</g>
<!-- Object&#45;&gt;CUndirectedSimpleGraph -->
<g id="edge15" class="edge">
<title>Object&#45;&gt;CUndirectedSimpleGraph</title>
<path fill="none" stroke="black" d="M431.47,-82.5C439.45,-88.76 449.28,-95.68 459,-100.5 522.07,-131.81 599.29,-153.49 656,-166.66"/>
<polygon fill="black" stroke="black" points="655.05,-170.03 665.58,-168.84 656.61,-163.21 655.05,-170.03"/>
</g>
</g>
</svg>

<g id="navigator" transform="translate(0 0)" fill="#404254">
  <rect fill="#f2f5e9" fill-opacity="0.5" stroke="#606060" stroke-width=".5" x="0" y="0" width="60" height="60"/>
  <use id="zoomplus" xlink:href="#zoomPlus" x="17" y="9" onmousedown="handleZoom(evt,'in')"/>
  <use id="zoomminus" xlink:href="#zoomMin" x="42" y="9" onmousedown="handleZoom(evt,'out')"/>
  <use id="reset" xlink:href="#resetDef" x="30" y="36" onmousedown="handleReset()"/>
   <use id="arrowup" xlink:href="#arrowUp" x="0" y="0" onmousedown="handlePan(0,-1)"/>
  <use id="arrowright" xlink:href="#arrowRight" x="0" y="0" onmousedown="handlePan(1,0)"/>
  <use id="arrowdown" xlink:href="#arrowDown" x="0" y="0" onmousedown="handlePan(0,1)"/>
  <use id="arrowleft" xlink:href="#arrowLeft" x="0" y="0" onmousedown="handlePan(-1,0)"/>
</g>
<svg viewBox="0 0 15 15" width="100%" height="30px" preserveAspectRatio="xMaxYMin meet">
 <g id="arrow_out" transform="scale(0.3 0.3)">
  <a xlink:href="dot_inline_dotgraph_9_org.svg" target="_base">
   <rect id="button" ry="5" rx="5" y="6" x="6" height="38" width="38"
        fill="#f2f5e9" fill-opacity="0.5" stroke="#606060" stroke-width="1.0"/>
   <path id="arrow"
     d="M 11.500037,31.436501 C 11.940474,20.09759 22.043105,11.32322 32.158766,21.979434 L 37.068811,17.246167 C 37.068811,17.246167 37.088388,32 37.088388,32 L 22.160133,31.978069 C 22.160133,31.978069 26.997745,27.140456 26.997745,27.140456 C 18.528582,18.264221 13.291696,25.230495 11.500037,31.436501 z"
     style="fill:#404040;"/>
  </a>
 </g>
</svg>

<style type='text/css'>
<![CDATA[
[data-mouse-over-selected='false'] { opacity: 0.7; }
[data-mouse-over-selected='true']  { opacity: 1.0; }
]]>
</style>
<script type="application/ecmascript"><![CDATA[
document.addEventListener('DOMContentLoaded', (event) => {
  highlightEdges();
  highlightAdjacentNodes();
});
]]></script>
</svg>
