<?xml version="1.0" encoding="UTF-8" standalone="no"?>
<!DOCTYPE svg PUBLIC "-//W3C//DTD SVG 1.1//EN"
 "http://www.w3.org/Graphics/SVG/1.1/DTD/svg11.dtd">
<!-- Generated by graphviz version 7.0.1 (20221109.1506)
 -->
<!-- Title: GKERNEL Pages: 1 -->
<!--zoomable 797 -->
<svg id="main" version="1.1" xmlns="http://www.w3.org/2000/svg" xmlns:xlink="http://www.w3.org/1999/xlink" xml:space="preserve" onload="init(evt)">
<style type="text/css"><![CDATA[
.edge:hover path { stroke: red; }
.edge:hover polygon { stroke: red; fill: red; }
]]></style>
<script type="text/javascript"><![CDATA[
var edges = document.getElementsByTagName('g');
if (edges && edges.length) {
  for (var i=0;i<edges.length;i++) {
    if (edges[i].id.substr(0,4)=='edge') {
      edges[i].setAttribute('class','edge');
    }
  }
}
]]></script>
        <defs>
                <circle id="rim" cx="0" cy="0" r="7"/>
                <circle id="rim2" cx="0" cy="0" r="3.5"/>
                <g id="zoomPlus">
                        <use xlink:href="#rim" fill="#404040">
                                <set attributeName="fill" to="#808080" begin="zoomplus.mouseover" end="zoomplus.mouseout"/>
                        </use>
                        <path d="M-4,0h8M0,-4v8" fill="none" stroke="white" stroke-width="1.5" pointer-events="none"/>
                </g>
                <g id="zoomMin">
                        <use xlink:href="#rim" fill="#404040">
                                <set attributeName="fill" to="#808080" begin="zoomminus.mouseover" end="zoomminus.mouseout"/>
                        </use>
                        <path d="M-4,0h8" fill="none" stroke="white" stroke-width="1.5" pointer-events="none"/>
                </g>
                <g id="dirArrow">
                        <path fill="none" stroke="white" stroke-width="1.5" d="M0,-3.0v7 M-2.5,-0.5L0,-3.0L2.5,-0.5"/>
                </g>
               <g id="resetDef">
                       <use xlink:href="#rim2" fill="#404040">
                               <set attributeName="fill" to="#808080" begin="reset.mouseover" end="reset.mouseout"/>
                       </use>
               </g>
        </defs>

<script type="text/javascript">
var viewWidth = 1872;
var viewHeight = 797;
</script>
<script xlink:href="svgpan.js"/>
<svg id="graph" class="graph">
<g id="viewport">
<title>GKERNEL</title>
<polygon fill="white" stroke="none" points="-4,4 -4,-793 1868,-793 1868,4 -4,4"/>
<g id="clust1" class="cluster">
<title>cluster_ext</title>
</g>
<g id="clust2" class="cluster">
<title>cluster_base</title>
<polygon fill="#eeeeff" stroke="#eeeeff" points="856,-698 856,-773 1446,-773 1446,-698 856,-698"/>
<text text-anchor="middle" x="1151" y="-705.8" font-family="Times,serif" font-size="14.00">base</text>
</g>
<g id="clust3" class="cluster">
<title>cluster_boost</title>
<polygon fill="white" stroke="white" points="16,-698 16,-773 848,-773 848,-698 16,-698"/>
<text text-anchor="middle" x="432" y="-705.8" font-family="Times,serif" font-size="14.00">boost</text>
</g>
<g id="clust4" class="cluster">
<title>cluster_main</title>
<polygon fill="#ddddee" stroke="#ddddee" points="686,-116 686,-671 1355,-671 1355,-116 686,-116"/>
<text text-anchor="middle" x="1020.5" y="-123.8" font-family="Times,serif" font-size="14.00">kernel (main concepts)</text>
</g>
<g id="clust5" class="cluster">
<title>cluster_models</title>
<polygon fill="#ccffcc" stroke="#ccffcc" points="432,-8 432,-83 1856,-83 1856,-8 432,-8"/>
<text text-anchor="middle" x="1144" y="-15.8" font-family="Times,serif" font-size="14.00">Kernel (main models)</text>
</g>
<!-- CQuantity -->
<g id="node1" class="node">
<title>CQuantity</title>
<g id="a_node1"><a xlink:href="structDGtal_1_1concepts_1_1CQuantity.html" target="_top" xlink:title="CQuantity">
<ellipse fill="white" stroke="white" cx="1274" cy="-747" rx="47.39" ry="18"/>
<text text-anchor="middle" x="1274" y="-743.3" font-family="Times,serif" font-size="14.00">CQuantity</text>
</a>
</g>
</g>
<!-- CUnaryFunctor -->
<g id="node2" class="node">
<title>CUnaryFunctor</title>
<g id="a_node2"><a xlink:href="structDGtal_1_1concepts_1_1CUnaryFunctor.html" target="_top" xlink:title="CUnaryFunctor">
<ellipse fill="white" stroke="white" cx="930" cy="-747" rx="65.79" ry="18"/>
<text text-anchor="middle" x="930" y="-743.3" font-family="Times,serif" font-size="14.00">CUnaryFunctor</text>
</a>
</g>
</g>
<!-- CPredicate -->
<g id="node3" class="node">
<title>CPredicate</title>
<g id="a_node3"><a xlink:href="structDGtal_1_1concepts_1_1CPredicate.html" target="_top" xlink:title="CPredicate">
<ellipse fill="white" stroke="white" cx="1389" cy="-747" rx="49.29" ry="18"/>
<text text-anchor="middle" x="1389" y="-743.3" font-family="Times,serif" font-size="14.00">CPredicate</text>
</a>
</g>
</g>
<!-- CConstSinglePassRange -->
<g id="node4" class="node">
<title>CConstSinglePassRange</title>
<g id="a_node4"><a xlink:href="structDGtal_1_1concepts_1_1CConstSinglePassRange.html" target="_top" xlink:title="CConstSinglePassRange">
<ellipse fill="white" stroke="white" cx="1111" cy="-747" rx="97.48" ry="18"/>
<text text-anchor="middle" x="1111" y="-743.3" font-family="Times,serif" font-size="14.00">CConstSinglePassRange</text>
</a>
</g>
</g>
<!-- boost_CopyConstructible -->
<g id="node5" class="node">
<title>boost_CopyConstructible</title>
<g id="a_node5"><a xlink:href="structboost_1_1CopyConstructible.html" target="_top" xlink:title="boost::CopyConstructible">
<ellipse fill="orange" stroke="orange" cx="575" cy="-747" rx="100.98" ry="18"/>
<text text-anchor="middle" x="575" y="-743.3" font-family="Times,serif" font-size="14.00">boost::CopyConstructible</text>
</a>
</g>
</g>
<!-- boost_Assignable -->
<g id="node6" class="node">
<title>boost_Assignable</title>
<g id="a_node6"><a xlink:href="structboost_1_1Assignable.html" target="_top" xlink:title="boost::Assignable">
<ellipse fill="orange" stroke="orange" cx="767" cy="-747" rx="73.39" ry="18"/>
<text text-anchor="middle" x="767" y="-743.3" font-family="Times,serif" font-size="14.00">boost::Assignable</text>
</a>
</g>
</g>
<!-- boost_DefaultConstructible -->
<g id="node7" class="node">
<title>boost_DefaultConstructible</title>
<g id="a_node7"><a xlink:href="structboost_1_1DefaultConstructible.html" target="_top" xlink:title="boost::DefaultConstructible">
<ellipse fill="orange" stroke="orange" cx="348" cy="-747" rx="108.58" ry="18"/>
<text text-anchor="middle" x="348" y="-743.3" font-family="Times,serif" font-size="14.00">boost::DefaultConstructible</text>
</a>
</g>
</g>
<!-- boost_ForwardContainer -->
<g id="node8" class="node">
<title>boost_ForwardContainer</title>
<g id="a_node8"><a xlink:href="structboost_1_1ForwardContainer.html" target="_top" xlink:title="boost::ForwardContainer">
<ellipse fill="orange" stroke="orange" cx="123" cy="-747" rx="98.58" ry="18"/>
<text text-anchor="middle" x="123" y="-743.3" font-family="Times,serif" font-size="14.00">boost::ForwardContainer</text>
</a>
</g>
</g>
<!-- CPointPredicate -->
<g id="node9" class="node">
<title>CPointPredicate</title>
<g id="a_node9"><a xlink:href="structDGtal_1_1concepts_1_1CPointPredicate.html" target="_top" xlink:title="CPointPredicate">
<ellipse fill="white" stroke="white" cx="1279" cy="-252" rx="67.69" ry="18"/>
<text text-anchor="middle" x="1279" y="-248.3" font-family="Times,serif" font-size="14.00">CPointPredicate</text>
</a>
</g>
</g>
<!-- CPointPredicate&#45;&gt;CPredicate -->
<g id="edge2" class="edge">
<title>CPointPredicate&#45;&gt;CPredicate</title>
<path fill="none" stroke="black" d="M1344.32,-257.19C1437.65,-265 1598,-285.99 1598,-338 1598,-338 1598,-338 1598,-646 1598,-712.55 1510.7,-734.85 1448.94,-742.3"/>
<polygon fill="black" stroke="black" points="1448.8,-738.79 1439.24,-743.36 1449.56,-745.75 1448.8,-738.79"/>
</g>
<!-- CPointFunctor -->
<g id="node10" class="node">
<title>CPointFunctor</title>
<g id="a_node10"><a xlink:href="structDGtal_1_1concepts_1_1CPointFunctor.html" target="_top" xlink:title="CPointFunctor">
<ellipse fill="white" stroke="white" cx="990" cy="-165" rx="62.29" ry="18"/>
<text text-anchor="middle" x="990" y="-161.3" font-family="Times,serif" font-size="14.00">CPointFunctor</text>
</a>
</g>
</g>
<!-- CPointFunctor&#45;&gt;CUnaryFunctor -->
<g id="edge1" class="edge">
<title>CPointFunctor&#45;&gt;CUnaryFunctor</title>
<path fill="none" stroke="black" d="M945.07,-177.89C922.33,-184.62 897.72,-193.22 889,-201 870.61,-217.41 865,-226.35 865,-251 865,-251 865,-251 865,-646 865,-675.27 884.82,-702.7 902.57,-721.41"/>
<polygon fill="black" stroke="black" points="899.89,-723.68 909.43,-728.29 904.85,-718.74 899.89,-723.68"/>
</g>
<!-- CSpace -->
<g id="node11" class="node">
<title>CSpace</title>
<ellipse fill="white" stroke="white" cx="1225" cy="-339" rx="37.89" ry="18"/>
<text text-anchor="middle" x="1225" y="-335.3" font-family="Times,serif" font-size="14.00">CSpace</text>
</g>
<!-- CInteger -->
<g id="node12" class="node">
<title>CInteger</title>
<g id="a_node12"><a xlink:href="structDGtal_1_1concepts_1_1CInteger.html" target="_top" xlink:title="CInteger">
<ellipse fill="white" stroke="white" cx="1225" cy="-426" rx="41.69" ry="18"/>
<text text-anchor="middle" x="1225" y="-422.3" font-family="Times,serif" font-size="14.00">CInteger</text>
</a>
</g>
</g>
<!-- CSpace&#45;&gt;CInteger -->
<g id="edge16" class="edge">
<title>CSpace&#45;&gt;CInteger</title>
<path fill="none" stroke="black" stroke-dasharray="5,2" d="M1225,-357.2C1225,-368.42 1225,-383.33 1225,-396.31"/>
<polygon fill="black" stroke="black" points="1221.5,-396.02 1225,-406.02 1228.5,-396.02 1221.5,-396.02"/>
<text text-anchor="middle" x="1234.5" y="-378.8" font-family="Times,serif" font-size="14.00">use</text>
</g>
<!-- CUnsignedNumber -->
<g id="node13" class="node">
<title>CUnsignedNumber</title>
<g id="a_node13"><a xlink:href="structDGtal_1_1concepts_1_1CUnsignedNumber.html" target="_top" xlink:title="CUnsignedNumber">
<ellipse fill="white" stroke="white" cx="1086" cy="-426" rx="79.09" ry="18"/>
<text text-anchor="middle" x="1086" y="-422.3" font-family="Times,serif" font-size="14.00">CUnsignedNumber</text>
</a>
</g>
</g>
<!-- CSpace&#45;&gt;CUnsignedNumber -->
<g id="edge18" class="edge">
<title>CSpace&#45;&gt;CUnsignedNumber</title>
<path fill="none" stroke="black" stroke-dasharray="5,2" d="M1202.36,-353.85C1180.63,-367.14 1147.45,-387.42 1122.08,-402.94"/>
<polygon fill="black" stroke="black" points="1120.43,-399.84 1113.72,-408.05 1124.08,-405.82 1120.43,-399.84"/>
<text text-anchor="middle" x="1172.5" y="-378.8" font-family="Times,serif" font-size="14.00">use</text>
</g>
<!-- CIntegralNumber -->
<g id="node15" class="node">
<title>CIntegralNumber</title>
<g id="a_node15"><a xlink:href="structDGtal_1_1concepts_1_1CIntegralNumber.html" target="_top" xlink:title="CIntegralNumber">
<ellipse fill="white" stroke="white" cx="1274" cy="-499" rx="73.39" ry="18"/>
<text text-anchor="middle" x="1274" y="-495.3" font-family="Times,serif" font-size="14.00">CIntegralNumber</text>
</a>
</g>
</g>
<!-- CSpace&#45;&gt;CIntegralNumber -->
<g id="edge17" class="edge">
<title>CSpace&#45;&gt;CIntegralNumber</title>
<path fill="none" stroke="black" stroke-dasharray="5,2" d="M1241.38,-355.55C1253.56,-368.32 1269.19,-387.56 1276,-408 1282.58,-427.73 1281.78,-451.27 1279.49,-469.32"/>
<polygon fill="black" stroke="black" points="1276.05,-468.66 1278.02,-479.07 1282.97,-469.7 1276.05,-468.66"/>
<text text-anchor="middle" x="1290.5" y="-422.3" font-family="Times,serif" font-size="14.00">use</text>
</g>
<!-- CInteger&#45;&gt;CIntegralNumber -->
<g id="edge7" class="edge">
<title>CInteger&#45;&gt;CIntegralNumber</title>
<path fill="none" stroke="black" d="M1236.36,-443.47C1242.16,-451.86 1249.34,-462.26 1255.87,-471.73"/>
<polygon fill="black" stroke="black" points="1252.94,-473.64 1261.5,-479.88 1258.7,-469.66 1252.94,-473.64"/>
</g>
<!-- CEuclideanRing -->
<g id="node17" class="node">
<title>CEuclideanRing</title>
<g id="a_node17"><a xlink:href="structDGtal_1_1concepts_1_1CEuclideanRing.html" target="_top" xlink:title="CEuclideanRing">
<ellipse fill="white" stroke="white" cx="1114" cy="-499" rx="68.79" ry="18"/>
<text text-anchor="middle" x="1114" y="-495.3" font-family="Times,serif" font-size="14.00">CEuclideanRing</text>
</a>
</g>
</g>
<!-- CInteger&#45;&gt;CEuclideanRing -->
<g id="edge8" class="edge">
<title>CInteger&#45;&gt;CEuclideanRing</title>
<path fill="none" stroke="black" d="M1202.27,-441.54C1186.75,-451.47 1165.9,-464.8 1148.37,-476.02"/>
<polygon fill="black" stroke="black" points="1146.83,-472.84 1140.29,-481.18 1150.6,-478.74 1146.83,-472.84"/>
</g>
<!-- CUnsignedNumber&#45;&gt;CQuantity -->
<g id="edge4" class="edge">
<title>CUnsignedNumber&#45;&gt;CQuantity</title>
<path fill="none" stroke="black" d="M1055.94,-442.96C1037.34,-455.23 1017,-474.11 1017,-498 1017,-498 1017,-498 1017,-646 1017,-680.29 1056.68,-662.87 1090,-671 1145.45,-684.52 1165.92,-664.53 1217,-690 1231.4,-697.18 1244.45,-709.35 1254.42,-720.51"/>
<polygon fill="black" stroke="black" points="1251.61,-722.61 1260.75,-727.98 1256.96,-718.09 1251.61,-722.61"/>
</g>
<!-- CSignedNumber -->
<g id="node14" class="node">
<title>CSignedNumber</title>
<g id="a_node14"><a xlink:href="structDGtal_1_1concepts_1_1CSignedNumber.html" target="_top" xlink:title="CSignedNumber">
<ellipse fill="white" stroke="white" cx="1169" cy="-645" rx="70.39" ry="18"/>
<text text-anchor="middle" x="1169" y="-641.3" font-family="Times,serif" font-size="14.00">CSignedNumber</text>
</a>
</g>
</g>
<!-- CSignedNumber&#45;&gt;CQuantity -->
<g id="edge3" class="edge">
<title>CSignedNumber&#45;&gt;CQuantity</title>
<path fill="none" stroke="black" d="M1187.37,-662.57C1196.37,-670.75 1207.32,-680.82 1217,-690 1227.85,-700.3 1239.67,-711.85 1249.72,-721.78"/>
<polygon fill="black" stroke="black" points="1247.04,-724.06 1256.61,-728.61 1251.97,-719.08 1247.04,-724.06"/>
</g>
<!-- CIntegralNumber&#45;&gt;CQuantity -->
<g id="edge5" class="edge">
<title>CIntegralNumber&#45;&gt;CQuantity</title>
<path fill="none" stroke="black" d="M1274,-517.3C1274,-559.11 1274,-666.02 1274,-717.48"/>
<polygon fill="black" stroke="black" points="1270.5,-717.21 1274,-727.21 1277.5,-717.21 1270.5,-717.21"/>
</g>
<!-- CBoundedNumber -->
<g id="node16" class="node">
<title>CBoundedNumber</title>
<g id="a_node16"><a xlink:href="structDGtal_1_1concepts_1_1CBoundedNumber.html" target="_top" xlink:title="CBoundedNumber">
<ellipse fill="white" stroke="white" cx="1148" cy="-165" rx="77.19" ry="18"/>
<text text-anchor="middle" x="1148" y="-161.3" font-family="Times,serif" font-size="14.00">CBoundedNumber</text>
</a>
</g>
</g>
<!-- CBoundedNumber&#45;&gt;CQuantity -->
<g id="edge6" class="edge">
<title>CBoundedNumber&#45;&gt;CQuantity</title>
<path fill="none" stroke="black" d="M1091.46,-177.55C1081.34,-179.48 1070.87,-181.37 1061,-183 1031.35,-187.88 951.31,-183.34 927,-201 907.06,-215.49 903,-226.35 903,-251 903,-251 903,-251 903,-646 903,-691.81 957.82,-663.4 1003,-671 1050.08,-678.92 1173.65,-669.99 1217,-690 1231.71,-696.79 1244.86,-709.04 1254.81,-720.35"/>
<polygon fill="black" stroke="black" points="1252.03,-722.48 1261.11,-727.94 1257.42,-718.01 1252.03,-722.48"/>
</g>
<!-- CCommutativeRing -->
<g id="node18" class="node">
<title>CCommutativeRing</title>
<g id="a_node18"><a xlink:href="structDGtal_1_1concepts_1_1CCommutativeRing.html" target="_top" xlink:title="CCommutativeRing">
<ellipse fill="white" stroke="white" cx="1146" cy="-572" rx="82.59" ry="18"/>
<text text-anchor="middle" x="1146" y="-568.3" font-family="Times,serif" font-size="14.00">CCommutativeRing</text>
</a>
</g>
</g>
<!-- CEuclideanRing&#45;&gt;CCommutativeRing -->
<g id="edge9" class="edge">
<title>CEuclideanRing&#45;&gt;CCommutativeRing</title>
<path fill="none" stroke="black" d="M1121.75,-517.19C1125.32,-525.12 1129.66,-534.74 1133.67,-543.64"/>
<polygon fill="black" stroke="black" points="1130.4,-544.91 1137.7,-552.59 1136.78,-542.04 1130.4,-544.91"/>
</g>
<!-- CCommutativeRing&#45;&gt;CSignedNumber -->
<g id="edge10" class="edge">
<title>CCommutativeRing&#45;&gt;CSignedNumber</title>
<path fill="none" stroke="black" d="M1151.57,-590.19C1154.08,-597.95 1157.12,-607.32 1159.95,-616.05"/>
<polygon fill="black" stroke="black" points="1156.61,-617.1 1163.02,-625.53 1163.26,-614.94 1156.61,-617.1"/>
</g>
<!-- CDomain -->
<g id="node19" class="node">
<title>CDomain</title>
<g id="a_node19"><a xlink:href="structDGtal_1_1concepts_1_1CDomain.html" target="_top" xlink:title="CDomain">
<ellipse fill="white" stroke="white" cx="1148" cy="-252" rx="45.49" ry="18"/>
<text text-anchor="middle" x="1148" y="-248.3" font-family="Times,serif" font-size="14.00">CDomain</text>
</a>
</g>
</g>
<!-- CDomain&#45;&gt;CConstSinglePassRange -->
<g id="edge11" class="edge">
<title>CDomain&#45;&gt;CConstSinglePassRange</title>
<path fill="none" stroke="black" d="M1103.6,-256.43C1053.53,-263 979,-282.17 979,-338 979,-338 979,-338 979,-646 979,-669.03 1030.68,-702.39 1069.37,-724.14"/>
<polygon fill="black" stroke="black" points="1067.61,-727.17 1078.06,-728.94 1071,-721.04 1067.61,-727.17"/>
</g>
<!-- CDomain&#45;&gt;CSpace -->
<g id="edge19" class="edge">
<title>CDomain&#45;&gt;CSpace</title>
<path fill="none" stroke="black" stroke-dasharray="5,2" d="M1162.85,-269.39C1174.21,-281.93 1190.06,-299.43 1202.91,-313.62"/>
<polygon fill="black" stroke="black" points="1200.14,-315.77 1209.44,-320.83 1205.32,-311.07 1200.14,-315.77"/>
<text text-anchor="middle" x="1200.5" y="-291.8" font-family="Times,serif" font-size="14.00">use</text>
</g>
<!-- CSTLAssociativeContainer -->
<g id="node20" class="node">
<title>CSTLAssociativeContainer</title>
<g id="a_node20"><a xlink:href="structDGtal_1_1concepts_1_1CSTLAssociativeContainer.html" target="_top" xlink:title="CSTLAssociativeContainer">
<ellipse fill="white" stroke="white" cx="802" cy="-165" rx="107.78" ry="18"/>
<text text-anchor="middle" x="802" y="-161.3" font-family="Times,serif" font-size="14.00">CSTLAssociativeContainer</text>
</a>
</g>
</g>
<!-- CSTLAssociativeContainer&#45;&gt;boost_DefaultConstructible -->
<g id="edge12" class="edge">
<title>CSTLAssociativeContainer&#45;&gt;boost_DefaultConstructible</title>
<path fill="none" stroke="black" d="M727.96,-178.43C659.73,-192.04 569,-216.61 569,-251 569,-251 569,-251 569,-646 569,-696.19 510.76,-669.38 465,-690 440.65,-700.97 413.75,-713.8 391.89,-724.4"/>
<polygon fill="black" stroke="black" points="390.42,-721.23 382.96,-728.75 393.48,-727.52 390.42,-721.23"/>
</g>
<!-- CSTLAssociativeContainer&#45;&gt;boost_ForwardContainer -->
<g id="edge13" class="edge">
<title>CSTLAssociativeContainer&#45;&gt;boost_ForwardContainer</title>
<path fill="none" stroke="black" d="M694.56,-167.29C572.49,-171.73 390,-188.78 390,-251 390,-251 390,-251 390,-646 390,-719.75 298.62,-662.97 230,-690 206.24,-699.36 180.88,-712.48 160.81,-723.68"/>
<polygon fill="black" stroke="black" points="159.13,-720.61 152.15,-728.58 162.58,-726.7 159.13,-720.61"/>
</g>
<!-- CDigitalSet -->
<g id="node21" class="node">
<title>CDigitalSet</title>
<ellipse fill="white" stroke="white" cx="1295" cy="-165" rx="51.99" ry="18"/>
<text text-anchor="middle" x="1295" y="-161.3" font-family="Times,serif" font-size="14.00">CDigitalSet</text>
</g>
<!-- CDigitalSet&#45;&gt;boost_CopyConstructible -->
<g id="edge21" class="edge">
<title>CDigitalSet&#45;&gt;boost_CopyConstructible</title>
<path fill="none" stroke="black" d="M1257.2,-177.82C1249.58,-179.84 1241.58,-181.7 1234,-183 1175.16,-193.1 701,-191.3 701,-251 701,-251 701,-251 701,-646 701,-684.22 665,-710.15 631.48,-726.01"/>
<polygon fill="black" stroke="black" points="630.28,-722.71 622.58,-730 633.14,-729.1 630.28,-722.71"/>
</g>
<!-- CDigitalSet&#45;&gt;boost_Assignable -->
<g id="edge20" class="edge">
<title>CDigitalSet&#45;&gt;boost_Assignable</title>
<path fill="none" stroke="black" d="M1255.69,-177.23C1248.49,-179.21 1241.03,-181.21 1234,-183 1169.23,-199.53 941,-184.16 941,-251 941,-251 941,-251 941,-646 941,-690.13 890.27,-668.04 852,-690 834.23,-700.2 815.12,-712.64 799.53,-723.21"/>
<polygon fill="black" stroke="black" points="797.85,-720.12 791.57,-728.65 801.8,-725.9 797.85,-720.12"/>
</g>
<!-- CDigitalSet&#45;&gt;CPointPredicate -->
<g id="edge14" class="edge">
<title>CDigitalSet&#45;&gt;CPointPredicate</title>
<path fill="none" stroke="black" d="M1291.76,-183.2C1289.65,-194.42 1286.84,-209.33 1284.4,-222.31"/>
<polygon fill="black" stroke="black" points="1280.98,-221.57 1282.57,-232.05 1287.86,-222.87 1280.98,-221.57"/>
</g>
<!-- CDigitalSet&#45;&gt;CDomain -->
<g id="edge15" class="edge">
<title>CDigitalSet&#45;&gt;CDomain</title>
<path fill="none" stroke="black" stroke-dasharray="5,2" d="M1269.06,-181C1244.94,-194.95 1208.85,-215.82 1182.35,-231.14"/>
<polygon fill="black" stroke="black" points="1180.92,-227.92 1174.01,-235.96 1184.42,-233.98 1180.92,-227.92"/>
<text text-anchor="middle" x="1239.5" y="-204.8" font-family="Times,serif" font-size="14.00">use</text>
</g>
<!-- SpaceND -->
<g id="node22" class="node">
<title>SpaceND</title>
<g id="a_node22"><a xlink:href="classDGtal_1_1SpaceND.html" target="_top" xlink:title="SpaceND">
<ellipse fill="white" stroke="white" cx="1804" cy="-57" rx="44.39" ry="18"/>
<text text-anchor="middle" x="1804" y="-53.3" font-family="Times,serif" font-size="14.00">SpaceND</text>
</a>
</g>
</g>
<!-- SpaceND&#45;&gt;CSpace -->
<g id="edge22" class="edge">
<title>SpaceND&#45;&gt;CSpace</title>
<path fill="none" stroke="black" d="M1780.48,-72.54C1732.86,-101.68 1621.25,-168.49 1523,-216 1432.69,-259.67 1322.58,-302.06 1264.79,-323.51"/>
<polygon fill="black" stroke="black" points="1263.87,-320.11 1255.71,-326.86 1266.3,-326.68 1263.87,-320.11"/>
</g>
<!-- HyperRectDomain -->
<g id="node23" class="node">
<title>HyperRectDomain</title>
<g id="a_node23"><a xlink:href="classDGtal_1_1HyperRectDomain.html" target="_top" xlink:title="HyperRectDomain">
<ellipse fill="white" stroke="white" cx="1375" cy="-57" rx="77.19" ry="18"/>
<text text-anchor="middle" x="1375" y="-53.3" font-family="Times,serif" font-size="14.00">HyperRectDomain</text>
</a>
</g>
</g>
<!-- HyperRectDomain&#45;&gt;CDomain -->
<g id="edge23" class="edge">
<title>HyperRectDomain&#45;&gt;CDomain</title>
<path fill="none" stroke="black" d="M1377.58,-75.22C1380.52,-101.64 1381.97,-152.35 1356,-183 1354.63,-184.62 1254.16,-217 1193.38,-236.49"/>
<polygon fill="black" stroke="black" points="1192.42,-233.12 1183.96,-239.5 1194.55,-239.79 1192.42,-233.12"/>
</g>
<!-- DigitalSetBySTLSet -->
<g id="node24" class="node">
<title>DigitalSetBySTLSet</title>
<g id="a_node24"><a xlink:href="classDGtal_1_1DigitalSetBySTLSet.html" target="_top" xlink:title="DigitalSetBySTLSet">
<ellipse fill="white" stroke="white" cx="1196" cy="-57" rx="83.39" ry="18"/>
<text text-anchor="middle" x="1196" y="-53.3" font-family="Times,serif" font-size="14.00">DigitalSetBySTLSet</text>
</a>
</g>
</g>
<!-- DigitalSetBySTLSet&#45;&gt;CDigitalSet -->
<g id="edge25" class="edge">
<title>DigitalSetBySTLSet&#45;&gt;CDigitalSet</title>
<path fill="none" stroke="black" d="M1211.91,-75.03C1228.09,-92.36 1253.36,-119.41 1271.78,-139.14"/>
<polygon fill="black" stroke="black" points="1269.04,-141.34 1278.43,-146.25 1274.16,-136.56 1269.04,-141.34"/>
</g>
<!-- DigitalSetBySTLVector -->
<g id="node25" class="node">
<title>DigitalSetBySTLVector</title>
<g id="a_node25"><a xlink:href="classDGtal_1_1DigitalSetBySTLVector.html" target="_top" xlink:title="DigitalSetBySTLVector">
<ellipse fill="white" stroke="white" cx="817" cy="-57" rx="94.78" ry="18"/>
<text text-anchor="middle" x="817" y="-53.3" font-family="Times,serif" font-size="14.00">DigitalSetBySTLVector</text>
</a>
</g>
</g>
<!-- DigitalSetBySTLVector&#45;&gt;CDigitalSet -->
<g id="edge24" class="edge">
<title>DigitalSetBySTLVector&#45;&gt;CDigitalSet</title>
<path fill="none" stroke="black" d="M870.18,-72.31C886.11,-76.22 903.69,-80.15 920,-83 1022.16,-100.82 1048.83,-97.41 1152,-108 1188.43,-111.74 1200.02,-102.35 1234,-116 1247.68,-121.49 1260.8,-131.06 1271.35,-140.21"/>
<polygon fill="black" stroke="black" points="1268.7,-142.52 1278.44,-146.68 1273.41,-137.35 1268.7,-142.52"/>
</g>
<!-- DigitalSetFromMap -->
<g id="node26" class="node">
<title>DigitalSetFromMap</title>
<g id="a_node26"><a xlink:href="classDGtal_1_1DigitalSetFromMap.html" target="_top" xlink:title="DigitalSetFromMap">
<ellipse fill="white" stroke="white" cx="1012" cy="-57" rx="82.59" ry="18"/>
<text text-anchor="middle" x="1012" y="-53.3" font-family="Times,serif" font-size="14.00">DigitalSetFromMap</text>
</a>
</g>
</g>
<!-- DigitalSetFromMap&#45;&gt;CDigitalSet -->
<g id="edge26" class="edge">
<title>DigitalSetFromMap&#45;&gt;CDigitalSet</title>
<path fill="none" stroke="black" d="M1061.62,-71.65C1075.33,-75.37 1090.23,-79.38 1104,-83 1161.65,-98.15 1180.52,-89.66 1234,-116 1246.72,-122.26 1259.28,-131.48 1269.67,-140.17"/>
<polygon fill="black" stroke="black" points="1267.21,-142.67 1277.05,-146.59 1271.8,-137.39 1267.21,-142.67"/>
</g>
<!-- SetPredicate -->
<g id="node27" class="node">
<title>SetPredicate</title>
<g id="a_node27"><a xlink:href="structDGtal_1_1deprecated_1_1SetPredicate.html" target="_top" xlink:title="SetPredicate">
<ellipse fill="white" stroke="white" cx="1525" cy="-57" rx="54.69" ry="18"/>
<text text-anchor="middle" x="1525" y="-53.3" font-family="Times,serif" font-size="14.00">SetPredicate</text>
</a>
</g>
</g>
<!-- SetPredicate&#45;&gt;CPointPredicate -->
<g id="edge30" class="edge">
<title>SetPredicate&#45;&gt;CPointPredicate</title>
<path fill="none" stroke="black" d="M1500.53,-73.58C1491.92,-79.38 1482.31,-86.2 1474,-93 1429.46,-129.4 1425.78,-146.9 1381,-183 1360.16,-199.8 1335.19,-216.5 1315.16,-229.15"/>
<polygon fill="black" stroke="black" points="1313.39,-226.13 1306.77,-234.39 1317.1,-232.06 1313.39,-226.13"/>
</g>
<!-- SetPredicate&#45;&gt;CDigitalSet -->
<g id="edge29" class="edge">
<title>SetPredicate&#45;&gt;CDigitalSet</title>
<path fill="none" stroke="black" stroke-dasharray="5,2" d="M1492.84,-71.88C1482.77,-75.87 1471.54,-79.95 1461,-83 1438.39,-89.53 1430.91,-84.41 1409,-93 1378.18,-105.08 1346.48,-125.6 1324.35,-141.48"/>
<polygon fill="black" stroke="black" points="1322.42,-138.56 1316.42,-147.29 1326.55,-144.21 1322.42,-138.56"/>
<text text-anchor="middle" x="1418.5" y="-96.8" font-family="Times,serif" font-size="14.00">use</text>
</g>
<!-- DomainPredicate -->
<g id="node28" class="node">
<title>DomainPredicate</title>
<g id="a_node28"><a xlink:href="structDGtal_1_1functors_1_1DomainPredicate.html" target="_top" xlink:title="DomainPredicate">
<ellipse fill="white" stroke="white" cx="1670" cy="-57" rx="72.29" ry="18"/>
<text text-anchor="middle" x="1670" y="-53.3" font-family="Times,serif" font-size="14.00">DomainPredicate</text>
</a>
</g>
</g>
<!-- DomainPredicate&#45;&gt;CPointPredicate -->
<g id="edge32" class="edge">
<title>DomainPredicate&#45;&gt;CPointPredicate</title>
<path fill="none" stroke="black" d="M1625.88,-71.69C1595.21,-81.25 1559.69,-92.4 1559,-93 1513.75,-132.78 1550.1,-179.72 1502,-216 1479.39,-233.06 1411.22,-242.01 1356.15,-246.57"/>
<polygon fill="black" stroke="black" points="1356.17,-243.06 1346.48,-247.34 1356.72,-250.04 1356.17,-243.06"/>
</g>
<!-- DomainPredicate&#45;&gt;CDomain -->
<g id="edge31" class="edge">
<title>DomainPredicate&#45;&gt;CDomain</title>
<path fill="none" stroke="black" stroke-dasharray="5,2" d="M1627.76,-71.86C1615.34,-75.71 1601.68,-79.73 1589,-83 1567.9,-88.44 1561.4,-85.35 1541,-93 1464.61,-121.66 1454.97,-148.57 1381,-183 1343.13,-200.62 1333.18,-204.58 1293,-216 1253.34,-227.28 1241.94,-223.79 1202,-234 1199.07,-234.75 1196.06,-235.57 1193.03,-236.42"/>
<polygon fill="black" stroke="black" points="1192.17,-233.02 1183.57,-239.21 1194.15,-239.74 1192.17,-233.02"/>
<text text-anchor="middle" x="1498.5" y="-161.3" font-family="Times,serif" font-size="14.00">use</text>
</g>
<!-- DigitalSetByAssociativeContainer -->
<g id="node29" class="node">
<title>DigitalSetByAssociativeContainer</title>
<g id="a_node29"><a xlink:href="classDGtal_1_1DigitalSetByAssociativeContainer.html" target="_top" xlink:title="DigitalSetByAssociativeContainer">
<ellipse fill="white" stroke="white" cx="572" cy="-57" rx="131.88" ry="18"/>
<text text-anchor="middle" x="572" y="-53.3" font-family="Times,serif" font-size="14.00">DigitalSetByAssociativeContainer</text>
</a>
</g>
</g>
<!-- DigitalSetByAssociativeContainer&#45;&gt;CSTLAssociativeContainer -->
<g id="edge28" class="edge">
<title>DigitalSetByAssociativeContainer&#45;&gt;CSTLAssociativeContainer</title>
<path fill="none" stroke="black" stroke-dasharray="5,2" d="M608.19,-74.68C648.16,-93.1 712.6,-122.8 756.09,-142.84"/>
<polygon fill="black" stroke="black" points="754.48,-145.95 765.02,-146.96 757.41,-139.59 754.48,-145.95"/>
<text text-anchor="middle" x="689.5" y="-96.8" font-family="Times,serif" font-size="14.00">use</text>
</g>
<!-- DigitalSetByAssociativeContainer&#45;&gt;CDigitalSet -->
<g id="edge27" class="edge">
<title>DigitalSetByAssociativeContainer&#45;&gt;CDigitalSet</title>
<path fill="none" stroke="black" d="M645.73,-72.27C667.35,-76.13 691.07,-80.05 713,-83 832.88,-99.13 863.28,-100.51 984,-108 1011.74,-109.72 1207.89,-106.49 1234,-116 1247.85,-121.04 1261,-130.54 1271.52,-139.76"/>
<polygon fill="black" stroke="black" points="1268.87,-142.08 1278.59,-146.31 1273.63,-136.95 1268.87,-142.08"/>
</g>
</g>
</svg>
        <g id="navigator" transform="translate(0 0)" fill="#404254">
                <rect fill="#f2f5e9" fill-opacity="0.5" stroke="#606060" stroke-width=".5" x="0" y="0" width="60" height="60"/>
                <use id="zoomplus" xlink:href="#zoomPlus" x="17" y="9" onmousedown="handleZoom(evt,'in')"/>
                <use id="zoomminus" xlink:href="#zoomMin" x="42" y="9" onmousedown="handleZoom(evt,'out')"/>
                <use id="reset" xlink:href="#resetDef" x="30" y="36" onmousedown="handleReset()"/>
                <g id="arrowUp" xlink:href="#dirArrow" transform="translate(30 24)" onmousedown="handlePan(0,-1)">
                  <use xlink:href="#rim" fill="#404040">
                        <set attributeName="fill" to="#808080" begin="arrowUp.mouseover" end="arrowUp.mouseout"/>
                  </use>
                  <path fill="none" stroke="white" stroke-width="1.5" d="M0,-3.0v7 M-2.5,-0.5L0,-3.0L2.5,-0.5"/>
                </g>
                <g id="arrowRight" xlink:href="#dirArrow" transform="rotate(90) translate(36 -43)" onmousedown="handlePan(1,0)">
                  <use xlink:href="#rim" fill="#404040">
                        <set attributeName="fill" to="#808080" begin="arrowRight.mouseover" end="arrowRight.mouseout"/>
                  </use>
                  <path fill="none" stroke="white" stroke-width="1.5" d="M0,-3.0v7 M-2.5,-0.5L0,-3.0L2.5,-0.5"/>
                </g>
                <g id="arrowDown" xlink:href="#dirArrow" transform="rotate(180) translate(-30 -48)" onmousedown="handlePan(0,1)">
                  <use xlink:href="#rim" fill="#404040">
                        <set attributeName="fill" to="#808080" begin="arrowDown.mouseover" end="arrowDown.mouseout"/>
                  </use>
                  <path fill="none" stroke="white" stroke-width="1.5" d="M0,-3.0v7 M-2.5,-0.5L0,-3.0L2.5,-0.5"/>
                </g>
                <g id="arrowLeft" xlink:href="#dirArrow" transform="rotate(270) translate(-36 17)" onmousedown="handlePan(-1,0)">
                  <use xlink:href="#rim" fill="#404040">
                        <set attributeName="fill" to="#808080" begin="arrowLeft.mouseover" end="arrowLeft.mouseout"/>
                  </use>
                  <path fill="none" stroke="white" stroke-width="1.5" d="M0,-3.0v7 M-2.5,-0.5L0,-3.0L2.5,-0.5"/>
                </g>
        </g>
        <svg viewBox="0 0 15 15" width="100%" height="30px" preserveAspectRatio="xMaxYMin meet">
         <g id="arrow_out" transform="scale(0.3 0.3)">
          <a xlink:href="dot_inline_dotgraph_11_org.svg" target="_base">
           <rect id="button" ry="5" rx="5" y="6" x="6" height="38" width="38"
                fill="#f2f5e9" fill-opacity="0.5" stroke="#606060" stroke-width="1.0"/>
           <path id="arrow"
             d="M 11.500037,31.436501 C 11.940474,20.09759 22.043105,11.32322 32.158766,21.979434 L 37.068811,17.246167 C 37.068811,17.246167 37.088388,32 37.088388,32 L 22.160133,31.978069 C 22.160133,31.978069 26.997745,27.140456 26.997745,27.140456 C 18.528582,18.264221 13.291696,25.230495 11.500037,31.436501 z"
             style="fill:#404040;"/>
          </a>
         </g>
        </svg>
</svg>
