<?xml version="1.0" encoding="UTF-8" standalone="no"?>
<!DOCTYPE svg PUBLIC "-//W3C//DTD SVG 1.1//EN"
 "http://www.w3.org/Graphics/SVG/1.1/DTD/svg11.dtd">
<!-- Generated by graphviz version 11.0.0 (20240428.1522)
 -->
<!-- Title: Graphical Class Hierarchy Pages: 1 -->
<svg width="1091pt" height="76pt"
 viewBox="0.00 0.00 1091.00 75.88" xmlns="http://www.w3.org/2000/svg" xmlns:xlink="http://www.w3.org/1999/xlink">
<g id="graph0" class="graph" transform="scale(1 1) rotate(0) translate(4 71.88)">
<title>Graphical Class Hierarchy</title>
<!-- Node0 -->
<g id="Node000000" class="node">
<title>Node0</title>
<g id="a_Node000000"><a xlink:href="structboost_1_1Assignable.html" target="_top" xlink:title=" ">
<polygon fill="white" stroke="#666666" points="115,-45.88 0,-45.88 0,-26.62 115,-26.62 115,-45.88"/>
<text text-anchor="middle" x="57.5" y="-32.38" font-family="FreeSans" font-size="10.00">boost::Assignable&lt; I &gt;</text>
</a>
</g>
</g>
<!-- Node1 -->
<g id="Node000001" class="node">
<title>Node1</title>
<g id="a_Node000001"><a xlink:href="structDGtal_1_1concepts_1_1CUnaryFunctor.html" target="_top" xlink:title=" ">
<polygon fill="white" stroke="#666666" points="311,-51.5 151,-51.5 151,-21 311,-21 311,-51.5"/>
<text text-anchor="start" x="159" y="-38" font-family="FreeSans" font-size="10.00">DGtal::concepts::CUnaryFunctor</text>
<text text-anchor="middle" x="231" y="-26.75" font-family="FreeSans" font-size="10.00">&lt; I, I::Point, I::Value &gt;</text>
</a>
</g>
</g>
<!-- Node0&#45;&gt;Node1 -->
<g id="edge9_Node000000_Node000001" class="edge">
<title>Node0&#45;&gt;Node1</title>
<g id="a_edge9_Node000000_Node000001"><a xlink:title=" ">
<path fill="none" stroke="#63b8ff" d="M126.59,-36.25C134.53,-36.25 142.69,-36.25 150.77,-36.25"/>
<polygon fill="#63b8ff" stroke="#63b8ff" points="126.64,-32.75 116.64,-36.25 126.64,-39.75 126.64,-32.75"/>
</a>
</g>
</g>
<!-- Node2 -->
<g id="Node000002" class="node">
<title>Node2</title>
<g id="a_Node000002"><a xlink:href="structDGtal_1_1concepts_1_1CPointFunctor.html" target="_top" xlink:title=" ">
<polygon fill="white" stroke="#666666" points="524.25,-45.88 347,-45.88 347,-26.62 524.25,-26.62 524.25,-45.88"/>
<text text-anchor="middle" x="435.62" y="-32.38" font-family="FreeSans" font-size="10.00">DGtal::concepts::CPointFunctor&lt; I &gt;</text>
</a>
</g>
</g>
<!-- Node1&#45;&gt;Node2 -->
<g id="edge10_Node000001_Node000002" class="edge">
<title>Node1&#45;&gt;Node2</title>
<g id="a_edge10_Node000001_Node000002"><a xlink:title=" ">
<path fill="none" stroke="#63b8ff" d="M322.51,-36.25C330.57,-36.25 338.72,-36.25 346.75,-36.25"/>
<polygon fill="#63b8ff" stroke="#63b8ff" points="322.72,-32.75 312.72,-36.25 322.72,-39.75 322.72,-32.75"/>
</a>
</g>
</g>
<!-- Node3 -->
<g id="Node000003" class="node">
<title>Node3</title>
<g id="a_Node000003"><a xlink:href="structDGtal_1_1concepts_1_1CTrivialConstImage.html" target="_top" xlink:title="Aim: Defines the concept describing a read&#45;only image, which is a refinement of CPointFunctor.">
<polygon fill="white" stroke="#666666" points="687.25,-51.5 560.25,-51.5 560.25,-21 687.25,-21 687.25,-51.5"/>
<text text-anchor="start" x="568.25" y="-38" font-family="FreeSans" font-size="10.00">DGtal::concepts::CTrivial</text>
<text text-anchor="middle" x="623.75" y="-26.75" font-family="FreeSans" font-size="10.00">ConstImage&lt; I &gt;</text>
</a>
</g>
</g>
<!-- Node2&#45;&gt;Node3 -->
<g id="edge11_Node000002_Node000003" class="edge">
<title>Node2&#45;&gt;Node3</title>
<g id="a_edge11_Node000002_Node000003"><a xlink:title=" ">
<path fill="none" stroke="#63b8ff" d="M536.01,-36.25C544.12,-36.25 552.18,-36.25 559.92,-36.25"/>
<polygon fill="#63b8ff" stroke="#63b8ff" points="536.02,-32.75 526.02,-36.25 536.02,-39.75 536.02,-32.75"/>
</a>
</g>
</g>
<!-- Node4 -->
<g id="Node000004" class="node">
<title>Node4</title>
<g id="a_Node000004"><a xlink:href="structDGtal_1_1concepts_1_1CConstImage.html" target="_top" xlink:title="Aim: Defines the concept describing a read&#45;only image, which is a refinement of CPointFunctor.">
<polygon fill="white" stroke="#666666" points="898.25,-67.88 723.25,-67.88 723.25,-48.62 898.25,-48.62 898.25,-67.88"/>
<text text-anchor="middle" x="810.75" y="-54.38" font-family="FreeSans" font-size="10.00">DGtal::concepts::CConstImage&lt; I &gt;</text>
</a>
</g>
</g>
<!-- Node3&#45;&gt;Node4 -->
<g id="edge12_Node000003_Node000004" class="edge">
<title>Node3&#45;&gt;Node4</title>
<g id="a_edge12_Node000003_Node000004"><a xlink:title=" ">
<path fill="none" stroke="#63b8ff" d="M699.02,-45.08C707.49,-46.09 716.16,-47.12 724.75,-48.14"/>
<polygon fill="#63b8ff" stroke="#63b8ff" points="699.49,-41.61 689.14,-43.91 698.66,-48.56 699.49,-41.61"/>
</a>
</g>
</g>
<!-- Node6 -->
<g id="Node000006" class="node">
<title>Node6</title>
<g id="a_Node000006"><a xlink:href="structDGtal_1_1concepts_1_1CTrivialImage.html" target="_top" xlink:title="Aim: Defines the concept describing an image without extra ranges, which is a refinement of CTrivialC...">
<polygon fill="white" stroke="#666666" points="874.25,-30.5 747.25,-30.5 747.25,0 874.25,0 874.25,-30.5"/>
<text text-anchor="start" x="755.25" y="-17" font-family="FreeSans" font-size="10.00">DGtal::concepts::CTrivial</text>
<text text-anchor="middle" x="810.75" y="-5.75" font-family="FreeSans" font-size="10.00">Image&lt; I &gt;</text>
</a>
</g>
</g>
<!-- Node3&#45;&gt;Node6 -->
<g id="edge14_Node000003_Node000006" class="edge">
<title>Node3&#45;&gt;Node6</title>
<g id="a_edge14_Node000003_Node000006"><a xlink:title=" ">
<path fill="none" stroke="#63b8ff" d="M699.06,-27.81C714.97,-26.01 731.62,-24.12 747.03,-22.37"/>
<polygon fill="#63b8ff" stroke="#63b8ff" points="698.69,-24.33 689.14,-28.94 699.48,-31.29 698.69,-24.33"/>
</a>
</g>
</g>
<!-- Node5 -->
<g id="Node000005" class="node">
<title>Node5</title>
<g id="a_Node000005"><a xlink:href="structDGtal_1_1concepts_1_1CImage.html" target="_top" xlink:title="Aim: Defines the concept describing a read/write image, having an output iterator.">
<polygon fill="white" stroke="#666666" points="1083,-45.88 934.25,-45.88 934.25,-26.62 1083,-26.62 1083,-45.88"/>
<text text-anchor="middle" x="1008.62" y="-32.38" font-family="FreeSans" font-size="10.00">DGtal::concepts::CImage&lt; I &gt;</text>
</a>
</g>
</g>
<!-- Node4&#45;&gt;Node5 -->
<g id="edge13_Node000004_Node000005" class="edge">
<title>Node4&#45;&gt;Node5</title>
<g id="a_edge13_Node000004_Node000005"><a xlink:title=" ">
<path fill="none" stroke="#63b8ff" d="M909.87,-47.23C917.92,-46.33 925.96,-45.42 933.79,-44.54"/>
<polygon fill="#63b8ff" stroke="#63b8ff" points="909.57,-43.74 900.02,-48.34 910.35,-50.7 909.57,-43.74"/>
</a>
</g>
</g>
<!-- Node6&#45;&gt;Node5 -->
<g id="edge15_Node000006_Node000005" class="edge">
<title>Node6&#45;&gt;Node5</title>
<g id="a_edge15_Node000006_Node000005"><a xlink:title=" ">
<path fill="none" stroke="#63b8ff" d="M885.82,-23.19C901.57,-24.88 918.19,-26.66 933.92,-28.35"/>
<polygon fill="#63b8ff" stroke="#63b8ff" points="886.36,-19.73 876.04,-22.14 885.61,-26.69 886.36,-19.73"/>
</a>
</g>
</g>
</g>
</svg>
