<?xml version="1.0" encoding="UTF-8" standalone="no"?>
<!DOCTYPE svg PUBLIC "-//W3C//DTD SVG 1.1//EN"
 "http://www.w3.org/Graphics/SVG/1.1/DTD/svg11.dtd">
<!-- Generated by graphviz version 11.0.0 (20240428.1522)
 -->
<!-- Title: Graphical Class Hierarchy Pages: 1 -->
<svg width="298pt" height="273pt"
 viewBox="0.00 0.00 298.00 272.88" xmlns="http://www.w3.org/2000/svg" xmlns:xlink="http://www.w3.org/1999/xlink">
<g id="graph0" class="graph" transform="scale(1 1) rotate(0) translate(4 268.88)">
<title>Graphical Class Hierarchy</title>
<!-- Node0 -->
<g id="Node000000" class="node">
<title>Node0</title>
<g id="a_Node000000"><a xlink:href="classDGtal_1_1StarShaped2D.html" target="_top" xlink:title=" ">
<polygon fill="white" stroke="#666666" points="111.25,-147.88 0,-147.88 0,-117.38 111.25,-117.38 111.25,-147.88"/>
<text text-anchor="start" x="8" y="-134.38" font-family="FreeSans" font-size="10.00">DGtal::StarShaped2D</text>
<text text-anchor="middle" x="55.62" y="-123.12" font-family="FreeSans" font-size="10.00">&lt; TSpace &gt;</text>
</a>
</g>
</g>
<!-- Node1 -->
<g id="Node000001" class="node">
<title>Node1</title>
<g id="a_Node000001"><a xlink:href="classDGtal_1_1AccFlower2D.html" target="_top" xlink:title="Aim: Model of the concept StarShaped represents any accelerated flower in the plane.">
<polygon fill="white" stroke="#666666" points="272,-264.88 165.25,-264.88 165.25,-234.38 272,-234.38 272,-264.88"/>
<text text-anchor="start" x="173.25" y="-251.38" font-family="FreeSans" font-size="10.00">DGtal::AccFlower2D</text>
<text text-anchor="middle" x="218.62" y="-240.12" font-family="FreeSans" font-size="10.00">&lt; TSpace &gt;</text>
</a>
</g>
</g>
<!-- Node0&#45;&gt;Node1 -->
<g id="edge311_Node000000_Node000001" class="edge">
<title>Node0&#45;&gt;Node1</title>
<g id="a_edge311_Node000000_Node000001"><a xlink:title=" ">
<path fill="none" stroke="#63b8ff" d="M75.08,-157.24C91.85,-178.06 118.33,-207.35 147.25,-225.62 152.71,-229.07 158.72,-232.09 164.85,-234.71"/>
<polygon fill="#63b8ff" stroke="#63b8ff" points="77.95,-155.23 69.02,-149.53 72.45,-159.55 77.95,-155.23"/>
</a>
</g>
</g>
<!-- Node2 -->
<g id="Node000002" class="node">
<title>Node2</title>
<g id="a_Node000002"><a xlink:href="classDGtal_1_1Astroid2D.html" target="_top" xlink:title="Aim: Model of the concept StarShaped represents an astroid.">
<polygon fill="white" stroke="#666666" points="290,-216.25 147.25,-216.25 147.25,-197 290,-197 290,-216.25"/>
<text text-anchor="middle" x="218.62" y="-202.75" font-family="FreeSans" font-size="10.00">DGtal::Astroid2D&lt; TSpace &gt;</text>
</a>
</g>
</g>
<!-- Node0&#45;&gt;Node2 -->
<g id="edge312_Node000000_Node000002" class="edge">
<title>Node0&#45;&gt;Node2</title>
<g id="a_edge312_Node000000_Node000002"><a xlink:title=" ">
<path fill="none" stroke="#63b8ff" d="M87,-154.63C104.03,-166.11 126.05,-179.61 147.25,-188.62 154.45,-191.68 162.28,-194.32 170.03,-196.55"/>
<polygon fill="#63b8ff" stroke="#63b8ff" points="89.06,-151.8 78.84,-149 85.09,-157.56 89.06,-151.8"/>
</a>
</g>
</g>
<!-- Node3 -->
<g id="Node000003" class="node">
<title>Node3</title>
<g id="a_Node000003"><a xlink:href="classDGtal_1_1Ball2D.html" target="_top" xlink:title="Aim: Model of the concept StarShaped represents any circle in the plane.">
<polygon fill="white" stroke="#666666" points="282.88,-179.25 154.38,-179.25 154.38,-160 282.88,-160 282.88,-179.25"/>
<text text-anchor="middle" x="218.62" y="-165.75" font-family="FreeSans" font-size="10.00">DGtal::Ball2D&lt; TSpace &gt;</text>
</a>
</g>
</g>
<!-- Node0&#45;&gt;Node3 -->
<g id="edge313_Node000000_Node000003" class="edge">
<title>Node0&#45;&gt;Node3</title>
<g id="a_edge313_Node000000_Node000003"><a xlink:title=" ">
<path fill="none" stroke="#63b8ff" d="M122.73,-147.82C139.95,-151.77 158.08,-155.94 173.82,-159.56"/>
<polygon fill="#63b8ff" stroke="#63b8ff" points="123.59,-144.42 113.06,-145.59 122.02,-151.24 123.59,-144.42"/>
</a>
</g>
</g>
<!-- Node4 -->
<g id="Node000004" class="node">
<title>Node4</title>
<g id="a_Node000004"><a xlink:href="classDGtal_1_1Ellipse2D.html" target="_top" xlink:title="Aim: Model of the concept StarShaped represents any ellipse in the plane.">
<polygon fill="white" stroke="#666666" points="289.25,-142.25 148,-142.25 148,-123 289.25,-123 289.25,-142.25"/>
<text text-anchor="middle" x="218.62" y="-128.75" font-family="FreeSans" font-size="10.00">DGtal::Ellipse2D&lt; TSpace &gt;</text>
</a>
</g>
</g>
<!-- Node0&#45;&gt;Node4 -->
<g id="edge314_Node000000_Node000004" class="edge">
<title>Node0&#45;&gt;Node4</title>
<g id="a_edge314_Node000000_Node000004"><a xlink:title=" ">
<path fill="none" stroke="#63b8ff" d="M122.9,-132.62C131.03,-132.62 139.36,-132.62 147.54,-132.62"/>
<polygon fill="#63b8ff" stroke="#63b8ff" points="123.1,-129.13 113.1,-132.63 123.1,-136.13 123.1,-129.13"/>
</a>
</g>
</g>
<!-- Node5 -->
<g id="Node000005" class="node">
<title>Node5</title>
<g id="a_Node000005"><a xlink:href="classDGtal_1_1Flower2D.html" target="_top" xlink:title="Aim: Model of the concept StarShaped represents any flower with k&#45;petals in the plane.">
<polygon fill="white" stroke="#666666" points="289.25,-105.25 148,-105.25 148,-86 289.25,-86 289.25,-105.25"/>
<text text-anchor="middle" x="218.62" y="-91.75" font-family="FreeSans" font-size="10.00">DGtal::Flower2D&lt; TSpace &gt;</text>
</a>
</g>
</g>
<!-- Node0&#45;&gt;Node5 -->
<g id="edge315_Node000000_Node000005" class="edge">
<title>Node0&#45;&gt;Node5</title>
<g id="a_edge315_Node000000_Node000005"><a xlink:title=" ">
<path fill="none" stroke="#63b8ff" d="M122.73,-117.43C139.95,-113.48 158.08,-109.31 173.82,-105.69"/>
<polygon fill="#63b8ff" stroke="#63b8ff" points="122.02,-114.01 113.06,-119.66 123.59,-120.83 122.02,-114.01"/>
</a>
</g>
</g>
<!-- Node6 -->
<g id="Node000006" class="node">
<title>Node6</title>
<g id="a_Node000006"><a xlink:href="classDGtal_1_1Lemniscate2D.html" target="_top" xlink:title="Aim: Model of the concept StarShaped represents a lemniscate.">
<polygon fill="white" stroke="#666666" points="273.88,-67.88 163.38,-67.88 163.38,-37.38 273.88,-37.38 273.88,-67.88"/>
<text text-anchor="start" x="171.38" y="-54.38" font-family="FreeSans" font-size="10.00">DGtal::Lemniscate2D</text>
<text text-anchor="middle" x="218.62" y="-43.12" font-family="FreeSans" font-size="10.00">&lt; TSpace &gt;</text>
</a>
</g>
</g>
<!-- Node0&#45;&gt;Node6 -->
<g id="edge316_Node000000_Node000006" class="edge">
<title>Node0&#45;&gt;Node6</title>
<g id="a_edge316_Node000000_Node000006"><a xlink:title=" ">
<path fill="none" stroke="#63b8ff" d="M88.33,-110.59C105.29,-99.44 126.84,-86.26 147.25,-76.62 153.55,-73.65 160.33,-70.86 167.1,-68.31"/>
<polygon fill="#63b8ff" stroke="#63b8ff" points="86.55,-107.57 80.18,-116.04 90.44,-113.39 86.55,-107.57"/>
</a>
</g>
</g>
<!-- Node7 -->
<g id="Node000007" class="node">
<title>Node7</title>
<g id="a_Node000007"><a xlink:href="classDGtal_1_1NGon2D.html" target="_top" xlink:title="Aim: Model of the concept StarShaped represents any regular k&#45;gon in the plane.">
<polygon fill="white" stroke="#666666" points="287.38,-19.25 149.88,-19.25 149.88,0 287.38,0 287.38,-19.25"/>
<text text-anchor="middle" x="218.62" y="-5.75" font-family="FreeSans" font-size="10.00">DGtal::NGon2D&lt; TSpace &gt;</text>
</a>
</g>
</g>
<!-- Node0&#45;&gt;Node7 -->
<g id="edge317_Node000000_Node000007" class="edge">
<title>Node0&#45;&gt;Node7</title>
<g id="a_edge317_Node000000_Node000007"><a xlink:title=" ">
<path fill="none" stroke="#63b8ff" d="M72.08,-107.56C88.04,-83.77 115.09,-48.74 147.25,-28.62 153.04,-25 159.53,-22.06 166.15,-19.68"/>
<polygon fill="#63b8ff" stroke="#63b8ff" points="69.29,-105.44 66.76,-115.73 75.15,-109.26 69.29,-105.44"/>
</a>
</g>
</g>
</g>
</svg>
