<?xml version="1.0" encoding="UTF-8" standalone="no"?>
<!DOCTYPE svg PUBLIC "-//W3C//DTD SVG 1.1//EN"
 "http://www.w3.org/Graphics/SVG/1.1/DTD/svg11.dtd">
<!-- Generated by graphviz version 11.0.0 (20240428.1522)
 -->
<!-- Title: Graphical Class Hierarchy Pages: 1 -->
<svg width="274pt" height="76pt"
 viewBox="0.00 0.00 274.00 75.88" xmlns="http://www.w3.org/2000/svg" xmlns:xlink="http://www.w3.org/1999/xlink">
<g id="graph0" class="graph" transform="scale(1 1) rotate(0) translate(4 71.88)">
<title>Graphical Class Hierarchy</title>
<!-- Node0 -->
<g id="Node000000" class="node">
<title>Node0</title>
<g id="a_Node000000"><a xlink:title=" ">
<polygon fill="#e0e0e0" stroke="#999999" points="80.5,-45.88 0,-45.88 0,-26.62 80.5,-26.62 80.5,-45.88"/>
<text text-anchor="middle" x="40.25" y="-32.38" font-family="FreeSans" font-size="10.00">std::false_type</text>
</a>
</g>
</g>
<!-- Node1 -->
<g id="Node000001" class="node">
<title>Node1</title>
<g id="a_Node000001"><a xlink:href="structDGtal_1_1IsAPointVector.html" target="_top" xlink:title="Type trait to check if a given type is a PointVector.">
<polygon fill="white" stroke="#666666" points="260,-67.88 122.5,-67.88 122.5,-48.62 260,-48.62 260,-67.88"/>
<text text-anchor="middle" x="191.25" y="-54.38" font-family="FreeSans" font-size="10.00">DGtal::IsAPointVector&lt; T &gt;</text>
</a>
</g>
</g>
<!-- Node0&#45;&gt;Node1 -->
<g id="edge352_Node000000_Node000001" class="edge">
<title>Node0&#45;&gt;Node1</title>
<g id="a_edge352_Node000000_Node000001"><a xlink:title=" ">
<path fill="none" stroke="#63b8ff" d="M91.93,-43.73C101.7,-45.17 112.07,-46.71 122.29,-48.22"/>
<polygon fill="#63b8ff" stroke="#63b8ff" points="92.69,-40.31 82.29,-42.31 91.67,-47.23 92.69,-40.31"/>
</a>
</g>
</g>
<!-- Node2 -->
<g id="Node000002" class="node">
<title>Node2</title>
<g id="a_Node000002"><a xlink:href="structDGtal_1_1IsArithmeticConversionValid.html" target="_top" xlink:title="Helper to determine if an arithmetic operation between two given types has a valid result type (ie is...">
<polygon fill="white" stroke="#666666" points="266,-30.5 116.5,-30.5 116.5,0 266,0 266,-30.5"/>
<text text-anchor="start" x="124.5" y="-17" font-family="FreeSans" font-size="10.00">DGtal::IsArithmeticConversion</text>
<text text-anchor="middle" x="191.25" y="-5.75" font-family="FreeSans" font-size="10.00">Valid&lt; T, U, Enable &gt;</text>
</a>
</g>
</g>
<!-- Node0&#45;&gt;Node2 -->
<g id="edge353_Node000000_Node000002" class="edge">
<title>Node0&#45;&gt;Node2</title>
<g id="a_edge353_Node000000_Node000002"><a xlink:title=" ">
<path fill="none" stroke="#63b8ff" d="M91.94,-29.11C99.78,-28 108,-26.84 116.22,-25.68"/>
<polygon fill="#63b8ff" stroke="#63b8ff" points="91.7,-25.6 82.29,-30.47 92.68,-32.54 91.7,-25.6"/>
</a>
</g>
</g>
</g>
</svg>
