<?xml version="1.0" encoding="UTF-8" standalone="no"?>
<!DOCTYPE svg PUBLIC "-//W3C//DTD SVG 1.1//EN"
 "http://www.w3.org/Graphics/SVG/1.1/DTD/svg11.dtd">
<!-- Generated by graphviz version 13.1.2 (20250808.2320)
 -->
<!-- Title: Graphical Class Hierarchy Pages: 1 -->
<svg width="305pt" height="502pt"
 viewBox="0.00 0.00 305.00 502.00" xmlns="http://www.w3.org/2000/svg" xmlns:xlink="http://www.w3.org/1999/xlink">
<g id="graph0" class="graph" transform="scale(1 1) rotate(0) translate(4 497.5)">
<title>Graphical Class Hierarchy</title>
<!-- Node0 -->
<g id="Node000000" class="node">
<title>Node0</title>
<g id="a_Node000000"><a xlink:title=" ">
<polygon fill="#e0e0e0" stroke="#999999" points="86.5,-266.88 0,-266.88 0,-247.62 86.5,-247.62 86.5,-266.88"/>
<text xml:space="preserve" text-anchor="middle" x="43.25" y="-253.38" font-family="FreeSans" font-size="10.00">std::vector&lt; T &gt;</text>
</a>
</g>
</g>
<!-- Node1 -->
<g id="Node000001" class="node">
<title>Node1</title>
<g id="a_Node000001"><a xlink:href="classDGtal_1_1ImageContainerBySTLVector.html" target="_top" xlink:title=" ">
<polygon fill="white" stroke="#666666" points="296.75,-493.5 122.5,-493.5 122.5,-463 296.75,-463 296.75,-493.5"/>
<text xml:space="preserve" text-anchor="start" x="130.5" y="-480" font-family="FreeSans" font-size="10.00">DGtal::ImageContainerBySTLVector</text>
<text xml:space="preserve" text-anchor="middle" x="209.62" y="-468.75" font-family="FreeSans" font-size="10.00">&lt; Domain, Storage * &gt;</text>
</a>
</g>
</g>
<!-- Node0&#45;&gt;Node1 -->
<g id="edge381_Node000000_Node000001" class="edge">
<title>Node0&#45;&gt;Node1</title>
<g id="a_edge381_Node000000_Node000001"><a xlink:title=" ">
<path fill="none" stroke="#63b8ff" d="M46.61,-278.32C52.23,-318.37 70.1,-405.71 122.5,-453.25 126.54,-456.91 131.08,-460.04 135.91,-462.71"/>
<polygon fill="#63b8ff" stroke="#63b8ff" points="50.11,-278.07 45.38,-268.59 43.16,-278.95 50.11,-278.07"/>
</a>
</g>
</g>
<!-- Node2 -->
<g id="Node000002" class="node">
<title>Node2</title>
<g id="a_Node000002"><a xlink:href="classDGtal_1_1ImageContainerBySTLVector.html" target="_top" xlink:title=" ">
<polygon fill="white" stroke="#666666" points="296.75,-444.5 122.5,-444.5 122.5,-414 296.75,-414 296.75,-444.5"/>
<text xml:space="preserve" text-anchor="start" x="130.5" y="-431" font-family="FreeSans" font-size="10.00">DGtal::ImageContainerBySTLVector</text>
<text xml:space="preserve" text-anchor="middle" x="209.62" y="-419.75" font-family="FreeSans" font-size="10.00">&lt; Domain, bool &gt;</text>
</a>
</g>
</g>
<!-- Node0&#45;&gt;Node2 -->
<g id="edge382_Node000000_Node000002" class="edge">
<title>Node0&#45;&gt;Node2</title>
<g id="a_edge382_Node000000_Node000002"><a xlink:title=" ">
<path fill="none" stroke="#63b8ff" d="M49.61,-277.87C58.96,-309.74 81.31,-370.8 122.5,-404.25 126.97,-407.88 131.95,-410.99 137.2,-413.64"/>
<polygon fill="#63b8ff" stroke="#63b8ff" points="53.1,-277.36 47.05,-268.66 46.35,-279.23 53.1,-277.36"/>
</a>
</g>
</g>
<!-- Node3 -->
<g id="Node000003" class="node">
<title>Node3</title>
<g id="a_Node000003"><a xlink:href="classDGtal_1_1ImageContainerBySTLVector.html" target="_top" xlink:title=" ">
<polygon fill="white" stroke="#666666" points="296.75,-395.5 122.5,-395.5 122.5,-365 296.75,-365 296.75,-395.5"/>
<text xml:space="preserve" text-anchor="start" x="130.5" y="-382" font-family="FreeSans" font-size="10.00">DGtal::ImageContainerBySTLVector</text>
<text xml:space="preserve" text-anchor="middle" x="209.62" y="-370.75" font-family="FreeSans" font-size="10.00">&lt; Domain, GrayScale &gt;</text>
</a>
</g>
</g>
<!-- Node0&#45;&gt;Node3 -->
<g id="edge383_Node000000_Node000003" class="edge">
<title>Node0&#45;&gt;Node3</title>
<g id="a_edge383_Node000000_Node000003"><a xlink:title=" ">
<path fill="none" stroke="#63b8ff" d="M54.95,-276.99C68.02,-299.24 92.18,-334.96 122.5,-355.25 127.93,-358.89 133.9,-362 140.09,-364.67"/>
<polygon fill="#63b8ff" stroke="#63b8ff" points="58.17,-275.56 50.2,-268.59 52.08,-279.01 58.17,-275.56"/>
</a>
</g>
</g>
<!-- Node4 -->
<g id="Node000004" class="node">
<title>Node4</title>
<g id="a_Node000004"><a xlink:href="classDGtal_1_1ImageContainerBySTLVector.html" target="_top" xlink:title=" ">
<polygon fill="white" stroke="#666666" points="296.75,-346.5 122.5,-346.5 122.5,-316 296.75,-316 296.75,-346.5"/>
<text xml:space="preserve" text-anchor="start" x="130.5" y="-333" font-family="FreeSans" font-size="10.00">DGtal::ImageContainerBySTLVector</text>
<text xml:space="preserve" text-anchor="middle" x="209.62" y="-321.75" font-family="FreeSans" font-size="10.00">&lt; Domain, float &gt;</text>
</a>
</g>
</g>
<!-- Node0&#45;&gt;Node4 -->
<g id="edge384_Node000000_Node000004" class="edge">
<title>Node0&#45;&gt;Node4</title>
<g id="a_edge384_Node000000_Node000004"><a xlink:title=" ">
<path fill="none" stroke="#63b8ff" d="M66.81,-273.73C81.96,-284.2 102.7,-297.38 122.5,-306.25 130.17,-309.69 138.44,-312.78 146.71,-315.54"/>
<polygon fill="#63b8ff" stroke="#63b8ff" points="69.16,-271.1 58.97,-268.2 65.12,-276.82 69.16,-271.1"/>
</a>
</g>
</g>
<!-- Node5 -->
<g id="Node000005" class="node">
<title>Node5</title>
<g id="a_Node000005"><a xlink:href="classDGtal_1_1ImageContainerBySTLVector.html" target="_top" xlink:title=" ">
<polygon fill="white" stroke="#666666" points="296.75,-297.5 122.5,-297.5 122.5,-267 296.75,-267 296.75,-297.5"/>
<text xml:space="preserve" text-anchor="start" x="130.5" y="-284" font-family="FreeSans" font-size="10.00">DGtal::ImageContainerBySTLVector</text>
<text xml:space="preserve" text-anchor="middle" x="209.62" y="-272.75" font-family="FreeSans" font-size="10.00">&lt; Domain, double &gt;</text>
</a>
</g>
</g>
<!-- Node0&#45;&gt;Node5 -->
<g id="edge385_Node000000_Node000005" class="edge">
<title>Node0&#45;&gt;Node5</title>
<g id="a_edge385_Node000000_Node000005"><a xlink:title=" ">
<path fill="none" stroke="#63b8ff" d="M97.71,-265.38C105.53,-266.57 113.74,-267.82 122.02,-269.08"/>
<polygon fill="#63b8ff" stroke="#63b8ff" points="98.49,-261.96 88.08,-263.92 97.44,-268.88 98.49,-261.96"/>
</a>
</g>
</g>
<!-- Node6 -->
<g id="Node000006" class="node">
<title>Node6</title>
<g id="a_Node000006"><a xlink:href="classDGtal_1_1ImageContainerBySTLVector.html" target="_top" xlink:title=" ">
<polygon fill="white" stroke="#666666" points="296.75,-248.5 122.5,-248.5 122.5,-218 296.75,-218 296.75,-248.5"/>
<text xml:space="preserve" text-anchor="start" x="130.5" y="-235" font-family="FreeSans" font-size="10.00">DGtal::ImageContainerBySTLVector</text>
<text xml:space="preserve" text-anchor="middle" x="209.62" y="-223.75" font-family="FreeSans" font-size="10.00">&lt; Domain, Value &gt;</text>
</a>
</g>
</g>
<!-- Node0&#45;&gt;Node6 -->
<g id="edge386_Node000000_Node000006" class="edge">
<title>Node0&#45;&gt;Node6</title>
<g id="a_edge386_Node000000_Node000006"><a xlink:title=" ">
<path fill="none" stroke="#63b8ff" d="M97.71,-249.44C105.53,-248.3 113.74,-247.1 122.02,-245.9"/>
<polygon fill="#63b8ff" stroke="#63b8ff" points="97.47,-245.94 88.08,-250.85 98.48,-252.87 97.47,-245.94"/>
</a>
</g>
</g>
<!-- Node7 -->
<g id="Node000007" class="node">
<title>Node7</title>
<g id="a_Node000007"><a xlink:href="classDGtal_1_1ImageContainerBySTLVector.html" target="_top" xlink:title=" ">
<polygon fill="white" stroke="#666666" points="296.75,-199.5 122.5,-199.5 122.5,-169 296.75,-169 296.75,-199.5"/>
<text xml:space="preserve" text-anchor="start" x="130.5" y="-186" font-family="FreeSans" font-size="10.00">DGtal::ImageContainerBySTLVector</text>
<text xml:space="preserve" text-anchor="middle" x="209.62" y="-174.75" font-family="FreeSans" font-size="10.00">&lt; Z2i::Domain, DGtal::int32_t &gt;</text>
</a>
</g>
</g>
<!-- Node0&#45;&gt;Node7 -->
<g id="edge387_Node000000_Node000007" class="edge">
<title>Node0&#45;&gt;Node7</title>
<g id="a_edge387_Node000000_Node000007"><a xlink:title=" ">
<path fill="none" stroke="#63b8ff" d="M67.14,-240.94C82.28,-230.73 102.89,-217.92 122.5,-209.25 130.33,-205.79 138.77,-202.66 147.2,-199.88"/>
<polygon fill="#63b8ff" stroke="#63b8ff" points="65.54,-237.79 59.29,-246.35 69.51,-243.56 65.54,-237.79"/>
</a>
</g>
</g>
<!-- Node8 -->
<g id="Node000008" class="node">
<title>Node8</title>
<g id="a_Node000008"><a xlink:href="classDGtal_1_1ImageContainerBySTLVector.html" target="_top" xlink:title=" ">
<polygon fill="white" stroke="#666666" points="296.75,-150.75 122.5,-150.75 122.5,-97.75 296.75,-97.75 296.75,-150.75"/>
<text xml:space="preserve" text-anchor="start" x="130.5" y="-137.25" font-family="FreeSans" font-size="10.00">DGtal::ImageContainerBySTLVector</text>
<text xml:space="preserve" text-anchor="start" x="130.5" y="-126" font-family="FreeSans" font-size="10.00">&lt; HyperRectDomain&lt; Z2i::Space</text>
<text xml:space="preserve" text-anchor="start" x="130.5" y="-114.75" font-family="FreeSans" font-size="10.00"> &gt;, std::unordered_set&lt; Z2i::</text>
<text xml:space="preserve" text-anchor="middle" x="209.62" y="-103.5" font-family="FreeSans" font-size="10.00">Point &gt; &gt;</text>
</a>
</g>
</g>
<!-- Node0&#45;&gt;Node8 -->
<g id="edge388_Node000000_Node000008" class="edge">
<title>Node0&#45;&gt;Node8</title>
<g id="a_edge388_Node000000_Node000008"><a xlink:title=" ">
<path fill="none" stroke="#63b8ff" d="M55.82,-237.69C69.41,-216.18 93.78,-181.81 122.5,-160.25 126.91,-156.94 131.66,-153.88 136.6,-151.05"/>
<polygon fill="#63b8ff" stroke="#63b8ff" points="52.92,-235.73 50.68,-246.08 58.89,-239.39 52.92,-235.73"/>
</a>
</g>
</g>
<!-- Node9 -->
<g id="Node000009" class="node">
<title>Node9</title>
<g id="a_Node000009"><a xlink:href="classDGtal_1_1ImageContainerBySTLVector.html" target="_top" xlink:title=" ">
<polygon fill="white" stroke="#666666" points="296.75,-79.5 122.5,-79.5 122.5,-49 296.75,-49 296.75,-79.5"/>
<text xml:space="preserve" text-anchor="start" x="130.5" y="-66" font-family="FreeSans" font-size="10.00">DGtal::ImageContainerBySTLVector</text>
<text xml:space="preserve" text-anchor="middle" x="209.62" y="-54.75" font-family="FreeSans" font-size="10.00">&lt; Z2i::Domain, int &gt;</text>
</a>
</g>
</g>
<!-- Node0&#45;&gt;Node9 -->
<g id="edge389_Node000000_Node000009" class="edge">
<title>Node0&#45;&gt;Node9</title>
<g id="a_edge389_Node000000_Node000009"><a xlink:title=" ">
<path fill="none" stroke="#63b8ff" d="M48.18,-236.24C55.93,-200.65 76.61,-128.59 122.5,-89.25 126.76,-85.6 131.52,-82.49 136.56,-79.82"/>
<polygon fill="#63b8ff" stroke="#63b8ff" points="44.82,-235.21 46.25,-245.7 51.68,-236.6 44.82,-235.21"/>
</a>
</g>
</g>
<!-- Node10 -->
<g id="Node000010" class="node">
<title>Node10</title>
<g id="a_Node000010"><a xlink:href="classDGtal_1_1ImageContainerBySTLVector.html" target="_top" xlink:title=" ">
<polygon fill="white" stroke="#666666" points="296.75,-30.5 122.5,-30.5 122.5,0 296.75,0 296.75,-30.5"/>
<text xml:space="preserve" text-anchor="start" x="130.5" y="-17" font-family="FreeSans" font-size="10.00">DGtal::ImageContainerBySTLVector</text>
<text xml:space="preserve" text-anchor="middle" x="209.62" y="-5.75" font-family="FreeSans" font-size="10.00">&lt; TDomain, TValue &gt;</text>
</a>
</g>
</g>
<!-- Node0&#45;&gt;Node10 -->
<g id="edge390_Node000000_Node000010" class="edge">
<title>Node0&#45;&gt;Node10</title>
<g id="a_edge390_Node000000_Node000010"><a xlink:title=" ">
<path fill="none" stroke="#63b8ff" d="M45.69,-236.04C49.77,-192.8 65.21,-94.01 122.5,-40.25 126.36,-36.63 130.71,-33.53 135.36,-30.87"/>
<polygon fill="#63b8ff" stroke="#63b8ff" points="42.21,-235.59 44.89,-245.84 49.19,-236.16 42.21,-235.59"/>
</a>
</g>
</g>
</g>
</svg>
