<?xml version="1.0" encoding="UTF-8" standalone="no"?>
<!DOCTYPE svg PUBLIC "-//W3C//DTD SVG 1.1//EN"
 "http://www.w3.org/Graphics/SVG/1.1/DTD/svg11.dtd">
<!-- Generated by graphviz version 7.0.1 (20221109.1506)
 -->
<!-- Title: Graphical Class Hierarchy Pages: 1 -->
<svg width="325pt" height="898pt"
 viewBox="0.00 0.00 325.00 898.00" xmlns="http://www.w3.org/2000/svg" xmlns:xlink="http://www.w3.org/1999/xlink">
<g id="graph0" class="graph" transform="scale(1 1) rotate(0) translate(4 894)">
<title>Graphical Class Hierarchy</title>
<!-- Node0 -->
<g id="node1" class="node">
<title>Node0</title>
<g id="a_node1"><a xlink:title=" ">
<polygon fill="#e0e0e0" stroke="#999999" points="111,-504 0,-504 0,-485 111,-485 111,-504"/>
<text text-anchor="middle" x="55.5" y="-492" font-family="FreeSans" font-size="10.00">boost::iterator_facade</text>
</a>
</g>
</g>
<!-- Node1 -->
<g id="node2" class="node">
<title>Node1</title>
<g id="a_node2"><a xlink:href="classDGtal_1_1ArithmeticalDSL_1_1ConstIterator.html" target="_top" xlink:title="Aim: This class aims at representing an iterator that provides a way to scan the points of a DSL....">
<polygon fill="white" stroke="#666666" points="300,-890 164,-890 164,-849 300,-849 300,-890"/>
<text text-anchor="start" x="172" y="-878" font-family="FreeSans" font-size="10.00">DGtal::ArithmeticalDSL</text>
<text text-anchor="start" x="172" y="-867" font-family="FreeSans" font-size="10.00">&lt; TCoordinate, TInteger,</text>
<text text-anchor="middle" x="232" y="-856" font-family="FreeSans" font-size="10.00"> adjacency &gt;::ConstIterator</text>
</a>
</g>
</g>
<!-- Node0&#45;&gt;Node1 -->
<g id="edge1" class="edge">
<title>Node0&#45;&gt;Node1</title>
<path fill="none" stroke="#63b8ff" d="M59.4,-515.71C69.03,-583.26 101.91,-791.82 147,-840.5 151.82,-845.71 157.62,-849.98 163.9,-853.48"/>
<polygon fill="#63b8ff" stroke="#63b8ff" points="62.89,-515.4 58.04,-505.98 55.96,-516.37 62.89,-515.4"/>
</g>
<!-- Node2 -->
<g id="node3" class="node">
<title>Node2</title>
<g id="a_node3"><a xlink:href="structDGtal_1_1CubicalComplex_1_1ConstIterator.html" target="_top" xlink:title=" ">
<polygon fill="white" stroke="#666666" points="300.5,-831 163.5,-831 163.5,-790 300.5,-790 300.5,-831"/>
<text text-anchor="start" x="171.5" y="-819" font-family="FreeSans" font-size="10.00">DGtal::CubicalComplex</text>
<text text-anchor="start" x="171.5" y="-808" font-family="FreeSans" font-size="10.00">&lt; TKSpace, TCellContainer</text>
<text text-anchor="middle" x="232" y="-797" font-family="FreeSans" font-size="10.00"> &gt;::ConstIterator</text>
</a>
</g>
</g>
<!-- Node0&#45;&gt;Node2 -->
<g id="edge2" class="edge">
<title>Node0&#45;&gt;Node2</title>
<path fill="none" stroke="#63b8ff" d="M56.99,-515.97C59.37,-568.58 72.76,-705.23 147,-781.5 151.73,-786.36 157.32,-790.41 163.33,-793.78"/>
<polygon fill="#63b8ff" stroke="#63b8ff" points="60.49,-515.87 56.65,-506 53.5,-516.11 60.49,-515.87"/>
</g>
<!-- Node3 -->
<g id="node4" class="node">
<title>Node3</title>
<g id="a_node4"><a xlink:href="structDGtal_1_1CubicalComplex_1_1Iterator.html" target="_top" xlink:title=" ">
<polygon fill="white" stroke="#666666" points="300.5,-772 163.5,-772 163.5,-731 300.5,-731 300.5,-772"/>
<text text-anchor="start" x="171.5" y="-760" font-family="FreeSans" font-size="10.00">DGtal::CubicalComplex</text>
<text text-anchor="start" x="171.5" y="-749" font-family="FreeSans" font-size="10.00">&lt; TKSpace, TCellContainer</text>
<text text-anchor="middle" x="232" y="-738" font-family="FreeSans" font-size="10.00"> &gt;::Iterator</text>
</a>
</g>
</g>
<!-- Node0&#45;&gt;Node3 -->
<g id="edge3" class="edge">
<title>Node0&#45;&gt;Node3</title>
<path fill="none" stroke="#63b8ff" d="M59.07,-515.53C65.57,-559.81 86.68,-663.34 147,-721.5 151.79,-726.12 157.35,-730.04 163.27,-733.35"/>
<polygon fill="#63b8ff" stroke="#63b8ff" points="62.55,-515.19 57.75,-505.75 55.62,-516.13 62.55,-515.19"/>
</g>
<!-- Node4 -->
<g id="node5" class="node">
<title>Node4</title>
<g id="a_node5"><a xlink:href="classDGtal_1_1HyperRectDomain__Iterator.html" target="_top" xlink:title="Iterator for HyperRectDomain.">
<polygon fill="white" stroke="#666666" points="296.5,-712.5 167.5,-712.5 167.5,-682.5 296.5,-682.5 296.5,-712.5"/>
<text text-anchor="start" x="175.5" y="-700.5" font-family="FreeSans" font-size="10.00">DGtal::HyperRectDomain</text>
<text text-anchor="middle" x="232" y="-689.5" font-family="FreeSans" font-size="10.00">_Iterator&lt; TPoint &gt;</text>
</a>
</g>
</g>
<!-- Node0&#45;&gt;Node4 -->
<g id="edge4" class="edge">
<title>Node0&#45;&gt;Node4</title>
<path fill="none" stroke="#63b8ff" d="M61.2,-515.38C70.72,-552.78 95.87,-631.26 147,-673.5 152.96,-678.43 159.88,-682.34 167.14,-685.46"/>
<polygon fill="#63b8ff" stroke="#63b8ff" points="64.65,-514.75 58.91,-505.85 57.85,-516.39 64.65,-514.75"/>
</g>
<!-- Node5 -->
<g id="node6" class="node">
<title>Node5</title>
<g id="a_node6"><a xlink:href="classDGtal_1_1HyperRectDomain__ReverseIterator.html" target="_top" xlink:title="Reverse iterator for HyperRectDomain.">
<polygon fill="white" stroke="#666666" points="304,-664.5 160,-664.5 160,-634.5 304,-634.5 304,-664.5"/>
<text text-anchor="start" x="168" y="-652.5" font-family="FreeSans" font-size="10.00">DGtal::HyperRectDomain</text>
<text text-anchor="middle" x="232" y="-641.5" font-family="FreeSans" font-size="10.00">_ReverseIterator&lt; TIterator &gt;</text>
</a>
</g>
</g>
<!-- Node0&#45;&gt;Node5 -->
<g id="edge5" class="edge">
<title>Node0&#45;&gt;Node5</title>
<path fill="none" stroke="#63b8ff" d="M65.16,-514.95C78.47,-543.93 106.73,-596.61 147,-625.5 151.56,-628.77 156.56,-631.6 161.77,-634.04"/>
<polygon fill="#63b8ff" stroke="#63b8ff" points="68.37,-513.56 61.13,-505.83 61.97,-516.4 68.37,-513.56"/>
</g>
<!-- Node6 -->
<g id="node7" class="node">
<title>Node6</title>
<g id="a_node7"><a xlink:href="classDGtal_1_1HyperRectDomain__subIterator.html" target="_top" xlink:title=" ">
<polygon fill="white" stroke="#666666" points="296.5,-616.5 167.5,-616.5 167.5,-586.5 296.5,-586.5 296.5,-616.5"/>
<text text-anchor="start" x="175.5" y="-604.5" font-family="FreeSans" font-size="10.00">DGtal::HyperRectDomain</text>
<text text-anchor="middle" x="232" y="-593.5" font-family="FreeSans" font-size="10.00">_subIterator&lt; TPoint &gt;</text>
</a>
</g>
</g>
<!-- Node0&#45;&gt;Node6 -->
<g id="edge6" class="edge">
<title>Node0&#45;&gt;Node6</title>
<path fill="none" stroke="#63b8ff" d="M71.79,-512.84C88.44,-531.68 116.76,-560.58 147,-577.5 153.35,-581.06 160.28,-584.12 167.33,-586.76"/>
<polygon fill="#63b8ff" stroke="#63b8ff" points="74.56,-510.7 65.38,-505.41 69.26,-515.27 74.56,-510.7"/>
</g>
<!-- Node7 -->
<g id="node8" class="node">
<title>Node7</title>
<g id="a_node8"><a xlink:href="classDGtal_1_1IntegerSequenceIterator.html" target="_top" xlink:title="Aim: It is a simple class that mimics a (non mutable) iterator over integers. You can increment it,...">
<polygon fill="white" stroke="#666666" points="308,-568.5 156,-568.5 156,-538.5 308,-538.5 308,-568.5"/>
<text text-anchor="start" x="164" y="-556.5" font-family="FreeSans" font-size="10.00">DGtal::IntegerSequenceIterator</text>
<text text-anchor="middle" x="232" y="-545.5" font-family="FreeSans" font-size="10.00">&lt; TInteger &gt;</text>
</a>
</g>
</g>
<!-- Node0&#45;&gt;Node7 -->
<g id="edge7" class="edge">
<title>Node0&#45;&gt;Node7</title>
<path fill="none" stroke="#63b8ff" d="M90.91,-508.65C107.7,-515.34 128.27,-523.22 147,-529.5 155.77,-532.44 165.13,-535.35 174.3,-538.06"/>
<polygon fill="#63b8ff" stroke="#63b8ff" points="92.47,-505.51 81.89,-505.02 89.86,-512 92.47,-505.51"/>
</g>
<!-- Node8 -->
<g id="node9" class="node">
<title>Node8</title>
<g id="a_node9"><a xlink:href="structDGtal_1_1UnorderedSetByBlock_1_1const__iterator.html" target="_top" xlink:title="Read iterator on set elements. Model of ForwardIterator.">
<polygon fill="white" stroke="#666666" points="317,-520.5 147,-520.5 147,-468.5 317,-468.5 317,-520.5"/>
<text text-anchor="start" x="155" y="-508.5" font-family="FreeSans" font-size="10.00">DGtal::UnorderedSetByBlock</text>
<text text-anchor="start" x="155" y="-497.5" font-family="FreeSans" font-size="10.00">&lt; Key, TSplitter, Hash,</text>
<text text-anchor="start" x="155" y="-486.5" font-family="FreeSans" font-size="10.00"> KeyEqual, UnorderedMapAllocator</text>
<text text-anchor="middle" x="232" y="-475.5" font-family="FreeSans" font-size="10.00"> &gt;::const_iterator</text>
</a>
</g>
</g>
<!-- Node0&#45;&gt;Node8 -->
<g id="edge8" class="edge">
<title>Node0&#45;&gt;Node8</title>
<path fill="none" stroke="#63b8ff" d="M122.59,-494.5C130.49,-494.5 138.63,-494.5 146.74,-494.5"/>
<polygon fill="#63b8ff" stroke="#63b8ff" points="122.75,-491 112.75,-494.5 122.75,-498 122.75,-491"/>
</g>
<!-- Node9 -->
<g id="node10" class="node">
<title>Node9</title>
<g id="a_node10"><a xlink:href="structDGtal_1_1UnorderedSetByBlock_1_1iterator.html" target="_top" xlink:title="Read&#45;write iterator on set elements. Model of ForwardIterator.">
<polygon fill="white" stroke="#666666" points="317,-450.5 147,-450.5 147,-398.5 317,-398.5 317,-450.5"/>
<text text-anchor="start" x="155" y="-438.5" font-family="FreeSans" font-size="10.00">DGtal::UnorderedSetByBlock</text>
<text text-anchor="start" x="155" y="-427.5" font-family="FreeSans" font-size="10.00">&lt; Key, TSplitter, Hash,</text>
<text text-anchor="start" x="155" y="-416.5" font-family="FreeSans" font-size="10.00"> KeyEqual, UnorderedMapAllocator</text>
<text text-anchor="middle" x="232" y="-405.5" font-family="FreeSans" font-size="10.00"> &gt;::iterator</text>
</a>
</g>
</g>
<!-- Node0&#45;&gt;Node9 -->
<g id="edge9" class="edge">
<title>Node0&#45;&gt;Node9</title>
<path fill="none" stroke="#63b8ff" d="M91.81,-480.34C112.85,-471.9 140.22,-460.92 165.11,-450.93"/>
<polygon fill="#63b8ff" stroke="#63b8ff" points="90.51,-477.08 82.54,-484.06 93.12,-483.58 90.51,-477.08"/>
</g>
<!-- Node10 -->
<g id="node11" class="node">
<title>Node10</title>
<g id="a_node11"><a xlink:href="classboost_1_1graph__traits_3_01DGtal_1_1DigitalSurface_3_01TDigitalSurfaceContainer_01_4_01_4_1_1adjacency__iterator.html" target="_top" xlink:title=" ">
<polygon fill="white" stroke="#666666" points="299.5,-380.5 164.5,-380.5 164.5,-328.5 299.5,-328.5 299.5,-380.5"/>
<text text-anchor="start" x="172.5" y="-368.5" font-family="FreeSans" font-size="10.00">boost::graph_traits</text>
<text text-anchor="start" x="172.5" y="-357.5" font-family="FreeSans" font-size="10.00">&lt; DGtal::DigitalSurface</text>
<text text-anchor="start" x="172.5" y="-346.5" font-family="FreeSans" font-size="10.00">&lt; TDigitalSurfaceContainer</text>
<text text-anchor="middle" x="232" y="-335.5" font-family="FreeSans" font-size="10.00"> &gt; &gt;::adjacency_iterator</text>
</a>
</g>
</g>
<!-- Node0&#45;&gt;Node10 -->
<g id="edge10" class="edge">
<title>Node0&#45;&gt;Node10</title>
<path fill="none" stroke="#63b8ff" d="M68.83,-475.38C84.55,-452.31 113.71,-413.63 147,-389.5 152.37,-385.61 158.24,-382.05 164.3,-378.82"/>
<polygon fill="#63b8ff" stroke="#63b8ff" points="66.05,-473.25 63.43,-483.51 71.88,-477.12 66.05,-473.25"/>
</g>
<!-- Node11 -->
<g id="node12" class="node">
<title>Node11</title>
<g id="a_node12"><a xlink:href="classboost_1_1graph__traits_3_01DGtal_1_1DigitalSurface_3_01TDigitalSurfaceContainer_01_4_01_4_1_1edge__iterator.html" target="_top" xlink:title=" ">
<polygon fill="white" stroke="#666666" points="299.5,-310.5 164.5,-310.5 164.5,-258.5 299.5,-258.5 299.5,-310.5"/>
<text text-anchor="start" x="172.5" y="-298.5" font-family="FreeSans" font-size="10.00">boost::graph_traits</text>
<text text-anchor="start" x="172.5" y="-287.5" font-family="FreeSans" font-size="10.00">&lt; DGtal::DigitalSurface</text>
<text text-anchor="start" x="172.5" y="-276.5" font-family="FreeSans" font-size="10.00">&lt; TDigitalSurfaceContainer</text>
<text text-anchor="middle" x="232" y="-265.5" font-family="FreeSans" font-size="10.00"> &gt; &gt;::edge_iterator</text>
</a>
</g>
</g>
<!-- Node0&#45;&gt;Node11 -->
<g id="edge11" class="edge">
<title>Node0&#45;&gt;Node11</title>
<path fill="none" stroke="#63b8ff" d="M62.12,-473.67C72.85,-437.61 99.51,-363.23 147,-319.5 152.11,-314.79 157.95,-310.67 164.11,-307.07"/>
<polygon fill="#63b8ff" stroke="#63b8ff" points="58.76,-472.68 59.4,-483.25 65.5,-474.59 58.76,-472.68"/>
</g>
<!-- Node12 -->
<g id="node13" class="node">
<title>Node12</title>
<g id="a_node13"><a xlink:href="classboost_1_1graph__traits_3_01DGtal_1_1DigitalSurface_3_01TDigitalSurfaceContainer_01_4_01_4_1_1out__edge__iterator.html" target="_top" xlink:title=" ">
<polygon fill="white" stroke="#666666" points="299.5,-240.5 164.5,-240.5 164.5,-188.5 299.5,-188.5 299.5,-240.5"/>
<text text-anchor="start" x="172.5" y="-228.5" font-family="FreeSans" font-size="10.00">boost::graph_traits</text>
<text text-anchor="start" x="172.5" y="-217.5" font-family="FreeSans" font-size="10.00">&lt; DGtal::DigitalSurface</text>
<text text-anchor="start" x="172.5" y="-206.5" font-family="FreeSans" font-size="10.00">&lt; TDigitalSurfaceContainer</text>
<text text-anchor="middle" x="232" y="-195.5" font-family="FreeSans" font-size="10.00"> &gt; &gt;::out_edge_iterator</text>
</a>
</g>
</g>
<!-- Node0&#45;&gt;Node12 -->
<g id="edge12" class="edge">
<title>Node0&#45;&gt;Node12</title>
<path fill="none" stroke="#63b8ff" d="M58.65,-473.34C64.44,-426.83 84.43,-314.69 147,-249.5 152.03,-244.26 157.97,-239.77 164.32,-235.93"/>
<polygon fill="#63b8ff" stroke="#63b8ff" points="55.19,-472.79 57.54,-483.12 62.14,-473.58 55.19,-472.79"/>
</g>
<!-- Node13 -->
<g id="node14" class="node">
<title>Node13</title>
<g id="a_node14"><a xlink:href="classboost_1_1graph__traits_3_01DGtal_1_1Object_3_01TDigitalTopology_00_01TDigitalSet_01_4_01_4_1_1adjacency__iterator.html" target="_top" xlink:title=" ">
<polygon fill="white" stroke="#666666" points="316.5,-170.5 147.5,-170.5 147.5,-118.5 316.5,-118.5 316.5,-170.5"/>
<text text-anchor="start" x="155.5" y="-158.5" font-family="FreeSans" font-size="10.00">boost::graph_traits</text>
<text text-anchor="start" x="155.5" y="-147.5" font-family="FreeSans" font-size="10.00">&lt; DGtal::Object&lt; TDigitalTopology,</text>
<text text-anchor="start" x="155.5" y="-136.5" font-family="FreeSans" font-size="10.00"> TDigitalSet &gt; &gt;::adjacency</text>
<text text-anchor="middle" x="232" y="-125.5" font-family="FreeSans" font-size="10.00">_iterator</text>
</a>
</g>
</g>
<!-- Node0&#45;&gt;Node13 -->
<g id="edge13" class="edge">
<title>Node0&#45;&gt;Node13</title>
<path fill="none" stroke="#63b8ff" d="M56.58,-473.15C57.94,-417.63 69.02,-267 147,-179.5 149.84,-176.32 153.01,-173.41 156.42,-170.77"/>
<polygon fill="#63b8ff" stroke="#63b8ff" points="53.09,-473.02 56.44,-483.07 60.09,-473.12 53.09,-473.02"/>
</g>
<!-- Node14 -->
<g id="node15" class="node">
<title>Node14</title>
<g id="a_node15"><a xlink:href="classboost_1_1graph__traits_3_01DGtal_1_1Object_3_01TDigitalTopology_00_01TDigitalSet_01_4_01_4_1_1edge__iterator.html" target="_top" xlink:title=" ">
<polygon fill="white" stroke="#666666" points="316.5,-100 147.5,-100 147.5,-59 316.5,-59 316.5,-100"/>
<text text-anchor="start" x="155.5" y="-88" font-family="FreeSans" font-size="10.00">boost::graph_traits</text>
<text text-anchor="start" x="155.5" y="-77" font-family="FreeSans" font-size="10.00">&lt; DGtal::Object&lt; TDigitalTopology,</text>
<text text-anchor="middle" x="232" y="-66" font-family="FreeSans" font-size="10.00"> TDigitalSet &gt; &gt;::edge_iterator</text>
</a>
</g>
</g>
<!-- Node0&#45;&gt;Node14 -->
<g id="edge14" class="edge">
<title>Node0&#45;&gt;Node14</title>
<path fill="none" stroke="#63b8ff" d="M58.82,-473.32C67.12,-400.93 97.58,-164.8 147,-109.5 150.1,-106.04 153.62,-102.97 157.43,-100.26"/>
<polygon fill="#63b8ff" stroke="#63b8ff" points="55.37,-472.68 57.73,-483.01 62.32,-473.46 55.37,-472.68"/>
</g>
<!-- Node15 -->
<g id="node16" class="node">
<title>Node15</title>
<g id="a_node16"><a xlink:href="classboost_1_1graph__traits_3_01DGtal_1_1Object_3_01TDigitalTopology_00_01TDigitalSet_01_4_01_4_1_1out__edge__iterator.html" target="_top" xlink:title=" ">
<polygon fill="white" stroke="#666666" points="316.5,-41 147.5,-41 147.5,0 316.5,0 316.5,-41"/>
<text text-anchor="start" x="155.5" y="-29" font-family="FreeSans" font-size="10.00">boost::graph_traits</text>
<text text-anchor="start" x="155.5" y="-18" font-family="FreeSans" font-size="10.00">&lt; DGtal::Object&lt; TDigitalTopology,</text>
<text text-anchor="middle" x="232" y="-7" font-family="FreeSans" font-size="10.00"> TDigitalSet &gt; &gt;::out_edge_iterator</text>
</a>
</g>
</g>
<!-- Node0&#45;&gt;Node15 -->
<g id="edge15" class="edge">
<title>Node0&#45;&gt;Node15</title>
<path fill="none" stroke="#63b8ff" d="M58.1,-473.24C64.5,-393.78 90.61,-115.52 147,-50.5 149.94,-47.11 153.3,-44.1 156.93,-41.43"/>
<polygon fill="#63b8ff" stroke="#63b8ff" points="54.62,-472.84 57.34,-483.08 61.6,-473.38 54.62,-472.84"/>
</g>
</g>
</svg>
