<?xml version="1.0" encoding="UTF-8" standalone="no"?>
<!DOCTYPE svg PUBLIC "-//W3C//DTD SVG 1.1//EN"
 "http://www.w3.org/Graphics/SVG/1.1/DTD/svg11.dtd">
<!-- Generated by graphviz version 7.0.1 (20221109.1506)
 -->
<!-- Title: Graphical Class Hierarchy Pages: 1 -->
<svg width="277pt" height="86pt"
 viewBox="0.00 0.00 277.00 86.00" xmlns="http://www.w3.org/2000/svg" xmlns:xlink="http://www.w3.org/1999/xlink">
<g id="graph0" class="graph" transform="scale(1 1) rotate(0) translate(4 82)">
<title>Graphical Class Hierarchy</title>
<!-- Node0 -->
<g id="node1" class="node">
<title>Node0</title>
<g id="a_node1"><a xlink:href="structDGtal_1_1NumberTraitsImpl.html" target="_top" xlink:title="Aim: The traits class for all models of Cinteger (implementation)">
<polygon fill="white" stroke="#666666" points="126,-54 0,-54 0,-24 126,-24 126,-54"/>
<text text-anchor="start" x="8" y="-42" font-family="FreeSans" font-size="10.00">DGtal::NumberTraitsImpl</text>
<text text-anchor="middle" x="63" y="-31" font-family="FreeSans" font-size="10.00">&lt; T, Enable &gt;</text>
</a>
</g>
</g>
<!-- Node1 -->
<g id="node2" class="node">
<title>Node1</title>
<g id="a_node2"><a xlink:href="structDGtal_1_1NumberTraits.html" target="_top" xlink:title=" ">
<polygon fill="white" stroke="#666666" points="269,-78 162,-78 162,-48 269,-48 269,-78"/>
<text text-anchor="start" x="170" y="-66" font-family="FreeSans" font-size="10.00">DGtal::NumberTraits</text>
<text text-anchor="middle" x="215.5" y="-55" font-family="FreeSans" font-size="10.00">&lt; Integer &gt;</text>
</a>
</g>
</g>
<!-- Node0&#45;&gt;Node1 -->
<g id="edge1" class="edge">
<title>Node0&#45;&gt;Node1</title>
<path fill="none" stroke="#63b8ff" d="M137.26,-50.68C145.5,-52 153.77,-53.32 161.67,-54.58"/>
<polygon fill="#63b8ff" stroke="#63b8ff" points="138,-47.26 127.58,-49.14 136.9,-54.17 138,-47.26"/>
</g>
<!-- Node2 -->
<g id="node3" class="node">
<title>Node2</title>
<g id="a_node3"><a xlink:href="structDGtal_1_1NumberTraits.html" target="_top" xlink:title=" ">
<polygon fill="white" stroke="#666666" points="269,-30 162,-30 162,0 269,0 269,-30"/>
<text text-anchor="start" x="170" y="-18" font-family="FreeSans" font-size="10.00">DGtal::NumberTraits</text>
<text text-anchor="middle" x="215.5" y="-7" font-family="FreeSans" font-size="10.00">&lt; TInteger &gt;</text>
</a>
</g>
</g>
<!-- Node0&#45;&gt;Node2 -->
<g id="edge2" class="edge">
<title>Node0&#45;&gt;Node2</title>
<path fill="none" stroke="#63b8ff" d="M137.26,-27.32C145.5,-26 153.77,-24.68 161.67,-23.42"/>
<polygon fill="#63b8ff" stroke="#63b8ff" points="136.9,-23.83 127.58,-28.86 138,-30.74 136.9,-23.83"/>
</g>
</g>
</svg>
