<?xml version="1.0" encoding="UTF-8" standalone="no"?>
<!DOCTYPE svg PUBLIC "-//W3C//DTD SVG 1.1//EN"
 "http://www.w3.org/Graphics/SVG/1.1/DTD/svg11.dtd">
<!-- Generated by graphviz version 14.1.0 (20251206.1807)
 -->
<!-- Title: Graphical Class Hierarchy Pages: 1 -->
<svg width="305pt" height="551pt"
 viewBox="0.00 0.00 305.00 551.00" xmlns="http://www.w3.org/2000/svg" xmlns:xlink="http://www.w3.org/1999/xlink">
<g id="graph0" class="graph" transform="scale(1 1) rotate(0) translate(4 546.5)">
<title>Graphical Class Hierarchy</title>
<!-- Node0 -->
<g id="Node000000" class="node">
<title>Node0</title>
<g id="a_Node000000"><a xlink:title=" ">
<polygon fill="#e0e0e0" stroke="#999999" points="86.5,-291.88 0,-291.88 0,-272.62 86.5,-272.62 86.5,-291.88"/>
<text xml:space="preserve" text-anchor="middle" x="43.25" y="-278.38" font-family="FreeSans" font-size="10.00">std::vector&lt; T &gt;</text>
</a>
</g>
</g>
<!-- Node1 -->
<g id="Node000001" class="node">
<title>Node1</title>
<g id="a_Node000001"><a xlink:href="classDGtal_1_1ImageContainerBySTLVector.html" target="_top" xlink:title=" ">
<polygon fill="white" stroke="#666666" points="296.75,-542.5 122.5,-542.5 122.5,-512 296.75,-512 296.75,-542.5"/>
<text xml:space="preserve" text-anchor="start" x="130.5" y="-529" font-family="FreeSans" font-size="10.00">DGtal::ImageContainerBySTLVector</text>
<text xml:space="preserve" text-anchor="middle" x="209.62" y="-517.75" font-family="FreeSans" font-size="10.00">&lt; Domain, Storage * &gt;</text>
</a>
</g>
</g>
<!-- Node0&#45;&gt;Node1 -->
<g id="edge392_Node000000_Node000001" class="edge">
<title>Node0&#45;&gt;Node1</title>
<g id="a_edge392_Node000000_Node000001"><a xlink:title=" ">
<path fill="none" stroke="#63b8ff" d="M45.59,-303.74C49.5,-347.57 64.63,-447.71 122.5,-502.25 126.35,-505.88 130.7,-508.99 135.34,-511.65"/>
<polygon fill="#63b8ff" stroke="#63b8ff" points="49.08,-303.5 44.83,-293.8 42.1,-304.03 49.08,-303.5"/>
</a>
</g>
</g>
<!-- Node2 -->
<g id="Node000002" class="node">
<title>Node2</title>
<g id="a_Node000002"><a xlink:href="classDGtal_1_1ImageContainerBySTLVector.html" target="_top" xlink:title=" ">
<polygon fill="white" stroke="#666666" points="296.75,-493.5 122.5,-493.5 122.5,-463 296.75,-463 296.75,-493.5"/>
<text xml:space="preserve" text-anchor="start" x="130.5" y="-480" font-family="FreeSans" font-size="10.00">DGtal::ImageContainerBySTLVector</text>
<text xml:space="preserve" text-anchor="middle" x="209.62" y="-468.75" font-family="FreeSans" font-size="10.00">&lt; Domain, bool &gt;</text>
</a>
</g>
</g>
<!-- Node0&#45;&gt;Node2 -->
<g id="edge393_Node000000_Node000002" class="edge">
<title>Node0&#45;&gt;Node2</title>
<g id="a_edge393_Node000000_Node000002"><a xlink:title=" ">
<path fill="none" stroke="#63b8ff" d="M47.96,-303.12C55.45,-339.14 75.85,-412.99 122.5,-453.25 126.74,-456.91 131.5,-460.04 136.53,-462.71"/>
<polygon fill="#63b8ff" stroke="#63b8ff" points="51.44,-302.71 46.11,-293.56 44.57,-304.04 51.44,-302.71"/>
</a>
</g>
</g>
<!-- Node3 -->
<g id="Node000003" class="node">
<title>Node3</title>
<g id="a_Node000003"><a xlink:href="classDGtal_1_1ImageContainerBySTLVector.html" target="_top" xlink:title=" ">
<polygon fill="white" stroke="#666666" points="296.75,-444.5 122.5,-444.5 122.5,-414 296.75,-414 296.75,-444.5"/>
<text xml:space="preserve" text-anchor="start" x="130.5" y="-431" font-family="FreeSans" font-size="10.00">DGtal::ImageContainerBySTLVector</text>
<text xml:space="preserve" text-anchor="middle" x="209.62" y="-419.75" font-family="FreeSans" font-size="10.00">&lt; Domain, GrayScale &gt;</text>
</a>
</g>
</g>
<!-- Node0&#45;&gt;Node3 -->
<g id="edge394_Node000000_Node000003" class="edge">
<title>Node0&#45;&gt;Node3</title>
<g id="a_edge394_Node000000_Node000003"><a xlink:title=" ">
<path fill="none" stroke="#63b8ff" d="M52.01,-302.8C63.35,-330.04 87.03,-377.75 122.5,-404.25 127.36,-407.88 132.75,-410.99 138.37,-413.65"/>
<polygon fill="#63b8ff" stroke="#63b8ff" points="55.3,-301.59 48.35,-293.59 48.79,-304.18 55.3,-301.59"/>
</a>
</g>
</g>
<!-- Node4 -->
<g id="Node000004" class="node">
<title>Node4</title>
<g id="a_Node000004"><a xlink:href="classDGtal_1_1ImageContainerBySTLVector.html" target="_top" xlink:title=" ">
<polygon fill="white" stroke="#666666" points="296.75,-395.5 122.5,-395.5 122.5,-365 296.75,-365 296.75,-395.5"/>
<text xml:space="preserve" text-anchor="start" x="130.5" y="-382" font-family="FreeSans" font-size="10.00">DGtal::ImageContainerBySTLVector</text>
<text xml:space="preserve" text-anchor="middle" x="209.62" y="-370.75" font-family="FreeSans" font-size="10.00">&lt; Domain, float &gt;</text>
</a>
</g>
</g>
<!-- Node0&#45;&gt;Node4 -->
<g id="edge395_Node000000_Node000004" class="edge">
<title>Node0&#45;&gt;Node4</title>
<g id="a_edge395_Node000000_Node000004"><a xlink:title=" ">
<path fill="none" stroke="#63b8ff" d="M59.42,-300.65C73.98,-317.19 97.42,-341 122.5,-355.25 128.73,-358.79 135.5,-361.86 142.41,-364.52"/>
<polygon fill="#63b8ff" stroke="#63b8ff" points="62.43,-298.79 53.27,-293.47 57.11,-303.34 62.43,-298.79"/>
</a>
</g>
</g>
<!-- Node5 -->
<g id="Node000005" class="node">
<title>Node5</title>
<g id="a_Node000005"><a xlink:href="classDGtal_1_1ImageContainerBySTLVector.html" target="_top" xlink:title=" ">
<polygon fill="white" stroke="#666666" points="296.75,-346.5 122.5,-346.5 122.5,-316 296.75,-316 296.75,-346.5"/>
<text xml:space="preserve" text-anchor="start" x="130.5" y="-333" font-family="FreeSans" font-size="10.00">DGtal::ImageContainerBySTLVector</text>
<text xml:space="preserve" text-anchor="middle" x="209.62" y="-321.75" font-family="FreeSans" font-size="10.00">&lt; Domain, double &gt;</text>
</a>
</g>
</g>
<!-- Node0&#45;&gt;Node5 -->
<g id="edge396_Node000000_Node000005" class="edge">
<title>Node0&#45;&gt;Node5</title>
<g id="a_edge396_Node000000_Node000005"><a xlink:title=" ">
<path fill="none" stroke="#63b8ff" d="M87.57,-295.66C98.93,-299.15 111.16,-302.87 122.5,-306.25 132.64,-309.28 143.48,-312.46 153.92,-315.5"/>
<polygon fill="#63b8ff" stroke="#63b8ff" points="88.61,-292.32 78.02,-292.73 86.55,-299.01 88.61,-292.32"/>
</a>
</g>
</g>
<!-- Node6 -->
<g id="Node000006" class="node">
<title>Node6</title>
<g id="a_Node000006"><a xlink:href="classDGtal_1_1ImageContainerBySTLVector.html" target="_top" xlink:title=" ">
<polygon fill="white" stroke="#666666" points="296.75,-297.5 122.5,-297.5 122.5,-267 296.75,-267 296.75,-297.5"/>
<text xml:space="preserve" text-anchor="start" x="130.5" y="-284" font-family="FreeSans" font-size="10.00">DGtal::ImageContainerBySTLVector</text>
<text xml:space="preserve" text-anchor="middle" x="209.62" y="-272.75" font-family="FreeSans" font-size="10.00">&lt; Domain, Value &gt;</text>
</a>
</g>
</g>
<!-- Node0&#45;&gt;Node6 -->
<g id="edge397_Node000000_Node000006" class="edge">
<title>Node0&#45;&gt;Node6</title>
<g id="a_edge397_Node000000_Node000006"><a xlink:title=" ">
<path fill="none" stroke="#63b8ff" d="M97.98,-282.25C105.72,-282.25 113.84,-282.25 122.02,-282.25"/>
<polygon fill="#63b8ff" stroke="#63b8ff" points="98.09,-278.75 88.09,-282.25 98.09,-285.75 98.09,-278.75"/>
</a>
</g>
</g>
<!-- Node7 -->
<g id="Node000007" class="node">
<title>Node7</title>
<g id="a_Node000007"><a xlink:href="classDGtal_1_1ImageContainerBySTLVector.html" target="_top" xlink:title=" ">
<polygon fill="white" stroke="#666666" points="296.75,-248.5 122.5,-248.5 122.5,-218 296.75,-218 296.75,-248.5"/>
<text xml:space="preserve" text-anchor="start" x="130.5" y="-235" font-family="FreeSans" font-size="10.00">DGtal::ImageContainerBySTLVector</text>
<text xml:space="preserve" text-anchor="middle" x="209.62" y="-223.75" font-family="FreeSans" font-size="10.00">&lt; Z2i::Domain, DGtal::int32_t &gt;</text>
</a>
</g>
</g>
<!-- Node0&#45;&gt;Node7 -->
<g id="edge398_Node000000_Node000007" class="edge">
<title>Node0&#45;&gt;Node7</title>
<g id="a_edge398_Node000000_Node000007"><a xlink:title=" ">
<path fill="none" stroke="#63b8ff" d="M87.57,-268.84C98.93,-265.35 111.16,-261.63 122.5,-258.25 132.64,-255.22 143.48,-252.04 153.92,-249"/>
<polygon fill="#63b8ff" stroke="#63b8ff" points="86.55,-265.49 78.02,-271.77 88.61,-272.18 86.55,-265.49"/>
</a>
</g>
</g>
<!-- Node8 -->
<g id="Node000008" class="node">
<title>Node8</title>
<g id="a_Node000008"><a xlink:href="classDGtal_1_1ImageContainerBySTLVector.html" target="_top" xlink:title=" ">
<polygon fill="white" stroke="#666666" points="296.75,-199.5 122.5,-199.5 122.5,-169 296.75,-169 296.75,-199.5"/>
<text xml:space="preserve" text-anchor="start" x="130.5" y="-186" font-family="FreeSans" font-size="10.00">DGtal::ImageContainerBySTLVector</text>
<text xml:space="preserve" text-anchor="middle" x="209.62" y="-174.75" font-family="FreeSans" font-size="10.00">&lt; Z3i::Domain, double &gt;</text>
</a>
</g>
</g>
<!-- Node0&#45;&gt;Node8 -->
<g id="edge399_Node000000_Node000008" class="edge">
<title>Node0&#45;&gt;Node8</title>
<g id="a_edge399_Node000000_Node000008"><a xlink:title=" ">
<path fill="none" stroke="#63b8ff" d="M59.42,-263.85C73.98,-247.31 97.42,-223.5 122.5,-209.25 128.73,-205.71 135.5,-202.64 142.41,-199.98"/>
<polygon fill="#63b8ff" stroke="#63b8ff" points="57.11,-261.16 53.27,-271.03 62.43,-265.71 57.11,-261.16"/>
</a>
</g>
</g>
<!-- Node9 -->
<g id="Node000009" class="node">
<title>Node9</title>
<g id="a_Node000009"><a xlink:href="classDGtal_1_1ImageContainerBySTLVector.html" target="_top" xlink:title=" ">
<polygon fill="white" stroke="#666666" points="296.75,-150.75 122.5,-150.75 122.5,-97.75 296.75,-97.75 296.75,-150.75"/>
<text xml:space="preserve" text-anchor="start" x="130.5" y="-137.25" font-family="FreeSans" font-size="10.00">DGtal::ImageContainerBySTLVector</text>
<text xml:space="preserve" text-anchor="start" x="130.5" y="-126" font-family="FreeSans" font-size="10.00">&lt; HyperRectDomain&lt; Z2i::Space</text>
<text xml:space="preserve" text-anchor="start" x="130.5" y="-114.75" font-family="FreeSans" font-size="10.00"> &gt;, std::unordered_set&lt; Z2i::</text>
<text xml:space="preserve" text-anchor="middle" x="209.62" y="-103.5" font-family="FreeSans" font-size="10.00">Point &gt; &gt;</text>
</a>
</g>
</g>
<!-- Node0&#45;&gt;Node9 -->
<g id="edge400_Node000000_Node000009" class="edge">
<title>Node0&#45;&gt;Node9</title>
<g id="a_edge400_Node000000_Node000009"><a xlink:title=" ">
<path fill="none" stroke="#63b8ff" d="M52.65,-261.88C64.56,-235.22 88.75,-188.57 122.5,-160.25 126.47,-156.92 130.8,-153.85 135.32,-151.05"/>
<polygon fill="#63b8ff" stroke="#63b8ff" points="49.51,-260.32 48.77,-270.89 55.94,-263.09 49.51,-260.32"/>
</a>
</g>
</g>
<!-- Node10 -->
<g id="Node000010" class="node">
<title>Node10</title>
<g id="a_Node000010"><a xlink:href="classDGtal_1_1ImageContainerBySTLVector.html" target="_top" xlink:title=" ">
<polygon fill="white" stroke="#666666" points="296.75,-79.5 122.5,-79.5 122.5,-49 296.75,-49 296.75,-79.5"/>
<text xml:space="preserve" text-anchor="start" x="130.5" y="-66" font-family="FreeSans" font-size="10.00">DGtal::ImageContainerBySTLVector</text>
<text xml:space="preserve" text-anchor="middle" x="209.62" y="-54.75" font-family="FreeSans" font-size="10.00">&lt; Z2i::Domain, int &gt;</text>
</a>
</g>
</g>
<!-- Node0&#45;&gt;Node10 -->
<g id="edge401_Node000000_Node000010" class="edge">
<title>Node0&#45;&gt;Node10</title>
<g id="a_edge401_Node000000_Node000010"><a xlink:title=" ">
<path fill="none" stroke="#63b8ff" d="M46.75,-261.24C52.58,-221.67 70.77,-135.92 122.5,-89.25 126.55,-85.6 131.1,-82.48 135.94,-79.81"/>
<polygon fill="#63b8ff" stroke="#63b8ff" points="43.29,-260.68 45.44,-271.06 50.23,-261.61 43.29,-260.68"/>
</a>
</g>
</g>
<!-- Node11 -->
<g id="Node000011" class="node">
<title>Node11</title>
<g id="a_Node000011"><a xlink:href="classDGtal_1_1ImageContainerBySTLVector.html" target="_top" xlink:title=" ">
<polygon fill="white" stroke="#666666" points="296.75,-30.5 122.5,-30.5 122.5,0 296.75,0 296.75,-30.5"/>
<text xml:space="preserve" text-anchor="start" x="130.5" y="-17" font-family="FreeSans" font-size="10.00">DGtal::ImageContainerBySTLVector</text>
<text xml:space="preserve" text-anchor="middle" x="209.62" y="-5.75" font-family="FreeSans" font-size="10.00">&lt; TDomain, TValue &gt;</text>
</a>
</g>
</g>
<!-- Node0&#45;&gt;Node11 -->
<g id="edge402_Node000000_Node000011" class="edge">
<title>Node0&#45;&gt;Node11</title>
<g id="a_edge402_Node000000_Node000011"><a xlink:title=" ">
<path fill="none" stroke="#63b8ff" d="M44.77,-260.89C47.1,-214.03 59.35,-101.52 122.5,-40.25 126.19,-36.67 130.36,-33.6 134.82,-30.97"/>
<polygon fill="#63b8ff" stroke="#63b8ff" points="41.28,-260.63 44.4,-270.75 48.27,-260.89 41.28,-260.63"/>
</a>
</g>
</g>
</g>
</svg>
