<?xml version="1.0" encoding="UTF-8" standalone="no"?>
<!DOCTYPE svg PUBLIC "-//W3C//DTD SVG 1.1//EN"
 "http://www.w3.org/Graphics/SVG/1.1/DTD/svg11.dtd">
<!-- Generated by graphviz version 11.0.0 (20240428.1522)
 -->
<!-- Title: Graphical Class Hierarchy Pages: 1 -->
<svg width="284pt" height="138pt"
 viewBox="0.00 0.00 283.75 138.25" xmlns="http://www.w3.org/2000/svg" xmlns:xlink="http://www.w3.org/1999/xlink">
<g id="graph0" class="graph" transform="scale(1 1) rotate(0) translate(4 134.25)">
<title>Graphical Class Hierarchy</title>
<!-- Node0 -->
<g id="Node000000" class="node">
<title>Node0</title>
<g id="a_Node000000"><a xlink:title=" ">
<polygon fill="#e0e0e0" stroke="#999999" points="108.62,-56.25 0.38,-56.25 0.38,-37 108.62,-37 108.62,-56.25"/>
<text text-anchor="middle" x="54.5" y="-42.75" font-family="FreeSans" font-size="10.00">adjacency_graph_tag</text>
</a>
</g>
</g>
<!-- Node1 -->
<g id="Node000001" class="node">
<title>Node1</title>
<g id="a_Node000001"><a xlink:href="structboost_1_1DigitalSurface__graph__traversal__category.html" target="_top" xlink:title=" ">
<polygon fill="white" stroke="#666666" points="275.75,-104.88 145,-104.88 145,-74.38 275.75,-74.38 275.75,-104.88"/>
<text text-anchor="start" x="153" y="-91.38" font-family="FreeSans" font-size="10.00">boost::DigitalSurface</text>
<text text-anchor="middle" x="210.38" y="-80.12" font-family="FreeSans" font-size="10.00">_graph_traversal_category</text>
</a>
</g>
</g>
<!-- Node0&#45;&gt;Node1 -->
<g id="edge1_Node000000_Node000001" class="edge">
<title>Node0&#45;&gt;Node1</title>
<g id="a_edge1_Node000000_Node000001"><a xlink:title=" ">
<path fill="none" stroke="#63b8ff" d="M102.29,-59.7C118.29,-64.17 136.37,-69.22 153.05,-73.88"/>
<polygon fill="#63b8ff" stroke="#63b8ff" points="103.61,-56.43 93.03,-57.11 101.72,-63.18 103.61,-56.43"/>
</a>
</g>
</g>
<!-- Node3 -->
<g id="Node000003" class="node">
<title>Node3</title>
<g id="a_Node000003"><a xlink:href="structboost_1_1Object__graph__traversal__category.html" target="_top" xlink:title=" ">
<polygon fill="white" stroke="#666666" points="262.25,-55.88 158.5,-55.88 158.5,-25.38 262.25,-25.38 262.25,-55.88"/>
<text text-anchor="start" x="166.5" y="-42.38" font-family="FreeSans" font-size="10.00">boost::Object_graph</text>
<text text-anchor="middle" x="210.38" y="-31.12" font-family="FreeSans" font-size="10.00">_traversal_category</text>
</a>
</g>
</g>
<!-- Node0&#45;&gt;Node3 -->
<g id="edge2_Node000000_Node000003" class="edge">
<title>Node0&#45;&gt;Node3</title>
<g id="a_edge2_Node000000_Node000003"><a xlink:title=" ">
<path fill="none" stroke="#63b8ff" d="M120.32,-44.1C132.96,-43.6 146.04,-43.09 158.16,-42.62"/>
<polygon fill="#63b8ff" stroke="#63b8ff" points="120.25,-40.6 110.4,-44.48 120.53,-47.59 120.25,-40.6"/>
</a>
</g>
</g>
<!-- Node2 -->
<g id="Node000002" class="node">
<title>Node2</title>
<g id="a_Node000002"><a xlink:title=" ">
<polygon fill="#e0e0e0" stroke="#999999" points="106,-19.25 3,-19.25 3,0 106,0 106,-19.25"/>
<text text-anchor="middle" x="54.5" y="-5.75" font-family="FreeSans" font-size="10.00">edge_list_graph_tag</text>
</a>
</g>
</g>
<!-- Node2&#45;&gt;Node1 -->
<g id="edge3_Node000002_Node000001" class="edge">
<title>Node2&#45;&gt;Node1</title>
<g id="a_edge3_Node000002_Node000001"><a xlink:title=" ">
<path fill="none" stroke="#63b8ff" d="M103.28,-24.35C105.25,-25.38 107.17,-26.47 109,-27.62 128.42,-39.85 125.87,-51.96 145,-64.62 150.3,-68.13 156.16,-71.26 162.13,-74.01"/>
<polygon fill="#63b8ff" stroke="#63b8ff" points="105.02,-21.3 94.47,-20.35 102.13,-27.67 105.02,-21.3"/>
</a>
</g>
</g>
<!-- Node2&#45;&gt;Node3 -->
<g id="edge4_Node000002_Node000003" class="edge">
<title>Node2&#45;&gt;Node3</title>
<g id="a_edge4_Node000002_Node000003"><a xlink:title=" ">
<path fill="none" stroke="#63b8ff" d="M116.35,-21.88C130.17,-24.67 144.71,-27.6 158.08,-30.29"/>
<polygon fill="#63b8ff" stroke="#63b8ff" points="117.44,-18.53 106.94,-19.99 116.05,-25.39 117.44,-18.53"/>
</a>
</g>
</g>
<!-- Node4 -->
<g id="Node000004" class="node">
<title>Node4</title>
<g id="a_Node000004"><a xlink:title=" ">
<polygon fill="#e0e0e0" stroke="#999999" points="107.12,-130.25 1.88,-130.25 1.88,-111 107.12,-111 107.12,-130.25"/>
<text text-anchor="middle" x="54.5" y="-116.75" font-family="FreeSans" font-size="10.00">incidence_graph_tag</text>
</a>
</g>
</g>
<!-- Node4&#45;&gt;Node1 -->
<g id="edge5_Node000004_Node000001" class="edge">
<title>Node4&#45;&gt;Node1</title>
<g id="a_edge5_Node000004_Node000001"><a xlink:title=" ">
<path fill="none" stroke="#63b8ff" d="M116.5,-108.34C125.71,-106.48 135.24,-104.56 144.53,-102.69"/>
<polygon fill="#63b8ff" stroke="#63b8ff" points="116.05,-104.86 106.94,-110.26 117.44,-111.72 116.05,-104.86"/>
</a>
</g>
</g>
<!-- Node4&#45;&gt;Node3 -->
<g id="edge6_Node000004_Node000003" class="edge">
<title>Node4&#45;&gt;Node3</title>
<g id="a_edge6_Node000004_Node000003"><a xlink:title=" ">
<path fill="none" stroke="#63b8ff" d="M103.28,-105.9C105.25,-104.87 107.17,-103.78 109,-102.62 128.42,-90.4 125.87,-78.29 145,-65.62 150.3,-62.12 156.16,-58.99 162.13,-56.24"/>
<polygon fill="#63b8ff" stroke="#63b8ff" points="102.13,-102.58 94.47,-109.9 105.02,-108.95 102.13,-102.58"/>
</a>
</g>
</g>
<!-- Node5 -->
<g id="Node000005" class="node">
<title>Node5</title>
<g id="a_Node000005"><a xlink:title=" ">
<polygon fill="#e0e0e0" stroke="#999999" points="109,-93.25 0,-93.25 0,-74 109,-74 109,-93.25"/>
<text text-anchor="middle" x="54.5" y="-79.75" font-family="FreeSans" font-size="10.00">vertex_list_graph_tag</text>
</a>
</g>
</g>
<!-- Node5&#45;&gt;Node1 -->
<g id="edge7_Node000005_Node000001" class="edge">
<title>Node5&#45;&gt;Node1</title>
<g id="a_edge7_Node000005_Node000001"><a xlink:title=" ">
<path fill="none" stroke="#63b8ff" d="M120.78,-86.17C128.72,-86.48 136.82,-86.8 144.75,-87.1"/>
<polygon fill="#63b8ff" stroke="#63b8ff" points="120.96,-82.67 110.83,-85.78 120.69,-89.67 120.96,-82.67"/>
</a>
</g>
</g>
<!-- Node5&#45;&gt;Node3 -->
<g id="edge8_Node000005_Node000003" class="edge">
<title>Node5&#45;&gt;Node3</title>
<g id="a_edge8_Node000005_Node000003"><a xlink:title=" ">
<path fill="none" stroke="#63b8ff" d="M102.45,-70.5C120.04,-65.59 140.12,-59.98 158.08,-54.96"/>
<polygon fill="#63b8ff" stroke="#63b8ff" points="101.72,-67.07 93.03,-73.14 103.61,-73.82 101.72,-67.07"/>
</a>
</g>
</g>
</g>
</svg>
