<?xml version="1.0" encoding="UTF-8" standalone="no"?>
<!DOCTYPE svg PUBLIC "-//W3C//DTD SVG 1.1//EN"
 "http://www.w3.org/Graphics/SVG/1.1/DTD/svg11.dtd">
<!-- Generated by graphviz version 7.0.1 (20221109.1506)
 -->
<!-- Title: Graphical Class Hierarchy Pages: 1 -->
<svg width="589pt" height="535pt"
 viewBox="0.00 0.00 589.00 534.50" xmlns="http://www.w3.org/2000/svg" xmlns:xlink="http://www.w3.org/1999/xlink">
<g id="graph0" class="graph" transform="scale(1 1) rotate(0) translate(4 530.5)">
<title>Graphical Class Hierarchy</title>
<!-- Node0 -->
<g id="node1" class="node">
<title>Node0</title>
<g id="a_node1"><a xlink:href="structDGtal_1_1DrawableWithDisplay3D.html" target="_top" xlink:title=" ">
<polygon fill="white" stroke="#666666" points="163.5,-470.5 8.5,-470.5 8.5,-451.5 163.5,-451.5 163.5,-470.5"/>
<text text-anchor="middle" x="86" y="-458.5" font-family="FreeSans" font-size="10.00">DGtal::DrawableWithDisplay3D</text>
</a>
</g>
</g>
<!-- Node1 -->
<g id="node2" class="node">
<title>Node1</title>
<g id="a_node2"><a xlink:href="structDGtal_1_1DrawWithBoard3DTo2DModifier.html" target="_top" xlink:title="Base class specifying the methods for classes which intend to modify a Viewer3D stream.">
<polygon fill="white" stroke="#666666" points="365.5,-476 219.5,-476 219.5,-446 365.5,-446 365.5,-476"/>
<text text-anchor="start" x="227.5" y="-464" font-family="FreeSans" font-size="10.00">DGtal::DrawWithBoard3DTo2</text>
<text text-anchor="middle" x="292.5" y="-453" font-family="FreeSans" font-size="10.00">DModifier</text>
</a>
</g>
</g>
<!-- Node0&#45;&gt;Node1 -->
<g id="edge1" class="edge">
<title>Node0&#45;&gt;Node1</title>
<path fill="none" stroke="#63b8ff" d="M174.9,-461C189.64,-461 204.78,-461 219.08,-461"/>
<polygon fill="#63b8ff" stroke="#63b8ff" points="175.24,-457.5 165.24,-461 175.24,-464.5 175.24,-457.5"/>
</g>
<!-- Node2 -->
<g id="node3" class="node">
<title>Node2</title>
<g id="a_node3"><a xlink:href="structDGtal_1_1CameraDirection.html" target="_top" xlink:title="CameraDirection class to set camera direction.">
<polygon fill="white" stroke="#666666" points="558,-452.5 436,-452.5 436,-433.5 558,-433.5 558,-452.5"/>
<text text-anchor="middle" x="497" y="-440.5" font-family="FreeSans" font-size="10.00">DGtal::CameraDirection</text>
</a>
</g>
</g>
<!-- Node1&#45;&gt;Node2 -->
<g id="edge2" class="edge">
<title>Node1&#45;&gt;Node2</title>
<path fill="none" stroke="#63b8ff" d="M377.19,-453.56C396.85,-451.81 417.42,-449.99 435.81,-448.35"/>
<polygon fill="#63b8ff" stroke="#63b8ff" points="376.91,-450.07 367.26,-454.44 377.53,-457.04 376.91,-450.07"/>
</g>
<!-- Node6 -->
<g id="node4" class="node">
<title>Node6</title>
<g id="a_node4"><a xlink:href="structDGtal_1_1CameraPosition.html" target="_top" xlink:title="CameraPosition class to set camera position.">
<polygon fill="white" stroke="#666666" points="556,-415.5 438,-415.5 438,-396.5 556,-396.5 556,-415.5"/>
<text text-anchor="middle" x="497" y="-403.5" font-family="FreeSans" font-size="10.00">DGtal::CameraPosition</text>
</a>
</g>
</g>
<!-- Node1&#45;&gt;Node6 -->
<g id="edge3" class="edge">
<title>Node1&#45;&gt;Node6</title>
<path fill="none" stroke="#63b8ff" d="M350.95,-442.11C370.53,-435.96 392.62,-429.35 413,-424 423.84,-421.15 435.56,-418.41 446.68,-415.96"/>
<polygon fill="#63b8ff" stroke="#63b8ff" points="349.97,-438.74 341.49,-445.1 352.08,-445.42 349.97,-438.74"/>
</g>
<!-- Node7 -->
<g id="node5" class="node">
<title>Node7</title>
<g id="a_node5"><a xlink:href="structDGtal_1_1CameraUpVector.html" target="_top" xlink:title="CameraUpVector class to set camera up&#45;vector.">
<polygon fill="white" stroke="#666666" points="559,-526.5 435,-526.5 435,-507.5 559,-507.5 559,-526.5"/>
<text text-anchor="middle" x="497" y="-514.5" font-family="FreeSans" font-size="10.00">DGtal::CameraUpVector</text>
</a>
</g>
</g>
<!-- Node1&#45;&gt;Node7 -->
<g id="edge4" class="edge">
<title>Node1&#45;&gt;Node7</title>
<path fill="none" stroke="#63b8ff" d="M349.37,-479.97C369.33,-486.42 392.06,-493.41 413,-499 423.68,-501.85 435.23,-504.58 446.22,-507"/>
<polygon fill="#63b8ff" stroke="#63b8ff" points="350.63,-476.7 340.04,-476.92 348.46,-483.35 350.63,-476.7"/>
</g>
<!-- Node8 -->
<g id="node6" class="node">
<title>Node8</title>
<g id="a_node6"><a xlink:href="structDGtal_1_1CameraZNearFar.html" target="_top" xlink:title="CameraZNearFar class to set near and far distance.">
<polygon fill="white" stroke="#666666" points="559,-489.5 435,-489.5 435,-470.5 559,-470.5 559,-489.5"/>
<text text-anchor="middle" x="497" y="-477.5" font-family="FreeSans" font-size="10.00">DGtal::CameraZNearFar</text>
</a>
</g>
</g>
<!-- Node1&#45;&gt;Node8 -->
<g id="edge5" class="edge">
<title>Node1&#45;&gt;Node8</title>
<path fill="none" stroke="#63b8ff" d="M377.02,-468.84C396.38,-470.65 416.63,-472.55 434.83,-474.26"/>
<polygon fill="#63b8ff" stroke="#63b8ff" points="377.54,-465.37 367.26,-467.92 376.89,-472.34 377.54,-465.37"/>
</g>
<!-- Node15 -->
<g id="node7" class="node">
<title>Node15</title>
<g id="a_node7"><a xlink:href="structDGtal_1_1DrawWithDisplay3DModifier.html" target="_top" xlink:title="Base class specifying the methods for classes which intend to modify a Viewer3D stream.">
<polygon fill="white" stroke="#666666" points="172,-287.5 0,-287.5 0,-268.5 172,-268.5 172,-287.5"/>
<text text-anchor="middle" x="86" y="-275.5" font-family="FreeSans" font-size="10.00">DGtal::DrawWithDisplay3DModifier</text>
</a>
</g>
</g>
<!-- Node16 -->
<g id="node8" class="node">
<title>Node16</title>
<g id="a_node8"><a xlink:href="structDGtal_1_1ClippingPlane.html" target="_top" xlink:title="Class for adding a Clipping plane through the Viewer3D stream. Realizes the concept CDrawableWithView...">
<polygon fill="white" stroke="#666666" points="346.5,-268.5 238.5,-268.5 238.5,-249.5 346.5,-249.5 346.5,-268.5"/>
<text text-anchor="middle" x="292.5" y="-256.5" font-family="FreeSans" font-size="10.00">DGtal::ClippingPlane</text>
</a>
</g>
</g>
<!-- Node15&#45;&gt;Node16 -->
<g id="edge6" class="edge">
<title>Node15&#45;&gt;Node16</title>
<path fill="none" stroke="#63b8ff" d="M183.58,-269.03C202.39,-267.28 221.46,-265.51 238.23,-263.95"/>
<polygon fill="#63b8ff" stroke="#63b8ff" points="183.39,-265.53 173.75,-269.94 184.03,-272.5 183.39,-265.53"/>
</g>
<!-- Node17 -->
<g id="node9" class="node">
<title>Node17</title>
<g id="a_node9"><a xlink:href="structDGtal_1_1CustomColors3D.html" target="_top" xlink:title=" ">
<polygon fill="white" stroke="#666666" points="354.5,-231.5 230.5,-231.5 230.5,-212.5 354.5,-212.5 354.5,-231.5"/>
<text text-anchor="middle" x="292.5" y="-219.5" font-family="FreeSans" font-size="10.00">DGtal::CustomColors3D</text>
</a>
</g>
</g>
<!-- Node15&#45;&gt;Node17 -->
<g id="edge7" class="edge">
<title>Node15&#45;&gt;Node17</title>
<path fill="none" stroke="#63b8ff" d="M127.04,-264.41C150.48,-256.71 180.74,-247.2 208,-240 218.9,-237.12 230.68,-234.37 241.87,-231.91"/>
<polygon fill="#63b8ff" stroke="#63b8ff" points="125.95,-261.08 117.56,-267.55 128.15,-267.73 125.95,-261.08"/>
</g>
<!-- Node18 -->
<g id="node10" class="node">
<title>Node18</title>
<g id="a_node10"><a xlink:href="structDGtal_1_1CustomStyle3D.html" target="_top" xlink:title="Modifier class in a Display3D stream. Useful to choose your own style for a given class....">
<polygon fill="white" stroke="#666666" points="351.5,-194.5 233.5,-194.5 233.5,-175.5 351.5,-175.5 351.5,-194.5"/>
<text text-anchor="middle" x="292.5" y="-182.5" font-family="FreeSans" font-size="10.00">DGtal::CustomStyle3D</text>
</a>
</g>
</g>
<!-- Node15&#45;&gt;Node18 -->
<g id="edge8" class="edge">
<title>Node15&#45;&gt;Node18</title>
<path fill="none" stroke="#63b8ff" d="M108.62,-261.39C131.92,-244.28 170.7,-218.05 208,-203 215.98,-199.78 224.62,-197.1 233.23,-194.87"/>
<polygon fill="#63b8ff" stroke="#63b8ff" points="106.76,-258.41 100.84,-267.2 110.95,-264.02 106.76,-258.41"/>
</g>
<!-- Node3 -->
<g id="node11" class="node">
<title>Node3</title>
<g id="a_node11"><a xlink:href="structDGtal_1_1DrawWithViewer3DModifier.html" target="_top" xlink:title="Base class specifying the methods for classes which intend to modify a Viewer3D stream.">
<polygon fill="white" stroke="#666666" points="377,-305.5 208,-305.5 208,-286.5 377,-286.5 377,-305.5"/>
<text text-anchor="middle" x="292.5" y="-293.5" font-family="FreeSans" font-size="10.00">DGtal::DrawWithViewer3DModifier</text>
</a>
</g>
</g>
<!-- Node15&#45;&gt;Node3 -->
<g id="edge9" class="edge">
<title>Node15&#45;&gt;Node3</title>
<path fill="none" stroke="#63b8ff" d="M183.59,-286.5C191.65,-287.21 199.75,-287.92 207.71,-288.62"/>
<polygon fill="#63b8ff" stroke="#63b8ff" points="184.02,-283.03 173.75,-285.64 183.41,-290 184.02,-283.03"/>
</g>
<!-- Node19 -->
<g id="node20" class="node">
<title>Node19</title>
<g id="a_node20"><a xlink:href="structDGtal_1_1SetMode3D.html" target="_top" xlink:title="Modifier class in a Display3D stream. Useful to choose your own mode for a given class....">
<polygon fill="white" stroke="#666666" points="342.5,-157.5 242.5,-157.5 242.5,-138.5 342.5,-138.5 342.5,-157.5"/>
<text text-anchor="middle" x="292.5" y="-145.5" font-family="FreeSans" font-size="10.00">DGtal::SetMode3D</text>
</a>
</g>
</g>
<!-- Node15&#45;&gt;Node19 -->
<g id="edge22" class="edge">
<title>Node15&#45;&gt;Node19</title>
<path fill="none" stroke="#63b8ff" d="M101.49,-259.41C122.26,-234.14 162.96,-189.42 208,-166 218.53,-160.53 230.63,-156.72 242.29,-154.06"/>
<polygon fill="#63b8ff" stroke="#63b8ff" points="99.03,-256.89 95.49,-266.88 104.49,-261.28 99.03,-256.89"/>
</g>
<!-- Node20 -->
<g id="node21" class="node">
<title>Node20</title>
<g id="a_node21"><a xlink:href="structDGtal_1_1SetName3D.html" target="_top" xlink:title=" ">
<polygon fill="white" stroke="#666666" points="343.5,-416.5 241.5,-416.5 241.5,-397.5 343.5,-397.5 343.5,-416.5"/>
<text text-anchor="middle" x="292.5" y="-404.5" font-family="FreeSans" font-size="10.00">DGtal::SetName3D</text>
</a>
</g>
</g>
<!-- Node15&#45;&gt;Node20 -->
<g id="edge23" class="edge">
<title>Node15&#45;&gt;Node20</title>
<path fill="none" stroke="#63b8ff" d="M101.88,-296.51C122.86,-321.29 163.56,-364.82 208,-388 218.15,-393.29 229.75,-397.12 241.01,-399.89"/>
<polygon fill="#63b8ff" stroke="#63b8ff" points="104.65,-294.36 95.58,-288.88 99.26,-298.82 104.65,-294.36"/>
</g>
<!-- Node21 -->
<g id="node22" class="node">
<title>Node21</title>
<g id="a_node22"><a xlink:href="structDGtal_1_1SetSelectCallback3D.html" target="_top" xlink:title=" ">
<polygon fill="white" stroke="#666666" points="363.5,-379.5 221.5,-379.5 221.5,-360.5 363.5,-360.5 363.5,-379.5"/>
<text text-anchor="middle" x="292.5" y="-367.5" font-family="FreeSans" font-size="10.00">DGtal::SetSelectCallback3D</text>
</a>
</g>
</g>
<!-- Node15&#45;&gt;Node21 -->
<g id="edge24" class="edge">
<title>Node15&#45;&gt;Node21</title>
<path fill="none" stroke="#63b8ff" d="M109.11,-294.33C132.54,-310.89 171.17,-336.15 208,-351 216.96,-354.61 226.76,-357.62 236.38,-360.09"/>
<polygon fill="#63b8ff" stroke="#63b8ff" points="111.44,-291.69 101.27,-288.7 107.35,-297.38 111.44,-291.69"/>
</g>
<!-- Node22 -->
<g id="node23" class="node">
<title>Node22</title>
<g id="a_node23"><a xlink:href="structDGtal_1_1TransformedPrism.html" target="_top" xlink:title="class to modify the position and scale to construct better illustration mode.">
<polygon fill="white" stroke="#666666" points="356.5,-342.5 228.5,-342.5 228.5,-323.5 356.5,-323.5 356.5,-342.5"/>
<text text-anchor="middle" x="292.5" y="-330.5" font-family="FreeSans" font-size="10.00">DGtal::TransformedPrism</text>
</a>
</g>
</g>
<!-- Node15&#45;&gt;Node22 -->
<g id="edge25" class="edge">
<title>Node15&#45;&gt;Node22</title>
<path fill="none" stroke="#63b8ff" d="M129.27,-291.31C152.42,-298.42 181.67,-307.1 208,-314 220.08,-317.17 233.22,-320.3 245.43,-323.08"/>
<polygon fill="#63b8ff" stroke="#63b8ff" points="130.47,-288.02 119.88,-288.41 128.4,-294.71 130.47,-288.02"/>
</g>
<!-- Node3&#45;&gt;Node2 -->
<g id="edge12" class="edge">
<title>Node3&#45;&gt;Node2</title>
<path fill="none" stroke="#63b8ff" d="M374.63,-311.99C375.44,-312.63 376.23,-313.31 377,-314 415.21,-348.43 375,-389.32 413,-424 419.44,-429.88 427.32,-434.06 435.64,-437.01"/>
<polygon fill="#63b8ff" stroke="#63b8ff" points="376.87,-309.27 366.58,-306.76 373.06,-315.14 376.87,-309.27"/>
</g>
<!-- Node3&#45;&gt;Node6 -->
<g id="edge13" class="edge">
<title>Node3&#45;&gt;Node6</title>
<path fill="none" stroke="#63b8ff" d="M373.45,-311.43C374.66,-312.25 375.85,-313.1 377,-314 405.52,-336.25 384.62,-364.57 413,-387 420.19,-392.68 428.77,-396.73 437.63,-399.59"/>
<polygon fill="#63b8ff" stroke="#63b8ff" points="375.36,-308.49 364.92,-306.68 371.95,-314.6 375.36,-308.49"/>
</g>
<!-- Node3&#45;&gt;Node7 -->
<g id="edge14" class="edge">
<title>Node3&#45;&gt;Node7</title>
<path fill="none" stroke="#63b8ff" d="M375.51,-312.55C376.02,-313.02 376.51,-313.5 377,-314 435.63,-373.82 354.41,-439.14 413,-499 418.98,-505.11 426.51,-509.38 434.59,-512.32"/>
<polygon fill="#63b8ff" stroke="#63b8ff" points="377.88,-309.94 367.76,-306.79 373.7,-315.56 377.88,-309.94"/>
</g>
<!-- Node3&#45;&gt;Node8 -->
<g id="edge15" class="edge">
<title>Node3&#45;&gt;Node8</title>
<path fill="none" stroke="#63b8ff" d="M375.1,-312.25C375.75,-312.82 376.38,-313.4 377,-314 425.49,-361.23 364.54,-414.74 413,-462 419.12,-467.97 426.73,-472.16 434.84,-475.07"/>
<polygon fill="#63b8ff" stroke="#63b8ff" points="377.42,-309.6 367.23,-306.71 373.39,-315.33 377.42,-309.6"/>
</g>
<!-- Node4 -->
<g id="node12" class="node">
<title>Node4</title>
<g id="a_node12"><a xlink:href="structDGtal_1_1AddTextureImage2DWithFunctor.html" target="_top" xlink:title="class to insert a custom 2D textured image by using a conversion functor and allows to change the def...">
<polygon fill="white" stroke="#666666" points="577,-185.5 417,-185.5 417,-144.5 577,-144.5 577,-185.5"/>
<text text-anchor="start" x="425" y="-173.5" font-family="FreeSans" font-size="10.00">DGtal::AddTextureImage2DWith</text>
<text text-anchor="start" x="425" y="-162.5" font-family="FreeSans" font-size="10.00">Functor&lt; TImageType, TFunctor,</text>
<text text-anchor="middle" x="497" y="-151.5" font-family="FreeSans" font-size="10.00"> Space, KSpace &gt;</text>
</a>
</g>
</g>
<!-- Node3&#45;&gt;Node4 -->
<g id="edge10" class="edge">
<title>Node3&#45;&gt;Node4</title>
<path fill="none" stroke="#63b8ff" d="M372.2,-280.57C373.86,-279.46 375.46,-278.27 377,-277 407.69,-251.65 383.93,-222.19 413,-195 416.69,-191.55 420.81,-188.48 425.19,-185.77"/>
<polygon fill="#63b8ff" stroke="#63b8ff" points="370.51,-277.5 363.46,-285.41 373.91,-283.62 370.51,-277.5"/>
</g>
<!-- Node5 -->
<g id="node13" class="node">
<title>Node5</title>
<g id="a_node13"><a xlink:href="structDGtal_1_1AddTextureImage3DWithFunctor.html" target="_top" xlink:title="class to insert a custom 3D textured image by using a conversion functor and allows to change the def...">
<polygon fill="white" stroke="#666666" points="577,-126.5 417,-126.5 417,-85.5 577,-85.5 577,-126.5"/>
<text text-anchor="start" x="425" y="-114.5" font-family="FreeSans" font-size="10.00">DGtal::AddTextureImage3DWith</text>
<text text-anchor="start" x="425" y="-103.5" font-family="FreeSans" font-size="10.00">Functor&lt; TImageType, TFunctor,</text>
<text text-anchor="middle" x="497" y="-92.5" font-family="FreeSans" font-size="10.00"> Space, KSpace &gt;</text>
</a>
</g>
</g>
<!-- Node3&#45;&gt;Node5 -->
<g id="edge11" class="edge">
<title>Node3&#45;&gt;Node5</title>
<path fill="none" stroke="#63b8ff" d="M373.73,-279.92C374.86,-278.99 375.95,-278.02 377,-277 423.6,-231.53 369.03,-183.02 413,-135 415.78,-131.96 418.9,-129.24 422.26,-126.8"/>
<polygon fill="#63b8ff" stroke="#63b8ff" points="372.08,-276.81 365.68,-285.26 375.95,-282.65 372.08,-276.81"/>
</g>
<!-- Node9 -->
<g id="node14" class="node">
<title>Node9</title>
<g id="a_node14"><a xlink:href="structDGtal_1_1Translate2DDomain.html" target="_top" xlink:title="class to modify the data of an given image and also the possibility to translate it (optional).">
<polygon fill="white" stroke="#666666" points="564.5,-67.5 429.5,-67.5 429.5,-48.5 564.5,-48.5 564.5,-67.5"/>
<text text-anchor="middle" x="497" y="-55.5" font-family="FreeSans" font-size="10.00">DGtal::Translate2DDomain</text>
</a>
</g>
</g>
<!-- Node3&#45;&gt;Node9 -->
<g id="edge16" class="edge">
<title>Node3&#45;&gt;Node9</title>
<path fill="none" stroke="#63b8ff" d="M374.28,-279.62C375.22,-278.79 376.13,-277.91 377,-277 439.66,-211.35 350,-141.33 413,-76 417.61,-71.22 423.16,-67.57 429.18,-64.79"/>
<polygon fill="#63b8ff" stroke="#63b8ff" points="372.45,-276.64 366.33,-285.29 376.51,-282.34 372.45,-276.64"/>
</g>
<!-- Node10 -->
<g id="node15" class="node">
<title>Node10</title>
<g id="a_node15"><a xlink:href="structDGtal_1_1Update2DDomainPosition.html" target="_top" xlink:title="class to modify the position and orientation of an 2D domain.">
<polygon fill="white" stroke="#666666" points="577.5,-30 416.5,-30 416.5,0 577.5,0 577.5,-30"/>
<text text-anchor="start" x="424.5" y="-18" font-family="FreeSans" font-size="10.00">DGtal::Update2DDomainPosition</text>
<text text-anchor="middle" x="497" y="-7" font-family="FreeSans" font-size="10.00">&lt; Space, KSpace &gt;</text>
</a>
</g>
</g>
<!-- Node3&#45;&gt;Node10 -->
<g id="edge17" class="edge">
<title>Node3&#45;&gt;Node10</title>
<path fill="none" stroke="#63b8ff" d="M374.74,-279.27C375.51,-278.54 376.27,-277.79 377,-277 449.81,-198.62 342.48,-119.45 413,-39 415.87,-35.73 419.15,-32.89 422.72,-30.43"/>
<polygon fill="#63b8ff" stroke="#63b8ff" points="372.76,-276.38 366.81,-285.15 376.93,-282 372.76,-276.38"/>
</g>
<!-- Node11 -->
<g id="node16" class="node">
<title>Node11</title>
<g id="a_node16"><a xlink:href="structDGtal_1_1UpdateImage3DEmbedding.html" target="_top" xlink:title="class to modify the 3d embedding of the image (useful to display not only 2D slice images)....">
<polygon fill="white" stroke="#666666" points="581,-378 413,-378 413,-348 581,-348 581,-378"/>
<text text-anchor="start" x="421" y="-366" font-family="FreeSans" font-size="10.00">DGtal::UpdateImage3DEmbedding</text>
<text text-anchor="middle" x="497" y="-355" font-family="FreeSans" font-size="10.00">&lt; Space, KSpace &gt;</text>
</a>
</g>
</g>
<!-- Node3&#45;&gt;Node11 -->
<g id="edge18" class="edge">
<title>Node3&#45;&gt;Node11</title>
<path fill="none" stroke="#63b8ff" d="M364.49,-309.24C368.78,-310.67 372.98,-312.26 377,-314 394.87,-321.76 395.41,-330.63 413,-339 419.77,-342.22 427.07,-345.1 434.42,-347.65"/>
<polygon fill="#63b8ff" stroke="#63b8ff" points="365.74,-305.96 355.15,-306.42 363.71,-312.66 365.74,-305.96"/>
</g>
<!-- Node12 -->
<g id="node17" class="node">
<title>Node12</title>
<g id="a_node17"><a xlink:href="structDGtal_1_1UpdateImageData.html" target="_top" xlink:title="class to modify the data of an given image and also the possibility to translate it (optional).">
<polygon fill="white" stroke="#666666" points="564,-330 430,-330 430,-300 564,-300 564,-330"/>
<text text-anchor="start" x="438" y="-318" font-family="FreeSans" font-size="10.00">DGtal::UpdateImageData</text>
<text text-anchor="middle" x="497" y="-307" font-family="FreeSans" font-size="10.00">&lt; TImageType, TFunctor &gt;</text>
</a>
</g>
</g>
<!-- Node3&#45;&gt;Node12 -->
<g id="edge19" class="edge">
<title>Node3&#45;&gt;Node12</title>
<path fill="none" stroke="#63b8ff" d="M388.42,-304.91C402.31,-306.21 416.37,-307.53 429.54,-308.76"/>
<polygon fill="#63b8ff" stroke="#63b8ff" points="389.12,-301.46 378.83,-304.01 388.46,-308.43 389.12,-301.46"/>
</g>
<!-- Node13 -->
<g id="node18" class="node">
<title>Node13</title>
<g id="a_node18"><a xlink:href="structDGtal_1_1UpdateImagePosition.html" target="_top" xlink:title="class to modify the position and orientation of an textured 2D image.">
<polygon fill="white" stroke="#666666" points="568,-282 426,-282 426,-252 568,-252 568,-282"/>
<text text-anchor="start" x="434" y="-270" font-family="FreeSans" font-size="10.00">DGtal::UpdateImagePosition</text>
<text text-anchor="middle" x="497" y="-259" font-family="FreeSans" font-size="10.00">&lt; Space, KSpace &gt;</text>
</a>
</g>
</g>
<!-- Node3&#45;&gt;Node13 -->
<g id="edge20" class="edge">
<title>Node3&#45;&gt;Node13</title>
<path fill="none" stroke="#63b8ff" d="M374.26,-284.43C391.33,-281.99 409.2,-279.43 425.84,-277.05"/>
<polygon fill="#63b8ff" stroke="#63b8ff" points="374.09,-280.92 364.69,-285.81 375.08,-287.85 374.09,-280.92"/>
</g>
<!-- Node14 -->
<g id="node19" class="node">
<title>Node14</title>
<g id="a_node19"><a xlink:href="structDGtal_1_1UpdateLastImagePosition.html" target="_top" xlink:title="class to modify the position and orientation of an textured 2D image.">
<polygon fill="white" stroke="#666666" points="577.5,-234 416.5,-234 416.5,-204 577.5,-204 577.5,-234"/>
<text text-anchor="start" x="424.5" y="-222" font-family="FreeSans" font-size="10.00">DGtal::UpdateLastImagePosition</text>
<text text-anchor="middle" x="497" y="-211" font-family="FreeSans" font-size="10.00">&lt; Space, KSpace &gt;</text>
</a>
</g>
</g>
<!-- Node3&#45;&gt;Node14 -->
<g id="edge21" class="edge">
<title>Node3&#45;&gt;Node14</title>
<path fill="none" stroke="#63b8ff" d="M365.42,-282.32C369.42,-280.74 373.31,-278.97 377,-277 396.42,-266.64 393.89,-253.92 413,-243 418.73,-239.73 424.94,-236.87 431.3,-234.38"/>
<polygon fill="#63b8ff" stroke="#63b8ff" points="364.34,-278.99 356.06,-285.6 366.66,-285.6 364.34,-278.99"/>
</g>
</g>
</svg>
