<?xml version="1.0" encoding="UTF-8" standalone="no"?>
<!DOCTYPE svg PUBLIC "-//W3C//DTD SVG 1.1//EN"
 "http://www.w3.org/Graphics/SVG/1.1/DTD/svg11.dtd">
<!-- Generated by graphviz version 7.0.1 (20221109.1506)
 -->
<!-- Title: DGtal::concepts::CVector&lt; T &gt; Pages: 1 -->
<svg width="701pt" height="124pt"
 viewBox="0.00 0.00 701.00 123.50" xmlns="http://www.w3.org/2000/svg" xmlns:xlink="http://www.w3.org/1999/xlink">
<g id="graph0" class="graph" transform="scale(1 1) rotate(0) translate(4 119.5)">
<title>DGtal::concepts::CVector&lt; T &gt;</title>
<!-- Node1 -->
<g id="node1" class="node">
<title>Node1</title>
<g id="a_node1"><a xlink:title="Aim: Represent any static or dynamic sized column vector having sparse or dense representation.">
<polygon fill="#999999" stroke="#666666" points="475,-72.5 321,-72.5 321,-53.5 475,-53.5 475,-72.5"/>
<text text-anchor="middle" x="398" y="-60.5" font-family="FreeSans" font-size="10.00">DGtal::concepts::CVector&lt; T &gt;</text>
</a>
</g>
</g>
<!-- Node4 -->
<g id="node4" class="node">
<title>Node4</title>
<g id="a_node4"><a xlink:href="structDGtal_1_1concepts_1_1CDenseVector.html" target="_top" xlink:title="Aim: Represent any dynamic or static sized matrix having dense representation.">
<polygon fill="white" stroke="#666666" points="693,-115.5 511,-115.5 511,-96.5 693,-96.5 693,-115.5"/>
<text text-anchor="middle" x="602" y="-103.5" font-family="FreeSans" font-size="10.00">DGtal::concepts::CDenseVector&lt; T &gt;</text>
</a>
</g>
</g>
<!-- Node1&#45;&gt;Node4 -->
<g id="edge3" class="edge">
<title>Node1&#45;&gt;Node4</title>
<path fill="none" stroke="#63b8ff" d="M456.51,-75.36C474.01,-79.11 493.29,-83.23 511,-87 524.9,-89.96 540.02,-93.15 553.82,-96.07"/>
<polygon fill="#63b8ff" stroke="#63b8ff" points="457.3,-71.95 446.79,-73.27 455.83,-78.79 457.3,-71.95"/>
</g>
<!-- Node5 -->
<g id="node5" class="node">
<title>Node5</title>
<g id="a_node5"><a xlink:href="structDGtal_1_1concepts_1_1CDynamicVector.html" target="_top" xlink:title="Aim: Represent any dynamic sized column vector having sparse or dense representation.">
<polygon fill="white" stroke="#666666" points="672,-78 532,-78 532,-48 672,-48 672,-78"/>
<text text-anchor="start" x="540" y="-66" font-family="FreeSans" font-size="10.00">DGtal::concepts::CDynamic</text>
<text text-anchor="middle" x="602" y="-55" font-family="FreeSans" font-size="10.00">Vector&lt; T &gt;</text>
</a>
</g>
</g>
<!-- Node1&#45;&gt;Node5 -->
<g id="edge4" class="edge">
<title>Node1&#45;&gt;Node5</title>
<path fill="none" stroke="#63b8ff" d="M486.72,-63C501.7,-63 517.08,-63 531.5,-63"/>
<polygon fill="#63b8ff" stroke="#63b8ff" points="486.88,-59.5 476.88,-63 486.88,-66.5 486.88,-59.5"/>
</g>
<!-- Node6 -->
<g id="node6" class="node">
<title>Node6</title>
<g id="a_node6"><a xlink:href="structDGtal_1_1concepts_1_1CStaticVector.html" target="_top" xlink:title="Aim: Represent any static sized column vector having sparse or dense representation.">
<polygon fill="white" stroke="#666666" points="665.5,-30 538.5,-30 538.5,0 665.5,0 665.5,-30"/>
<text text-anchor="start" x="546.5" y="-18" font-family="FreeSans" font-size="10.00">DGtal::concepts::CStatic</text>
<text text-anchor="middle" x="602" y="-7" font-family="FreeSans" font-size="10.00">Vector&lt; T &gt;</text>
</a>
</g>
</g>
<!-- Node1&#45;&gt;Node6 -->
<g id="edge5" class="edge">
<title>Node1&#45;&gt;Node6</title>
<path fill="none" stroke="#63b8ff" d="M451.8,-50.45C478.22,-44.18 510.39,-36.53 538.09,-29.95"/>
<polygon fill="#63b8ff" stroke="#63b8ff" points="451.25,-46.99 442.33,-52.7 452.87,-53.8 451.25,-46.99"/>
</g>
<!-- Node2 -->
<g id="node2" class="node">
<title>Node2</title>
<g id="a_node2"><a xlink:href="structDGtal_1_1concepts_1_1CVectorSpace.html" target="_top" xlink:title="Aim: Base concept for vector space structure.">
<polygon fill="white" stroke="#666666" points="285,-78 155,-78 155,-48 285,-48 285,-78"/>
<text text-anchor="start" x="163" y="-66" font-family="FreeSans" font-size="10.00">DGtal::concepts::CVector</text>
<text text-anchor="middle" x="220" y="-55" font-family="FreeSans" font-size="10.00">Space&lt; T &gt;</text>
</a>
</g>
</g>
<!-- Node2&#45;&gt;Node1 -->
<g id="edge1" class="edge">
<title>Node2&#45;&gt;Node1</title>
<path fill="none" stroke="#63b8ff" d="M296.34,-63C304.42,-63 312.65,-63 320.74,-63"/>
<polygon fill="#63b8ff" stroke="#63b8ff" points="296.55,-59.5 286.55,-63 296.55,-66.5 296.55,-59.5"/>
</g>
<!-- Node3 -->
<g id="node3" class="node">
<title>Node3</title>
<g id="a_node3"><a xlink:href="structboost_1_1Assignable.html" target="_top" xlink:title="Go to http://www.sgi.com/tech/stl/Assignable.html.">
<polygon fill="white" stroke="#666666" points="119,-72.5 0,-72.5 0,-53.5 119,-53.5 119,-72.5"/>
<text text-anchor="middle" x="59.5" y="-60.5" font-family="FreeSans" font-size="10.00">boost::Assignable&lt; T &gt;</text>
</a>
</g>
</g>
<!-- Node3&#45;&gt;Node2 -->
<g id="edge2" class="edge">
<title>Node3&#45;&gt;Node2</title>
<path fill="none" stroke="#63b8ff" d="M130.33,-63C138.38,-63 146.56,-63 154.54,-63"/>
<polygon fill="#63b8ff" stroke="#63b8ff" points="130.58,-59.5 120.58,-63 130.58,-66.5 130.58,-59.5"/>
</g>
</g>
</svg>
