<?xml version="1.0" encoding="UTF-8" standalone="no"?>
<!DOCTYPE svg PUBLIC "-//W3C//DTD SVG 1.1//EN"
 "http://www.w3.org/Graphics/SVG/1.1/DTD/svg11.dtd">
<!-- Generated by graphviz version 7.0.1 (20221109.1506)
 -->
<!-- Title: DGtal::concepts::CSinglePassRangeWithWritableIterator&lt; T, Value &gt; Pages: 1 -->
<!--zoomable 108 -->
<svg id="main" version="1.1" xmlns="http://www.w3.org/2000/svg" xmlns:xlink="http://www.w3.org/1999/xlink" xml:space="preserve" onload="init(evt)">
<style type="text/css"><![CDATA[
.edge:hover path { stroke: red; }
.edge:hover polygon { stroke: red; fill: red; }
]]></style>
<script type="text/javascript"><![CDATA[
var edges = document.getElementsByTagName('g');
if (edges && edges.length) {
  for (var i=0;i<edges.length;i++) {
    if (edges[i].id.substr(0,4)=='edge') {
      edges[i].setAttribute('class','edge');
    }
  }
}
]]></script>
        <defs>
                <circle id="rim" cx="0" cy="0" r="7"/>
                <circle id="rim2" cx="0" cy="0" r="3.5"/>
                <g id="zoomPlus">
                        <use xlink:href="#rim" fill="#404040">
                                <set attributeName="fill" to="#808080" begin="zoomplus.mouseover" end="zoomplus.mouseout"/>
                        </use>
                        <path d="M-4,0h8M0,-4v8" fill="none" stroke="white" stroke-width="1.5" pointer-events="none"/>
                </g>
                <g id="zoomMin">
                        <use xlink:href="#rim" fill="#404040">
                                <set attributeName="fill" to="#808080" begin="zoomminus.mouseover" end="zoomminus.mouseout"/>
                        </use>
                        <path d="M-4,0h8" fill="none" stroke="white" stroke-width="1.5" pointer-events="none"/>
                </g>
                <g id="dirArrow">
                        <path fill="none" stroke="white" stroke-width="1.5" d="M0,-3.0v7 M-2.5,-0.5L0,-3.0L2.5,-0.5"/>
                </g>
               <g id="resetDef">
                       <use xlink:href="#rim2" fill="#404040">
                               <set attributeName="fill" to="#808080" begin="reset.mouseover" end="reset.mouseout"/>
                       </use>
               </g>
        </defs>

<script type="text/javascript">
var viewWidth = 756;
var viewHeight = 108;
var sectionId = 'dynsection-0';
</script>
<script xlink:href="svgpan.js"/>
<svg id="graph" class="graph">
<g id="viewport">
<title>DGtal::concepts::CSinglePassRangeWithWritableIterator&lt; T, Value &gt;</title>
<!-- Node1 -->
<g id="node1" class="node">
<title>Node1</title>
<g id="a_node1"><a xlink:title="Aim: refined concept of const single pass range which require that an output iterator exists.">
<polygon fill="#999999" stroke="#666666" points="345,-70 191,-70 191,-29 345,-29 345,-70"/>
<text text-anchor="start" x="199" y="-58" font-family="FreeSans" font-size="10.00">DGtal::concepts::CSingle</text>
<text text-anchor="start" x="199" y="-47" font-family="FreeSans" font-size="10.00">PassRangeWithWritableIterator</text>
<text text-anchor="middle" x="268" y="-36" font-family="FreeSans" font-size="10.00">&lt; T, Value &gt;</text>
</a>
</g>
</g>
<!-- Node3 -->
<g id="node3" class="node">
<title>Node3</title>
<g id="a_node3"><a xlink:href="structDGtal_1_1concepts_1_1CBidirectionalRangeWithWritableIterator.html" target="_top" xlink:title="Aim: refined concept of bidirectional range which require that a reverse output iterator exists.">
<polygon fill="white" stroke="#666666" points="536,-100 381,-100 381,-59 536,-59 536,-100"/>
<text text-anchor="start" x="389" y="-88" font-family="FreeSans" font-size="10.00">DGtal::concepts::CBidirectional</text>
<text text-anchor="start" x="389" y="-77" font-family="FreeSans" font-size="10.00">RangeWithWritableIterator</text>
<text text-anchor="middle" x="458.5" y="-66" font-family="FreeSans" font-size="10.00">&lt; T, Value &gt;</text>
</a>
</g>
</g>
<!-- Node1&#45;&gt;Node3 -->
<g id="edge2" class="edge">
<title>Node1&#45;&gt;Node3</title>
<path fill="none" stroke="#63b8ff" d="M356.67,-63.45C364.69,-64.73 372.77,-66.02 380.69,-67.28"/>
<polygon fill="#63b8ff" stroke="#63b8ff" points="357.32,-60.01 346.89,-61.9 356.22,-66.93 357.32,-60.01"/>
</g>
<!-- Node5 -->
<g id="node5" class="node">
<title>Node5</title>
<g id="a_node5"><a xlink:href="structDGtal_1_1concepts_1_1CSinglePassRangeWithWritableIteratorFromPoint.html" target="_top" xlink:title="Aim: refined concept of single pass range with a outputIterator() method from a point.">
<polygon fill="white" stroke="#666666" points="535.5,-41 381.5,-41 381.5,0 535.5,0 535.5,-41"/>
<text text-anchor="start" x="389.5" y="-29" font-family="FreeSans" font-size="10.00">DGtal::concepts::CSingle</text>
<text text-anchor="start" x="389.5" y="-18" font-family="FreeSans" font-size="10.00">PassRangeWithWritableIterator</text>
<text text-anchor="middle" x="458.5" y="-7" font-family="FreeSans" font-size="10.00">FromPoint&lt; T, Value &gt;</text>
</a>
</g>
</g>
<!-- Node1&#45;&gt;Node5 -->
<g id="edge4" class="edge">
<title>Node1&#45;&gt;Node5</title>
<path fill="none" stroke="#63b8ff" d="M356.59,-36.03C364.84,-34.76 373.16,-33.47 381.3,-32.22"/>
<polygon fill="#63b8ff" stroke="#63b8ff" points="356.25,-32.54 346.89,-37.52 357.31,-39.45 356.25,-32.54"/>
</g>
<!-- Node2 -->
<g id="node2" class="node">
<title>Node2</title>
<g id="a_node2"><a xlink:href="structDGtal_1_1concepts_1_1CConstSinglePassRange.html" target="_top" xlink:title="Aim: Defines the concept describing a const single pass range.">
<polygon fill="white" stroke="#666666" points="155,-64.5 0,-64.5 0,-34.5 155,-34.5 155,-64.5"/>
<text text-anchor="start" x="8" y="-52.5" font-family="FreeSans" font-size="10.00">DGtal::concepts::CConstSingle</text>
<text text-anchor="middle" x="77.5" y="-41.5" font-family="FreeSans" font-size="10.00">PassRange&lt; T &gt;</text>
</a>
</g>
</g>
<!-- Node2&#45;&gt;Node1 -->
<g id="edge1" class="edge">
<title>Node2&#45;&gt;Node1</title>
<path fill="none" stroke="#63b8ff" d="M166.68,-49.5C174.68,-49.5 182.73,-49.5 190.61,-49.5"/>
<polygon fill="#63b8ff" stroke="#63b8ff" points="166.96,-46 156.96,-49.5 166.96,-53 166.96,-46"/>
</g>
<!-- Node4 -->
<g id="node4" class="node">
<title>Node4</title>
<g id="a_node4"><a xlink:href="structDGtal_1_1concepts_1_1CBidirectionalRangeWithWritableIteratorFromPoint.html" target="_top" xlink:title="Aim: refined concept of single pass range with an routputIterator() method from a point.">
<polygon fill="white" stroke="#666666" points="748,-100 572,-100 572,-59 748,-59 748,-100"/>
<text text-anchor="start" x="580" y="-88" font-family="FreeSans" font-size="10.00">DGtal::concepts::CBidirectional</text>
<text text-anchor="start" x="580" y="-77" font-family="FreeSans" font-size="10.00">RangeWithWritableIteratorFromPoint</text>
<text text-anchor="middle" x="660" y="-66" font-family="FreeSans" font-size="10.00">&lt; T, Value &gt;</text>
</a>
</g>
</g>
<!-- Node3&#45;&gt;Node4 -->
<g id="edge3" class="edge">
<title>Node3&#45;&gt;Node4</title>
<path fill="none" stroke="#63b8ff" d="M547.81,-79.5C555.69,-79.5 563.68,-79.5 571.55,-79.5"/>
<polygon fill="#63b8ff" stroke="#63b8ff" points="547.86,-76 537.86,-79.5 547.86,-83 547.86,-76"/>
</g>
</g>
</svg>
        <g id="navigator" transform="translate(0 0)" fill="#404254">
                <rect fill="#f2f5e9" fill-opacity="0.5" stroke="#606060" stroke-width=".5" x="0" y="0" width="60" height="60"/>
                <use id="zoomplus" xlink:href="#zoomPlus" x="17" y="9" onmousedown="handleZoom(evt,'in')"/>
                <use id="zoomminus" xlink:href="#zoomMin" x="42" y="9" onmousedown="handleZoom(evt,'out')"/>
                <use id="reset" xlink:href="#resetDef" x="30" y="36" onmousedown="handleReset()"/>
                <g id="arrowUp" xlink:href="#dirArrow" transform="translate(30 24)" onmousedown="handlePan(0,-1)">
                  <use xlink:href="#rim" fill="#404040">
                        <set attributeName="fill" to="#808080" begin="arrowUp.mouseover" end="arrowUp.mouseout"/>
                  </use>
                  <path fill="none" stroke="white" stroke-width="1.5" d="M0,-3.0v7 M-2.5,-0.5L0,-3.0L2.5,-0.5"/>
                </g>
                <g id="arrowRight" xlink:href="#dirArrow" transform="rotate(90) translate(36 -43)" onmousedown="handlePan(1,0)">
                  <use xlink:href="#rim" fill="#404040">
                        <set attributeName="fill" to="#808080" begin="arrowRight.mouseover" end="arrowRight.mouseout"/>
                  </use>
                  <path fill="none" stroke="white" stroke-width="1.5" d="M0,-3.0v7 M-2.5,-0.5L0,-3.0L2.5,-0.5"/>
                </g>
                <g id="arrowDown" xlink:href="#dirArrow" transform="rotate(180) translate(-30 -48)" onmousedown="handlePan(0,1)">
                  <use xlink:href="#rim" fill="#404040">
                        <set attributeName="fill" to="#808080" begin="arrowDown.mouseover" end="arrowDown.mouseout"/>
                  </use>
                  <path fill="none" stroke="white" stroke-width="1.5" d="M0,-3.0v7 M-2.5,-0.5L0,-3.0L2.5,-0.5"/>
                </g>
                <g id="arrowLeft" xlink:href="#dirArrow" transform="rotate(270) translate(-36 17)" onmousedown="handlePan(-1,0)">
                  <use xlink:href="#rim" fill="#404040">
                        <set attributeName="fill" to="#808080" begin="arrowLeft.mouseover" end="arrowLeft.mouseout"/>
                  </use>
                  <path fill="none" stroke="white" stroke-width="1.5" d="M0,-3.0v7 M-2.5,-0.5L0,-3.0L2.5,-0.5"/>
                </g>
        </g>
        <svg viewBox="0 0 15 15" width="100%" height="30px" preserveAspectRatio="xMaxYMin meet">
         <g id="arrow_out" transform="scale(0.3 0.3)">
          <a xlink:href="structDGtal_1_1concepts_1_1CSinglePassRangeWithWritableIterator__inherit__graph_org.svg" target="_base">
           <rect id="button" ry="5" rx="5" y="6" x="6" height="38" width="38"
                fill="#f2f5e9" fill-opacity="0.5" stroke="#606060" stroke-width="1.0"/>
           <path id="arrow"
             d="M 11.500037,31.436501 C 11.940474,20.09759 22.043105,11.32322 32.158766,21.979434 L 37.068811,17.246167 C 37.068811,17.246167 37.088388,32 37.088388,32 L 22.160133,31.978069 C 22.160133,31.978069 26.997745,27.140456 26.997745,27.140456 C 18.528582,18.264221 13.291696,25.230495 11.500037,31.436501 z"
             style="fill:#404040;"/>
          </a>
         </g>
        </svg>
</svg>
