<?xml version="1.0" encoding="UTF-8" standalone="no"?>
<!DOCTYPE svg PUBLIC "-//W3C//DTD SVG 1.1//EN"
 "http://www.w3.org/Graphics/SVG/1.1/DTD/svg11.dtd">
<!-- Generated by graphviz version 7.0.1 (20221109.1506)
 -->
<!-- Title: DGtal::concepts::CPointEmbedder&lt; T &gt; Pages: 1 -->
<svg width="306pt" height="293pt"
 viewBox="0.00 0.00 306.00 293.00" xmlns="http://www.w3.org/2000/svg" xmlns:xlink="http://www.w3.org/1999/xlink">
<g id="graph0" class="graph" transform="scale(1 1) rotate(0) translate(4 289)">
<title>DGtal::concepts::CPointEmbedder&lt; T &gt;</title>
<!-- Node1 -->
<g id="node1" class="node">
<title>Node1</title>
<g id="a_node1"><a xlink:title="Aim: A point embedder is a mapping from digital points to Euclidean points. It adds inner types to fu...">
<polygon fill="#999999" stroke="#666666" points="202.5,-19 10.5,-19 10.5,0 202.5,0 202.5,-19"/>
<text text-anchor="middle" x="106.5" y="-7" font-family="FreeSans" font-size="10.00">DGtal::concepts::CPointEmbedder&lt; T &gt;</text>
</a>
</g>
</g>
<!-- Node2 -->
<g id="node2" class="node">
<title>Node2</title>
<g id="a_node2"><a xlink:href="structDGtal_1_1concepts_1_1CUnaryFunctor.html" target="_top" xlink:title=" ">
<polygon fill="white" stroke="#666666" points="187,-86 26,-86 26,-56 187,-56 187,-86"/>
<text text-anchor="start" x="34" y="-74" font-family="FreeSans" font-size="10.00">DGtal::concepts::CUnaryFunctor</text>
<text text-anchor="middle" x="106.5" y="-63" font-family="FreeSans" font-size="10.00">&lt; T, T::Point, T::RealPoint &gt;</text>
</a>
</g>
</g>
<!-- Node2&#45;&gt;Node1 -->
<g id="edge1" class="edge">
<title>Node2&#45;&gt;Node1</title>
<path fill="none" stroke="#63b8ff" d="M106.5,-44.13C106.5,-35.29 106.5,-25.99 106.5,-19.42"/>
<polygon fill="#63b8ff" stroke="#63b8ff" points="103,-44.08 106.5,-54.08 110,-44.08 103,-44.08"/>
</g>
<!-- Node3 -->
<g id="node3" class="node">
<title>Node3</title>
<g id="a_node3"><a xlink:href="structboost_1_1Assignable.html" target="_top" xlink:title="Go to http://www.sgi.com/tech/stl/Assignable.html.">
<polygon fill="white" stroke="#666666" points="119,-157.5 0,-157.5 0,-138.5 119,-138.5 119,-157.5"/>
<text text-anchor="middle" x="59.5" y="-145.5" font-family="FreeSans" font-size="10.00">boost::Assignable&lt; T &gt;</text>
</a>
</g>
</g>
<!-- Node3&#45;&gt;Node2 -->
<g id="edge2" class="edge">
<title>Node3&#45;&gt;Node2</title>
<path fill="none" stroke="#63b8ff" d="M70.96,-128.72C79.14,-115.65 90.01,-98.32 97.56,-86.27"/>
<polygon fill="#63b8ff" stroke="#63b8ff" points="68.22,-126.49 65.88,-136.82 74.16,-130.2 68.22,-126.49"/>
</g>
<!-- Node4 -->
<g id="node4" class="node">
<title>Node4</title>
<g id="a_node4"><a xlink:href="structDGtal_1_1concepts_1_1CUnaryFunctor.html" target="_top" xlink:title="Aim: Defines a unary functor, which associates arguments to results.">
<polygon fill="white" stroke="#666666" points="298,-163 137,-163 137,-133 298,-133 298,-163"/>
<text text-anchor="start" x="145" y="-151" font-family="FreeSans" font-size="10.00">DGtal::concepts::CUnaryFunctor</text>
<text text-anchor="middle" x="217.5" y="-140" font-family="FreeSans" font-size="10.00">&lt; X, A, R &gt;</text>
</a>
</g>
</g>
<!-- Node4&#45;&gt;Node2 -->
<g id="edge3" class="edge">
<title>Node4&#45;&gt;Node2</title>
<path fill="none" stroke="orange" stroke-dasharray="5,2" d="M186.79,-126.25C168.05,-113.59 144.56,-97.71 127.84,-86.42"/>
<polygon fill="orange" stroke="orange" points="184.6,-128.99 194.84,-131.69 188.52,-123.19 184.6,-128.99"/>
<text text-anchor="middle" x="230.5" y="-107" font-family="FreeSans" font-size="10.00"> &lt; T, T::Point, T::RealPoint &gt;</text>
</g>
<!-- Node5 -->
<g id="node5" class="node">
<title>Node5</title>
<g id="a_node5"><a xlink:href="structboost_1_1Assignable.html" target="_top" xlink:title=" ">
<polygon fill="white" stroke="#666666" points="277,-219 158,-219 158,-200 277,-200 277,-219"/>
<text text-anchor="middle" x="217.5" y="-207" font-family="FreeSans" font-size="10.00">boost::Assignable&lt; X &gt;</text>
</a>
</g>
</g>
<!-- Node5&#45;&gt;Node4 -->
<g id="edge4" class="edge">
<title>Node5&#45;&gt;Node4</title>
<path fill="none" stroke="#63b8ff" d="M217.5,-188.46C217.5,-180.23 217.5,-170.89 217.5,-163.36"/>
<polygon fill="#63b8ff" stroke="#63b8ff" points="214,-188.21 217.5,-198.21 221,-188.21 214,-188.21"/>
</g>
<!-- Node6 -->
<g id="node6" class="node">
<title>Node6</title>
<g id="a_node6"><a xlink:href="structboost_1_1Assignable.html" target="_top" xlink:title="Go to http://www.sgi.com/tech/stl/Assignable.html.">
<polygon fill="white" stroke="#666666" points="277,-285 158,-285 158,-266 277,-266 277,-285"/>
<text text-anchor="middle" x="217.5" y="-273" font-family="FreeSans" font-size="10.00">boost::Assignable&lt; T &gt;</text>
</a>
</g>
</g>
<!-- Node6&#45;&gt;Node5 -->
<g id="edge5" class="edge">
<title>Node6&#45;&gt;Node5</title>
<path fill="none" stroke="orange" stroke-dasharray="5,2" d="M217.5,-254.18C217.5,-242.44 217.5,-228.27 217.5,-219.32"/>
<polygon fill="orange" stroke="orange" points="214,-254.09 217.5,-264.09 221,-254.09 214,-254.09"/>
<text text-anchor="middle" x="231.5" y="-240" font-family="FreeSans" font-size="10.00"> &lt; X &gt;</text>
</g>
</g>
</svg>
