<?xml version="1.0" encoding="UTF-8" standalone="no"?>
<!DOCTYPE svg PUBLIC "-//W3C//DTD SVG 1.1//EN"
 "http://www.w3.org/Graphics/SVG/1.1/DTD/svg11.dtd">
<!-- Generated by graphviz version 11.0.0 (20240428.1522)
 -->
<!-- Title: DGtal::concepts::CDomainAdjacency&lt; T &gt; Pages: 1 -->
<svg width="963pt" height="88pt"
 viewBox="0.00 0.00 962.50 87.50" xmlns="http://www.w3.org/2000/svg" xmlns:xlink="http://www.w3.org/1999/xlink">
<g id="graph0" class="graph" transform="scale(1 1) rotate(0) translate(4 83.5)">
<title>DGtal::concepts::CDomainAdjacency&lt; T &gt;</title>
<!-- Node1 -->
<g id="Node000001" class="node">
<title>Node1</title>
<g id="a_Node000001"><a xlink:title="Aim: Refines the concept CAdjacency by telling that the adjacency is specific to a given domain of th...">
<polygon fill="#999999" stroke="#666666" points="954.5,-55.5 820,-55.5 820,-25 954.5,-25 954.5,-55.5"/>
<text text-anchor="start" x="828" y="-42" font-family="FreeSans" font-size="10.00">DGtal::concepts::CDomain</text>
<text text-anchor="middle" x="887.25" y="-30.75" font-family="FreeSans" font-size="10.00">Adjacency&lt; T &gt;</text>
</a>
</g>
</g>
<!-- Node2 -->
<g id="Node000002" class="node">
<title>Node2</title>
<g id="a_Node000002"><a xlink:href="structDGtal_1_1concepts_1_1CAdjacency.html" target="_top" xlink:title=" ">
<polygon fill="white" stroke="#666666" points="784,-49.88 613.5,-49.88 613.5,-30.62 784,-30.62 784,-49.88"/>
<text text-anchor="middle" x="698.75" y="-36.38" font-family="FreeSans" font-size="10.00">DGtal::concepts::CAdjacency&lt; T &gt;</text>
</a>
</g>
</g>
<!-- Node2&#45;&gt;Node1 -->
<g id="edge1_Node000001_Node000002" class="edge">
<title>Node2&#45;&gt;Node1</title>
<g id="a_edge1_Node000001_Node000002"><a xlink:title=" ">
<path fill="none" stroke="#63b8ff" d="M795.69,-40.25C803.78,-40.25 811.84,-40.25 819.63,-40.25"/>
<polygon fill="#63b8ff" stroke="#63b8ff" points="795.78,-36.75 785.78,-40.25 795.78,-43.75 795.78,-36.75"/>
</a>
</g>
</g>
<!-- Node3 -->
<g id="Node000003" class="node">
<title>Node3</title>
<g id="a_Node000003"><a xlink:href="structDGtal_1_1concepts_1_1CUndirectedSimpleLocalGraph.html" target="_top" xlink:title="Aim: Represents the concept of local graph: each vertex has neighboring vertices, but we do not neces...">
<polygon fill="white" stroke="#666666" points="550.5,-79.5 402.5,-79.5 402.5,-49 550.5,-49 550.5,-79.5"/>
<text text-anchor="start" x="410.5" y="-66" font-family="FreeSans" font-size="10.00">DGtal::concepts::CUndirected</text>
<text text-anchor="middle" x="476.5" y="-54.75" font-family="FreeSans" font-size="10.00">SimpleLocalGraph&lt; T &gt;</text>
</a>
</g>
</g>
<!-- Node3&#45;&gt;Node2 -->
<g id="edge2_Node000002_Node000003" class="edge">
<title>Node3&#45;&gt;Node2</title>
<g id="a_edge2_Node000002_Node000003"><a xlink:title=" ">
<path fill="none" stroke="#63b8ff" d="M562.28,-55.01C579.01,-53.19 596.58,-51.27 613.3,-49.45"/>
<polygon fill="#63b8ff" stroke="#63b8ff" points="561.91,-51.53 552.34,-56.09 562.67,-58.49 561.91,-51.53"/>
</a>
</g>
</g>
<!-- Node4 -->
<g id="Node000004" class="node">
<title>Node4</title>
<g id="a_Node000004"><a xlink:href="structDGtal_1_1concepts_1_1CAdjacency.html" target="_top" xlink:title="Aim: The concept CAdjacency defines an elementary adjacency relation between points of a digital spac...">
<polygon fill="white" stroke="#666666" points="549.75,-30.5 403.25,-30.5 403.25,0 549.75,0 549.75,-30.5"/>
<text text-anchor="start" x="411.25" y="-17" font-family="FreeSans" font-size="10.00">DGtal::concepts::CAdjacency</text>
<text text-anchor="middle" x="476.5" y="-5.75" font-family="FreeSans" font-size="10.00">&lt; Adj &gt;</text>
</a>
</g>
</g>
<!-- Node4&#45;&gt;Node2 -->
<g id="edge3_Node000002_Node000004" class="edge">
<title>Node4&#45;&gt;Node2</title>
<g id="a_edge3_Node000002_Node000004"><a xlink:title=" ">
<path fill="none" stroke="orange" stroke-dasharray="5,2" d="M561.27,-24.76C578.29,-26.69 596.21,-28.72 613.26,-30.66"/>
<polygon fill="orange" stroke="orange" points="562.06,-21.33 551.73,-23.68 561.27,-28.28 562.06,-21.33"/>
</a>
</g>
<text text-anchor="middle" x="582" y="-30" font-family="FreeSans" font-size="10.00" fill="grey"> &lt; T &gt;</text>
</g>
<!-- Node5 -->
<g id="Node000005" class="node">
<title>Node5</title>
<g id="a_Node000005"><a xlink:href="structDGtal_1_1concepts_1_1CUndirectedSimpleLocalGraph.html" target="_top" xlink:title=" ">
<polygon fill="white" stroke="#666666" points="366.5,-30.5 218.5,-30.5 218.5,0 366.5,0 366.5,-30.5"/>
<text text-anchor="start" x="226.5" y="-17" font-family="FreeSans" font-size="10.00">DGtal::concepts::CUndirected</text>
<text text-anchor="middle" x="292.5" y="-5.75" font-family="FreeSans" font-size="10.00">SimpleLocalGraph&lt; Adj &gt;</text>
</a>
</g>
</g>
<!-- Node5&#45;&gt;Node4 -->
<g id="edge4_Node000004_Node000005" class="edge">
<title>Node5&#45;&gt;Node4</title>
<g id="a_edge4_Node000004_Node000005"><a xlink:title=" ">
<path fill="none" stroke="#63b8ff" d="M378.04,-15.25C386.38,-15.25 394.8,-15.25 403,-15.25"/>
<polygon fill="#63b8ff" stroke="#63b8ff" points="378.25,-11.75 368.25,-15.25 378.25,-18.75 378.25,-11.75"/>
</a>
</g>
</g>
<!-- Node6 -->
<g id="Node000006" class="node">
<title>Node6</title>
<g id="a_Node000006"><a xlink:href="structDGtal_1_1concepts_1_1CUndirectedSimpleLocalGraph.html" target="_top" xlink:title="Aim: Represents the concept of local graph: each vertex has neighboring vertices, but we do not neces...">
<polygon fill="white" stroke="#666666" points="148,-30.5 0,-30.5 0,0 148,0 148,-30.5"/>
<text text-anchor="start" x="8" y="-17" font-family="FreeSans" font-size="10.00">DGtal::concepts::CUndirected</text>
<text text-anchor="middle" x="74" y="-5.75" font-family="FreeSans" font-size="10.00">SimpleLocalGraph&lt; T &gt;</text>
</a>
</g>
</g>
<!-- Node6&#45;&gt;Node5 -->
<g id="edge5_Node000005_Node000006" class="edge">
<title>Node6&#45;&gt;Node5</title>
<g id="a_edge5_Node000005_Node000006"><a xlink:title=" ">
<path fill="none" stroke="orange" stroke-dasharray="5,2" d="M159.57,-15.25C178.96,-15.25 199.41,-15.25 218.28,-15.25"/>
<polygon fill="orange" stroke="orange" points="159.81,-11.75 149.81,-15.25 159.81,-18.75 159.81,-11.75"/>
</a>
</g>
<text text-anchor="middle" x="183.25" y="-17" font-family="FreeSans" font-size="10.00" fill="grey"> &lt; Adj &gt;</text>
</g>
</g>
</svg>
