<?xml version="1.0" encoding="UTF-8" standalone="no"?>
<!DOCTYPE svg PUBLIC "-//W3C//DTD SVG 1.1//EN"
 "http://www.w3.org/Graphics/SVG/1.1/DTD/svg11.dtd">
<!-- Generated by graphviz version 7.0.1 (20221109.1506)
 -->
<!-- Title: DGtal::concepts::CDomainAdjacency&lt; T &gt; Pages: 1 -->
<svg width="970pt" height="86pt"
 viewBox="0.00 0.00 970.00 86.00" xmlns="http://www.w3.org/2000/svg" xmlns:xlink="http://www.w3.org/1999/xlink">
<g id="graph0" class="graph" transform="scale(1 1) rotate(0) translate(4 82)">
<title>DGtal::concepts::CDomainAdjacency&lt; T &gt;</title>
<!-- Node1 -->
<g id="node1" class="node">
<title>Node1</title>
<g id="a_node1"><a xlink:title="Aim: Refines the concept CAdjacency by telling that the adjacency is specific to a given domain of th...">
<polygon fill="#999999" stroke="#666666" points="962,-54 827,-54 827,-24 962,-24 962,-54"/>
<text text-anchor="start" x="835" y="-42" font-family="FreeSans" font-size="10.00">DGtal::concepts::CDomain</text>
<text text-anchor="middle" x="894.5" y="-31" font-family="FreeSans" font-size="10.00">Adjacency&lt; T &gt;</text>
</a>
</g>
</g>
<!-- Node2 -->
<g id="node2" class="node">
<title>Node2</title>
<g id="a_node2"><a xlink:href="structDGtal_1_1concepts_1_1CAdjacency.html" target="_top" xlink:title=" ">
<polygon fill="white" stroke="#666666" points="790,-48.5 619,-48.5 619,-29.5 790,-29.5 790,-48.5"/>
<text text-anchor="middle" x="704.5" y="-36.5" font-family="FreeSans" font-size="10.00">DGtal::concepts::CAdjacency&lt; T &gt;</text>
</a>
</g>
</g>
<!-- Node2&#45;&gt;Node1 -->
<g id="edge1" class="edge">
<title>Node2&#45;&gt;Node1</title>
<path fill="none" stroke="#63b8ff" d="M801.86,-39C810.26,-39 818.63,-39 826.7,-39"/>
<polygon fill="#63b8ff" stroke="#63b8ff" points="801.94,-35.5 791.94,-39 801.94,-42.5 801.94,-35.5"/>
</g>
<!-- Node3 -->
<g id="node3" class="node">
<title>Node3</title>
<g id="a_node3"><a xlink:href="structDGtal_1_1concepts_1_1CUndirectedSimpleLocalGraph.html" target="_top" xlink:title="Aim: Represents the concept of local graph: each vertex has neighboring vertices, but we do not neces...">
<polygon fill="white" stroke="#666666" points="555,-78 406,-78 406,-48 555,-48 555,-78"/>
<text text-anchor="start" x="414" y="-66" font-family="FreeSans" font-size="10.00">DGtal::concepts::CUndirected</text>
<text text-anchor="middle" x="480.5" y="-55" font-family="FreeSans" font-size="10.00">SimpleLocalGraph&lt; T &gt;</text>
</a>
</g>
</g>
<!-- Node3&#45;&gt;Node2 -->
<g id="edge2" class="edge">
<title>Node3&#45;&gt;Node2</title>
<path fill="none" stroke="#63b8ff" d="M566.53,-53.81C583.66,-51.96 601.66,-50.01 618.77,-48.16"/>
<polygon fill="#63b8ff" stroke="#63b8ff" points="566.49,-50.29 556.93,-54.85 567.25,-57.25 566.49,-50.29"/>
</g>
<!-- Node4 -->
<g id="node4" class="node">
<title>Node4</title>
<g id="a_node4"><a xlink:href="structDGtal_1_1concepts_1_1CAdjacency.html" target="_top" xlink:title="Aim: The concept CAdjacency defines an elementary adjacency relation between points of a digital spac...">
<polygon fill="white" stroke="#666666" points="554,-30 407,-30 407,0 554,0 554,-30"/>
<text text-anchor="start" x="415" y="-18" font-family="FreeSans" font-size="10.00">DGtal::concepts::CAdjacency</text>
<text text-anchor="middle" x="480.5" y="-7" font-family="FreeSans" font-size="10.00">&lt; Adj &gt;</text>
</a>
</g>
</g>
<!-- Node4&#45;&gt;Node2 -->
<g id="edge3" class="edge">
<title>Node4&#45;&gt;Node2</title>
<path fill="none" stroke="orange" stroke-dasharray="5,2" d="M565.71,-24.1C582.99,-25.97 601.2,-27.94 618.51,-29.81"/>
<polygon fill="orange" stroke="orange" points="566.32,-20.65 556,-23.05 565.57,-27.61 566.32,-20.65"/>
<text text-anchor="middle" x="587" y="-30" font-family="FreeSans" font-size="10.00"> &lt; T &gt;</text>
</g>
<!-- Node5 -->
<g id="node5" class="node">
<title>Node5</title>
<g id="a_node5"><a xlink:href="structDGtal_1_1concepts_1_1CUndirectedSimpleLocalGraph.html" target="_top" xlink:title=" ">
<polygon fill="white" stroke="#666666" points="369,-30 220,-30 220,0 369,0 369,-30"/>
<text text-anchor="start" x="228" y="-18" font-family="FreeSans" font-size="10.00">DGtal::concepts::CUndirected</text>
<text text-anchor="middle" x="294.5" y="-7" font-family="FreeSans" font-size="10.00">SimpleLocalGraph&lt; Adj &gt;</text>
</a>
</g>
</g>
<!-- Node5&#45;&gt;Node4 -->
<g id="edge4" class="edge">
<title>Node5&#45;&gt;Node4</title>
<path fill="none" stroke="#63b8ff" d="M380.62,-15C389.3,-15 398.07,-15 406.6,-15"/>
<polygon fill="#63b8ff" stroke="#63b8ff" points="380.79,-11.5 370.79,-15 380.79,-18.5 380.79,-11.5"/>
</g>
<!-- Node6 -->
<g id="node6" class="node">
<title>Node6</title>
<g id="a_node6"><a xlink:href="structDGtal_1_1concepts_1_1CUndirectedSimpleLocalGraph.html" target="_top" xlink:title="Aim: Represents the concept of local graph: each vertex has neighboring vertices, but we do not neces...">
<polygon fill="white" stroke="#666666" points="149,-30 0,-30 0,0 149,0 149,-30"/>
<text text-anchor="start" x="8" y="-18" font-family="FreeSans" font-size="10.00">DGtal::concepts::CUndirected</text>
<text text-anchor="middle" x="74.5" y="-7" font-family="FreeSans" font-size="10.00">SimpleLocalGraph&lt; T &gt;</text>
</a>
</g>
</g>
<!-- Node6&#45;&gt;Node5 -->
<g id="edge5" class="edge">
<title>Node6&#45;&gt;Node5</title>
<path fill="none" stroke="orange" stroke-dasharray="5,2" d="M160.66,-15C180.18,-15 200.78,-15 219.77,-15"/>
<polygon fill="orange" stroke="orange" points="160.82,-11.5 150.82,-15 160.82,-18.5 160.82,-11.5"/>
<text text-anchor="middle" x="184.5" y="-18" font-family="FreeSans" font-size="10.00"> &lt; Adj &gt;</text>
</g>
</g>
</svg>
