<?xml version="1.0" encoding="UTF-8" standalone="no"?>
<!DOCTYPE svg PUBLIC "-//W3C//DTD SVG 1.1//EN"
 "http://www.w3.org/Graphics/SVG/1.1/DTD/svg11.dtd">
<!-- Generated by graphviz version 7.0.1 (20221109.1506)
 -->
<!-- Title: DGtal::concepts::CVectorSpace&lt; T &gt; Pages: 1 -->
<svg width="716pt" height="306pt"
 viewBox="0.00 0.00 716.00 305.50" xmlns="http://www.w3.org/2000/svg" xmlns:xlink="http://www.w3.org/1999/xlink">
<g id="graph0" class="graph" transform="scale(1 1) rotate(0) translate(4 301.5)">
<title>DGtal::concepts::CVectorSpace&lt; T &gt;</title>
<!-- Node1 -->
<g id="node1" class="node">
<title>Node1</title>
<g id="a_node1"><a xlink:title="Aim: Base concept for vector space structure.">
<polygon fill="#999999" stroke="#666666" points="285,-212 155,-212 155,-182 285,-182 285,-212"/>
<text text-anchor="start" x="163" y="-200" font-family="FreeSans" font-size="10.00">DGtal::concepts::CVector</text>
<text text-anchor="middle" x="220" y="-189" font-family="FreeSans" font-size="10.00">Space&lt; T &gt;</text>
</a>
</g>
</g>
<!-- Node3 -->
<g id="node3" class="node">
<title>Node3</title>
<g id="a_node3"><a xlink:href="structDGtal_1_1concepts_1_1CDiscreteExteriorCalculusVectorSpace.html" target="_top" xlink:title="Aim: Lift linear algebra container concept into the dec package.">
<polygon fill="white" stroke="#666666" points="490,-255 321,-255 321,-225 490,-225 490,-255"/>
<text text-anchor="start" x="329" y="-243" font-family="FreeSans" font-size="10.00">DGtal::concepts::CDiscrete</text>
<text text-anchor="middle" x="405.5" y="-232" font-family="FreeSans" font-size="10.00">ExteriorCalculusVectorSpace&lt; T &gt;</text>
</a>
</g>
</g>
<!-- Node1&#45;&gt;Node3 -->
<g id="edge2" class="edge">
<title>Node1&#45;&gt;Node3</title>
<path fill="none" stroke="#63b8ff" d="M296.51,-214.7C310.5,-217.97 325,-221.37 338.67,-224.57"/>
<polygon fill="#63b8ff" stroke="#63b8ff" points="297.45,-211.32 286.91,-212.45 295.85,-218.13 297.45,-211.32"/>
</g>
<!-- Node4 -->
<g id="node4" class="node">
<title>Node4</title>
<g id="a_node4"><a xlink:href="structDGtal_1_1concepts_1_1CMatrix.html" target="_top" xlink:title="Aim: Represent any static or dynamic sized matrix having sparse or dense representation.">
<polygon fill="white" stroke="#666666" points="481.5,-206.5 329.5,-206.5 329.5,-187.5 481.5,-187.5 481.5,-206.5"/>
<text text-anchor="middle" x="405.5" y="-194.5" font-family="FreeSans" font-size="10.00">DGtal::concepts::CMatrix&lt; T &gt;</text>
</a>
</g>
</g>
<!-- Node1&#45;&gt;Node4 -->
<g id="edge3" class="edge">
<title>Node1&#45;&gt;Node4</title>
<path fill="none" stroke="#63b8ff" d="M296.88,-197C307.57,-197 318.55,-197 329.22,-197"/>
<polygon fill="#63b8ff" stroke="#63b8ff" points="296.95,-193.5 286.95,-197 296.95,-200.5 296.95,-193.5"/>
</g>
<!-- Node9 -->
<g id="node9" class="node">
<title>Node9</title>
<g id="a_node9"><a xlink:href="structDGtal_1_1concepts_1_1CVector.html" target="_top" xlink:title="Aim: Represent any static or dynamic sized column vector having sparse or dense representation.">
<polygon fill="white" stroke="#666666" points="482.5,-94.5 328.5,-94.5 328.5,-75.5 482.5,-75.5 482.5,-94.5"/>
<text text-anchor="middle" x="405.5" y="-82.5" font-family="FreeSans" font-size="10.00">DGtal::concepts::CVector&lt; T &gt;</text>
</a>
</g>
</g>
<!-- Node1&#45;&gt;Node9 -->
<g id="edge8" class="edge">
<title>Node1&#45;&gt;Node9</title>
<path fill="none" stroke="#63b8ff" d="M255.93,-175.68C295.66,-151.43 358.83,-112.87 388.33,-94.87"/>
<polygon fill="#63b8ff" stroke="#63b8ff" points="254.13,-172.68 247.42,-180.87 257.78,-178.65 254.13,-172.68"/>
</g>
<!-- Node2 -->
<g id="node2" class="node">
<title>Node2</title>
<g id="a_node2"><a xlink:href="structboost_1_1Assignable.html" target="_top" xlink:title="Go to http://www.sgi.com/tech/stl/Assignable.html.">
<polygon fill="white" stroke="#666666" points="119,-206.5 0,-206.5 0,-187.5 119,-187.5 119,-206.5"/>
<text text-anchor="middle" x="59.5" y="-194.5" font-family="FreeSans" font-size="10.00">boost::Assignable&lt; T &gt;</text>
</a>
</g>
</g>
<!-- Node2&#45;&gt;Node1 -->
<g id="edge1" class="edge">
<title>Node2&#45;&gt;Node1</title>
<path fill="none" stroke="#63b8ff" d="M130.33,-197C138.38,-197 146.56,-197 154.54,-197"/>
<polygon fill="#63b8ff" stroke="#63b8ff" points="130.58,-193.5 120.58,-197 130.58,-200.5 130.58,-193.5"/>
</g>
<!-- Node5 -->
<g id="node5" class="node">
<title>Node5</title>
<g id="a_node5"><a xlink:href="structDGtal_1_1concepts_1_1CDenseMatrix.html" target="_top" xlink:title="Aim: Represent any dynamic or static sized matrix having dense representation.">
<polygon fill="white" stroke="#666666" points="707.5,-297.5 526.5,-297.5 526.5,-278.5 707.5,-278.5 707.5,-297.5"/>
<text text-anchor="middle" x="617" y="-285.5" font-family="FreeSans" font-size="10.00">DGtal::concepts::CDenseMatrix&lt; T &gt;</text>
</a>
</g>
</g>
<!-- Node4&#45;&gt;Node5 -->
<g id="edge4" class="edge">
<title>Node4&#45;&gt;Node5</title>
<path fill="none" stroke="#63b8ff" d="M482.59,-211.55C485.16,-212.91 487.64,-214.39 490,-216 513.52,-232.05 502.36,-253.13 526,-269 531.44,-272.65 537.44,-275.62 543.69,-278.03"/>
<polygon fill="#63b8ff" stroke="#63b8ff" points="484.27,-208.47 473.71,-207.54 481.38,-214.85 484.27,-208.47"/>
</g>
<!-- Node6 -->
<g id="node6" class="node">
<title>Node6</title>
<g id="a_node6"><a xlink:href="structDGtal_1_1concepts_1_1CDynamicMatrix.html" target="_top" xlink:title="Aim: Represent any dynamic sized matrix having sparse or dense representation.">
<polygon fill="white" stroke="#666666" points="687,-260 547,-260 547,-230 687,-230 687,-260"/>
<text text-anchor="start" x="555" y="-248" font-family="FreeSans" font-size="10.00">DGtal::concepts::CDynamic</text>
<text text-anchor="middle" x="617" y="-237" font-family="FreeSans" font-size="10.00">Matrix&lt; T &gt;</text>
</a>
</g>
</g>
<!-- Node4&#45;&gt;Node6 -->
<g id="edge5" class="edge">
<title>Node4&#45;&gt;Node6</title>
<path fill="none" stroke="#63b8ff" d="M461.32,-209.45C470.88,-211.63 480.73,-213.88 490,-216 509.15,-220.38 529.92,-225.16 548.98,-229.54"/>
<polygon fill="#63b8ff" stroke="#63b8ff" points="462.28,-206.08 451.75,-207.27 460.72,-212.91 462.28,-206.08"/>
</g>
<!-- Node7 -->
<g id="node7" class="node">
<title>Node7</title>
<g id="a_node7"><a xlink:href="structDGtal_1_1concepts_1_1CSparseMatrix.html" target="_top" xlink:title="Aim: Represent any dynamic or static sized matrix having sparse representation.">
<polygon fill="white" stroke="#666666" points="684.5,-212 549.5,-212 549.5,-182 684.5,-182 684.5,-212"/>
<text text-anchor="start" x="557.5" y="-200" font-family="FreeSans" font-size="10.00">DGtal::concepts::CSparse</text>
<text text-anchor="middle" x="617" y="-189" font-family="FreeSans" font-size="10.00">Matrix&lt; T, TripletInterator &gt;</text>
</a>
</g>
</g>
<!-- Node4&#45;&gt;Node7 -->
<g id="edge6" class="edge">
<title>Node4&#45;&gt;Node7</title>
<path fill="none" stroke="#63b8ff" d="M493.09,-197C511.87,-197 531.45,-197 549.31,-197"/>
<polygon fill="#63b8ff" stroke="#63b8ff" points="493.35,-193.5 483.35,-197 493.35,-200.5 493.35,-193.5"/>
</g>
<!-- Node8 -->
<g id="node8" class="node">
<title>Node8</title>
<g id="a_node8"><a xlink:href="structDGtal_1_1concepts_1_1CStaticMatrix.html" target="_top" xlink:title="Aim: Represent any static sized matrix having sparse or dense representation.">
<polygon fill="white" stroke="#666666" points="680.5,-164 553.5,-164 553.5,-134 680.5,-134 680.5,-164"/>
<text text-anchor="start" x="561.5" y="-152" font-family="FreeSans" font-size="10.00">DGtal::concepts::CStatic</text>
<text text-anchor="middle" x="617" y="-141" font-family="FreeSans" font-size="10.00">Matrix&lt; T &gt;</text>
</a>
</g>
</g>
<!-- Node4&#45;&gt;Node8 -->
<g id="edge7" class="edge">
<title>Node4&#45;&gt;Node8</title>
<path fill="none" stroke="#63b8ff" d="M460.8,-184.56C489.06,-178.08 523.76,-170.13 553.17,-163.39"/>
<polygon fill="#63b8ff" stroke="#63b8ff" points="460.35,-181.07 451.38,-186.72 461.91,-187.89 460.35,-181.07"/>
</g>
<!-- Node10 -->
<g id="node10" class="node">
<title>Node10</title>
<g id="a_node10"><a xlink:href="structDGtal_1_1concepts_1_1CDenseVector.html" target="_top" xlink:title="Aim: Represent any dynamic or static sized matrix having dense representation.">
<polygon fill="white" stroke="#666666" points="708,-115.5 526,-115.5 526,-96.5 708,-96.5 708,-115.5"/>
<text text-anchor="middle" x="617" y="-103.5" font-family="FreeSans" font-size="10.00">DGtal::concepts::CDenseVector&lt; T &gt;</text>
</a>
</g>
</g>
<!-- Node9&#45;&gt;Node10 -->
<g id="edge9" class="edge">
<title>Node9&#45;&gt;Node10</title>
<path fill="none" stroke="#63b8ff" d="M493.95,-93.77C504.41,-94.81 515.09,-95.89 525.59,-96.94"/>
<polygon fill="#63b8ff" stroke="#63b8ff" points="494.53,-90.31 484.23,-92.79 493.83,-97.27 494.53,-90.31"/>
</g>
<!-- Node11 -->
<g id="node11" class="node">
<title>Node11</title>
<g id="a_node11"><a xlink:href="structDGtal_1_1concepts_1_1CDynamicVector.html" target="_top" xlink:title="Aim: Represent any dynamic sized column vector having sparse or dense representation.">
<polygon fill="white" stroke="#666666" points="687,-78 547,-78 547,-48 687,-48 687,-78"/>
<text text-anchor="start" x="555" y="-66" font-family="FreeSans" font-size="10.00">DGtal::concepts::CDynamic</text>
<text text-anchor="middle" x="617" y="-55" font-family="FreeSans" font-size="10.00">Vector&lt; T &gt;</text>
</a>
</g>
</g>
<!-- Node9&#45;&gt;Node11 -->
<g id="edge10" class="edge">
<title>Node9&#45;&gt;Node11</title>
<path fill="none" stroke="#63b8ff" d="M494.15,-75.8C511.72,-73.95 529.95,-72.04 546.78,-70.27"/>
<polygon fill="#63b8ff" stroke="#63b8ff" points="493.81,-72.31 484.23,-76.84 494.54,-79.27 493.81,-72.31"/>
</g>
<!-- Node12 -->
<g id="node12" class="node">
<title>Node12</title>
<g id="a_node12"><a xlink:href="structDGtal_1_1concepts_1_1CStaticVector.html" target="_top" xlink:title="Aim: Represent any static sized column vector having sparse or dense representation.">
<polygon fill="white" stroke="#666666" points="680.5,-30 553.5,-30 553.5,0 680.5,0 680.5,-30"/>
<text text-anchor="start" x="561.5" y="-18" font-family="FreeSans" font-size="10.00">DGtal::concepts::CStatic</text>
<text text-anchor="middle" x="617" y="-7" font-family="FreeSans" font-size="10.00">Vector&lt; T &gt;</text>
</a>
</g>
</g>
<!-- Node9&#45;&gt;Node12 -->
<g id="edge11" class="edge">
<title>Node9&#45;&gt;Node12</title>
<path fill="none" stroke="#63b8ff" d="M440.6,-70.76C464.32,-61.13 496.8,-48.48 526,-39 535.23,-36 545.07,-33.09 554.74,-30.39"/>
<polygon fill="#63b8ff" stroke="#63b8ff" points="439.37,-67.48 431.44,-74.51 442.02,-73.96 439.37,-67.48"/>
</g>
</g>
</svg>
