<?xml version="1.0" encoding="UTF-8" standalone="no"?>
<!DOCTYPE svg PUBLIC "-//W3C//DTD SVG 1.1//EN"
 "http://www.w3.org/Graphics/SVG/1.1/DTD/svg11.dtd">
<!-- Generated by graphviz version 11.0.0 (20240428.1522)
 -->
<!-- Title: DGtal::concepts::CUnaryFunctor&lt; X, A, R &gt; Pages: 1 -->
<svg width="2119pt" height="404pt"
 viewBox="0.00 0.00 2118.75 403.50" xmlns="http://www.w3.org/2000/svg" xmlns:xlink="http://www.w3.org/1999/xlink">
<g id="graph0" class="graph" transform="scale(1 1) rotate(0) translate(4 399.5)">
<title>DGtal::concepts::CUnaryFunctor&lt; X, A, R &gt;</title>
<!-- Node1 -->
<g id="Node000001" class="node">
<title>Node1</title>
<g id="a_Node000001"><a xlink:title="Aim: Defines a unary functor, which associates arguments to results.">
<polygon fill="#999999" stroke="#666666" points="496.5,-216.5 336.5,-216.5 336.5,-186 496.5,-186 496.5,-216.5"/>
<text text-anchor="start" x="344.5" y="-203" font-family="FreeSans" font-size="10.00">DGtal::concepts::CUnaryFunctor</text>
<text text-anchor="middle" x="416.5" y="-191.75" font-family="FreeSans" font-size="10.00">&lt; X, A, R &gt;</text>
</a>
</g>
</g>
<!-- Node4 -->
<g id="Node000004" class="node">
<title>Node4</title>
<g id="a_Node000004"><a xlink:href="structDGtal_1_1concepts_1_1CUnaryFunctor.html" target="_top" xlink:title=" ">
<polygon fill="white" stroke="#666666" points="817.75,-395.5 657.75,-395.5 657.75,-365 817.75,-365 817.75,-395.5"/>
<text text-anchor="start" x="665.75" y="-382" font-family="FreeSans" font-size="10.00">DGtal::concepts::CUnaryFunctor</text>
<text text-anchor="middle" x="737.75" y="-370.75" font-family="FreeSans" font-size="10.00">&lt; T, T::Cell, T::RealPoint &gt;</text>
</a>
</g>
</g>
<!-- Node1&#45;&gt;Node4 -->
<g id="edge3_Node000001_Node000004" class="edge">
<title>Node1&#45;&gt;Node4</title>
<g id="a_edge3_Node000001_Node000004"><a xlink:title=" ">
<path fill="none" stroke="orange" stroke-dasharray="5,2" d="M428.05,-227.15C442.53,-259.18 471.72,-312.84 514.5,-340.25 556.75,-367.32 612.32,-377.32 657.32,-380.55"/>
<polygon fill="orange" stroke="orange" points="431.35,-225.96 424.15,-218.18 424.93,-228.75 431.35,-225.96"/>
</a>
</g>
<text text-anchor="middle" x="577.12" y="-380" font-family="FreeSans" font-size="10.00" fill="grey"> &lt; T, T::Cell, T::RealPoint &gt;</text>
</g>
<!-- Node6 -->
<g id="Node000006" class="node">
<title>Node6</title>
<g id="a_Node000006"><a xlink:href="structDGtal_1_1concepts_1_1CUnaryFunctor.html" target="_top" xlink:title=" ">
<polygon fill="white" stroke="#666666" points="817.75,-346.5 657.75,-346.5 657.75,-316 817.75,-316 817.75,-346.5"/>
<text text-anchor="start" x="665.75" y="-333" font-family="FreeSans" font-size="10.00">DGtal::concepts::CUnaryFunctor</text>
<text text-anchor="middle" x="737.75" y="-321.75" font-family="FreeSans" font-size="10.00">&lt; T, T::Point, T::RealPoint &gt;</text>
</a>
</g>
</g>
<!-- Node1&#45;&gt;Node6 -->
<g id="edge5_Node000001_Node000006" class="edge">
<title>Node1&#45;&gt;Node6</title>
<g id="a_edge5_Node000001_Node000006"><a xlink:title=" ">
<path fill="none" stroke="orange" stroke-dasharray="5,2" d="M436.21,-225.43C453.98,-246.58 482.66,-276.33 514.5,-292.25 558.74,-314.37 613.4,-324.15 657.44,-328.39"/>
<polygon fill="orange" stroke="orange" points="439.06,-223.38 430.02,-217.85 433.64,-227.81 439.06,-223.38"/>
</a>
</g>
<text text-anchor="middle" x="577.12" y="-327" font-family="FreeSans" font-size="10.00" fill="grey"> &lt; T, T::Point, T::RealPoint &gt;</text>
</g>
<!-- Node8 -->
<g id="Node000008" class="node">
<title>Node8</title>
<g id="a_Node000008"><a xlink:href="structDGtal_1_1concepts_1_1CUnaryFunctor.html" target="_top" xlink:title=" ">
<polygon fill="white" stroke="#666666" points="817.75,-297.5 657.75,-297.5 657.75,-267 817.75,-267 817.75,-297.5"/>
<text text-anchor="start" x="665.75" y="-284" font-family="FreeSans" font-size="10.00">DGtal::concepts::CUnaryFunctor</text>
<text text-anchor="middle" x="737.75" y="-272.75" font-family="FreeSans" font-size="10.00">&lt; T, T::Point, T::Value &gt;</text>
</a>
</g>
</g>
<!-- Node1&#45;&gt;Node8 -->
<g id="edge7_Node000001_Node000008" class="edge">
<title>Node1&#45;&gt;Node8</title>
<g id="a_edge7_Node000001_Node000008"><a xlink:title=" ">
<path fill="none" stroke="orange" stroke-dasharray="5,2" d="M449.83,-222.92C468.06,-234.09 491.7,-246.88 514.5,-254.25 560.48,-269.11 614.18,-276.15 657.28,-279.45"/>
<polygon fill="orange" stroke="orange" points="451.91,-220.09 441.58,-217.73 448.18,-226.02 451.91,-220.09"/>
</a>
</g>
<text text-anchor="middle" x="577.12" y="-279" font-family="FreeSans" font-size="10.00" fill="grey"> &lt; T, T::Point, T::Value &gt;</text>
</g>
<!-- Node17 -->
<g id="Node000017" class="node">
<title>Node17</title>
<g id="a_Node000017"><a xlink:href="structDGtal_1_1concepts_1_1CUnaryFunctor.html" target="_top" xlink:title=" ">
<polygon fill="white" stroke="#666666" points="995.75,-219.5 835.75,-219.5 835.75,-189 995.75,-189 995.75,-219.5"/>
<text text-anchor="start" x="843.75" y="-206" font-family="FreeSans" font-size="10.00">DGtal::concepts::CUnaryFunctor</text>
<text text-anchor="middle" x="915.75" y="-194.75" font-family="FreeSans" font-size="10.00">&lt; T, T::Point, bool &gt;</text>
</a>
</g>
</g>
<!-- Node1&#45;&gt;Node17 -->
<g id="edge17_Node000001_Node000017" class="edge">
<title>Node1&#45;&gt;Node17</title>
<g id="a_edge17_Node000001_Node000017"><a xlink:title=" ">
<path fill="none" stroke="orange" stroke-dasharray="5,2" d="M508.27,-201.8C601.79,-202.36 746.13,-203.23 835.28,-203.77"/>
<polygon fill="orange" stroke="orange" points="508.38,-198.3 498.35,-201.74 508.33,-205.3 508.38,-198.3"/>
</a>
</g>
<text text-anchor="middle" x="577.12" y="-204" font-family="FreeSans" font-size="10.00" fill="grey"> &lt; T, T::Point, bool &gt;</text>
</g>
<!-- Node21 -->
<g id="Node000021" class="node">
<title>Node21</title>
<g id="a_Node000021"><a xlink:href="structDGtal_1_1concepts_1_1CUnaryFunctor.html" target="_top" xlink:title=" ">
<polygon fill="white" stroke="#666666" points="817.75,-173.5 657.75,-173.5 657.75,-143 817.75,-143 817.75,-173.5"/>
<text text-anchor="start" x="665.75" y="-160" font-family="FreeSans" font-size="10.00">DGtal::concepts::CUnaryFunctor</text>
<text text-anchor="middle" x="737.75" y="-148.75" font-family="FreeSans" font-size="10.00">&lt; T, TElement, bool &gt;</text>
</a>
</g>
</g>
<!-- Node1&#45;&gt;Node21 -->
<g id="edge21_Node000001_Node000021" class="edge">
<title>Node1&#45;&gt;Node21</title>
<g id="a_edge21_Node000001_Node000021"><a xlink:title=" ">
<path fill="none" stroke="orange" stroke-dasharray="5,2" d="M465.84,-181.64C481.15,-176.26 498.31,-171.06 514.5,-168 561.37,-159.13 614.74,-156.55 657.43,-156.25"/>
<polygon fill="orange" stroke="orange" points="464.68,-178.34 456.48,-185.05 467.07,-184.92 464.68,-178.34"/>
</a>
</g>
<text text-anchor="middle" x="577.12" y="-170" font-family="FreeSans" font-size="10.00" fill="grey"> &lt; T, TElement, bool &gt;</text>
</g>
<!-- Node27 -->
<g id="Node000027" class="node">
<title>Node27</title>
<g id="a_Node000027"><a xlink:href="structDGtal_1_1concepts_1_1CUnaryFunctor.html" target="_top" xlink:title=" ">
<polygon fill="white" stroke="#666666" points="817.75,-32.5 657.75,-32.5 657.75,-2 817.75,-2 817.75,-32.5"/>
<text text-anchor="start" x="665.75" y="-19" font-family="FreeSans" font-size="10.00">DGtal::concepts::CUnaryFunctor</text>
<text text-anchor="middle" x="737.75" y="-7.75" font-family="FreeSans" font-size="10.00">&lt; T, T::SCell, T::RealPoint &gt;</text>
</a>
</g>
</g>
<!-- Node1&#45;&gt;Node27 -->
<g id="edge28_Node000001_Node000027" class="edge">
<title>Node1&#45;&gt;Node27</title>
<g id="a_edge28_Node000001_Node000027"><a xlink:title=" ">
<path fill="none" stroke="orange" stroke-dasharray="5,2" d="M424.16,-174.7C435.47,-135.83 462.44,-64.52 514.5,-32 556.56,-5.73 612.26,-2.08 657.37,-4.98"/>
<polygon fill="orange" stroke="orange" points="420.83,-173.62 421.55,-184.19 427.58,-175.48 420.83,-173.62"/>
</a>
</g>
<text text-anchor="middle" x="577.12" y="-34" font-family="FreeSans" font-size="10.00" fill="grey"> &lt; T, T::SCell, T::RealPoint &gt;</text>
</g>
<!-- Node30 -->
<g id="Node000030" class="node">
<title>Node30</title>
<g id="a_Node000030"><a xlink:href="structDGtal_1_1concepts_1_1CUnaryFunctor.html" target="_top" xlink:title=" ">
<polygon fill="white" stroke="#666666" points="995.75,-76.5 835.75,-76.5 835.75,-46 995.75,-46 995.75,-76.5"/>
<text text-anchor="start" x="843.75" y="-63" font-family="FreeSans" font-size="10.00">DGtal::concepts::CUnaryFunctor</text>
<text text-anchor="middle" x="915.75" y="-51.75" font-family="FreeSans" font-size="10.00">&lt; T, T::Surfel, bool &gt;</text>
</a>
</g>
</g>
<!-- Node1&#45;&gt;Node30 -->
<g id="edge31_Node000001_Node000030" class="edge">
<title>Node1&#45;&gt;Node30</title>
<g id="a_edge31_Node000001_Node000030"><a xlink:title=" ">
<path fill="none" stroke="orange" stroke-dasharray="5,2" d="M433.08,-176.51C449.9,-152.16 479.11,-116.22 514.5,-99 616.96,-49.14 751.5,-47.52 835.55,-52.89"/>
<polygon fill="orange" stroke="orange" points="430.33,-174.31 427.68,-184.57 436.15,-178.2 430.33,-174.31"/>
</a>
</g>
<text text-anchor="middle" x="577.12" y="-101" font-family="FreeSans" font-size="10.00" fill="grey"> &lt; T, T::Surfel, bool &gt;</text>
</g>
<!-- Node31 -->
<g id="Node000031" class="node">
<title>Node31</title>
<g id="a_Node000031"><a xlink:href="structDGtal_1_1concepts_1_1CUnaryFunctor.html" target="_top" xlink:title=" ">
<polygon fill="white" stroke="#666666" points="995.75,-258.5 835.75,-258.5 835.75,-228 995.75,-228 995.75,-258.5"/>
<text text-anchor="start" x="843.75" y="-245" font-family="FreeSans" font-size="10.00">DGtal::concepts::CUnaryFunctor</text>
<text text-anchor="middle" x="915.75" y="-233.75" font-family="FreeSans" font-size="10.00">&lt; I, I::Point, I::Value &gt;</text>
</a>
</g>
</g>
<!-- Node1&#45;&gt;Node31 -->
<g id="edge33_Node000001_Node000031" class="edge">
<title>Node1&#45;&gt;Node31</title>
<g id="a_edge33_Node000001_Node000031"><a xlink:title=" ">
<path fill="none" stroke="orange" stroke-dasharray="5,2" d="M508.22,-216.5C510.33,-216.76 512.43,-217.01 514.5,-217.25 625.54,-229.98 754.67,-236.97 835.56,-240.41"/>
<polygon fill="orange" stroke="orange" points="508.69,-213.03 498.32,-215.19 507.77,-219.97 508.69,-213.03"/>
</a>
</g>
<text text-anchor="middle" x="577.12" y="-230" font-family="FreeSans" font-size="10.00" fill="grey"> &lt; I, I::Point, I::Value &gt;</text>
</g>
<!-- Node32 -->
<g id="Node000032" class="node">
<title>Node32</title>
<g id="a_Node000032"><a xlink:href="structDGtal_1_1concepts_1_1CUnaryFunctor.html" target="_top" xlink:title=" ">
<polygon fill="white" stroke="#666666" points="995.75,-117.5 835.75,-117.5 835.75,-87 995.75,-87 995.75,-117.5"/>
<text text-anchor="start" x="843.75" y="-104" font-family="FreeSans" font-size="10.00">DGtal::concepts::CUnaryFunctor</text>
<text text-anchor="middle" x="915.75" y="-92.75" font-family="FreeSans" font-size="10.00">&lt; T, T::Vertex, bool &gt;</text>
</a>
</g>
</g>
<!-- Node1&#45;&gt;Node32 -->
<g id="edge35_Node000001_Node000032" class="edge">
<title>Node1&#45;&gt;Node32</title>
<g id="a_edge35_Node000001_Node000032"><a xlink:title=" ">
<path fill="none" stroke="orange" stroke-dasharray="5,2" d="M446.25,-178.91C464.7,-165.83 489.76,-150.3 514.5,-142 621.58,-106.08 753.14,-99.68 835.49,-99.84"/>
<polygon fill="orange" stroke="orange" points="444.22,-176.06 438.2,-184.78 448.34,-181.72 444.22,-176.06"/>
</a>
</g>
<text text-anchor="middle" x="577.12" y="-144" font-family="FreeSans" font-size="10.00" fill="grey"> &lt; T, T::Vertex, bool &gt;</text>
</g>
<!-- Node2 -->
<g id="Node000002" class="node">
<title>Node2</title>
<g id="a_Node000002"><a xlink:href="structboost_1_1Assignable.html" target="_top" xlink:title=" ">
<polygon fill="white" stroke="#666666" points="300.5,-210.88 181.75,-210.88 181.75,-191.62 300.5,-191.62 300.5,-210.88"/>
<text text-anchor="middle" x="241.12" y="-197.38" font-family="FreeSans" font-size="10.00">boost::Assignable&lt; X &gt;</text>
</a>
</g>
</g>
<!-- Node2&#45;&gt;Node1 -->
<g id="edge1_Node000001_Node000002" class="edge">
<title>Node2&#45;&gt;Node1</title>
<g id="a_edge1_Node000001_Node000002"><a xlink:title=" ">
<path fill="none" stroke="#63b8ff" d="M312.24,-201.25C320.15,-201.25 328.25,-201.25 336.26,-201.25"/>
<polygon fill="#63b8ff" stroke="#63b8ff" points="312.34,-197.75 302.34,-201.25 312.34,-204.75 312.34,-197.75"/>
</a>
</g>
</g>
<!-- Node3 -->
<g id="Node000003" class="node">
<title>Node3</title>
<g id="a_Node000003"><a xlink:href="structboost_1_1Assignable.html" target="_top" xlink:title="Go to http://www.sgi.com/tech/stl/Assignable.html.">
<polygon fill="white" stroke="#666666" points="118,-210.88 0,-210.88 0,-191.62 118,-191.62 118,-210.88"/>
<text text-anchor="middle" x="59" y="-197.38" font-family="FreeSans" font-size="10.00">boost::Assignable&lt; T &gt;</text>
</a>
</g>
</g>
<!-- Node3&#45;&gt;Node2 -->
<g id="edge2_Node000002_Node000003" class="edge">
<title>Node3&#45;&gt;Node2</title>
<g id="a_edge2_Node000002_Node000003"><a xlink:title=" ">
<path fill="none" stroke="orange" stroke-dasharray="5,2" d="M129.54,-201.25C146.64,-201.25 164.78,-201.25 181.32,-201.25"/>
<polygon fill="orange" stroke="orange" points="130,-197.75 119.99,-201.25 129.99,-204.75 130,-197.75"/>
</a>
</g>
<text text-anchor="middle" x="149.88" y="-203" font-family="FreeSans" font-size="10.00" fill="grey"> &lt; X &gt;</text>
</g>
<!-- Node5 -->
<g id="Node000005" class="node">
<title>Node5</title>
<g id="a_Node000005"><a xlink:href="structDGtal_1_1concepts_1_1CCellEmbedder.html" target="_top" xlink:title="Aim: A cell embedder is a mapping from unsigned cells to Euclidean points. It adds inner types to fun...">
<polygon fill="white" stroke="#666666" points="1203.38,-389.88 1017.12,-389.88 1017.12,-370.62 1203.38,-370.62 1203.38,-389.88"/>
<text text-anchor="middle" x="1110.25" y="-376.38" font-family="FreeSans" font-size="10.00">DGtal::concepts::CCellEmbedder&lt; T &gt;</text>
</a>
</g>
</g>
<!-- Node4&#45;&gt;Node5 -->
<g id="edge4_Node000004_Node000005" class="edge">
<title>Node4&#45;&gt;Node5</title>
<g id="a_edge4_Node000004_Node000005"><a xlink:title=" ">
<path fill="none" stroke="#63b8ff" d="M829.39,-380.25C886.33,-380.25 959.56,-380.25 1016.83,-380.25"/>
<polygon fill="#63b8ff" stroke="#63b8ff" points="829.75,-376.75 819.75,-380.25 829.75,-383.75 829.75,-376.75"/>
</a>
</g>
</g>
<!-- Node7 -->
<g id="Node000007" class="node">
<title>Node7</title>
<g id="a_Node000007"><a xlink:href="structDGtal_1_1concepts_1_1CPointEmbedder.html" target="_top" xlink:title="Aim: A point embedder is a mapping from digital points to Euclidean points. It adds inner types to fu...">
<polygon fill="white" stroke="#666666" points="1206,-340.88 1014.5,-340.88 1014.5,-321.62 1206,-321.62 1206,-340.88"/>
<text text-anchor="middle" x="1110.25" y="-327.38" font-family="FreeSans" font-size="10.00">DGtal::concepts::CPointEmbedder&lt; T &gt;</text>
</a>
</g>
</g>
<!-- Node6&#45;&gt;Node7 -->
<g id="edge6_Node000006_Node000007" class="edge">
<title>Node6&#45;&gt;Node7</title>
<g id="a_edge6_Node000006_Node000007"><a xlink:title=" ">
<path fill="none" stroke="#63b8ff" d="M829.58,-331.25C885.6,-331.25 957.34,-331.25 1014.14,-331.25"/>
<polygon fill="#63b8ff" stroke="#63b8ff" points="829.75,-327.75 819.75,-331.25 829.75,-334.75 829.75,-327.75"/>
</a>
</g>
</g>
<!-- Node9 -->
<g id="Node000009" class="node">
<title>Node9</title>
<g id="a_Node000009"><a xlink:href="structDGtal_1_1concepts_1_1CPointFunctor.html" target="_top" xlink:title="Aim: Defines a functor on points.">
<polygon fill="white" stroke="#666666" points="1200.38,-296.88 1020.12,-296.88 1020.12,-277.62 1200.38,-277.62 1200.38,-296.88"/>
<text text-anchor="middle" x="1110.25" y="-283.38" font-family="FreeSans" font-size="10.00">DGtal::concepts::CPointFunctor&lt; T &gt;</text>
</a>
</g>
</g>
<!-- Node8&#45;&gt;Node9 -->
<g id="edge8_Node000008_Node000009" class="edge">
<title>Node8&#45;&gt;Node9</title>
<g id="a_edge8_Node000008_Node000009"><a xlink:title=" ">
<path fill="none" stroke="#63b8ff" d="M829.58,-283.48C887.48,-284.26 962.19,-285.27 1019.82,-286.04"/>
<polygon fill="#63b8ff" stroke="#63b8ff" points="829.79,-279.98 819.74,-283.34 829.7,-286.98 829.79,-279.98"/>
</a>
</g>
</g>
<!-- Node10 -->
<g id="Node000010" class="node">
<title>Node10</title>
<g id="a_Node000010"><a xlink:href="structDGtal_1_1concepts_1_1COrientationFunctor.html" target="_top" xlink:title="Aim: This concept gathers models implementing an orientation test of &#160;points in a space of dimension ...">
<polygon fill="white" stroke="#666666" points="1475.88,-336.5 1327.88,-336.5 1327.88,-306 1475.88,-306 1475.88,-336.5"/>
<text text-anchor="start" x="1335.88" y="-323" font-family="FreeSans" font-size="10.00">DGtal::concepts::COrientation</text>
<text text-anchor="middle" x="1401.88" y="-311.75" font-family="FreeSans" font-size="10.00">Functor&lt; T &gt;</text>
</a>
</g>
</g>
<!-- Node9&#45;&gt;Node10 -->
<g id="edge9_Node000009_Node000010" class="edge">
<title>Node9&#45;&gt;Node10</title>
<g id="a_edge9_Node000009_Node000010"><a xlink:title=" ">
<path fill="none" stroke="#63b8ff" d="M1208.73,-298.69C1247.66,-303.26 1291.71,-308.44 1327.81,-312.67"/>
<polygon fill="#63b8ff" stroke="#63b8ff" points="1209.21,-295.23 1198.87,-297.54 1208.39,-302.18 1209.21,-295.23"/>
</a>
</g>
</g>
<!-- Node12 -->
<g id="Node000012" class="node">
<title>Node12</title>
<g id="a_Node000012"><a xlink:href="structDGtal_1_1concepts_1_1CPointFunctor.html" target="_top" xlink:title=" ">
<polygon fill="white" stroke="#666666" points="1490.5,-275.88 1313.25,-275.88 1313.25,-256.62 1490.5,-256.62 1490.5,-275.88"/>
<text text-anchor="middle" x="1401.88" y="-262.38" font-family="FreeSans" font-size="10.00">DGtal::concepts::CPointFunctor&lt; I &gt;</text>
</a>
</g>
</g>
<!-- Node9&#45;&gt;Node12 -->
<g id="edge11_Node000009_Node000012" class="edge">
<title>Node9&#45;&gt;Node12</title>
<g id="a_edge11_Node000009_Node000012"><a xlink:title=" ">
<path fill="none" stroke="orange" stroke-dasharray="5,2" d="M1211.98,-279.95C1244.84,-277.56 1281.05,-274.94 1312.9,-272.63"/>
<polygon fill="orange" stroke="orange" points="1211.74,-276.45 1202.02,-280.67 1212.25,-283.44 1211.74,-276.45"/>
</a>
</g>
<text text-anchor="middle" x="1260" y="-280" font-family="FreeSans" font-size="10.00" fill="grey"> &lt; I &gt;</text>
</g>
<!-- Node11 -->
<g id="Node000011" class="node">
<title>Node11</title>
<g id="a_Node000011"><a xlink:href="structDGtal_1_1concepts_1_1COrientationFunctor2.html" target="_top" xlink:title="Aim: This concept is a refinement of COrientationFunctor, useful for simple algebraic curves that can...">
<polygon fill="white" stroke="#666666" points="1694.75,-336.5 1546.75,-336.5 1546.75,-306 1694.75,-306 1694.75,-336.5"/>
<text text-anchor="start" x="1554.75" y="-323" font-family="FreeSans" font-size="10.00">DGtal::concepts::COrientation</text>
<text text-anchor="middle" x="1620.75" y="-311.75" font-family="FreeSans" font-size="10.00">Functor2&lt; T &gt;</text>
</a>
</g>
</g>
<!-- Node10&#45;&gt;Node11 -->
<g id="edge10_Node000010_Node000011" class="edge">
<title>Node10&#45;&gt;Node11</title>
<g id="a_edge10_Node000010_Node000011"><a xlink:title=" ">
<path fill="none" stroke="#63b8ff" d="M1487.59,-321.25C1507.01,-321.25 1527.5,-321.25 1546.4,-321.25"/>
<polygon fill="#63b8ff" stroke="#63b8ff" points="1487.81,-317.75 1477.81,-321.25 1487.81,-324.75 1487.81,-317.75"/>
</a>
</g>
</g>
<!-- Node13 -->
<g id="Node000013" class="node">
<title>Node13</title>
<g id="a_Node000013"><a xlink:href="structDGtal_1_1concepts_1_1CTrivialConstImage.html" target="_top" xlink:title="Aim: Defines the concept describing a read&#45;only image, which is a refinement of CPointFunctor.">
<polygon fill="white" stroke="#666666" points="1684.25,-281.5 1557.25,-281.5 1557.25,-251 1684.25,-251 1684.25,-281.5"/>
<text text-anchor="start" x="1565.25" y="-268" font-family="FreeSans" font-size="10.00">DGtal::concepts::CTrivial</text>
<text text-anchor="middle" x="1620.75" y="-256.75" font-family="FreeSans" font-size="10.00">ConstImage&lt; I &gt;</text>
</a>
</g>
</g>
<!-- Node12&#45;&gt;Node13 -->
<g id="edge12_Node000012_Node000013" class="edge">
<title>Node12&#45;&gt;Node13</title>
<g id="a_edge12_Node000012_Node000013"><a xlink:title=" ">
<path fill="none" stroke="#63b8ff" d="M1502.04,-266.25C1520.74,-266.25 1539.82,-266.25 1557.02,-266.25"/>
<polygon fill="#63b8ff" stroke="#63b8ff" points="1502.29,-262.75 1492.29,-266.25 1502.29,-269.75 1502.29,-262.75"/>
</a>
</g>
</g>
<!-- Node14 -->
<g id="Node000014" class="node">
<title>Node14</title>
<g id="a_Node000014"><a xlink:href="structDGtal_1_1concepts_1_1CConstImage.html" target="_top" xlink:title="Aim: Defines the concept describing a read&#45;only image, which is a refinement of CPointFunctor.">
<polygon fill="white" stroke="#666666" points="1926,-254.88 1751,-254.88 1751,-235.62 1926,-235.62 1926,-254.88"/>
<text text-anchor="middle" x="1838.5" y="-241.38" font-family="FreeSans" font-size="10.00">DGtal::concepts::CConstImage&lt; I &gt;</text>
</a>
</g>
</g>
<!-- Node13&#45;&gt;Node14 -->
<g id="edge13_Node000013_Node000014" class="edge">
<title>Node13&#45;&gt;Node14</title>
<g id="a_edge13_Node000013_Node000014"><a xlink:title=" ">
<path fill="none" stroke="#63b8ff" d="M1696.1,-259.01C1713.72,-257.3 1732.67,-255.45 1750.78,-253.69"/>
<polygon fill="#63b8ff" stroke="#63b8ff" points="1695.85,-255.52 1686.24,-259.97 1696.53,-262.49 1695.85,-255.52"/>
</a>
</g>
</g>
<!-- Node16 -->
<g id="Node000016" class="node">
<title>Node16</title>
<g id="a_Node000016"><a xlink:href="structDGtal_1_1concepts_1_1CTrivialImage.html" target="_top" xlink:title="Aim: Defines the concept describing an image without extra ranges, which is a refinement of CTrivialC...">
<polygon fill="white" stroke="#666666" points="1902,-303.5 1775,-303.5 1775,-273 1902,-273 1902,-303.5"/>
<text text-anchor="start" x="1783" y="-290" font-family="FreeSans" font-size="10.00">DGtal::concepts::CTrivial</text>
<text text-anchor="middle" x="1838.5" y="-278.75" font-family="FreeSans" font-size="10.00">Image&lt; I &gt;</text>
</a>
</g>
</g>
<!-- Node13&#45;&gt;Node16 -->
<g id="edge15_Node000013_Node000016" class="edge">
<title>Node13&#45;&gt;Node16</title>
<g id="a_edge15_Node000013_Node000016"><a xlink:title=" ">
<path fill="none" stroke="#63b8ff" d="M1695.93,-273.81C1721.62,-276.43 1750.14,-279.34 1774.81,-281.86"/>
<polygon fill="#63b8ff" stroke="#63b8ff" points="1696.54,-270.36 1686.24,-272.83 1695.83,-277.32 1696.54,-270.36"/>
</a>
</g>
</g>
<!-- Node15 -->
<g id="Node000015" class="node">
<title>Node15</title>
<g id="a_Node000015"><a xlink:href="structDGtal_1_1concepts_1_1CImage.html" target="_top" xlink:title="Aim: Defines the concept describing a read/write image, having an output iterator.">
<polygon fill="white" stroke="#666666" points="2110.75,-275.88 1962,-275.88 1962,-256.62 2110.75,-256.62 2110.75,-275.88"/>
<text text-anchor="middle" x="2036.38" y="-262.38" font-family="FreeSans" font-size="10.00">DGtal::concepts::CImage&lt; I &gt;</text>
</a>
</g>
</g>
<!-- Node14&#45;&gt;Node15 -->
<g id="edge14_Node000014_Node000015" class="edge">
<title>Node14&#45;&gt;Node15</title>
<g id="a_edge14_Node000014_Node000015"><a xlink:title=" ">
<path fill="none" stroke="#63b8ff" d="M1937.62,-255.77C1945.67,-256.63 1953.71,-257.49 1961.54,-258.33"/>
<polygon fill="#63b8ff" stroke="#63b8ff" points="1938.09,-252.3 1927.77,-254.71 1937.34,-259.26 1938.09,-252.3"/>
</a>
</g>
</g>
<!-- Node16&#45;&gt;Node15 -->
<g id="edge16_Node000016_Node000015" class="edge">
<title>Node16&#45;&gt;Node15</title>
<g id="a_edge16_Node000016_Node000015"><a xlink:title=" ">
<path fill="none" stroke="#63b8ff" d="M1913.57,-279.93C1929.32,-278.16 1945.94,-276.29 1961.67,-274.53"/>
<polygon fill="#63b8ff" stroke="#63b8ff" points="1913.34,-276.43 1903.79,-281.03 1914.12,-283.39 1913.34,-276.43"/>
</a>
</g>
</g>
<!-- Node18 -->
<g id="Node000018" class="node">
<title>Node18</title>
<g id="a_Node000018"><a xlink:href="structDGtal_1_1concepts_1_1CPredicate.html" target="_top" xlink:title=" ">
<polygon fill="white" stroke="#666666" points="1472.88,-215.5 1330.88,-215.5 1330.88,-185 1472.88,-185 1472.88,-215.5"/>
<text text-anchor="start" x="1338.88" y="-202" font-family="FreeSans" font-size="10.00">DGtal::concepts::CPredicate</text>
<text text-anchor="middle" x="1401.88" y="-190.75" font-family="FreeSans" font-size="10.00">&lt; T, T::Point &gt;</text>
</a>
</g>
</g>
<!-- Node17&#45;&gt;Node18 -->
<g id="edge18_Node000017_Node000018" class="edge">
<title>Node17&#45;&gt;Node18</title>
<g id="a_edge18_Node000017_Node000018"><a xlink:title=" ">
<path fill="none" stroke="#63b8ff" d="M1007.59,-203.5C1101.21,-202.73 1245.16,-201.54 1330.49,-200.83"/>
<polygon fill="#63b8ff" stroke="#63b8ff" points="1007.64,-200 997.66,-203.58 1007.69,-207 1007.64,-200"/>
</a>
</g>
</g>
<!-- Node19 -->
<g id="Node000019" class="node">
<title>Node19</title>
<g id="a_Node000019"><a xlink:href="structDGtal_1_1concepts_1_1CPointPredicate.html" target="_top" xlink:title="Aim: Defines a predicate on a point.">
<polygon fill="white" stroke="#666666" points="1715,-209.88 1526.5,-209.88 1526.5,-190.62 1715,-190.62 1715,-209.88"/>
<text text-anchor="middle" x="1620.75" y="-196.38" font-family="FreeSans" font-size="10.00">DGtal::concepts::CPointPredicate&lt; T &gt;</text>
</a>
</g>
</g>
<!-- Node18&#45;&gt;Node19 -->
<g id="edge19_Node000018_Node000019" class="edge">
<title>Node18&#45;&gt;Node19</title>
<g id="a_edge19_Node000018_Node000019"><a xlink:title=" ">
<path fill="none" stroke="#63b8ff" d="M1484.51,-200.25C1498.05,-200.25 1512.2,-200.25 1526.01,-200.25"/>
<polygon fill="#63b8ff" stroke="#63b8ff" points="1484.8,-196.75 1474.8,-200.25 1484.8,-203.75 1484.8,-196.75"/>
</a>
</g>
</g>
<!-- Node20 -->
<g id="Node000020" class="node">
<title>Node20</title>
<g id="a_Node000020"><a xlink:href="structDGtal_1_1concepts_1_1CDigitalSet.html" target="_top" xlink:title="Aim: Represents a set of points within the given domain. This set of points is modifiable by the user...">
<polygon fill="white" stroke="#666666" points="1902.75,-215.5 1774.25,-215.5 1774.25,-185 1902.75,-185 1902.75,-215.5"/>
<text text-anchor="start" x="1782.25" y="-202" font-family="FreeSans" font-size="10.00">DGtal::concepts::CDigital</text>
<text text-anchor="middle" x="1838.5" y="-190.75" font-family="FreeSans" font-size="10.00">Set&lt; T &gt;</text>
</a>
</g>
</g>
<!-- Node19&#45;&gt;Node20 -->
<g id="edge20_Node000019_Node000020" class="edge">
<title>Node19&#45;&gt;Node20</title>
<g id="a_edge20_Node000019_Node000020"><a xlink:title=" ">
<path fill="none" stroke="#63b8ff" d="M1726.62,-200.25C1742.82,-200.25 1759.1,-200.25 1774.02,-200.25"/>
<polygon fill="#63b8ff" stroke="#63b8ff" points="1726.95,-196.75 1716.95,-200.25 1726.95,-203.75 1726.95,-196.75"/>
</a>
</g>
</g>
<!-- Node22 -->
<g id="Node000022" class="node">
<title>Node22</title>
<g id="a_Node000022"><a xlink:href="structDGtal_1_1concepts_1_1CPredicate.html" target="_top" xlink:title="Aim: Defines a predicate function, ie. a functor mapping a domain into the set of booleans.">
<polygon fill="white" stroke="#666666" points="1181.25,-173.5 1039.25,-173.5 1039.25,-143 1181.25,-143 1181.25,-173.5"/>
<text text-anchor="start" x="1047.25" y="-160" font-family="FreeSans" font-size="10.00">DGtal::concepts::CPredicate</text>
<text text-anchor="middle" x="1110.25" y="-148.75" font-family="FreeSans" font-size="10.00">&lt; T, TElement &gt;</text>
</a>
</g>
</g>
<!-- Node21&#45;&gt;Node22 -->
<g id="edge22_Node000021_Node000022" class="edge">
<title>Node21&#45;&gt;Node22</title>
<g id="a_edge22_Node000021_Node000022"><a xlink:title=" ">
<path fill="none" stroke="#63b8ff" d="M829.62,-158.25C894.18,-158.25 979.59,-158.25 1038.96,-158.25"/>
<polygon fill="#63b8ff" stroke="#63b8ff" points="829.75,-154.75 819.75,-158.25 829.75,-161.75 829.75,-154.75"/>
</a>
</g>
</g>
<!-- Node22&#45;&gt;Node18 -->
<g id="edge23_Node000022_Node000018" class="edge">
<title>Node22&#45;&gt;Node18</title>
<g id="a_edge23_Node000022_Node000018"><a xlink:title=" ">
<path fill="none" stroke="orange" stroke-dasharray="5,2" d="M1193.11,-170.12C1236.44,-176.4 1289.11,-184.04 1330.58,-190.06"/>
<polygon fill="orange" stroke="orange" points="1193.63,-166.66 1183.23,-168.69 1192.62,-173.59 1193.63,-166.66"/>
</a>
</g>
<text text-anchor="middle" x="1260" y="-186" font-family="FreeSans" font-size="10.00" fill="grey"> &lt; T, T::Point &gt;</text>
</g>
<!-- Node23 -->
<g id="Node000023" class="node">
<title>Node23</title>
<g id="a_Node000023"><a xlink:href="structDGtal_1_1concepts_1_1CPredicate.html" target="_top" xlink:title=" ">
<polygon fill="white" stroke="#666666" points="1472.88,-86.5 1330.88,-86.5 1330.88,-56 1472.88,-56 1472.88,-86.5"/>
<text text-anchor="start" x="1338.88" y="-73" font-family="FreeSans" font-size="10.00">DGtal::concepts::CPredicate</text>
<text text-anchor="middle" x="1401.88" y="-61.75" font-family="FreeSans" font-size="10.00">&lt; T, T::Surfel &gt;</text>
</a>
</g>
</g>
<!-- Node22&#45;&gt;Node23 -->
<g id="edge24_Node000022_Node000023" class="edge">
<title>Node22&#45;&gt;Node23</title>
<g id="a_edge24_Node000022_Node000023"><a xlink:title=" ">
<path fill="none" stroke="orange" stroke-dasharray="5,2" d="M1174.16,-139.35C1226.36,-123.67 1299.71,-101.64 1348.69,-86.93"/>
<polygon fill="orange" stroke="orange" points="1173.38,-135.93 1164.81,-142.16 1175.4,-142.64 1173.38,-135.93"/>
</a>
</g>
<text text-anchor="middle" x="1260" y="-125" font-family="FreeSans" font-size="10.00" fill="grey"> &lt; T, T::Surfel &gt;</text>
</g>
<!-- Node25 -->
<g id="Node000025" class="node">
<title>Node25</title>
<g id="a_Node000025"><a xlink:href="structDGtal_1_1concepts_1_1CPredicate.html" target="_top" xlink:title=" ">
<polygon fill="white" stroke="#666666" points="1472.88,-147.5 1330.88,-147.5 1330.88,-117 1472.88,-117 1472.88,-147.5"/>
<text text-anchor="start" x="1338.88" y="-134" font-family="FreeSans" font-size="10.00">DGtal::concepts::CPredicate</text>
<text text-anchor="middle" x="1401.88" y="-122.75" font-family="FreeSans" font-size="10.00">&lt; T, T::Vertex &gt;</text>
</a>
</g>
</g>
<!-- Node22&#45;&gt;Node25 -->
<g id="edge26_Node000022_Node000025" class="edge">
<title>Node22&#45;&gt;Node25</title>
<g id="a_edge26_Node000022_Node000025"><a xlink:title=" ">
<path fill="none" stroke="orange" stroke-dasharray="5,2" d="M1193.11,-150.9C1236.44,-147.01 1289.11,-142.28 1330.58,-138.56"/>
<polygon fill="orange" stroke="orange" points="1192.88,-147.41 1183.24,-151.79 1193.51,-154.38 1192.88,-147.41"/>
</a>
</g>
<text text-anchor="middle" x="1260" y="-150" font-family="FreeSans" font-size="10.00" fill="grey"> &lt; T, T::Vertex &gt;</text>
</g>
<!-- Node24 -->
<g id="Node000024" class="node">
<title>Node24</title>
<g id="a_Node000024"><a xlink:href="structDGtal_1_1concepts_1_1CSurfelPredicate.html" target="_top" xlink:title="Aim: Defines a predicate on a surfel.">
<polygon fill="white" stroke="#666666" points="1683.88,-86.5 1557.62,-86.5 1557.62,-56 1683.88,-56 1683.88,-86.5"/>
<text text-anchor="start" x="1565.62" y="-73" font-family="FreeSans" font-size="10.00">DGtal::concepts::CSurfel</text>
<text text-anchor="middle" x="1620.75" y="-61.75" font-family="FreeSans" font-size="10.00">Predicate&lt; T &gt;</text>
</a>
</g>
</g>
<!-- Node23&#45;&gt;Node24 -->
<g id="edge25_Node000023_Node000024" class="edge">
<title>Node23&#45;&gt;Node24</title>
<g id="a_edge25_Node000023_Node000024"><a xlink:title=" ">
<path fill="none" stroke="#63b8ff" d="M1484.58,-71.25C1508.69,-71.25 1534.68,-71.25 1557.37,-71.25"/>
<polygon fill="#63b8ff" stroke="#63b8ff" points="1484.8,-67.75 1474.8,-71.25 1484.8,-74.75 1484.8,-67.75"/>
</a>
</g>
</g>
<!-- Node26 -->
<g id="Node000026" class="node">
<title>Node26</title>
<g id="a_Node000026"><a xlink:href="structDGtal_1_1concepts_1_1CVertexPredicate.html" target="_top" xlink:title="Aim: Defines a predicate on a vertex.">
<polygon fill="white" stroke="#666666" points="1685.38,-147.5 1556.12,-147.5 1556.12,-117 1685.38,-117 1685.38,-147.5"/>
<text text-anchor="start" x="1564.12" y="-134" font-family="FreeSans" font-size="10.00">DGtal::concepts::CVertex</text>
<text text-anchor="middle" x="1620.75" y="-122.75" font-family="FreeSans" font-size="10.00">Predicate&lt; T &gt;</text>
</a>
</g>
</g>
<!-- Node25&#45;&gt;Node26 -->
<g id="edge27_Node000025_Node000026" class="edge">
<title>Node25&#45;&gt;Node26</title>
<g id="a_edge27_Node000025_Node000026"><a xlink:title=" ">
<path fill="none" stroke="#63b8ff" d="M1484.69,-132.25C1508.26,-132.25 1533.62,-132.25 1555.92,-132.25"/>
<polygon fill="#63b8ff" stroke="#63b8ff" points="1484.8,-128.75 1474.8,-132.25 1484.8,-135.75 1484.8,-128.75"/>
</a>
</g>
</g>
<!-- Node28 -->
<g id="Node000028" class="node">
<title>Node28</title>
<g id="a_Node000028"><a xlink:href="structDGtal_1_1concepts_1_1CSCellEmbedder.html" target="_top" xlink:title="Aim: A cell embedder is a mapping from signed cells to Euclidean points. It adds inner types to funct...">
<polygon fill="white" stroke="#666666" points="1206.75,-24.88 1013.75,-24.88 1013.75,-5.62 1206.75,-5.62 1206.75,-24.88"/>
<text text-anchor="middle" x="1110.25" y="-11.38" font-family="FreeSans" font-size="10.00">DGtal::concepts::CSCellEmbedder&lt; T &gt;</text>
</a>
</g>
</g>
<!-- Node27&#45;&gt;Node28 -->
<g id="edge29_Node000027_Node000028" class="edge">
<title>Node27&#45;&gt;Node28</title>
<g id="a_edge29_Node000027_Node000028"><a xlink:title=" ">
<path fill="none" stroke="#63b8ff" d="M829.53,-16.76C885.34,-16.46 956.76,-16.07 1013.47,-15.77"/>
<polygon fill="#63b8ff" stroke="#63b8ff" points="829.73,-13.26 819.75,-16.81 829.76,-20.26 829.73,-13.26"/>
</a>
</g>
</g>
<!-- Node29 -->
<g id="Node000029" class="node">
<title>Node29</title>
<g id="a_Node000029"><a xlink:href="structDGtal_1_1concepts_1_1CDigitalSurfaceEmbedder.html" target="_top" xlink:title="Aim: A digital surface embedder is a specialized mapping from signed cells to Euclidean points....">
<polygon fill="white" stroke="#666666" points="1466.12,-30.5 1337.62,-30.5 1337.62,0 1466.12,0 1466.12,-30.5"/>
<text text-anchor="start" x="1345.62" y="-17" font-family="FreeSans" font-size="10.00">DGtal::concepts::CDigital</text>
<text text-anchor="middle" x="1401.88" y="-5.75" font-family="FreeSans" font-size="10.00">SurfaceEmbedder&lt; T &gt;</text>
</a>
</g>
</g>
<!-- Node28&#45;&gt;Node29 -->
<g id="edge30_Node000028_Node000029" class="edge">
<title>Node28&#45;&gt;Node29</title>
<g id="a_edge30_Node000028_Node000029"><a xlink:title=" ">
<path fill="none" stroke="#63b8ff" d="M1218.32,-15.25C1258.32,-15.25 1302.44,-15.25 1337.29,-15.25"/>
<polygon fill="#63b8ff" stroke="#63b8ff" points="1218.4,-11.75 1208.4,-15.25 1218.4,-18.75 1218.4,-11.75"/>
</a>
</g>
</g>
<!-- Node30&#45;&gt;Node23 -->
<g id="edge32_Node000030_Node000023" class="edge">
<title>Node30&#45;&gt;Node23</title>
<g id="a_edge32_Node000030_Node000023"><a xlink:title=" ">
<path fill="none" stroke="#63b8ff" d="M1007.59,-63.13C1101.21,-65.06 1245.16,-68.03 1330.49,-69.8"/>
<polygon fill="#63b8ff" stroke="#63b8ff" points="1007.73,-59.63 997.66,-62.92 1007.59,-66.63 1007.73,-59.63"/>
</a>
</g>
</g>
<!-- Node31&#45;&gt;Node12 -->
<g id="edge34_Node000031_Node000012" class="edge">
<title>Node31&#45;&gt;Node12</title>
<g id="a_edge34_Node000031_Node000012"><a xlink:title=" ">
<path fill="none" stroke="#63b8ff" d="M1007.39,-247.56C1094.81,-251.71 1226.27,-257.95 1312.82,-262.07"/>
<polygon fill="#63b8ff" stroke="#63b8ff" points="1007.82,-244.07 997.66,-247.09 1007.49,-251.06 1007.82,-244.07"/>
</a>
</g>
</g>
<!-- Node32&#45;&gt;Node25 -->
<g id="edge36_Node000032_Node000025" class="edge">
<title>Node32&#45;&gt;Node25</title>
<g id="a_edge36_Node000032_Node000025"><a xlink:title=" ">
<path fill="none" stroke="#63b8ff" d="M1007.23,-96.85C1084.18,-93.71 1197.42,-92.55 1295.25,-105.25 1313.27,-107.59 1332.63,-111.97 1349.79,-116.53"/>
<polygon fill="#63b8ff" stroke="#63b8ff" points="1007.5,-93.33 997.66,-97.26 1007.8,-100.33 1007.5,-93.33"/>
</a>
</g>
</g>
</g>
</svg>
