<?xml version="1.0" encoding="UTF-8" standalone="no"?>
<!DOCTYPE svg PUBLIC "-//W3C//DTD SVG 1.1//EN"
 "http://www.w3.org/Graphics/SVG/1.1/DTD/svg11.dtd">
<!-- Generated by graphviz version 7.0.1 (20221109.1506)
 -->
<!-- Title: DGtal::concepts::CLinearAlgebraSolver&lt; S, V, M &gt; Pages: 1 -->
<svg width="169pt" height="160pt"
 viewBox="0.00 0.00 169.00 160.00" xmlns="http://www.w3.org/2000/svg" xmlns:xlink="http://www.w3.org/1999/xlink">
<g id="graph0" class="graph" transform="scale(1 1) rotate(0) translate(4 156)">
<title>DGtal::concepts::CLinearAlgebraSolver&lt; S, V, M &gt;</title>
<!-- Node1 -->
<g id="node1" class="node">
<title>Node1</title>
<g id="a_node1"><a xlink:title="Aim: Describe a linear solver defined over a linear algebra. Problems are of the form:">
<polygon fill="#999999" stroke="#666666" points="144.5,-30 16.5,-30 16.5,0 144.5,0 144.5,-30"/>
<text text-anchor="start" x="24.5" y="-18" font-family="FreeSans" font-size="10.00">DGtal::concepts::CLinear</text>
<text text-anchor="middle" x="80.5" y="-7" font-family="FreeSans" font-size="10.00">AlgebraSolver&lt; S, V, M &gt;</text>
</a>
</g>
</g>
<!-- Node2 -->
<g id="node2" class="node">
<title>Node2</title>
<g id="a_node2"><a xlink:href="structboost_1_1DefaultConstructible.html" target="_top" xlink:title=" ">
<polygon fill="white" stroke="#666666" points="161,-86 0,-86 0,-67 161,-67 161,-86"/>
<text text-anchor="middle" x="80.5" y="-74" font-family="FreeSans" font-size="10.00">boost::DefaultConstructible&lt; S &gt;</text>
</a>
</g>
</g>
<!-- Node2&#45;&gt;Node1 -->
<g id="edge1" class="edge">
<title>Node2&#45;&gt;Node1</title>
<path fill="none" stroke="#63b8ff" d="M80.5,-55.46C80.5,-47.23 80.5,-37.89 80.5,-30.36"/>
<polygon fill="#63b8ff" stroke="#63b8ff" points="77,-55.21 80.5,-65.21 84,-55.21 77,-55.21"/>
</g>
<!-- Node3 -->
<g id="node3" class="node">
<title>Node3</title>
<g id="a_node3"><a xlink:href="structboost_1_1DefaultConstructible.html" target="_top" xlink:title="Go to http://www.sgi.com/tech/stl/DefaultConstructible.html.">
<polygon fill="white" stroke="#666666" points="160.5,-152 0.5,-152 0.5,-133 160.5,-133 160.5,-152"/>
<text text-anchor="middle" x="80.5" y="-140" font-family="FreeSans" font-size="10.00">boost::DefaultConstructible&lt; T &gt;</text>
</a>
</g>
</g>
<!-- Node3&#45;&gt;Node2 -->
<g id="edge2" class="edge">
<title>Node3&#45;&gt;Node2</title>
<path fill="none" stroke="orange" stroke-dasharray="5,2" d="M80.5,-121.18C80.5,-109.44 80.5,-95.27 80.5,-86.32"/>
<polygon fill="orange" stroke="orange" points="77,-121.09 80.5,-131.09 84,-121.09 77,-121.09"/>
<text text-anchor="middle" x="94.5" y="-107" font-family="FreeSans" font-size="10.00"> &lt; S &gt;</text>
</g>
</g>
</svg>
