<?xml version="1.0" encoding="UTF-8" standalone="no"?>
<!DOCTYPE svg PUBLIC "-//W3C//DTD SVG 1.1//EN"
 "http://www.w3.org/Graphics/SVG/1.1/DTD/svg11.dtd">
<!-- Generated by graphviz version 7.0.1 (20221109.1506)
 -->
<!-- Title: DGtal::concepts::CLabel&lt; T &gt; Pages: 1 -->
<svg width="1297pt" height="172pt"
 viewBox="0.00 0.00 1297.00 172.00" xmlns="http://www.w3.org/2000/svg" xmlns:xlink="http://www.w3.org/1999/xlink">
<g id="graph0" class="graph" transform="scale(1 1) rotate(0) translate(4 168)">
<title>DGtal::concepts::CLabel&lt; T &gt;</title>
<!-- Node1 -->
<g id="node1" class="node">
<title>Node1</title>
<g id="a_node1"><a xlink:title="Aim: Define the concept of DGtal labels. Models of CLabel can be default&#45;constructible,...">
<polygon fill="#999999" stroke="#666666" points="345,-93.5 196,-93.5 196,-74.5 345,-74.5 345,-93.5"/>
<text text-anchor="middle" x="270.5" y="-81.5" font-family="FreeSans" font-size="10.00">DGtal::concepts::CLabel&lt; T &gt;</text>
</a>
</g>
</g>
<!-- Node5 -->
<g id="node5" class="node">
<title>Node5</title>
<g id="a_node5"><a xlink:href="structDGtal_1_1concepts_1_1CQuantity.html" target="_top" xlink:title="Aim: defines the concept of quantity in DGtal.">
<polygon fill="white" stroke="#666666" points="543,-93.5 381,-93.5 381,-74.5 543,-74.5 543,-93.5"/>
<text text-anchor="middle" x="462" y="-81.5" font-family="FreeSans" font-size="10.00">DGtal::concepts::CQuantity&lt; T &gt;</text>
</a>
</g>
</g>
<!-- Node1&#45;&gt;Node5 -->
<g id="edge4" class="edge">
<title>Node1&#45;&gt;Node5</title>
<path fill="none" stroke="#63b8ff" d="M356.6,-84C364.66,-84 372.8,-84 380.81,-84"/>
<polygon fill="#63b8ff" stroke="#63b8ff" points="356.82,-80.5 346.82,-84 356.82,-87.5 356.82,-80.5"/>
</g>
<!-- Node2 -->
<g id="node2" class="node">
<title>Node2</title>
<g id="a_node2"><a xlink:href="structboost_1_1DefaultConstructible.html" target="_top" xlink:title="Go to http://www.sgi.com/tech/stl/DefaultConstructible.html.">
<polygon fill="white" stroke="#666666" points="160,-130.5 0,-130.5 0,-111.5 160,-111.5 160,-130.5"/>
<text text-anchor="middle" x="80" y="-118.5" font-family="FreeSans" font-size="10.00">boost::DefaultConstructible&lt; T &gt;</text>
</a>
</g>
</g>
<!-- Node2&#45;&gt;Node1 -->
<g id="edge1" class="edge">
<title>Node2&#45;&gt;Node1</title>
<path fill="none" stroke="#63b8ff" d="M142.59,-108.91C167.28,-104.07 195.37,-98.55 218.85,-93.94"/>
<polygon fill="#63b8ff" stroke="#63b8ff" points="142.14,-105.43 133,-110.79 143.49,-112.3 142.14,-105.43"/>
</g>
<!-- Node3 -->
<g id="node3" class="node">
<title>Node3</title>
<g id="a_node3"><a xlink:href="structboost_1_1Assignable.html" target="_top" xlink:title="Go to http://www.sgi.com/tech/stl/Assignable.html.">
<polygon fill="white" stroke="#666666" points="139.5,-93.5 20.5,-93.5 20.5,-74.5 139.5,-74.5 139.5,-93.5"/>
<text text-anchor="middle" x="80" y="-81.5" font-family="FreeSans" font-size="10.00">boost::Assignable&lt; T &gt;</text>
</a>
</g>
</g>
<!-- Node3&#45;&gt;Node1 -->
<g id="edge2" class="edge">
<title>Node3&#45;&gt;Node1</title>
<path fill="none" stroke="#63b8ff" d="M151.31,-84C165.83,-84 181.16,-84 195.8,-84"/>
<polygon fill="#63b8ff" stroke="#63b8ff" points="151.38,-80.5 141.38,-84 151.38,-87.5 151.38,-80.5"/>
</g>
<!-- Node4 -->
<g id="node4" class="node">
<title>Node4</title>
<g id="a_node4"><a xlink:href="structboost_1_1EqualityComparable.html" target="_top" xlink:title="Go to http://www.sgi.com/tech/stl/EqualityComparable.html.">
<polygon fill="white" stroke="#666666" points="159,-56.5 1,-56.5 1,-37.5 159,-37.5 159,-56.5"/>
<text text-anchor="middle" x="80" y="-44.5" font-family="FreeSans" font-size="10.00">boost::EqualityComparable&lt; T &gt;</text>
</a>
</g>
</g>
<!-- Node4&#45;&gt;Node1 -->
<g id="edge3" class="edge">
<title>Node4&#45;&gt;Node1</title>
<path fill="none" stroke="#63b8ff" d="M142.59,-59.09C167.28,-63.93 195.37,-69.45 218.85,-74.06"/>
<polygon fill="#63b8ff" stroke="#63b8ff" points="143.49,-55.7 133,-57.21 142.14,-62.57 143.49,-55.7"/>
</g>
<!-- Node6 -->
<g id="node6" class="node">
<title>Node6</title>
<g id="a_node6"><a xlink:href="structDGtal_1_1concepts_1_1CBoundedNumber.html" target="_top" xlink:title="Aim: The concept CBoundedNumber specifies what are the bounded numbers. Models of this concept should...">
<polygon fill="white" stroke="#666666" points="720.5,-164 580.5,-164 580.5,-134 720.5,-134 720.5,-164"/>
<text text-anchor="start" x="588.5" y="-152" font-family="FreeSans" font-size="10.00">DGtal::concepts::CBounded</text>
<text text-anchor="middle" x="650.5" y="-141" font-family="FreeSans" font-size="10.00">Number&lt; T &gt;</text>
</a>
</g>
</g>
<!-- Node5&#45;&gt;Node6 -->
<g id="edge5" class="edge">
<title>Node5&#45;&gt;Node6</title>
<path fill="none" stroke="#63b8ff" d="M501.87,-97.55C532.02,-108.05 573.83,-122.63 605.26,-133.58"/>
<polygon fill="#63b8ff" stroke="#63b8ff" points="503.35,-94.36 492.75,-94.37 501.05,-100.97 503.35,-94.36"/>
</g>
<!-- Node7 -->
<g id="node7" class="node">
<title>Node7</title>
<g id="a_node7"><a xlink:href="structDGtal_1_1concepts_1_1CIntegralNumber.html" target="_top" xlink:title="Aim: Concept checking for Integral Numbers. Models of this concept should be listed in NumberTraits c...">
<polygon fill="white" stroke="#666666" points="905,-123 771,-123 771,-93 905,-93 905,-123"/>
<text text-anchor="start" x="779" y="-111" font-family="FreeSans" font-size="10.00">DGtal::concepts::CIntegral</text>
<text text-anchor="middle" x="838" y="-100" font-family="FreeSans" font-size="10.00">Number&lt; T &gt;</text>
</a>
</g>
</g>
<!-- Node5&#45;&gt;Node7 -->
<g id="edge6" class="edge">
<title>Node5&#45;&gt;Node7</title>
<path fill="none" stroke="#63b8ff" d="M554.6,-89.88C621.46,-94.17 710.54,-99.88 770.63,-103.74"/>
<polygon fill="#63b8ff" stroke="#63b8ff" points="554.95,-86.39 544.74,-89.25 554.5,-93.38 554.95,-86.39"/>
</g>
<!-- Node9 -->
<g id="node9" class="node">
<title>Node9</title>
<g id="a_node9"><a xlink:href="structDGtal_1_1concepts_1_1CSignedNumber.html" target="_top" xlink:title="Aim: Concept checking for Signed Numbers. Models of this concept should be listed in NumberTraits cla...">
<polygon fill="white" stroke="#666666" points="716,-78 585,-78 585,-48 716,-48 716,-78"/>
<text text-anchor="start" x="593" y="-66" font-family="FreeSans" font-size="10.00">DGtal::concepts::CSigned</text>
<text text-anchor="middle" x="650.5" y="-55" font-family="FreeSans" font-size="10.00">Number&lt; T &gt;</text>
</a>
</g>
</g>
<!-- Node5&#45;&gt;Node9 -->
<g id="edge8" class="edge">
<title>Node5&#45;&gt;Node9</title>
<path fill="none" stroke="#63b8ff" d="M554.83,-73.66C564.94,-72.52 575.07,-71.38 584.76,-70.29"/>
<polygon fill="#63b8ff" stroke="#63b8ff" points="554.5,-70.18 544.95,-74.77 555.28,-77.13 554.5,-70.18"/>
</g>
<!-- Node12 -->
<g id="node12" class="node">
<title>Node12</title>
<g id="a_node12"><a xlink:href="structDGtal_1_1concepts_1_1CUnsignedNumber.html" target="_top" xlink:title="Aim: Concept checking for Unsigned numbers. Models of this concept should be listed in NumberTraits c...">
<polygon fill="white" stroke="#666666" points="722,-30 579,-30 579,0 722,0 722,-30"/>
<text text-anchor="start" x="587" y="-18" font-family="FreeSans" font-size="10.00">DGtal::concepts::CUnsigned</text>
<text text-anchor="middle" x="650.5" y="-7" font-family="FreeSans" font-size="10.00">Number&lt; T &gt;</text>
</a>
</g>
</g>
<!-- Node5&#45;&gt;Node12 -->
<g id="edge12" class="edge">
<title>Node5&#45;&gt;Node12</title>
<path fill="none" stroke="#63b8ff" d="M498.36,-69.84C521.26,-60.78 551.79,-48.91 579,-39 586.78,-36.17 595.07,-33.25 603.14,-30.47"/>
<polygon fill="#63b8ff" stroke="#63b8ff" points="497.19,-66.54 489.18,-73.48 499.77,-73.05 497.19,-66.54"/>
</g>
<!-- Node8 -->
<g id="node8" class="node">
<title>Node8</title>
<g id="a_node8"><a xlink:href="structDGtal_1_1concepts_1_1CInteger.html" target="_top" xlink:title="Aim: Concept checking for Integer Numbers. More precisely, this concept is a refinement of both CEucl...">
<polygon fill="white" stroke="#666666" points="1289,-92.5 1134,-92.5 1134,-73.5 1289,-73.5 1289,-92.5"/>
<text text-anchor="middle" x="1211.5" y="-80.5" font-family="FreeSans" font-size="10.00">DGtal::concepts::CInteger&lt; T &gt;</text>
</a>
</g>
</g>
<!-- Node7&#45;&gt;Node8 -->
<g id="edge7" class="edge">
<title>Node7&#45;&gt;Node8</title>
<path fill="none" stroke="#63b8ff" d="M916.61,-102.78C980.37,-98.49 1070.23,-92.44 1133.75,-88.16"/>
<polygon fill="#63b8ff" stroke="#63b8ff" points="916.67,-99.27 906.93,-103.43 917.14,-106.25 916.67,-99.27"/>
</g>
<!-- Node10 -->
<g id="node10" class="node">
<title>Node10</title>
<g id="a_node10"><a xlink:href="structDGtal_1_1concepts_1_1CCommutativeRing.html" target="_top" xlink:title="Aim: Defines the mathematical concept equivalent to a unitary commutative ring.">
<polygon fill="white" stroke="#666666" points="918,-75 758,-75 758,-45 918,-45 918,-75"/>
<text text-anchor="start" x="766" y="-63" font-family="FreeSans" font-size="10.00">DGtal::concepts::CCommutative</text>
<text text-anchor="middle" x="838" y="-52" font-family="FreeSans" font-size="10.00">Ring&lt; T &gt;</text>
</a>
</g>
</g>
<!-- Node9&#45;&gt;Node10 -->
<g id="edge9" class="edge">
<title>Node9&#45;&gt;Node10</title>
<path fill="none" stroke="#63b8ff" d="M727.84,-61.77C737.72,-61.61 747.86,-61.44 757.79,-61.28"/>
<polygon fill="#63b8ff" stroke="#63b8ff" points="727.83,-58.26 717.89,-61.93 727.95,-65.26 727.83,-58.26"/>
</g>
<!-- Node11 -->
<g id="node11" class="node">
<title>Node11</title>
<g id="a_node11"><a xlink:href="structDGtal_1_1concepts_1_1CEuclideanRing.html" target="_top" xlink:title="Aim: Defines the mathematical concept equivalent to a unitary commutative ring with a division operat...">
<polygon fill="white" stroke="#666666" points="1098,-77 954,-77 954,-47 1098,-47 1098,-77"/>
<text text-anchor="start" x="962" y="-65" font-family="FreeSans" font-size="10.00">DGtal::concepts::CEuclidean</text>
<text text-anchor="middle" x="1026" y="-54" font-family="FreeSans" font-size="10.00">Ring&lt; T &gt;</text>
</a>
</g>
</g>
<!-- Node10&#45;&gt;Node11 -->
<g id="edge10" class="edge">
<title>Node10&#45;&gt;Node11</title>
<path fill="none" stroke="#63b8ff" d="M929.78,-60.98C937.84,-61.06 945.92,-61.15 953.78,-61.23"/>
<polygon fill="#63b8ff" stroke="#63b8ff" points="929.97,-57.48 919.93,-60.87 929.9,-64.48 929.97,-57.48"/>
</g>
<!-- Node11&#45;&gt;Node8 -->
<g id="edge11" class="edge">
<title>Node11&#45;&gt;Node8</title>
<path fill="none" stroke="#63b8ff" d="M1109.71,-71.46C1117.71,-72.38 1125.81,-73.31 1133.76,-74.22"/>
<polygon fill="#63b8ff" stroke="#63b8ff" points="1110.31,-68.01 1099.98,-70.35 1109.51,-74.97 1110.31,-68.01"/>
</g>
</g>
</svg>
