<?xml version="1.0" encoding="UTF-8" standalone="no"?>
<!DOCTYPE svg PUBLIC "-//W3C//DTD SVG 1.1//EN"
 "http://www.w3.org/Graphics/SVG/1.1/DTD/svg11.dtd">
<!-- Generated by graphviz version 13.1.2 (20250808.2320)
 -->
<!-- Title: DGtal::Shortcuts&lt; TKSpace &gt;::is_double_nested_container&lt; T &gt; Pages: 1 -->
<svg width="184pt" height="190pt"
 viewBox="0.00 0.00 184.00 190.00" xmlns="http://www.w3.org/2000/svg" xmlns:xlink="http://www.w3.org/1999/xlink">
<g id="graph0" class="graph" transform="scale(1 1) rotate(0) translate(4 185.75)">
<title>DGtal::Shortcuts&lt; TKSpace &gt;::is_double_nested_container&lt; T &gt;</title>
<!-- Node1 -->
<g id="Node000001" class="node">
<title>Node1</title>
<g id="a_Node000001"><a xlink:title=" ">
<polygon fill="#999999" stroke="#666666" points="175.75,-125.5 0,-125.5 0,-95 175.75,-95 175.75,-125.5"/>
<text xml:space="preserve" text-anchor="start" x="8" y="-112" font-family="FreeSans" font-size="10.00">DGtal::Shortcuts&lt; TKSpace</text>
<text xml:space="preserve" text-anchor="middle" x="87.88" y="-100.75" font-family="FreeSans" font-size="10.00"> &gt;::is_double_nested_container&lt; T &gt;</text>
</a>
</g>
</g>
<!-- Node3 -->
<g id="Node000003" class="node">
<title>Node3</title>
<g id="a_Node000003"><a xlink:href="structDGtal_1_1Shortcuts_1_1is__double__nested__container_3_01C_3_01D_3_01T_01_4_01_4_01_4.html" target="_top" xlink:title=" ">
<polygon fill="white" stroke="#666666" points="163.75,-41.75 12,-41.75 12,0 163.75,0 163.75,-41.75"/>
<text xml:space="preserve" text-anchor="start" x="20" y="-28.25" font-family="FreeSans" font-size="10.00">DGtal::Shortcuts&lt; TKSpace</text>
<text xml:space="preserve" text-anchor="start" x="20" y="-17" font-family="FreeSans" font-size="10.00"> &gt;::is_double_nested_container</text>
<text xml:space="preserve" text-anchor="middle" x="87.88" y="-5.75" font-family="FreeSans" font-size="10.00">&lt; C&lt; D&lt; T &gt; &gt; &gt;</text>
</a>
</g>
</g>
<!-- Node1&#45;&gt;Node3 -->
<g id="edge2_Node000001_Node000003" class="edge">
<title>Node1&#45;&gt;Node3</title>
<g id="a_edge2_Node000001_Node000003"><a xlink:title=" ">
<path fill="none" stroke="orange" stroke-dasharray="5,2" d="M87.88,-83.63C87.88,-70.43 87.88,-54.56 87.88,-42.21"/>
<polygon fill="orange" stroke="orange" points="84.38,-83.31 87.88,-93.31 91.38,-83.31 84.38,-83.31"/>
</a>
</g>
<text xml:space="preserve" text-anchor="start" x="90.88" y="-64.5" font-family="FreeSans" font-size="10.00" fill="grey">&lt; C&lt; D&lt; T &gt; &gt; &gt;</text>
</g>
<!-- Node2 -->
<g id="Node000002" class="node">
<title>Node2</title>
<g id="a_Node000002"><a xlink:title=" ">
<polygon fill="white" stroke="#666666" points="128.12,-181.75 47.62,-181.75 47.62,-162.5 128.12,-162.5 128.12,-181.75"/>
<text xml:space="preserve" text-anchor="middle" x="87.88" y="-168.25" font-family="FreeSans" font-size="10.00">std::false_type</text>
</a>
</g>
</g>
<!-- Node2&#45;&gt;Node1 -->
<g id="edge1_Node000001_Node000002" class="edge">
<title>Node2&#45;&gt;Node1</title>
<g id="a_edge1_Node000001_Node000002"><a xlink:title=" ">
<path fill="none" stroke="#63b8ff" d="M87.88,-150.69C87.88,-142.43 87.88,-133.09 87.88,-125.57"/>
<polygon fill="#63b8ff" stroke="#63b8ff" points="84.38,-150.52 87.88,-160.52 91.38,-150.52 84.38,-150.52"/>
</a>
</g>
</g>
</g>
</svg>
