<?xml version="1.0" encoding="UTF-8" standalone="no"?>
<!DOCTYPE svg PUBLIC "-//W3C//DTD SVG 1.1//EN"
 "http://www.w3.org/Graphics/SVG/1.1/DTD/svg11.dtd">
<!-- Generated by graphviz version 7.0.1 (20221109.1506)
 -->
<!-- Title: DGtal::NumberTraits&lt; T &gt; Pages: 1 -->
<svg width="240pt" height="259pt"
 viewBox="0.00 0.00 240.00 259.00" xmlns="http://www.w3.org/2000/svg" xmlns:xlink="http://www.w3.org/1999/xlink">
<g id="graph0" class="graph" transform="scale(1 1) rotate(0) translate(4 255)">
<title>DGtal::NumberTraits&lt; T &gt;</title>
<!-- Node1 -->
<g id="node1" class="node">
<title>Node1</title>
<g id="a_node1"><a xlink:title="Aim: The traits class for all models of Cinteger.">
<polygon fill="#999999" stroke="#666666" points="181,-96 50,-96 50,-77 181,-77 181,-96"/>
<text text-anchor="middle" x="115.5" y="-84" font-family="FreeSans" font-size="10.00">DGtal::NumberTraits&lt; T &gt;</text>
</a>
</g>
</g>
<!-- Node4 -->
<g id="node4" class="node">
<title>Node4</title>
<g id="a_node4"><a xlink:href="structDGtal_1_1NumberTraits.html" target="_top" xlink:title=" ">
<polygon fill="white" stroke="#666666" points="107,-30 0,-30 0,0 107,0 107,-30"/>
<text text-anchor="start" x="8" y="-18" font-family="FreeSans" font-size="10.00">DGtal::NumberTraits</text>
<text text-anchor="middle" x="53.5" y="-7" font-family="FreeSans" font-size="10.00">&lt; Integer &gt;</text>
</a>
</g>
</g>
<!-- Node1&#45;&gt;Node4 -->
<g id="edge3" class="edge">
<title>Node1&#45;&gt;Node4</title>
<path fill="none" stroke="orange" stroke-dasharray="5,2" d="M100.1,-68.24C89.67,-56.54 76.05,-41.28 66.23,-30.27"/>
<polygon fill="orange" stroke="orange" points="97.37,-70.44 106.64,-75.57 102.59,-65.78 97.37,-70.44"/>
<text text-anchor="middle" x="116.5" y="-51" font-family="FreeSans" font-size="10.00"> &lt; Integer &gt;</text>
</g>
<!-- Node5 -->
<g id="node5" class="node">
<title>Node5</title>
<g id="a_node5"><a xlink:href="structDGtal_1_1NumberTraits.html" target="_top" xlink:title=" ">
<polygon fill="white" stroke="#666666" points="232,-30 125,-30 125,0 232,0 232,-30"/>
<text text-anchor="start" x="133" y="-18" font-family="FreeSans" font-size="10.00">DGtal::NumberTraits</text>
<text text-anchor="middle" x="178.5" y="-7" font-family="FreeSans" font-size="10.00">&lt; TInteger &gt;</text>
</a>
</g>
</g>
<!-- Node1&#45;&gt;Node5 -->
<g id="edge4" class="edge">
<title>Node1&#45;&gt;Node5</title>
<path fill="none" stroke="orange" stroke-dasharray="5,2" d="M135.99,-69.12C139.62,-65.9 143.27,-62.45 146.5,-59 154.89,-50.03 163.13,-38.87 169.15,-30.18"/>
<polygon fill="orange" stroke="orange" points="133.78,-66.41 128.4,-75.53 138.3,-71.76 133.78,-66.41"/>
<text text-anchor="middle" x="183.5" y="-51" font-family="FreeSans" font-size="10.00"> &lt; TInteger &gt;</text>
</g>
<!-- Node2 -->
<g id="node2" class="node">
<title>Node2</title>
<g id="a_node2"><a xlink:href="structDGtal_1_1NumberTraitsImpl.html" target="_top" xlink:title=" ">
<polygon fill="white" stroke="#666666" points="180,-163 51,-163 51,-133 180,-133 180,-163"/>
<text text-anchor="start" x="59" y="-151" font-family="FreeSans" font-size="10.00">DGtal::NumberTraitsImpl</text>
<text text-anchor="middle" x="115.5" y="-140" font-family="FreeSans" font-size="10.00">&lt; std::decay&lt; T &gt;::type &gt;</text>
</a>
</g>
</g>
<!-- Node2&#45;&gt;Node1 -->
<g id="edge1" class="edge">
<title>Node2&#45;&gt;Node1</title>
<path fill="none" stroke="#63b8ff" d="M115.5,-121.13C115.5,-112.29 115.5,-102.99 115.5,-96.42"/>
<polygon fill="#63b8ff" stroke="#63b8ff" points="112,-121.08 115.5,-131.08 119,-121.08 112,-121.08"/>
</g>
<!-- Node3 -->
<g id="node3" class="node">
<title>Node3</title>
<g id="a_node3"><a xlink:href="structDGtal_1_1NumberTraitsImpl.html" target="_top" xlink:title="Aim: The traits class for all models of Cinteger (implementation)">
<polygon fill="white" stroke="#666666" points="178.5,-251 52.5,-251 52.5,-221 178.5,-221 178.5,-251"/>
<text text-anchor="start" x="60.5" y="-239" font-family="FreeSans" font-size="10.00">DGtal::NumberTraitsImpl</text>
<text text-anchor="middle" x="115.5" y="-228" font-family="FreeSans" font-size="10.00">&lt; T, Enable &gt;</text>
</a>
</g>
</g>
<!-- Node3&#45;&gt;Node2 -->
<g id="edge2" class="edge">
<title>Node3&#45;&gt;Node2</title>
<path fill="none" stroke="orange" stroke-dasharray="5,2" d="M115.5,-209.6C115.5,-194.46 115.5,-175.8 115.5,-163.22"/>
<polygon fill="orange" stroke="orange" points="112,-209.29 115.5,-219.29 119,-209.29 112,-209.29"/>
<text text-anchor="start" x="115.5" y="-195" font-family="FreeSans" font-size="10.00"> &lt; std::decay&lt; T &gt;::</text>
<text text-anchor="middle" x="159.5" y="-184" font-family="FreeSans" font-size="10.00">type &gt;</text>
</g>
</g>
</svg>
