<?xml version="1.0" encoding="UTF-8" standalone="no"?>
<!DOCTYPE svg PUBLIC "-//W3C//DTD SVG 1.1//EN"
 "http://www.w3.org/Graphics/SVG/1.1/DTD/svg11.dtd">
<!-- Generated by graphviz version 11.0.0 (20240428.1522)
 -->
<!-- Title: DGtal::concepts::CSinglePassRangeWithWritableIteratorFromPoint&lt; T, Value &gt; Pages: 1 -->
<svg width="897pt" height="101pt"
 viewBox="0.00 0.00 897.00 101.38" xmlns="http://www.w3.org/2000/svg" xmlns:xlink="http://www.w3.org/1999/xlink">
<g id="graph0" class="graph" transform="scale(1 1) rotate(0) translate(4 97.38)">
<title>DGtal::concepts::CSinglePassRangeWithWritableIteratorFromPoint&lt; T, Value &gt;</title>
<!-- Node1 -->
<g id="Node000001" class="node">
<title>Node1</title>
<g id="a_Node000001"><a xlink:title="Aim: refined concept of single pass range with a outputIterator() method from a point.">
<polygon fill="#999999" stroke="#666666" points="889,-63.75 735.75,-63.75 735.75,-22 889,-22 889,-63.75"/>
<text text-anchor="start" x="743.75" y="-50.25" font-family="FreeSans" font-size="10.00">DGtal::concepts::CSingle</text>
<text text-anchor="start" x="743.75" y="-39" font-family="FreeSans" font-size="10.00">PassRangeWithWritableIterator</text>
<text text-anchor="middle" x="812.38" y="-27.75" font-family="FreeSans" font-size="10.00">FromPoint&lt; T, Value &gt;</text>
</a>
</g>
</g>
<!-- Node2 -->
<g id="Node000002" class="node">
<title>Node2</title>
<g id="a_Node000002"><a xlink:href="structDGtal_1_1concepts_1_1CConstSinglePassRangeFromPoint.html" target="_top" xlink:title=" ">
<polygon fill="white" stroke="#666666" points="698.75,-80.12 534.25,-80.12 534.25,-49.62 698.75,-49.62 698.75,-80.12"/>
<text text-anchor="start" x="542.25" y="-66.62" font-family="FreeSans" font-size="10.00">DGtal::concepts::CConstSingle</text>
<text text-anchor="middle" x="616.5" y="-55.38" font-family="FreeSans" font-size="10.00">PassRangeFromPoint&lt; T, Value &gt;</text>
</a>
</g>
</g>
<!-- Node2&#45;&gt;Node1 -->
<g id="edge1_Node000001_Node000002" class="edge">
<title>Node2&#45;&gt;Node1</title>
<g id="a_edge1_Node000001_Node000002"><a xlink:title=" ">
<path fill="none" stroke="#63b8ff" d="M710.48,-54.32C718.82,-53.38 727.2,-52.43 735.37,-51.5"/>
<polygon fill="#63b8ff" stroke="#63b8ff" points="710.2,-50.83 700.66,-55.44 710.99,-57.79 710.2,-50.83"/>
</a>
</g>
</g>
<!-- Node3 -->
<g id="Node000003" class="node">
<title>Node3</title>
<g id="a_Node000003"><a xlink:href="structDGtal_1_1concepts_1_1CConstSinglePassRange.html" target="_top" xlink:title="Aim: Defines the concept describing a const single pass range.">
<polygon fill="white" stroke="#666666" points="154,-79.12 0,-79.12 0,-48.62 154,-48.62 154,-79.12"/>
<text text-anchor="start" x="8" y="-65.62" font-family="FreeSans" font-size="10.00">DGtal::concepts::CConstSingle</text>
<text text-anchor="middle" x="77" y="-54.38" font-family="FreeSans" font-size="10.00">PassRange&lt; T &gt;</text>
</a>
</g>
</g>
<!-- Node3&#45;&gt;Node2 -->
<g id="edge2_Node000002_Node000003" class="edge">
<title>Node3&#45;&gt;Node2</title>
<g id="a_edge2_Node000002_Node000003"><a xlink:title=" ">
<path fill="none" stroke="#63b8ff" d="M151.92,-81.89C164.87,-84.38 178.27,-86.54 191,-87.88 309.91,-100.36 448.32,-87.84 533.93,-76.95"/>
<polygon fill="#63b8ff" stroke="#63b8ff" points="152.66,-78.46 142.17,-79.92 151.28,-85.33 152.66,-78.46"/>
</a>
</g>
</g>
<!-- Node4 -->
<g id="Node000004" class="node">
<title>Node4</title>
<g id="a_Node000004"><a xlink:href="structDGtal_1_1concepts_1_1CConstSinglePassRangeFromPoint.html" target="_top" xlink:title="Aim: refined concept of const single pass range with a begin() method from a point.">
<polygon fill="white" stroke="#666666" points="345,-79.12 191,-79.12 191,-48.62 345,-48.62 345,-79.12"/>
<text text-anchor="start" x="199" y="-65.62" font-family="FreeSans" font-size="10.00">DGtal::concepts::CConstSingle</text>
<text text-anchor="middle" x="268" y="-54.38" font-family="FreeSans" font-size="10.00">PassRangeFromPoint&lt; T &gt;</text>
</a>
</g>
</g>
<!-- Node3&#45;&gt;Node4 -->
<g id="edge4_Node000004_Node000003" class="edge">
<title>Node3&#45;&gt;Node4</title>
<g id="a_edge4_Node000004_Node000003"><a xlink:title=" ">
<path fill="none" stroke="#63b8ff" d="M165.66,-63.88C174.02,-63.88 182.45,-63.88 190.69,-63.88"/>
<polygon fill="#63b8ff" stroke="#63b8ff" points="165.84,-60.38 155.84,-63.88 165.84,-67.38 165.84,-60.38"/>
</a>
</g>
</g>
<!-- Node5 -->
<g id="Node000005" class="node">
<title>Node5</title>
<g id="a_Node000005"><a xlink:href="structDGtal_1_1concepts_1_1CSinglePassRangeWithWritableIterator.html" target="_top" xlink:title="Aim: refined concept of const single pass range which require that an output iterator exists.">
<polygon fill="white" stroke="#666666" points="516.25,-41.75 363,-41.75 363,0 516.25,0 516.25,-41.75"/>
<text text-anchor="start" x="371" y="-28.25" font-family="FreeSans" font-size="10.00">DGtal::concepts::CSingle</text>
<text text-anchor="start" x="371" y="-17" font-family="FreeSans" font-size="10.00">PassRangeWithWritableIterator</text>
<text text-anchor="middle" x="439.62" y="-5.75" font-family="FreeSans" font-size="10.00">&lt; T, Value &gt;</text>
</a>
</g>
</g>
<!-- Node3&#45;&gt;Node5 -->
<g id="edge6_Node000005_Node000003" class="edge">
<title>Node3&#45;&gt;Node5</title>
<g id="a_edge6_Node000005_Node000003"><a xlink:title=" ">
<path fill="none" stroke="#63b8ff" d="M155.81,-45.94C167.56,-43.64 179.57,-41.52 191,-39.88 248.29,-31.63 313.6,-26.81 362.75,-24.08"/>
<polygon fill="#63b8ff" stroke="#63b8ff" points="155.25,-42.48 146.14,-47.89 156.64,-49.34 155.25,-42.48"/>
</a>
</g>
</g>
<!-- Node4&#45;&gt;Node2 -->
<g id="edge3_Node000002_Node000004" class="edge">
<title>Node4&#45;&gt;Node2</title>
<g id="a_edge3_Node000002_Node000004"><a xlink:title=" ">
<path fill="none" stroke="orange" stroke-dasharray="5,2" d="M356.84,-64.13C411.22,-64.29 480.58,-64.49 533.79,-64.64"/>
<polygon fill="orange" stroke="orange" points="356.99,-60.63 346.98,-64.1 356.97,-67.63 356.99,-60.63"/>
</a>
</g>
<text text-anchor="middle" x="439.62" y="-65.62" font-family="FreeSans" font-size="10.00" fill="grey"> &lt; T, Value &gt;</text>
</g>
<!-- Node5&#45;&gt;Node1 -->
<g id="edge5_Node000001_Node000005" class="edge">
<title>Node5&#45;&gt;Node1</title>
<g id="a_edge5_Node000001_Node000005"><a xlink:title=" ">
<path fill="none" stroke="#63b8ff" d="M527.67,-26.04C590.76,-29.78 675.23,-34.8 735.56,-38.38"/>
<polygon fill="#63b8ff" stroke="#63b8ff" points="528.25,-22.57 518.06,-25.47 527.83,-29.56 528.25,-22.57"/>
</a>
</g>
</g>
</g>
</svg>
