<?xml version="1.0" encoding="UTF-8" standalone="no"?>
<!DOCTYPE svg PUBLIC "-//W3C//DTD SVG 1.1//EN"
 "http://www.w3.org/Graphics/SVG/1.1/DTD/svg11.dtd">
<!-- Generated by graphviz version 13.1.2 (20250808.2320)
 -->
<!-- Title: DGtal::Shortcuts&lt; TKSpace &gt;::is_double_nested_container&lt; C&lt; D&lt; T &gt; &gt; &gt; Pages: 1 -->
<svg width="570pt" height="91pt"
 viewBox="0.00 0.00 570.00 91.00" xmlns="http://www.w3.org/2000/svg" xmlns:xlink="http://www.w3.org/1999/xlink">
<g id="graph0" class="graph" transform="scale(1 1) rotate(0) translate(4 87.25)">
<title>DGtal::Shortcuts&lt; TKSpace &gt;::is_double_nested_container&lt; C&lt; D&lt; T &gt; &gt; &gt;</title>
<!-- Node1 -->
<g id="Node000001" class="node">
<title>Node1</title>
<g id="a_Node000001"><a xlink:title=" ">
<polygon fill="#999999" stroke="#666666" points="562,-73.5 410.25,-73.5 410.25,-31.75 562,-31.75 562,-73.5"/>
<text xml:space="preserve" text-anchor="start" x="418.25" y="-60" font-family="FreeSans" font-size="10.00">DGtal::Shortcuts&lt; TKSpace</text>
<text xml:space="preserve" text-anchor="start" x="418.25" y="-48.75" font-family="FreeSans" font-size="10.00"> &gt;::is_double_nested_container</text>
<text xml:space="preserve" text-anchor="middle" x="486.12" y="-37.5" font-family="FreeSans" font-size="10.00">&lt; C&lt; D&lt; T &gt; &gt; &gt;</text>
</a>
</g>
</g>
<!-- Node2 -->
<g id="Node000002" class="node">
<title>Node2</title>
<g id="a_Node000002"><a xlink:title=" ">
<polygon fill="white" stroke="#666666" points="80.5,-83.25 0,-83.25 0,-64 80.5,-64 80.5,-83.25"/>
<text xml:space="preserve" text-anchor="middle" x="40.25" y="-69.75" font-family="FreeSans" font-size="10.00">std::false_type</text>
</a>
</g>
</g>
<!-- Node2&#45;&gt;Node1 -->
<g id="edge1_Node000001_Node000002" class="edge">
<title>Node2&#45;&gt;Node1</title>
<g id="a_edge1_Node000001_Node000002"><a xlink:title=" ">
<path fill="none" stroke="#63b8ff" d="M92.34,-80.53C94.76,-80.61 97.15,-80.65 99.5,-80.62 229.64,-79.28 263.14,-90.02 392.25,-73.62 397.99,-72.9 403.9,-71.97 409.82,-70.92"/>
<polygon fill="#63b8ff" stroke="#63b8ff" points="92.68,-77.04 82.48,-79.89 92.23,-84.03 92.68,-77.04"/>
</a>
</g>
</g>
<!-- Node4 -->
<g id="Node000004" class="node">
<title>Node4</title>
<g id="a_Node000004"><a xlink:href="structDGtal_1_1Shortcuts_1_1is__double__nested__container.html" target="_top" xlink:title=" ">
<polygon fill="white" stroke="#666666" points="293.25,-67.88 117.5,-67.88 117.5,-37.38 293.25,-37.38 293.25,-67.88"/>
<text xml:space="preserve" text-anchor="start" x="125.5" y="-54.38" font-family="FreeSans" font-size="10.00">DGtal::Shortcuts&lt; TKSpace</text>
<text xml:space="preserve" text-anchor="middle" x="205.38" y="-43.12" font-family="FreeSans" font-size="10.00"> &gt;::is_double_nested_container&lt; T &gt;</text>
</a>
</g>
</g>
<!-- Node2&#45;&gt;Node4 -->
<g id="edge4_Node000004_Node000002" class="edge">
<title>Node2&#45;&gt;Node4</title>
<g id="a_edge4_Node000004_Node000002"><a xlink:title=" ">
<path fill="none" stroke="#63b8ff" d="M92.11,-67.08C100.13,-66.05 108.61,-64.95 117.18,-63.85"/>
<polygon fill="#63b8ff" stroke="#63b8ff" points="91.71,-63.6 82.24,-68.35 92.6,-70.54 91.71,-63.6"/>
</a>
</g>
</g>
<!-- Node3 -->
<g id="Node000003" class="node">
<title>Node3</title>
<g id="a_Node000003"><a xlink:title=" ">
<polygon fill="white" stroke="#666666" points="243.38,-19.25 167.38,-19.25 167.38,0 243.38,0 243.38,-19.25"/>
<text xml:space="preserve" text-anchor="middle" x="205.38" y="-5.75" font-family="FreeSans" font-size="10.00">std::true_type</text>
</a>
</g>
</g>
<!-- Node3&#45;&gt;Node1 -->
<g id="edge2_Node000001_Node000003" class="edge">
<title>Node3&#45;&gt;Node1</title>
<g id="a_edge2_Node000001_Node000003"><a xlink:title=" ">
<path fill="none" stroke="#63b8ff" d="M254.89,-17.11C297.61,-23.7 360.5,-33.4 409.76,-41"/>
<polygon fill="#63b8ff" stroke="#63b8ff" points="255.59,-13.68 245.18,-15.61 254.52,-20.59 255.59,-13.68"/>
</a>
</g>
</g>
<!-- Node4&#45;&gt;Node1 -->
<g id="edge3_Node000001_Node000004" class="edge">
<title>Node4&#45;&gt;Node1</title>
<g id="a_edge3_Node000001_Node000004"><a xlink:title=" ">
<path fill="none" stroke="orange" stroke-dasharray="5,2" d="M304.53,-52.62C339.18,-52.62 377.57,-52.62 410.01,-52.62"/>
<polygon fill="orange" stroke="orange" points="304.94,-49.13 294.94,-52.63 304.94,-56.13 304.94,-49.13"/>
</a>
</g>
<text xml:space="preserve" text-anchor="start" x="314.25" y="-57.38" font-family="FreeSans" font-size="10.00" fill="grey">&lt; C&lt; D&lt; T &gt; &gt; &gt;</text>
</g>
</g>
</svg>
