<?xml version="1.0" encoding="UTF-8" standalone="no"?>
<!DOCTYPE svg PUBLIC "-//W3C//DTD SVG 1.1//EN"
 "http://www.w3.org/Graphics/SVG/1.1/DTD/svg11.dtd">
<!-- Generated by graphviz version 11.0.0 (20240428.1522)
 -->
<!-- Title: DGtal::concepts::CAdjacency&lt; Adj &gt; Pages: 1 -->
<svg width="179pt" height="316pt"
 viewBox="0.00 0.00 178.50 315.75" xmlns="http://www.w3.org/2000/svg" xmlns:xlink="http://www.w3.org/1999/xlink">
<g id="graph0" class="graph" transform="scale(1 1) rotate(0) translate(4 311.75)">
<title>DGtal::concepts::CAdjacency&lt; Adj &gt;</title>
<!-- Node1 -->
<g id="Node000001" class="node">
<title>Node1</title>
<g id="a_Node000001"><a xlink:title="Aim: The concept CAdjacency defines an elementary adjacency relation between points of a digital spac...">
<polygon fill="#999999" stroke="#666666" points="158.5,-163.5 12,-163.5 12,-133 158.5,-133 158.5,-163.5"/>
<text text-anchor="start" x="20" y="-150" font-family="FreeSans" font-size="10.00">DGtal::concepts::CAdjacency</text>
<text text-anchor="middle" x="85.25" y="-138.75" font-family="FreeSans" font-size="10.00">&lt; Adj &gt;</text>
</a>
</g>
</g>
<!-- Node4 -->
<g id="Node000004" class="node">
<title>Node4</title>
<g id="a_Node000004"><a xlink:href="structDGtal_1_1concepts_1_1CAdjacency.html" target="_top" xlink:title=" ">
<polygon fill="white" stroke="#666666" points="170.5,-85.75 0,-85.75 0,-66.5 170.5,-66.5 170.5,-85.75"/>
<text text-anchor="middle" x="85.25" y="-72.25" font-family="FreeSans" font-size="10.00">DGtal::concepts::CAdjacency&lt; T &gt;</text>
</a>
</g>
</g>
<!-- Node1&#45;&gt;Node4 -->
<g id="edge3_Node000001_Node000004" class="edge">
<title>Node1&#45;&gt;Node4</title>
<g id="a_edge3_Node000001_Node000004"><a xlink:title=" ">
<path fill="none" stroke="orange" stroke-dasharray="5,2" d="M85.25,-121.48C85.25,-108.98 85.25,-94.77 85.25,-85.88"/>
<polygon fill="orange" stroke="orange" points="81.75,-121.21 85.25,-131.21 88.75,-121.21 81.75,-121.21"/>
</a>
</g>
<text text-anchor="middle" x="98.75" y="-105.5" font-family="FreeSans" font-size="10.00" fill="grey"> &lt; T &gt;</text>
</g>
<!-- Node2 -->
<g id="Node000002" class="node">
<title>Node2</title>
<g id="a_Node000002"><a xlink:href="structDGtal_1_1concepts_1_1CUndirectedSimpleLocalGraph.html" target="_top" xlink:title=" ">
<polygon fill="white" stroke="#666666" points="159.25,-230 11.25,-230 11.25,-199.5 159.25,-199.5 159.25,-230"/>
<text text-anchor="start" x="19.25" y="-216.5" font-family="FreeSans" font-size="10.00">DGtal::concepts::CUndirected</text>
<text text-anchor="middle" x="85.25" y="-205.25" font-family="FreeSans" font-size="10.00">SimpleLocalGraph&lt; Adj &gt;</text>
</a>
</g>
</g>
<!-- Node2&#45;&gt;Node1 -->
<g id="edge1_Node000001_Node000002" class="edge">
<title>Node2&#45;&gt;Node1</title>
<g id="a_edge1_Node000001_Node000002"><a xlink:title=" ">
<path fill="none" stroke="#63b8ff" d="M85.25,-187.81C85.25,-179.64 85.25,-170.91 85.25,-163.83"/>
<polygon fill="#63b8ff" stroke="#63b8ff" points="81.75,-187.6 85.25,-197.6 88.75,-187.6 81.75,-187.6"/>
</a>
</g>
</g>
<!-- Node3 -->
<g id="Node000003" class="node">
<title>Node3</title>
<g id="a_Node000003"><a xlink:href="structDGtal_1_1concepts_1_1CUndirectedSimpleLocalGraph.html" target="_top" xlink:title="Aim: Represents the concept of local graph: each vertex has neighboring vertices, but we do not neces...">
<polygon fill="white" stroke="#666666" points="159.25,-307.75 11.25,-307.75 11.25,-277.25 159.25,-277.25 159.25,-307.75"/>
<text text-anchor="start" x="19.25" y="-294.25" font-family="FreeSans" font-size="10.00">DGtal::concepts::CUndirected</text>
<text text-anchor="middle" x="85.25" y="-283" font-family="FreeSans" font-size="10.00">SimpleLocalGraph&lt; T &gt;</text>
</a>
</g>
</g>
<!-- Node3&#45;&gt;Node2 -->
<g id="edge2_Node000002_Node000003" class="edge">
<title>Node3&#45;&gt;Node2</title>
<g id="a_edge2_Node000002_Node000003"><a xlink:title=" ">
<path fill="none" stroke="orange" stroke-dasharray="5,2" d="M85.25,-265.47C85.25,-253.71 85.25,-240.26 85.25,-230.31"/>
<polygon fill="orange" stroke="orange" points="81.75,-265.38 85.25,-275.38 88.75,-265.38 81.75,-265.38"/>
</a>
</g>
<text text-anchor="middle" x="102.5" y="-249.75" font-family="FreeSans" font-size="10.00" fill="grey"> &lt; Adj &gt;</text>
</g>
<!-- Node5 -->
<g id="Node000005" class="node">
<title>Node5</title>
<g id="a_Node000005"><a xlink:href="structDGtal_1_1concepts_1_1CDomainAdjacency.html" target="_top" xlink:title="Aim: Refines the concept CAdjacency by telling that the adjacency is specific to a given domain of th...">
<polygon fill="white" stroke="#666666" points="152.5,-30.5 18,-30.5 18,0 152.5,0 152.5,-30.5"/>
<text text-anchor="start" x="26" y="-17" font-family="FreeSans" font-size="10.00">DGtal::concepts::CDomain</text>
<text text-anchor="middle" x="85.25" y="-5.75" font-family="FreeSans" font-size="10.00">Adjacency&lt; T &gt;</text>
</a>
</g>
</g>
<!-- Node4&#45;&gt;Node5 -->
<g id="edge4_Node000004_Node000005" class="edge">
<title>Node4&#45;&gt;Node5</title>
<g id="a_edge4_Node000004_Node000005"><a xlink:title=" ">
<path fill="none" stroke="#63b8ff" d="M85.25,-54.92C85.25,-46.99 85.25,-38.06 85.25,-30.78"/>
<polygon fill="#63b8ff" stroke="#63b8ff" points="81.75,-54.67 85.25,-64.67 88.75,-54.67 81.75,-54.67"/>
</a>
</g>
</g>
</g>
</svg>
