<?xml version="1.0" encoding="UTF-8" standalone="no"?>
<!DOCTYPE svg PUBLIC "-//W3C//DTD SVG 1.1//EN"
 "http://www.w3.org/Graphics/SVG/1.1/DTD/svg11.dtd">
<!-- Generated by graphviz version 13.1.2 (20250808.2320)
 -->
<!-- Title: DGtal::IsAPointVector&lt; PointVector&lt; dim, TEuclideanRing, TContainer &gt; &gt; Pages: 1 -->
<svg width="319pt" height="194pt"
 viewBox="0.00 0.00 319.00 194.00" xmlns="http://www.w3.org/2000/svg" xmlns:xlink="http://www.w3.org/1999/xlink">
<g id="graph0" class="graph" transform="scale(1 1) rotate(0) translate(4 189.75)">
<title>DGtal::IsAPointVector&lt; PointVector&lt; dim, TEuclideanRing, TContainer &gt; &gt;</title>
<!-- Node1 -->
<g id="Node000001" class="node">
<title>Node1</title>
<g id="a_Node000001"><a xlink:title="Specialization of IsAPointVector for a PointVector.">
<polygon fill="#999999" stroke="#666666" points="180,-41.75 24.5,-41.75 24.5,0 180,0 180,-41.75"/>
<text xml:space="preserve" text-anchor="start" x="32.5" y="-28.25" font-family="FreeSans" font-size="10.00">DGtal::IsAPointVector</text>
<text xml:space="preserve" text-anchor="start" x="32.5" y="-17" font-family="FreeSans" font-size="10.00">&lt; PointVector&lt; dim, TEuclidean</text>
<text xml:space="preserve" text-anchor="middle" x="102.25" y="-5.75" font-family="FreeSans" font-size="10.00">Ring, TContainer &gt; &gt;</text>
</a>
</g>
</g>
<!-- Node2 -->
<g id="Node000002" class="node">
<title>Node2</title>
<g id="a_Node000002"><a xlink:title=" ">
<polygon fill="white" stroke="#666666" points="80.5,-185.75 0,-185.75 0,-166.5 80.5,-166.5 80.5,-185.75"/>
<text xml:space="preserve" text-anchor="middle" x="40.25" y="-172.25" font-family="FreeSans" font-size="10.00">std::false_type</text>
</a>
</g>
</g>
<!-- Node2&#45;&gt;Node1 -->
<g id="edge1_Node000001_Node000002" class="edge">
<title>Node2&#45;&gt;Node1</title>
<g id="a_edge1_Node000001_Node000002"><a xlink:title=" ">
<path fill="none" stroke="#63b8ff" d="M40.14,-154.6C40.63,-141.58 42.32,-124.55 47.25,-110.25 56.03,-84.79 73.22,-59.03 86.06,-41.94"/>
<polygon fill="#63b8ff" stroke="#63b8ff" points="36.64,-154.47 39.99,-164.52 43.64,-154.57 36.64,-154.47"/>
</a>
</g>
</g>
<!-- Node4 -->
<g id="Node000004" class="node">
<title>Node4</title>
<g id="a_Node000004"><a xlink:href="structDGtal_1_1IsAPointVector.html" target="_top" xlink:title="Type trait to check if a given type is a PointVector.">
<polygon fill="white" stroke="#666666" points="194,-129.5 56.5,-129.5 56.5,-110.25 194,-110.25 194,-129.5"/>
<text xml:space="preserve" text-anchor="middle" x="125.25" y="-116" font-family="FreeSans" font-size="10.00">DGtal::IsAPointVector&lt; T &gt;</text>
</a>
</g>
</g>
<!-- Node2&#45;&gt;Node4 -->
<g id="edge4_Node000004_Node000002" class="edge">
<title>Node2&#45;&gt;Node4</title>
<g id="a_edge4_Node000004_Node000002"><a xlink:title=" ">
<path fill="none" stroke="#63b8ff" d="M63.6,-160.22C78.85,-150.49 98.27,-138.1 111.19,-129.85"/>
<polygon fill="#63b8ff" stroke="#63b8ff" points="62.11,-157.02 55.56,-165.35 65.87,-162.92 62.11,-157.02"/>
</a>
</g>
</g>
<!-- Node3 -->
<g id="Node000003" class="node">
<title>Node3</title>
<g id="a_Node000003"><a xlink:title=" ">
<polygon fill="white" stroke="#666666" points="311.25,-129.5 235.25,-129.5 235.25,-110.25 311.25,-110.25 311.25,-129.5"/>
<text xml:space="preserve" text-anchor="middle" x="273.25" y="-116" font-family="FreeSans" font-size="10.00">std::true_type</text>
</a>
</g>
</g>
<!-- Node3&#45;&gt;Node1 -->
<g id="edge2_Node000001_Node000003" class="edge">
<title>Node3&#45;&gt;Node1</title>
<g id="a_edge2_Node000001_Node000003"><a xlink:title=" ">
<path fill="none" stroke="#63b8ff" d="M273.56,-98.5C272.64,-85.73 269.3,-69.84 259.25,-59.75 247.63,-48.08 213.6,-39.14 180.18,-32.89"/>
<polygon fill="#63b8ff" stroke="#63b8ff" points="270.06,-98.46 273.79,-108.38 277.05,-98.3 270.06,-98.46"/>
</a>
</g>
</g>
<!-- Node4&#45;&gt;Node1 -->
<g id="edge3_Node000001_Node000004" class="edge">
<title>Node4&#45;&gt;Node1</title>
<g id="a_edge3_Node000001_Node000004"><a xlink:title=" ">
<path fill="none" stroke="orange" stroke-dasharray="5,2" d="M108.1,-101.32C106.13,-98.48 104.41,-95.42 103.25,-92.25 97.35,-76.19 97.6,-56.65 99.04,-42.24"/>
<polygon fill="orange" stroke="orange" points="105.28,-103.41 114.36,-108.87 110.66,-98.94 105.28,-103.41"/>
</a>
</g>
<text xml:space="preserve" text-anchor="start" x="106.25" y="-79.75" font-family="FreeSans" font-size="10.00" fill="grey">&lt; PointVector&lt; dim,</text>
<text xml:space="preserve" text-anchor="start" x="106.25" y="-64.5" font-family="FreeSans" font-size="10.00" fill="grey">   TEuclideanRing, TContainer &gt; &gt;</text>
</g>
</g>
</svg>
