<?xml version="1.0" encoding="UTF-8" standalone="no"?>
<!DOCTYPE svg PUBLIC "-//W3C//DTD SVG 1.1//EN"
 "http://www.w3.org/Graphics/SVG/1.1/DTD/svg11.dtd">
<!-- Generated by graphviz version 11.0.0 (20240428.1522)
 -->
<!-- Title: DGtal::UnorderedMapAssociativeCategory Pages: 1 -->
<svg width="701pt" height="125pt"
 viewBox="0.00 0.00 701.25 124.50" xmlns="http://www.w3.org/2000/svg" xmlns:xlink="http://www.w3.org/1999/xlink">
<g id="graph0" class="graph" transform="scale(1 1) rotate(0) translate(4 120.5)">
<title>DGtal::UnorderedMapAssociativeCategory</title>
<!-- Node1 -->
<g id="Node000001" class="node">
<title>Node1</title>
<g id="a_Node000001"><a xlink:title=" ">
<polygon fill="#999999" stroke="#666666" points="693.25,-73.5 531,-73.5 531,-43 693.25,-43 693.25,-73.5"/>
<text text-anchor="start" x="539" y="-60" font-family="FreeSans" font-size="10.00">DGtal::UnorderedMapAssociative</text>
<text text-anchor="middle" x="612.12" y="-48.75" font-family="FreeSans" font-size="10.00">Category</text>
</a>
</g>
</g>
<!-- Node2 -->
<g id="Node000002" class="node">
<title>Node2</title>
<g id="a_Node000002"><a xlink:href="structDGtal_1_1UnorderedAssociativeCategory.html" target="_top" xlink:title=" ">
<polygon fill="white" stroke="#666666" points="489,-116.5 345.5,-116.5 345.5,-86 489,-86 489,-116.5"/>
<text text-anchor="start" x="353.5" y="-103" font-family="FreeSans" font-size="10.00">DGtal::UnorderedAssociative</text>
<text text-anchor="middle" x="417.25" y="-91.75" font-family="FreeSans" font-size="10.00">Category</text>
</a>
</g>
</g>
<!-- Node2&#45;&gt;Node1 -->
<g id="edge1_Node000001_Node000002" class="edge">
<title>Node2&#45;&gt;Node1</title>
<g id="a_edge1_Node000001_Node000002"><a xlink:title=" ">
<path fill="none" stroke="#63b8ff" d="M499.93,-83.04C513.44,-80.03 527.34,-76.93 540.54,-73.99"/>
<polygon fill="#63b8ff" stroke="#63b8ff" points="499.18,-79.62 490.18,-85.21 500.7,-86.45 499.18,-79.62"/>
</a>
</g>
</g>
<!-- Node3 -->
<g id="Node000003" class="node">
<title>Node3</title>
<g id="a_Node000003"><a xlink:href="structDGtal_1_1AssociativeCategory.html" target="_top" xlink:title=" ">
<polygon fill="white" stroke="#666666" points="303.5,-67.88 165.25,-67.88 165.25,-48.62 303.5,-48.62 303.5,-67.88"/>
<text text-anchor="middle" x="234.38" y="-54.38" font-family="FreeSans" font-size="10.00">DGtal::AssociativeCategory</text>
</a>
</g>
</g>
<!-- Node3&#45;&gt;Node2 -->
<g id="edge2_Node000002_Node000003" class="edge">
<title>Node3&#45;&gt;Node2</title>
<g id="a_edge2_Node000002_Node000003"><a xlink:title=" ">
<path fill="none" stroke="#63b8ff" d="M288.75,-70.94C307.96,-75.51 329.87,-80.71 350.04,-85.51"/>
<polygon fill="#63b8ff" stroke="#63b8ff" points="289.79,-67.59 279.25,-68.68 288.17,-74.4 289.79,-67.59"/>
</a>
</g>
</g>
<!-- Node5 -->
<g id="Node000005" class="node">
<title>Node5</title>
<g id="a_Node000005"><a xlink:href="structDGtal_1_1PairAssociativeCategory.html" target="_top" xlink:title=" ">
<polygon fill="white" stroke="#666666" points="495,-67.88 339.5,-67.88 339.5,-48.62 495,-48.62 495,-67.88"/>
<text text-anchor="middle" x="417.25" y="-54.38" font-family="FreeSans" font-size="10.00">DGtal::PairAssociativeCategory</text>
</a>
</g>
</g>
<!-- Node3&#45;&gt;Node5 -->
<g id="edge5_Node000005_Node000003" class="edge">
<title>Node3&#45;&gt;Node5</title>
<g id="a_edge5_Node000005_Node000003"><a xlink:title=" ">
<path fill="none" stroke="#63b8ff" d="M315.04,-58.25C323.09,-58.25 331.26,-58.25 339.29,-58.25"/>
<polygon fill="#63b8ff" stroke="#63b8ff" points="315.27,-54.75 305.27,-58.25 315.27,-61.75 315.27,-54.75"/>
</a>
</g>
</g>
<!-- Node6 -->
<g id="Node000006" class="node">
<title>Node6</title>
<g id="a_Node000006"><a xlink:href="structDGtal_1_1UniqueAssociativeCategory.html" target="_top" xlink:title=" ">
<polygon fill="white" stroke="#666666" points="481.88,-30.5 352.62,-30.5 352.62,0 481.88,0 481.88,-30.5"/>
<text text-anchor="start" x="360.62" y="-17" font-family="FreeSans" font-size="10.00">DGtal::UniqueAssociative</text>
<text text-anchor="middle" x="417.25" y="-5.75" font-family="FreeSans" font-size="10.00">Category</text>
</a>
</g>
</g>
<!-- Node3&#45;&gt;Node6 -->
<g id="edge7_Node000006_Node000003" class="edge">
<title>Node3&#45;&gt;Node6</title>
<g id="a_edge7_Node000006_Node000003"><a xlink:title=" ">
<path fill="none" stroke="#63b8ff" d="M288.8,-45.55C308.67,-40.83 331.42,-35.42 352.14,-30.49"/>
<polygon fill="#63b8ff" stroke="#63b8ff" points="288.17,-42.1 279.25,-47.82 289.79,-48.91 288.17,-42.1"/>
</a>
</g>
</g>
<!-- Node4 -->
<g id="Node000004" class="node">
<title>Node4</title>
<g id="a_Node000004"><a xlink:href="structDGtal_1_1ContainerCategory.html" target="_top" xlink:title=" ">
<polygon fill="white" stroke="#666666" points="129.25,-67.88 0,-67.88 0,-48.62 129.25,-48.62 129.25,-67.88"/>
<text text-anchor="middle" x="64.62" y="-54.38" font-family="FreeSans" font-size="10.00">DGtal::ContainerCategory</text>
</a>
</g>
</g>
<!-- Node4&#45;&gt;Node3 -->
<g id="edge3_Node000003_Node000004" class="edge">
<title>Node4&#45;&gt;Node3</title>
<g id="a_edge3_Node000003_Node000004"><a xlink:title=" ">
<path fill="none" stroke="#63b8ff" d="M140.78,-58.25C148.81,-58.25 156.96,-58.25 164.91,-58.25"/>
<polygon fill="#63b8ff" stroke="#63b8ff" points="141.04,-54.75 131.04,-58.25 141.04,-61.75 141.04,-54.75"/>
</a>
</g>
</g>
<!-- Node5&#45;&gt;Node1 -->
<g id="edge4_Node000001_Node000005" class="edge">
<title>Node5&#45;&gt;Node1</title>
<g id="a_edge4_Node000001_Node000005"><a xlink:title=" ">
<path fill="none" stroke="#63b8ff" d="M506.6,-58.25C514.64,-58.25 522.75,-58.25 530.71,-58.25"/>
<polygon fill="#63b8ff" stroke="#63b8ff" points="506.82,-54.75 496.82,-58.25 506.82,-61.75 506.82,-54.75"/>
</a>
</g>
</g>
<!-- Node6&#45;&gt;Node1 -->
<g id="edge6_Node000001_Node000006" class="edge">
<title>Node6&#45;&gt;Node1</title>
<g id="a_edge6_Node000001_Node000006"><a xlink:title=" ">
<path fill="none" stroke="#63b8ff" d="M493.38,-32C508.95,-35.47 525.3,-39.12 540.69,-42.55"/>
<polygon fill="#63b8ff" stroke="#63b8ff" points="494.21,-28.6 483.68,-29.84 492.68,-35.43 494.21,-28.6"/>
</a>
</g>
</g>
</g>
</svg>
