<?xml version="1.0" encoding="UTF-8" standalone="no"?>
<!DOCTYPE svg PUBLIC "-//W3C//DTD SVG 1.1//EN"
 "http://www.w3.org/Graphics/SVG/1.1/DTD/svg11.dtd">
<!-- Generated by graphviz version 13.1.2 (20250808.2320)
 -->
<!-- Title: boost::EqualityComparable&lt; T &gt; Pages: 1 -->
<!--zoomable 226 -->

<svg id="main" version="1.1" xmlns="http://www.w3.org/2000/svg" xmlns:xlink="http://www.w3.org/1999/xlink" xml:space="preserve" onload="init(evt)">

<style type="text/css"><![CDATA[
.node, .edge {opacity: 0.7;}
.node.selected, .edge.selected {opacity: 1;}
.edge:hover path { stroke: red; }
.edge:hover polygon { stroke: red; fill: red; }
]]></style>

<defs>
  <circle id="rim" cx="0" cy="0" r="7"/>
  <circle id="rim2" cx="0" cy="0" r="3.5"/>
  <g id="zoomPlus">
    <use xlink:href="#rim" fill="#404040"><set attributeName="fill" to="#808080" begin="zoomplus.mouseover" end="zoomplus.mouseout"/></use>
    <path d="M-4,0h8M0,-4v8" fill="none" stroke="white" stroke-width="1.5" pointer-events="none"/>
  </g>
  <g id="zoomMin">
    <use xlink:href="#rim" fill="#404040"><set attributeName="fill" to="#808080" begin="zoomminus.mouseover" end="zoomminus.mouseout"/></use>
    <path d="M-4,0h8" fill="none" stroke="white" stroke-width="1.5" pointer-events="none"/>
  </g>
  <g id="arrowUp" transform="translate(30 24)">
    <use xlink:href="#rim"/>
    <path pointer-events="none" fill="none" stroke="white" stroke-width="1.5" d="M0,-3.0v7 M-2.5,-0.5L0,-3.0L2.5,-0.5"/>
  </g>
  <g id="arrowRight" transform="rotate(90) translate(36 -43)">
    <use xlink:href="#rim"/>
    <path pointer-events="none" fill="none" stroke="white" stroke-width="1.5" d="M0,-3.0v7 M-2.5,-0.5L0,-3.0L2.5,-0.5"/>
  </g>
  <g id="arrowDown" transform="rotate(180) translate(-30 -48)">
    <use xlink:href="#rim"/>
    <path pointer-events="none" fill="none" stroke="white" stroke-width="1.5" d="M0,-3.0v7 M-2.5,-0.5L0,-3.0L2.5,-0.5"/>
  </g>
  <g id="arrowLeft" transform="rotate(270) translate(-36 17)">
    <use xlink:href="#rim"/>
    <path pointer-events="none" fill="none" stroke="white" stroke-width="1.5" d="M0,-3.0v7 M-2.5,-0.5L0,-3.0L2.5,-0.5"/>
  </g>
  <g id="resetDef">
    <use xlink:href="#rim2" fill="#404040"><set attributeName="fill" to="#808080" begin="reset.mouseover" end="reset.mouseout"/></use>
  </g>
</defs>
<script type="application/ecmascript">
var viewWidth = 1347;
var viewHeight = 226;
var sectionId = 'dynsection-0';
</script>
<script type="application/ecmascript" xlink:href="svg.min.js"/>
<svg id="graph" class="graph">
<g id="viewport">
<title>boost::EqualityComparable&lt; T &gt;</title>
<!-- Node1 -->
<g id="Node000001" class="node">
<title>Node1</title>
<g id="a_Node000001"><a xlink:title="Go to http://www.sgi.com/tech/stl/EqualityComparable.html.">
<polygon fill="#999999" stroke="#666666" points="157.75,-76.88 0,-76.88 0,-57.62 157.75,-57.62 157.75,-76.88"/>
<text xml:space="preserve" text-anchor="middle" x="78.88" y="-63.38" font-family="FreeSans" font-size="10.00">boost::EqualityComparable&lt; T &gt;</text>
</a>
</g>
</g>
<!-- Node2 -->
<g id="Node000002" class="node">
<title>Node2</title>
<g id="a_Node000002"><a xlink:href="structDGtal_1_1concepts_1_1CLabel.html" target="_top" xlink:title="Aim: Define the concept of DGtal labels. Models of CLabel can be default&#45;constructible,...">
<polygon fill="white" stroke="#666666" points="349.62,-96.88 201.62,-96.88 201.62,-77.62 349.62,-77.62 349.62,-96.88"/>
<text xml:space="preserve" text-anchor="middle" x="275.62" y="-83.38" font-family="FreeSans" font-size="10.00">DGtal::concepts::CLabel&lt; T &gt;</text>
</a>
</g>
</g>
<!-- Node1&#45;&gt;Node2 -->
<g id="edge1_Node000001_Node000002" class="edge">
<title>Node1&#45;&gt;Node2</title>
<g id="a_edge1_Node000001_Node000002"><a xlink:title=" ">
<path fill="none" stroke="#63b8ff" d="M169.63,-76.47C180.18,-77.55 190.85,-78.65 201.15,-79.7"/>
<polygon fill="#63b8ff" stroke="#63b8ff" points="170.06,-72.99 159.75,-75.45 169.34,-79.96 170.06,-72.99"/>
</a>
</g>
</g>
<!-- Node11 -->
<g id="Node000011" class="node">
<title>Node11</title>
<g id="a_Node000011"><a xlink:href="structDGtal_1_1concepts_1_1CSegment.html" target="_top" xlink:title="Aim: Defines the concept describing a segment, ie. a valid and not empty range.">
<polygon fill="white" stroke="#666666" points="357.5,-58.88 193.75,-58.88 193.75,-39.62 357.5,-39.62 357.5,-58.88"/>
<text xml:space="preserve" text-anchor="middle" x="275.62" y="-45.38" font-family="FreeSans" font-size="10.00">DGtal::concepts::CSegment&lt; T &gt;</text>
</a>
</g>
</g>
<!-- Node1&#45;&gt;Node11 -->
<g id="edge11_Node000001_Node000011" class="edge">
<title>Node1&#45;&gt;Node11</title>
<g id="a_edge11_Node000001_Node000011"><a xlink:title=" ">
<path fill="none" stroke="#63b8ff" d="M169.51,-58.97C177.53,-58.22 185.62,-57.48 193.55,-56.74"/>
<polygon fill="#63b8ff" stroke="#63b8ff" points="169.39,-55.46 159.75,-59.87 170.03,-62.43 169.39,-55.46"/>
</a>
</g>
</g>
<!-- Node3 -->
<g id="Node000003" class="node">
<title>Node3</title>
<g id="a_Node000003"><a xlink:href="structDGtal_1_1concepts_1_1CQuantity.html" target="_top" xlink:title="Aim: defines the concept of quantity in DGtal.">
<polygon fill="white" stroke="#666666" points="555,-125.88 393.5,-125.88 393.5,-106.62 555,-106.62 555,-125.88"/>
<text xml:space="preserve" text-anchor="middle" x="474.25" y="-112.38" font-family="FreeSans" font-size="10.00">DGtal::concepts::CQuantity&lt; T &gt;</text>
</a>
</g>
</g>
<!-- Node2&#45;&gt;Node3 -->
<g id="edge2_Node000002_Node000003" class="edge">
<title>Node2&#45;&gt;Node3</title>
<g id="a_edge2_Node000002_Node000003"><a xlink:title=" ">
<path fill="none" stroke="#63b8ff" d="M356.12,-98.98C372.21,-101.35 389,-103.82 404.67,-106.14"/>
<polygon fill="#63b8ff" stroke="#63b8ff" points="357.02,-95.57 346.62,-97.57 356,-102.49 357.02,-95.57"/>
</a>
</g>
</g>
<!-- Node4 -->
<g id="Node000004" class="node">
<title>Node4</title>
<g id="a_Node000004"><a xlink:href="structDGtal_1_1concepts_1_1CBoundedNumber.html" target="_top" xlink:title="Aim: The concept CBoundedNumber specifies what are the bounded numbers. Models of this concept should...">
<polygon fill="white" stroke="#666666" points="736.38,-217.5 597.38,-217.5 597.38,-187 736.38,-187 736.38,-217.5"/>
<text xml:space="preserve" text-anchor="start" x="605.38" y="-204" font-family="FreeSans" font-size="10.00">DGtal::concepts::CBounded</text>
<text xml:space="preserve" text-anchor="middle" x="666.88" y="-192.75" font-family="FreeSans" font-size="10.00">Number&lt; T &gt;</text>
</a>
</g>
</g>
<!-- Node3&#45;&gt;Node4 -->
<g id="edge3_Node000003_Node000004" class="edge">
<title>Node3&#45;&gt;Node4</title>
<g id="a_edge3_Node000003_Node000004"><a xlink:title=" ">
<path fill="none" stroke="#63b8ff" d="M504.46,-131.52C527.66,-143.44 561.07,-160.12 591,-173.25 601.47,-177.84 612.91,-182.47 623.63,-186.64"/>
<polygon fill="#63b8ff" stroke="#63b8ff" points="506.09,-128.43 495.6,-126.95 502.88,-134.65 506.09,-128.43"/>
</a>
</g>
</g>
<!-- Node5 -->
<g id="Node000005" class="node">
<title>Node5</title>
<g id="a_Node000005"><a xlink:href="structDGtal_1_1concepts_1_1CIntegralNumber.html" target="_top" xlink:title="Aim: Concept checking for Integral Numbers. Models of this concept should be listed in NumberTraits c...">
<polygon fill="white" stroke="#666666" points="924.88,-176.5 791.88,-176.5 791.88,-146 924.88,-146 924.88,-176.5"/>
<text xml:space="preserve" text-anchor="start" x="799.88" y="-163" font-family="FreeSans" font-size="10.00">DGtal::concepts::CIntegral</text>
<text xml:space="preserve" text-anchor="middle" x="858.38" y="-151.75" font-family="FreeSans" font-size="10.00">Number&lt; T &gt;</text>
</a>
</g>
</g>
<!-- Node3&#45;&gt;Node5 -->
<g id="edge4_Node000003_Node000005" class="edge">
<title>Node3&#45;&gt;Node5</title>
<g id="a_edge4_Node000003_Node000005"><a xlink:title=" ">
<path fill="none" stroke="#63b8ff" d="M528.75,-128.81C548.25,-133 570.53,-137.33 591,-140.25 658.97,-149.94 737.38,-155.44 791.44,-158.36"/>
<polygon fill="#63b8ff" stroke="#63b8ff" points="529.62,-125.42 519.11,-126.69 528.13,-132.25 529.62,-125.42"/>
</a>
</g>
</g>
<!-- Node7 -->
<g id="Node000007" class="node">
<title>Node7</title>
<g id="a_Node000007"><a xlink:href="structDGtal_1_1concepts_1_1CSignedNumber.html" target="_top" xlink:title="Aim: Concept checking for Signed Numbers. Models of this concept should be listed in NumberTraits cla...">
<polygon fill="white" stroke="#666666" points="732.25,-131.5 601.5,-131.5 601.5,-101 732.25,-101 732.25,-131.5"/>
<text xml:space="preserve" text-anchor="start" x="609.5" y="-118" font-family="FreeSans" font-size="10.00">DGtal::concepts::CSigned</text>
<text xml:space="preserve" text-anchor="middle" x="666.88" y="-106.75" font-family="FreeSans" font-size="10.00">Number&lt; T &gt;</text>
</a>
</g>
</g>
<!-- Node3&#45;&gt;Node7 -->
<g id="edge6_Node000003_Node000007" class="edge">
<title>Node3&#45;&gt;Node7</title>
<g id="a_edge6_Node000003_Node000007"><a xlink:title=" ">
<path fill="none" stroke="#63b8ff" d="M566.44,-116.25C578.15,-116.25 589.94,-116.25 601.1,-116.25"/>
<polygon fill="#63b8ff" stroke="#63b8ff" points="566.78,-112.75 556.78,-116.25 566.78,-119.75 566.78,-112.75"/>
</a>
</g>
</g>
<!-- Node10 -->
<g id="Node000010" class="node">
<title>Node10</title>
<g id="a_Node000010"><a xlink:href="structDGtal_1_1concepts_1_1CUnsignedNumber.html" target="_top" xlink:title="Aim: Concept checking for Unsigned numbers. Models of this concept should be listed in NumberTraits c...">
<polygon fill="white" stroke="#666666" points="737.88,-82.5 595.88,-82.5 595.88,-52 737.88,-52 737.88,-82.5"/>
<text xml:space="preserve" text-anchor="start" x="603.88" y="-69" font-family="FreeSans" font-size="10.00">DGtal::concepts::CUnsigned</text>
<text xml:space="preserve" text-anchor="middle" x="666.88" y="-57.75" font-family="FreeSans" font-size="10.00">Number&lt; T &gt;</text>
</a>
</g>
</g>
<!-- Node3&#45;&gt;Node10 -->
<g id="edge10_Node000003_Node000010" class="edge">
<title>Node3&#45;&gt;Node10</title>
<g id="a_edge10_Node000003_Node000010"><a xlink:title=" ">
<path fill="none" stroke="#63b8ff" d="M525.42,-103.35C549.73,-97.11 579.13,-89.55 604.75,-82.96"/>
<polygon fill="#63b8ff" stroke="#63b8ff" points="524.57,-99.96 515.75,-105.84 526.31,-106.74 524.57,-99.96"/>
</a>
</g>
</g>
<!-- Node6 -->
<g id="Node000006" class="node">
<title>Node6</title>
<g id="a_Node000006"><a xlink:href="structDGtal_1_1concepts_1_1CInteger.html" target="_top" xlink:title="Aim: Concept checking for Integer Numbers. More precisely, this concept is a refinement of both CEucl...">
<polygon fill="white" stroke="#666666" points="1328.88,-145.88 1174.12,-145.88 1174.12,-126.62 1328.88,-126.62 1328.88,-145.88"/>
<text xml:space="preserve" text-anchor="middle" x="1251.5" y="-132.38" font-family="FreeSans" font-size="10.00">DGtal::concepts::CInteger&lt; T &gt;</text>
</a>
</g>
</g>
<!-- Node5&#45;&gt;Node6 -->
<g id="edge5_Node000005_Node000006" class="edge">
<title>Node5&#45;&gt;Node6</title>
<g id="a_edge5_Node000005_Node000006"><a xlink:title=" ">
<path fill="none" stroke="#63b8ff" d="M936.46,-156.32C1005.21,-151.93 1105.31,-145.53 1173.91,-141.15"/>
<polygon fill="#63b8ff" stroke="#63b8ff" points="936.55,-152.81 926.79,-156.94 937,-159.8 936.55,-152.81"/>
</a>
</g>
</g>
<!-- Node8 -->
<g id="Node000008" class="node">
<title>Node8</title>
<g id="a_Node000008"><a xlink:href="structDGtal_1_1concepts_1_1CCommutativeRing.html" target="_top" xlink:title="Aim: Defines the mathematical concept equivalent to a unitary commutative ring.">
<polygon fill="white" stroke="#666666" points="938,-127.5 778.75,-127.5 778.75,-97 938,-97 938,-127.5"/>
<text xml:space="preserve" text-anchor="start" x="786.75" y="-114" font-family="FreeSans" font-size="10.00">DGtal::concepts::CCommutative</text>
<text xml:space="preserve" text-anchor="middle" x="858.38" y="-102.75" font-family="FreeSans" font-size="10.00">Ring&lt; T &gt;</text>
</a>
</g>
</g>
<!-- Node7&#45;&gt;Node8 -->
<g id="edge7_Node000007_Node000008" class="edge">
<title>Node7&#45;&gt;Node8</title>
<g id="a_edge7_Node000007_Node000008"><a xlink:title=" ">
<path fill="none" stroke="#63b8ff" d="M743.84,-114.65C755.26,-114.41 767.07,-114.16 778.56,-113.91"/>
<polygon fill="#63b8ff" stroke="#63b8ff" points="744,-111.14 734.07,-114.85 744.15,-118.14 744,-111.14"/>
</a>
</g>
</g>
<!-- Node9 -->
<g id="Node000009" class="node">
<title>Node9</title>
<g id="a_Node000009"><a xlink:href="structDGtal_1_1concepts_1_1CEuclideanRing.html" target="_top" xlink:title="Aim: Defines the mathematical concept equivalent to a unitary commutative ring with a division operat...">
<polygon fill="white" stroke="#666666" points="1122.75,-129.5 979.25,-129.5 979.25,-99 1122.75,-99 1122.75,-129.5"/>
<text xml:space="preserve" text-anchor="start" x="987.25" y="-116" font-family="FreeSans" font-size="10.00">DGtal::concepts::CEuclidean</text>
<text xml:space="preserve" text-anchor="middle" x="1051" y="-104.75" font-family="FreeSans" font-size="10.00">Ring&lt; T &gt;</text>
</a>
</g>
</g>
<!-- Node8&#45;&gt;Node9 -->
<g id="edge8_Node000008_Node000009" class="edge">
<title>Node8&#45;&gt;Node9</title>
<g id="a_edge8_Node000008_Node000009"><a xlink:title=" ">
<path fill="none" stroke="#63b8ff" d="M949.69,-113.2C959.45,-113.3 969.28,-113.4 978.77,-113.5"/>
<polygon fill="#63b8ff" stroke="#63b8ff" points="949.84,-109.7 939.8,-113.09 949.76,-116.7 949.84,-109.7"/>
</a>
</g>
</g>
<!-- Node9&#45;&gt;Node6 -->
<g id="edge9_Node000009_Node000006" class="edge">
<title>Node9&#45;&gt;Node6</title>
<g id="a_edge9_Node000009_Node000006"><a xlink:title=" ">
<path fill="none" stroke="#63b8ff" d="M1134.44,-123.39C1147.49,-124.83 1160.94,-126.32 1173.85,-127.75"/>
<polygon fill="#63b8ff" stroke="#63b8ff" points="1134.93,-119.92 1124.61,-122.3 1134.16,-126.88 1134.93,-119.92"/>
</a>
</g>
</g>
<!-- Node12 -->
<g id="Node000012" class="node">
<title>Node12</title>
<g id="a_Node000012"><a xlink:href="structDGtal_1_1concepts_1_1CSegmentFactory.html" target="_top" xlink:title="Aim: Defines the concept describing a segment ie. a valid and not empty subrange, which can construct...">
<polygon fill="white" stroke="#666666" points="544.12,-61.5 404.38,-61.5 404.38,-31 544.12,-31 544.12,-61.5"/>
<text xml:space="preserve" text-anchor="start" x="412.38" y="-48" font-family="FreeSans" font-size="10.00">DGtal::concepts::CSegment</text>
<text xml:space="preserve" text-anchor="middle" x="474.25" y="-36.75" font-family="FreeSans" font-size="10.00">Factory&lt; T &gt;</text>
</a>
</g>
</g>
<!-- Node11&#45;&gt;Node12 -->
<g id="edge12_Node000011_Node000012" class="edge">
<title>Node11&#45;&gt;Node12</title>
<g id="a_edge12_Node000011_Node000012"><a xlink:title=" ">
<path fill="none" stroke="#63b8ff" d="M368.96,-47.84C380.73,-47.66 392.61,-47.48 403.93,-47.31"/>
<polygon fill="#63b8ff" stroke="#63b8ff" points="369.19,-44.34 359.25,-47.99 369.3,-51.34 369.19,-44.34"/>
</a>
</g>
</g>
<!-- Node13 -->
<g id="Node000013" class="node">
<title>Node13</title>
<g id="a_Node000013"><a xlink:href="structDGtal_1_1concepts_1_1CIncrementalSegmentComputer.html" target="_top" xlink:title="Aim: Defines the concept describing an incremental segment computer, &#160;&#160;ie. a model of CSegmentFactory...">
<polygon fill="white" stroke="#666666" points="742.75,-33.5 591,-33.5 591,-3 742.75,-3 742.75,-33.5"/>
<text xml:space="preserve" text-anchor="start" x="599" y="-20" font-family="FreeSans" font-size="10.00">DGtal::concepts::CIncremental</text>
<text xml:space="preserve" text-anchor="middle" x="666.88" y="-8.75" font-family="FreeSans" font-size="10.00">SegmentComputer&lt; T &gt;</text>
</a>
</g>
</g>
<!-- Node12&#45;&gt;Node13 -->
<g id="edge13_Node000012_Node000013" class="edge">
<title>Node12&#45;&gt;Node13</title>
<g id="a_edge13_Node000012_Node000013"><a xlink:title=" ">
<path fill="none" stroke="#63b8ff" d="M555.66,-34.44C567.3,-32.73 579.24,-30.97 590.78,-29.28"/>
<polygon fill="#63b8ff" stroke="#63b8ff" points="555.49,-30.93 546.11,-35.84 556.51,-37.85 555.49,-30.93"/>
</a>
</g>
</g>
<!-- Node14 -->
<g id="Node000014" class="node">
<title>Node14</title>
<g id="a_Node000014"><a xlink:href="structDGtal_1_1concepts_1_1CForwardSegmentComputer.html" target="_top" xlink:title="Aim: Defines the concept describing a forward segment computer. Like any model of CIncrementalSegment...">
<polygon fill="white" stroke="#666666" points="926.38,-33.5 790.38,-33.5 790.38,-3 926.38,-3 926.38,-33.5"/>
<text xml:space="preserve" text-anchor="start" x="798.38" y="-20" font-family="FreeSans" font-size="10.00">DGtal::concepts::CForward</text>
<text xml:space="preserve" text-anchor="middle" x="858.38" y="-8.75" font-family="FreeSans" font-size="10.00">SegmentComputer&lt; T &gt;</text>
</a>
</g>
</g>
<!-- Node13&#45;&gt;Node14 -->
<g id="edge14_Node000013_Node000014" class="edge">
<title>Node13&#45;&gt;Node14</title>
<g id="a_edge14_Node000013_Node000014"><a xlink:title=" ">
<path fill="none" stroke="#63b8ff" d="M754.41,-18.25C766.34,-18.25 778.46,-18.25 789.98,-18.25"/>
<polygon fill="#63b8ff" stroke="#63b8ff" points="754.56,-14.75 744.56,-18.25 754.56,-21.75 754.56,-14.75"/>
</a>
</g>
</g>
<!-- Node15 -->
<g id="Node000015" class="node">
<title>Node15</title>
<g id="a_Node000015"><a xlink:href="structDGtal_1_1concepts_1_1CBidirectionalSegmentComputer.html" target="_top" xlink:title="Aim: Defines the concept describing a bidirectional segment computer, &#160;&#160;ie. a model of concepts::CSeg...">
<polygon fill="white" stroke="#666666" points="1128,-79.5 974,-79.5 974,-49 1128,-49 1128,-79.5"/>
<text xml:space="preserve" text-anchor="start" x="982" y="-66" font-family="FreeSans" font-size="10.00">DGtal::concepts::CBidirectional</text>
<text xml:space="preserve" text-anchor="middle" x="1051" y="-54.75" font-family="FreeSans" font-size="10.00">SegmentComputer&lt; T &gt;</text>
</a>
</g>
</g>
<!-- Node14&#45;&gt;Node15 -->
<g id="edge15_Node000014_Node000015" class="edge">
<title>Node14&#45;&gt;Node15</title>
<g id="a_edge15_Node000014_Node000015"><a xlink:title=" ">
<path fill="none" stroke="#63b8ff" d="M935.6,-36.64C951.93,-40.58 969.04,-44.71 984.9,-48.54"/>
<polygon fill="#63b8ff" stroke="#63b8ff" points="936.46,-33.25 925.92,-34.31 934.82,-40.06 936.46,-33.25"/>
</a>
</g>
</g>
<!-- Node17 -->
<g id="Node000017" class="node">
<title>Node17</title>
<g id="a_Node000017"><a xlink:href="structDGtal_1_1concepts_1_1CDynamicSegmentComputer.html" target="_top" xlink:title="Aim: Defines the concept describing a dynamic segment computer, &#160;&#160;ie. a model of CSegment that can ex...">
<polygon fill="white" stroke="#666666" points="1120.88,-30.5 981.12,-30.5 981.12,0 1120.88,0 1120.88,-30.5"/>
<text xml:space="preserve" text-anchor="start" x="989.12" y="-17" font-family="FreeSans" font-size="10.00">DGtal::concepts::CDynamic</text>
<text xml:space="preserve" text-anchor="middle" x="1051" y="-5.75" font-family="FreeSans" font-size="10.00">SegmentComputer&lt; T &gt;</text>
</a>
</g>
</g>
<!-- Node14&#45;&gt;Node17 -->
<g id="edge17_Node000014_Node000017" class="edge">
<title>Node14&#45;&gt;Node17</title>
<g id="a_edge17_Node000014_Node000017"><a xlink:title=" ">
<path fill="none" stroke="#63b8ff" d="M938.06,-17.01C952.19,-16.79 966.83,-16.56 980.68,-16.34"/>
<polygon fill="#63b8ff" stroke="#63b8ff" points="938.31,-13.51 928.36,-17.16 938.42,-20.51 938.31,-13.51"/>
</a>
</g>
</g>
<!-- Node16 -->
<g id="Node000016" class="node">
<title>Node16</title>
<g id="a_Node000016"><a xlink:href="structDGtal_1_1concepts_1_1CDynamicBidirectionalSegmentComputer.html" target="_top" xlink:title="Aim: Defines the concept describing a dynamic and bidirectional segment computer, ie....">
<polygon fill="white" stroke="#666666" points="1339,-55.5 1164,-55.5 1164,-25 1339,-25 1339,-55.5"/>
<text xml:space="preserve" text-anchor="start" x="1172" y="-42" font-family="FreeSans" font-size="10.00">DGtal::concepts::CDynamic</text>
<text xml:space="preserve" text-anchor="middle" x="1251.5" y="-30.75" font-family="FreeSans" font-size="10.00">BidirectionalSegmentComputer&lt; T &gt;</text>
</a>
</g>
</g>
<!-- Node15&#45;&gt;Node16 -->
<g id="edge16_Node000015_Node000016" class="edge">
<title>Node15&#45;&gt;Node16</title>
<g id="a_edge16_Node000015_Node000016"><a xlink:title=" ">
<path fill="none" stroke="#63b8ff" d="M1139.7,-53.65C1147.71,-52.68 1155.82,-51.7 1163.83,-50.73"/>
<polygon fill="#63b8ff" stroke="#63b8ff" points="1139.47,-50.15 1129.96,-54.82 1140.31,-57.1 1139.47,-50.15"/>
</a>
</g>
</g>
<!-- Node17&#45;&gt;Node16 -->
<g id="edge18_Node000017_Node000016" class="edge">
<title>Node17&#45;&gt;Node16</title>
<g id="a_edge18_Node000017_Node000016"><a xlink:title=" ">
<path fill="none" stroke="#63b8ff" d="M1132.27,-25.36C1142.65,-26.67 1153.31,-28.01 1163.79,-29.33"/>
<polygon fill="#63b8ff" stroke="#63b8ff" points="1133.01,-21.92 1122.65,-24.15 1132.13,-28.87 1133.01,-21.92"/>
</a>
</g>
</g>
</g>
</svg>

<g id="navigator" transform="translate(0 0)" fill="#404254">
  <rect fill="#f2f5e9" fill-opacity="0.5" stroke="#606060" stroke-width=".5" x="0" y="0" width="60" height="60"/>
  <use id="zoomplus" xlink:href="#zoomPlus" x="17" y="9" onmousedown="handleZoom(evt,'in')"/>
  <use id="zoomminus" xlink:href="#zoomMin" x="42" y="9" onmousedown="handleZoom(evt,'out')"/>
  <use id="reset" xlink:href="#resetDef" x="30" y="36" onmousedown="handleReset()"/>
   <use id="arrowup" xlink:href="#arrowUp" x="0" y="0" onmousedown="handlePan(0,-1)"/>
  <use id="arrowright" xlink:href="#arrowRight" x="0" y="0" onmousedown="handlePan(1,0)"/>
  <use id="arrowdown" xlink:href="#arrowDown" x="0" y="0" onmousedown="handlePan(0,1)"/>
  <use id="arrowleft" xlink:href="#arrowLeft" x="0" y="0" onmousedown="handlePan(-1,0)"/>
</g>
<svg viewBox="0 0 15 15" width="100%" height="30px" preserveAspectRatio="xMaxYMin meet">
 <g id="arrow_out" transform="scale(0.3 0.3)">
  <a xlink:href="structboost_1_1EqualityComparable__inherit__graph_org.svg" target="_base">
   <rect id="button" ry="5" rx="5" y="6" x="6" height="38" width="38"
        fill="#f2f5e9" fill-opacity="0.5" stroke="#606060" stroke-width="1.0"/>
   <path id="arrow"
     d="M 11.500037,31.436501 C 11.940474,20.09759 22.043105,11.32322 32.158766,21.979434 L 37.068811,17.246167 C 37.068811,17.246167 37.088388,32 37.088388,32 L 22.160133,31.978069 C 22.160133,31.978069 26.997745,27.140456 26.997745,27.140456 C 18.528582,18.264221 13.291696,25.230495 11.500037,31.436501 z"
     style="fill:#404040;"/>
  </a>
 </g>
</svg>

<style type='text/css'>
<![CDATA[
[data-mouse-over-selected='false'] { opacity: 0.7; }
[data-mouse-over-selected='true']  { opacity: 1.0; }
]]>
</style>
<script type="application/ecmascript"><![CDATA[
document.addEventListener('DOMContentLoaded', (event) => {
  highlightEdges();
  highlightAdjacentNodes();
});
]]></script>
</svg>
