<?xml version="1.0" encoding="UTF-8" standalone="no"?>
<!DOCTYPE svg PUBLIC "-//W3C//DTD SVG 1.1//EN"
 "http://www.w3.org/Graphics/SVG/1.1/DTD/svg11.dtd">
<!-- Generated by graphviz version 11.0.0 (20240428.1522)
 -->
<!-- Title: DGtal::concepts::CConstSinglePassRangeFromPoint&lt; T &gt; Pages: 1 -->
<svg width="797pt" height="93pt"
 viewBox="0.00 0.00 797.25 93.12" xmlns="http://www.w3.org/2000/svg" xmlns:xlink="http://www.w3.org/1999/xlink">
<g id="graph0" class="graph" transform="scale(1 1) rotate(0) translate(4 89.12)">
<title>DGtal::concepts::CConstSinglePassRangeFromPoint&lt; T &gt;</title>
<!-- Node1 -->
<g id="Node000001" class="node">
<title>Node1</title>
<g id="a_Node000001"><a xlink:title="Aim: refined concept of const single pass range with a begin() method from a point.">
<polygon fill="#999999" stroke="#666666" points="344,-61.12 190,-61.12 190,-30.62 344,-30.62 344,-61.12"/>
<text text-anchor="start" x="198" y="-47.62" font-family="FreeSans" font-size="10.00">DGtal::concepts::CConstSingle</text>
<text text-anchor="middle" x="267" y="-36.38" font-family="FreeSans" font-size="10.00">PassRangeFromPoint&lt; T &gt;</text>
</a>
</g>
</g>
<!-- Node3 -->
<g id="Node000003" class="node">
<title>Node3</title>
<g id="a_Node000003"><a xlink:href="structDGtal_1_1concepts_1_1CSinglePassRangeFromPoint.html" target="_top" xlink:title="Aim: refined concept of single pass range with a begin() method from a point.">
<polygon fill="white" stroke="#666666" points="585.75,-85.12 449.75,-85.12 449.75,-54.62 585.75,-54.62 585.75,-85.12"/>
<text text-anchor="start" x="457.75" y="-71.62" font-family="FreeSans" font-size="10.00">DGtal::concepts::CSingle</text>
<text text-anchor="middle" x="517.75" y="-60.38" font-family="FreeSans" font-size="10.00">PassRangeFromPoint&lt; T &gt;</text>
</a>
</g>
</g>
<!-- Node1&#45;&gt;Node3 -->
<g id="edge2_Node000001_Node000003" class="edge">
<title>Node1&#45;&gt;Node3</title>
<g id="a_edge2_Node000001_Node000003"><a xlink:title=" ">
<path fill="none" stroke="#63b8ff" d="M355.52,-54.32C386.35,-57.29 420.51,-60.59 449.42,-63.38"/>
<polygon fill="#63b8ff" stroke="#63b8ff" points="356.12,-50.86 345.83,-53.38 355.45,-57.83 356.12,-50.86"/>
</a>
</g>
</g>
<!-- Node4 -->
<g id="Node000004" class="node">
<title>Node4</title>
<g id="a_Node000004"><a xlink:href="structDGtal_1_1concepts_1_1CConstSinglePassRangeFromPoint.html" target="_top" xlink:title=" ">
<polygon fill="white" stroke="#666666" points="600,-36.12 435.5,-36.12 435.5,-5.62 600,-5.62 600,-36.12"/>
<text text-anchor="start" x="443.5" y="-22.62" font-family="FreeSans" font-size="10.00">DGtal::concepts::CConstSingle</text>
<text text-anchor="middle" x="517.75" y="-11.38" font-family="FreeSans" font-size="10.00">PassRangeFromPoint&lt; T, Value &gt;</text>
</a>
</g>
</g>
<!-- Node1&#45;&gt;Node4 -->
<g id="edge3_Node000001_Node000004" class="edge">
<title>Node1&#45;&gt;Node4</title>
<g id="a_edge3_Node000001_Node000004"><a xlink:title=" ">
<path fill="none" stroke="orange" stroke-dasharray="5,2" d="M355.67,-37.06C381.6,-34.46 409.87,-31.62 435.39,-29.05"/>
<polygon fill="orange" stroke="orange" points="355.43,-33.57 345.83,-38.05 356.13,-40.54 355.43,-33.57"/>
</a>
</g>
<text text-anchor="middle" x="389.75" y="-38.62" font-family="FreeSans" font-size="10.00" fill="grey"> &lt; T, Value &gt;</text>
</g>
<!-- Node2 -->
<g id="Node000002" class="node">
<title>Node2</title>
<g id="a_Node000002"><a xlink:href="structDGtal_1_1concepts_1_1CConstSinglePassRange.html" target="_top" xlink:title="Aim: Defines the concept describing a const single pass range.">
<polygon fill="white" stroke="#666666" points="154,-61.12 0,-61.12 0,-30.62 154,-30.62 154,-61.12"/>
<text text-anchor="start" x="8" y="-47.62" font-family="FreeSans" font-size="10.00">DGtal::concepts::CConstSingle</text>
<text text-anchor="middle" x="77" y="-36.38" font-family="FreeSans" font-size="10.00">PassRange&lt; T &gt;</text>
</a>
</g>
</g>
<!-- Node2&#45;&gt;Node1 -->
<g id="edge1_Node000001_Node000002" class="edge">
<title>Node2&#45;&gt;Node1</title>
<g id="a_edge1_Node000001_Node000002"><a xlink:title=" ">
<path fill="none" stroke="#63b8ff" d="M165.97,-45.88C173.86,-45.88 181.82,-45.88 189.6,-45.88"/>
<polygon fill="#63b8ff" stroke="#63b8ff" points="165.98,-42.38 155.98,-45.88 165.98,-49.38 165.98,-42.38"/>
</a>
</g>
</g>
<!-- Node5 -->
<g id="Node000005" class="node">
<title>Node5</title>
<g id="a_Node000005"><a xlink:href="structDGtal_1_1concepts_1_1CSinglePassRangeWithWritableIteratorFromPoint.html" target="_top" xlink:title="Aim: refined concept of single pass range with a outputIterator() method from a point.">
<polygon fill="white" stroke="#666666" points="789.25,-41.75 636,-41.75 636,0 789.25,0 789.25,-41.75"/>
<text text-anchor="start" x="644" y="-28.25" font-family="FreeSans" font-size="10.00">DGtal::concepts::CSingle</text>
<text text-anchor="start" x="644" y="-17" font-family="FreeSans" font-size="10.00">PassRangeWithWritableIterator</text>
<text text-anchor="middle" x="712.62" y="-5.75" font-family="FreeSans" font-size="10.00">FromPoint&lt; T, Value &gt;</text>
</a>
</g>
</g>
<!-- Node4&#45;&gt;Node5 -->
<g id="edge4_Node000004_Node000005" class="edge">
<title>Node4&#45;&gt;Node5</title>
<g id="a_edge4_Node000004_Node000005"><a xlink:title=" ">
<path fill="none" stroke="#63b8ff" d="M611.6,-20.88C619.65,-20.88 627.73,-20.88 635.62,-20.88"/>
<polygon fill="#63b8ff" stroke="#63b8ff" points="611.78,-17.38 601.78,-20.88 611.78,-24.38 611.78,-17.38"/>
</a>
</g>
</g>
</g>
</svg>
