<?xml version="1.0" encoding="UTF-8" standalone="no"?>
<!DOCTYPE svg PUBLIC "-//W3C//DTD SVG 1.1//EN"
 "http://www.w3.org/Graphics/SVG/1.1/DTD/svg11.dtd">
<!-- Generated by graphviz version 11.0.0 (20240428.1522)
 -->
<!-- Title: DGtal::concepts::CPointFunctor&lt; T &gt; Pages: 1 -->
<svg width="1839pt" height="109pt"
 viewBox="0.00 0.00 1838.75 108.50" xmlns="http://www.w3.org/2000/svg" xmlns:xlink="http://www.w3.org/1999/xlink">
<g id="graph0" class="graph" transform="scale(1 1) rotate(0) translate(4 104.5)">
<title>DGtal::concepts::CPointFunctor&lt; T &gt;</title>
<!-- Node1 -->
<g id="Node000001" class="node">
<title>Node1</title>
<g id="a_Node000001"><a xlink:title="Aim: Defines a functor on points.">
<polygon fill="#999999" stroke="#666666" points="1013.75,-70.88 833.5,-70.88 833.5,-51.62 1013.75,-51.62 1013.75,-70.88"/>
<text text-anchor="middle" x="923.62" y="-57.38" font-family="FreeSans" font-size="10.00">DGtal::concepts::CPointFunctor&lt; T &gt;</text>
</a>
</g>
</g>
<!-- Node7 -->
<g id="Node000007" class="node">
<title>Node7</title>
<g id="a_Node000007"><a xlink:href="structDGtal_1_1concepts_1_1COrientationFunctor.html" target="_top" xlink:title="Aim: This concept gathers models implementing an orientation test of &#160;points in a space of dimension ...">
<polygon fill="white" stroke="#666666" points="1236.38,-99.5 1088.38,-99.5 1088.38,-69 1236.38,-69 1236.38,-99.5"/>
<text text-anchor="start" x="1096.38" y="-86" font-family="FreeSans" font-size="10.00">DGtal::concepts::COrientation</text>
<text text-anchor="middle" x="1162.38" y="-74.75" font-family="FreeSans" font-size="10.00">Functor&lt; T &gt;</text>
</a>
</g>
</g>
<!-- Node1&#45;&gt;Node7 -->
<g id="edge6_Node000001_Node000007" class="edge">
<title>Node1&#45;&gt;Node7</title>
<g id="a_edge6_Node000001_Node000007"><a xlink:title=" ">
<path fill="none" stroke="#63b8ff" d="M1025.37,-71.04C1046.37,-73.08 1068.14,-75.19 1087.93,-77.11"/>
<polygon fill="#63b8ff" stroke="#63b8ff" points="1025.93,-67.58 1015.64,-70.09 1025.25,-74.54 1025.93,-67.58"/>
</a>
</g>
</g>
<!-- Node9 -->
<g id="Node000009" class="node">
<title>Node9</title>
<g id="a_Node000009"><a xlink:href="structDGtal_1_1concepts_1_1CPointFunctor.html" target="_top" xlink:title=" ">
<polygon fill="white" stroke="#666666" points="1251,-49.88 1073.75,-49.88 1073.75,-30.62 1251,-30.62 1251,-49.88"/>
<text text-anchor="middle" x="1162.38" y="-36.38" font-family="FreeSans" font-size="10.00">DGtal::concepts::CPointFunctor&lt; I &gt;</text>
</a>
</g>
</g>
<!-- Node1&#45;&gt;Node9 -->
<g id="edge8_Node000001_Node000009" class="edge">
<title>Node1&#45;&gt;Node9</title>
<g id="a_edge8_Node000001_Node000009"><a xlink:title=" ">
<path fill="none" stroke="orange" stroke-dasharray="5,2" d="M1012.48,-49.93C1019,-49.23 1025.47,-48.58 1031.75,-48 1045.22,-46.77 1059.5,-45.68 1073.46,-44.75"/>
<polygon fill="orange" stroke="orange" points="1012.57,-46.4 1003.01,-50.98 1013.34,-53.35 1012.57,-46.4"/>
</a>
</g>
<text text-anchor="middle" x="1043.75" y="-49" font-family="FreeSans" font-size="10.00" fill="grey"> &lt; I &gt;</text>
</g>
<!-- Node2 -->
<g id="Node000002" class="node">
<title>Node2</title>
<g id="a_Node000002"><a xlink:href="structDGtal_1_1concepts_1_1CUnaryFunctor.html" target="_top" xlink:title=" ">
<polygon fill="white" stroke="#666666" points="797.5,-76.5 637.5,-76.5 637.5,-46 797.5,-46 797.5,-76.5"/>
<text text-anchor="start" x="645.5" y="-63" font-family="FreeSans" font-size="10.00">DGtal::concepts::CUnaryFunctor</text>
<text text-anchor="middle" x="717.5" y="-51.75" font-family="FreeSans" font-size="10.00">&lt; T, T::Point, T::Value &gt;</text>
</a>
</g>
</g>
<!-- Node2&#45;&gt;Node1 -->
<g id="edge1_Node000001_Node000002" class="edge">
<title>Node2&#45;&gt;Node1</title>
<g id="a_edge1_Node000001_Node000002"><a xlink:title=" ">
<path fill="none" stroke="#63b8ff" d="M809.02,-61.25C817.08,-61.25 825.23,-61.25 833.28,-61.25"/>
<polygon fill="#63b8ff" stroke="#63b8ff" points="809.23,-57.75 799.23,-61.25 809.23,-64.75 809.23,-57.75"/>
</a>
</g>
</g>
<!-- Node3 -->
<g id="Node000003" class="node">
<title>Node3</title>
<g id="a_Node000003"><a xlink:href="structboost_1_1Assignable.html" target="_top" xlink:title="Go to http://www.sgi.com/tech/stl/Assignable.html.">
<polygon fill="white" stroke="#666666" points="475.5,-91.88 357.5,-91.88 357.5,-72.62 475.5,-72.62 475.5,-91.88"/>
<text text-anchor="middle" x="416.5" y="-78.38" font-family="FreeSans" font-size="10.00">boost::Assignable&lt; T &gt;</text>
</a>
</g>
</g>
<!-- Node3&#45;&gt;Node2 -->
<g id="edge2_Node000002_Node000003" class="edge">
<title>Node3&#45;&gt;Node2</title>
<g id="a_edge2_Node000002_Node000003"><a xlink:title=" ">
<path fill="none" stroke="#63b8ff" d="M487.24,-77.35C532.08,-74.2 590.45,-70.1 637.08,-66.83"/>
<polygon fill="#63b8ff" stroke="#63b8ff" points="487.1,-73.85 477.37,-78.05 487.59,-80.84 487.1,-73.85"/>
</a>
</g>
</g>
<!-- Node4 -->
<g id="Node000004" class="node">
<title>Node4</title>
<g id="a_Node000004"><a xlink:href="structDGtal_1_1concepts_1_1CUnaryFunctor.html" target="_top" xlink:title="Aim: Defines a unary functor, which associates arguments to results.">
<polygon fill="white" stroke="#666666" points="496.5,-54.5 336.5,-54.5 336.5,-24 496.5,-24 496.5,-54.5"/>
<text text-anchor="start" x="344.5" y="-41" font-family="FreeSans" font-size="10.00">DGtal::concepts::CUnaryFunctor</text>
<text text-anchor="middle" x="416.5" y="-29.75" font-family="FreeSans" font-size="10.00">&lt; X, A, R &gt;</text>
</a>
</g>
</g>
<!-- Node4&#45;&gt;Node2 -->
<g id="edge3_Node000002_Node000004" class="edge">
<title>Node4&#45;&gt;Node2</title>
<g id="a_edge3_Node000002_Node000004"><a xlink:title=" ">
<path fill="none" stroke="orange" stroke-dasharray="5,2" d="M507.8,-45.07C542.71,-47.41 582.97,-50.2 619.5,-53 625.23,-53.44 631.15,-53.91 637.1,-54.39"/>
<polygon fill="orange" stroke="orange" points="508.39,-41.6 498.18,-44.43 507.92,-48.59 508.39,-41.6"/>
</a>
</g>
<text text-anchor="middle" x="567" y="-54" font-family="FreeSans" font-size="10.00" fill="grey"> &lt; T, T::Point, T::Value &gt;</text>
</g>
<!-- Node5 -->
<g id="Node000005" class="node">
<title>Node5</title>
<g id="a_Node000005"><a xlink:href="structboost_1_1Assignable.html" target="_top" xlink:title=" ">
<polygon fill="white" stroke="#666666" points="300.5,-48.88 181.75,-48.88 181.75,-29.62 300.5,-29.62 300.5,-48.88"/>
<text text-anchor="middle" x="241.12" y="-35.38" font-family="FreeSans" font-size="10.00">boost::Assignable&lt; X &gt;</text>
</a>
</g>
</g>
<!-- Node5&#45;&gt;Node4 -->
<g id="edge4_Node000004_Node000005" class="edge">
<title>Node5&#45;&gt;Node4</title>
<g id="a_edge4_Node000004_Node000005"><a xlink:title=" ">
<path fill="none" stroke="#63b8ff" d="M312.24,-39.25C320.15,-39.25 328.25,-39.25 336.26,-39.25"/>
<polygon fill="#63b8ff" stroke="#63b8ff" points="312.34,-35.75 302.34,-39.25 312.34,-42.75 312.34,-35.75"/>
</a>
</g>
</g>
<!-- Node6 -->
<g id="Node000006" class="node">
<title>Node6</title>
<g id="a_Node000006"><a xlink:href="structboost_1_1Assignable.html" target="_top" xlink:title="Go to http://www.sgi.com/tech/stl/Assignable.html.">
<polygon fill="white" stroke="#666666" points="118,-48.88 0,-48.88 0,-29.62 118,-29.62 118,-48.88"/>
<text text-anchor="middle" x="59" y="-35.38" font-family="FreeSans" font-size="10.00">boost::Assignable&lt; T &gt;</text>
</a>
</g>
</g>
<!-- Node6&#45;&gt;Node5 -->
<g id="edge5_Node000005_Node000006" class="edge">
<title>Node6&#45;&gt;Node5</title>
<g id="a_edge5_Node000005_Node000006"><a xlink:title=" ">
<path fill="none" stroke="orange" stroke-dasharray="5,2" d="M129.54,-39.25C146.64,-39.25 164.78,-39.25 181.32,-39.25"/>
<polygon fill="orange" stroke="orange" points="130,-35.75 119.99,-39.25 129.99,-42.75 130,-35.75"/>
</a>
</g>
<text text-anchor="middle" x="149.88" y="-41" font-family="FreeSans" font-size="10.00" fill="grey"> &lt; X &gt;</text>
</g>
<!-- Node8 -->
<g id="Node000008" class="node">
<title>Node8</title>
<g id="a_Node000008"><a xlink:href="structDGtal_1_1concepts_1_1COrientationFunctor2.html" target="_top" xlink:title="Aim: This concept is a refinement of COrientationFunctor, useful for simple algebraic curves that can...">
<polygon fill="white" stroke="#666666" points="1435,-100.5 1287,-100.5 1287,-70 1435,-70 1435,-100.5"/>
<text text-anchor="start" x="1295" y="-87" font-family="FreeSans" font-size="10.00">DGtal::concepts::COrientation</text>
<text text-anchor="middle" x="1361" y="-75.75" font-family="FreeSans" font-size="10.00">Functor2&lt; T &gt;</text>
</a>
</g>
</g>
<!-- Node7&#45;&gt;Node8 -->
<g id="edge7_Node000007_Node000008" class="edge">
<title>Node7&#45;&gt;Node8</title>
<g id="a_edge7_Node000007_Node000008"><a xlink:title=" ">
<path fill="none" stroke="#63b8ff" d="M1248.04,-84.68C1260.88,-84.75 1274.03,-84.81 1286.59,-84.88"/>
<polygon fill="#63b8ff" stroke="#63b8ff" points="1248.4,-81.18 1238.38,-84.63 1248.37,-88.18 1248.4,-81.18"/>
</a>
</g>
</g>
<!-- Node10 -->
<g id="Node000010" class="node">
<title>Node10</title>
<g id="a_Node000010"><a xlink:href="structDGtal_1_1concepts_1_1CTrivialConstImage.html" target="_top" xlink:title="Aim: Defines the concept describing a read&#45;only image, which is a refinement of CPointFunctor.">
<polygon fill="white" stroke="#666666" points="1424.5,-51.5 1297.5,-51.5 1297.5,-21 1424.5,-21 1424.5,-51.5"/>
<text text-anchor="start" x="1305.5" y="-38" font-family="FreeSans" font-size="10.00">DGtal::concepts::CTrivial</text>
<text text-anchor="middle" x="1361" y="-26.75" font-family="FreeSans" font-size="10.00">ConstImage&lt; I &gt;</text>
</a>
</g>
</g>
<!-- Node9&#45;&gt;Node10 -->
<g id="edge9_Node000009_Node000010" class="edge">
<title>Node9&#45;&gt;Node10</title>
<g id="a_edge9_Node000009_Node000010"><a xlink:title=" ">
<path fill="none" stroke="#63b8ff" d="M1262.59,-38.23C1274.35,-37.99 1286.09,-37.75 1297.14,-37.53"/>
<polygon fill="#63b8ff" stroke="#63b8ff" points="1262.78,-34.73 1252.85,-38.43 1262.92,-41.73 1262.78,-34.73"/>
</a>
</g>
</g>
<!-- Node11 -->
<g id="Node000011" class="node">
<title>Node11</title>
<g id="a_Node000011"><a xlink:href="structDGtal_1_1concepts_1_1CConstImage.html" target="_top" xlink:title="Aim: Defines the concept describing a read&#45;only image, which is a refinement of CPointFunctor.">
<polygon fill="white" stroke="#666666" points="1646,-67.88 1471,-67.88 1471,-48.62 1646,-48.62 1646,-67.88"/>
<text text-anchor="middle" x="1558.5" y="-54.38" font-family="FreeSans" font-size="10.00">DGtal::concepts::CConstImage&lt; I &gt;</text>
</a>
</g>
</g>
<!-- Node10&#45;&gt;Node11 -->
<g id="edge10_Node000010_Node000011" class="edge">
<title>Node10&#45;&gt;Node11</title>
<g id="a_edge10_Node000010_Node000011"><a xlink:title=" ">
<path fill="none" stroke="#63b8ff" d="M1436.1,-44.59C1447.44,-45.86 1459.24,-47.19 1470.82,-48.5"/>
<polygon fill="#63b8ff" stroke="#63b8ff" points="1436.77,-41.14 1426.44,-43.5 1435.98,-48.1 1436.77,-41.14"/>
</a>
</g>
</g>
<!-- Node13 -->
<g id="Node000013" class="node">
<title>Node13</title>
<g id="a_Node000013"><a xlink:href="structDGtal_1_1concepts_1_1CTrivialImage.html" target="_top" xlink:title="Aim: Defines the concept describing an image without extra ranges, which is a refinement of CTrivialC...">
<polygon fill="white" stroke="#666666" points="1622,-30.5 1495,-30.5 1495,0 1622,0 1622,-30.5"/>
<text text-anchor="start" x="1503" y="-17" font-family="FreeSans" font-size="10.00">DGtal::concepts::CTrivial</text>
<text text-anchor="middle" x="1558.5" y="-5.75" font-family="FreeSans" font-size="10.00">Image&lt; I &gt;</text>
</a>
</g>
</g>
<!-- Node10&#45;&gt;Node13 -->
<g id="edge12_Node000010_Node000013" class="edge">
<title>Node10&#45;&gt;Node13</title>
<g id="a_edge12_Node000010_Node000013"><a xlink:title=" ">
<path fill="none" stroke="#63b8ff" d="M1436.12,-28.29C1455.42,-26.21 1476.03,-24 1494.68,-22"/>
<polygon fill="#63b8ff" stroke="#63b8ff" points="1436.01,-24.78 1426.44,-29.33 1436.76,-31.74 1436.01,-24.78"/>
</a>
</g>
</g>
<!-- Node12 -->
<g id="Node000012" class="node">
<title>Node12</title>
<g id="a_Node000012"><a xlink:href="structDGtal_1_1concepts_1_1CImage.html" target="_top" xlink:title="Aim: Defines the concept describing a read/write image, having an output iterator.">
<polygon fill="white" stroke="#666666" points="1830.75,-45.88 1682,-45.88 1682,-26.62 1830.75,-26.62 1830.75,-45.88"/>
<text text-anchor="middle" x="1756.38" y="-32.38" font-family="FreeSans" font-size="10.00">DGtal::concepts::CImage&lt; I &gt;</text>
</a>
</g>
</g>
<!-- Node11&#45;&gt;Node12 -->
<g id="edge11_Node000011_Node000012" class="edge">
<title>Node11&#45;&gt;Node12</title>
<g id="a_edge11_Node000011_Node000012"><a xlink:title=" ">
<path fill="none" stroke="#63b8ff" d="M1657.62,-47.23C1665.67,-46.33 1673.71,-45.42 1681.54,-44.54"/>
<polygon fill="#63b8ff" stroke="#63b8ff" points="1657.32,-43.74 1647.77,-48.34 1658.1,-50.7 1657.32,-43.74"/>
</a>
</g>
</g>
<!-- Node13&#45;&gt;Node12 -->
<g id="edge13_Node000013_Node000012" class="edge">
<title>Node13&#45;&gt;Node12</title>
<g id="a_edge13_Node000013_Node000012"><a xlink:title=" ">
<path fill="none" stroke="#63b8ff" d="M1633.57,-23.19C1649.32,-24.88 1665.94,-26.66 1681.67,-28.35"/>
<polygon fill="#63b8ff" stroke="#63b8ff" points="1634.11,-19.73 1623.79,-22.14 1633.36,-26.69 1634.11,-19.73"/>
</a>
</g>
</g>
</g>
</svg>
