<?xml version="1.0" encoding="UTF-8" standalone="no"?>
<!DOCTYPE svg PUBLIC "-//W3C//DTD SVG 1.1//EN"
 "http://www.w3.org/Graphics/SVG/1.1/DTD/svg11.dtd">
<!-- Generated by graphviz version 7.0.1 (20221109.1506)
 -->
<!-- Title: DGtal::C2x2DetComputer&lt; T &gt; Pages: 1 -->
<svg width="358pt" height="101pt"
 viewBox="0.00 0.00 358.00 101.00" xmlns="http://www.w3.org/2000/svg" xmlns:xlink="http://www.w3.org/1999/xlink">
<g id="graph0" class="graph" transform="scale(1 1) rotate(0) translate(4 97)">
<title>DGtal::C2x2DetComputer&lt; T &gt;</title>
<!-- Node1 -->
<g id="node1" class="node">
<title>Node1</title>
<g id="a_node1"><a xlink:title="Aim: This concept gathers all models that are able to compute the (sign of the) determinant of a 2x2 ...">
<polygon fill="#999999" stroke="#666666" points="350,-56 196,-56 196,-37 350,-37 350,-56"/>
<text text-anchor="middle" x="273" y="-44" font-family="FreeSans" font-size="10.00">DGtal::C2x2DetComputer&lt; T &gt;</text>
</a>
</g>
</g>
<!-- Node2 -->
<g id="node2" class="node">
<title>Node2</title>
<g id="a_node2"><a xlink:href="structboost_1_1DefaultConstructible.html" target="_top" xlink:title="Go to http://www.sgi.com/tech/stl/DefaultConstructible.html.">
<polygon fill="white" stroke="#666666" points="160,-93 0,-93 0,-74 160,-74 160,-93"/>
<text text-anchor="middle" x="80" y="-81" font-family="FreeSans" font-size="10.00">boost::DefaultConstructible&lt; T &gt;</text>
</a>
</g>
</g>
<!-- Node2&#45;&gt;Node1 -->
<g id="edge1" class="edge">
<title>Node2&#45;&gt;Node1</title>
<path fill="none" stroke="#63b8ff" d="M143.61,-71.37C168.5,-66.55 196.79,-61.07 220.47,-56.48"/>
<polygon fill="#63b8ff" stroke="#63b8ff" points="143.07,-67.91 133.92,-73.25 144.4,-74.78 143.07,-67.91"/>
</g>
<!-- Node3 -->
<g id="node3" class="node">
<title>Node3</title>
<g id="a_node3"><a xlink:href="structboost_1_1CopyConstructible.html" target="_top" xlink:title="Go to http://www.sgi.com/tech/stl/CopyConstructible.html.">
<polygon fill="white" stroke="#666666" points="156,-56 4,-56 4,-37 156,-37 156,-56"/>
<text text-anchor="middle" x="80" y="-44" font-family="FreeSans" font-size="10.00">boost::CopyConstructible&lt; T &gt;</text>
</a>
</g>
</g>
<!-- Node3&#45;&gt;Node1 -->
<g id="edge2" class="edge">
<title>Node3&#45;&gt;Node1</title>
<path fill="none" stroke="#63b8ff" d="M167.81,-46.5C177.15,-46.5 186.6,-46.5 195.81,-46.5"/>
<polygon fill="#63b8ff" stroke="#63b8ff" points="168,-43 158,-46.5 168,-50 168,-43"/>
</g>
<!-- Node4 -->
<g id="node4" class="node">
<title>Node4</title>
<g id="a_node4"><a xlink:href="structboost_1_1Assignable.html" target="_top" xlink:title="Go to http://www.sgi.com/tech/stl/Assignable.html.">
<polygon fill="white" stroke="#666666" points="139.5,-19 20.5,-19 20.5,0 139.5,0 139.5,-19"/>
<text text-anchor="middle" x="80" y="-7" font-family="FreeSans" font-size="10.00">boost::Assignable&lt; T &gt;</text>
</a>
</g>
</g>
<!-- Node4&#45;&gt;Node1 -->
<g id="edge3" class="edge">
<title>Node4&#45;&gt;Node1</title>
<path fill="none" stroke="#63b8ff" d="M143.61,-21.63C168.5,-26.45 196.79,-31.93 220.47,-36.52"/>
<polygon fill="#63b8ff" stroke="#63b8ff" points="144.4,-18.22 133.92,-19.75 143.07,-25.09 144.4,-18.22"/>
</g>
</g>
</svg>
