<?xml version="1.0" encoding="UTF-8" standalone="no"?>
<!DOCTYPE svg PUBLIC "-//W3C//DTD SVG 1.1//EN"
 "http://www.w3.org/Graphics/SVG/1.1/DTD/svg11.dtd">
<!-- Generated by graphviz version 13.0.1 (20250615.1724)
 -->
<!-- Title: DGtal::ITKIOTrait&lt; Value &gt; Pages: 1 -->
<svg width="254pt" height="122pt"
 viewBox="0.00 0.00 254.00 122.00" xmlns="http://www.w3.org/2000/svg" xmlns:xlink="http://www.w3.org/1999/xlink">
<g id="graph0" class="graph" transform="scale(1 1) rotate(0) translate(4 118.25)">
<title>DGtal::ITKIOTrait&lt; Value &gt;</title>
<!-- Node1 -->
<g id="Node000001" class="node">
<title>Node1</title>
<g id="a_Node000001"><a xlink:title="Aim: Provide type trait for ITK reader and ITK writer.">
<polygon fill="#999999" stroke="#666666" points="180.25,-114.25 81,-114.25 81,-83.75 180.25,-83.75 180.25,-114.25"/>
<text xml:space="preserve" text-anchor="start" x="89" y="-100.75" font-family="FreeSans" font-size="10.00">DGtal::ITKIOTrait&lt;</text>
<text xml:space="preserve" text-anchor="middle" x="130.62" y="-89.5" font-family="FreeSans" font-size="10.00"> Value &gt;</text>
</a>
</g>
</g>
<!-- Node2 -->
<g id="Node000002" class="node">
<title>Node2</title>
<g id="a_Node000002"><a xlink:href="structDGtal_1_1ITKIOTrait.html" target="_top" xlink:title=" ">
<polygon fill="white" stroke="#666666" points="129.25,-24.88 0,-24.88 0,-5.63 129.25,-5.63 129.25,-24.88"/>
<text xml:space="preserve" text-anchor="middle" x="64.62" y="-11.38" font-family="FreeSans" font-size="10.00">DGtal::ValueOut&lt; Value &gt;</text>
</a>
</g>
</g>
<!-- Node1&#45;&gt;Node2 -->
<g id="edge1_Node000001_Node000002" class="edge">
<title>Node1&#45;&gt;Node2</title>
<g id="a_edge1_Node000001_Node000002"><a xlink:title=" ">
<path fill="none" stroke="orange" stroke-dasharray="5,2" d="M91.72,-76.71C87.7,-73.41 83.96,-69.76 80.88,-65.75 71.49,-53.57 67.4,-35.74 65.72,-25.13"/>
<polygon fill="orange" stroke="orange" points="89.46,-79.4 99.61,-82.44 93.58,-73.73 89.46,-79.4"/>
</a>
</g>
<text xml:space="preserve" text-anchor="start" x="83.88" y="-53.25" font-family="FreeSans" font-size="10.00" fill="grey">&lt; Value &gt;::ValueOut</text>
</g>
<!-- Node3 -->
<g id="Node000003" class="node">
<title>Node3</title>
<g id="a_Node000003"><a xlink:href="structDGtal_1_1ITKIOTrait_3_01bool_01_4.html" target="_top" xlink:title=" ">
<polygon fill="white" stroke="#666666" points="246.25,-30.5 147,-30.5 147,0 246.25,0 246.25,-30.5"/>
<text xml:space="preserve" text-anchor="start" x="155" y="-17" font-family="FreeSans" font-size="10.00">DGtal::ITKIOTrait&lt;</text>
<text xml:space="preserve" text-anchor="middle" x="196.62" y="-5.75" font-family="FreeSans" font-size="10.00"> bool &gt;</text>
</a>
</g>
</g>
<!-- Node1&#45;&gt;Node3 -->
<g id="edge2_Node000001_Node000003" class="edge">
<title>Node1&#45;&gt;Node3</title>
<g id="a_edge2_Node000001_Node000003"><a xlink:title=" ">
<path fill="none" stroke="orange" stroke-dasharray="5,2" d="M164.33,-76.24C168.08,-73 171.62,-69.48 174.62,-65.75 183,-55.35 188.86,-41.26 192.41,-30.77"/>
<polygon fill="orange" stroke="orange" points="162.28,-73.41 156.58,-82.34 166.6,-78.91 162.28,-73.41"/>
</a>
</g>
<text xml:space="preserve" text-anchor="start" x="187.77" y="-53.25" font-family="FreeSans" font-size="10.00" fill="grey">&lt; bool &gt;</text>
</g>
</g>
</svg>
