<?xml version="1.0" encoding="UTF-8" standalone="no"?>
<!DOCTYPE svg PUBLIC "-//W3C//DTD SVG 1.1//EN"
 "http://www.w3.org/Graphics/SVG/1.1/DTD/svg11.dtd">
<!-- Generated by graphviz version 13.1.2 (20250808.2320)
 -->
<!-- Title: DGtal::IteratorCirculatorTraits&lt; IC &gt; Pages: 1 -->
<!--zoomable 452 -->

<svg id="main" version="1.1" xmlns="http://www.w3.org/2000/svg" xmlns:xlink="http://www.w3.org/1999/xlink" xml:space="preserve" onload="init(evt)">

<style type="text/css"><![CDATA[
.node, .edge {opacity: 0.7;}
.node.selected, .edge.selected {opacity: 1;}
.edge:hover path { stroke: red; }
.edge:hover polygon { stroke: red; fill: red; }
]]></style>

<defs>
  <circle id="rim" cx="0" cy="0" r="7"/>
  <circle id="rim2" cx="0" cy="0" r="3.5"/>
  <g id="zoomPlus">
    <use xlink:href="#rim" fill="#404040"><set attributeName="fill" to="#808080" begin="zoomplus.mouseover" end="zoomplus.mouseout"/></use>
    <path d="M-4,0h8M0,-4v8" fill="none" stroke="white" stroke-width="1.5" pointer-events="none"/>
  </g>
  <g id="zoomMin">
    <use xlink:href="#rim" fill="#404040"><set attributeName="fill" to="#808080" begin="zoomminus.mouseover" end="zoomminus.mouseout"/></use>
    <path d="M-4,0h8" fill="none" stroke="white" stroke-width="1.5" pointer-events="none"/>
  </g>
  <g id="arrowUp" transform="translate(30 24)">
    <use xlink:href="#rim"/>
    <path pointer-events="none" fill="none" stroke="white" stroke-width="1.5" d="M0,-3.0v7 M-2.5,-0.5L0,-3.0L2.5,-0.5"/>
  </g>
  <g id="arrowRight" transform="rotate(90) translate(36 -43)">
    <use xlink:href="#rim"/>
    <path pointer-events="none" fill="none" stroke="white" stroke-width="1.5" d="M0,-3.0v7 M-2.5,-0.5L0,-3.0L2.5,-0.5"/>
  </g>
  <g id="arrowDown" transform="rotate(180) translate(-30 -48)">
    <use xlink:href="#rim"/>
    <path pointer-events="none" fill="none" stroke="white" stroke-width="1.5" d="M0,-3.0v7 M-2.5,-0.5L0,-3.0L2.5,-0.5"/>
  </g>
  <g id="arrowLeft" transform="rotate(270) translate(-36 17)">
    <use xlink:href="#rim"/>
    <path pointer-events="none" fill="none" stroke="white" stroke-width="1.5" d="M0,-3.0v7 M-2.5,-0.5L0,-3.0L2.5,-0.5"/>
  </g>
  <g id="resetDef">
    <use xlink:href="#rim2" fill="#404040"><set attributeName="fill" to="#808080" begin="reset.mouseover" end="reset.mouseout"/></use>
  </g>
</defs>
<script type="application/ecmascript">
var viewWidth = 419;
var viewHeight = 452;
var sectionId = 'dynsection-0';
</script>
<script type="application/ecmascript" xlink:href="svg.min.js"/>
<svg id="graph" class="graph">
<g id="viewport">
<title>DGtal::IteratorCirculatorTraits&lt; IC &gt;</title>
<!-- Node1 -->
<g id="Node000001" class="node">
<title>Node1</title>
<g id="a_Node000001"><a xlink:title="Aim: Provides nested types for both iterators and circulators: &#160;&#160;Type, Category, Value,...">
<polygon fill="#999999" stroke="#666666" points="120.25,-224.5 0,-224.5 0,-194 120.25,-194 120.25,-224.5"/>
<text xml:space="preserve" text-anchor="start" x="8" y="-211" font-family="FreeSans" font-size="10.00">DGtal::IteratorCirculator</text>
<text xml:space="preserve" text-anchor="middle" x="60.12" y="-199.75" font-family="FreeSans" font-size="10.00">Traits&lt; IC &gt;</text>
</a>
</g>
</g>
<!-- Node2 -->
<g id="Node000002" class="node">
<title>Node2</title>
<g id="a_Node000002"><a xlink:href="structDGtal_1_1IteratorCirculatorTraits.html" target="_top" xlink:title=" ">
<polygon fill="white" stroke="#666666" points="399.12,-427.88 275.88,-427.88 275.88,-408.62 399.12,-408.62 399.12,-427.88"/>
<text xml:space="preserve" text-anchor="middle" x="337.5" y="-414.38" font-family="FreeSans" font-size="10.00">DGtal::Type&lt; TIterator &gt;</text>
</a>
</g>
</g>
<!-- Node1&#45;&gt;Node2 -->
<g id="edge1_Node000001_Node000002" class="edge">
<title>Node1&#45;&gt;Node2</title>
<g id="a_edge1_Node000001_Node000002"><a xlink:title=" ">
<path fill="none" stroke="orange" stroke-dasharray="5,2" d="M63.86,-236.28C69.63,-277.83 87.06,-356.61 138.25,-395.25 177.1,-424.58 233.03,-428.64 275.58,-426.34"/>
<polygon fill="orange" stroke="orange" points="67.34,-235.9 62.64,-226.41 60.4,-236.77 67.34,-235.9"/>
</a>
</g>
<text xml:space="preserve" text-anchor="start" x="151.38" y="-431.42" font-family="FreeSans" font-size="10.00" fill="grey">&lt; TIterator &gt;::Type</text>
</g>
<!-- Node3 -->
<g id="Node000003" class="node">
<title>Node3</title>
<g id="a_Node000003"><a xlink:href="structDGtal_1_1IteratorCirculatorTraits.html" target="_top" xlink:title=" ">
<polygon fill="white" stroke="#666666" points="386.75,-378.5 288.25,-378.5 288.25,-348 386.75,-348 386.75,-378.5"/>
<text xml:space="preserve" text-anchor="start" x="296.25" y="-365" font-family="FreeSans" font-size="10.00">DGtal::Difference&lt;</text>
<text xml:space="preserve" text-anchor="middle" x="337.5" y="-353.75" font-family="FreeSans" font-size="10.00"> ConstIterator &gt;</text>
</a>
</g>
</g>
<!-- Node1&#45;&gt;Node3 -->
<g id="edge2_Node000001_Node000003" class="edge">
<title>Node1&#45;&gt;Node3</title>
<g id="a_edge2_Node000001_Node000003"><a xlink:title=" ">
<path fill="none" stroke="orange" stroke-dasharray="5,2" d="M69.15,-235.44C79.8,-265.37 101.64,-313.3 138.25,-337.25 162.14,-352.88 237.19,-359.16 287.78,-361.65"/>
<polygon fill="orange" stroke="orange" points="72.49,-234.36 65.98,-226 65.85,-236.6 72.49,-234.36"/>
</a>
</g>
<text xml:space="preserve" text-anchor="start" x="151.75" y="-378.94" font-family="FreeSans" font-size="10.00" fill="grey">&lt; ConstIterator &gt;::</text>
<text xml:space="preserve" text-anchor="start" x="151.75" y="-363.69" font-family="FreeSans" font-size="10.00" fill="grey">  Difference</text>
</g>
<!-- Node4 -->
<g id="Node000004" class="node">
<title>Node4</title>
<g id="a_Node000004"><a xlink:href="structDGtal_1_1IteratorCirculatorTraits.html" target="_top" xlink:title=" ">
<polygon fill="white" stroke="#666666" points="396.12,-329.88 278.88,-329.88 278.88,-310.62 396.12,-310.62 396.12,-329.88"/>
<text xml:space="preserve" text-anchor="middle" x="337.5" y="-316.38" font-family="FreeSans" font-size="10.00">DGtal::Type&lt; Iterator &gt;</text>
</a>
</g>
</g>
<!-- Node1&#45;&gt;Node4 -->
<g id="edge3_Node000001_Node000004" class="edge">
<title>Node1&#45;&gt;Node4</title>
<g id="a_edge3_Node000001_Node000004"><a xlink:title=" ">
<path fill="none" stroke="orange" stroke-dasharray="5,2" d="M75.81,-234.5C89.26,-255.1 111.17,-283.04 138.25,-297.25 161.87,-309.65 228.82,-315.45 278.41,-318.11"/>
<polygon fill="orange" stroke="orange" points="78.81,-232.7 70.54,-226.08 72.88,-236.41 78.81,-232.7"/>
</a>
</g>
<text xml:space="preserve" text-anchor="start" x="154.38" y="-320.42" font-family="FreeSans" font-size="10.00" fill="grey">&lt; Iterator &gt;::Type</text>
</g>
<!-- Node5 -->
<g id="Node000005" class="node">
<title>Node5</title>
<g id="a_Node000005"><a xlink:href="structDGtal_1_1IteratorCirculatorTraits.html" target="_top" xlink:title=" ">
<polygon fill="white" stroke="#666666" points="410.75,-274.88 264.25,-274.88 264.25,-255.62 410.75,-255.62 410.75,-274.88"/>
<text xml:space="preserve" text-anchor="middle" x="337.5" y="-261.38" font-family="FreeSans" font-size="10.00">DGtal::Value&lt; ConstIterator &gt;</text>
</a>
</g>
</g>
<!-- Node1&#45;&gt;Node5 -->
<g id="edge4_Node000001_Node000005" class="edge">
<title>Node1&#45;&gt;Node5</title>
<g id="a_edge4_Node000001_Node000005"><a xlink:title=" ">
<path fill="none" stroke="orange" stroke-dasharray="5,2" d="M101.09,-229.63C112.8,-234.84 125.81,-239.9 138.25,-243.25 179.05,-254.23 225.98,-259.74 263.94,-262.5"/>
<polygon fill="orange" stroke="orange" points="102.67,-226.5 92.13,-225.49 99.74,-232.86 102.67,-226.5"/>
</a>
</g>
<text xml:space="preserve" text-anchor="start" x="151.75" y="-280.95" font-family="FreeSans" font-size="10.00" fill="grey">&lt; ConstIterator &gt;::</text>
<text xml:space="preserve" text-anchor="start" x="151.75" y="-265.7" font-family="FreeSans" font-size="10.00" fill="grey">  Value</text>
</g>
<!-- Node6 -->
<g id="Node000006" class="node">
<title>Node6</title>
<g id="a_Node000006"><a xlink:href="structDGtal_1_1IteratorCirculatorTraits.html" target="_top" xlink:title=" ">
<polygon fill="white" stroke="#666666" points="387.88,-224.5 287.12,-224.5 287.12,-194 387.88,-194 387.88,-224.5"/>
<text xml:space="preserve" text-anchor="start" x="295.12" y="-211" font-family="FreeSans" font-size="10.00">DGtal::Coordinate&lt;</text>
<text xml:space="preserve" text-anchor="middle" x="337.5" y="-199.75" font-family="FreeSans" font-size="10.00"> TIterator &gt;</text>
</a>
</g>
</g>
<!-- Node1&#45;&gt;Node6 -->
<g id="edge5_Node000001_Node000006" class="edge">
<title>Node1&#45;&gt;Node6</title>
<g id="a_edge5_Node000001_Node000006"><a xlink:title=" ">
<path fill="none" stroke="orange" stroke-dasharray="5,2" d="M131.91,-209.25C180.44,-209.25 243.63,-209.25 286.86,-209.25"/>
<polygon fill="orange" stroke="orange" points="132.05,-205.75 122.05,-209.25 132.05,-212.75 132.05,-205.75"/>
</a>
</g>
<text xml:space="preserve" text-anchor="start" x="149.88" y="-229.25" font-family="FreeSans" font-size="10.00" fill="grey">&lt; TIterator &gt;::Value</text>
<text xml:space="preserve" text-anchor="start" x="149.88" y="-214" font-family="FreeSans" font-size="10.00" fill="grey">  ::Coordinate</text>
</g>
<!-- Node7 -->
<g id="Node000007" class="node">
<title>Node7</title>
<g id="a_Node000007"><a xlink:href="structDGtal_1_1IteratorCirculatorTraits.html" target="_top" xlink:title=" ">
<polygon fill="white" stroke="#666666" points="410.75,-165.88 264.25,-165.88 264.25,-146.62 410.75,-146.62 410.75,-165.88"/>
<text xml:space="preserve" text-anchor="middle" x="337.5" y="-152.38" font-family="FreeSans" font-size="10.00">DGtal::Value&lt; ConstIterator &gt;</text>
</a>
</g>
</g>
<!-- Node1&#45;&gt;Node7 -->
<g id="edge6_Node000001_Node000007" class="edge">
<title>Node1&#45;&gt;Node7</title>
<g id="a_edge6_Node000001_Node000007"><a xlink:title=" ">
<path fill="none" stroke="orange" stroke-dasharray="5,2" d="M98.02,-188.49C110.44,-182.41 124.61,-176.41 138.25,-172.75 178.94,-161.81 225.87,-157.55 263.86,-156.09"/>
<polygon fill="orange" stroke="orange" points="96.72,-185.23 89.4,-192.89 99.9,-191.46 96.72,-185.23"/>
</a>
</g>
<text xml:space="preserve" text-anchor="start" x="141.25" y="-192.75" font-family="FreeSans" font-size="10.00" fill="grey">&lt; typenameDSSType::</text>
<text xml:space="preserve" text-anchor="start" x="141.25" y="-177.5" font-family="FreeSans" font-size="10.00" fill="grey">  ConstIterator &gt;::Value</text>
</g>
<!-- Node8 -->
<g id="Node000008" class="node">
<title>Node8</title>
<g id="a_Node000008"><a xlink:href="structDGtal_1_1IteratorCirculatorTraits_3_01T_01_5_01_4.html" target="_top" xlink:title=" ">
<polygon fill="white" stroke="#666666" points="397.62,-128.5 277.38,-128.5 277.38,-98 397.62,-98 397.62,-128.5"/>
<text xml:space="preserve" text-anchor="start" x="285.38" y="-115" font-family="FreeSans" font-size="10.00">DGtal::IteratorCirculator</text>
<text xml:space="preserve" text-anchor="middle" x="337.5" y="-103.75" font-family="FreeSans" font-size="10.00">Traits&lt; T * &gt;</text>
</a>
</g>
</g>
<!-- Node1&#45;&gt;Node8 -->
<g id="edge7_Node000001_Node000008" class="edge">
<title>Node1&#45;&gt;Node8</title>
<g id="a_edge7_Node000001_Node000008"><a xlink:title=" ">
<path fill="none" stroke="orange" stroke-dasharray="5,2" d="M79.58,-184.82C93.69,-168.09 114.67,-147.01 138.25,-136 181.72,-115.7 236.19,-110.7 277.02,-110.4"/>
<polygon fill="orange" stroke="orange" points="77.01,-182.43 73.43,-192.4 82.45,-186.84 77.01,-182.43"/>
</a>
</g>
<text xml:space="preserve" text-anchor="start" x="176.88" y="-140.75" font-family="FreeSans" font-size="10.00" fill="grey">&lt; T * &gt;</text>
</g>
<!-- Node9 -->
<g id="Node000009" class="node">
<title>Node9</title>
<g id="a_Node000009"><a xlink:href="structDGtal_1_1IteratorCirculatorTraits_3_01T_01const_01_5_01_4.html" target="_top" xlink:title=" ">
<polygon fill="white" stroke="#666666" points="397.62,-79.5 277.38,-79.5 277.38,-49 397.62,-49 397.62,-79.5"/>
<text xml:space="preserve" text-anchor="start" x="285.38" y="-66" font-family="FreeSans" font-size="10.00">DGtal::IteratorCirculator</text>
<text xml:space="preserve" text-anchor="middle" x="337.5" y="-54.75" font-family="FreeSans" font-size="10.00">Traits&lt; T const * &gt;</text>
</a>
</g>
</g>
<!-- Node1&#45;&gt;Node9 -->
<g id="edge8_Node000001_Node000009" class="edge">
<title>Node1&#45;&gt;Node9</title>
<g id="a_edge8_Node000001_Node000009"><a xlink:title=" ">
<path fill="none" stroke="orange" stroke-dasharray="5,2" d="M70.42,-183.35C81.84,-155.6 104.01,-112.63 138.25,-91 179.5,-64.94 235.19,-59.42 277.04,-59.76"/>
<polygon fill="orange" stroke="orange" points="67.25,-181.86 66.86,-192.45 73.77,-184.41 67.25,-181.86"/>
</a>
</g>
<text xml:space="preserve" text-anchor="start" x="163.38" y="-95.75" font-family="FreeSans" font-size="10.00" fill="grey">&lt; T const * &gt;</text>
</g>
<!-- Node10 -->
<g id="Node000010" class="node">
<title>Node10</title>
<g id="a_Node000010"><a xlink:href="structDGtal_1_1IteratorCirculatorTraits.html" target="_top" xlink:title=" ">
<polygon fill="white" stroke="#666666" points="397.62,-30.5 277.38,-30.5 277.38,0 397.62,0 397.62,-30.5"/>
<text xml:space="preserve" text-anchor="start" x="285.38" y="-17" font-family="FreeSans" font-size="10.00">DGtal::IteratorCirculator</text>
<text xml:space="preserve" text-anchor="middle" x="337.5" y="-5.75" font-family="FreeSans" font-size="10.00">Traits&lt; TIterator &gt;</text>
</a>
</g>
</g>
<!-- Node1&#45;&gt;Node10 -->
<g id="edge9_Node000001_Node000010" class="edge">
<title>Node1&#45;&gt;Node10</title>
<g id="a_edge9_Node000001_Node000010"><a xlink:title=" ">
<path fill="none" stroke="orange" stroke-dasharray="5,2" d="M65.02,-182.28C72.14,-143.68 91.13,-73.52 138.25,-39 177.96,-9.91 234.61,-5.78 277.19,-7.88"/>
<polygon fill="orange" stroke="orange" points="61.57,-181.69 63.36,-192.13 68.48,-182.85 61.57,-181.69"/>
</a>
</g>
<text xml:space="preserve" text-anchor="start" x="164.88" y="-43.75" font-family="FreeSans" font-size="10.00" fill="grey">&lt; TIterator &gt;</text>
</g>
</g>
</svg>

<g id="navigator" transform="translate(0 0)" fill="#404254">
  <rect fill="#f2f5e9" fill-opacity="0.5" stroke="#606060" stroke-width=".5" x="0" y="0" width="60" height="60"/>
  <use id="zoomplus" xlink:href="#zoomPlus" x="17" y="9" onmousedown="handleZoom(evt,'in')"/>
  <use id="zoomminus" xlink:href="#zoomMin" x="42" y="9" onmousedown="handleZoom(evt,'out')"/>
  <use id="reset" xlink:href="#resetDef" x="30" y="36" onmousedown="handleReset()"/>
   <use id="arrowup" xlink:href="#arrowUp" x="0" y="0" onmousedown="handlePan(0,-1)"/>
  <use id="arrowright" xlink:href="#arrowRight" x="0" y="0" onmousedown="handlePan(1,0)"/>
  <use id="arrowdown" xlink:href="#arrowDown" x="0" y="0" onmousedown="handlePan(0,1)"/>
  <use id="arrowleft" xlink:href="#arrowLeft" x="0" y="0" onmousedown="handlePan(-1,0)"/>
</g>
<svg viewBox="0 0 15 15" width="100%" height="30px" preserveAspectRatio="xMaxYMin meet">
 <g id="arrow_out" transform="scale(0.3 0.3)">
  <a xlink:href="structDGtal_1_1IteratorCirculatorTraits__inherit__graph_org.svg" target="_base">
   <rect id="button" ry="5" rx="5" y="6" x="6" height="38" width="38"
        fill="#f2f5e9" fill-opacity="0.5" stroke="#606060" stroke-width="1.0"/>
   <path id="arrow"
     d="M 11.500037,31.436501 C 11.940474,20.09759 22.043105,11.32322 32.158766,21.979434 L 37.068811,17.246167 C 37.068811,17.246167 37.088388,32 37.088388,32 L 22.160133,31.978069 C 22.160133,31.978069 26.997745,27.140456 26.997745,27.140456 C 18.528582,18.264221 13.291696,25.230495 11.500037,31.436501 z"
     style="fill:#404040;"/>
  </a>
 </g>
</svg>

<style type='text/css'>
<![CDATA[
[data-mouse-over-selected='false'] { opacity: 0.7; }
[data-mouse-over-selected='true']  { opacity: 1.0; }
]]>
</style>
<script type="application/ecmascript"><![CDATA[
document.addEventListener('DOMContentLoaded', (event) => {
  highlightEdges();
  highlightAdjacentNodes();
});
]]></script>
</svg>
