<?xml version="1.0" encoding="UTF-8" standalone="no"?>
<!DOCTYPE svg PUBLIC "-//W3C//DTD SVG 1.1//EN"
 "http://www.w3.org/Graphics/SVG/1.1/DTD/svg11.dtd">
<!-- Generated by graphviz version 7.0.1 (20221109.1506)
 -->
<!-- Title: DGtal::concepts::CDynamicVector&lt; T &gt; Pages: 1 -->
<svg width="162pt" height="214pt"
 viewBox="0.00 0.00 162.00 214.00" xmlns="http://www.w3.org/2000/svg" xmlns:xlink="http://www.w3.org/1999/xlink">
<g id="graph0" class="graph" transform="scale(1 1) rotate(0) translate(4 210)">
<title>DGtal::concepts::CDynamicVector&lt; T &gt;</title>
<!-- Node1 -->
<g id="node1" class="node">
<title>Node1</title>
<g id="a_node1"><a xlink:title="Aim: Represent any dynamic sized column vector having sparse or dense representation.">
<polygon fill="#999999" stroke="#666666" points="147,-30 7,-30 7,0 147,0 147,-30"/>
<text text-anchor="start" x="15" y="-18" font-family="FreeSans" font-size="10.00">DGtal::concepts::CDynamic</text>
<text text-anchor="middle" x="77" y="-7" font-family="FreeSans" font-size="10.00">Vector&lt; T &gt;</text>
</a>
</g>
</g>
<!-- Node2 -->
<g id="node2" class="node">
<title>Node2</title>
<g id="a_node2"><a xlink:href="structDGtal_1_1concepts_1_1CVector.html" target="_top" xlink:title="Aim: Represent any static or dynamic sized column vector having sparse or dense representation.">
<polygon fill="white" stroke="#666666" points="154,-85 0,-85 0,-66 154,-66 154,-85"/>
<text text-anchor="middle" x="77" y="-73" font-family="FreeSans" font-size="10.00">DGtal::concepts::CVector&lt; T &gt;</text>
</a>
</g>
</g>
<!-- Node2&#45;&gt;Node1 -->
<g id="edge1" class="edge">
<title>Node2&#45;&gt;Node1</title>
<path fill="none" stroke="#63b8ff" d="M77,-54.51C77,-46.49 77,-37.43 77,-30.11"/>
<polygon fill="#63b8ff" stroke="#63b8ff" points="73.5,-54.35 77,-64.35 80.5,-54.35 73.5,-54.35"/>
</g>
<!-- Node3 -->
<g id="node3" class="node">
<title>Node3</title>
<g id="a_node3"><a xlink:href="structDGtal_1_1concepts_1_1CVectorSpace.html" target="_top" xlink:title="Aim: Base concept for vector space structure.">
<polygon fill="white" stroke="#666666" points="142,-151 12,-151 12,-121 142,-121 142,-151"/>
<text text-anchor="start" x="20" y="-139" font-family="FreeSans" font-size="10.00">DGtal::concepts::CVector</text>
<text text-anchor="middle" x="77" y="-128" font-family="FreeSans" font-size="10.00">Space&lt; T &gt;</text>
</a>
</g>
</g>
<!-- Node3&#45;&gt;Node2 -->
<g id="edge2" class="edge">
<title>Node3&#45;&gt;Node2</title>
<path fill="none" stroke="#63b8ff" d="M77,-109.3C77,-100.65 77,-91.58 77,-85.18"/>
<polygon fill="#63b8ff" stroke="#63b8ff" points="73.5,-109.03 77,-119.03 80.5,-109.03 73.5,-109.03"/>
</g>
<!-- Node4 -->
<g id="node4" class="node">
<title>Node4</title>
<g id="a_node4"><a xlink:href="structboost_1_1Assignable.html" target="_top" xlink:title="Go to http://www.sgi.com/tech/stl/Assignable.html.">
<polygon fill="white" stroke="#666666" points="136.5,-206 17.5,-206 17.5,-187 136.5,-187 136.5,-206"/>
<text text-anchor="middle" x="77" y="-194" font-family="FreeSans" font-size="10.00">boost::Assignable&lt; T &gt;</text>
</a>
</g>
</g>
<!-- Node4&#45;&gt;Node3 -->
<g id="edge3" class="edge">
<title>Node4&#45;&gt;Node3</title>
<path fill="none" stroke="#63b8ff" d="M77,-175.51C77,-167.49 77,-158.43 77,-151.11"/>
<polygon fill="#63b8ff" stroke="#63b8ff" points="73.5,-175.35 77,-185.35 80.5,-175.35 73.5,-175.35"/>
</g>
</g>
</svg>
