<?xml version="1.0" encoding="UTF-8" standalone="no"?>
<!DOCTYPE svg PUBLIC "-//W3C//DTD SVG 1.1//EN"
 "http://www.w3.org/Graphics/SVG/1.1/DTD/svg11.dtd">
<!-- Generated by graphviz version 11.0.0 (20240428.1522)
 -->
<!-- Title: DGtal::concepts::CDrawableWithBoard3DTo2D&lt; T, S, KS &gt; Pages: 1 -->
<svg width="161pt" height="183pt"
 viewBox="0.00 0.00 160.50 182.75" xmlns="http://www.w3.org/2000/svg" xmlns:xlink="http://www.w3.org/1999/xlink">
<g id="graph0" class="graph" transform="scale(1 1) rotate(0) translate(4 178.75)">
<title>DGtal::concepts::CDrawableWithBoard3DTo2D&lt; T, S, KS &gt;</title>
<!-- Node1 -->
<g id="Node000001" class="node">
<title>Node1</title>
<g id="a_Node000001"><a xlink:title=" ">
<polygon fill="#999999" stroke="#666666" points="152.5,-30.5 0,-30.5 0,0 152.5,0 152.5,-30.5"/>
<text text-anchor="start" x="8" y="-17" font-family="FreeSans" font-size="10.00">DGtal::concepts::CDrawable</text>
<text text-anchor="middle" x="76.25" y="-5.75" font-family="FreeSans" font-size="10.00">WithBoard3DTo2D&lt; T, S, KS &gt;</text>
</a>
</g>
</g>
<!-- Node2 -->
<g id="Node000002" class="node">
<title>Node2</title>
<g id="a_Node000002"><a xlink:href="structDGtal_1_1concepts_1_1CDrawableWithDisplay3D.html" target="_top" xlink:title=" ">
<polygon fill="white" stroke="#666666" points="147.25,-97 5.25,-97 5.25,-66.5 147.25,-66.5 147.25,-97"/>
<text text-anchor="start" x="13.25" y="-83.5" font-family="FreeSans" font-size="10.00">DGtal::concepts::CDrawable</text>
<text text-anchor="middle" x="76.25" y="-72.25" font-family="FreeSans" font-size="10.00">WithDisplay3D&lt; T, S, KS &gt;</text>
</a>
</g>
</g>
<!-- Node2&#45;&gt;Node1 -->
<g id="edge1_Node000001_Node000002" class="edge">
<title>Node2&#45;&gt;Node1</title>
<g id="a_edge1_Node000001_Node000002"><a xlink:title=" ">
<path fill="none" stroke="#63b8ff" d="M76.25,-54.81C76.25,-46.64 76.25,-37.91 76.25,-30.83"/>
<polygon fill="#63b8ff" stroke="#63b8ff" points="72.75,-54.6 76.25,-64.6 79.75,-54.6 72.75,-54.6"/>
</a>
</g>
</g>
<!-- Node3 -->
<g id="Node000003" class="node">
<title>Node3</title>
<g id="a_Node000003"><a xlink:href="structDGtal_1_1concepts_1_1CDrawableWithDisplay3D.html" target="_top" xlink:title=" ">
<polygon fill="white" stroke="#666666" points="149.88,-174.75 2.62,-174.75 2.62,-144.25 149.88,-144.25 149.88,-174.75"/>
<text text-anchor="start" x="10.62" y="-161.25" font-family="FreeSans" font-size="10.00">DGtal::concepts::CDrawable</text>
<text text-anchor="middle" x="76.25" y="-150" font-family="FreeSans" font-size="10.00">WithDisplay3D&lt; T, Sp, KSp &gt;</text>
</a>
</g>
</g>
<!-- Node3&#45;&gt;Node2 -->
<g id="edge2_Node000002_Node000003" class="edge">
<title>Node3&#45;&gt;Node2</title>
<g id="a_edge2_Node000002_Node000003"><a xlink:title=" ">
<path fill="none" stroke="orange" stroke-dasharray="5,2" d="M76.25,-132.47C76.25,-120.71 76.25,-107.26 76.25,-97.31"/>
<polygon fill="orange" stroke="orange" points="72.75,-132.38 76.25,-142.38 79.75,-132.38 72.75,-132.38"/>
</a>
</g>
<text text-anchor="middle" x="105.12" y="-116.75" font-family="FreeSans" font-size="10.00" fill="grey"> &lt; T, S, KS &gt;</text>
</g>
</g>
</svg>
