<?xml version="1.0" encoding="UTF-8" standalone="no"?>
<!DOCTYPE svg PUBLIC "-//W3C//DTD SVG 1.1//EN"
 "http://www.w3.org/Graphics/SVG/1.1/DTD/svg11.dtd">
<!-- Generated by graphviz version 7.0.1 (20221109.1506)
 -->
<!-- Title: DGtal::UpdateImageData&lt; TImageType, TFunctor &gt; Pages: 1 -->
<svg width="180pt" height="148pt"
 viewBox="0.00 0.00 180.00 148.00" xmlns="http://www.w3.org/2000/svg" xmlns:xlink="http://www.w3.org/1999/xlink">
<g id="graph0" class="graph" transform="scale(1 1) rotate(0) translate(4 144)">
<title>DGtal::UpdateImageData&lt; TImageType, TFunctor &gt;</title>
<!-- Node1 -->
<g id="node1" class="node">
<title>Node1</title>
<g id="a_node1"><a xlink:title="class to modify the data of an given image and also the possibility to translate it (optional).">
<polygon fill="#999999" stroke="#666666" points="153,-30 19,-30 19,0 153,0 153,-30"/>
<text text-anchor="start" x="27" y="-18" font-family="FreeSans" font-size="10.00">DGtal::UpdateImageData</text>
<text text-anchor="middle" x="86" y="-7" font-family="FreeSans" font-size="10.00">&lt; TImageType, TFunctor &gt;</text>
</a>
</g>
</g>
<!-- Node2 -->
<g id="node2" class="node">
<title>Node2</title>
<g id="a_node2"><a xlink:href="structDGtal_1_1DrawWithViewer3DModifier.html" target="_top" xlink:title="Base class specifying the methods for classes which intend to modify a Viewer3D stream.">
<polygon fill="white" stroke="#666666" points="170.5,-85 1.5,-85 1.5,-66 170.5,-66 170.5,-85"/>
<text text-anchor="middle" x="86" y="-73" font-family="FreeSans" font-size="10.00">DGtal::DrawWithViewer3DModifier</text>
</a>
</g>
</g>
<!-- Node2&#45;&gt;Node1 -->
<g id="edge1" class="edge">
<title>Node2&#45;&gt;Node1</title>
<path fill="none" stroke="#63b8ff" d="M86,-54.51C86,-46.49 86,-37.43 86,-30.11"/>
<polygon fill="#63b8ff" stroke="#63b8ff" points="82.5,-54.35 86,-64.35 89.5,-54.35 82.5,-54.35"/>
</g>
<!-- Node3 -->
<g id="node3" class="node">
<title>Node3</title>
<g id="a_node3"><a xlink:href="structDGtal_1_1DrawWithDisplay3DModifier.html" target="_top" xlink:title="Base class specifying the methods for classes which intend to modify a Viewer3D stream.">
<polygon fill="white" stroke="#666666" points="172,-140 0,-140 0,-121 172,-121 172,-140"/>
<text text-anchor="middle" x="86" y="-128" font-family="FreeSans" font-size="10.00">DGtal::DrawWithDisplay3DModifier</text>
</a>
</g>
</g>
<!-- Node3&#45;&gt;Node2 -->
<g id="edge2" class="edge">
<title>Node3&#45;&gt;Node2</title>
<path fill="none" stroke="#63b8ff" d="M86,-109.35C86,-101.1 86,-91.97 86,-85.44"/>
<polygon fill="#63b8ff" stroke="#63b8ff" points="82.5,-109.23 86,-119.23 89.5,-109.23 82.5,-109.23"/>
</g>
</g>
</svg>
