<?xml version="1.0" encoding="UTF-8" standalone="no"?>
<!DOCTYPE svg PUBLIC "-//W3C//DTD SVG 1.1//EN"
 "http://www.w3.org/Graphics/SVG/1.1/DTD/svg11.dtd">
<!-- Generated by graphviz version 14.1.0 (20251206.1807)
 -->
<!-- Title: DGtal::detail::AffineGeometryInternalNumber&lt; TScalar, Robust &gt; Pages: 1 -->
<svg width="426pt" height="402pt"
 viewBox="0.00 0.00 426.00 402.00" xmlns="http://www.w3.org/2000/svg" xmlns:xlink="http://www.w3.org/1999/xlink">
<g id="graph0" class="graph" transform="scale(1 1) rotate(0) translate(4 397.5)">
<title>DGtal::detail::AffineGeometryInternalNumber&lt; TScalar, Robust &gt;</title>
<!-- Node1 -->
<g id="Node000001" class="node">
<title>Node1</title>
<g id="a_Node000001"><a xlink:title=" ">
<polygon fill="#999999" stroke="#666666" points="145,-225.12 0,-225.12 0,-183.38 145,-183.38 145,-225.12"/>
<text xml:space="preserve" text-anchor="start" x="8" y="-211.62" font-family="FreeSans" font-size="10.00">DGtal::detail::AffineGeometry</text>
<text xml:space="preserve" text-anchor="start" x="8" y="-200.38" font-family="FreeSans" font-size="10.00">InternalNumber&lt; TScalar,</text>
<text xml:space="preserve" text-anchor="middle" x="72.5" y="-189.12" font-family="FreeSans" font-size="10.00"> Robust &gt;</text>
</a>
</g>
</g>
<!-- Node2 -->
<g id="Node000002" class="node">
<title>Node2</title>
<g id="a_Node000002"><a xlink:href="structDGtal_1_1detail_1_1AffineGeometryInternalNumber_3_01double_00_01false_01_4.html" target="_top" xlink:title=" ">
<polygon fill="white" stroke="#666666" points="417.5,-393.5 261.25,-393.5 261.25,-363 417.5,-363 417.5,-393.5"/>
<text xml:space="preserve" text-anchor="start" x="269.25" y="-380" font-family="FreeSans" font-size="10.00">DGtal::detail::AffineGeometry</text>
<text xml:space="preserve" text-anchor="middle" x="339.38" y="-368.75" font-family="FreeSans" font-size="10.00">InternalNumber&lt; double, false &gt;</text>
</a>
</g>
</g>
<!-- Node1&#45;&gt;Node2 -->
<g id="edge1_Node000001_Node000002" class="edge">
<title>Node1&#45;&gt;Node2</title>
<g id="a_edge1_Node000001_Node000002"><a xlink:title=" ">
<path fill="none" stroke="orange" stroke-dasharray="5,2" d="M87.11,-235.38C101.66,-264.99 127.52,-308.58 163,-333.25 191.64,-353.17 228.42,-364.28 260.89,-370.47"/>
<polygon fill="orange" stroke="orange" points="90.37,-234.07 82.92,-226.53 84.04,-237.07 90.37,-234.07"/>
</a>
</g>
<text xml:space="preserve" text-anchor="start" x="166.38" y="-370.48" font-family="FreeSans" font-size="10.00" fill="grey">&lt; double, false &gt;</text>
</g>
<!-- Node3 -->
<g id="Node000003" class="node">
<title>Node3</title>
<g id="a_Node000003"><a xlink:href="structDGtal_1_1detail_1_1AffineGeometryInternalNumber_3_01double_00_01true_01_4.html" target="_top" xlink:title=" ">
<polygon fill="white" stroke="#666666" points="415.25,-344.5 263.5,-344.5 263.5,-314 415.25,-314 415.25,-344.5"/>
<text xml:space="preserve" text-anchor="start" x="271.5" y="-331" font-family="FreeSans" font-size="10.00">DGtal::detail::AffineGeometry</text>
<text xml:space="preserve" text-anchor="middle" x="339.38" y="-319.75" font-family="FreeSans" font-size="10.00">InternalNumber&lt; double, true &gt;</text>
</a>
</g>
</g>
<!-- Node1&#45;&gt;Node3 -->
<g id="edge2_Node000001_Node000003" class="edge">
<title>Node1&#45;&gt;Node3</title>
<g id="a_edge2_Node000001_Node000003"><a xlink:title=" ">
<path fill="none" stroke="orange" stroke-dasharray="5,2" d="M99.68,-233.37C116.3,-250.21 139.11,-270.51 163,-283.25 193.97,-299.76 231.23,-310.62 263.43,-317.61"/>
<polygon fill="orange" stroke="orange" points="102.55,-231.3 93.1,-226.52 97.51,-236.16 102.55,-231.3"/>
</a>
</g>
<text xml:space="preserve" text-anchor="start" x="168.62" y="-317.18" font-family="FreeSans" font-size="10.00" fill="grey">&lt; double, true &gt;</text>
</g>
<!-- Node4 -->
<g id="Node000004" class="node">
<title>Node4</title>
<g id="a_Node000004"><a xlink:href="structDGtal_1_1detail_1_1AffineGeometryInternalNumber_3_01float_00_01false_01_4.html" target="_top" xlink:title=" ">
<polygon fill="white" stroke="#666666" points="412.62,-295.5 266.12,-295.5 266.12,-265 412.62,-265 412.62,-295.5"/>
<text xml:space="preserve" text-anchor="start" x="274.12" y="-282" font-family="FreeSans" font-size="10.00">DGtal::detail::AffineGeometry</text>
<text xml:space="preserve" text-anchor="middle" x="339.38" y="-270.75" font-family="FreeSans" font-size="10.00">InternalNumber&lt; float, false &gt;</text>
</a>
</g>
</g>
<!-- Node1&#45;&gt;Node4 -->
<g id="edge3_Node000001_Node000004" class="edge">
<title>Node1&#45;&gt;Node4</title>
<g id="a_edge3_Node000001_Node000004"><a xlink:title=" ">
<path fill="none" stroke="orange" stroke-dasharray="5,2" d="M129.25,-229.82C140.29,-234.34 151.9,-238.73 163,-242.25 196.26,-252.81 233.98,-261.4 265.9,-267.73"/>
<polygon fill="orange" stroke="orange" points="130.84,-226.69 120.26,-226.05 128.13,-233.15 130.84,-226.69"/>
</a>
</g>
<text xml:space="preserve" text-anchor="start" x="171.25" y="-266.9" font-family="FreeSans" font-size="10.00" fill="grey">&lt; float, false &gt;</text>
</g>
<!-- Node5 -->
<g id="Node000005" class="node">
<title>Node5</title>
<g id="a_Node000005"><a xlink:href="structDGtal_1_1detail_1_1AffineGeometryInternalNumber_3_01float_00_01true_01_4.html" target="_top" xlink:title=" ">
<polygon fill="white" stroke="#666666" points="411.88,-246.5 266.88,-246.5 266.88,-216 411.88,-216 411.88,-246.5"/>
<text xml:space="preserve" text-anchor="start" x="274.88" y="-233" font-family="FreeSans" font-size="10.00">DGtal::detail::AffineGeometry</text>
<text xml:space="preserve" text-anchor="middle" x="339.38" y="-221.75" font-family="FreeSans" font-size="10.00">InternalNumber&lt; float, true &gt;</text>
</a>
</g>
</g>
<!-- Node1&#45;&gt;Node5 -->
<g id="edge4_Node000001_Node000005" class="edge">
<title>Node1&#45;&gt;Node5</title>
<g id="a_edge4_Node000001_Node000005"><a xlink:title=" ">
<path fill="none" stroke="orange" stroke-dasharray="5,2" d="M156.45,-212.71C191.79,-216.31 232.62,-220.47 266.64,-223.94"/>
<polygon fill="orange" stroke="orange" points="156.99,-209.24 146.68,-211.71 156.28,-216.21 156.99,-209.24"/>
</a>
</g>
<text xml:space="preserve" text-anchor="start" x="173.5" y="-225.71" font-family="FreeSans" font-size="10.00" fill="grey">&lt; float, true &gt;</text>
</g>
<!-- Node6 -->
<g id="Node000006" class="node">
<title>Node6</title>
<g id="a_Node000006"><a xlink:href="structDGtal_1_1detail_1_1AffineGeometryInternalNumber_3_01int32__t_00_01false_01_4.html" target="_top" xlink:title=" ">
<polygon fill="white" stroke="#666666" points="411.88,-198.12 266.88,-198.12 266.88,-156.38 411.88,-156.38 411.88,-198.12"/>
<text xml:space="preserve" text-anchor="start" x="274.88" y="-184.62" font-family="FreeSans" font-size="10.00">DGtal::detail::AffineGeometry</text>
<text xml:space="preserve" text-anchor="start" x="274.88" y="-173.38" font-family="FreeSans" font-size="10.00">InternalNumber&lt; int32_t,</text>
<text xml:space="preserve" text-anchor="middle" x="339.38" y="-162.12" font-family="FreeSans" font-size="10.00"> false &gt;</text>
</a>
</g>
</g>
<!-- Node1&#45;&gt;Node6 -->
<g id="edge5_Node000001_Node000006" class="edge">
<title>Node1&#45;&gt;Node6</title>
<g id="a_edge5_Node000001_Node000006"><a xlink:title=" ">
<path fill="none" stroke="orange" stroke-dasharray="5,2" d="M156.72,-193.69C158.83,-193.45 160.93,-193.22 163,-193 197.04,-189.33 234.86,-185.86 266.64,-183.11"/>
<polygon fill="orange" stroke="orange" points="156.32,-190.21 146.79,-194.83 157.12,-197.17 156.32,-190.21"/>
</a>
</g>
<text xml:space="preserve" text-anchor="start" x="166" y="-197.75" font-family="FreeSans" font-size="10.00" fill="grey">&lt; int32_t, false &gt;</text>
</g>
<!-- Node7 -->
<g id="Node000007" class="node">
<title>Node7</title>
<g id="a_Node000007"><a xlink:href="structDGtal_1_1detail_1_1AffineGeometryInternalNumber_3_01int32__t_00_01true_01_4.html" target="_top" xlink:title=" ">
<polygon fill="white" stroke="#666666" points="415.62,-138.5 263.12,-138.5 263.12,-108 415.62,-108 415.62,-138.5"/>
<text xml:space="preserve" text-anchor="start" x="271.12" y="-125" font-family="FreeSans" font-size="10.00">DGtal::detail::AffineGeometry</text>
<text xml:space="preserve" text-anchor="middle" x="339.38" y="-113.75" font-family="FreeSans" font-size="10.00">InternalNumber&lt; int32_t, true &gt;</text>
</a>
</g>
</g>
<!-- Node1&#45;&gt;Node7 -->
<g id="edge6_Node000001_Node000007" class="edge">
<title>Node1&#45;&gt;Node7</title>
<g id="a_edge6_Node000001_Node000007"><a xlink:title=" ">
<path fill="none" stroke="orange" stroke-dasharray="5,2" d="M126.29,-178.47C138.19,-173.24 150.89,-168.09 163,-164 195.13,-153.16 231.53,-144.18 262.81,-137.44"/>
<polygon fill="orange" stroke="orange" points="125.13,-175.15 117.45,-182.45 128,-181.54 125.13,-175.15"/>
</a>
</g>
<text xml:space="preserve" text-anchor="start" x="168.25" y="-168.75" font-family="FreeSans" font-size="10.00" fill="grey">&lt; int32_t, true &gt;</text>
</g>
<!-- Node8 -->
<g id="Node000008" class="node">
<title>Node8</title>
<g id="a_Node000008"><a xlink:href="structDGtal_1_1detail_1_1AffineGeometryInternalNumber_3_01int64__t_00_01false_01_4.html" target="_top" xlink:title=" ">
<polygon fill="white" stroke="#666666" points="411.88,-90.12 266.88,-90.12 266.88,-48.38 411.88,-48.38 411.88,-90.12"/>
<text xml:space="preserve" text-anchor="start" x="274.88" y="-76.62" font-family="FreeSans" font-size="10.00">DGtal::detail::AffineGeometry</text>
<text xml:space="preserve" text-anchor="start" x="274.88" y="-65.38" font-family="FreeSans" font-size="10.00">InternalNumber&lt; int64_t,</text>
<text xml:space="preserve" text-anchor="middle" x="339.38" y="-54.12" font-family="FreeSans" font-size="10.00"> false &gt;</text>
</a>
</g>
</g>
<!-- Node1&#45;&gt;Node8 -->
<g id="edge7_Node000001_Node000008" class="edge">
<title>Node1&#45;&gt;Node8</title>
<g id="a_edge7_Node000001_Node000008"><a xlink:title=" ">
<path fill="none" stroke="orange" stroke-dasharray="5,2" d="M98.99,-174.89C115.64,-157.33 138.73,-135.82 163,-122 194.91,-103.83 233.73,-91.31 266.72,-83.05"/>
<polygon fill="orange" stroke="orange" points="96.6,-172.31 92.38,-182.03 101.74,-177.07 96.6,-172.31"/>
</a>
</g>
<text xml:space="preserve" text-anchor="start" x="166" y="-126.75" font-family="FreeSans" font-size="10.00" fill="grey">&lt; int64_t, false &gt;</text>
</g>
<!-- Node9 -->
<g id="Node000009" class="node">
<title>Node9</title>
<g id="a_Node000009"><a xlink:href="structDGtal_1_1detail_1_1AffineGeometryInternalNumber_3_01int64__t_00_01true_01_4.html" target="_top" xlink:title=" ">
<polygon fill="white" stroke="#666666" points="415.62,-30.5 263.12,-30.5 263.12,0 415.62,0 415.62,-30.5"/>
<text xml:space="preserve" text-anchor="start" x="271.12" y="-17" font-family="FreeSans" font-size="10.00">DGtal::detail::AffineGeometry</text>
<text xml:space="preserve" text-anchor="middle" x="339.38" y="-5.75" font-family="FreeSans" font-size="10.00">InternalNumber&lt; int64_t, true &gt;</text>
</a>
</g>
</g>
<!-- Node1&#45;&gt;Node9 -->
<g id="edge8_Node000001_Node000009" class="edge">
<title>Node1&#45;&gt;Node9</title>
<g id="a_edge8_Node000001_Node000009"><a xlink:title=" ">
<path fill="none" stroke="orange" stroke-dasharray="5,2" d="M86.56,-172.9C100.94,-142.13 126.89,-95.99 163,-69 191.95,-47.36 229.7,-34.35 262.76,-26.56"/>
<polygon fill="orange" stroke="orange" points="83.51,-171.16 82.59,-181.71 89.89,-174.04 83.51,-171.16"/>
</a>
</g>
<text xml:space="preserve" text-anchor="start" x="168.25" y="-73.75" font-family="FreeSans" font-size="10.00" fill="grey">&lt; int64_t, true &gt;</text>
</g>
</g>
</svg>
