<?xml version="1.0" encoding="UTF-8" standalone="no"?>
<!DOCTYPE svg PUBLIC "-//W3C//DTD SVG 1.1//EN"
 "http://www.w3.org/Graphics/SVG/1.1/DTD/svg11.dtd">
<!-- Generated by graphviz version 11.0.0 (20240428.1522)
 -->
<!-- Title: DGtal::concepts::CConstBidirectionalRange&lt; T &gt; Pages: 1 -->
<svg width="785pt" height="88pt"
 viewBox="0.00 0.00 784.50 87.50" xmlns="http://www.w3.org/2000/svg" xmlns:xlink="http://www.w3.org/1999/xlink">
<g id="graph0" class="graph" transform="scale(1 1) rotate(0) translate(4 83.5)">
<title>DGtal::concepts::CConstBidirectionalRange&lt; T &gt;</title>
<!-- Node1 -->
<g id="Node000001" class="node">
<title>Node1</title>
<g id="a_Node000001"><a xlink:title="Aim: Defines the concept describing a bidirectional const range.">
<polygon fill="#999999" stroke="#666666" points="370.25,-54.5 190,-54.5 190,-24 370.25,-24 370.25,-54.5"/>
<text text-anchor="start" x="198" y="-41" font-family="FreeSans" font-size="10.00">DGtal::concepts::CConstBidirectional</text>
<text text-anchor="middle" x="280.12" y="-29.75" font-family="FreeSans" font-size="10.00">Range&lt; T &gt;</text>
</a>
</g>
</g>
<!-- Node3 -->
<g id="Node000003" class="node">
<title>Node3</title>
<g id="a_Node000003"><a xlink:href="structDGtal_1_1concepts_1_1CBidirectionalRange.html" target="_top" xlink:title="Aim: Defines the concept describing a bidirectional range.">
<polygon fill="white" stroke="#666666" points="573.38,-79.5 419.38,-79.5 419.38,-49 573.38,-49 573.38,-79.5"/>
<text text-anchor="start" x="427.38" y="-66" font-family="FreeSans" font-size="10.00">DGtal::concepts::CBidirectional</text>
<text text-anchor="middle" x="496.38" y="-54.75" font-family="FreeSans" font-size="10.00">Range&lt; T &gt;</text>
</a>
</g>
</g>
<!-- Node1&#45;&gt;Node3 -->
<g id="edge2_Node000001_Node000003" class="edge">
<title>Node1&#45;&gt;Node3</title>
<g id="a_edge2_Node000001_Node000003"><a xlink:title=" ">
<path fill="none" stroke="#63b8ff" d="M382.1,-51.03C394.52,-52.48 407.06,-53.94 419.03,-55.34"/>
<polygon fill="#63b8ff" stroke="#63b8ff" points="382.59,-47.57 372.25,-49.88 381.78,-54.52 382.59,-47.57"/>
</a>
</g>
</g>
<!-- Node5 -->
<g id="Node000005" class="node">
<title>Node5</title>
<g id="a_Node000005"><a xlink:href="structDGtal_1_1concepts_1_1CConstBidirectionalRangeFromPoint.html" target="_top" xlink:title="Aim: refined concept of const bidirectional range with a begin() method from a point.">
<polygon fill="white" stroke="#666666" points="586.5,-30.5 406.25,-30.5 406.25,0 586.5,0 586.5,-30.5"/>
<text text-anchor="start" x="414.25" y="-17" font-family="FreeSans" font-size="10.00">DGtal::concepts::CConstBidirectional</text>
<text text-anchor="middle" x="496.38" y="-5.75" font-family="FreeSans" font-size="10.00">RangeFromPoint&lt; T &gt;</text>
</a>
</g>
</g>
<!-- Node1&#45;&gt;Node5 -->
<g id="edge4_Node000001_Node000005" class="edge">
<title>Node1&#45;&gt;Node5</title>
<g id="a_edge4_Node000001_Node000005"><a xlink:title=" ">
<path fill="none" stroke="#63b8ff" d="M381.94,-27.96C389.9,-27.07 397.9,-26.17 405.77,-25.29"/>
<polygon fill="#63b8ff" stroke="#63b8ff" points="381.8,-24.45 372.25,-29.04 382.58,-31.41 381.8,-24.45"/>
</a>
</g>
</g>
<!-- Node2 -->
<g id="Node000002" class="node">
<title>Node2</title>
<g id="a_Node000002"><a xlink:href="structDGtal_1_1concepts_1_1CConstSinglePassRange.html" target="_top" xlink:title="Aim: Defines the concept describing a const single pass range.">
<polygon fill="white" stroke="#666666" points="154,-54.5 0,-54.5 0,-24 154,-24 154,-54.5"/>
<text text-anchor="start" x="8" y="-41" font-family="FreeSans" font-size="10.00">DGtal::concepts::CConstSingle</text>
<text text-anchor="middle" x="77" y="-29.75" font-family="FreeSans" font-size="10.00">PassRange&lt; T &gt;</text>
</a>
</g>
</g>
<!-- Node2&#45;&gt;Node1 -->
<g id="edge1_Node000001_Node000002" class="edge">
<title>Node2&#45;&gt;Node1</title>
<g id="a_edge1_Node000001_Node000002"><a xlink:title=" ">
<path fill="none" stroke="#63b8ff" d="M165.82,-39.25C173.74,-39.25 181.77,-39.25 189.7,-39.25"/>
<polygon fill="#63b8ff" stroke="#63b8ff" points="165.84,-35.75 155.84,-39.25 165.84,-42.75 165.84,-35.75"/>
</a>
</g>
</g>
<!-- Node4 -->
<g id="Node000004" class="node">
<title>Node4</title>
<g id="a_Node000004"><a xlink:href="structDGtal_1_1concepts_1_1CBidirectionalRangeFromPoint.html" target="_top" xlink:title="Aim: refined concept of single pass range with a begin() method from a point.">
<polygon fill="white" stroke="#666666" points="776.5,-54.5 622.5,-54.5 622.5,-24 776.5,-24 776.5,-54.5"/>
<text text-anchor="start" x="630.5" y="-41" font-family="FreeSans" font-size="10.00">DGtal::concepts::CBidirectional</text>
<text text-anchor="middle" x="699.5" y="-29.75" font-family="FreeSans" font-size="10.00">RangeFromPoint&lt; T &gt;</text>
</a>
</g>
</g>
<!-- Node3&#45;&gt;Node4 -->
<g id="edge3_Node000003_Node000004" class="edge">
<title>Node3&#45;&gt;Node4</title>
<g id="a_edge3_Node000003_Node000004"><a xlink:title=" ">
<path fill="none" stroke="#63b8ff" d="M584.99,-53.36C597.39,-51.82 610.06,-50.24 622.23,-48.73"/>
<polygon fill="#63b8ff" stroke="#63b8ff" points="584.69,-49.87 575.2,-54.58 585.56,-56.82 584.69,-49.87"/>
</a>
</g>
</g>
<!-- Node5&#45;&gt;Node4 -->
<g id="edge5_Node000005_Node000004" class="edge">
<title>Node5&#45;&gt;Node4</title>
<g id="a_edge5_Node000005_Node000004"><a xlink:title=" ">
<path fill="none" stroke="#63b8ff" d="M597.92,-27.25C606.11,-28.23 614.31,-29.2 622.29,-30.16"/>
<polygon fill="#63b8ff" stroke="#63b8ff" points="598.61,-23.81 588.27,-26.1 597.78,-30.76 598.61,-23.81"/>
</a>
</g>
</g>
</g>
</svg>
