<?xml version="1.0" encoding="UTF-8" standalone="no"?>
<!DOCTYPE svg PUBLIC "-//W3C//DTD SVG 1.1//EN"
 "http://www.w3.org/Graphics/SVG/1.1/DTD/svg11.dtd">
<!-- Generated by graphviz version 7.0.1 (20221109.1506)
 -->
<!-- Title: DGtal::concepts::CPrimitiveComputer&lt; T &gt; Pages: 1 -->
<svg width="705pt" height="101pt"
 viewBox="0.00 0.00 705.00 101.00" xmlns="http://www.w3.org/2000/svg" xmlns:xlink="http://www.w3.org/1999/xlink">
<g id="graph0" class="graph" transform="scale(1 1) rotate(0) translate(4 97)">
<title>DGtal::concepts::CPrimitiveComputer&lt; T &gt;</title>
<!-- Node1 -->
<g id="node1" class="node">
<title>Node1</title>
<g id="a_node1"><a xlink:title="Aim: Defines the concept describing an object that computes some primitive from input points,...">
<polygon fill="#999999" stroke="#666666" points="336,-61.5 196,-61.5 196,-31.5 336,-31.5 336,-61.5"/>
<text text-anchor="start" x="204" y="-49.5" font-family="FreeSans" font-size="10.00">DGtal::concepts::CPrimitive</text>
<text text-anchor="middle" x="266" y="-38.5" font-family="FreeSans" font-size="10.00">Computer&lt; T &gt;</text>
</a>
</g>
</g>
<!-- Node5 -->
<g id="node5" class="node">
<title>Node5</title>
<g id="a_node5"><a xlink:href="structDGtal_1_1concepts_1_1CIncrementalPrimitiveComputer.html" target="_top" xlink:title="Aim: Defines the concept describing an object that computes some primitive from input points given on...">
<polygon fill="white" stroke="#666666" points="524,-61.5 372,-61.5 372,-31.5 524,-31.5 524,-61.5"/>
<text text-anchor="start" x="380" y="-49.5" font-family="FreeSans" font-size="10.00">DGtal::concepts::CIncremental</text>
<text text-anchor="middle" x="448" y="-38.5" font-family="FreeSans" font-size="10.00">PrimitiveComputer&lt; T &gt;</text>
</a>
</g>
</g>
<!-- Node1&#45;&gt;Node5 -->
<g id="edge4" class="edge">
<title>Node1&#45;&gt;Node5</title>
<path fill="none" stroke="#63b8ff" d="M347.59,-46.5C355.62,-46.5 363.75,-46.5 371.72,-46.5"/>
<polygon fill="#63b8ff" stroke="#63b8ff" points="347.85,-43 337.85,-46.5 347.85,-50 347.85,-43"/>
</g>
<!-- Node2 -->
<g id="node2" class="node">
<title>Node2</title>
<g id="a_node2"><a xlink:href="structboost_1_1DefaultConstructible.html" target="_top" xlink:title="Go to http://www.sgi.com/tech/stl/DefaultConstructible.html.">
<polygon fill="white" stroke="#666666" points="160,-93 0,-93 0,-74 160,-74 160,-93"/>
<text text-anchor="middle" x="80" y="-81" font-family="FreeSans" font-size="10.00">boost::DefaultConstructible&lt; T &gt;</text>
</a>
</g>
</g>
<!-- Node2&#45;&gt;Node1 -->
<g id="edge1" class="edge">
<title>Node2&#45;&gt;Node1</title>
<path fill="none" stroke="#63b8ff" d="M141.46,-71.34C158.86,-67.84 177.96,-64 195.84,-60.41"/>
<polygon fill="#63b8ff" stroke="#63b8ff" points="140.91,-67.88 131.79,-73.29 142.29,-74.75 140.91,-67.88"/>
</g>
<!-- Node3 -->
<g id="node3" class="node">
<title>Node3</title>
<g id="a_node3"><a xlink:href="structboost_1_1CopyConstructible.html" target="_top" xlink:title="Go to http://www.sgi.com/tech/stl/CopyConstructible.html.">
<polygon fill="white" stroke="#666666" points="156,-56 4,-56 4,-37 156,-37 156,-56"/>
<text text-anchor="middle" x="80" y="-44" font-family="FreeSans" font-size="10.00">boost::CopyConstructible&lt; T &gt;</text>
</a>
</g>
</g>
<!-- Node3&#45;&gt;Node1 -->
<g id="edge2" class="edge">
<title>Node3&#45;&gt;Node1</title>
<path fill="none" stroke="#63b8ff" d="M167.73,-46.5C177.1,-46.5 186.54,-46.5 195.66,-46.5"/>
<polygon fill="#63b8ff" stroke="#63b8ff" points="167.88,-43 157.88,-46.5 167.88,-50 167.88,-43"/>
</g>
<!-- Node4 -->
<g id="node4" class="node">
<title>Node4</title>
<g id="a_node4"><a xlink:href="structboost_1_1Assignable.html" target="_top" xlink:title="Go to http://www.sgi.com/tech/stl/Assignable.html.">
<polygon fill="white" stroke="#666666" points="139.5,-19 20.5,-19 20.5,0 139.5,0 139.5,-19"/>
<text text-anchor="middle" x="80" y="-7" font-family="FreeSans" font-size="10.00">boost::Assignable&lt; T &gt;</text>
</a>
</g>
</g>
<!-- Node4&#45;&gt;Node1 -->
<g id="edge3" class="edge">
<title>Node4&#45;&gt;Node1</title>
<path fill="none" stroke="#63b8ff" d="M141.46,-21.66C158.86,-25.16 177.96,-29 195.84,-32.59"/>
<polygon fill="#63b8ff" stroke="#63b8ff" points="142.29,-18.25 131.79,-19.71 140.91,-25.12 142.29,-18.25"/>
</g>
<!-- Node6 -->
<g id="node6" class="node">
<title>Node6</title>
<g id="a_node6"><a xlink:href="structDGtal_1_1concepts_1_1CAdditivePrimitiveComputer.html" target="_top" xlink:title="Aim: Defines the concept describing an object that computes some primitive from input points given gr...">
<polygon fill="white" stroke="#666666" points="697,-61.5 560,-61.5 560,-31.5 697,-31.5 697,-61.5"/>
<text text-anchor="start" x="568" y="-49.5" font-family="FreeSans" font-size="10.00">DGtal::concepts::CAdditive</text>
<text text-anchor="middle" x="628.5" y="-38.5" font-family="FreeSans" font-size="10.00">PrimitiveComputer&lt; T &gt;</text>
</a>
</g>
</g>
<!-- Node5&#45;&gt;Node6 -->
<g id="edge5" class="edge">
<title>Node5&#45;&gt;Node6</title>
<path fill="none" stroke="#63b8ff" d="M535.76,-46.5C543.8,-46.5 551.86,-46.5 559.69,-46.5"/>
<polygon fill="#63b8ff" stroke="#63b8ff" points="535.95,-43 525.95,-46.5 535.95,-50 535.95,-43"/>
</g>
</g>
</svg>
