<?xml version="1.0" encoding="UTF-8" standalone="no"?>
<!DOCTYPE svg PUBLIC "-//W3C//DTD SVG 1.1//EN"
 "http://www.w3.org/Graphics/SVG/1.1/DTD/svg11.dtd">
<!-- Generated by graphviz version 13.1.2 (20250808.2320)
 -->
<!-- Title: DGtal::concepts::CVector&lt; T &gt; Pages: 1 -->
<svg width="698pt" height="125pt"
 viewBox="0.00 0.00 698.00 125.00" xmlns="http://www.w3.org/2000/svg" xmlns:xlink="http://www.w3.org/1999/xlink">
<g id="graph0" class="graph" transform="scale(1 1) rotate(0) translate(4 120.88)">
<title>DGtal::concepts::CVector&lt; T &gt;</title>
<!-- Node1 -->
<g id="Node000001" class="node">
<title>Node1</title>
<g id="a_Node000001"><a xlink:title="Aim: Represent any static or dynamic sized column vector having sparse or dense representation.">
<polygon fill="#999999" stroke="#666666" points="472.5,-73.88 319.25,-73.88 319.25,-54.62 472.5,-54.62 472.5,-73.88"/>
<text xml:space="preserve" text-anchor="middle" x="395.88" y="-60.38" font-family="FreeSans" font-size="10.00">DGtal::concepts::CVector&lt; T &gt;</text>
</a>
</g>
</g>
<!-- Node4 -->
<g id="Node000004" class="node">
<title>Node4</title>
<g id="a_Node000004"><a xlink:href="structDGtal_1_1concepts_1_1CDenseVector.html" target="_top" xlink:title="Aim: Represent any dynamic or static sized matrix having dense representation.">
<polygon fill="white" stroke="#666666" points="690.25,-116.88 508.5,-116.88 508.5,-97.62 690.25,-97.62 690.25,-116.88"/>
<text xml:space="preserve" text-anchor="middle" x="599.38" y="-103.38" font-family="FreeSans" font-size="10.00">DGtal::concepts::CDenseVector&lt; T &gt;</text>
</a>
</g>
</g>
<!-- Node1&#45;&gt;Node4 -->
<g id="edge3_Node000001_Node000004" class="edge">
<title>Node1&#45;&gt;Node4</title>
<g id="a_edge3_Node000001_Node000004"><a xlink:title=" ">
<path fill="none" stroke="#63b8ff" d="M454.67,-76.72C471.98,-80.44 491.01,-84.52 508.5,-88.25 522.23,-91.18 537.14,-94.34 550.79,-97.22"/>
<polygon fill="#63b8ff" stroke="#63b8ff" points="455.57,-73.33 445.05,-74.65 454.09,-80.17 455.57,-73.33"/>
</a>
</g>
</g>
<!-- Node5 -->
<g id="Node000005" class="node">
<title>Node5</title>
<g id="a_Node000005"><a xlink:href="structDGtal_1_1concepts_1_1CDynamicVector.html" target="_top" xlink:title="Aim: Represent any dynamic sized column vector having sparse or dense representation.">
<polygon fill="white" stroke="#666666" points="669.25,-79.5 529.5,-79.5 529.5,-49 669.25,-49 669.25,-79.5"/>
<text xml:space="preserve" text-anchor="start" x="537.5" y="-66" font-family="FreeSans" font-size="10.00">DGtal::concepts::CDynamic</text>
<text xml:space="preserve" text-anchor="middle" x="599.38" y="-54.75" font-family="FreeSans" font-size="10.00">Vector&lt; T &gt;</text>
</a>
</g>
</g>
<!-- Node1&#45;&gt;Node5 -->
<g id="edge4_Node000001_Node000005" class="edge">
<title>Node1&#45;&gt;Node5</title>
<g id="a_edge4_Node000001_Node000005"><a xlink:title=" ">
<path fill="none" stroke="#63b8ff" d="M484.18,-64.25C499.23,-64.25 514.69,-64.25 529.19,-64.25"/>
<polygon fill="#63b8ff" stroke="#63b8ff" points="484.28,-60.75 474.28,-64.25 484.28,-67.75 484.28,-60.75"/>
</a>
</g>
</g>
<!-- Node6 -->
<g id="Node000006" class="node">
<title>Node6</title>
<g id="a_Node000006"><a xlink:href="structDGtal_1_1concepts_1_1CStaticVector.html" target="_top" xlink:title="Aim: Represent any static sized column vector having sparse or dense representation.">
<polygon fill="white" stroke="#666666" points="662.5,-30.5 536.25,-30.5 536.25,0 662.5,0 662.5,-30.5"/>
<text xml:space="preserve" text-anchor="start" x="544.25" y="-17" font-family="FreeSans" font-size="10.00">DGtal::concepts::CStatic</text>
<text xml:space="preserve" text-anchor="middle" x="599.38" y="-5.75" font-family="FreeSans" font-size="10.00">Vector&lt; T &gt;</text>
</a>
</g>
</g>
<!-- Node1&#45;&gt;Node6 -->
<g id="edge5_Node000001_Node000006" class="edge">
<title>Node1&#45;&gt;Node6</title>
<g id="a_edge5_Node000001_Node000006"><a xlink:title=" ">
<path fill="none" stroke="#63b8ff" d="M449.14,-51.54C475.73,-45.07 508.23,-37.17 536.11,-30.39"/>
<polygon fill="#63b8ff" stroke="#63b8ff" points="448.5,-48.09 439.61,-53.86 450.15,-54.9 448.5,-48.09"/>
</a>
</g>
</g>
<!-- Node2 -->
<g id="Node000002" class="node">
<title>Node2</title>
<g id="a_Node000002"><a xlink:href="structDGtal_1_1concepts_1_1CVectorSpace.html" target="_top" xlink:title="Aim: Base concept for vector space structure.">
<polygon fill="white" stroke="#666666" points="283.25,-79.5 154,-79.5 154,-49 283.25,-49 283.25,-79.5"/>
<text xml:space="preserve" text-anchor="start" x="162" y="-66" font-family="FreeSans" font-size="10.00">DGtal::concepts::CVector</text>
<text xml:space="preserve" text-anchor="middle" x="218.62" y="-54.75" font-family="FreeSans" font-size="10.00">Space&lt; T &gt;</text>
</a>
</g>
</g>
<!-- Node2&#45;&gt;Node1 -->
<g id="edge1_Node000001_Node000002" class="edge">
<title>Node2&#45;&gt;Node1</title>
<g id="a_edge1_Node000001_Node000002"><a xlink:title=" ">
<path fill="none" stroke="#63b8ff" d="M294.64,-64.25C302.69,-64.25 310.88,-64.25 318.94,-64.25"/>
<polygon fill="#63b8ff" stroke="#63b8ff" points="294.9,-60.75 284.9,-64.25 294.9,-67.75 294.9,-60.75"/>
</a>
</g>
</g>
<!-- Node3 -->
<g id="Node000003" class="node">
<title>Node3</title>
<g id="a_Node000003"><a xlink:href="structboost_1_1Assignable.html" target="_top" xlink:title="Go to http://www.sgi.com/tech/stl/Assignable.html.">
<polygon fill="white" stroke="#666666" points="118,-73.88 0,-73.88 0,-54.62 118,-54.62 118,-73.88"/>
<text xml:space="preserve" text-anchor="middle" x="59" y="-60.38" font-family="FreeSans" font-size="10.00">boost::Assignable&lt; T &gt;</text>
</a>
</g>
</g>
<!-- Node3&#45;&gt;Node2 -->
<g id="edge2_Node000002_Node000003" class="edge">
<title>Node3&#45;&gt;Node2</title>
<g id="a_edge2_Node000002_Node000003"><a xlink:title=" ">
<path fill="none" stroke="#63b8ff" d="M129.72,-64.25C137.64,-64.25 145.68,-64.25 153.52,-64.25"/>
<polygon fill="#63b8ff" stroke="#63b8ff" points="129.76,-60.75 119.76,-64.25 129.76,-67.75 129.76,-60.75"/>
</a>
</g>
</g>
</g>
</svg>
