<?xml version="1.0" encoding="UTF-8" standalone="no"?>
<!DOCTYPE svg PUBLIC "-//W3C//DTD SVG 1.1//EN"
 "http://www.w3.org/Graphics/SVG/1.1/DTD/svg11.dtd">
<!-- Generated by graphviz version 7.0.1 (20221109.1506)
 -->
<!-- Title: LibBoard::Line Pages: 1 -->
<svg width="97pt" height="137pt"
 viewBox="0.00 0.00 97.00 137.00" xmlns="http://www.w3.org/2000/svg" xmlns:xlink="http://www.w3.org/1999/xlink">
<g id="graph0" class="graph" transform="scale(1 1) rotate(0) translate(4 133)">
<title>LibBoard::Line</title>
<!-- Node1 -->
<g id="node1" class="node">
<title>Node1</title>
<g id="a_node1"><a xlink:title="A line between two points.">
<polygon fill="#999999" stroke="#666666" points="84,-74 5,-74 5,-55 84,-55 84,-74"/>
<text text-anchor="middle" x="44.5" y="-62" font-family="FreeSans" font-size="10.00">LibBoard::Line</text>
</a>
</g>
</g>
<!-- Node3 -->
<g id="node3" class="node">
<title>Node3</title>
<g id="a_node3"><a xlink:href="structLibBoard_1_1Arrow.html" target="_top" xlink:title="A line between two points with an arrow at one extremity.">
<polygon fill="white" stroke="#666666" points="87.5,-19 1.5,-19 1.5,0 87.5,0 87.5,-19"/>
<text text-anchor="middle" x="44.5" y="-7" font-family="FreeSans" font-size="10.00">LibBoard::Arrow</text>
</a>
</g>
</g>
<!-- Node1&#45;&gt;Node3 -->
<g id="edge2" class="edge">
<title>Node1&#45;&gt;Node3</title>
<path fill="none" stroke="#63b8ff" d="M44.5,-43.35C44.5,-35.1 44.5,-25.97 44.5,-19.44"/>
<polygon fill="#63b8ff" stroke="#63b8ff" points="41,-43.23 44.5,-53.23 48,-43.23 41,-43.23"/>
</g>
<!-- Node2 -->
<g id="node2" class="node">
<title>Node2</title>
<g id="a_node2"><a xlink:href="structLibBoard_1_1Shape.html" target="_top" xlink:title="Abstract structure for a 2D shape.">
<polygon fill="white" stroke="#666666" points="89,-129 0,-129 0,-110 89,-110 89,-129"/>
<text text-anchor="middle" x="44.5" y="-117" font-family="FreeSans" font-size="10.00">LibBoard::Shape</text>
</a>
</g>
</g>
<!-- Node2&#45;&gt;Node1 -->
<g id="edge1" class="edge">
<title>Node2&#45;&gt;Node1</title>
<path fill="none" stroke="#63b8ff" d="M44.5,-98.35C44.5,-90.1 44.5,-80.97 44.5,-74.44"/>
<polygon fill="#63b8ff" stroke="#63b8ff" points="41,-98.23 44.5,-108.23 48,-98.23 41,-98.23"/>
</g>
</g>
</svg>
