<?xml version="1.0" encoding="UTF-8" standalone="no"?>
<!DOCTYPE svg PUBLIC "-//W3C//DTD SVG 1.1//EN"
 "http://www.w3.org/Graphics/SVG/1.1/DTD/svg11.dtd">
<!-- Generated by graphviz version 11.0.0 (20240428.1522)
 -->
<!-- Title: DGtal::concepts::CConstImage&lt; I &gt; Pages: 1 -->
<svg width="1934pt" height="120pt"
 viewBox="0.00 0.00 1933.75 120.25" xmlns="http://www.w3.org/2000/svg" xmlns:xlink="http://www.w3.org/1999/xlink">
<g id="graph0" class="graph" transform="scale(1 1) rotate(0) translate(4 116.25)">
<title>DGtal::concepts::CConstImage&lt; I &gt;</title>
<!-- Node1 -->
<g id="Node000001" class="node">
<title>Node1</title>
<g id="a_Node000001"><a xlink:title="Aim: Defines the concept describing a read&#45;only image, which is a refinement of CPointFunctor.">
<polygon fill="#999999" stroke="#666666" points="1741,-66.25 1566,-66.25 1566,-47 1741,-47 1741,-66.25"/>
<text text-anchor="middle" x="1653.5" y="-52.75" font-family="FreeSans" font-size="10.00">DGtal::concepts::CConstImage&lt; I &gt;</text>
</a>
</g>
</g>
<!-- Node12 -->
<g id="Node000012" class="node">
<title>Node12</title>
<g id="a_Node000012"><a xlink:href="structDGtal_1_1concepts_1_1CImage.html" target="_top" xlink:title="Aim: Defines the concept describing a read/write image, having an output iterator.">
<polygon fill="white" stroke="#666666" points="1925.75,-66.25 1777,-66.25 1777,-47 1925.75,-47 1925.75,-66.25"/>
<text text-anchor="middle" x="1851.38" y="-52.75" font-family="FreeSans" font-size="10.00">DGtal::concepts::CImage&lt; I &gt;</text>
</a>
</g>
</g>
<!-- Node1&#45;&gt;Node12 -->
<g id="edge13_Node000001_Node000012" class="edge">
<title>Node1&#45;&gt;Node12</title>
<g id="a_edge13_Node000001_Node000012"><a xlink:title=" ">
<path fill="none" stroke="#63b8ff" d="M1752.62,-56.62C1760.67,-56.62 1768.71,-56.62 1776.54,-56.62"/>
<polygon fill="#63b8ff" stroke="#63b8ff" points="1752.78,-53.13 1742.78,-56.63 1752.78,-60.13 1752.78,-53.13"/>
</a>
</g>
</g>
<!-- Node2 -->
<g id="Node000002" class="node">
<title>Node2</title>
<g id="a_Node000002"><a xlink:href="structDGtal_1_1concepts_1_1CTrivialConstImage.html" target="_top" xlink:title="Aim: Defines the concept describing a read&#45;only image, which is a refinement of CPointFunctor.">
<polygon fill="white" stroke="#666666" points="1530,-71.88 1403,-71.88 1403,-41.38 1530,-41.38 1530,-71.88"/>
<text text-anchor="start" x="1411" y="-58.38" font-family="FreeSans" font-size="10.00">DGtal::concepts::CTrivial</text>
<text text-anchor="middle" x="1466.5" y="-47.12" font-family="FreeSans" font-size="10.00">ConstImage&lt; I &gt;</text>
</a>
</g>
</g>
<!-- Node2&#45;&gt;Node1 -->
<g id="edge1_Node000001_Node000002" class="edge">
<title>Node2&#45;&gt;Node1</title>
<g id="a_edge1_Node000001_Node000002"><a xlink:title=" ">
<path fill="none" stroke="#63b8ff" d="M1541.71,-56.62C1549.55,-56.62 1557.57,-56.62 1565.53,-56.62"/>
<polygon fill="#63b8ff" stroke="#63b8ff" points="1541.9,-53.13 1531.9,-56.63 1541.9,-60.13 1541.9,-53.13"/>
</a>
</g>
</g>
<!-- Node3 -->
<g id="Node000003" class="node">
<title>Node3</title>
<g id="a_Node000003"><a xlink:href="structDGtal_1_1concepts_1_1CPointFunctor.html" target="_top" xlink:title=" ">
<polygon fill="white" stroke="#666666" points="1367,-66.25 1189.75,-66.25 1189.75,-47 1367,-47 1367,-66.25"/>
<text text-anchor="middle" x="1278.38" y="-52.75" font-family="FreeSans" font-size="10.00">DGtal::concepts::CPointFunctor&lt; I &gt;</text>
</a>
</g>
</g>
<!-- Node3&#45;&gt;Node2 -->
<g id="edge2_Node000002_Node000003" class="edge">
<title>Node3&#45;&gt;Node2</title>
<g id="a_edge2_Node000002_Node000003"><a xlink:title=" ">
<path fill="none" stroke="#63b8ff" d="M1378.76,-56.62C1386.87,-56.62 1394.93,-56.62 1402.67,-56.62"/>
<polygon fill="#63b8ff" stroke="#63b8ff" points="1378.77,-53.13 1368.77,-56.63 1378.77,-60.13 1378.77,-53.13"/>
</a>
</g>
</g>
<!-- Node4 -->
<g id="Node000004" class="node">
<title>Node4</title>
<g id="a_Node000004"><a xlink:href="structDGtal_1_1concepts_1_1CUnaryFunctor.html" target="_top" xlink:title=" ">
<polygon fill="white" stroke="#666666" points="912.5,-95.88 752.5,-95.88 752.5,-65.38 912.5,-65.38 912.5,-95.88"/>
<text text-anchor="start" x="760.5" y="-82.38" font-family="FreeSans" font-size="10.00">DGtal::concepts::CUnaryFunctor</text>
<text text-anchor="middle" x="832.5" y="-71.12" font-family="FreeSans" font-size="10.00">&lt; I, I::Point, I::Value &gt;</text>
</a>
</g>
</g>
<!-- Node4&#45;&gt;Node3 -->
<g id="edge3_Node000003_Node000004" class="edge">
<title>Node4&#45;&gt;Node3</title>
<g id="a_edge3_Node000003_Node000004"><a xlink:title=" ">
<path fill="none" stroke="#63b8ff" d="M924.06,-75.73C1001.67,-71.53 1112.78,-65.52 1189.58,-61.37"/>
<polygon fill="#63b8ff" stroke="#63b8ff" points="924.16,-72.22 914.37,-76.25 924.54,-79.21 924.16,-72.22"/>
</a>
</g>
</g>
<!-- Node5 -->
<g id="Node000005" class="node">
<title>Node5</title>
<g id="a_Node000005"><a xlink:href="structboost_1_1Assignable.html" target="_top" xlink:title=" ">
<polygon fill="white" stroke="#666666" points="433.5,-112.25 318.5,-112.25 318.5,-93 433.5,-93 433.5,-112.25"/>
<text text-anchor="middle" x="376" y="-98.75" font-family="FreeSans" font-size="10.00">boost::Assignable&lt; I &gt;</text>
</a>
</g>
</g>
<!-- Node5&#45;&gt;Node4 -->
<g id="edge4_Node000004_Node000005" class="edge">
<title>Node5&#45;&gt;Node4</title>
<g id="a_edge4_Node000004_Node000005"><a xlink:title=" ">
<path fill="none" stroke="#63b8ff" d="M445.12,-99.47C517.05,-96.11 633.77,-90.62 734.5,-85.62 740.23,-85.34 746.14,-85.04 752.1,-84.74"/>
<polygon fill="#63b8ff" stroke="#63b8ff" points="445.3,-95.95 435.48,-99.92 445.63,-102.95 445.3,-95.95"/>
</a>
</g>
</g>
<!-- Node6 -->
<g id="Node000006" class="node">
<title>Node6</title>
<g id="a_Node000006"><a xlink:href="structboost_1_1Assignable.html" target="_top" xlink:title="Go to http://www.sgi.com/tech/stl/Assignable.html.">
<polygon fill="white" stroke="#666666" points="118,-92.25 0,-92.25 0,-73 118,-73 118,-92.25"/>
<text text-anchor="middle" x="59" y="-78.75" font-family="FreeSans" font-size="10.00">boost::Assignable&lt; T &gt;</text>
</a>
</g>
</g>
<!-- Node6&#45;&gt;Node5 -->
<g id="edge5_Node000005_Node000006" class="edge">
<title>Node6&#45;&gt;Node5</title>
<g id="a_edge5_Node000005_Node000006"><a xlink:title=" ">
<path fill="none" stroke="orange" stroke-dasharray="5,2" d="M129.53,-87.04C186.23,-90.64 265.33,-95.66 318.26,-99.02"/>
<polygon fill="orange" stroke="orange" points="129.86,-83.55 119.65,-86.41 129.41,-90.54 129.86,-83.55"/>
</a>
</g>
<text text-anchor="middle" x="149.88" y="-90.38" font-family="FreeSans" font-size="10.00" fill="grey"> &lt; I &gt;</text>
</g>
<!-- Node8 -->
<g id="Node000008" class="node">
<title>Node8</title>
<g id="a_Node000008"><a xlink:href="structboost_1_1Assignable.html" target="_top" xlink:title=" ">
<polygon fill="white" stroke="#666666" points="300.5,-71.25 181.75,-71.25 181.75,-52 300.5,-52 300.5,-71.25"/>
<text text-anchor="middle" x="241.12" y="-57.75" font-family="FreeSans" font-size="10.00">boost::Assignable&lt; X &gt;</text>
</a>
</g>
</g>
<!-- Node6&#45;&gt;Node8 -->
<g id="edge8_Node000008_Node000006" class="edge">
<title>Node6&#45;&gt;Node8</title>
<g id="a_edge8_Node000008_Node000006"><a xlink:title=" ">
<path fill="none" stroke="orange" stroke-dasharray="5,2" d="M119.97,-70.69C125.38,-69.82 130.78,-69.03 136,-68.38 150.65,-66.53 166.52,-65.18 181.36,-64.19"/>
<polygon fill="orange" stroke="orange" points="119.69,-67.18 110.42,-72.3 120.86,-74.09 119.69,-67.18"/>
</a>
</g>
<text text-anchor="middle" x="149.88" y="-69.38" font-family="FreeSans" font-size="10.00" fill="grey"> &lt; X &gt;</text>
</g>
<!-- Node7 -->
<g id="Node000007" class="node">
<title>Node7</title>
<g id="a_Node000007"><a xlink:href="structDGtal_1_1concepts_1_1CUnaryFunctor.html" target="_top" xlink:title="Aim: Defines a unary functor, which associates arguments to results.">
<polygon fill="white" stroke="#666666" points="611.5,-67.88 451.5,-67.88 451.5,-37.38 611.5,-37.38 611.5,-67.88"/>
<text text-anchor="start" x="459.5" y="-54.38" font-family="FreeSans" font-size="10.00">DGtal::concepts::CUnaryFunctor</text>
<text text-anchor="middle" x="531.5" y="-43.12" font-family="FreeSans" font-size="10.00">&lt; X, A, R &gt;</text>
</a>
</g>
</g>
<!-- Node7&#45;&gt;Node4 -->
<g id="edge6_Node000004_Node000007" class="edge">
<title>Node7&#45;&gt;Node4</title>
<g id="a_edge6_Node000004_Node000007"><a xlink:title=" ">
<path fill="none" stroke="orange" stroke-dasharray="5,2" d="M623.23,-61.12C664.3,-64.97 712.42,-69.47 752.05,-73.18"/>
<polygon fill="orange" stroke="orange" points="623.63,-57.64 613.35,-60.2 622.98,-64.61 623.63,-57.64"/>
</a>
</g>
<text text-anchor="middle" x="682" y="-72.38" font-family="FreeSans" font-size="10.00" fill="grey"> &lt; I, I::Point, I::Value &gt;</text>
</g>
<!-- Node10 -->
<g id="Node000010" class="node">
<title>Node10</title>
<g id="a_Node000010"><a xlink:href="structDGtal_1_1concepts_1_1CUnaryFunctor.html" target="_top" xlink:title=" ">
<polygon fill="white" stroke="#666666" points="912.5,-46.88 752.5,-46.88 752.5,-16.38 912.5,-16.38 912.5,-46.88"/>
<text text-anchor="start" x="760.5" y="-33.38" font-family="FreeSans" font-size="10.00">DGtal::concepts::CUnaryFunctor</text>
<text text-anchor="middle" x="832.5" y="-22.12" font-family="FreeSans" font-size="10.00">&lt; T, T::Point, T::Value &gt;</text>
</a>
</g>
</g>
<!-- Node7&#45;&gt;Node10 -->
<g id="edge12_Node000010_Node000007" class="edge">
<title>Node7&#45;&gt;Node10</title>
<g id="a_edge12_Node000010_Node000007"><a xlink:title=" ">
<path fill="none" stroke="orange" stroke-dasharray="5,2" d="M623.24,-41.91C625.35,-41.72 627.44,-41.54 629.5,-41.38 669.92,-38.06 714.98,-35.75 752.27,-34.22"/>
<polygon fill="orange" stroke="orange" points="623,-38.42 613.37,-42.84 623.65,-45.39 623,-38.42"/>
</a>
</g>
<text text-anchor="middle" x="682" y="-42.38" font-family="FreeSans" font-size="10.00" fill="grey"> &lt; T, T::Point, T::Value &gt;</text>
</g>
<!-- Node8&#45;&gt;Node7 -->
<g id="edge7_Node000007_Node000008" class="edge">
<title>Node8&#45;&gt;Node7</title>
<g id="a_edge7_Node000007_Node000008"><a xlink:title=" ">
<path fill="none" stroke="#63b8ff" d="M312.33,-59.43C354.27,-58.13 407.64,-56.46 451.1,-55.1"/>
<polygon fill="#63b8ff" stroke="#63b8ff" points="312.23,-55.94 302.34,-59.75 312.45,-62.93 312.23,-55.94"/>
</a>
</g>
</g>
<!-- Node9 -->
<g id="Node000009" class="node">
<title>Node9</title>
<g id="a_Node000009"><a xlink:href="structDGtal_1_1concepts_1_1CPointFunctor.html" target="_top" xlink:title="Aim: Defines a functor on points.">
<polygon fill="white" stroke="#666666" points="1129.75,-43.25 949.5,-43.25 949.5,-24 1129.75,-24 1129.75,-43.25"/>
<text text-anchor="middle" x="1039.62" y="-29.75" font-family="FreeSans" font-size="10.00">DGtal::concepts::CPointFunctor&lt; T &gt;</text>
</a>
</g>
</g>
<!-- Node9&#45;&gt;Node3 -->
<g id="edge9_Node000003_Node000009" class="edge">
<title>Node9&#45;&gt;Node3</title>
<g id="a_edge9_Node000003_Node000009"><a xlink:title=" ">
<path fill="none" stroke="orange" stroke-dasharray="5,2" d="M1141.13,-43.39C1157.15,-44.95 1173.61,-46.54 1189.31,-48.07"/>
<polygon fill="orange" stroke="orange" points="1141.93,-39.95 1131.64,-42.47 1141.25,-46.92 1141.93,-39.95"/>
</a>
</g>
<text text-anchor="middle" x="1159.75" y="-47.38" font-family="FreeSans" font-size="10.00" fill="grey"> &lt; I &gt;</text>
</g>
<!-- Node10&#45;&gt;Node9 -->
<g id="edge10_Node000009_Node000010" class="edge">
<title>Node10&#45;&gt;Node9</title>
<g id="a_edge10_Node000009_Node000010"><a xlink:title=" ">
<path fill="none" stroke="#63b8ff" d="M924.12,-32.51C932.48,-32.59 940.95,-32.67 949.3,-32.75"/>
<polygon fill="#63b8ff" stroke="#63b8ff" points="924.35,-29.01 914.32,-32.41 924.29,-36.01 924.35,-29.01"/>
</a>
</g>
</g>
<!-- Node11 -->
<g id="Node000011" class="node">
<title>Node11</title>
<g id="a_Node000011"><a xlink:href="structboost_1_1Assignable.html" target="_top" xlink:title="Go to http://www.sgi.com/tech/stl/Assignable.html.">
<polygon fill="white" stroke="#666666" points="590.5,-19.25 472.5,-19.25 472.5,0 590.5,0 590.5,-19.25"/>
<text text-anchor="middle" x="531.5" y="-5.75" font-family="FreeSans" font-size="10.00">boost::Assignable&lt; T &gt;</text>
</a>
</g>
</g>
<!-- Node11&#45;&gt;Node10 -->
<g id="edge11_Node000010_Node000011" class="edge">
<title>Node11&#45;&gt;Node10</title>
<g id="a_edge11_Node000010_Node000011"><a xlink:title=" ">
<path fill="none" stroke="#63b8ff" d="M602.24,-14.76C647.08,-18.06 705.45,-22.35 752.08,-25.78"/>
<polygon fill="#63b8ff" stroke="#63b8ff" points="602.6,-11.27 592.37,-14.03 602.09,-18.25 602.6,-11.27"/>
</a>
</g>
</g>
</g>
</svg>
