<?xml version="1.0" encoding="UTF-8" standalone="no"?>
<!DOCTYPE svg PUBLIC "-//W3C//DTD SVG 1.1//EN"
 "http://www.w3.org/Graphics/SVG/1.1/DTD/svg11.dtd">
<!-- Generated by graphviz version 11.0.0 (20240428.1522)
 -->
<!-- Title: DGtal::concepts::CDigitalSet&lt; T &gt; Pages: 1 -->
<svg width="1609pt" height="103pt"
 viewBox="0.00 0.00 1608.50 103.37" xmlns="http://www.w3.org/2000/svg" xmlns:xlink="http://www.w3.org/1999/xlink">
<g id="graph0" class="graph" transform="scale(1 1) rotate(0) translate(4 99.37)">
<title>DGtal::concepts::CDigitalSet&lt; T &gt;</title>
<!-- Node1 -->
<g id="Node000001" class="node">
<title>Node1</title>
<g id="a_Node000001"><a xlink:title="Aim: Represents a set of points within the given domain. This set of points is modifiable by the user...">
<polygon fill="#999999" stroke="#666666" points="1600.5,-82 1472,-82 1472,-51.5 1600.5,-51.5 1600.5,-82"/>
<text text-anchor="start" x="1480" y="-68.5" font-family="FreeSans" font-size="10.00">DGtal::concepts::CDigital</text>
<text text-anchor="middle" x="1536.25" y="-57.25" font-family="FreeSans" font-size="10.00">Set&lt; T &gt;</text>
</a>
</g>
</g>
<!-- Node2 -->
<g id="Node000002" class="node">
<title>Node2</title>
<g id="a_Node000002"><a xlink:href="structboost_1_1CopyConstructible.html" target="_top" xlink:title="Go to http://www.sgi.com/tech/stl/CopyConstructible.html.">
<polygon fill="white" stroke="#666666" points="1417.25,-95.37 1266.25,-95.37 1266.25,-76.12 1417.25,-76.12 1417.25,-95.37"/>
<text text-anchor="middle" x="1341.75" y="-81.87" font-family="FreeSans" font-size="10.00">boost::CopyConstructible&lt; T &gt;</text>
</a>
</g>
</g>
<!-- Node2&#45;&gt;Node1 -->
<g id="edge1_Node000001_Node000002" class="edge">
<title>Node2&#45;&gt;Node1</title>
<g id="a_edge1_Node000001_Node000002"><a xlink:title=" ">
<path fill="none" stroke="#63b8ff" d="M1429.13,-77.22C1443.46,-75.81 1458.08,-74.36 1471.71,-73.02"/>
<polygon fill="#63b8ff" stroke="#63b8ff" points="1428.84,-73.73 1419.23,-78.2 1429.53,-80.7 1428.84,-73.73"/>
</a>
</g>
</g>
<!-- Node3 -->
<g id="Node000003" class="node">
<title>Node3</title>
<g id="a_Node000003"><a xlink:href="structDGtal_1_1concepts_1_1CPointPredicate.html" target="_top" xlink:title="Aim: Defines a predicate on a point.">
<polygon fill="white" stroke="#666666" points="1436,-58.37 1247.5,-58.37 1247.5,-39.12 1436,-39.12 1436,-58.37"/>
<text text-anchor="middle" x="1341.75" y="-44.87" font-family="FreeSans" font-size="10.00">DGtal::concepts::CPointPredicate&lt; T &gt;</text>
</a>
</g>
</g>
<!-- Node3&#45;&gt;Node1 -->
<g id="edge2_Node000001_Node000003" class="edge">
<title>Node3&#45;&gt;Node1</title>
<g id="a_edge2_Node000001_Node000003"><a xlink:title=" ">
<path fill="none" stroke="#63b8ff" d="M1447.66,-58.56C1455.85,-59.32 1463.96,-60.08 1471.74,-60.81"/>
<polygon fill="#63b8ff" stroke="#63b8ff" points="1448.25,-55.1 1437.97,-57.65 1447.6,-62.07 1448.25,-55.1"/>
</a>
</g>
</g>
<!-- Node4 -->
<g id="Node000004" class="node">
<title>Node4</title>
<g id="a_Node000004"><a xlink:href="structDGtal_1_1concepts_1_1CPredicate.html" target="_top" xlink:title=" ">
<polygon fill="white" stroke="#666666" points="1211.5,-64 1069.5,-64 1069.5,-33.5 1211.5,-33.5 1211.5,-64"/>
<text text-anchor="start" x="1077.5" y="-50.5" font-family="FreeSans" font-size="10.00">DGtal::concepts::CPredicate</text>
<text text-anchor="middle" x="1140.5" y="-39.25" font-family="FreeSans" font-size="10.00">&lt; T, T::Point &gt;</text>
</a>
</g>
</g>
<!-- Node4&#45;&gt;Node3 -->
<g id="edge3_Node000003_Node000004" class="edge">
<title>Node4&#45;&gt;Node3</title>
<g id="a_edge3_Node000003_Node000004"><a xlink:title=" ">
<path fill="none" stroke="#63b8ff" d="M1223.16,-48.75C1231.04,-48.75 1239.07,-48.75 1247.05,-48.75"/>
<polygon fill="#63b8ff" stroke="#63b8ff" points="1223.26,-45.25 1213.26,-48.75 1223.26,-52.25 1223.26,-45.25"/>
</a>
</g>
</g>
<!-- Node5 -->
<g id="Node000005" class="node">
<title>Node5</title>
<g id="a_Node000005"><a xlink:href="structDGtal_1_1concepts_1_1CUnaryFunctor.html" target="_top" xlink:title=" ">
<polygon fill="white" stroke="#666666" points="790,-89 630,-89 630,-58.5 790,-58.5 790,-89"/>
<text text-anchor="start" x="638" y="-75.5" font-family="FreeSans" font-size="10.00">DGtal::concepts::CUnaryFunctor</text>
<text text-anchor="middle" x="710" y="-64.25" font-family="FreeSans" font-size="10.00">&lt; T, T::Point, bool &gt;</text>
</a>
</g>
</g>
<!-- Node5&#45;&gt;Node4 -->
<g id="edge4_Node000004_Node000005" class="edge">
<title>Node5&#45;&gt;Node4</title>
<g id="a_edge4_Node000004_Node000005"><a xlink:title=" ">
<path fill="none" stroke="#63b8ff" d="M801.37,-68.47C881.19,-63.82 995.96,-57.12 1069.12,-52.85"/>
<polygon fill="#63b8ff" stroke="#63b8ff" points="801.63,-64.95 791.85,-69.03 802.04,-71.94 801.63,-64.95"/>
</a>
</g>
</g>
<!-- Node6 -->
<g id="Node000006" class="node">
<title>Node6</title>
<g id="a_Node000006"><a xlink:href="structboost_1_1Assignable.html" target="_top" xlink:title="Go to http://www.sgi.com/tech/stl/Assignable.html.">
<polygon fill="white" stroke="#666666" points="475.5,-90.37 357.5,-90.37 357.5,-71.12 475.5,-71.12 475.5,-90.37"/>
<text text-anchor="middle" x="416.5" y="-76.87" font-family="FreeSans" font-size="10.00">boost::Assignable&lt; T &gt;</text>
</a>
</g>
</g>
<!-- Node6&#45;&gt;Node5 -->
<g id="edge5_Node000005_Node000006" class="edge">
<title>Node6&#45;&gt;Node5</title>
<g id="a_edge5_Node000005_Node000006"><a xlink:title=" ">
<path fill="none" stroke="#63b8ff" d="M487.24,-79.07C530.07,-78.04 585.05,-76.72 629.56,-75.65"/>
<polygon fill="#63b8ff" stroke="#63b8ff" points="487.21,-75.57 477.3,-79.31 487.38,-82.57 487.21,-75.57"/>
</a>
</g>
</g>
<!-- Node11 -->
<g id="Node000011" class="node">
<title>Node11</title>
<g id="a_Node000011"><a xlink:href="structDGtal_1_1concepts_1_1CUnaryFunctor.html" target="_top" xlink:title=" ">
<polygon fill="white" stroke="#666666" points="790,-38 630,-38 630,-7.5 790,-7.5 790,-38"/>
<text text-anchor="start" x="638" y="-24.5" font-family="FreeSans" font-size="10.00">DGtal::concepts::CUnaryFunctor</text>
<text text-anchor="middle" x="710" y="-13.25" font-family="FreeSans" font-size="10.00">&lt; T, TElement, bool &gt;</text>
</a>
</g>
</g>
<!-- Node6&#45;&gt;Node11 -->
<g id="edge11_Node000011_Node000006" class="edge">
<title>Node6&#45;&gt;Node11</title>
<g id="a_edge11_Node000011_Node000006"><a xlink:title=" ">
<path fill="none" stroke="#63b8ff" d="M486.9,-71.03C524.16,-65.39 570.77,-57.64 612,-48.75 625.72,-45.79 640.4,-42.12 654.09,-38.48"/>
<polygon fill="#63b8ff" stroke="#63b8ff" points="486.52,-67.55 477.15,-72.49 487.56,-74.47 486.52,-67.55"/>
</a>
</g>
</g>
<!-- Node7 -->
<g id="Node000007" class="node">
<title>Node7</title>
<g id="a_Node000007"><a xlink:href="structDGtal_1_1concepts_1_1CUnaryFunctor.html" target="_top" xlink:title="Aim: Defines a unary functor, which associates arguments to results.">
<polygon fill="white" stroke="#666666" points="496.5,-41 336.5,-41 336.5,-10.5 496.5,-10.5 496.5,-41"/>
<text text-anchor="start" x="344.5" y="-27.5" font-family="FreeSans" font-size="10.00">DGtal::concepts::CUnaryFunctor</text>
<text text-anchor="middle" x="416.5" y="-16.25" font-family="FreeSans" font-size="10.00">&lt; X, A, R &gt;</text>
</a>
</g>
</g>
<!-- Node7&#45;&gt;Node5 -->
<g id="edge6_Node000005_Node000007" class="edge">
<title>Node7&#45;&gt;Node5</title>
<g id="a_edge6_Node000005_Node000007"><a xlink:title=" ">
<path fill="none" stroke="orange" stroke-dasharray="5,2" d="M507.87,-23.49C541.11,-24.66 578.73,-28.38 612,-37.5 620.67,-39.87 621.72,-43.23 630,-46.75 639.47,-50.77 649.76,-54.64 659.7,-58.13"/>
<polygon fill="orange" stroke="orange" points="508.39,-20 498.3,-23.22 508.2,-27 508.39,-20"/>
</a>
</g>
<text text-anchor="middle" x="563.25" y="-38.5" font-family="FreeSans" font-size="10.00" fill="grey"> &lt; T, T::Point, bool &gt;</text>
</g>
<!-- Node7&#45;&gt;Node11 -->
<g id="edge12_Node000011_Node000007" class="edge">
<title>Node7&#45;&gt;Node11</title>
<g id="a_edge12_Node000011_Node000007"><a xlink:title=" ">
<path fill="none" stroke="orange" stroke-dasharray="5,2" d="M487.65,-7.7C496.64,-5.97 505.75,-4.49 514.5,-3.5 557.56,1.38 568.87,0.74 612,-3.5 620.46,-4.33 629.27,-5.56 637.99,-7"/>
<polygon fill="orange" stroke="orange" points="486.96,-4.27 477.86,-9.71 488.36,-11.13 486.96,-4.27"/>
</a>
</g>
<text text-anchor="middle" x="563.25" y="-5.5" font-family="FreeSans" font-size="10.00" fill="grey"> &lt; T, TElement, bool &gt;</text>
</g>
<!-- Node8 -->
<g id="Node000008" class="node">
<title>Node8</title>
<g id="a_Node000008"><a xlink:href="structboost_1_1Assignable.html" target="_top" xlink:title=" ">
<polygon fill="white" stroke="#666666" points="300.5,-35.37 181.75,-35.37 181.75,-16.12 300.5,-16.12 300.5,-35.37"/>
<text text-anchor="middle" x="241.12" y="-21.87" font-family="FreeSans" font-size="10.00">boost::Assignable&lt; X &gt;</text>
</a>
</g>
</g>
<!-- Node8&#45;&gt;Node7 -->
<g id="edge7_Node000007_Node000008" class="edge">
<title>Node8&#45;&gt;Node7</title>
<g id="a_edge7_Node000007_Node000008"><a xlink:title=" ">
<path fill="none" stroke="#63b8ff" d="M312.24,-25.75C320.15,-25.75 328.25,-25.75 336.26,-25.75"/>
<polygon fill="#63b8ff" stroke="#63b8ff" points="312.34,-22.25 302.34,-25.75 312.34,-29.25 312.34,-22.25"/>
</a>
</g>
</g>
<!-- Node9 -->
<g id="Node000009" class="node">
<title>Node9</title>
<g id="a_Node000009"><a xlink:href="structboost_1_1Assignable.html" target="_top" xlink:title="Go to http://www.sgi.com/tech/stl/Assignable.html.">
<polygon fill="white" stroke="#666666" points="118,-35.37 0,-35.37 0,-16.12 118,-16.12 118,-35.37"/>
<text text-anchor="middle" x="59" y="-21.87" font-family="FreeSans" font-size="10.00">boost::Assignable&lt; T &gt;</text>
</a>
</g>
</g>
<!-- Node9&#45;&gt;Node8 -->
<g id="edge8_Node000008_Node000009" class="edge">
<title>Node9&#45;&gt;Node8</title>
<g id="a_edge8_Node000008_Node000009"><a xlink:title=" ">
<path fill="none" stroke="orange" stroke-dasharray="5,2" d="M129.54,-25.75C146.64,-25.75 164.78,-25.75 181.32,-25.75"/>
<polygon fill="orange" stroke="orange" points="130,-22.25 119.99,-25.75 129.99,-29.25 130,-22.25"/>
</a>
</g>
<text text-anchor="middle" x="149.88" y="-27.5" font-family="FreeSans" font-size="10.00" fill="grey"> &lt; X &gt;</text>
</g>
<!-- Node10 -->
<g id="Node000010" class="node">
<title>Node10</title>
<g id="a_Node000010"><a xlink:href="structDGtal_1_1concepts_1_1CPredicate.html" target="_top" xlink:title="Aim: Defines a predicate function, ie. a functor mapping a domain into the set of booleans.">
<polygon fill="white" stroke="#666666" points="969,-38 827,-38 827,-7.5 969,-7.5 969,-38"/>
<text text-anchor="start" x="835" y="-24.5" font-family="FreeSans" font-size="10.00">DGtal::concepts::CPredicate</text>
<text text-anchor="middle" x="898" y="-13.25" font-family="FreeSans" font-size="10.00">&lt; T, TElement &gt;</text>
</a>
</g>
</g>
<!-- Node10&#45;&gt;Node4 -->
<g id="edge9_Node000004_Node000010" class="edge">
<title>Node10&#45;&gt;Node4</title>
<g id="a_edge9_Node000004_Node000010"><a xlink:title=" ">
<path fill="none" stroke="orange" stroke-dasharray="5,2" d="M980.49,-31.56C1009.29,-34.67 1041.41,-38.14 1069.2,-41.15"/>
<polygon fill="orange" stroke="orange" points="981.03,-28.1 970.71,-30.5 980.28,-35.05 981.03,-28.1"/>
</a>
</g>
<text text-anchor="middle" x="1019.25" y="-40.5" font-family="FreeSans" font-size="10.00" fill="grey"> &lt; T, T::Point &gt;</text>
</g>
<!-- Node11&#45;&gt;Node10 -->
<g id="edge10_Node000010_Node000011" class="edge">
<title>Node11&#45;&gt;Node10</title>
<g id="a_edge10_Node000010_Node000011"><a xlink:title=" ">
<path fill="none" stroke="#63b8ff" d="M801.78,-22.75C810.14,-22.75 818.52,-22.75 826.66,-22.75"/>
<polygon fill="#63b8ff" stroke="#63b8ff" points="801.93,-19.25 791.93,-22.75 801.93,-26.25 801.93,-19.25"/>
</a>
</g>
</g>
</g>
</svg>
