<?xml version="1.0" encoding="UTF-8" standalone="no"?>
<!DOCTYPE svg PUBLIC "-//W3C//DTD SVG 1.1//EN"
 "http://www.w3.org/Graphics/SVG/1.1/DTD/svg11.dtd">
<!-- Generated by graphviz version 11.0.0 (20240428.1522)
 -->
<!-- Title: boost::DigitalSurface_graph_traversal_category Pages: 1 -->
<svg width="488pt" height="94pt"
 viewBox="0.00 0.00 487.62 93.75" xmlns="http://www.w3.org/2000/svg" xmlns:xlink="http://www.w3.org/1999/xlink">
<g id="graph0" class="graph" transform="scale(1 1) rotate(0) translate(4 89.75)">
<title>boost::DigitalSurface_graph_traversal_category</title>
<!-- Node1 -->
<g id="Node000001" class="node">
<title>Node1</title>
<g id="a_Node000001"><a xlink:title=" ">
<polygon fill="#999999" stroke="#666666" points="308.5,-30.5 177.75,-30.5 177.75,0 308.5,0 308.5,-30.5"/>
<text text-anchor="start" x="185.75" y="-17" font-family="FreeSans" font-size="10.00">boost::DigitalSurface</text>
<text text-anchor="middle" x="243.12" y="-5.75" font-family="FreeSans" font-size="10.00">_graph_traversal_category</text>
</a>
</g>
</g>
<!-- Node2 -->
<g id="Node000002" class="node">
<title>Node2</title>
<g id="a_Node000002"><a xlink:title=" ">
<polygon fill="white" stroke="#666666" points="108.25,-85.75 0,-85.75 0,-66.5 108.25,-66.5 108.25,-85.75"/>
<text text-anchor="middle" x="54.12" y="-72.25" font-family="FreeSans" font-size="10.00">adjacency_graph_tag</text>
</a>
</g>
</g>
<!-- Node2&#45;&gt;Node1 -->
<g id="edge1_Node000001_Node000002" class="edge">
<title>Node2&#45;&gt;Node1</title>
<g id="a_edge1_Node000001_Node000002"><a xlink:title=" ">
<path fill="none" stroke="#63b8ff" d="M94.07,-62.68C123.84,-53.41 164.58,-40.72 195.95,-30.94"/>
<polygon fill="#63b8ff" stroke="#63b8ff" points="93.19,-59.29 84.69,-65.6 95.28,-65.97 93.19,-59.29"/>
</a>
</g>
</g>
<!-- Node3 -->
<g id="Node000003" class="node">
<title>Node3</title>
<g id="a_Node000003"><a xlink:title=" ">
<polygon fill="white" stroke="#666666" points="235.62,-85.75 126.62,-85.75 126.62,-66.5 235.62,-66.5 235.62,-85.75"/>
<text text-anchor="middle" x="181.12" y="-72.25" font-family="FreeSans" font-size="10.00">vertex_list_graph_tag</text>
</a>
</g>
</g>
<!-- Node3&#45;&gt;Node1 -->
<g id="edge2_Node000001_Node000003" class="edge">
<title>Node3&#45;&gt;Node1</title>
<g id="a_edge2_Node000001_Node000003"><a xlink:title=" ">
<path fill="none" stroke="#63b8ff" d="M198.61,-58.52C207.81,-49.79 218.97,-39.18 227.82,-30.78"/>
<polygon fill="#63b8ff" stroke="#63b8ff" points="196.48,-55.72 191.64,-65.14 201.3,-60.79 196.48,-55.72"/>
</a>
</g>
</g>
<!-- Node4 -->
<g id="Node000004" class="node">
<title>Node4</title>
<g id="a_Node000004"><a xlink:title=" ">
<polygon fill="white" stroke="#666666" points="358.75,-85.75 253.5,-85.75 253.5,-66.5 358.75,-66.5 358.75,-85.75"/>
<text text-anchor="middle" x="306.12" y="-72.25" font-family="FreeSans" font-size="10.00">incidence_graph_tag</text>
</a>
</g>
</g>
<!-- Node4&#45;&gt;Node1 -->
<g id="edge3_Node000001_Node000004" class="edge">
<title>Node4&#45;&gt;Node1</title>
<g id="a_edge3_Node000001_Node000004"><a xlink:title=" ">
<path fill="none" stroke="#63b8ff" d="M288.36,-58.52C279.01,-49.79 267.67,-39.18 258.68,-30.78"/>
<polygon fill="#63b8ff" stroke="#63b8ff" points="285.75,-60.88 295.45,-65.15 290.53,-55.76 285.75,-60.88"/>
</a>
</g>
</g>
<!-- Node5 -->
<g id="Node000005" class="node">
<title>Node5</title>
<g id="a_Node000005"><a xlink:title=" ">
<polygon fill="white" stroke="#666666" points="479.62,-85.75 376.62,-85.75 376.62,-66.5 479.62,-66.5 479.62,-85.75"/>
<text text-anchor="middle" x="428.12" y="-72.25" font-family="FreeSans" font-size="10.00">edge_list_graph_tag</text>
</a>
</g>
</g>
<!-- Node5&#45;&gt;Node1 -->
<g id="edge4_Node000001_Node000005" class="edge">
<title>Node5&#45;&gt;Node1</title>
<g id="a_edge4_Node000001_Node000005"><a xlink:title=" ">
<path fill="none" stroke="#63b8ff" d="M389.03,-62.68C359.89,-53.41 320,-40.72 289.3,-30.94"/>
<polygon fill="#63b8ff" stroke="#63b8ff" points="387.59,-65.9 398.18,-65.6 389.71,-59.23 387.59,-65.9"/>
</a>
</g>
</g>
</g>
</svg>
