<?xml version="1.0" encoding="UTF-8" standalone="no"?>
<!DOCTYPE svg PUBLIC "-//W3C//DTD SVG 1.1//EN"
 "http://www.w3.org/Graphics/SVG/1.1/DTD/svg11.dtd">
<!-- Generated by graphviz version 7.0.1 (20221109.1506)
 -->
<!-- Title: DGtal::Splitter&lt; TElement, TWord &gt; Pages: 1 -->
<svg width="396pt" height="113pt"
 viewBox="0.00 0.00 396.00 112.50" xmlns="http://www.w3.org/2000/svg" xmlns:xlink="http://www.w3.org/1999/xlink">
<g id="graph0" class="graph" transform="scale(1 1) rotate(0) translate(4 108.5)">
<title>DGtal::Splitter&lt; TElement, TWord &gt;</title>
<!-- Node1 -->
<g id="node1" class="node">
<title>Node1</title>
<g id="a_node1"><a xlink:title=" ">
<polygon fill="#999999" stroke="#666666" points="133,-61.5 0,-61.5 0,-31.5 133,-31.5 133,-61.5"/>
<text text-anchor="start" x="8" y="-49.5" font-family="FreeSans" font-size="10.00">DGtal::Splitter&lt; TElement,</text>
<text text-anchor="middle" x="66.5" y="-38.5" font-family="FreeSans" font-size="10.00"> TWord &gt;</text>
</a>
</g>
</g>
<!-- Node2 -->
<g id="node2" class="node">
<title>Node2</title>
<g id="a_node2"><a xlink:href="structDGtal_1_1Splitter.html" target="_top" xlink:title=" ">
<polygon fill="white" stroke="#666666" points="388,-104.5 266,-104.5 266,-74.5 388,-74.5 388,-104.5"/>
<text text-anchor="start" x="274" y="-92.5" font-family="FreeSans" font-size="10.00">DGtal::Splitter&lt; DGtal</text>
<text text-anchor="middle" x="327" y="-81.5" font-family="FreeSans" font-size="10.00">::PointVector, uint64_t &gt;</text>
</a>
</g>
</g>
<!-- Node1&#45;&gt;Node2 -->
<g id="edge1" class="edge">
<title>Node1&#45;&gt;Node2</title>
<path fill="none" stroke="orange" stroke-dasharray="5,2" d="M144.38,-60.37C146.61,-60.75 148.82,-61.13 151,-61.5 189.07,-67.96 231.87,-74.82 265.62,-80.13"/>
<polygon fill="orange" stroke="orange" points="145.06,-56.93 134.61,-58.67 143.86,-63.83 145.06,-56.93"/>
<text text-anchor="start" x="151" y="-90.5" font-family="FreeSans" font-size="10.00"> &lt; DGtal::PointVector,</text>
<text text-anchor="middle" x="199.5" y="-79.5" font-family="FreeSans" font-size="10.00"> uint64_t &gt;</text>
</g>
<!-- Node3 -->
<g id="node3" class="node">
<title>Node3</title>
<g id="a_node3"><a xlink:href="structDGtal_1_1Splitter.html" target="_top" xlink:title=" ">
<polygon fill="white" stroke="#666666" points="386.5,-56 267.5,-56 267.5,-37 386.5,-37 386.5,-56"/>
<text text-anchor="middle" x="327" y="-44" font-family="FreeSans" font-size="10.00">DGtal::Splitter&lt; Point &gt;</text>
</a>
</g>
</g>
<!-- Node1&#45;&gt;Node3 -->
<g id="edge2" class="edge">
<title>Node1&#45;&gt;Node3</title>
<path fill="none" stroke="orange" stroke-dasharray="5,2" d="M144.79,-46.5C184.06,-46.5 231.01,-46.5 267.28,-46.5"/>
<polygon fill="orange" stroke="orange" points="144.91,-43 134.91,-46.5 144.91,-50 144.91,-43"/>
<text text-anchor="middle" x="199.5" y="-49.5" font-family="FreeSans" font-size="10.00"> &lt; Point &gt;</text>
</g>
<!-- Node4 -->
<g id="node4" class="node">
<title>Node4</title>
<g id="a_node4"><a xlink:href="structDGtal_1_1Splitter.html" target="_top" xlink:title=" ">
<polygon fill="white" stroke="#666666" points="384,-19 270,-19 270,0 384,0 384,-19"/>
<text text-anchor="middle" x="327" y="-7" font-family="FreeSans" font-size="10.00">DGtal::Splitter&lt; Key &gt;</text>
</a>
</g>
</g>
<!-- Node1&#45;&gt;Node4 -->
<g id="edge3" class="edge">
<title>Node1&#45;&gt;Node4</title>
<path fill="none" stroke="orange" stroke-dasharray="5,2" d="M144.37,-32.53C146.6,-32.18 148.82,-31.83 151,-31.5 190.5,-25.47 235.21,-19.87 269.54,-15.83"/>
<polygon fill="orange" stroke="orange" points="143.88,-29.07 134.58,-34.14 145.01,-35.98 143.88,-29.07"/>
<text text-anchor="middle" x="199.5" y="-34.5" font-family="FreeSans" font-size="10.00"> &lt; Key &gt;</text>
</g>
</g>
</svg>
