<?xml version="1.0" encoding="UTF-8" standalone="no"?>
<!DOCTYPE svg PUBLIC "-//W3C//DTD SVG 1.1//EN"
 "http://www.w3.org/Graphics/SVG/1.1/DTD/svg11.dtd">
<!-- Generated by graphviz version 7.0.1 (20221109.1506)
 -->
<!-- Title: boost::CopyConstructible&lt; T &gt; Pages: 1 -->
<svg width="1363pt" height="830pt"
 viewBox="0.00 0.00 1363.00 829.50" xmlns="http://www.w3.org/2000/svg" xmlns:xlink="http://www.w3.org/1999/xlink">
<g id="graph0" class="graph" transform="scale(1 1) rotate(0) translate(4 825.5)">
<title>boost::CopyConstructible&lt; T &gt;</title>
<!-- Node1 -->
<g id="node1" class="node">
<title>Node1</title>
<g id="a_node1"><a xlink:title="Go to http://www.sgi.com/tech/stl/CopyConstructible.html.">
<polygon fill="#999999" stroke="#666666" points="152,-426.5 0,-426.5 0,-407.5 152,-407.5 152,-426.5"/>
<text text-anchor="middle" x="76" y="-414.5" font-family="FreeSans" font-size="10.00">boost::CopyConstructible&lt; T &gt;</text>
</a>
</g>
</g>
<!-- Node2 -->
<g id="node2" class="node">
<title>Node2</title>
<g id="a_node2"><a xlink:href="structDGtal_1_1C2x2DetComputer.html" target="_top" xlink:title="Aim: This concept gathers all models that are able to compute the (sign of the) determinant of a 2x2 ...">
<polygon fill="white" stroke="#666666" points="362,-821.5 208,-821.5 208,-802.5 362,-802.5 362,-821.5"/>
<text text-anchor="middle" x="285" y="-809.5" font-family="FreeSans" font-size="10.00">DGtal::C2x2DetComputer&lt; T &gt;</text>
</a>
</g>
</g>
<!-- Node1&#45;&gt;Node2 -->
<g id="edge1" class="edge">
<title>Node1&#45;&gt;Node2</title>
<path fill="none" stroke="#63b8ff" d="M76.2,-438.08C74.99,-502.3 80.74,-697.06 188,-794 193.79,-799.23 200.59,-803.16 207.87,-806.09"/>
<polygon fill="#63b8ff" stroke="#63b8ff" points="79.69,-438.34 76.47,-428.25 72.69,-438.15 79.69,-438.34"/>
</g>
<!-- Node3 -->
<g id="node3" class="node">
<title>Node3</title>
<g id="a_node3"><a xlink:href="structDGtal_1_1concepts_1_1CBinner.html" target="_top" xlink:title="Aim: Represents an object that places a quantity into a bin, i.e. a functor that associates a natural...">
<polygon fill="white" stroke="#666666" points="361.5,-784.5 208.5,-784.5 208.5,-765.5 361.5,-765.5 361.5,-784.5"/>
<text text-anchor="middle" x="285" y="-772.5" font-family="FreeSans" font-size="10.00">DGtal::concepts::CBinner&lt; T &gt;</text>
</a>
</g>
</g>
<!-- Node1&#45;&gt;Node3 -->
<g id="edge2" class="edge">
<title>Node1&#45;&gt;Node3</title>
<path fill="none" stroke="#63b8ff" d="M77.05,-438.27C78.42,-498.29 91.04,-670.12 188,-756 193.98,-761.29 201,-765.29 208.47,-768.27"/>
<polygon fill="#63b8ff" stroke="#63b8ff" points="80.55,-438.41 76.92,-428.46 73.55,-438.51 80.55,-438.41"/>
</g>
<!-- Node4 -->
<g id="node4" class="node">
<title>Node4</title>
<g id="a_node4"><a xlink:href="structDGtal_1_1concepts_1_1CDigitalSet.html" target="_top" xlink:title="Aim: Represents a set of points within the given domain. This set of points is modifiable by the user...">
<polygon fill="white" stroke="#666666" points="349.5,-747 220.5,-747 220.5,-717 349.5,-717 349.5,-747"/>
<text text-anchor="start" x="228.5" y="-735" font-family="FreeSans" font-size="10.00">DGtal::concepts::CDigital</text>
<text text-anchor="middle" x="285" y="-724" font-family="FreeSans" font-size="10.00">Set&lt; T &gt;</text>
</a>
</g>
</g>
<!-- Node1&#45;&gt;Node4 -->
<g id="edge3" class="edge">
<title>Node1&#45;&gt;Node4</title>
<path fill="none" stroke="#63b8ff" d="M78.58,-438.22C83.76,-491.96 105.05,-634.4 188,-708 197.12,-716.09 208.57,-721.55 220.35,-725.2"/>
<polygon fill="#63b8ff" stroke="#63b8ff" points="82.08,-437.99 77.73,-428.33 75.1,-438.59 82.08,-437.99"/>
</g>
<!-- Node5 -->
<g id="node5" class="node">
<title>Node5</title>
<g id="a_node5"><a xlink:href="structDGtal_1_1concepts_1_1CDigitalSurfaceContainer.html" target="_top" xlink:title="Aim: The digital surface container concept describes a minimal set of inner types and methods so as t...">
<polygon fill="white" stroke="#666666" points="349.5,-699 220.5,-699 220.5,-669 349.5,-669 349.5,-699"/>
<text text-anchor="start" x="228.5" y="-687" font-family="FreeSans" font-size="10.00">DGtal::concepts::CDigital</text>
<text text-anchor="middle" x="285" y="-676" font-family="FreeSans" font-size="10.00">SurfaceContainer&lt; T &gt;</text>
</a>
</g>
</g>
<!-- Node1&#45;&gt;Node5 -->
<g id="edge4" class="edge">
<title>Node1&#45;&gt;Node5</title>
<path fill="none" stroke="#63b8ff" d="M80.35,-438.18C89,-485.57 116.62,-600.65 188,-660 197.25,-667.69 208.61,-672.97 220.25,-676.58"/>
<polygon fill="#63b8ff" stroke="#63b8ff" points="83.82,-437.7 78.69,-428.44 76.92,-438.88 83.82,-437.7"/>
</g>
<!-- Node6 -->
<g id="node6" class="node">
<title>Node6</title>
<g id="a_node6"><a xlink:href="structDGtal_1_1concepts_1_1CDigitalSurfaceTracker.html" target="_top" xlink:title="Aim:">
<polygon fill="white" stroke="#666666" points="349.5,-651 220.5,-651 220.5,-621 349.5,-621 349.5,-651"/>
<text text-anchor="start" x="228.5" y="-639" font-family="FreeSans" font-size="10.00">DGtal::concepts::CDigital</text>
<text text-anchor="middle" x="285" y="-628" font-family="FreeSans" font-size="10.00">SurfaceTracker&lt; T &gt;</text>
</a>
</g>
</g>
<!-- Node1&#45;&gt;Node6 -->
<g id="edge5" class="edge">
<title>Node1&#45;&gt;Node6</title>
<path fill="none" stroke="#63b8ff" d="M82.8,-437.77C95.12,-477.94 127.82,-566.33 188,-612 197.37,-619.11 208.61,-624.14 220.03,-627.68"/>
<polygon fill="#63b8ff" stroke="#63b8ff" points="86.22,-437.02 80.05,-428.41 79.51,-438.99 86.22,-437.02"/>
</g>
<!-- Node7 -->
<g id="node7" class="node">
<title>Node7</title>
<g id="a_node7"><a xlink:href="structDGtal_1_1concepts_1_1CGraphVisitor.html" target="_top" xlink:title="Aim: Defines the concept of a visitor onto a graph, that is an object that traverses vertices of the ...">
<polygon fill="white" stroke="#666666" points="374.5,-602.5 195.5,-602.5 195.5,-583.5 374.5,-583.5 374.5,-602.5"/>
<text text-anchor="middle" x="285" y="-590.5" font-family="FreeSans" font-size="10.00">DGtal::concepts::CGraphVisitor&lt; T &gt;</text>
</a>
</g>
</g>
<!-- Node1&#45;&gt;Node7 -->
<g id="edge6" class="edge">
<title>Node1&#45;&gt;Node7</title>
<path fill="none" stroke="#63b8ff" d="M85.15,-437.38C100.04,-471.78 135.05,-540.92 188,-575 192.99,-578.21 198.41,-580.88 204.05,-583.1"/>
<polygon fill="#63b8ff" stroke="#63b8ff" points="88.39,-436.06 81.31,-428.18 81.93,-438.75 88.39,-436.06"/>
</g>
<!-- Node8 -->
<g id="node8" class="node">
<title>Node8</title>
<g id="a_node8"><a xlink:href="structDGtal_1_1concepts_1_1CLMSTDSSFilter.html" target="_top" xlink:title="Aim: Defines the concept describing a functor which filters DSSes for L&#45;MST calculations.">
<polygon fill="white" stroke="#666666" points="382,-565.5 188,-565.5 188,-546.5 382,-546.5 382,-565.5"/>
<text text-anchor="middle" x="285" y="-553.5" font-family="FreeSans" font-size="10.00">DGtal::concepts::CLMSTDSSFilter&lt; T &gt;</text>
</a>
</g>
</g>
<!-- Node1&#45;&gt;Node8 -->
<g id="edge7" class="edge">
<title>Node1&#45;&gt;Node8</title>
<path fill="none" stroke="#63b8ff" d="M88.99,-436.21C106.97,-463.3 143.61,-512.18 188,-537 194.67,-540.73 201.97,-543.74 209.46,-546.16"/>
<polygon fill="#63b8ff" stroke="#63b8ff" points="92.02,-434.46 83.66,-427.96 86.14,-438.26 92.02,-434.46"/>
</g>
<!-- Node9 -->
<g id="node9" class="node">
<title>Node9</title>
<g id="a_node9"><a xlink:href="structDGtal_1_1concepts_1_1CLMSTTangentFromDSS.html" target="_top" xlink:title="Aim: Defines the concept describing a functor which calculates a direction of the 2D DSS and an eccen...">
<polygon fill="white" stroke="#666666" points="366,-528 204,-528 204,-498 366,-498 366,-528"/>
<text text-anchor="start" x="212" y="-516" font-family="FreeSans" font-size="10.00">DGtal::concepts::CLMSTTangent</text>
<text text-anchor="middle" x="285" y="-505" font-family="FreeSans" font-size="10.00">FromDSS&lt; T &gt;</text>
</a>
</g>
</g>
<!-- Node1&#45;&gt;Node9 -->
<g id="edge8" class="edge">
<title>Node1&#45;&gt;Node9</title>
<path fill="none" stroke="#63b8ff" d="M98.08,-433.73C119.55,-450.02 154.39,-474.38 188,-489 195.4,-492.22 203.33,-495.07 211.33,-497.57"/>
<polygon fill="#63b8ff" stroke="#63b8ff" points="100.46,-431.15 90.4,-427.81 96.18,-436.69 100.46,-431.15"/>
</g>
<!-- Node10 -->
<g id="node10" class="node">
<title>Node10</title>
<g id="a_node10"><a xlink:href="structDGtal_1_1concepts_1_1CMetricSpace.html" target="_top" xlink:title="Aim: defines the concept of metric spaces.">
<polygon fill="white" stroke="#666666" points="349,-480 221,-480 221,-450 349,-450 349,-480"/>
<text text-anchor="start" x="229" y="-468" font-family="FreeSans" font-size="10.00">DGtal::concepts::CMetric</text>
<text text-anchor="middle" x="285" y="-457" font-family="FreeSans" font-size="10.00">Space&lt; T &gt;</text>
</a>
</g>
</g>
<!-- Node1&#45;&gt;Node10 -->
<g id="edge9" class="edge">
<title>Node1&#45;&gt;Node10</title>
<path fill="none" stroke="#63b8ff" d="M130.88,-429.49C158.38,-435.87 192,-443.67 220.73,-450.33"/>
<polygon fill="#63b8ff" stroke="#63b8ff" points="131.9,-426.14 121.36,-427.29 130.32,-432.96 131.9,-426.14"/>
</g>
<!-- Node13 -->
<g id="node13" class="node">
<title>Node13</title>
<g id="a_node13"><a xlink:href="structDGtal_1_1concepts_1_1CPolarPointComparator2D.html" target="_top" xlink:title="Aim: This concept gathers classes that are able to compare the position of two given points &#160;around a...">
<polygon fill="white" stroke="#666666" points="358,-432 212,-432 212,-402 358,-402 358,-432"/>
<text text-anchor="start" x="220" y="-420" font-family="FreeSans" font-size="10.00">DGtal::concepts::CPolarPoint</text>
<text text-anchor="middle" x="285" y="-409" font-family="FreeSans" font-size="10.00">Comparator2D&lt; T &gt;</text>
</a>
</g>
</g>
<!-- Node1&#45;&gt;Node13 -->
<g id="edge12" class="edge">
<title>Node1&#45;&gt;Node13</title>
<path fill="none" stroke="#63b8ff" d="M163.77,-417C179.66,-417 196.09,-417 211.5,-417"/>
<polygon fill="#63b8ff" stroke="#63b8ff" points="163.83,-413.5 153.83,-417 163.83,-420.5 163.83,-413.5"/>
</g>
<!-- Node14 -->
<g id="node14" class="node">
<title>Node14</title>
<g id="a_node14"><a xlink:href="structDGtal_1_1concepts_1_1CPositiveIrreducibleFraction.html" target="_top" xlink:title="Aim: Defines positive irreducible fractions, i.e. fraction p/q, p and q non&#45;negative integers,...">
<polygon fill="white" stroke="#666666" points="353.5,-384 216.5,-384 216.5,-354 353.5,-354 353.5,-384"/>
<text text-anchor="start" x="224.5" y="-372" font-family="FreeSans" font-size="10.00">DGtal::concepts::CPositive</text>
<text text-anchor="middle" x="285" y="-361" font-family="FreeSans" font-size="10.00">IrreducibleFraction&lt; T &gt;</text>
</a>
</g>
</g>
<!-- Node1&#45;&gt;Node14 -->
<g id="edge13" class="edge">
<title>Node1&#45;&gt;Node14</title>
<path fill="none" stroke="#63b8ff" d="M130.86,-404.51C157.35,-398.37 189.52,-390.91 217.52,-384.42"/>
<polygon fill="#63b8ff" stroke="#63b8ff" points="130.32,-401.04 121.36,-406.71 131.9,-407.86 130.32,-401.04"/>
</g>
<!-- Node15 -->
<g id="node15" class="node">
<title>Node15</title>
<g id="a_node15"><a xlink:href="structDGtal_1_1concepts_1_1CPowerMetric.html" target="_top" xlink:title="Aim: defines the concept of special weighted metrics, so called power metrics.">
<polygon fill="white" stroke="#666666" points="375,-335.5 195,-335.5 195,-316.5 375,-316.5 375,-335.5"/>
<text text-anchor="middle" x="285" y="-323.5" font-family="FreeSans" font-size="10.00">DGtal::concepts::CPowerMetric&lt; T &gt;</text>
</a>
</g>
</g>
<!-- Node1&#45;&gt;Node15 -->
<g id="edge14" class="edge">
<title>Node1&#45;&gt;Node15</title>
<path fill="none" stroke="#63b8ff" d="M97.58,-400.18C118.91,-383.62 153.85,-358.85 188,-345 196.97,-341.36 206.71,-338.4 216.43,-335.99"/>
<polygon fill="#63b8ff" stroke="#63b8ff" points="95.64,-397.25 89.98,-406.2 99.99,-402.74 95.64,-397.25"/>
</g>
<!-- Node17 -->
<g id="node17" class="node">
<title>Node17</title>
<g id="a_node17"><a xlink:href="structDGtal_1_1concepts_1_1CPreCellularGridSpaceND.html" target="_top" xlink:title="Aim: This concept describes an unbounded cellular grid space in nD. In these spaces obtained by carte...">
<polygon fill="white" stroke="#666666" points="359.5,-298 210.5,-298 210.5,-268 359.5,-268 359.5,-298"/>
<text text-anchor="start" x="218.5" y="-286" font-family="FreeSans" font-size="10.00">DGtal::concepts::CPreCellular</text>
<text text-anchor="middle" x="285" y="-275" font-family="FreeSans" font-size="10.00">GridSpaceND&lt; T &gt;</text>
</a>
</g>
</g>
<!-- Node1&#45;&gt;Node17 -->
<g id="edge16" class="edge">
<title>Node1&#45;&gt;Node17</title>
<path fill="none" stroke="#63b8ff" d="M90.99,-398.13C110.15,-373.63 146.9,-331.29 188,-308 194.89,-304.09 202.41,-300.78 210.1,-297.98"/>
<polygon fill="#63b8ff" stroke="#63b8ff" points="88.31,-395.86 85.02,-405.93 93.87,-400.11 88.31,-395.86"/>
</g>
<!-- Node19 -->
<g id="node19" class="node">
<title>Node19</title>
<g id="a_node19"><a xlink:href="structDGtal_1_1concepts_1_1CPrimitiveComputer.html" target="_top" xlink:title="Aim: Defines the concept describing an object that computes some primitive from input points,...">
<polygon fill="white" stroke="#666666" points="355,-250 215,-250 215,-220 355,-220 355,-250"/>
<text text-anchor="start" x="223" y="-238" font-family="FreeSans" font-size="10.00">DGtal::concepts::CPrimitive</text>
<text text-anchor="middle" x="285" y="-227" font-family="FreeSans" font-size="10.00">Computer&lt; T &gt;</text>
</a>
</g>
</g>
<!-- Node1&#45;&gt;Node19 -->
<g id="edge18" class="edge">
<title>Node1&#45;&gt;Node19</title>
<path fill="none" stroke="#63b8ff" d="M85.37,-396.95C100.59,-363.05 136.09,-294.64 188,-259 196.07,-253.46 205.31,-249.19 214.79,-245.91"/>
<polygon fill="#63b8ff" stroke="#63b8ff" points="82.22,-395.43 81.44,-406 88.64,-398.22 82.22,-395.43"/>
</g>
<!-- Node22 -->
<g id="node22" class="node">
<title>Node22</title>
<g id="a_node22"><a xlink:href="structDGtal_1_1concepts_1_1CSegment.html" target="_top" xlink:title="Aim: Defines the concept describing a segment, ie. a valid and not empty range.">
<polygon fill="white" stroke="#666666" points="367,-201.5 203,-201.5 203,-182.5 367,-182.5 367,-201.5"/>
<text text-anchor="middle" x="285" y="-189.5" font-family="FreeSans" font-size="10.00">DGtal::concepts::CSegment&lt; T &gt;</text>
</a>
</g>
</g>
<!-- Node1&#45;&gt;Node22 -->
<g id="edge21" class="edge">
<title>Node1&#45;&gt;Node22</title>
<path fill="none" stroke="#63b8ff" d="M81.85,-396.26C92.85,-354.09 123.89,-258.34 188,-211 192.92,-207.37 198.36,-204.38 204.06,-201.93"/>
<polygon fill="#63b8ff" stroke="#63b8ff" points="78.49,-395.28 79.48,-405.83 85.28,-396.97 78.49,-395.28"/>
</g>
<!-- Node29 -->
<g id="node29" class="node">
<title>Node29</title>
<g id="a_node29"><a xlink:href="structDGtal_1_1concepts_1_1CSegmentComputerEstimator.html" target="_top" xlink:title="Aim: This concept is a refinement of CCurveLocalGeometricEstimator devoted to the estimation of a geo...">
<polygon fill="white" stroke="#666666" points="355,-164 215,-164 215,-134 355,-134 355,-164"/>
<text text-anchor="start" x="223" y="-152" font-family="FreeSans" font-size="10.00">DGtal::concepts::CSegment</text>
<text text-anchor="middle" x="285" y="-141" font-family="FreeSans" font-size="10.00">ComputerEstimator&lt; T &gt;</text>
</a>
</g>
</g>
<!-- Node1&#45;&gt;Node29 -->
<g id="edge29" class="edge">
<title>Node1&#45;&gt;Node29</title>
<path fill="none" stroke="#63b8ff" d="M80.39,-395.87C89.13,-348.59 116.91,-233.7 188,-174 195.78,-167.47 205.08,-162.61 214.77,-159.02"/>
<polygon fill="#63b8ff" stroke="#63b8ff" points="76.97,-395.14 78.71,-405.59 83.87,-396.33 76.97,-395.14"/>
</g>
<!-- Node30 -->
<g id="node30" class="node">
<title>Node30</title>
<g id="a_node30"><a xlink:href="structDGtal_1_1concepts_1_1CStack.html" target="_top" xlink:title="Aim: This concept gathers classes that provide a stack interface.">
<polygon fill="white" stroke="#666666" points="360.5,-115.5 209.5,-115.5 209.5,-96.5 360.5,-96.5 360.5,-115.5"/>
<text text-anchor="middle" x="285" y="-103.5" font-family="FreeSans" font-size="10.00">DGtal::concepts::CStack&lt; T &gt;</text>
</a>
</g>
</g>
<!-- Node1&#45;&gt;Node30 -->
<g id="edge30" class="edge">
<title>Node1&#45;&gt;Node30</title>
<path fill="none" stroke="#63b8ff" d="M78.31,-395.81C82.88,-341.57 102.85,-196.93 188,-125 194.23,-119.74 201.5,-115.78 209.2,-112.82"/>
<polygon fill="#63b8ff" stroke="#63b8ff" points="74.84,-395.29 77.6,-405.52 81.82,-395.8 74.84,-395.29"/>
</g>
<!-- Node31 -->
<g id="node31" class="node">
<title>Node31</title>
<g id="a_node31"><a xlink:href="structDGtal_1_1concepts_1_1CSurfelLocalEstimator.html" target="_top" xlink:title="Aim: This concept describes an object that can process a range of surfels (that are supposed to belon...">
<polygon fill="white" stroke="#666666" points="348.5,-78 221.5,-78 221.5,-48 348.5,-48 348.5,-78"/>
<text text-anchor="start" x="229.5" y="-66" font-family="FreeSans" font-size="10.00">DGtal::concepts::CSurfel</text>
<text text-anchor="middle" x="285" y="-55" font-family="FreeSans" font-size="10.00">LocalEstimator&lt; T &gt;</text>
</a>
</g>
</g>
<!-- Node1&#45;&gt;Node31 -->
<g id="edge31" class="edge">
<title>Node1&#45;&gt;Node31</title>
<path fill="none" stroke="#63b8ff" d="M77.49,-395.75C80.05,-337.23 95.52,-172.4 188,-87 197.21,-78.49 208.98,-72.88 221.09,-69.21"/>
<polygon fill="#63b8ff" stroke="#63b8ff" points="74,-395.5 77.16,-405.61 81,-395.74 74,-395.5"/>
</g>
<!-- Node33 -->
<g id="node33" class="node">
<title>Node33</title>
<g id="a_node33"><a xlink:href="structDGtal_1_1deprecated_1_1concepts_1_1CConvolutionWeights.html" target="_top" xlink:title="Aim: defines models of centered convolution kernel used for normal vector integration for instance.">
<polygon fill="white" stroke="#666666" points="375.5,-30 194.5,-30 194.5,0 375.5,0 375.5,-30"/>
<text text-anchor="start" x="202.5" y="-18" font-family="FreeSans" font-size="10.00">DGtal::deprecated::</text>
<text text-anchor="middle" x="285" y="-7" font-family="FreeSans" font-size="10.00">concepts::CConvolutionWeights&lt; T &gt;</text>
</a>
</g>
</g>
<!-- Node1&#45;&gt;Node33 -->
<g id="edge33" class="edge">
<title>Node1&#45;&gt;Node33</title>
<path fill="none" stroke="#63b8ff" d="M76.44,-395.73C75.96,-331.72 83.69,-139.16 188,-39 191.47,-35.67 195.33,-32.78 199.45,-30.27"/>
<polygon fill="#63b8ff" stroke="#63b8ff" points="72.93,-395.6 76.6,-405.54 79.93,-395.48 72.93,-395.6"/>
</g>
<!-- Node11 -->
<g id="node11" class="node">
<title>Node11</title>
<g id="a_node11"><a xlink:href="structDGtal_1_1concepts_1_1CDigitalMetricSpace.html" target="_top" xlink:title="Aim: defines the concept of digital metric spaces.">
<polygon fill="white" stroke="#666666" points="569,-504 440,-504 440,-474 569,-474 569,-504"/>
<text text-anchor="start" x="448" y="-492" font-family="FreeSans" font-size="10.00">DGtal::concepts::CDigital</text>
<text text-anchor="middle" x="504.5" y="-481" font-family="FreeSans" font-size="10.00">MetricSpace&lt; T &gt;</text>
</a>
</g>
</g>
<!-- Node10&#45;&gt;Node11 -->
<g id="edge10" class="edge">
<title>Node10&#45;&gt;Node11</title>
<path fill="none" stroke="#63b8ff" d="M360.68,-473.24C386.34,-476.07 414.82,-479.21 439.55,-481.94"/>
<polygon fill="#63b8ff" stroke="#63b8ff" points="361.32,-469.79 351,-472.17 360.55,-476.75 361.32,-469.79"/>
</g>
<!-- Node12 -->
<g id="node12" class="node">
<title>Node12</title>
<g id="a_node12"><a xlink:href="structDGtal_1_1concepts_1_1CSeparableMetric.html" target="_top" xlink:title="Aim: defines the concept of separable metrics.">
<polygon fill="white" stroke="#666666" points="577,-456 432,-456 432,-426 577,-426 577,-456"/>
<text text-anchor="start" x="440" y="-444" font-family="FreeSans" font-size="10.00">DGtal::concepts::CSeparable</text>
<text text-anchor="middle" x="504.5" y="-433" font-family="FreeSans" font-size="10.00">Metric&lt; T &gt;</text>
</a>
</g>
</g>
<!-- Node10&#45;&gt;Node12 -->
<g id="edge11" class="edge">
<title>Node10&#45;&gt;Node12</title>
<path fill="none" stroke="#63b8ff" d="M360.87,-456.74C383.75,-454.21 408.84,-451.45 431.52,-448.94"/>
<polygon fill="#63b8ff" stroke="#63b8ff" points="360.55,-453.25 351,-457.83 361.32,-460.21 360.55,-453.25"/>
</g>
<!-- Node16 -->
<g id="node16" class="node">
<title>Node16</title>
<g id="a_node16"><a xlink:href="structDGtal_1_1concepts_1_1CPowerSeparableMetric.html" target="_top" xlink:title="Aim: defines the concept of separable metrics.">
<polygon fill="white" stroke="#666666" points="591,-346 418,-346 418,-316 591,-316 591,-346"/>
<text text-anchor="start" x="426" y="-334" font-family="FreeSans" font-size="10.00">DGtal::concepts::CPowerSeparable</text>
<text text-anchor="middle" x="504.5" y="-323" font-family="FreeSans" font-size="10.00">Metric&lt; T &gt;</text>
</a>
</g>
</g>
<!-- Node15&#45;&gt;Node16 -->
<g id="edge15" class="edge">
<title>Node15&#45;&gt;Node16</title>
<path fill="none" stroke="#63b8ff" d="M386.59,-328.31C396.95,-328.55 407.41,-328.79 417.59,-329.03"/>
<polygon fill="#63b8ff" stroke="#63b8ff" points="387,-324.82 376.92,-328.09 386.84,-331.82 387,-324.82"/>
</g>
<!-- Node18 -->
<g id="node18" class="node">
<title>Node18</title>
<g id="a_node18"><a xlink:href="structDGtal_1_1concepts_1_1CCellularGridSpaceND.html" target="_top" xlink:title="Aim: This concept describes a cellular grid space in nD. In these spaces obtained by cartesian produc...">
<polygon fill="white" stroke="#666666" points="571.5,-298 437.5,-298 437.5,-268 571.5,-268 571.5,-298"/>
<text text-anchor="start" x="445.5" y="-286" font-family="FreeSans" font-size="10.00">DGtal::concepts::CCellular</text>
<text text-anchor="middle" x="504.5" y="-275" font-family="FreeSans" font-size="10.00">GridSpaceND&lt; T &gt;</text>
</a>
</g>
</g>
<!-- Node17&#45;&gt;Node18 -->
<g id="edge17" class="edge">
<title>Node17&#45;&gt;Node18</title>
<path fill="none" stroke="#63b8ff" d="M371.23,-283C393.1,-283 416.3,-283 437.06,-283"/>
<polygon fill="#63b8ff" stroke="#63b8ff" points="371.45,-279.5 361.45,-283 371.45,-286.5 371.45,-279.5"/>
</g>
<!-- Node20 -->
<g id="node20" class="node">
<title>Node20</title>
<g id="a_node20"><a xlink:href="structDGtal_1_1concepts_1_1CIncrementalPrimitiveComputer.html" target="_top" xlink:title="Aim: Defines the concept describing an object that computes some primitive from input points given on...">
<polygon fill="white" stroke="#666666" points="580.5,-250 428.5,-250 428.5,-220 580.5,-220 580.5,-250"/>
<text text-anchor="start" x="436.5" y="-238" font-family="FreeSans" font-size="10.00">DGtal::concepts::CIncremental</text>
<text text-anchor="middle" x="504.5" y="-227" font-family="FreeSans" font-size="10.00">PrimitiveComputer&lt; T &gt;</text>
</a>
</g>
</g>
<!-- Node19&#45;&gt;Node20 -->
<g id="edge19" class="edge">
<title>Node19&#45;&gt;Node20</title>
<path fill="none" stroke="#63b8ff" d="M366.78,-235C386.94,-235 408.47,-235 428.35,-235"/>
<polygon fill="#63b8ff" stroke="#63b8ff" points="366.93,-231.5 356.93,-235 366.93,-238.5 366.93,-231.5"/>
</g>
<!-- Node21 -->
<g id="node21" class="node">
<title>Node21</title>
<g id="a_node21"><a xlink:href="structDGtal_1_1concepts_1_1CAdditivePrimitiveComputer.html" target="_top" xlink:title="Aim: Defines the concept describing an object that computes some primitive from input points given gr...">
<polygon fill="white" stroke="#666666" points="771.5,-250 634.5,-250 634.5,-220 771.5,-220 771.5,-250"/>
<text text-anchor="start" x="642.5" y="-238" font-family="FreeSans" font-size="10.00">DGtal::concepts::CAdditive</text>
<text text-anchor="middle" x="703" y="-227" font-family="FreeSans" font-size="10.00">PrimitiveComputer&lt; T &gt;</text>
</a>
</g>
</g>
<!-- Node20&#45;&gt;Node21 -->
<g id="edge20" class="edge">
<title>Node20&#45;&gt;Node21</title>
<path fill="none" stroke="#63b8ff" d="M592.12,-235C606.21,-235 620.63,-235 634.19,-235"/>
<polygon fill="#63b8ff" stroke="#63b8ff" points="592.42,-231.5 582.42,-235 592.42,-238.5 592.42,-231.5"/>
</g>
<!-- Node23 -->
<g id="node23" class="node">
<title>Node23</title>
<g id="a_node23"><a xlink:href="structDGtal_1_1concepts_1_1CSegmentFactory.html" target="_top" xlink:title="Aim: Defines the concept describing a segment ie. a valid and not empty subrange, which can construct...">
<polygon fill="white" stroke="#666666" points="574.5,-202 434.5,-202 434.5,-172 574.5,-172 574.5,-202"/>
<text text-anchor="start" x="442.5" y="-190" font-family="FreeSans" font-size="10.00">DGtal::concepts::CSegment</text>
<text text-anchor="middle" x="504.5" y="-179" font-family="FreeSans" font-size="10.00">Factory&lt; T &gt;</text>
</a>
</g>
</g>
<!-- Node22&#45;&gt;Node23 -->
<g id="edge22" class="edge">
<title>Node22&#45;&gt;Node23</title>
<path fill="none" stroke="#63b8ff" d="M378.74,-189.87C397.29,-189.44 416.47,-189 434.06,-188.6"/>
<polygon fill="#63b8ff" stroke="#63b8ff" points="378.73,-186.37 368.81,-190.1 378.89,-193.37 378.73,-186.37"/>
</g>
<!-- Node24 -->
<g id="node24" class="node">
<title>Node24</title>
<g id="a_node24"><a xlink:href="structDGtal_1_1concepts_1_1CIncrementalSegmentComputer.html" target="_top" xlink:title="Aim: Defines the concept describing an incremental segment computer, &#160;&#160;ie. a model of CSegmentFactory...">
<polygon fill="white" stroke="#666666" points="779,-202 627,-202 627,-172 779,-172 779,-202"/>
<text text-anchor="start" x="635" y="-190" font-family="FreeSans" font-size="10.00">DGtal::concepts::CIncremental</text>
<text text-anchor="middle" x="703" y="-179" font-family="FreeSans" font-size="10.00">SegmentComputer&lt; T &gt;</text>
</a>
</g>
</g>
<!-- Node23&#45;&gt;Node24 -->
<g id="edge23" class="edge">
<title>Node23&#45;&gt;Node24</title>
<path fill="none" stroke="#63b8ff" d="M585.96,-187C599.42,-187 613.34,-187 626.67,-187"/>
<polygon fill="#63b8ff" stroke="#63b8ff" points="586.29,-183.5 576.29,-187 586.29,-190.5 586.29,-183.5"/>
</g>
<!-- Node25 -->
<g id="node25" class="node">
<title>Node25</title>
<g id="a_node25"><a xlink:href="structDGtal_1_1concepts_1_1CForwardSegmentComputer.html" target="_top" xlink:title="Aim: Defines the concept describing a forward segment computer. Like any model of CIncrementalSegment...">
<polygon fill="white" stroke="#666666" points="952,-202 815,-202 815,-172 952,-172 952,-202"/>
<text text-anchor="start" x="823" y="-190" font-family="FreeSans" font-size="10.00">DGtal::concepts::CForward</text>
<text text-anchor="middle" x="883.5" y="-179" font-family="FreeSans" font-size="10.00">SegmentComputer&lt; T &gt;</text>
</a>
</g>
</g>
<!-- Node24&#45;&gt;Node25 -->
<g id="edge24" class="edge">
<title>Node24&#45;&gt;Node25</title>
<path fill="none" stroke="#63b8ff" d="M790.76,-187C798.8,-187 806.86,-187 814.69,-187"/>
<polygon fill="#63b8ff" stroke="#63b8ff" points="790.95,-183.5 780.95,-187 790.95,-190.5 790.95,-183.5"/>
</g>
<!-- Node26 -->
<g id="node26" class="node">
<title>Node26</title>
<g id="a_node26"><a xlink:href="structDGtal_1_1concepts_1_1CBidirectionalSegmentComputer.html" target="_top" xlink:title="Aim: Defines the concept describing a bidirectional segment computer, &#160;&#160;ie. a model of concepts::CSeg...">
<polygon fill="white" stroke="#666666" points="1143,-226 988,-226 988,-196 1143,-196 1143,-226"/>
<text text-anchor="start" x="996" y="-214" font-family="FreeSans" font-size="10.00">DGtal::concepts::CBidirectional</text>
<text text-anchor="middle" x="1065.5" y="-203" font-family="FreeSans" font-size="10.00">SegmentComputer&lt; T &gt;</text>
</a>
</g>
</g>
<!-- Node25&#45;&gt;Node26 -->
<g id="edge25" class="edge">
<title>Node25&#45;&gt;Node26</title>
<path fill="none" stroke="#63b8ff" d="M963.54,-197.54C971.56,-198.61 979.71,-199.69 987.71,-200.76"/>
<polygon fill="#63b8ff" stroke="#63b8ff" points="964.17,-194.09 953.79,-196.24 963.24,-201.03 964.17,-194.09"/>
</g>
<!-- Node28 -->
<g id="node28" class="node">
<title>Node28</title>
<g id="a_node28"><a xlink:href="structDGtal_1_1concepts_1_1CDynamicSegmentComputer.html" target="_top" xlink:title="Aim: Defines the concept describing a dynamic segment computer, &#160;&#160;ie. a model of CSegment that can ex...">
<polygon fill="white" stroke="#666666" points="1135.5,-178 995.5,-178 995.5,-148 1135.5,-148 1135.5,-178"/>
<text text-anchor="start" x="1003.5" y="-166" font-family="FreeSans" font-size="10.00">DGtal::concepts::CDynamic</text>
<text text-anchor="middle" x="1065.5" y="-155" font-family="FreeSans" font-size="10.00">SegmentComputer&lt; T &gt;</text>
</a>
</g>
</g>
<!-- Node25&#45;&gt;Node28 -->
<g id="edge27" class="edge">
<title>Node25&#45;&gt;Node28</title>
<path fill="none" stroke="#63b8ff" d="M963.63,-176.45C974.17,-175.04 984.91,-173.61 995.27,-172.23"/>
<polygon fill="#63b8ff" stroke="#63b8ff" points="963.24,-172.97 953.79,-177.76 964.17,-179.91 963.24,-172.97"/>
</g>
<!-- Node27 -->
<g id="node27" class="node">
<title>Node27</title>
<g id="a_node27"><a xlink:href="structDGtal_1_1concepts_1_1CDynamicBidirectionalSegmentComputer.html" target="_top" xlink:title="Aim: Defines the concept describing a dynamic and bidirectional segment computer, ie....">
<polygon fill="white" stroke="#666666" points="1355,-202 1179,-202 1179,-172 1355,-172 1355,-202"/>
<text text-anchor="start" x="1187" y="-190" font-family="FreeSans" font-size="10.00">DGtal::concepts::CDynamic</text>
<text text-anchor="middle" x="1267" y="-179" font-family="FreeSans" font-size="10.00">BidirectionalSegmentComputer&lt; T &gt;</text>
</a>
</g>
</g>
<!-- Node26&#45;&gt;Node27 -->
<g id="edge26" class="edge">
<title>Node26&#45;&gt;Node27</title>
<path fill="none" stroke="#63b8ff" d="M1154.53,-200.41C1162.51,-199.45 1170.58,-198.48 1178.55,-197.52"/>
<polygon fill="#63b8ff" stroke="#63b8ff" points="1154.36,-196.91 1144.85,-201.57 1155.2,-203.85 1154.36,-196.91"/>
</g>
<!-- Node28&#45;&gt;Node27 -->
<g id="edge28" class="edge">
<title>Node28&#45;&gt;Node27</title>
<path fill="none" stroke="#63b8ff" d="M1147.41,-172.73C1157.65,-173.97 1168.17,-175.23 1178.5,-176.47"/>
<polygon fill="#63b8ff" stroke="#63b8ff" points="1147.84,-169.26 1137.5,-171.54 1147.01,-176.21 1147.84,-169.26"/>
</g>
<!-- Node32 -->
<g id="node32" class="node">
<title>Node32</title>
<g id="a_node32"><a xlink:href="structDGtal_1_1concepts_1_1CDigitalSurfaceLocalEstimator.html" target="_top" xlink:title="Aim: This concept describes an object that can process a range over some generic digital surface so a...">
<polygon fill="white" stroke="#666666" points="574.5,-78 434.5,-78 434.5,-48 574.5,-48 574.5,-78"/>
<text text-anchor="start" x="442.5" y="-66" font-family="FreeSans" font-size="10.00">DGtal::concepts::CDigital</text>
<text text-anchor="middle" x="504.5" y="-55" font-family="FreeSans" font-size="10.00">SurfaceLocalEstimator&lt; T &gt;</text>
</a>
</g>
</g>
<!-- Node31&#45;&gt;Node32 -->
<g id="edge32" class="edge">
<title>Node31&#45;&gt;Node32</title>
<path fill="none" stroke="#63b8ff" d="M360.1,-63C384.1,-63 410.62,-63 434.25,-63"/>
<polygon fill="#63b8ff" stroke="#63b8ff" points="360.42,-59.5 350.42,-63 360.42,-66.5 360.42,-59.5"/>
</g>
</g>
</svg>
