<?xml version="1.0" encoding="UTF-8" standalone="no"?>
<!DOCTYPE svg PUBLIC "-//W3C//DTD SVG 1.1//EN"
 "http://www.w3.org/Graphics/SVG/1.1/DTD/svg11.dtd">
<!-- Generated by graphviz version 11.0.0 (20240428.1522)
 -->
<!-- Title: DGtal::concepts::CDigitalSurfaceEmbedder&lt; T &gt; Pages: 1 -->
<svg width="304pt" height="360pt"
 viewBox="0.00 0.00 304.00 359.75" xmlns="http://www.w3.org/2000/svg" xmlns:xlink="http://www.w3.org/1999/xlink">
<g id="graph0" class="graph" transform="scale(1 1) rotate(0) translate(4 355.75)">
<title>DGtal::concepts::CDigitalSurfaceEmbedder&lt; T &gt;</title>
<!-- Node1 -->
<g id="Node000001" class="node">
<title>Node1</title>
<g id="a_Node000001"><a xlink:title="Aim: A digital surface embedder is a specialized mapping from signed cells to Euclidean points....">
<polygon fill="#999999" stroke="#666666" points="168.25,-30.5 39.75,-30.5 39.75,0 168.25,0 168.25,-30.5"/>
<text text-anchor="start" x="47.75" y="-17" font-family="FreeSans" font-size="10.00">DGtal::concepts::CDigital</text>
<text text-anchor="middle" x="104" y="-5.75" font-family="FreeSans" font-size="10.00">SurfaceEmbedder&lt; T &gt;</text>
</a>
</g>
</g>
<!-- Node2 -->
<g id="Node000002" class="node">
<title>Node2</title>
<g id="a_Node000002"><a xlink:href="structDGtal_1_1concepts_1_1CSCellEmbedder.html" target="_top" xlink:title="Aim: A cell embedder is a mapping from signed cells to Euclidean points. It adds inner types to funct...">
<polygon fill="white" stroke="#666666" points="200.5,-85.75 7.5,-85.75 7.5,-66.5 200.5,-66.5 200.5,-85.75"/>
<text text-anchor="middle" x="104" y="-72.25" font-family="FreeSans" font-size="10.00">DGtal::concepts::CSCellEmbedder&lt; T &gt;</text>
</a>
</g>
</g>
<!-- Node2&#45;&gt;Node1 -->
<g id="edge1_Node000001_Node000002" class="edge">
<title>Node2&#45;&gt;Node1</title>
<g id="a_edge1_Node000001_Node000002"><a xlink:title=" ">
<path fill="none" stroke="#63b8ff" d="M104,-54.92C104,-46.99 104,-38.06 104,-30.78"/>
<polygon fill="#63b8ff" stroke="#63b8ff" points="100.5,-54.67 104,-64.67 107.5,-54.67 100.5,-54.67"/>
</a>
</g>
</g>
<!-- Node3 -->
<g id="Node000003" class="node">
<title>Node3</title>
<g id="a_Node000003"><a xlink:href="structDGtal_1_1concepts_1_1CUnaryFunctor.html" target="_top" xlink:title=" ">
<polygon fill="white" stroke="#666666" points="184,-152.25 24,-152.25 24,-121.75 184,-121.75 184,-152.25"/>
<text text-anchor="start" x="32" y="-138.75" font-family="FreeSans" font-size="10.00">DGtal::concepts::CUnaryFunctor</text>
<text text-anchor="middle" x="104" y="-127.5" font-family="FreeSans" font-size="10.00">&lt; T, T::SCell, T::RealPoint &gt;</text>
</a>
</g>
</g>
<!-- Node3&#45;&gt;Node2 -->
<g id="edge2_Node000002_Node000003" class="edge">
<title>Node3&#45;&gt;Node2</title>
<g id="a_edge2_Node000002_Node000003"><a xlink:title=" ">
<path fill="none" stroke="#63b8ff" d="M104,-109.98C104,-101.48 104,-92.59 104,-86.2"/>
<polygon fill="#63b8ff" stroke="#63b8ff" points="100.5,-109.93 104,-119.93 107.5,-109.93 100.5,-109.93"/>
</a>
</g>
</g>
<!-- Node4 -->
<g id="Node000004" class="node">
<title>Node4</title>
<g id="a_Node000004"><a xlink:href="structboost_1_1Assignable.html" target="_top" xlink:title="Go to http://www.sgi.com/tech/stl/Assignable.html.">
<polygon fill="white" stroke="#666666" points="118,-224.38 0,-224.38 0,-205.12 118,-205.12 118,-224.38"/>
<text text-anchor="middle" x="59" y="-210.88" font-family="FreeSans" font-size="10.00">boost::Assignable&lt; T &gt;</text>
</a>
</g>
</g>
<!-- Node4&#45;&gt;Node3 -->
<g id="edge3_Node000003_Node000004" class="edge">
<title>Node4&#45;&gt;Node3</title>
<g id="a_edge3_Node000003_Node000004"><a xlink:title=" ">
<path fill="none" stroke="#63b8ff" d="M70.16,-194.96C77.92,-181.9 88.11,-164.75 95.27,-152.69"/>
<polygon fill="#63b8ff" stroke="#63b8ff" points="67.21,-193.08 65.11,-203.46 73.23,-196.65 67.21,-193.08"/>
</a>
</g>
</g>
<!-- Node5 -->
<g id="Node000005" class="node">
<title>Node5</title>
<g id="a_Node000005"><a xlink:href="structDGtal_1_1concepts_1_1CUnaryFunctor.html" target="_top" xlink:title="Aim: Defines a unary functor, which associates arguments to results.">
<polygon fill="white" stroke="#666666" points="296,-230 136,-230 136,-199.5 296,-199.5 296,-230"/>
<text text-anchor="start" x="144" y="-216.5" font-family="FreeSans" font-size="10.00">DGtal::concepts::CUnaryFunctor</text>
<text text-anchor="middle" x="216" y="-205.25" font-family="FreeSans" font-size="10.00">&lt; X, A, R &gt;</text>
</a>
</g>
</g>
<!-- Node5&#45;&gt;Node3 -->
<g id="edge4_Node000003_Node000005" class="edge">
<title>Node5&#45;&gt;Node3</title>
<g id="a_edge4_Node000003_Node000005"><a xlink:title=" ">
<path fill="none" stroke="orange" stroke-dasharray="5,2" d="M185.01,-192.79C166.1,-180 142.4,-163.97 125.53,-152.56"/>
<polygon fill="orange" stroke="orange" points="182.91,-195.59 193.15,-198.3 186.83,-189.8 182.91,-195.59"/>
</a>
</g>
<text text-anchor="middle" x="228.62" y="-172" font-family="FreeSans" font-size="10.00" fill="grey"> &lt; T, T::SCell, T::RealPoint &gt;</text>
</g>
<!-- Node6 -->
<g id="Node000006" class="node">
<title>Node6</title>
<g id="a_Node000006"><a xlink:href="structboost_1_1Assignable.html" target="_top" xlink:title=" ">
<polygon fill="white" stroke="#666666" points="275.38,-285.25 156.62,-285.25 156.62,-266 275.38,-266 275.38,-285.25"/>
<text text-anchor="middle" x="216" y="-271.75" font-family="FreeSans" font-size="10.00">boost::Assignable&lt; X &gt;</text>
</a>
</g>
</g>
<!-- Node6&#45;&gt;Node5 -->
<g id="edge5_Node000005_Node000006" class="edge">
<title>Node6&#45;&gt;Node5</title>
<g id="a_edge5_Node000005_Node000006"><a xlink:title=" ">
<path fill="none" stroke="#63b8ff" d="M216,-254.42C216,-246.49 216,-237.56 216,-230.28"/>
<polygon fill="#63b8ff" stroke="#63b8ff" points="212.5,-254.17 216,-264.17 219.5,-254.17 212.5,-254.17"/>
</a>
</g>
</g>
<!-- Node7 -->
<g id="Node000007" class="node">
<title>Node7</title>
<g id="a_Node000007"><a xlink:href="structboost_1_1Assignable.html" target="_top" xlink:title="Go to http://www.sgi.com/tech/stl/Assignable.html.">
<polygon fill="white" stroke="#666666" points="275,-351.75 157,-351.75 157,-332.5 275,-332.5 275,-351.75"/>
<text text-anchor="middle" x="216" y="-338.25" font-family="FreeSans" font-size="10.00">boost::Assignable&lt; T &gt;</text>
</a>
</g>
</g>
<!-- Node7&#45;&gt;Node6 -->
<g id="edge6_Node000006_Node000007" class="edge">
<title>Node7&#45;&gt;Node6</title>
<g id="a_edge6_Node000006_Node000007"><a xlink:title=" ">
<path fill="none" stroke="orange" stroke-dasharray="5,2" d="M216,-320.65C216,-308.82 216,-294.54 216,-285.52"/>
<polygon fill="orange" stroke="orange" points="212.5,-320.64 216,-330.64 219.5,-320.64 212.5,-320.64"/>
</a>
</g>
<text text-anchor="middle" x="229.88" y="-305" font-family="FreeSans" font-size="10.00" fill="grey"> &lt; X &gt;</text>
</g>
</g>
</svg>
