<?xml version="1.0" encoding="UTF-8" standalone="no"?>
<!DOCTYPE svg PUBLIC "-//W3C//DTD SVG 1.1//EN"
 "http://www.w3.org/Graphics/SVG/1.1/DTD/svg11.dtd">
<!-- Generated by graphviz version 13.1.2 (20250808.2320)
 -->
<!-- Title: DGtal::concepts::CPointEmbedder&lt; T &gt; Pages: 1 -->
<svg width="306pt" height="307pt"
 viewBox="0.00 0.00 306.00 307.00" xmlns="http://www.w3.org/2000/svg" xmlns:xlink="http://www.w3.org/1999/xlink">
<g id="graph0" class="graph" transform="scale(1 1) rotate(0) translate(4 303.25)">
<title>DGtal::concepts::CPointEmbedder&lt; T &gt;</title>
<!-- Node1 -->
<g id="Node000001" class="node">
<title>Node1</title>
<g id="a_Node000001"><a xlink:title="Aim: A point embedder is a mapping from digital points to Euclidean points. It adds inner types to fu...">
<polygon fill="#999999" stroke="#666666" points="201.75,-19.25 10.25,-19.25 10.25,0 201.75,0 201.75,-19.25"/>
<text xml:space="preserve" text-anchor="middle" x="106" y="-5.75" font-family="FreeSans" font-size="10.00">DGtal::concepts::CPointEmbedder&lt; T &gt;</text>
</a>
</g>
</g>
<!-- Node2 -->
<g id="Node000002" class="node">
<title>Node2</title>
<g id="a_Node000002"><a xlink:href="structDGtal_1_1concepts_1_1CUnaryFunctor.html" target="_top" xlink:title=" ">
<polygon fill="white" stroke="#666666" points="186,-86.75 26,-86.75 26,-56.25 186,-56.25 186,-86.75"/>
<text xml:space="preserve" text-anchor="start" x="34" y="-73.25" font-family="FreeSans" font-size="10.00">DGtal::concepts::CUnaryFunctor</text>
<text xml:space="preserve" text-anchor="middle" x="106" y="-62" font-family="FreeSans" font-size="10.00">&lt; T, T::Point, T::RealPoint &gt;</text>
</a>
</g>
</g>
<!-- Node2&#45;&gt;Node1 -->
<g id="edge1_Node000001_Node000002" class="edge">
<title>Node2&#45;&gt;Node1</title>
<g id="a_edge1_Node000001_Node000002"><a xlink:title=" ">
<path fill="none" stroke="#63b8ff" d="M106,-44.77C106,-35.79 106,-26.29 106,-19.6"/>
<polygon fill="#63b8ff" stroke="#63b8ff" points="102.5,-44.49 106,-54.49 109.5,-44.49 102.5,-44.49"/>
</a>
</g>
</g>
<!-- Node3 -->
<g id="Node000003" class="node">
<title>Node3</title>
<g id="a_Node000003"><a xlink:href="structboost_1_1Assignable.html" target="_top" xlink:title="Go to http://www.sgi.com/tech/stl/Assignable.html.">
<polygon fill="white" stroke="#666666" points="118,-164.88 0,-164.88 0,-145.62 118,-145.62 118,-164.88"/>
<text xml:space="preserve" text-anchor="middle" x="59" y="-151.38" font-family="FreeSans" font-size="10.00">boost::Assignable&lt; T &gt;</text>
</a>
</g>
</g>
<!-- Node3&#45;&gt;Node2 -->
<g id="edge2_Node000002_Node000003" class="edge">
<title>Node3&#45;&gt;Node2</title>
<g id="a_edge2_Node000002_Node000003"><a xlink:title=" ">
<path fill="none" stroke="#63b8ff" d="M69.71,-135.63C78.16,-120.92 89.8,-100.67 97.6,-87.11"/>
<polygon fill="#63b8ff" stroke="#63b8ff" points="66.91,-133.46 64.96,-143.88 72.98,-136.95 66.91,-133.46"/>
</a>
</g>
</g>
<!-- Node4 -->
<g id="Node000004" class="node">
<title>Node4</title>
<g id="a_Node000004"><a xlink:href="structDGtal_1_1concepts_1_1CUnaryFunctor.html" target="_top" xlink:title="Aim: Defines a unary functor, which associates arguments to results.">
<polygon fill="white" stroke="#666666" points="296,-170.5 136,-170.5 136,-140 296,-140 296,-170.5"/>
<text xml:space="preserve" text-anchor="start" x="144" y="-157" font-family="FreeSans" font-size="10.00">DGtal::concepts::CUnaryFunctor</text>
<text xml:space="preserve" text-anchor="middle" x="216" y="-145.75" font-family="FreeSans" font-size="10.00">&lt; X, A, R &gt;</text>
</a>
</g>
</g>
<!-- Node4&#45;&gt;Node2 -->
<g id="edge3_Node000002_Node000004" class="edge">
<title>Node4&#45;&gt;Node2</title>
<g id="a_edge3_Node000002_Node000004"><a xlink:title=" ">
<path fill="none" stroke="orange" stroke-dasharray="5,2" d="M187.31,-132.92C167.85,-118.47 142.65,-99.74 125.5,-86.99"/>
<polygon fill="orange" stroke="orange" points="185.01,-135.58 195.12,-138.73 189.18,-129.96 185.01,-135.58"/>
</a>
</g>
<text xml:space="preserve" text-anchor="start" x="173.85" y="-109.5" font-family="FreeSans" font-size="10.00" fill="grey">&lt; T, T::Point, T::RealPoint &gt;</text>
</g>
<!-- Node5 -->
<g id="Node000005" class="node">
<title>Node5</title>
<g id="a_Node000005"><a xlink:href="structboost_1_1Assignable.html" target="_top" xlink:title=" ">
<polygon fill="white" stroke="#666666" points="275.38,-226.75 156.62,-226.75 156.62,-207.5 275.38,-207.5 275.38,-226.75"/>
<text xml:space="preserve" text-anchor="middle" x="216" y="-213.25" font-family="FreeSans" font-size="10.00">boost::Assignable&lt; X &gt;</text>
</a>
</g>
</g>
<!-- Node5&#45;&gt;Node4 -->
<g id="edge4_Node000004_Node000005" class="edge">
<title>Node5&#45;&gt;Node4</title>
<g id="a_edge4_Node000004_Node000005"><a xlink:title=" ">
<path fill="none" stroke="#63b8ff" d="M216,-195.69C216,-187.43 216,-178.09 216,-170.57"/>
<polygon fill="#63b8ff" stroke="#63b8ff" points="212.5,-195.52 216,-205.52 219.5,-195.52 212.5,-195.52"/>
</a>
</g>
</g>
<!-- Node6 -->
<g id="Node000006" class="node">
<title>Node6</title>
<g id="a_Node000006"><a xlink:href="structboost_1_1Assignable.html" target="_top" xlink:title="Go to http://www.sgi.com/tech/stl/Assignable.html.">
<polygon fill="white" stroke="#666666" points="275,-299.25 157,-299.25 157,-280 275,-280 275,-299.25"/>
<text xml:space="preserve" text-anchor="middle" x="216" y="-285.75" font-family="FreeSans" font-size="10.00">boost::Assignable&lt; T &gt;</text>
</a>
</g>
</g>
<!-- Node6&#45;&gt;Node5 -->
<g id="edge5_Node000005_Node000006" class="edge">
<title>Node6&#45;&gt;Node5</title>
<g id="a_edge5_Node000005_Node000006"><a xlink:title=" ">
<path fill="none" stroke="orange" stroke-dasharray="5,2" d="M216,-268.55C216,-254.94 216,-237.6 216,-227.2"/>
<polygon fill="orange" stroke="orange" points="212.5,-268.18 216,-278.18 219.5,-268.18 212.5,-268.18"/>
</a>
</g>
<text xml:space="preserve" text-anchor="start" x="219" y="-249.5" font-family="FreeSans" font-size="10.00" fill="grey">&lt; X &gt;</text>
</g>
</g>
</svg>
