<?xml version="1.0" encoding="UTF-8" standalone="no"?>
<!DOCTYPE svg PUBLIC "-//W3C//DTD SVG 1.1//EN"
 "http://www.w3.org/Graphics/SVG/1.1/DTD/svg11.dtd">
<!-- Generated by graphviz version 13.1.2 (20250808.2320)
 -->
<!-- Title: DGtal::concepts::CVertexPredicate&lt; T &gt; Pages: 1 -->
<svg width="1402pt" height="105pt"
 viewBox="0.00 0.00 1402.00 105.00" xmlns="http://www.w3.org/2000/svg" xmlns:xlink="http://www.w3.org/1999/xlink">
<g id="graph0" class="graph" transform="scale(1 1) rotate(0) translate(4 101.13)">
<title>DGtal::concepts::CVertexPredicate&lt; T &gt;</title>
<!-- Node1 -->
<g id="Node000001" class="node">
<title>Node1</title>
<g id="a_Node000001"><a xlink:title="Aim: Defines a predicate on a vertex.">
<polygon fill="#999999" stroke="#666666" points="1393.75,-69.75 1264.5,-69.75 1264.5,-39.25 1393.75,-39.25 1393.75,-69.75"/>
<text xml:space="preserve" text-anchor="start" x="1272.5" y="-56.25" font-family="FreeSans" font-size="10.00">DGtal::concepts::CVertex</text>
<text xml:space="preserve" text-anchor="middle" x="1329.12" y="-45" font-family="FreeSans" font-size="10.00">Predicate&lt; T &gt;</text>
</a>
</g>
</g>
<!-- Node2 -->
<g id="Node000002" class="node">
<title>Node2</title>
<g id="a_Node000002"><a xlink:href="structDGtal_1_1concepts_1_1CPredicate.html" target="_top" xlink:title=" ">
<polygon fill="white" stroke="#666666" points="1227.5,-69.75 1085.5,-69.75 1085.5,-39.25 1227.5,-39.25 1227.5,-69.75"/>
<text xml:space="preserve" text-anchor="start" x="1093.5" y="-56.25" font-family="FreeSans" font-size="10.00">DGtal::concepts::CPredicate</text>
<text xml:space="preserve" text-anchor="middle" x="1156.5" y="-45" font-family="FreeSans" font-size="10.00">&lt; T, T::Vertex &gt;</text>
</a>
</g>
</g>
<!-- Node2&#45;&gt;Node1 -->
<g id="edge1_Node000001_Node000002" class="edge">
<title>Node2&#45;&gt;Node1</title>
<g id="a_edge1_Node000001_Node000002"><a xlink:title=" ">
<path fill="none" stroke="#63b8ff" d="M1239.25,-54.5C1247.62,-54.5 1256.05,-54.5 1264.19,-54.5"/>
<polygon fill="#63b8ff" stroke="#63b8ff" points="1239.4,-51 1229.4,-54.5 1239.4,-58 1239.4,-51"/>
</a>
</g>
</g>
<!-- Node3 -->
<g id="Node000003" class="node">
<title>Node3</title>
<g id="a_Node000003"><a xlink:href="structDGtal_1_1concepts_1_1CUnaryFunctor.html" target="_top" xlink:title=" ">
<polygon fill="white" stroke="#666666" points="797,-91.75 637,-91.75 637,-61.25 797,-61.25 797,-91.75"/>
<text xml:space="preserve" text-anchor="start" x="645" y="-78.25" font-family="FreeSans" font-size="10.00">DGtal::concepts::CUnaryFunctor</text>
<text xml:space="preserve" text-anchor="middle" x="717" y="-67" font-family="FreeSans" font-size="10.00">&lt; T, T::Vertex, bool &gt;</text>
</a>
</g>
</g>
<!-- Node3&#45;&gt;Node2 -->
<g id="edge2_Node000002_Node000003" class="edge">
<title>Node3&#45;&gt;Node2</title>
<g id="a_edge2_Node000002_Node000003"><a xlink:title=" ">
<path fill="none" stroke="#63b8ff" d="M808.67,-73.52C879.25,-70.98 979.64,-66.88 1067.5,-61.5 1073.31,-61.15 1079.34,-60.74 1085.39,-60.31"/>
<polygon fill="#63b8ff" stroke="#63b8ff" points="808.54,-70.02 798.68,-73.88 808.79,-77.02 808.54,-70.02"/>
</a>
</g>
</g>
<!-- Node4 -->
<g id="Node000004" class="node">
<title>Node4</title>
<g id="a_Node000004"><a xlink:href="structboost_1_1Assignable.html" target="_top" xlink:title="Go to http://www.sgi.com/tech/stl/Assignable.html.">
<polygon fill="white" stroke="#666666" points="479.5,-97.13 361.5,-97.13 361.5,-77.88 479.5,-77.88 479.5,-97.13"/>
<text xml:space="preserve" text-anchor="middle" x="420.5" y="-83.63" font-family="FreeSans" font-size="10.00">boost::Assignable&lt; T &gt;</text>
</a>
</g>
</g>
<!-- Node4&#45;&gt;Node3 -->
<g id="edge3_Node000003_Node000004" class="edge">
<title>Node4&#45;&gt;Node3</title>
<g id="a_edge3_Node000003_Node000004"><a xlink:title=" ">
<path fill="none" stroke="#63b8ff" d="M491.29,-88.81C529.11,-89.1 576.65,-88.79 619,-86.5 624.75,-86.19 630.68,-85.79 636.65,-85.32"/>
<polygon fill="#63b8ff" stroke="#63b8ff" points="491.42,-85.31 481.39,-88.72 491.36,-92.31 491.42,-85.31"/>
</a>
</g>
</g>
<!-- Node9 -->
<g id="Node000009" class="node">
<title>Node9</title>
<g id="a_Node000009"><a xlink:href="structDGtal_1_1concepts_1_1CUnaryFunctor.html" target="_top" xlink:title=" ">
<polygon fill="white" stroke="#666666" points="797,-42.75 637,-42.75 637,-12.25 797,-12.25 797,-42.75"/>
<text xml:space="preserve" text-anchor="start" x="645" y="-29.25" font-family="FreeSans" font-size="10.00">DGtal::concepts::CUnaryFunctor</text>
<text xml:space="preserve" text-anchor="middle" x="717" y="-18" font-family="FreeSans" font-size="10.00">&lt; T, TElement, bool &gt;</text>
</a>
</g>
</g>
<!-- Node4&#45;&gt;Node9 -->
<g id="edge9_Node000009_Node000004" class="edge">
<title>Node4&#45;&gt;Node9</title>
<g id="a_edge9_Node000009_Node000004"><a xlink:title=" ">
<path fill="none" stroke="#63b8ff" d="M490.7,-84.04C529.15,-80.72 577.47,-74.23 619,-61.5 627.55,-58.88 628.71,-55.86 637,-52.5 645.13,-49.21 653.88,-46.06 662.47,-43.18"/>
<polygon fill="#63b8ff" stroke="#63b8ff" points="490.81,-80.52 481.12,-84.81 491.37,-87.5 490.81,-80.52"/>
</a>
</g>
</g>
<!-- Node5 -->
<g id="Node000005" class="node">
<title>Node5</title>
<g id="a_Node000005"><a xlink:href="structDGtal_1_1concepts_1_1CUnaryFunctor.html" target="_top" xlink:title="Aim: Defines a unary functor, which associates arguments to results.">
<polygon fill="white" stroke="#666666" points="500.5,-45.75 340.5,-45.75 340.5,-15.25 500.5,-15.25 500.5,-45.75"/>
<text xml:space="preserve" text-anchor="start" x="348.5" y="-32.25" font-family="FreeSans" font-size="10.00">DGtal::concepts::CUnaryFunctor</text>
<text xml:space="preserve" text-anchor="middle" x="420.5" y="-21" font-family="FreeSans" font-size="10.00">&lt; X, A, R &gt;</text>
</a>
</g>
</g>
<!-- Node5&#45;&gt;Node3 -->
<g id="edge4_Node000003_Node000005" class="edge">
<title>Node5&#45;&gt;Node3</title>
<g id="a_edge4_Node000003_Node000005"><a xlink:title=" ">
<path fill="none" stroke="orange" stroke-dasharray="5,2" d="M512.11,-44.66C551.88,-50.87 598.15,-58.1 636.55,-64.09"/>
<polygon fill="orange" stroke="orange" points="512.72,-41.21 502.3,-43.12 511.64,-48.13 512.72,-41.21"/>
</a>
</g>
<text xml:space="preserve" text-anchor="start" x="523" y="-65.06" font-family="FreeSans" font-size="10.00" fill="grey">&lt; T, T::Vertex, bool &gt;</text>
</g>
<!-- Node5&#45;&gt;Node9 -->
<g id="edge10_Node000009_Node000005" class="edge">
<title>Node5&#45;&gt;Node9</title>
<g id="a_edge10_Node000009_Node000005"><a xlink:title=" ">
<path fill="none" stroke="orange" stroke-dasharray="5,2" d="M480.14,-11.97C492.67,-8.76 505.93,-5.92 518.5,-4.25 562.78,1.63 574.64,0.99 619,-4.25 632.5,-5.85 646.84,-8.65 660.24,-11.77"/>
<polygon fill="orange" stroke="orange" points="479.55,-8.5 470.8,-14.48 481.37,-15.27 479.55,-8.5"/>
</a>
</g>
<text xml:space="preserve" text-anchor="start" x="521.5" y="-9" font-family="FreeSans" font-size="10.00" fill="grey">&lt; T, TElement, bool &gt;</text>
</g>
<!-- Node6 -->
<g id="Node000006" class="node">
<title>Node6</title>
<g id="a_Node000006"><a xlink:href="structboost_1_1Assignable.html" target="_top" xlink:title=" ">
<polygon fill="white" stroke="#666666" points="303.5,-40.13 184.75,-40.13 184.75,-20.88 303.5,-20.88 303.5,-40.13"/>
<text xml:space="preserve" text-anchor="middle" x="244.12" y="-26.63" font-family="FreeSans" font-size="10.00">boost::Assignable&lt; X &gt;</text>
</a>
</g>
</g>
<!-- Node6&#45;&gt;Node5 -->
<g id="edge5_Node000005_Node000006" class="edge">
<title>Node6&#45;&gt;Node5</title>
<g id="a_edge5_Node000005_Node000006"><a xlink:title=" ">
<path fill="none" stroke="#63b8ff" d="M315.1,-30.5C323.3,-30.5 331.72,-30.5 340.04,-30.5"/>
<polygon fill="#63b8ff" stroke="#63b8ff" points="315.19,-27 305.19,-30.5 315.19,-34 315.19,-27"/>
</a>
</g>
</g>
<!-- Node7 -->
<g id="Node000007" class="node">
<title>Node7</title>
<g id="a_Node000007"><a xlink:href="structboost_1_1Assignable.html" target="_top" xlink:title="Go to http://www.sgi.com/tech/stl/Assignable.html.">
<polygon fill="white" stroke="#666666" points="118,-40.13 0,-40.13 0,-20.88 118,-20.88 118,-40.13"/>
<text xml:space="preserve" text-anchor="middle" x="59" y="-26.63" font-family="FreeSans" font-size="10.00">boost::Assignable&lt; T &gt;</text>
</a>
</g>
</g>
<!-- Node7&#45;&gt;Node6 -->
<g id="edge6_Node000006_Node000007" class="edge">
<title>Node7&#45;&gt;Node6</title>
<g id="a_edge6_Node000006_Node000007"><a xlink:title=" ">
<path fill="none" stroke="orange" stroke-dasharray="5,2" d="M129.76,-30.5C147.75,-30.5 166.92,-30.5 184.29,-30.5"/>
<polygon fill="orange" stroke="orange" points="129.96,-27 119.96,-30.5 129.96,-34 129.96,-27"/>
</a>
</g>
<text xml:space="preserve" text-anchor="start" x="139" y="-35.25" font-family="FreeSans" font-size="10.00" fill="grey">&lt; X &gt;</text>
</g>
<!-- Node8 -->
<g id="Node000008" class="node">
<title>Node8</title>
<g id="a_Node000008"><a xlink:href="structDGtal_1_1concepts_1_1CPredicate.html" target="_top" xlink:title="Aim: Defines a predicate function, ie. a functor mapping a domain into the set of booleans.">
<polygon fill="white" stroke="#666666" points="976,-46.75 834,-46.75 834,-16.25 976,-16.25 976,-46.75"/>
<text xml:space="preserve" text-anchor="start" x="842" y="-33.25" font-family="FreeSans" font-size="10.00">DGtal::concepts::CPredicate</text>
<text xml:space="preserve" text-anchor="middle" x="905" y="-22" font-family="FreeSans" font-size="10.00">&lt; T, TElement &gt;</text>
</a>
</g>
</g>
<!-- Node8&#45;&gt;Node2 -->
<g id="edge7_Node000002_Node000008" class="edge">
<title>Node8&#45;&gt;Node2</title>
<g id="a_edge7_Node000002_Node000008"><a xlink:title=" ">
<path fill="none" stroke="orange" stroke-dasharray="5,2" d="M987.57,-37.35C1013.17,-39.34 1041.53,-41.72 1067.5,-44.25 1073.32,-44.82 1079.35,-45.45 1085.4,-46.1"/>
<polygon fill="orange" stroke="orange" points="988.15,-33.88 977.91,-36.61 987.61,-40.86 988.15,-33.88"/>
</a>
</g>
<text xml:space="preserve" text-anchor="start" x="997" y="-49" font-family="FreeSans" font-size="10.00" fill="grey">&lt; T, T::Vertex &gt;</text>
</g>
<!-- Node9&#45;&gt;Node8 -->
<g id="edge8_Node000008_Node000009" class="edge">
<title>Node9&#45;&gt;Node8</title>
<g id="a_edge8_Node000008_Node000009"><a xlink:title=" ">
<path fill="none" stroke="#63b8ff" d="M808.78,-29.46C817.14,-29.64 825.52,-29.82 833.66,-29.99"/>
<polygon fill="#63b8ff" stroke="#63b8ff" points="809.01,-25.96 798.93,-29.24 808.86,-32.96 809.01,-25.96"/>
</a>
</g>
</g>
</g>
</svg>
