<?xml version="1.0" encoding="UTF-8" standalone="no"?>
<!DOCTYPE svg PUBLIC "-//W3C//DTD SVG 1.1//EN"
 "http://www.w3.org/Graphics/SVG/1.1/DTD/svg11.dtd">
<!-- Generated by graphviz version 7.0.1 (20221109.1506)
 -->
<!-- Title: DGtal::concepts::CAdjacency&lt; Adj &gt; Pages: 1 -->
<svg width="179pt" height="315pt"
 viewBox="0.00 0.00 179.00 315.00" xmlns="http://www.w3.org/2000/svg" xmlns:xlink="http://www.w3.org/1999/xlink">
<g id="graph0" class="graph" transform="scale(1 1) rotate(0) translate(4 311)">
<title>DGtal::concepts::CAdjacency&lt; Adj &gt;</title>
<!-- Node1 -->
<g id="node1" class="node">
<title>Node1</title>
<g id="a_node1"><a xlink:title="Aim: The concept CAdjacency defines an elementary adjacency relation between points of a digital spac...">
<polygon fill="#999999" stroke="#666666" points="159,-163 12,-163 12,-133 159,-133 159,-163"/>
<text text-anchor="start" x="20" y="-151" font-family="FreeSans" font-size="10.00">DGtal::concepts::CAdjacency</text>
<text text-anchor="middle" x="85.5" y="-140" font-family="FreeSans" font-size="10.00">&lt; Adj &gt;</text>
</a>
</g>
</g>
<!-- Node4 -->
<g id="node4" class="node">
<title>Node4</title>
<g id="a_node4"><a xlink:href="structDGtal_1_1concepts_1_1CAdjacency.html" target="_top" xlink:title=" ">
<polygon fill="white" stroke="#666666" points="171,-86 0,-86 0,-67 171,-67 171,-86"/>
<text text-anchor="middle" x="85.5" y="-74" font-family="FreeSans" font-size="10.00">DGtal::concepts::CAdjacency&lt; T &gt;</text>
</a>
</g>
</g>
<!-- Node1&#45;&gt;Node4 -->
<g id="edge3" class="edge">
<title>Node1&#45;&gt;Node4</title>
<path fill="none" stroke="orange" stroke-dasharray="5,2" d="M85.5,-121.46C85.5,-109.07 85.5,-94.99 85.5,-86.18"/>
<polygon fill="orange" stroke="orange" points="82,-121.09 85.5,-131.09 89,-121.09 82,-121.09"/>
<text text-anchor="middle" x="99.5" y="-107" font-family="FreeSans" font-size="10.00"> &lt; T &gt;</text>
</g>
<!-- Node2 -->
<g id="node2" class="node">
<title>Node2</title>
<g id="a_node2"><a xlink:href="structDGtal_1_1concepts_1_1CUndirectedSimpleLocalGraph.html" target="_top" xlink:title=" ">
<polygon fill="white" stroke="#666666" points="160,-230 11,-230 11,-200 160,-200 160,-230"/>
<text text-anchor="start" x="19" y="-218" font-family="FreeSans" font-size="10.00">DGtal::concepts::CUndirected</text>
<text text-anchor="middle" x="85.5" y="-207" font-family="FreeSans" font-size="10.00">SimpleLocalGraph&lt; Adj &gt;</text>
</a>
</g>
</g>
<!-- Node2&#45;&gt;Node1 -->
<g id="edge1" class="edge">
<title>Node2&#45;&gt;Node1</title>
<path fill="none" stroke="#63b8ff" d="M85.5,-188.28C85.5,-179.81 85.5,-170.7 85.5,-163.39"/>
<polygon fill="#63b8ff" stroke="#63b8ff" points="82,-188.06 85.5,-198.06 89,-188.06 82,-188.06"/>
</g>
<!-- Node3 -->
<g id="node3" class="node">
<title>Node3</title>
<g id="a_node3"><a xlink:href="structDGtal_1_1concepts_1_1CUndirectedSimpleLocalGraph.html" target="_top" xlink:title="Aim: Represents the concept of local graph: each vertex has neighboring vertices, but we do not neces...">
<polygon fill="white" stroke="#666666" points="160,-307 11,-307 11,-277 160,-277 160,-307"/>
<text text-anchor="start" x="19" y="-295" font-family="FreeSans" font-size="10.00">DGtal::concepts::CUndirected</text>
<text text-anchor="middle" x="85.5" y="-284" font-family="FreeSans" font-size="10.00">SimpleLocalGraph&lt; T &gt;</text>
</a>
</g>
</g>
<!-- Node3&#45;&gt;Node2 -->
<g id="edge2" class="edge">
<title>Node3&#45;&gt;Node2</title>
<path fill="none" stroke="orange" stroke-dasharray="5,2" d="M85.5,-265.23C85.5,-253.58 85.5,-240.26 85.5,-230.42"/>
<polygon fill="orange" stroke="orange" points="82,-265.03 85.5,-275.03 89,-265.03 82,-265.03"/>
<text text-anchor="middle" x="103" y="-251" font-family="FreeSans" font-size="10.00"> &lt; Adj &gt;</text>
</g>
<!-- Node5 -->
<g id="node5" class="node">
<title>Node5</title>
<g id="a_node5"><a xlink:href="structDGtal_1_1concepts_1_1CDomainAdjacency.html" target="_top" xlink:title="Aim: Refines the concept CAdjacency by telling that the adjacency is specific to a given domain of th...">
<polygon fill="white" stroke="#666666" points="153,-30 18,-30 18,0 153,0 153,-30"/>
<text text-anchor="start" x="26" y="-18" font-family="FreeSans" font-size="10.00">DGtal::concepts::CDomain</text>
<text text-anchor="middle" x="85.5" y="-7" font-family="FreeSans" font-size="10.00">Adjacency&lt; T &gt;</text>
</a>
</g>
</g>
<!-- Node4&#45;&gt;Node5 -->
<g id="edge4" class="edge">
<title>Node4&#45;&gt;Node5</title>
<path fill="none" stroke="#63b8ff" d="M85.5,-55.46C85.5,-47.23 85.5,-37.89 85.5,-30.36"/>
<polygon fill="#63b8ff" stroke="#63b8ff" points="82,-55.21 85.5,-65.21 89,-55.21 82,-55.21"/>
</g>
</g>
</svg>
