<?xml version="1.0" encoding="UTF-8" standalone="no"?>
<!DOCTYPE svg PUBLIC "-//W3C//DTD SVG 1.1//EN"
 "http://www.w3.org/Graphics/SVG/1.1/DTD/svg11.dtd">
<!-- Generated by graphviz version 13.1.2 (20250808.2320)
 -->
<!-- Title: DGtal::concepts::CPrimitiveComputer&lt; T &gt; Pages: 1 -->
<svg width="702pt" height="101pt"
 viewBox="0.00 0.00 702.00 101.00" xmlns="http://www.w3.org/2000/svg" xmlns:xlink="http://www.w3.org/1999/xlink">
<g id="graph0" class="graph" transform="scale(1 1) rotate(0) translate(4 97.25)">
<title>DGtal::concepts::CPrimitiveComputer&lt; T &gt;</title>
<!-- Node1 -->
<g id="Node000001" class="node">
<title>Node1</title>
<g id="a_Node000001"><a xlink:title="Aim: Defines the concept describing an object that computes some primitive from input points,...">
<polygon fill="#999999" stroke="#666666" points="334.25,-61.88 195.25,-61.88 195.25,-31.38 334.25,-31.38 334.25,-61.88"/>
<text xml:space="preserve" text-anchor="start" x="203.25" y="-48.38" font-family="FreeSans" font-size="10.00">DGtal::concepts::CPrimitive</text>
<text xml:space="preserve" text-anchor="middle" x="264.75" y="-37.12" font-family="FreeSans" font-size="10.00">Computer&lt; T &gt;</text>
</a>
</g>
</g>
<!-- Node5 -->
<g id="Node000005" class="node">
<title>Node5</title>
<g id="a_Node000005"><a xlink:href="structDGtal_1_1concepts_1_1CIncrementalPrimitiveComputer.html" target="_top" xlink:title="Aim: Defines the concept describing an object that computes some primitive from input points given on...">
<polygon fill="white" stroke="#666666" points="522,-61.88 370.25,-61.88 370.25,-31.38 522,-31.38 522,-61.88"/>
<text xml:space="preserve" text-anchor="start" x="378.25" y="-48.38" font-family="FreeSans" font-size="10.00">DGtal::concepts::CIncremental</text>
<text xml:space="preserve" text-anchor="middle" x="446.12" y="-37.12" font-family="FreeSans" font-size="10.00">PrimitiveComputer&lt; T &gt;</text>
</a>
</g>
</g>
<!-- Node1&#45;&gt;Node5 -->
<g id="edge4_Node000001_Node000005" class="edge">
<title>Node1&#45;&gt;Node5</title>
<g id="a_edge4_Node000001_Node000005"><a xlink:title=" ">
<path fill="none" stroke="#63b8ff" d="M346.1,-46.62C354.02,-46.62 362.04,-46.62 369.91,-46.62"/>
<polygon fill="#63b8ff" stroke="#63b8ff" points="346.1,-43.13 336.1,-46.63 346.1,-50.13 346.1,-43.13"/>
</a>
</g>
</g>
<!-- Node2 -->
<g id="Node000002" class="node">
<title>Node2</title>
<g id="a_Node000002"><a xlink:href="structboost_1_1DefaultConstructible.html" target="_top" xlink:title="Go to http://www.sgi.com/tech/stl/DefaultConstructible.html.">
<polygon fill="white" stroke="#666666" points="159.25,-93.25 0,-93.25 0,-74 159.25,-74 159.25,-93.25"/>
<text xml:space="preserve" text-anchor="middle" x="79.62" y="-79.75" font-family="FreeSans" font-size="10.00">boost::DefaultConstructible&lt; T &gt;</text>
</a>
</g>
</g>
<!-- Node2&#45;&gt;Node1 -->
<g id="edge1_Node000001_Node000002" class="edge">
<title>Node2&#45;&gt;Node1</title>
<g id="a_edge1_Node000001_Node000002"><a xlink:title=" ">
<path fill="none" stroke="#63b8ff" d="M141.63,-71.3C158.71,-67.85 177.39,-64.07 194.89,-60.54"/>
<polygon fill="#63b8ff" stroke="#63b8ff" points="141.26,-67.8 132.15,-73.21 142.64,-74.66 141.26,-67.8"/>
</a>
</g>
</g>
<!-- Node3 -->
<g id="Node000003" class="node">
<title>Node3</title>
<g id="a_Node000003"><a xlink:href="structboost_1_1CopyConstructible.html" target="_top" xlink:title="Go to http://www.sgi.com/tech/stl/CopyConstructible.html.">
<polygon fill="white" stroke="#666666" points="155.12,-56.25 4.12,-56.25 4.12,-37 155.12,-37 155.12,-56.25"/>
<text xml:space="preserve" text-anchor="middle" x="79.62" y="-42.75" font-family="FreeSans" font-size="10.00">boost::CopyConstructible&lt; T &gt;</text>
</a>
</g>
</g>
<!-- Node3&#45;&gt;Node1 -->
<g id="edge2_Node000001_Node000003" class="edge">
<title>Node3&#45;&gt;Node1</title>
<g id="a_edge2_Node000001_Node000003"><a xlink:title=" ">
<path fill="none" stroke="#63b8ff" d="M166.79,-46.62C176.19,-46.62 185.68,-46.62 194.84,-46.62"/>
<polygon fill="#63b8ff" stroke="#63b8ff" points="166.89,-43.13 156.89,-46.63 166.89,-50.13 166.89,-43.13"/>
</a>
</g>
</g>
<!-- Node4 -->
<g id="Node000004" class="node">
<title>Node4</title>
<g id="a_Node000004"><a xlink:href="structboost_1_1Assignable.html" target="_top" xlink:title="Go to http://www.sgi.com/tech/stl/Assignable.html.">
<polygon fill="white" stroke="#666666" points="138.62,-19.25 20.62,-19.25 20.62,0 138.62,0 138.62,-19.25"/>
<text xml:space="preserve" text-anchor="middle" x="79.62" y="-5.75" font-family="FreeSans" font-size="10.00">boost::Assignable&lt; T &gt;</text>
</a>
</g>
</g>
<!-- Node4&#45;&gt;Node1 -->
<g id="edge3_Node000001_Node000004" class="edge">
<title>Node4&#45;&gt;Node1</title>
<g id="a_edge3_Node000001_Node000004"><a xlink:title=" ">
<path fill="none" stroke="#63b8ff" d="M141.63,-21.95C158.71,-25.4 177.39,-29.18 194.89,-32.71"/>
<polygon fill="#63b8ff" stroke="#63b8ff" points="142.64,-18.59 132.15,-20.04 141.26,-25.45 142.64,-18.59"/>
</a>
</g>
</g>
<!-- Node6 -->
<g id="Node000006" class="node">
<title>Node6</title>
<g id="a_Node000006"><a xlink:href="structDGtal_1_1concepts_1_1CAdditivePrimitiveComputer.html" target="_top" xlink:title="Aim: Defines the concept describing an object that computes some primitive from input points given gr...">
<polygon fill="white" stroke="#666666" points="694,-61.88 558,-61.88 558,-31.38 694,-31.38 694,-61.88"/>
<text xml:space="preserve" text-anchor="start" x="566" y="-48.38" font-family="FreeSans" font-size="10.00">DGtal::concepts::CAdditive</text>
<text xml:space="preserve" text-anchor="middle" x="626" y="-37.12" font-family="FreeSans" font-size="10.00">PrimitiveComputer&lt; T &gt;</text>
</a>
</g>
</g>
<!-- Node5&#45;&gt;Node6 -->
<g id="edge5_Node000005_Node000006" class="edge">
<title>Node5&#45;&gt;Node6</title>
<g id="a_edge5_Node000005_Node000006"><a xlink:title=" ">
<path fill="none" stroke="#63b8ff" d="M533.67,-46.62C541.75,-46.62 549.85,-46.62 557.71,-46.62"/>
<polygon fill="#63b8ff" stroke="#63b8ff" points="533.82,-43.13 523.82,-46.63 533.82,-50.13 533.82,-43.13"/>
</a>
</g>
</g>
</g>
</svg>
