<?xml version="1.0" encoding="UTF-8" standalone="no"?>
<!DOCTYPE svg PUBLIC "-//W3C//DTD SVG 1.1//EN"
 "http://www.w3.org/Graphics/SVG/1.1/DTD/svg11.dtd">
<!-- Generated by graphviz version 11.0.0 (20240428.1522)
 -->
<!-- Title: DGtal::concepts::CUndirectedSimpleLocalGraph&lt; T &gt; Pages: 1 -->
<svg width="961pt" height="110pt"
 viewBox="0.00 0.00 961.00 109.50" xmlns="http://www.w3.org/2000/svg" xmlns:xlink="http://www.w3.org/1999/xlink">
<g id="graph0" class="graph" transform="scale(1 1) rotate(0) translate(4 105.5)">
<title>DGtal::concepts::CUndirectedSimpleLocalGraph&lt; T &gt;</title>
<!-- Node1 -->
<g id="Node000001" class="node">
<title>Node1</title>
<g id="a_Node000001"><a xlink:title="Aim: Represents the concept of local graph: each vertex has neighboring vertices, but we do not neces...">
<polygon fill="#999999" stroke="#666666" points="148,-79.5 0,-79.5 0,-49 148,-49 148,-79.5"/>
<text text-anchor="start" x="8" y="-66" font-family="FreeSans" font-size="10.00">DGtal::concepts::CUndirected</text>
<text text-anchor="middle" x="74" y="-54.75" font-family="FreeSans" font-size="10.00">SimpleLocalGraph&lt; T &gt;</text>
</a>
</g>
</g>
<!-- Node2 -->
<g id="Node000002" class="node">
<title>Node2</title>
<g id="a_Node000002"><a xlink:href="structDGtal_1_1concepts_1_1CAdjacency.html" target="_top" xlink:title=" ">
<polygon fill="white" stroke="#666666" points="782.5,-95.88 612,-95.88 612,-76.62 782.5,-76.62 782.5,-95.88"/>
<text text-anchor="middle" x="697.25" y="-82.38" font-family="FreeSans" font-size="10.00">DGtal::concepts::CAdjacency&lt; T &gt;</text>
</a>
</g>
</g>
<!-- Node1&#45;&gt;Node2 -->
<g id="edge1_Node000001_Node000002" class="edge">
<title>Node1&#45;&gt;Node2</title>
<g id="a_edge1_Node000001_Node000002"><a xlink:title=" ">
<path fill="none" stroke="#63b8ff" d="M159.64,-80.8C178.91,-83.9 199.35,-86.66 218.5,-88.25 355.71,-99.65 515.86,-95.42 611.5,-91.04"/>
<polygon fill="#63b8ff" stroke="#63b8ff" points="160.38,-77.37 149.94,-79.19 159.23,-84.28 160.38,-77.37"/>
</a>
</g>
</g>
<!-- Node4 -->
<g id="Node000004" class="node">
<title>Node4</title>
<g id="a_Node000004"><a xlink:href="structDGtal_1_1concepts_1_1CUndirectedSimpleGraph.html" target="_top" xlink:title="Aim: Represents the concept of local graph: each vertex has neighboring vertices, but we do not neces...">
<polygon fill="white" stroke="#666666" points="366.5,-79.5 218.5,-79.5 218.5,-49 366.5,-49 366.5,-79.5"/>
<text text-anchor="start" x="226.5" y="-66" font-family="FreeSans" font-size="10.00">DGtal::concepts::CUndirected</text>
<text text-anchor="middle" x="292.5" y="-54.75" font-family="FreeSans" font-size="10.00">SimpleGraph&lt; T &gt;</text>
</a>
</g>
</g>
<!-- Node1&#45;&gt;Node4 -->
<g id="edge3_Node000001_Node000004" class="edge">
<title>Node1&#45;&gt;Node4</title>
<g id="a_edge3_Node000001_Node000004"><a xlink:title=" ">
<path fill="none" stroke="#63b8ff" d="M159.57,-64.25C178.96,-64.25 199.41,-64.25 218.28,-64.25"/>
<polygon fill="#63b8ff" stroke="#63b8ff" points="159.81,-60.75 149.81,-64.25 159.81,-67.75 159.81,-60.75"/>
</a>
</g>
</g>
<!-- Node5 -->
<g id="Node000005" class="node">
<title>Node5</title>
<g id="a_Node000005"><a xlink:href="structDGtal_1_1concepts_1_1CUndirectedSimpleLocalGraph.html" target="_top" xlink:title=" ">
<polygon fill="white" stroke="#666666" points="366.5,-30.5 218.5,-30.5 218.5,0 366.5,0 366.5,-30.5"/>
<text text-anchor="start" x="226.5" y="-17" font-family="FreeSans" font-size="10.00">DGtal::concepts::CUndirected</text>
<text text-anchor="middle" x="292.5" y="-5.75" font-family="FreeSans" font-size="10.00">SimpleLocalGraph&lt; Adj &gt;</text>
</a>
</g>
</g>
<!-- Node1&#45;&gt;Node5 -->
<g id="edge4_Node000001_Node000005" class="edge">
<title>Node1&#45;&gt;Node5</title>
<g id="a_edge4_Node000001_Node000005"><a xlink:title=" ">
<path fill="none" stroke="orange" stroke-dasharray="5,2" d="M155.35,-46.06C177.29,-41.1 200.86,-35.76 222.13,-30.95"/>
<polygon fill="orange" stroke="orange" points="154.85,-42.59 145.87,-48.21 156.4,-49.42 154.85,-42.59"/>
</a>
</g>
<text text-anchor="middle" x="183.25" y="-44" font-family="FreeSans" font-size="10.00" fill="grey"> &lt; Adj &gt;</text>
</g>
<!-- Node3 -->
<g id="Node000003" class="node">
<title>Node3</title>
<g id="a_Node000003"><a xlink:href="structDGtal_1_1concepts_1_1CDomainAdjacency.html" target="_top" xlink:title="Aim: Refines the concept CAdjacency by telling that the adjacency is specific to a given domain of th...">
<polygon fill="white" stroke="#666666" points="953,-101.5 818.5,-101.5 818.5,-71 953,-71 953,-101.5"/>
<text text-anchor="start" x="826.5" y="-88" font-family="FreeSans" font-size="10.00">DGtal::concepts::CDomain</text>
<text text-anchor="middle" x="885.75" y="-76.75" font-family="FreeSans" font-size="10.00">Adjacency&lt; T &gt;</text>
</a>
</g>
</g>
<!-- Node2&#45;&gt;Node3 -->
<g id="edge2_Node000002_Node000003" class="edge">
<title>Node2&#45;&gt;Node3</title>
<g id="a_edge2_Node000002_Node000003"><a xlink:title=" ">
<path fill="none" stroke="#63b8ff" d="M794.19,-86.25C802.28,-86.25 810.34,-86.25 818.13,-86.25"/>
<polygon fill="#63b8ff" stroke="#63b8ff" points="794.28,-82.75 784.28,-86.25 794.28,-89.75 794.28,-82.75"/>
</a>
</g>
</g>
<!-- Node6 -->
<g id="Node000006" class="node">
<title>Node6</title>
<g id="a_Node000006"><a xlink:href="structDGtal_1_1concepts_1_1CAdjacency.html" target="_top" xlink:title="Aim: The concept CAdjacency defines an elementary adjacency relation between points of a digital spac...">
<polygon fill="white" stroke="#666666" points="549,-67.5 402.5,-67.5 402.5,-37 549,-37 549,-67.5"/>
<text text-anchor="start" x="410.5" y="-54" font-family="FreeSans" font-size="10.00">DGtal::concepts::CAdjacency</text>
<text text-anchor="middle" x="475.75" y="-42.75" font-family="FreeSans" font-size="10.00">&lt; Adj &gt;</text>
</a>
</g>
</g>
<!-- Node5&#45;&gt;Node6 -->
<g id="edge5_Node000005_Node000006" class="edge">
<title>Node5&#45;&gt;Node6</title>
<g id="a_edge5_Node000005_Node000006"><a xlink:title=" ">
<path fill="none" stroke="#63b8ff" d="M378.18,-32.54C386.16,-34.17 394.21,-35.81 402.07,-37.41"/>
<polygon fill="#63b8ff" stroke="#63b8ff" points="378.94,-29.12 368.44,-30.55 377.54,-35.98 378.94,-29.12"/>
</a>
</g>
</g>
<!-- Node6&#45;&gt;Node2 -->
<g id="edge6_Node000006_Node000002" class="edge">
<title>Node6&#45;&gt;Node2</title>
<g id="a_edge6_Node000006_Node000002"><a xlink:title=" ">
<path fill="none" stroke="orange" stroke-dasharray="5,2" d="M560.57,-65.23C583.99,-68.86 609.09,-72.75 631.24,-76.18"/>
<polygon fill="orange" stroke="orange" points="561.14,-61.78 550.73,-63.71 560.07,-68.7 561.14,-61.78"/>
</a>
</g>
<text text-anchor="middle" x="580.5" y="-72" font-family="FreeSans" font-size="10.00" fill="grey"> &lt; T &gt;</text>
</g>
</g>
</svg>
