<?xml version="1.0" encoding="UTF-8" standalone="no"?>
<!DOCTYPE svg PUBLIC "-//W3C//DTD SVG 1.1//EN"
 "http://www.w3.org/Graphics/SVG/1.1/DTD/svg11.dtd">
<!-- Generated by graphviz version 7.0.1 (20221109.1506)
 -->
<!-- Title: DGtal::UnorderedMultimapAssociativeCategory Pages: 1 -->
<svg width="674pt" height="124pt"
 viewBox="0.00 0.00 674.00 124.00" xmlns="http://www.w3.org/2000/svg" xmlns:xlink="http://www.w3.org/1999/xlink">
<g id="graph0" class="graph" transform="scale(1 1) rotate(0) translate(4 120)">
<title>DGtal::UnorderedMultimapAssociativeCategory</title>
<!-- Node1 -->
<g id="node1" class="node">
<title>Node1</title>
<g id="a_node1"><a xlink:title=" ">
<polygon fill="#999999" stroke="#666666" points="666,-73 533,-73 533,-43 666,-43 666,-73"/>
<text text-anchor="start" x="541" y="-61" font-family="FreeSans" font-size="10.00">DGtal::UnorderedMultimap</text>
<text text-anchor="middle" x="599.5" y="-50" font-family="FreeSans" font-size="10.00">AssociativeCategory</text>
</a>
</g>
</g>
<!-- Node2 -->
<g id="node2" class="node">
<title>Node2</title>
<g id="a_node2"><a xlink:href="structDGtal_1_1UnorderedAssociativeCategory.html" target="_top" xlink:title=" ">
<polygon fill="white" stroke="#666666" points="491,-116 347,-116 347,-86 491,-86 491,-116"/>
<text text-anchor="start" x="355" y="-104" font-family="FreeSans" font-size="10.00">DGtal::UnorderedAssociative</text>
<text text-anchor="middle" x="419" y="-93" font-family="FreeSans" font-size="10.00">Category</text>
</a>
</g>
</g>
<!-- Node2&#45;&gt;Node1 -->
<g id="edge1" class="edge">
<title>Node2&#45;&gt;Node1</title>
<path fill="none" stroke="#63b8ff" d="M495.03,-82.93C508.08,-79.78 521.55,-76.54 534.28,-73.47"/>
<polygon fill="#63b8ff" stroke="#63b8ff" points="494.56,-79.44 485.66,-85.18 496.2,-86.24 494.56,-79.44"/>
</g>
<!-- Node3 -->
<g id="node3" class="node">
<title>Node3</title>
<g id="a_node3"><a xlink:href="structDGtal_1_1AssociativeCategory.html" target="_top" xlink:title=" ">
<polygon fill="white" stroke="#666666" points="305,-67.5 166,-67.5 166,-48.5 305,-48.5 305,-67.5"/>
<text text-anchor="middle" x="235.5" y="-55.5" font-family="FreeSans" font-size="10.00">DGtal::AssociativeCategory</text>
</a>
</g>
</g>
<!-- Node3&#45;&gt;Node2 -->
<g id="edge2" class="edge">
<title>Node3&#45;&gt;Node2</title>
<path fill="none" stroke="#63b8ff" d="M289.55,-70.57C309.29,-75.25 331.94,-80.61 352.67,-85.52"/>
<polygon fill="#63b8ff" stroke="#63b8ff" points="290.61,-67.22 280.07,-68.32 288.99,-74.03 290.61,-67.22"/>
</g>
<!-- Node5 -->
<g id="node5" class="node">
<title>Node5</title>
<g id="a_node5"><a xlink:href="structDGtal_1_1PairAssociativeCategory.html" target="_top" xlink:title=" ">
<polygon fill="white" stroke="#666666" points="497,-67.5 341,-67.5 341,-48.5 497,-48.5 497,-67.5"/>
<text text-anchor="middle" x="419" y="-55.5" font-family="FreeSans" font-size="10.00">DGtal::PairAssociativeCategory</text>
</a>
</g>
</g>
<!-- Node3&#45;&gt;Node5 -->
<g id="edge5" class="edge">
<title>Node3&#45;&gt;Node5</title>
<path fill="none" stroke="#63b8ff" d="M316.86,-58C324.77,-58 332.79,-58 340.67,-58"/>
<polygon fill="#63b8ff" stroke="#63b8ff" points="316.89,-54.5 306.89,-58 316.89,-61.5 316.89,-54.5"/>
</g>
<!-- Node6 -->
<g id="node6" class="node">
<title>Node6</title>
<g id="a_node6"><a xlink:href="structDGtal_1_1MultipleAssociativeCategory.html" target="_top" xlink:title=" ">
<polygon fill="white" stroke="#666666" points="485.5,-30 352.5,-30 352.5,0 485.5,0 485.5,-30"/>
<text text-anchor="start" x="360.5" y="-18" font-family="FreeSans" font-size="10.00">DGtal::MultipleAssociative</text>
<text text-anchor="middle" x="419" y="-7" font-family="FreeSans" font-size="10.00">Category</text>
</a>
</g>
</g>
<!-- Node3&#45;&gt;Node6 -->
<g id="edge7" class="edge">
<title>Node3&#45;&gt;Node6</title>
<path fill="none" stroke="#63b8ff" d="M289.55,-45.43C309.29,-40.75 331.94,-35.39 352.67,-30.48"/>
<polygon fill="#63b8ff" stroke="#63b8ff" points="288.99,-41.97 280.07,-47.68 290.61,-48.78 288.99,-41.97"/>
</g>
<!-- Node4 -->
<g id="node4" class="node">
<title>Node4</title>
<g id="a_node4"><a xlink:href="structDGtal_1_1ContainerCategory.html" target="_top" xlink:title=" ">
<polygon fill="white" stroke="#666666" points="130,-67.5 0,-67.5 0,-48.5 130,-48.5 130,-67.5"/>
<text text-anchor="middle" x="65" y="-55.5" font-family="FreeSans" font-size="10.00">DGtal::ContainerCategory</text>
</a>
</g>
</g>
<!-- Node4&#45;&gt;Node3 -->
<g id="edge3" class="edge">
<title>Node4&#45;&gt;Node3</title>
<path fill="none" stroke="#63b8ff" d="M141.49,-58C149.56,-58 157.74,-58 165.73,-58"/>
<polygon fill="#63b8ff" stroke="#63b8ff" points="141.7,-54.5 131.7,-58 141.7,-61.5 141.7,-54.5"/>
</g>
<!-- Node5&#45;&gt;Node1 -->
<g id="edge4" class="edge">
<title>Node5&#45;&gt;Node1</title>
<path fill="none" stroke="#63b8ff" d="M508.63,-58C516.7,-58 524.78,-58 532.6,-58"/>
<polygon fill="#63b8ff" stroke="#63b8ff" points="508.77,-54.5 498.77,-58 508.77,-61.5 508.77,-54.5"/>
</g>
<!-- Node6&#45;&gt;Node1 -->
<g id="edge6" class="edge">
<title>Node6&#45;&gt;Node1</title>
<path fill="none" stroke="#63b8ff" d="M495.03,-33.07C508.08,-36.22 521.55,-39.46 534.28,-42.53"/>
<polygon fill="#63b8ff" stroke="#63b8ff" points="496.2,-29.76 485.66,-30.82 494.56,-36.56 496.2,-29.76"/>
</g>
</g>
</svg>
