<?xml version="1.0" encoding="UTF-8" standalone="no"?>
<!DOCTYPE svg PUBLIC "-//W3C//DTD SVG 1.1//EN"
 "http://www.w3.org/Graphics/SVG/1.1/DTD/svg11.dtd">
<!-- Generated by graphviz version 7.0.1 (20221109.1506)
 -->
<!-- Title: DGtal::PairAssociativeCategory Pages: 1 -->
<svg width="704pt" height="172pt"
 viewBox="0.00 0.00 704.00 171.50" xmlns="http://www.w3.org/2000/svg" xmlns:xlink="http://www.w3.org/1999/xlink">
<g id="graph0" class="graph" transform="scale(1 1) rotate(0) translate(4 167.5)">
<title>DGtal::PairAssociativeCategory</title>
<!-- Node1 -->
<g id="node1" class="node">
<title>Node1</title>
<g id="a_node1"><a xlink:title=" ">
<polygon fill="#999999" stroke="#666666" points="497,-96.5 341,-96.5 341,-77.5 497,-77.5 497,-96.5"/>
<text text-anchor="middle" x="419" y="-84.5" font-family="FreeSans" font-size="10.00">DGtal::PairAssociativeCategory</text>
</a>
</g>
</g>
<!-- Node4 -->
<g id="node4" class="node">
<title>Node4</title>
<g id="a_node4"><a xlink:href="structDGtal_1_1MapAssociativeCategory.html" target="_top" xlink:title=" ">
<polygon fill="white" stroke="#666666" points="693.5,-163.5 535.5,-163.5 535.5,-144.5 693.5,-144.5 693.5,-163.5"/>
<text text-anchor="middle" x="614.5" y="-151.5" font-family="FreeSans" font-size="10.00">DGtal::MapAssociativeCategory</text>
</a>
</g>
</g>
<!-- Node1&#45;&gt;Node4 -->
<g id="edge3" class="edge">
<title>Node1&#45;&gt;Node4</title>
<path fill="none" stroke="#63b8ff" d="M450.66,-101.7C473.09,-112.04 504.45,-125.64 533,-135 543.37,-138.4 554.68,-141.45 565.45,-144.07"/>
<polygon fill="#63b8ff" stroke="#63b8ff" points="452.34,-98.62 441.79,-97.56 449.38,-104.96 452.34,-98.62"/>
</g>
<!-- Node5 -->
<g id="node5" class="node">
<title>Node5</title>
<g id="a_node5"><a xlink:href="structDGtal_1_1MultimapAssociativeCategory.html" target="_top" xlink:title=" ">
<polygon fill="white" stroke="#666666" points="684,-126 545,-126 545,-96 684,-96 684,-126"/>
<text text-anchor="start" x="553" y="-114" font-family="FreeSans" font-size="10.00">DGtal::MultimapAssociative</text>
<text text-anchor="middle" x="614.5" y="-103" font-family="FreeSans" font-size="10.00">Category</text>
</a>
</g>
</g>
<!-- Node1&#45;&gt;Node5 -->
<g id="edge4" class="edge">
<title>Node1&#45;&gt;Node5</title>
<path fill="none" stroke="#63b8ff" d="M508.43,-97.97C520.62,-99.48 532.99,-101.01 544.76,-102.47"/>
<polygon fill="#63b8ff" stroke="#63b8ff" points="509.17,-94.53 498.81,-96.78 508.31,-101.48 509.17,-94.53"/>
</g>
<!-- Node6 -->
<g id="node6" class="node">
<title>Node6</title>
<g id="a_node6"><a xlink:href="structDGtal_1_1UnorderedMapAssociativeCategory.html" target="_top" xlink:title=" ">
<polygon fill="white" stroke="#666666" points="696,-78 533,-78 533,-48 696,-48 696,-78"/>
<text text-anchor="start" x="541" y="-66" font-family="FreeSans" font-size="10.00">DGtal::UnorderedMapAssociative</text>
<text text-anchor="middle" x="614.5" y="-55" font-family="FreeSans" font-size="10.00">Category</text>
</a>
</g>
</g>
<!-- Node1&#45;&gt;Node6 -->
<g id="edge5" class="edge">
<title>Node1&#45;&gt;Node6</title>
<path fill="none" stroke="#63b8ff" d="M508.53,-76.02C516.52,-75.03 524.59,-74.03 532.51,-73.05"/>
<polygon fill="#63b8ff" stroke="#63b8ff" points="508.31,-72.52 498.81,-77.22 509.17,-79.47 508.31,-72.52"/>
</g>
<!-- Node7 -->
<g id="node7" class="node">
<title>Node7</title>
<g id="a_node7"><a xlink:href="structDGtal_1_1UnorderedMultimapAssociativeCategory.html" target="_top" xlink:title=" ">
<polygon fill="white" stroke="#666666" points="681,-30 548,-30 548,0 681,0 681,-30"/>
<text text-anchor="start" x="556" y="-18" font-family="FreeSans" font-size="10.00">DGtal::UnorderedMultimap</text>
<text text-anchor="middle" x="614.5" y="-7" font-family="FreeSans" font-size="10.00">AssociativeCategory</text>
</a>
</g>
</g>
<!-- Node1&#45;&gt;Node7 -->
<g id="edge6" class="edge">
<title>Node1&#45;&gt;Node7</title>
<path fill="none" stroke="#63b8ff" d="M451.66,-72.42C474.11,-62.37 505.08,-49.06 533,-39 541.23,-36.03 550.03,-33.14 558.67,-30.45"/>
<polygon fill="#63b8ff" stroke="#63b8ff" points="450.43,-69.14 442.76,-76.45 453.31,-75.52 450.43,-69.14"/>
</g>
<!-- Node2 -->
<g id="node2" class="node">
<title>Node2</title>
<g id="a_node2"><a xlink:href="structDGtal_1_1AssociativeCategory.html" target="_top" xlink:title=" ">
<polygon fill="white" stroke="#666666" points="305,-96.5 166,-96.5 166,-77.5 305,-77.5 305,-96.5"/>
<text text-anchor="middle" x="235.5" y="-84.5" font-family="FreeSans" font-size="10.00">DGtal::AssociativeCategory</text>
</a>
</g>
</g>
<!-- Node2&#45;&gt;Node1 -->
<g id="edge1" class="edge">
<title>Node2&#45;&gt;Node1</title>
<path fill="none" stroke="#63b8ff" d="M316.86,-87C324.77,-87 332.79,-87 340.67,-87"/>
<polygon fill="#63b8ff" stroke="#63b8ff" points="316.89,-83.5 306.89,-87 316.89,-90.5 316.89,-83.5"/>
</g>
<!-- Node3 -->
<g id="node3" class="node">
<title>Node3</title>
<g id="a_node3"><a xlink:href="structDGtal_1_1ContainerCategory.html" target="_top" xlink:title=" ">
<polygon fill="white" stroke="#666666" points="130,-96.5 0,-96.5 0,-77.5 130,-77.5 130,-96.5"/>
<text text-anchor="middle" x="65" y="-84.5" font-family="FreeSans" font-size="10.00">DGtal::ContainerCategory</text>
</a>
</g>
</g>
<!-- Node3&#45;&gt;Node2 -->
<g id="edge2" class="edge">
<title>Node3&#45;&gt;Node2</title>
<path fill="none" stroke="#63b8ff" d="M141.49,-87C149.56,-87 157.74,-87 165.73,-87"/>
<polygon fill="#63b8ff" stroke="#63b8ff" points="141.7,-83.5 131.7,-87 141.7,-90.5 141.7,-83.5"/>
</g>
</g>
</svg>
