<?xml version="1.0" encoding="UTF-8" standalone="no"?>
<!DOCTYPE svg PUBLIC "-//W3C//DTD SVG 1.1//EN"
 "http://www.w3.org/Graphics/SVG/1.1/DTD/svg11.dtd">
<!-- Generated by graphviz version 7.0.1 (20221109.1506)
 -->
<!-- Title: DGtal::concepts::CIntegralNumber&lt; T &gt; Pages: 1 -->
<svg width="929pt" height="101pt"
 viewBox="0.00 0.00 929.00 101.00" xmlns="http://www.w3.org/2000/svg" xmlns:xlink="http://www.w3.org/1999/xlink">
<g id="graph0" class="graph" transform="scale(1 1) rotate(0) translate(4 97)">
<title>DGtal::concepts::CIntegralNumber&lt; T &gt;</title>
<!-- Node1 -->
<g id="node1" class="node">
<title>Node1</title>
<g id="a_node1"><a xlink:title="Aim: Concept checking for Integral Numbers. Models of this concept should be listed in NumberTraits c...">
<polygon fill="#999999" stroke="#666666" points="730,-42.5 596,-42.5 596,-12.5 730,-12.5 730,-42.5"/>
<text text-anchor="start" x="604" y="-30.5" font-family="FreeSans" font-size="10.00">DGtal::concepts::CIntegral</text>
<text text-anchor="middle" x="663" y="-19.5" font-family="FreeSans" font-size="10.00">Number&lt; T &gt;</text>
</a>
</g>
</g>
<!-- Node8 -->
<g id="node8" class="node">
<title>Node8</title>
<g id="a_node8"><a xlink:href="structDGtal_1_1concepts_1_1CInteger.html" target="_top" xlink:title="Aim: Concept checking for Integer Numbers. More precisely, this concept is a refinement of both CEucl...">
<polygon fill="white" stroke="#666666" points="921,-37 766,-37 766,-18 921,-18 921,-37"/>
<text text-anchor="middle" x="843.5" y="-25" font-family="FreeSans" font-size="10.00">DGtal::concepts::CInteger&lt; T &gt;</text>
</a>
</g>
</g>
<!-- Node1&#45;&gt;Node8 -->
<g id="edge7" class="edge">
<title>Node1&#45;&gt;Node8</title>
<path fill="none" stroke="#63b8ff" d="M741.93,-27.5C749.83,-27.5 757.86,-27.5 765.75,-27.5"/>
<polygon fill="#63b8ff" stroke="#63b8ff" points="741.98,-24 731.98,-27.5 741.98,-31 741.98,-24"/>
</g>
<!-- Node2 -->
<g id="node2" class="node">
<title>Node2</title>
<g id="a_node2"><a xlink:href="structDGtal_1_1concepts_1_1CQuantity.html" target="_top" xlink:title="Aim: defines the concept of quantity in DGtal.">
<polygon fill="white" stroke="#666666" points="560,-37 398,-37 398,-18 560,-18 560,-37"/>
<text text-anchor="middle" x="479" y="-25" font-family="FreeSans" font-size="10.00">DGtal::concepts::CQuantity&lt; T &gt;</text>
</a>
</g>
</g>
<!-- Node2&#45;&gt;Node1 -->
<g id="edge1" class="edge">
<title>Node2&#45;&gt;Node1</title>
<path fill="none" stroke="#63b8ff" d="M571.75,-27.5C579.83,-27.5 587.89,-27.5 595.7,-27.5"/>
<polygon fill="#63b8ff" stroke="#63b8ff" points="571.87,-24 561.87,-27.5 571.87,-31 571.87,-24"/>
</g>
<!-- Node3 -->
<g id="node3" class="node">
<title>Node3</title>
<g id="a_node3"><a xlink:href="structDGtal_1_1concepts_1_1CLabel.html" target="_top" xlink:title="Aim: Define the concept of DGtal labels. Models of CLabel can be default&#45;constructible,...">
<polygon fill="white" stroke="#666666" points="353.5,-56 204.5,-56 204.5,-37 353.5,-37 353.5,-56"/>
<text text-anchor="middle" x="279" y="-44" font-family="FreeSans" font-size="10.00">DGtal::concepts::CLabel&lt; T &gt;</text>
</a>
</g>
</g>
<!-- Node3&#45;&gt;Node2 -->
<g id="edge2" class="edge">
<title>Node3&#45;&gt;Node2</title>
<path fill="none" stroke="#63b8ff" d="M364.91,-38.35C375.74,-37.31 386.81,-36.25 397.56,-35.22"/>
<polygon fill="#63b8ff" stroke="#63b8ff" points="364.85,-34.84 355.23,-39.28 365.52,-41.81 364.85,-34.84"/>
</g>
<!-- Node4 -->
<g id="node4" class="node">
<title>Node4</title>
<g id="a_node4"><a xlink:href="structboost_1_1DefaultConstructible.html" target="_top" xlink:title="Go to http://www.sgi.com/tech/stl/DefaultConstructible.html.">
<polygon fill="white" stroke="#666666" points="160,-93 0,-93 0,-74 160,-74 160,-93"/>
<text text-anchor="middle" x="80" y="-81" font-family="FreeSans" font-size="10.00">boost::DefaultConstructible&lt; T &gt;</text>
</a>
</g>
</g>
<!-- Node4&#45;&gt;Node3 -->
<g id="edge3" class="edge">
<title>Node4&#45;&gt;Node3</title>
<path fill="none" stroke="#63b8ff" d="M145.23,-71.44C170.99,-66.6 200.32,-61.09 224.85,-56.48"/>
<polygon fill="#63b8ff" stroke="#63b8ff" points="144.72,-67.97 135.54,-73.26 146.01,-74.85 144.72,-67.97"/>
</g>
<!-- Node5 -->
<g id="node5" class="node">
<title>Node5</title>
<g id="a_node5"><a xlink:href="structboost_1_1Assignable.html" target="_top" xlink:title="Go to http://www.sgi.com/tech/stl/Assignable.html.">
<polygon fill="white" stroke="#666666" points="139.5,-56 20.5,-56 20.5,-37 139.5,-37 139.5,-56"/>
<text text-anchor="middle" x="80" y="-44" font-family="FreeSans" font-size="10.00">boost::Assignable&lt; T &gt;</text>
</a>
</g>
</g>
<!-- Node5&#45;&gt;Node3 -->
<g id="edge4" class="edge">
<title>Node5&#45;&gt;Node3</title>
<path fill="none" stroke="#63b8ff" d="M150.95,-46.5C168.18,-46.5 186.68,-46.5 204.09,-46.5"/>
<polygon fill="#63b8ff" stroke="#63b8ff" points="151.35,-43 141.35,-46.5 151.35,-50 151.35,-43"/>
</g>
<!-- Node6 -->
<g id="node6" class="node">
<title>Node6</title>
<g id="a_node6"><a xlink:href="structboost_1_1EqualityComparable.html" target="_top" xlink:title="Go to http://www.sgi.com/tech/stl/EqualityComparable.html.">
<polygon fill="white" stroke="#666666" points="159,-19 1,-19 1,0 159,0 159,-19"/>
<text text-anchor="middle" x="80" y="-7" font-family="FreeSans" font-size="10.00">boost::EqualityComparable&lt; T &gt;</text>
</a>
</g>
</g>
<!-- Node6&#45;&gt;Node3 -->
<g id="edge5" class="edge">
<title>Node6&#45;&gt;Node3</title>
<path fill="none" stroke="#63b8ff" d="M145.23,-21.56C170.99,-26.4 200.32,-31.91 224.85,-36.52"/>
<polygon fill="#63b8ff" stroke="#63b8ff" points="146.01,-18.15 135.54,-19.74 144.72,-25.03 146.01,-18.15"/>
</g>
<!-- Node7 -->
<g id="node7" class="node">
<title>Node7</title>
<g id="a_node7"><a xlink:href="structboost_1_1LessThanComparable.html" target="_top" xlink:title="Go to http://www.sgi.com/tech/stl/LessThanComparable.html.">
<polygon fill="white" stroke="#666666" points="362,-19 196,-19 196,0 362,0 362,-19"/>
<text text-anchor="middle" x="279" y="-7" font-family="FreeSans" font-size="10.00">boost::LessThanComparable&lt; T &gt;</text>
</a>
</g>
</g>
<!-- Node7&#45;&gt;Node2 -->
<g id="edge6" class="edge">
<title>Node7&#45;&gt;Node2</title>
<path fill="none" stroke="#63b8ff" d="M373.56,-18.01C381.59,-18.74 389.68,-19.47 397.6,-20.19"/>
<polygon fill="#63b8ff" stroke="#63b8ff" points="374.03,-14.53 363.76,-17.11 373.4,-21.51 374.03,-14.53"/>
</g>
</g>
</svg>
