<?xml version="1.0" encoding="UTF-8" standalone="no"?>
<!DOCTYPE svg PUBLIC "-//W3C//DTD SVG 1.1//EN"
 "http://www.w3.org/Graphics/SVG/1.1/DTD/svg11.dtd">
<!-- Generated by graphviz version 13.1.2 (20250808.2320)
 -->
<!-- Title: DGtal::CForwardIteratorArchetype&lt; T &gt; Pages: 1 -->
<svg width="197pt" height="179pt"
 viewBox="0.00 0.00 197.00 179.00" xmlns="http://www.w3.org/2000/svg" xmlns:xlink="http://www.w3.org/1999/xlink">
<g id="graph0" class="graph" transform="scale(1 1) rotate(0) translate(4 174.5)">
<title>DGtal::CForwardIteratorArchetype&lt; T &gt;</title>
<!-- Node1 -->
<g id="Node000001" class="node">
<title>Node1</title>
<g id="a_Node000001"><a xlink:title="An archetype of ForwardIterator.">
<polygon fill="#999999" stroke="#666666" points="189.25,-103 0,-103 0,-83.75 189.25,-83.75 189.25,-103"/>
<text xml:space="preserve" text-anchor="middle" x="94.62" y="-89.5" font-family="FreeSans" font-size="10.00">DGtal::CForwardIteratorArchetype&lt; T &gt;</text>
</a>
</g>
</g>
<!-- Node3 -->
<g id="Node000003" class="node">
<title>Node3</title>
<g id="a_Node000003"><a xlink:href="structDGtal_1_1CForwardIteratorArchetype.html" target="_top" xlink:title=" ">
<polygon fill="white" stroke="#666666" points="177.25,-30.5 12,-30.5 12,0 177.25,0 177.25,-30.5"/>
<text xml:space="preserve" text-anchor="start" x="20" y="-17" font-family="FreeSans" font-size="10.00">DGtal::CForwardIteratorArchetype</text>
<text xml:space="preserve" text-anchor="middle" x="94.62" y="-5.75" font-family="FreeSans" font-size="10.00">&lt; Point &gt;</text>
</a>
</g>
</g>
<!-- Node1&#45;&gt;Node3 -->
<g id="edge2_Node000001_Node000003" class="edge">
<title>Node1&#45;&gt;Node3</title>
<g id="a_edge2_Node000001_Node000003"><a xlink:title=" ">
<path fill="none" stroke="orange" stroke-dasharray="5,2" d="M94.62,-72.22C94.62,-59.17 94.62,-42.48 94.62,-30.73"/>
<polygon fill="orange" stroke="orange" points="91.13,-71.83 94.63,-81.83 98.13,-71.83 91.13,-71.83"/>
</a>
</g>
<text xml:space="preserve" text-anchor="start" x="97.62" y="-53.25" font-family="FreeSans" font-size="10.00" fill="grey">&lt; Point &gt;</text>
</g>
<!-- Node2 -->
<g id="Node000002" class="node">
<title>Node2</title>
<g id="a_Node000002"><a xlink:title=" ">
<polygon fill="white" stroke="#666666" points="151.38,-170.5 37.88,-170.5 37.88,-140 151.38,-140 151.38,-170.5"/>
<text xml:space="preserve" text-anchor="start" x="45.88" y="-157" font-family="FreeSans" font-size="10.00">boost::forward_iterator</text>
<text xml:space="preserve" text-anchor="middle" x="94.62" y="-145.75" font-family="FreeSans" font-size="10.00">_archetype&lt; T &gt;</text>
</a>
</g>
</g>
<!-- Node2&#45;&gt;Node1 -->
<g id="edge1_Node000001_Node000002" class="edge">
<title>Node2&#45;&gt;Node1</title>
<g id="a_edge1_Node000001_Node000002"><a xlink:title=" ">
<path fill="none" stroke="#63b8ff" d="M94.62,-128.52C94.62,-119.54 94.62,-110.04 94.62,-103.35"/>
<polygon fill="#63b8ff" stroke="#63b8ff" points="91.13,-128.24 94.63,-138.24 98.13,-128.24 91.13,-128.24"/>
</a>
</g>
</g>
</g>
</svg>
