<?xml version="1.0" encoding="UTF-8" standalone="no"?>
<!DOCTYPE svg PUBLIC "-//W3C//DTD SVG 1.1//EN"
 "http://www.w3.org/Graphics/SVG/1.1/DTD/svg11.dtd">
<!-- Generated by graphviz version 7.0.1 (20221109.1506)
 -->
<!-- Title: testMeasure.cpp Pages: 1 -->
<svg width="2363pt" height="390pt"
 viewBox="0.00 0.00 2363.16 390.00" xmlns="http://www.w3.org/2000/svg" xmlns:xlink="http://www.w3.org/1999/xlink">
<g id="graph0" class="graph" transform="scale(1 1) rotate(0) translate(4 386)">
<title>testMeasure.cpp</title>
<!-- Node1 -->
<g id="node1" class="node">
<title>Node1</title>
<g id="a_node1"><a xlink:title=" ">
<polygon fill="#999999" stroke="#666666" points="2138.66,-382 2049.66,-382 2049.66,-363 2138.66,-363 2138.66,-382"/>
<text text-anchor="middle" x="2094.16" y="-370" font-family="FreeSans" font-size="10.00">testMeasure.cpp</text>
</a>
</g>
</g>
<!-- Node2 -->
<g id="node2" class="node">
<title>Node2</title>
<g id="a_node2"><a xlink:title=" ">
<polygon fill="#e0e0e0" stroke="#999999" points="1974.66,-321.5 1931.66,-321.5 1931.66,-302.5 1974.66,-302.5 1974.66,-321.5"/>
<text text-anchor="middle" x="1953.16" y="-309.5" font-family="FreeSans" font-size="10.00">cstdio</text>
</a>
</g>
</g>
<!-- Node1&#45;&gt;Node2 -->
<g id="edge1" class="edge">
<title>Node1&#45;&gt;Node2</title>
<path fill="none" stroke="#63b8ff" d="M2072.75,-362.62C2049.46,-352.95 2011.97,-337.4 1985.18,-326.28"/>
<polygon fill="#63b8ff" stroke="#63b8ff" points="1986.76,-323.15 1976.18,-322.55 1984.07,-329.61 1986.76,-323.15"/>
</g>
<!-- Node3 -->
<g id="node3" class="node">
<title>Node3</title>
<g id="a_node3"><a xlink:title=" ">
<polygon fill="#e0e0e0" stroke="#999999" points="2063.16,-129 2019.16,-129 2019.16,-110 2063.16,-110 2063.16,-129"/>
<text text-anchor="middle" x="2041.16" y="-117" font-family="FreeSans" font-size="10.00">cmath</text>
</a>
</g>
</g>
<!-- Node1&#45;&gt;Node3 -->
<g id="edge2" class="edge">
<title>Node1&#45;&gt;Node3</title>
<path fill="none" stroke="#63b8ff" d="M2084.86,-362.58C2076.81,-354.22 2065.61,-340.95 2060.16,-327 2034.99,-262.5 2036.92,-178.36 2039.43,-140.5"/>
<polygon fill="#63b8ff" stroke="#63b8ff" points="2042.91,-140.89 2040.19,-130.65 2035.93,-140.36 2042.91,-140.89"/>
</g>
<!-- Node4 -->
<g id="node4" class="node">
<title>Node4</title>
<g id="a_node4"><a xlink:title=" ">
<polygon fill="#e0e0e0" stroke="#999999" points="1203.16,-19 1149.16,-19 1149.16,0 1203.16,0 1203.16,-19"/>
<text text-anchor="middle" x="1176.16" y="-7" font-family="FreeSans" font-size="10.00">iostream</text>
</a>
</g>
</g>
<!-- Node1&#45;&gt;Node4 -->
<g id="edge3" class="edge">
<title>Node1&#45;&gt;Node4</title>
<path fill="none" stroke="#63b8ff" d="M2138.83,-367.33C2195.72,-361.23 2289.92,-348.24 2317.16,-327 2348.21,-302.8 2355.16,-286.36 2355.16,-247 2355.16,-247 2355.16,-247 2355.16,-118.5 2355.16,-65.48 2304.8,-70.73 2254.16,-55 2153.46,-23.71 1395.78,-13.04 1214.87,-10.92"/>
<polygon fill="#63b8ff" stroke="#63b8ff" points="1215.12,-7.42 1205.08,-10.81 1215.04,-14.42 1215.12,-7.42"/>
</g>
<!-- Node5 -->
<g id="node5" class="node">
<title>Node5</title>
<g id="a_node5"><a xlink:title=" ">
<polygon fill="#e0e0e0" stroke="#999999" points="2119.16,-321.5 2069.16,-321.5 2069.16,-302.5 2119.16,-302.5 2119.16,-321.5"/>
<text text-anchor="middle" x="2094.16" y="-309.5" font-family="FreeSans" font-size="10.00">fstream</text>
</a>
</g>
</g>
<!-- Node1&#45;&gt;Node5 -->
<g id="edge4" class="edge">
<title>Node1&#45;&gt;Node5</title>
<path fill="none" stroke="#63b8ff" d="M2094.16,-362.87C2094.16,-355 2094.16,-343.1 2094.16,-332.89"/>
<polygon fill="#63b8ff" stroke="#63b8ff" points="2097.66,-333.18 2094.16,-323.18 2090.66,-333.18 2097.66,-333.18"/>
</g>
<!-- Node6 -->
<g id="node6" class="node">
<title>Node6</title>
<g id="a_node6"><a xlink:title=" ">
<polygon fill="#e0e0e0" stroke="#999999" points="2326.16,-255.5 2282.16,-255.5 2282.16,-236.5 2326.16,-236.5 2326.16,-255.5"/>
<text text-anchor="middle" x="2304.16" y="-243.5" font-family="FreeSans" font-size="10.00">vector</text>
</a>
</g>
</g>
<!-- Node1&#45;&gt;Node6 -->
<g id="edge5" class="edge">
<title>Node1&#45;&gt;Node6</title>
<path fill="none" stroke="#63b8ff" d="M2139.04,-367.87C2192.66,-362.53 2277.71,-350.53 2298.16,-327 2312.27,-310.76 2311.54,-285 2308.74,-267.12"/>
<polygon fill="#63b8ff" stroke="#63b8ff" points="2312.21,-266.6 2306.86,-257.46 2305.34,-267.94 2312.21,-266.6"/>
</g>
<!-- Node7 -->
<g id="node7" class="node">
<title>Node7</title>
<g id="a_node7"><a xlink:href="Common_8h_source.html" target="_top" xlink:title=" ">
<polygon fill="white" stroke="#666666" points="1446.66,-255.5 1329.66,-255.5 1329.66,-236.5 1446.66,-236.5 1446.66,-255.5"/>
<text text-anchor="middle" x="1388.16" y="-243.5" font-family="FreeSans" font-size="10.00">DGtal/base/Common.h</text>
</a>
</g>
</g>
<!-- Node1&#45;&gt;Node7 -->
<g id="edge6" class="edge">
<title>Node1&#45;&gt;Node7</title>
<path fill="none" stroke="#63b8ff" d="M2080.5,-362.56C2066.92,-353.63 2045.52,-339.49 2027.16,-327 2007.9,-313.89 2006.08,-304.91 1984.16,-297 1889.14,-262.7 1594.25,-251.66 1458.22,-248.33"/>
<polygon fill="#63b8ff" stroke="#63b8ff" points="1458.33,-244.83 1448.25,-248.09 1458.16,-251.83 1458.33,-244.83"/>
</g>
<!-- Node47 -->
<g id="node47" class="node">
<title>Node47</title>
<g id="a_node47"><a xlink:href="MeasureOfStraightLines_8h_source.html" target="_top" xlink:title=" ">
<polygon fill="white" stroke="#666666" points="2289.16,-327 2137.16,-327 2137.16,-297 2289.16,-297 2289.16,-327"/>
<text text-anchor="start" x="2145.16" y="-315" font-family="FreeSans" font-size="10.00">DGtal/math/MeasureOfStraight</text>
<text text-anchor="middle" x="2213.16" y="-304" font-family="FreeSans" font-size="10.00">Lines.h</text>
</a>
</g>
</g>
<!-- Node1&#45;&gt;Node47 -->
<g id="edge78" class="edge">
<title>Node1&#45;&gt;Node47</title>
<path fill="none" stroke="#63b8ff" d="M2112.24,-362.62C2128.48,-354.63 2152.9,-342.63 2173.65,-332.43"/>
<polygon fill="#63b8ff" stroke="#63b8ff" points="2175,-335.66 2182.43,-328.11 2171.91,-329.38 2175,-335.66"/>
</g>
<!-- Node7&#45;&gt;Node3 -->
<g id="edge17" class="edge">
<title>Node7&#45;&gt;Node3</title>
<path fill="none" stroke="#63b8ff" d="M1447.07,-243.39C1564.58,-239.52 1823.91,-227.47 1906.16,-195 1926.5,-186.97 1926.46,-176.33 1945.16,-165 1965.26,-152.82 1989.23,-141.71 2008.2,-133.63"/>
<polygon fill="#63b8ff" stroke="#63b8ff" points="2009.44,-136.9 2017.32,-129.82 2006.75,-130.44 2009.44,-136.9"/>
</g>
<!-- Node7&#45;&gt;Node4 -->
<g id="edge7" class="edge">
<title>Node7&#45;&gt;Node4</title>
<path fill="none" stroke="#63b8ff" d="M1447.12,-242.32C1516.84,-237.78 1626.65,-225.8 1652.16,-195 1660.67,-184.73 1658.54,-176.71 1652.16,-165 1641.41,-145.24 1586.98,-120.65 1567.16,-110 1560.44,-106.39 1448.49,-57.18 1441.16,-55 1362.55,-31.63 1266.93,-19.37 1214.74,-13.98"/>
<polygon fill="#63b8ff" stroke="#63b8ff" points="1215.17,-10.51 1204.87,-13 1214.47,-17.47 1215.17,-10.51"/>
</g>
<!-- Node8 -->
<g id="node8" class="node">
<title>Node8</title>
<g id="a_node8"><a xlink:title=" ">
<polygon fill="#e0e0e0" stroke="#999999" points="2012.66,-189.5 1953.66,-189.5 1953.66,-170.5 2012.66,-170.5 2012.66,-189.5"/>
<text text-anchor="middle" x="1983.16" y="-177.5" font-family="FreeSans" font-size="10.00">exception</text>
</a>
</g>
</g>
<!-- Node7&#45;&gt;Node8 -->
<g id="edge8" class="edge">
<title>Node7&#45;&gt;Node8</title>
<path fill="none" stroke="#63b8ff" d="M1447.08,-243.85C1548.54,-240.93 1762.39,-230.7 1939.16,-195 1941.82,-194.46 1944.53,-193.83 1947.25,-193.12"/>
<polygon fill="#63b8ff" stroke="#63b8ff" points="1948.18,-196.5 1956.83,-190.37 1946.25,-189.77 1948.18,-196.5"/>
</g>
<!-- Node9 -->
<g id="node9" class="node">
<title>Node9</title>
<g id="a_node9"><a xlink:title=" ">
<polygon fill="#e0e0e0" stroke="#999999" points="2224.16,-74 2168.16,-74 2168.16,-55 2224.16,-55 2224.16,-74"/>
<text text-anchor="middle" x="2196.16" y="-62" font-family="FreeSans" font-size="10.00">algorithm</text>
</a>
</g>
</g>
<!-- Node7&#45;&gt;Node9 -->
<g id="edge9" class="edge">
<title>Node7&#45;&gt;Node9</title>
<path fill="none" stroke="#63b8ff" d="M1446.96,-244.5C1583.38,-242.67 1917.77,-234.21 2022.16,-195 2088.93,-169.92 2152.15,-111.06 2180.52,-82.14"/>
<polygon fill="#63b8ff" stroke="#63b8ff" points="2182.71,-84.92 2187.12,-75.28 2177.67,-80.06 2182.71,-84.92"/>
</g>
<!-- Node10 -->
<g id="node10" class="node">
<title>Node10</title>
<g id="a_node10"><a xlink:title=" ">
<polygon fill="#e0e0e0" stroke="#999999" points="369.16,-189.5 275.16,-189.5 275.16,-170.5 369.16,-170.5 369.16,-189.5"/>
<text text-anchor="middle" x="322.16" y="-177.5" font-family="FreeSans" font-size="10.00">boost/version.hpp</text>
</a>
</g>
</g>
<!-- Node7&#45;&gt;Node10 -->
<g id="edge10" class="edge">
<title>Node7&#45;&gt;Node10</title>
<path fill="none" stroke="#63b8ff" d="M1329.22,-243.6C1142.2,-238.9 563.55,-222.49 378.16,-195 373.72,-194.34 369.11,-193.48 364.54,-192.52"/>
<polygon fill="#63b8ff" stroke="#63b8ff" points="365.35,-189.11 354.82,-190.28 363.78,-195.93 365.35,-189.11"/>
</g>
<!-- Node11 -->
<g id="node11" class="node">
<title>Node11</title>
<g id="a_node11"><a xlink:title=" ">
<polygon fill="#e0e0e0" stroke="#999999" points="515.16,-189.5 387.16,-189.5 387.16,-170.5 515.16,-170.5 515.16,-189.5"/>
<text text-anchor="middle" x="451.16" y="-177.5" font-family="FreeSans" font-size="10.00">boost/concept_check.hpp</text>
</a>
</g>
</g>
<!-- Node7&#45;&gt;Node11 -->
<g id="edge11" class="edge">
<title>Node7&#45;&gt;Node11</title>
<path fill="none" stroke="#63b8ff" d="M1329.26,-244.26C1189.17,-241.92 825.35,-232.43 524.16,-195 517.6,-194.18 510.74,-193.13 503.96,-191.98"/>
<polygon fill="#63b8ff" stroke="#63b8ff" points="504.66,-188.54 494.2,-190.22 503.42,-195.43 504.66,-188.54"/>
</g>
<!-- Node12 -->
<g id="node12" class="node">
<title>Node12</title>
<g id="a_node12"><a xlink:title=" ">
<polygon fill="#e0e0e0" stroke="#999999" points="652.66,-189.5 533.66,-189.5 533.66,-170.5 652.66,-170.5 652.66,-189.5"/>
<text text-anchor="middle" x="593.16" y="-177.5" font-family="FreeSans" font-size="10.00">boost/static_assert.hpp</text>
</a>
</g>
</g>
<!-- Node7&#45;&gt;Node12 -->
<g id="edge12" class="edge">
<title>Node7&#45;&gt;Node12</title>
<path fill="none" stroke="#63b8ff" d="M1329.47,-243.64C1205.5,-240.17 908.1,-228.76 661.16,-195 655.41,-194.21 649.42,-193.23 643.48,-192.15"/>
<polygon fill="#63b8ff" stroke="#63b8ff" points="644.17,-188.71 633.69,-190.26 642.85,-195.59 644.17,-188.71"/>
</g>
<!-- Node13 -->
<g id="node13" class="node">
<title>Node13</title>
<g id="a_node13"><a xlink:title=" ">
<polygon fill="#e0e0e0" stroke="#999999" points="797.66,-189.5 670.66,-189.5 670.66,-170.5 797.66,-170.5 797.66,-189.5"/>
<text text-anchor="middle" x="734.16" y="-177.5" font-family="FreeSans" font-size="10.00">boost/concept/assert.hpp</text>
</a>
</g>
</g>
<!-- Node7&#45;&gt;Node13 -->
<g id="edge13" class="edge">
<title>Node7&#45;&gt;Node13</title>
<path fill="none" stroke="#63b8ff" d="M1329.39,-241.96C1224.25,-236.08 997.2,-221.33 807.16,-195 800.86,-194.13 794.27,-193.07 787.75,-191.93"/>
<polygon fill="#63b8ff" stroke="#63b8ff" points="788.84,-188.57 778.38,-190.23 787.59,-195.46 788.84,-188.57"/>
</g>
<!-- Node14 -->
<g id="node14" class="node">
<title>Node14</title>
<g id="a_node14"><a xlink:title=" ">
<polygon fill="#e0e0e0" stroke="#999999" points="950.16,-189.5 816.16,-189.5 816.16,-170.5 950.16,-170.5 950.16,-189.5"/>
<text text-anchor="middle" x="883.16" y="-177.5" font-family="FreeSans" font-size="10.00">boost/concept/requires.hpp</text>
</a>
</g>
</g>
<!-- Node7&#45;&gt;Node14 -->
<g id="edge14" class="edge">
<title>Node7&#45;&gt;Node14</title>
<path fill="none" stroke="#63b8ff" d="M1329.37,-239.39C1246.56,-231.21 1090.97,-214.8 959.16,-195 952.87,-194.06 946.31,-192.98 939.78,-191.86"/>
<polygon fill="#63b8ff" stroke="#63b8ff" points="940.84,-188.49 930.39,-190.19 939.63,-195.38 940.84,-188.49"/>
</g>
<!-- Node15 -->
<g id="node15" class="node">
<title>Node15</title>
<g id="a_node15"><a xlink:title=" ">
<polygon fill="#e0e0e0" stroke="#999999" points="1075.66,-195 968.66,-195 968.66,-165 1075.66,-165 1075.66,-195"/>
<text text-anchor="start" x="976.66" y="-183" font-family="FreeSans" font-size="10.00">boost/iterator/iterator</text>
<text text-anchor="middle" x="1022.16" y="-172" font-family="FreeSans" font-size="10.00">_concepts.hpp</text>
</a>
</g>
</g>
<!-- Node7&#45;&gt;Node15 -->
<g id="edge15" class="edge">
<title>Node7&#45;&gt;Node15</title>
<path fill="none" stroke="#63b8ff" d="M1329.42,-236.39C1270.51,-227.52 1176.95,-212.79 1087.11,-195.51"/>
<polygon fill="#63b8ff" stroke="#63b8ff" points="1087.86,-192.09 1077.38,-193.62 1086.53,-198.96 1087.86,-192.09"/>
</g>
<!-- Node16 -->
<g id="node16" class="node">
<title>Node16</title>
<g id="a_node16"><a xlink:title=" ">
<polygon fill="#e0e0e0" stroke="#999999" points="1238.66,-189.5 1093.66,-189.5 1093.66,-170.5 1238.66,-170.5 1238.66,-189.5"/>
<text text-anchor="middle" x="1166.16" y="-177.5" font-family="FreeSans" font-size="10.00">boost/concept_archetype.hpp</text>
</a>
</g>
</g>
<!-- Node7&#45;&gt;Node16 -->
<g id="edge16" class="edge">
<title>Node7&#45;&gt;Node16</title>
<path fill="none" stroke="#63b8ff" d="M1357.3,-236.1C1318.47,-224.91 1251.64,-205.64 1208.18,-193.11"/>
<polygon fill="#63b8ff" stroke="#63b8ff" points="1209.16,-189.75 1198.58,-190.35 1207.22,-196.48 1209.16,-189.75"/>
</g>
<!-- Node17 -->
<g id="node17" class="node">
<title>Node17</title>
<g id="a_node17"><a xlink:title=" ">
<polygon fill="#e0e0e0" stroke="#999999" points="1303.16,-189.5 1257.16,-189.5 1257.16,-170.5 1303.16,-170.5 1303.16,-189.5"/>
<text text-anchor="middle" x="1280.16" y="-177.5" font-family="FreeSans" font-size="10.00">stdio.h</text>
</a>
</g>
</g>
<!-- Node7&#45;&gt;Node17 -->
<g id="edge18" class="edge">
<title>Node7&#45;&gt;Node17</title>
<path fill="none" stroke="#63b8ff" d="M1373.15,-236.1C1355.5,-225.64 1325.94,-208.13 1304.9,-195.66"/>
<polygon fill="#63b8ff" stroke="#63b8ff" points="1306.74,-192.68 1296.36,-190.59 1303.17,-198.7 1306.74,-192.68"/>
</g>
<!-- Node18 -->
<g id="node18" class="node">
<title>Node18</title>
<g id="a_node18"><a xlink:href="Config_8h_source.html" target="_top" xlink:title=" ">
<polygon fill="white" stroke="#666666" points="591.16,-74 485.16,-74 485.16,-55 591.16,-55 591.16,-74"/>
<text text-anchor="middle" x="538.16" y="-62" font-family="FreeSans" font-size="10.00">DGtal/base/Config.h</text>
</a>
</g>
</g>
<!-- Node7&#45;&gt;Node18 -->
<g id="edge19" class="edge">
<title>Node7&#45;&gt;Node18</title>
<path fill="none" stroke="#63b8ff" d="M1386.43,-236.16C1382.57,-219.09 1371.52,-181.83 1346.16,-165 1267,-112.47 1014.43,-140.8 920.16,-129 804.52,-114.53 670.33,-90.54 595.74,-76.56"/>
<polygon fill="#63b8ff" stroke="#63b8ff" points="596.7,-73.18 586.22,-74.77 595.4,-80.05 596.7,-73.18"/>
</g>
<!-- Node20 -->
<g id="node20" class="node">
<title>Node20</title>
<g id="a_node20"><a xlink:href="Trace_8h_source.html" target="_top" xlink:title=" ">
<polygon fill="white" stroke="#666666" points="257.16,-189.5 155.16,-189.5 155.16,-170.5 257.16,-170.5 257.16,-189.5"/>
<text text-anchor="middle" x="206.16" y="-177.5" font-family="FreeSans" font-size="10.00">DGtal/base/Trace.h</text>
</a>
</g>
</g>
<!-- Node7&#45;&gt;Node20 -->
<g id="edge22" class="edge">
<title>Node7&#45;&gt;Node20</title>
<path fill="none" stroke="#63b8ff" d="M1329.48,-243.82C1129.37,-239.56 474.66,-223.72 266.16,-195 261.14,-194.31 255.92,-193.39 250.75,-192.36"/>
<polygon fill="#63b8ff" stroke="#63b8ff" points="251.59,-188.96 241.08,-190.27 250.11,-195.8 251.59,-188.96"/>
</g>
<!-- Node27 -->
<g id="node27" class="node">
<title>Node27</title>
<g id="a_node27"><a xlink:href="TraceWriterTerm_8h_source.html" target="_top" xlink:title=" ">
<polygon fill="white" stroke="#666666" points="366.66,-129 217.66,-129 217.66,-110 366.66,-110 366.66,-129"/>
<text text-anchor="middle" x="292.16" y="-117" font-family="FreeSans" font-size="10.00">DGtal/base/TraceWriterTerm.h</text>
</a>
</g>
</g>
<!-- Node7&#45;&gt;Node27 -->
<g id="edge45" class="edge">
<title>Node7&#45;&gt;Node27</title>
<path fill="none" stroke="#63b8ff" d="M1329.24,-244.87C1088.13,-244.05 187.58,-238.11 146.16,-195 116.04,-163.64 173.88,-143.18 225.42,-131.77"/>
<polygon fill="#63b8ff" stroke="#63b8ff" points="226.08,-135.21 235.14,-129.72 224.63,-128.36 226.08,-135.21"/>
</g>
<!-- Node28 -->
<g id="node28" class="node">
<title>Node28</title>
<g id="a_node28"><a xlink:href="Assert_8h_source.html" target="_top" xlink:title=" ">
<polygon fill="white" stroke="#666666" points="749.16,-129 643.16,-129 643.16,-110 749.16,-110 749.16,-129"/>
<text text-anchor="middle" x="696.16" y="-117" font-family="FreeSans" font-size="10.00">DGtal/base/Assert.h</text>
</a>
</g>
</g>
<!-- Node7&#45;&gt;Node28 -->
<g id="edge50" class="edge">
<title>Node7&#45;&gt;Node28</title>
<path fill="none" stroke="#63b8ff" d="M1383.03,-236.26C1372.36,-219.03 1345.94,-180.96 1312.16,-165 1287.53,-153.36 913.58,-132.14 760.63,-123.9"/>
<polygon fill="#63b8ff" stroke="#63b8ff" points="761.25,-120.43 751.08,-123.39 760.88,-127.42 761.25,-120.43"/>
</g>
<!-- Node31 -->
<g id="node31" class="node">
<title>Node31</title>
<g id="a_node31"><a xlink:href="TraceWriterFile_8h_source.html" target="_top" xlink:title=" ">
<polygon fill="white" stroke="#666666" points="160.66,-129 17.66,-129 17.66,-110 160.66,-110 160.66,-129"/>
<text text-anchor="middle" x="89.16" y="-117" font-family="FreeSans" font-size="10.00">DGtal/base/TraceWriterFile.h</text>
</a>
</g>
</g>
<!-- Node7&#45;&gt;Node31 -->
<g id="edge46" class="edge">
<title>Node7&#45;&gt;Node31</title>
<path fill="none" stroke="#63b8ff" d="M1329.22,-244.2C1087.96,-240.72 186.13,-225.7 134.16,-195 113.87,-183.01 101.6,-157.97 95.11,-140.23"/>
<polygon fill="#63b8ff" stroke="#63b8ff" points="98.45,-139.2 91.99,-130.81 91.81,-141.4 98.45,-139.2"/>
</g>
<!-- Node32 -->
<g id="node32" class="node">
<title>Node32</title>
<g id="a_node32"><a xlink:href="ConceptUtils_8h_source.html" target="_top" xlink:title=" ">
<polygon fill="white" stroke="#666666" points="1223.16,-129 1089.16,-129 1089.16,-110 1223.16,-110 1223.16,-129"/>
<text text-anchor="middle" x="1156.16" y="-117" font-family="FreeSans" font-size="10.00">DGtal/base/ConceptUtils.h</text>
</a>
</g>
</g>
<!-- Node7&#45;&gt;Node32 -->
<g id="edge51" class="edge">
<title>Node7&#45;&gt;Node32</title>
<path fill="none" stroke="#63b8ff" d="M1390.75,-236.01C1394.85,-219.68 1400.69,-184.99 1383.16,-165 1373.19,-153.63 1296.37,-140.23 1234.82,-131.13"/>
<polygon fill="#63b8ff" stroke="#63b8ff" points="1235.42,-127.68 1225.02,-129.7 1234.41,-134.61 1235.42,-127.68"/>
</g>
<!-- Node33 -->
<g id="node33" class="node">
<title>Node33</title>
<g id="a_node33"><a xlink:href="BasicTypes_8h_source.html" target="_top" xlink:title=" ">
<polygon fill="white" stroke="#666666" points="1369.16,-129 1241.16,-129 1241.16,-110 1369.16,-110 1369.16,-129"/>
<text text-anchor="middle" x="1305.16" y="-117" font-family="FreeSans" font-size="10.00">DGtal/base/BasicTypes.h</text>
</a>
</g>
</g>
<!-- Node7&#45;&gt;Node33 -->
<g id="edge53" class="edge">
<title>Node7&#45;&gt;Node33</title>
<path fill="none" stroke="#63b8ff" d="M1396.84,-236.48C1411.32,-221.2 1437.33,-188.52 1421.16,-165 1410.69,-149.76 1394.23,-139.74 1376.96,-133.15"/>
<polygon fill="#63b8ff" stroke="#63b8ff" points="1378.18,-129.87 1367.58,-129.96 1375.92,-136.5 1378.18,-129.87"/>
</g>
<!-- Node36 -->
<g id="node36" class="node">
<title>Node36</title>
<g id="a_node36"><a xlink:href="BasicFunctors_8h_source.html" target="_top" xlink:title=" ">
<polygon fill="white" stroke="#666666" points="1897.16,-189.5 1757.16,-189.5 1757.16,-170.5 1897.16,-170.5 1897.16,-189.5"/>
<text text-anchor="middle" x="1827.16" y="-177.5" font-family="FreeSans" font-size="10.00">DGtal/base/BasicFunctors.h</text>
</a>
</g>
</g>
<!-- Node7&#45;&gt;Node36 -->
<g id="edge58" class="edge">
<title>Node7&#45;&gt;Node36</title>
<path fill="none" stroke="#63b8ff" d="M1447.03,-236.28C1515.96,-226.67 1633.28,-210.51 1734.16,-195 1740.8,-193.98 1747.72,-192.88 1754.67,-191.77"/>
<polygon fill="#63b8ff" stroke="#63b8ff" points="1755.15,-195.23 1764.46,-190.18 1754.03,-188.32 1755.15,-195.23"/>
</g>
<!-- Node45 -->
<g id="node45" class="node">
<title>Node45</title>
<g id="a_node45"><a xlink:href="BasicArchetypes_8h_source.html" target="_top" xlink:title=" ">
<polygon fill="white" stroke="#666666" points="1625.16,-189.5 1473.16,-189.5 1473.16,-170.5 1625.16,-170.5 1625.16,-189.5"/>
<text text-anchor="middle" x="1549.16" y="-177.5" font-family="FreeSans" font-size="10.00">DGtal/base/BasicArchetypes.h</text>
</a>
</g>
</g>
<!-- Node7&#45;&gt;Node45 -->
<g id="edge74" class="edge">
<title>Node7&#45;&gt;Node45</title>
<path fill="none" stroke="#63b8ff" d="M1410.55,-236.1C1437.99,-225.19 1484.71,-206.62 1516.25,-194.09"/>
<polygon fill="#63b8ff" stroke="#63b8ff" points="1517.3,-197.43 1525.3,-190.49 1514.72,-190.93 1517.3,-197.43"/>
</g>
<!-- Node46 -->
<g id="node46" class="node">
<title>Node46</title>
<g id="a_node46"><a xlink:href="Exceptions_8h_source.html" target="_top" xlink:title=" ">
<polygon fill="white" stroke="#666666" points="1558.16,-129 1432.16,-129 1432.16,-110 1558.16,-110 1558.16,-129"/>
<text text-anchor="middle" x="1495.16" y="-117" font-family="FreeSans" font-size="10.00">DGtal/base/Exceptions.h</text>
</a>
</g>
</g>
<!-- Node7&#45;&gt;Node46 -->
<g id="edge76" class="edge">
<title>Node7&#45;&gt;Node46</title>
<path fill="none" stroke="#63b8ff" d="M1446.88,-241.41C1512,-236.06 1610.96,-223.39 1634.16,-195 1660.12,-163.23 1608.08,-143.13 1560.45,-131.92"/>
<polygon fill="#63b8ff" stroke="#63b8ff" points="1561.44,-128.56 1550.92,-129.79 1559.91,-135.39 1561.44,-128.56"/>
</g>
<!-- Node18&#45;&gt;Node4 -->
<g id="edge20" class="edge">
<title>Node18&#45;&gt;Node4</title>
<path fill="none" stroke="#63b8ff" d="M591.62,-58.93C606.67,-57.65 623.06,-56.27 638.16,-55 825.23,-39.31 1048.91,-20.93 1137.4,-13.68"/>
<polygon fill="#63b8ff" stroke="#63b8ff" points="1137.54,-17.18 1147.22,-12.87 1136.97,-10.2 1137.54,-17.18"/>
</g>
<!-- Node19 -->
<g id="node19" class="node">
<title>Node19</title>
<g id="a_node19"><a xlink:title=" ">
<polygon fill="#e0e0e0" stroke="#999999" points="415.66,-19 374.66,-19 374.66,0 415.66,0 415.66,-19"/>
<text text-anchor="middle" x="395.16" y="-7" font-family="FreeSans" font-size="10.00">string</text>
</a>
</g>
</g>
<!-- Node18&#45;&gt;Node19 -->
<g id="edge21" class="edge">
<title>Node18&#45;&gt;Node19</title>
<path fill="none" stroke="#63b8ff" d="M513.91,-54.51C489.78,-45.57 452.67,-31.81 426.36,-22.06"/>
<polygon fill="#63b8ff" stroke="#63b8ff" points="427.83,-18.88 417.24,-18.68 425.4,-25.44 427.83,-18.88"/>
</g>
<!-- Node20&#45;&gt;Node4 -->
<g id="edge23" class="edge">
<title>Node20&#45;&gt;Node4</title>
<path fill="none" stroke="#63b8ff" d="M239.6,-170.06C248.2,-168.07 257.48,-166.21 266.16,-165 436.94,-141.31 881.27,-193.5 1041.16,-129 1094.48,-107.49 1141.02,-55.51 1162.89,-28.09"/>
<polygon fill="#63b8ff" stroke="#63b8ff" points="1165.5,-30.45 1168.87,-20.4 1159.97,-26.15 1165.5,-30.45"/>
</g>
<!-- Node20&#45;&gt;Node18 -->
<g id="edge27" class="edge">
<title>Node20&#45;&gt;Node18</title>
<path fill="none" stroke="#63b8ff" d="M241.9,-170.07C249.86,-168.24 258.27,-166.44 266.16,-165 325.71,-154.11 495.58,-173.91 536.16,-129 546.69,-117.35 546.13,-99.03 543.56,-85.06"/>
<polygon fill="#63b8ff" stroke="#63b8ff" points="547.04,-84.58 541.35,-75.64 540.23,-86.18 547.04,-84.58"/>
</g>
<!-- Node20&#45;&gt;Node19 -->
<g id="edge25" class="edge">
<title>Node20&#45;&gt;Node19</title>
<path fill="none" stroke="#63b8ff" d="M243.95,-170.06C291,-158.59 366.31,-138.99 375.16,-129 399.31,-101.75 399.83,-56.58 397.72,-30.59"/>
<polygon fill="#63b8ff" stroke="#63b8ff" points="401.21,-30.32 396.68,-20.74 394.24,-31.06 401.21,-30.32"/>
</g>
<!-- Node21 -->
<g id="node21" class="node">
<title>Node21</title>
<g id="a_node21"><a xlink:title=" ">
<polygon fill="#e0e0e0" stroke="#999999" points="130.16,-19 78.16,-19 78.16,0 130.16,0 130.16,-19"/>
<text text-anchor="middle" x="104.16" y="-7" font-family="FreeSans" font-size="10.00">ostream</text>
</a>
</g>
</g>
<!-- Node20&#45;&gt;Node21 -->
<g id="edge24" class="edge">
<title>Node20&#45;&gt;Node21</title>
<path fill="none" stroke="#63b8ff" d="M154.75,-173.16C102.26,-166.01 26.03,-151.94 8.16,-129 -21.36,-91.1 39.19,-47.4 76.97,-25.16"/>
<polygon fill="#63b8ff" stroke="#63b8ff" points="78.66,-28.22 85.61,-20.22 75.19,-22.14 78.66,-28.22"/>
</g>
<!-- Node22 -->
<g id="node22" class="node">
<title>Node22</title>
<g id="a_node22"><a xlink:title=" ">
<polygon fill="#e0e0e0" stroke="#999999" points="624.66,-129 583.66,-129 583.66,-110 624.66,-110 624.66,-129"/>
<text text-anchor="middle" x="604.16" y="-117" font-family="FreeSans" font-size="10.00">stack</text>
</a>
</g>
</g>
<!-- Node20&#45;&gt;Node22 -->
<g id="edge26" class="edge">
<title>Node20&#45;&gt;Node22</title>
<path fill="none" stroke="#63b8ff" d="M241.56,-170.05C249.62,-168.21 258.16,-166.41 266.16,-165 399.74,-141.56 435.7,-153.05 569.16,-129 570.33,-128.79 571.52,-128.56 572.72,-128.32"/>
<polygon fill="#63b8ff" stroke="#63b8ff" points="573.03,-131.84 582.05,-126.27 571.53,-125 573.03,-131.84"/>
</g>
<!-- Node23 -->
<g id="node23" class="node">
<title>Node23</title>
<g id="a_node23"><a xlink:href="Clock_8h_source.html" target="_top" xlink:title=" ">
<polygon fill="white" stroke="#666666" points="1032.66,-129 929.66,-129 929.66,-110 1032.66,-110 1032.66,-129"/>
<text text-anchor="middle" x="981.16" y="-117" font-family="FreeSans" font-size="10.00">DGtal/base/Clock.h</text>
</a>
</g>
</g>
<!-- Node20&#45;&gt;Node23 -->
<g id="edge28" class="edge">
<title>Node20&#45;&gt;Node23</title>
<path fill="none" stroke="#63b8ff" d="M240.24,-170.01C248.66,-168.08 257.7,-166.24 266.16,-165 391.04,-146.68 767.33,-129.44 917.89,-123.08"/>
<polygon fill="#63b8ff" stroke="#63b8ff" points="917.83,-126.58 927.68,-122.67 917.54,-119.59 917.83,-126.58"/>
</g>
<!-- Node26 -->
<g id="node26" class="node">
<title>Node26</title>
<g id="a_node26"><a xlink:href="TraceWriter_8h_source.html" target="_top" xlink:title=" ">
<polygon fill="white" stroke="#666666" points="282.66,-74 155.66,-74 155.66,-55 282.66,-55 282.66,-74"/>
<text text-anchor="middle" x="219.16" y="-62" font-family="FreeSans" font-size="10.00">DGtal/base/TraceWriter.h</text>
</a>
</g>
</g>
<!-- Node20&#45;&gt;Node26 -->
<g id="edge32" class="edge">
<title>Node20&#45;&gt;Node26</title>
<path fill="none" stroke="#63b8ff" d="M205.82,-170.02C205.44,-156.8 205.25,-131.37 208.16,-110 209.28,-101.82 211.3,-92.96 213.3,-85.32"/>
<polygon fill="#63b8ff" stroke="#63b8ff" points="216.67,-86.29 216,-75.71 209.93,-84.4 216.67,-86.29"/>
</g>
<!-- Node20&#45;&gt;Node27 -->
<g id="edge35" class="edge">
<title>Node20&#45;&gt;Node27</title>
<path fill="none" stroke="#63b8ff" d="M219.23,-170.12C232.61,-161.01 253.68,-146.68 269.74,-135.75"/>
<polygon fill="#63b8ff" stroke="#63b8ff" points="271.43,-138.84 277.73,-130.32 267.49,-133.05 271.43,-138.84"/>
</g>
<!-- Node20&#45;&gt;Node28 -->
<g id="edge40" class="edge">
<title>Node20&#45;&gt;Node28</title>
<path fill="none" stroke="#63b8ff" d="M232.47,-170C240.37,-168.14 249.04,-166.34 257.16,-165 418.87,-138.32 461.37,-147.96 624.16,-129 626.61,-128.71 629.12,-128.41 631.65,-128.1"/>
<polygon fill="#63b8ff" stroke="#63b8ff" points="631.89,-131.6 641.38,-126.88 631.02,-124.66 631.89,-131.6"/>
</g>
<!-- Node30 -->
<g id="node30" class="node">
<title>Node30</title>
<g id="a_node30"><a xlink:href="Trace_8ih_source.html" target="_top" xlink:title=" ">
<polygon fill="white" stroke="#666666" points="527.16,-129 423.16,-129 423.16,-110 527.16,-110 527.16,-129"/>
<text text-anchor="middle" x="475.16" y="-117" font-family="FreeSans" font-size="10.00">DGtal/base/Trace.ih</text>
</a>
</g>
</g>
<!-- Node20&#45;&gt;Node30 -->
<g id="edge44" class="edge">
<title>Node20&#45;&gt;Node30</title>
<path fill="none" stroke="#63b8ff" d="M244.23,-170C251.5,-168.31 259.06,-166.58 266.16,-165 318.57,-153.31 378.52,-140.61 420.74,-131.79"/>
<polygon fill="#63b8ff" stroke="#63b8ff" points="421.33,-135.24 430.4,-129.77 419.89,-128.39 421.33,-135.24"/>
</g>
<!-- Node23&#45;&gt;Node4 -->
<g id="edge29" class="edge">
<title>Node23&#45;&gt;Node4</title>
<path fill="none" stroke="#63b8ff" d="M979.47,-109.87C977.35,-96.36 975.51,-70.22 989.16,-55 1008.62,-33.31 1088.53,-20.51 1137.37,-14.56"/>
<polygon fill="#63b8ff" stroke="#63b8ff" points="1137.74,-18.04 1147.27,-13.4 1136.93,-11.09 1137.74,-18.04"/>
</g>
<!-- Node24 -->
<g id="node24" class="node">
<title>Node24</title>
<g id="a_node24"><a xlink:title=" ">
<polygon fill="#e0e0e0" stroke="#999999" points="1043.66,-74 998.66,-74 998.66,-55 1043.66,-55 1043.66,-74"/>
<text text-anchor="middle" x="1021.16" y="-62" font-family="FreeSans" font-size="10.00">cstdlib</text>
</a>
</g>
</g>
<!-- Node23&#45;&gt;Node24 -->
<g id="edge30" class="edge">
<title>Node23&#45;&gt;Node24</title>
<path fill="none" stroke="#63b8ff" d="M987.77,-109.75C993.12,-102.66 1000.84,-92.42 1007.51,-83.59"/>
<polygon fill="#63b8ff" stroke="#63b8ff" points="1010.27,-85.74 1013.5,-75.65 1004.69,-81.52 1010.27,-85.74"/>
</g>
<!-- Node25 -->
<g id="node25" class="node">
<title>Node25</title>
<g id="a_node25"><a xlink:href="Clock_8ih_source.html" target="_top" xlink:title=" ">
<polygon fill="white" stroke="#666666" points="941.66,-74 836.66,-74 836.66,-55 941.66,-55 941.66,-74"/>
<text text-anchor="middle" x="889.16" y="-62" font-family="FreeSans" font-size="10.00">DGtal/base/Clock.ih</text>
</a>
</g>
</g>
<!-- Node23&#45;&gt;Node25 -->
<g id="edge31" class="edge">
<title>Node23&#45;&gt;Node25</title>
<path fill="none" stroke="#63b8ff" d="M965.56,-109.51C951.46,-101.39 930.48,-89.3 914.06,-79.85"/>
<polygon fill="#63b8ff" stroke="#63b8ff" points="916.26,-77.07 905.85,-75.11 912.77,-83.14 916.26,-77.07"/>
</g>
<!-- Node26&#45;&gt;Node4 -->
<g id="edge33" class="edge">
<title>Node26&#45;&gt;Node4</title>
<path fill="none" stroke="#63b8ff" d="M283.07,-59.96C466.53,-49.8 991.1,-20.75 1137.69,-12.63"/>
<polygon fill="#63b8ff" stroke="#63b8ff" points="1137.46,-16.15 1147.25,-12.1 1137.07,-9.16 1137.46,-16.15"/>
</g>
<!-- Node26&#45;&gt;Node21 -->
<g id="edge34" class="edge">
<title>Node26&#45;&gt;Node21</title>
<path fill="none" stroke="#63b8ff" d="M199.66,-54.51C181.54,-46.16 154.31,-33.61 133.56,-24.05"/>
<polygon fill="#63b8ff" stroke="#63b8ff" points="135.31,-21 124.76,-19.99 132.38,-27.36 135.31,-21"/>
</g>
<!-- Node27&#45;&gt;Node4 -->
<g id="edge36" class="edge">
<title>Node27&#45;&gt;Node4</title>
<path fill="none" stroke="#63b8ff" d="M312.36,-109.51C345.7,-95.13 414.7,-67.32 476.16,-55 604.41,-29.28 1010.33,-15.39 1137.61,-11.59"/>
<polygon fill="#63b8ff" stroke="#63b8ff" points="1137.63,-15.09 1147.52,-11.3 1137.42,-8.09 1137.63,-15.09"/>
</g>
<!-- Node27&#45;&gt;Node18 -->
<g id="edge39" class="edge">
<title>Node27&#45;&gt;Node18</title>
<path fill="none" stroke="#63b8ff" d="M333.89,-109.51C375.72,-100.5 440.25,-86.6 485.56,-76.83"/>
<polygon fill="#63b8ff" stroke="#63b8ff" points="486.12,-80.29 495.16,-74.77 484.65,-73.45 486.12,-80.29"/>
</g>
<!-- Node27&#45;&gt;Node19 -->
<g id="edge37" class="edge">
<title>Node27&#45;&gt;Node19</title>
<path fill="none" stroke="#63b8ff" d="M300.59,-109.66C317.64,-91.78 356.49,-51.05 378.73,-27.73"/>
<polygon fill="#63b8ff" stroke="#63b8ff" points="381.21,-30.21 385.57,-20.56 376.14,-25.38 381.21,-30.21"/>
</g>
<!-- Node27&#45;&gt;Node26 -->
<g id="edge38" class="edge">
<title>Node27&#45;&gt;Node26</title>
<path fill="none" stroke="#63b8ff" d="M279.78,-109.51C269.02,-101.7 253.19,-90.21 240.41,-80.93"/>
<polygon fill="#63b8ff" stroke="#63b8ff" points="242.74,-78.29 232.59,-75.25 238.63,-83.95 242.74,-78.29"/>
</g>
<!-- Node28&#45;&gt;Node19 -->
<g id="edge43" class="edge">
<title>Node28&#45;&gt;Node19</title>
<path fill="none" stroke="#63b8ff" d="M685.69,-109.65C668.81,-95.84 634.04,-69.29 600.16,-55 541.98,-30.46 468.57,-18.75 427.25,-13.75"/>
<polygon fill="#63b8ff" stroke="#63b8ff" points="427.84,-10.29 417.51,-12.63 427.04,-17.24 427.84,-10.29"/>
</g>
<!-- Node28&#45;&gt;Node20 -->
<g id="edge41" class="edge">
<title>Node28&#45;&gt;Node20</title>
<path fill="none" stroke="#63b8ff" d="M642.82,-128.92C642.6,-128.95 642.38,-128.97 642.16,-129 479.37,-147.96 436.87,-138.32 275.16,-165 270.59,-165.75 265.85,-166.65 261.08,-167.63"/>
<polygon fill="#63b8ff" stroke="#63b8ff" points="260.51,-164.17 251.46,-169.69 261.97,-171.02 260.51,-164.17"/>
</g>
<!-- Node29 -->
<g id="node29" class="node">
<title>Node29</title>
<g id="a_node29"><a xlink:title=" ">
<polygon fill="#e0e0e0" stroke="#999999" points="779.16,-74 647.16,-74 647.16,-55 779.16,-55 779.16,-74"/>
<text text-anchor="middle" x="713.16" y="-62" font-family="FreeSans" font-size="10.00">boost/current_function.hpp</text>
</a>
</g>
</g>
<!-- Node28&#45;&gt;Node29 -->
<g id="edge42" class="edge">
<title>Node28&#45;&gt;Node29</title>
<path fill="none" stroke="#63b8ff" d="M698.97,-109.75C701.1,-103.11 704.11,-93.73 706.81,-85.31"/>
<polygon fill="#63b8ff" stroke="#63b8ff" points="710.11,-86.47 709.83,-75.88 703.45,-84.34 710.11,-86.47"/>
</g>
<!-- Node31&#45;&gt;Node4 -->
<g id="edge47" class="edge">
<title>Node31&#45;&gt;Node4</title>
<path fill="none" stroke="#63b8ff" d="M93.76,-109.96C102.04,-95.56 120.98,-66.89 146.16,-55 237.04,-12.08 961.21,-10.22 1137.55,-10.41"/>
<polygon fill="#63b8ff" stroke="#63b8ff" points="1137.31,-13.91 1147.31,-10.42 1137.32,-6.91 1137.31,-13.91"/>
</g>
<!-- Node31&#45;&gt;Node19 -->
<g id="edge48" class="edge">
<title>Node31&#45;&gt;Node19</title>
<path fill="none" stroke="#63b8ff" d="M89.8,-109.5C91.3,-95.5 96.34,-68.69 113.16,-55 150.99,-24.23 297.25,-14.47 362.92,-11.6"/>
<polygon fill="#63b8ff" stroke="#63b8ff" points="362.84,-15.11 372.69,-11.21 362.55,-8.11 362.84,-15.11"/>
</g>
<!-- Node31&#45;&gt;Node26 -->
<g id="edge49" class="edge">
<title>Node31&#45;&gt;Node26</title>
<path fill="none" stroke="#63b8ff" d="M111.22,-109.51C131.98,-101.04 163.32,-88.27 186.89,-78.66"/>
<polygon fill="#63b8ff" stroke="#63b8ff" points="188.1,-81.95 196.04,-74.93 185.45,-75.46 188.1,-81.95"/>
</g>
<!-- Node32&#45;&gt;Node4 -->
<g id="edge52" class="edge">
<title>Node32&#45;&gt;Node4</title>
<path fill="none" stroke="#63b8ff" d="M1156.41,-109.79C1156.88,-97.47 1158.26,-74.32 1162.16,-55 1163.85,-46.66 1166.51,-37.68 1169.06,-29.98"/>
<polygon fill="#63b8ff" stroke="#63b8ff" points="1172.32,-31.25 1172.32,-20.65 1165.71,-28.94 1172.32,-31.25"/>
</g>
<!-- Node33&#45;&gt;Node4 -->
<g id="edge55" class="edge">
<title>Node33&#45;&gt;Node4</title>
<path fill="none" stroke="#63b8ff" d="M1258.83,-109.56C1236.81,-103.11 1211.74,-92.2 1195.16,-74 1184.37,-62.14 1179.7,-44.38 1177.68,-30.65"/>
<polygon fill="#63b8ff" stroke="#63b8ff" points="1181.19,-30.54 1176.64,-20.97 1174.23,-31.29 1181.19,-30.54"/>
</g>
<!-- Node33&#45;&gt;Node24 -->
<g id="edge54" class="edge">
<title>Node33&#45;&gt;Node24</title>
<path fill="none" stroke="#63b8ff" d="M1256.99,-109.51C1199.7,-98.82 1105.54,-81.25 1055.28,-71.87"/>
<polygon fill="#63b8ff" stroke="#63b8ff" points="1056.04,-68.45 1045.57,-70.05 1054.76,-75.33 1056.04,-68.45"/>
</g>
<!-- Node34 -->
<g id="node34" class="node">
<title>Node34</title>
<g id="a_node34"><a xlink:title=" ">
<polygon fill="#e0e0e0" stroke="#999999" points="1368.16,-74 1276.16,-74 1276.16,-55 1368.16,-55 1368.16,-74"/>
<text text-anchor="middle" x="1322.16" y="-62" font-family="FreeSans" font-size="10.00">boost/cstdint.hpp</text>
</a>
</g>
</g>
<!-- Node33&#45;&gt;Node34 -->
<g id="edge56" class="edge">
<title>Node33&#45;&gt;Node34</title>
<path fill="none" stroke="#63b8ff" d="M1307.97,-109.75C1310.1,-103.11 1313.11,-93.73 1315.81,-85.31"/>
<polygon fill="#63b8ff" stroke="#63b8ff" points="1319.11,-86.47 1318.83,-75.88 1312.45,-84.34 1319.11,-86.47"/>
</g>
<!-- Node35 -->
<g id="node35" class="node">
<title>Node35</title>
<g id="a_node35"><a xlink:title=" ">
<polygon fill="#e0e0e0" stroke="#999999" points="1258.16,-74 1204.16,-74 1204.16,-55 1258.16,-55 1258.16,-74"/>
<text text-anchor="middle" x="1231.16" y="-62" font-family="FreeSans" font-size="10.00">gmpxx.h</text>
</a>
</g>
</g>
<!-- Node33&#45;&gt;Node35 -->
<g id="edge57" class="edge">
<title>Node33&#45;&gt;Node35</title>
<path fill="none" stroke="#63b8ff" d="M1292.61,-109.51C1281.7,-101.7 1265.66,-90.21 1252.7,-80.93"/>
<polygon fill="#63b8ff" stroke="#63b8ff" points="1254.93,-78.22 1244.76,-75.24 1250.85,-83.91 1254.93,-78.22"/>
</g>
<!-- Node36&#45;&gt;Node3 -->
<g id="edge61" class="edge">
<title>Node36&#45;&gt;Node3</title>
<path fill="none" stroke="#63b8ff" d="M1859.67,-170.12C1899.77,-159.15 1967.58,-140.62 2007.99,-129.57"/>
<polygon fill="#63b8ff" stroke="#63b8ff" points="2008.67,-133.01 2017.4,-127 2006.83,-126.26 2008.67,-133.01"/>
</g>
<!-- Node36&#45;&gt;Node7 -->
<g id="edge69" class="edge">
<title>Node36&#45;&gt;Node7</title>
<path fill="none" stroke="#63b8ff" d="M1783.59,-189.94C1773.31,-191.67 1762.39,-193.43 1752.16,-195 1650.41,-210.64 1531.95,-226.94 1458.42,-236.52"/>
<polygon fill="#63b8ff" stroke="#63b8ff" points="1457.98,-233.05 1448.52,-237.81 1458.88,-239.99 1457.98,-233.05"/>
</g>
<!-- Node36&#45;&gt;Node9 -->
<g id="edge59" class="edge">
<title>Node36&#45;&gt;Node9</title>
<path fill="none" stroke="#63b8ff" d="M1856.75,-170.06C1886.36,-160.82 1933.01,-145.46 1972.16,-129 1989.57,-121.68 1992.42,-116.46 2010.16,-110 2017.1,-107.47 2104.26,-86.96 2156.77,-74.68"/>
<polygon fill="#63b8ff" stroke="#63b8ff" points="2157.3,-78.15 2166.25,-72.47 2155.71,-71.34 2157.3,-78.15"/>
</g>
<!-- Node37 -->
<g id="node37" class="node">
<title>Node37</title>
<g id="a_node37"><a xlink:title=" ">
<polygon fill="#e0e0e0" stroke="#999999" points="1962.66,-129 1903.66,-129 1903.66,-110 1962.66,-110 1962.66,-129"/>
<text text-anchor="middle" x="1933.16" y="-117" font-family="FreeSans" font-size="10.00">functional</text>
</a>
</g>
</g>
<!-- Node36&#45;&gt;Node37 -->
<g id="edge60" class="edge">
<title>Node36&#45;&gt;Node37</title>
<path fill="none" stroke="#63b8ff" d="M1843.26,-170.12C1860.15,-160.79 1886.96,-146 1906.92,-134.99"/>
<polygon fill="#63b8ff" stroke="#63b8ff" points="1908.52,-138.1 1915.59,-130.2 1905.14,-131.97 1908.52,-138.1"/>
</g>
<!-- Node38 -->
<g id="node38" class="node">
<title>Node38</title>
<g id="a_node38"><a xlink:href="Color_8h_source.html" target="_top" xlink:title=" ">
<polygon fill="white" stroke="#666666" points="1885.16,-129 1799.16,-129 1799.16,-110 1885.16,-110 1885.16,-129"/>
<text text-anchor="middle" x="1842.16" y="-117" font-family="FreeSans" font-size="10.00">DGtal/io/Color.h</text>
</a>
</g>
</g>
<!-- Node36&#45;&gt;Node38 -->
<g id="edge62" class="edge">
<title>Node36&#45;&gt;Node38</title>
<path fill="none" stroke="#63b8ff" d="M1829.38,-170.37C1831.42,-162.42 1834.51,-150.33 1837.15,-140.05"/>
<polygon fill="#63b8ff" stroke="#63b8ff" points="1840.47,-141.19 1839.57,-130.63 1833.69,-139.45 1840.47,-141.19"/>
</g>
<!-- Node42 -->
<g id="node42" class="node">
<title>Node42</title>
<g id="a_node42"><a xlink:href="BasicBoolFunctors_8h_source.html" target="_top" xlink:title=" ">
<polygon fill="white" stroke="#666666" points="1780.16,-129 1620.16,-129 1620.16,-110 1780.16,-110 1780.16,-129"/>
<text text-anchor="middle" x="1700.16" y="-117" font-family="FreeSans" font-size="10.00">DGtal/base/BasicBoolFunctors.h</text>
</a>
</g>
</g>
<!-- Node36&#45;&gt;Node42 -->
<g id="edge70" class="edge">
<title>Node36&#45;&gt;Node42</title>
<path fill="none" stroke="#63b8ff" d="M1807.88,-170.12C1787.18,-160.58 1754.03,-145.31 1729.97,-134.23"/>
<polygon fill="#63b8ff" stroke="#63b8ff" points="1731.56,-131.11 1721.01,-130.1 1728.63,-137.46 1731.56,-131.11"/>
</g>
<!-- Node38&#45;&gt;Node4 -->
<g id="edge63" class="edge">
<title>Node38&#45;&gt;Node4</title>
<path fill="none" stroke="#63b8ff" d="M1842.72,-109.88C1843.1,-95.9 1841.55,-68.49 1825.16,-55 1777.98,-16.15 1346.56,-11.18 1214.44,-10.58"/>
<polygon fill="#63b8ff" stroke="#63b8ff" points="1214.84,-7.08 1204.83,-10.54 1214.81,-14.08 1214.84,-7.08"/>
</g>
<!-- Node38&#45;&gt;Node7 -->
<g id="edge64" class="edge">
<title>Node38&#45;&gt;Node7</title>
<path fill="none" stroke="#63b8ff" d="M1820.74,-129.42C1801.35,-137.78 1772.22,-151.05 1748.16,-165 1728.01,-176.69 1726.78,-186.3 1705.16,-195 1624.47,-227.49 1524.3,-238.95 1458.42,-242.94"/>
<polygon fill="#63b8ff" stroke="#63b8ff" points="1458.24,-239.45 1448.45,-243.5 1458.63,-246.44 1458.24,-239.45"/>
</g>
<!-- Node38&#45;&gt;Node9 -->
<g id="edge66" class="edge">
<title>Node38&#45;&gt;Node9</title>
<path fill="none" stroke="#63b8ff" d="M1885.54,-111.46C1888.79,-110.96 1892.03,-110.46 1895.16,-110 2008.76,-93.15 2040.75,-95.14 2156.82,-74.28"/>
<polygon fill="#63b8ff" stroke="#63b8ff" points="2157.23,-77.76 2166.45,-72.53 2155.98,-70.88 2157.23,-77.76"/>
</g>
<!-- Node39 -->
<g id="node39" class="node">
<title>Node39</title>
<g id="a_node39"><a xlink:title=" ">
<polygon fill="#e0e0e0" stroke="#999999" points="2150.16,-74 2036.16,-74 2036.16,-55 2150.16,-55 2150.16,-74"/>
<text text-anchor="middle" x="2093.16" y="-62" font-family="FreeSans" font-size="10.00">boost/lexical_cast.hpp</text>
</a>
</g>
</g>
<!-- Node38&#45;&gt;Node39 -->
<g id="edge65" class="edge">
<title>Node38&#45;&gt;Node39</title>
<path fill="none" stroke="#63b8ff" d="M1884.74,-109.51C1927.51,-100.48 1993.54,-86.54 2039.78,-76.77"/>
<polygon fill="#63b8ff" stroke="#63b8ff" points="2040.25,-80.25 2049.32,-74.76 2038.81,-73.4 2040.25,-80.25"/>
</g>
<!-- Node40 -->
<g id="node40" class="node">
<title>Node40</title>
<g id="a_node40"><a xlink:title=" ">
<polygon fill="#e0e0e0" stroke="#999999" points="1910.16,-74 1872.16,-74 1872.16,-55 1910.16,-55 1910.16,-74"/>
<text text-anchor="middle" x="1891.16" y="-62" font-family="FreeSans" font-size="10.00">array</text>
</a>
</g>
</g>
<!-- Node38&#45;&gt;Node40 -->
<g id="edge67" class="edge">
<title>Node38&#45;&gt;Node40</title>
<path fill="none" stroke="#63b8ff" d="M1850.26,-109.75C1857.02,-102.43 1866.88,-91.76 1875.23,-82.74"/>
<polygon fill="#63b8ff" stroke="#63b8ff" points="1877.65,-85.27 1881.87,-75.55 1872.51,-80.52 1877.65,-85.27"/>
</g>
<!-- Node41 -->
<g id="node41" class="node">
<title>Node41</title>
<g id="a_node41"><a xlink:href="Color_8ih_source.html" target="_top" xlink:title=" ">
<polygon fill="white" stroke="#666666" points="2017.66,-74 1928.66,-74 1928.66,-55 2017.66,-55 2017.66,-74"/>
<text text-anchor="middle" x="1973.16" y="-62" font-family="FreeSans" font-size="10.00">DGtal/io/Color.ih</text>
</a>
</g>
</g>
<!-- Node38&#45;&gt;Node41 -->
<g id="edge68" class="edge">
<title>Node38&#45;&gt;Node41</title>
<path fill="none" stroke="#63b8ff" d="M1864.39,-109.51C1885.31,-101.04 1916.89,-88.27 1940.65,-78.66"/>
<polygon fill="#63b8ff" stroke="#63b8ff" points="1941.91,-81.92 1949.87,-74.93 1939.28,-75.43 1941.91,-81.92"/>
</g>
<!-- Node42&#45;&gt;Node4 -->
<g id="edge71" class="edge">
<title>Node42&#45;&gt;Node4</title>
<path fill="none" stroke="#63b8ff" d="M1658.14,-109.56C1623.17,-101.65 1572.33,-89.04 1529.16,-74 1509.43,-67.12 1506.25,-60.76 1486.16,-55 1391.06,-27.72 1274.53,-16.74 1215.09,-12.67"/>
<polygon fill="#63b8ff" stroke="#63b8ff" points="1215.36,-9.18 1205.15,-12.02 1214.9,-16.16 1215.36,-9.18"/>
</g>
<!-- Node43 -->
<g id="node43" class="node">
<title>Node43</title>
<g id="a_node43"><a xlink:title=" ">
<polygon fill="#e0e0e0" stroke="#999999" points="1635.66,-74 1538.66,-74 1538.66,-55 1635.66,-55 1635.66,-74"/>
<text text-anchor="middle" x="1587.16" y="-62" font-family="FreeSans" font-size="10.00">boost/function.hpp</text>
</a>
</g>
</g>
<!-- Node42&#45;&gt;Node43 -->
<g id="edge72" class="edge">
<title>Node42&#45;&gt;Node43</title>
<path fill="none" stroke="#63b8ff" d="M1681,-109.51C1663.27,-101.2 1636.69,-88.73 1616.33,-79.18"/>
<polygon fill="#63b8ff" stroke="#63b8ff" points="1617.96,-76.08 1607.42,-75 1614.99,-82.42 1617.96,-76.08"/>
</g>
<!-- Node44 -->
<g id="node44" class="node">
<title>Node44</title>
<g id="a_node44"><a xlink:href="BasicBoolFunctors_8ih_source.html" target="_top" xlink:title=" ">
<polygon fill="white" stroke="#666666" points="1816.16,-74 1654.16,-74 1654.16,-55 1816.16,-55 1816.16,-74"/>
<text text-anchor="middle" x="1735.16" y="-62" font-family="FreeSans" font-size="10.00">DGtal/base/BasicBoolFunctors.ih</text>
</a>
</g>
</g>
<!-- Node42&#45;&gt;Node44 -->
<g id="edge73" class="edge">
<title>Node42&#45;&gt;Node44</title>
<path fill="none" stroke="#63b8ff" d="M1705.94,-109.75C1710.58,-102.73 1717.24,-92.64 1723.03,-83.87"/>
<polygon fill="#63b8ff" stroke="#63b8ff" points="1725.83,-85.98 1728.42,-75.71 1719.99,-82.12 1725.83,-85.98"/>
</g>
<!-- Node45&#45;&gt;Node4 -->
<g id="edge75" class="edge">
<title>Node45&#45;&gt;Node4</title>
<path fill="none" stroke="#63b8ff" d="M1508.83,-170.04C1482.25,-162.54 1447.9,-149.68 1423.16,-129 1393.45,-104.17 1408.77,-77.38 1377.16,-55 1328.64,-20.63 1258.3,-12.14 1214.99,-10.41"/>
<polygon fill="#63b8ff" stroke="#63b8ff" points="1215.14,-6.91 1205.05,-10.12 1214.94,-13.91 1215.14,-6.91"/>
</g>
<!-- Node46&#45;&gt;Node4 -->
<g id="edge77" class="edge">
<title>Node46&#45;&gt;Node4</title>
<path fill="none" stroke="#63b8ff" d="M1486.61,-109.95C1472.18,-96.07 1441.52,-68.81 1410.16,-55 1345.44,-26.5 1262.77,-16.22 1215.01,-12.53"/>
<polygon fill="#63b8ff" stroke="#63b8ff" points="1215.39,-9.05 1205.17,-11.84 1214.89,-16.04 1215.39,-9.05"/>
</g>
<!-- Node47&#45;&gt;Node4 -->
<g id="edge79" class="edge">
<title>Node47&#45;&gt;Node4</title>
<path fill="none" stroke="#63b8ff" d="M2220.5,-296.61C2231.8,-273.07 2252.16,-224.59 2252.16,-181 2252.16,-181 2252.16,-181 2252.16,-118.5 2252.16,-89.04 2256.42,-73.09 2233.16,-55 2192.22,-23.16 1400.38,-12.86 1214.83,-10.88"/>
<polygon fill="#63b8ff" stroke="#63b8ff" points="1215.05,-7.38 1205.01,-10.78 1214.98,-14.38 1215.05,-7.38"/>
</g>
<!-- Node47&#45;&gt;Node6 -->
<g id="edge80" class="edge">
<title>Node47&#45;&gt;Node6</title>
<path fill="none" stroke="#63b8ff" d="M2233.36,-296.8C2247.96,-286.53 2267.67,-272.67 2282.58,-262.18"/>
<polygon fill="#63b8ff" stroke="#63b8ff" points="2284.18,-265.33 2290.35,-256.72 2280.16,-259.6 2284.18,-265.33"/>
</g>
<!-- Node47&#45;&gt;Node7 -->
<g id="edge81" class="edge">
<title>Node47&#45;&gt;Node7</title>
<path fill="none" stroke="#63b8ff" d="M2136.76,-298.06C2133.86,-297.68 2130.99,-297.33 2128.16,-297 1882.94,-268.59 1590,-254.69 1458.33,-249.5"/>
<polygon fill="#63b8ff" stroke="#63b8ff" points="1458.5,-246 1448.37,-249.11 1458.22,-253 1458.5,-246"/>
</g>
<!-- Node48 -->
<g id="node48" class="node">
<title>Node48</title>
<g id="a_node48"><a xlink:href="MeasureOfStraightLines_8ih_source.html" target="_top" xlink:title=" ">
<polygon fill="white" stroke="#666666" points="2224.16,-261 2072.16,-261 2072.16,-231 2224.16,-231 2224.16,-261"/>
<text text-anchor="start" x="2080.16" y="-249" font-family="FreeSans" font-size="10.00">DGtal/math/MeasureOfStraight</text>
<text text-anchor="middle" x="2148.16" y="-238" font-family="FreeSans" font-size="10.00">Lines.ih</text>
</a>
</g>
</g>
<!-- Node47&#45;&gt;Node48 -->
<g id="edge82" class="edge">
<title>Node47&#45;&gt;Node48</title>
<path fill="none" stroke="#63b8ff" d="M2198.74,-296.8C2190.49,-288.68 2179.97,-278.31 2170.66,-269.15"/>
<polygon fill="#63b8ff" stroke="#63b8ff" points="2173.21,-266.75 2163.63,-262.23 2168.3,-271.74 2173.21,-266.75"/>
</g>
</g>
</svg>
