<?xml version="1.0" encoding="UTF-8" standalone="no"?>
<!DOCTYPE svg PUBLIC "-//W3C//DTD SVG 1.1//EN"
 "http://www.w3.org/Graphics/SVG/1.1/DTD/svg11.dtd">
<!-- Generated by graphviz version 13.1.2 (20250808.2320)
 -->
<!-- Title: DGtal::TrueDigitalSurfaceLocalEstimator&lt; TKSpace, TShape, TGeometricFunctor &gt; Pages: 1 -->
<!--zoomable 638 -->

<svg id="main" version="1.1" xmlns="http://www.w3.org/2000/svg" xmlns:xlink="http://www.w3.org/1999/xlink" xml:space="preserve" onload="init(evt)">

<style type="text/css"><![CDATA[
.node, .edge {opacity: 0.7;}
.node.selected, .edge.selected {opacity: 1;}
.edge:hover path { stroke: red; }
.edge:hover polygon { stroke: red; fill: red; }
]]></style>

<defs>
  <circle id="rim" cx="0" cy="0" r="7"/>
  <circle id="rim2" cx="0" cy="0" r="3.5"/>
  <g id="zoomPlus">
    <use xlink:href="#rim" fill="#404040"><set attributeName="fill" to="#808080" begin="zoomplus.mouseover" end="zoomplus.mouseout"/></use>
    <path d="M-4,0h8M0,-4v8" fill="none" stroke="white" stroke-width="1.5" pointer-events="none"/>
  </g>
  <g id="zoomMin">
    <use xlink:href="#rim" fill="#404040"><set attributeName="fill" to="#808080" begin="zoomminus.mouseover" end="zoomminus.mouseout"/></use>
    <path d="M-4,0h8" fill="none" stroke="white" stroke-width="1.5" pointer-events="none"/>
  </g>
  <g id="arrowUp" transform="translate(30 24)">
    <use xlink:href="#rim"/>
    <path pointer-events="none" fill="none" stroke="white" stroke-width="1.5" d="M0,-3.0v7 M-2.5,-0.5L0,-3.0L2.5,-0.5"/>
  </g>
  <g id="arrowRight" transform="rotate(90) translate(36 -43)">
    <use xlink:href="#rim"/>
    <path pointer-events="none" fill="none" stroke="white" stroke-width="1.5" d="M0,-3.0v7 M-2.5,-0.5L0,-3.0L2.5,-0.5"/>
  </g>
  <g id="arrowDown" transform="rotate(180) translate(-30 -48)">
    <use xlink:href="#rim"/>
    <path pointer-events="none" fill="none" stroke="white" stroke-width="1.5" d="M0,-3.0v7 M-2.5,-0.5L0,-3.0L2.5,-0.5"/>
  </g>
  <g id="arrowLeft" transform="rotate(270) translate(-36 17)">
    <use xlink:href="#rim"/>
    <path pointer-events="none" fill="none" stroke="white" stroke-width="1.5" d="M0,-3.0v7 M-2.5,-0.5L0,-3.0L2.5,-0.5"/>
  </g>
  <g id="resetDef">
    <use xlink:href="#rim2" fill="#404040"><set attributeName="fill" to="#808080" begin="reset.mouseover" end="reset.mouseout"/></use>
  </g>
</defs>
<script type="application/ecmascript">
var viewWidth = 559;
var viewHeight = 638;
var sectionId = 'dynsection-0';
</script>
<script type="application/ecmascript" xlink:href="svg.min.js"/>
<svg id="graph" class="graph">
<g id="viewport">
<title>DGtal::TrueDigitalSurfaceLocalEstimator&lt; TKSpace, TShape, TGeometricFunctor &gt;</title>
<!-- Node1 -->
<g id="Node000001" class="node">
<title>Node1</title>
<g id="a_Node000001"><a xlink:title="Aim: An estimator on digital surfaces that returns the reference local geometric quantity....">
<polygon fill="#999999" stroke="#666666" points="151.75,-333.26 0,-333.26 0,-291.51 151.75,-291.51 151.75,-333.26"/>
<text xml:space="preserve" text-anchor="start" x="8" y="-319.76" font-family="FreeSans" font-size="10.00">DGtal::TrueDigitalSurface</text>
<text xml:space="preserve" text-anchor="start" x="8" y="-308.51" font-family="FreeSans" font-size="10.00">LocalEstimator&lt; TKSpace,</text>
<text xml:space="preserve" text-anchor="middle" x="75.88" y="-297.26" font-family="FreeSans" font-size="10.00"> TShape, TGeometricFunctor &gt;</text>
</a>
</g>
</g>
<!-- Node2 -->
<g id="Node000002" class="node">
<title>Node2</title>
<g id="a_Node000002"><a xlink:href="classDGtal_1_1TrueDigitalSurfaceLocalEstimator.html" target="_top" xlink:title=" ">
<polygon fill="white" stroke="#666666" points="546.88,-600.26 372.62,-600.26 372.62,-558.51 546.88,-558.51 546.88,-600.26"/>
<text xml:space="preserve" text-anchor="start" x="380.62" y="-586.76" font-family="FreeSans" font-size="10.00">DGtal::TrueDigitalSurface</text>
<text xml:space="preserve" text-anchor="start" x="380.62" y="-575.51" font-family="FreeSans" font-size="10.00">LocalEstimator&lt; KSpace,</text>
<text xml:space="preserve" text-anchor="middle" x="459.75" y="-564.26" font-family="FreeSans" font-size="10.00"> ImplicitShape3D, PositionFunctor &gt;</text>
</a>
</g>
</g>
<!-- Node1&#45;&gt;Node2 -->
<g id="edge1_Node000001_Node000002" class="edge">
<title>Node1&#45;&gt;Node2</title>
<g id="a_edge1_Node000001_Node000002"><a xlink:title=" ">
<path fill="none" stroke="orange" stroke-dasharray="5,2" d="M78.67,-344.64C83.57,-398.4 101.81,-505.45 169.75,-556.38 227.04,-599.33 309.89,-601.65 372.21,-595.23"/>
<polygon fill="orange" stroke="orange" points="82.18,-344.6 77.89,-334.91 75.2,-345.16 82.18,-344.6"/>
</a>
</g>
<text xml:space="preserve" text-anchor="start" x="203.12" y="-617.9" font-family="FreeSans" font-size="10.00" fill="grey">&lt; KSpace, ImplicitShape3</text>
<text xml:space="preserve" text-anchor="start" x="203.12" y="-602.65" font-family="FreeSans" font-size="10.00" fill="grey">  D, PositionFunctor &gt;</text>
</g>
<!-- Node3 -->
<g id="Node000003" class="node">
<title>Node3</title>
<g id="a_Node000003"><a xlink:href="classDGtal_1_1TrueDigitalSurfaceLocalEstimator.html" target="_top" xlink:title=" ">
<polygon fill="white" stroke="#666666" points="545,-540.26 374.5,-540.26 374.5,-498.51 545,-498.51 545,-540.26"/>
<text xml:space="preserve" text-anchor="start" x="382.5" y="-526.76" font-family="FreeSans" font-size="10.00">DGtal::TrueDigitalSurface</text>
<text xml:space="preserve" text-anchor="start" x="382.5" y="-515.51" font-family="FreeSans" font-size="10.00">LocalEstimator&lt; KSpace,</text>
<text xml:space="preserve" text-anchor="middle" x="459.75" y="-504.26" font-family="FreeSans" font-size="10.00"> ImplicitShape3D, NormalFunctor &gt;</text>
</a>
</g>
</g>
<!-- Node1&#45;&gt;Node3 -->
<g id="edge2_Node000001_Node000003" class="edge">
<title>Node1&#45;&gt;Node3</title>
<g id="a_edge2_Node000001_Node000003"><a xlink:title=" ">
<path fill="none" stroke="orange" stroke-dasharray="5,2" d="M83.56,-344.67C94.06,-386.44 118.73,-457.94 169.75,-492.38 202.07,-514.2 300.92,-519.5 374.05,-520.29"/>
<polygon fill="orange" stroke="orange" points="87.03,-344.12 81.31,-335.2 80.22,-345.74 87.03,-344.12"/>
</a>
</g>
<text xml:space="preserve" text-anchor="start" x="203.12" y="-539.87" font-family="FreeSans" font-size="10.00" fill="grey">&lt; KSpace, ImplicitShape3</text>
<text xml:space="preserve" text-anchor="start" x="203.12" y="-524.62" font-family="FreeSans" font-size="10.00" fill="grey">  D, NormalFunctor &gt;</text>
</g>
<!-- Node4 -->
<g id="Node000004" class="node">
<title>Node4</title>
<g id="a_Node000004"><a xlink:href="classDGtal_1_1TrueDigitalSurfaceLocalEstimator.html" target="_top" xlink:title=" ">
<polygon fill="white" stroke="#666666" points="541.62,-480.88 377.88,-480.88 377.88,-427.88 541.62,-427.88 541.62,-480.88"/>
<text xml:space="preserve" text-anchor="start" x="385.88" y="-467.38" font-family="FreeSans" font-size="10.00">DGtal::TrueDigitalSurface</text>
<text xml:space="preserve" text-anchor="start" x="385.88" y="-456.13" font-family="FreeSans" font-size="10.00">LocalEstimator&lt; KSpace,</text>
<text xml:space="preserve" text-anchor="start" x="385.88" y="-444.88" font-family="FreeSans" font-size="10.00"> ImplicitShape3D, MeanCurvature</text>
<text xml:space="preserve" text-anchor="middle" x="459.75" y="-433.63" font-family="FreeSans" font-size="10.00">Functor &gt;</text>
</a>
</g>
</g>
<!-- Node1&#45;&gt;Node4 -->
<g id="edge3_Node000001_Node000004" class="edge">
<title>Node1&#45;&gt;Node4</title>
<g id="a_edge3_Node000001_Node000004"><a xlink:title=" ">
<path fill="none" stroke="orange" stroke-dasharray="5,2" d="M96.19,-342.86C112.73,-366.2 138.76,-397.08 169.75,-413.38 234.11,-447.23 317.13,-456.01 377.66,-457.2"/>
<polygon fill="orange" stroke="orange" points="99.09,-340.9 90.55,-334.63 93.32,-344.85 99.09,-340.9"/>
</a>
</g>
<text xml:space="preserve" text-anchor="start" x="196" y="-476.16" font-family="FreeSans" font-size="10.00" fill="grey">&lt; KSpace, ImplicitShape3</text>
<text xml:space="preserve" text-anchor="start" x="196" y="-460.91" font-family="FreeSans" font-size="10.00" fill="grey">  D, MeanCurvatureFunctor &gt;</text>
</g>
<!-- Node5 -->
<g id="Node000005" class="node">
<title>Node5</title>
<g id="a_Node000005"><a xlink:href="classDGtal_1_1TrueDigitalSurfaceLocalEstimator.html" target="_top" xlink:title=" ">
<polygon fill="white" stroke="#666666" points="550.25,-409.88 369.25,-409.88 369.25,-356.88 550.25,-356.88 550.25,-409.88"/>
<text xml:space="preserve" text-anchor="start" x="377.25" y="-396.38" font-family="FreeSans" font-size="10.00">DGtal::TrueDigitalSurface</text>
<text xml:space="preserve" text-anchor="start" x="377.25" y="-385.13" font-family="FreeSans" font-size="10.00">LocalEstimator&lt; KSpace,</text>
<text xml:space="preserve" text-anchor="start" x="377.25" y="-373.88" font-family="FreeSans" font-size="10.00"> ImplicitShape3D, GaussianCurvature</text>
<text xml:space="preserve" text-anchor="middle" x="459.75" y="-362.63" font-family="FreeSans" font-size="10.00">Functor &gt;</text>
</a>
</g>
</g>
<!-- Node1&#45;&gt;Node5 -->
<g id="edge4_Node000001_Node000005" class="edge">
<title>Node1&#45;&gt;Node5</title>
<g id="a_edge4_Node000001_Node000005"><a xlink:title=" ">
<path fill="none" stroke="orange" stroke-dasharray="5,2" d="M133.85,-337.79C145.54,-342.23 157.9,-346.38 169.75,-349.38 235.25,-365.97 311.2,-374.51 368.79,-378.88"/>
<polygon fill="orange" stroke="orange" points="135.32,-334.61 124.74,-334.21 132.76,-341.12 135.32,-334.61"/>
</a>
</g>
<text xml:space="preserve" text-anchor="start" x="187.38" y="-397.13" font-family="FreeSans" font-size="10.00" fill="grey">&lt; KSpace, ImplicitShape3</text>
<text xml:space="preserve" text-anchor="start" x="187.38" y="-381.88" font-family="FreeSans" font-size="10.00" fill="grey">  D, GaussianCurvatureFunctor &gt;</text>
</g>
<!-- Node6 -->
<g id="Node000006" class="node">
<title>Node6</title>
<g id="a_Node000006"><a xlink:href="classDGtal_1_1TrueDigitalSurfaceLocalEstimator.html" target="_top" xlink:title=" ">
<polygon fill="white" stroke="#666666" points="536.75,-338.88 382.75,-338.88 382.75,-285.88 536.75,-285.88 536.75,-338.88"/>
<text xml:space="preserve" text-anchor="start" x="390.75" y="-325.38" font-family="FreeSans" font-size="10.00">DGtal::TrueDigitalSurface</text>
<text xml:space="preserve" text-anchor="start" x="390.75" y="-314.13" font-family="FreeSans" font-size="10.00">LocalEstimator&lt; KSpace,</text>
<text xml:space="preserve" text-anchor="start" x="390.75" y="-302.88" font-family="FreeSans" font-size="10.00"> ImplicitShape3D, FirstPrincipal</text>
<text xml:space="preserve" text-anchor="middle" x="459.75" y="-291.63" font-family="FreeSans" font-size="10.00">CurvatureFunctor &gt;</text>
</a>
</g>
</g>
<!-- Node1&#45;&gt;Node6 -->
<g id="edge5_Node000001_Node000006" class="edge">
<title>Node1&#45;&gt;Node6</title>
<g id="a_edge5_Node000001_Node000006"><a xlink:title=" ">
<path fill="none" stroke="orange" stroke-dasharray="5,2" d="M163.05,-312.38C228.94,-312.38 318.95,-312.38 382.3,-312.38"/>
<polygon fill="orange" stroke="orange" points="163.38,-308.88 153.38,-312.38 163.38,-315.88 163.38,-308.88"/>
</a>
</g>
<text xml:space="preserve" text-anchor="start" x="179.5" y="-332.38" font-family="FreeSans" font-size="10.00" fill="grey">&lt; KSpace, ImplicitShape3</text>
<text xml:space="preserve" text-anchor="start" x="179.5" y="-317.13" font-family="FreeSans" font-size="10.00" fill="grey">  D, FirstPrincipalCurvatureFunctor &gt;</text>
</g>
<!-- Node7 -->
<g id="Node000007" class="node">
<title>Node7</title>
<g id="a_Node000007"><a xlink:href="classDGtal_1_1TrueDigitalSurfaceLocalEstimator.html" target="_top" xlink:title=" ">
<polygon fill="white" stroke="#666666" points="543.5,-267.88 376,-267.88 376,-214.88 543.5,-214.88 543.5,-267.88"/>
<text xml:space="preserve" text-anchor="start" x="384" y="-254.38" font-family="FreeSans" font-size="10.00">DGtal::TrueDigitalSurface</text>
<text xml:space="preserve" text-anchor="start" x="384" y="-243.13" font-family="FreeSans" font-size="10.00">LocalEstimator&lt; KSpace,</text>
<text xml:space="preserve" text-anchor="start" x="384" y="-231.88" font-family="FreeSans" font-size="10.00"> ImplicitShape3D, SecondPrincipal</text>
<text xml:space="preserve" text-anchor="middle" x="459.75" y="-220.63" font-family="FreeSans" font-size="10.00">CurvatureFunctor &gt;</text>
</a>
</g>
</g>
<!-- Node1&#45;&gt;Node7 -->
<g id="edge6_Node000001_Node000007" class="edge">
<title>Node1&#45;&gt;Node7</title>
<g id="a_edge6_Node000001_Node000007"><a xlink:title=" ">
<path fill="none" stroke="orange" stroke-dasharray="5,2" d="M134.99,-286.93C146.35,-282.7 158.29,-278.77 169.75,-275.88 237.86,-258.73 317.21,-250.04 375.51,-245.67"/>
<polygon fill="orange" stroke="orange" points="133.8,-283.64 125.72,-290.5 136.31,-290.17 133.8,-283.64"/>
</a>
</g>
<text xml:space="preserve" text-anchor="start" x="172.75" y="-295.88" font-family="FreeSans" font-size="10.00" fill="grey">&lt; KSpace, ImplicitShape3</text>
<text xml:space="preserve" text-anchor="start" x="172.75" y="-280.63" font-family="FreeSans" font-size="10.00" fill="grey">  D, SecondPrincipalCurvatureFunctor &gt;</text>
</g>
<!-- Node8 -->
<g id="Node000008" class="node">
<title>Node8</title>
<g id="a_Node000008"><a xlink:href="classDGtal_1_1TrueDigitalSurfaceLocalEstimator.html" target="_top" xlink:title=" ">
<polygon fill="white" stroke="#666666" points="536.75,-196.88 382.75,-196.88 382.75,-143.88 536.75,-143.88 536.75,-196.88"/>
<text xml:space="preserve" text-anchor="start" x="390.75" y="-183.38" font-family="FreeSans" font-size="10.00">DGtal::TrueDigitalSurface</text>
<text xml:space="preserve" text-anchor="start" x="390.75" y="-172.13" font-family="FreeSans" font-size="10.00">LocalEstimator&lt; KSpace,</text>
<text xml:space="preserve" text-anchor="start" x="390.75" y="-160.88" font-family="FreeSans" font-size="10.00"> ImplicitShape3D, FirstPrincipal</text>
<text xml:space="preserve" text-anchor="middle" x="459.75" y="-149.63" font-family="FreeSans" font-size="10.00">DirectionFunctor &gt;</text>
</a>
</g>
</g>
<!-- Node1&#45;&gt;Node8 -->
<g id="edge7_Node000001_Node000008" class="edge">
<title>Node1&#45;&gt;Node8</title>
<g id="a_edge7_Node000001_Node000008"><a xlink:title=" ">
<path fill="none" stroke="orange" stroke-dasharray="5,2" d="M96.53,-281.66C113.11,-258.48 139.02,-228.03 169.75,-211.88 235.83,-177.17 321.5,-168.66 382.37,-167.69"/>
<polygon fill="orange" stroke="orange" points="93.68,-279.62 90.87,-289.83 99.44,-283.6 93.68,-279.62"/>
</a>
</g>
<text xml:space="preserve" text-anchor="start" x="181.38" y="-231.88" font-family="FreeSans" font-size="10.00" fill="grey">&lt; KSpace, ImplicitShape3</text>
<text xml:space="preserve" text-anchor="start" x="181.38" y="-216.63" font-family="FreeSans" font-size="10.00" fill="grey">  D, FirstPrincipalDirectionFunctor &gt;</text>
</g>
<!-- Node9 -->
<g id="Node000009" class="node">
<title>Node9</title>
<g id="a_Node000009"><a xlink:href="classDGtal_1_1TrueDigitalSurfaceLocalEstimator.html" target="_top" xlink:title=" ">
<polygon fill="white" stroke="#666666" points="543.5,-125.88 376,-125.88 376,-72.88 543.5,-72.88 543.5,-125.88"/>
<text xml:space="preserve" text-anchor="start" x="384" y="-112.38" font-family="FreeSans" font-size="10.00">DGtal::TrueDigitalSurface</text>
<text xml:space="preserve" text-anchor="start" x="384" y="-101.13" font-family="FreeSans" font-size="10.00">LocalEstimator&lt; KSpace,</text>
<text xml:space="preserve" text-anchor="start" x="384" y="-89.88" font-family="FreeSans" font-size="10.00"> ImplicitShape3D, SecondPrincipal</text>
<text xml:space="preserve" text-anchor="middle" x="459.75" y="-78.63" font-family="FreeSans" font-size="10.00">DirectionFunctor &gt;</text>
</a>
</g>
</g>
<!-- Node1&#45;&gt;Node9 -->
<g id="edge8_Node000001_Node000009" class="edge">
<title>Node1&#45;&gt;Node9</title>
<g id="a_edge8_Node000001_Node000009"><a xlink:title=" ">
<path fill="none" stroke="orange" stroke-dasharray="5,2" d="M83.7,-279.88C94.32,-238.12 119.08,-166.83 169.75,-131.88 229.6,-90.6 313.56,-85.48 375.57,-88.9"/>
<polygon fill="orange" stroke="orange" points="80.29,-279.07 81.36,-289.61 87.1,-280.7 80.29,-279.07"/>
</a>
</g>
<text xml:space="preserve" text-anchor="start" x="174.62" y="-151.88" font-family="FreeSans" font-size="10.00" fill="grey">&lt; KSpace, ImplicitShape3</text>
<text xml:space="preserve" text-anchor="start" x="174.62" y="-136.63" font-family="FreeSans" font-size="10.00" fill="grey">  D, SecondPrincipalDirectionFunctor &gt;</text>
</g>
<!-- Node10 -->
<g id="Node000010" class="node">
<title>Node10</title>
<g id="a_Node000010"><a xlink:href="classDGtal_1_1TrueDigitalSurfaceLocalEstimator.html" target="_top" xlink:title=" ">
<polygon fill="white" stroke="#666666" points="551,-54.88 368.5,-54.88 368.5,-1.88 551,-1.88 551,-54.88"/>
<text xml:space="preserve" text-anchor="start" x="376.5" y="-41.38" font-family="FreeSans" font-size="10.00">DGtal::TrueDigitalSurface</text>
<text xml:space="preserve" text-anchor="start" x="376.5" y="-30.13" font-family="FreeSans" font-size="10.00">LocalEstimator&lt; KSpace,</text>
<text xml:space="preserve" text-anchor="start" x="376.5" y="-18.88" font-family="FreeSans" font-size="10.00"> ImplicitShape3D, PrincipalCurvatures</text>
<text xml:space="preserve" text-anchor="middle" x="459.75" y="-7.63" font-family="FreeSans" font-size="10.00">AndDirectionsFunctor &gt;</text>
</a>
</g>
</g>
<!-- Node1&#45;&gt;Node10 -->
<g id="edge9_Node000001_Node000010" class="edge">
<title>Node1&#45;&gt;Node10</title>
<g id="a_edge9_Node000001_Node000010"><a xlink:title=" ">
<path fill="none" stroke="orange" stroke-dasharray="5,2" d="M76.78,-279.92C78.56,-220.31 91.88,-94.27 169.75,-36.63 225.93,4.95 306.5,3.74 368.3,-6.02"/>
<polygon fill="orange" stroke="orange" points="73.28,-279.67 76.58,-289.73 80.28,-279.8 73.28,-279.67"/>
</a>
</g>
<text xml:space="preserve" text-anchor="start" x="176.88" y="-71.88" font-family="FreeSans" font-size="10.00" fill="grey">&lt; KSpace, ImplicitShape3</text>
<text xml:space="preserve" text-anchor="start" x="176.88" y="-56.63" font-family="FreeSans" font-size="10.00" fill="grey">  D, PrincipalCurvaturesAndDirections</text>
<text xml:space="preserve" text-anchor="start" x="176.88" y="-41.38" font-family="FreeSans" font-size="10.00" fill="grey">  Functor &gt;</text>
</g>
</g>
</svg>

<g id="navigator" transform="translate(0 0)" fill="#404254">
  <rect fill="#f2f5e9" fill-opacity="0.5" stroke="#606060" stroke-width=".5" x="0" y="0" width="60" height="60"/>
  <use id="zoomplus" xlink:href="#zoomPlus" x="17" y="9" onmousedown="handleZoom(evt,'in')"/>
  <use id="zoomminus" xlink:href="#zoomMin" x="42" y="9" onmousedown="handleZoom(evt,'out')"/>
  <use id="reset" xlink:href="#resetDef" x="30" y="36" onmousedown="handleReset()"/>
   <use id="arrowup" xlink:href="#arrowUp" x="0" y="0" onmousedown="handlePan(0,-1)"/>
  <use id="arrowright" xlink:href="#arrowRight" x="0" y="0" onmousedown="handlePan(1,0)"/>
  <use id="arrowdown" xlink:href="#arrowDown" x="0" y="0" onmousedown="handlePan(0,1)"/>
  <use id="arrowleft" xlink:href="#arrowLeft" x="0" y="0" onmousedown="handlePan(-1,0)"/>
</g>
<svg viewBox="0 0 15 15" width="100%" height="30px" preserveAspectRatio="xMaxYMin meet">
 <g id="arrow_out" transform="scale(0.3 0.3)">
  <a xlink:href="classDGtal_1_1TrueDigitalSurfaceLocalEstimator__inherit__graph_org.svg" target="_base">
   <rect id="button" ry="5" rx="5" y="6" x="6" height="38" width="38"
        fill="#f2f5e9" fill-opacity="0.5" stroke="#606060" stroke-width="1.0"/>
   <path id="arrow"
     d="M 11.500037,31.436501 C 11.940474,20.09759 22.043105,11.32322 32.158766,21.979434 L 37.068811,17.246167 C 37.068811,17.246167 37.088388,32 37.088388,32 L 22.160133,31.978069 C 22.160133,31.978069 26.997745,27.140456 26.997745,27.140456 C 18.528582,18.264221 13.291696,25.230495 11.500037,31.436501 z"
     style="fill:#404040;"/>
  </a>
 </g>
</svg>

<style type='text/css'>
<![CDATA[
[data-mouse-over-selected='false'] { opacity: 0.7; }
[data-mouse-over-selected='true']  { opacity: 1.0; }
]]>
</style>
<script type="application/ecmascript"><![CDATA[
document.addEventListener('DOMContentLoaded', (event) => {
  highlightEdges();
  highlightAdjacentNodes();
});
]]></script>
</svg>
