<?xml version="1.0" encoding="UTF-8" standalone="no"?>
<!DOCTYPE svg PUBLIC "-//W3C//DTD SVG 1.1//EN"
 "http://www.w3.org/Graphics/SVG/1.1/DTD/svg11.dtd">
<!-- Generated by graphviz version 13.1.2 (20250808.2320)
 -->
<!-- Title: DGtal::LighterSternBrocot&lt; TInteger, TQuotient, TMap &gt; Pages: 1 -->
<svg width="397pt" height="41pt"
 viewBox="0.00 0.00 397.00 41.00" xmlns="http://www.w3.org/2000/svg" xmlns:xlink="http://www.w3.org/1999/xlink">
<g id="graph0" class="graph" transform="scale(1 1) rotate(0) translate(4 36.5)">
<title>DGtal::LighterSternBrocot&lt; TInteger, TQuotient, TMap &gt;</title>
<!-- Node1 -->
<g id="Node000001" class="node">
<title>Node1</title>
<g id="a_Node000001"><a xlink:title="Aim: The Stern&#45;Brocot tree is the tree of irreducible fractions. This class allows to construct it pr...">
<polygon fill="#999999" stroke="#666666" points="148.75,-31.5 0,-31.5 0,-1 148.75,-1 148.75,-31.5"/>
<text xml:space="preserve" text-anchor="start" x="8" y="-18" font-family="FreeSans" font-size="10.00">DGtal::LighterSternBrocot</text>
<text xml:space="preserve" text-anchor="middle" x="74.38" y="-6.75" font-family="FreeSans" font-size="10.00">&lt; TInteger, TQuotient, TMap &gt;</text>
</a>
</g>
</g>
<!-- Node1&#45;&gt;Node1 -->
<g id="edge1_Node000001_Node000001" class="edge">
<title>Node1&#45;&gt;Node1</title>
<g id="a_edge1_Node000001_Node000001"><a xlink:title=" ">
<path fill="none" stroke="orange" stroke-dasharray="5,2" d="M160.32,-18.06C164.37,-17.6 166.75,-17 166.75,-16.25 166.75,-14.95 159.64,-14.1 149.04,-13.68"/>
<polygon fill="orange" stroke="orange" points="160.29,-14.55 150.55,-18.71 160.76,-21.53 160.29,-14.55"/>
</a>
</g>
<text xml:space="preserve" text-anchor="start" x="169.75" y="-20" font-family="FreeSans" font-size="10.00" fill="grey">&lt; TInteger, TQuotient,</text>
<text xml:space="preserve" text-anchor="start" x="169.75" y="-4.75" font-family="FreeSans" font-size="10.00" fill="grey">   TMap &gt;</text>
</g>
<!-- Node1&#45;&gt;Node1 -->
<g id="edge2_Node000001_Node000001" class="edge">
<title>Node1&#45;&gt;Node1</title>
<g id="a_edge2_Node000001_Node000001"><a xlink:title=" ">
<path fill="none" stroke="orange" stroke-dasharray="5,2" d="M160.42,-21.77C213.24,-22.62 268.75,-20.78 268.75,-16.25 268.75,-11.4 205.06,-9.64 149.21,-10.95"/>
<polygon fill="orange" stroke="orange" points="160.79,-18.28 150.72,-21.58 160.65,-25.27 160.79,-18.28"/>
</a>
</g>
<text xml:space="preserve" text-anchor="start" x="271.75" y="-20" font-family="FreeSans" font-size="10.00" fill="grey">&lt; TInteger, TQuotient,</text>
<text xml:space="preserve" text-anchor="start" x="271.75" y="-4.75" font-family="FreeSans" font-size="10.00" fill="grey">   TMap &gt;</text>
</g>
</g>
</svg>
