<?xml version="1.0" encoding="UTF-8" standalone="no"?>
<!DOCTYPE svg PUBLIC "-//W3C//DTD SVG 1.1//EN"
 "http://www.w3.org/Graphics/SVG/1.1/DTD/svg11.dtd">
<!-- Generated by graphviz version 13.0.1 (20250615.1724)
 -->
<!-- Title: DGtal::functors::Thresholder&lt; T, isLower, isEqual &gt; Pages: 1 -->
<svg width="432pt" height="319pt"
 viewBox="0.00 0.00 432.00 319.00" xmlns="http://www.w3.org/2000/svg" xmlns:xlink="http://www.w3.org/1999/xlink">

<svg id="main" version="1.1" xmlns="http://www.w3.org/2000/svg" xmlns:xlink="http://www.w3.org/1999/xlink" xml:space="preserve">

<style type="text/css"><![CDATA[
.node, .edge {opacity: 0.7;}
.node.selected, .edge.selected {opacity: 1;}
.edge:hover path { stroke: red; }
.edge:hover polygon { stroke: red; fill: red; }
]]></style>
<script type="application/ecmascript" xlink:href="svg.min.js"/>
<svg id="graph" class="graph">
<g id="graph0" class="graph" transform="scale(1 1) rotate(0) translate(4 315.32)">
<title>DGtal::functors::Thresholder&lt; T, isLower, isEqual &gt;</title>
<!-- Node1 -->
<g id="Node000001" class="node">
<title>Node1</title>
<g id="a_Node000001"><a xlink:title="Aim: A small functor with an operator () that compares one value to a threshold value according to tw...">
<polygon fill="#999999" stroke="#666666" points="139.75,-152.5 0,-152.5 0,-122 139.75,-122 139.75,-152.5"/>
<text xml:space="preserve" text-anchor="start" x="8" y="-139" font-family="FreeSans" font-size="10.00">DGtal::functors::Thresholder</text>
<text xml:space="preserve" text-anchor="middle" x="69.88" y="-127.75" font-family="FreeSans" font-size="10.00">&lt; T, isLower, isEqual &gt;</text>
</a>
</g>
</g>
<!-- Node2 -->
<g id="Node000002" class="node">
<title>Node2</title>
<g id="a_Node000002"><a xlink:href="classDGtal_1_1functors_1_1Thresholder.html" target="_top" xlink:title=" ">
<polygon fill="white" stroke="#666666" points="421.25,-287.12 281.5,-287.12 281.5,-245.38 421.25,-245.38 421.25,-287.12"/>
<text xml:space="preserve" text-anchor="start" x="289.5" y="-273.62" font-family="FreeSans" font-size="10.00">DGtal::functors::Thresholder</text>
<text xml:space="preserve" text-anchor="start" x="289.5" y="-262.38" font-family="FreeSans" font-size="10.00">&lt; typename Functor::Value,</text>
<text xml:space="preserve" text-anchor="middle" x="351.38" y="-251.12" font-family="FreeSans" font-size="10.00"> acceptNeg, acceptZero &gt;</text>
</a>
</g>
</g>
<!-- Node1&#45;&gt;Node2 -->
<g id="edge1_Node000001_Node000002" class="edge">
<title>Node1&#45;&gt;Node2</title>
<g id="a_edge1_Node000001_Node000002"><a xlink:title=" ">
<path fill="none" stroke="orange" stroke-dasharray="5,2" d="M86.11,-162.27C101.31,-184.92 126.82,-217.25 157.75,-234.25 195.33,-254.9 242.81,-262.96 281.22,-265.82"/>
<polygon fill="orange" stroke="orange" points="89.07,-160.4 80.69,-153.91 83.19,-164.21 89.07,-160.4"/>
</a>
</g>
<text xml:space="preserve" text-anchor="start" x="163" y="-298.82" font-family="FreeSans" font-size="10.00" fill="grey">&lt; typename Functor</text>
<text xml:space="preserve" text-anchor="start" x="163" y="-283.57" font-family="FreeSans" font-size="10.00" fill="grey">  ::Value, acceptNeg,</text>
<text xml:space="preserve" text-anchor="start" x="163" y="-268.32" font-family="FreeSans" font-size="10.00" fill="grey">   acceptZero &gt;</text>
</g>
<!-- Node3 -->
<g id="Node000003" class="node">
<title>Node3</title>
<g id="a_Node000003"><a xlink:href="classDGtal_1_1functors_1_1Thresholder.html" target="_top" xlink:title=" ">
<polygon fill="white" stroke="#666666" points="424.25,-226.5 278.5,-226.5 278.5,-196 424.25,-196 424.25,-226.5"/>
<text xml:space="preserve" text-anchor="start" x="286.5" y="-213" font-family="FreeSans" font-size="10.00">DGtal::functors::Thresholder</text>
<text xml:space="preserve" text-anchor="middle" x="351.38" y="-201.75" font-family="FreeSans" font-size="10.00">&lt; ResultInteger, false, false &gt;</text>
</a>
</g>
</g>
<!-- Node1&#45;&gt;Node3 -->
<g id="edge2_Node000001_Node000003" class="edge">
<title>Node1&#45;&gt;Node3</title>
<g id="a_edge2_Node000001_Node000003"><a xlink:title=" ">
<path fill="none" stroke="orange" stroke-dasharray="5,2" d="M112.38,-157.7C126.51,-164.04 142.58,-170.58 157.75,-175.25 196.77,-187.26 241.53,-195.92 278.08,-201.73"/>
<polygon fill="orange" stroke="orange" points="113.91,-154.55 103.36,-153.55 110.99,-160.91 113.91,-154.55"/>
</a>
</g>
<text xml:space="preserve" text-anchor="start" x="160.75" y="-218.12" font-family="FreeSans" font-size="10.00" fill="grey">&lt; ResultInteger, false,</text>
<text xml:space="preserve" text-anchor="start" x="160.75" y="-202.87" font-family="FreeSans" font-size="10.00" fill="grey">   false &gt;</text>
</g>
<!-- Node4 -->
<g id="Node000004" class="node">
<title>Node4</title>
<g id="a_Node000004"><a xlink:href="structDGtal_1_1functors_1_1Thresholder_3_01T_00_01false_00_01false_01_4.html" target="_top" xlink:title=" ">
<polygon fill="white" stroke="#666666" points="421.25,-177.5 281.5,-177.5 281.5,-147 421.25,-147 421.25,-177.5"/>
<text xml:space="preserve" text-anchor="start" x="289.5" y="-164" font-family="FreeSans" font-size="10.00">DGtal::functors::Thresholder</text>
<text xml:space="preserve" text-anchor="middle" x="351.38" y="-152.75" font-family="FreeSans" font-size="10.00">&lt; T, false, false &gt;</text>
</a>
</g>
</g>
<!-- Node1&#45;&gt;Node4 -->
<g id="edge3_Node000001_Node000004" class="edge">
<title>Node1&#45;&gt;Node4</title>
<g id="a_edge3_Node000001_Node000004"><a xlink:title=" ">
<path fill="none" stroke="orange" stroke-dasharray="5,2" d="M151.3,-144.44C192.35,-148.12 241.78,-152.54 281.11,-156.05"/>
<polygon fill="orange" stroke="orange" points="151.74,-140.97 141.47,-143.56 151.12,-147.94 151.74,-140.97"/>
</a>
</g>
<text xml:space="preserve" text-anchor="start" x="170.88" y="-158.91" font-family="FreeSans" font-size="10.00" fill="grey">&lt; T, false, false &gt;</text>
</g>
<!-- Node5 -->
<g id="Node000005" class="node">
<title>Node5</title>
<g id="a_Node000005"><a xlink:title=" ">
<polygon fill="white" stroke="#666666" points="421.25,-128.5 281.5,-128.5 281.5,-98 421.25,-98 421.25,-128.5"/>
<text xml:space="preserve" text-anchor="start" x="289.5" y="-115" font-family="FreeSans" font-size="10.00">DGtal::functors::Thresholder</text>
<text xml:space="preserve" text-anchor="middle" x="351.38" y="-103.75" font-family="FreeSans" font-size="10.00">&lt; T, false, true &gt;</text>
</a>
</g>
</g>
<!-- Node1&#45;&gt;Node5 -->
<g id="edge4_Node000001_Node000005" class="edge">
<title>Node1&#45;&gt;Node5</title>
<g id="a_edge4_Node000001_Node000005"><a xlink:title=" ">
<path fill="none" stroke="orange" stroke-dasharray="5,2" d="M151.18,-123.75C153.39,-123.48 155.58,-123.23 157.75,-123 198.54,-118.64 244.4,-116.22 281.13,-114.88"/>
<polygon fill="orange" stroke="orange" points="150.98,-120.24 141.51,-125 151.88,-127.19 150.98,-120.24"/>
</a>
</g>
<text xml:space="preserve" text-anchor="start" x="173.12" y="-127.75" font-family="FreeSans" font-size="10.00" fill="grey">&lt; T, false, true &gt;</text>
</g>
<!-- Node6 -->
<g id="Node000006" class="node">
<title>Node6</title>
<g id="a_Node000006"><a xlink:href="structDGtal_1_1functors_1_1Thresholder_3_01T_00_01true_00_01false_01_4.html" target="_top" xlink:title=" ">
<polygon fill="white" stroke="#666666" points="421.25,-79.5 281.5,-79.5 281.5,-49 421.25,-49 421.25,-79.5"/>
<text xml:space="preserve" text-anchor="start" x="289.5" y="-66" font-family="FreeSans" font-size="10.00">DGtal::functors::Thresholder</text>
<text xml:space="preserve" text-anchor="middle" x="351.38" y="-54.75" font-family="FreeSans" font-size="10.00">&lt; T, true, false &gt;</text>
</a>
</g>
</g>
<!-- Node1&#45;&gt;Node6 -->
<g id="edge5_Node000001_Node000006" class="edge">
<title>Node1&#45;&gt;Node6</title>
<g id="a_edge5_Node000001_Node000006"><a xlink:title=" ">
<path fill="none" stroke="orange" stroke-dasharray="5,2" d="M107.75,-116.33C122.84,-108.58 140.73,-100.37 157.75,-95 197.64,-82.42 243.87,-74.82 281.04,-70.33"/>
<polygon fill="orange" stroke="orange" points="106.34,-113.12 99.14,-120.89 109.61,-119.31 106.34,-113.12"/>
</a>
</g>
<text xml:space="preserve" text-anchor="start" x="173.12" y="-99.75" font-family="FreeSans" font-size="10.00" fill="grey">&lt; T, true, false &gt;</text>
</g>
<!-- Node7 -->
<g id="Node000007" class="node">
<title>Node7</title>
<g id="a_Node000007"><a xlink:title=" ">
<polygon fill="white" stroke="#666666" points="421.25,-30.5 281.5,-30.5 281.5,0 421.25,0 421.25,-30.5"/>
<text xml:space="preserve" text-anchor="start" x="289.5" y="-17" font-family="FreeSans" font-size="10.00">DGtal::functors::Thresholder</text>
<text xml:space="preserve" text-anchor="middle" x="351.38" y="-5.75" font-family="FreeSans" font-size="10.00">&lt; T, true, true &gt;</text>
</a>
</g>
</g>
<!-- Node1&#45;&gt;Node7 -->
<g id="edge6_Node000001_Node000007" class="edge">
<title>Node1&#45;&gt;Node7</title>
<g id="a_edge6_Node000001_Node000007"><a xlink:title=" ">
<path fill="none" stroke="orange" stroke-dasharray="5,2" d="M89.2,-112.54C105.11,-92.97 129.92,-66.57 157.75,-52 195.75,-32.11 243.01,-22.89 281.21,-18.67"/>
<polygon fill="orange" stroke="orange" points="86.51,-110.31 83.07,-120.33 92.01,-114.64 86.51,-110.31"/>
</a>
</g>
<text xml:space="preserve" text-anchor="start" x="175.38" y="-56.75" font-family="FreeSans" font-size="10.00" fill="grey">&lt; T, true, true &gt;</text>
</g>
</g>
</svg>
</svg>

<style type='text/css'>
<![CDATA[
[data-mouse-over-selected='false'] { opacity: 0.7; }
[data-mouse-over-selected='true']  { opacity: 1.0; }
]]>
</style>
<script type="application/ecmascript"><![CDATA[
document.addEventListener('DOMContentLoaded', (event) => {
  highlightEdges();
  highlightAdjacentNodes();
});
]]></script>
</svg>
