<?xml version="1.0" encoding="UTF-8" standalone="no"?>
<!DOCTYPE svg PUBLIC "-//W3C//DTD SVG 1.1//EN"
 "http://www.w3.org/Graphics/SVG/1.1/DTD/svg11.dtd">
<!-- Generated by graphviz version 13.0.1 (20250615.1724)
 -->
<!-- Title: DGtal::detail::CurvatureFromDSSBaseEstimator&lt; DSSComputer, Functor &gt; Pages: 1 -->
<svg width="698pt" height="132pt"
 viewBox="0.00 0.00 698.00 132.00" xmlns="http://www.w3.org/2000/svg" xmlns:xlink="http://www.w3.org/1999/xlink">
<g id="graph0" class="graph" transform="scale(1 1) rotate(0) translate(4 128)">
<title>DGtal::detail::CurvatureFromDSSBaseEstimator&lt; DSSComputer, Functor &gt;</title>
<!-- Node1 -->
<g id="Node000001" class="node">
<title>Node1</title>
<g id="a_Node000001"><a xlink:title=" ">
<polygon fill="#999999" stroke="#666666" points="130,-82.38 0,-82.38 0,-40.62 130,-40.62 130,-82.38"/>
<text xml:space="preserve" text-anchor="start" x="8" y="-68.88" font-family="FreeSans" font-size="10.00">DGtal::detail::Curvature</text>
<text xml:space="preserve" text-anchor="start" x="8" y="-57.62" font-family="FreeSans" font-size="10.00">FromDSSBaseEstimator&lt;</text>
<text xml:space="preserve" text-anchor="middle" x="65" y="-46.38" font-family="FreeSans" font-size="10.00"> DSSComputer, Functor &gt;</text>
</a>
</g>
</g>
<!-- Node2 -->
<g id="Node000002" class="node">
<title>Node2</title>
<g id="a_Node000002"><a xlink:href="classDGtal_1_1detail_1_1CurvatureFromDSSBaseEstimator.html" target="_top" xlink:title=" ">
<polygon fill="white" stroke="#666666" points="476.75,-124 316.75,-124 316.75,-71 476.75,-71 476.75,-124"/>
<text xml:space="preserve" text-anchor="start" x="324.75" y="-110.5" font-family="FreeSans" font-size="10.00">DGtal::detail::Curvature</text>
<text xml:space="preserve" text-anchor="start" x="324.75" y="-99.25" font-family="FreeSans" font-size="10.00">FromDSSBaseEstimator&lt;</text>
<text xml:space="preserve" text-anchor="start" x="324.75" y="-88" font-family="FreeSans" font-size="10.00"> DSSComputer, detail::Curvature</text>
<text xml:space="preserve" text-anchor="middle" x="396.75" y="-76.75" font-family="FreeSans" font-size="10.00">FromDSSLength &gt;</text>
</a>
</g>
</g>
<!-- Node1&#45;&gt;Node2 -->
<g id="edge1_Node000001_Node000002" class="edge">
<title>Node1&#45;&gt;Node2</title>
<g id="a_edge1_Node000001_Node000002"><a xlink:title=" ">
<path fill="none" stroke="orange" stroke-dasharray="5,2" d="M141.75,-74.66C143.85,-74.95 145.94,-75.23 148,-75.5 204.1,-82.77 267.66,-88.36 316.35,-92.08"/>
<polygon fill="orange" stroke="orange" points="142.28,-71.2 131.88,-73.22 141.27,-78.13 142.28,-71.2"/>
</a>
</g>
<text xml:space="preserve" text-anchor="start" x="155.12" y="-110.41" font-family="FreeSans" font-size="10.00" fill="grey">&lt; DSSComputer, detail</text>
<text xml:space="preserve" text-anchor="start" x="155.12" y="-95.16" font-family="FreeSans" font-size="10.00" fill="grey">  ::CurvatureFromDSSLength &gt;</text>
</g>
<!-- Node4 -->
<g id="Node000004" class="node">
<title>Node4</title>
<g id="a_Node000004"><a xlink:href="classDGtal_1_1detail_1_1CurvatureFromDSSBaseEstimator.html" target="_top" xlink:title=" ">
<polygon fill="white" stroke="#666666" points="476.75,-53 316.75,-53 316.75,0 476.75,0 476.75,-53"/>
<text xml:space="preserve" text-anchor="start" x="324.75" y="-39.5" font-family="FreeSans" font-size="10.00">DGtal::detail::Curvature</text>
<text xml:space="preserve" text-anchor="start" x="324.75" y="-28.25" font-family="FreeSans" font-size="10.00">FromDSSBaseEstimator&lt;</text>
<text xml:space="preserve" text-anchor="start" x="324.75" y="-17" font-family="FreeSans" font-size="10.00"> DSSComputer, detail::Curvature</text>
<text xml:space="preserve" text-anchor="middle" x="396.75" y="-5.75" font-family="FreeSans" font-size="10.00">FromDSSLengthAndWidth &gt;</text>
</a>
</g>
</g>
<!-- Node1&#45;&gt;Node4 -->
<g id="edge3_Node000001_Node000004" class="edge">
<title>Node1&#45;&gt;Node4</title>
<g id="a_edge3_Node000001_Node000004"><a xlink:title=" ">
<path fill="none" stroke="orange" stroke-dasharray="5,2" d="M119.54,-36.05C128.84,-32.62 138.56,-29.64 148,-27.75 203.46,-16.64 267.31,-16.61 316.31,-19.21"/>
<polygon fill="orange" stroke="orange" points="118.3,-32.77 110.27,-39.68 120.85,-39.29 118.3,-32.77"/>
</a>
</g>
<text xml:space="preserve" text-anchor="start" x="151" y="-63" font-family="FreeSans" font-size="10.00" fill="grey">&lt; DSSComputer, detail</text>
<text xml:space="preserve" text-anchor="start" x="151" y="-47.75" font-family="FreeSans" font-size="10.00" fill="grey">  ::CurvatureFromDSSLengthAnd</text>
<text xml:space="preserve" text-anchor="start" x="151" y="-32.5" font-family="FreeSans" font-size="10.00" fill="grey">  Width &gt;</text>
</g>
<!-- Node3 -->
<g id="Node000003" class="node">
<title>Node3</title>
<g id="a_Node000003"><a xlink:href="classDGtal_1_1CurvatureFromDSSLengthEstimator.html" target="_top" xlink:title=" ">
<polygon fill="white" stroke="#666666" points="683.12,-112.75 520.12,-112.75 520.12,-82.25 683.12,-82.25 683.12,-112.75"/>
<text xml:space="preserve" text-anchor="start" x="528.12" y="-99.25" font-family="FreeSans" font-size="10.00">DGtal::CurvatureFromDSSLength</text>
<text xml:space="preserve" text-anchor="middle" x="601.62" y="-88" font-family="FreeSans" font-size="10.00">Estimator&lt; DSSComputer &gt;</text>
</a>
</g>
</g>
<!-- Node2&#45;&gt;Node3 -->
<g id="edge2_Node000002_Node000003" class="edge">
<title>Node2&#45;&gt;Node3</title>
<g id="a_edge2_Node000002_Node000003"><a xlink:title=" ">
<path fill="none" stroke="#63b8ff" d="M488.32,-97.5C498.78,-97.5 509.39,-97.5 519.7,-97.5"/>
<polygon fill="#63b8ff" stroke="#63b8ff" points="488.57,-94 478.57,-97.5 488.57,-101 488.57,-94"/>
</a>
</g>
</g>
<!-- Node5 -->
<g id="Node000005" class="node">
<title>Node5</title>
<g id="a_Node000005"><a xlink:href="classDGtal_1_1CurvatureFromDSSEstimator.html" target="_top" xlink:title=" ">
<polygon fill="white" stroke="#666666" points="689.5,-41.75 513.75,-41.75 513.75,-11.25 689.5,-11.25 689.5,-41.75"/>
<text xml:space="preserve" text-anchor="start" x="521.75" y="-28.25" font-family="FreeSans" font-size="10.00">DGtal::CurvatureFromDSSEstimator</text>
<text xml:space="preserve" text-anchor="middle" x="601.62" y="-17" font-family="FreeSans" font-size="10.00">&lt; DSSComputer &gt;</text>
</a>
</g>
</g>
<!-- Node4&#45;&gt;Node5 -->
<g id="edge4_Node000004_Node000005" class="edge">
<title>Node4&#45;&gt;Node5</title>
<g id="a_edge4_Node000004_Node000005"><a xlink:title=" ">
<path fill="none" stroke="#63b8ff" d="M488.31,-26.5C496.62,-26.5 505.03,-26.5 513.31,-26.5"/>
<polygon fill="#63b8ff" stroke="#63b8ff" points="488.57,-23 478.57,-26.5 488.57,-30 488.57,-23"/>
</a>
</g>
</g>
</g>
</svg>
