<?xml version="1.0" encoding="UTF-8" standalone="no"?>
<!DOCTYPE svg PUBLIC "-//W3C//DTD SVG 1.1//EN"
 "http://www.w3.org/Graphics/SVG/1.1/DTD/svg11.dtd">
<!-- Generated by graphviz version 13.1.2 (20250808.2320)
 -->
<!-- Title: DGtal::ConstIteratorAdapter&lt; TIterator, TLightFunctor, TReturnType &gt; Pages: 1 -->
<!--zoomable 331 -->

<svg id="main" version="1.1" xmlns="http://www.w3.org/2000/svg" xmlns:xlink="http://www.w3.org/1999/xlink" xml:space="preserve" onload="init(evt)">

<style type="text/css"><![CDATA[
.node, .edge {opacity: 0.7;}
.node.selected, .edge.selected {opacity: 1;}
.edge:hover path { stroke: red; }
.edge:hover polygon { stroke: red; fill: red; }
]]></style>

<defs>
  <circle id="rim" cx="0" cy="0" r="7"/>
  <circle id="rim2" cx="0" cy="0" r="3.5"/>
  <g id="zoomPlus">
    <use xlink:href="#rim" fill="#404040"><set attributeName="fill" to="#808080" begin="zoomplus.mouseover" end="zoomplus.mouseout"/></use>
    <path d="M-4,0h8M0,-4v8" fill="none" stroke="white" stroke-width="1.5" pointer-events="none"/>
  </g>
  <g id="zoomMin">
    <use xlink:href="#rim" fill="#404040"><set attributeName="fill" to="#808080" begin="zoomminus.mouseover" end="zoomminus.mouseout"/></use>
    <path d="M-4,0h8" fill="none" stroke="white" stroke-width="1.5" pointer-events="none"/>
  </g>
  <g id="arrowUp" transform="translate(30 24)">
    <use xlink:href="#rim"/>
    <path pointer-events="none" fill="none" stroke="white" stroke-width="1.5" d="M0,-3.0v7 M-2.5,-0.5L0,-3.0L2.5,-0.5"/>
  </g>
  <g id="arrowRight" transform="rotate(90) translate(36 -43)">
    <use xlink:href="#rim"/>
    <path pointer-events="none" fill="none" stroke="white" stroke-width="1.5" d="M0,-3.0v7 M-2.5,-0.5L0,-3.0L2.5,-0.5"/>
  </g>
  <g id="arrowDown" transform="rotate(180) translate(-30 -48)">
    <use xlink:href="#rim"/>
    <path pointer-events="none" fill="none" stroke="white" stroke-width="1.5" d="M0,-3.0v7 M-2.5,-0.5L0,-3.0L2.5,-0.5"/>
  </g>
  <g id="arrowLeft" transform="rotate(270) translate(-36 17)">
    <use xlink:href="#rim"/>
    <path pointer-events="none" fill="none" stroke="white" stroke-width="1.5" d="M0,-3.0v7 M-2.5,-0.5L0,-3.0L2.5,-0.5"/>
  </g>
  <g id="resetDef">
    <use xlink:href="#rim2" fill="#404040"><set attributeName="fill" to="#808080" begin="reset.mouseover" end="reset.mouseout"/></use>
  </g>
</defs>
<script type="application/ecmascript">
var viewWidth = 730;
var viewHeight = 331;
var sectionId = 'dynsection-0';
</script>
<script type="application/ecmascript" xlink:href="svg.min.js"/>
<svg id="graph" class="graph">
<g id="viewport">
<title>DGtal::ConstIteratorAdapter&lt; TIterator, TLightFunctor, TReturnType &gt;</title>
<!-- Node1 -->
<g id="Node000001" class="node">
<title>Node1</title>
<g id="a_Node000001"><a xlink:title="This class adapts any iterator so that operator* returns another element than the one pointed to by t...">
<polygon fill="#999999" stroke="#666666" points="356.25,-172.75 218,-172.75 218,-131 356.25,-131 356.25,-172.75"/>
<text xml:space="preserve" text-anchor="start" x="226" y="-159.25" font-family="FreeSans" font-size="10.00">DGtal::ConstIteratorAdapter</text>
<text xml:space="preserve" text-anchor="start" x="226" y="-148" font-family="FreeSans" font-size="10.00">&lt; TIterator, TLightFunctor,</text>
<text xml:space="preserve" text-anchor="middle" x="287.12" y="-136.75" font-family="FreeSans" font-size="10.00"> TReturnType &gt;</text>
</a>
</g>
</g>
<!-- Node3 -->
<g id="Node000003" class="node">
<title>Node3</title>
<g id="a_Node000003"><a xlink:href="classDGtal_1_1ConstIteratorAdapter.html" target="_top" xlink:title=" ">
<polygon fill="white" stroke="#666666" points="721.75,-296.12 545.25,-296.12 545.25,-265.62 721.75,-265.62 721.75,-296.12"/>
<text xml:space="preserve" text-anchor="start" x="553.25" y="-282.62" font-family="FreeSans" font-size="10.00">DGtal::ConstIteratorAdapter</text>
<text xml:space="preserve" text-anchor="middle" x="633.5" y="-271.38" font-family="FreeSans" font-size="10.00">&lt; TIterator, TFunctor, TReturnType &gt;</text>
</a>
</g>
</g>
<!-- Node1&#45;&gt;Node3 -->
<g id="edge2_Node000001_Node000003" class="edge">
<title>Node1&#45;&gt;Node3</title>
<g id="a_edge2_Node000001_Node000003"><a xlink:title=" ">
<path fill="none" stroke="orange" stroke-dasharray="5,2" d="M303.87,-182.93C318.44,-208.09 342.61,-242.04 374.25,-258.88 426.19,-286.51 492.44,-291.66 544.83,-290.08"/>
<polygon fill="orange" stroke="orange" points="307.05,-181.46 299.13,-174.42 300.94,-184.86 307.05,-181.46"/>
</a>
</g>
<text xml:space="preserve" text-anchor="start" x="404.62" y="-310.31" font-family="FreeSans" font-size="10.00" fill="grey">&lt; TIterator, TFunctor,</text>
<text xml:space="preserve" text-anchor="start" x="404.62" y="-295.06" font-family="FreeSans" font-size="10.00" fill="grey">   TReturnType &gt;</text>
</g>
<!-- Node4 -->
<g id="Node000004" class="node">
<title>Node4</title>
<g id="a_Node000004"><a xlink:href="classDGtal_1_1ConstIteratorAdapter.html" target="_top" xlink:title=" ">
<polygon fill="white" stroke="#666666" points="718.75,-231.75 548.25,-231.75 548.25,-190 718.75,-190 718.75,-231.75"/>
<text xml:space="preserve" text-anchor="start" x="556.25" y="-218.25" font-family="FreeSans" font-size="10.00">DGtal::ConstIteratorAdapter</text>
<text xml:space="preserve" text-anchor="start" x="556.25" y="-207" font-family="FreeSans" font-size="10.00">&lt; typename TRange::ConstIterator,</text>
<text xml:space="preserve" text-anchor="middle" x="633.5" y="-195.75" font-family="FreeSans" font-size="10.00"> TFunctor, TReturnType &gt;</text>
</a>
</g>
</g>
<!-- Node1&#45;&gt;Node4 -->
<g id="edge3_Node000001_Node000004" class="edge">
<title>Node1&#45;&gt;Node4</title>
<g id="a_edge3_Node000001_Node000004"><a xlink:title=" ">
<path fill="none" stroke="orange" stroke-dasharray="5,2" d="M342.5,-177.54C352.85,-181.58 363.74,-185.28 374.25,-187.88 431.17,-201.95 497.02,-207.65 547.98,-209.86"/>
<polygon fill="orange" stroke="orange" points="343.92,-174.34 333.34,-173.81 341.28,-180.83 343.92,-174.34"/>
</a>
</g>
<text xml:space="preserve" text-anchor="start" x="396" y="-244.01" font-family="FreeSans" font-size="10.00" fill="grey">&lt; typename TRange::</text>
<text xml:space="preserve" text-anchor="start" x="396" y="-228.76" font-family="FreeSans" font-size="10.00" fill="grey">  ConstIterator, TFunctor,</text>
<text xml:space="preserve" text-anchor="start" x="396" y="-213.51" font-family="FreeSans" font-size="10.00" fill="grey">   TReturnType &gt;</text>
</g>
<!-- Node5 -->
<g id="Node000005" class="node">
<title>Node5</title>
<g id="a_Node000005"><a xlink:href="classDGtal_1_1ConstIteratorAdapter.html" target="_top" xlink:title=" ">
<polygon fill="white" stroke="#666666" points="703.38,-171.75 563.62,-171.75 563.62,-130 703.38,-130 703.38,-171.75"/>
<text xml:space="preserve" text-anchor="start" x="571.62" y="-158.25" font-family="FreeSans" font-size="10.00">DGtal::ConstIteratorAdapter</text>
<text xml:space="preserve" text-anchor="start" x="571.62" y="-147" font-family="FreeSans" font-size="10.00">&lt; ConstIterator, Projector2d,</text>
<text xml:space="preserve" text-anchor="middle" x="633.5" y="-135.75" font-family="FreeSans" font-size="10.00"> Point2d &gt;</text>
</a>
</g>
</g>
<!-- Node1&#45;&gt;Node5 -->
<g id="edge4_Node000001_Node000005" class="edge">
<title>Node1&#45;&gt;Node5</title>
<g id="a_edge4_Node000001_Node000005"><a xlink:title=" ">
<path fill="none" stroke="orange" stroke-dasharray="5,2" d="M367.74,-151.64C426.89,-151.47 506.79,-151.24 563.3,-151.08"/>
<polygon fill="orange" stroke="orange" points="368.08,-148.14 358.09,-151.67 368.1,-155.14 368.08,-148.14"/>
</a>
</g>
<text xml:space="preserve" text-anchor="start" x="388.88" y="-171.61" font-family="FreeSans" font-size="10.00" fill="grey">&lt; ConstIterator, Projector2d,</text>
<text xml:space="preserve" text-anchor="start" x="388.88" y="-156.36" font-family="FreeSans" font-size="10.00" fill="grey">   Point2d &gt;</text>
</g>
<!-- Node6 -->
<g id="Node000006" class="node">
<title>Node6</title>
<g id="a_Node000006"><a xlink:href="classDGtal_1_1ConstIteratorAdapter.html" target="_top" xlink:title=" ">
<polygon fill="white" stroke="#666666" points="718.38,-101.75 548.62,-101.75 548.62,-60 718.38,-60 718.38,-101.75"/>
<text xml:space="preserve" text-anchor="start" x="556.62" y="-88.25" font-family="FreeSans" font-size="10.00">DGtal::ConstIteratorAdapter</text>
<text xml:space="preserve" text-anchor="start" x="556.62" y="-77" font-family="FreeSans" font-size="10.00">&lt; typename Domain::ConstIterator,</text>
<text xml:space="preserve" text-anchor="middle" x="633.5" y="-65.75" font-family="FreeSans" font-size="10.00"> TImage, Value &gt;</text>
</a>
</g>
</g>
<!-- Node1&#45;&gt;Node6 -->
<g id="edge5_Node000001_Node000006" class="edge">
<title>Node1&#45;&gt;Node6</title>
<g id="a_edge5_Node000001_Node000006"><a xlink:title=" ">
<path fill="none" stroke="orange" stroke-dasharray="5,2" d="M324.37,-124.33C339.08,-114.63 356.72,-104.74 374.25,-99.12 430.43,-81.13 496.89,-76.79 548.31,-76.83"/>
<polygon fill="orange" stroke="orange" points="322.68,-121.24 316.41,-129.78 326.64,-127.02 322.68,-121.24"/>
</a>
</g>
<text xml:space="preserve" text-anchor="start" x="398.62" y="-134.38" font-family="FreeSans" font-size="10.00" fill="grey">&lt; typename Domain::</text>
<text xml:space="preserve" text-anchor="start" x="398.62" y="-119.12" font-family="FreeSans" font-size="10.00" fill="grey">  ConstIterator, TImage,</text>
<text xml:space="preserve" text-anchor="start" x="398.62" y="-103.88" font-family="FreeSans" font-size="10.00" fill="grey">   Value &gt;</text>
</g>
<!-- Node7 -->
<g id="Node000007" class="node">
<title>Node7</title>
<g id="a_Node000007"><a xlink:href="classDGtal_1_1ConstIteratorAdapter.html" target="_top" xlink:title=" ">
<polygon fill="white" stroke="#666666" points="715,-41.75 552,-41.75 552,0 715,0 715,-41.75"/>
<text xml:space="preserve" text-anchor="start" x="560" y="-28.25" font-family="FreeSans" font-size="10.00">DGtal::ConstIteratorAdapter</text>
<text xml:space="preserve" text-anchor="start" x="560" y="-17" font-family="FreeSans" font-size="10.00">&lt; typename Image::ConstIterator,</text>
<text xml:space="preserve" text-anchor="middle" x="633.5" y="-5.75" font-family="FreeSans" font-size="10.00"> Functor, Point &gt;</text>
</a>
</g>
</g>
<!-- Node1&#45;&gt;Node7 -->
<g id="edge6_Node000001_Node000007" class="edge">
<title>Node1&#45;&gt;Node7</title>
<g id="a_edge6_Node000001_Node000007"><a xlink:title=" ">
<path fill="none" stroke="orange" stroke-dasharray="5,2" d="M302.81,-120.73C317.06,-94.36 341.36,-58.1 374.25,-40.38 428.28,-11.26 498.11,-7.65 551.54,-10.62"/>
<polygon fill="orange" stroke="orange" points="299.86,-118.81 298.36,-129.3 306.08,-122.03 299.86,-118.81"/>
</a>
</g>
<text xml:space="preserve" text-anchor="start" x="377.25" y="-60.38" font-family="FreeSans" font-size="10.00" fill="grey">&lt; typename Image::ConstIterator,</text>
<text xml:space="preserve" text-anchor="start" x="377.25" y="-45.12" font-family="FreeSans" font-size="10.00" fill="grey">   Functor, Point &gt;</text>
</g>
<!-- Node2 -->
<g id="Node000002" class="node">
<title>Node2</title>
<g id="a_Node000002"><a xlink:title=" ">
<polygon fill="white" stroke="#666666" points="181,-195.25 0,-195.25 0,-108.5 181,-108.5 181,-195.25"/>
<text xml:space="preserve" text-anchor="start" x="8" y="-181.75" font-family="FreeSans" font-size="10.00">boost::iterator_adaptor</text>
<text xml:space="preserve" text-anchor="start" x="8" y="-170.5" font-family="FreeSans" font-size="10.00">&lt; ConstIteratorAdapter</text>
<text xml:space="preserve" text-anchor="start" x="8" y="-159.25" font-family="FreeSans" font-size="10.00">&lt; TIterator, TLightFunctor,</text>
<text xml:space="preserve" text-anchor="start" x="8" y="-148" font-family="FreeSans" font-size="10.00"> typename TLightFunctor::Value</text>
<text xml:space="preserve" text-anchor="start" x="8" y="-136.75" font-family="FreeSans" font-size="10.00"> &gt;, TIterator, typename TLightFunctor</text>
<text xml:space="preserve" text-anchor="start" x="8" y="-125.5" font-family="FreeSans" font-size="10.00">::Value, boost::use_default, typename</text>
<text xml:space="preserve" text-anchor="middle" x="90.5" y="-114.25" font-family="FreeSans" font-size="10.00"> TLightFunctor::Value &gt;</text>
</a>
</g>
</g>
<!-- Node2&#45;&gt;Node1 -->
<g id="edge1_Node000001_Node000002" class="edge">
<title>Node2&#45;&gt;Node1</title>
<g id="a_edge1_Node000001_Node000002"><a xlink:title=" ">
<path fill="none" stroke="#63b8ff" d="M192.82,-151.88C201.19,-151.88 209.52,-151.88 217.56,-151.88"/>
<polygon fill="#63b8ff" stroke="#63b8ff" points="192.92,-148.38 182.92,-151.88 192.92,-155.38 192.92,-148.38"/>
</a>
</g>
</g>
</g>
</svg>

<g id="navigator" transform="translate(0 0)" fill="#404254">
  <rect fill="#f2f5e9" fill-opacity="0.5" stroke="#606060" stroke-width=".5" x="0" y="0" width="60" height="60"/>
  <use id="zoomplus" xlink:href="#zoomPlus" x="17" y="9" onmousedown="handleZoom(evt,'in')"/>
  <use id="zoomminus" xlink:href="#zoomMin" x="42" y="9" onmousedown="handleZoom(evt,'out')"/>
  <use id="reset" xlink:href="#resetDef" x="30" y="36" onmousedown="handleReset()"/>
   <use id="arrowup" xlink:href="#arrowUp" x="0" y="0" onmousedown="handlePan(0,-1)"/>
  <use id="arrowright" xlink:href="#arrowRight" x="0" y="0" onmousedown="handlePan(1,0)"/>
  <use id="arrowdown" xlink:href="#arrowDown" x="0" y="0" onmousedown="handlePan(0,1)"/>
  <use id="arrowleft" xlink:href="#arrowLeft" x="0" y="0" onmousedown="handlePan(-1,0)"/>
</g>
<svg viewBox="0 0 15 15" width="100%" height="30px" preserveAspectRatio="xMaxYMin meet">
 <g id="arrow_out" transform="scale(0.3 0.3)">
  <a xlink:href="classDGtal_1_1ConstIteratorAdapter__inherit__graph_org.svg" target="_base">
   <rect id="button" ry="5" rx="5" y="6" x="6" height="38" width="38"
        fill="#f2f5e9" fill-opacity="0.5" stroke="#606060" stroke-width="1.0"/>
   <path id="arrow"
     d="M 11.500037,31.436501 C 11.940474,20.09759 22.043105,11.32322 32.158766,21.979434 L 37.068811,17.246167 C 37.068811,17.246167 37.088388,32 37.088388,32 L 22.160133,31.978069 C 22.160133,31.978069 26.997745,27.140456 26.997745,27.140456 C 18.528582,18.264221 13.291696,25.230495 11.500037,31.436501 z"
     style="fill:#404040;"/>
  </a>
 </g>
</svg>

<style type='text/css'>
<![CDATA[
[data-mouse-over-selected='false'] { opacity: 0.7; }
[data-mouse-over-selected='true']  { opacity: 1.0; }
]]>
</style>
<script type="application/ecmascript"><![CDATA[
document.addEventListener('DOMContentLoaded', (event) => {
  highlightEdges();
  highlightAdjacentNodes();
});
]]></script>
</svg>
