<?xml version="1.0" encoding="UTF-8" standalone="no"?>
<!DOCTYPE svg PUBLIC "-//W3C//DTD SVG 1.1//EN"
 "http://www.w3.org/Graphics/SVG/1.1/DTD/svg11.dtd">
<!-- Generated by graphviz version 13.1.2 (20250808.2320)
 -->
<!-- Title: DGtal::ArithmeticalDSSComputer&lt; TIterator, TInteger, adjacency &gt; Pages: 1 -->
<svg width="502pt" height="691pt"
 viewBox="0.00 0.00 502.00 691.00" xmlns="http://www.w3.org/2000/svg" xmlns:xlink="http://www.w3.org/1999/xlink">
<g id="graph0" class="graph" transform="scale(1 1) rotate(0) translate(4 687.37)">
<title>DGtal::ArithmeticalDSSComputer&lt; TIterator, TInteger, adjacency &gt;</title>
<!-- Node1 -->
<g id="Node000001" class="node">
<title>Node1</title>
<g id="a_Node000001"><a xlink:title="Aim: This class is a wrapper around ArithmeticalDSS that is devoted to the dynamic recognition of dig...">
<polygon fill="#999999" stroke="#666666" points="163,-346.14 0,-346.14 0,-315.64 163,-315.64 163,-346.14"/>
<text xml:space="preserve" text-anchor="start" x="8" y="-332.64" font-family="FreeSans" font-size="10.00">DGtal::ArithmeticalDSSComputer</text>
<text xml:space="preserve" text-anchor="middle" x="81.5" y="-321.39" font-family="FreeSans" font-size="10.00">&lt; TIterator, TInteger, adjacency &gt;</text>
</a>
</g>
</g>
<!-- Node2 -->
<g id="Node000002" class="node">
<title>Node2</title>
<g id="a_Node000002"><a xlink:href="classDGtal_1_1ArithmeticalDSSComputer.html" target="_top" xlink:title=" ">
<polygon fill="white" stroke="#666666" points="490.62,-658.76 327.62,-658.76 327.62,-617.01 490.62,-617.01 490.62,-658.76"/>
<text xml:space="preserve" text-anchor="start" x="335.62" y="-645.26" font-family="FreeSans" font-size="10.00">DGtal::ArithmeticalDSSComputer</text>
<text xml:space="preserve" text-anchor="start" x="335.62" y="-634.01" font-family="FreeSans" font-size="10.00">&lt; ConstIterator, TInteger,</text>
<text xml:space="preserve" text-anchor="middle" x="409.12" y="-622.76" font-family="FreeSans" font-size="10.00"> adjacency &gt;</text>
</a>
</g>
</g>
<!-- Node1&#45;&gt;Node2 -->
<g id="edge1_Node000001_Node000002" class="edge">
<title>Node1&#45;&gt;Node2</title>
<g id="a_edge1_Node000001_Node000002"><a xlink:title=" ">
<path fill="none" stroke="orange" stroke-dasharray="5,2" d="M82.82,-357.88C85.12,-415.73 99.4,-551.6 181,-615.89 221.61,-647.88 279.84,-652.97 327.17,-650.28"/>
<polygon fill="orange" stroke="orange" points="86.32,-357.87 82.53,-347.98 79.33,-358.08 86.32,-357.87"/>
</a>
</g>
<text xml:space="preserve" text-anchor="start" x="188.88" y="-670.87" font-family="FreeSans" font-size="10.00" fill="grey">&lt; ConstIterator, TInteger,</text>
<text xml:space="preserve" text-anchor="start" x="188.88" y="-655.62" font-family="FreeSans" font-size="10.00" fill="grey">   adjacency &gt;</text>
</g>
<!-- Node3 -->
<g id="Node000003" class="node">
<title>Node3</title>
<g id="a_Node000003"><a xlink:href="classDGtal_1_1ArithmeticalDSSComputer.html" target="_top" xlink:title=" ">
<polygon fill="white" stroke="#666666" points="490.62,-593.76 327.62,-593.76 327.62,-552.01 490.62,-552.01 490.62,-593.76"/>
<text xml:space="preserve" text-anchor="start" x="335.62" y="-580.26" font-family="FreeSans" font-size="10.00">DGtal::ArithmeticalDSSComputer</text>
<text xml:space="preserve" text-anchor="start" x="335.62" y="-569.01" font-family="FreeSans" font-size="10.00">&lt; ReverseIterator&lt; ConstIterator</text>
<text xml:space="preserve" text-anchor="middle" x="409.12" y="-557.76" font-family="FreeSans" font-size="10.00"> &gt;, TInteger, adjacency &gt;</text>
</a>
</g>
</g>
<!-- Node1&#45;&gt;Node3 -->
<g id="edge2_Node000001_Node000003" class="edge">
<title>Node1&#45;&gt;Node3</title>
<g id="a_edge2_Node000001_Node000003"><a xlink:title=" ">
<path fill="none" stroke="orange" stroke-dasharray="5,2" d="M86.92,-357.8C95.89,-403.14 120.75,-494.17 181,-538.89 203.81,-555.82 271.6,-564.44 327.23,-568.75"/>
<polygon fill="orange" stroke="orange" points="90.38,-357.23 85.11,-348.04 83.49,-358.51 90.38,-357.23"/>
</a>
</g>
<text xml:space="preserve" text-anchor="start" x="184" y="-601.96" font-family="FreeSans" font-size="10.00" fill="grey">&lt; ReverseIterator&lt;</text>
<text xml:space="preserve" text-anchor="start" x="184" y="-586.71" font-family="FreeSans" font-size="10.00" fill="grey">   ConstIterator &gt;, TInteger,</text>
<text xml:space="preserve" text-anchor="start" x="184" y="-571.46" font-family="FreeSans" font-size="10.00" fill="grey">   adjacency &gt;</text>
</g>
<!-- Node4 -->
<g id="Node000004" class="node">
<title>Node4</title>
<g id="a_Node000004"><a xlink:href="classDGtal_1_1ArithmeticalDSSComputer.html" target="_top" xlink:title=" ">
<polygon fill="white" stroke="#666666" points="490.62,-534.14 327.62,-534.14 327.62,-503.64 490.62,-503.64 490.62,-534.14"/>
<text xml:space="preserve" text-anchor="start" x="335.62" y="-520.64" font-family="FreeSans" font-size="10.00">DGtal::ArithmeticalDSSComputer</text>
<text xml:space="preserve" text-anchor="middle" x="409.12" y="-509.39" font-family="FreeSans" font-size="10.00">&lt; TIterator, TInteger, 4 &gt;</text>
</a>
</g>
</g>
<!-- Node1&#45;&gt;Node4 -->
<g id="edge3_Node000001_Node000004" class="edge">
<title>Node1&#45;&gt;Node4</title>
<g id="a_edge3_Node000001_Node000004"><a xlink:title=" ">
<path fill="none" stroke="orange" stroke-dasharray="5,2" d="M89.92,-357.14C102.12,-394.91 130.24,-463.58 181,-495.89 204.74,-511 272.02,-516.42 327.24,-518.25"/>
<polygon fill="orange" stroke="orange" points="93.38,-356.46 87.09,-347.93 86.69,-358.52 93.38,-356.46"/>
</a>
</g>
<text xml:space="preserve" text-anchor="start" x="190.38" y="-522.05" font-family="FreeSans" font-size="10.00" fill="grey">&lt; TIterator, TInteger, 4 &gt;</text>
</g>
<!-- Node5 -->
<g id="Node000005" class="node">
<title>Node5</title>
<g id="a_Node000005"><a xlink:href="classDGtal_1_1ArithmeticalDSSComputer.html" target="_top" xlink:title=" ">
<polygon fill="white" stroke="#666666" points="490.62,-485.14 327.62,-485.14 327.62,-454.64 490.62,-454.64 490.62,-485.14"/>
<text xml:space="preserve" text-anchor="start" x="335.62" y="-471.64" font-family="FreeSans" font-size="10.00">DGtal::ArithmeticalDSSComputer</text>
<text xml:space="preserve" text-anchor="middle" x="409.12" y="-460.39" font-family="FreeSans" font-size="10.00">&lt; TIterator, TInteger, 8 &gt;</text>
</a>
</g>
</g>
<!-- Node1&#45;&gt;Node5 -->
<g id="edge4_Node000001_Node000005" class="edge">
<title>Node1&#45;&gt;Node5</title>
<g id="a_edge4_Node000001_Node000005"><a xlink:title=" ">
<path fill="none" stroke="orange" stroke-dasharray="5,2" d="M96.48,-356.21C112.89,-383.21 142.78,-424.8 181,-444.89 225.6,-468.33 281.84,-474.66 327.2,-475.1"/>
<polygon fill="orange" stroke="orange" points="99.52,-354.47 91.44,-347.61 93.48,-358.01 99.52,-354.47"/>
</a>
</g>
<text xml:space="preserve" text-anchor="start" x="190.38" y="-479.19" font-family="FreeSans" font-size="10.00" fill="grey">&lt; TIterator, TInteger, 8 &gt;</text>
</g>
<!-- Node6 -->
<g id="Node000006" class="node">
<title>Node6</title>
<g id="a_Node000006"><a xlink:href="classDGtal_1_1ArithmeticalDSSComputer.html" target="_top" xlink:title=" ">
<polygon fill="white" stroke="#666666" points="490.62,-436.14 327.62,-436.14 327.62,-405.64 490.62,-405.64 490.62,-436.14"/>
<text xml:space="preserve" text-anchor="start" x="335.62" y="-422.64" font-family="FreeSans" font-size="10.00">DGtal::ArithmeticalDSSComputer</text>
<text xml:space="preserve" text-anchor="middle" x="409.12" y="-411.39" font-family="FreeSans" font-size="10.00">&lt; ConstIterator, int, 4 &gt;</text>
</a>
</g>
</g>
<!-- Node1&#45;&gt;Node6 -->
<g id="edge5_Node000001_Node000006" class="edge">
<title>Node1&#45;&gt;Node6</title>
<g id="a_edge5_Node000001_Node000006"><a xlink:title=" ">
<path fill="none" stroke="orange" stroke-dasharray="5,2" d="M106.74,-354.19C125.44,-370.61 152.79,-391.46 181,-401.89 227.49,-419.07 282.85,-423.99 327.28,-424.53"/>
<polygon fill="orange" stroke="orange" points="109.18,-351.67 99.41,-347.56 104.48,-356.86 109.18,-351.67"/>
</a>
</g>
<text xml:space="preserve" text-anchor="start" x="192.62" y="-428.5" font-family="FreeSans" font-size="10.00" fill="grey">&lt; ConstIterator, int, 4 &gt;</text>
</g>
<!-- Node7 -->
<g id="Node000007" class="node">
<title>Node7</title>
<g id="a_Node000007"><a xlink:href="classDGtal_1_1ArithmeticalDSSComputer.html" target="_top" xlink:title=" ">
<polygon fill="white" stroke="#666666" points="490.62,-379.76 327.62,-379.76 327.62,-338.01 490.62,-338.01 490.62,-379.76"/>
<text xml:space="preserve" text-anchor="start" x="335.62" y="-366.26" font-family="FreeSans" font-size="10.00">DGtal::ArithmeticalDSSComputer</text>
<text xml:space="preserve" text-anchor="start" x="335.62" y="-355.01" font-family="FreeSans" font-size="10.00">&lt; typename TCurve2D::const</text>
<text xml:space="preserve" text-anchor="middle" x="409.12" y="-343.76" font-family="FreeSans" font-size="10.00">_iterator, int, CONNECTIVITY &gt;</text>
</a>
</g>
</g>
<!-- Node1&#45;&gt;Node7 -->
<g id="edge6_Node000001_Node000007" class="edge">
<title>Node1&#45;&gt;Node7</title>
<g id="a_edge6_Node000001_Node000007"><a xlink:title=" ">
<path fill="none" stroke="orange" stroke-dasharray="5,2" d="M174.76,-338.82C222.83,-342.95 281.08,-347.96 327.35,-351.94"/>
<polygon fill="orange" stroke="orange" points="175.18,-335.34 164.92,-337.97 174.58,-342.32 175.18,-335.34"/>
</a>
</g>
<text xml:space="preserve" text-anchor="start" x="193.75" y="-385.08" font-family="FreeSans" font-size="10.00" fill="grey">&lt; typename TCurve2D</text>
<text xml:space="preserve" text-anchor="start" x="193.75" y="-369.83" font-family="FreeSans" font-size="10.00" fill="grey">  ::const_iterator, int,</text>
<text xml:space="preserve" text-anchor="start" x="193.75" y="-354.58" font-family="FreeSans" font-size="10.00" fill="grey">   CONNECTIVITY &gt;</text>
</g>
<!-- Node8 -->
<g id="Node000008" class="node">
<title>Node8</title>
<g id="a_Node000008"><a xlink:href="classDGtal_1_1ArithmeticalDSSComputer.html" target="_top" xlink:title=" ">
<polygon fill="white" stroke="#666666" points="494,-319.14 324.25,-319.14 324.25,-288.64 494,-288.64 494,-319.14"/>
<text xml:space="preserve" text-anchor="start" x="332.25" y="-305.64" font-family="FreeSans" font-size="10.00">DGtal::ArithmeticalDSSComputer</text>
<text xml:space="preserve" text-anchor="middle" x="409.12" y="-294.39" font-family="FreeSans" font-size="10.00">&lt; TIterator, TInteger, connectivity &gt;</text>
</a>
</g>
</g>
<!-- Node1&#45;&gt;Node8 -->
<g id="edge7_Node000001_Node000008" class="edge">
<title>Node1&#45;&gt;Node8</title>
<g id="a_edge7_Node000001_Node000008"><a xlink:title=" ">
<path fill="none" stroke="orange" stroke-dasharray="5,2" d="M141.85,-312.25C154.64,-308.99 168.17,-306.1 181,-304.39 228,-298.12 280.96,-297.63 323.91,-298.88"/>
<polygon fill="orange" stroke="orange" points="141.06,-308.84 132.3,-314.8 142.86,-315.6 141.06,-308.84"/>
</a>
</g>
<text xml:space="preserve" text-anchor="start" x="199" y="-324.39" font-family="FreeSans" font-size="10.00" fill="grey">&lt; TIterator, TInteger,</text>
<text xml:space="preserve" text-anchor="start" x="199" y="-309.14" font-family="FreeSans" font-size="10.00" fill="grey">   connectivity &gt;</text>
</g>
<!-- Node9 -->
<g id="Node000009" class="node">
<title>Node9</title>
<g id="a_Node000009"><a xlink:href="classDGtal_1_1ArithmeticalDSSComputer.html" target="_top" xlink:title=" ">
<polygon fill="white" stroke="#666666" points="490.62,-270.76 327.62,-270.76 327.62,-229.01 490.62,-229.01 490.62,-270.76"/>
<text xml:space="preserve" text-anchor="start" x="335.62" y="-257.26" font-family="FreeSans" font-size="10.00">DGtal::ArithmeticalDSSComputer</text>
<text xml:space="preserve" text-anchor="start" x="335.62" y="-246.01" font-family="FreeSans" font-size="10.00">&lt; IteratorAdapter, TInteger,</text>
<text xml:space="preserve" text-anchor="middle" x="409.12" y="-234.76" font-family="FreeSans" font-size="10.00"> connectivity &gt;</text>
</a>
</g>
</g>
<!-- Node1&#45;&gt;Node9 -->
<g id="edge8_Node000001_Node000009" class="edge">
<title>Node1&#45;&gt;Node9</title>
<g id="a_edge8_Node000001_Node000009"><a xlink:title=" ">
<path fill="none" stroke="orange" stroke-dasharray="5,2" d="M106.73,-307.81C125.42,-291.6 152.78,-271.13 181,-261.39 227.65,-245.28 282.89,-242.16 327.22,-243.18"/>
<polygon fill="orange" stroke="orange" points="104.54,-305.08 99.41,-314.35 109.2,-310.3 104.54,-305.08"/>
</a>
</g>
<text xml:space="preserve" text-anchor="start" x="187.75" y="-281.39" font-family="FreeSans" font-size="10.00" fill="grey">&lt; IteratorAdapter,</text>
<text xml:space="preserve" text-anchor="start" x="187.75" y="-266.14" font-family="FreeSans" font-size="10.00" fill="grey">   TInteger, connectivity &gt;</text>
</g>
<!-- Node10 -->
<g id="Node000010" class="node">
<title>Node10</title>
<g id="a_Node000010"><a xlink:href="classDGtal_1_1ArithmeticalDSSComputer.html" target="_top" xlink:title=" ">
<polygon fill="white" stroke="#666666" points="490.62,-211.14 327.62,-211.14 327.62,-180.64 490.62,-180.64 490.62,-211.14"/>
<text xml:space="preserve" text-anchor="start" x="335.62" y="-197.64" font-family="FreeSans" font-size="10.00">DGtal::ArithmeticalDSSComputer</text>
<text xml:space="preserve" text-anchor="middle" x="409.12" y="-186.39" font-family="FreeSans" font-size="10.00">&lt; ConstIterator, int, 8 &gt;</text>
</a>
</g>
</g>
<!-- Node1&#45;&gt;Node10 -->
<g id="edge9_Node000001_Node000010" class="edge">
<title>Node1&#45;&gt;Node10</title>
<g id="a_edge9_Node000001_Node000010"><a xlink:title=" ">
<path fill="none" stroke="orange" stroke-dasharray="5,2" d="M97.3,-305.8C114.05,-279.91 143.91,-240.71 181,-221.64 225.82,-198.59 282.07,-192.07 327.37,-191.36"/>
<polygon fill="orange" stroke="orange" points="94.48,-303.71 92.14,-314.04 100.41,-307.42 94.48,-303.71"/>
</a>
</g>
<text xml:space="preserve" text-anchor="start" x="192.62" y="-226.39" font-family="FreeSans" font-size="10.00" fill="grey">&lt; ConstIterator, int, 8 &gt;</text>
</g>
<!-- Node11 -->
<g id="Node000011" class="node">
<title>Node11</title>
<g id="a_Node000011"><a xlink:href="classDGtal_1_1ArithmeticalDSSComputer.html" target="_top" xlink:title=" ">
<polygon fill="white" stroke="#666666" points="490.62,-162.14 327.62,-162.14 327.62,-131.64 490.62,-131.64 490.62,-162.14"/>
<text xml:space="preserve" text-anchor="start" x="335.62" y="-148.64" font-family="FreeSans" font-size="10.00">DGtal::ArithmeticalDSSComputer</text>
<text xml:space="preserve" text-anchor="middle" x="409.12" y="-137.39" font-family="FreeSans" font-size="10.00">&lt; ConstIterator2D, int, 8 &gt;</text>
</a>
</g>
</g>
<!-- Node1&#45;&gt;Node11 -->
<g id="edge10_Node000001_Node000011" class="edge">
<title>Node1&#45;&gt;Node11</title>
<g id="a_edge10_Node000001_Node000011"><a xlink:title=" ">
<path fill="none" stroke="orange" stroke-dasharray="5,2" d="M88.65,-304.35C99.55,-264.08 126.44,-188.72 181,-155.39 224.19,-129.01 281.1,-126.92 327.16,-131.42"/>
<polygon fill="orange" stroke="orange" points="85.28,-303.38 86.2,-313.94 92.07,-305.11 85.28,-303.38"/>
</a>
</g>
<text xml:space="preserve" text-anchor="start" x="202.75" y="-175.39" font-family="FreeSans" font-size="10.00" fill="grey">&lt; ConstIterator2D,</text>
<text xml:space="preserve" text-anchor="start" x="202.75" y="-160.14" font-family="FreeSans" font-size="10.00" fill="grey">   int, 8 &gt;</text>
</g>
<!-- Node12 -->
<g id="Node000012" class="node">
<title>Node12</title>
<g id="a_Node000012"><a xlink:href="classDGtal_1_1ArithmeticalDSSComputer.html" target="_top" xlink:title=" ">
<polygon fill="white" stroke="#666666" points="490.62,-98.76 327.62,-98.76 327.62,-57.01 490.62,-57.01 490.62,-98.76"/>
<text xml:space="preserve" text-anchor="start" x="335.62" y="-85.26" font-family="FreeSans" font-size="10.00">DGtal::ArithmeticalDSSComputer</text>
<text xml:space="preserve" text-anchor="start" x="335.62" y="-74.01" font-family="FreeSans" font-size="10.00">&lt; std::vector&lt; Z2i::Point</text>
<text xml:space="preserve" text-anchor="middle" x="409.12" y="-62.76" font-family="FreeSans" font-size="10.00"> &gt;::const_iterator, int, 4 &gt;</text>
</a>
</g>
</g>
<!-- Node1&#45;&gt;Node12 -->
<g id="edge11_Node000001_Node000012" class="edge">
<title>Node1&#45;&gt;Node12</title>
<g id="a_edge11_Node000001_Node000012"><a xlink:title=" ">
<path fill="none" stroke="orange" stroke-dasharray="5,2" d="M83.66,-304.13C87.6,-250.43 104.92,-130.2 181,-78.14 204.14,-62.3 271.7,-63.98 327.16,-68.61"/>
<polygon fill="orange" stroke="orange" points="80.18,-303.7 83.05,-313.9 87.16,-304.13 80.18,-303.7"/>
</a>
</g>
<text xml:space="preserve" text-anchor="start" x="188.12" y="-113.39" font-family="FreeSans" font-size="10.00" fill="grey">&lt; std::vector&lt; Z2i</text>
<text xml:space="preserve" text-anchor="start" x="188.12" y="-98.14" font-family="FreeSans" font-size="10.00" fill="grey">  ::Point &gt;::const_iterator,</text>
<text xml:space="preserve" text-anchor="start" x="188.12" y="-82.89" font-family="FreeSans" font-size="10.00" fill="grey">   int, 4 &gt;</text>
</g>
<!-- Node13 -->
<g id="Node000013" class="node">
<title>Node13</title>
<g id="a_Node000013"><a xlink:href="classDGtal_1_1ArithmeticalDSSComputer.html" target="_top" xlink:title=" ">
<polygon fill="white" stroke="#666666" points="490.62,-37.14 327.62,-37.14 327.62,-6.64 490.62,-6.64 490.62,-37.14"/>
<text xml:space="preserve" text-anchor="start" x="335.62" y="-23.64" font-family="FreeSans" font-size="10.00">DGtal::ArithmeticalDSSComputer</text>
<text xml:space="preserve" text-anchor="middle" x="409.12" y="-12.39" font-family="FreeSans" font-size="10.00">&lt; IteratorAdapter, TInteger, 8 &gt;</text>
</a>
</g>
</g>
<!-- Node1&#45;&gt;Node13 -->
<g id="edge12_Node000001_Node000013" class="edge">
<title>Node1&#45;&gt;Node13</title>
<g id="a_edge12_Node000001_Node000013"><a xlink:title=" ">
<path fill="none" stroke="orange" stroke-dasharray="5,2" d="M81.93,-304.03C82.28,-243.33 92.63,-95.74 181,-29.39 227.93,5.85 297.01,2.67 346.65,-6.18"/>
<polygon fill="orange" stroke="orange" points="78.43,-303.78 81.97,-313.76 85.43,-303.75 78.43,-303.78"/>
</a>
</g>
<text xml:space="preserve" text-anchor="start" x="205.75" y="-49.39" font-family="FreeSans" font-size="10.00" fill="grey">&lt; IteratorAdapter,</text>
<text xml:space="preserve" text-anchor="start" x="205.75" y="-34.14" font-family="FreeSans" font-size="10.00" fill="grey">   TInteger, 8 &gt;</text>
</g>
</g>
</svg>
