<?xml version="1.0" encoding="UTF-8" standalone="no"?>
<!DOCTYPE svg PUBLIC "-//W3C//DTD SVG 1.1//EN"
 "http://www.w3.org/Graphics/SVG/1.1/DTD/svg11.dtd">
<!-- Generated by graphviz version 13.1.2 (20250808.2320)
 -->
<!-- Title: DGtal::KhalimskySpaceNDHelper&lt; TKhalimskySpace &gt; Pages: 1 -->
<!--zoomable 382 -->

<svg id="main" version="1.1" xmlns="http://www.w3.org/2000/svg" xmlns:xlink="http://www.w3.org/1999/xlink" xml:space="preserve" onload="init(evt)">

<style type="text/css"><![CDATA[
.node, .edge {opacity: 0.7;}
.node.selected, .edge.selected {opacity: 1;}
.edge:hover path { stroke: red; }
.edge:hover polygon { stroke: red; fill: red; }
]]></style>

<defs>
  <circle id="rim" cx="0" cy="0" r="7"/>
  <circle id="rim2" cx="0" cy="0" r="3.5"/>
  <g id="zoomPlus">
    <use xlink:href="#rim" fill="#404040"><set attributeName="fill" to="#808080" begin="zoomplus.mouseover" end="zoomplus.mouseout"/></use>
    <path d="M-4,0h8M0,-4v8" fill="none" stroke="white" stroke-width="1.5" pointer-events="none"/>
  </g>
  <g id="zoomMin">
    <use xlink:href="#rim" fill="#404040"><set attributeName="fill" to="#808080" begin="zoomminus.mouseover" end="zoomminus.mouseout"/></use>
    <path d="M-4,0h8" fill="none" stroke="white" stroke-width="1.5" pointer-events="none"/>
  </g>
  <g id="arrowUp" transform="translate(30 24)">
    <use xlink:href="#rim"/>
    <path pointer-events="none" fill="none" stroke="white" stroke-width="1.5" d="M0,-3.0v7 M-2.5,-0.5L0,-3.0L2.5,-0.5"/>
  </g>
  <g id="arrowRight" transform="rotate(90) translate(36 -43)">
    <use xlink:href="#rim"/>
    <path pointer-events="none" fill="none" stroke="white" stroke-width="1.5" d="M0,-3.0v7 M-2.5,-0.5L0,-3.0L2.5,-0.5"/>
  </g>
  <g id="arrowDown" transform="rotate(180) translate(-30 -48)">
    <use xlink:href="#rim"/>
    <path pointer-events="none" fill="none" stroke="white" stroke-width="1.5" d="M0,-3.0v7 M-2.5,-0.5L0,-3.0L2.5,-0.5"/>
  </g>
  <g id="arrowLeft" transform="rotate(270) translate(-36 17)">
    <use xlink:href="#rim"/>
    <path pointer-events="none" fill="none" stroke="white" stroke-width="1.5" d="M0,-3.0v7 M-2.5,-0.5L0,-3.0L2.5,-0.5"/>
  </g>
  <g id="resetDef">
    <use xlink:href="#rim2" fill="#404040"><set attributeName="fill" to="#808080" begin="reset.mouseover" end="reset.mouseout"/></use>
  </g>
</defs>
<script type="application/ecmascript">
var viewWidth = 1137;
var viewHeight = 382;
var sectionId = 'dynsection-0';
</script>
<script type="application/ecmascript" xlink:href="svg.min.js"/>
<svg id="graph" class="graph">
<g id="viewport">
<title>DGtal::KhalimskySpaceNDHelper&lt; TKhalimskySpace &gt;</title>
<!-- Node1 -->
<g id="Node000001" class="node">
<title>Node1</title>
<g id="a_Node000001"><a xlink:title="Internal class of KhalimskySpaceND that provides some optimizations depending on the space type.">
<polygon fill="#999999" stroke="#666666" points="164.5,-291.38 0,-291.38 0,-260.88 164.5,-260.88 164.5,-291.38"/>
<text xml:space="preserve" text-anchor="start" x="8" y="-277.88" font-family="FreeSans" font-size="10.00">DGtal::KhalimskySpaceNDHelper</text>
<text xml:space="preserve" text-anchor="middle" x="82.25" y="-266.63" font-family="FreeSans" font-size="10.00">&lt; TKhalimskySpace &gt;</text>
</a>
</g>
</g>
<!-- Node2 -->
<g id="Node000002" class="node">
<title>Node2</title>
<g id="a_Node000002"><a xlink:href="classDGtal_1_1KhalimskySpaceND.html" target="_top" xlink:title=" ">
<polygon fill="white" stroke="#666666" points="1121,-374.38 985,-374.38 985,-343.88 1121,-343.88 1121,-374.38"/>
<text xml:space="preserve" text-anchor="start" x="993" y="-360.88" font-family="FreeSans" font-size="10.00">DGtal::KhalimskySpaceND</text>
<text xml:space="preserve" text-anchor="middle" x="1053" y="-349.63" font-family="FreeSans" font-size="10.00">&lt; 2, Integer &gt;</text>
</a>
</g>
</g>
<!-- Node1&#45;&gt;Node2 -->
<g id="edge1_Node000001_Node000002" class="edge">
<title>Node1&#45;&gt;Node2</title>
<g id="a_edge1_Node000001_Node000002"><a xlink:title=" ">
<path fill="none" stroke="#8b1a1a" d="M112.13,-298.37C131.1,-311.8 157.04,-328.03 182.5,-337.13 241.42,-358.19 259.61,-351.39 322,-356.13 565.42,-374.64 855.83,-366.99 984.69,-362.07"/>
<polygon fill="#8b1a1a" stroke="#8b1a1a" points="114.26,-295.58 104.11,-292.54 110.14,-301.25 114.26,-295.58"/>
</a>
</g>
</g>
<!-- Node3 -->
<g id="Node000003" class="node">
<title>Node3</title>
<g id="a_Node000003"><a xlink:href="classDGtal_1_1KhalimskySpaceND.html" target="_top" xlink:title=" ">
<polygon fill="white" stroke="#666666" points="1121,-322.38 985,-322.38 985,-291.88 1121,-291.88 1121,-322.38"/>
<text xml:space="preserve" text-anchor="start" x="993" y="-308.88" font-family="FreeSans" font-size="10.00">DGtal::KhalimskySpaceND</text>
<text xml:space="preserve" text-anchor="middle" x="1053" y="-297.63" font-family="FreeSans" font-size="10.00">&lt; 3, Integer &gt;</text>
</a>
</g>
</g>
<!-- Node1&#45;&gt;Node3 -->
<g id="edge2_Node000001_Node000003" class="edge">
<title>Node1&#45;&gt;Node3</title>
<g id="a_edge2_Node000001_Node000003"><a xlink:title=" ">
<path fill="none" stroke="#8b1a1a" d="M127.97,-296.19C144.74,-302.8 164.17,-309.41 182.5,-313.13 469.59,-371.45 548.12,-335.68 841,-342.13 893.32,-343.28 907.31,-351.78 958.75,-342.13 967.19,-340.55 968.73,-338.18 976.75,-335.13 987.3,-331.12 998.71,-326.84 1009.38,-322.87"/>
<polygon fill="#8b1a1a" stroke="#8b1a1a" points="129.36,-292.98 118.78,-292.45 126.72,-299.46 129.36,-292.98"/>
</a>
</g>
</g>
<!-- Node4 -->
<g id="Node000004" class="node">
<title>Node4</title>
<g id="a_Node000004"><a xlink:href="classDGtal_1_1KhalimskySpaceND.html" target="_top" xlink:title=" ">
<polygon fill="white" stroke="#666666" points="1121,-180.38 985,-180.38 985,-149.88 1121,-149.88 1121,-180.38"/>
<text xml:space="preserve" text-anchor="start" x="993" y="-166.88" font-family="FreeSans" font-size="10.00">DGtal::KhalimskySpaceND</text>
<text xml:space="preserve" text-anchor="middle" x="1053" y="-155.63" font-family="FreeSans" font-size="10.00">&lt; dim, Integer &gt;</text>
</a>
</g>
</g>
<!-- Node1&#45;&gt;Node4 -->
<g id="edge3_Node000001_Node000004" class="edge">
<title>Node1&#45;&gt;Node4</title>
<g id="a_edge3_Node000001_Node000004"><a xlink:title=" ">
<path fill="none" stroke="#8b1a1a" d="M144.76,-257.23C272.78,-219 577.87,-133.62 841,-104.13 893.01,-98.3 908.6,-89.18 958.75,-104.13 988.41,-112.97 1017.42,-134.59 1035.01,-149.56"/>
<polygon fill="#8b1a1a" stroke="#8b1a1a" points="144.05,-253.79 135.48,-260.02 146.06,-260.5 144.05,-253.79"/>
</a>
</g>
</g>
<!-- Node5 -->
<g id="Node000005" class="node">
<title>Node5</title>
<g id="a_Node000005"><a xlink:href="classDGtal_1_1KhalimskySpaceNDHelper.html" target="_top" xlink:title=" ">
<polygon fill="white" stroke="#666666" points="486.5,-297.01 322,-297.01 322,-255.26 486.5,-255.26 486.5,-297.01"/>
<text xml:space="preserve" text-anchor="start" x="330" y="-283.51" font-family="FreeSans" font-size="10.00">DGtal::KhalimskySpaceNDHelper</text>
<text xml:space="preserve" text-anchor="start" x="330" y="-272.26" font-family="FreeSans" font-size="10.00">&lt; KhalimskySpaceND&lt; dim,</text>
<text xml:space="preserve" text-anchor="middle" x="404.25" y="-261.01" font-family="FreeSans" font-size="10.00"> TInteger &gt; &gt;</text>
</a>
</g>
</g>
<!-- Node1&#45;&gt;Node5 -->
<g id="edge4_Node000001_Node000005" class="edge">
<title>Node1&#45;&gt;Node5</title>
<g id="a_edge4_Node000001_Node000005"><a xlink:title=" ">
<path fill="none" stroke="orange" stroke-dasharray="5,2" d="M176.31,-276.13C222.27,-276.13 277.23,-276.13 321.54,-276.13"/>
<polygon fill="orange" stroke="orange" points="176.34,-272.63 166.34,-276.13 176.34,-279.63 176.34,-272.63"/>
</a>
</g>
<text xml:space="preserve" text-anchor="start" x="194.5" y="-296.13" font-family="FreeSans" font-size="10.00" fill="grey">&lt; KhalimskySpaceND</text>
<text xml:space="preserve" text-anchor="start" x="194.5" y="-280.88" font-family="FreeSans" font-size="10.00" fill="grey">  &lt; dim, TInteger &gt; &gt;</text>
</g>
<!-- Node9 -->
<g id="Node000009" class="node">
<title>Node9</title>
<g id="a_Node000009"><a xlink:href="classDGtal_1_1KhalimskySpaceNDHelper.html" target="_top" xlink:title=" ">
<polygon fill="white" stroke="#666666" points="669,-66.01 504.5,-66.01 504.5,-24.26 669,-24.26 669,-66.01"/>
<text xml:space="preserve" text-anchor="start" x="512.5" y="-52.51" font-family="FreeSans" font-size="10.00">DGtal::KhalimskySpaceNDHelper</text>
<text xml:space="preserve" text-anchor="start" x="512.5" y="-41.26" font-family="FreeSans" font-size="10.00">&lt; KhalimskySpaceND&lt; dim,</text>
<text xml:space="preserve" text-anchor="middle" x="586.75" y="-30.01" font-family="FreeSans" font-size="10.00"> DGtal::int32_t &gt; &gt;</text>
</a>
</g>
</g>
<!-- Node1&#45;&gt;Node9 -->
<g id="edge12_Node000001_Node000009" class="edge">
<title>Node1&#45;&gt;Node9</title>
<g id="a_edge12_Node000001_Node000009"><a xlink:title=" ">
<path fill="none" stroke="orange" stroke-dasharray="5,2" d="M85.47,-249.36C91.28,-198.84 111.79,-90.33 182.5,-43.63 283.71,23.21 432.62,-1.11 518.31,-23.81"/>
<polygon fill="orange" stroke="orange" points="82.01,-248.8 84.47,-259.1 88.98,-249.51 82.01,-248.8"/>
</a>
</g>
<text xml:space="preserve" text-anchor="start" x="185.5" y="-63.63" font-family="FreeSans" font-size="10.00" fill="grey">&lt; KhalimskySpaceND</text>
<text xml:space="preserve" text-anchor="start" x="185.5" y="-48.38" font-family="FreeSans" font-size="10.00" fill="grey">  &lt; dim, DGtal::int32_t &gt; &gt;</text>
</g>
<!-- Node6 -->
<g id="Node000006" class="node">
<title>Node6</title>
<g id="a_Node000006"><a xlink:href="classDGtal_1_1KhalimskySpaceND.html" target="_top" xlink:title=" ">
<polygon fill="white" stroke="#666666" points="1121,-247.38 985,-247.38 985,-216.88 1121,-216.88 1121,-247.38"/>
<text xml:space="preserve" text-anchor="start" x="993" y="-233.88" font-family="FreeSans" font-size="10.00">DGtal::KhalimskySpaceND</text>
<text xml:space="preserve" text-anchor="middle" x="1053" y="-222.63" font-family="FreeSans" font-size="10.00">&lt; dimAmbient, TInteger &gt;</text>
</a>
</g>
</g>
<!-- Node5&#45;&gt;Node6 -->
<g id="edge5_Node000005_Node000006" class="edge">
<title>Node5&#45;&gt;Node6</title>
<g id="a_edge5_Node000005_Node000006"><a xlink:title=" ">
<path fill="none" stroke="#8b1a1a" d="M497.88,-288.85C608.96,-301.24 800.03,-313.42 958.75,-277.13 983.46,-271.48 1009.24,-258.4 1027.41,-247.79"/>
<polygon fill="#8b1a1a" stroke="#8b1a1a" points="498.56,-285.4 488.22,-287.74 497.76,-292.36 498.56,-285.4"/>
</a>
</g>
</g>
<!-- Node7 -->
<g id="Node000007" class="node">
<title>Node7</title>
<g id="a_Node000007"><a xlink:href="classDGtal_1_1KhalimskySpaceND.html" target="_top" xlink:title="Aim: This class is a model of CCellularGridSpaceND. It represents the cubical grid as a cell complex,...">
<polygon fill="white" stroke="#666666" points="823,-248.38 687,-248.38 687,-217.88 823,-217.88 823,-248.38"/>
<text xml:space="preserve" text-anchor="start" x="695" y="-234.88" font-family="FreeSans" font-size="10.00">DGtal::KhalimskySpaceND</text>
<text xml:space="preserve" text-anchor="middle" x="755" y="-223.63" font-family="FreeSans" font-size="10.00">&lt; dim, TInteger &gt;</text>
</a>
</g>
</g>
<!-- Node5&#45;&gt;Node7 -->
<g id="edge6_Node000005_Node000007" class="edge">
<title>Node5&#45;&gt;Node7</title>
<g id="a_edge6_Node000005_Node000007"><a xlink:title=" ">
<path fill="none" stroke="#8b1a1a" d="M497.84,-264.71C557.21,-257.39 632.94,-248.06 686.62,-241.44"/>
<polygon fill="#8b1a1a" stroke="#8b1a1a" points="497.57,-261.22 488.08,-265.92 498.43,-268.17 497.57,-261.22"/>
</a>
</g>
</g>
<!-- Node7&#45;&gt;Node2 -->
<g id="edge8_Node000007_Node000002" class="edge">
<title>Node7&#45;&gt;Node2</title>
<g id="a_edge8_Node000007_Node000002"><a xlink:title=" ">
<path fill="none" stroke="orange" stroke-dasharray="5,2" d="M779.41,-256.69C795.49,-271.66 818.01,-290.37 841,-302.13 886.27,-325.29 941.96,-339.82 984.75,-348.41"/>
<polygon fill="orange" stroke="orange" points="781.92,-254.25 772.27,-249.87 777.08,-259.31 781.92,-254.25"/>
</a>
</g>
<text xml:space="preserve" text-anchor="start" x="870.25" y="-347.35" font-family="FreeSans" font-size="10.00" fill="grey">&lt; 2, Integer &gt;</text>
</g>
<!-- Node7&#45;&gt;Node3 -->
<g id="edge9_Node000007_Node000003" class="edge">
<title>Node7&#45;&gt;Node3</title>
<g id="a_edge9_Node000007_Node000003"><a xlink:title=" ">
<path fill="none" stroke="orange" stroke-dasharray="5,2" d="M829.94,-251.62C878.93,-263.86 942.5,-279.76 989.06,-291.4"/>
<polygon fill="orange" stroke="orange" points="830.79,-248.22 820.24,-249.19 829.09,-255.01 830.79,-248.22"/>
</a>
</g>
<text xml:space="preserve" text-anchor="start" x="870.25" y="-287.94" font-family="FreeSans" font-size="10.00" fill="grey">&lt; 3, Integer &gt;</text>
</g>
<!-- Node7&#45;&gt;Node4 -->
<g id="edge10_Node000007_Node000004" class="edge">
<title>Node7&#45;&gt;Node4</title>
<g id="a_edge10_Node000007_Node000004"><a xlink:title=" ">
<path fill="none" stroke="orange" stroke-dasharray="5,2" d="M796.5,-212.74C810.32,-206.5 826.06,-200.16 841,-195.88 887.98,-182.43 942.61,-174.67 984.51,-170.32"/>
<polygon fill="orange" stroke="orange" points="795.31,-209.43 787.72,-216.82 798.26,-215.78 795.31,-209.43"/>
</a>
</g>
<text xml:space="preserve" text-anchor="start" x="865" y="-200.63" font-family="FreeSans" font-size="10.00" fill="grey">&lt; dim, Integer &gt;</text>
</g>
<!-- Node7&#45;&gt;Node6 -->
<g id="edge7_Node000007_Node000006" class="edge">
<title>Node7&#45;&gt;Node6</title>
<g id="a_edge7_Node000007_Node000006"><a xlink:title=" ">
<path fill="none" stroke="orange" stroke-dasharray="5,2" d="M834.39,-220.46C836.62,-220.24 838.82,-220.05 841,-219.88 893.18,-215.84 906.53,-216.47 958.75,-219.88 967.14,-220.43 975.93,-221.25 984.62,-222.22"/>
<polygon fill="orange" stroke="orange" points="834.23,-216.95 824.67,-221.52 834.99,-223.91 834.23,-216.95"/>
</a>
</g>
<text xml:space="preserve" text-anchor="start" x="844" y="-224.63" font-family="FreeSans" font-size="10.00" fill="grey">&lt; dimAmbient, TInteger &gt;</text>
</g>
<!-- Node8 -->
<g id="Node000008" class="node">
<title>Node8</title>
<g id="a_Node000008"><a xlink:href="classDGtal_1_1KhalimskySpaceND.html" target="_top" xlink:title=" ">
<polygon fill="white" stroke="#666666" points="1129.25,-94.38 976.75,-94.38 976.75,-63.88 1129.25,-63.88 1129.25,-94.38"/>
<text xml:space="preserve" text-anchor="start" x="984.75" y="-80.88" font-family="FreeSans" font-size="10.00">DGtal::KhalimskySpaceND</text>
<text xml:space="preserve" text-anchor="middle" x="1053" y="-69.63" font-family="FreeSans" font-size="10.00">&lt; dimAmbient, DGtal::int32_t &gt;</text>
</a>
</g>
</g>
<!-- Node7&#45;&gt;Node8 -->
<g id="edge11_Node000007_Node000008" class="edge">
<title>Node7&#45;&gt;Node8</title>
<g id="a_edge11_Node000007_Node000008"><a xlink:title=" ">
<path fill="none" stroke="orange" stroke-dasharray="5,2" d="M772.06,-208.12C787.28,-186.39 812.08,-155.64 841,-137.63 881.98,-112.11 934.23,-97.51 976.48,-89.28"/>
<polygon fill="orange" stroke="orange" points="769.34,-205.9 766.61,-216.14 775.13,-209.84 769.34,-205.9"/>
</a>
</g>
<text xml:space="preserve" text-anchor="start" x="853.75" y="-157.63" font-family="FreeSans" font-size="10.00" fill="grey">&lt; dimAmbient, DGtal</text>
<text xml:space="preserve" text-anchor="start" x="853.75" y="-142.38" font-family="FreeSans" font-size="10.00" fill="grey">  ::int32_t &gt;</text>
</g>
<!-- Node9&#45;&gt;Node8 -->
<g id="edge13_Node000009_Node000008" class="edge">
<title>Node9&#45;&gt;Node8</title>
<g id="a_edge13_Node000009_Node000008"><a xlink:title=" ">
<path fill="none" stroke="#8b1a1a" d="M680.86,-51.95C767.78,-58.32 895.86,-67.7 976.56,-73.61"/>
<polygon fill="#8b1a1a" stroke="#8b1a1a" points="681.15,-48.46 670.92,-51.22 680.64,-55.44 681.15,-48.46"/>
</a>
</g>
</g>
</g>
</svg>

<g id="navigator" transform="translate(0 0)" fill="#404254">
  <rect fill="#f2f5e9" fill-opacity="0.5" stroke="#606060" stroke-width=".5" x="0" y="0" width="60" height="60"/>
  <use id="zoomplus" xlink:href="#zoomPlus" x="17" y="9" onmousedown="handleZoom(evt,'in')"/>
  <use id="zoomminus" xlink:href="#zoomMin" x="42" y="9" onmousedown="handleZoom(evt,'out')"/>
  <use id="reset" xlink:href="#resetDef" x="30" y="36" onmousedown="handleReset()"/>
   <use id="arrowup" xlink:href="#arrowUp" x="0" y="0" onmousedown="handlePan(0,-1)"/>
  <use id="arrowright" xlink:href="#arrowRight" x="0" y="0" onmousedown="handlePan(1,0)"/>
  <use id="arrowdown" xlink:href="#arrowDown" x="0" y="0" onmousedown="handlePan(0,1)"/>
  <use id="arrowleft" xlink:href="#arrowLeft" x="0" y="0" onmousedown="handlePan(-1,0)"/>
</g>
<svg viewBox="0 0 15 15" width="100%" height="30px" preserveAspectRatio="xMaxYMin meet">
 <g id="arrow_out" transform="scale(0.3 0.3)">
  <a xlink:href="classDGtal_1_1KhalimskySpaceNDHelper__inherit__graph_org.svg" target="_base">
   <rect id="button" ry="5" rx="5" y="6" x="6" height="38" width="38"
        fill="#f2f5e9" fill-opacity="0.5" stroke="#606060" stroke-width="1.0"/>
   <path id="arrow"
     d="M 11.500037,31.436501 C 11.940474,20.09759 22.043105,11.32322 32.158766,21.979434 L 37.068811,17.246167 C 37.068811,17.246167 37.088388,32 37.088388,32 L 22.160133,31.978069 C 22.160133,31.978069 26.997745,27.140456 26.997745,27.140456 C 18.528582,18.264221 13.291696,25.230495 11.500037,31.436501 z"
     style="fill:#404040;"/>
  </a>
 </g>
</svg>

<style type='text/css'>
<![CDATA[
[data-mouse-over-selected='false'] { opacity: 0.7; }
[data-mouse-over-selected='true']  { opacity: 1.0; }
]]>
</style>
<script type="application/ecmascript"><![CDATA[
document.addEventListener('DOMContentLoaded', (event) => {
  highlightEdges();
  highlightAdjacentNodes();
});
]]></script>
</svg>
