<?xml version="1.0" encoding="UTF-8" standalone="no"?>
<!DOCTYPE svg PUBLIC "-//W3C//DTD SVG 1.1//EN"
 "http://www.w3.org/Graphics/SVG/1.1/DTD/svg11.dtd">
<!-- Generated by graphviz version 13.0.1 (20250615.1724)
 -->
<!-- Title: DGtal::COBANaivePlaneComputer&lt; TSpace, TInternalInteger &gt; Pages: 1 -->
<svg width="502pt" height="88pt"
 viewBox="0.00 0.00 502.00 88.00" xmlns="http://www.w3.org/2000/svg" xmlns:xlink="http://www.w3.org/1999/xlink">
<g id="graph0" class="graph" transform="scale(1 1) rotate(0) translate(4 83.5)">
<title>DGtal::COBANaivePlaneComputer&lt; TSpace, TInternalInteger &gt;</title>
<!-- Node1 -->
<g id="Node000001" class="node">
<title>Node1</title>
<g id="a_Node000001"><a xlink:title="Aim: A class that contains the COBA algorithm (Emilie Charrier, Lilian Buzer, DGCI2008) for recognizi...">
<polygon fill="#999999" stroke="#666666" points="169,-54.5 0,-54.5 0,-24 169,-24 169,-54.5"/>
<text xml:space="preserve" text-anchor="start" x="8" y="-41" font-family="FreeSans" font-size="10.00">DGtal::COBANaivePlaneComputer</text>
<text xml:space="preserve" text-anchor="middle" x="84.5" y="-29.75" font-family="FreeSans" font-size="10.00">&lt; TSpace, TInternalInteger &gt;</text>
</a>
</g>
</g>
<!-- Node2 -->
<g id="Node000002" class="node">
<title>Node2</title>
<g id="a_Node000002"><a xlink:href="classDGtal_1_1COBANaivePlaneComputer.html" target="_top" xlink:title=" ">
<polygon fill="white" stroke="#666666" points="494,-79.5 325,-79.5 325,-49 494,-49 494,-79.5"/>
<text xml:space="preserve" text-anchor="start" x="333" y="-66" font-family="FreeSans" font-size="10.00">DGtal::COBANaivePlaneComputer</text>
<text xml:space="preserve" text-anchor="middle" x="409.5" y="-54.75" font-family="FreeSans" font-size="10.00">&lt; Space, InternalInteger &gt;</text>
</a>
</g>
</g>
<!-- Node1&#45;&gt;Node2 -->
<g id="edge1_Node000001_Node000002" class="edge">
<title>Node1&#45;&gt;Node2</title>
<g id="a_edge1_Node000001_Node000002"><a xlink:title=" ">
<path fill="none" stroke="orange" stroke-dasharray="5,2" d="M180.52,-46.6C226.23,-50.14 280.54,-54.35 324.69,-57.76"/>
<polygon fill="orange" stroke="orange" points="180.85,-43.12 170.61,-45.84 180.31,-50.1 180.85,-43.12"/>
</a>
</g>
<text xml:space="preserve" text-anchor="start" x="190" y="-60.91" font-family="FreeSans" font-size="10.00" fill="grey">&lt; Space, InternalInteger &gt;</text>
</g>
<!-- Node3 -->
<g id="Node000003" class="node">
<title>Node3</title>
<g id="a_Node000003"><a xlink:href="classDGtal_1_1COBANaivePlaneComputer.html" target="_top" xlink:title=" ">
<polygon fill="white" stroke="#666666" points="494,-30.5 325,-30.5 325,0 494,0 494,-30.5"/>
<text xml:space="preserve" text-anchor="start" x="333" y="-17" font-family="FreeSans" font-size="10.00">DGtal::COBANaivePlaneComputer</text>
<text xml:space="preserve" text-anchor="middle" x="409.5" y="-5.75" font-family="FreeSans" font-size="10.00">&lt; Z3, InternalInteger &gt;</text>
</a>
</g>
</g>
<!-- Node1&#45;&gt;Node3 -->
<g id="edge2_Node000001_Node000003" class="edge">
<title>Node1&#45;&gt;Node3</title>
<g id="a_edge2_Node000001_Node000003"><a xlink:title=" ">
<path fill="none" stroke="orange" stroke-dasharray="5,2" d="M180.73,-25.61C182.84,-25.39 184.93,-25.19 187,-25 232.42,-20.82 283.25,-18.42 324.75,-17.05"/>
<polygon fill="orange" stroke="orange" points="180.41,-22.12 170.84,-26.68 181.16,-29.08 180.41,-22.12"/>
</a>
</g>
<text xml:space="preserve" text-anchor="start" x="198.25" y="-29.75" font-family="FreeSans" font-size="10.00" fill="grey">&lt; Z3, InternalInteger &gt;</text>
</g>
</g>
</svg>
