<?xml version="1.0" encoding="UTF-8" standalone="no"?>
<!DOCTYPE svg PUBLIC "-//W3C//DTD SVG 1.1//EN"
 "http://www.w3.org/Graphics/SVG/1.1/DTD/svg11.dtd">
<!-- Generated by graphviz version 13.1.2 (20250808.2320)
 -->
<!-- Title: DGtal::IteratorCompletionTraits&lt; TDerived &gt; Pages: 1 -->
<svg width="462pt" height="334pt"
 viewBox="0.00 0.00 462.00 334.00" xmlns="http://www.w3.org/2000/svg" xmlns:xlink="http://www.w3.org/1999/xlink">
<g id="graph0" class="graph" transform="scale(1 1) rotate(0) translate(4 330.02)">
<title>DGtal::IteratorCompletionTraits&lt; TDerived &gt;</title>
<!-- Node1 -->
<g id="Node000001" class="node">
<title>Node1</title>
<g id="a_Node000001"><a xlink:title="Aim: Traits that must be specialized for each IteratorCompletion derived class.">
<polygon fill="#999999" stroke="#666666" points="127.75,-181.5 0,-181.5 0,-151 127.75,-151 127.75,-181.5"/>
<text xml:space="preserve" text-anchor="start" x="8" y="-168" font-family="FreeSans" font-size="10.00">DGtal::IteratorCompletion</text>
<text xml:space="preserve" text-anchor="middle" x="63.88" y="-156.75" font-family="FreeSans" font-size="10.00">Traits&lt; TDerived &gt;</text>
</a>
</g>
</g>
<!-- Node2 -->
<g id="Node000002" class="node">
<title>Node2</title>
<g id="a_Node000002"><a xlink:href="classDGtal_1_1IteratorCompletionTraits.html" target="_top" xlink:title=" ">
<polygon fill="white" stroke="#666666" points="448.62,-310.88 312.62,-310.88 312.62,-291.62 448.62,-291.62 448.62,-310.88"/>
<text xml:space="preserve" text-anchor="middle" x="380.62" y="-297.38" font-family="FreeSans" font-size="10.00">DGtal::Iterator&lt; TDerived &gt;</text>
</a>
</g>
</g>
<!-- Node1&#45;&gt;Node2 -->
<g id="edge1_Node000001_Node000002" class="edge">
<title>Node1&#45;&gt;Node2</title>
<g id="a_edge1_Node000001_Node000002"><a xlink:title=" ">
<path fill="none" stroke="orange" stroke-dasharray="5,2" d="M75.86,-192.01C88.55,-218.3 112.11,-257.91 145.75,-277.25 196.18,-306.24 262.93,-310.39 312.21,-308.37"/>
<polygon fill="orange" stroke="orange" points="79.08,-190.64 71.72,-183.03 72.73,-193.57 79.08,-190.64"/>
</a>
</g>
<text xml:space="preserve" text-anchor="start" x="170.12" y="-313.52" font-family="FreeSans" font-size="10.00" fill="grey">&lt; TDerived &gt;::Iterator</text>
</g>
<!-- Node3 -->
<g id="Node000003" class="node">
<title>Node3</title>
<g id="a_Node000003"><a xlink:href="classDGtal_1_1IteratorCompletionTraits.html" target="_top" xlink:title=" ">
<polygon fill="white" stroke="#666666" points="432.88,-273.5 328.38,-273.5 328.38,-243 432.88,-243 432.88,-273.5"/>
<text xml:space="preserve" text-anchor="start" x="336.38" y="-260" font-family="FreeSans" font-size="10.00">DGtal::ConstIterator</text>
<text xml:space="preserve" text-anchor="middle" x="380.62" y="-248.75" font-family="FreeSans" font-size="10.00">&lt; TDerived &gt;</text>
</a>
</g>
</g>
<!-- Node1&#45;&gt;Node3 -->
<g id="edge2_Node000001_Node000003" class="edge">
<title>Node1&#45;&gt;Node3</title>
<g id="a_edge2_Node000001_Node000003"><a xlink:title=" ">
<path fill="none" stroke="orange" stroke-dasharray="5,2" d="M89.72,-189.37C104.8,-202.06 125.08,-216.87 145.75,-225.25 205.22,-249.36 279.38,-256.33 328.05,-258.1"/>
<polygon fill="orange" stroke="orange" points="92.03,-186.74 82.19,-182.82 87.44,-192.03 92.03,-186.74"/>
</a>
</g>
<text xml:space="preserve" text-anchor="start" x="157" y="-260.4" font-family="FreeSans" font-size="10.00" fill="grey">&lt; TDerived &gt;::ConstIterator</text>
</g>
<!-- Node4 -->
<g id="Node000004" class="node">
<title>Node4</title>
<g id="a_Node000004"><a xlink:href="classDGtal_1_1IteratorCompletionTraits.html" target="_top" xlink:title=" ">
<polygon fill="white" stroke="#666666" points="440.38,-224.5 320.88,-224.5 320.88,-194 440.38,-194 440.38,-224.5"/>
<text xml:space="preserve" text-anchor="start" x="328.88" y="-211" font-family="FreeSans" font-size="10.00">DGtal::DistanceFunctor</text>
<text xml:space="preserve" text-anchor="middle" x="380.62" y="-199.75" font-family="FreeSans" font-size="10.00">&lt; TDerived &gt;</text>
</a>
</g>
</g>
<!-- Node1&#45;&gt;Node4 -->
<g id="edge3_Node000001_Node000004" class="edge">
<title>Node1&#45;&gt;Node4</title>
<g id="a_edge3_Node000001_Node000004"><a xlink:title=" ">
<path fill="none" stroke="orange" stroke-dasharray="5,2" d="M131.75,-184.5C136.47,-185.51 141.17,-186.45 145.75,-187.25 204.8,-197.62 273.15,-203.34 320.65,-206.32"/>
<polygon fill="orange" stroke="orange" points="132.75,-181.13 122.22,-182.33 131.2,-187.96 132.75,-181.13"/>
</a>
</g>
<text xml:space="preserve" text-anchor="start" x="149.5" y="-208.51" font-family="FreeSans" font-size="10.00" fill="grey">&lt; TDerived &gt;::DistanceFunctor</text>
</g>
<!-- Node5 -->
<g id="Node000005" class="node">
<title>Node5</title>
<g id="a_Node000005"><a xlink:href="classDGtal_1_1IteratorCompletionTraits.html" target="_top" xlink:title=" ">
<polygon fill="white" stroke="#666666" points="437.38,-175.88 323.88,-175.88 323.88,-156.62 437.38,-156.62 437.38,-175.88"/>
<text xml:space="preserve" text-anchor="middle" x="380.62" y="-162.38" font-family="FreeSans" font-size="10.00">DGtal::Iterator&lt; Self &gt;</text>
</a>
</g>
</g>
<!-- Node1&#45;&gt;Node5 -->
<g id="edge4_Node000001_Node000005" class="edge">
<title>Node1&#45;&gt;Node5</title>
<g id="a_edge4_Node000001_Node000005"><a xlink:title=" ">
<path fill="none" stroke="orange" stroke-dasharray="5,2" d="M139.56,-166.25C195.99,-166.25 272.24,-166.25 323.53,-166.25"/>
<polygon fill="orange" stroke="orange" points="139.7,-162.75 129.7,-166.25 139.7,-169.75 139.7,-162.75"/>
</a>
</g>
<text xml:space="preserve" text-anchor="start" x="181.38" y="-171" font-family="FreeSans" font-size="10.00" fill="grey">&lt; Self &gt;::Iterator</text>
</g>
<!-- Node6 -->
<g id="Node000006" class="node">
<title>Node6</title>
<g id="a_Node000006"><a xlink:href="classDGtal_1_1IteratorCompletionTraits.html" target="_top" xlink:title=" ">
<polygon fill="white" stroke="#666666" points="432.88,-138.5 328.38,-138.5 328.38,-108 432.88,-108 432.88,-138.5"/>
<text xml:space="preserve" text-anchor="start" x="336.38" y="-125" font-family="FreeSans" font-size="10.00">DGtal::ConstIterator</text>
<text xml:space="preserve" text-anchor="middle" x="380.62" y="-113.75" font-family="FreeSans" font-size="10.00">&lt; Self &gt;</text>
</a>
</g>
</g>
<!-- Node1&#45;&gt;Node6 -->
<g id="edge5_Node000001_Node000006" class="edge">
<title>Node1&#45;&gt;Node6</title>
<g id="a_edge5_Node000001_Node000006"><a xlink:title=" ">
<path fill="none" stroke="orange" stroke-dasharray="5,2" d="M130.84,-147.97C135.86,-146.87 140.87,-145.86 145.75,-145 207.99,-134.01 280.6,-128.35 328.2,-125.6"/>
<polygon fill="orange" stroke="orange" points="130.29,-144.51 121.33,-150.17 131.86,-151.33 130.29,-144.51"/>
</a>
</g>
<text xml:space="preserve" text-anchor="start" x="168.25" y="-149.75" font-family="FreeSans" font-size="10.00" fill="grey">&lt; Self &gt;::ConstIterator</text>
</g>
<!-- Node7 -->
<g id="Node000007" class="node">
<title>Node7</title>
<g id="a_Node000007"><a xlink:href="classDGtal_1_1IteratorCompletionTraits_3_01ArrayImageAdapter_3_01TArrayIterator_00_01TDomain_01_4_01_4.html" target="_top" xlink:title="[IteratorCompletionTraits]">
<polygon fill="white" stroke="#666666" points="454.25,-90.12 307,-90.12 307,-48.38 454.25,-48.38 454.25,-90.12"/>
<text xml:space="preserve" text-anchor="start" x="315" y="-76.62" font-family="FreeSans" font-size="10.00">DGtal::IteratorCompletion</text>
<text xml:space="preserve" text-anchor="start" x="315" y="-65.38" font-family="FreeSans" font-size="10.00">Traits&lt; ArrayImageAdapter</text>
<text xml:space="preserve" text-anchor="middle" x="380.62" y="-54.12" font-family="FreeSans" font-size="10.00">&lt; TArrayIterator, TDomain &gt; &gt;</text>
</a>
</g>
</g>
<!-- Node1&#45;&gt;Node7 -->
<g id="edge6_Node000001_Node000007" class="edge">
<title>Node1&#45;&gt;Node7</title>
<g id="a_edge6_Node000001_Node000007"><a xlink:title=" ">
<path fill="none" stroke="orange" stroke-dasharray="5,2" d="M83.65,-142.05C98.49,-124.85 120.81,-102.89 145.75,-91.75 196.31,-69.16 259.01,-64.2 306.76,-64.53"/>
<polygon fill="orange" stroke="orange" points="81.27,-139.44 77.56,-149.37 86.65,-143.92 81.27,-139.44"/>
</a>
</g>
<text xml:space="preserve" text-anchor="start" x="148.75" y="-111.75" font-family="FreeSans" font-size="10.00" fill="grey">&lt; ArrayImageAdapter</text>
<text xml:space="preserve" text-anchor="start" x="148.75" y="-96.5" font-family="FreeSans" font-size="10.00" fill="grey">  &lt; TArrayIterator, TDomain &gt; &gt;</text>
</g>
<!-- Node8 -->
<g id="Node000008" class="node">
<title>Node8</title>
<g id="a_Node000008"><a xlink:href="classDGtal_1_1IteratorCompletionTraits_3_01MyImage_3_01T_00_01N_01_4_01_4.html" target="_top" xlink:title=" ">
<polygon fill="white" stroke="#666666" points="448.25,-30.5 313,-30.5 313,0 448.25,0 448.25,-30.5"/>
<text xml:space="preserve" text-anchor="start" x="321" y="-17" font-family="FreeSans" font-size="10.00">DGtal::IteratorCompletion</text>
<text xml:space="preserve" text-anchor="middle" x="380.62" y="-5.75" font-family="FreeSans" font-size="10.00">Traits&lt; MyImage&lt; T, N &gt; &gt;</text>
</a>
</g>
</g>
<!-- Node1&#45;&gt;Node8 -->
<g id="edge7_Node000001_Node000008" class="edge">
<title>Node1&#45;&gt;Node8</title>
<g id="a_edge7_Node000001_Node000008"><a xlink:title=" ">
<path fill="none" stroke="orange" stroke-dasharray="5,2" d="M74.26,-139.99C86.1,-111 109.44,-65.47 145.75,-43 195.65,-12.13 263.09,-7.15 312.73,-8.73"/>
<polygon fill="orange" stroke="orange" points="71.05,-138.57 70.69,-149.16 77.58,-141.11 71.05,-138.57"/>
</a>
</g>
<text xml:space="preserve" text-anchor="start" x="170.12" y="-47.75" font-family="FreeSans" font-size="10.00" fill="grey">&lt; MyImage&lt; T, N &gt; &gt;</text>
</g>
</g>
</svg>
