<?xml version="1.0" encoding="UTF-8" standalone="no"?>
<!DOCTYPE svg PUBLIC "-//W3C//DTD SVG 1.1//EN"
 "http://www.w3.org/Graphics/SVG/1.1/DTD/svg11.dtd">
<!-- Generated by graphviz version 13.0.1 (20250615.1724)
 -->
<!-- Title: DGtal::LatticePolytope2D&lt; TSpace, TSequence &gt; Pages: 1 -->
<svg width="398pt" height="122pt"
 viewBox="0.00 0.00 398.00 122.00" xmlns="http://www.w3.org/2000/svg" xmlns:xlink="http://www.w3.org/1999/xlink">
<g id="graph0" class="graph" transform="scale(1 1) rotate(0) translate(4 118.25)">
<title>DGtal::LatticePolytope2D&lt; TSpace, TSequence &gt;</title>
<!-- Node1 -->
<g id="Node000001" class="node">
<title>Node1</title>
<g id="a_Node000001"><a xlink:title="Aim: Represents a 2D polytope, i.e. a convex polygon, in the two&#45;dimensional digital plane....">
<polygon fill="#999999" stroke="#666666" points="127.75,-114.25 0,-114.25 0,-83.75 127.75,-83.75 127.75,-114.25"/>
<text xml:space="preserve" text-anchor="start" x="8" y="-100.75" font-family="FreeSans" font-size="10.00">DGtal::LatticePolytope2D</text>
<text xml:space="preserve" text-anchor="middle" x="63.88" y="-89.5" font-family="FreeSans" font-size="10.00">&lt; TSpace, TSequence &gt;</text>
</a>
</g>
</g>
<!-- Node1&#45;&gt;Node1 -->
<g id="edge1_Node000001_Node000001" class="edge">
<title>Node1&#45;&gt;Node1</title>
<g id="a_edge1_Node000001_Node000001"><a xlink:title=" ">
<path fill="none" stroke="orange" stroke-dasharray="5,2" d="M139.29,-101.61C143.34,-100.97 145.75,-100.1 145.75,-99 145.75,-97.1 138.55,-95.89 128.06,-95.37"/>
<polygon fill="orange" stroke="orange" points="139.21,-98.1 129.57,-102.49 139.85,-105.07 139.21,-98.1"/>
</a>
</g>
<text xml:space="preserve" text-anchor="start" x="148.75" y="-95.12" font-family="FreeSans" font-size="10.00" fill="grey">&lt; TSpace, TSequence &gt;</text>
</g>
<!-- Node1&#45;&gt;Node1 -->
<g id="edge2_Node000001_Node000001" class="edge">
<title>Node1&#45;&gt;Node1</title>
<g id="a_edge2_Node000001_Node000001"><a xlink:title=" ">
<path fill="none" stroke="orange" stroke-dasharray="5,2" d="M139.54,-106.34C195.25,-108.02 259,-105.57 259,-99 259,-91.98 186.16,-89.67 128.16,-92.07"/>
<polygon fill="orange" stroke="orange" points="139.79,-102.85 129.67,-105.99 139.54,-109.84 139.79,-102.85"/>
</a>
</g>
<text xml:space="preserve" text-anchor="start" x="262" y="-95.12" font-family="FreeSans" font-size="10.00" fill="grey">&lt; TSpace, TSequence &gt;</text>
</g>
<!-- Node2 -->
<g id="Node000002" class="node">
<title>Node2</title>
<g id="a_Node000002"><a xlink:href="classDGtal_1_1LatticePolytope2D.html" target="_top" xlink:title=" ">
<polygon fill="white" stroke="#666666" points="127.75,-30.5 0,-30.5 0,0 127.75,0 127.75,-30.5"/>
<text xml:space="preserve" text-anchor="start" x="8" y="-17" font-family="FreeSans" font-size="10.00">DGtal::LatticePolytope2D</text>
<text xml:space="preserve" text-anchor="middle" x="63.88" y="-5.75" font-family="FreeSans" font-size="10.00">&lt; InternalSpace2 &gt;</text>
</a>
</g>
</g>
<!-- Node1&#45;&gt;Node2 -->
<g id="edge3_Node000001_Node000002" class="edge">
<title>Node1&#45;&gt;Node2</title>
<g id="a_edge3_Node000001_Node000002"><a xlink:title=" ">
<path fill="none" stroke="orange" stroke-dasharray="5,2" d="M63.88,-72.22C63.88,-58.53 63.88,-42.21 63.88,-30.74"/>
<polygon fill="orange" stroke="orange" points="60.38,-71.87 63.88,-81.87 67.38,-71.87 60.38,-71.87"/>
</a>
</g>
<text xml:space="preserve" text-anchor="start" x="66.88" y="-53.25" font-family="FreeSans" font-size="10.00" fill="grey">&lt; InternalSpace2 &gt;</text>
</g>
</g>
</svg>
