<?xml version="1.0" encoding="UTF-8" standalone="no"?>
<!DOCTYPE svg PUBLIC "-//W3C//DTD SVG 1.1//EN"
 "http://www.w3.org/Graphics/SVG/1.1/DTD/svg11.dtd">
<!-- Generated by graphviz version 13.0.1 (20250615.1724)
 -->
<!-- Title: DGtal::SpaceND&lt; dim, TInteger &gt; Pages: 1 -->
<svg width="444pt" height="808pt"
 viewBox="0.00 0.00 444.00 808.00" xmlns="http://www.w3.org/2000/svg" xmlns:xlink="http://www.w3.org/1999/xlink">
<g id="graph0" class="graph" transform="scale(1 1) rotate(0) translate(4 804.31)">
<title>DGtal::SpaceND&lt; dim, TInteger &gt;</title>
<!-- Node1 -->
<g id="Node000001" class="node">
<title>Node1</title>
<g id="a_Node000001"><a xlink:title=" ">
<polygon fill="#999999" stroke="#666666" points="118,-429.6 0,-429.6 0,-399.1 118,-399.1 118,-429.6"/>
<text xml:space="preserve" text-anchor="start" x="8" y="-416.1" font-family="FreeSans" font-size="10.00">DGtal::SpaceND&lt; dim,</text>
<text xml:space="preserve" text-anchor="middle" x="59" y="-404.85" font-family="FreeSans" font-size="10.00"> TInteger &gt;</text>
</a>
</g>
</g>
<!-- Node2 -->
<g id="Node000002" class="node">
<title>Node2</title>
<g id="a_Node000002"><a xlink:href="classDGtal_1_1SpaceND.html" target="_top" xlink:title=" ">
<polygon fill="white" stroke="#666666" points="419.75,-779.98 290.5,-779.98 290.5,-760.73 419.75,-760.73 419.75,-779.98"/>
<text xml:space="preserve" text-anchor="middle" x="355.12" y="-766.48" font-family="FreeSans" font-size="10.00">DGtal::Point&lt; 2, Integer &gt;</text>
</a>
</g>
</g>
<!-- Node1&#45;&gt;Node2 -->
<g id="edge1_Node000001_Node000002" class="edge">
<title>Node1&#45;&gt;Node2</title>
<g id="a_edge1_Node000001_Node000002"><a xlink:title=" ">
<path fill="none" stroke="orange" stroke-dasharray="5,2" d="M62.22,-441.2C68.71,-512.78 90.19,-705.55 136,-746.35 180.09,-785.63 250.76,-786.14 299.65,-780.44"/>
<polygon fill="orange" stroke="orange" points="65.73,-441.21 61.37,-431.55 58.76,-441.82 65.73,-441.21"/>
</a>
</g>
<text xml:space="preserve" text-anchor="start" x="152.12" y="-787.81" font-family="FreeSans" font-size="10.00" fill="grey">&lt; 2, Integer &gt;::Point</text>
</g>
<!-- Node3 -->
<g id="Node000003" class="node">
<title>Node3</title>
<g id="a_Node000003"><a xlink:href="classDGtal_1_1SpaceND.html" target="_top" xlink:title=" ">
<polygon fill="white" stroke="#666666" points="422.75,-739.98 287.5,-739.98 287.5,-720.73 422.75,-720.73 422.75,-739.98"/>
<text xml:space="preserve" text-anchor="middle" x="355.12" y="-726.48" font-family="FreeSans" font-size="10.00">DGtal::Vector&lt; 2, Integer &gt;</text>
</a>
</g>
</g>
<!-- Node1&#45;&gt;Node3 -->
<g id="edge2_Node000001_Node000003" class="edge">
<title>Node1&#45;&gt;Node3</title>
<g id="a_edge2_Node000001_Node000003"><a xlink:title=" ">
<path fill="none" stroke="orange" stroke-dasharray="5,2" d="M63.04,-441.16C71.08,-506.9 95.12,-673.28 136,-708.35 147.37,-718.11 227.32,-724.19 287.15,-727.42"/>
<polygon fill="orange" stroke="orange" points="66.52,-440.79 61.87,-431.27 59.57,-441.62 66.52,-440.79"/>
</a>
</g>
<text xml:space="preserve" text-anchor="start" x="149.12" y="-730.05" font-family="FreeSans" font-size="10.00" fill="grey">&lt; 2, Integer &gt;::Vector</text>
</g>
<!-- Node4 -->
<g id="Node000004" class="node">
<title>Node4</title>
<g id="a_Node000004"><a xlink:href="classDGtal_1_1SpaceND.html" target="_top" xlink:title=" ">
<polygon fill="white" stroke="#666666" points="419.75,-699.98 290.5,-699.98 290.5,-680.73 419.75,-680.73 419.75,-699.98"/>
<text xml:space="preserve" text-anchor="middle" x="355.12" y="-686.48" font-family="FreeSans" font-size="10.00">DGtal::Point&lt; 3, Integer &gt;</text>
</a>
</g>
</g>
<!-- Node1&#45;&gt;Node4 -->
<g id="edge3_Node000001_Node000004" class="edge">
<title>Node1&#45;&gt;Node4</title>
<g id="a_edge3_Node000001_Node000004"><a xlink:title=" ">
<path fill="none" stroke="orange" stroke-dasharray="5,2" d="M59.16,-441.36C59.14,-494.07 67.35,-610.46 136,-667.35 158.8,-686.25 234.38,-690.67 290.21,-691.24"/>
<polygon fill="orange" stroke="orange" points="62.66,-441.53 59.28,-431.49 55.66,-441.44 62.66,-441.53"/>
</a>
</g>
<text xml:space="preserve" text-anchor="start" x="152.12" y="-695.03" font-family="FreeSans" font-size="10.00" fill="grey">&lt; 3, Integer &gt;::Point</text>
</g>
<!-- Node5 -->
<g id="Node000005" class="node">
<title>Node5</title>
<g id="a_Node000005"><a xlink:href="classDGtal_1_1SpaceND.html" target="_top" xlink:title=" ">
<polygon fill="white" stroke="#666666" points="422.75,-662.98 287.5,-662.98 287.5,-643.73 422.75,-643.73 422.75,-662.98"/>
<text xml:space="preserve" text-anchor="middle" x="355.12" y="-649.48" font-family="FreeSans" font-size="10.00">DGtal::Vector&lt; 3, Integer &gt;</text>
</a>
</g>
</g>
<!-- Node1&#45;&gt;Node5 -->
<g id="edge4_Node000001_Node000005" class="edge">
<title>Node1&#45;&gt;Node5</title>
<g id="a_edge4_Node000001_Node000005"><a xlink:title=" ">
<path fill="none" stroke="orange" stroke-dasharray="5,2" d="M60.92,-441.35C64.09,-487.74 77.77,-582.05 136,-628.35 147.73,-637.68 227.35,-644.98 287.03,-649.23"/>
<polygon fill="orange" stroke="orange" points="64.42,-441.17 60.37,-431.38 57.43,-441.56 64.42,-441.17"/>
</a>
</g>
<text xml:space="preserve" text-anchor="start" x="149.12" y="-651.3" font-family="FreeSans" font-size="10.00" fill="grey">&lt; 3, Integer &gt;::Vector</text>
</g>
<!-- Node6 -->
<g id="Node000006" class="node">
<title>Node6</title>
<g id="a_Node000006"><a xlink:href="classDGtal_1_1SpaceND.html" target="_top" xlink:title=" ">
<polygon fill="white" stroke="#666666" points="408.88,-625.6 301.38,-625.6 301.38,-595.1 408.88,-595.1 408.88,-625.6"/>
<text xml:space="preserve" text-anchor="start" x="309.38" y="-612.1" font-family="FreeSans" font-size="10.00">DGtal::SpaceND&lt; 2,</text>
<text xml:space="preserve" text-anchor="middle" x="355.12" y="-600.85" font-family="FreeSans" font-size="10.00"> TCoordinate &gt;</text>
</a>
</g>
</g>
<!-- Node1&#45;&gt;Node6 -->
<g id="edge5_Node000001_Node000006" class="edge">
<title>Node1&#45;&gt;Node6</title>
<g id="a_edge5_Node000001_Node000006"><a xlink:title=" ">
<path fill="none" stroke="orange" stroke-dasharray="5,2" d="M63.8,-441.09C70.76,-479.38 89.4,-548.97 136,-583.35 161.37,-602.07 244.88,-607.88 300.89,-609.64"/>
<polygon fill="orange" stroke="orange" points="67.27,-440.63 62.17,-431.34 60.36,-441.78 67.27,-440.63"/>
</a>
</g>
<text xml:space="preserve" text-anchor="start" x="154.75" y="-612.09" font-family="FreeSans" font-size="10.00" fill="grey">&lt; 2, TCoordinate &gt;</text>
</g>
<!-- Node7 -->
<g id="Node000007" class="node">
<title>Node7</title>
<g id="a_Node000007"><a xlink:href="classDGtal_1_1SpaceND.html" target="_top" xlink:title=" ">
<polygon fill="white" stroke="#666666" points="408.88,-576.6 301.38,-576.6 301.38,-546.1 408.88,-546.1 408.88,-576.6"/>
<text xml:space="preserve" text-anchor="start" x="309.38" y="-563.1" font-family="FreeSans" font-size="10.00">DGtal::SpaceND&lt; 2,</text>
<text xml:space="preserve" text-anchor="middle" x="355.12" y="-551.85" font-family="FreeSans" font-size="10.00"> InternalInteger &gt;</text>
</a>
</g>
</g>
<!-- Node1&#45;&gt;Node7 -->
<g id="edge6_Node000001_Node000007" class="edge">
<title>Node1&#45;&gt;Node7</title>
<g id="a_edge6_Node000001_Node000007"><a xlink:title=" ">
<path fill="none" stroke="orange" stroke-dasharray="5,2" d="M70.25,-440.36C82.02,-466.55 103.91,-505.93 136,-526.35 185.66,-557.97 254.19,-564.25 301.11,-564.22"/>
<polygon fill="orange" stroke="orange" points="73.58,-439.24 66.43,-431.43 67.15,-442 73.58,-439.24"/>
</a>
</g>
<text xml:space="preserve" text-anchor="start" x="150.25" y="-566.79" font-family="FreeSans" font-size="10.00" fill="grey">&lt; 2, InternalInteger &gt;</text>
</g>
<!-- Node8 -->
<g id="Node000008" class="node">
<title>Node8</title>
<g id="a_Node000008"><a xlink:href="classDGtal_1_1SpaceND.html" target="_top" xlink:title=" ">
<polygon fill="white" stroke="#666666" points="410,-527.6 300.25,-527.6 300.25,-497.1 410,-497.1 410,-527.6"/>
<text xml:space="preserve" text-anchor="start" x="308.25" y="-514.1" font-family="FreeSans" font-size="10.00">DGtal::SpaceND&lt; N,</text>
<text xml:space="preserve" text-anchor="middle" x="355.12" y="-502.85" font-family="FreeSans" font-size="10.00"> Integer &gt;</text>
</a>
</g>
</g>
<!-- Node1&#45;&gt;Node8 -->
<g id="edge7_Node000001_Node000008" class="edge">
<title>Node1&#45;&gt;Node8</title>
<g id="a_edge7_Node000001_Node000008"><a xlink:title=" ">
<path fill="none" stroke="orange" stroke-dasharray="5,2" d="M83.15,-437.66C97.25,-450.49 116.3,-465.55 136,-474.35 188.64,-497.89 254.48,-506.89 299.98,-510.31"/>
<polygon fill="orange" stroke="orange" points="85.83,-435.38 76.15,-431.07 81.03,-440.48 85.83,-435.38"/>
</a>
</g>
<text xml:space="preserve" text-anchor="start" x="165.25" y="-509.83" font-family="FreeSans" font-size="10.00" fill="grey">&lt; N, Integer &gt;</text>
</g>
<!-- Node9 -->
<g id="Node000009" class="node">
<title>Node9</title>
<g id="a_Node000009"><a xlink:href="classDGtal_1_1SpaceND.html" target="_top" xlink:title=" ">
<polygon fill="white" stroke="#666666" points="408.88,-478.6 301.38,-478.6 301.38,-448.1 408.88,-448.1 408.88,-478.6"/>
<text xml:space="preserve" text-anchor="start" x="309.38" y="-465.1" font-family="FreeSans" font-size="10.00">DGtal::SpaceND&lt; 3,</text>
<text xml:space="preserve" text-anchor="middle" x="355.12" y="-453.85" font-family="FreeSans" font-size="10.00"> Integer &gt;</text>
</a>
</g>
</g>
<!-- Node1&#45;&gt;Node9 -->
<g id="edge8_Node000001_Node000009" class="edge">
<title>Node1&#45;&gt;Node9</title>
<g id="a_edge8_Node000001_Node000009"><a xlink:title=" ">
<path fill="none" stroke="orange" stroke-dasharray="5,2" d="M123.8,-432.69C127.92,-433.65 132.01,-434.55 136,-435.35 191.77,-446.58 256.51,-454.22 300.89,-458.65"/>
<polygon fill="orange" stroke="orange" points="124.94,-429.36 114.39,-430.37 123.26,-436.16 124.94,-429.36"/>
</a>
</g>
<text xml:space="preserve" text-anchor="start" x="166.38" y="-458.29" font-family="FreeSans" font-size="10.00" fill="grey">&lt; 3, Integer &gt;</text>
</g>
<!-- Node10 -->
<g id="Node000010" class="node">
<title>Node10</title>
<g id="a_Node000010"><a xlink:href="classDGtal_1_1SpaceND.html" target="_top" xlink:title=" ">
<polygon fill="white" stroke="#666666" points="414.12,-429.6 296.12,-429.6 296.12,-399.1 414.12,-399.1 414.12,-429.6"/>
<text xml:space="preserve" text-anchor="start" x="304.12" y="-416.1" font-family="FreeSans" font-size="10.00">DGtal::SpaceND&lt; dim,</text>
<text xml:space="preserve" text-anchor="middle" x="355.12" y="-404.85" font-family="FreeSans" font-size="10.00"> Integer &gt;</text>
</a>
</g>
</g>
<!-- Node1&#45;&gt;Node10 -->
<g id="edge9_Node000001_Node000010" class="edge">
<title>Node1&#45;&gt;Node10</title>
<g id="a_edge9_Node000001_Node000010"><a xlink:title=" ">
<path fill="none" stroke="orange" stroke-dasharray="5,2" d="M129.96,-414.35C180.54,-414.35 248.09,-414.35 295.77,-414.35"/>
<polygon fill="orange" stroke="orange" points="129.97,-410.85 119.97,-414.35 129.97,-417.85 129.97,-410.85"/>
</a>
</g>
<text xml:space="preserve" text-anchor="start" x="161.12" y="-419.1" font-family="FreeSans" font-size="10.00" fill="grey">&lt; dim, Integer &gt;</text>
</g>
<!-- Node11 -->
<g id="Node000011" class="node">
<title>Node11</title>
<g id="a_Node000011"><a xlink:href="classDGtal_1_1SpaceND.html" target="_top" xlink:title=" ">
<polygon fill="white" stroke="#666666" points="408.88,-380.6 301.38,-380.6 301.38,-350.1 408.88,-350.1 408.88,-380.6"/>
<text xml:space="preserve" text-anchor="start" x="309.38" y="-367.1" font-family="FreeSans" font-size="10.00">DGtal::SpaceND&lt; 2,</text>
<text xml:space="preserve" text-anchor="middle" x="355.12" y="-355.85" font-family="FreeSans" font-size="10.00"> Integer &gt;</text>
</a>
</g>
</g>
<!-- Node1&#45;&gt;Node11 -->
<g id="edge10_Node000001_Node000011" class="edge">
<title>Node1&#45;&gt;Node11</title>
<g id="a_edge10_Node000001_Node000011"><a xlink:title=" ">
<path fill="none" stroke="orange" stroke-dasharray="5,2" d="M122.98,-395.99C127.37,-394.94 131.74,-393.97 136,-393.1 191.75,-381.83 256.5,-374.28 300.88,-369.94"/>
<polygon fill="orange" stroke="orange" points="122.41,-392.52 113.56,-398.34 124.11,-399.31 122.41,-392.52"/>
</a>
</g>
<text xml:space="preserve" text-anchor="start" x="166.38" y="-397.85" font-family="FreeSans" font-size="10.00" fill="grey">&lt; 2, Integer &gt;</text>
</g>
<!-- Node12 -->
<g id="Node000012" class="node">
<title>Node12</title>
<g id="a_Node000012"><a xlink:href="classDGtal_1_1SpaceND.html" target="_top" xlink:title=" ">
<polygon fill="white" stroke="#666666" points="408.88,-331.6 301.38,-331.6 301.38,-301.1 408.88,-301.1 408.88,-331.6"/>
<text xml:space="preserve" text-anchor="start" x="309.38" y="-318.1" font-family="FreeSans" font-size="10.00">DGtal::SpaceND&lt; 3,</text>
<text xml:space="preserve" text-anchor="middle" x="355.12" y="-306.85" font-family="FreeSans" font-size="10.00"> TInteger &gt;</text>
</a>
</g>
</g>
<!-- Node1&#45;&gt;Node12 -->
<g id="edge11_Node000001_Node000012" class="edge">
<title>Node1&#45;&gt;Node12</title>
<g id="a_edge11_Node000001_Node000012"><a xlink:title=" ">
<path fill="none" stroke="orange" stroke-dasharray="5,2" d="M82.86,-391.19C96.98,-378.25 116.15,-362.99 136,-354.1 189.14,-330.32 255.78,-321.46 301.33,-318.2"/>
<polygon fill="orange" stroke="orange" points="80.7,-388.41 75.85,-397.83 85.52,-393.49 80.7,-388.41"/>
</a>
</g>
<text xml:space="preserve" text-anchor="start" x="163.38" y="-358.85" font-family="FreeSans" font-size="10.00" fill="grey">&lt; 3, TInteger &gt;</text>
</g>
<!-- Node13 -->
<g id="Node000013" class="node">
<title>Node13</title>
<g id="a_Node000013"><a xlink:href="classDGtal_1_1SpaceND.html" target="_top" xlink:title=" ">
<polygon fill="white" stroke="#666666" points="417.5,-282.6 292.75,-282.6 292.75,-252.1 417.5,-252.1 417.5,-282.6"/>
<text xml:space="preserve" text-anchor="start" x="300.75" y="-269.1" font-family="FreeSans" font-size="10.00">DGtal::SpaceND&lt; dim</text>
<text xml:space="preserve" text-anchor="middle" x="355.12" y="-257.85" font-family="FreeSans" font-size="10.00"> &#45; codimension, Integer &gt;</text>
</a>
</g>
</g>
<!-- Node1&#45;&gt;Node13 -->
<g id="edge12_Node000001_Node000013" class="edge">
<title>Node1&#45;&gt;Node13</title>
<g id="a_edge12_Node000001_Node000013"><a xlink:title=" ">
<path fill="none" stroke="orange" stroke-dasharray="5,2" d="M67.66,-388.01C77.92,-357.96 99.21,-309.98 136,-286.85 182.51,-257.62 246.01,-255.17 292.5,-258.59"/>
<polygon fill="orange" stroke="orange" points="64.34,-386.9 64.61,-397.5 71.01,-389.05 64.34,-386.9"/>
</a>
</g>
<text xml:space="preserve" text-anchor="start" x="150.25" y="-306.85" font-family="FreeSans" font-size="10.00" fill="grey">&lt; dim &#45; codimension,</text>
<text xml:space="preserve" text-anchor="start" x="150.25" y="-291.6" font-family="FreeSans" font-size="10.00" fill="grey">   Integer &gt;</text>
</g>
<!-- Node14 -->
<g id="Node000014" class="node">
<title>Node14</title>
<g id="a_Node000014"><a xlink:href="classDGtal_1_1SpaceND.html" target="_top" xlink:title=" ">
<polygon fill="white" stroke="#666666" points="436.25,-233.6 274,-233.6 274,-203.1 436.25,-203.1 436.25,-233.6"/>
<text xml:space="preserve" text-anchor="start" x="282" y="-220.1" font-family="FreeSans" font-size="10.00">DGtal::SpaceND&lt; subdimension,</text>
<text xml:space="preserve" text-anchor="middle" x="355.12" y="-208.85" font-family="FreeSans" font-size="10.00"> Integer &gt;</text>
</a>
</g>
</g>
<!-- Node1&#45;&gt;Node14 -->
<g id="edge13_Node000001_Node000014" class="edge">
<title>Node1&#45;&gt;Node14</title>
<g id="a_edge13_Node000001_Node000014"><a xlink:title=" ">
<path fill="none" stroke="orange" stroke-dasharray="5,2" d="M62.91,-387.36C68.84,-347.02 86.29,-271.93 136,-236.1 157.58,-220.55 220.79,-216.7 273.64,-216.41"/>
<polygon fill="orange" stroke="orange" points="59.46,-386.81 61.62,-397.18 66.4,-387.72 59.46,-386.81"/>
</a>
</g>
<text xml:space="preserve" text-anchor="start" x="139" y="-240.85" font-family="FreeSans" font-size="10.00" fill="grey">&lt; subdimension, Integer &gt;</text>
</g>
<!-- Node15 -->
<g id="Node000015" class="node">
<title>Node15</title>
<g id="a_Node000015"><a xlink:href="classDGtal_1_1SpaceND.html" target="_top" xlink:title=" ">
<polygon fill="white" stroke="#666666" points="426.88,-184.6 283.38,-184.6 283.38,-154.1 426.88,-154.1 426.88,-184.6"/>
<text xml:space="preserve" text-anchor="start" x="291.38" y="-171.1" font-family="FreeSans" font-size="10.00">DGtal::SpaceND&lt; 2,</text>
<text xml:space="preserve" text-anchor="middle" x="355.12" y="-159.85" font-family="FreeSans" font-size="10.00"> typename TSpace::Integer &gt;</text>
</a>
</g>
</g>
<!-- Node1&#45;&gt;Node15 -->
<g id="edge14_Node000001_Node000015" class="edge">
<title>Node1&#45;&gt;Node15</title>
<g id="a_edge14_Node000001_Node000015"><a xlink:title=" ">
<path fill="none" stroke="orange" stroke-dasharray="5,2" d="M59.63,-387.24C60.59,-336.95 70.65,-229.82 136,-179.85 177.34,-148.25 237.05,-147.52 283.55,-153.64"/>
<polygon fill="orange" stroke="orange" points="56.13,-387.19 59.57,-397.21 63.13,-387.24 56.13,-387.19"/>
</a>
</g>
<text xml:space="preserve" text-anchor="start" x="146.12" y="-199.85" font-family="FreeSans" font-size="10.00" fill="grey">&lt; 2, typename TSpace</text>
<text xml:space="preserve" text-anchor="start" x="146.12" y="-184.6" font-family="FreeSans" font-size="10.00" fill="grey">  ::Integer &gt;</text>
</g>
<!-- Node16 -->
<g id="Node000016" class="node">
<title>Node16</title>
<g id="a_Node000016"><a xlink:href="classDGtal_1_1SpaceND.html" target="_top" xlink:title=" ">
<polygon fill="white" stroke="#666666" points="423.88,-133.6 286.38,-133.6 286.38,-103.1 423.88,-103.1 423.88,-133.6"/>
<text xml:space="preserve" text-anchor="start" x="294.38" y="-120.1" font-family="FreeSans" font-size="10.00">DGtal::SpaceND&lt; 2,</text>
<text xml:space="preserve" text-anchor="middle" x="355.12" y="-108.85" font-family="FreeSans" font-size="10.00"> typename Space::Integer &gt;</text>
</a>
</g>
</g>
<!-- Node1&#45;&gt;Node16 -->
<g id="edge15_Node000001_Node000016" class="edge">
<title>Node1&#45;&gt;Node16</title>
<g id="a_edge15_Node000001_Node000016"><a xlink:title=" ">
<path fill="none" stroke="orange" stroke-dasharray="5,2" d="M62.64,-387.59C69.87,-320.43 92.43,-147.78 136,-113.85 158.64,-96.23 230.88,-101.04 286.08,-107.91"/>
<polygon fill="orange" stroke="orange" points="59.18,-387.02 61.62,-397.33 66.14,-387.75 59.18,-387.02"/>
</a>
</g>
<text xml:space="preserve" text-anchor="start" x="149.12" y="-133.85" font-family="FreeSans" font-size="10.00" fill="grey">&lt; 2, typename Space</text>
<text xml:space="preserve" text-anchor="start" x="149.12" y="-118.6" font-family="FreeSans" font-size="10.00" fill="grey">  ::Integer &gt;</text>
</g>
<!-- Node17 -->
<g id="Node000017" class="node">
<title>Node17</title>
<g id="a_Node000017"><a xlink:href="classDGtal_1_1SpaceND.html" target="_top" xlink:title=" ">
<polygon fill="white" stroke="#666666" points="408.88,-84.6 301.38,-84.6 301.38,-54.1 408.88,-54.1 408.88,-84.6"/>
<text xml:space="preserve" text-anchor="start" x="309.38" y="-71.1" font-family="FreeSans" font-size="10.00">DGtal::SpaceND&lt; 2,</text>
<text xml:space="preserve" text-anchor="middle" x="355.12" y="-59.85" font-family="FreeSans" font-size="10.00"> int &gt;</text>
</a>
</g>
</g>
<!-- Node1&#45;&gt;Node17 -->
<g id="edge16_Node000001_Node000017" class="edge">
<title>Node1&#45;&gt;Node17</title>
<g id="a_edge16_Node000001_Node000017"><a xlink:title=" ">
<path fill="none" stroke="orange" stroke-dasharray="5,2" d="M62.02,-387.67C68.06,-315.62 88.6,-119.89 136,-80.1 181.31,-42.08 252.39,-46.41 301.02,-55.59"/>
<polygon fill="orange" stroke="orange" points="58.55,-387.12 61.23,-397.37 65.53,-387.69 58.55,-387.12"/>
</a>
</g>
<text xml:space="preserve" text-anchor="start" x="176.12" y="-84.85" font-family="FreeSans" font-size="10.00" fill="grey">&lt; 2, int &gt;</text>
</g>
<!-- Node18 -->
<g id="Node000018" class="node">
<title>Node18</title>
<g id="a_Node000018"><a xlink:href="classDGtal_1_1SpaceND.html" target="_top" xlink:title=" ">
<polygon fill="white" stroke="#666666" points="413,-35.98 297.25,-35.98 297.25,-16.73 413,-16.73 413,-35.98"/>
<text xml:space="preserve" text-anchor="middle" x="355.12" y="-22.48" font-family="FreeSans" font-size="10.00">DGtal::SpaceND&lt; N &gt;</text>
</a>
</g>
</g>
<!-- Node1&#45;&gt;Node18 -->
<g id="edge17_Node000001_Node000018" class="edge">
<title>Node1&#45;&gt;Node18</title>
<g id="a_edge17_Node000001_Node000018"><a xlink:title=" ">
<path fill="none" stroke="orange" stroke-dasharray="5,2" d="M61.06,-387.24C64.83,-307.12 80.44,-74.17 136,-28.1 189.79,16.49 279.34,-2.28 325.17,-16.25"/>
<polygon fill="orange" stroke="orange" points="57.57,-387.08 60.62,-397.22 64.56,-387.39 57.57,-387.08"/>
</a>
</g>
<text xml:space="preserve" text-anchor="start" x="183.25" y="-32.85" font-family="FreeSans" font-size="10.00" fill="grey">&lt; N &gt;</text>
</g>
</g>
</svg>
