<?xml version="1.0" encoding="UTF-8" standalone="no"?>
<!DOCTYPE svg PUBLIC "-//W3C//DTD SVG 1.1//EN"
 "http://www.w3.org/Graphics/SVG/1.1/DTD/svg11.dtd">
<!-- Generated by graphviz version 13.0.1 (20250615.1724)
 -->
<!-- Title: DGtal::IndexedDigitalSurface&lt; TDigitalSurfaceContainer &gt; Pages: 1 -->
<svg width="463pt" height="88pt"
 viewBox="0.00 0.00 463.00 88.00" xmlns="http://www.w3.org/2000/svg" xmlns:xlink="http://www.w3.org/1999/xlink">
<g id="graph0" class="graph" transform="scale(1 1) rotate(0) translate(4 83.5)">
<title>DGtal::IndexedDigitalSurface&lt; TDigitalSurfaceContainer &gt;</title>
<!-- Node1 -->
<g id="Node000001" class="node">
<title>Node1</title>
<g id="a_Node000001"><a xlink:title="Aim: Represents a digital surface with the topology of its dual surface. Its aim is to mimick the sta...">
<polygon fill="#999999" stroke="#666666" points="143.5,-54.5 0,-54.5 0,-24 143.5,-24 143.5,-54.5"/>
<text xml:space="preserve" text-anchor="start" x="8" y="-41" font-family="FreeSans" font-size="10.00">DGtal::IndexedDigitalSurface</text>
<text xml:space="preserve" text-anchor="middle" x="71.75" y="-29.75" font-family="FreeSans" font-size="10.00">&lt; TDigitalSurfaceContainer &gt;</text>
</a>
</g>
</g>
<!-- Node2 -->
<g id="Node000002" class="node">
<title>Node2</title>
<g id="a_Node000002"><a xlink:href="classDGtal_1_1IndexedDigitalSurface.html" target="_top" xlink:title=" ">
<polygon fill="white" stroke="#666666" points="455,-79.5 311.5,-79.5 311.5,-49 455,-49 455,-79.5"/>
<text xml:space="preserve" text-anchor="start" x="319.5" y="-66" font-family="FreeSans" font-size="10.00">DGtal::IndexedDigitalSurface</text>
<text xml:space="preserve" text-anchor="middle" x="383.25" y="-54.75" font-family="FreeSans" font-size="10.00">&lt; Container &gt;</text>
</a>
</g>
</g>
<!-- Node1&#45;&gt;Node2 -->
<g id="edge1_Node000001_Node000002" class="edge">
<title>Node1&#45;&gt;Node2</title>
<g id="a_edge1_Node000001_Node000002"><a xlink:title=" ">
<path fill="none" stroke="orange" stroke-dasharray="5,2" d="M155.19,-45.91C203.75,-49.83 264.57,-54.74 311.04,-58.5"/>
<polygon fill="orange" stroke="orange" points="155.51,-42.42 145.26,-45.11 154.95,-49.4 155.51,-42.42"/>
</a>
</g>
<text xml:space="preserve" text-anchor="start" x="197.5" y="-61.61" font-family="FreeSans" font-size="10.00" fill="grey">&lt; Container &gt;</text>
</g>
<!-- Node3 -->
<g id="Node000003" class="node">
<title>Node3</title>
<g id="a_Node000003"><a xlink:href="classDGtal_1_1IndexedDigitalSurface.html" target="_top" xlink:title=" ">
<polygon fill="white" stroke="#666666" points="455,-30.5 311.5,-30.5 311.5,0 455,0 455,-30.5"/>
<text xml:space="preserve" text-anchor="start" x="319.5" y="-17" font-family="FreeSans" font-size="10.00">DGtal::IndexedDigitalSurface</text>
<text xml:space="preserve" text-anchor="middle" x="383.25" y="-5.75" font-family="FreeSans" font-size="10.00">&lt; ExplicitSurfaceContainer &gt;</text>
</a>
</g>
</g>
<!-- Node1&#45;&gt;Node3 -->
<g id="edge2_Node000001_Node000003" class="edge">
<title>Node1&#45;&gt;Node3</title>
<g id="a_edge2_Node000001_Node000003"><a xlink:title=" ">
<path fill="none" stroke="orange" stroke-dasharray="5,2" d="M155.24,-25.68C157.35,-25.44 159.44,-25.21 161.5,-25 211.3,-19.92 267.7,-17.48 311.02,-16.32"/>
<polygon fill="orange" stroke="orange" points="154.86,-22.2 145.36,-26.91 155.72,-29.15 154.86,-22.2"/>
</a>
</g>
<text xml:space="preserve" text-anchor="start" x="164.5" y="-29.75" font-family="FreeSans" font-size="10.00" fill="grey">&lt; ExplicitSurfaceContainer &gt;</text>
</g>
</g>
</svg>
