<?xml version="1.0" encoding="UTF-8" standalone="no"?>
<!DOCTYPE svg PUBLIC "-//W3C//DTD SVG 1.1//EN"
 "http://www.w3.org/Graphics/SVG/1.1/DTD/svg11.dtd">
<!-- Generated by graphviz version 13.0.1 (20250615.1724)
 -->
<!-- Title: DGtal::VoxelComplex&lt; TKSpace, TCellContainer &gt; Pages: 1 -->
<svg width="962pt" height="133pt"
 viewBox="0.00 0.00 962.00 133.00" xmlns="http://www.w3.org/2000/svg" xmlns:xlink="http://www.w3.org/1999/xlink">
<g id="graph0" class="graph" transform="scale(1 1) rotate(0) translate(4 129)">
<title>DGtal::VoxelComplex&lt; TKSpace, TCellContainer &gt;</title>
<!-- Node1 -->
<g id="Node000001" class="node">
<title>Node1</title>
<g id="a_Node000001"><a xlink:title="This class represents a voxel complex living in some Khalimsky space. Voxel complexes are derived fro...">
<polygon fill="#999999" stroke="#666666" points="681.25,-54.5 535.5,-54.5 535.5,-24 681.25,-24 681.25,-54.5"/>
<text xml:space="preserve" text-anchor="start" x="543.5" y="-41" font-family="FreeSans" font-size="10.00">DGtal::VoxelComplex</text>
<text xml:space="preserve" text-anchor="middle" x="608.38" y="-29.75" font-family="FreeSans" font-size="10.00">&lt; TKSpace, TCellContainer &gt;</text>
</a>
</g>
</g>
<!-- Node1&#45;&gt;Node1 -->
<g id="edge3_Node000001_Node000001" class="edge">
<title>Node1&#45;&gt;Node1</title>
<g id="a_edge3_Node000001_Node000001"><a xlink:title=" ">
<path fill="none" stroke="orange" stroke-dasharray="5,2" d="M600.71,-66.2C601.97,-69.97 604.52,-72.5 608.38,-72.5 615.42,-72.5 618.12,-64.06 616.47,-54.99"/>
<polygon fill="orange" stroke="orange" points="604.22,-66.36 600.34,-56.5 597.23,-66.63 604.22,-66.36"/>
</a>
</g>
<text xml:space="preserve" text-anchor="start" x="543.5" y="-77.25" font-family="FreeSans" font-size="10.00" fill="grey">&lt; TKSpace, TCellContainer &gt;</text>
</g>
<!-- Node1&#45;&gt;Node1 -->
<g id="edge4_Node000001_Node000001" class="edge">
<title>Node1&#45;&gt;Node1</title>
<g id="a_edge4_Node000001_Node000001"><a xlink:title=" ">
<path fill="none" stroke="orange" stroke-dasharray="5,2" d="M591.74,-65.64C589.45,-78.78 595,-90.5 608.38,-90.5 625.33,-90.5 629.7,-71.68 621.49,-54.99"/>
<polygon fill="orange" stroke="orange" points="594.97,-67.02 594.79,-56.43 588.33,-64.83 594.97,-67.02"/>
</a>
</g>
<text xml:space="preserve" text-anchor="start" x="543.5" y="-95.25" font-family="FreeSans" font-size="10.00" fill="grey">&lt; TKSpace, TCellContainer &gt;</text>
</g>
<!-- Node4 -->
<g id="Node000004" class="node">
<title>Node4</title>
<g id="a_Node000004"><a xlink:href="classDGtal_1_1VoxelComplex.html" target="_top" xlink:title=" ">
<polygon fill="white" stroke="#666666" points="947.75,-79.5 836.5,-79.5 836.5,-49 947.75,-49 947.75,-79.5"/>
<text xml:space="preserve" text-anchor="start" x="844.5" y="-66" font-family="FreeSans" font-size="10.00">DGtal::VoxelComplex</text>
<text xml:space="preserve" text-anchor="middle" x="892.12" y="-54.75" font-family="FreeSans" font-size="10.00">&lt; KSpace &gt;</text>
</a>
</g>
</g>
<!-- Node1&#45;&gt;Node4 -->
<g id="edge5_Node000001_Node000004" class="edge">
<title>Node1&#45;&gt;Node4</title>
<g id="a_edge5_Node000001_Node000004"><a xlink:title=" ">
<path fill="none" stroke="orange" stroke-dasharray="5,2" d="M692.79,-46.65C739.04,-50.76 795.27,-55.74 836.02,-59.36"/>
<polygon fill="orange" stroke="orange" points="693.34,-43.19 683.07,-45.79 692.73,-50.16 693.34,-43.19"/>
</a>
</g>
<text xml:space="preserve" text-anchor="start" x="729.62" y="-61.61" font-family="FreeSans" font-size="10.00" fill="grey">&lt; KSpace &gt;</text>
</g>
<!-- Node5 -->
<g id="Node000005" class="node">
<title>Node5</title>
<g id="a_Node000005"><a xlink:href="classDGtal_1_1VoxelComplex.html" target="_top" xlink:title=" ">
<polygon fill="white" stroke="#666666" points="953.75,-30.5 830.5,-30.5 830.5,0 953.75,0 953.75,-30.5"/>
<text xml:space="preserve" text-anchor="start" x="838.5" y="-17" font-family="FreeSans" font-size="10.00">DGtal::VoxelComplex</text>
<text xml:space="preserve" text-anchor="middle" x="892.12" y="-5.75" font-family="FreeSans" font-size="10.00">&lt; KSpace, FixtureMap &gt;</text>
</a>
</g>
</g>
<!-- Node1&#45;&gt;Node5 -->
<g id="edge6_Node000001_Node000005" class="edge">
<title>Node1&#45;&gt;Node5</title>
<g id="a_edge6_Node000001_Node000005"><a xlink:title=" ">
<path fill="none" stroke="orange" stroke-dasharray="5,2" d="M692.64,-25.73C694.86,-25.47 697.07,-25.23 699.25,-25 742.87,-20.45 792.31,-18 830.07,-16.69"/>
<polygon fill="orange" stroke="orange" points="692.39,-22.24 682.9,-26.95 693.26,-29.18 692.39,-22.24"/>
</a>
</g>
<text xml:space="preserve" text-anchor="start" x="702.25" y="-29.75" font-family="FreeSans" font-size="10.00" fill="grey">&lt; KSpace, FixtureMap &gt;</text>
</g>
<!-- Node2 -->
<g id="Node000002" class="node">
<title>Node2</title>
<g id="a_Node000002"><a xlink:href="classDGtal_1_1CubicalComplex.html" target="_top" xlink:title=" ">
<polygon fill="white" stroke="#666666" points="498.5,-65.75 319.75,-65.75 319.75,-12.75 498.5,-12.75 498.5,-65.75"/>
<text xml:space="preserve" text-anchor="start" x="327.75" y="-52.25" font-family="FreeSans" font-size="10.00">DGtal::CubicalComplex</text>
<text xml:space="preserve" text-anchor="start" x="327.75" y="-41" font-family="FreeSans" font-size="10.00">&lt; TKSpace, typename TKSpace</text>
<text xml:space="preserve" text-anchor="start" x="327.75" y="-29.75" font-family="FreeSans" font-size="10.00">::template CellMap&lt; CubicalCellData</text>
<text xml:space="preserve" text-anchor="middle" x="409.12" y="-18.5" font-family="FreeSans" font-size="10.00"> &gt;::Type &gt;</text>
</a>
</g>
</g>
<!-- Node2&#45;&gt;Node1 -->
<g id="edge1_Node000001_Node000002" class="edge">
<title>Node2&#45;&gt;Node1</title>
<g id="a_edge1_Node000001_Node000002"><a xlink:title=" ">
<path fill="none" stroke="#63b8ff" d="M510.29,-39.25C518.62,-39.25 526.94,-39.25 535,-39.25"/>
<polygon fill="#63b8ff" stroke="#63b8ff" points="510.45,-35.75 500.45,-39.25 510.45,-42.75 510.45,-35.75"/>
</a>
</g>
</g>
<!-- Node3 -->
<g id="Node000003" class="node">
<title>Node3</title>
<g id="a_Node000003"><a xlink:href="classDGtal_1_1CubicalComplex.html" target="_top" xlink:title="Aim: This class represents an arbitrary cubical complex living in some Khalimsky space....">
<polygon fill="white" stroke="#666666" points="145.75,-54.5 0,-54.5 0,-24 145.75,-24 145.75,-54.5"/>
<text xml:space="preserve" text-anchor="start" x="8" y="-41" font-family="FreeSans" font-size="10.00">DGtal::CubicalComplex</text>
<text xml:space="preserve" text-anchor="middle" x="72.88" y="-29.75" font-family="FreeSans" font-size="10.00">&lt; TKSpace, TCellContainer &gt;</text>
</a>
</g>
</g>
<!-- Node3&#45;&gt;Node2 -->
<g id="edge2_Node000002_Node000003" class="edge">
<title>Node3&#45;&gt;Node2</title>
<g id="a_edge2_Node000002_Node000003"><a xlink:title=" ">
<path fill="none" stroke="orange" stroke-dasharray="5,2" d="M157.28,-39.25C206.66,-39.25 269.2,-39.25 319.48,-39.25"/>
<polygon fill="orange" stroke="orange" points="157.5,-35.75 147.5,-39.25 157.5,-42.75 157.5,-35.75"/>
</a>
</g>
<text xml:space="preserve" text-anchor="start" x="166.75" y="-74.5" font-family="FreeSans" font-size="10.00" fill="grey">&lt; TKSpace, typename</text>
<text xml:space="preserve" text-anchor="start" x="166.75" y="-59.25" font-family="FreeSans" font-size="10.00" fill="grey">   TKSpace::template CellMap</text>
<text xml:space="preserve" text-anchor="start" x="166.75" y="-44" font-family="FreeSans" font-size="10.00" fill="grey">  &lt; CubicalCellData &gt;::Type &gt;</text>
</g>
</g>
</svg>
