<?xml version="1.0" encoding="UTF-8" standalone="no"?>
<!DOCTYPE svg PUBLIC "-//W3C//DTD SVG 1.1//EN"
 "http://www.w3.org/Graphics/SVG/1.1/DTD/svg11.dtd">
<!-- Generated by graphviz version 13.1.2 (20250808.2320)
 -->
<!-- Title: DGtal::detail::PosIndepScaleDepSCEstimator&lt; TSegmentComputer, Functor, ReturnType &gt; Pages: 1 -->
<!--zoomable 132 -->

<svg id="main" version="1.1" xmlns="http://www.w3.org/2000/svg" xmlns:xlink="http://www.w3.org/1999/xlink" xml:space="preserve" onload="init(evt)">

<style type="text/css"><![CDATA[
.node, .edge {opacity: 0.7;}
.node.selected, .edge.selected {opacity: 1;}
.edge:hover path { stroke: red; }
.edge:hover polygon { stroke: red; fill: red; }
]]></style>

<defs>
  <circle id="rim" cx="0" cy="0" r="7"/>
  <circle id="rim2" cx="0" cy="0" r="3.5"/>
  <g id="zoomPlus">
    <use xlink:href="#rim" fill="#404040"><set attributeName="fill" to="#808080" begin="zoomplus.mouseover" end="zoomplus.mouseout"/></use>
    <path d="M-4,0h8M0,-4v8" fill="none" stroke="white" stroke-width="1.5" pointer-events="none"/>
  </g>
  <g id="zoomMin">
    <use xlink:href="#rim" fill="#404040"><set attributeName="fill" to="#808080" begin="zoomminus.mouseover" end="zoomminus.mouseout"/></use>
    <path d="M-4,0h8" fill="none" stroke="white" stroke-width="1.5" pointer-events="none"/>
  </g>
  <g id="arrowUp" transform="translate(30 24)">
    <use xlink:href="#rim"/>
    <path pointer-events="none" fill="none" stroke="white" stroke-width="1.5" d="M0,-3.0v7 M-2.5,-0.5L0,-3.0L2.5,-0.5"/>
  </g>
  <g id="arrowRight" transform="rotate(90) translate(36 -43)">
    <use xlink:href="#rim"/>
    <path pointer-events="none" fill="none" stroke="white" stroke-width="1.5" d="M0,-3.0v7 M-2.5,-0.5L0,-3.0L2.5,-0.5"/>
  </g>
  <g id="arrowDown" transform="rotate(180) translate(-30 -48)">
    <use xlink:href="#rim"/>
    <path pointer-events="none" fill="none" stroke="white" stroke-width="1.5" d="M0,-3.0v7 M-2.5,-0.5L0,-3.0L2.5,-0.5"/>
  </g>
  <g id="arrowLeft" transform="rotate(270) translate(-36 17)">
    <use xlink:href="#rim"/>
    <path pointer-events="none" fill="none" stroke="white" stroke-width="1.5" d="M0,-3.0v7 M-2.5,-0.5L0,-3.0L2.5,-0.5"/>
  </g>
  <g id="resetDef">
    <use xlink:href="#rim2" fill="#404040"><set attributeName="fill" to="#808080" begin="reset.mouseover" end="reset.mouseout"/></use>
  </g>
</defs>
<script type="application/ecmascript">
var viewWidth = 777;
var viewHeight = 132;
var sectionId = 'dynsection-0';
</script>
<script type="application/ecmascript" xlink:href="svg.min.js"/>
<svg id="graph" class="graph">
<g id="viewport">
<title>DGtal::detail::PosIndepScaleDepSCEstimator&lt; TSegmentComputer, Functor, ReturnType &gt;</title>
<!-- Node1 -->
<g id="Node000001" class="node">
<title>Node1</title>
<g id="a_Node000001"><a xlink:title=" ">
<polygon fill="#999999" stroke="#666666" points="189.25,-83.38 0,-83.38 0,-41.62 189.25,-41.62 189.25,-83.38"/>
<text xml:space="preserve" text-anchor="start" x="8" y="-69.88" font-family="FreeSans" font-size="10.00">DGtal::detail::PosIndepScale</text>
<text xml:space="preserve" text-anchor="start" x="8" y="-58.62" font-family="FreeSans" font-size="10.00">DepSCEstimator&lt; TSegmentComputer,</text>
<text xml:space="preserve" text-anchor="middle" x="94.62" y="-47.38" font-family="FreeSans" font-size="10.00"> Functor, ReturnType &gt;</text>
</a>
</g>
</g>
<!-- Node2 -->
<g id="Node000002" class="node">
<title>Node2</title>
<g id="a_Node000002"><a xlink:href="classDGtal_1_1detail_1_1PosIndepScaleDepSCEstimator.html" target="_top" xlink:title=" ">
<polygon fill="white" stroke="#666666" points="555.5,-124 389.5,-124 389.5,-71 555.5,-71 555.5,-124"/>
<text xml:space="preserve" text-anchor="start" x="397.5" y="-110.5" font-family="FreeSans" font-size="10.00">DGtal::detail::PosIndepScale</text>
<text xml:space="preserve" text-anchor="start" x="397.5" y="-99.25" font-family="FreeSans" font-size="10.00">DepSCEstimator&lt; DCAComputer,</text>
<text xml:space="preserve" text-anchor="start" x="397.5" y="-88" font-family="FreeSans" font-size="10.00"> detail::CurvatureFromDCA&lt;</text>
<text xml:space="preserve" text-anchor="middle" x="472.5" y="-76.75" font-family="FreeSans" font-size="10.00"> isCCW &gt; &gt;</text>
</a>
</g>
</g>
<!-- Node1&#45;&gt;Node2 -->
<g id="edge1_Node000001_Node000002" class="edge">
<title>Node1&#45;&gt;Node2</title>
<g id="a_edge1_Node000001_Node000002"><a xlink:title=" ">
<path fill="none" stroke="orange" stroke-dasharray="5,2" d="M200.83,-72.3C260.35,-77.84 333.71,-84.67 389.03,-89.82"/>
<polygon fill="orange" stroke="orange" points="201.29,-68.82 191.01,-71.38 200.64,-75.79 201.29,-68.82"/>
</a>
</g>
<text xml:space="preserve" text-anchor="start" x="210.25" y="-108.11" font-family="FreeSans" font-size="10.00" fill="grey">&lt; DCAComputer, detail</text>
<text xml:space="preserve" text-anchor="start" x="210.25" y="-92.86" font-family="FreeSans" font-size="10.00" fill="grey">  ::CurvatureFromDCA&lt; isCCW &gt; &gt;</text>
</g>
<!-- Node3 -->
<g id="Node000003" class="node">
<title>Node3</title>
<g id="a_Node000003"><a xlink:href="classDGtal_1_1detail_1_1PosIndepScaleDepSCEstimator.html" target="_top" xlink:title=" ">
<polygon fill="white" stroke="#666666" points="555.5,-53 389.5,-53 389.5,0 555.5,0 555.5,-53"/>
<text xml:space="preserve" text-anchor="start" x="397.5" y="-39.5" font-family="FreeSans" font-size="10.00">DGtal::detail::PosIndepScale</text>
<text xml:space="preserve" text-anchor="start" x="397.5" y="-28.25" font-family="FreeSans" font-size="10.00">DepSCEstimator&lt; DCAComputer,</text>
<text xml:space="preserve" text-anchor="start" x="397.5" y="-17" font-family="FreeSans" font-size="10.00"> detail::CurvatureFromDCA&lt;</text>
<text xml:space="preserve" text-anchor="middle" x="472.5" y="-5.75" font-family="FreeSans" font-size="10.00"> true &gt; &gt;</text>
</a>
</g>
</g>
<!-- Node1&#45;&gt;Node3 -->
<g id="edge2_Node000001_Node000003" class="edge">
<title>Node1&#45;&gt;Node3</title>
<g id="a_edge2_Node000001_Node000003"><a xlink:title=" ">
<path fill="none" stroke="orange" stroke-dasharray="5,2" d="M193.07,-39.14C197.85,-38.34 202.59,-37.62 207.25,-37 267.78,-28.95 336.74,-26.43 389.03,-25.87"/>
<polygon fill="orange" stroke="orange" points="192.59,-35.67 183.36,-40.87 193.82,-42.56 192.59,-35.67"/>
</a>
</g>
<text xml:space="preserve" text-anchor="start" x="218.12" y="-57" font-family="FreeSans" font-size="10.00" fill="grey">&lt; DCAComputer, detail</text>
<text xml:space="preserve" text-anchor="start" x="218.12" y="-41.75" font-family="FreeSans" font-size="10.00" fill="grey">  ::CurvatureFromDCA&lt; true &gt; &gt;</text>
</g>
<!-- Node4 -->
<g id="Node000004" class="node">
<title>Node4</title>
<g id="a_Node000004"><a xlink:href="classDGtal_1_1CurvatureFromDCAEstimator.html" target="_top" xlink:title=" ">
<polygon fill="white" stroke="#666666" points="769,-41.75 592.5,-41.75 592.5,-11.25 769,-11.25 769,-41.75"/>
<text xml:space="preserve" text-anchor="start" x="600.5" y="-28.25" font-family="FreeSans" font-size="10.00">DGtal::CurvatureFromDCAEstimator</text>
<text xml:space="preserve" text-anchor="middle" x="680.75" y="-17" font-family="FreeSans" font-size="10.00">&lt; DCAComputer, isCCW &gt;</text>
</a>
</g>
</g>
<!-- Node3&#45;&gt;Node4 -->
<g id="edge3_Node000003_Node000004" class="edge">
<title>Node3&#45;&gt;Node4</title>
<g id="a_edge3_Node000003_Node000004"><a xlink:title=" ">
<path fill="none" stroke="#63b8ff" d="M567.15,-26.5C575.44,-26.5 583.82,-26.5 592.07,-26.5"/>
<polygon fill="#63b8ff" stroke="#63b8ff" points="567.42,-23 557.42,-26.5 567.42,-30 567.42,-23"/>
</a>
</g>
</g>
</g>
</svg>

<g id="navigator" transform="translate(0 0)" fill="#404254">
  <rect fill="#f2f5e9" fill-opacity="0.5" stroke="#606060" stroke-width=".5" x="0" y="0" width="60" height="60"/>
  <use id="zoomplus" xlink:href="#zoomPlus" x="17" y="9" onmousedown="handleZoom(evt,'in')"/>
  <use id="zoomminus" xlink:href="#zoomMin" x="42" y="9" onmousedown="handleZoom(evt,'out')"/>
  <use id="reset" xlink:href="#resetDef" x="30" y="36" onmousedown="handleReset()"/>
   <use id="arrowup" xlink:href="#arrowUp" x="0" y="0" onmousedown="handlePan(0,-1)"/>
  <use id="arrowright" xlink:href="#arrowRight" x="0" y="0" onmousedown="handlePan(1,0)"/>
  <use id="arrowdown" xlink:href="#arrowDown" x="0" y="0" onmousedown="handlePan(0,1)"/>
  <use id="arrowleft" xlink:href="#arrowLeft" x="0" y="0" onmousedown="handlePan(-1,0)"/>
</g>
<svg viewBox="0 0 15 15" width="100%" height="30px" preserveAspectRatio="xMaxYMin meet">
 <g id="arrow_out" transform="scale(0.3 0.3)">
  <a xlink:href="classDGtal_1_1detail_1_1PosIndepScaleDepSCEstimator__inherit__graph_org.svg" target="_base">
   <rect id="button" ry="5" rx="5" y="6" x="6" height="38" width="38"
        fill="#f2f5e9" fill-opacity="0.5" stroke="#606060" stroke-width="1.0"/>
   <path id="arrow"
     d="M 11.500037,31.436501 C 11.940474,20.09759 22.043105,11.32322 32.158766,21.979434 L 37.068811,17.246167 C 37.068811,17.246167 37.088388,32 37.088388,32 L 22.160133,31.978069 C 22.160133,31.978069 26.997745,27.140456 26.997745,27.140456 C 18.528582,18.264221 13.291696,25.230495 11.500037,31.436501 z"
     style="fill:#404040;"/>
  </a>
 </g>
</svg>

<style type='text/css'>
<![CDATA[
[data-mouse-over-selected='false'] { opacity: 0.7; }
[data-mouse-over-selected='true']  { opacity: 1.0; }
]]>
</style>
<script type="application/ecmascript"><![CDATA[
document.addEventListener('DOMContentLoaded', (event) => {
  highlightEdges();
  highlightAdjacentNodes();
});
]]></script>
</svg>
