<?xml version="1.0" encoding="UTF-8" standalone="no"?>
<!DOCTYPE svg PUBLIC "-//W3C//DTD SVG 1.1//EN"
 "http://www.w3.org/Graphics/SVG/1.1/DTD/svg11.dtd">
<!-- Generated by graphviz version 13.1.2 (20250808.2320)
 -->
<!-- Title: DGtal::Object&lt; TDigitalTopology, TDigitalSet &gt; Pages: 1 -->
<svg width="501pt" height="1496pt"
 viewBox="0.00 0.00 501.00 1496.00" xmlns="http://www.w3.org/2000/svg" xmlns:xlink="http://www.w3.org/1999/xlink">
<g id="graph0" class="graph" transform="scale(1 1) rotate(0) translate(4 1491.97)">
<title>DGtal::Object&lt; TDigitalTopology, TDigitalSet &gt;</title>
<!-- Node1 -->
<g id="Node000001" class="node">
<title>Node1</title>
<g id="a_Node000001"><a xlink:title="Aim: An object (or digital object) represents a set in some digital space associated with a digital t...">
<polygon fill="#999999" stroke="#666666" points="159.25,-762.11 0,-762.11 0,-731.61 159.25,-731.61 159.25,-762.11"/>
<text xml:space="preserve" text-anchor="start" x="8" y="-748.61" font-family="FreeSans" font-size="10.00">DGtal::Object&lt; TDigitalTopology,</text>
<text xml:space="preserve" text-anchor="middle" x="79.62" y="-737.36" font-family="FreeSans" font-size="10.00"> TDigitalSet &gt;</text>
</a>
</g>
</g>
<!-- Node2 -->
<g id="Node000002" class="node">
<title>Node2</title>
<g id="a_Node000002"><a xlink:href="classDGtal_1_1Object.html" target="_top" xlink:title=" ">
<polygon fill="white" stroke="#666666" points="464,-1470.11 360.25,-1470.11 360.25,-1439.61 464,-1439.61 464,-1470.11"/>
<text xml:space="preserve" text-anchor="start" x="368.25" y="-1456.61" font-family="FreeSans" font-size="10.00">DGtal::Object&lt; DT4</text>
<text xml:space="preserve" text-anchor="middle" x="412.12" y="-1445.36" font-family="FreeSans" font-size="10.00">_8, DigitalSet &gt;</text>
</a>
</g>
</g>
<!-- Node1&#45;&gt;Node2 -->
<g id="edge1_Node000001_Node000002" class="edge">
<title>Node1&#45;&gt;Node2</title>
<g id="a_edge1_Node000001_Node000002"><a xlink:title=" ">
<path fill="none" stroke="orange" stroke-dasharray="5,2" d="M80.22,-773.59C79.1,-888.42 80.96,-1338.17 177.25,-1430.86 225.18,-1477 306.89,-1474.11 359.93,-1465.93"/>
<polygon fill="orange" stroke="orange" points="83.72,-773.96 80.34,-763.92 76.72,-773.88 83.72,-773.96"/>
</a>
</g>
<text xml:space="preserve" text-anchor="start" x="197.12" y="-1475.47" font-family="FreeSans" font-size="10.00" fill="grey">&lt; DT4_8, DigitalSet &gt;</text>
</g>
<!-- Node3 -->
<g id="Node000003" class="node">
<title>Node3</title>
<g id="a_Node000003"><a xlink:href="classDGtal_1_1Object.html" target="_top" xlink:title=" ">
<polygon fill="white" stroke="#666666" points="477.88,-1414.11 346.38,-1414.11 346.38,-1383.61 477.88,-1383.61 477.88,-1414.11"/>
<text xml:space="preserve" text-anchor="start" x="354.38" y="-1400.61" font-family="FreeSans" font-size="10.00">DGtal::ComplementObject</text>
<text xml:space="preserve" text-anchor="middle" x="412.12" y="-1389.36" font-family="FreeSans" font-size="10.00">&lt; DT4_8, DigitalSet &gt;</text>
</a>
</g>
</g>
<!-- Node1&#45;&gt;Node3 -->
<g id="edge2_Node000001_Node000003" class="edge">
<title>Node1&#45;&gt;Node3</title>
<g id="a_edge2_Node000001_Node000003"><a xlink:title=" ">
<path fill="none" stroke="orange" stroke-dasharray="5,2" d="M80.58,-773.88C80.99,-883.31 88.52,-1291.83 177.25,-1375.86 189.34,-1387.31 281.12,-1393.51 346.03,-1396.5"/>
<polygon fill="orange" stroke="orange" points="84.08,-774.1 80.56,-764.11 77.08,-774.11 84.08,-774.1"/>
</a>
</g>
<text xml:space="preserve" text-anchor="start" x="192.62" y="-1414.5" font-family="FreeSans" font-size="10.00" fill="grey">&lt; DT4_8, DigitalSet</text>
<text xml:space="preserve" text-anchor="start" x="192.62" y="-1399.25" font-family="FreeSans" font-size="10.00" fill="grey">   &gt;::ComplementObject</text>
</g>
<!-- Node4 -->
<g id="Node000004" class="node">
<title>Node4</title>
<g id="a_Node000004"><a xlink:href="classDGtal_1_1Object.html" target="_top" xlink:title=" ">
<polygon fill="white" stroke="#666666" points="468.12,-1358.11 356.12,-1358.11 356.12,-1327.61 468.12,-1327.61 468.12,-1358.11"/>
<text xml:space="preserve" text-anchor="start" x="364.12" y="-1344.61" font-family="FreeSans" font-size="10.00">DGtal::SmallObject</text>
<text xml:space="preserve" text-anchor="middle" x="412.12" y="-1333.36" font-family="FreeSans" font-size="10.00">&lt; DT4_8, DigitalSet &gt;</text>
</a>
</g>
</g>
<!-- Node1&#45;&gt;Node4 -->
<g id="edge3_Node000001_Node000004" class="edge">
<title>Node1&#45;&gt;Node4</title>
<g id="a_edge3_Node000001_Node000004"><a xlink:title=" ">
<path fill="none" stroke="orange" stroke-dasharray="5,2" d="M81,-773.83C83.04,-877.09 95.99,-1245.32 177.25,-1320.86 190.06,-1332.77 290.67,-1338.59 355.69,-1341.14"/>
<polygon fill="orange" stroke="orange" points="84.51,-774.04 80.83,-764.1 77.51,-774.16 84.51,-774.04"/>
</a>
</g>
<text xml:space="preserve" text-anchor="start" x="201.62" y="-1358.91" font-family="FreeSans" font-size="10.00" fill="grey">&lt; DT4_8, DigitalSet</text>
<text xml:space="preserve" text-anchor="start" x="201.62" y="-1343.66" font-family="FreeSans" font-size="10.00" fill="grey">   &gt;::SmallObject</text>
</g>
<!-- Node5 -->
<g id="Node000005" class="node">
<title>Node5</title>
<g id="a_Node000005"><a xlink:href="classDGtal_1_1Object.html" target="_top" xlink:title=" ">
<polygon fill="white" stroke="#666666" points="490.25,-1307.11 334,-1307.11 334,-1276.61 490.25,-1276.61 490.25,-1307.11"/>
<text xml:space="preserve" text-anchor="start" x="342" y="-1293.61" font-family="FreeSans" font-size="10.00">DGtal::SmallComplementObject</text>
<text xml:space="preserve" text-anchor="middle" x="412.12" y="-1282.36" font-family="FreeSans" font-size="10.00">&lt; DT4_8, DigitalSet &gt;</text>
</a>
</g>
</g>
<!-- Node1&#45;&gt;Node5 -->
<g id="edge4_Node000001_Node000005" class="edge">
<title>Node1&#45;&gt;Node5</title>
<g id="a_edge4_Node000001_Node000005"><a xlink:title=" ">
<path fill="none" stroke="orange" stroke-dasharray="5,2" d="M81.59,-773.92C85.63,-870.63 104.51,-1197.01 177.25,-1264.86 188.68,-1275.52 269.99,-1283.09 333.56,-1287.44"/>
<polygon fill="orange" stroke="orange" points="85.09,-773.94 81.2,-764.08 78.1,-774.21 85.09,-773.94"/>
</a>
</g>
<text xml:space="preserve" text-anchor="start" x="180.25" y="-1305.58" font-family="FreeSans" font-size="10.00" fill="grey">&lt; DT4_8, DigitalSet</text>
<text xml:space="preserve" text-anchor="start" x="180.25" y="-1290.33" font-family="FreeSans" font-size="10.00" fill="grey">   &gt;::SmallComplementObject</text>
</g>
<!-- Node6 -->
<g id="Node000006" class="node">
<title>Node6</title>
<g id="a_Node000006"><a xlink:href="classDGtal_1_1Object.html" target="_top" xlink:title=" ">
<polygon fill="white" stroke="#666666" points="464,-1258.11 360.25,-1258.11 360.25,-1227.61 464,-1227.61 464,-1258.11"/>
<text xml:space="preserve" text-anchor="start" x="368.25" y="-1244.61" font-family="FreeSans" font-size="10.00">DGtal::Object&lt; DT8</text>
<text xml:space="preserve" text-anchor="middle" x="412.12" y="-1233.36" font-family="FreeSans" font-size="10.00">_4, DigitalSet &gt;</text>
</a>
</g>
</g>
<!-- Node1&#45;&gt;Node6 -->
<g id="edge5_Node000001_Node000006" class="edge">
<title>Node1&#45;&gt;Node6</title>
<g id="a_edge5_Node000001_Node000006"><a xlink:title=" ">
<path fill="none" stroke="orange" stroke-dasharray="5,2" d="M81.94,-773.7C87.04,-865.45 108.73,-1164.27 177.25,-1224.86 203.37,-1247.96 299.2,-1248.21 359.79,-1245.84"/>
<polygon fill="orange" stroke="orange" points="85.45,-773.72 81.42,-763.92 78.46,-774.09 85.45,-773.72"/>
</a>
</g>
<text xml:space="preserve" text-anchor="start" x="197.12" y="-1251.56" font-family="FreeSans" font-size="10.00" fill="grey">&lt; DT8_4, DigitalSet &gt;</text>
</g>
<!-- Node7 -->
<g id="Node000007" class="node">
<title>Node7</title>
<g id="a_Node000007"><a xlink:href="classDGtal_1_1Object.html" target="_top" xlink:title=" ">
<polygon fill="white" stroke="#666666" points="477.88,-1206.11 346.38,-1206.11 346.38,-1175.61 477.88,-1175.61 477.88,-1206.11"/>
<text xml:space="preserve" text-anchor="start" x="354.38" y="-1192.61" font-family="FreeSans" font-size="10.00">DGtal::ComplementObject</text>
<text xml:space="preserve" text-anchor="middle" x="412.12" y="-1181.36" font-family="FreeSans" font-size="10.00">&lt; DT8_4, DigitalSet &gt;</text>
</a>
</g>
</g>
<!-- Node1&#45;&gt;Node7 -->
<g id="edge6_Node000001_Node000007" class="edge">
<title>Node1&#45;&gt;Node7</title>
<g id="a_edge6_Node000001_Node000007"><a xlink:title=" ">
<path fill="none" stroke="orange" stroke-dasharray="5,2" d="M82.8,-773.63C90.22,-857.71 117.45,-1114.04 177.25,-1166.86 201.53,-1188.31 285.63,-1192.38 346.03,-1192.39"/>
<polygon fill="orange" stroke="orange" points="86.3,-773.48 81.96,-763.82 79.33,-774.08 86.3,-773.48"/>
</a>
</g>
<text xml:space="preserve" text-anchor="start" x="192.62" y="-1211.83" font-family="FreeSans" font-size="10.00" fill="grey">&lt; DT8_4, DigitalSet</text>
<text xml:space="preserve" text-anchor="start" x="192.62" y="-1196.58" font-family="FreeSans" font-size="10.00" fill="grey">   &gt;::ComplementObject</text>
</g>
<!-- Node8 -->
<g id="Node000008" class="node">
<title>Node8</title>
<g id="a_Node000008"><a xlink:href="classDGtal_1_1Object.html" target="_top" xlink:title=" ">
<polygon fill="white" stroke="#666666" points="468.12,-1150.11 356.12,-1150.11 356.12,-1119.61 468.12,-1119.61 468.12,-1150.11"/>
<text xml:space="preserve" text-anchor="start" x="364.12" y="-1136.61" font-family="FreeSans" font-size="10.00">DGtal::SmallObject</text>
<text xml:space="preserve" text-anchor="middle" x="412.12" y="-1125.36" font-family="FreeSans" font-size="10.00">&lt; DT8_4, DigitalSet &gt;</text>
</a>
</g>
</g>
<!-- Node1&#45;&gt;Node8 -->
<g id="edge7_Node000001_Node000008" class="edge">
<title>Node1&#45;&gt;Node8</title>
<g id="a_edge7_Node000001_Node000008"><a xlink:title=" ">
<path fill="none" stroke="orange" stroke-dasharray="5,2" d="M83.73,-773.47C93.24,-850.02 124.55,-1068.18 177.25,-1112.86 190.59,-1124.17 291.02,-1130.2 355.86,-1132.95"/>
<polygon fill="orange" stroke="orange" points="87.25,-773.45 82.57,-763.95 80.31,-774.3 87.25,-773.45"/>
</a>
</g>
<text xml:space="preserve" text-anchor="start" x="201.62" y="-1150.59" font-family="FreeSans" font-size="10.00" fill="grey">&lt; DT8_4, DigitalSet</text>
<text xml:space="preserve" text-anchor="start" x="201.62" y="-1135.34" font-family="FreeSans" font-size="10.00" fill="grey">   &gt;::SmallObject</text>
</g>
<!-- Node9 -->
<g id="Node000009" class="node">
<title>Node9</title>
<g id="a_Node000009"><a xlink:href="classDGtal_1_1Object.html" target="_top" xlink:title=" ">
<polygon fill="white" stroke="#666666" points="490.25,-1099.11 334,-1099.11 334,-1068.61 490.25,-1068.61 490.25,-1099.11"/>
<text xml:space="preserve" text-anchor="start" x="342" y="-1085.61" font-family="FreeSans" font-size="10.00">DGtal::SmallComplementObject</text>
<text xml:space="preserve" text-anchor="middle" x="412.12" y="-1074.36" font-family="FreeSans" font-size="10.00">&lt; DT8_4, DigitalSet &gt;</text>
</a>
</g>
</g>
<!-- Node1&#45;&gt;Node9 -->
<g id="edge8_Node000001_Node000009" class="edge">
<title>Node1&#45;&gt;Node9</title>
<g id="a_edge8_Node000001_Node000009"><a xlink:title=" ">
<path fill="none" stroke="orange" stroke-dasharray="5,2" d="M80.01,-773.93C80.22,-835.18 90.13,-984.7 177.25,-1056.86 189.27,-1066.82 270.21,-1074.51 333.55,-1079.09"/>
<polygon fill="orange" stroke="orange" points="83.51,-774.11 80.07,-764.09 76.51,-774.07 83.51,-774.11"/>
</a>
</g>
<text xml:space="preserve" text-anchor="start" x="180.25" y="-1097.17" font-family="FreeSans" font-size="10.00" fill="grey">&lt; DT8_4, DigitalSet</text>
<text xml:space="preserve" text-anchor="start" x="180.25" y="-1081.92" font-family="FreeSans" font-size="10.00" fill="grey">   &gt;::SmallComplementObject</text>
</g>
<!-- Node10 -->
<g id="Node000010" class="node">
<title>Node10</title>
<g id="a_Node000010"><a xlink:href="classDGtal_1_1Object.html" target="_top" xlink:title=" ">
<polygon fill="white" stroke="#666666" points="464,-1050.11 360.25,-1050.11 360.25,-1019.61 464,-1019.61 464,-1050.11"/>
<text xml:space="preserve" text-anchor="start" x="368.25" y="-1036.61" font-family="FreeSans" font-size="10.00">DGtal::Object&lt; DT6</text>
<text xml:space="preserve" text-anchor="middle" x="412.12" y="-1025.36" font-family="FreeSans" font-size="10.00">_18, DigitalSet &gt;</text>
</a>
</g>
</g>
<!-- Node1&#45;&gt;Node10 -->
<g id="edge9_Node000001_Node000010" class="edge">
<title>Node1&#45;&gt;Node10</title>
<g id="a_edge9_Node000001_Node000010"><a xlink:title=" ">
<path fill="none" stroke="orange" stroke-dasharray="5,2" d="M81.23,-773.71C84.08,-829.42 99.25,-957.32 177.25,-1016.86 204.89,-1037.96 299.7,-1038.92 359.79,-1037.22"/>
<polygon fill="orange" stroke="orange" points="84.73,-773.73 80.83,-763.88 77.74,-774.02 84.73,-773.73"/>
</a>
</g>
<text xml:space="preserve" text-anchor="start" x="194.5" y="-1042.47" font-family="FreeSans" font-size="10.00" fill="grey">&lt; DT6_18, DigitalSet &gt;</text>
</g>
<!-- Node11 -->
<g id="Node000011" class="node">
<title>Node11</title>
<g id="a_Node000011"><a xlink:href="classDGtal_1_1Object.html" target="_top" xlink:title=" ">
<polygon fill="white" stroke="#666666" points="477.88,-998.11 346.38,-998.11 346.38,-967.61 477.88,-967.61 477.88,-998.11"/>
<text xml:space="preserve" text-anchor="start" x="354.38" y="-984.61" font-family="FreeSans" font-size="10.00">DGtal::ComplementObject</text>
<text xml:space="preserve" text-anchor="middle" x="412.12" y="-973.36" font-family="FreeSans" font-size="10.00">&lt; DT6_18, DigitalSet &gt;</text>
</a>
</g>
</g>
<!-- Node1&#45;&gt;Node11 -->
<g id="edge10_Node000001_Node000011" class="edge">
<title>Node1&#45;&gt;Node11</title>
<g id="a_edge10_Node000001_Node000011"><a xlink:title=" ">
<path fill="none" stroke="orange" stroke-dasharray="5,2" d="M84.12,-773.89C91.74,-820.68 114.52,-916.06 177.25,-960.86 203.47,-979.59 286.41,-983.58 346.07,-983.89"/>
<polygon fill="orange" stroke="orange" points="87.59,-773.44 82.65,-764.07 80.67,-774.48 87.59,-773.44"/>
</a>
</g>
<text xml:space="preserve" text-anchor="start" x="192.62" y="-1003.24" font-family="FreeSans" font-size="10.00" fill="grey">&lt; DT6_18, DigitalSet</text>
<text xml:space="preserve" text-anchor="start" x="192.62" y="-987.99" font-family="FreeSans" font-size="10.00" fill="grey">   &gt;::ComplementObject</text>
</g>
<!-- Node12 -->
<g id="Node000012" class="node">
<title>Node12</title>
<g id="a_Node000012"><a xlink:href="classDGtal_1_1Object.html" target="_top" xlink:title=" ">
<polygon fill="white" stroke="#666666" points="470.75,-942.11 353.5,-942.11 353.5,-911.61 470.75,-911.61 470.75,-942.11"/>
<text xml:space="preserve" text-anchor="start" x="361.5" y="-928.61" font-family="FreeSans" font-size="10.00">DGtal::SmallObject</text>
<text xml:space="preserve" text-anchor="middle" x="412.12" y="-917.36" font-family="FreeSans" font-size="10.00">&lt; DT6_18, DigitalSet &gt;</text>
</a>
</g>
</g>
<!-- Node1&#45;&gt;Node12 -->
<g id="edge11_Node000001_Node000012" class="edge">
<title>Node1&#45;&gt;Node12</title>
<g id="a_edge11_Node000001_Node000012"><a xlink:title=" ">
<path fill="none" stroke="orange" stroke-dasharray="5,2" d="M88.41,-773.08C100.74,-809.53 128.51,-874.45 177.25,-904.86 205.62,-922.56 293.62,-926.61 353.21,-927.24"/>
<polygon fill="orange" stroke="orange" points="91.8,-772.21 85.4,-763.77 85.14,-774.36 91.8,-772.21"/>
</a>
</g>
<text xml:space="preserve" text-anchor="start" x="199" y="-946.22" font-family="FreeSans" font-size="10.00" fill="grey">&lt; DT6_18, DigitalSet</text>
<text xml:space="preserve" text-anchor="start" x="199" y="-930.97" font-family="FreeSans" font-size="10.00" fill="grey">   &gt;::SmallObject</text>
</g>
<!-- Node13 -->
<g id="Node000013" class="node">
<title>Node13</title>
<g id="a_Node000013"><a xlink:href="classDGtal_1_1Object.html" target="_top" xlink:title=" ">
<polygon fill="white" stroke="#666666" points="490.25,-891.11 334,-891.11 334,-860.61 490.25,-860.61 490.25,-891.11"/>
<text xml:space="preserve" text-anchor="start" x="342" y="-877.61" font-family="FreeSans" font-size="10.00">DGtal::SmallComplementObject</text>
<text xml:space="preserve" text-anchor="middle" x="412.12" y="-866.36" font-family="FreeSans" font-size="10.00">&lt; DT6_18, DigitalSet &gt;</text>
</a>
</g>
</g>
<!-- Node1&#45;&gt;Node13 -->
<g id="edge12_Node000001_Node000013" class="edge">
<title>Node1&#45;&gt;Node13</title>
<g id="a_edge12_Node000001_Node000013"><a xlink:title=" ">
<path fill="none" stroke="orange" stroke-dasharray="5,2" d="M97.21,-771.67C114.31,-795.02 143.21,-828.89 177.25,-845.86 203.99,-859.2 276.3,-867.08 333.5,-871.39"/>
<polygon fill="orange" stroke="orange" points="100.14,-769.75 91.5,-763.61 94.43,-773.8 100.14,-769.75"/>
</a>
</g>
<text xml:space="preserve" text-anchor="start" x="180.25" y="-889.63" font-family="FreeSans" font-size="10.00" fill="grey">&lt; DT6_18, DigitalSet</text>
<text xml:space="preserve" text-anchor="start" x="180.25" y="-874.38" font-family="FreeSans" font-size="10.00" fill="grey">   &gt;::SmallComplementObject</text>
</g>
<!-- Node14 -->
<g id="Node000014" class="node">
<title>Node14</title>
<g id="a_Node000014"><a xlink:href="classDGtal_1_1Object.html" target="_top" xlink:title=" ">
<polygon fill="white" stroke="#666666" points="466.62,-842.11 357.62,-842.11 357.62,-811.61 466.62,-811.61 466.62,-842.11"/>
<text xml:space="preserve" text-anchor="start" x="365.62" y="-828.61" font-family="FreeSans" font-size="10.00">DGtal::Object&lt; DT18</text>
<text xml:space="preserve" text-anchor="middle" x="412.12" y="-817.36" font-family="FreeSans" font-size="10.00">_6, DigitalSet &gt;</text>
</a>
</g>
</g>
<!-- Node1&#45;&gt;Node14 -->
<g id="edge13_Node000001_Node000014" class="edge">
<title>Node1&#45;&gt;Node14</title>
<g id="a_edge13_Node000001_Node000014"><a xlink:title=" ">
<path fill="none" stroke="orange" stroke-dasharray="5,2" d="M111.56,-768.84C129.8,-780.65 153.84,-794.31 177.25,-801.86 236.91,-821.1 309.11,-826.26 357.36,-827.3"/>
<polygon fill="orange" stroke="orange" points="113.58,-765.98 103.32,-763.35 109.7,-771.81 113.58,-765.98"/>
</a>
</g>
<text xml:space="preserve" text-anchor="start" x="194.5" y="-829.74" font-family="FreeSans" font-size="10.00" fill="grey">&lt; DT18_6, DigitalSet &gt;</text>
</g>
<!-- Node15 -->
<g id="Node000015" class="node">
<title>Node15</title>
<g id="a_Node000015"><a xlink:href="classDGtal_1_1Object.html" target="_top" xlink:title=" ">
<polygon fill="white" stroke="#666666" points="477.88,-790.11 346.38,-790.11 346.38,-759.61 477.88,-759.61 477.88,-790.11"/>
<text xml:space="preserve" text-anchor="start" x="354.38" y="-776.61" font-family="FreeSans" font-size="10.00">DGtal::ComplementObject</text>
<text xml:space="preserve" text-anchor="middle" x="412.12" y="-765.36" font-family="FreeSans" font-size="10.00">&lt; DT18_6, DigitalSet &gt;</text>
</a>
</g>
</g>
<!-- Node1&#45;&gt;Node15 -->
<g id="edge14_Node000001_Node000015" class="edge">
<title>Node1&#45;&gt;Node15</title>
<g id="a_edge14_Node000001_Node000015"><a xlink:title=" ">
<path fill="none" stroke="orange" stroke-dasharray="5,2" d="M170.62,-754.48C226.08,-759.18 295.92,-765.1 346.03,-769.35"/>
<polygon fill="orange" stroke="orange" points="171.14,-751.02 160.88,-753.66 170.55,-757.99 171.14,-751.02"/>
</a>
</g>
<text xml:space="preserve" text-anchor="start" x="192.62" y="-785.8" font-family="FreeSans" font-size="10.00" fill="grey">&lt; DT18_6, DigitalSet</text>
<text xml:space="preserve" text-anchor="start" x="192.62" y="-770.55" font-family="FreeSans" font-size="10.00" fill="grey">   &gt;::ComplementObject</text>
</g>
<!-- Node16 -->
<g id="Node000016" class="node">
<title>Node16</title>
<g id="a_Node000016"><a xlink:href="classDGtal_1_1Object.html" target="_top" xlink:title=" ">
<polygon fill="white" stroke="#666666" points="470.75,-734.11 353.5,-734.11 353.5,-703.61 470.75,-703.61 470.75,-734.11"/>
<text xml:space="preserve" text-anchor="start" x="361.5" y="-720.61" font-family="FreeSans" font-size="10.00">DGtal::SmallObject</text>
<text xml:space="preserve" text-anchor="middle" x="412.12" y="-709.36" font-family="FreeSans" font-size="10.00">&lt; DT18_6, DigitalSet &gt;</text>
</a>
</g>
</g>
<!-- Node1&#45;&gt;Node16 -->
<g id="edge15_Node000001_Node000016" class="edge">
<title>Node1&#45;&gt;Node16</title>
<g id="a_edge15_Node000001_Node000016"><a xlink:title=" ">
<path fill="none" stroke="orange" stroke-dasharray="5,2" d="M134.56,-727.99C148.31,-724.01 163.18,-720.39 177.25,-718.36 236.73,-709.77 305.6,-711.28 353.13,-714.08"/>
<polygon fill="orange" stroke="orange" points="133.81,-724.56 125.25,-730.81 135.84,-731.26 133.81,-724.56"/>
</a>
</g>
<text xml:space="preserve" text-anchor="start" x="199" y="-738.36" font-family="FreeSans" font-size="10.00" fill="grey">&lt; DT18_6, DigitalSet</text>
<text xml:space="preserve" text-anchor="start" x="199" y="-723.11" font-family="FreeSans" font-size="10.00" fill="grey">   &gt;::SmallObject</text>
</g>
<!-- Node17 -->
<g id="Node000017" class="node">
<title>Node17</title>
<g id="a_Node000017"><a xlink:href="classDGtal_1_1Object.html" target="_top" xlink:title=" ">
<polygon fill="white" stroke="#666666" points="490.25,-683.11 334,-683.11 334,-652.61 490.25,-652.61 490.25,-683.11"/>
<text xml:space="preserve" text-anchor="start" x="342" y="-669.61" font-family="FreeSans" font-size="10.00">DGtal::SmallComplementObject</text>
<text xml:space="preserve" text-anchor="middle" x="412.12" y="-658.36" font-family="FreeSans" font-size="10.00">&lt; DT18_6, DigitalSet &gt;</text>
</a>
</g>
</g>
<!-- Node1&#45;&gt;Node17 -->
<g id="edge16_Node000001_Node000017" class="edge">
<title>Node1&#45;&gt;Node17</title>
<g id="a_edge16_Node000001_Node000017"><a xlink:title=" ">
<path fill="none" stroke="orange" stroke-dasharray="5,2" d="M103.49,-723.58C121.7,-706.73 148.79,-685.25 177.25,-675.36 227.33,-657.95 287.12,-656.34 333.72,-658.95"/>
<polygon fill="orange" stroke="orange" points="101.2,-720.92 96.38,-730.36 106.03,-725.98 101.2,-720.92"/>
</a>
</g>
<text xml:space="preserve" text-anchor="start" x="180.25" y="-695.36" font-family="FreeSans" font-size="10.00" fill="grey">&lt; DT18_6, DigitalSet</text>
<text xml:space="preserve" text-anchor="start" x="180.25" y="-680.11" font-family="FreeSans" font-size="10.00" fill="grey">   &gt;::SmallComplementObject</text>
</g>
<!-- Node18 -->
<g id="Node000018" class="node">
<title>Node18</title>
<g id="a_Node000018"><a xlink:href="classDGtal_1_1Object.html" target="_top" xlink:title=" ">
<polygon fill="white" stroke="#666666" points="464,-634.11 360.25,-634.11 360.25,-603.61 464,-603.61 464,-634.11"/>
<text xml:space="preserve" text-anchor="start" x="368.25" y="-620.61" font-family="FreeSans" font-size="10.00">DGtal::Object&lt; DT6</text>
<text xml:space="preserve" text-anchor="middle" x="412.12" y="-609.36" font-family="FreeSans" font-size="10.00">_26, DigitalSet &gt;</text>
</a>
</g>
</g>
<!-- Node1&#45;&gt;Node18 -->
<g id="edge17_Node000001_Node000018" class="edge">
<title>Node1&#45;&gt;Node18</title>
<g id="a_edge17_Node000001_Node000018"><a xlink:title=" ">
<path fill="none" stroke="orange" stroke-dasharray="5,2" d="M94.57,-721.71C110.69,-695.37 139.87,-655.29 177.25,-636.61 234.8,-607.85 310.4,-607.83 359.85,-612.03"/>
<polygon fill="orange" stroke="orange" points="91.69,-719.69 89.62,-730.08 97.72,-723.25 91.69,-719.69"/>
</a>
</g>
<text xml:space="preserve" text-anchor="start" x="194.5" y="-641.36" font-family="FreeSans" font-size="10.00" fill="grey">&lt; DT6_26, DigitalSet &gt;</text>
</g>
<!-- Node19 -->
<g id="Node000019" class="node">
<title>Node19</title>
<g id="a_Node000019"><a xlink:href="classDGtal_1_1Object.html" target="_top" xlink:title=" ">
<polygon fill="white" stroke="#666666" points="477.88,-582.11 346.38,-582.11 346.38,-551.61 477.88,-551.61 477.88,-582.11"/>
<text xml:space="preserve" text-anchor="start" x="354.38" y="-568.61" font-family="FreeSans" font-size="10.00">DGtal::ComplementObject</text>
<text xml:space="preserve" text-anchor="middle" x="412.12" y="-557.36" font-family="FreeSans" font-size="10.00">&lt; DT6_26, DigitalSet &gt;</text>
</a>
</g>
</g>
<!-- Node1&#45;&gt;Node19 -->
<g id="edge18_Node000001_Node000019" class="edge">
<title>Node1&#45;&gt;Node19</title>
<g id="a_edge18_Node000001_Node000019"><a xlink:title=" ">
<path fill="none" stroke="orange" stroke-dasharray="5,2" d="M86.63,-720.27C97.24,-680.31 123.44,-606 177.25,-573.36 227.69,-542.76 296.19,-544.79 346.01,-552.28"/>
<polygon fill="orange" stroke="orange" points="83.28,-719.23 84.25,-729.79 90.08,-720.93 83.28,-719.23"/>
</a>
</g>
<text xml:space="preserve" text-anchor="start" x="192.62" y="-593.36" font-family="FreeSans" font-size="10.00" fill="grey">&lt; DT6_26, DigitalSet</text>
<text xml:space="preserve" text-anchor="start" x="192.62" y="-578.11" font-family="FreeSans" font-size="10.00" fill="grey">   &gt;::ComplementObject</text>
</g>
<!-- Node20 -->
<g id="Node000020" class="node">
<title>Node20</title>
<g id="a_Node000020"><a xlink:href="classDGtal_1_1Object.html" target="_top" xlink:title=" ">
<polygon fill="white" stroke="#666666" points="470.75,-526.11 353.5,-526.11 353.5,-495.61 470.75,-495.61 470.75,-526.11"/>
<text xml:space="preserve" text-anchor="start" x="361.5" y="-512.61" font-family="FreeSans" font-size="10.00">DGtal::SmallObject</text>
<text xml:space="preserve" text-anchor="middle" x="412.12" y="-501.36" font-family="FreeSans" font-size="10.00">&lt; DT6_26, DigitalSet &gt;</text>
</a>
</g>
</g>
<!-- Node1&#45;&gt;Node20 -->
<g id="edge19_Node000001_Node000020" class="edge">
<title>Node1&#45;&gt;Node20</title>
<g id="a_edge19_Node000001_Node000020"><a xlink:title=" ">
<path fill="none" stroke="orange" stroke-dasharray="5,2" d="M82.43,-719.8C87.47,-668.72 106.43,-558.96 177.25,-511.36 204.92,-492.76 293.36,-497.82 353.2,-503.84"/>
<polygon fill="orange" stroke="orange" points="78.95,-719.4 81.58,-729.66 85.93,-720 78.95,-719.4"/>
</a>
</g>
<text xml:space="preserve" text-anchor="start" x="199" y="-531.36" font-family="FreeSans" font-size="10.00" fill="grey">&lt; DT6_26, DigitalSet</text>
<text xml:space="preserve" text-anchor="start" x="199" y="-516.11" font-family="FreeSans" font-size="10.00" fill="grey">   &gt;::SmallObject</text>
</g>
<!-- Node21 -->
<g id="Node000021" class="node">
<title>Node21</title>
<g id="a_Node000021"><a xlink:href="classDGtal_1_1Object.html" target="_top" xlink:title=" ">
<polygon fill="white" stroke="#666666" points="490.25,-475.11 334,-475.11 334,-444.61 490.25,-444.61 490.25,-475.11"/>
<text xml:space="preserve" text-anchor="start" x="342" y="-461.61" font-family="FreeSans" font-size="10.00">DGtal::SmallComplementObject</text>
<text xml:space="preserve" text-anchor="middle" x="412.12" y="-450.36" font-family="FreeSans" font-size="10.00">&lt; DT6_26, DigitalSet &gt;</text>
</a>
</g>
</g>
<!-- Node1&#45;&gt;Node21 -->
<g id="edge20_Node000001_Node000021" class="edge">
<title>Node1&#45;&gt;Node21</title>
<g id="a_edge20_Node000001_Node000021"><a xlink:title=" ">
<path fill="none" stroke="orange" stroke-dasharray="5,2" d="M80.3,-720.05C81.23,-661.48 92.69,-522.42 177.25,-461.36 229.75,-423.44 307.62,-432.19 358.86,-444.18"/>
<polygon fill="orange" stroke="orange" points="76.8,-719.74 80.25,-729.76 83.8,-719.78 76.8,-719.74"/>
</a>
</g>
<text xml:space="preserve" text-anchor="start" x="180.25" y="-481.36" font-family="FreeSans" font-size="10.00" fill="grey">&lt; DT6_26, DigitalSet</text>
<text xml:space="preserve" text-anchor="start" x="180.25" y="-466.11" font-family="FreeSans" font-size="10.00" fill="grey">   &gt;::SmallComplementObject</text>
</g>
<!-- Node22 -->
<g id="Node000022" class="node">
<title>Node22</title>
<g id="a_Node000022"><a xlink:href="classDGtal_1_1Object.html" target="_top" xlink:title=" ">
<polygon fill="white" stroke="#666666" points="466.62,-426.11 357.62,-426.11 357.62,-395.61 466.62,-395.61 466.62,-426.11"/>
<text xml:space="preserve" text-anchor="start" x="365.62" y="-412.61" font-family="FreeSans" font-size="10.00">DGtal::Object&lt; DT26</text>
<text xml:space="preserve" text-anchor="middle" x="412.12" y="-401.36" font-family="FreeSans" font-size="10.00">_6, DigitalSet &gt;</text>
</a>
</g>
</g>
<!-- Node1&#45;&gt;Node22 -->
<g id="edge21_Node000001_Node000022" class="edge">
<title>Node1&#45;&gt;Node22</title>
<g id="a_edge21_Node000001_Node000022"><a xlink:title=" ">
<path fill="none" stroke="orange" stroke-dasharray="5,2" d="M84.27,-719.98C94.7,-647.44 127.19,-450.55 177.25,-412.61 204.52,-391.95 297.21,-397.73 357.39,-404.09"/>
<polygon fill="orange" stroke="orange" points="80.82,-719.38 82.89,-729.77 87.75,-720.36 80.82,-719.38"/>
</a>
</g>
<text xml:space="preserve" text-anchor="start" x="194.5" y="-417.36" font-family="FreeSans" font-size="10.00" fill="grey">&lt; DT26_6, DigitalSet &gt;</text>
</g>
<!-- Node23 -->
<g id="Node000023" class="node">
<title>Node23</title>
<g id="a_Node000023"><a xlink:href="classDGtal_1_1Object.html" target="_top" xlink:title=" ">
<polygon fill="white" stroke="#666666" points="477.88,-374.11 346.38,-374.11 346.38,-343.61 477.88,-343.61 477.88,-374.11"/>
<text xml:space="preserve" text-anchor="start" x="354.38" y="-360.61" font-family="FreeSans" font-size="10.00">DGtal::ComplementObject</text>
<text xml:space="preserve" text-anchor="middle" x="412.12" y="-349.36" font-family="FreeSans" font-size="10.00">&lt; DT26_6, DigitalSet &gt;</text>
</a>
</g>
</g>
<!-- Node1&#45;&gt;Node23 -->
<g id="edge22_Node000001_Node000023" class="edge">
<title>Node1&#45;&gt;Node23</title>
<g id="a_edge22_Node000001_Node000023"><a xlink:title=" ">
<path fill="none" stroke="orange" stroke-dasharray="5,2" d="M83.16,-720.22C91.35,-640.5 119.93,-406.58 177.25,-361.36 202.47,-341.46 285.88,-345.21 345.9,-350.97"/>
<polygon fill="orange" stroke="orange" points="79.72,-719.42 82.21,-729.72 86.69,-720.12 79.72,-719.42"/>
</a>
</g>
<text xml:space="preserve" text-anchor="start" x="192.62" y="-381.36" font-family="FreeSans" font-size="10.00" fill="grey">&lt; DT26_6, DigitalSet</text>
<text xml:space="preserve" text-anchor="start" x="192.62" y="-366.11" font-family="FreeSans" font-size="10.00" fill="grey">   &gt;::ComplementObject</text>
</g>
<!-- Node24 -->
<g id="Node000024" class="node">
<title>Node24</title>
<g id="a_Node000024"><a xlink:href="classDGtal_1_1Object.html" target="_top" xlink:title=" ">
<polygon fill="white" stroke="#666666" points="470.75,-318.11 353.5,-318.11 353.5,-287.61 470.75,-287.61 470.75,-318.11"/>
<text xml:space="preserve" text-anchor="start" x="361.5" y="-304.61" font-family="FreeSans" font-size="10.00">DGtal::SmallObject</text>
<text xml:space="preserve" text-anchor="middle" x="412.12" y="-293.36" font-family="FreeSans" font-size="10.00">&lt; DT26_6, DigitalSet &gt;</text>
</a>
</g>
</g>
<!-- Node1&#45;&gt;Node24 -->
<g id="edge23_Node000001_Node000024" class="edge">
<title>Node1&#45;&gt;Node24</title>
<g id="a_edge23_Node000001_Node000024"><a xlink:title=" ">
<path fill="none" stroke="orange" stroke-dasharray="5,2" d="M82.41,-719.72C88.76,-632.72 113.34,-363.38 177.25,-310.36 203.04,-288.96 292.74,-292.03 353.26,-296.92"/>
<polygon fill="orange" stroke="orange" points="78.92,-719.46 81.71,-729.68 85.91,-719.95 78.92,-719.46"/>
</a>
</g>
<text xml:space="preserve" text-anchor="start" x="199" y="-330.36" font-family="FreeSans" font-size="10.00" fill="grey">&lt; DT26_6, DigitalSet</text>
<text xml:space="preserve" text-anchor="start" x="199" y="-315.11" font-family="FreeSans" font-size="10.00" fill="grey">   &gt;::SmallObject</text>
</g>
<!-- Node25 -->
<g id="Node000025" class="node">
<title>Node25</title>
<g id="a_Node000025"><a xlink:href="classDGtal_1_1Object.html" target="_top" xlink:title=" ">
<polygon fill="white" stroke="#666666" points="490.25,-262.11 334,-262.11 334,-231.61 490.25,-231.61 490.25,-262.11"/>
<text xml:space="preserve" text-anchor="start" x="342" y="-248.61" font-family="FreeSans" font-size="10.00">DGtal::SmallComplementObject</text>
<text xml:space="preserve" text-anchor="middle" x="412.12" y="-237.36" font-family="FreeSans" font-size="10.00">&lt; DT26_6, DigitalSet &gt;</text>
</a>
</g>
</g>
<!-- Node1&#45;&gt;Node25 -->
<g id="edge24_Node000001_Node000025" class="edge">
<title>Node1&#45;&gt;Node25</title>
<g id="a_edge24_Node000001_Node000025"><a xlink:title=" ">
<path fill="none" stroke="orange" stroke-dasharray="5,2" d="M81.74,-719.9C86.2,-626.41 106.15,-318.52 177.25,-257.36 200.05,-237.75 274.66,-237.3 333.55,-240.42"/>
<polygon fill="orange" stroke="orange" points="78.25,-719.49 81.3,-729.64 85.25,-719.81 78.25,-719.49"/>
</a>
</g>
<text xml:space="preserve" text-anchor="start" x="180.25" y="-277.36" font-family="FreeSans" font-size="10.00" fill="grey">&lt; DT26_6, DigitalSet</text>
<text xml:space="preserve" text-anchor="start" x="180.25" y="-262.11" font-family="FreeSans" font-size="10.00" fill="grey">   &gt;::SmallComplementObject</text>
</g>
<!-- Node26 -->
<g id="Node000026" class="node">
<title>Node26</title>
<g id="a_Node000026"><a xlink:href="classDGtal_1_1Object.html" target="_top" xlink:title=" ">
<polygon fill="white" stroke="#666666" points="493.25,-206.11 331,-206.11 331,-175.61 493.25,-175.61 493.25,-206.11"/>
<text xml:space="preserve" text-anchor="start" x="339" y="-192.61" font-family="FreeSans" font-size="10.00">DGtal::Object&lt; ReverseTopology,</text>
<text xml:space="preserve" text-anchor="middle" x="412.12" y="-181.36" font-family="FreeSans" font-size="10.00"> DigitalSet &gt;</text>
</a>
</g>
</g>
<!-- Node1&#45;&gt;Node26 -->
<g id="edge25_Node000001_Node000026" class="edge">
<title>Node1&#45;&gt;Node26</title>
<g id="a_edge25_Node000001_Node000026"><a xlink:title=" ">
<path fill="none" stroke="orange" stroke-dasharray="5,2" d="M81.17,-719.9C83.78,-619.81 98.49,-271.74 177.25,-202.36 199.48,-182.78 272.21,-181.77 330.72,-184.53"/>
<polygon fill="orange" stroke="orange" points="77.67,-719.75 80.93,-729.83 84.67,-719.91 77.67,-719.75"/>
</a>
</g>
<text xml:space="preserve" text-anchor="start" x="202" y="-222.36" font-family="FreeSans" font-size="10.00" fill="grey">&lt; ReverseTopology,</text>
<text xml:space="preserve" text-anchor="start" x="202" y="-207.11" font-family="FreeSans" font-size="10.00" fill="grey">   DigitalSet &gt;</text>
</g>
<!-- Node27 -->
<g id="Node000027" class="node">
<title>Node27</title>
<g id="a_Node000027"><a xlink:href="classDGtal_1_1Object.html" target="_top" xlink:title=" ">
<polygon fill="white" stroke="#666666" points="488.75,-150.11 335.5,-150.11 335.5,-119.61 488.75,-119.61 488.75,-150.11"/>
<text xml:space="preserve" text-anchor="start" x="343.5" y="-136.61" font-family="FreeSans" font-size="10.00">DGtal::Object&lt; DigitalTopology,</text>
<text xml:space="preserve" text-anchor="middle" x="412.12" y="-125.36" font-family="FreeSans" font-size="10.00"> SmallSet &gt;</text>
</a>
</g>
</g>
<!-- Node1&#45;&gt;Node27 -->
<g id="edge26_Node000001_Node000027" class="edge">
<title>Node1&#45;&gt;Node27</title>
<g id="a_edge26_Node000001_Node000027"><a xlink:title=" ">
<path fill="none" stroke="orange" stroke-dasharray="5,2" d="M80.7,-719.98C81.59,-613.74 90.8,-225.07 177.25,-147.36 199.85,-127.04 275.82,-126.19 335.11,-129"/>
<polygon fill="orange" stroke="orange" points="77.2,-719.7 80.64,-729.72 84.2,-719.75 77.2,-719.7"/>
</a>
</g>
<text xml:space="preserve" text-anchor="start" x="206.5" y="-167.36" font-family="FreeSans" font-size="10.00" fill="grey">&lt; DigitalTopology,</text>
<text xml:space="preserve" text-anchor="start" x="206.5" y="-152.11" font-family="FreeSans" font-size="10.00" fill="grey">   SmallSet &gt;</text>
</g>
<!-- Node28 -->
<g id="Node000028" class="node">
<title>Node28</title>
<g id="a_Node000028"><a xlink:href="classDGtal_1_1Object.html" target="_top" xlink:title=" ">
<polygon fill="white" stroke="#666666" points="493.25,-94.11 331,-94.11 331,-63.61 493.25,-63.61 493.25,-94.11"/>
<text xml:space="preserve" text-anchor="start" x="339" y="-80.61" font-family="FreeSans" font-size="10.00">DGtal::Object&lt; ReverseTopology,</text>
<text xml:space="preserve" text-anchor="middle" x="412.12" y="-69.36" font-family="FreeSans" font-size="10.00"> SmallSet &gt;</text>
</a>
</g>
</g>
<!-- Node1&#45;&gt;Node28 -->
<g id="edge27_Node000001_Node000028" class="edge">
<title>Node1&#45;&gt;Node28</title>
<g id="a_edge27_Node000001_Node000028"><a xlink:title=" ">
<path fill="none" stroke="orange" stroke-dasharray="5,2" d="M80.29,-720.06C79.51,-607.81 82.79,-177.42 177.25,-91.36 199.15,-71.4 271.93,-70.12 330.54,-72.71"/>
<polygon fill="orange" stroke="orange" points="76.79,-719.82 80.38,-729.79 83.79,-719.76 76.79,-719.82"/>
</a>
</g>
<text xml:space="preserve" text-anchor="start" x="202" y="-111.36" font-family="FreeSans" font-size="10.00" fill="grey">&lt; ReverseTopology,</text>
<text xml:space="preserve" text-anchor="start" x="202" y="-96.11" font-family="FreeSans" font-size="10.00" fill="grey">   SmallSet &gt;</text>
</g>
<!-- Node29 -->
<g id="Node000029" class="node">
<title>Node29</title>
<g id="a_Node000029"><a xlink:href="classDGtal_1_1Object.html" target="_top" xlink:title=" ">
<polygon fill="white" stroke="#666666" points="483.5,-38.11 340.75,-38.11 340.75,-7.61 483.5,-7.61 483.5,-38.11"/>
<text xml:space="preserve" text-anchor="start" x="348.75" y="-24.61" font-family="FreeSans" font-size="10.00">DGtal::Object&lt; FixtureDigital</text>
<text xml:space="preserve" text-anchor="middle" x="412.12" y="-13.36" font-family="FreeSans" font-size="10.00">Topology, FixtureDigitalSet &gt;</text>
</a>
</g>
</g>
<!-- Node1&#45;&gt;Node29 -->
<g id="edge28_Node000001_Node000029" class="edge">
<title>Node1&#45;&gt;Node29</title>
<g id="a_edge28_Node000001_Node000029"><a xlink:title=" ">
<path fill="none" stroke="orange" stroke-dasharray="5,2" d="M82.29,-719.81C90.19,-595.48 125.74,-82.83 177.25,-35.36 223.45,7.21 299.07,2.95 351.77,-7.12"/>
<polygon fill="orange" stroke="orange" points="78.8,-719.51 81.67,-729.71 85.79,-719.94 78.8,-719.51"/>
</a>
</g>
<text xml:space="preserve" text-anchor="start" x="191.5" y="-55.36" font-family="FreeSans" font-size="10.00" fill="grey">&lt; FixtureDigitalTopology,</text>
<text xml:space="preserve" text-anchor="start" x="191.5" y="-40.11" font-family="FreeSans" font-size="10.00" fill="grey">   FixtureDigitalSet &gt;</text>
</g>
</g>
</svg>
