<?xml version="1.0" encoding="UTF-8" standalone="no"?>
<!DOCTYPE svg PUBLIC "-//W3C//DTD SVG 1.1//EN"
 "http://www.w3.org/Graphics/SVG/1.1/DTD/svg11.dtd">
<!-- Generated by graphviz version 13.1.2 (20250808.2320)
 -->
<!-- Title: DGtal::ArithmeticalDSS&lt; TCoordinate, TInteger, adjacency &gt; Pages: 1 -->
<svg width="674pt" height="355pt"
 viewBox="0.00 0.00 674.00 355.00" xmlns="http://www.w3.org/2000/svg" xmlns:xlink="http://www.w3.org/1999/xlink">
<g id="graph0" class="graph" transform="scale(1 1) rotate(0) translate(4 350.64)">
<title>DGtal::ArithmeticalDSS&lt; TCoordinate, TInteger, adjacency &gt;</title>
<!-- Node1 -->
<g id="Node000001" class="node">
<title>Node1</title>
<g id="a_Node000001"><a xlink:title="Aim: This class represents a naive (resp. standard) digital straight segment (DSS),...">
<polygon fill="#999999" stroke="#666666" points="122.5,-183.12 0,-183.12 0,-141.38 122.5,-141.38 122.5,-183.12"/>
<text xml:space="preserve" text-anchor="start" x="8" y="-169.62" font-family="FreeSans" font-size="10.00">DGtal::ArithmeticalDSS</text>
<text xml:space="preserve" text-anchor="start" x="8" y="-158.38" font-family="FreeSans" font-size="10.00">&lt; TCoordinate, TInteger,</text>
<text xml:space="preserve" text-anchor="middle" x="61.25" y="-147.12" font-family="FreeSans" font-size="10.00"> adjacency &gt;</text>
</a>
</g>
</g>
<!-- Node1&#45;&gt;Node1 -->
<g id="edge1_Node000001_Node000001" class="edge">
<title>Node1&#45;&gt;Node1</title>
<g id="a_edge1_Node000001_Node000001"><a xlink:title=" ">
<path fill="none" stroke="orange" stroke-dasharray="5,2" d="M48.83,-194.57C51.05,-198.53 55.19,-201.12 61.25,-201.12 72.02,-201.12 76.73,-192.92 75.38,-183.44"/>
<polygon fill="orange" stroke="orange" points="52.33,-194.29 47.35,-184.94 45.41,-195.36 52.33,-194.29"/>
</a>
</g>
<text xml:space="preserve" text-anchor="start" x="8" y="-221.12" font-family="FreeSans" font-size="10.00" fill="grey">&lt; TCoordinate, TInteger,</text>
<text xml:space="preserve" text-anchor="start" x="8" y="-205.88" font-family="FreeSans" font-size="10.00" fill="grey">   adjacency &gt;</text>
</g>
<!-- Node1&#45;&gt;Node1 -->
<g id="edge5_Node000001_Node000001" class="edge">
<title>Node1&#45;&gt;Node1</title>
<g id="a_edge5_Node000001_Node000001"><a xlink:title=" ">
<path fill="none" stroke="orange" stroke-dasharray="5,2" d="M34.08,-194.04C28.62,-213.74 37.67,-233.62 61.25,-233.62 89.06,-233.62 96.67,-205.95 84.07,-183.55"/>
<polygon fill="orange" stroke="orange" points="37.25,-195.53 37.85,-184.95 30.79,-192.84 37.25,-195.53"/>
</a>
</g>
<text xml:space="preserve" text-anchor="start" x="8" y="-253.62" font-family="FreeSans" font-size="10.00" fill="grey">&lt; TCoordinate, TInteger,</text>
<text xml:space="preserve" text-anchor="start" x="8" y="-238.38" font-family="FreeSans" font-size="10.00" fill="grey">   adjacency &gt;</text>
</g>
<!-- Node2 -->
<g id="Node000002" class="node">
<title>Node2</title>
<g id="a_Node000002"><a xlink:href="classDGtal_1_1ArithmeticalDSS.html" target="_top" xlink:title=" ">
<polygon fill="white" stroke="#666666" points="455,-334.5 315.25,-334.5 315.25,-304 455,-304 455,-334.5"/>
<text xml:space="preserve" text-anchor="start" x="323.25" y="-321" font-family="FreeSans" font-size="10.00">DGtal::ArithmeticalDSS</text>
<text xml:space="preserve" text-anchor="middle" x="385.12" y="-309.75" font-family="FreeSans" font-size="10.00">&lt; TCoordinate, TInteger, 4 &gt;</text>
</a>
</g>
</g>
<!-- Node1&#45;&gt;Node2 -->
<g id="edge2_Node000001_Node000002" class="edge">
<title>Node1&#45;&gt;Node2</title>
<g id="a_edge2_Node000001_Node000002"><a xlink:title=" ">
<path fill="none" stroke="orange" stroke-dasharray="5,2" d="M71.71,-194.41C82.76,-225.81 104.31,-272.12 140.5,-295.25 192.16,-328.26 262.96,-331.69 314.92,-328.39"/>
<polygon fill="orange" stroke="orange" points="75.06,-193.41 68.58,-185.03 68.42,-195.62 75.06,-193.41"/>
</a>
</g>
<text xml:space="preserve" text-anchor="start" x="152.5" y="-334.14" font-family="FreeSans" font-size="10.00" fill="grey">&lt; TCoordinate, TInteger, 4 &gt;</text>
</g>
<!-- Node3 -->
<g id="Node000003" class="node">
<title>Node3</title>
<g id="a_Node000003"><a xlink:href="classDGtal_1_1ArithmeticalDSS.html" target="_top" xlink:title=" ">
<polygon fill="white" stroke="#666666" points="455,-285.5 315.25,-285.5 315.25,-255 455,-255 455,-285.5"/>
<text xml:space="preserve" text-anchor="start" x="323.25" y="-272" font-family="FreeSans" font-size="10.00">DGtal::ArithmeticalDSS</text>
<text xml:space="preserve" text-anchor="middle" x="385.12" y="-260.75" font-family="FreeSans" font-size="10.00">&lt; TCoordinate, TInteger, 8 &gt;</text>
</a>
</g>
</g>
<!-- Node1&#45;&gt;Node3 -->
<g id="edge3_Node000001_Node000003" class="edge">
<title>Node1&#45;&gt;Node3</title>
<g id="a_edge3_Node000001_Node000003"><a xlink:title=" ">
<path fill="none" stroke="orange" stroke-dasharray="5,2" d="M83.33,-192.44C97.39,-210.06 117.47,-230.97 140.5,-242.25 194.89,-268.89 264.06,-274.57 314.78,-274.36"/>
<polygon fill="orange" stroke="orange" points="86.34,-190.6 77.47,-184.8 80.78,-194.86 86.34,-190.6"/>
</a>
</g>
<text xml:space="preserve" text-anchor="start" x="152.5" y="-278.62" font-family="FreeSans" font-size="10.00" fill="grey">&lt; TCoordinate, TInteger, 8 &gt;</text>
</g>
<!-- Node4 -->
<g id="Node000004" class="node">
<title>Node4</title>
<g id="a_Node000004"><a xlink:href="classDGtal_1_1ArithmeticalDSS.html" target="_top" xlink:title=" ">
<polygon fill="white" stroke="#666666" points="445.25,-237.12 325,-237.12 325,-195.38 445.25,-195.38 445.25,-237.12"/>
<text xml:space="preserve" text-anchor="start" x="333" y="-223.62" font-family="FreeSans" font-size="10.00">DGtal::ArithmeticalDSS</text>
<text xml:space="preserve" text-anchor="start" x="333" y="-212.38" font-family="FreeSans" font-size="10.00">&lt; Coordinate, Integer,</text>
<text xml:space="preserve" text-anchor="middle" x="385.12" y="-201.12" font-family="FreeSans" font-size="10.00"> adjacency &gt;</text>
</a>
</g>
</g>
<!-- Node1&#45;&gt;Node4 -->
<g id="edge4_Node000001_Node000004" class="edge">
<title>Node1&#45;&gt;Node4</title>
<g id="a_edge4_Node000001_Node000004"><a xlink:title=" ">
<path fill="none" stroke="orange" stroke-dasharray="5,2" d="M133.91,-181.87C136.13,-182.35 138.33,-182.81 140.5,-183.25 202.85,-195.79 275.15,-204.91 324.7,-210.34"/>
<polygon fill="orange" stroke="orange" points="134.74,-178.47 124.21,-179.64 133.17,-185.29 134.74,-178.47"/>
</a>
</g>
<text xml:space="preserve" text-anchor="start" x="167.12" y="-225.71" font-family="FreeSans" font-size="10.00" fill="grey">&lt; Coordinate, Integer,</text>
<text xml:space="preserve" text-anchor="start" x="167.12" y="-210.46" font-family="FreeSans" font-size="10.00" fill="grey">   adjacency &gt;</text>
</g>
<!-- Node5 -->
<g id="Node000005" class="node">
<title>Node5</title>
<g id="a_Node000005"><a xlink:href="classDGtal_1_1ArithmeticalDSS.html" target="_top" xlink:title=" ">
<polygon fill="white" stroke="#666666" points="449,-177.5 321.25,-177.5 321.25,-147 449,-147 449,-177.5"/>
<text xml:space="preserve" text-anchor="start" x="329.25" y="-164" font-family="FreeSans" font-size="10.00">DGtal::ArithmeticalDSS</text>
<text xml:space="preserve" text-anchor="middle" x="385.12" y="-152.75" font-family="FreeSans" font-size="10.00">&lt; Coordinate, Integer, 4 &gt;</text>
</a>
</g>
</g>
<!-- Node1&#45;&gt;Node5 -->
<g id="edge6_Node000001_Node000005" class="edge">
<title>Node1&#45;&gt;Node5</title>
<g id="a_edge6_Node000001_Node000005"><a xlink:title=" ">
<path fill="none" stroke="orange" stroke-dasharray="5,2" d="M134.05,-162.25C190.06,-162.25 267.11,-162.25 320.83,-162.25"/>
<polygon fill="orange" stroke="orange" points="134.31,-158.75 124.31,-162.25 134.31,-165.75 134.31,-158.75"/>
</a>
</g>
<text xml:space="preserve" text-anchor="start" x="158.5" y="-167" font-family="FreeSans" font-size="10.00" fill="grey">&lt; Coordinate, Integer, 4 &gt;</text>
</g>
<!-- Node6 -->
<g id="Node000006" class="node">
<title>Node6</title>
<g id="a_Node000006"><a xlink:href="classDGtal_1_1ArithmeticalDSS.html" target="_top" xlink:title=" ">
<polygon fill="white" stroke="#666666" points="464,-128.5 306.25,-128.5 306.25,-98 464,-98 464,-128.5"/>
<text xml:space="preserve" text-anchor="start" x="314.25" y="-115" font-family="FreeSans" font-size="10.00">DGtal::ArithmeticalDSS</text>
<text xml:space="preserve" text-anchor="middle" x="385.12" y="-103.75" font-family="FreeSans" font-size="10.00">&lt; TCoordinate, TCoordinate, 8 &gt;</text>
</a>
</g>
</g>
<!-- Node1&#45;&gt;Node6 -->
<g id="edge7_Node000001_Node000006" class="edge">
<title>Node1&#45;&gt;Node6</title>
<g id="a_edge7_Node000001_Node000006"><a xlink:title=" ">
<path fill="none" stroke="orange" stroke-dasharray="5,2" d="M133.89,-142.33C136.12,-141.86 138.32,-141.42 140.5,-141 195.27,-130.51 257.78,-123.49 305.77,-119.13"/>
<polygon fill="orange" stroke="orange" points="133.16,-138.91 124.18,-144.53 134.7,-145.74 133.16,-138.91"/>
</a>
</g>
<text xml:space="preserve" text-anchor="start" x="143.5" y="-145.75" font-family="FreeSans" font-size="10.00" fill="grey">&lt; TCoordinate, TCoordinate, 8 &gt;</text>
</g>
<!-- Node8 -->
<g id="Node000008" class="node">
<title>Node8</title>
<g id="a_Node000008"><a xlink:href="classDGtal_1_1ArithmeticalDSS.html" target="_top" xlink:title=" ">
<polygon fill="white" stroke="#666666" points="464,-79.5 306.25,-79.5 306.25,-49 464,-49 464,-79.5"/>
<text xml:space="preserve" text-anchor="start" x="314.25" y="-66" font-family="FreeSans" font-size="10.00">DGtal::ArithmeticalDSS</text>
<text xml:space="preserve" text-anchor="middle" x="385.12" y="-54.75" font-family="FreeSans" font-size="10.00">&lt; TCoordinate, TCoordinate, 4 &gt;</text>
</a>
</g>
</g>
<!-- Node1&#45;&gt;Node8 -->
<g id="edge9_Node000001_Node000008" class="edge">
<title>Node1&#45;&gt;Node8</title>
<g id="a_edge9_Node000001_Node000008"><a xlink:title=" ">
<path fill="none" stroke="orange" stroke-dasharray="5,2" d="M90.6,-133.66C104.5,-121.33 122.16,-107.94 140.5,-100 192.77,-77.35 256.63,-68.6 305.85,-65.41"/>
<polygon fill="orange" stroke="orange" points="88.58,-130.77 83.58,-140.11 93.31,-135.92 88.58,-130.77"/>
</a>
</g>
<text xml:space="preserve" text-anchor="start" x="143.5" y="-104.75" font-family="FreeSans" font-size="10.00" fill="grey">&lt; TCoordinate, TCoordinate, 4 &gt;</text>
</g>
<!-- Node10 -->
<g id="Node000010" class="node">
<title>Node10</title>
<g id="a_Node000010"><a xlink:href="classDGtal_1_1ArithmeticalDSS.html" target="_top" xlink:title=" ">
<polygon fill="white" stroke="#666666" points="449,-30.5 321.25,-30.5 321.25,0 449,0 449,-30.5"/>
<text xml:space="preserve" text-anchor="start" x="329.25" y="-17" font-family="FreeSans" font-size="10.00">DGtal::ArithmeticalDSS</text>
<text xml:space="preserve" text-anchor="middle" x="385.12" y="-5.75" font-family="FreeSans" font-size="10.00">&lt; Coordinate, Integer, 8 &gt;</text>
</a>
</g>
</g>
<!-- Node1&#45;&gt;Node10 -->
<g id="edge11_Node000001_Node000010" class="edge">
<title>Node1&#45;&gt;Node10</title>
<g id="a_edge11_Node000001_Node000010"><a xlink:title=" ">
<path fill="none" stroke="orange" stroke-dasharray="5,2" d="M74.52,-130.74C86.87,-103.53 108.68,-65.6 140.5,-46 194.77,-12.58 268.74,-7.71 320.89,-9.44"/>
<polygon fill="orange" stroke="orange" points="71.46,-128.99 70.7,-139.55 77.89,-131.77 71.46,-128.99"/>
</a>
</g>
<text xml:space="preserve" text-anchor="start" x="158.5" y="-50.75" font-family="FreeSans" font-size="10.00" fill="grey">&lt; Coordinate, Integer, 8 &gt;</text>
</g>
<!-- Node7 -->
<g id="Node000007" class="node">
<title>Node7</title>
<g id="a_Node000007"><a xlink:href="classDGtal_1_1NaiveDSS8.html" target="_top" xlink:title="Aim: This class represents a standard digital straight segment (DSS), ie. the sequence of simply 8&#45;co...">
<polygon fill="white" stroke="#666666" points="665.5,-128.5 501,-128.5 501,-98 665.5,-98 665.5,-128.5"/>
<text xml:space="preserve" text-anchor="start" x="509" y="-115" font-family="FreeSans" font-size="10.00">DGtal::NaiveDSS8&lt; TCoordinate,</text>
<text xml:space="preserve" text-anchor="middle" x="583.25" y="-103.75" font-family="FreeSans" font-size="10.00"> TInteger &gt;</text>
</a>
</g>
</g>
<!-- Node6&#45;&gt;Node7 -->
<g id="edge8_Node000006_Node000007" class="edge">
<title>Node6&#45;&gt;Node7</title>
<g id="a_edge8_Node000006_Node000007"><a xlink:title=" ">
<path fill="none" stroke="#63b8ff" d="M475.78,-113.25C484.12,-113.25 492.55,-113.25 500.81,-113.25"/>
<polygon fill="#63b8ff" stroke="#63b8ff" points="476,-109.75 466,-113.25 476,-116.75 476,-109.75"/>
</a>
</g>
</g>
<!-- Node9 -->
<g id="Node000009" class="node">
<title>Node9</title>
<g id="a_Node000009"><a xlink:href="classDGtal_1_1StandardDSS4.html" target="_top" xlink:title="Aim: This class represents a standard digital straight segment (DSS), ie. the sequence of simply 4&#45;co...">
<polygon fill="white" stroke="#666666" points="647.88,-79.5 518.62,-79.5 518.62,-49 647.88,-49 647.88,-79.5"/>
<text xml:space="preserve" text-anchor="start" x="526.62" y="-66" font-family="FreeSans" font-size="10.00">DGtal::StandardDSS4</text>
<text xml:space="preserve" text-anchor="middle" x="583.25" y="-54.75" font-family="FreeSans" font-size="10.00">&lt; TCoordinate, TInteger &gt;</text>
</a>
</g>
</g>
<!-- Node8&#45;&gt;Node9 -->
<g id="edge10_Node000008_Node000009" class="edge">
<title>Node8&#45;&gt;Node9</title>
<g id="a_edge10_Node000008_Node000009"><a xlink:title=" ">
<path fill="none" stroke="#63b8ff" d="M475.86,-64.25C490.13,-64.25 504.64,-64.25 518.17,-64.25"/>
<polygon fill="#63b8ff" stroke="#63b8ff" points="476,-60.75 466,-64.25 476,-67.75 476,-60.75"/>
</a>
</g>
</g>
</g>
</svg>
