<?xml version="1.0" encoding="UTF-8" standalone="no"?>
<!DOCTYPE svg PUBLIC "-//W3C//DTD SVG 1.1//EN"
 "http://www.w3.org/Graphics/SVG/1.1/DTD/svg11.dtd">
<!-- Generated by graphviz version 13.0.1 (20250615.1724)
 -->
<!-- Title: DGtal::MPolynomial&lt; n, TRing, TAlloc &gt; Pages: 1 -->
<!--zoomable 495 -->

<svg id="main" version="1.1" xmlns="http://www.w3.org/2000/svg" xmlns:xlink="http://www.w3.org/1999/xlink" xml:space="preserve" onload="init(evt)">

<style type="text/css"><![CDATA[
.node, .edge {opacity: 0.7;}
.node.selected, .edge.selected {opacity: 1;}
.edge:hover path { stroke: red; }
.edge:hover polygon { stroke: red; fill: red; }
]]></style>

<defs>
  <circle id="rim" cx="0" cy="0" r="7"/>
  <circle id="rim2" cx="0" cy="0" r="3.5"/>
  <g id="zoomPlus">
    <use xlink:href="#rim" fill="#404040"><set attributeName="fill" to="#808080" begin="zoomplus.mouseover" end="zoomplus.mouseout"/></use>
    <path d="M-4,0h8M0,-4v8" fill="none" stroke="white" stroke-width="1.5" pointer-events="none"/>
  </g>
  <g id="zoomMin">
    <use xlink:href="#rim" fill="#404040"><set attributeName="fill" to="#808080" begin="zoomminus.mouseover" end="zoomminus.mouseout"/></use>
    <path d="M-4,0h8" fill="none" stroke="white" stroke-width="1.5" pointer-events="none"/>
  </g>
  <g id="arrowUp" transform="translate(30 24)">
    <use xlink:href="#rim"/>
    <path pointer-events="none" fill="none" stroke="white" stroke-width="1.5" d="M0,-3.0v7 M-2.5,-0.5L0,-3.0L2.5,-0.5"/>
  </g>
  <g id="arrowRight" transform="rotate(90) translate(36 -43)">
    <use xlink:href="#rim"/>
    <path pointer-events="none" fill="none" stroke="white" stroke-width="1.5" d="M0,-3.0v7 M-2.5,-0.5L0,-3.0L2.5,-0.5"/>
  </g>
  <g id="arrowDown" transform="rotate(180) translate(-30 -48)">
    <use xlink:href="#rim"/>
    <path pointer-events="none" fill="none" stroke="white" stroke-width="1.5" d="M0,-3.0v7 M-2.5,-0.5L0,-3.0L2.5,-0.5"/>
  </g>
  <g id="arrowLeft" transform="rotate(270) translate(-36 17)">
    <use xlink:href="#rim"/>
    <path pointer-events="none" fill="none" stroke="white" stroke-width="1.5" d="M0,-3.0v7 M-2.5,-0.5L0,-3.0L2.5,-0.5"/>
  </g>
  <g id="resetDef">
    <use xlink:href="#rim2" fill="#404040"><set attributeName="fill" to="#808080" begin="reset.mouseover" end="reset.mouseout"/></use>
  </g>
</defs>
<script type="application/ecmascript">
var viewWidth = 400;
var viewHeight = 495;
var sectionId = 'dynsection-0';
</script>
<script type="application/ecmascript" xlink:href="svg.min.js"/>
<svg id="graph" class="graph">
<g id="viewport">
<title>DGtal::MPolynomial&lt; n, TRing, TAlloc &gt;</title>
<!-- Node1 -->
<g id="Node000001" class="node">
<title>Node1</title>
<g id="a_Node000001"><a xlink:title="Aim: Represents a multivariate polynomial, i.e. an element of , where K is some ring or field.">
<polygon fill="#999999" stroke="#666666" points="104.5,-226.5 0,-226.5 0,-196 104.5,-196 104.5,-226.5"/>
<text xml:space="preserve" text-anchor="start" x="8" y="-213" font-family="FreeSans" font-size="10.00">DGtal::MPolynomial</text>
<text xml:space="preserve" text-anchor="middle" x="52.25" y="-201.75" font-family="FreeSans" font-size="10.00">&lt; n, TRing, TAlloc &gt;</text>
</a>
</g>
</g>
<!-- Node2 -->
<g id="Node000002" class="node">
<title>Node2</title>
<g id="a_Node000002"><a xlink:href="classDGtal_1_1MPolynomial.html" target="_top" xlink:title=" ">
<polygon fill="white" stroke="#666666" points="381.12,-465.12 275.12,-465.12 275.12,-423.38 381.12,-423.38 381.12,-465.12"/>
<text xml:space="preserve" text-anchor="start" x="283.12" y="-451.62" font-family="FreeSans" font-size="10.00">DGtal::MPolynomial</text>
<text xml:space="preserve" text-anchor="start" x="283.12" y="-440.38" font-family="FreeSans" font-size="10.00">&lt; Space::dimension,</text>
<text xml:space="preserve" text-anchor="middle" x="328.12" y="-429.12" font-family="FreeSans" font-size="10.00"> Scalar &gt;</text>
</a>
</g>
</g>
<!-- Node1&#45;&gt;Node2 -->
<g id="edge1_Node000001_Node000002" class="edge">
<title>Node1&#45;&gt;Node2</title>
<g id="a_edge1_Node000001_Node000002"><a xlink:title=" ">
<path fill="none" stroke="orange" stroke-dasharray="5,2" d="M53.45,-238.02C55.36,-283.59 66.4,-375.69 122.5,-421.25 164.96,-455.73 229.76,-457.21 275.02,-452.82"/>
<polygon fill="orange" stroke="orange" points="56.95,-238.14 53.17,-228.25 49.95,-238.34 56.95,-238.14"/>
</a>
</g>
<text xml:space="preserve" text-anchor="start" x="139.38" y="-474.59" font-family="FreeSans" font-size="10.00" fill="grey">&lt; Space::dimension,</text>
<text xml:space="preserve" text-anchor="start" x="139.38" y="-459.34" font-family="FreeSans" font-size="10.00" fill="grey">   Scalar &gt;</text>
</g>
<!-- Node3 -->
<g id="Node000003" class="node">
<title>Node3</title>
<g id="a_Node000003"><a xlink:href="classDGtal_1_1MPolynomial.html" target="_top" xlink:title=" ">
<polygon fill="white" stroke="#666666" points="380,-405.5 276.25,-405.5 276.25,-375 380,-375 380,-405.5"/>
<text xml:space="preserve" text-anchor="start" x="284.25" y="-392" font-family="FreeSans" font-size="10.00">DGtal::MPolynomial</text>
<text xml:space="preserve" text-anchor="middle" x="328.12" y="-380.75" font-family="FreeSans" font-size="10.00">&lt; n, Ring, Alloc &gt;</text>
</a>
</g>
</g>
<!-- Node1&#45;&gt;Node3 -->
<g id="edge2_Node000001_Node000003" class="edge">
<title>Node1&#45;&gt;Node3</title>
<g id="a_edge2_Node000001_Node000003"><a xlink:title=" ">
<path fill="none" stroke="orange" stroke-dasharray="5,2" d="M56.8,-237.99C63.12,-274 79.93,-337.13 122.5,-368.25 166.63,-400.51 231.1,-402.07 275.84,-398.1"/>
<polygon fill="orange" stroke="orange" points="60.31,-237.73 55.28,-228.4 53.39,-238.83 60.31,-237.73"/>
</a>
</g>
<text xml:space="preserve" text-anchor="start" x="146.12" y="-404.4" font-family="FreeSans" font-size="10.00" fill="grey">&lt; n, Ring, Alloc &gt;</text>
</g>
<!-- Node4 -->
<g id="Node000004" class="node">
<title>Node4</title>
<g id="a_Node000004"><a xlink:href="classDGtal_1_1MPolynomial.html" target="_top" xlink:title=" ">
<polygon fill="white" stroke="#666666" points="380,-356.5 276.25,-356.5 276.25,-326 380,-326 380,-356.5"/>
<text xml:space="preserve" text-anchor="start" x="284.25" y="-343" font-family="FreeSans" font-size="10.00">DGtal::MPolynomial</text>
<text xml:space="preserve" text-anchor="middle" x="328.12" y="-331.75" font-family="FreeSans" font-size="10.00">&lt; 1, Ring &gt;</text>
</a>
</g>
</g>
<!-- Node1&#45;&gt;Node4 -->
<g id="edge3_Node000001_Node000004" class="edge">
<title>Node1&#45;&gt;Node4</title>
<g id="a_edge3_Node000001_Node000004"><a xlink:title=" ">
<path fill="none" stroke="orange" stroke-dasharray="5,2" d="M62.32,-237.38C72.65,-262.87 92.14,-300.47 122.5,-319.25 168.69,-347.82 232.17,-350.22 276.12,-347.45"/>
<polygon fill="orange" stroke="orange" points="65.72,-236.46 58.87,-228.37 59.18,-238.96 65.72,-236.46"/>
</a>
</g>
<text xml:space="preserve" text-anchor="start" x="159.62" y="-353.04" font-family="FreeSans" font-size="10.00" fill="grey">&lt; 1, Ring &gt;</text>
</g>
<!-- Node5 -->
<g id="Node000005" class="node">
<title>Node5</title>
<g id="a_Node000005"><a xlink:href="classDGtal_1_1MPolynomial.html" target="_top" xlink:title=" ">
<polygon fill="white" stroke="#666666" points="392,-308.38 264.25,-308.38 264.25,-244.12 392,-244.12 392,-308.38"/>
<text xml:space="preserve" text-anchor="start" x="272.25" y="-294.88" font-family="FreeSans" font-size="10.00">DGtal::MPolynomial</text>
<text xml:space="preserve" text-anchor="start" x="272.25" y="-283.62" font-family="FreeSans" font-size="10.00">&lt; n &#45; 1, X, typename</text>
<text xml:space="preserve" text-anchor="start" x="272.25" y="-272.38" font-family="FreeSans" font-size="10.00"> std::allocator_traits</text>
<text xml:space="preserve" text-anchor="start" x="272.25" y="-261.12" font-family="FreeSans" font-size="10.00">&lt; Alloc &gt;::template rebind</text>
<text xml:space="preserve" text-anchor="middle" x="328.12" y="-249.88" font-family="FreeSans" font-size="10.00">_alloc&lt; X &gt; &gt;</text>
</a>
</g>
</g>
<!-- Node1&#45;&gt;Node5 -->
<g id="edge4_Node000001_Node000005" class="edge">
<title>Node1&#45;&gt;Node5</title>
<g id="a_edge4_Node000001_Node000005"><a xlink:title=" ">
<path fill="none" stroke="orange" stroke-dasharray="5,2" d="M113.57,-229.94C116.58,-230.75 119.57,-231.52 122.5,-232.25 176.88,-245.73 191.54,-244.19 246.25,-256.25 252.04,-257.53 258.05,-258.91 264.06,-260.33"/>
<polygon fill="orange" stroke="orange" points="114.66,-226.61 104.09,-227.31 112.79,-233.36 114.66,-226.61"/>
</a>
</g>
<text xml:space="preserve" text-anchor="start" x="125.5" y="-306.75" font-family="FreeSans" font-size="10.00" fill="grey">&lt; n &#45; 1, X, typename</text>
<text xml:space="preserve" text-anchor="start" x="125.5" y="-291.5" font-family="FreeSans" font-size="10.00" fill="grey">   std::allocator_traits</text>
<text xml:space="preserve" text-anchor="start" x="125.5" y="-276.25" font-family="FreeSans" font-size="10.00" fill="grey">  &lt; Alloc &gt;::template rebind</text>
<text xml:space="preserve" text-anchor="start" x="125.5" y="-261" font-family="FreeSans" font-size="10.00" fill="grey">  _alloc&lt; X &gt; &gt;</text>
</g>
<!-- Node6 -->
<g id="Node000006" class="node">
<title>Node6</title>
<g id="a_Node000006"><a xlink:href="classDGtal_1_1MPolynomial.html" target="_top" xlink:title=" ">
<polygon fill="white" stroke="#666666" points="380,-226.5 276.25,-226.5 276.25,-196 380,-196 380,-226.5"/>
<text xml:space="preserve" text-anchor="start" x="284.25" y="-213" font-family="FreeSans" font-size="10.00">DGtal::MPolynomial</text>
<text xml:space="preserve" text-anchor="middle" x="328.12" y="-201.75" font-family="FreeSans" font-size="10.00">&lt; 1, Ring, Alloc &gt;</text>
</a>
</g>
</g>
<!-- Node1&#45;&gt;Node6 -->
<g id="edge5_Node000001_Node000006" class="edge">
<title>Node1&#45;&gt;Node6</title>
<g id="a_edge5_Node000001_Node000006"><a xlink:title=" ">
<path fill="none" stroke="orange" stroke-dasharray="5,2" d="M116.05,-211.25C164.46,-211.25 230.58,-211.25 275.84,-211.25"/>
<polygon fill="orange" stroke="orange" points="116.28,-207.75 106.28,-211.25 116.28,-214.75 116.28,-207.75"/>
</a>
</g>
<text xml:space="preserve" text-anchor="start" x="146.12" y="-216" font-family="FreeSans" font-size="10.00" fill="grey">&lt; 1, Ring, Alloc &gt;</text>
</g>
<!-- Node7 -->
<g id="Node000007" class="node">
<title>Node7</title>
<g id="a_Node000007"><a xlink:href="classDGtal_1_1MPolynomial.html" target="_top" xlink:title=" ">
<polygon fill="white" stroke="#666666" points="381.5,-177.5 274.75,-177.5 274.75,-147 381.5,-147 381.5,-177.5"/>
<text xml:space="preserve" text-anchor="start" x="282.75" y="-164" font-family="FreeSans" font-size="10.00">DGtal::MPolynomial</text>
<text xml:space="preserve" text-anchor="middle" x="328.12" y="-152.75" font-family="FreeSans" font-size="10.00">&lt; n &#45; 1, Ring, Alloc &gt;</text>
</a>
</g>
</g>
<!-- Node1&#45;&gt;Node7 -->
<g id="edge6_Node000001_Node000007" class="edge">
<title>Node1&#45;&gt;Node7</title>
<g id="a_edge6_Node000001_Node000007"><a xlink:title=" ">
<path fill="none" stroke="orange" stroke-dasharray="5,2" d="M111.63,-192.6C115.29,-191.66 118.94,-190.78 122.5,-190 173.62,-178.77 232.99,-171.32 274.57,-167"/>
<polygon fill="orange" stroke="orange" points="110.85,-189.19 102.12,-195.19 112.69,-195.94 110.85,-189.19"/>
</a>
</g>
<text xml:space="preserve" text-anchor="start" x="139" y="-194.75" font-family="FreeSans" font-size="10.00" fill="grey">&lt; n &#45; 1, Ring, Alloc &gt;</text>
</g>
<!-- Node8 -->
<g id="Node000008" class="node">
<title>Node8</title>
<g id="a_Node000008"><a xlink:href="classDGtal_1_1MPolynomial.html" target="_top" xlink:title=" ">
<polygon fill="white" stroke="#666666" points="380,-128.5 276.25,-128.5 276.25,-98 380,-98 380,-128.5"/>
<text xml:space="preserve" text-anchor="start" x="284.25" y="-115" font-family="FreeSans" font-size="10.00">DGtal::MPolynomial</text>
<text xml:space="preserve" text-anchor="middle" x="328.12" y="-103.75" font-family="FreeSans" font-size="10.00">&lt; 0, Ring, Alloc &gt;</text>
</a>
</g>
</g>
<!-- Node1&#45;&gt;Node8 -->
<g id="edge7_Node000001_Node000008" class="edge">
<title>Node1&#45;&gt;Node8</title>
<g id="a_edge7_Node000001_Node000008"><a xlink:title=" ">
<path fill="none" stroke="orange" stroke-dasharray="5,2" d="M73.68,-187.16C86.36,-173.8 103.78,-158.1 122.5,-149 171.15,-125.34 233.04,-117.14 275.95,-114.39"/>
<polygon fill="orange" stroke="orange" points="71.25,-184.64 67.09,-194.38 76.42,-189.36 71.25,-184.64"/>
</a>
</g>
<text xml:space="preserve" text-anchor="start" x="146.12" y="-153.75" font-family="FreeSans" font-size="10.00" fill="grey">&lt; 0, Ring, Alloc &gt;</text>
</g>
<!-- Node9 -->
<g id="Node000009" class="node">
<title>Node9</title>
<g id="a_Node000009"><a xlink:href="classDGtal_1_1MPolynomial.html" target="_top" xlink:title=" ">
<polygon fill="white" stroke="#666666" points="380,-79.5 276.25,-79.5 276.25,-49 380,-49 380,-79.5"/>
<text xml:space="preserve" text-anchor="start" x="284.25" y="-66" font-family="FreeSans" font-size="10.00">DGtal::MPolynomial</text>
<text xml:space="preserve" text-anchor="middle" x="328.12" y="-54.75" font-family="FreeSans" font-size="10.00">&lt; 3, Ring &gt;</text>
</a>
</g>
</g>
<!-- Node1&#45;&gt;Node9 -->
<g id="edge8_Node000001_Node000009" class="edge">
<title>Node1&#45;&gt;Node9</title>
<g id="a_edge8_Node000001_Node000009"><a xlink:title=" ">
<path fill="none" stroke="orange" stroke-dasharray="5,2" d="M61.57,-184.95C71.54,-158.02 90.97,-117.19 122.5,-96 168,-65.41 231.9,-60 276.14,-60.62"/>
<polygon fill="orange" stroke="orange" points="58.36,-183.52 58.37,-194.12 64.97,-185.83 58.36,-183.52"/>
</a>
</g>
<text xml:space="preserve" text-anchor="start" x="159.62" y="-100.75" font-family="FreeSans" font-size="10.00" fill="grey">&lt; 3, Ring &gt;</text>
</g>
<!-- Node10 -->
<g id="Node000010" class="node">
<title>Node10</title>
<g id="a_Node000010"><a xlink:href="classDGtal_1_1MPolynomial_3_010_00_01TRing_00_01TAlloc_01_4.html" target="_top" xlink:title="Aim: Specialization of MPolynomial for degree 0.">
<polygon fill="white" stroke="#666666" points="380.38,-30.5 275.88,-30.5 275.88,0 380.38,0 380.38,-30.5"/>
<text xml:space="preserve" text-anchor="start" x="283.88" y="-17" font-family="FreeSans" font-size="10.00">DGtal::MPolynomial</text>
<text xml:space="preserve" text-anchor="middle" x="328.12" y="-5.75" font-family="FreeSans" font-size="10.00">&lt; 0, TRing, TAlloc &gt;</text>
</a>
</g>
</g>
<!-- Node1&#45;&gt;Node10 -->
<g id="edge9_Node000001_Node000010" class="edge">
<title>Node1&#45;&gt;Node10</title>
<g id="a_edge9_Node000001_Node000010"><a xlink:title=" ">
<path fill="none" stroke="orange" stroke-dasharray="5,2" d="M55.82,-184.22C61.05,-145.51 76.66,-75.1 122.5,-40 165.97,-6.72 230.57,-4.38 275.52,-7.88"/>
<polygon fill="orange" stroke="orange" points="52.35,-183.74 54.64,-194.09 59.3,-184.57 52.35,-183.74"/>
</a>
</g>
<text xml:space="preserve" text-anchor="start" x="140.12" y="-44.75" font-family="FreeSans" font-size="10.00" fill="grey">&lt; 0, TRing, TAlloc &gt;</text>
</g>
</g>
</svg>

<g id="navigator" transform="translate(0 0)" fill="#404254">
  <rect fill="#f2f5e9" fill-opacity="0.5" stroke="#606060" stroke-width=".5" x="0" y="0" width="60" height="60"/>
  <use id="zoomplus" xlink:href="#zoomPlus" x="17" y="9" onmousedown="handleZoom(evt,'in')"/>
  <use id="zoomminus" xlink:href="#zoomMin" x="42" y="9" onmousedown="handleZoom(evt,'out')"/>
  <use id="reset" xlink:href="#resetDef" x="30" y="36" onmousedown="handleReset()"/>
   <use id="arrowup" xlink:href="#arrowUp" x="0" y="0" onmousedown="handlePan(0,-1)"/>
  <use id="arrowright" xlink:href="#arrowRight" x="0" y="0" onmousedown="handlePan(1,0)"/>
  <use id="arrowdown" xlink:href="#arrowDown" x="0" y="0" onmousedown="handlePan(0,1)"/>
  <use id="arrowleft" xlink:href="#arrowLeft" x="0" y="0" onmousedown="handlePan(-1,0)"/>
</g>
<svg viewBox="0 0 15 15" width="100%" height="30px" preserveAspectRatio="xMaxYMin meet">
 <g id="arrow_out" transform="scale(0.3 0.3)">
  <a xlink:href="classDGtal_1_1MPolynomial__inherit__graph_org.svg" target="_base">
   <rect id="button" ry="5" rx="5" y="6" x="6" height="38" width="38"
        fill="#f2f5e9" fill-opacity="0.5" stroke="#606060" stroke-width="1.0"/>
   <path id="arrow"
     d="M 11.500037,31.436501 C 11.940474,20.09759 22.043105,11.32322 32.158766,21.979434 L 37.068811,17.246167 C 37.068811,17.246167 37.088388,32 37.088388,32 L 22.160133,31.978069 C 22.160133,31.978069 26.997745,27.140456 26.997745,27.140456 C 18.528582,18.264221 13.291696,25.230495 11.500037,31.436501 z"
     style="fill:#404040;"/>
  </a>
 </g>
</svg>

<style type='text/css'>
<![CDATA[
[data-mouse-over-selected='false'] { opacity: 0.7; }
[data-mouse-over-selected='true']  { opacity: 1.0; }
]]>
</style>
<script type="application/ecmascript"><![CDATA[
document.addEventListener('DOMContentLoaded', (event) => {
  highlightEdges();
  highlightAdjacentNodes();
});
]]></script>
</svg>
