<?xml version="1.0" encoding="UTF-8" standalone="no"?>
<!DOCTYPE svg PUBLIC "-//W3C//DTD SVG 1.1//EN"
 "http://www.w3.org/Graphics/SVG/1.1/DTD/svg11.dtd">
<!-- Generated by graphviz version 13.1.2 (20250808.2320)
 -->
<!-- Title: DGtal::HyperRectDomain&lt; TSpace &gt; Pages: 1 -->
<svg width="284pt" height="122pt"
 viewBox="0.00 0.00 284.00 122.00" xmlns="http://www.w3.org/2000/svg" xmlns:xlink="http://www.w3.org/1999/xlink">
<g id="graph0" class="graph" transform="scale(1 1) rotate(0) translate(4 118.25)">
<title>DGtal::HyperRectDomain&lt; TSpace &gt;</title>
<!-- Node1 -->
<g id="Node000001" class="node">
<title>Node1</title>
<g id="a_Node000001"><a xlink:title="Aim: Parallelepidec region of a digital space, model of a &#39;CDomain&#39;.">
<polygon fill="#999999" stroke="#666666" points="201.5,-114.25 73,-114.25 73,-83.75 201.5,-83.75 201.5,-114.25"/>
<text xml:space="preserve" text-anchor="start" x="81" y="-100.75" font-family="FreeSans" font-size="10.00">DGtal::HyperRectDomain</text>
<text xml:space="preserve" text-anchor="middle" x="137.25" y="-89.5" font-family="FreeSans" font-size="10.00">&lt; TSpace &gt;</text>
</a>
</g>
</g>
<!-- Node2 -->
<g id="Node000002" class="node">
<title>Node2</title>
<g id="a_Node000002"><a xlink:href="classDGtal_1_1HyperRectDomain.html" target="_top" xlink:title=" ">
<polygon fill="white" stroke="#666666" points="128.5,-30.5 0,-30.5 0,0 128.5,0 128.5,-30.5"/>
<text xml:space="preserve" text-anchor="start" x="8" y="-17" font-family="FreeSans" font-size="10.00">DGtal::HyperRectDomain</text>
<text xml:space="preserve" text-anchor="middle" x="64.25" y="-5.75" font-family="FreeSans" font-size="10.00">&lt; Space &gt;</text>
</a>
</g>
</g>
<!-- Node1&#45;&gt;Node2 -->
<g id="edge1_Node000001_Node000002" class="edge">
<title>Node1&#45;&gt;Node2</title>
<g id="a_edge1_Node000001_Node000002"><a xlink:title=" ">
<path fill="none" stroke="orange" stroke-dasharray="5,2" d="M116.78,-75.08C104.09,-60.86 88.16,-43.02 77.19,-30.74"/>
<polygon fill="orange" stroke="orange" points="113.92,-77.13 123.19,-82.26 119.14,-72.47 113.92,-77.13"/>
</a>
</g>
<text xml:space="preserve" text-anchor="start" x="110.29" y="-53.25" font-family="FreeSans" font-size="10.00" fill="grey">&lt; Space &gt;</text>
</g>
<!-- Node3 -->
<g id="Node000003" class="node">
<title>Node3</title>
<g id="a_Node000003"><a xlink:href="classDGtal_1_1HyperRectDomain.html" target="_top" xlink:title=" ">
<polygon fill="white" stroke="#666666" points="275.5,-30.5 147,-30.5 147,0 275.5,0 275.5,-30.5"/>
<text xml:space="preserve" text-anchor="start" x="155" y="-17" font-family="FreeSans" font-size="10.00">DGtal::HyperRectDomain</text>
<text xml:space="preserve" text-anchor="middle" x="211.25" y="-5.75" font-family="FreeSans" font-size="10.00">&lt; Space2Type &gt;</text>
</a>
</g>
</g>
<!-- Node1&#45;&gt;Node3 -->
<g id="edge2_Node000001_Node000003" class="edge">
<title>Node1&#45;&gt;Node3</title>
<g id="a_edge2_Node000001_Node000003"><a xlink:title=" ">
<path fill="none" stroke="orange" stroke-dasharray="5,2" d="M158,-75.08C170.87,-60.86 187.01,-43.02 198.13,-30.74"/>
<polygon fill="orange" stroke="orange" points="155.61,-72.5 151.5,-82.26 160.8,-77.2 155.61,-72.5"/>
</a>
</g>
<text xml:space="preserve" text-anchor="start" x="183.88" y="-53.25" font-family="FreeSans" font-size="10.00" fill="grey">&lt; Space2Type &gt;</text>
</g>
</g>
</svg>
