<?xml version="1.0" encoding="UTF-8" standalone="no"?>
<!DOCTYPE svg PUBLIC "-//W3C//DTD SVG 1.1//EN"
 "http://www.w3.org/Graphics/SVG/1.1/DTD/svg11.dtd">
<!-- Generated by graphviz version 13.0.1 (20250615.1724)
 -->
<!-- Title: DGtal::detail::GridPoint&lt; Integer, Index &gt; Pages: 1 -->
<svg width="348pt" height="149pt"
 viewBox="0.00 0.00 348.00 149.00" xmlns="http://www.w3.org/2000/svg" xmlns:xlink="http://www.w3.org/1999/xlink">
<g id="graph0" class="graph" transform="scale(1 1) rotate(0) translate(4 144.75)">
<title>DGtal::detail::GridPoint&lt; Integer, Index &gt;</title>
<!-- Node1 -->
<g id="Node000001" class="node">
<title>Node1</title>
<g id="a_Node000001"><a xlink:title="A grid point consists of a couple of nonnegative coordinates &#160;and an integer index &#160;that determines a...">
<polygon fill="#999999" stroke="#666666" points="137.5,-140.75 20.25,-140.75 20.25,-110.25 137.5,-110.25 137.5,-140.75"/>
<text xml:space="preserve" text-anchor="start" x="28.25" y="-127.25" font-family="FreeSans" font-size="10.00">DGtal::detail::GridPoint</text>
<text xml:space="preserve" text-anchor="middle" x="78.88" y="-116" font-family="FreeSans" font-size="10.00">&lt; Integer, Index &gt;</text>
</a>
</g>
</g>
<!-- Node1&#45;&gt;Node1 -->
<g id="edge1_Node000001_Node000001" class="edge">
<title>Node1&#45;&gt;Node1</title>
<g id="a_edge1_Node000001_Node000001"><a xlink:title=" ">
<path fill="none" stroke="orange" stroke-dasharray="5,2" d="M149.4,-128.59C153.23,-127.84 155.5,-126.81 155.5,-125.5 155.5,-123.18 148.32,-121.73 137.99,-121.15"/>
<polygon fill="orange" stroke="orange" points="149.05,-125.11 139.49,-129.68 149.82,-132.06 149.05,-125.11"/>
</a>
</g>
<text xml:space="preserve" text-anchor="start" x="158.5" y="-121.62" font-family="FreeSans" font-size="10.00" fill="grey">&lt; Integer, Index &gt;</text>
</g>
<!-- Node1&#45;&gt;Node1 -->
<g id="edge2_Node000001_Node000001" class="edge">
<title>Node1&#45;&gt;Node1</title>
<g id="a_edge2_Node000001_Node000001"><a xlink:title=" ">
<path fill="none" stroke="orange" stroke-dasharray="5,2" d="M149.15,-134.42C192.81,-135.88 238.75,-132.9 238.75,-125.5 238.75,-117.45 184.46,-114.64 137.83,-117.06"/>
<polygon fill="orange" stroke="orange" points="149.48,-130.93 139.34,-134.01 149.18,-137.93 149.48,-130.93"/>
</a>
</g>
<text xml:space="preserve" text-anchor="start" x="241.75" y="-121.62" font-family="FreeSans" font-size="10.00" fill="grey">&lt; Integer, Index &gt;</text>
</g>
<!-- Node2 -->
<g id="Node000002" class="node">
<title>Node2</title>
<g id="a_Node000002"><a xlink:href="classDGtal_1_1detail_1_1GridPoint.html" target="_top" xlink:title=" ">
<polygon fill="white" stroke="#666666" points="157.75,-41.75 0,-41.75 0,0 157.75,0 157.75,-41.75"/>
<text xml:space="preserve" text-anchor="start" x="8" y="-28.25" font-family="FreeSans" font-size="10.00">DGtal::detail::GridPoint</text>
<text xml:space="preserve" text-anchor="start" x="8" y="-17" font-family="FreeSans" font-size="10.00">&lt; int, DGtal::TangencyComputer</text>
<text xml:space="preserve" text-anchor="middle" x="78.88" y="-5.75" font-family="FreeSans" font-size="10.00">&lt; KSpace &gt;::std::size_t &gt;</text>
</a>
</g>
</g>
<!-- Node1&#45;&gt;Node2 -->
<g id="edge3_Node000001_Node000002" class="edge">
<title>Node1&#45;&gt;Node2</title>
<g id="a_edge3_Node000001_Node000002"><a xlink:title=" ">
<path fill="none" stroke="orange" stroke-dasharray="5,2" d="M78.88,-98.43C78.88,-80.98 78.88,-58.33 78.88,-42.21"/>
<polygon fill="orange" stroke="orange" points="75.38,-98.28 78.88,-108.28 82.38,-98.28 75.38,-98.28"/>
</a>
</g>
<text xml:space="preserve" text-anchor="start" x="81.88" y="-79.75" font-family="FreeSans" font-size="10.00" fill="grey">&lt; int, DGtal::TangencyComputer</text>
<text xml:space="preserve" text-anchor="start" x="81.88" y="-64.5" font-family="FreeSans" font-size="10.00" fill="grey">  &lt; KSpace &gt;::std::size_t &gt;</text>
</g>
</g>
</svg>
