<?xml version="1.0" encoding="UTF-8" standalone="no"?>
<!DOCTYPE svg PUBLIC "-//W3C//DTD SVG 1.1//EN"
 "http://www.w3.org/Graphics/SVG/1.1/DTD/svg11.dtd">
<!-- Generated by graphviz version 13.1.2 (20250808.2320)
 -->
<!-- Title: DGtal::IteratorCompletion&lt; TDerived &gt; Pages: 1 -->
<svg width="691pt" height="115pt"
 viewBox="0.00 0.00 691.00 115.00" xmlns="http://www.w3.org/2000/svg" xmlns:xlink="http://www.w3.org/1999/xlink">
<g id="graph0" class="graph" transform="scale(1 1) rotate(0) translate(4 111.5)">
<title>DGtal::IteratorCompletion&lt; TDerived &gt;</title>
<!-- Node1 -->
<g id="Node000001" class="node">
<title>Node1</title>
<g id="a_Node000001"><a xlink:title="Aim: Class that uses CRTP to add reverse iterators and ranges to a derived class.">
<polygon fill="#999999" stroke="#666666" points="127.75,-57.5 0,-57.5 0,-27 127.75,-27 127.75,-57.5"/>
<text xml:space="preserve" text-anchor="start" x="8" y="-44" font-family="FreeSans" font-size="10.00">DGtal::IteratorCompletion</text>
<text xml:space="preserve" text-anchor="middle" x="63.88" y="-32.75" font-family="FreeSans" font-size="10.00">&lt; TDerived &gt;</text>
</a>
</g>
</g>
<!-- Node2 -->
<g id="Node000002" class="node">
<title>Node2</title>
<g id="a_Node000002"><a xlink:href="classDGtal_1_1IteratorCompletion.html" target="_top" xlink:title=" ">
<polygon fill="white" stroke="#666666" points="475.25,-90.12 296.5,-90.12 296.5,-48.38 475.25,-48.38 475.25,-90.12"/>
<text xml:space="preserve" text-anchor="start" x="304.5" y="-76.62" font-family="FreeSans" font-size="10.00">DGtal::IteratorCompletion</text>
<text xml:space="preserve" text-anchor="start" x="304.5" y="-65.38" font-family="FreeSans" font-size="10.00">&lt; ArrayImageAdapter&lt; TArrayIterator,</text>
<text xml:space="preserve" text-anchor="middle" x="385.88" y="-54.12" font-family="FreeSans" font-size="10.00"> HyperRectDomain&lt; TSpace &gt; &gt; &gt;</text>
</a>
</g>
</g>
<!-- Node1&#45;&gt;Node2 -->
<g id="edge1_Node000001_Node000002" class="edge">
<title>Node1&#45;&gt;Node2</title>
<g id="a_edge1_Node000001_Node000002"><a xlink:title=" ">
<path fill="none" stroke="orange" stroke-dasharray="5,2" d="M139.37,-48.54C186.16,-52.48 246.76,-57.6 296.04,-61.75"/>
<polygon fill="orange" stroke="orange" points="139.86,-45.06 129.6,-47.71 139.28,-52.04 139.86,-45.06"/>
</a>
</g>
<text xml:space="preserve" text-anchor="start" x="148.75" y="-95" font-family="FreeSans" font-size="10.00" fill="grey">&lt; ArrayImageAdapter</text>
<text xml:space="preserve" text-anchor="start" x="148.75" y="-79.75" font-family="FreeSans" font-size="10.00" fill="grey">  &lt; TArrayIterator, HyperRect</text>
<text xml:space="preserve" text-anchor="start" x="148.75" y="-64.5" font-family="FreeSans" font-size="10.00" fill="grey">  Domain&lt; TSpace &gt; &gt; &gt;</text>
</g>
<!-- Node4 -->
<g id="Node000004" class="node">
<title>Node4</title>
<g id="a_Node000004"><a xlink:href="classDGtal_1_1IteratorCompletion.html" target="_top" xlink:title=" ">
<polygon fill="white" stroke="#666666" points="449.75,-30.5 322,-30.5 322,0 449.75,0 449.75,-30.5"/>
<text xml:space="preserve" text-anchor="start" x="330" y="-17" font-family="FreeSans" font-size="10.00">DGtal::IteratorCompletion</text>
<text xml:space="preserve" text-anchor="middle" x="385.88" y="-5.75" font-family="FreeSans" font-size="10.00">&lt; MyImage&lt; T, N &gt; &gt;</text>
</a>
</g>
</g>
<!-- Node1&#45;&gt;Node4 -->
<g id="edge3_Node000001_Node000004" class="edge">
<title>Node1&#45;&gt;Node4</title>
<g id="a_edge3_Node000001_Node000004"><a xlink:title=" ">
<path fill="none" stroke="orange" stroke-dasharray="5,2" d="M139.14,-28.81C141.36,-28.52 143.57,-28.25 145.75,-28 205.13,-21.21 273.22,-18.03 321.52,-16.54"/>
<polygon fill="orange" stroke="orange" points="138.82,-25.32 129.4,-30.17 139.79,-32.25 138.82,-25.32"/>
</a>
</g>
<text xml:space="preserve" text-anchor="start" x="164.88" y="-32.75" font-family="FreeSans" font-size="10.00" fill="grey">&lt; MyImage&lt; T, N &gt; &gt;</text>
</g>
<!-- Node3 -->
<g id="Node000003" class="node">
<title>Node3</title>
<g id="a_Node000003"><a xlink:href="classDGtal_1_1ArrayImageAdapter_3_01TArrayIterator_00_01HyperRectDomain_3_01TSpace_01_4_01_4.html" target="_top" xlink:title="Aim: Image adapter for generic arrays with sub&#45;domain view capability.">
<polygon fill="white" stroke="#666666" points="682.75,-90.12 512.25,-90.12 512.25,-48.38 682.75,-48.38 682.75,-90.12"/>
<text xml:space="preserve" text-anchor="start" x="520.25" y="-76.62" font-family="FreeSans" font-size="10.00">DGtal::ArrayImageAdapter</text>
<text xml:space="preserve" text-anchor="start" x="520.25" y="-65.38" font-family="FreeSans" font-size="10.00">&lt; TArrayIterator, HyperRectDomain</text>
<text xml:space="preserve" text-anchor="middle" x="597.5" y="-54.12" font-family="FreeSans" font-size="10.00">&lt; TSpace &gt; &gt;</text>
</a>
</g>
</g>
<!-- Node2&#45;&gt;Node3 -->
<g id="edge2_Node000002_Node000003" class="edge">
<title>Node2&#45;&gt;Node3</title>
<g id="a_edge2_Node000002_Node000003"><a xlink:title=" ">
<path fill="none" stroke="#63b8ff" d="M486.85,-69.25C495.23,-69.25 503.65,-69.25 511.9,-69.25"/>
<polygon fill="#63b8ff" stroke="#63b8ff" points="486.98,-65.75 476.98,-69.25 486.98,-72.75 486.98,-65.75"/>
</a>
</g>
</g>
<!-- Node5 -->
<g id="Node000005" class="node">
<title>Node5</title>
<g id="a_Node000005"><a xlink:href="classMyImage.html" target="_top" xlink:title="[includes]">
<polygon fill="white" stroke="#666666" points="643.75,-24.88 551.25,-24.88 551.25,-5.63 643.75,-5.63 643.75,-24.88"/>
<text xml:space="preserve" text-anchor="middle" x="597.5" y="-11.38" font-family="FreeSans" font-size="10.00">MyImage&lt; T, N &gt;</text>
</a>
</g>
</g>
<!-- Node4&#45;&gt;Node5 -->
<g id="edge4_Node000004_Node000005" class="edge">
<title>Node4&#45;&gt;Node5</title>
<g id="a_edge4_Node000004_Node000005"><a xlink:title=" ">
<path fill="none" stroke="#63b8ff" d="M461.3,-15.25C491.15,-15.25 524.6,-15.25 550.76,-15.25"/>
<polygon fill="#63b8ff" stroke="#63b8ff" points="461.57,-11.75 451.57,-15.25 461.57,-18.75 461.57,-11.75"/>
</a>
</g>
</g>
</g>
</svg>
