<?xml version="1.0" encoding="UTF-8" standalone="no"?>
<!DOCTYPE svg PUBLIC "-//W3C//DTD SVG 1.1//EN"
 "http://www.w3.org/Graphics/SVG/1.1/DTD/svg11.dtd">
<!-- Generated by graphviz version 13.0.1 (20250615.1724)
 -->
<!-- Title: benchmarks Pages: 1 -->
<!--zoomable 95 -->

<svg id="main" version="1.1" xmlns="http://www.w3.org/2000/svg" xmlns:xlink="http://www.w3.org/1999/xlink" xml:space="preserve" onload="init(evt)">

<style type="text/css"><![CDATA[
.node, .edge {opacity: 0.7;}
.node.selected, .edge.selected {opacity: 1;}
.edge:hover path { stroke: red; }
.edge:hover polygon { stroke: red; fill: red; }
]]></style>

<defs>
  <circle id="rim" cx="0" cy="0" r="7"/>
  <circle id="rim2" cx="0" cy="0" r="3.5"/>
  <g id="zoomPlus">
    <use xlink:href="#rim" fill="#404040"><set attributeName="fill" to="#808080" begin="zoomplus.mouseover" end="zoomplus.mouseout"/></use>
    <path d="M-4,0h8M0,-4v8" fill="none" stroke="white" stroke-width="1.5" pointer-events="none"/>
  </g>
  <g id="zoomMin">
    <use xlink:href="#rim" fill="#404040"><set attributeName="fill" to="#808080" begin="zoomminus.mouseover" end="zoomminus.mouseout"/></use>
    <path d="M-4,0h8" fill="none" stroke="white" stroke-width="1.5" pointer-events="none"/>
  </g>
  <g id="arrowUp" transform="translate(30 24)">
    <use xlink:href="#rim"/>
    <path pointer-events="none" fill="none" stroke="white" stroke-width="1.5" d="M0,-3.0v7 M-2.5,-0.5L0,-3.0L2.5,-0.5"/>
  </g>
  <g id="arrowRight" transform="rotate(90) translate(36 -43)">
    <use xlink:href="#rim"/>
    <path pointer-events="none" fill="none" stroke="white" stroke-width="1.5" d="M0,-3.0v7 M-2.5,-0.5L0,-3.0L2.5,-0.5"/>
  </g>
  <g id="arrowDown" transform="rotate(180) translate(-30 -48)">
    <use xlink:href="#rim"/>
    <path pointer-events="none" fill="none" stroke="white" stroke-width="1.5" d="M0,-3.0v7 M-2.5,-0.5L0,-3.0L2.5,-0.5"/>
  </g>
  <g id="arrowLeft" transform="rotate(270) translate(-36 17)">
    <use xlink:href="#rim"/>
    <path pointer-events="none" fill="none" stroke="white" stroke-width="1.5" d="M0,-3.0v7 M-2.5,-0.5L0,-3.0L2.5,-0.5"/>
  </g>
  <g id="resetDef">
    <use xlink:href="#rim2" fill="#404040"><set attributeName="fill" to="#808080" begin="reset.mouseover" end="reset.mouseout"/></use>
  </g>
</defs>
<script type="application/ecmascript">
var viewWidth = 587;
var viewHeight = 95;
var sectionId = 'dynsection-0';
</script>
<script type="application/ecmascript" xlink:href="svg.min.js"/>
<svg id="graph" class="graph">
<g id="viewport">
<title>benchmarks</title>
<g id="clust1" class="cluster">
<title>clusterdir_59425e443f801f1f2fd8bbe4959a3ccf</title>
<g id="a_clust1"><a xlink:href="dir_59425e443f801f1f2fd8bbe4959a3ccf.html" target="_top" xlink:title="tests">
<polygon fill="#edf0f7" stroke="#404040" stroke-dasharray="5,2" points="8,-8 8,-78.5 571,-78.5 571,-8 8,-8"/>
<text xml:space="preserve" text-anchor="middle" x="289.5" y="-65" font-family="FreeSans" font-size="10.00">tests</text>
</a>
</g>
</g>
<g id="clust2" class="cluster">
<title>clusterdir_14398671fc603a1b127bf8041b444913</title>
<g id="a_clust2"><a xlink:href="dir_14398671fc603a1b127bf8041b444913.html" target="_top">
<polygon fill="#edf0f7" stroke="#404040" stroke-width="2" points="16,-16 16,-51.25 563,-51.25 563,-16 16,-16"/>
</a>
</g>
</g>
<!-- dir_14398671fc603a1b127bf8041b444913 -->
<g id="node1" class="node">
<title>dir_14398671fc603a1b127bf8041b444913</title>
<text xml:space="preserve" text-anchor="middle" x="59" y="-29.75" font-family="FreeSans" font-size="10.00">benchmarks</text>
</g>
<!-- dir_1c5fa66b463bf0ad0a07a1a8a0a3ec27 -->
<g id="node2" class="node">
<title>dir_1c5fa66b463bf0ad0a07a1a8a0a3ec27</title>
<g id="a_node2"><a xlink:href="dir_1c5fa66b463bf0ad0a07a1a8a0a3ec27.html" target="_top" xlink:title="arithmetic">
<polygon fill="#a2b4d6" stroke="#404040" points="170.38,-43.25 111.62,-43.25 111.62,-24 170.38,-24 170.38,-43.25"/>
<text xml:space="preserve" text-anchor="middle" x="141" y="-29.75" font-family="FreeSans" font-size="10.00">arithmetic</text>
</a>
</g>
</g>
<!-- dir_dae598dacf97a7317abbb057e72a2b0a -->
<g id="node3" class="node">
<title>dir_dae598dacf97a7317abbb057e72a2b0a</title>
<g id="a_node3"><a xlink:href="dir_dae598dacf97a7317abbb057e72a2b0a.html" target="_top" xlink:title="base">
<polygon fill="#a2b4d6" stroke="#404040" points="225.5,-43.25 188.5,-43.25 188.5,-24 225.5,-24 225.5,-43.25"/>
<text xml:space="preserve" text-anchor="middle" x="207" y="-29.75" font-family="FreeSans" font-size="10.00">base</text>
</a>
</g>
</g>
<!-- dir_3ee1a75020f7c11b09076f7cc4149ca9 -->
<g id="node4" class="node">
<title>dir_3ee1a75020f7c11b09076f7cc4149ca9</title>
<g id="a_node4"><a xlink:href="dir_3ee1a75020f7c11b09076f7cc4149ca9.html" target="_top" xlink:title="geometry">
<polygon fill="#a2b4d6" stroke="#404040" points="300.25,-43.25 243.75,-43.25 243.75,-24 300.25,-24 300.25,-43.25"/>
<text xml:space="preserve" text-anchor="middle" x="272" y="-29.75" font-family="FreeSans" font-size="10.00">geometry</text>
</a>
</g>
</g>
<!-- dir_a9a0f133d724cc0c0d1ad75347798c0a -->
<g id="node5" class="node">
<title>dir_a9a0f133d724cc0c0d1ad75347798c0a</title>
<g id="a_node5"><a xlink:href="dir_a9a0f133d724cc0c0d1ad75347798c0a.html" target="_top" xlink:title="graph">
<polygon fill="#a2b4d6" stroke="#404040" points="358,-43.25 318,-43.25 318,-24 358,-24 358,-43.25"/>
<text xml:space="preserve" text-anchor="middle" x="338" y="-29.75" font-family="FreeSans" font-size="10.00">graph</text>
</a>
</g>
</g>
<!-- dir_d3a86dd2148c7473ce17e1beadaf3864 -->
<g id="node6" class="node">
<title>dir_d3a86dd2148c7473ce17e1beadaf3864</title>
<g id="a_node6"><a xlink:href="dir_d3a86dd2148c7473ce17e1beadaf3864.html" target="_top" xlink:title="images">
<polygon fill="#a2b4d6" stroke="#404040" points="423.75,-43.25 376.25,-43.25 376.25,-24 423.75,-24 423.75,-43.25"/>
<text xml:space="preserve" text-anchor="middle" x="400" y="-29.75" font-family="FreeSans" font-size="10.00">images</text>
</a>
</g>
</g>
<!-- dir_a78efa4486733e41c527082f61e528a6 -->
<g id="node7" class="node">
<title>dir_a78efa4486733e41c527082f61e528a6</title>
<g id="a_node7"><a xlink:href="dir_a78efa4486733e41c527082f61e528a6.html" target="_top" xlink:title="kernel">
<polygon fill="#a2b4d6" stroke="#404040" points="484.12,-43.25 441.88,-43.25 441.88,-24 484.12,-24 484.12,-43.25"/>
<text xml:space="preserve" text-anchor="middle" x="463" y="-29.75" font-family="FreeSans" font-size="10.00">kernel</text>
</a>
</g>
</g>
<!-- dir_06f6ef01df3600395cabb7e8f8c5971c -->
<g id="node8" class="node">
<title>dir_06f6ef01df3600395cabb7e8f8c5971c</title>
<g id="a_node8"><a xlink:href="dir_06f6ef01df3600395cabb7e8f8c5971c.html" target="_top" xlink:title="topology">
<polygon fill="#a2b4d6" stroke="#404040" points="555.38,-43.25 502.62,-43.25 502.62,-24 555.38,-24 555.38,-43.25"/>
<text xml:space="preserve" text-anchor="middle" x="529" y="-29.75" font-family="FreeSans" font-size="10.00">topology</text>
</a>
</g>
</g>
</g>
</svg>

<g id="navigator" transform="translate(0 0)" fill="#404254">
  <rect fill="#f2f5e9" fill-opacity="0.5" stroke="#606060" stroke-width=".5" x="0" y="0" width="60" height="60"/>
  <use id="zoomplus" xlink:href="#zoomPlus" x="17" y="9" onmousedown="handleZoom(evt,'in')"/>
  <use id="zoomminus" xlink:href="#zoomMin" x="42" y="9" onmousedown="handleZoom(evt,'out')"/>
  <use id="reset" xlink:href="#resetDef" x="30" y="36" onmousedown="handleReset()"/>
   <use id="arrowup" xlink:href="#arrowUp" x="0" y="0" onmousedown="handlePan(0,-1)"/>
  <use id="arrowright" xlink:href="#arrowRight" x="0" y="0" onmousedown="handlePan(1,0)"/>
  <use id="arrowdown" xlink:href="#arrowDown" x="0" y="0" onmousedown="handlePan(0,1)"/>
  <use id="arrowleft" xlink:href="#arrowLeft" x="0" y="0" onmousedown="handlePan(-1,0)"/>
</g>
<svg viewBox="0 0 15 15" width="100%" height="30px" preserveAspectRatio="xMaxYMin meet">
 <g id="arrow_out" transform="scale(0.3 0.3)">
  <a xlink:href="dir_14398671fc603a1b127bf8041b444913_dep_org.svg" target="_base">
   <rect id="button" ry="5" rx="5" y="6" x="6" height="38" width="38"
        fill="#f2f5e9" fill-opacity="0.5" stroke="#606060" stroke-width="1.0"/>
   <path id="arrow"
     d="M 11.500037,31.436501 C 11.940474,20.09759 22.043105,11.32322 32.158766,21.979434 L 37.068811,17.246167 C 37.068811,17.246167 37.088388,32 37.088388,32 L 22.160133,31.978069 C 22.160133,31.978069 26.997745,27.140456 26.997745,27.140456 C 18.528582,18.264221 13.291696,25.230495 11.500037,31.436501 z"
     style="fill:#404040;"/>
  </a>
 </g>
</svg>

<style type='text/css'>
<![CDATA[
[data-mouse-over-selected='false'] { opacity: 0.7; }
[data-mouse-over-selected='true']  { opacity: 1.0; }
]]>
</style>
<script type="application/ecmascript"><![CDATA[
document.addEventListener('DOMContentLoaded', (event) => {
  highlightEdges();
  highlightAdjacentNodes();
});
]]></script>
</svg>
