<?xml version="1.0" encoding="UTF-8" standalone="no"?>
<!DOCTYPE svg PUBLIC "-//W3C//DTD SVG 1.1//EN"
 "http://www.w3.org/Graphics/SVG/1.1/DTD/svg11.dtd">
<!-- Generated by graphviz version 13.1.2 (20250808.2320)
 -->
<!-- Title: metric_concepts_2_vor Pages: 1 -->
<svg width="548pt" height="213pt"
 viewBox="0.00 0.00 548.00 213.00" xmlns="http://www.w3.org/2000/svg" xmlns:xlink="http://www.w3.org/1999/xlink">
<g id="graph0" class="graph" transform="scale(1 1) rotate(0) translate(4 208.5)">
<title>metric_concepts_2_vor</title>
<polygon fill="white" stroke="none" points="-4,4 -4,-208.5 543.76,-208.5 543.76,4 -4,4"/>
<text xml:space="preserve" text-anchor="middle" x="269.88" y="-7.2" font-family="Times,serif" font-size="14.00">Main metric concepts</text>
<!-- CMetricSpace -->
<g id="node1" class="node">
<title>CMetricSpace</title>
<g id="a_node1"><a xlink:href="structDGtal_1_1concepts_1_1CMetricSpace.html" target="_top" xlink:title="CMetricSpace">
<ellipse fill="none" stroke="black" cx="275.74" cy="-42.5" rx="64.15" ry="18"/>
<text xml:space="preserve" text-anchor="middle" x="275.74" y="-37.45" font-family="Times,serif" font-size="14.00">CMetricSpace</text>
</a>
</g>
</g>
<!-- CDigitalMetricSpace -->
<g id="node2" class="node">
<title>CDigitalMetricSpace</title>
<g id="a_node2"><a xlink:href="structDGtal_1_1concepts_1_1CDigitalMetricSpace.html" target="_top" xlink:title="CDigitalMetricSpace">
<ellipse fill="none" stroke="black" cx="89.74" cy="-114.5" rx="89.74" ry="18"/>
<text xml:space="preserve" text-anchor="middle" x="89.74" y="-109.45" font-family="Times,serif" font-size="14.00">CDigitalMetricSpace</text>
</a>
</g>
</g>
<!-- CSeparableMetric -->
<g id="node3" class="node">
<title>CSeparableMetric</title>
<g id="a_node3"><a xlink:href="structDGtal_1_1concepts_1_1CSeparableMetric.html" target="_top" xlink:title="CSeparableMetric">
<ellipse fill="none" stroke="black" cx="275.74" cy="-114.5" rx="78.48" ry="18"/>
<text xml:space="preserve" text-anchor="middle" x="275.74" y="-109.45" font-family="Times,serif" font-size="14.00">CSeparableMetric</text>
</a>
</g>
</g>
<!-- CSeparableMetric&#45;&gt;CMetricSpace -->
<g id="edge1" class="edge">
<title>CSeparableMetric&#45;&gt;CMetricSpace</title>
<path fill="none" stroke="black" d="M269.82,-96.2C269.07,-88.91 268.83,-80.23 269.09,-72.04"/>
<polygon fill="black" stroke="black" points="272.58,-72.32 269.74,-62.11 265.59,-71.86 272.58,-72.32"/>
</g>
<!-- CSeparableMetric&#45;&gt;CMetricSpace -->
<g id="edge2" class="edge">
<title>CSeparableMetric&#45;&gt;CMetricSpace</title>
<path fill="none" stroke="black" d="M281.65,-96.2C282.4,-88.91 282.65,-80.23 282.38,-72.04"/>
<polygon fill="black" stroke="black" points="285.88,-71.86 281.73,-62.11 278.9,-72.32 285.88,-71.86"/>
</g>
<!-- CDigitalSeparableMetric -->
<g id="node4" class="node">
<title>CDigitalSeparableMetric</title>
<ellipse fill="none" stroke="black" cx="151.74" cy="-186.5" rx="104.07" ry="18"/>
<text xml:space="preserve" text-anchor="middle" x="151.74" y="-181.45" font-family="Times,serif" font-size="14.00">CDigitalSeparableMetric</text>
</g>
<!-- CDigitalSeparableMetric&#45;&gt;CDigitalMetricSpace -->
<g id="edge3" class="edge">
<title>CDigitalSeparableMetric&#45;&gt;CDigitalMetricSpace</title>
<path fill="none" stroke="black" d="M136.73,-168.55C129.34,-160.21 120.29,-149.99 112.1,-140.75"/>
<polygon fill="black" stroke="black" points="114.86,-138.59 105.61,-133.42 109.62,-143.23 114.86,-138.59"/>
</g>
<!-- CDigitalSeparableMetric&#45;&gt;CSeparableMetric -->
<g id="edge4" class="edge">
<title>CDigitalSeparableMetric&#45;&gt;CSeparableMetric</title>
<path fill="none" stroke="black" d="M181.12,-168.91C197.84,-159.47 218.99,-147.53 237.05,-137.34"/>
<polygon fill="black" stroke="black" points="238.68,-140.44 245.67,-132.47 235.24,-134.34 238.68,-140.44"/>
</g>
<!-- CPowerMetric -->
<g id="node5" class="node">
<title>CPowerMetric</title>
<g id="a_node5"><a xlink:href="structDGtal_1_1concepts_1_1CPowerMetric.html" target="_top" xlink:title="CPowerMetric">
<ellipse fill="none" stroke="black" cx="437.74" cy="-114.5" rx="65.68" ry="18"/>
<text xml:space="preserve" text-anchor="middle" x="437.74" y="-109.45" font-family="Times,serif" font-size="14.00">CPowerMetric</text>
</a>
</g>
</g>
<!-- CPowerSeparableMetric -->
<g id="node6" class="node">
<title>CPowerSeparableMetric</title>
<g id="a_node6"><a xlink:href="structDGtal_1_1concepts_1_1CPowerSeparableMetric.html" target="_top" xlink:title="CPowerSeparableMetric">
<ellipse fill="none" stroke="black" cx="437.74" cy="-186.5" rx="102.02" ry="18"/>
<text xml:space="preserve" text-anchor="middle" x="437.74" y="-181.45" font-family="Times,serif" font-size="14.00">CPowerSeparableMetric</text>
</a>
</g>
</g>
<!-- CPowerSeparableMetric&#45;&gt;CPowerMetric -->
<g id="edge5" class="edge">
<title>CPowerSeparableMetric&#45;&gt;CPowerMetric</title>
<path fill="none" stroke="black" d="M437.74,-168.2C437.74,-160.91 437.74,-152.23 437.74,-144.04"/>
<polygon fill="black" stroke="black" points="441.24,-144.12 437.74,-134.12 434.24,-144.12 441.24,-144.12"/>
</g>
</g>
</svg>
