<?xml version="1.0" encoding="UTF-8" standalone="no"?>
<!DOCTYPE svg PUBLIC "-//W3C//DTD SVG 1.1//EN"
 "http://www.w3.org/Graphics/SVG/1.1/DTD/svg11.dtd">
<!-- Generated by graphviz version 13.0.1 (20250615.1724)
 -->
<!-- Title: GIMAGE Pages: 1 -->
<!--zoomable 485 -->

<svg id="main" version="1.1" xmlns="http://www.w3.org/2000/svg" xmlns:xlink="http://www.w3.org/1999/xlink" xml:space="preserve" onload="init(evt)">

<style type="text/css"><![CDATA[
.node, .edge {opacity: 0.7;}
.node.selected, .edge.selected {opacity: 1;}
.edge:hover path { stroke: red; }
.edge:hover polygon { stroke: red; fill: red; }
]]></style>

<defs>
  <circle id="rim" cx="0" cy="0" r="7"/>
  <circle id="rim2" cx="0" cy="0" r="3.5"/>
  <g id="zoomPlus">
    <use xlink:href="#rim" fill="#404040"><set attributeName="fill" to="#808080" begin="zoomplus.mouseover" end="zoomplus.mouseout"/></use>
    <path d="M-4,0h8M0,-4v8" fill="none" stroke="white" stroke-width="1.5" pointer-events="none"/>
  </g>
  <g id="zoomMin">
    <use xlink:href="#rim" fill="#404040"><set attributeName="fill" to="#808080" begin="zoomminus.mouseover" end="zoomminus.mouseout"/></use>
    <path d="M-4,0h8" fill="none" stroke="white" stroke-width="1.5" pointer-events="none"/>
  </g>
  <g id="arrowUp" transform="translate(30 24)">
    <use xlink:href="#rim"/>
    <path pointer-events="none" fill="none" stroke="white" stroke-width="1.5" d="M0,-3.0v7 M-2.5,-0.5L0,-3.0L2.5,-0.5"/>
  </g>
  <g id="arrowRight" transform="rotate(90) translate(36 -43)">
    <use xlink:href="#rim"/>
    <path pointer-events="none" fill="none" stroke="white" stroke-width="1.5" d="M0,-3.0v7 M-2.5,-0.5L0,-3.0L2.5,-0.5"/>
  </g>
  <g id="arrowDown" transform="rotate(180) translate(-30 -48)">
    <use xlink:href="#rim"/>
    <path pointer-events="none" fill="none" stroke="white" stroke-width="1.5" d="M0,-3.0v7 M-2.5,-0.5L0,-3.0L2.5,-0.5"/>
  </g>
  <g id="arrowLeft" transform="rotate(270) translate(-36 17)">
    <use xlink:href="#rim"/>
    <path pointer-events="none" fill="none" stroke="white" stroke-width="1.5" d="M0,-3.0v7 M-2.5,-0.5L0,-3.0L2.5,-0.5"/>
  </g>
  <g id="resetDef">
    <use xlink:href="#rim2" fill="#404040"><set attributeName="fill" to="#808080" begin="reset.mouseover" end="reset.mouseout"/></use>
  </g>
</defs>
<script type="application/ecmascript">
var viewWidth = 1424;
var viewHeight = 485;
</script>
<script type="application/ecmascript" xlink:href="svg.min.js"/>
<svg id="graph" class="graph">
<g id="viewport">
<title>GIMAGE</title>
<polygon fill="white" stroke="none" points="-4,4 -4,-480.5 1420,-480.5 1420,4 -4,4"/>
<g id="clust1" class="cluster">
<title>cluster_ext</title>
</g>
<g id="clust2" class="cluster">
<title>cluster_base</title>
<polygon fill="#eeeeff" stroke="#eeeeff" points="1031,-384 1031,-460.5 1123,-460.5 1123,-384 1031,-384"/>
<text xml:space="preserve" text-anchor="middle" x="1077" y="-391.2" font-family="Times,serif" font-size="14.00">base</text>
</g>
<g id="clust3" class="cluster">
<title>cluster_kernel</title>
<polygon fill="#eeeeff" stroke="#eeeeff" points="16,-384 16,-460.5 1023,-460.5 1023,-384 16,-384"/>
<text xml:space="preserve" text-anchor="middle" x="519.5" y="-391.2" font-family="Times,serif" font-size="14.00">kernel</text>
</g>
<g id="clust4" class="cluster">
<title>cluster_main</title>
<polygon fill="lightgrey" stroke="lightgrey" points="690,-103.5 690,-341.5 980,-341.5 980,-103.5 690,-103.5"/>
<text xml:space="preserve" text-anchor="middle" x="835" y="-110.7" font-family="Times,serif" font-size="14.00">Image (main concepts)</text>
</g>
<g id="clust5" class="cluster">
<title>cluster_models</title>
<polygon fill="#ccffcc" stroke="#ccffcc" points="52,-8 52,-84.5 1408,-84.5 1408,-8 52,-8"/>
<text xml:space="preserve" text-anchor="middle" x="730" y="-15.2" font-family="Times,serif" font-size="14.00">Image (main models)</text>
</g>
<!-- CLabel -->
<g id="node1" class="node">
<title>CLabel</title>
<g id="a_node1"><a xlink:href="structDGtal_1_1concepts_1_1CLabel.html" target="_top" xlink:title="CLabel">
<ellipse fill="white" stroke="white" cx="1077" cy="-434.5" rx="38.04" ry="18"/>
<text xml:space="preserve" text-anchor="middle" x="1077" y="-429.45" font-family="Times,serif" font-size="14.00">CLabel</text>
</a>
</g>
</g>
<!-- CPointFunctor -->
<g id="node2" class="node">
<title>CPointFunctor</title>
<g id="a_node2"><a xlink:href="structDGtal_1_1concepts_1_1CPointFunctor.html" target="_top" xlink:title="CPointFunctor">
<ellipse fill="white" stroke="white" cx="950" cy="-434.5" rx="65.17" ry="18"/>
<text xml:space="preserve" text-anchor="middle" x="950" y="-429.45" font-family="Times,serif" font-size="14.00">CPointFunctor</text>
</a>
</g>
</g>
<!-- CDomain -->
<g id="node3" class="node">
<title>CDomain</title>
<g id="a_node3"><a xlink:href="structDGtal_1_1concepts_1_1CDomain.html" target="_top" xlink:title="CDomain">
<ellipse fill="white" stroke="white" cx="820" cy="-434.5" rx="47.26" ry="18"/>
<text xml:space="preserve" text-anchor="middle" x="820" y="-429.45" font-family="Times,serif" font-size="14.00">CDomain</text>
</a>
</g>
</g>
<!-- CConstBidirectionalRangeFromPoint -->
<g id="node4" class="node">
<title>CConstBidirectionalRangeFromPoint</title>
<g id="a_node4"><a xlink:href="structDGtal_1_1concepts_1_1CConstBidirectionalRangeFromPoint.html" target="_top" xlink:title="CConstBidirectionalRangeFromPoint">
<ellipse fill="white" stroke="white" cx="605" cy="-434.5" rx="150.13" ry="18"/>
<text xml:space="preserve" text-anchor="middle" x="605" y="-429.45" font-family="Times,serif" font-size="14.00">CConstBidirectionalRangeFromPoint</text>
</a>
</g>
</g>
<!-- CBidirectionalRangeWithWritableIteratorFromPoint -->
<g id="node5" class="node">
<title>CBidirectionalRangeWithWritableIteratorFromPoint</title>
<g id="a_node5"><a xlink:href="structDGtal_1_1concepts_1_1CBidirectionalRangeWithWritableIteratorFromPoint.html" target="_top" xlink:title="CBidirectionalRangeWithWritableIteratorFromPoint">
<ellipse fill="white" stroke="white" cx="230" cy="-434.5" rx="206.43" ry="18"/>
<text xml:space="preserve" text-anchor="middle" x="230" y="-429.45" font-family="Times,serif" font-size="14.00">CBidirectionalRangeWithWritableIteratorFromPoint</text>
</a>
</g>
</g>
<!-- CImage -->
<g id="node6" class="node">
<title>CImage</title>
<g id="a_node6"><a xlink:href="structDGtal_1_1concepts_1_1CImage.html" target="_top" xlink:title="CImage">
<ellipse fill="white" stroke="white" cx="749" cy="-154" rx="40.6" ry="18"/>
<text xml:space="preserve" text-anchor="middle" x="749" y="-148.95" font-family="Times,serif" font-size="14.00">CImage</text>
</a>
</g>
</g>
<!-- CImage&#45;&gt;CBidirectionalRangeWithWritableIteratorFromPoint -->
<g id="edge9" class="edge">
<title>CImage&#45;&gt;CBidirectionalRangeWithWritableIteratorFromPoint</title>
<path fill="none" stroke="black" stroke-dasharray="5,2" d="M723.97,-168.43C641.26,-212.82 376.12,-355.09 272.28,-410.81"/>
<polygon fill="black" stroke="black" points="270.65,-407.71 263.5,-415.53 273.96,-413.88 270.65,-407.71"/>
<text xml:space="preserve" text-anchor="middle" x="552.05" y="-266.2" font-family="Times,serif" font-size="14.00">use</text>
</g>
<!-- CConstImage -->
<g id="node7" class="node">
<title>CConstImage</title>
<g id="a_node7"><a xlink:href="structDGtal_1_1concepts_1_1CConstImage.html" target="_top" xlink:title="CConstImage">
<ellipse fill="white" stroke="white" cx="760" cy="-227" rx="62.1" ry="18"/>
<text xml:space="preserve" text-anchor="middle" x="760" y="-221.95" font-family="Times,serif" font-size="14.00">CConstImage</text>
</a>
</g>
</g>
<!-- CImage&#45;&gt;CConstImage -->
<g id="edge1" class="edge">
<title>CImage&#45;&gt;CConstImage</title>
<path fill="none" stroke="black" d="M751.66,-172.19C752.85,-179.86 754.28,-189.11 755.62,-197.76"/>
<polygon fill="black" stroke="black" points="752.14,-198.13 757.13,-207.48 759.06,-197.06 752.14,-198.13"/>
</g>
<!-- CTrivialImage -->
<g id="node8" class="node">
<title>CTrivialImage</title>
<g id="a_node8"><a xlink:href="structDGtal_1_1concepts_1_1CTrivialImage.html" target="_top" xlink:title="CTrivialImage">
<ellipse fill="white" stroke="white" cx="906" cy="-227" rx="65.68" ry="18"/>
<text xml:space="preserve" text-anchor="middle" x="906" y="-221.95" font-family="Times,serif" font-size="14.00">CTrivialImage</text>
</a>
</g>
</g>
<!-- CImage&#45;&gt;CTrivialImage -->
<g id="edge2" class="edge">
<title>CImage&#45;&gt;CTrivialImage</title>
<path fill="none" stroke="black" d="M776.71,-167.53C800.51,-178.3 835.25,-194 862.72,-206.43"/>
<polygon fill="black" stroke="black" points="860.92,-209.45 871.47,-210.39 863.81,-203.08 860.92,-209.45"/>
</g>
<!-- CConstImage&#45;&gt;CDomain -->
<g id="edge7" class="edge">
<title>CConstImage&#45;&gt;CDomain</title>
<path fill="none" stroke="black" stroke-dasharray="5,2" d="M759.6,-245.32C759.54,-267.94 761.05,-308.52 771,-341.5 778.08,-364.96 791.38,-389.35 802.34,-407.11"/>
<polygon fill="black" stroke="black" points="799.33,-408.9 807.65,-415.47 805.24,-405.15 799.33,-408.9"/>
<text xml:space="preserve" text-anchor="middle" x="780" y="-310.45" font-family="Times,serif" font-size="14.00">use</text>
</g>
<!-- CConstImage&#45;&gt;CConstBidirectionalRangeFromPoint -->
<g id="edge8" class="edge">
<title>CConstImage&#45;&gt;CConstBidirectionalRangeFromPoint</title>
<path fill="none" stroke="black" stroke-dasharray="5,2" d="M747.32,-244.82C720.36,-280.55 657.21,-364.28 624.86,-407.17"/>
<polygon fill="black" stroke="black" points="622.22,-404.86 618.99,-414.95 627.81,-409.08 622.22,-404.86"/>
<text xml:space="preserve" text-anchor="middle" x="714.44" y="-310.45" font-family="Times,serif" font-size="14.00">use</text>
</g>
<!-- CTrivialConstImage -->
<g id="node9" class="node">
<title>CTrivialConstImage</title>
<g id="a_node9"><a xlink:href="structDGtal_1_1concepts_1_1CTrivialConstImage.html" target="_top" xlink:title="CTrivialConstImage">
<ellipse fill="white" stroke="white" cx="885" cy="-315.5" rx="87.18" ry="18"/>
<text xml:space="preserve" text-anchor="middle" x="885" y="-310.45" font-family="Times,serif" font-size="14.00">CTrivialConstImage</text>
</a>
</g>
</g>
<!-- CConstImage&#45;&gt;CTrivialConstImage -->
<g id="edge3" class="edge">
<title>CConstImage&#45;&gt;CTrivialConstImage</title>
<path fill="none" stroke="black" d="M783.22,-244.07C802.44,-257.37 830.01,-276.45 851.6,-291.39"/>
<polygon fill="black" stroke="black" points="849.6,-294.26 859.81,-297.07 853.58,-288.5 849.6,-294.26"/>
</g>
<!-- CTrivialImage&#45;&gt;CTrivialConstImage -->
<g id="edge4" class="edge">
<title>CTrivialImage&#45;&gt;CTrivialConstImage</title>
<path fill="none" stroke="black" d="M901.85,-245.09C899.02,-256.74 895.21,-272.45 891.92,-285.98"/>
<polygon fill="black" stroke="black" points="888.53,-285.14 889.57,-295.68 895.33,-286.79 888.53,-285.14"/>
</g>
<!-- CTrivialConstImage&#45;&gt;CLabel -->
<g id="edge5" class="edge">
<title>CTrivialConstImage&#45;&gt;CLabel</title>
<path fill="none" stroke="black" stroke-dasharray="5,2" d="M933.87,-330.76C962.66,-340.62 998.84,-355.64 1027,-376 1039.11,-384.75 1050.26,-396.97 1058.95,-407.89"/>
<polygon fill="black" stroke="black" points="1056.15,-410 1064.99,-415.84 1061.72,-405.76 1056.15,-410"/>
<text xml:space="preserve" text-anchor="middle" x="1022.15" y="-354.7" font-family="Times,serif" font-size="14.00">use</text>
</g>
<!-- CTrivialConstImage&#45;&gt;CPointFunctor -->
<g id="edge10" class="edge">
<title>CTrivialConstImage&#45;&gt;CPointFunctor</title>
<path fill="none" stroke="black" d="M894.59,-333.76C905.26,-352.97 922.63,-384.24 935.08,-406.65"/>
<polygon fill="black" stroke="black" points="931.93,-408.18 939.85,-415.22 938.05,-404.78 931.93,-408.18"/>
</g>
<!-- CTrivialConstImage&#45;&gt;CDomain -->
<g id="edge6" class="edge">
<title>CTrivialConstImage&#45;&gt;CDomain</title>
<path fill="none" stroke="black" stroke-dasharray="5,2" d="M875.41,-333.76C864.74,-352.97 847.37,-384.24 834.92,-406.65"/>
<polygon fill="black" stroke="black" points="831.95,-404.78 830.15,-415.22 838.07,-408.18 831.95,-404.78"/>
<text xml:space="preserve" text-anchor="middle" x="872.98" y="-354.7" font-family="Times,serif" font-size="14.00">use</text>
</g>
<!-- ImageContainerBySTLVector -->
<g id="node10" class="node">
<title>ImageContainerBySTLVector</title>
<g id="a_node10"><a xlink:href="classDGtal_1_1ImageContainerBySTLVector.html" target="_top" xlink:title="ImageContainerBySTLVector">
<ellipse fill="white" stroke="white" cx="587" cy="-58.5" rx="121.98" ry="18"/>
<text xml:space="preserve" text-anchor="middle" x="587" y="-53.45" font-family="Times,serif" font-size="14.00">ImageContainerBySTLVector</text>
</a>
</g>
</g>
<!-- ImageContainerBySTLVector&#45;&gt;CImage -->
<g id="edge13" class="edge">
<title>ImageContainerBySTLVector&#45;&gt;CImage</title>
<path fill="none" stroke="black" d="M616.34,-76.43C644.15,-92.48 685.91,-116.59 715.13,-133.45"/>
<polygon fill="black" stroke="black" points="713.17,-136.36 723.58,-138.33 716.67,-130.3 713.17,-136.36"/>
</g>
<!-- ImageContainerBySTLMap -->
<g id="node11" class="node">
<title>ImageContainerBySTLMap</title>
<g id="a_node11"><a xlink:href="classDGtal_1_1ImageContainerBySTLMap.html" target="_top" xlink:title="ImageContainerBySTLMap">
<ellipse fill="white" stroke="white" cx="842" cy="-58.5" rx="115.33" ry="18"/>
<text xml:space="preserve" text-anchor="middle" x="842" y="-53.45" font-family="Times,serif" font-size="14.00">ImageContainerBySTLMap</text>
</a>
</g>
</g>
<!-- ImageContainerBySTLMap&#45;&gt;CImage -->
<g id="edge14" class="edge">
<title>ImageContainerBySTLMap&#45;&gt;CImage</title>
<path fill="none" stroke="black" d="M802.11,-75.86C793.08,-80.88 784.08,-87.08 777,-94.5 768.75,-103.15 762.53,-114.68 758.07,-125.22"/>
<polygon fill="black" stroke="black" points="754.92,-123.68 754.6,-134.27 761.45,-126.19 754.92,-123.68"/>
</g>
<!-- ImageContainerByHashTree -->
<g id="node12" class="node">
<title>ImageContainerByHashTree</title>
<g id="a_node12"><a xlink:href="classDGtal_1_1experimental_1_1ImageContainerByHashTree.html" target="_top" xlink:title="ImageContainerByHashTree">
<ellipse fill="white" stroke="white" cx="1093" cy="-58.5" rx="117.37" ry="18"/>
<text xml:space="preserve" text-anchor="middle" x="1093" y="-53.45" font-family="Times,serif" font-size="14.00">ImageContainerByHashTree</text>
</a>
</g>
</g>
<!-- ImageContainerByHashTree&#45;&gt;CImage -->
<g id="edge15" class="edge">
<title>ImageContainerByHashTree&#45;&gt;CImage</title>
<path fill="none" stroke="black" d="M1028.33,-73.94C1008.43,-77.92 986.39,-81.86 966,-84.5 930.89,-89.04 839.24,-79.86 807,-94.5 791.23,-101.66 777.4,-115.14 767.2,-127.36"/>
<polygon fill="black" stroke="black" points="764.51,-125.12 761.08,-135.14 770.01,-129.45 764.51,-125.12"/>
</g>
<!-- ImageContainerByITKImage -->
<g id="node13" class="node">
<title>ImageContainerByITKImage</title>
<g id="a_node13"><a xlink:href="classDGtal_1_1ImageContainerByITKImage.html" target="_top" xlink:title="ImageContainerByITKImage">
<ellipse fill="white" stroke="white" cx="180" cy="-58.5" rx="120.45" ry="18"/>
<text xml:space="preserve" text-anchor="middle" x="180" y="-53.45" font-family="Times,serif" font-size="14.00">ImageContainerByITKImage</text>
</a>
</g>
</g>
<!-- ImageContainerByITKImage&#45;&gt;CImage -->
<g id="edge16" class="edge">
<title>ImageContainerByITKImage&#45;&gt;CImage</title>
<path fill="none" stroke="black" d="M250.42,-73.51C269.71,-77.22 290.64,-81.13 310,-84.5 450.88,-109.03 617.93,-133.95 699.38,-145.84"/>
<polygon fill="black" stroke="black" points="698.86,-149.3 709.26,-147.28 699.87,-142.37 698.86,-149.3"/>
</g>
<!-- ImageAdapter -->
<g id="node14" class="node">
<title>ImageAdapter</title>
<g id="a_node14"><a xlink:href="classDGtal_1_1ImageAdapter.html" target="_top" xlink:title="ImageAdapter">
<ellipse fill="white" stroke="white" cx="383" cy="-58.5" rx="64.15" ry="18"/>
<text xml:space="preserve" text-anchor="middle" x="383" y="-53.45" font-family="Times,serif" font-size="14.00">ImageAdapter</text>
</a>
</g>
</g>
<!-- ImageAdapter&#45;&gt;CImage -->
<g id="edge11" class="edge">
<title>ImageAdapter&#45;&gt;CImage</title>
<path fill="none" stroke="black" d="M421.04,-73.33C432.23,-77.18 444.54,-81.21 456,-84.5 541.67,-109.12 643.3,-131.35 701.56,-143.44"/>
<polygon fill="black" stroke="black" points="700.63,-146.82 711.13,-145.41 702.04,-139.97 700.63,-146.82"/>
</g>
<!-- ConstImageAdapter -->
<g id="node15" class="node">
<title>ConstImageAdapter</title>
<g id="a_node15"><a xlink:href="classDGtal_1_1ConstImageAdapter.html" target="_top" xlink:title="ConstImageAdapter">
<ellipse fill="white" stroke="white" cx="1314" cy="-58.5" rx="85.64" ry="18"/>
<text xml:space="preserve" text-anchor="middle" x="1314" y="-53.45" font-family="Times,serif" font-size="14.00">ConstImageAdapter</text>
</a>
</g>
</g>
<!-- ConstImageAdapter&#45;&gt;CConstImage -->
<g id="edge12" class="edge">
<title>ConstImageAdapter&#45;&gt;CConstImage</title>
<path fill="none" stroke="black" d="M1266.29,-73.84C1163.24,-104.81 920.53,-177.75 812.94,-210.09"/>
<polygon fill="black" stroke="black" points="812.06,-206.7 803.49,-212.93 814.07,-213.4 812.06,-206.7"/>
</g>
</g>
</svg>

<g id="navigator" transform="translate(0 0)" fill="#404254">
  <rect fill="#f2f5e9" fill-opacity="0.5" stroke="#606060" stroke-width=".5" x="0" y="0" width="60" height="60"/>
  <use id="zoomplus" xlink:href="#zoomPlus" x="17" y="9" onmousedown="handleZoom(evt,'in')"/>
  <use id="zoomminus" xlink:href="#zoomMin" x="42" y="9" onmousedown="handleZoom(evt,'out')"/>
  <use id="reset" xlink:href="#resetDef" x="30" y="36" onmousedown="handleReset()"/>
   <use id="arrowup" xlink:href="#arrowUp" x="0" y="0" onmousedown="handlePan(0,-1)"/>
  <use id="arrowright" xlink:href="#arrowRight" x="0" y="0" onmousedown="handlePan(1,0)"/>
  <use id="arrowdown" xlink:href="#arrowDown" x="0" y="0" onmousedown="handlePan(0,1)"/>
  <use id="arrowleft" xlink:href="#arrowLeft" x="0" y="0" onmousedown="handlePan(-1,0)"/>
</g>
<svg viewBox="0 0 15 15" width="100%" height="30px" preserveAspectRatio="xMaxYMin meet">
 <g id="arrow_out" transform="scale(0.3 0.3)">
  <a xlink:href="dot_inline_dotgraph_10_org.svg" target="_base">
   <rect id="button" ry="5" rx="5" y="6" x="6" height="38" width="38"
        fill="#f2f5e9" fill-opacity="0.5" stroke="#606060" stroke-width="1.0"/>
   <path id="arrow"
     d="M 11.500037,31.436501 C 11.940474,20.09759 22.043105,11.32322 32.158766,21.979434 L 37.068811,17.246167 C 37.068811,17.246167 37.088388,32 37.088388,32 L 22.160133,31.978069 C 22.160133,31.978069 26.997745,27.140456 26.997745,27.140456 C 18.528582,18.264221 13.291696,25.230495 11.500037,31.436501 z"
     style="fill:#404040;"/>
  </a>
 </g>
</svg>

<style type='text/css'>
<![CDATA[
[data-mouse-over-selected='false'] { opacity: 0.7; }
[data-mouse-over-selected='true']  { opacity: 1.0; }
]]>
</style>
<script type="application/ecmascript"><![CDATA[
document.addEventListener('DOMContentLoaded', (event) => {
  highlightEdges();
  highlightAdjacentNodes();
});
]]></script>
</svg>
