<?xml version="1.0" encoding="UTF-8" standalone="no"?>
<!DOCTYPE svg PUBLIC "-//W3C//DTD SVG 1.1//EN"
 "http://www.w3.org/Graphics/SVG/1.1/DTD/svg11.dtd">
<!-- Generated by graphviz version 13.0.1 (20250615.1724)
 -->
<!-- Title: Graphical Class Hierarchy Pages: 1 -->
<svg width="569pt" height="249pt"
 viewBox="0.00 0.00 569.00 249.00" xmlns="http://www.w3.org/2000/svg" xmlns:xlink="http://www.w3.org/1999/xlink">
<g id="graph0" class="graph" transform="scale(1 1) rotate(0) translate(4 245.25)">
<title>Graphical Class Hierarchy</title>
<!-- Node0 -->
<g id="Node000000" class="node">
<title>Node0</title>
<g id="a_Node000000"><a xlink:href="structLibBoard_1_1Shape.html" target="_top" xlink:title="Abstract structure for a 2D shape.">
<polygon fill="white" stroke="#666666" points="88,-148.25 0,-148.25 0,-129 88,-129 88,-148.25"/>
<text xml:space="preserve" text-anchor="middle" x="44" y="-134.75" font-family="FreeSans" font-size="10.00">LibBoard::Shape</text>
</a>
</g>
</g>
<!-- Node1 -->
<g id="Node000001" class="node">
<title>Node1</title>
<g id="a_Node000001"><a xlink:href="structLibBoard_1_1Dot.html" target="_top" xlink:title="A line between two points.">
<polygon fill="white" stroke="#666666" points="213.88,-241.25 137.88,-241.25 137.88,-222 213.88,-222 213.88,-241.25"/>
<text xml:space="preserve" text-anchor="middle" x="175.88" y="-227.75" font-family="FreeSans" font-size="10.00">LibBoard::Dot</text>
</a>
</g>
</g>
<!-- Node0&#45;&gt;Node1 -->
<g id="edge336_Node000000_Node000001" class="edge">
<title>Node0&#45;&gt;Node1</title>
<g id="a_edge336_Node000000_Node000001"><a xlink:title=" ">
<path fill="none" stroke="#63b8ff" d="M60.2,-156.93C74.98,-173.7 98.83,-198.2 124,-213.62 128.95,-216.66 134.49,-219.28 140.04,-221.51"/>
<polygon fill="#63b8ff" stroke="#63b8ff" points="63.13,-154.97 53.96,-149.66 57.82,-159.53 63.13,-154.97"/>
</a>
</g>
</g>
<!-- Node2 -->
<g id="Node000002" class="node">
<title>Node2</title>
<g id="a_Node000002"><a xlink:href="structLibBoard_1_1Ellipse.html" target="_top" xlink:title="An ellipse.">
<polygon fill="white" stroke="#666666" points="220.62,-204.25 131.12,-204.25 131.12,-185 220.62,-185 220.62,-204.25"/>
<text xml:space="preserve" text-anchor="middle" x="175.88" y="-190.75" font-family="FreeSans" font-size="10.00">LibBoard::Ellipse</text>
</a>
</g>
</g>
<!-- Node0&#45;&gt;Node2 -->
<g id="edge337_Node000000_Node000002" class="edge">
<title>Node0&#45;&gt;Node2</title>
<g id="a_edge337_Node000000_Node000002"><a xlink:title=" ">
<path fill="none" stroke="#63b8ff" d="M74.26,-153.63C89,-160.96 107.26,-169.66 124,-176.62 130.66,-179.4 137.92,-182.13 144.81,-184.59"/>
<polygon fill="#63b8ff" stroke="#63b8ff" points="76.07,-150.63 65.57,-149.27 72.93,-156.88 76.07,-150.63"/>
</a>
</g>
</g>
<!-- Node5 -->
<g id="Node000005" class="node">
<title>Node5</title>
<g id="a_Node000005"><a xlink:href="structLibBoard_1_1Line.html" target="_top" xlink:title="A line between two points.">
<polygon fill="white" stroke="#666666" points="215,-167.25 136.75,-167.25 136.75,-148 215,-148 215,-167.25"/>
<text xml:space="preserve" text-anchor="middle" x="175.88" y="-153.75" font-family="FreeSans" font-size="10.00">LibBoard::Line</text>
</a>
</g>
</g>
<!-- Node0&#45;&gt;Node5 -->
<g id="edge340_Node000000_Node000005" class="edge">
<title>Node0&#45;&gt;Node5</title>
<g id="a_edge340_Node000000_Node000005"><a xlink:title=" ">
<path fill="none" stroke="#63b8ff" d="M99.5,-146.6C111.98,-148.42 124.99,-150.33 136.62,-152.03"/>
<polygon fill="#63b8ff" stroke="#63b8ff" points="100.15,-143.16 89.74,-145.17 99.13,-150.08 100.15,-143.16"/>
</a>
</g>
</g>
<!-- Node7 -->
<g id="Node000007" class="node">
<title>Node7</title>
<g id="a_Node000007"><a xlink:href="structLibBoard_1_1Polyline.html" target="_top" xlink:title="A polygonal line described by a series of 2D points.">
<polygon fill="white" stroke="#666666" points="223.25,-130.25 128.5,-130.25 128.5,-111 223.25,-111 223.25,-130.25"/>
<text xml:space="preserve" text-anchor="middle" x="175.88" y="-116.75" font-family="FreeSans" font-size="10.00">LibBoard::Polyline</text>
</a>
</g>
</g>
<!-- Node0&#45;&gt;Node7 -->
<g id="edge342_Node000000_Node000007" class="edge">
<title>Node0&#45;&gt;Node7</title>
<g id="a_edge342_Node000000_Node000007"><a xlink:title=" ">
<path fill="none" stroke="#63b8ff" d="M99.64,-131.05C109.16,-129.73 118.97,-128.37 128.25,-127.09"/>
<polygon fill="#63b8ff" stroke="#63b8ff" points="99.17,-127.58 89.75,-132.42 100.13,-134.52 99.17,-127.58"/>
</a>
</g>
</g>
<!-- Node13 -->
<g id="Node000013" class="node">
<title>Node13</title>
<g id="a_Node000013"><a xlink:href="structLibBoard_1_1ShapeList.html" target="_top" xlink:title="A group of shapes.">
<polygon fill="white" stroke="#666666" points="227.75,-74.25 124,-74.25 124,-55 227.75,-55 227.75,-74.25"/>
<text xml:space="preserve" text-anchor="middle" x="175.88" y="-60.75" font-family="FreeSans" font-size="10.00">LibBoard::ShapeList</text>
</a>
</g>
</g>
<!-- Node0&#45;&gt;Node13 -->
<g id="edge348_Node000000_Node000013" class="edge">
<title>Node0&#45;&gt;Node13</title>
<g id="a_edge348_Node000000_Node000013"><a xlink:title=" ">
<path fill="none" stroke="#63b8ff" d="M72.34,-123.05C97.92,-108.47 135.37,-87.13 157.22,-74.68"/>
<polygon fill="#63b8ff" stroke="#63b8ff" points="70.79,-119.9 63.83,-127.9 74.25,-125.99 70.79,-119.9"/>
</a>
</g>
</g>
<!-- Node17 -->
<g id="Node000017" class="node">
<title>Node17</title>
<g id="a_Node000017"><a xlink:href="structLibBoard_1_1Text.html" target="_top" xlink:title="A piece of text.">
<polygon fill="white" stroke="#666666" points="215.38,-37.25 136.38,-37.25 136.38,-18 215.38,-18 215.38,-37.25"/>
<text xml:space="preserve" text-anchor="middle" x="175.88" y="-23.75" font-family="FreeSans" font-size="10.00">LibBoard::Text</text>
</a>
</g>
</g>
<!-- Node0&#45;&gt;Node17 -->
<g id="edge352_Node000000_Node000017" class="edge">
<title>Node0&#45;&gt;Node17</title>
<g id="a_edge352_Node000000_Node000017"><a xlink:title=" ">
<path fill="none" stroke="#63b8ff" d="M56.91,-119.28C70.69,-98.4 95.2,-65.47 124,-45.62 128.47,-42.54 133.53,-39.93 138.68,-37.74"/>
<polygon fill="#63b8ff" stroke="#63b8ff" points="54.14,-117.13 51.7,-127.44 60.03,-120.9 54.14,-117.13"/>
</a>
</g>
</g>
<!-- Node3 -->
<g id="Node000003" class="node">
<title>Node3</title>
<g id="a_Node000003"><a xlink:href="structLibBoard_1_1Circle.html" target="_top" xlink:title="A circle.">
<polygon fill="white" stroke="#666666" points="372.38,-241.25 286.62,-241.25 286.62,-222 372.38,-222 372.38,-241.25"/>
<text xml:space="preserve" text-anchor="middle" x="329.5" y="-227.75" font-family="FreeSans" font-size="10.00">LibBoard::Circle</text>
</a>
</g>
</g>
<!-- Node2&#45;&gt;Node3 -->
<g id="edge338_Node000002_Node000003" class="edge">
<title>Node2&#45;&gt;Node3</title>
<g id="a_edge338_Node000002_Node000003"><a xlink:title=" ">
<path fill="none" stroke="#63b8ff" d="M229.44,-207.45C248.31,-212.06 269.32,-217.18 287.12,-221.53"/>
<polygon fill="#63b8ff" stroke="#63b8ff" points="230.32,-204.06 219.78,-205.09 228.66,-210.87 230.32,-204.06"/>
</a>
</g>
</g>
<!-- Node4 -->
<g id="Node000004" class="node">
<title>Node4</title>
<g id="a_Node000004"><a xlink:href="structLibBoard_1_1Arc.html" target="_top" xlink:title="An arc.">
<polygon fill="white" stroke="#666666" points="533.88,-241.25 458.62,-241.25 458.62,-222 533.88,-222 533.88,-241.25"/>
<text xml:space="preserve" text-anchor="middle" x="496.25" y="-227.75" font-family="FreeSans" font-size="10.00">LibBoard::Arc</text>
</a>
</g>
</g>
<!-- Node3&#45;&gt;Node4 -->
<g id="edge339_Node000003_Node000004" class="edge">
<title>Node3&#45;&gt;Node4</title>
<g id="a_edge339_Node000003_Node000004"><a xlink:title=" ">
<path fill="none" stroke="#63b8ff" d="M383.74,-231.62C408.12,-231.62 436.39,-231.62 458.37,-231.62"/>
<polygon fill="#63b8ff" stroke="#63b8ff" points="384.01,-228.13 374.01,-231.63 384.01,-235.13 384.01,-228.13"/>
</a>
</g>
</g>
<!-- Node6 -->
<g id="Node000006" class="node">
<title>Node6</title>
<g id="a_Node000006"><a xlink:href="structLibBoard_1_1Arrow.html" target="_top" xlink:title="A line between two points with an arrow at one extremity.">
<polygon fill="white" stroke="#666666" points="372.38,-204.25 286.62,-204.25 286.62,-185 372.38,-185 372.38,-204.25"/>
<text xml:space="preserve" text-anchor="middle" x="329.5" y="-190.75" font-family="FreeSans" font-size="10.00">LibBoard::Arrow</text>
</a>
</g>
</g>
<!-- Node5&#45;&gt;Node6 -->
<g id="edge341_Node000005_Node000006" class="edge">
<title>Node5&#45;&gt;Node6</title>
<g id="a_edge341_Node000005_Node000006"><a xlink:title=" ">
<path fill="none" stroke="#63b8ff" d="M226.06,-169.63C245.76,-174.43 268.21,-179.91 287.06,-184.51"/>
<polygon fill="#63b8ff" stroke="#63b8ff" points="227.15,-166.29 216.61,-167.32 225.49,-173.09 227.15,-166.29"/>
</a>
</g>
</g>
<!-- Node8 -->
<g id="Node000008" class="node">
<title>Node8</title>
<g id="a_Node000008"><a xlink:href="structLibBoard_1_1GouraudTriangle.html" target="_top" xlink:title="A triangle with shaded filling according to colors given for each vertex.">
<polygon fill="white" stroke="#666666" points="395.25,-167.25 263.75,-167.25 263.75,-148 395.25,-148 395.25,-167.25"/>
<text xml:space="preserve" text-anchor="middle" x="329.5" y="-153.75" font-family="FreeSans" font-size="10.00">LibBoard::GouraudTriangle</text>
</a>
</g>
</g>
<!-- Node7&#45;&gt;Node8 -->
<g id="edge343_Node000007_Node000008" class="edge">
<title>Node7&#45;&gt;Node8</title>
<g id="a_edge343_Node000007_Node000008"><a xlink:title=" ">
<path fill="none" stroke="#63b8ff" d="M229.44,-133.45C248.31,-138.06 269.32,-143.18 287.12,-147.53"/>
<polygon fill="#63b8ff" stroke="#63b8ff" points="230.32,-130.06 219.78,-131.09 228.66,-136.87 230.32,-130.06"/>
</a>
</g>
</g>
<!-- Node9 -->
<g id="Node000009" class="node">
<title>Node9</title>
<g id="a_Node000009"><a xlink:href="structLibBoard_1_1Rectangle.html" target="_top" xlink:title="A rectangle.">
<polygon fill="white" stroke="#666666" points="381.75,-130.25 277.25,-130.25 277.25,-111 381.75,-111 381.75,-130.25"/>
<text xml:space="preserve" text-anchor="middle" x="329.5" y="-116.75" font-family="FreeSans" font-size="10.00">LibBoard::Rectangle</text>
</a>
</g>
</g>
<!-- Node7&#45;&gt;Node9 -->
<g id="edge344_Node000007_Node000009" class="edge">
<title>Node7&#45;&gt;Node9</title>
<g id="a_edge344_Node000007_Node000009"><a xlink:title=" ">
<path fill="none" stroke="#63b8ff" d="M234.96,-120.62C248.77,-120.62 263.41,-120.62 276.91,-120.62"/>
<polygon fill="#63b8ff" stroke="#63b8ff" points="235.12,-117.13 225.12,-120.63 235.12,-124.13 235.12,-117.13"/>
</a>
</g>
</g>
<!-- Node11 -->
<g id="Node000011" class="node">
<title>Node11</title>
<g id="a_Node000011"><a xlink:href="structLibBoard_1_1Triangle.html" target="_top" xlink:title="A triangle. Basically a Polyline with a convenient constructor.">
<polygon fill="white" stroke="#666666" points="376.88,-93.25 282.12,-93.25 282.12,-74 376.88,-74 376.88,-93.25"/>
<text xml:space="preserve" text-anchor="middle" x="329.5" y="-79.75" font-family="FreeSans" font-size="10.00">LibBoard::Triangle</text>
</a>
</g>
</g>
<!-- Node7&#45;&gt;Node11 -->
<g id="edge346_Node000007_Node000011" class="edge">
<title>Node7&#45;&gt;Node11</title>
<g id="a_edge346_Node000007_Node000011"><a xlink:title=" ">
<path fill="none" stroke="#63b8ff" d="M229.44,-107.8C248.31,-103.19 269.32,-98.07 287.12,-93.72"/>
<polygon fill="#63b8ff" stroke="#63b8ff" points="228.66,-104.38 219.78,-110.16 230.32,-111.19 228.66,-104.38"/>
</a>
</g>
</g>
<!-- Node10 -->
<g id="Node000010" class="node">
<title>Node10</title>
<g id="a_Node000010"><a xlink:href="structLibBoard_1_1Image.html" target="_top" xlink:title="Used to draw image in figure.">
<polygon fill="white" stroke="#666666" points="539.88,-136.25 452.62,-136.25 452.62,-117 539.88,-117 539.88,-136.25"/>
<text xml:space="preserve" text-anchor="middle" x="496.25" y="-122.75" font-family="FreeSans" font-size="10.00">LibBoard::Image</text>
</a>
</g>
</g>
<!-- Node9&#45;&gt;Node10 -->
<g id="edge345_Node000009_Node000010" class="edge">
<title>Node9&#45;&gt;Node10</title>
<g id="a_edge345_Node000009_Node000010"><a xlink:title=" ">
<path fill="none" stroke="#63b8ff" d="M393.53,-122.92C413.18,-123.64 434.39,-124.41 452.33,-125.06"/>
<polygon fill="#63b8ff" stroke="#63b8ff" points="393.81,-119.43 383.69,-122.56 393.55,-126.42 393.81,-119.43"/>
</a>
</g>
</g>
<!-- Node12 -->
<g id="Node000012" class="node">
<title>Node12</title>
<g id="a_Node000012"><a xlink:href="structLibBoard_1_1QuadraticBezierCurve.html" target="_top" xlink:title="A quadratic Bezier curve having 3 control points. NB. It is also a parabola arc.">
<polygon fill="white" stroke="#666666" points="561.25,-98.88 431.25,-98.88 431.25,-68.38 561.25,-68.38 561.25,-98.88"/>
<text xml:space="preserve" text-anchor="start" x="439.25" y="-85.38" font-family="FreeSans" font-size="10.00">LibBoard::QuadraticBezier</text>
<text xml:space="preserve" text-anchor="middle" x="496.25" y="-74.12" font-family="FreeSans" font-size="10.00">Curve</text>
</a>
</g>
</g>
<!-- Node11&#45;&gt;Node12 -->
<g id="edge347_Node000011_Node000012" class="edge">
<title>Node11&#45;&gt;Node12</title>
<g id="a_edge347_Node000011_Node000012"><a xlink:title=" ">
<path fill="none" stroke="#63b8ff" d="M388.5,-83.62C402.2,-83.62 416.88,-83.62 430.83,-83.62"/>
<polygon fill="#63b8ff" stroke="#63b8ff" points="388.78,-80.13 378.78,-83.63 388.78,-87.13 388.78,-80.13"/>
</a>
</g>
</g>
<!-- Node14 -->
<g id="Node000014" class="node">
<title>Node14</title>
<g id="a_Node000014"><a xlink:href="classLibBoard_1_1Board.html" target="_top" xlink:title="Class for EPS, FIG or SVG drawings.">
<polygon fill="white" stroke="#666666" points="372.38,-56.25 286.62,-56.25 286.62,-37 372.38,-37 372.38,-56.25"/>
<text xml:space="preserve" text-anchor="middle" x="329.5" y="-42.75" font-family="FreeSans" font-size="10.00">LibBoard::Board</text>
</a>
</g>
</g>
<!-- Node13&#45;&gt;Node14 -->
<g id="edge349_Node000013_Node000014" class="edge">
<title>Node13&#45;&gt;Node14</title>
<g id="a_edge349_Node000013_Node000014"><a xlink:title=" ">
<path fill="none" stroke="#63b8ff" d="M239.5,-57.19C255.26,-55.32 271.8,-53.36 286.29,-51.64"/>
<polygon fill="#63b8ff" stroke="#63b8ff" points="239.23,-53.7 229.71,-58.35 240.05,-60.65 239.23,-53.7"/>
</a>
</g>
</g>
<!-- Node16 -->
<g id="Node000016" class="node">
<title>Node16</title>
<g id="a_Node000016"><a xlink:href="structLibBoard_1_1Group.html" target="_top" xlink:title="A group of shapes. A group is basically a ShapeList except that when rendered in either an SVG of a F...">
<polygon fill="white" stroke="#666666" points="372.75,-19.25 286.25,-19.25 286.25,0 372.75,0 372.75,-19.25"/>
<text xml:space="preserve" text-anchor="middle" x="329.5" y="-5.75" font-family="FreeSans" font-size="10.00">LibBoard::Group</text>
</a>
</g>
</g>
<!-- Node13&#45;&gt;Node16 -->
<g id="edge351_Node000013_Node000016" class="edge">
<title>Node13&#45;&gt;Node16</title>
<g id="a_edge351_Node000013_Node000016"><a xlink:title=" ">
<path fill="none" stroke="#63b8ff" d="M218.08,-50.63C221.38,-49.33 224.63,-47.99 227.75,-46.62 244.32,-39.37 246.94,-34.31 263.75,-27.62 271.12,-24.69 279.15,-22.05 286.96,-19.75"/>
<polygon fill="#63b8ff" stroke="#63b8ff" points="217.1,-47.25 208.97,-54.05 219.56,-53.81 217.1,-47.25"/>
</a>
</g>
</g>
<!-- Node15 -->
<g id="Node000015" class="node">
<title>Node15</title>
<g id="a_Node000015"><a xlink:href="classDGtal_1_1Board2D.html" target="_top" xlink:title="Aim: This class specializes a &#39;Board&#39; class so as to display DGtal objects more naturally (with &lt;&lt;)....">
<polygon fill="white" stroke="#666666" points="539.12,-50.25 453.38,-50.25 453.38,-31 539.12,-31 539.12,-50.25"/>
<text xml:space="preserve" text-anchor="middle" x="496.25" y="-36.75" font-family="FreeSans" font-size="10.00">DGtal::Board2D</text>
</a>
</g>
</g>
<!-- Node14&#45;&gt;Node15 -->
<g id="edge350_Node000014_Node000015" class="edge">
<title>Node14&#45;&gt;Node15</title>
<g id="a_edge350_Node000014_Node000015"><a xlink:title=" ">
<path fill="none" stroke="#63b8ff" d="M383.88,-44.68C406.29,-43.86 431.98,-42.93 453.04,-42.16"/>
<polygon fill="#63b8ff" stroke="#63b8ff" points="383.88,-41.18 374.01,-45.04 384.13,-48.17 383.88,-41.18"/>
</a>
</g>
</g>
</g>
</svg>
