<?xml version="1.0" encoding="UTF-8" standalone="no"?>
<!DOCTYPE svg PUBLIC "-//W3C//DTD SVG 1.1//EN"
 "http://www.w3.org/Graphics/SVG/1.1/DTD/svg11.dtd">
<!-- Generated by graphviz version 13.0.1 (20250615.1724)
 -->
<!-- Title: Graphical Class Hierarchy Pages: 1 -->
<svg width="279pt" height="110pt"
 viewBox="0.00 0.00 279.00 110.00" xmlns="http://www.w3.org/2000/svg" xmlns:xlink="http://www.w3.org/1999/xlink">
<g id="graph0" class="graph" transform="scale(1 1) rotate(0) translate(4 105.75)">
<title>Graphical Class Hierarchy</title>
<!-- Node0 -->
<g id="Node000000" class="node">
<title>Node0</title>
<g id="a_Node000000"><a xlink:title=" ">
<polygon fill="#e0e0e0" stroke="#999999" points="122.5,-60.5 0,-60.5 0,-41.25 122.5,-41.25 122.5,-60.5"/>
<text xml:space="preserve" text-anchor="middle" x="61.25" y="-47" font-family="FreeSans" font-size="10.00">boost::transform_iterator</text>
</a>
</g>
</g>
<!-- Node1 -->
<g id="Node000001" class="node">
<title>Node1</title>
<g id="a_Node000001"><a xlink:href="classDGtal_1_1IteratorAdapter.html" target="_top" xlink:title=" ">
<polygon fill="white" stroke="#666666" points="270.5,-101.75 158.5,-101.75 158.5,-60 270.5,-60 270.5,-101.75"/>
<text xml:space="preserve" text-anchor="start" x="166.5" y="-88.25" font-family="FreeSans" font-size="10.00">DGtal::IteratorAdapter</text>
<text xml:space="preserve" text-anchor="start" x="166.5" y="-77" font-family="FreeSans" font-size="10.00">&lt; TIterator, TFunctor,</text>
<text xml:space="preserve" text-anchor="middle" x="214.5" y="-65.75" font-family="FreeSans" font-size="10.00"> TReturnType &gt;</text>
</a>
</g>
</g>
<!-- Node0&#45;&gt;Node1 -->
<g id="edge192_Node000000_Node000001" class="edge">
<title>Node0&#45;&gt;Node1</title>
<g id="a_edge192_Node000000_Node000001"><a xlink:title=" ">
<path fill="none" stroke="#63b8ff" d="M124.13,-63.15C135.41,-65.39 147.1,-67.71 158.17,-69.9"/>
<polygon fill="#63b8ff" stroke="#63b8ff" points="125.01,-59.76 114.52,-61.24 123.65,-66.62 125.01,-59.76"/>
</a>
</g>
</g>
<!-- Node2 -->
<g id="Node000002" class="node">
<title>Node2</title>
<g id="a_Node000002"><a xlink:href="classDGtal_1_1IteratorAdapter.html" target="_top" xlink:title="This class adapts any lvalue iterator so that operator* returns a member on the element pointed to by...">
<polygon fill="white" stroke="#666666" points="270.5,-41.75 158.5,-41.75 158.5,0 270.5,0 270.5,-41.75"/>
<text xml:space="preserve" text-anchor="start" x="166.5" y="-28.25" font-family="FreeSans" font-size="10.00">DGtal::IteratorAdapter</text>
<text xml:space="preserve" text-anchor="start" x="166.5" y="-17" font-family="FreeSans" font-size="10.00">&lt; TIterator, TFunctor,</text>
<text xml:space="preserve" text-anchor="middle" x="214.5" y="-5.75" font-family="FreeSans" font-size="10.00"> TReturnType &gt;</text>
</a>
</g>
</g>
<!-- Node0&#45;&gt;Node2 -->
<g id="edge193_Node000000_Node000002" class="edge">
<title>Node0&#45;&gt;Node2</title>
<g id="a_edge193_Node000000_Node000002"><a xlink:title=" ">
<path fill="none" stroke="#63b8ff" d="M124.13,-38.6C135.41,-36.36 147.1,-34.04 158.17,-31.85"/>
<polygon fill="#63b8ff" stroke="#63b8ff" points="123.65,-35.13 114.52,-40.51 125.01,-41.99 123.65,-35.13"/>
</a>
</g>
</g>
</g>
</svg>
