<?xml version="1.0" encoding="UTF-8" standalone="no"?>
<!DOCTYPE svg PUBLIC "-//W3C//DTD SVG 1.1//EN"
 "http://www.w3.org/Graphics/SVG/1.1/DTD/svg11.dtd">
<!-- Generated by graphviz version 13.0.1 (20250615.1724)
 -->
<!-- Title: Graphical Class Hierarchy Pages: 1 -->
<svg width="282pt" height="88pt"
 viewBox="0.00 0.00 282.00 88.00" xmlns="http://www.w3.org/2000/svg" xmlns:xlink="http://www.w3.org/1999/xlink">
<g id="graph0" class="graph" transform="scale(1 1) rotate(0) translate(4 83.5)">
<title>Graphical Class Hierarchy</title>
<!-- Node0 -->
<g id="Node000000" class="node">
<title>Node0</title>
<g id="a_Node000000"><a xlink:title=" ">
<polygon fill="#e0e0e0" stroke="#999999" points="102.25,-54.5 0,-54.5 0,-24 102.25,-24 102.25,-54.5"/>
<text xml:space="preserve" text-anchor="start" x="8" y="-41" font-family="FreeSans" font-size="10.00">boost::input_iterator</text>
<text xml:space="preserve" text-anchor="middle" x="51.12" y="-29.75" font-family="FreeSans" font-size="10.00">_archetype</text>
</a>
</g>
</g>
<!-- Node1 -->
<g id="Node000001" class="node">
<title>Node1</title>
<g id="a_Node000001"><a xlink:href="structDGtal_1_1CSinglePassIteratorArchetype.html" target="_top" xlink:title=" ">
<polygon fill="white" stroke="#666666" points="273.5,-79.5 138.25,-79.5 138.25,-49 273.5,-49 273.5,-79.5"/>
<text xml:space="preserve" text-anchor="start" x="146.25" y="-66" font-family="FreeSans" font-size="10.00">DGtal::CSinglePassIterator</text>
<text xml:space="preserve" text-anchor="middle" x="205.88" y="-54.75" font-family="FreeSans" font-size="10.00">Archetype&lt; Point &gt;</text>
</a>
</g>
</g>
<!-- Node0&#45;&gt;Node1 -->
<g id="edge154_Node000000_Node000001" class="edge">
<title>Node0&#45;&gt;Node1</title>
<g id="a_edge154_Node000000_Node000001"><a xlink:title=" ">
<path fill="none" stroke="#63b8ff" d="M113.92,-49.36C121.81,-50.65 129.91,-51.98 137.87,-53.28"/>
<polygon fill="#63b8ff" stroke="#63b8ff" points="114.49,-45.91 104.06,-47.75 113.36,-52.82 114.49,-45.91"/>
</a>
</g>
</g>
<!-- Node2 -->
<g id="Node000002" class="node">
<title>Node2</title>
<g id="a_Node000002"><a xlink:href="structDGtal_1_1CSinglePassIteratorArchetype.html" target="_top" xlink:title="An archetype of SingePassIterator.">
<polygon fill="white" stroke="#666666" points="273.5,-30.5 138.25,-30.5 138.25,0 273.5,0 273.5,-30.5"/>
<text xml:space="preserve" text-anchor="start" x="146.25" y="-17" font-family="FreeSans" font-size="10.00">DGtal::CSinglePassIterator</text>
<text xml:space="preserve" text-anchor="middle" x="205.88" y="-5.75" font-family="FreeSans" font-size="10.00">Archetype&lt; T &gt;</text>
</a>
</g>
</g>
<!-- Node0&#45;&gt;Node2 -->
<g id="edge155_Node000000_Node000002" class="edge">
<title>Node0&#45;&gt;Node2</title>
<g id="a_edge155_Node000000_Node000002"><a xlink:title=" ">
<path fill="none" stroke="#63b8ff" d="M113.92,-29.54C121.81,-28.3 129.91,-27.03 137.87,-25.78"/>
<polygon fill="#63b8ff" stroke="#63b8ff" points="113.4,-26.08 104.06,-31.09 114.48,-33 113.4,-26.08"/>
</a>
</g>
</g>
</g>
</svg>
