<?xml version="1.0" encoding="UTF-8" standalone="no"?>
<!DOCTYPE svg PUBLIC "-//W3C//DTD SVG 1.1//EN"
 "http://www.w3.org/Graphics/SVG/1.1/DTD/svg11.dtd">
<!-- Generated by graphviz version 13.1.2 (20250808.2320)
 -->
<!-- Title: Graphical Class Hierarchy Pages: 1 -->
<svg width="300pt" height="88pt"
 viewBox="0.00 0.00 300.00 88.00" xmlns="http://www.w3.org/2000/svg" xmlns:xlink="http://www.w3.org/1999/xlink">
<g id="graph0" class="graph" transform="scale(1 1) rotate(0) translate(4 83.5)">
<title>Graphical Class Hierarchy</title>
<!-- Node0 -->
<g id="Node000000" class="node">
<title>Node0</title>
<g id="a_Node000000"><a xlink:title=" ">
<polygon fill="#e0e0e0" stroke="#999999" points="91,-48.88 0,-48.88 0,-29.62 91,-29.62 91,-48.88"/>
<text xml:space="preserve" text-anchor="middle" x="45.5" y="-35.38" font-family="FreeSans" font-size="10.00">std::map&lt; K, T &gt;</text>
</a>
</g>
</g>
<!-- Node1 -->
<g id="Node000001" class="node">
<title>Node1</title>
<g id="a_Node000001"><a xlink:href="classDGtal_1_1ImageContainerBySTLMap.html" target="_top" xlink:title=" ">
<polygon fill="white" stroke="#666666" points="292.25,-79.5 127,-79.5 127,-49 292.25,-49 292.25,-79.5"/>
<text xml:space="preserve" text-anchor="start" x="135" y="-66" font-family="FreeSans" font-size="10.00">DGtal::ImageContainerBySTLMap</text>
<text xml:space="preserve" text-anchor="middle" x="209.62" y="-54.75" font-family="FreeSans" font-size="10.00">&lt; Z2i::Domain, DGtal::int32_t &gt;</text>
</a>
</g>
</g>
<!-- Node0&#45;&gt;Node1 -->
<g id="edge378_Node000000_Node000001" class="edge">
<title>Node0&#45;&gt;Node1</title>
<g id="a_edge378_Node000000_Node000001"><a xlink:title=" ">
<path fill="none" stroke="#63b8ff" d="M102.45,-47.88C110.3,-49.09 118.5,-50.35 126.71,-51.62"/>
<polygon fill="#63b8ff" stroke="#63b8ff" points="103.14,-44.44 92.73,-46.38 102.08,-51.36 103.14,-44.44"/>
</a>
</g>
</g>
<!-- Node2 -->
<g id="Node000002" class="node">
<title>Node2</title>
<g id="a_Node000002"><a xlink:href="classDGtal_1_1ImageContainerBySTLMap.html" target="_top" xlink:title=" ">
<polygon fill="white" stroke="#666666" points="292.25,-30.5 127,-30.5 127,0 292.25,0 292.25,-30.5"/>
<text xml:space="preserve" text-anchor="start" x="135" y="-17" font-family="FreeSans" font-size="10.00">DGtal::ImageContainerBySTLMap</text>
<text xml:space="preserve" text-anchor="middle" x="209.62" y="-5.75" font-family="FreeSans" font-size="10.00">&lt; TDomain, TValue &gt;</text>
</a>
</g>
</g>
<!-- Node0&#45;&gt;Node2 -->
<g id="edge379_Node000000_Node000002" class="edge">
<title>Node0&#45;&gt;Node2</title>
<g id="a_edge379_Node000000_Node000002"><a xlink:title=" ">
<path fill="none" stroke="#63b8ff" d="M102.45,-30.97C110.3,-29.81 118.5,-28.59 126.71,-27.38"/>
<polygon fill="#63b8ff" stroke="#63b8ff" points="102.11,-27.48 92.73,-32.41 103.13,-34.4 102.11,-27.48"/>
</a>
</g>
</g>
</g>
</svg>
