<?xml version="1.0" encoding="UTF-8" standalone="no"?>
<!DOCTYPE svg PUBLIC "-//W3C//DTD SVG 1.1//EN"
 "http://www.w3.org/Graphics/SVG/1.1/DTD/svg11.dtd">
<!-- Generated by graphviz version 13.0.1 (20250615.1724)
 -->
<!-- Title: Graphical Class Hierarchy Pages: 1 -->
<svg width="291pt" height="137pt"
 viewBox="0.00 0.00 291.00 137.00" xmlns="http://www.w3.org/2000/svg" xmlns:xlink="http://www.w3.org/1999/xlink">
<g id="graph0" class="graph" transform="scale(1 1) rotate(0) translate(4 132.5)">
<title>Graphical Class Hierarchy</title>
<!-- Node0 -->
<g id="Node000000" class="node">
<title>Node0</title>
<g id="a_Node000000"><a xlink:href="structDGtal_1_1NumberTraitsImpl.html" target="_top" xlink:title=" ">
<polygon fill="white" stroke="#666666" points="125.5,-85.12 0,-85.12 0,-43.38 125.5,-43.38 125.5,-85.12"/>
<text xml:space="preserve" text-anchor="start" x="8" y="-71.62" font-family="FreeSans" font-size="10.00">DGtal::NumberTraitsImpl</text>
<text xml:space="preserve" text-anchor="start" x="8" y="-60.38" font-family="FreeSans" font-size="10.00">&lt; std::decay&lt; TInteger</text>
<text xml:space="preserve" text-anchor="middle" x="62.75" y="-49.12" font-family="FreeSans" font-size="10.00"> &gt;::type &gt;</text>
</a>
</g>
</g>
<!-- Node1 -->
<g id="Node000001" class="node">
<title>Node1</title>
<g id="a_Node000001"><a xlink:href="structDGtal_1_1NumberTraits.html" target="_top" xlink:title=" ">
<polygon fill="white" stroke="#666666" points="277.62,-128.5 167.12,-128.5 167.12,-98 277.62,-98 277.62,-128.5"/>
<text xml:space="preserve" text-anchor="start" x="175.12" y="-115" font-family="FreeSans" font-size="10.00">DGtal::SignedVersion</text>
<text xml:space="preserve" text-anchor="middle" x="222.38" y="-103.75" font-family="FreeSans" font-size="10.00">&lt; TInteger &gt;</text>
</a>
</g>
</g>
<!-- Node0&#45;&gt;Node1 -->
<g id="edge303_Node000000_Node000001" class="edge">
<title>Node0&#45;&gt;Node1</title>
<g id="a_edge303_Node000000_Node000001"><a xlink:title=" ">
<path fill="none" stroke="#63b8ff" d="M136.26,-86.79C147.96,-90.43 159.85,-94.12 170.88,-97.55"/>
<polygon fill="#63b8ff" stroke="#63b8ff" points="137.63,-83.55 127.04,-83.92 135.55,-90.24 137.63,-83.55"/>
</a>
</g>
</g>
<!-- Node2 -->
<g id="Node000002" class="node">
<title>Node2</title>
<g id="a_Node000002"><a xlink:href="structDGtal_1_1NumberTraits.html" target="_top" xlink:title=" ">
<polygon fill="white" stroke="#666666" points="283.25,-79.5 161.5,-79.5 161.5,-49 283.25,-49 283.25,-79.5"/>
<text xml:space="preserve" text-anchor="start" x="169.5" y="-66" font-family="FreeSans" font-size="10.00">DGtal::UnsignedVersion</text>
<text xml:space="preserve" text-anchor="middle" x="222.38" y="-54.75" font-family="FreeSans" font-size="10.00">&lt; TInteger &gt;</text>
</a>
</g>
</g>
<!-- Node0&#45;&gt;Node2 -->
<g id="edge304_Node000000_Node000002" class="edge">
<title>Node0&#45;&gt;Node2</title>
<g id="a_edge304_Node000000_Node000002"><a xlink:title=" ">
<path fill="none" stroke="#63b8ff" d="M136.99,-64.25C145.12,-64.25 153.32,-64.25 161.26,-64.25"/>
<polygon fill="#63b8ff" stroke="#63b8ff" points="137.11,-60.75 127.11,-64.25 137.11,-67.75 137.11,-60.75"/>
</a>
</g>
</g>
<!-- Node3 -->
<g id="Node000003" class="node">
<title>Node3</title>
<g id="a_Node000003"><a xlink:href="structDGtal_1_1NumberTraits.html" target="_top" xlink:title=" ">
<polygon fill="white" stroke="#666666" points="275.75,-30.5 169,-30.5 169,0 275.75,0 275.75,-30.5"/>
<text xml:space="preserve" text-anchor="start" x="177" y="-17" font-family="FreeSans" font-size="10.00">DGtal::NumberTraits</text>
<text xml:space="preserve" text-anchor="middle" x="222.38" y="-5.75" font-family="FreeSans" font-size="10.00">&lt; TInteger &gt;</text>
</a>
</g>
</g>
<!-- Node0&#45;&gt;Node3 -->
<g id="edge305_Node000000_Node000003" class="edge">
<title>Node0&#45;&gt;Node3</title>
<g id="a_edge305_Node000000_Node000003"><a xlink:title=" ">
<path fill="none" stroke="#63b8ff" d="M136.26,-41.71C147.96,-38.07 159.85,-34.38 170.88,-30.95"/>
<polygon fill="#63b8ff" stroke="#63b8ff" points="135.55,-38.26 127.04,-44.58 137.63,-44.95 135.55,-38.26"/>
</a>
</g>
</g>
</g>
</svg>
