<?xml version="1.0" encoding="UTF-8" standalone="no"?>
<!DOCTYPE svg PUBLIC "-//W3C//DTD SVG 1.1//EN"
 "http://www.w3.org/Graphics/SVG/1.1/DTD/svg11.dtd">
<!-- Generated by graphviz version 13.1.2 (20250808.2320)
 -->
<!-- Title: Graphical Class Hierarchy Pages: 1 -->
<svg width="313pt" height="88pt"
 viewBox="0.00 0.00 313.00 88.00" xmlns="http://www.w3.org/2000/svg" xmlns:xlink="http://www.w3.org/1999/xlink">
<g id="graph0" class="graph" transform="scale(1 1) rotate(0) translate(4 83.5)">
<title>Graphical Class Hierarchy</title>
<!-- Node0 -->
<g id="Node000000" class="node">
<title>Node0</title>
<g id="a_Node000000"><a xlink:href="classDGtal_1_1CubicalComplex.html" target="_top" xlink:title="Aim: This class represents an arbitrary cubical complex living in some Khalimsky space....">
<polygon fill="white" stroke="#666666" points="145.75,-54.5 0,-54.5 0,-24 145.75,-24 145.75,-54.5"/>
<text xml:space="preserve" text-anchor="start" x="8" y="-41" font-family="FreeSans" font-size="10.00">DGtal::CubicalComplex</text>
<text xml:space="preserve" text-anchor="middle" x="72.88" y="-29.75" font-family="FreeSans" font-size="10.00">&lt; TKSpace, TCellContainer &gt;</text>
</a>
</g>
</g>
<!-- Node1 -->
<g id="Node000001" class="node">
<title>Node1</title>
<g id="a_Node000001"><a xlink:href="classDGtal_1_1VoxelComplex.html" target="_top" xlink:title=" ">
<polygon fill="white" stroke="#666666" points="299,-79.5 187.75,-79.5 187.75,-49 299,-49 299,-79.5"/>
<text xml:space="preserve" text-anchor="start" x="195.75" y="-66" font-family="FreeSans" font-size="10.00">DGtal::VoxelComplex</text>
<text xml:space="preserve" text-anchor="middle" x="243.38" y="-54.75" font-family="FreeSans" font-size="10.00">&lt; KSpace &gt;</text>
</a>
</g>
</g>
<!-- Node0&#45;&gt;Node1 -->
<g id="edge248_Node000000_Node000001" class="edge">
<title>Node0&#45;&gt;Node1</title>
<g id="a_edge248_Node000000_Node000001"><a xlink:title=" ">
<path fill="none" stroke="#63b8ff" d="M157.01,-51.58C167.36,-53.12 177.72,-54.66 187.49,-56.11"/>
<polygon fill="#63b8ff" stroke="#63b8ff" points="157.73,-48.15 147.32,-50.15 156.7,-55.08 157.73,-48.15"/>
</a>
</g>
</g>
<!-- Node2 -->
<g id="Node000002" class="node">
<title>Node2</title>
<g id="a_Node000002"><a xlink:href="classDGtal_1_1VoxelComplex.html" target="_top" xlink:title=" ">
<polygon fill="white" stroke="#666666" points="305,-30.5 181.75,-30.5 181.75,0 305,0 305,-30.5"/>
<text xml:space="preserve" text-anchor="start" x="189.75" y="-17" font-family="FreeSans" font-size="10.00">DGtal::VoxelComplex</text>
<text xml:space="preserve" text-anchor="middle" x="243.38" y="-5.75" font-family="FreeSans" font-size="10.00">&lt; KSpace, FixtureMap &gt;</text>
</a>
</g>
</g>
<!-- Node0&#45;&gt;Node2 -->
<g id="edge249_Node000000_Node000002" class="edge">
<title>Node0&#45;&gt;Node2</title>
<g id="a_edge249_Node000000_Node000002"><a xlink:title=" ">
<path fill="none" stroke="#63b8ff" d="M156.96,-27.42C165.15,-26.25 173.36,-25.08 181.28,-23.95"/>
<polygon fill="#63b8ff" stroke="#63b8ff" points="156.73,-23.91 147.32,-28.79 157.71,-30.84 156.73,-23.91"/>
</a>
</g>
</g>
</g>
</svg>
