<?xml version="1.0" encoding="UTF-8" standalone="no"?>
<!DOCTYPE svg PUBLIC "-//W3C//DTD SVG 1.1//EN"
 "http://www.w3.org/Graphics/SVG/1.1/DTD/svg11.dtd">
<!-- Generated by graphviz version 13.1.2 (20250808.2320)
 -->
<!-- Title: Graphical Class Hierarchy Pages: 1 -->
<svg width="345pt" height="137pt"
 viewBox="0.00 0.00 345.00 137.00" xmlns="http://www.w3.org/2000/svg" xmlns:xlink="http://www.w3.org/1999/xlink">
<g id="graph0" class="graph" transform="scale(1 1) rotate(0) translate(4 132.5)">
<title>Graphical Class Hierarchy</title>
<!-- Node0 -->
<g id="Node000000" class="node">
<title>Node0</title>
<g id="a_Node000000"><a xlink:href="classDGtal_1_1AngleLinearMinimizer.html" target="_top" xlink:title="Aim: Used to minimize the angle variation between different angles while taking into accounts min and...">
<polygon fill="white" stroke="#666666" points="140.5,-73.88 0,-73.88 0,-54.62 140.5,-54.62 140.5,-73.88"/>
<text xml:space="preserve" text-anchor="middle" x="70.25" y="-60.38" font-family="FreeSans" font-size="10.00">DGtal::AngleLinearMinimizer</text>
</a>
</g>
</g>
<!-- Node1 -->
<g id="Node000001" class="node">
<title>Node1</title>
<g id="a_Node000001"><a xlink:href="classDGtal_1_1AngleLinearMinimizerByAdaptiveStepGradientDescent.html" target="_top" xlink:title=" ">
<polygon fill="white" stroke="#666666" points="336.5,-128.5 176.5,-128.5 176.5,-98 336.5,-98 336.5,-128.5"/>
<text xml:space="preserve" text-anchor="start" x="184.5" y="-115" font-family="FreeSans" font-size="10.00">DGtal::AngleLinearMinimizer</text>
<text xml:space="preserve" text-anchor="middle" x="256.5" y="-103.75" font-family="FreeSans" font-size="10.00">ByAdaptiveStepGradientDescent</text>
</a>
</g>
</g>
<!-- Node0&#45;&gt;Node1 -->
<g id="edge195_Node000000_Node000001" class="edge">
<title>Node0&#45;&gt;Node1</title>
<g id="a_edge195_Node000000_Node000001"><a xlink:title=" ">
<path fill="none" stroke="#63b8ff" d="M120.06,-77.23C143.49,-83.46 171.77,-90.98 196.42,-97.54"/>
<polygon fill="#63b8ff" stroke="#63b8ff" points="121.01,-73.86 110.44,-74.67 119.21,-80.63 121.01,-73.86"/>
</a>
</g>
</g>
<!-- Node2 -->
<g id="Node000002" class="node">
<title>Node2</title>
<g id="a_Node000002"><a xlink:href="classDGtal_1_1AngleLinearMinimizerByGradientDescent.html" target="_top" xlink:title=" ">
<polygon fill="white" stroke="#666666" points="326.75,-79.5 186.25,-79.5 186.25,-49 326.75,-49 326.75,-79.5"/>
<text xml:space="preserve" text-anchor="start" x="194.25" y="-66" font-family="FreeSans" font-size="10.00">DGtal::AngleLinearMinimizer</text>
<text xml:space="preserve" text-anchor="middle" x="256.5" y="-54.75" font-family="FreeSans" font-size="10.00">ByGradientDescent</text>
</a>
</g>
</g>
<!-- Node0&#45;&gt;Node2 -->
<g id="edge196_Node000000_Node000002" class="edge">
<title>Node0&#45;&gt;Node2</title>
<g id="a_edge196_Node000000_Node000002"><a xlink:title=" ">
<path fill="none" stroke="#63b8ff" d="M152.12,-64.25C163.43,-64.25 174.97,-64.25 186.05,-64.25"/>
<polygon fill="#63b8ff" stroke="#63b8ff" points="152.42,-60.75 142.42,-64.25 152.42,-67.75 152.42,-60.75"/>
</a>
</g>
</g>
<!-- Node3 -->
<g id="Node000003" class="node">
<title>Node3</title>
<g id="a_Node000003"><a xlink:href="classDGtal_1_1AngleLinearMinimizerByRelaxation.html" target="_top" xlink:title=" ">
<polygon fill="white" stroke="#666666" points="326.75,-30.5 186.25,-30.5 186.25,0 326.75,0 326.75,-30.5"/>
<text xml:space="preserve" text-anchor="start" x="194.25" y="-17" font-family="FreeSans" font-size="10.00">DGtal::AngleLinearMinimizer</text>
<text xml:space="preserve" text-anchor="middle" x="256.5" y="-5.75" font-family="FreeSans" font-size="10.00">ByRelaxation</text>
</a>
</g>
</g>
<!-- Node0&#45;&gt;Node3 -->
<g id="edge197_Node000000_Node000003" class="edge">
<title>Node0&#45;&gt;Node3</title>
<g id="a_edge197_Node000000_Node000003"><a xlink:title=" ">
<path fill="none" stroke="#63b8ff" d="M120.06,-51.27C143.49,-45.04 171.77,-37.52 196.42,-30.96"/>
<polygon fill="#63b8ff" stroke="#63b8ff" points="119.21,-47.87 110.44,-53.83 121.01,-54.64 119.21,-47.87"/>
</a>
</g>
</g>
</g>
</svg>
