<?xml version="1.0" encoding="UTF-8" standalone="no"?>
<!DOCTYPE svg PUBLIC "-//W3C//DTD SVG 1.1//EN"
 "http://www.w3.org/Graphics/SVG/1.1/DTD/svg11.dtd">
<!-- Generated by graphviz version 13.1.2 (20250808.2320)
 -->
<!-- Title: Graphical Class Hierarchy Pages: 1 -->
<svg width="312pt" height="98pt"
 viewBox="0.00 0.00 312.00 98.00" xmlns="http://www.w3.org/2000/svg" xmlns:xlink="http://www.w3.org/1999/xlink">
<g id="graph0" class="graph" transform="scale(1 1) rotate(0) translate(4 94.12)">
<title>Graphical Class Hierarchy</title>
<!-- Node0 -->
<g id="Node000000" class="node">
<title>Node0</title>
<g id="a_Node000000"><a xlink:href="classDGtal_1_1Display3D.html" target="_top" xlink:title="Base class for viewing DGtal objects.">
<polygon fill="white" stroke="#666666" points="133,-57.5 0,-57.5 0,-27 133,-27 133,-57.5"/>
<text xml:space="preserve" text-anchor="start" x="8" y="-44" font-family="FreeSans" font-size="10.00">DGtal::Display3D&lt; Space,</text>
<text xml:space="preserve" text-anchor="middle" x="66.5" y="-32.75" font-family="FreeSans" font-size="10.00"> KSpace &gt;</text>
</a>
</g>
</g>
<!-- Node1 -->
<g id="Node000001" class="node">
<title>Node1</title>
<g id="a_Node000001"><a xlink:href="classDGtal_1_1PolyscopeViewer.html" target="_top" xlink:title=" ">
<polygon fill="white" stroke="#666666" points="304.25,-90.12 169,-90.12 169,-48.38 304.25,-48.38 304.25,-90.12"/>
<text xml:space="preserve" text-anchor="start" x="177" y="-76.62" font-family="FreeSans" font-size="10.00">DGtal::PolyscopeViewer</text>
<text xml:space="preserve" text-anchor="start" x="177" y="-65.38" font-family="FreeSans" font-size="10.00">&lt; DGtal::Z3i::Space, DGtal</text>
<text xml:space="preserve" text-anchor="middle" x="236.62" y="-54.12" font-family="FreeSans" font-size="10.00">::Z3i::KSpace &gt;</text>
</a>
</g>
</g>
<!-- Node0&#45;&gt;Node1 -->
<g id="edge265_Node000000_Node000001" class="edge">
<title>Node0&#45;&gt;Node1</title>
<g id="a_edge265_Node000000_Node000001"><a xlink:title=" ">
<path fill="none" stroke="#63b8ff" d="M144.72,-54.65C152.74,-55.94 160.85,-57.24 168.75,-58.51"/>
<polygon fill="#63b8ff" stroke="#63b8ff" points="145.39,-51.21 134.96,-53.08 144.28,-58.13 145.39,-51.21"/>
</a>
</g>
</g>
<!-- Node2 -->
<g id="Node000002" class="node">
<title>Node2</title>
<g id="a_Node000002"><a xlink:href="classDGtal_1_1PolyscopeViewer.html" target="_top" xlink:title=" ">
<polygon fill="white" stroke="#666666" points="298.25,-30.5 175,-30.5 175,0 298.25,0 298.25,-30.5"/>
<text xml:space="preserve" text-anchor="start" x="183" y="-17" font-family="FreeSans" font-size="10.00">DGtal::PolyscopeViewer</text>
<text xml:space="preserve" text-anchor="middle" x="236.62" y="-5.75" font-family="FreeSans" font-size="10.00">&lt; Space, KSpace &gt;</text>
</a>
</g>
</g>
<!-- Node0&#45;&gt;Node2 -->
<g id="edge266_Node000000_Node000002" class="edge">
<title>Node0&#45;&gt;Node2</title>
<g id="a_edge266_Node000000_Node000002"><a xlink:title=" ">
<path fill="none" stroke="#63b8ff" d="M144.67,-29.86C154.68,-28.25 164.82,-26.62 174.51,-25.06"/>
<polygon fill="#63b8ff" stroke="#63b8ff" points="144.28,-26.37 134.96,-31.42 145.39,-33.29 144.28,-26.37"/>
</a>
</g>
</g>
</g>
</svg>
