<?xml version="1.0" encoding="UTF-8" standalone="no"?>
<!DOCTYPE svg PUBLIC "-//W3C//DTD SVG 1.1//EN"
 "http://www.w3.org/Graphics/SVG/1.1/DTD/svg11.dtd">
<!-- Generated by graphviz version 13.0.1 (20250615.1724)
 -->
<!-- Title: Graphical Class Hierarchy Pages: 1 -->
<svg width="261pt" height="64pt"
 viewBox="0.00 0.00 261.00 64.00" xmlns="http://www.w3.org/2000/svg" xmlns:xlink="http://www.w3.org/1999/xlink">
<g id="graph0" class="graph" transform="scale(1 1) rotate(0) translate(4 60.25)">
<title>Graphical Class Hierarchy</title>
<!-- Node0 -->
<g id="Node000000" class="node">
<title>Node0</title>
<g id="a_Node000000"><a xlink:href="classDGtal_1_1TraceWriter.html" target="_top" xlink:title="Virtual Class to implement trace writers.">
<polygon fill="white" stroke="#666666" points="97.75,-37.25 0,-37.25 0,-18 97.75,-18 97.75,-37.25"/>
<text xml:space="preserve" text-anchor="middle" x="48.88" y="-23.75" font-family="FreeSans" font-size="10.00">DGtal::TraceWriter</text>
</a>
</g>
</g>
<!-- Node1 -->
<g id="Node000001" class="node">
<title>Node1</title>
<g id="a_Node000001"><a xlink:href="classDGtal_1_1TraceWriterFile.html" target="_top" xlink:title=" ">
<polygon fill="white" stroke="#666666" points="250.25,-56.25 136.75,-56.25 136.75,-37 250.25,-37 250.25,-56.25"/>
<text xml:space="preserve" text-anchor="middle" x="193.5" y="-42.75" font-family="FreeSans" font-size="10.00">DGtal::TraceWriterFile</text>
</a>
</g>
</g>
<!-- Node0&#45;&gt;Node1 -->
<g id="edge331_Node000000_Node000001" class="edge">
<title>Node0&#45;&gt;Node1</title>
<g id="a_edge331_Node000000_Node000001"><a xlink:title=" ">
<path fill="none" stroke="#63b8ff" d="M109.33,-35.55C118.29,-36.74 127.5,-37.97 136.39,-39.15"/>
<polygon fill="#63b8ff" stroke="#63b8ff" points="110.04,-32.11 99.66,-34.26 109.11,-39.05 110.04,-32.11"/>
</a>
</g>
</g>
<!-- Node2 -->
<g id="Node000002" class="node">
<title>Node2</title>
<g id="a_Node000002"><a xlink:href="classDGtal_1_1TraceWriterTerm.html" target="_top" xlink:title="Implements trace prefix for color terminals.">
<polygon fill="white" stroke="#666666" points="253.25,-19.25 133.75,-19.25 133.75,0 253.25,0 253.25,-19.25"/>
<text xml:space="preserve" text-anchor="middle" x="193.5" y="-5.75" font-family="FreeSans" font-size="10.00">DGtal::TraceWriterTerm</text>
</a>
</g>
</g>
<!-- Node0&#45;&gt;Node2 -->
<g id="edge332_Node000000_Node000002" class="edge">
<title>Node0&#45;&gt;Node2</title>
<g id="a_edge332_Node000000_Node000002"><a xlink:title=" ">
<path fill="none" stroke="#63b8ff" d="M109.53,-20.1C117.42,-19.1 125.5,-18.08 133.38,-17.09"/>
<polygon fill="#63b8ff" stroke="#63b8ff" points="109.15,-16.62 99.66,-21.34 110.02,-23.56 109.15,-16.62"/>
</a>
</g>
</g>
</g>
</svg>
