<?xml version="1.0" encoding="UTF-8" standalone="no"?>
<!DOCTYPE svg PUBLIC "-//W3C//DTD SVG 1.1//EN"
 "http://www.w3.org/Graphics/SVG/1.1/DTD/svg11.dtd">
<!-- Generated by graphviz version 13.0.1 (20250615.1724)
 -->
<!-- Title: Graphical Class Hierarchy Pages: 1 -->
<svg width="278pt" height="88pt"
 viewBox="0.00 0.00 278.00 88.00" xmlns="http://www.w3.org/2000/svg" xmlns:xlink="http://www.w3.org/1999/xlink">
<g id="graph0" class="graph" transform="scale(1 1) rotate(0) translate(4 83.5)">
<title>Graphical Class Hierarchy</title>
<!-- Node0 -->
<g id="Node000000" class="node">
<title>Node0</title>
<g id="a_Node000000"><a xlink:title=" ">
<polygon fill="#e0e0e0" stroke="#999999" points="99.25,-54.5 0,-54.5 0,-24 99.25,-24 99.25,-54.5"/>
<text xml:space="preserve" text-anchor="start" x="8" y="-41" font-family="FreeSans" font-size="10.00">boost::bidirectional</text>
<text xml:space="preserve" text-anchor="middle" x="49.62" y="-29.75" font-family="FreeSans" font-size="10.00">_iterator_archetype</text>
</a>
</g>
</g>
<!-- Node1 -->
<g id="Node000001" class="node">
<title>Node1</title>
<g id="a_Node000001"><a xlink:href="structDGtal_1_1CConstBidirectionalIteratorArchetype.html" target="_top" xlink:title=" ">
<polygon fill="white" stroke="#666666" points="269.75,-79.5 135.25,-79.5 135.25,-49 269.75,-49 269.75,-79.5"/>
<text xml:space="preserve" text-anchor="start" x="143.25" y="-66" font-family="FreeSans" font-size="10.00">DGtal::CConstBidirectional</text>
<text xml:space="preserve" text-anchor="middle" x="202.5" y="-54.75" font-family="FreeSans" font-size="10.00">IteratorArchetype&lt; Point &gt;</text>
</a>
</g>
</g>
<!-- Node0&#45;&gt;Node1 -->
<g id="edge149_Node000000_Node000001" class="edge">
<title>Node0&#45;&gt;Node1</title>
<g id="a_edge149_Node000000_Node000001"><a xlink:title=" ">
<path fill="none" stroke="#63b8ff" d="M110.95,-49.25C118.84,-50.55 126.95,-51.9 134.93,-53.22"/>
<polygon fill="#63b8ff" stroke="#63b8ff" points="111.54,-45.8 101.1,-47.61 110.4,-52.7 111.54,-45.8"/>
</a>
</g>
</g>
<!-- Node2 -->
<g id="Node000002" class="node">
<title>Node2</title>
<g id="a_Node000002"><a xlink:href="structDGtal_1_1CConstBidirectionalIteratorArchetype.html" target="_top" xlink:title="An archetype of ConstBidirectionalIterator.">
<polygon fill="white" stroke="#666666" points="269.75,-30.5 135.25,-30.5 135.25,0 269.75,0 269.75,-30.5"/>
<text xml:space="preserve" text-anchor="start" x="143.25" y="-17" font-family="FreeSans" font-size="10.00">DGtal::CConstBidirectional</text>
<text xml:space="preserve" text-anchor="middle" x="202.5" y="-5.75" font-family="FreeSans" font-size="10.00">IteratorArchetype&lt; T &gt;</text>
</a>
</g>
</g>
<!-- Node0&#45;&gt;Node2 -->
<g id="edge150_Node000000_Node000002" class="edge">
<title>Node0&#45;&gt;Node2</title>
<g id="a_edge150_Node000000_Node000002"><a xlink:title=" ">
<path fill="none" stroke="#63b8ff" d="M110.95,-29.65C118.84,-28.4 126.95,-27.11 134.93,-25.84"/>
<polygon fill="#63b8ff" stroke="#63b8ff" points="110.43,-26.19 101.1,-31.22 111.53,-33.11 110.43,-26.19"/>
</a>
</g>
</g>
</g>
</svg>
