<?xml version="1.0" encoding="UTF-8" standalone="no"?>
<!DOCTYPE svg PUBLIC "-//W3C//DTD SVG 1.1//EN"
 "http://www.w3.org/Graphics/SVG/1.1/DTD/svg11.dtd">
<!-- Generated by graphviz version 13.0.1 (20250615.1724)
 -->
<!-- Title: DGtal::concepts::CSCellEmbedder&lt; T &gt; Pages: 1 -->
<svg width="307pt" height="375pt"
 viewBox="0.00 0.00 307.00 375.00" xmlns="http://www.w3.org/2000/svg" xmlns:xlink="http://www.w3.org/1999/xlink">
<g id="graph0" class="graph" transform="scale(1 1) rotate(0) translate(4 370.75)">
<title>DGtal::concepts::CSCellEmbedder&lt; T &gt;</title>
<!-- Node1 -->
<g id="Node000001" class="node">
<title>Node1</title>
<g id="a_Node000001"><a xlink:title="Aim: A cell embedder is a mapping from signed cells to Euclidean points. It adds inner types to funct...">
<polygon fill="#999999" stroke="#666666" points="202.5,-86.75 9.5,-86.75 9.5,-67.5 202.5,-67.5 202.5,-86.75"/>
<text xml:space="preserve" text-anchor="middle" x="106" y="-73.25" font-family="FreeSans" font-size="10.00">DGtal::concepts::CSCellEmbedder&lt; T &gt;</text>
</a>
</g>
</g>
<!-- Node7 -->
<g id="Node000007" class="node">
<title>Node7</title>
<g id="a_Node000007"><a xlink:href="structDGtal_1_1concepts_1_1CDigitalSurfaceEmbedder.html" target="_top" xlink:title="Aim: A digital surface embedder is a specialized mapping from signed cells to Euclidean points....">
<polygon fill="white" stroke="#666666" points="170.25,-30.5 41.75,-30.5 41.75,0 170.25,0 170.25,-30.5"/>
<text xml:space="preserve" text-anchor="start" x="49.75" y="-17" font-family="FreeSans" font-size="10.00">DGtal::concepts::CDigital</text>
<text xml:space="preserve" text-anchor="middle" x="106" y="-5.75" font-family="FreeSans" font-size="10.00">SurfaceEmbedder&lt; T &gt;</text>
</a>
</g>
</g>
<!-- Node1&#45;&gt;Node7 -->
<g id="edge6_Node000001_Node000007" class="edge">
<title>Node1&#45;&gt;Node7</title>
<g id="a_edge6_Node000001_Node000007"><a xlink:title=" ">
<path fill="none" stroke="#63b8ff" d="M106,-55.69C106,-47.43 106,-38.09 106,-30.57"/>
<polygon fill="#63b8ff" stroke="#63b8ff" points="102.5,-55.52 106,-65.52 109.5,-55.52 102.5,-55.52"/>
</a>
</g>
</g>
<!-- Node2 -->
<g id="Node000002" class="node">
<title>Node2</title>
<g id="a_Node000002"><a xlink:href="structDGtal_1_1concepts_1_1CUnaryFunctor.html" target="_top" xlink:title=" ">
<polygon fill="white" stroke="#666666" points="186,-154.25 26,-154.25 26,-123.75 186,-123.75 186,-154.25"/>
<text xml:space="preserve" text-anchor="start" x="34" y="-140.75" font-family="FreeSans" font-size="10.00">DGtal::concepts::CUnaryFunctor</text>
<text xml:space="preserve" text-anchor="middle" x="106" y="-129.5" font-family="FreeSans" font-size="10.00">&lt; T, T::SCell, T::RealPoint &gt;</text>
</a>
</g>
</g>
<!-- Node2&#45;&gt;Node1 -->
<g id="edge1_Node000001_Node000002" class="edge">
<title>Node2&#45;&gt;Node1</title>
<g id="a_edge1_Node000001_Node000002"><a xlink:title=" ">
<path fill="none" stroke="#63b8ff" d="M106,-112.27C106,-103.29 106,-93.79 106,-87.1"/>
<polygon fill="#63b8ff" stroke="#63b8ff" points="102.5,-111.99 106,-121.99 109.5,-111.99 102.5,-111.99"/>
</a>
</g>
</g>
<!-- Node3 -->
<g id="Node000003" class="node">
<title>Node3</title>
<g id="a_Node000003"><a xlink:href="structboost_1_1Assignable.html" target="_top" xlink:title="Go to http://www.sgi.com/tech/stl/Assignable.html.">
<polygon fill="white" stroke="#666666" points="118,-232.38 0,-232.38 0,-213.12 118,-213.12 118,-232.38"/>
<text xml:space="preserve" text-anchor="middle" x="59" y="-218.88" font-family="FreeSans" font-size="10.00">boost::Assignable&lt; T &gt;</text>
</a>
</g>
</g>
<!-- Node3&#45;&gt;Node2 -->
<g id="edge2_Node000002_Node000003" class="edge">
<title>Node3&#45;&gt;Node2</title>
<g id="a_edge2_Node000002_Node000003"><a xlink:title=" ">
<path fill="none" stroke="#63b8ff" d="M69.71,-203.13C78.16,-188.42 89.8,-168.17 97.6,-154.61"/>
<polygon fill="#63b8ff" stroke="#63b8ff" points="66.91,-200.96 64.96,-211.38 72.98,-204.45 66.91,-200.96"/>
</a>
</g>
</g>
<!-- Node4 -->
<g id="Node000004" class="node">
<title>Node4</title>
<g id="a_Node000004"><a xlink:href="structDGtal_1_1concepts_1_1CUnaryFunctor.html" target="_top" xlink:title="Aim: Defines a unary functor, which associates arguments to results.">
<polygon fill="white" stroke="#666666" points="296,-238 136,-238 136,-207.5 296,-207.5 296,-238"/>
<text xml:space="preserve" text-anchor="start" x="144" y="-224.5" font-family="FreeSans" font-size="10.00">DGtal::concepts::CUnaryFunctor</text>
<text xml:space="preserve" text-anchor="middle" x="216" y="-213.25" font-family="FreeSans" font-size="10.00">&lt; X, A, R &gt;</text>
</a>
</g>
</g>
<!-- Node4&#45;&gt;Node2 -->
<g id="edge3_Node000002_Node000004" class="edge">
<title>Node4&#45;&gt;Node2</title>
<g id="a_edge3_Node000002_Node000004"><a xlink:title=" ">
<path fill="none" stroke="orange" stroke-dasharray="5,2" d="M187.31,-200.42C167.85,-185.97 142.65,-167.24 125.5,-154.49"/>
<polygon fill="orange" stroke="orange" points="185.01,-203.08 195.12,-206.23 189.18,-197.46 185.01,-203.08"/>
</a>
</g>
<text xml:space="preserve" text-anchor="start" x="173.85" y="-177" font-family="FreeSans" font-size="10.00" fill="grey">&lt; T, T::SCell, T::RealPoint &gt;</text>
</g>
<!-- Node5 -->
<g id="Node000005" class="node">
<title>Node5</title>
<g id="a_Node000005"><a xlink:href="structboost_1_1Assignable.html" target="_top" xlink:title=" ">
<polygon fill="white" stroke="#666666" points="275.38,-294.25 156.62,-294.25 156.62,-275 275.38,-275 275.38,-294.25"/>
<text xml:space="preserve" text-anchor="middle" x="216" y="-280.75" font-family="FreeSans" font-size="10.00">boost::Assignable&lt; X &gt;</text>
</a>
</g>
</g>
<!-- Node5&#45;&gt;Node4 -->
<g id="edge4_Node000004_Node000005" class="edge">
<title>Node5&#45;&gt;Node4</title>
<g id="a_edge4_Node000004_Node000005"><a xlink:title=" ">
<path fill="none" stroke="#63b8ff" d="M216,-263.19C216,-254.93 216,-245.59 216,-238.07"/>
<polygon fill="#63b8ff" stroke="#63b8ff" points="212.5,-263.02 216,-273.02 219.5,-263.02 212.5,-263.02"/>
</a>
</g>
</g>
<!-- Node6 -->
<g id="Node000006" class="node">
<title>Node6</title>
<g id="a_Node000006"><a xlink:href="structboost_1_1Assignable.html" target="_top" xlink:title="Go to http://www.sgi.com/tech/stl/Assignable.html.">
<polygon fill="white" stroke="#666666" points="275,-366.75 157,-366.75 157,-347.5 275,-347.5 275,-366.75"/>
<text xml:space="preserve" text-anchor="middle" x="216" y="-353.25" font-family="FreeSans" font-size="10.00">boost::Assignable&lt; T &gt;</text>
</a>
</g>
</g>
<!-- Node6&#45;&gt;Node5 -->
<g id="edge5_Node000005_Node000006" class="edge">
<title>Node6&#45;&gt;Node5</title>
<g id="a_edge5_Node000005_Node000006"><a xlink:title=" ">
<path fill="none" stroke="orange" stroke-dasharray="5,2" d="M216,-336.05C216,-322.44 216,-305.1 216,-294.7"/>
<polygon fill="orange" stroke="orange" points="212.5,-335.68 216,-345.68 219.5,-335.68 212.5,-335.68"/>
</a>
</g>
<text xml:space="preserve" text-anchor="start" x="219" y="-317" font-family="FreeSans" font-size="10.00" fill="grey">&lt; X &gt;</text>
</g>
</g>
</svg>
