<?xml version="1.0" encoding="UTF-8" standalone="no"?>
<!DOCTYPE svg PUBLIC "-//W3C//DTD SVG 1.1//EN"
 "http://www.w3.org/Graphics/SVG/1.1/DTD/svg11.dtd">
<!-- Generated by graphviz version 13.0.1 (20250615.1724)
 -->
<!-- Title: LibBoard::GouraudTriangle Pages: 1 -->
<svg width="140pt" height="138pt"
 viewBox="0.00 0.00 140.00 138.00" xmlns="http://www.w3.org/2000/svg" xmlns:xlink="http://www.w3.org/1999/xlink">
<g id="graph0" class="graph" transform="scale(1 1) rotate(0) translate(4 133.75)">
<title>LibBoard::GouraudTriangle</title>
<!-- Node1 -->
<g id="Node000001" class="node">
<title>Node1</title>
<g id="a_Node000001"><a xlink:title="A triangle with shaded filling according to colors given for each vertex.">
<polygon fill="#999999" stroke="#666666" points="131.5,-19.25 0,-19.25 0,0 131.5,0 131.5,-19.25"/>
<text xml:space="preserve" text-anchor="middle" x="65.75" y="-5.75" font-family="FreeSans" font-size="10.00">LibBoard::GouraudTriangle</text>
</a>
</g>
</g>
<!-- Node2 -->
<g id="Node000002" class="node">
<title>Node2</title>
<g id="a_Node000002"><a xlink:href="structLibBoard_1_1Polyline.html" target="_top" xlink:title="A polygonal line described by a series of 2D points.">
<polygon fill="white" stroke="#666666" points="113.12,-74.5 18.38,-74.5 18.38,-55.25 113.12,-55.25 113.12,-74.5"/>
<text xml:space="preserve" text-anchor="middle" x="65.75" y="-61" font-family="FreeSans" font-size="10.00">LibBoard::Polyline</text>
</a>
</g>
</g>
<!-- Node2&#45;&gt;Node1 -->
<g id="edge1_Node000001_Node000002" class="edge">
<title>Node2&#45;&gt;Node1</title>
<g id="a_edge1_Node000001_Node000002"><a xlink:title=" ">
<path fill="none" stroke="#63b8ff" d="M65.75,-43.63C65.75,-35.34 65.75,-26.17 65.75,-19.61"/>
<polygon fill="#63b8ff" stroke="#63b8ff" points="62.25,-43.57 65.75,-53.57 69.25,-43.57 62.25,-43.57"/>
</a>
</g>
</g>
<!-- Node3 -->
<g id="Node000003" class="node">
<title>Node3</title>
<g id="a_Node000003"><a xlink:href="structLibBoard_1_1Shape.html" target="_top" xlink:title="Abstract structure for a 2D shape.">
<polygon fill="white" stroke="#666666" points="109.75,-129.75 21.75,-129.75 21.75,-110.5 109.75,-110.5 109.75,-129.75"/>
<text xml:space="preserve" text-anchor="middle" x="65.75" y="-116.25" font-family="FreeSans" font-size="10.00">LibBoard::Shape</text>
</a>
</g>
</g>
<!-- Node3&#45;&gt;Node2 -->
<g id="edge2_Node000002_Node000003" class="edge">
<title>Node3&#45;&gt;Node2</title>
<g id="a_edge2_Node000002_Node000003"><a xlink:title=" ">
<path fill="none" stroke="#63b8ff" d="M65.75,-98.88C65.75,-90.59 65.75,-81.42 65.75,-74.86"/>
<polygon fill="#63b8ff" stroke="#63b8ff" points="62.25,-98.82 65.75,-108.82 69.25,-98.82 62.25,-98.82"/>
</a>
</g>
</g>
</g>
</svg>
