<?xml version="1.0" encoding="UTF-8" standalone="no"?>
<!DOCTYPE svg PUBLIC "-//W3C//DTD SVG 1.1//EN"
 "http://www.w3.org/Graphics/SVG/1.1/DTD/svg11.dtd">
<!-- Generated by graphviz version 13.0.1 (20250615.1724)
 -->
<!-- Title: DGtal::NumberTraits&lt; T &gt; Pages: 1 -->
<!--zoomable 370 -->

<svg id="main" version="1.1" xmlns="http://www.w3.org/2000/svg" xmlns:xlink="http://www.w3.org/1999/xlink" xml:space="preserve" onload="init(evt)">

<style type="text/css"><![CDATA[
.node, .edge {opacity: 0.7;}
.node.selected, .edge.selected {opacity: 1;}
.edge:hover path { stroke: red; }
.edge:hover polygon { stroke: red; fill: red; }
]]></style>

<defs>
  <circle id="rim" cx="0" cy="0" r="7"/>
  <circle id="rim2" cx="0" cy="0" r="3.5"/>
  <g id="zoomPlus">
    <use xlink:href="#rim" fill="#404040"><set attributeName="fill" to="#808080" begin="zoomplus.mouseover" end="zoomplus.mouseout"/></use>
    <path d="M-4,0h8M0,-4v8" fill="none" stroke="white" stroke-width="1.5" pointer-events="none"/>
  </g>
  <g id="zoomMin">
    <use xlink:href="#rim" fill="#404040"><set attributeName="fill" to="#808080" begin="zoomminus.mouseover" end="zoomminus.mouseout"/></use>
    <path d="M-4,0h8" fill="none" stroke="white" stroke-width="1.5" pointer-events="none"/>
  </g>
  <g id="arrowUp" transform="translate(30 24)">
    <use xlink:href="#rim"/>
    <path pointer-events="none" fill="none" stroke="white" stroke-width="1.5" d="M0,-3.0v7 M-2.5,-0.5L0,-3.0L2.5,-0.5"/>
  </g>
  <g id="arrowRight" transform="rotate(90) translate(36 -43)">
    <use xlink:href="#rim"/>
    <path pointer-events="none" fill="none" stroke="white" stroke-width="1.5" d="M0,-3.0v7 M-2.5,-0.5L0,-3.0L2.5,-0.5"/>
  </g>
  <g id="arrowDown" transform="rotate(180) translate(-30 -48)">
    <use xlink:href="#rim"/>
    <path pointer-events="none" fill="none" stroke="white" stroke-width="1.5" d="M0,-3.0v7 M-2.5,-0.5L0,-3.0L2.5,-0.5"/>
  </g>
  <g id="arrowLeft" transform="rotate(270) translate(-36 17)">
    <use xlink:href="#rim"/>
    <path pointer-events="none" fill="none" stroke="white" stroke-width="1.5" d="M0,-3.0v7 M-2.5,-0.5L0,-3.0L2.5,-0.5"/>
  </g>
  <g id="resetDef">
    <use xlink:href="#rim2" fill="#404040"><set attributeName="fill" to="#808080" begin="reset.mouseover" end="reset.mouseout"/></use>
  </g>
</defs>
<script type="application/ecmascript">
var viewWidth = 894;
var viewHeight = 370;
var sectionId = 'dynsection-0';
</script>
<script type="application/ecmascript" xlink:href="svg.min.js"/>
<svg id="graph" class="graph">
<g id="viewport">
<title>DGtal::NumberTraits&lt; T &gt;</title>
<!-- Node1 -->
<g id="Node000001" class="node">
<title>Node1</title>
<g id="a_Node000001"><a xlink:title="Aim: The traits class for all models of Cinteger.">
<polygon fill="#999999" stroke="#666666" points="548.5,-181.03 417.75,-181.03 417.75,-161.78 548.5,-161.78 548.5,-181.03"/>
<text xml:space="preserve" text-anchor="middle" x="483.12" y="-167.53" font-family="FreeSans" font-size="10.00">DGtal::NumberTraits&lt; T &gt;</text>
</a>
</g>
</g>
<!-- Node4 -->
<g id="Node000004" class="node">
<title>Node4</title>
<g id="a_Node000004"><a xlink:href="structDGtal_1_1NumberTraits.html" target="_top" xlink:title=" ">
<polygon fill="white" stroke="#666666" points="867.88,-349.66 757.38,-349.66 757.38,-319.16 867.88,-319.16 867.88,-349.66"/>
<text xml:space="preserve" text-anchor="start" x="765.38" y="-336.16" font-family="FreeSans" font-size="10.00">DGtal::SignedVersion</text>
<text xml:space="preserve" text-anchor="middle" x="812.62" y="-324.91" font-family="FreeSans" font-size="10.00">&lt; TInteger &gt;</text>
</a>
</g>
</g>
<!-- Node1&#45;&gt;Node4 -->
<g id="edge3_Node000001_Node000004" class="edge">
<title>Node1&#45;&gt;Node4</title>
<g id="a_edge3_Node000001_Node000004"><a xlink:title=" ">
<path fill="none" stroke="orange" stroke-dasharray="5,2" d="M489.69,-192.02C499.43,-223.72 522.82,-283.64 566.5,-311.41 623.67,-347.75 704.02,-347.91 756.92,-342.75"/>
<polygon fill="orange" stroke="orange" points="493.17,-191.47 487.03,-182.84 486.45,-193.42 493.17,-191.47"/>
</a>
</g>
<text xml:space="preserve" text-anchor="start" x="582.25" y="-349.9" font-family="FreeSans" font-size="10.00" fill="grey">&lt; TInteger &gt;::SignedVersion</text>
</g>
<!-- Node5 -->
<g id="Node000005" class="node">
<title>Node5</title>
<g id="a_Node000005"><a xlink:href="structDGtal_1_1NumberTraits.html" target="_top" xlink:title=" ">
<polygon fill="white" stroke="#666666" points="885.12,-301.03 740.12,-301.03 740.12,-281.78 885.12,-281.78 885.12,-301.03"/>
<text xml:space="preserve" text-anchor="middle" x="812.62" y="-287.53" font-family="FreeSans" font-size="10.00">DGtal::ParamType&lt; Integer &gt;</text>
</a>
</g>
</g>
<!-- Node1&#45;&gt;Node5 -->
<g id="edge4_Node000001_Node000005" class="edge">
<title>Node1&#45;&gt;Node5</title>
<g id="a_edge4_Node000001_Node000005"><a xlink:title=" ">
<path fill="none" stroke="orange" stroke-dasharray="5,2" d="M494.41,-191.21C507.64,-214.42 532.98,-251.93 566.5,-269.41 595.67,-284.62 678.45,-289.49 739.79,-290.96"/>
<polygon fill="orange" stroke="orange" points="497.64,-189.82 489.77,-182.72 491.5,-193.18 497.64,-189.82"/>
</a>
</g>
<text xml:space="preserve" text-anchor="start" x="592" y="-295.14" font-family="FreeSans" font-size="10.00" fill="grey">&lt; Integer &gt;::ParamType</text>
</g>
<!-- Node6 -->
<g id="Node000006" class="node">
<title>Node6</title>
<g id="a_Node000006"><a xlink:href="structDGtal_1_1NumberTraits.html" target="_top" xlink:title=" ">
<polygon fill="white" stroke="#666666" points="873.5,-263.66 751.75,-263.66 751.75,-233.16 873.5,-233.16 873.5,-263.66"/>
<text xml:space="preserve" text-anchor="start" x="759.75" y="-250.16" font-family="FreeSans" font-size="10.00">DGtal::UnsignedVersion</text>
<text xml:space="preserve" text-anchor="middle" x="812.62" y="-238.91" font-family="FreeSans" font-size="10.00">&lt; TInteger &gt;</text>
</a>
</g>
</g>
<!-- Node1&#45;&gt;Node6 -->
<g id="edge5_Node000001_Node000006" class="edge">
<title>Node1&#45;&gt;Node6</title>
<g id="a_edge5_Node000001_Node000006"><a xlink:title=" ">
<path fill="none" stroke="orange" stroke-dasharray="5,2" d="M503.92,-188.8C519.71,-201.59 543,-218.12 566.5,-226.41 626.94,-247.72 700.71,-251.61 751.44,-251.18"/>
<polygon fill="orange" stroke="orange" points="506.2,-186.14 496.28,-182.41 501.7,-191.51 506.2,-186.14"/>
</a>
</g>
<text xml:space="preserve" text-anchor="start" x="576.62" y="-255.48" font-family="FreeSans" font-size="10.00" fill="grey">&lt; TInteger &gt;::UnsignedVersion</text>
</g>
<!-- Node7 -->
<g id="Node000007" class="node">
<title>Node7</title>
<g id="a_Node000007"><a xlink:href="structDGtal_1_1NumberTraits.html" target="_top" xlink:title=" ">
<polygon fill="white" stroke="#666666" points="886.25,-214.66 739,-214.66 739,-184.16 886.25,-184.16 886.25,-214.66"/>
<text xml:space="preserve" text-anchor="start" x="747" y="-201.16" font-family="FreeSans" font-size="10.00">DGtal::ParamType&lt; Unsigned</text>
<text xml:space="preserve" text-anchor="middle" x="812.62" y="-189.91" font-family="FreeSans" font-size="10.00">Integer &gt;</text>
</a>
</g>
</g>
<!-- Node1&#45;&gt;Node7 -->
<g id="edge6_Node000001_Node000007" class="edge">
<title>Node1&#45;&gt;Node7</title>
<g id="a_edge6_Node000001_Node000007"><a xlink:title=" ">
<path fill="none" stroke="orange" stroke-dasharray="5,2" d="M560.03,-177.89C613.85,-182.5 685.66,-188.64 738.78,-193.18"/>
<polygon fill="orange" stroke="orange" points="560.6,-174.43 550.34,-177.07 560,-181.41 560.6,-174.43"/>
</a>
</g>
<text xml:space="preserve" text-anchor="start" x="599.12" y="-211.13" font-family="FreeSans" font-size="10.00" fill="grey">&lt; UnsignedInteger &gt;</text>
<text xml:space="preserve" text-anchor="start" x="599.12" y="-195.88" font-family="FreeSans" font-size="10.00" fill="grey">  ::ParamType</text>
</g>
<!-- Node8 -->
<g id="Node000008" class="node">
<title>Node8</title>
<g id="a_Node000008"><a xlink:href="structDGtal_1_1NumberTraits.html" target="_top" xlink:title=" ">
<polygon fill="white" stroke="#666666" points="873.5,-165.66 751.75,-165.66 751.75,-135.16 873.5,-135.16 873.5,-165.66"/>
<text xml:space="preserve" text-anchor="start" x="759.75" y="-152.16" font-family="FreeSans" font-size="10.00">DGtal::UnsignedVersion</text>
<text xml:space="preserve" text-anchor="middle" x="812.62" y="-140.91" font-family="FreeSans" font-size="10.00">&lt; Integer &gt;</text>
</a>
</g>
</g>
<!-- Node1&#45;&gt;Node8 -->
<g id="edge7_Node000001_Node000008" class="edge">
<title>Node1&#45;&gt;Node8</title>
<g id="a_edge7_Node000001_Node000008"><a xlink:title=" ">
<path fill="none" stroke="orange" stroke-dasharray="5,2" d="M533.08,-158.82C544.01,-156.5 555.59,-154.41 566.5,-153.16 629.29,-145.93 701.71,-146.16 751.47,-147.63"/>
<polygon fill="orange" stroke="orange" points="532.46,-155.37 523.46,-160.97 533.99,-162.2 532.46,-155.37"/>
</a>
</g>
<text xml:space="preserve" text-anchor="start" x="579.62" y="-157.91" font-family="FreeSans" font-size="10.00" fill="grey">&lt; Integer &gt;::UnsignedVersion</text>
</g>
<!-- Node9 -->
<g id="Node000009" class="node">
<title>Node9</title>
<g id="a_Node000009"><a xlink:href="structDGtal_1_1NumberTraits.html" target="_top" xlink:title=" ">
<polygon fill="white" stroke="#666666" points="873.5,-116.66 751.75,-116.66 751.75,-86.16 873.5,-86.16 873.5,-116.66"/>
<text xml:space="preserve" text-anchor="start" x="759.75" y="-103.16" font-family="FreeSans" font-size="10.00">DGtal::UnsignedVersion</text>
<text xml:space="preserve" text-anchor="middle" x="812.62" y="-91.91" font-family="FreeSans" font-size="10.00">&lt; Component &gt;</text>
</a>
</g>
</g>
<!-- Node1&#45;&gt;Node9 -->
<g id="edge8_Node000001_Node000009" class="edge">
<title>Node1&#45;&gt;Node9</title>
<g id="a_edge8_Node000001_Node000009"><a xlink:title=" ">
<path fill="none" stroke="orange" stroke-dasharray="5,2" d="M507.37,-154.89C523.24,-144.5 545.19,-131.84 566.5,-125.16 627.49,-106.02 700.84,-101.13 751.32,-100.38"/>
<polygon fill="orange" stroke="orange" points="505.46,-151.95 499.13,-160.45 509.38,-157.75 505.46,-151.95"/>
</a>
</g>
<text xml:space="preserve" text-anchor="start" x="569.5" y="-129.91" font-family="FreeSans" font-size="10.00" fill="grey">&lt; Component &gt;::UnsignedVersion</text>
</g>
<!-- Node10 -->
<g id="Node000010" class="node">
<title>Node10</title>
<g id="a_Node000010"><a xlink:href="structDGtal_1_1NumberTraits.html" target="_top" xlink:title=" ">
<polygon fill="white" stroke="#666666" points="883.62,-68.03 741.62,-68.03 741.62,-48.78 883.62,-48.78 883.62,-68.03"/>
<text xml:space="preserve" text-anchor="middle" x="812.62" y="-54.53" font-family="FreeSans" font-size="10.00">DGtal::IsBounded&lt; Integer &gt;</text>
</a>
</g>
</g>
<!-- Node1&#45;&gt;Node10 -->
<g id="edge9_Node000001_Node000010" class="edge">
<title>Node1&#45;&gt;Node10</title>
<g id="a_edge9_Node000001_Node000010"><a xlink:title=" ">
<path fill="none" stroke="orange" stroke-dasharray="5,2" d="M495.55,-151.68C509.32,-129.97 534.64,-96.04 566.5,-80.16 620.79,-53.09 690.28,-49.36 741.39,-51.4"/>
<polygon fill="orange" stroke="orange" points="492.58,-149.84 490.37,-160.2 498.56,-153.48 492.58,-149.84"/>
</a>
</g>
<text xml:space="preserve" text-anchor="start" x="593.5" y="-84.91" font-family="FreeSans" font-size="10.00" fill="grey">&lt; Integer &gt;::IsBounded</text>
</g>
<!-- Node11 -->
<g id="Node000011" class="node">
<title>Node11</title>
<g id="a_Node000011"><a xlink:href="structDGtal_1_1NumberTraits.html" target="_top" xlink:title=" ">
<polygon fill="white" stroke="#666666" points="866,-30.66 759.25,-30.66 759.25,-0.16 866,-0.16 866,-30.66"/>
<text xml:space="preserve" text-anchor="start" x="767.25" y="-17.16" font-family="FreeSans" font-size="10.00">DGtal::NumberTraits</text>
<text xml:space="preserve" text-anchor="middle" x="812.62" y="-5.91" font-family="FreeSans" font-size="10.00">&lt; TInteger &gt;</text>
</a>
</g>
</g>
<!-- Node1&#45;&gt;Node11 -->
<g id="edge10_Node000001_Node000011" class="edge">
<title>Node1&#45;&gt;Node11</title>
<g id="a_edge10_Node000001_Node000011"><a xlink:title=" ">
<path fill="none" stroke="orange" stroke-dasharray="5,2" d="M489.38,-150.89C498.81,-118.81 521.9,-57.59 566.5,-30.16 624.78,5.7 706.34,2.39 759.07,-5.06"/>
<polygon fill="orange" stroke="orange" points="486.11,-149.6 486.82,-160.17 492.86,-151.46 486.11,-149.6"/>
</a>
</g>
<text xml:space="preserve" text-anchor="start" x="616.75" y="-34.91" font-family="FreeSans" font-size="10.00" fill="grey">&lt; TInteger &gt;</text>
</g>
<!-- Node2 -->
<g id="Node000002" class="node">
<title>Node2</title>
<g id="a_Node000002"><a xlink:href="structDGtal_1_1NumberTraitsImpl.html" target="_top" xlink:title=" ">
<polygon fill="white" stroke="#666666" points="380.75,-186.66 252.25,-186.66 252.25,-156.16 380.75,-156.16 380.75,-186.66"/>
<text xml:space="preserve" text-anchor="start" x="260.25" y="-173.16" font-family="FreeSans" font-size="10.00">DGtal::NumberTraitsImpl</text>
<text xml:space="preserve" text-anchor="middle" x="316.5" y="-161.91" font-family="FreeSans" font-size="10.00">&lt; std::decay&lt; T &gt;::type &gt;</text>
</a>
</g>
</g>
<!-- Node2&#45;&gt;Node1 -->
<g id="edge1_Node000001_Node000002" class="edge">
<title>Node2&#45;&gt;Node1</title>
<g id="a_edge1_Node000001_Node000002"><a xlink:title=" ">
<path fill="none" stroke="#63b8ff" d="M392.39,-171.41C400.7,-171.41 409.11,-171.41 417.29,-171.41"/>
<polygon fill="#63b8ff" stroke="#63b8ff" points="392.66,-167.91 382.66,-171.41 392.66,-174.91 392.66,-167.91"/>
</a>
</g>
</g>
<!-- Node3 -->
<g id="Node000003" class="node">
<title>Node3</title>
<g id="a_Node000003"><a xlink:href="structDGtal_1_1NumberTraitsImpl.html" target="_top" xlink:title="Aim: The traits class for all models of Cinteger (implementation)">
<polygon fill="white" stroke="#666666" points="125.5,-186.66 0,-186.66 0,-156.16 125.5,-156.16 125.5,-186.66"/>
<text xml:space="preserve" text-anchor="start" x="8" y="-173.16" font-family="FreeSans" font-size="10.00">DGtal::NumberTraitsImpl</text>
<text xml:space="preserve" text-anchor="middle" x="62.75" y="-161.91" font-family="FreeSans" font-size="10.00">&lt; T, Enable &gt;</text>
</a>
</g>
</g>
<!-- Node3&#45;&gt;Node2 -->
<g id="edge2_Node000002_Node000003" class="edge">
<title>Node3&#45;&gt;Node2</title>
<g id="a_edge2_Node000002_Node000003"><a xlink:title=" ">
<path fill="none" stroke="orange" stroke-dasharray="5,2" d="M137.48,-171.41C173.74,-171.41 217,-171.41 251.8,-171.41"/>
<polygon fill="orange" stroke="orange" points="137.49,-167.91 127.49,-171.41 137.49,-174.91 137.49,-167.91"/>
</a>
</g>
<text xml:space="preserve" text-anchor="start" x="146.5" y="-191.41" font-family="FreeSans" font-size="10.00" fill="grey">&lt; std::decay&lt; T &gt;::</text>
<text xml:space="preserve" text-anchor="start" x="146.5" y="-176.16" font-family="FreeSans" font-size="10.00" fill="grey">  type &gt;</text>
</g>
</g>
</svg>

<g id="navigator" transform="translate(0 0)" fill="#404254">
  <rect fill="#f2f5e9" fill-opacity="0.5" stroke="#606060" stroke-width=".5" x="0" y="0" width="60" height="60"/>
  <use id="zoomplus" xlink:href="#zoomPlus" x="17" y="9" onmousedown="handleZoom(evt,'in')"/>
  <use id="zoomminus" xlink:href="#zoomMin" x="42" y="9" onmousedown="handleZoom(evt,'out')"/>
  <use id="reset" xlink:href="#resetDef" x="30" y="36" onmousedown="handleReset()"/>
   <use id="arrowup" xlink:href="#arrowUp" x="0" y="0" onmousedown="handlePan(0,-1)"/>
  <use id="arrowright" xlink:href="#arrowRight" x="0" y="0" onmousedown="handlePan(1,0)"/>
  <use id="arrowdown" xlink:href="#arrowDown" x="0" y="0" onmousedown="handlePan(0,1)"/>
  <use id="arrowleft" xlink:href="#arrowLeft" x="0" y="0" onmousedown="handlePan(-1,0)"/>
</g>
<svg viewBox="0 0 15 15" width="100%" height="30px" preserveAspectRatio="xMaxYMin meet">
 <g id="arrow_out" transform="scale(0.3 0.3)">
  <a xlink:href="structDGtal_1_1NumberTraits__inherit__graph_org.svg" target="_base">
   <rect id="button" ry="5" rx="5" y="6" x="6" height="38" width="38"
        fill="#f2f5e9" fill-opacity="0.5" stroke="#606060" stroke-width="1.0"/>
   <path id="arrow"
     d="M 11.500037,31.436501 C 11.940474,20.09759 22.043105,11.32322 32.158766,21.979434 L 37.068811,17.246167 C 37.068811,17.246167 37.088388,32 37.088388,32 L 22.160133,31.978069 C 22.160133,31.978069 26.997745,27.140456 26.997745,27.140456 C 18.528582,18.264221 13.291696,25.230495 11.500037,31.436501 z"
     style="fill:#404040;"/>
  </a>
 </g>
</svg>

<style type='text/css'>
<![CDATA[
[data-mouse-over-selected='false'] { opacity: 0.7; }
[data-mouse-over-selected='true']  { opacity: 1.0; }
]]>
</style>
<script type="application/ecmascript"><![CDATA[
document.addEventListener('DOMContentLoaded', (event) => {
  highlightEdges();
  highlightAdjacentNodes();
});
]]></script>
</svg>
