<?xml version="1.0" encoding="UTF-8" standalone="no"?>
<!DOCTYPE svg PUBLIC "-//W3C//DTD SVG 1.1//EN"
 "http://www.w3.org/Graphics/SVG/1.1/DTD/svg11.dtd">
<!-- Generated by graphviz version 13.1.2 (20250808.2320)
 -->
<!-- Title: DGtal::Quantity&lt; T &gt; Pages: 1 -->
<svg width="390pt" height="132pt"
 viewBox="0.00 0.00 390.00 132.00" xmlns="http://www.w3.org/2000/svg" xmlns:xlink="http://www.w3.org/1999/xlink">
<g id="graph0" class="graph" transform="scale(1 1) rotate(0) translate(4 127.88)">
<title>DGtal::Quantity&lt; T &gt;</title>
<!-- Node1 -->
<g id="Node000001" class="node">
<title>Node1</title>
<g id="a_Node000001"><a xlink:title="Wrapper for array of quantities.">
<polygon fill="#999999" stroke="#666666" points="108.25,-62.25 0,-62.25 0,-43 108.25,-43 108.25,-62.25"/>
<text xml:space="preserve" text-anchor="middle" x="54.12" y="-48.75" font-family="FreeSans" font-size="10.00">DGtal::Quantity&lt; T &gt;</text>
</a>
</g>
</g>
<!-- Node2 -->
<g id="Node000002" class="node">
<title>Node2</title>
<g id="a_Node000002"><a xlink:href="structDGtal_1_1Quantity.html" target="_top" xlink:title=" ">
<polygon fill="white" stroke="#666666" points="371,-123.88 252.25,-123.88 252.25,-93.38 371,-93.38 371,-123.88"/>
<text xml:space="preserve" text-anchor="start" x="260.25" y="-110.38" font-family="FreeSans" font-size="10.00">DGtal::Quantity&lt; DGtal</text>
<text xml:space="preserve" text-anchor="middle" x="311.62" y="-99.12" font-family="FreeSans" font-size="10.00">::Color &gt;</text>
</a>
</g>
</g>
<!-- Node1&#45;&gt;Node2 -->
<g id="edge1_Node000001_Node000002" class="edge">
<title>Node1&#45;&gt;Node2</title>
<g id="a_edge1_Node000001_Node000002"><a xlink:title=" ">
<path fill="none" stroke="orange" stroke-dasharray="5,2" d="M82.12,-68.11C95.07,-74.85 111.05,-82.22 126.25,-86.62 167.27,-98.53 215.22,-104 251.94,-106.51"/>
<polygon fill="orange" stroke="orange" points="83.83,-65.05 73.37,-63.38 80.5,-71.21 83.83,-65.05"/>
</a>
</g>
<text xml:space="preserve" text-anchor="start" x="138.62" y="-108.57" font-family="FreeSans" font-size="10.00" fill="grey">&lt; DGtal::Color &gt;</text>
</g>
<!-- Node3 -->
<g id="Node000003" class="node">
<title>Node3</title>
<g id="a_Node000003"><a xlink:href="structDGtal_1_1Quantity.html" target="_top" xlink:title=" ">
<polygon fill="white" stroke="#666666" points="381.5,-67.88 241.75,-67.88 241.75,-37.38 381.5,-37.38 381.5,-67.88"/>
<text xml:space="preserve" text-anchor="start" x="249.75" y="-54.38" font-family="FreeSans" font-size="10.00">DGtal::Quantity&lt; DGtal</text>
<text xml:space="preserve" text-anchor="middle" x="311.62" y="-43.12" font-family="FreeSans" font-size="10.00">::PointVector&lt; 3, double &gt; &gt;</text>
</a>
</g>
</g>
<!-- Node1&#45;&gt;Node3 -->
<g id="edge2_Node000001_Node000003" class="edge">
<title>Node1&#45;&gt;Node3</title>
<g id="a_edge2_Node000001_Node000003"><a xlink:title=" ">
<path fill="none" stroke="orange" stroke-dasharray="5,2" d="M119.9,-52.62C157.06,-52.62 203.72,-52.62 241.58,-52.62"/>
<polygon fill="orange" stroke="orange" points="120.2,-49.13 110.2,-52.63 120.2,-56.13 120.2,-49.13"/>
</a>
</g>
<text xml:space="preserve" text-anchor="start" x="129.25" y="-72.62" font-family="FreeSans" font-size="10.00" fill="grey">&lt; DGtal::PointVector</text>
<text xml:space="preserve" text-anchor="start" x="129.25" y="-57.38" font-family="FreeSans" font-size="10.00" fill="grey">  &lt; 3, double &gt; &gt;</text>
</g>
<!-- Node4 -->
<g id="Node000004" class="node">
<title>Node4</title>
<g id="a_Node000004"><a xlink:href="structDGtal_1_1Quantity.html" target="_top" xlink:title=" ">
<polygon fill="white" stroke="#666666" points="377,-19.25 246.25,-19.25 246.25,0 377,0 377,-19.25"/>
<text xml:space="preserve" text-anchor="middle" x="311.62" y="-5.75" font-family="FreeSans" font-size="10.00">DGtal::Quantity&lt; double &gt;</text>
</a>
</g>
</g>
<!-- Node1&#45;&gt;Node4 -->
<g id="edge3_Node000001_Node000004" class="edge">
<title>Node1&#45;&gt;Node4</title>
<g id="a_edge3_Node000001_Node000004"><a xlink:title=" ">
<path fill="none" stroke="orange" stroke-dasharray="5,2" d="M95.47,-39.25C105.44,-36.31 116.16,-33.46 126.25,-31.38 165.55,-23.25 210.23,-17.88 245.76,-14.51"/>
<polygon fill="orange" stroke="orange" points="94.58,-35.86 86.04,-42.13 96.63,-42.56 94.58,-35.86"/>
</a>
</g>
<text xml:space="preserve" text-anchor="start" x="151.75" y="-36.12" font-family="FreeSans" font-size="10.00" fill="grey">&lt; double &gt;</text>
</g>
</g>
</svg>
