<?xml version="1.0" encoding="UTF-8" standalone="no"?>
<!DOCTYPE svg PUBLIC "-//W3C//DTD SVG 1.1//EN"
 "http://www.w3.org/Graphics/SVG/1.1/DTD/svg11.dtd">
<!-- Generated by graphviz version 13.1.2 (20250808.2320)
 -->
<!-- Title: DGtal::ConvexHullCommonKernel&lt; dim, TCoordinateInteger, TInternalInteger &gt; Pages: 1 -->
<!--zoomable 430 -->

<svg id="main" version="1.1" xmlns="http://www.w3.org/2000/svg" xmlns:xlink="http://www.w3.org/1999/xlink" xml:space="preserve" onload="init(evt)">

<style type="text/css"><![CDATA[
.node, .edge {opacity: 0.7;}
.node.selected, .edge.selected {opacity: 1;}
.edge:hover path { stroke: red; }
.edge:hover polygon { stroke: red; fill: red; }
]]></style>

<defs>
  <circle id="rim" cx="0" cy="0" r="7"/>
  <circle id="rim2" cx="0" cy="0" r="3.5"/>
  <g id="zoomPlus">
    <use xlink:href="#rim" fill="#404040"><set attributeName="fill" to="#808080" begin="zoomplus.mouseover" end="zoomplus.mouseout"/></use>
    <path d="M-4,0h8M0,-4v8" fill="none" stroke="white" stroke-width="1.5" pointer-events="none"/>
  </g>
  <g id="zoomMin">
    <use xlink:href="#rim" fill="#404040"><set attributeName="fill" to="#808080" begin="zoomminus.mouseover" end="zoomminus.mouseout"/></use>
    <path d="M-4,0h8" fill="none" stroke="white" stroke-width="1.5" pointer-events="none"/>
  </g>
  <g id="arrowUp" transform="translate(30 24)">
    <use xlink:href="#rim"/>
    <path pointer-events="none" fill="none" stroke="white" stroke-width="1.5" d="M0,-3.0v7 M-2.5,-0.5L0,-3.0L2.5,-0.5"/>
  </g>
  <g id="arrowRight" transform="rotate(90) translate(36 -43)">
    <use xlink:href="#rim"/>
    <path pointer-events="none" fill="none" stroke="white" stroke-width="1.5" d="M0,-3.0v7 M-2.5,-0.5L0,-3.0L2.5,-0.5"/>
  </g>
  <g id="arrowDown" transform="rotate(180) translate(-30 -48)">
    <use xlink:href="#rim"/>
    <path pointer-events="none" fill="none" stroke="white" stroke-width="1.5" d="M0,-3.0v7 M-2.5,-0.5L0,-3.0L2.5,-0.5"/>
  </g>
  <g id="arrowLeft" transform="rotate(270) translate(-36 17)">
    <use xlink:href="#rim"/>
    <path pointer-events="none" fill="none" stroke="white" stroke-width="1.5" d="M0,-3.0v7 M-2.5,-0.5L0,-3.0L2.5,-0.5"/>
  </g>
  <g id="resetDef">
    <use xlink:href="#rim2" fill="#404040"><set attributeName="fill" to="#808080" begin="reset.mouseover" end="reset.mouseout"/></use>
  </g>
</defs>
<script type="application/ecmascript">
var viewWidth = 1000;
var viewHeight = 430;
var sectionId = 'dynsection-0';
</script>
<script type="application/ecmascript" xlink:href="svg.min.js"/>
<svg id="graph" class="graph">
<g id="viewport">
<title>DGtal::ConvexHullCommonKernel&lt; dim, TCoordinateInteger, TInternalInteger &gt;</title>
<!-- Node1 -->
<g id="Node000001" class="node">
<title>Node1</title>
<g id="a_Node000001"><a xlink:title="Aim: the common part of all geometric kernels for computing the convex hull or Delaunay triangulation...">
<polygon fill="#999999" stroke="#666666" points="166,-188.75 0,-188.75 0,-147 166,-147 166,-188.75"/>
<text xml:space="preserve" text-anchor="start" x="8" y="-175.25" font-family="FreeSans" font-size="10.00">DGtal::ConvexHullCommonKernel</text>
<text xml:space="preserve" text-anchor="start" x="8" y="-164" font-family="FreeSans" font-size="10.00">&lt; dim, TCoordinateInteger,</text>
<text xml:space="preserve" text-anchor="middle" x="83" y="-152.75" font-family="FreeSans" font-size="10.00"> TInternalInteger &gt;</text>
</a>
</g>
</g>
<!-- Node1&#45;&gt;Node1 -->
<g id="edge1_Node000001_Node000001" class="edge">
<title>Node1&#45;&gt;Node1</title>
<g id="a_edge1_Node000001_Node000001"><a xlink:title=" ">
<path fill="none" stroke="orange" stroke-dasharray="5,2" d="M69.39,-200.2C71.83,-204.16 76.37,-206.75 83,-206.75 94.79,-206.75 99.96,-198.55 98.48,-189.07"/>
<polygon fill="orange" stroke="orange" points="72.88,-199.84 67.77,-190.56 65.98,-201 72.88,-199.84"/>
</a>
</g>
<text xml:space="preserve" text-anchor="start" x="24.88" y="-226.75" font-family="FreeSans" font-size="10.00" fill="grey">&lt; dim, TCoordinateInteger,</text>
<text xml:space="preserve" text-anchor="start" x="24.88" y="-211.5" font-family="FreeSans" font-size="10.00" fill="grey">   TInternalInteger &gt;</text>
</g>
<!-- Node1&#45;&gt;Node1 -->
<g id="edge6_Node000001_Node000001" class="edge">
<title>Node1&#45;&gt;Node1</title>
<g id="a_edge6_Node000001_Node000001"><a xlink:title=" ">
<path fill="none" stroke="orange" stroke-dasharray="5,2" d="M53.32,-199.39C47.16,-219.18 57.05,-239.25 83,-239.25 113.47,-239.25 121.8,-211.58 108,-189.18"/>
<polygon fill="orange" stroke="orange" points="56.39,-201.1 57.37,-190.55 50.02,-198.18 56.39,-201.1"/>
</a>
</g>
<text xml:space="preserve" text-anchor="start" x="24.88" y="-259.25" font-family="FreeSans" font-size="10.00" fill="grey">&lt; dim, TCoordinateInteger,</text>
<text xml:space="preserve" text-anchor="start" x="24.88" y="-244" font-family="FreeSans" font-size="10.00" fill="grey">   TInternalInteger &gt;</text>
</g>
<!-- Node2 -->
<g id="Node000002" class="node">
<title>Node2</title>
<g id="a_Node000002"><a xlink:href="structDGtal_1_1ConvexHullIntegralKernel.html" target="_top" xlink:title=" ">
<polygon fill="white" stroke="#666666" points="986.38,-421.75 844.38,-421.75 844.38,-380 986.38,-380 986.38,-421.75"/>
<text xml:space="preserve" text-anchor="start" x="852.38" y="-408.25" font-family="FreeSans" font-size="10.00">DGtal::ConvexHullIntegral</text>
<text xml:space="preserve" text-anchor="start" x="852.38" y="-397" font-family="FreeSans" font-size="10.00">Kernel&lt; dim, Integer, Internal</text>
<text xml:space="preserve" text-anchor="middle" x="915.38" y="-385.75" font-family="FreeSans" font-size="10.00">Integer &gt;</text>
</a>
</g>
</g>
<!-- Node1&#45;&gt;Node2 -->
<g id="edge2_Node000001_Node000002" class="edge">
<title>Node1&#45;&gt;Node2</title>
<g id="a_edge2_Node000001_Node000002"><a xlink:title=" ">
<path fill="none" stroke="#63b8ff" d="M100.26,-198.7C117.27,-227.9 146.68,-270.76 184,-294.88 387.46,-426.31 475.02,-392 716.5,-410.88 762.69,-414.49 774.48,-413.34 820.75,-410.88 828.26,-410.48 836.09,-409.9 843.89,-409.22"/>
<polygon fill="#63b8ff" stroke="#63b8ff" points="103.49,-197.29 95.52,-190.31 97.39,-200.74 103.49,-197.29"/>
</a>
</g>
</g>
<!-- Node3 -->
<g id="Node000003" class="node">
<title>Node3</title>
<g id="a_Node000003"><a xlink:href="structDGtal_1_1ConvexHullRationalKernel.html" target="_top" xlink:title=" ">
<polygon fill="white" stroke="#666666" points="986.38,-246.75 844.38,-246.75 844.38,-205 986.38,-205 986.38,-246.75"/>
<text xml:space="preserve" text-anchor="start" x="852.38" y="-233.25" font-family="FreeSans" font-size="10.00">DGtal::ConvexHullRational</text>
<text xml:space="preserve" text-anchor="start" x="852.38" y="-222" font-family="FreeSans" font-size="10.00">Kernel&lt; dim, Integer, Internal</text>
<text xml:space="preserve" text-anchor="middle" x="915.38" y="-210.75" font-family="FreeSans" font-size="10.00">Integer &gt;</text>
</a>
</g>
</g>
<!-- Node1&#45;&gt;Node3 -->
<g id="edge3_Node000001_Node000003" class="edge">
<title>Node1&#45;&gt;Node3</title>
<g id="a_edge3_Node000001_Node000003"><a xlink:title=" ">
<path fill="none" stroke="#63b8ff" d="M177.72,-183.16C179.83,-183.41 181.93,-183.65 184,-183.88 425.33,-210.05 713.42,-220.55 843.93,-224.19"/>
<polygon fill="#63b8ff" stroke="#63b8ff" points="178.17,-179.69 167.81,-181.91 177.3,-186.64 178.17,-179.69"/>
</a>
</g>
</g>
<!-- Node4 -->
<g id="Node000004" class="node">
<title>Node4</title>
<g id="a_Node000004"><a xlink:href="structDGtal_1_1DelaunayIntegralKernel.html" target="_top" xlink:title=" ">
<polygon fill="white" stroke="#666666" points="992,-140.12 838.75,-140.12 838.75,-109.62 992,-109.62 992,-140.12"/>
<text xml:space="preserve" text-anchor="start" x="846.75" y="-126.62" font-family="FreeSans" font-size="10.00">DGtal::DelaunayIntegralKernel</text>
<text xml:space="preserve" text-anchor="middle" x="915.38" y="-115.38" font-family="FreeSans" font-size="10.00">&lt; dim, Integer, InternalInteger &gt;</text>
</a>
</g>
</g>
<!-- Node1&#45;&gt;Node4 -->
<g id="edge4_Node000001_Node000004" class="edge">
<title>Node1&#45;&gt;Node4</title>
<g id="a_edge4_Node000001_Node000004"><a xlink:title=" ">
<path fill="none" stroke="#63b8ff" d="M177.47,-169.83C317.73,-171.63 590.71,-170.77 820.75,-143.88 828.08,-143.02 835.69,-141.88 843.26,-140.6"/>
<polygon fill="#63b8ff" stroke="#63b8ff" points="177.94,-166.34 167.89,-169.7 177.84,-173.33 177.94,-166.34"/>
</a>
</g>
</g>
<!-- Node5 -->
<g id="Node000005" class="node">
<title>Node5</title>
<g id="a_Node000005"><a xlink:href="structDGtal_1_1DelaunayRationalKernel.html" target="_top" xlink:title=" ">
<polygon fill="white" stroke="#666666" points="992,-87.12 838.75,-87.12 838.75,-56.62 992,-56.62 992,-87.12"/>
<text xml:space="preserve" text-anchor="start" x="846.75" y="-73.62" font-family="FreeSans" font-size="10.00">DGtal::DelaunayRationalKernel</text>
<text xml:space="preserve" text-anchor="middle" x="915.38" y="-62.38" font-family="FreeSans" font-size="10.00">&lt; dim, Integer, InternalInteger &gt;</text>
</a>
</g>
</g>
<!-- Node1&#45;&gt;Node5 -->
<g id="edge5_Node000001_Node000005" class="edge">
<title>Node1&#45;&gt;Node5</title>
<g id="a_edge5_Node000001_Node000005"><a xlink:title=" ">
<path fill="none" stroke="#63b8ff" d="M177.82,-164.47C362.97,-157.29 762.57,-139.29 820.75,-115.88 830.41,-111.99 829.77,-106.14 838.75,-100.88 847.36,-95.82 857.01,-91.34 866.47,-87.51"/>
<polygon fill="#63b8ff" stroke="#63b8ff" points="177.85,-160.97 167.99,-164.85 178.11,-167.96 177.85,-160.97"/>
</a>
</g>
</g>
<!-- Node6 -->
<g id="Node000006" class="node">
<title>Node6</title>
<g id="a_Node000006"><a xlink:href="structDGtal_1_1ConvexHullCommonKernel.html" target="_top" xlink:title=" ">
<polygon fill="white" stroke="#666666" points="501.5,-41.75 335.5,-41.75 335.5,0 501.5,0 501.5,-41.75"/>
<text xml:space="preserve" text-anchor="start" x="343.5" y="-28.25" font-family="FreeSans" font-size="10.00">DGtal::ConvexHullCommonKernel</text>
<text xml:space="preserve" text-anchor="start" x="343.5" y="-17" font-family="FreeSans" font-size="10.00">&lt; dim+1, TCoordinateInteger,</text>
<text xml:space="preserve" text-anchor="middle" x="418.5" y="-5.75" font-family="FreeSans" font-size="10.00"> TInternalInteger &gt;</text>
</a>
</g>
</g>
<!-- Node1&#45;&gt;Node6 -->
<g id="edge7_Node000001_Node000006" class="edge">
<title>Node1&#45;&gt;Node6</title>
<g id="a_edge7_Node000001_Node000006"><a xlink:title=" ">
<path fill="none" stroke="orange" stroke-dasharray="5,2" d="M96.94,-136.19C112.3,-103.2 141.33,-53.21 184,-30.38 229.79,-5.87 288.16,-3.5 335.09,-7.25"/>
<polygon fill="orange" stroke="orange" points="93.76,-134.73 92.87,-145.28 100.15,-137.58 93.76,-134.73"/>
</a>
</g>
<text xml:space="preserve" text-anchor="start" x="187" y="-50.38" font-family="FreeSans" font-size="10.00" fill="grey">&lt; dim+1, TCoordinateInteger,</text>
<text xml:space="preserve" text-anchor="start" x="187" y="-35.12" font-family="FreeSans" font-size="10.00" fill="grey">   TInternalInteger &gt;</text>
</g>
<!-- Node7 -->
<g id="Node000007" class="node">
<title>Node7</title>
<g id="a_Node000007"><a xlink:href="structDGtal_1_1ConvexHullCommonKernel.html" target="_top" xlink:title=" ">
<polygon fill="white" stroke="#666666" points="501.5,-299.75 335.5,-299.75 335.5,-258 501.5,-258 501.5,-299.75"/>
<text xml:space="preserve" text-anchor="start" x="343.5" y="-286.25" font-family="FreeSans" font-size="10.00">DGtal::ConvexHullCommonKernel</text>
<text xml:space="preserve" text-anchor="start" x="343.5" y="-275" font-family="FreeSans" font-size="10.00">&lt; dim, DGtal::int64_t, DGtal</text>
<text xml:space="preserve" text-anchor="middle" x="418.5" y="-263.75" font-family="FreeSans" font-size="10.00">::int64_t &gt;</text>
</a>
</g>
</g>
<!-- Node1&#45;&gt;Node7 -->
<g id="edge8_Node000001_Node000007" class="edge">
<title>Node1&#45;&gt;Node7</title>
<g id="a_edge8_Node000001_Node000007"><a xlink:title=" ">
<path fill="none" stroke="orange" stroke-dasharray="5,2" d="M130.08,-194.69C146.69,-203.58 165.82,-212.96 184,-219.88 232.85,-238.46 289.67,-252.96 335.02,-262.94"/>
<polygon fill="orange" stroke="orange" points="131.88,-191.68 121.43,-189.97 128.53,-197.83 131.88,-191.68"/>
</a>
</g>
<text xml:space="preserve" text-anchor="start" x="205.75" y="-278.49" font-family="FreeSans" font-size="10.00" fill="grey">&lt; dim, DGtal::int64</text>
<text xml:space="preserve" text-anchor="start" x="205.75" y="-263.24" font-family="FreeSans" font-size="10.00" fill="grey">  _t, DGtal::int64_t &gt;</text>
</g>
<!-- Node11 -->
<g id="Node000011" class="node">
<title>Node11</title>
<g id="a_Node000011"><a xlink:href="structDGtal_1_1ConvexHullCommonKernel.html" target="_top" xlink:title=" ">
<polygon fill="white" stroke="#666666" points="501.5,-101.75 335.5,-101.75 335.5,-60 501.5,-60 501.5,-101.75"/>
<text xml:space="preserve" text-anchor="start" x="343.5" y="-88.25" font-family="FreeSans" font-size="10.00">DGtal::ConvexHullCommonKernel</text>
<text xml:space="preserve" text-anchor="start" x="343.5" y="-77" font-family="FreeSans" font-size="10.00">&lt; dim+1, DGtal::int64_t,</text>
<text xml:space="preserve" text-anchor="middle" x="418.5" y="-65.75" font-family="FreeSans" font-size="10.00"> DGtal::int64_t &gt;</text>
</a>
</g>
</g>
<!-- Node1&#45;&gt;Node11 -->
<g id="edge15_Node000001_Node000011" class="edge">
<title>Node1&#45;&gt;Node11</title>
<g id="a_edge15_Node000001_Node000011"><a xlink:title=" ">
<path fill="none" stroke="orange" stroke-dasharray="5,2" d="M108.52,-138.49C126.97,-118.79 154.12,-94.49 184,-83.38 231.88,-65.56 289.19,-64.68 335.05,-68.38"/>
<polygon fill="orange" stroke="orange" points="106.06,-135.99 101.94,-145.75 111.25,-140.69 106.06,-135.99"/>
</a>
</g>
<text xml:space="preserve" text-anchor="start" x="203.5" y="-103.38" font-family="FreeSans" font-size="10.00" fill="grey">&lt; dim+1, DGtal::int64</text>
<text xml:space="preserve" text-anchor="start" x="203.5" y="-88.12" font-family="FreeSans" font-size="10.00" fill="grey">  _t, DGtal::int64_t &gt;</text>
</g>
<!-- Node8 -->
<g id="Node000008" class="node">
<title>Node8</title>
<g id="a_Node000008"><a xlink:href="structDGtal_1_1ConvexHullIntegralKernel.html" target="_top" xlink:title=" ">
<polygon fill="white" stroke="#666666" points="980.75,-335.12 850,-335.12 850,-304.62 980.75,-304.62 980.75,-335.12"/>
<text xml:space="preserve" text-anchor="start" x="858" y="-321.62" font-family="FreeSans" font-size="10.00">DGtal::ConvexHullIntegral</text>
<text xml:space="preserve" text-anchor="middle" x="915.38" y="-310.38" font-family="FreeSans" font-size="10.00">Kernel&lt; 3 &gt;</text>
</a>
</g>
</g>
<!-- Node7&#45;&gt;Node8 -->
<g id="edge9_Node000007_Node000008" class="edge">
<title>Node7&#45;&gt;Node8</title>
<g id="a_edge9_Node000007_Node000008"><a xlink:title=" ">
<path fill="none" stroke="#63b8ff" d="M513.21,-286.64C611.64,-294.79 763.82,-307.4 849.68,-314.52"/>
<polygon fill="#63b8ff" stroke="#63b8ff" points="513.54,-283.15 503.28,-285.82 512.96,-290.13 513.54,-283.15"/>
</a>
</g>
</g>
<!-- Node9 -->
<g id="Node000009" class="node">
<title>Node9</title>
<g id="a_Node000009"><a xlink:href="structDGtal_1_1ConvexHullIntegralKernel.html" target="_top" xlink:title="Aim: a geometric kernel to compute the convex hull of digital points with integer&#45;only arithmetic.">
<polygon fill="white" stroke="#666666" points="698.5,-373.75 538.5,-373.75 538.5,-332 698.5,-332 698.5,-373.75"/>
<text xml:space="preserve" text-anchor="start" x="546.5" y="-360.25" font-family="FreeSans" font-size="10.00">DGtal::ConvexHullIntegral</text>
<text xml:space="preserve" text-anchor="start" x="546.5" y="-349" font-family="FreeSans" font-size="10.00">Kernel&lt; dim, TCoordinateInteger,</text>
<text xml:space="preserve" text-anchor="middle" x="618.5" y="-337.75" font-family="FreeSans" font-size="10.00"> TInternalInteger &gt;</text>
</a>
</g>
</g>
<!-- Node7&#45;&gt;Node9 -->
<g id="edge10_Node000007_Node000009" class="edge">
<title>Node7&#45;&gt;Node9</title>
<g id="a_edge10_Node000007_Node000009"><a xlink:title=" ">
<path fill="none" stroke="#63b8ff" d="M484.03,-304.36C495.81,-308.92 508.01,-313.58 519.5,-317.88 531.6,-322.39 544.59,-327.12 557.02,-331.58"/>
<polygon fill="#63b8ff" stroke="#63b8ff" points="485.36,-301.12 474.78,-300.76 482.83,-307.64 485.36,-301.12"/>
</a>
</g>
</g>
<!-- Node10 -->
<g id="Node000010" class="node">
<title>Node10</title>
<g id="a_Node000010"><a xlink:href="structDGtal_1_1ConvexHullRationalKernel.html" target="_top" xlink:title="Aim: a geometric kernel to compute the convex hull of floating points with integer&#45;only arithmetic....">
<polygon fill="white" stroke="#666666" points="698.5,-275.75 538.5,-275.75 538.5,-234 698.5,-234 698.5,-275.75"/>
<text xml:space="preserve" text-anchor="start" x="546.5" y="-262.25" font-family="FreeSans" font-size="10.00">DGtal::ConvexHullRational</text>
<text xml:space="preserve" text-anchor="start" x="546.5" y="-251" font-family="FreeSans" font-size="10.00">Kernel&lt; dim, TCoordinateInteger,</text>
<text xml:space="preserve" text-anchor="middle" x="618.5" y="-239.75" font-family="FreeSans" font-size="10.00"> TInternalInteger &gt;</text>
</a>
</g>
</g>
<!-- Node7&#45;&gt;Node10 -->
<g id="edge13_Node000007_Node000010" class="edge">
<title>Node7&#45;&gt;Node10</title>
<g id="a_edge13_Node000007_Node000010"><a xlink:title=" ">
<path fill="none" stroke="#63b8ff" d="M513.08,-267.53C521.43,-266.52 529.83,-265.5 538.05,-264.51"/>
<polygon fill="#63b8ff" stroke="#63b8ff" points="512.76,-264.05 503.25,-268.72 513.6,-270.99 512.76,-264.05"/>
</a>
</g>
</g>
<!-- Node9&#45;&gt;Node2 -->
<g id="edge11_Node000009_Node000002" class="edge">
<title>Node9&#45;&gt;Node2</title>
<g id="a_edge11_Node000009_Node000002"><a xlink:title=" ">
<path fill="none" stroke="orange" stroke-dasharray="5,2" d="M709.77,-362.17C744.58,-366.32 784.64,-371.77 820.75,-378.38 828.31,-379.76 836.18,-381.37 844,-383.09"/>
<polygon fill="orange" stroke="orange" points="710.5,-358.73 700.16,-361.05 709.69,-365.69 710.5,-358.73"/>
</a>
</g>
<text xml:space="preserve" text-anchor="start" x="719.5" y="-398.38" font-family="FreeSans" font-size="10.00" fill="grey">&lt; dim, Integer, Internal</text>
<text xml:space="preserve" text-anchor="start" x="719.5" y="-383.12" font-family="FreeSans" font-size="10.00" fill="grey">  Integer &gt;</text>
</g>
<!-- Node9&#45;&gt;Node8 -->
<g id="edge12_Node000009_Node000008" class="edge">
<title>Node9&#45;&gt;Node8</title>
<g id="a_edge12_Node000009_Node000008"><a xlink:title=" ">
<path fill="none" stroke="orange" stroke-dasharray="5,2" d="M710.23,-338.42C712.34,-338.15 714.43,-337.88 716.5,-337.62 760.83,-332.16 810.95,-327.68 849.65,-324.59"/>
<polygon fill="orange" stroke="orange" points="709.78,-334.95 700.34,-339.76 710.72,-341.89 709.78,-334.95"/>
</a>
</g>
<text xml:space="preserve" text-anchor="start" x="757" y="-342.38" font-family="FreeSans" font-size="10.00" fill="grey">&lt; 3 &gt;</text>
</g>
<!-- Node10&#45;&gt;Node3 -->
<g id="edge14_Node000010_Node000003" class="edge">
<title>Node10&#45;&gt;Node3</title>
<g id="a_edge14_Node000010_Node000003"><a xlink:title=" ">
<path fill="none" stroke="orange" stroke-dasharray="5,2" d="M710.24,-245.95C753.24,-241.72 803.82,-236.75 843.88,-232.81"/>
<polygon fill="orange" stroke="orange" points="710.02,-242.46 700.42,-246.92 710.71,-249.42 710.02,-242.46"/>
</a>
</g>
<text xml:space="preserve" text-anchor="start" x="719.5" y="-264.67" font-family="FreeSans" font-size="10.00" fill="grey">&lt; dim, Integer, Internal</text>
<text xml:space="preserve" text-anchor="start" x="719.5" y="-249.42" font-family="FreeSans" font-size="10.00" fill="grey">  Integer &gt;</text>
</g>
<!-- Node12 -->
<g id="Node000012" class="node">
<title>Node12</title>
<g id="a_Node000012"><a xlink:href="structDGtal_1_1DelaunayIntegralKernel.html" target="_top" xlink:title="Aim: a geometric kernel to compute the Delaunay triangulation of digital points with integer&#45;only ari...">
<polygon fill="white" stroke="#666666" points="692.88,-101.75 544.12,-101.75 544.12,-60 692.88,-60 692.88,-101.75"/>
<text xml:space="preserve" text-anchor="start" x="552.12" y="-88.25" font-family="FreeSans" font-size="10.00">DGtal::DelaunayIntegralKernel</text>
<text xml:space="preserve" text-anchor="start" x="552.12" y="-77" font-family="FreeSans" font-size="10.00">&lt; dim, TCoordinateInteger,</text>
<text xml:space="preserve" text-anchor="middle" x="618.5" y="-65.75" font-family="FreeSans" font-size="10.00"> TInternalInteger &gt;</text>
</a>
</g>
</g>
<!-- Node11&#45;&gt;Node12 -->
<g id="edge16_Node000011_Node000012" class="edge">
<title>Node11&#45;&gt;Node12</title>
<g id="a_edge16_Node000011_Node000012"><a xlink:title=" ">
<path fill="none" stroke="#63b8ff" d="M513.25,-80.88C523.48,-80.88 533.78,-80.88 543.73,-80.88"/>
<polygon fill="#63b8ff" stroke="#63b8ff" points="513.26,-77.38 503.26,-80.88 513.26,-84.38 513.26,-77.38"/>
</a>
</g>
</g>
<!-- Node13 -->
<g id="Node000013" class="node">
<title>Node13</title>
<g id="a_Node000013"><a xlink:href="structDGtal_1_1DelaunayRationalKernel.html" target="_top" xlink:title="Aim: a geometric kernel to compute the Delaunay triangulation of a range of floating points with inte...">
<polygon fill="white" stroke="#666666" points="694.75,-41.75 542.25,-41.75 542.25,0 694.75,0 694.75,-41.75"/>
<text xml:space="preserve" text-anchor="start" x="550.25" y="-28.25" font-family="FreeSans" font-size="10.00">DGtal::DelaunayRationalKernel</text>
<text xml:space="preserve" text-anchor="start" x="550.25" y="-17" font-family="FreeSans" font-size="10.00">&lt; dim, TCoordinateInteger,</text>
<text xml:space="preserve" text-anchor="middle" x="618.5" y="-5.75" font-family="FreeSans" font-size="10.00"> TInternalInteger &gt;</text>
</a>
</g>
</g>
<!-- Node11&#45;&gt;Node13 -->
<g id="edge18_Node000011_Node000013" class="edge">
<title>Node11&#45;&gt;Node13</title>
<g id="a_edge18_Node000011_Node000013"><a xlink:title=" ">
<path fill="none" stroke="#63b8ff" d="M500.44,-56.35C515.89,-51.67 531.94,-46.8 547.03,-42.23"/>
<polygon fill="#63b8ff" stroke="#63b8ff" points="499.87,-52.86 491.31,-59.11 501.9,-59.56 499.87,-52.86"/>
</a>
</g>
</g>
<!-- Node12&#45;&gt;Node4 -->
<g id="edge17_Node000012_Node000004" class="edge">
<title>Node12&#45;&gt;Node4</title>
<g id="a_edge17_Node000012_Node000004"><a xlink:title=" ">
<path fill="none" stroke="orange" stroke-dasharray="5,2" d="M704.27,-93.52C746.56,-99.83 797.31,-107.41 838.33,-113.53"/>
<polygon fill="orange" stroke="orange" points="705.05,-90.1 694.65,-92.09 704.02,-97.03 705.05,-90.1"/>
</a>
</g>
<text xml:space="preserve" text-anchor="start" x="719.5" y="-130.64" font-family="FreeSans" font-size="10.00" fill="grey">&lt; dim, Integer, Internal</text>
<text xml:space="preserve" text-anchor="start" x="719.5" y="-115.39" font-family="FreeSans" font-size="10.00" fill="grey">  Integer &gt;</text>
</g>
<!-- Node13&#45;&gt;Node5 -->
<g id="edge19_Node000013_Node000005" class="edge">
<title>Node13&#45;&gt;Node5</title>
<g id="a_edge19_Node000013_Node000005"><a xlink:title=" ">
<path fill="none" stroke="orange" stroke-dasharray="5,2" d="M706.37,-35.9C748.3,-43.15 798.13,-51.77 838.5,-58.75"/>
<polygon fill="orange" stroke="orange" points="707,-32.46 696.55,-34.2 705.8,-39.35 707,-32.46"/>
</a>
</g>
<text xml:space="preserve" text-anchor="start" x="719.5" y="-75.38" font-family="FreeSans" font-size="10.00" fill="grey">&lt; dim, Integer, Internal</text>
<text xml:space="preserve" text-anchor="start" x="719.5" y="-60.13" font-family="FreeSans" font-size="10.00" fill="grey">  Integer &gt;</text>
</g>
</g>
</svg>

<g id="navigator" transform="translate(0 0)" fill="#404254">
  <rect fill="#f2f5e9" fill-opacity="0.5" stroke="#606060" stroke-width=".5" x="0" y="0" width="60" height="60"/>
  <use id="zoomplus" xlink:href="#zoomPlus" x="17" y="9" onmousedown="handleZoom(evt,'in')"/>
  <use id="zoomminus" xlink:href="#zoomMin" x="42" y="9" onmousedown="handleZoom(evt,'out')"/>
  <use id="reset" xlink:href="#resetDef" x="30" y="36" onmousedown="handleReset()"/>
   <use id="arrowup" xlink:href="#arrowUp" x="0" y="0" onmousedown="handlePan(0,-1)"/>
  <use id="arrowright" xlink:href="#arrowRight" x="0" y="0" onmousedown="handlePan(1,0)"/>
  <use id="arrowdown" xlink:href="#arrowDown" x="0" y="0" onmousedown="handlePan(0,1)"/>
  <use id="arrowleft" xlink:href="#arrowLeft" x="0" y="0" onmousedown="handlePan(-1,0)"/>
</g>
<svg viewBox="0 0 15 15" width="100%" height="30px" preserveAspectRatio="xMaxYMin meet">
 <g id="arrow_out" transform="scale(0.3 0.3)">
  <a xlink:href="structDGtal_1_1ConvexHullCommonKernel__inherit__graph_org.svg" target="_base">
   <rect id="button" ry="5" rx="5" y="6" x="6" height="38" width="38"
        fill="#f2f5e9" fill-opacity="0.5" stroke="#606060" stroke-width="1.0"/>
   <path id="arrow"
     d="M 11.500037,31.436501 C 11.940474,20.09759 22.043105,11.32322 32.158766,21.979434 L 37.068811,17.246167 C 37.068811,17.246167 37.088388,32 37.088388,32 L 22.160133,31.978069 C 22.160133,31.978069 26.997745,27.140456 26.997745,27.140456 C 18.528582,18.264221 13.291696,25.230495 11.500037,31.436501 z"
     style="fill:#404040;"/>
  </a>
 </g>
</svg>

<style type='text/css'>
<![CDATA[
[data-mouse-over-selected='false'] { opacity: 0.7; }
[data-mouse-over-selected='true']  { opacity: 1.0; }
]]>
</style>
<script type="application/ecmascript"><![CDATA[
document.addEventListener('DOMContentLoaded', (event) => {
  highlightEdges();
  highlightAdjacentNodes();
});
]]></script>
</svg>
