<?xml version="1.0" encoding="UTF-8" standalone="no"?>
<!DOCTYPE svg PUBLIC "-//W3C//DTD SVG 1.1//EN"
 "http://www.w3.org/Graphics/SVG/1.1/DTD/svg11.dtd">
<!-- Generated by graphviz version 13.1.2 (20250808.2320)
 -->
<!-- Title: LibBoard::Polyline Pages: 1 -->
<svg width="399pt" height="204pt"
 viewBox="0.00 0.00 399.00 204.00" xmlns="http://www.w3.org/2000/svg" xmlns:xlink="http://www.w3.org/1999/xlink">
<g id="graph0" class="graph" transform="scale(1 1) rotate(0) translate(4 200.25)">
<title>LibBoard::Polyline</title>
<!-- Node1 -->
<g id="Node000001" class="node">
<title>Node1</title>
<g id="a_Node000001"><a xlink:title="A polygonal line described by a series of 2D points.">
<polygon fill="#999999" stroke="#666666" points="249.12,-141 154.38,-141 154.38,-121.75 249.12,-121.75 249.12,-141"/>
<text xml:space="preserve" text-anchor="middle" x="201.75" y="-127.5" font-family="FreeSans" font-size="10.00">LibBoard::Polyline</text>
</a>
</g>
</g>
<!-- Node3 -->
<g id="Node000003" class="node">
<title>Node3</title>
<g id="a_Node000003"><a xlink:href="structLibBoard_1_1GouraudTriangle.html" target="_top" xlink:title="A triangle with shaded filling according to colors given for each vertex.">
<polygon fill="white" stroke="#666666" points="131.5,-85.75 0,-85.75 0,-66.5 131.5,-66.5 131.5,-85.75"/>
<text xml:space="preserve" text-anchor="middle" x="65.75" y="-72.25" font-family="FreeSans" font-size="10.00">LibBoard::GouraudTriangle</text>
</a>
</g>
</g>
<!-- Node1&#45;&gt;Node3 -->
<g id="edge2_Node000001_Node000003" class="edge">
<title>Node1&#45;&gt;Node3</title>
<g id="a_edge2_Node000001_Node000003"><a xlink:title=" ">
<path fill="none" stroke="#63b8ff" d="M168.01,-117.16C143.39,-107.52 110.66,-94.71 88.93,-86.2"/>
<polygon fill="#63b8ff" stroke="#63b8ff" points="166.68,-120.4 177.27,-120.79 169.23,-113.88 166.68,-120.4"/>
</a>
</g>
</g>
<!-- Node4 -->
<g id="Node000004" class="node">
<title>Node4</title>
<g id="a_Node000004"><a xlink:href="structLibBoard_1_1Rectangle.html" target="_top" xlink:title="A rectangle.">
<polygon fill="white" stroke="#666666" points="254,-85.75 149.5,-85.75 149.5,-66.5 254,-66.5 254,-85.75"/>
<text xml:space="preserve" text-anchor="middle" x="201.75" y="-72.25" font-family="FreeSans" font-size="10.00">LibBoard::Rectangle</text>
</a>
</g>
</g>
<!-- Node1&#45;&gt;Node4 -->
<g id="edge3_Node000001_Node000004" class="edge">
<title>Node1&#45;&gt;Node4</title>
<g id="a_edge3_Node000001_Node000004"><a xlink:title=" ">
<path fill="none" stroke="#63b8ff" d="M201.75,-110.13C201.75,-101.84 201.75,-92.67 201.75,-86.11"/>
<polygon fill="#63b8ff" stroke="#63b8ff" points="198.25,-110.07 201.75,-120.07 205.25,-110.07 198.25,-110.07"/>
</a>
</g>
</g>
<!-- Node6 -->
<g id="Node000006" class="node">
<title>Node6</title>
<g id="a_Node000006"><a xlink:href="structLibBoard_1_1Triangle.html" target="_top" xlink:title="A triangle. Basically a Polyline with a convenient constructor.">
<polygon fill="white" stroke="#666666" points="371.12,-85.75 276.38,-85.75 276.38,-66.5 371.12,-66.5 371.12,-85.75"/>
<text xml:space="preserve" text-anchor="middle" x="323.75" y="-72.25" font-family="FreeSans" font-size="10.00">LibBoard::Triangle</text>
</a>
</g>
</g>
<!-- Node1&#45;&gt;Node6 -->
<g id="edge5_Node000001_Node000006" class="edge">
<title>Node1&#45;&gt;Node6</title>
<g id="a_edge5_Node000001_Node000006"><a xlink:title=" ">
<path fill="none" stroke="#63b8ff" d="M232.92,-116.77C254.9,-107.18 283.73,-94.59 302.95,-86.2"/>
<polygon fill="#63b8ff" stroke="#63b8ff" points="231.6,-113.53 223.83,-120.74 234.4,-119.94 231.6,-113.53"/>
</a>
</g>
</g>
<!-- Node2 -->
<g id="Node000002" class="node">
<title>Node2</title>
<g id="a_Node000002"><a xlink:href="structLibBoard_1_1Shape.html" target="_top" xlink:title="Abstract structure for a 2D shape.">
<polygon fill="white" stroke="#666666" points="245.75,-196.25 157.75,-196.25 157.75,-177 245.75,-177 245.75,-196.25"/>
<text xml:space="preserve" text-anchor="middle" x="201.75" y="-182.75" font-family="FreeSans" font-size="10.00">LibBoard::Shape</text>
</a>
</g>
</g>
<!-- Node2&#45;&gt;Node1 -->
<g id="edge1_Node000001_Node000002" class="edge">
<title>Node2&#45;&gt;Node1</title>
<g id="a_edge1_Node000001_Node000002"><a xlink:title=" ">
<path fill="none" stroke="#63b8ff" d="M201.75,-165.38C201.75,-157.09 201.75,-147.92 201.75,-141.36"/>
<polygon fill="#63b8ff" stroke="#63b8ff" points="198.25,-165.32 201.75,-175.32 205.25,-165.32 198.25,-165.32"/>
</a>
</g>
</g>
<!-- Node5 -->
<g id="Node000005" class="node">
<title>Node5</title>
<g id="a_Node000005"><a xlink:href="structLibBoard_1_1Image.html" target="_top" xlink:title="Used to draw image in figure.">
<polygon fill="white" stroke="#666666" points="242.38,-24.88 155.12,-24.88 155.12,-5.63 242.38,-5.63 242.38,-24.88"/>
<text xml:space="preserve" text-anchor="middle" x="198.75" y="-11.38" font-family="FreeSans" font-size="10.00">LibBoard::Image</text>
</a>
</g>
</g>
<!-- Node4&#45;&gt;Node5 -->
<g id="edge4_Node000004_Node000005" class="edge">
<title>Node4&#45;&gt;Node5</title>
<g id="a_edge4_Node000004_Node000005"><a xlink:title=" ">
<path fill="none" stroke="#63b8ff" d="M200.71,-54.7C200.2,-44.67 199.61,-33.08 199.21,-25.28"/>
<polygon fill="#63b8ff" stroke="#63b8ff" points="197.21,-54.86 201.22,-64.67 204.2,-54.51 197.21,-54.86"/>
</a>
</g>
</g>
<!-- Node7 -->
<g id="Node000007" class="node">
<title>Node7</title>
<g id="a_Node000007"><a xlink:href="structLibBoard_1_1QuadraticBezierCurve.html" target="_top" xlink:title="A quadratic Bezier curve having 3 control points. NB. It is also a parabola arc.">
<polygon fill="white" stroke="#666666" points="390.75,-30.5 260.75,-30.5 260.75,0 390.75,0 390.75,-30.5"/>
<text xml:space="preserve" text-anchor="start" x="268.75" y="-17" font-family="FreeSans" font-size="10.00">LibBoard::QuadraticBezier</text>
<text xml:space="preserve" text-anchor="middle" x="325.75" y="-5.75" font-family="FreeSans" font-size="10.00">Curve</text>
</a>
</g>
</g>
<!-- Node6&#45;&gt;Node7 -->
<g id="edge6_Node000006_Node000007" class="edge">
<title>Node6&#45;&gt;Node7</title>
<g id="a_edge6_Node000006_Node000007"><a xlink:title=" ">
<path fill="none" stroke="#63b8ff" d="M324.44,-54.92C324.71,-46.99 325.01,-38.06 325.26,-30.78"/>
<polygon fill="#63b8ff" stroke="#63b8ff" points="320.95,-54.56 324.11,-64.67 327.94,-54.8 320.95,-54.56"/>
</a>
</g>
</g>
</g>
</svg>
