<?xml version="1.0" encoding="UTF-8" standalone="no"?>
<!DOCTYPE svg PUBLIC "-//W3C//DTD SVG 1.1//EN"
 "http://www.w3.org/Graphics/SVG/1.1/DTD/svg11.dtd">
<!-- Generated by graphviz version 13.1.2 (20250808.2320)
 -->
<!-- Title: DGtal::detail::FFTWWrapper&lt; Real &gt; Pages: 1 -->
<svg width="423pt" height="174pt"
 viewBox="0.00 0.00 423.00 174.00" xmlns="http://www.w3.org/2000/svg" xmlns:xlink="http://www.w3.org/1999/xlink">

<svg id="main" version="1.1" xmlns="http://www.w3.org/2000/svg" xmlns:xlink="http://www.w3.org/1999/xlink" xml:space="preserve">

<style type="text/css"><![CDATA[
.node, .edge {opacity: 0.7;}
.node.selected, .edge.selected {opacity: 1;}
.edge:hover path { stroke: red; }
.edge:hover polygon { stroke: red; fill: red; }
]]></style>
<script type="application/ecmascript" xlink:href="svg.min.js"/>
<svg id="graph" class="graph">
<g id="graph0" class="graph" transform="scale(1 1) rotate(0) translate(4 169.88)">
<title>DGtal::detail::FFTWWrapper&lt; Real &gt;</title>
<!-- Node1 -->
<g id="Node000001" class="node">
<title>Node1</title>
<g id="a_Node000001"><a xlink:title="Wrapper to fftw functions depending on value type.">
<polygon fill="#999999" stroke="#666666" points="140.5,-103.5 0,-103.5 0,-73 140.5,-73 140.5,-103.5"/>
<text xml:space="preserve" text-anchor="start" x="8" y="-90" font-family="FreeSans" font-size="10.00">DGtal::detail::FFTWWrapper</text>
<text xml:space="preserve" text-anchor="middle" x="70.25" y="-78.75" font-family="FreeSans" font-size="10.00">&lt; Real &gt;</text>
</a>
</g>
</g>
<!-- Node2 -->
<g id="Node000002" class="node">
<title>Node2</title>
<g id="a_Node000002"><a xlink:href="structDGtal_1_1detail_1_1FFTWWrapper.html" target="_top" xlink:title=" ">
<polygon fill="white" stroke="#666666" points="414.5,-165.88 250,-165.88 250,-146.62 414.5,-146.62 414.5,-165.88"/>
<text xml:space="preserve" text-anchor="middle" x="332.25" y="-152.38" font-family="FreeSans" font-size="10.00">DGtal::detail::FFTWWrapper&lt; T &gt;</text>
</a>
</g>
</g>
<!-- Node1&#45;&gt;Node2 -->
<g id="edge1_Node000001_Node000002" class="edge">
<title>Node1&#45;&gt;Node2</title>
<g id="a_edge1_Node000001_Node000002"><a xlink:title=" ">
<path fill="none" stroke="orange" stroke-dasharray="5,2" d="M115.2,-108.47C128.86,-114.19 144.12,-120 158.5,-124.25 190.68,-133.76 227.1,-141 258.17,-146.17"/>
<polygon fill="orange" stroke="orange" points="116.6,-105.26 106.03,-104.54 113.84,-111.7 116.6,-105.26"/>
</a>
</g>
<text xml:space="preserve" text-anchor="start" x="183.25" y="-145.67" font-family="FreeSans" font-size="10.00" fill="grey">&lt; T &gt;</text>
</g>
<!-- Node3 -->
<g id="Node000003" class="node">
<title>Node3</title>
<g id="a_Node000003"><a xlink:href="structDGtal_1_1detail_1_1FFTWWrapper_3_01double_01_4.html" target="_top" xlink:title=" ">
<polygon fill="white" stroke="#666666" points="402.5,-128.5 262,-128.5 262,-98 402.5,-98 402.5,-128.5"/>
<text xml:space="preserve" text-anchor="start" x="270" y="-115" font-family="FreeSans" font-size="10.00">DGtal::detail::FFTWWrapper</text>
<text xml:space="preserve" text-anchor="middle" x="332.25" y="-103.75" font-family="FreeSans" font-size="10.00">&lt; double &gt;</text>
</a>
</g>
</g>
<!-- Node1&#45;&gt;Node3 -->
<g id="edge2_Node000001_Node000003" class="edge">
<title>Node1&#45;&gt;Node3</title>
<g id="a_edge2_Node000001_Node000003"><a xlink:title=" ">
<path fill="none" stroke="orange" stroke-dasharray="5,2" d="M152.13,-96.03C187.29,-99.41 228.07,-103.33 261.83,-106.58"/>
<polygon fill="orange" stroke="orange" points="152.72,-92.57 142.43,-95.09 152.05,-99.54 152.72,-92.57"/>
</a>
</g>
<text xml:space="preserve" text-anchor="start" x="172" y="-107.74" font-family="FreeSans" font-size="10.00" fill="grey">&lt; double &gt;</text>
</g>
<!-- Node4 -->
<g id="Node000004" class="node">
<title>Node4</title>
<g id="a_Node000004"><a xlink:href="structDGtal_1_1detail_1_1FFTWWrapper_3_01float_01_4.html" target="_top" xlink:title=" ">
<polygon fill="white" stroke="#666666" points="402.5,-79.5 262,-79.5 262,-49 402.5,-49 402.5,-79.5"/>
<text xml:space="preserve" text-anchor="start" x="270" y="-66" font-family="FreeSans" font-size="10.00">DGtal::detail::FFTWWrapper</text>
<text xml:space="preserve" text-anchor="middle" x="332.25" y="-54.75" font-family="FreeSans" font-size="10.00">&lt; float &gt;</text>
</a>
</g>
</g>
<!-- Node1&#45;&gt;Node4 -->
<g id="edge3_Node000001_Node000004" class="edge">
<title>Node1&#45;&gt;Node4</title>
<g id="a_edge3_Node000001_Node000004"><a xlink:title=" ">
<path fill="none" stroke="orange" stroke-dasharray="5,2" d="M151.9,-74.76C154.12,-74.49 156.33,-74.24 158.5,-74 192.39,-70.29 230.19,-67.95 261.76,-66.5"/>
<polygon fill="orange" stroke="orange" points="151.65,-71.27 142.19,-76.03 152.56,-78.21 151.65,-71.27"/>
</a>
</g>
<text xml:space="preserve" text-anchor="start" x="176.88" y="-78.75" font-family="FreeSans" font-size="10.00" fill="grey">&lt; float &gt;</text>
</g>
<!-- Node5 -->
<g id="Node000005" class="node">
<title>Node5</title>
<g id="a_Node000005"><a xlink:href="structDGtal_1_1detail_1_1FFTWWrapper_3_01long_01double_01_4.html" target="_top" xlink:title=" ">
<polygon fill="white" stroke="#666666" points="402.5,-30.5 262,-30.5 262,0 402.5,0 402.5,-30.5"/>
<text xml:space="preserve" text-anchor="start" x="270" y="-17" font-family="FreeSans" font-size="10.00">DGtal::detail::FFTWWrapper</text>
<text xml:space="preserve" text-anchor="middle" x="332.25" y="-5.75" font-family="FreeSans" font-size="10.00">&lt; long double &gt;</text>
</a>
</g>
</g>
<!-- Node1&#45;&gt;Node5 -->
<g id="edge4_Node000001_Node000005" class="edge">
<title>Node1&#45;&gt;Node5</title>
<g id="a_edge4_Node000001_Node000005"><a xlink:title=" ">
<path fill="none" stroke="orange" stroke-dasharray="5,2" d="M109.46,-67.54C124.4,-60.15 141.91,-52.34 158.5,-47 191.73,-36.29 229.8,-28.81 261.72,-23.81"/>
<polygon fill="orange" stroke="orange" points="108.25,-64.23 100.92,-71.87 111.42,-70.48 108.25,-64.23"/>
</a>
</g>
<text xml:space="preserve" text-anchor="start" x="161.5" y="-51.75" font-family="FreeSans" font-size="10.00" fill="grey">&lt; long double &gt;</text>
</g>
</g>
</svg>
</svg>

<style type='text/css'>
<![CDATA[
[data-mouse-over-selected='false'] { opacity: 0.7; }
[data-mouse-over-selected='true']  { opacity: 1.0; }
]]>
</style>
<script type="application/ecmascript"><![CDATA[
document.addEventListener('DOMContentLoaded', (event) => {
  highlightEdges();
  highlightAdjacentNodes();
});
]]></script>
</svg>
