<?xml version="1.0" encoding="UTF-8" standalone="no"?>
<!DOCTYPE svg PUBLIC "-//W3C//DTD SVG 1.1//EN"
 "http://www.w3.org/Graphics/SVG/1.1/DTD/svg11.dtd">
<!-- Generated by graphviz version 13.0.1 (20250615.1724)
 -->
<!-- Title: DGtal::functors::Projector&lt; S &gt; Pages: 1 -->
<!--zoomable 197 -->

<svg id="main" version="1.1" xmlns="http://www.w3.org/2000/svg" xmlns:xlink="http://www.w3.org/1999/xlink" xml:space="preserve" onload="init(evt)">

<style type="text/css"><![CDATA[
.node, .edge {opacity: 0.7;}
.node.selected, .edge.selected {opacity: 1;}
.edge:hover path { stroke: red; }
.edge:hover polygon { stroke: red; fill: red; }
]]></style>

<defs>
  <circle id="rim" cx="0" cy="0" r="7"/>
  <circle id="rim2" cx="0" cy="0" r="3.5"/>
  <g id="zoomPlus">
    <use xlink:href="#rim" fill="#404040"><set attributeName="fill" to="#808080" begin="zoomplus.mouseover" end="zoomplus.mouseout"/></use>
    <path d="M-4,0h8M0,-4v8" fill="none" stroke="white" stroke-width="1.5" pointer-events="none"/>
  </g>
  <g id="zoomMin">
    <use xlink:href="#rim" fill="#404040"><set attributeName="fill" to="#808080" begin="zoomminus.mouseover" end="zoomminus.mouseout"/></use>
    <path d="M-4,0h8" fill="none" stroke="white" stroke-width="1.5" pointer-events="none"/>
  </g>
  <g id="arrowUp" transform="translate(30 24)">
    <use xlink:href="#rim"/>
    <path pointer-events="none" fill="none" stroke="white" stroke-width="1.5" d="M0,-3.0v7 M-2.5,-0.5L0,-3.0L2.5,-0.5"/>
  </g>
  <g id="arrowRight" transform="rotate(90) translate(36 -43)">
    <use xlink:href="#rim"/>
    <path pointer-events="none" fill="none" stroke="white" stroke-width="1.5" d="M0,-3.0v7 M-2.5,-0.5L0,-3.0L2.5,-0.5"/>
  </g>
  <g id="arrowDown" transform="rotate(180) translate(-30 -48)">
    <use xlink:href="#rim"/>
    <path pointer-events="none" fill="none" stroke="white" stroke-width="1.5" d="M0,-3.0v7 M-2.5,-0.5L0,-3.0L2.5,-0.5"/>
  </g>
  <g id="arrowLeft" transform="rotate(270) translate(-36 17)">
    <use xlink:href="#rim"/>
    <path pointer-events="none" fill="none" stroke="white" stroke-width="1.5" d="M0,-3.0v7 M-2.5,-0.5L0,-3.0L2.5,-0.5"/>
  </g>
  <g id="resetDef">
    <use xlink:href="#rim2" fill="#404040"><set attributeName="fill" to="#808080" begin="reset.mouseover" end="reset.mouseout"/></use>
  </g>
</defs>
<script type="application/ecmascript">
var viewWidth = 514;
var viewHeight = 197;
var sectionId = 'dynsection-0';
</script>
<script type="application/ecmascript" xlink:href="svg.min.js"/>
<svg id="graph" class="graph">
<g id="viewport">
<title>DGtal::functors::Projector&lt; S &gt;</title>
<!-- Node1 -->
<g id="Node000001" class="node">
<title>Node1</title>
<g id="a_Node000001"><a xlink:title="Aim: Functor that maps a point P of dimension i to a point Q of dimension j. The member myDims is an ...">
<polygon fill="#999999" stroke="#666666" points="152.5,-109.5 0,-109.5 0,-90.25 152.5,-90.25 152.5,-109.5"/>
<text xml:space="preserve" text-anchor="middle" x="76.25" y="-96" font-family="FreeSans" font-size="10.00">DGtal::functors::Projector&lt; S &gt;</text>
</a>
</g>
</g>
<!-- Node2 -->
<g id="Node000002" class="node">
<title>Node2</title>
<g id="a_Node000002"><a xlink:href="structDGtal_1_1functors_1_1Projector.html" target="_top" xlink:title=" ">
<polygon fill="white" stroke="#666666" points="482.75,-189.12 355,-189.12 355,-158.62 482.75,-158.62 482.75,-189.12"/>
<text xml:space="preserve" text-anchor="start" x="363" y="-175.62" font-family="FreeSans" font-size="10.00">DGtal::functors::Projector</text>
<text xml:space="preserve" text-anchor="middle" x="418.88" y="-164.38" font-family="FreeSans" font-size="10.00">&lt; SpaceND&lt; 2, int &gt; &gt;</text>
</a>
</g>
</g>
<!-- Node1&#45;&gt;Node2 -->
<g id="edge1_Node000001_Node000002" class="edge">
<title>Node1&#45;&gt;Node2</title>
<g id="a_edge1_Node000001_Node000002"><a xlink:title=" ">
<path fill="none" stroke="orange" stroke-dasharray="5,2" d="M108.23,-114.71C126.07,-122.69 149.13,-132.06 170.5,-137.88 231.95,-154.6 304.24,-163.98 354.75,-168.94"/>
<polygon fill="orange" stroke="orange" points="109.78,-111.57 99.23,-110.6 106.87,-117.94 109.78,-111.57"/>
</a>
</g>
<text xml:space="preserve" text-anchor="start" x="191.88" y="-168.71" font-family="FreeSans" font-size="10.00" fill="grey">&lt; SpaceND&lt; 2, int &gt; &gt;</text>
</g>
<!-- Node3 -->
<g id="Node000003" class="node">
<title>Node3</title>
<g id="a_Node000003"><a xlink:href="structDGtal_1_1functors_1_1Projector.html" target="_top" xlink:title=" ">
<polygon fill="white" stroke="#666666" points="495.5,-140.12 342.25,-140.12 342.25,-109.62 495.5,-109.62 495.5,-140.12"/>
<text xml:space="preserve" text-anchor="start" x="350.25" y="-126.62" font-family="FreeSans" font-size="10.00">DGtal::functors::Projector</text>
<text xml:space="preserve" text-anchor="middle" x="418.88" y="-115.38" font-family="FreeSans" font-size="10.00">&lt; SpaceND&lt; 2, Coordinate &gt; &gt;</text>
</a>
</g>
</g>
<!-- Node1&#45;&gt;Node3 -->
<g id="edge2_Node000001_Node000003" class="edge">
<title>Node1&#45;&gt;Node3</title>
<g id="a_edge2_Node000001_Node000003"><a xlink:title=" ">
<path fill="none" stroke="orange" stroke-dasharray="5,2" d="M164.31,-106.26C219.16,-110.29 289.3,-115.44 341.9,-119.3"/>
<polygon fill="orange" stroke="orange" points="164.58,-102.78 154.36,-105.53 164.07,-109.76 164.58,-102.78"/>
</a>
</g>
<text xml:space="preserve" text-anchor="start" x="173.5" y="-121.54" font-family="FreeSans" font-size="10.00" fill="grey">&lt; SpaceND&lt; 2, Coordinate &gt; &gt;</text>
</g>
<!-- Node4 -->
<g id="Node000004" class="node">
<title>Node4</title>
<g id="a_Node000004"><a xlink:href="structDGtal_1_1functors_1_1Projector.html" target="_top" xlink:title=" ">
<polygon fill="white" stroke="#666666" points="489.88,-91.12 347.88,-91.12 347.88,-60.62 489.88,-60.62 489.88,-91.12"/>
<text xml:space="preserve" text-anchor="start" x="355.88" y="-77.62" font-family="FreeSans" font-size="10.00">DGtal::functors::Projector</text>
<text xml:space="preserve" text-anchor="middle" x="418.88" y="-66.38" font-family="FreeSans" font-size="10.00">&lt; SpaceND&lt; 2, TInteger &gt; &gt;</text>
</a>
</g>
</g>
<!-- Node1&#45;&gt;Node4 -->
<g id="edge3_Node000001_Node000004" class="edge">
<title>Node1&#45;&gt;Node4</title>
<g id="a_edge3_Node000001_Node000004"><a xlink:title=" ">
<path fill="none" stroke="orange" stroke-dasharray="5,2" d="M148.18,-88.19C155.7,-87.2 163.25,-86.32 170.5,-85.62 230.08,-79.92 298.03,-77.53 347.63,-76.55"/>
<polygon fill="orange" stroke="orange" points="147.75,-84.72 138.32,-89.55 148.7,-91.65 147.75,-84.72"/>
</a>
</g>
<text xml:space="preserve" text-anchor="start" x="179.12" y="-90.38" font-family="FreeSans" font-size="10.00" fill="grey">&lt; SpaceND&lt; 2, TInteger &gt; &gt;</text>
</g>
<!-- Node5 -->
<g id="Node000005" class="node">
<title>Node5</title>
<g id="a_Node000005"><a xlink:href="structDGtal_1_1functors_1_1Projector.html" target="_top" xlink:title=" ">
<polygon fill="white" stroke="#666666" points="506,-41.75 331.75,-41.75 331.75,0 506,0 506,-41.75"/>
<text xml:space="preserve" text-anchor="start" x="339.75" y="-28.25" font-family="FreeSans" font-size="10.00">DGtal::functors::Projector</text>
<text xml:space="preserve" text-anchor="start" x="339.75" y="-17" font-family="FreeSans" font-size="10.00">&lt; SpaceND&lt; 2, typename TKSpace</text>
<text xml:space="preserve" text-anchor="middle" x="418.88" y="-5.75" font-family="FreeSans" font-size="10.00">::Space::Integer &gt; &gt;</text>
</a>
</g>
</g>
<!-- Node1&#45;&gt;Node5 -->
<g id="edge4_Node000001_Node000005" class="edge">
<title>Node1&#45;&gt;Node5</title>
<g id="a_edge4_Node000001_Node000005"><a xlink:title=" ">
<path fill="none" stroke="orange" stroke-dasharray="5,2" d="M97.92,-82.8C115.89,-69.01 143.27,-50.44 170.5,-41.38 222.12,-24.18 282.99,-18.96 331.43,-18.09"/>
<polygon fill="orange" stroke="orange" points="95.82,-80 90.14,-88.95 100.16,-85.49 95.82,-80"/>
</a>
</g>
<text xml:space="preserve" text-anchor="start" x="173.5" y="-61.38" font-family="FreeSans" font-size="10.00" fill="grey">&lt; SpaceND&lt; 2, typename</text>
<text xml:space="preserve" text-anchor="start" x="173.5" y="-46.12" font-family="FreeSans" font-size="10.00" fill="grey">   TKSpace::Space::Integer &gt; &gt;</text>
</g>
</g>
</svg>

<g id="navigator" transform="translate(0 0)" fill="#404254">
  <rect fill="#f2f5e9" fill-opacity="0.5" stroke="#606060" stroke-width=".5" x="0" y="0" width="60" height="60"/>
  <use id="zoomplus" xlink:href="#zoomPlus" x="17" y="9" onmousedown="handleZoom(evt,'in')"/>
  <use id="zoomminus" xlink:href="#zoomMin" x="42" y="9" onmousedown="handleZoom(evt,'out')"/>
  <use id="reset" xlink:href="#resetDef" x="30" y="36" onmousedown="handleReset()"/>
   <use id="arrowup" xlink:href="#arrowUp" x="0" y="0" onmousedown="handlePan(0,-1)"/>
  <use id="arrowright" xlink:href="#arrowRight" x="0" y="0" onmousedown="handlePan(1,0)"/>
  <use id="arrowdown" xlink:href="#arrowDown" x="0" y="0" onmousedown="handlePan(0,1)"/>
  <use id="arrowleft" xlink:href="#arrowLeft" x="0" y="0" onmousedown="handlePan(-1,0)"/>
</g>
<svg viewBox="0 0 15 15" width="100%" height="30px" preserveAspectRatio="xMaxYMin meet">
 <g id="arrow_out" transform="scale(0.3 0.3)">
  <a xlink:href="structDGtal_1_1functors_1_1Projector__inherit__graph_org.svg" target="_base">
   <rect id="button" ry="5" rx="5" y="6" x="6" height="38" width="38"
        fill="#f2f5e9" fill-opacity="0.5" stroke="#606060" stroke-width="1.0"/>
   <path id="arrow"
     d="M 11.500037,31.436501 C 11.940474,20.09759 22.043105,11.32322 32.158766,21.979434 L 37.068811,17.246167 C 37.068811,17.246167 37.088388,32 37.088388,32 L 22.160133,31.978069 C 22.160133,31.978069 26.997745,27.140456 26.997745,27.140456 C 18.528582,18.264221 13.291696,25.230495 11.500037,31.436501 z"
     style="fill:#404040;"/>
  </a>
 </g>
</svg>

<style type='text/css'>
<![CDATA[
[data-mouse-over-selected='false'] { opacity: 0.7; }
[data-mouse-over-selected='true']  { opacity: 1.0; }
]]>
</style>
<script type="application/ecmascript"><![CDATA[
document.addEventListener('DOMContentLoaded', (event) => {
  highlightEdges();
  highlightAdjacentNodes();
});
]]></script>
</svg>
