<?xml version="1.0" encoding="UTF-8" standalone="no"?>
<!DOCTYPE svg PUBLIC "-//W3C//DTD SVG 1.1//EN"
 "http://www.w3.org/Graphics/SVG/1.1/DTD/svg11.dtd">
<!-- Generated by graphviz version 13.1.2 (20250808.2320)
 -->
<!-- Title: DGtal::concepts::CSignedNumber&lt; T &gt; Pages: 1 -->
<svg width="1298pt" height="101pt"
 viewBox="0.00 0.00 1298.00 101.00" xmlns="http://www.w3.org/2000/svg" xmlns:xlink="http://www.w3.org/1999/xlink">
<g id="graph0" class="graph" transform="scale(1 1) rotate(0) translate(4 97.25)">
<title>DGtal::concepts::CSignedNumber&lt; T &gt;</title>
<!-- Node1 -->
<g id="Node000001" class="node">
<title>Node1</title>
<g id="a_Node000001"><a xlink:title="Aim: Concept checking for Signed Numbers. Models of this concept should be listed in NumberTraits cla...">
<polygon fill="#999999" stroke="#666666" points="724.75,-42.88 594,-42.88 594,-12.37 724.75,-12.37 724.75,-42.88"/>
<text xml:space="preserve" text-anchor="start" x="602" y="-29.38" font-family="FreeSans" font-size="10.00">DGtal::concepts::CSigned</text>
<text xml:space="preserve" text-anchor="middle" x="659.38" y="-18.12" font-family="FreeSans" font-size="10.00">Number&lt; T &gt;</text>
</a>
</g>
</g>
<!-- Node8 -->
<g id="Node000008" class="node">
<title>Node8</title>
<g id="a_Node000008"><a xlink:href="structDGtal_1_1concepts_1_1CCommutativeRing.html" target="_top" xlink:title="Aim: Defines the mathematical concept equivalent to a unitary commutative ring.">
<polygon fill="white" stroke="#666666" points="920,-42.88 760.75,-42.88 760.75,-12.37 920,-12.37 920,-42.88"/>
<text xml:space="preserve" text-anchor="start" x="768.75" y="-29.38" font-family="FreeSans" font-size="10.00">DGtal::concepts::CCommutative</text>
<text xml:space="preserve" text-anchor="middle" x="840.38" y="-18.12" font-family="FreeSans" font-size="10.00">Ring&lt; T &gt;</text>
</a>
</g>
</g>
<!-- Node1&#45;&gt;Node8 -->
<g id="edge7_Node000001_Node000008" class="edge">
<title>Node1&#45;&gt;Node8</title>
<g id="a_edge7_Node000001_Node000008"><a xlink:title=" ">
<path fill="none" stroke="#63b8ff" d="M736.5,-27.62C744.44,-27.62 752.52,-27.62 760.49,-27.62"/>
<polygon fill="#63b8ff" stroke="#63b8ff" points="736.51,-24.13 726.51,-27.63 736.51,-31.13 736.51,-24.13"/>
</a>
</g>
</g>
<!-- Node2 -->
<g id="Node000002" class="node">
<title>Node2</title>
<g id="a_Node000002"><a xlink:href="structDGtal_1_1concepts_1_1CQuantity.html" target="_top" xlink:title="Aim: defines the concept of quantity in DGtal.">
<polygon fill="white" stroke="#666666" points="558,-37.25 396.5,-37.25 396.5,-18 558,-18 558,-37.25"/>
<text xml:space="preserve" text-anchor="middle" x="477.25" y="-23.75" font-family="FreeSans" font-size="10.00">DGtal::concepts::CQuantity&lt; T &gt;</text>
</a>
</g>
</g>
<!-- Node2&#45;&gt;Node1 -->
<g id="edge1_Node000001_Node000002" class="edge">
<title>Node2&#45;&gt;Node1</title>
<g id="a_edge1_Node000001_Node000002"><a xlink:title=" ">
<path fill="none" stroke="#63b8ff" d="M569.73,-27.62C577.82,-27.62 585.89,-27.62 593.69,-27.62"/>
<polygon fill="#63b8ff" stroke="#63b8ff" points="569.82,-24.13 559.82,-27.63 569.82,-31.13 569.82,-24.13"/>
</a>
</g>
</g>
<!-- Node3 -->
<g id="Node000003" class="node">
<title>Node3</title>
<g id="a_Node000003"><a xlink:href="structDGtal_1_1concepts_1_1CLabel.html" target="_top" xlink:title="Aim: Define the concept of DGtal labels. Models of CLabel can be default&#45;constructible,...">
<polygon fill="white" stroke="#666666" points="351.88,-56.25 203.88,-56.25 203.88,-37 351.88,-37 351.88,-56.25"/>
<text xml:space="preserve" text-anchor="middle" x="277.88" y="-42.75" font-family="FreeSans" font-size="10.00">DGtal::concepts::CLabel&lt; T &gt;</text>
</a>
</g>
</g>
<!-- Node3&#45;&gt;Node2 -->
<g id="edge2_Node000002_Node000003" class="edge">
<title>Node3&#45;&gt;Node2</title>
<g id="a_edge2_Node000002_Node000003"><a xlink:title=" ">
<path fill="none" stroke="#63b8ff" d="M363.52,-38.48C374.32,-37.44 385.34,-36.38 396.07,-35.34"/>
<polygon fill="#63b8ff" stroke="#63b8ff" points="363.5,-34.96 353.88,-39.41 364.17,-41.93 363.5,-34.96"/>
</a>
</g>
</g>
<!-- Node4 -->
<g id="Node000004" class="node">
<title>Node4</title>
<g id="a_Node000004"><a xlink:href="structboost_1_1DefaultConstructible.html" target="_top" xlink:title="Go to http://www.sgi.com/tech/stl/DefaultConstructible.html.">
<polygon fill="white" stroke="#666666" points="159.25,-93.25 0,-93.25 0,-74 159.25,-74 159.25,-93.25"/>
<text xml:space="preserve" text-anchor="middle" x="79.62" y="-79.75" font-family="FreeSans" font-size="10.00">boost::DefaultConstructible&lt; T &gt;</text>
</a>
</g>
</g>
<!-- Node4&#45;&gt;Node3 -->
<g id="edge3_Node000003_Node000004" class="edge">
<title>Node4&#45;&gt;Node3</title>
<g id="a_edge3_Node000003_Node000004"><a xlink:title=" ">
<path fill="none" stroke="#63b8ff" d="M145.23,-71.44C170.53,-66.68 199.2,-61.27 223.31,-56.72"/>
<polygon fill="#63b8ff" stroke="#63b8ff" points="144.92,-67.94 135.74,-73.23 146.21,-74.82 144.92,-67.94"/>
</a>
</g>
</g>
<!-- Node5 -->
<g id="Node000005" class="node">
<title>Node5</title>
<g id="a_Node000005"><a xlink:href="structboost_1_1Assignable.html" target="_top" xlink:title="Go to http://www.sgi.com/tech/stl/Assignable.html.">
<polygon fill="white" stroke="#666666" points="138.62,-56.25 20.62,-56.25 20.62,-37 138.62,-37 138.62,-56.25"/>
<text xml:space="preserve" text-anchor="middle" x="79.62" y="-42.75" font-family="FreeSans" font-size="10.00">boost::Assignable&lt; T &gt;</text>
</a>
</g>
</g>
<!-- Node5&#45;&gt;Node3 -->
<g id="edge4_Node000003_Node000005" class="edge">
<title>Node5&#45;&gt;Node3</title>
<g id="a_edge4_Node000003_Node000005"><a xlink:title=" ">
<path fill="none" stroke="#63b8ff" d="M150.11,-46.62C167.39,-46.62 185.96,-46.62 203.42,-46.62"/>
<polygon fill="#63b8ff" stroke="#63b8ff" points="150.49,-43.13 140.49,-46.63 150.49,-50.13 150.49,-43.13"/>
</a>
</g>
</g>
<!-- Node6 -->
<g id="Node000006" class="node">
<title>Node6</title>
<g id="a_Node000006"><a xlink:href="structboost_1_1EqualityComparable.html" target="_top" xlink:title="Go to http://www.sgi.com/tech/stl/EqualityComparable.html.">
<polygon fill="white" stroke="#666666" points="158.5,-19.25 0.75,-19.25 0.75,0 158.5,0 158.5,-19.25"/>
<text xml:space="preserve" text-anchor="middle" x="79.62" y="-5.75" font-family="FreeSans" font-size="10.00">boost::EqualityComparable&lt; T &gt;</text>
</a>
</g>
</g>
<!-- Node6&#45;&gt;Node3 -->
<g id="edge5_Node000003_Node000006" class="edge">
<title>Node6&#45;&gt;Node3</title>
<g id="a_edge5_Node000003_Node000006"><a xlink:title=" ">
<path fill="none" stroke="#63b8ff" d="M145.23,-21.81C170.53,-26.57 199.2,-31.98 223.31,-36.53"/>
<polygon fill="#63b8ff" stroke="#63b8ff" points="146.21,-18.43 135.74,-20.02 144.92,-25.31 146.21,-18.43"/>
</a>
</g>
</g>
<!-- Node7 -->
<g id="Node000007" class="node">
<title>Node7</title>
<g id="a_Node000007"><a xlink:href="structboost_1_1LessThanComparable.html" target="_top" xlink:title="Go to http://www.sgi.com/tech/stl/LessThanComparable.html.">
<polygon fill="white" stroke="#666666" points="360.5,-19.25 195.25,-19.25 195.25,0 360.5,0 360.5,-19.25"/>
<text xml:space="preserve" text-anchor="middle" x="277.88" y="-5.75" font-family="FreeSans" font-size="10.00">boost::LessThanComparable&lt; T &gt;</text>
</a>
</g>
</g>
<!-- Node7&#45;&gt;Node2 -->
<g id="edge6_Node000002_Node000007" class="edge">
<title>Node7&#45;&gt;Node2</title>
<g id="a_edge6_Node000002_Node000007"><a xlink:title=" ">
<path fill="none" stroke="#63b8ff" d="M372.14,-18.13C380.15,-18.86 388.21,-19.6 396.1,-20.32"/>
<polygon fill="#63b8ff" stroke="#63b8ff" points="372.65,-14.66 362.37,-17.24 372.01,-21.63 372.65,-14.66"/>
</a>
</g>
</g>
<!-- Node9 -->
<g id="Node000009" class="node">
<title>Node9</title>
<g id="a_Node000009"><a xlink:href="structDGtal_1_1concepts_1_1CEuclideanRing.html" target="_top" xlink:title="Aim: Defines the mathematical concept equivalent to a unitary commutative ring with a division operat...">
<polygon fill="white" stroke="#666666" points="1099.5,-42.88 956,-42.88 956,-12.37 1099.5,-12.37 1099.5,-42.88"/>
<text xml:space="preserve" text-anchor="start" x="964" y="-29.38" font-family="FreeSans" font-size="10.00">DGtal::concepts::CEuclidean</text>
<text xml:space="preserve" text-anchor="middle" x="1027.75" y="-18.12" font-family="FreeSans" font-size="10.00">Ring&lt; T &gt;</text>
</a>
</g>
</g>
<!-- Node8&#45;&gt;Node9 -->
<g id="edge8_Node000008_Node000009" class="edge">
<title>Node8&#45;&gt;Node9</title>
<g id="a_edge8_Node000008_Node000009"><a xlink:title=" ">
<path fill="none" stroke="#63b8ff" d="M931.6,-27.62C939.64,-27.62 947.72,-27.62 955.57,-27.62"/>
<polygon fill="#63b8ff" stroke="#63b8ff" points="931.77,-24.13 921.77,-27.63 931.77,-31.13 931.77,-24.13"/>
</a>
</g>
</g>
<!-- Node10 -->
<g id="Node000010" class="node">
<title>Node10</title>
<g id="a_Node000010"><a xlink:href="structDGtal_1_1concepts_1_1CInteger.html" target="_top" xlink:title="Aim: Concept checking for Integer Numbers. More precisely, this concept is a refinement of both CEucl...">
<polygon fill="white" stroke="#666666" points="1290.25,-37.25 1135.5,-37.25 1135.5,-18 1290.25,-18 1290.25,-37.25"/>
<text xml:space="preserve" text-anchor="middle" x="1212.88" y="-23.75" font-family="FreeSans" font-size="10.00">DGtal::concepts::CInteger&lt; T &gt;</text>
</a>
</g>
</g>
<!-- Node9&#45;&gt;Node10 -->
<g id="edge9_Node000009_Node000010" class="edge">
<title>Node9&#45;&gt;Node10</title>
<g id="a_edge9_Node000009_Node000010"><a xlink:title=" ">
<path fill="none" stroke="#63b8ff" d="M1111.31,-27.62C1119.23,-27.62 1127.23,-27.62 1135.09,-27.62"/>
<polygon fill="#63b8ff" stroke="#63b8ff" points="1111.33,-24.13 1101.33,-27.63 1111.33,-31.13 1111.33,-24.13"/>
</a>
</g>
</g>
</g>
</svg>
