<?xml version="1.0" encoding="UTF-8" standalone="no"?>
<!DOCTYPE svg PUBLIC "-//W3C//DTD SVG 1.1//EN"
 "http://www.w3.org/Graphics/SVG/1.1/DTD/svg11.dtd">
<!-- Generated by graphviz version 13.0.1 (20250615.1724)
 -->
<!-- Title: DGtal::concepts::CUnaryFunctor&lt; X, A, R &gt; Pages: 1 -->
<svg width="2132pt" height="446pt"
 viewBox="0.00 0.00 2132.00 446.00" xmlns="http://www.w3.org/2000/svg" xmlns:xlink="http://www.w3.org/1999/xlink">
<g id="graph0" class="graph" transform="scale(1 1) rotate(0) translate(4 442.08)">
<title>DGtal::concepts::CUnaryFunctor&lt; X, A, R &gt;</title>
<!-- Node1 -->
<g id="Node000001" class="node">
<title>Node1</title>
<g id="a_Node000001"><a xlink:title="Aim: Defines a unary functor, which associates arguments to results.">
<polygon fill="#999999" stroke="#666666" points="500.5,-229.97 340.5,-229.97 340.5,-199.47 500.5,-199.47 500.5,-229.97"/>
<text xml:space="preserve" text-anchor="start" x="348.5" y="-216.47" font-family="FreeSans" font-size="10.00">DGtal::concepts::CUnaryFunctor</text>
<text xml:space="preserve" text-anchor="middle" x="420.5" y="-205.22" font-family="FreeSans" font-size="10.00">&lt; X, A, R &gt;</text>
</a>
</g>
</g>
<!-- Node4 -->
<g id="Node000004" class="node">
<title>Node4</title>
<g id="a_Node000004"><a xlink:href="structDGtal_1_1concepts_1_1CUnaryFunctor.html" target="_top" xlink:title=" ">
<polygon fill="white" stroke="#666666" points="824.75,-431.97 664.75,-431.97 664.75,-401.47 824.75,-401.47 824.75,-431.97"/>
<text xml:space="preserve" text-anchor="start" x="672.75" y="-418.47" font-family="FreeSans" font-size="10.00">DGtal::concepts::CUnaryFunctor</text>
<text xml:space="preserve" text-anchor="middle" x="744.75" y="-407.22" font-family="FreeSans" font-size="10.00">&lt; T, T::Cell, T::RealPoint &gt;</text>
</a>
</g>
</g>
<!-- Node1&#45;&gt;Node4 -->
<g id="edge3_Node000001_Node000004" class="edge">
<title>Node1&#45;&gt;Node4</title>
<g id="a_edge3_Node000001_Node000004"><a xlink:title=" ">
<path fill="none" stroke="orange" stroke-dasharray="5,2" d="M428.6,-241C440.41,-279.21 467.94,-349.31 518.5,-383.72 560.89,-412.58 618.18,-420.66 664.37,-421.61"/>
<polygon fill="orange" stroke="orange" points="432.05,-240.29 425.86,-231.69 425.33,-242.27 432.05,-240.29"/>
</a>
</g>
<text xml:space="preserve" text-anchor="start" x="524.88" y="-425.58" font-family="FreeSans" font-size="10.00" fill="grey">&lt; T, T::Cell, T::RealPoint &gt;</text>
</g>
<!-- Node6 -->
<g id="Node000006" class="node">
<title>Node6</title>
<g id="a_Node000006"><a xlink:href="structDGtal_1_1concepts_1_1CUnaryFunctor.html" target="_top" xlink:title=" ">
<polygon fill="white" stroke="#666666" points="824.75,-382.97 664.75,-382.97 664.75,-352.47 824.75,-352.47 824.75,-382.97"/>
<text xml:space="preserve" text-anchor="start" x="672.75" y="-369.47" font-family="FreeSans" font-size="10.00">DGtal::concepts::CUnaryFunctor</text>
<text xml:space="preserve" text-anchor="middle" x="744.75" y="-358.22" font-family="FreeSans" font-size="10.00">&lt; T, T::Point, T::RealPoint &gt;</text>
</a>
</g>
</g>
<!-- Node1&#45;&gt;Node6 -->
<g id="edge5_Node000001_Node000006" class="edge">
<title>Node1&#45;&gt;Node6</title>
<g id="a_edge5_Node000001_Node000006"><a xlink:title=" ">
<path fill="none" stroke="orange" stroke-dasharray="5,2" d="M433.45,-240.15C448.73,-269.52 478.1,-316.74 518.5,-339.72 542.86,-353.58 609.7,-360.68 664.28,-364.26"/>
<polygon fill="orange" stroke="orange" points="436.76,-238.94 429.15,-231.57 430.51,-242.08 436.76,-238.94"/>
</a>
</g>
<text xml:space="preserve" text-anchor="start" x="522.25" y="-367.34" font-family="FreeSans" font-size="10.00" fill="grey">&lt; T, T::Point, T::RealPoint &gt;</text>
</g>
<!-- Node8 -->
<g id="Node000008" class="node">
<title>Node8</title>
<g id="a_Node000008"><a xlink:href="structDGtal_1_1concepts_1_1CUnaryFunctor.html" target="_top" xlink:title=" ">
<polygon fill="white" stroke="#666666" points="824.75,-333.97 664.75,-333.97 664.75,-303.47 824.75,-303.47 824.75,-333.97"/>
<text xml:space="preserve" text-anchor="start" x="672.75" y="-320.47" font-family="FreeSans" font-size="10.00">DGtal::concepts::CUnaryFunctor</text>
<text xml:space="preserve" text-anchor="middle" x="744.75" y="-309.22" font-family="FreeSans" font-size="10.00">&lt; T, T::Point, T::Value &gt;</text>
</a>
</g>
</g>
<!-- Node1&#45;&gt;Node8 -->
<g id="edge7_Node000001_Node000008" class="edge">
<title>Node1&#45;&gt;Node8</title>
<g id="a_edge7_Node000001_Node000008"><a xlink:title=" ">
<path fill="none" stroke="orange" stroke-dasharray="5,2" d="M442.65,-238.56C460.77,-257.26 488.62,-282.16 518.5,-294.72 564.36,-314 619.9,-320.08 664.35,-321.31"/>
<polygon fill="orange" stroke="orange" points="445.23,-236.2 435.83,-231.31 440.14,-240.99 445.23,-236.2"/>
</a>
</g>
<text xml:space="preserve" text-anchor="start" x="531.62" y="-325.15" font-family="FreeSans" font-size="10.00" fill="grey">&lt; T, T::Point, T::Value &gt;</text>
</g>
<!-- Node17 -->
<g id="Node000017" class="node">
<title>Node17</title>
<g id="a_Node000017"><a xlink:href="structDGtal_1_1concepts_1_1CUnaryFunctor.html" target="_top" xlink:title=" ">
<polygon fill="white" stroke="#666666" points="1002.75,-261.97 842.75,-261.97 842.75,-231.47 1002.75,-231.47 1002.75,-261.97"/>
<text xml:space="preserve" text-anchor="start" x="850.75" y="-248.47" font-family="FreeSans" font-size="10.00">DGtal::concepts::CUnaryFunctor</text>
<text xml:space="preserve" text-anchor="middle" x="922.75" y="-237.22" font-family="FreeSans" font-size="10.00">&lt; T, T::Point, bool &gt;</text>
</a>
</g>
</g>
<!-- Node1&#45;&gt;Node17 -->
<g id="edge17_Node000001_Node000017" class="edge">
<title>Node1&#45;&gt;Node17</title>
<g id="a_edge17_Node000001_Node000017"><a xlink:title=" ">
<path fill="none" stroke="orange" stroke-dasharray="5,2" d="M512,-220.51C606.28,-226.54 752.54,-235.9 842.44,-241.65"/>
<polygon fill="orange" stroke="orange" points="512.48,-217.03 502.28,-219.89 512.03,-224.02 512.48,-217.03"/>
</a>
</g>
<text xml:space="preserve" text-anchor="start" x="539.88" y="-233.42" font-family="FreeSans" font-size="10.00" fill="grey">&lt; T, T::Point, bool &gt;</text>
</g>
<!-- Node21 -->
<g id="Node000021" class="node">
<title>Node21</title>
<g id="a_Node000021"><a xlink:href="structDGtal_1_1concepts_1_1CUnaryFunctor.html" target="_top" xlink:title=" ">
<polygon fill="white" stroke="#666666" points="824.75,-207.97 664.75,-207.97 664.75,-177.47 824.75,-177.47 824.75,-207.97"/>
<text xml:space="preserve" text-anchor="start" x="672.75" y="-194.47" font-family="FreeSans" font-size="10.00">DGtal::concepts::CUnaryFunctor</text>
<text xml:space="preserve" text-anchor="middle" x="744.75" y="-183.22" font-family="FreeSans" font-size="10.00">&lt; T, TElement, bool &gt;</text>
</a>
</g>
</g>
<!-- Node1&#45;&gt;Node21 -->
<g id="edge21_Node000001_Node000021" class="edge">
<title>Node1&#45;&gt;Node21</title>
<g id="a_edge21_Node000001_Node000021"><a xlink:title=" ">
<path fill="none" stroke="orange" stroke-dasharray="5,2" d="M509.89,-197.45C512.79,-197.09 515.67,-196.76 518.5,-196.47 566.75,-191.57 621.11,-190.53 664.33,-190.77"/>
<polygon fill="orange" stroke="orange" points="509.56,-193.96 500.13,-198.79 510.51,-200.9 509.56,-193.96"/>
</a>
</g>
<text xml:space="preserve" text-anchor="start" x="535.38" y="-201.22" font-family="FreeSans" font-size="10.00" fill="grey">&lt; T, TElement, bool &gt;</text>
</g>
<!-- Node27 -->
<g id="Node000027" class="node">
<title>Node27</title>
<g id="a_Node000027"><a xlink:href="structDGtal_1_1concepts_1_1CUnaryFunctor.html" target="_top" xlink:title=" ">
<polygon fill="white" stroke="#666666" points="824.75,-81.97 664.75,-81.97 664.75,-51.47 824.75,-51.47 824.75,-81.97"/>
<text xml:space="preserve" text-anchor="start" x="672.75" y="-68.47" font-family="FreeSans" font-size="10.00">DGtal::concepts::CUnaryFunctor</text>
<text xml:space="preserve" text-anchor="middle" x="744.75" y="-57.22" font-family="FreeSans" font-size="10.00">&lt; T, T::SCell, T::RealPoint &gt;</text>
</a>
</g>
</g>
<!-- Node1&#45;&gt;Node27 -->
<g id="edge28_Node000001_Node000027" class="edge">
<title>Node1&#45;&gt;Node27</title>
<g id="a_edge28_Node000001_Node000027"><a xlink:title=" ">
<path fill="none" stroke="orange" stroke-dasharray="5,2" d="M430.3,-188.75C443.45,-154.56 471.8,-95.84 518.5,-70.47 563.35,-46.1 621.01,-45.6 666.76,-50.97"/>
<polygon fill="orange" stroke="orange" points="427.11,-187.3 426.94,-197.9 433.68,-189.72 427.11,-187.3"/>
</a>
</g>
<text xml:space="preserve" text-anchor="start" x="521.5" y="-75.22" font-family="FreeSans" font-size="10.00" fill="grey">&lt; T, T::SCell, T::RealPoint &gt;</text>
</g>
<!-- Node30 -->
<g id="Node000030" class="node">
<title>Node30</title>
<g id="a_Node000030"><a xlink:href="structDGtal_1_1concepts_1_1CUnaryFunctor.html" target="_top" xlink:title=" ">
<polygon fill="white" stroke="#666666" points="1002.75,-110.97 842.75,-110.97 842.75,-80.47 1002.75,-80.47 1002.75,-110.97"/>
<text xml:space="preserve" text-anchor="start" x="850.75" y="-97.47" font-family="FreeSans" font-size="10.00">DGtal::concepts::CUnaryFunctor</text>
<text xml:space="preserve" text-anchor="middle" x="922.75" y="-86.22" font-family="FreeSans" font-size="10.00">&lt; T, T::Surfel, bool &gt;</text>
</a>
</g>
</g>
<!-- Node1&#45;&gt;Node30 -->
<g id="edge31_Node000001_Node000030" class="edge">
<title>Node1&#45;&gt;Node30</title>
<g id="a_edge31_Node000001_Node000030"><a xlink:title=" ">
<path fill="none" stroke="orange" stroke-dasharray="5,2" d="M439.6,-190.33C457.12,-168.8 485.79,-138.7 518.5,-124.47 574.74,-100.01 742.1,-95.55 842.67,-95.18"/>
<polygon fill="orange" stroke="orange" points="436.95,-188.03 433.51,-198.05 442.45,-192.36 436.95,-188.03"/>
</a>
</g>
<text xml:space="preserve" text-anchor="start" x="538.38" y="-129.22" font-family="FreeSans" font-size="10.00" fill="grey">&lt; T, T::Surfel, bool &gt;</text>
</g>
<!-- Node31 -->
<g id="Node000031" class="node">
<title>Node31</title>
<g id="a_Node000031"><a xlink:href="structDGtal_1_1concepts_1_1CUnaryFunctor.html" target="_top" xlink:title=" ">
<polygon fill="white" stroke="#666666" points="1002.75,-304.97 842.75,-304.97 842.75,-274.47 1002.75,-274.47 1002.75,-304.97"/>
<text xml:space="preserve" text-anchor="start" x="850.75" y="-291.47" font-family="FreeSans" font-size="10.00">DGtal::concepts::CUnaryFunctor</text>
<text xml:space="preserve" text-anchor="middle" x="922.75" y="-280.22" font-family="FreeSans" font-size="10.00">&lt; I, I::Point, I::Value &gt;</text>
</a>
</g>
</g>
<!-- Node1&#45;&gt;Node31 -->
<g id="edge33_Node000001_Node000031" class="edge">
<title>Node1&#45;&gt;Node31</title>
<g id="a_edge33_Node000001_Node000031"><a xlink:title=" ">
<path fill="none" stroke="orange" stroke-dasharray="5,2" d="M468.63,-234.37C484.25,-240.17 501.9,-245.96 518.5,-249.72 629.14,-274.76 760.39,-284.13 842.39,-287.63"/>
<polygon fill="orange" stroke="orange" points="470.17,-231.22 459.58,-230.92 467.68,-237.76 470.17,-231.22"/>
</a>
</g>
<text xml:space="preserve" text-anchor="start" x="533.88" y="-276.01" font-family="FreeSans" font-size="10.00" fill="grey">&lt; I, I::Point, I::Value &gt;</text>
</g>
<!-- Node32 -->
<g id="Node000032" class="node">
<title>Node32</title>
<g id="a_Node000032"><a xlink:href="structDGtal_1_1concepts_1_1CUnaryFunctor.html" target="_top" xlink:title=" ">
<polygon fill="white" stroke="#666666" points="1002.75,-147.97 842.75,-147.97 842.75,-117.47 1002.75,-117.47 1002.75,-147.97"/>
<text xml:space="preserve" text-anchor="start" x="850.75" y="-134.47" font-family="FreeSans" font-size="10.00">DGtal::concepts::CUnaryFunctor</text>
<text xml:space="preserve" text-anchor="middle" x="922.75" y="-123.22" font-family="FreeSans" font-size="10.00">&lt; T, T::Vertex, bool &gt;</text>
</a>
</g>
</g>
<!-- Node1&#45;&gt;Node32 -->
<g id="edge35_Node000001_Node000032" class="edge">
<title>Node1&#45;&gt;Node32</title>
<g id="a_edge35_Node000001_Node000032"><a xlink:title=" ">
<path fill="none" stroke="orange" stroke-dasharray="5,2" d="M458.42,-193.81C476.06,-184.8 497.8,-175.06 518.5,-169.47 628.11,-139.88 759.91,-133 842.28,-131.95"/>
<polygon fill="orange" stroke="orange" points="457.11,-190.55 449.89,-198.3 460.37,-196.75 457.11,-190.55"/>
</a>
</g>
<text xml:space="preserve" text-anchor="start" x="536.88" y="-174.22" font-family="FreeSans" font-size="10.00" fill="grey">&lt; T, T::Vertex, bool &gt;</text>
</g>
<!-- Node33 -->
<g id="Node000033" class="node">
<title>Node33</title>
<g id="a_Node000033"><a xlink:href="structDGtal_1_1concepts_1_1CUnaryFunctor_3_01X_00_01A_01_6_00_01R_01_6_01_4.html" target="_top" xlink:title=" ">
<polygon fill="white" stroke="#666666" points="824.75,-32.97 664.75,-32.97 664.75,-2.47 824.75,-2.47 824.75,-32.97"/>
<text xml:space="preserve" text-anchor="start" x="672.75" y="-19.47" font-family="FreeSans" font-size="10.00">DGtal::concepts::CUnaryFunctor</text>
<text xml:space="preserve" text-anchor="middle" x="744.75" y="-8.22" font-family="FreeSans" font-size="10.00">&lt; X, A &amp;, R &amp; &gt;</text>
</a>
</g>
</g>
<!-- Node1&#45;&gt;Node33 -->
<g id="edge37_Node000001_Node000033" class="edge">
<title>Node1&#45;&gt;Node33</title>
<g id="a_edge37_Node000001_Node000033"><a xlink:title=" ">
<path fill="none" stroke="orange" stroke-dasharray="5,2" d="M426.48,-187.85C435.97,-145.18 461.07,-63.03 518.5,-26.47 561.25,0.75 618.39,2.67 664.42,-2.08"/>
<polygon fill="orange" stroke="orange" points="423.08,-187.02 424.46,-197.53 429.93,-188.45 423.08,-187.02"/>
</a>
</g>
<text xml:space="preserve" text-anchor="start" x="548.5" y="-31.22" font-family="FreeSans" font-size="10.00" fill="grey">&lt; X, A &amp;, R &amp; &gt;</text>
</g>
<!-- Node2 -->
<g id="Node000002" class="node">
<title>Node2</title>
<g id="a_Node000002"><a xlink:href="structboost_1_1Assignable.html" target="_top" xlink:title=" ">
<polygon fill="white" stroke="#666666" points="303.5,-224.35 184.75,-224.35 184.75,-205.1 303.5,-205.1 303.5,-224.35"/>
<text xml:space="preserve" text-anchor="middle" x="244.12" y="-210.85" font-family="FreeSans" font-size="10.00">boost::Assignable&lt; X &gt;</text>
</a>
</g>
</g>
<!-- Node2&#45;&gt;Node1 -->
<g id="edge1_Node000001_Node000002" class="edge">
<title>Node2&#45;&gt;Node1</title>
<g id="a_edge1_Node000001_Node000002"><a xlink:title=" ">
<path fill="none" stroke="#63b8ff" d="M315.1,-214.72C323.3,-214.72 331.72,-214.72 340.04,-214.72"/>
<polygon fill="#63b8ff" stroke="#63b8ff" points="315.19,-211.22 305.19,-214.72 315.19,-218.22 315.19,-211.22"/>
</a>
</g>
</g>
<!-- Node3 -->
<g id="Node000003" class="node">
<title>Node3</title>
<g id="a_Node000003"><a xlink:href="structboost_1_1Assignable.html" target="_top" xlink:title="Go to http://www.sgi.com/tech/stl/Assignable.html.">
<polygon fill="white" stroke="#666666" points="118,-224.35 0,-224.35 0,-205.1 118,-205.1 118,-224.35"/>
<text xml:space="preserve" text-anchor="middle" x="59" y="-210.85" font-family="FreeSans" font-size="10.00">boost::Assignable&lt; T &gt;</text>
</a>
</g>
</g>
<!-- Node3&#45;&gt;Node2 -->
<g id="edge2_Node000002_Node000003" class="edge">
<title>Node3&#45;&gt;Node2</title>
<g id="a_edge2_Node000002_Node000003"><a xlink:title=" ">
<path fill="none" stroke="orange" stroke-dasharray="5,2" d="M129.76,-214.72C147.75,-214.72 166.92,-214.72 184.29,-214.72"/>
<polygon fill="orange" stroke="orange" points="129.96,-211.22 119.96,-214.72 129.96,-218.22 129.96,-211.22"/>
</a>
</g>
<text xml:space="preserve" text-anchor="start" x="139" y="-219.47" font-family="FreeSans" font-size="10.00" fill="grey">&lt; X &gt;</text>
</g>
<!-- Node5 -->
<g id="Node000005" class="node">
<title>Node5</title>
<g id="a_Node000005"><a xlink:href="structDGtal_1_1concepts_1_1CCellEmbedder.html" target="_top" xlink:title="Aim: A cell embedder is a mapping from unsigned cells to Euclidean points. It adds inner types to fun...">
<polygon fill="white" stroke="#666666" points="1210.38,-426.35 1024.12,-426.35 1024.12,-407.1 1210.38,-407.1 1210.38,-426.35"/>
<text xml:space="preserve" text-anchor="middle" x="1117.25" y="-412.85" font-family="FreeSans" font-size="10.00">DGtal::concepts::CCellEmbedder&lt; T &gt;</text>
</a>
</g>
</g>
<!-- Node4&#45;&gt;Node5 -->
<g id="edge4_Node000004_Node000005" class="edge">
<title>Node4&#45;&gt;Node5</title>
<g id="a_edge4_Node000004_Node000005"><a xlink:title=" ">
<path fill="none" stroke="#63b8ff" d="M836.39,-416.72C893.33,-416.72 966.56,-416.72 1023.83,-416.72"/>
<polygon fill="#63b8ff" stroke="#63b8ff" points="836.75,-413.22 826.75,-416.72 836.75,-420.22 836.75,-413.22"/>
</a>
</g>
</g>
<!-- Node7 -->
<g id="Node000007" class="node">
<title>Node7</title>
<g id="a_Node000007"><a xlink:href="structDGtal_1_1concepts_1_1CPointEmbedder.html" target="_top" xlink:title="Aim: A point embedder is a mapping from digital points to Euclidean points. It adds inner types to fu...">
<polygon fill="white" stroke="#666666" points="1213,-380.35 1021.5,-380.35 1021.5,-361.1 1213,-361.1 1213,-380.35"/>
<text xml:space="preserve" text-anchor="middle" x="1117.25" y="-366.85" font-family="FreeSans" font-size="10.00">DGtal::concepts::CPointEmbedder&lt; T &gt;</text>
</a>
</g>
</g>
<!-- Node6&#45;&gt;Node7 -->
<g id="edge6_Node000006_Node000007" class="edge">
<title>Node6&#45;&gt;Node7</title>
<g id="a_edge6_Node000006_Node000007"><a xlink:title=" ">
<path fill="none" stroke="#63b8ff" d="M836.58,-368.46C892.6,-368.91 964.34,-369.49 1021.14,-369.95"/>
<polygon fill="#63b8ff" stroke="#63b8ff" points="836.77,-364.96 826.75,-368.38 836.72,-371.96 836.77,-364.96"/>
</a>
</g>
</g>
<!-- Node9 -->
<g id="Node000009" class="node">
<title>Node9</title>
<g id="a_Node000009"><a xlink:href="structDGtal_1_1concepts_1_1CPointFunctor.html" target="_top" xlink:title="Aim: Defines a functor on points.">
<polygon fill="white" stroke="#666666" points="1207.38,-343.35 1027.12,-343.35 1027.12,-324.1 1207.38,-324.1 1207.38,-343.35"/>
<text xml:space="preserve" text-anchor="middle" x="1117.25" y="-329.85" font-family="FreeSans" font-size="10.00">DGtal::concepts::CPointFunctor&lt; T &gt;</text>
</a>
</g>
</g>
<!-- Node8&#45;&gt;Node9 -->
<g id="edge8_Node000008_Node000009" class="edge">
<title>Node8&#45;&gt;Node9</title>
<g id="a_edge8_Node000008_Node000009"><a xlink:title=" ">
<path fill="none" stroke="#63b8ff" d="M836.58,-322.4C894.48,-324.74 969.19,-327.77 1026.82,-330.1"/>
<polygon fill="#63b8ff" stroke="#63b8ff" points="836.88,-318.91 826.74,-322 836.59,-325.9 836.88,-318.91"/>
</a>
</g>
</g>
<!-- Node10 -->
<g id="Node000010" class="node">
<title>Node10</title>
<g id="a_Node000010"><a xlink:href="structDGtal_1_1concepts_1_1COrientationFunctor.html" target="_top" xlink:title="Aim: This concept gathers models implementing an orientation test of &#160;points in a space of dimension ...">
<polygon fill="white" stroke="#666666" points="1485.88,-375.97 1337.88,-375.97 1337.88,-345.47 1485.88,-345.47 1485.88,-375.97"/>
<text xml:space="preserve" text-anchor="start" x="1345.88" y="-362.47" font-family="FreeSans" font-size="10.00">DGtal::concepts::COrientation</text>
<text xml:space="preserve" text-anchor="middle" x="1411.88" y="-351.22" font-family="FreeSans" font-size="10.00">Functor&lt; T &gt;</text>
</a>
</g>
</g>
<!-- Node9&#45;&gt;Node10 -->
<g id="edge9_Node000009_Node000010" class="edge">
<title>Node9&#45;&gt;Node10</title>
<g id="a_edge9_Node000009_Node000010"><a xlink:title=" ">
<path fill="none" stroke="#63b8ff" d="M1214.61,-345C1220.41,-345.6 1226.16,-346.18 1231.75,-346.72 1266.53,-350.07 1305.16,-353.17 1337.62,-355.59"/>
<polygon fill="#63b8ff" stroke="#63b8ff" points="1215.25,-341.55 1204.94,-343.97 1214.51,-348.51 1215.25,-341.55"/>
</a>
</g>
</g>
<!-- Node12 -->
<g id="Node000012" class="node">
<title>Node12</title>
<g id="a_Node000012"><a xlink:href="structDGtal_1_1concepts_1_1CPointFunctor.html" target="_top" xlink:title=" ">
<polygon fill="white" stroke="#666666" points="1500.5,-308.35 1323.25,-308.35 1323.25,-289.1 1500.5,-289.1 1500.5,-308.35"/>
<text xml:space="preserve" text-anchor="middle" x="1411.88" y="-294.85" font-family="FreeSans" font-size="10.00">DGtal::concepts::CPointFunctor&lt; I &gt;</text>
</a>
</g>
</g>
<!-- Node9&#45;&gt;Node12 -->
<g id="edge11_Node000009_Node000012" class="edge">
<title>Node9&#45;&gt;Node12</title>
<g id="a_edge11_Node000009_Node000012"><a xlink:title=" ">
<path fill="none" stroke="orange" stroke-dasharray="5,2" d="M1213.98,-322.27C1250.26,-317.93 1291.26,-313.03 1326.43,-308.82"/>
<polygon fill="orange" stroke="orange" points="1213.91,-318.76 1204.39,-323.42 1214.74,-325.71 1213.91,-318.76"/>
</a>
</g>
<text xml:space="preserve" text-anchor="start" x="1258" y="-324.11" font-family="FreeSans" font-size="10.00" fill="grey">&lt; I &gt;</text>
</g>
<!-- Node11 -->
<g id="Node000011" class="node">
<title>Node11</title>
<g id="a_Node000011"><a xlink:href="structDGtal_1_1concepts_1_1COrientationFunctor2.html" target="_top" xlink:title="Aim: This concept is a refinement of COrientationFunctor, useful for simple algebraic curves that can...">
<polygon fill="white" stroke="#666666" points="1705.75,-375.97 1557.75,-375.97 1557.75,-345.47 1705.75,-345.47 1705.75,-375.97"/>
<text xml:space="preserve" text-anchor="start" x="1565.75" y="-362.47" font-family="FreeSans" font-size="10.00">DGtal::concepts::COrientation</text>
<text xml:space="preserve" text-anchor="middle" x="1631.75" y="-351.22" font-family="FreeSans" font-size="10.00">Functor2&lt; T &gt;</text>
</a>
</g>
</g>
<!-- Node10&#45;&gt;Node11 -->
<g id="edge10_Node000010_Node000011" class="edge">
<title>Node10&#45;&gt;Node11</title>
<g id="a_edge10_Node000010_Node000011"><a xlink:title=" ">
<path fill="none" stroke="#63b8ff" d="M1497.81,-360.72C1517.56,-360.72 1538.42,-360.72 1557.61,-360.72"/>
<polygon fill="#63b8ff" stroke="#63b8ff" points="1497.85,-357.22 1487.85,-360.72 1497.85,-364.22 1497.85,-357.22"/>
</a>
</g>
</g>
<!-- Node13 -->
<g id="Node000013" class="node">
<title>Node13</title>
<g id="a_Node000013"><a xlink:href="structDGtal_1_1concepts_1_1CTrivialConstImage.html" target="_top" xlink:title="Aim: Defines the concept describing a read&#45;only image, which is a refinement of CPointFunctor.">
<polygon fill="white" stroke="#666666" points="1695.25,-313.97 1568.25,-313.97 1568.25,-283.47 1695.25,-283.47 1695.25,-313.97"/>
<text xml:space="preserve" text-anchor="start" x="1576.25" y="-300.47" font-family="FreeSans" font-size="10.00">DGtal::concepts::CTrivial</text>
<text xml:space="preserve" text-anchor="middle" x="1631.75" y="-289.22" font-family="FreeSans" font-size="10.00">ConstImage&lt; I &gt;</text>
</a>
</g>
</g>
<!-- Node12&#45;&gt;Node13 -->
<g id="edge12_Node000012_Node000013" class="edge">
<title>Node12&#45;&gt;Node13</title>
<g id="a_edge12_Node000012_Node000013"><a xlink:title=" ">
<path fill="none" stroke="#63b8ff" d="M1512.26,-298.72C1531.18,-298.72 1550.49,-298.72 1567.88,-298.72"/>
<polygon fill="#63b8ff" stroke="#63b8ff" points="1512.38,-295.22 1502.38,-298.72 1512.38,-302.22 1512.38,-295.22"/>
</a>
</g>
</g>
<!-- Node14 -->
<g id="Node000014" class="node">
<title>Node14</title>
<g id="a_Node000014"><a xlink:href="structDGtal_1_1concepts_1_1CConstImage.html" target="_top" xlink:title="Aim: Defines the concept describing a read&#45;only image, which is a refinement of CPointFunctor.">
<polygon fill="white" stroke="#666666" points="1938,-284.35 1763,-284.35 1763,-265.1 1938,-265.1 1938,-284.35"/>
<text xml:space="preserve" text-anchor="middle" x="1850.5" y="-270.85" font-family="FreeSans" font-size="10.00">DGtal::concepts::CConstImage&lt; I &gt;</text>
</a>
</g>
</g>
<!-- Node13&#45;&gt;Node14 -->
<g id="edge13_Node000013_Node000014" class="edge">
<title>Node13&#45;&gt;Node14</title>
<g id="a_edge13_Node000013_Node000014"><a xlink:title=" ">
<path fill="none" stroke="#63b8ff" d="M1706.97,-290.5C1724.87,-288.52 1744.15,-286.39 1762.57,-284.35"/>
<polygon fill="#63b8ff" stroke="#63b8ff" points="1706.79,-287 1697.24,-291.58 1707.56,-293.96 1706.79,-287"/>
</a>
</g>
</g>
<!-- Node16 -->
<g id="Node000016" class="node">
<title>Node16</title>
<g id="a_Node000016"><a xlink:href="structDGtal_1_1concepts_1_1CTrivialImage.html" target="_top" xlink:title="Aim: Defines the concept describing an image without extra ranges, which is a refinement of CTrivialC...">
<polygon fill="white" stroke="#666666" points="1914,-332.97 1787,-332.97 1787,-302.47 1914,-302.47 1914,-332.97"/>
<text xml:space="preserve" text-anchor="start" x="1795" y="-319.47" font-family="FreeSans" font-size="10.00">DGtal::concepts::CTrivial</text>
<text xml:space="preserve" text-anchor="middle" x="1850.5" y="-308.22" font-family="FreeSans" font-size="10.00">Image&lt; I &gt;</text>
</a>
</g>
</g>
<!-- Node13&#45;&gt;Node16 -->
<g id="edge15_Node000013_Node000016" class="edge">
<title>Node13&#45;&gt;Node16</title>
<g id="a_edge15_Node000013_Node000016"><a xlink:title=" ">
<path fill="none" stroke="#63b8ff" d="M1707.04,-305.23C1732.98,-307.51 1761.82,-310.04 1786.73,-312.22"/>
<polygon fill="#63b8ff" stroke="#63b8ff" points="1707.51,-301.76 1697.24,-304.37 1706.9,-308.73 1707.51,-301.76"/>
</a>
</g>
</g>
<!-- Node15 -->
<g id="Node000015" class="node">
<title>Node15</title>
<g id="a_Node000015"><a xlink:href="structDGtal_1_1concepts_1_1CImage.html" target="_top" xlink:title="Aim: Defines the concept describing a read/write image, having an output iterator.">
<polygon fill="white" stroke="#666666" points="2123.75,-305.35 1975,-305.35 1975,-286.1 2123.75,-286.1 2123.75,-305.35"/>
<text xml:space="preserve" text-anchor="middle" x="2049.38" y="-291.85" font-family="FreeSans" font-size="10.00">DGtal::concepts::CImage&lt; I &gt;</text>
</a>
</g>
</g>
<!-- Node14&#45;&gt;Node15 -->
<g id="edge14_Node000014_Node000015" class="edge">
<title>Node14&#45;&gt;Node15</title>
<g id="a_edge14_Node000014_Node000015"><a xlink:title=" ">
<path fill="none" stroke="#63b8ff" d="M1949.77,-285.2C1958.11,-286.09 1966.44,-286.98 1974.55,-287.85"/>
<polygon fill="#63b8ff" stroke="#63b8ff" points="1950.25,-281.73 1939.93,-284.15 1949.5,-288.69 1950.25,-281.73"/>
</a>
</g>
</g>
<!-- Node16&#45;&gt;Node15 -->
<g id="edge16_Node000016_Node000015" class="edge">
<title>Node16&#45;&gt;Node15</title>
<g id="a_edge16_Node000016_Node000015"><a xlink:title=" ">
<path fill="none" stroke="#63b8ff" d="M1925.36,-309.47C1941.53,-307.66 1958.65,-305.75 1974.81,-303.94"/>
<polygon fill="#63b8ff" stroke="#63b8ff" points="1925.39,-305.94 1915.84,-310.53 1926.16,-312.9 1925.39,-305.94"/>
</a>
</g>
</g>
<!-- Node18 -->
<g id="Node000018" class="node">
<title>Node18</title>
<g id="a_Node000018"><a xlink:href="structDGtal_1_1concepts_1_1CPredicate.html" target="_top" xlink:title=" ">
<polygon fill="white" stroke="#666666" points="1482.88,-246.97 1340.88,-246.97 1340.88,-216.47 1482.88,-216.47 1482.88,-246.97"/>
<text xml:space="preserve" text-anchor="start" x="1348.88" y="-233.47" font-family="FreeSans" font-size="10.00">DGtal::concepts::CPredicate</text>
<text xml:space="preserve" text-anchor="middle" x="1411.88" y="-222.22" font-family="FreeSans" font-size="10.00">&lt; T, T::Point &gt;</text>
</a>
</g>
</g>
<!-- Node17&#45;&gt;Node18 -->
<g id="edge18_Node000017_Node000018" class="edge">
<title>Node17&#45;&gt;Node18</title>
<g id="a_edge18_Node000017_Node000018"><a xlink:title=" ">
<path fill="none" stroke="#63b8ff" d="M1014.18,-244.89C1091.49,-243.19 1205.7,-240.38 1305.25,-236.72 1316.62,-236.3 1328.68,-235.79 1340.43,-235.26"/>
<polygon fill="#63b8ff" stroke="#63b8ff" points="1014.48,-241.38 1004.56,-245.1 1014.63,-248.38 1014.48,-241.38"/>
</a>
</g>
</g>
<!-- Node19 -->
<g id="Node000019" class="node">
<title>Node19</title>
<g id="a_Node000019"><a xlink:href="structDGtal_1_1concepts_1_1CPointPredicate.html" target="_top" xlink:title="Aim: Defines a predicate on a point.">
<polygon fill="white" stroke="#666666" points="1726,-241.35 1537.5,-241.35 1537.5,-222.1 1726,-222.1 1726,-241.35"/>
<text xml:space="preserve" text-anchor="middle" x="1631.75" y="-227.85" font-family="FreeSans" font-size="10.00">DGtal::concepts::CPointPredicate&lt; T &gt;</text>
</a>
</g>
</g>
<!-- Node18&#45;&gt;Node19 -->
<g id="edge19_Node000018_Node000019" class="edge">
<title>Node18&#45;&gt;Node19</title>
<g id="a_edge19_Node000018_Node000019"><a xlink:title=" ">
<path fill="none" stroke="#63b8ff" d="M1494.76,-231.72C1508.59,-231.72 1523.04,-231.72 1537.14,-231.72"/>
<polygon fill="#63b8ff" stroke="#63b8ff" points="1494.83,-228.22 1484.83,-231.72 1494.83,-235.22 1494.83,-228.22"/>
</a>
</g>
</g>
<!-- Node20 -->
<g id="Node000020" class="node">
<title>Node20</title>
<g id="a_Node000020"><a xlink:href="structDGtal_1_1concepts_1_1CDigitalSet.html" target="_top" xlink:title="Aim: Represents a set of points within the given domain. This set of points is modifiable by the user...">
<polygon fill="white" stroke="#666666" points="1914.75,-246.97 1786.25,-246.97 1786.25,-216.47 1914.75,-216.47 1914.75,-246.97"/>
<text xml:space="preserve" text-anchor="start" x="1794.25" y="-233.47" font-family="FreeSans" font-size="10.00">DGtal::concepts::CDigital</text>
<text xml:space="preserve" text-anchor="middle" x="1850.5" y="-222.22" font-family="FreeSans" font-size="10.00">Set&lt; T &gt;</text>
</a>
</g>
</g>
<!-- Node19&#45;&gt;Node20 -->
<g id="edge20_Node000019_Node000020" class="edge">
<title>Node19&#45;&gt;Node20</title>
<g id="a_edge20_Node000019_Node000020"><a xlink:title=" ">
<path fill="none" stroke="#63b8ff" d="M1737.64,-231.72C1754.16,-231.72 1770.78,-231.72 1785.98,-231.72"/>
<polygon fill="#63b8ff" stroke="#63b8ff" points="1737.76,-228.22 1727.76,-231.72 1737.76,-235.22 1737.76,-228.22"/>
</a>
</g>
</g>
<!-- Node22 -->
<g id="Node000022" class="node">
<title>Node22</title>
<g id="a_Node000022"><a xlink:href="structDGtal_1_1concepts_1_1CPredicate.html" target="_top" xlink:title="Aim: Defines a predicate function, ie. a functor mapping a domain into the set of booleans.">
<polygon fill="white" stroke="#666666" points="1188.25,-203.97 1046.25,-203.97 1046.25,-173.47 1188.25,-173.47 1188.25,-203.97"/>
<text xml:space="preserve" text-anchor="start" x="1054.25" y="-190.47" font-family="FreeSans" font-size="10.00">DGtal::concepts::CPredicate</text>
<text xml:space="preserve" text-anchor="middle" x="1117.25" y="-179.22" font-family="FreeSans" font-size="10.00">&lt; T, TElement &gt;</text>
</a>
</g>
</g>
<!-- Node21&#45;&gt;Node22 -->
<g id="edge22_Node000021_Node000022" class="edge">
<title>Node21&#45;&gt;Node22</title>
<g id="a_edge22_Node000021_Node000022"><a xlink:title=" ">
<path fill="none" stroke="#63b8ff" d="M836.62,-191.74C901.18,-191.04 986.59,-190.12 1045.96,-189.48"/>
<polygon fill="#63b8ff" stroke="#63b8ff" points="836.71,-188.24 826.75,-191.85 836.78,-195.24 836.71,-188.24"/>
</a>
</g>
</g>
<!-- Node22&#45;&gt;Node18 -->
<g id="edge23_Node000022_Node000018" class="edge">
<title>Node22&#45;&gt;Node18</title>
<g id="a_edge23_Node000022_Node000018"><a xlink:title=" ">
<path fill="none" stroke="orange" stroke-dasharray="5,2" d="M1200.02,-200.74C1244.21,-207.23 1298.22,-215.17 1340.52,-221.38"/>
<polygon fill="orange" stroke="orange" points="1200.61,-197.29 1190.21,-199.3 1199.6,-204.21 1200.61,-197.29"/>
</a>
</g>
<text xml:space="preserve" text-anchor="start" x="1237.75" y="-220.09" font-family="FreeSans" font-size="10.00" fill="grey">&lt; T, T::Point &gt;</text>
</g>
<!-- Node23 -->
<g id="Node000023" class="node">
<title>Node23</title>
<g id="a_Node000023"><a xlink:href="structDGtal_1_1concepts_1_1CPredicate.html" target="_top" xlink:title=" ">
<polygon fill="white" stroke="#666666" points="1482.88,-127.97 1340.88,-127.97 1340.88,-97.47 1482.88,-97.47 1482.88,-127.97"/>
<text xml:space="preserve" text-anchor="start" x="1348.88" y="-114.47" font-family="FreeSans" font-size="10.00">DGtal::concepts::CPredicate</text>
<text xml:space="preserve" text-anchor="middle" x="1411.88" y="-103.22" font-family="FreeSans" font-size="10.00">&lt; T, T::Surfel &gt;</text>
</a>
</g>
</g>
<!-- Node22&#45;&gt;Node23 -->
<g id="edge24_Node000022_Node000023" class="edge">
<title>Node22&#45;&gt;Node23</title>
<g id="a_edge24_Node000022_Node000023"><a xlink:title=" ">
<path fill="none" stroke="orange" stroke-dasharray="5,2" d="M1180.49,-169.87C1197.09,-165.01 1215.06,-159.9 1231.75,-155.47 1267.75,-145.91 1308.08,-136.2 1341.34,-128.45"/>
<polygon fill="orange" stroke="orange" points="1179.85,-166.41 1171.25,-172.59 1181.83,-173.13 1179.85,-166.41"/>
</a>
</g>
<text xml:space="preserve" text-anchor="start" x="1236.25" y="-160.22" font-family="FreeSans" font-size="10.00" fill="grey">&lt; T, T::Surfel &gt;</text>
</g>
<!-- Node25 -->
<g id="Node000025" class="node">
<title>Node25</title>
<g id="a_Node000025"><a xlink:href="structDGtal_1_1concepts_1_1CPredicate.html" target="_top" xlink:title=" ">
<polygon fill="white" stroke="#666666" points="1482.88,-183.97 1340.88,-183.97 1340.88,-153.47 1482.88,-153.47 1482.88,-183.97"/>
<text xml:space="preserve" text-anchor="start" x="1348.88" y="-170.47" font-family="FreeSans" font-size="10.00">DGtal::concepts::CPredicate</text>
<text xml:space="preserve" text-anchor="middle" x="1411.88" y="-159.22" font-family="FreeSans" font-size="10.00">&lt; T, T::Vertex &gt;</text>
</a>
</g>
</g>
<!-- Node22&#45;&gt;Node25 -->
<g id="edge26_Node000022_Node000025" class="edge">
<title>Node22&#45;&gt;Node25</title>
<g id="a_edge26_Node000022_Node000025"><a xlink:title=" ">
<path fill="none" stroke="orange" stroke-dasharray="5,2" d="M1200.02,-183.13C1244.21,-180.11 1298.22,-176.42 1340.52,-173.53"/>
<polygon fill="orange" stroke="orange" points="1199.96,-179.63 1190.22,-183.8 1200.44,-186.61 1199.96,-179.63"/>
</a>
</g>
<text xml:space="preserve" text-anchor="start" x="1234.75" y="-185.26" font-family="FreeSans" font-size="10.00" fill="grey">&lt; T, T::Vertex &gt;</text>
</g>
<!-- Node24 -->
<g id="Node000024" class="node">
<title>Node24</title>
<g id="a_Node000024"><a xlink:href="structDGtal_1_1concepts_1_1CSurfelPredicate.html" target="_top" xlink:title="Aim: Defines a predicate on a surfel.">
<polygon fill="white" stroke="#666666" points="1694.88,-127.97 1568.62,-127.97 1568.62,-97.47 1694.88,-97.47 1694.88,-127.97"/>
<text xml:space="preserve" text-anchor="start" x="1576.62" y="-114.47" font-family="FreeSans" font-size="10.00">DGtal::concepts::CSurfel</text>
<text xml:space="preserve" text-anchor="middle" x="1631.75" y="-103.22" font-family="FreeSans" font-size="10.00">Predicate&lt; T &gt;</text>
</a>
</g>
</g>
<!-- Node23&#45;&gt;Node24 -->
<g id="edge25_Node000023_Node000024" class="edge">
<title>Node23&#45;&gt;Node24</title>
<g id="a_edge25_Node000023_Node000024"><a xlink:title=" ">
<path fill="none" stroke="#63b8ff" d="M1494.72,-112.72C1519.07,-112.72 1545.36,-112.72 1568.27,-112.72"/>
<polygon fill="#63b8ff" stroke="#63b8ff" points="1494.83,-109.22 1484.83,-112.72 1494.83,-116.22 1494.83,-109.22"/>
</a>
</g>
</g>
<!-- Node26 -->
<g id="Node000026" class="node">
<title>Node26</title>
<g id="a_Node000026"><a xlink:href="structDGtal_1_1concepts_1_1CVertexPredicate.html" target="_top" xlink:title="Aim: Defines a predicate on a vertex.">
<polygon fill="white" stroke="#666666" points="1696.38,-183.97 1567.12,-183.97 1567.12,-153.47 1696.38,-153.47 1696.38,-183.97"/>
<text xml:space="preserve" text-anchor="start" x="1575.12" y="-170.47" font-family="FreeSans" font-size="10.00">DGtal::concepts::CVertex</text>
<text xml:space="preserve" text-anchor="middle" x="1631.75" y="-159.22" font-family="FreeSans" font-size="10.00">Predicate&lt; T &gt;</text>
</a>
</g>
</g>
<!-- Node25&#45;&gt;Node26 -->
<g id="edge27_Node000025_Node000026" class="edge">
<title>Node25&#45;&gt;Node26</title>
<g id="a_edge27_Node000025_Node000026"><a xlink:title=" ">
<path fill="none" stroke="#63b8ff" d="M1494.51,-168.72C1518.41,-168.72 1544.19,-168.72 1566.82,-168.72"/>
<polygon fill="#63b8ff" stroke="#63b8ff" points="1494.83,-165.22 1484.83,-168.72 1494.83,-172.22 1494.83,-165.22"/>
</a>
</g>
</g>
<!-- Node28 -->
<g id="Node000028" class="node">
<title>Node28</title>
<g id="a_Node000028"><a xlink:href="structDGtal_1_1concepts_1_1CSCellEmbedder.html" target="_top" xlink:title="Aim: A cell embedder is a mapping from signed cells to Euclidean points. It adds inner types to funct...">
<polygon fill="white" stroke="#666666" points="1213.75,-62.35 1020.75,-62.35 1020.75,-43.1 1213.75,-43.1 1213.75,-62.35"/>
<text xml:space="preserve" text-anchor="middle" x="1117.25" y="-48.85" font-family="FreeSans" font-size="10.00">DGtal::concepts::CSCellEmbedder&lt; T &gt;</text>
</a>
</g>
</g>
<!-- Node27&#45;&gt;Node28 -->
<g id="edge29_Node000027_Node000028" class="edge">
<title>Node27&#45;&gt;Node28</title>
<g id="a_edge29_Node000027_Node000028"><a xlink:title=" ">
<path fill="none" stroke="#63b8ff" d="M836.53,-63.29C892.34,-61.18 963.76,-58.48 1020.47,-56.34"/>
<polygon fill="#63b8ff" stroke="#63b8ff" points="836.6,-59.79 826.74,-63.66 836.87,-66.78 836.6,-59.79"/>
</a>
</g>
</g>
<!-- Node29 -->
<g id="Node000029" class="node">
<title>Node29</title>
<g id="a_Node000029"><a xlink:href="structDGtal_1_1concepts_1_1CDigitalSurfaceEmbedder.html" target="_top" xlink:title="Aim: A digital surface embedder is a specialized mapping from signed cells to Euclidean points....">
<polygon fill="white" stroke="#666666" points="1476.12,-67.97 1347.62,-67.97 1347.62,-37.47 1476.12,-37.47 1476.12,-67.97"/>
<text xml:space="preserve" text-anchor="start" x="1355.62" y="-54.47" font-family="FreeSans" font-size="10.00">DGtal::concepts::CDigital</text>
<text xml:space="preserve" text-anchor="middle" x="1411.88" y="-43.22" font-family="FreeSans" font-size="10.00">SurfaceEmbedder&lt; T &gt;</text>
</a>
</g>
</g>
<!-- Node28&#45;&gt;Node29 -->
<g id="edge30_Node000028_Node000029" class="edge">
<title>Node28&#45;&gt;Node29</title>
<g id="a_edge30_Node000028_Node000029"><a xlink:title=" ">
<path fill="none" stroke="#63b8ff" d="M1225.47,-52.72C1266.33,-52.72 1311.59,-52.72 1347.17,-52.72"/>
<polygon fill="#63b8ff" stroke="#63b8ff" points="1225.58,-49.22 1215.58,-52.72 1225.58,-56.22 1225.58,-49.22"/>
</a>
</g>
</g>
<!-- Node30&#45;&gt;Node23 -->
<g id="edge32_Node000030_Node000023" class="edge">
<title>Node30&#45;&gt;Node23</title>
<g id="a_edge32_Node000030_Node000023"><a xlink:title=" ">
<path fill="none" stroke="#63b8ff" d="M1014.21,-96.53C1091.54,-97.54 1205.76,-99.78 1305.25,-104.72 1316.64,-105.29 1328.71,-106.05 1340.45,-106.88"/>
<polygon fill="#63b8ff" stroke="#63b8ff" points="1014.63,-93.04 1004.58,-96.41 1014.54,-100.04 1014.63,-93.04"/>
</a>
</g>
</g>
<!-- Node31&#45;&gt;Node12 -->
<g id="edge34_Node000031_Node000012" class="edge">
<title>Node31&#45;&gt;Node12</title>
<g id="a_edge34_Node000031_Node000012"><a xlink:title=" ">
<path fill="none" stroke="#63b8ff" d="M1014.43,-291.4C1102.6,-293.03 1235.66,-295.48 1322.91,-297.1"/>
<polygon fill="#63b8ff" stroke="#63b8ff" points="1014.68,-287.9 1004.61,-291.22 1014.55,-294.9 1014.68,-287.9"/>
</a>
</g>
</g>
<!-- Node32&#45;&gt;Node25 -->
<g id="edge36_Node000032_Node000025" class="edge">
<title>Node32&#45;&gt;Node25</title>
<g id="a_edge36_Node000032_Node000025"><a xlink:title=" ">
<path fill="none" stroke="#63b8ff" d="M1014.08,-124.97C1091.8,-120.19 1206.65,-117.68 1305.25,-133.72 1328.51,-137.51 1353.59,-145.63 1373.47,-153.1"/>
<polygon fill="#63b8ff" stroke="#63b8ff" points="1014.16,-121.45 1004.4,-125.59 1014.6,-128.44 1014.16,-121.45"/>
</a>
</g>
</g>
</g>
</svg>
