<?xml version="1.0" encoding="UTF-8" standalone="no"?>
<!DOCTYPE svg PUBLIC "-//W3C//DTD SVG 1.1//EN"
 "http://www.w3.org/Graphics/SVG/1.1/DTD/svg11.dtd">
<!-- Generated by graphviz version 13.0.1 (20250615.1724)
 -->
<!-- Title: DGtal::concepts::CSinglePassRangeFromPoint&lt; T &gt; Pages: 1 -->
<svg width="524pt" height="88pt"
 viewBox="0.00 0.00 524.00 88.00" xmlns="http://www.w3.org/2000/svg" xmlns:xlink="http://www.w3.org/1999/xlink">
<g id="graph0" class="graph" transform="scale(1 1) rotate(0) translate(4 83.5)">
<title>DGtal::concepts::CSinglePassRangeFromPoint&lt; T &gt;</title>
<!-- Node1 -->
<g id="Node000001" class="node">
<title>Node1</title>
<g id="a_Node000001"><a xlink:title="Aim: refined concept of single pass range with a begin() method from a point.">
<polygon fill="#999999" stroke="#666666" points="516,-54.5 380,-54.5 380,-24 516,-24 516,-54.5"/>
<text xml:space="preserve" text-anchor="start" x="388" y="-41" font-family="FreeSans" font-size="10.00">DGtal::concepts::CSingle</text>
<text xml:space="preserve" text-anchor="middle" x="448" y="-29.75" font-family="FreeSans" font-size="10.00">PassRangeFromPoint&lt; T &gt;</text>
</a>
</g>
</g>
<!-- Node2 -->
<g id="Node000002" class="node">
<title>Node2</title>
<g id="a_Node000002"><a xlink:href="structDGtal_1_1concepts_1_1CSinglePassRange.html" target="_top" xlink:title="Aim: Defines the concept describing a range.">
<polygon fill="white" stroke="#666666" points="330.88,-79.5 203.12,-79.5 203.12,-49 330.88,-49 330.88,-79.5"/>
<text xml:space="preserve" text-anchor="start" x="211.12" y="-66" font-family="FreeSans" font-size="10.00">DGtal::concepts::CSingle</text>
<text xml:space="preserve" text-anchor="middle" x="267" y="-54.75" font-family="FreeSans" font-size="10.00">PassRange&lt; T &gt;</text>
</a>
</g>
</g>
<!-- Node2&#45;&gt;Node1 -->
<g id="edge1_Node000001_Node000002" class="edge">
<title>Node2&#45;&gt;Node1</title>
<g id="a_edge1_Node000001_Node000002"><a xlink:title=" ">
<path fill="none" stroke="#63b8ff" d="M342.56,-53.84C354.9,-52.11 367.63,-50.33 379.78,-48.64"/>
<polygon fill="#63b8ff" stroke="#63b8ff" points="342.28,-50.34 332.86,-55.19 343.25,-57.27 342.28,-50.34"/>
</a>
</g>
</g>
<!-- Node3 -->
<g id="Node000003" class="node">
<title>Node3</title>
<g id="a_Node000003"><a xlink:href="structDGtal_1_1concepts_1_1CConstSinglePassRange.html" target="_top" xlink:title="Aim: Defines the concept describing a const single pass range.">
<polygon fill="white" stroke="#666666" points="154,-54.5 0,-54.5 0,-24 154,-24 154,-54.5"/>
<text xml:space="preserve" text-anchor="start" x="8" y="-41" font-family="FreeSans" font-size="10.00">DGtal::concepts::CConstSingle</text>
<text xml:space="preserve" text-anchor="middle" x="77" y="-29.75" font-family="FreeSans" font-size="10.00">PassRange&lt; T &gt;</text>
</a>
</g>
</g>
<!-- Node3&#45;&gt;Node2 -->
<g id="edge2_Node000002_Node000003" class="edge">
<title>Node3&#45;&gt;Node2</title>
<g id="a_edge2_Node000002_Node000003"><a xlink:title=" ">
<path fill="none" stroke="#63b8ff" d="M165.85,-50.93C178.32,-52.59 190.93,-54.27 202.81,-55.85"/>
<polygon fill="#63b8ff" stroke="#63b8ff" points="166.34,-47.47 155.97,-49.62 165.42,-54.41 166.34,-47.47"/>
</a>
</g>
</g>
<!-- Node4 -->
<g id="Node000004" class="node">
<title>Node4</title>
<g id="a_Node000004"><a xlink:href="structDGtal_1_1concepts_1_1CConstSinglePassRangeFromPoint.html" target="_top" xlink:title="Aim: refined concept of const single pass range with a begin() method from a point.">
<polygon fill="white" stroke="#666666" points="344,-30.5 190,-30.5 190,0 344,0 344,-30.5"/>
<text xml:space="preserve" text-anchor="start" x="198" y="-17" font-family="FreeSans" font-size="10.00">DGtal::concepts::CConstSingle</text>
<text xml:space="preserve" text-anchor="middle" x="267" y="-5.75" font-family="FreeSans" font-size="10.00">PassRangeFromPoint&lt; T &gt;</text>
</a>
</g>
</g>
<!-- Node3&#45;&gt;Node4 -->
<g id="edge4_Node000004_Node000003" class="edge">
<title>Node3&#45;&gt;Node4</title>
<g id="a_edge4_Node000004_Node000003"><a xlink:title=" ">
<path fill="none" stroke="#63b8ff" d="M165.69,-28.06C173.68,-27.04 181.73,-26.01 189.6,-25"/>
<polygon fill="#63b8ff" stroke="#63b8ff" points="165.44,-24.56 155.97,-29.3 166.33,-31.5 165.44,-24.56"/>
</a>
</g>
</g>
<!-- Node4&#45;&gt;Node1 -->
<g id="edge3_Node000001_Node000004" class="edge">
<title>Node4&#45;&gt;Node1</title>
<g id="a_edge3_Node000001_Node000004"><a xlink:title=" ">
<path fill="none" stroke="#63b8ff" d="M355.73,-27.01C363.75,-28.09 371.79,-29.17 379.59,-30.21"/>
<polygon fill="#63b8ff" stroke="#63b8ff" points="356.31,-23.56 345.93,-25.7 355.38,-30.5 356.31,-23.56"/>
</a>
</g>
</g>
</g>
</svg>
