<?xml version="1.0" encoding="UTF-8" standalone="no"?>
<!DOCTYPE svg PUBLIC "-//W3C//DTD SVG 1.1//EN"
 "http://www.w3.org/Graphics/SVG/1.1/DTD/svg11.dtd">
<!-- Generated by graphviz version 13.0.1 (20250615.1724)
 -->
<!-- Title: DGtal::concepts::COrientationFunctor&lt; T &gt; Pages: 1 -->
<svg width="304pt" height="442pt"
 viewBox="0.00 0.00 304.00 442.00" xmlns="http://www.w3.org/2000/svg" xmlns:xlink="http://www.w3.org/1999/xlink">
<g id="graph0" class="graph" transform="scale(1 1) rotate(0) translate(4 438.25)">
<title>DGtal::concepts::COrientationFunctor&lt; T &gt;</title>
<!-- Node1 -->
<g id="Node000001" class="node">
<title>Node1</title>
<g id="a_Node000001"><a xlink:title="Aim: This concept gathers models implementing an orientation test of &#160;points in a space of dimension ...">
<polygon fill="#999999" stroke="#666666" points="180,-98 32,-98 32,-67.5 180,-67.5 180,-98"/>
<text xml:space="preserve" text-anchor="start" x="40" y="-84.5" font-family="FreeSans" font-size="10.00">DGtal::concepts::COrientation</text>
<text xml:space="preserve" text-anchor="middle" x="106" y="-73.25" font-family="FreeSans" font-size="10.00">Functor&lt; T &gt;</text>
</a>
</g>
</g>
<!-- Node8 -->
<g id="Node000008" class="node">
<title>Node8</title>
<g id="a_Node000008"><a xlink:href="structDGtal_1_1concepts_1_1COrientationFunctor2.html" target="_top" xlink:title="Aim: This concept is a refinement of COrientationFunctor, useful for simple algebraic curves that can...">
<polygon fill="white" stroke="#666666" points="180,-30.5 32,-30.5 32,0 180,0 180,-30.5"/>
<text xml:space="preserve" text-anchor="start" x="40" y="-17" font-family="FreeSans" font-size="10.00">DGtal::concepts::COrientation</text>
<text xml:space="preserve" text-anchor="middle" x="106" y="-5.75" font-family="FreeSans" font-size="10.00">Functor2&lt; T &gt;</text>
</a>
</g>
</g>
<!-- Node1&#45;&gt;Node8 -->
<g id="edge7_Node000001_Node000008" class="edge">
<title>Node1&#45;&gt;Node8</title>
<g id="a_edge7_Node000001_Node000008"><a xlink:title=" ">
<path fill="none" stroke="#63b8ff" d="M106,-55.84C106,-47.3 106,-38.12 106,-30.75"/>
<polygon fill="#63b8ff" stroke="#63b8ff" points="102.5,-55.7 106,-65.7 109.5,-55.7 102.5,-55.7"/>
</a>
</g>
</g>
<!-- Node2 -->
<g id="Node000002" class="node">
<title>Node2</title>
<g id="a_Node000002"><a xlink:href="structDGtal_1_1concepts_1_1CPointFunctor.html" target="_top" xlink:title="Aim: Defines a functor on points.">
<polygon fill="white" stroke="#666666" points="196.12,-154.25 15.88,-154.25 15.88,-135 196.12,-135 196.12,-154.25"/>
<text xml:space="preserve" text-anchor="middle" x="106" y="-140.75" font-family="FreeSans" font-size="10.00">DGtal::concepts::CPointFunctor&lt; T &gt;</text>
</a>
</g>
</g>
<!-- Node2&#45;&gt;Node1 -->
<g id="edge1_Node000001_Node000002" class="edge">
<title>Node2&#45;&gt;Node1</title>
<g id="a_edge1_Node000001_Node000002"><a xlink:title=" ">
<path fill="none" stroke="#63b8ff" d="M106,-123.19C106,-114.93 106,-105.59 106,-98.07"/>
<polygon fill="#63b8ff" stroke="#63b8ff" points="102.5,-123.02 106,-133.02 109.5,-123.02 102.5,-123.02"/>
</a>
</g>
</g>
<!-- Node3 -->
<g id="Node000003" class="node">
<title>Node3</title>
<g id="a_Node000003"><a xlink:href="structDGtal_1_1concepts_1_1CUnaryFunctor.html" target="_top" xlink:title=" ">
<polygon fill="white" stroke="#666666" points="186,-221.75 26,-221.75 26,-191.25 186,-191.25 186,-221.75"/>
<text xml:space="preserve" text-anchor="start" x="34" y="-208.25" font-family="FreeSans" font-size="10.00">DGtal::concepts::CUnaryFunctor</text>
<text xml:space="preserve" text-anchor="middle" x="106" y="-197" font-family="FreeSans" font-size="10.00">&lt; T, T::Point, T::Value &gt;</text>
</a>
</g>
</g>
<!-- Node3&#45;&gt;Node2 -->
<g id="edge2_Node000002_Node000003" class="edge">
<title>Node3&#45;&gt;Node2</title>
<g id="a_edge2_Node000002_Node000003"><a xlink:title=" ">
<path fill="none" stroke="#63b8ff" d="M106,-179.77C106,-170.79 106,-161.29 106,-154.6"/>
<polygon fill="#63b8ff" stroke="#63b8ff" points="102.5,-179.49 106,-189.49 109.5,-179.49 102.5,-179.49"/>
</a>
</g>
</g>
<!-- Node4 -->
<g id="Node000004" class="node">
<title>Node4</title>
<g id="a_Node000004"><a xlink:href="structboost_1_1Assignable.html" target="_top" xlink:title="Go to http://www.sgi.com/tech/stl/Assignable.html.">
<polygon fill="white" stroke="#666666" points="118,-299.88 0,-299.88 0,-280.62 118,-280.62 118,-299.88"/>
<text xml:space="preserve" text-anchor="middle" x="59" y="-286.38" font-family="FreeSans" font-size="10.00">boost::Assignable&lt; T &gt;</text>
</a>
</g>
</g>
<!-- Node4&#45;&gt;Node3 -->
<g id="edge3_Node000003_Node000004" class="edge">
<title>Node4&#45;&gt;Node3</title>
<g id="a_edge3_Node000003_Node000004"><a xlink:title=" ">
<path fill="none" stroke="#63b8ff" d="M69.71,-270.63C78.16,-255.92 89.8,-235.67 97.6,-222.11"/>
<polygon fill="#63b8ff" stroke="#63b8ff" points="66.91,-268.46 64.96,-278.88 72.98,-271.95 66.91,-268.46"/>
</a>
</g>
</g>
<!-- Node5 -->
<g id="Node000005" class="node">
<title>Node5</title>
<g id="a_Node000005"><a xlink:href="structDGtal_1_1concepts_1_1CUnaryFunctor.html" target="_top" xlink:title="Aim: Defines a unary functor, which associates arguments to results.">
<polygon fill="white" stroke="#666666" points="296,-305.5 136,-305.5 136,-275 296,-275 296,-305.5"/>
<text xml:space="preserve" text-anchor="start" x="144" y="-292" font-family="FreeSans" font-size="10.00">DGtal::concepts::CUnaryFunctor</text>
<text xml:space="preserve" text-anchor="middle" x="216" y="-280.75" font-family="FreeSans" font-size="10.00">&lt; X, A, R &gt;</text>
</a>
</g>
</g>
<!-- Node5&#45;&gt;Node3 -->
<g id="edge4_Node000003_Node000005" class="edge">
<title>Node5&#45;&gt;Node3</title>
<g id="a_edge4_Node000003_Node000005"><a xlink:title=" ">
<path fill="none" stroke="orange" stroke-dasharray="5,2" d="M187.31,-267.92C167.85,-253.47 142.65,-234.74 125.5,-221.99"/>
<polygon fill="orange" stroke="orange" points="185.01,-270.58 195.12,-273.73 189.18,-264.96 185.01,-270.58"/>
</a>
</g>
<text xml:space="preserve" text-anchor="start" x="173.85" y="-244.5" font-family="FreeSans" font-size="10.00" fill="grey">&lt; T, T::Point, T::Value &gt;</text>
</g>
<!-- Node6 -->
<g id="Node000006" class="node">
<title>Node6</title>
<g id="a_Node000006"><a xlink:href="structboost_1_1Assignable.html" target="_top" xlink:title=" ">
<polygon fill="white" stroke="#666666" points="275.38,-361.75 156.62,-361.75 156.62,-342.5 275.38,-342.5 275.38,-361.75"/>
<text xml:space="preserve" text-anchor="middle" x="216" y="-348.25" font-family="FreeSans" font-size="10.00">boost::Assignable&lt; X &gt;</text>
</a>
</g>
</g>
<!-- Node6&#45;&gt;Node5 -->
<g id="edge5_Node000005_Node000006" class="edge">
<title>Node6&#45;&gt;Node5</title>
<g id="a_edge5_Node000005_Node000006"><a xlink:title=" ">
<path fill="none" stroke="#63b8ff" d="M216,-330.69C216,-322.43 216,-313.09 216,-305.57"/>
<polygon fill="#63b8ff" stroke="#63b8ff" points="212.5,-330.52 216,-340.52 219.5,-330.52 212.5,-330.52"/>
</a>
</g>
</g>
<!-- Node7 -->
<g id="Node000007" class="node">
<title>Node7</title>
<g id="a_Node000007"><a xlink:href="structboost_1_1Assignable.html" target="_top" xlink:title="Go to http://www.sgi.com/tech/stl/Assignable.html.">
<polygon fill="white" stroke="#666666" points="275,-434.25 157,-434.25 157,-415 275,-415 275,-434.25"/>
<text xml:space="preserve" text-anchor="middle" x="216" y="-420.75" font-family="FreeSans" font-size="10.00">boost::Assignable&lt; T &gt;</text>
</a>
</g>
</g>
<!-- Node7&#45;&gt;Node6 -->
<g id="edge6_Node000006_Node000007" class="edge">
<title>Node7&#45;&gt;Node6</title>
<g id="a_edge6_Node000006_Node000007"><a xlink:title=" ">
<path fill="none" stroke="orange" stroke-dasharray="5,2" d="M216,-403.55C216,-389.94 216,-372.6 216,-362.2"/>
<polygon fill="orange" stroke="orange" points="212.5,-403.18 216,-413.18 219.5,-403.18 212.5,-403.18"/>
</a>
</g>
<text xml:space="preserve" text-anchor="start" x="219" y="-384.5" font-family="FreeSans" font-size="10.00" fill="grey">&lt; X &gt;</text>
</g>
</g>
</svg>
