<?xml version="1.0" encoding="UTF-8" standalone="no"?>
<!DOCTYPE svg PUBLIC "-//W3C//DTD SVG 1.1//EN"
 "http://www.w3.org/Graphics/SVG/1.1/DTD/svg11.dtd">
<!-- Generated by graphviz version 13.1.2 (20250808.2320)
 -->
<!-- Title: LibBoard::TransformTikZ Pages: 1 -->
<svg width="134pt" height="138pt"
 viewBox="0.00 0.00 134.00 138.00" xmlns="http://www.w3.org/2000/svg" xmlns:xlink="http://www.w3.org/1999/xlink">
<g id="graph0" class="graph" transform="scale(1 1) rotate(0) translate(4 133.75)">
<title>LibBoard::TransformTikZ</title>
<!-- Node1 -->
<g id="Node000001" class="node">
<title>Node1</title>
<g id="a_Node000001"><a xlink:title="Structure representing a scaling and translation suitable for an TikZ output.">
<polygon fill="#999999" stroke="#666666" points="124.75,-19.25 0.75,-19.25 0.75,0 124.75,0 124.75,-19.25"/>
<text xml:space="preserve" text-anchor="middle" x="62.75" y="-5.75" font-family="FreeSans" font-size="10.00">LibBoard::TransformTikZ</text>
</a>
</g>
</g>
<!-- Node2 -->
<g id="Node000002" class="node">
<title>Node2</title>
<g id="a_Node000002"><a xlink:href="structLibBoard_1_1TransformSVG.html" target="_top" xlink:title="Structure representing a scaling and translation suitable for an SVG output.">
<polygon fill="white" stroke="#666666" points="125.5,-74.5 0,-74.5 0,-55.25 125.5,-55.25 125.5,-74.5"/>
<text xml:space="preserve" text-anchor="middle" x="62.75" y="-61" font-family="FreeSans" font-size="10.00">LibBoard::TransformSVG</text>
</a>
</g>
</g>
<!-- Node2&#45;&gt;Node1 -->
<g id="edge1_Node000001_Node000002" class="edge">
<title>Node2&#45;&gt;Node1</title>
<g id="a_edge1_Node000001_Node000002"><a xlink:title=" ">
<path fill="none" stroke="#63b8ff" d="M62.75,-43.63C62.75,-35.34 62.75,-26.17 62.75,-19.61"/>
<polygon fill="#63b8ff" stroke="#63b8ff" points="59.25,-43.57 62.75,-53.57 66.25,-43.57 59.25,-43.57"/>
</a>
</g>
</g>
<!-- Node3 -->
<g id="Node000003" class="node">
<title>Node3</title>
<g id="a_Node000003"><a xlink:href="structLibBoard_1_1Transform.html" target="_top" xlink:title="base class for transforms.">
<polygon fill="white" stroke="#666666" points="115,-129.75 10.5,-129.75 10.5,-110.5 115,-110.5 115,-129.75"/>
<text xml:space="preserve" text-anchor="middle" x="62.75" y="-116.25" font-family="FreeSans" font-size="10.00">LibBoard::Transform</text>
</a>
</g>
</g>
<!-- Node3&#45;&gt;Node2 -->
<g id="edge2_Node000002_Node000003" class="edge">
<title>Node3&#45;&gt;Node2</title>
<g id="a_edge2_Node000002_Node000003"><a xlink:title=" ">
<path fill="none" stroke="#63b8ff" d="M62.75,-98.88C62.75,-90.59 62.75,-81.42 62.75,-74.86"/>
<polygon fill="#63b8ff" stroke="#63b8ff" points="59.25,-98.82 62.75,-108.82 66.25,-98.82 59.25,-98.82"/>
</a>
</g>
</g>
</g>
</svg>
