<?xml version="1.0" encoding="UTF-8" standalone="no"?>
<!DOCTYPE svg PUBLIC "-//W3C//DTD SVG 1.1//EN"
 "http://www.w3.org/Graphics/SVG/1.1/DTD/svg11.dtd">
<!-- Generated by graphviz version 13.0.1 (20250615.1724)
 -->
<!-- Title: boost::LessThanComparable&lt; T &gt; Pages: 1 -->
<svg width="1114pt" height="174pt"
 viewBox="0.00 0.00 1114.00 174.00" xmlns="http://www.w3.org/2000/svg" xmlns:xlink="http://www.w3.org/1999/xlink">
<g id="graph0" class="graph" transform="scale(1 1) rotate(0) translate(4 169.5)">
<title>boost::LessThanComparable&lt; T &gt;</title>
<!-- Node1 -->
<g id="Node000001" class="node">
<title>Node1</title>
<g id="a_Node000001"><a xlink:title="Go to http://www.sgi.com/tech/stl/LessThanComparable.html.">
<polygon fill="#999999" stroke="#666666" points="165.25,-94.88 0,-94.88 0,-75.62 165.25,-75.62 165.25,-94.88"/>
<text xml:space="preserve" text-anchor="middle" x="82.62" y="-81.38" font-family="FreeSans" font-size="10.00">boost::LessThanComparable&lt; T &gt;</text>
</a>
</g>
</g>
<!-- Node2 -->
<g id="Node000002" class="node">
<title>Node2</title>
<g id="a_Node000002"><a xlink:href="structDGtal_1_1concepts_1_1CQuantity.html" target="_top" xlink:title="Aim: defines the concept of quantity in DGtal.">
<polygon fill="white" stroke="#666666" points="362.75,-94.88 201.25,-94.88 201.25,-75.62 362.75,-75.62 362.75,-94.88"/>
<text xml:space="preserve" text-anchor="middle" x="282" y="-81.38" font-family="FreeSans" font-size="10.00">DGtal::concepts::CQuantity&lt; T &gt;</text>
</a>
</g>
</g>
<!-- Node1&#45;&gt;Node2 -->
<g id="edge1_Node000001_Node000002" class="edge">
<title>Node1&#45;&gt;Node2</title>
<g id="a_edge1_Node000001_Node000002"><a xlink:title=" ">
<path fill="none" stroke="#63b8ff" d="M176.89,-85.25C184.9,-85.25 192.96,-85.25 200.85,-85.25"/>
<polygon fill="#63b8ff" stroke="#63b8ff" points="177.13,-81.75 167.13,-85.25 177.13,-88.75 177.13,-81.75"/>
</a>
</g>
</g>
<!-- Node3 -->
<g id="Node000003" class="node">
<title>Node3</title>
<g id="a_Node000003"><a xlink:href="structDGtal_1_1concepts_1_1CBoundedNumber.html" target="_top" xlink:title="Aim: The concept CBoundedNumber specifies what are the bounded numbers. Models of this concept should...">
<polygon fill="white" stroke="#666666" points="539.25,-165.5 400.25,-165.5 400.25,-135 539.25,-135 539.25,-165.5"/>
<text xml:space="preserve" text-anchor="start" x="408.25" y="-152" font-family="FreeSans" font-size="10.00">DGtal::concepts::CBounded</text>
<text xml:space="preserve" text-anchor="middle" x="469.75" y="-140.75" font-family="FreeSans" font-size="10.00">Number&lt; T &gt;</text>
</a>
</g>
</g>
<!-- Node2&#45;&gt;Node3 -->
<g id="edge2_Node000002_Node000003" class="edge">
<title>Node2&#45;&gt;Node3</title>
<g id="a_edge2_Node000002_Node000003"><a xlink:title=" ">
<path fill="none" stroke="#63b8ff" d="M322.41,-99.04C352.11,-109.43 392.86,-123.69 423.82,-134.53"/>
<polygon fill="#63b8ff" stroke="#63b8ff" points="323.64,-95.76 313.04,-95.76 321.33,-102.37 323.64,-95.76"/>
</a>
</g>
</g>
<!-- Node4 -->
<g id="Node000004" class="node">
<title>Node4</title>
<g id="a_Node000004"><a xlink:href="structDGtal_1_1concepts_1_1CIntegralNumber.html" target="_top" xlink:title="Aim: Concept checking for Integral Numbers. Models of this concept should be listed in NumberTraits c...">
<polygon fill="white" stroke="#666666" points="722.88,-125.5 589.88,-125.5 589.88,-95 722.88,-95 722.88,-125.5"/>
<text xml:space="preserve" text-anchor="start" x="597.88" y="-112" font-family="FreeSans" font-size="10.00">DGtal::concepts::CIntegral</text>
<text xml:space="preserve" text-anchor="middle" x="656.38" y="-100.75" font-family="FreeSans" font-size="10.00">Number&lt; T &gt;</text>
</a>
</g>
</g>
<!-- Node2&#45;&gt;Node4 -->
<g id="edge3_Node000002_Node000004" class="edge">
<title>Node2&#45;&gt;Node4</title>
<g id="a_edge3_Node000002_Node000004"><a xlink:title=" ">
<path fill="none" stroke="#63b8ff" d="M374.22,-91.37C440.9,-95.85 529.77,-101.82 589.59,-105.83"/>
<polygon fill="#63b8ff" stroke="#63b8ff" points="374.61,-87.89 364.39,-90.71 374.14,-94.88 374.61,-87.89"/>
</a>
</g>
</g>
<!-- Node6 -->
<g id="Node000006" class="node">
<title>Node6</title>
<g id="a_Node000006"><a xlink:href="structDGtal_1_1concepts_1_1CSignedNumber.html" target="_top" xlink:title="Aim: Concept checking for Signed Numbers. Models of this concept should be listed in NumberTraits cla...">
<polygon fill="white" stroke="#666666" points="535.12,-79.5 404.38,-79.5 404.38,-49 535.12,-49 535.12,-79.5"/>
<text xml:space="preserve" text-anchor="start" x="412.38" y="-66" font-family="FreeSans" font-size="10.00">DGtal::concepts::CSigned</text>
<text xml:space="preserve" text-anchor="middle" x="469.75" y="-54.75" font-family="FreeSans" font-size="10.00">Number&lt; T &gt;</text>
</a>
</g>
</g>
<!-- Node2&#45;&gt;Node6 -->
<g id="edge5_Node000002_Node000006" class="edge">
<title>Node2&#45;&gt;Node6</title>
<g id="a_edge5_Node000002_Node000006"><a xlink:title=" ">
<path fill="none" stroke="#63b8ff" d="M374.38,-74.92C384.38,-73.79 394.4,-72.66 403.98,-71.57"/>
<polygon fill="#63b8ff" stroke="#63b8ff" points="374.17,-71.42 364.63,-76.02 374.96,-78.38 374.17,-71.42"/>
</a>
</g>
</g>
<!-- Node9 -->
<g id="Node000009" class="node">
<title>Node9</title>
<g id="a_Node000009"><a xlink:href="structDGtal_1_1concepts_1_1CUnsignedNumber.html" target="_top" xlink:title="Aim: Concept checking for Unsigned numbers. Models of this concept should be listed in NumberTraits c...">
<polygon fill="white" stroke="#666666" points="540.75,-30.5 398.75,-30.5 398.75,0 540.75,0 540.75,-30.5"/>
<text xml:space="preserve" text-anchor="start" x="406.75" y="-17" font-family="FreeSans" font-size="10.00">DGtal::concepts::CUnsigned</text>
<text xml:space="preserve" text-anchor="middle" x="469.75" y="-5.75" font-family="FreeSans" font-size="10.00">Number&lt; T &gt;</text>
</a>
</g>
</g>
<!-- Node2&#45;&gt;Node9 -->
<g id="edge9_Node000002_Node000009" class="edge">
<title>Node2&#45;&gt;Node9</title>
<g id="a_edge9_Node000002_Node000009"><a xlink:title=" ">
<path fill="none" stroke="#63b8ff" d="M318.77,-71.05C341.6,-62.06 371.84,-50.28 398.75,-40.25 406.97,-37.18 415.77,-33.98 424.25,-30.94"/>
<polygon fill="#63b8ff" stroke="#63b8ff" points="317.64,-67.73 309.62,-74.66 320.21,-74.24 317.64,-67.73"/>
</a>
</g>
</g>
<!-- Node5 -->
<g id="Node000005" class="node">
<title>Node5</title>
<g id="a_Node000005"><a xlink:href="structDGtal_1_1concepts_1_1CInteger.html" target="_top" xlink:title="Aim: Concept checking for Integer Numbers. More precisely, this concept is a refinement of both CEucl...">
<polygon fill="white" stroke="#666666" points="1106.25,-94.88 951.5,-94.88 951.5,-75.62 1106.25,-75.62 1106.25,-94.88"/>
<text xml:space="preserve" text-anchor="middle" x="1028.88" y="-81.38" font-family="FreeSans" font-size="10.00">DGtal::concepts::CInteger&lt; T &gt;</text>
</a>
</g>
</g>
<!-- Node4&#45;&gt;Node5 -->
<g id="edge4_Node000004_Node000005" class="edge">
<title>Node4&#45;&gt;Node5</title>
<g id="a_edge4_Node000004_Node000005"><a xlink:title=" ">
<path fill="none" stroke="#63b8ff" d="M734.34,-105.06C797.9,-100.77 887.66,-94.71 951.16,-90.43"/>
<polygon fill="#63b8ff" stroke="#63b8ff" points="734.44,-101.54 724.7,-105.71 734.91,-108.53 734.44,-101.54"/>
</a>
</g>
</g>
<!-- Node7 -->
<g id="Node000007" class="node">
<title>Node7</title>
<g id="a_Node000007"><a xlink:href="structDGtal_1_1concepts_1_1CCommutativeRing.html" target="_top" xlink:title="Aim: Defines the mathematical concept equivalent to a unitary commutative ring.">
<polygon fill="white" stroke="#666666" points="736,-76.5 576.75,-76.5 576.75,-46 736,-46 736,-76.5"/>
<text xml:space="preserve" text-anchor="start" x="584.75" y="-63" font-family="FreeSans" font-size="10.00">DGtal::concepts::CCommutative</text>
<text xml:space="preserve" text-anchor="middle" x="656.38" y="-51.75" font-family="FreeSans" font-size="10.00">Ring&lt; T &gt;</text>
</a>
</g>
</g>
<!-- Node6&#45;&gt;Node7 -->
<g id="edge6_Node000006_Node000007" class="edge">
<title>Node6&#45;&gt;Node7</title>
<g id="a_edge6_Node000006_Node000007"><a xlink:title=" ">
<path fill="none" stroke="#63b8ff" d="M546.88,-63.01C556.63,-62.85 566.63,-62.69 576.42,-62.53"/>
<polygon fill="#63b8ff" stroke="#63b8ff" points="547.04,-59.51 537.1,-63.17 547.15,-66.51 547.04,-59.51"/>
</a>
</g>
</g>
<!-- Node8 -->
<g id="Node000008" class="node">
<title>Node8</title>
<g id="a_Node000008"><a xlink:href="structDGtal_1_1concepts_1_1CEuclideanRing.html" target="_top" xlink:title="Aim: Defines the mathematical concept equivalent to a unitary commutative ring with a division operat...">
<polygon fill="white" stroke="#666666" points="915.5,-79.5 772,-79.5 772,-49 915.5,-49 915.5,-79.5"/>
<text xml:space="preserve" text-anchor="start" x="780" y="-66" font-family="FreeSans" font-size="10.00">DGtal::concepts::CEuclidean</text>
<text xml:space="preserve" text-anchor="middle" x="843.75" y="-54.75" font-family="FreeSans" font-size="10.00">Ring&lt; T &gt;</text>
</a>
</g>
</g>
<!-- Node7&#45;&gt;Node8 -->
<g id="edge7_Node000007_Node000008" class="edge">
<title>Node7&#45;&gt;Node8</title>
<g id="a_edge7_Node000007_Node000008"><a xlink:title=" ">
<path fill="none" stroke="#63b8ff" d="M747.6,-62.71C755.64,-62.84 763.72,-62.97 771.57,-63.1"/>
<polygon fill="#63b8ff" stroke="#63b8ff" points="747.83,-59.21 737.77,-62.55 747.71,-66.21 747.83,-59.21"/>
</a>
</g>
</g>
<!-- Node8&#45;&gt;Node5 -->
<g id="edge8_Node000008_Node000005" class="edge">
<title>Node8&#45;&gt;Node5</title>
<g id="a_edge8_Node000008_Node000005"><a xlink:title=" ">
<path fill="none" stroke="#63b8ff" d="M927.04,-73.69C935.04,-74.6 943.14,-75.53 951.09,-76.44"/>
<polygon fill="#63b8ff" stroke="#63b8ff" points="927.65,-70.23 917.32,-72.57 926.85,-77.19 927.65,-70.23"/>
</a>
</g>
</g>
</g>
</svg>
