<?xml version="1.0" encoding="UTF-8" standalone="no"?>
<!DOCTYPE svg PUBLIC "-//W3C//DTD SVG 1.1//EN"
 "http://www.w3.org/Graphics/SVG/1.1/DTD/svg11.dtd">
<!-- Generated by graphviz version 14.1.0 (20251206.1807)
 -->
<!-- Title: DGtal::detail::PosDepScaleIndepSCEstimator&lt; TSegmentComputer, Functor, ReturnType &gt; Pages: 1 -->
<svg width="750pt" height="113pt"
 viewBox="0.00 0.00 750.00 113.00" xmlns="http://www.w3.org/2000/svg" xmlns:xlink="http://www.w3.org/1999/xlink">
<g id="graph0" class="graph" transform="scale(1 1) rotate(0) translate(4 108.51)">
<title>DGtal::detail::PosDepScaleIndepSCEstimator&lt; TSegmentComputer, Functor, ReturnType &gt;</title>
<!-- Node1 -->
<g id="Node000001" class="node">
<title>Node1</title>
<g id="a_Node000001"><a xlink:title=" ">
<polygon fill="#999999" stroke="#666666" points="195.25,-71.75 0,-71.75 0,-30 195.25,-30 195.25,-71.75"/>
<text xml:space="preserve" text-anchor="start" x="8" y="-58.25" font-family="FreeSans" font-size="10.00">DGtal::detail::PosDepScale</text>
<text xml:space="preserve" text-anchor="start" x="8" y="-47" font-family="FreeSans" font-size="10.00">IndepSCEstimator&lt; TSegmentComputer,</text>
<text xml:space="preserve" text-anchor="middle" x="97.62" y="-35.75" font-family="FreeSans" font-size="10.00"> Functor, ReturnType &gt;</text>
</a>
</g>
</g>
<!-- Node2 -->
<g id="Node000002" class="node">
<title>Node2</title>
<g id="a_Node000002"><a xlink:href="classDGtal_1_1detail_1_1PosDepScaleIndepSCEstimator.html" target="_top" xlink:title=" ">
<polygon fill="white" stroke="#666666" points="536.75,-101.75 364.75,-101.75 364.75,-60 536.75,-60 536.75,-101.75"/>
<text xml:space="preserve" text-anchor="start" x="372.75" y="-88.25" font-family="FreeSans" font-size="10.00">DGtal::detail::PosDepScale</text>
<text xml:space="preserve" text-anchor="start" x="372.75" y="-77" font-family="FreeSans" font-size="10.00">IndepSCEstimator&lt; DCAComputer,</text>
<text xml:space="preserve" text-anchor="middle" x="450.75" y="-65.75" font-family="FreeSans" font-size="10.00"> detail::NormalVectorFromDCA &gt;</text>
</a>
</g>
</g>
<!-- Node1&#45;&gt;Node2 -->
<g id="edge1_Node000001_Node000002" class="edge">
<title>Node1&#45;&gt;Node2</title>
<g id="a_edge1_Node000001_Node000002"><a xlink:title=" ">
<path fill="none" stroke="orange" stroke-dasharray="5,2" d="M206.82,-60.12C257.44,-64.44 316.85,-69.52 364.25,-73.57"/>
<polygon fill="orange" stroke="orange" points="207.27,-56.64 197.01,-59.28 206.67,-63.62 207.27,-56.64"/>
</a>
</g>
<text xml:space="preserve" text-anchor="start" x="217.75" y="-92.01" font-family="FreeSans" font-size="10.00" fill="grey">&lt; DCAComputer, detail</text>
<text xml:space="preserve" text-anchor="start" x="217.75" y="-76.76" font-family="FreeSans" font-size="10.00" fill="grey">  ::NormalVectorFromDCA &gt;</text>
</g>
<!-- Node4 -->
<g id="Node000004" class="node">
<title>Node4</title>
<g id="a_Node000004"><a xlink:href="classDGtal_1_1detail_1_1PosDepScaleIndepSCEstimator.html" target="_top" xlink:title=" ">
<polygon fill="white" stroke="#666666" points="536.75,-41.75 364.75,-41.75 364.75,0 536.75,0 536.75,-41.75"/>
<text xml:space="preserve" text-anchor="start" x="372.75" y="-28.25" font-family="FreeSans" font-size="10.00">DGtal::detail::PosDepScale</text>
<text xml:space="preserve" text-anchor="start" x="372.75" y="-17" font-family="FreeSans" font-size="10.00">IndepSCEstimator&lt; DCAComputer,</text>
<text xml:space="preserve" text-anchor="middle" x="450.75" y="-5.75" font-family="FreeSans" font-size="10.00"> detail::TangentVectorFromDCA &gt;</text>
</a>
</g>
</g>
<!-- Node1&#45;&gt;Node4 -->
<g id="edge3_Node000001_Node000004" class="edge">
<title>Node1&#45;&gt;Node4</title>
<g id="a_edge3_Node000001_Node000004"><a xlink:title=" ">
<path fill="none" stroke="orange" stroke-dasharray="5,2" d="M197.31,-27.62C202.68,-26.76 208.02,-26 213.25,-25.38 263.1,-19.42 319.27,-18.12 364.36,-18.4"/>
<polygon fill="orange" stroke="orange" points="197,-24.12 187.74,-29.25 198.18,-31.02 197,-24.12"/>
</a>
</g>
<text xml:space="preserve" text-anchor="start" x="216.25" y="-45.38" font-family="FreeSans" font-size="10.00" fill="grey">&lt; DCAComputer, detail</text>
<text xml:space="preserve" text-anchor="start" x="216.25" y="-30.12" font-family="FreeSans" font-size="10.00" fill="grey">  ::TangentVectorFromDCA &gt;</text>
</g>
<!-- Node3 -->
<g id="Node000003" class="node">
<title>Node3</title>
<g id="a_Node000003"><a xlink:href="classDGtal_1_1NormalFromDCAEstimator.html" target="_top" xlink:title=" ">
<polygon fill="white" stroke="#666666" points="740.5,-96.12 575.25,-96.12 575.25,-65.62 740.5,-65.62 740.5,-96.12"/>
<text xml:space="preserve" text-anchor="start" x="583.25" y="-82.62" font-family="FreeSans" font-size="10.00">DGtal::NormalFromDCAEstimator</text>
<text xml:space="preserve" text-anchor="middle" x="657.88" y="-71.38" font-family="FreeSans" font-size="10.00">&lt; DCAComputer &gt;</text>
</a>
</g>
</g>
<!-- Node2&#45;&gt;Node3 -->
<g id="edge2_Node000002_Node000003" class="edge">
<title>Node2&#45;&gt;Node3</title>
<g id="a_edge2_Node000002_Node000003"><a xlink:title=" ">
<path fill="none" stroke="#63b8ff" d="M548.21,-80.88C557.13,-80.88 566.12,-80.88 574.89,-80.88"/>
<polygon fill="#63b8ff" stroke="#63b8ff" points="548.47,-77.38 538.47,-80.88 548.47,-84.38 548.47,-77.38"/>
</a>
</g>
</g>
<!-- Node5 -->
<g id="Node000005" class="node">
<title>Node5</title>
<g id="a_Node000005"><a xlink:href="classDGtal_1_1TangentFromDCAEstimator.html" target="_top" xlink:title=" ">
<polygon fill="white" stroke="#666666" points="742,-36.12 573.75,-36.12 573.75,-5.62 742,-5.62 742,-36.12"/>
<text xml:space="preserve" text-anchor="start" x="581.75" y="-22.62" font-family="FreeSans" font-size="10.00">DGtal::TangentFromDCAEstimator</text>
<text xml:space="preserve" text-anchor="middle" x="657.88" y="-11.38" font-family="FreeSans" font-size="10.00">&lt; DCAComputer &gt;</text>
</a>
</g>
</g>
<!-- Node4&#45;&gt;Node5 -->
<g id="edge4_Node000004_Node000005" class="edge">
<title>Node4&#45;&gt;Node5</title>
<g id="a_edge4_Node000004_Node000005"><a xlink:title=" ">
<path fill="none" stroke="#63b8ff" d="M548.39,-20.88C556.81,-20.88 565.28,-20.88 573.58,-20.88"/>
<polygon fill="#63b8ff" stroke="#63b8ff" points="548.47,-17.38 538.47,-20.88 548.47,-24.38 548.47,-17.38"/>
</a>
</g>
</g>
</g>
</svg>
