<?xml version="1.0" encoding="UTF-8" standalone="no"?>
<!DOCTYPE svg PUBLIC "-//W3C//DTD SVG 1.1//EN"
 "http://www.w3.org/Graphics/SVG/1.1/DTD/svg11.dtd">
<!-- Generated by graphviz version 14.1.0 (20251206.1807)
 -->
<!-- Title: DGtal::PointVector&lt; dim, TEuclideanRing, TContainer &gt; Pages: 1 -->
<svg width="458pt" height="1427pt"
 viewBox="0.00 0.00 458.00 1427.00" xmlns="http://www.w3.org/2000/svg" xmlns:xlink="http://www.w3.org/1999/xlink">
<g id="graph0" class="graph" transform="scale(1 1) rotate(0) translate(4 1422.86)">
<title>DGtal::PointVector&lt; dim, TEuclideanRing, TContainer &gt;</title>
<!-- Node1 -->
<g id="Node000001" class="node">
<title>Node1</title>
<g id="a_Node000001"><a xlink:title="Aim: Implements basic operations that will be used in Point and Vector classes.">
<polygon fill="#999999" stroke="#666666" points="118.75,-722.71 0,-722.71 0,-680.96 118.75,-680.96 118.75,-722.71"/>
<text xml:space="preserve" text-anchor="start" x="8" y="-709.21" font-family="FreeSans" font-size="10.00">DGtal::PointVector</text>
<text xml:space="preserve" text-anchor="start" x="8" y="-697.96" font-family="FreeSans" font-size="10.00">&lt; dim, TEuclideanRing,</text>
<text xml:space="preserve" text-anchor="middle" x="59.38" y="-686.71" font-family="FreeSans" font-size="10.00"> TContainer &gt;</text>
</a>
</g>
</g>
<!-- Node2 -->
<g id="Node000002" class="node">
<title>Node2</title>
<g id="a_Node000002"><a xlink:href="classDGtal_1_1PointVector.html" target="_top" xlink:title=" ">
<polygon fill="white" stroke="#666666" points="449.75,-1389.71 297.25,-1389.71 297.25,-1347.96 449.75,-1347.96 449.75,-1389.71"/>
<text xml:space="preserve" text-anchor="start" x="305.25" y="-1376.21" font-family="FreeSans" font-size="10.00">DGtal::PointVector</text>
<text xml:space="preserve" text-anchor="start" x="305.25" y="-1364.96" font-family="FreeSans" font-size="10.00">&lt; Calculus::dimensionAmbient,</text>
<text xml:space="preserve" text-anchor="middle" x="373.5" y="-1353.71" font-family="FreeSans" font-size="10.00"> Scalar &gt;</text>
</a>
</g>
</g>
<!-- Node1&#45;&gt;Node2 -->
<g id="edge1_Node000001_Node000002" class="edge">
<title>Node1&#45;&gt;Node2</title>
<g id="a_edge1_Node000001_Node000002"><a xlink:title=" ">
<path fill="none" stroke="orange" stroke-dasharray="5,2" d="M61.87,-734.48C67.93,-859.58 92.42,-1303.59 136.75,-1346.83 178.02,-1387.09 244.83,-1389.84 296.81,-1384.1"/>
<polygon fill="orange" stroke="orange" points="65.37,-734.4 61.4,-724.58 58.38,-734.73 65.37,-734.4"/>
</a>
</g>
<text xml:space="preserve" text-anchor="start" x="139.75" y="-1406.36" font-family="FreeSans" font-size="10.00" fill="grey">&lt; Calculus::dimensionAmbient,</text>
<text xml:space="preserve" text-anchor="start" x="139.75" y="-1391.11" font-family="FreeSans" font-size="10.00" fill="grey">   Scalar &gt;</text>
</g>
<!-- Node3 -->
<g id="Node000003" class="node">
<title>Node3</title>
<g id="a_Node000003"><a xlink:href="classDGtal_1_1PointVector.html" target="_top" xlink:title=" ">
<polygon fill="white" stroke="#666666" points="422.75,-1330.08 324.25,-1330.08 324.25,-1299.58 422.75,-1299.58 422.75,-1330.08"/>
<text xml:space="preserve" text-anchor="start" x="332.25" y="-1316.58" font-family="FreeSans" font-size="10.00">DGtal::PointVector</text>
<text xml:space="preserve" text-anchor="middle" x="373.5" y="-1305.33" font-family="FreeSans" font-size="10.00">&lt; 2, double &gt;</text>
</a>
</g>
</g>
<!-- Node1&#45;&gt;Node3 -->
<g id="edge2_Node000001_Node000003" class="edge">
<title>Node1&#45;&gt;Node3</title>
<g id="a_edge2_Node000001_Node000003"><a xlink:title=" ">
<path fill="none" stroke="orange" stroke-dasharray="5,2" d="M62.32,-734.42C69.63,-851.72 97.09,-1247.63 136.75,-1286.83 185.56,-1335.08 270.6,-1332.41 324.1,-1324.65"/>
<polygon fill="orange" stroke="orange" points="65.82,-734.31 61.71,-724.55 58.83,-734.74 65.82,-734.31"/>
</a>
</g>
<text xml:space="preserve" text-anchor="start" x="179.12" y="-1333.78" font-family="FreeSans" font-size="10.00" fill="grey">&lt; 2, double &gt;</text>
</g>
<!-- Node4 -->
<g id="Node000004" class="node">
<title>Node4</title>
<g id="a_Node000004"><a xlink:href="classDGtal_1_1PointVector.html" target="_top" xlink:title=" ">
<polygon fill="white" stroke="#666666" points="422.75,-1281.08 324.25,-1281.08 324.25,-1250.58 422.75,-1250.58 422.75,-1281.08"/>
<text xml:space="preserve" text-anchor="start" x="332.25" y="-1267.58" font-family="FreeSans" font-size="10.00">DGtal::PointVector</text>
<text xml:space="preserve" text-anchor="middle" x="373.5" y="-1256.33" font-family="FreeSans" font-size="10.00">&lt; 2, Integer &gt;</text>
</a>
</g>
</g>
<!-- Node1&#45;&gt;Node4 -->
<g id="edge3_Node000001_Node000004" class="edge">
<title>Node1&#45;&gt;Node4</title>
<g id="a_edge3_Node000001_Node000004"><a xlink:title=" ">
<path fill="none" stroke="orange" stroke-dasharray="5,2" d="M60.06,-734.31C59.76,-839.4 64.72,-1167.46 136.75,-1237.83 162.47,-1262.96 262.67,-1266.84 323.85,-1266.77"/>
<polygon fill="orange" stroke="orange" points="63.56,-734.44 60.11,-724.42 56.56,-734.4 63.56,-734.44"/>
</a>
</g>
<text xml:space="preserve" text-anchor="start" x="178.38" y="-1270.67" font-family="FreeSans" font-size="10.00" fill="grey">&lt; 2, Integer &gt;</text>
</g>
<!-- Node5 -->
<g id="Node000005" class="node">
<title>Node5</title>
<g id="a_Node000005"><a xlink:href="classDGtal_1_1PointVector.html" target="_top" xlink:title=" ">
<polygon fill="white" stroke="#666666" points="422.75,-1232.08 324.25,-1232.08 324.25,-1201.58 422.75,-1201.58 422.75,-1232.08"/>
<text xml:space="preserve" text-anchor="start" x="332.25" y="-1218.58" font-family="FreeSans" font-size="10.00">DGtal::PointVector</text>
<text xml:space="preserve" text-anchor="middle" x="373.5" y="-1207.33" font-family="FreeSans" font-size="10.00">&lt; 2, Coordinate &gt;</text>
</a>
</g>
</g>
<!-- Node1&#45;&gt;Node5 -->
<g id="edge4_Node000001_Node000005" class="edge">
<title>Node1&#45;&gt;Node5</title>
<g id="a_edge4_Node000001_Node000005"><a xlink:title=" ">
<path fill="none" stroke="orange" stroke-dasharray="5,2" d="M60.58,-734.26C61.9,-832.8 71.37,-1125.85 136.75,-1188.83 162.65,-1213.78 262.78,-1217.73 323.91,-1217.71"/>
<polygon fill="orange" stroke="orange" points="64.08,-734.45 60.47,-724.49 57.08,-734.52 64.08,-734.45"/>
</a>
</g>
<text xml:space="preserve" text-anchor="start" x="169.75" y="-1221.58" font-family="FreeSans" font-size="10.00" fill="grey">&lt; 2, Coordinate &gt;</text>
</g>
<!-- Node6 -->
<g id="Node000006" class="node">
<title>Node6</title>
<g id="a_Node000006"><a xlink:href="classDGtal_1_1PointVector.html" target="_top" xlink:title=" ">
<polygon fill="white" stroke="#666666" points="422.75,-1183.08 324.25,-1183.08 324.25,-1152.58 422.75,-1152.58 422.75,-1183.08"/>
<text xml:space="preserve" text-anchor="start" x="332.25" y="-1169.58" font-family="FreeSans" font-size="10.00">DGtal::PointVector</text>
<text xml:space="preserve" text-anchor="middle" x="373.5" y="-1158.33" font-family="FreeSans" font-size="10.00">&lt; 2, Number &gt;</text>
</a>
</g>
</g>
<!-- Node1&#45;&gt;Node6 -->
<g id="edge5_Node000001_Node000006" class="edge">
<title>Node1&#45;&gt;Node6</title>
<g id="a_edge5_Node000001_Node000006"><a xlink:title=" ">
<path fill="none" stroke="orange" stroke-dasharray="5,2" d="M61.2,-734.31C64.26,-826.08 78.02,-1084.21 136.75,-1139.83 162.86,-1164.56 262.91,-1168.59 323.97,-1168.64"/>
<polygon fill="orange" stroke="orange" points="64.71,-734.39 60.9,-724.51 57.71,-734.61 64.71,-734.39"/>
</a>
</g>
<text xml:space="preserve" text-anchor="start" x="176.12" y="-1172.46" font-family="FreeSans" font-size="10.00" fill="grey">&lt; 2, Number &gt;</text>
</g>
<!-- Node7 -->
<g id="Node000007" class="node">
<title>Node7</title>
<g id="a_Node000007"><a xlink:href="classDGtal_1_1PointVector.html" target="_top" xlink:title=" ">
<polygon fill="white" stroke="#666666" points="422.75,-1134.08 324.25,-1134.08 324.25,-1103.58 422.75,-1103.58 422.75,-1134.08"/>
<text xml:space="preserve" text-anchor="start" x="332.25" y="-1120.58" font-family="FreeSans" font-size="10.00">DGtal::PointVector</text>
<text xml:space="preserve" text-anchor="middle" x="373.5" y="-1109.33" font-family="FreeSans" font-size="10.00">&lt; 3, double &gt;</text>
</a>
</g>
</g>
<!-- Node1&#45;&gt;Node7 -->
<g id="edge6_Node000001_Node000007" class="edge">
<title>Node1&#45;&gt;Node7</title>
<g id="a_edge6_Node000001_Node000007"><a xlink:title=" ">
<path fill="none" stroke="orange" stroke-dasharray="5,2" d="M62,-734.6C66.93,-819.36 84.68,-1042.56 136.75,-1090.83 163.08,-1115.25 262.79,-1119.4 323.79,-1119.56"/>
<polygon fill="orange" stroke="orange" points="65.5,-734.44 61.45,-724.65 58.51,-734.83 65.5,-734.44"/>
</a>
</g>
<text xml:space="preserve" text-anchor="start" x="179.12" y="-1123.31" font-family="FreeSans" font-size="10.00" fill="grey">&lt; 3, double &gt;</text>
</g>
<!-- Node8 -->
<g id="Node000008" class="node">
<title>Node8</title>
<g id="a_Node000008"><a xlink:href="classDGtal_1_1PointVector.html" target="_top" xlink:title=" ">
<polygon fill="white" stroke="#666666" points="422.75,-1085.08 324.25,-1085.08 324.25,-1054.58 422.75,-1054.58 422.75,-1085.08"/>
<text xml:space="preserve" text-anchor="start" x="332.25" y="-1071.58" font-family="FreeSans" font-size="10.00">DGtal::PointVector</text>
<text xml:space="preserve" text-anchor="middle" x="373.5" y="-1060.33" font-family="FreeSans" font-size="10.00">&lt; 3, int &gt;</text>
</a>
</g>
</g>
<!-- Node1&#45;&gt;Node8 -->
<g id="edge7_Node000001_Node000008" class="edge">
<title>Node1&#45;&gt;Node8</title>
<g id="a_edge7_Node000001_Node000008"><a xlink:title=" ">
<path fill="none" stroke="orange" stroke-dasharray="5,2" d="M62.96,-734.08C69.82,-810.76 91.13,-1000.67 136.75,-1041.83 163.41,-1065.89 263,-1070.17 323.89,-1070.45"/>
<polygon fill="orange" stroke="orange" points="66.47,-733.95 62.12,-724.29 59.49,-734.55 66.47,-733.95"/>
</a>
</g>
<text xml:space="preserve" text-anchor="start" x="188.12" y="-1074.12" font-family="FreeSans" font-size="10.00" fill="grey">&lt; 3, int &gt;</text>
</g>
<!-- Node9 -->
<g id="Node000009" class="node">
<title>Node9</title>
<g id="a_Node000009"><a xlink:href="classDGtal_1_1PointVector.html" target="_top" xlink:title=" ">
<polygon fill="white" stroke="#666666" points="422.75,-1036.08 324.25,-1036.08 324.25,-1005.58 422.75,-1005.58 422.75,-1036.08"/>
<text xml:space="preserve" text-anchor="start" x="332.25" y="-1022.58" font-family="FreeSans" font-size="10.00">DGtal::PointVector</text>
<text xml:space="preserve" text-anchor="middle" x="373.5" y="-1011.33" font-family="FreeSans" font-size="10.00">&lt; 2, int &gt;</text>
</a>
</g>
</g>
<!-- Node1&#45;&gt;Node9 -->
<g id="edge8_Node000001_Node000009" class="edge">
<title>Node1&#45;&gt;Node9</title>
<g id="a_edge8_Node000001_Node000009"><a xlink:title=" ">
<path fill="none" stroke="orange" stroke-dasharray="5,2" d="M64.34,-734.54C73.36,-803.21 97.72,-958.87 136.75,-992.83 163.8,-1016.37 262.99,-1020.85 323.76,-1021.3"/>
<polygon fill="orange" stroke="orange" points="67.82,-734.13 63.07,-724.66 60.87,-735.02 67.82,-734.13"/>
</a>
</g>
<text xml:space="preserve" text-anchor="start" x="188.12" y="-1024.87" font-family="FreeSans" font-size="10.00" fill="grey">&lt; 2, int &gt;</text>
</g>
<!-- Node10 -->
<g id="Node000010" class="node">
<title>Node10</title>
<g id="a_Node000010"><a xlink:href="classDGtal_1_1PointVector.html" target="_top" xlink:title=" ">
<polygon fill="white" stroke="#666666" points="422.75,-987.08 324.25,-987.08 324.25,-956.58 422.75,-956.58 422.75,-987.08"/>
<text xml:space="preserve" text-anchor="start" x="332.25" y="-973.58" font-family="FreeSans" font-size="10.00">DGtal::PointVector</text>
<text xml:space="preserve" text-anchor="middle" x="373.5" y="-962.33" font-family="FreeSans" font-size="10.00">&lt; 2, TInteger &gt;</text>
</a>
</g>
</g>
<!-- Node1&#45;&gt;Node10 -->
<g id="edge9_Node000001_Node000010" class="edge">
<title>Node1&#45;&gt;Node10</title>
<g id="a_edge9_Node000001_Node000010"><a xlink:title=" ">
<path fill="none" stroke="orange" stroke-dasharray="5,2" d="M60.16,-734.65C61.74,-787.9 73.32,-892.46 136.75,-944.83 164.39,-967.65 263.37,-971.92 323.94,-972.32"/>
<polygon fill="orange" stroke="orange" points="63.66,-734.63 59.97,-724.7 56.66,-734.76 63.66,-734.63"/>
</a>
</g>
<text xml:space="preserve" text-anchor="start" x="175.38" y="-975.96" font-family="FreeSans" font-size="10.00" fill="grey">&lt; 2, TInteger &gt;</text>
</g>
<!-- Node11 -->
<g id="Node000011" class="node">
<title>Node11</title>
<g id="a_Node000011"><a xlink:href="classDGtal_1_1PointVector.html" target="_top" xlink:title=" ">
<polygon fill="white" stroke="#666666" points="426.12,-938.08 320.88,-938.08 320.88,-907.58 426.12,-907.58 426.12,-938.08"/>
<text xml:space="preserve" text-anchor="start" x="328.88" y="-924.58" font-family="FreeSans" font-size="10.00">DGtal::PointVector</text>
<text xml:space="preserve" text-anchor="middle" x="373.5" y="-913.33" font-family="FreeSans" font-size="10.00">&lt; 3, InternalScalar &gt;</text>
</a>
</g>
</g>
<!-- Node1&#45;&gt;Node11 -->
<g id="edge10_Node000001_Node000011" class="edge">
<title>Node1&#45;&gt;Node11</title>
<g id="a_edge10_Node000001_Node000011"><a xlink:title=" ">
<path fill="none" stroke="orange" stroke-dasharray="5,2" d="M62.62,-734.15C67.66,-779.46 83.96,-860.81 136.75,-900.83 164.68,-922 259.98,-924.73 320.52,-924.19"/>
<polygon fill="orange" stroke="orange" points="66.13,-734.04 61.67,-724.42 59.16,-734.72 66.13,-734.04"/>
</a>
</g>
<text xml:space="preserve" text-anchor="start" x="163.38" y="-928.67" font-family="FreeSans" font-size="10.00" fill="grey">&lt; 3, InternalScalar &gt;</text>
</g>
<!-- Node12 -->
<g id="Node000012" class="node">
<title>Node12</title>
<g id="a_Node000012"><a xlink:href="classDGtal_1_1PointVector.html" target="_top" xlink:title=" ">
<polygon fill="white" stroke="#666666" points="427.25,-889.08 319.75,-889.08 319.75,-858.58 427.25,-858.58 427.25,-889.08"/>
<text xml:space="preserve" text-anchor="start" x="327.75" y="-875.58" font-family="FreeSans" font-size="10.00">DGtal::PointVector</text>
<text xml:space="preserve" text-anchor="middle" x="373.5" y="-864.33" font-family="FreeSans" font-size="10.00">&lt; 3, InternalInteger &gt;</text>
</a>
</g>
</g>
<!-- Node1&#45;&gt;Node12 -->
<g id="edge11_Node000001_Node000012" class="edge">
<title>Node1&#45;&gt;Node12</title>
<g id="a_edge11_Node000001_Node000012"><a xlink:title=" ">
<path fill="none" stroke="orange" stroke-dasharray="5,2" d="M67.8,-733.81C77.51,-767.84 98.04,-820.35 136.75,-846.83 190.64,-883.7 268.17,-885.27 319.41,-881.11"/>
<polygon fill="orange" stroke="orange" points="71.28,-733.25 65.31,-724.5 64.52,-735.07 71.28,-733.25"/>
</a>
</g>
<text xml:space="preserve" text-anchor="start" x="162.25" y="-887.43" font-family="FreeSans" font-size="10.00" fill="grey">&lt; 3, InternalInteger &gt;</text>
</g>
<!-- Node13 -->
<g id="Node000013" class="node">
<title>Node13</title>
<g id="a_Node000013"><a xlink:href="classDGtal_1_1PointVector.html" target="_top" xlink:title=" ">
<polygon fill="white" stroke="#666666" points="434,-840.08 313,-840.08 313,-809.58 434,-809.58 434,-840.08"/>
<text xml:space="preserve" text-anchor="start" x="321" y="-826.58" font-family="FreeSans" font-size="10.00">DGtal::PointVector</text>
<text xml:space="preserve" text-anchor="middle" x="373.5" y="-815.33" font-family="FreeSans" font-size="10.00">&lt; dimension, Quantity &gt;</text>
</a>
</g>
</g>
<!-- Node1&#45;&gt;Node13 -->
<g id="edge12_Node000001_Node000013" class="edge">
<title>Node1&#45;&gt;Node13</title>
<g id="a_edge12_Node000001_Node000013"><a xlink:title=" ">
<path fill="none" stroke="orange" stroke-dasharray="5,2" d="M78.92,-732.23C92.46,-751.67 112.62,-775.62 136.75,-788.83 191.22,-818.66 262.8,-825.89 312.73,-826.77"/>
<polygon fill="orange" stroke="orange" points="81.95,-730.47 73.48,-724.1 76.13,-734.36 81.95,-730.47"/>
</a>
</g>
<text xml:space="preserve" text-anchor="start" x="155.5" y="-829.91" font-family="FreeSans" font-size="10.00" fill="grey">&lt; dimension, Quantity &gt;</text>
</g>
<!-- Node14 -->
<g id="Node000014" class="node">
<title>Node14</title>
<g id="a_Node000014"><a xlink:href="classDGtal_1_1PointVector.html" target="_top" xlink:title=" ">
<polygon fill="white" stroke="#666666" points="422.75,-791.08 324.25,-791.08 324.25,-760.58 422.75,-760.58 422.75,-791.08"/>
<text xml:space="preserve" text-anchor="start" x="332.25" y="-777.58" font-family="FreeSans" font-size="10.00">DGtal::PointVector</text>
<text xml:space="preserve" text-anchor="middle" x="373.5" y="-766.33" font-family="FreeSans" font-size="10.00">&lt; 2, Quantity &gt;</text>
</a>
</g>
</g>
<!-- Node1&#45;&gt;Node14 -->
<g id="edge13_Node000001_Node000014" class="edge">
<title>Node1&#45;&gt;Node14</title>
<g id="a_edge13_Node000001_Node000014"><a xlink:title=" ">
<path fill="none" stroke="orange" stroke-dasharray="5,2" d="M107.79,-728.24C117.17,-732.65 127.11,-736.78 136.75,-739.83 199.71,-759.76 275.73,-768.83 324.1,-772.84"/>
<polygon fill="orange" stroke="orange" points="109.35,-725.11 98.83,-723.84 106.27,-731.39 109.35,-725.11"/>
</a>
</g>
<text xml:space="preserve" text-anchor="start" x="175" y="-772.6" font-family="FreeSans" font-size="10.00" fill="grey">&lt; 2, Quantity &gt;</text>
</g>
<!-- Node15 -->
<g id="Node000015" class="node">
<title>Node15</title>
<g id="a_Node000015"><a xlink:href="classDGtal_1_1PointVector.html" target="_top" xlink:title=" ">
<polygon fill="white" stroke="#666666" points="422.75,-742.08 324.25,-742.08 324.25,-711.58 422.75,-711.58 422.75,-742.08"/>
<text xml:space="preserve" text-anchor="start" x="332.25" y="-728.58" font-family="FreeSans" font-size="10.00">DGtal::PointVector</text>
<text xml:space="preserve" text-anchor="middle" x="373.5" y="-717.33" font-family="FreeSans" font-size="10.00">&lt; 3, Quantity &gt;</text>
</a>
</g>
</g>
<!-- Node1&#45;&gt;Node15 -->
<g id="edge14_Node000001_Node000015" class="edge">
<title>Node1&#45;&gt;Node15</title>
<g id="a_edge14_Node000001_Node000015"><a xlink:title=" ">
<path fill="none" stroke="orange" stroke-dasharray="5,2" d="M130.52,-707.45C189.38,-712.17 271.93,-718.78 323.79,-722.93"/>
<polygon fill="orange" stroke="orange" points="130.84,-703.96 120.59,-706.66 130.28,-710.94 130.84,-703.96"/>
</a>
</g>
<text xml:space="preserve" text-anchor="start" x="175" y="-723.5" font-family="FreeSans" font-size="10.00" fill="grey">&lt; 3, Quantity &gt;</text>
</g>
<!-- Node16 -->
<g id="Node000016" class="node">
<title>Node16</title>
<g id="a_Node000016"><a xlink:href="classDGtal_1_1PointVector.html" target="_top" xlink:title=" ">
<polygon fill="white" stroke="#666666" points="442.62,-693.08 304.38,-693.08 304.38,-662.58 442.62,-662.58 442.62,-693.08"/>
<text xml:space="preserve" text-anchor="start" x="312.38" y="-679.58" font-family="FreeSans" font-size="10.00">DGtal::PointVector</text>
<text xml:space="preserve" text-anchor="middle" x="373.5" y="-668.33" font-family="FreeSans" font-size="10.00">&lt; dim, double, TContainer &gt;</text>
</a>
</g>
</g>
<!-- Node1&#45;&gt;Node16 -->
<g id="edge15_Node000001_Node000016" class="edge">
<title>Node1&#45;&gt;Node16</title>
<g id="a_edge15_Node000001_Node000016"><a xlink:title=" ">
<path fill="none" stroke="orange" stroke-dasharray="5,2" d="M130.19,-688.39C132.4,-688.1 134.59,-687.83 136.75,-687.58 192.82,-681.22 256.81,-678.89 303.96,-678.08"/>
<polygon fill="orange" stroke="orange" points="129.93,-684.89 120.54,-689.79 130.94,-691.82 129.93,-684.89"/>
</a>
</g>
<text xml:space="preserve" text-anchor="start" x="146.88" y="-692.33" font-family="FreeSans" font-size="10.00" fill="grey">&lt; dim, double, TContainer &gt;</text>
</g>
<!-- Node17 -->
<g id="Node000017" class="node">
<title>Node17</title>
<g id="a_Node000017"><a xlink:href="classDGtal_1_1PointVector.html" target="_top" xlink:title=" ">
<polygon fill="white" stroke="#666666" points="437.75,-644.08 309.25,-644.08 309.25,-613.58 437.75,-613.58 437.75,-644.08"/>
<text xml:space="preserve" text-anchor="start" x="317.25" y="-630.58" font-family="FreeSans" font-size="10.00">DGtal::PointVector</text>
<text xml:space="preserve" text-anchor="middle" x="373.5" y="-619.33" font-family="FreeSans" font-size="10.00">&lt; dim, float, TContainer &gt;</text>
</a>
</g>
</g>
<!-- Node1&#45;&gt;Node17 -->
<g id="edge16_Node000001_Node000017" class="edge">
<title>Node1&#45;&gt;Node17</title>
<g id="a_edge16_Node000001_Node000017"><a xlink:title=" ">
<path fill="none" stroke="orange" stroke-dasharray="5,2" d="M100.21,-674.71C111.58,-668.11 124.28,-661.76 136.75,-657.58 193.05,-638.72 260.6,-631.98 308.94,-629.7"/>
<polygon fill="orange" stroke="orange" points="98.64,-671.57 91.9,-679.74 102.26,-677.56 98.64,-671.57"/>
</a>
</g>
<text xml:space="preserve" text-anchor="start" x="151.75" y="-662.33" font-family="FreeSans" font-size="10.00" fill="grey">&lt; dim, float, TContainer &gt;</text>
</g>
<!-- Node18 -->
<g id="Node000018" class="node">
<title>Node18</title>
<g id="a_Node000018"><a xlink:href="classDGtal_1_1PointVector.html" target="_top" xlink:title=" ">
<polygon fill="white" stroke="#666666" points="440,-595.08 307,-595.08 307,-564.58 440,-564.58 440,-595.08"/>
<text xml:space="preserve" text-anchor="start" x="315" y="-581.58" font-family="FreeSans" font-size="10.00">DGtal::PointVector</text>
<text xml:space="preserve" text-anchor="middle" x="373.5" y="-570.33" font-family="FreeSans" font-size="10.00">&lt; dim, CoordinateInteger &gt;</text>
</a>
</g>
</g>
<!-- Node1&#45;&gt;Node18 -->
<g id="edge17_Node000001_Node000018" class="edge">
<title>Node1&#45;&gt;Node18</title>
<g id="a_edge17_Node000001_Node000018"><a xlink:title=" ">
<path fill="none" stroke="orange" stroke-dasharray="5,2" d="M77.81,-670.83C91.16,-650.19 111.53,-624.42 136.75,-610.58 188.86,-581.99 256.94,-575.84 306.53,-575.92"/>
<polygon fill="orange" stroke="orange" points="74.93,-668.84 72.63,-679.18 80.88,-672.53 74.93,-668.84"/>
</a>
</g>
<text xml:space="preserve" text-anchor="start" x="149.5" y="-615.33" font-family="FreeSans" font-size="10.00" fill="grey">&lt; dim, CoordinateInteger &gt;</text>
</g>
<!-- Node19 -->
<g id="Node000019" class="node">
<title>Node19</title>
<g id="a_Node000019"><a xlink:href="classDGtal_1_1PointVector.html" target="_top" xlink:title=" ">
<polygon fill="white" stroke="#666666" points="432.5,-546.08 314.5,-546.08 314.5,-515.58 432.5,-515.58 432.5,-546.08"/>
<text xml:space="preserve" text-anchor="start" x="322.5" y="-532.58" font-family="FreeSans" font-size="10.00">DGtal::PointVector</text>
<text xml:space="preserve" text-anchor="middle" x="373.5" y="-521.33" font-family="FreeSans" font-size="10.00">&lt; dim, InternalInteger &gt;</text>
</a>
</g>
</g>
<!-- Node1&#45;&gt;Node19 -->
<g id="edge18_Node000001_Node000019" class="edge">
<title>Node1&#45;&gt;Node19</title>
<g id="a_edge18_Node000001_Node000019"><a xlink:title=" ">
<path fill="none" stroke="orange" stroke-dasharray="5,2" d="M67.59,-669.8C77.16,-635.43 97.59,-582.2 136.75,-555.58 188.82,-520.18 262.86,-518.26 314.01,-522.44"/>
<polygon fill="orange" stroke="orange" points="64.28,-668.64 65.14,-679.2 71.05,-670.41 64.28,-668.64"/>
</a>
</g>
<text xml:space="preserve" text-anchor="start" x="157" y="-560.33" font-family="FreeSans" font-size="10.00" fill="grey">&lt; dim, InternalInteger &gt;</text>
</g>
<!-- Node20 -->
<g id="Node000020" class="node">
<title>Node20</title>
<g id="a_Node000020"><a xlink:href="classDGtal_1_1PointVector.html" target="_top" xlink:title=" ">
<polygon fill="white" stroke="#666666" points="429.5,-497.08 317.5,-497.08 317.5,-466.58 429.5,-466.58 429.5,-497.08"/>
<text xml:space="preserve" text-anchor="start" x="325.5" y="-483.58" font-family="FreeSans" font-size="10.00">DGtal::PointVector</text>
<text xml:space="preserve" text-anchor="middle" x="373.5" y="-472.33" font-family="FreeSans" font-size="10.00">&lt; dimension, Scalar &gt;</text>
</a>
</g>
</g>
<!-- Node1&#45;&gt;Node20 -->
<g id="edge19_Node000001_Node000020" class="edge">
<title>Node1&#45;&gt;Node20</title>
<g id="a_edge19_Node000001_Node000020"><a xlink:title=" ">
<path fill="none" stroke="orange" stroke-dasharray="5,2" d="M62.31,-669.23C66.97,-623.11 82.82,-539.94 136.75,-499.58 188.34,-460.97 265.32,-463.04 317.15,-470.42"/>
<polygon fill="orange" stroke="orange" points="58.83,-668.87 61.44,-679.14 65.8,-669.49 58.83,-668.87"/>
</a>
</g>
<text xml:space="preserve" text-anchor="start" x="160" y="-504.33" font-family="FreeSans" font-size="10.00" fill="grey">&lt; dimension, Scalar &gt;</text>
</g>
<!-- Node21 -->
<g id="Node000021" class="node">
<title>Node21</title>
<g id="a_Node000021"><a xlink:href="classDGtal_1_1PointVector.html" target="_top" xlink:title=" ">
<polygon fill="white" stroke="#666666" points="429.88,-448.08 317.12,-448.08 317.12,-417.58 429.88,-417.58 429.88,-448.08"/>
<text xml:space="preserve" text-anchor="start" x="325.12" y="-434.58" font-family="FreeSans" font-size="10.00">DGtal::PointVector</text>
<text xml:space="preserve" text-anchor="middle" x="373.5" y="-423.33" font-family="FreeSans" font-size="10.00">&lt; dimension, double &gt;</text>
</a>
</g>
</g>
<!-- Node1&#45;&gt;Node21 -->
<g id="edge20_Node000001_Node000021" class="edge">
<title>Node1&#45;&gt;Node21</title>
<g id="a_edge20_Node000001_Node000021"><a xlink:title=" ">
<path fill="none" stroke="orange" stroke-dasharray="5,2" d="M65.24,-669.69C75.43,-607.13 101.05,-472.64 136.75,-444.58 187.34,-404.83 264.55,-409.42 316.7,-418.91"/>
<polygon fill="orange" stroke="orange" points="61.82,-668.93 63.71,-679.35 68.74,-670.03 61.82,-668.93"/>
</a>
</g>
<text xml:space="preserve" text-anchor="start" x="159.62" y="-449.33" font-family="FreeSans" font-size="10.00" fill="grey">&lt; dimension, double &gt;</text>
</g>
<!-- Node22 -->
<g id="Node000022" class="node">
<title>Node22</title>
<g id="a_Node000022"><a xlink:href="classDGtal_1_1PointVector.html" target="_top" xlink:title=" ">
<polygon fill="white" stroke="#666666" points="422.75,-399.08 324.25,-399.08 324.25,-368.58 422.75,-368.58 422.75,-399.08"/>
<text xml:space="preserve" text-anchor="start" x="332.25" y="-385.58" font-family="FreeSans" font-size="10.00">DGtal::PointVector</text>
<text xml:space="preserve" text-anchor="middle" x="373.5" y="-374.33" font-family="FreeSans" font-size="10.00">&lt; dim, Integer &gt;</text>
</a>
</g>
</g>
<!-- Node1&#45;&gt;Node22 -->
<g id="edge21_Node000001_Node000022" class="edge">
<title>Node1&#45;&gt;Node22</title>
<g id="a_edge21_Node000001_Node000022"><a xlink:title=" ">
<path fill="none" stroke="orange" stroke-dasharray="5,2" d="M63.46,-669.69C71.1,-597.62 93.48,-426.65 136.75,-391.58 189.24,-349.03 272,-358.11 324.21,-369.95"/>
<polygon fill="orange" stroke="orange" points="60.02,-668.96 62.47,-679.26 66.98,-669.67 60.02,-668.96"/>
</a>
</g>
<text xml:space="preserve" text-anchor="start" x="173.12" y="-396.33" font-family="FreeSans" font-size="10.00" fill="grey">&lt; dim, Integer &gt;</text>
</g>
<!-- Node23 -->
<g id="Node000023" class="node">
<title>Node23</title>
<g id="a_Node000023"><a xlink:href="classDGtal_1_1PointVector.html" target="_top" xlink:title=" ">
<polygon fill="white" stroke="#666666" points="422.75,-350.08 324.25,-350.08 324.25,-319.58 422.75,-319.58 422.75,-350.08"/>
<text xml:space="preserve" text-anchor="start" x="332.25" y="-336.58" font-family="FreeSans" font-size="10.00">DGtal::PointVector</text>
<text xml:space="preserve" text-anchor="middle" x="373.5" y="-325.33" font-family="FreeSans" font-size="10.00">&lt; dim&#45;1, Integer &gt;</text>
</a>
</g>
</g>
<!-- Node1&#45;&gt;Node23 -->
<g id="edge22_Node000001_Node000023" class="edge">
<title>Node1&#45;&gt;Node23</title>
<g id="a_edge22_Node000001_Node000023"><a xlink:title=" ">
<path fill="none" stroke="orange" stroke-dasharray="5,2" d="M62.2,-669.3C67.48,-588.22 85.8,-380.61 136.75,-338.58 188.85,-295.6 271.73,-306.47 324.06,-319.62"/>
<polygon fill="orange" stroke="orange" points="58.71,-669.04 61.58,-679.24 65.69,-669.48 58.71,-669.04"/>
</a>
</g>
<text xml:space="preserve" text-anchor="start" x="169" y="-343.33" font-family="FreeSans" font-size="10.00" fill="grey">&lt; dim&#45;1, Integer &gt;</text>
</g>
<!-- Node24 -->
<g id="Node000024" class="node">
<title>Node24</title>
<g id="a_Node000024"><a xlink:href="classDGtal_1_1PointVector.html" target="_top" xlink:title=" ">
<polygon fill="white" stroke="#666666" points="422.75,-301.08 324.25,-301.08 324.25,-270.58 422.75,-270.58 422.75,-301.08"/>
<text xml:space="preserve" text-anchor="start" x="332.25" y="-287.58" font-family="FreeSans" font-size="10.00">DGtal::PointVector</text>
<text xml:space="preserve" text-anchor="middle" x="373.5" y="-276.33" font-family="FreeSans" font-size="10.00">&lt; 1, Integer &gt;</text>
</a>
</g>
</g>
<!-- Node1&#45;&gt;Node24 -->
<g id="edge23_Node000001_Node000024" class="edge">
<title>Node1&#45;&gt;Node24</title>
<g id="a_edge23_Node000001_Node000024"><a xlink:title=" ">
<path fill="none" stroke="orange" stroke-dasharray="5,2" d="M61.23,-669.21C64.34,-580.03 78.13,-335.56 136.75,-286.58 164.08,-263.75 263.17,-271.61 323.84,-278.99"/>
<polygon fill="orange" stroke="orange" points="57.74,-668.87 60.92,-678.97 64.74,-669.09 57.74,-668.87"/>
</a>
</g>
<text xml:space="preserve" text-anchor="start" x="178.38" y="-291.33" font-family="FreeSans" font-size="10.00" fill="grey">&lt; 1, Integer &gt;</text>
</g>
<!-- Node25 -->
<g id="Node000025" class="node">
<title>Node25</title>
<g id="a_Node000025"><a xlink:href="classDGtal_1_1PointVector.html" target="_top" xlink:title=" ">
<polygon fill="white" stroke="#666666" points="422.75,-252.08 324.25,-252.08 324.25,-221.58 422.75,-221.58 422.75,-252.08"/>
<text xml:space="preserve" text-anchor="start" x="332.25" y="-238.58" font-family="FreeSans" font-size="10.00">DGtal::PointVector</text>
<text xml:space="preserve" text-anchor="middle" x="373.5" y="-227.33" font-family="FreeSans" font-size="10.00">&lt; dim, double &gt;</text>
</a>
</g>
</g>
<!-- Node1&#45;&gt;Node25 -->
<g id="edge24_Node000001_Node000025" class="edge">
<title>Node1&#45;&gt;Node25</title>
<g id="a_edge24_Node000001_Node000025"><a xlink:title=" ">
<path fill="none" stroke="orange" stroke-dasharray="5,2" d="M60.86,-669.13C63,-574.97 74.54,-306.34 136.75,-250.58 187.28,-205.3 271.01,-212.82 323.89,-223.79"/>
<polygon fill="orange" stroke="orange" points="57.36,-668.89 60.66,-678.96 64.36,-669.04 57.36,-668.89"/>
</a>
</g>
<text xml:space="preserve" text-anchor="start" x="173.88" y="-255.33" font-family="FreeSans" font-size="10.00" fill="grey">&lt; dim, double &gt;</text>
</g>
<!-- Node26 -->
<g id="Node000026" class="node">
<title>Node26</title>
<g id="a_Node000026"><a xlink:href="classDGtal_1_1PointVector.html" target="_top" xlink:title=" ">
<polygon fill="white" stroke="#666666" points="422.75,-203.08 324.25,-203.08 324.25,-172.58 422.75,-172.58 422.75,-203.08"/>
<text xml:space="preserve" text-anchor="start" x="332.25" y="-189.58" font-family="FreeSans" font-size="10.00">DGtal::PointVector</text>
<text xml:space="preserve" text-anchor="middle" x="373.5" y="-178.33" font-family="FreeSans" font-size="10.00">&lt; N, Component &gt;</text>
</a>
</g>
</g>
<!-- Node1&#45;&gt;Node26 -->
<g id="edge25_Node000001_Node000026" class="edge">
<title>Node1&#45;&gt;Node26</title>
<g id="a_edge25_Node000001_Node000026"><a xlink:title=" ">
<path fill="none" stroke="orange" stroke-dasharray="5,2" d="M60.11,-669.16C60.02,-567.12 65.73,-257.5 136.75,-194.58 187.47,-149.65 271.14,-159.99 323.96,-172.92"/>
<polygon fill="orange" stroke="orange" points="56.61,-669.04 60.14,-679.03 63.61,-669.01 56.61,-669.04"/>
</a>
</g>
<text xml:space="preserve" text-anchor="start" x="167.12" y="-199.33" font-family="FreeSans" font-size="10.00" fill="grey">&lt; N, Component &gt;</text>
</g>
<!-- Node27 -->
<g id="Node000027" class="node">
<title>Node27</title>
<g id="a_Node000027"><a xlink:href="classDGtal_1_1PointVector.html" target="_top" xlink:title=" ">
<polygon fill="white" stroke="#666666" points="422.75,-154.08 324.25,-154.08 324.25,-123.58 422.75,-123.58 422.75,-154.08"/>
<text xml:space="preserve" text-anchor="start" x="332.25" y="-140.58" font-family="FreeSans" font-size="10.00">DGtal::PointVector</text>
<text xml:space="preserve" text-anchor="middle" x="373.5" y="-129.33" font-family="FreeSans" font-size="10.00">&lt; M, Component &gt;</text>
</a>
</g>
</g>
<!-- Node1&#45;&gt;Node27 -->
<g id="edge26_Node000001_Node000027" class="edge">
<title>Node1&#45;&gt;Node27</title>
<g id="a_edge26_Node000001_Node000027"><a xlink:title=" ">
<path fill="none" stroke="orange" stroke-dasharray="5,2" d="M62.35,-669.32C69.65,-554.9 96.68,-175.83 136.75,-140.58 163.52,-117.03 263.07,-124.73 323.92,-132.05"/>
<polygon fill="orange" stroke="orange" points="58.87,-669.03 61.73,-679.23 65.85,-669.47 58.87,-669.03"/>
</a>
</g>
<text xml:space="preserve" text-anchor="start" x="166.75" y="-145.33" font-family="FreeSans" font-size="10.00" fill="grey">&lt; M, Component &gt;</text>
</g>
<!-- Node28 -->
<g id="Node000028" class="node">
<title>Node28</title>
<g id="a_Node000028"><a xlink:href="classDGtal_1_1PointVector.html" target="_top" xlink:title=" ">
<polygon fill="white" stroke="#666666" points="426.5,-105.71 320.5,-105.71 320.5,-63.96 426.5,-63.96 426.5,-105.71"/>
<text xml:space="preserve" text-anchor="start" x="328.5" y="-92.21" font-family="FreeSans" font-size="10.00">DGtal::PointVector</text>
<text xml:space="preserve" text-anchor="start" x="328.5" y="-80.96" font-family="FreeSans" font-size="10.00">&lt; Space::dimension,</text>
<text xml:space="preserve" text-anchor="middle" x="373.5" y="-69.71" font-family="FreeSans" font-size="10.00"> Real &gt;</text>
</a>
</g>
</g>
<!-- Node1&#45;&gt;Node28 -->
<g id="edge27_Node000001_Node000028" class="edge">
<title>Node1&#45;&gt;Node28</title>
<g id="a_edge27_Node000001_Node000028"><a xlink:title=" ">
<path fill="none" stroke="orange" stroke-dasharray="5,2" d="M61.98,-669.11C68.27,-547.64 93.05,-127.51 136.75,-88.33 162.77,-65 258.96,-71.24 320.14,-77.98"/>
<polygon fill="orange" stroke="orange" points="58.49,-668.87 61.48,-679.03 65.48,-669.22 58.49,-668.87"/>
</a>
</g>
<text xml:space="preserve" text-anchor="start" x="163" y="-108.33" font-family="FreeSans" font-size="10.00" fill="grey">&lt; Space::dimension,</text>
<text xml:space="preserve" text-anchor="start" x="163" y="-93.08" font-family="FreeSans" font-size="10.00" fill="grey">   Real &gt;</text>
</g>
<!-- Node29 -->
<g id="Node000029" class="node">
<title>Node29</title>
<g id="a_Node000029"><a xlink:href="classDGtal_1_1PointVector.html" target="_top" xlink:title=" ">
<polygon fill="white" stroke="#666666" points="426.88,-45.71 320.12,-45.71 320.12,-3.96 426.88,-3.96 426.88,-45.71"/>
<text xml:space="preserve" text-anchor="start" x="328.12" y="-32.21" font-family="FreeSans" font-size="10.00">DGtal::PointVector</text>
<text xml:space="preserve" text-anchor="start" x="328.12" y="-20.96" font-family="FreeSans" font-size="10.00">&lt; TPoint::dimension,</text>
<text xml:space="preserve" text-anchor="middle" x="373.5" y="-9.71" font-family="FreeSans" font-size="10.00"> double &gt;</text>
</a>
</g>
</g>
<!-- Node1&#45;&gt;Node29 -->
<g id="edge28_Node000001_Node000029" class="edge">
<title>Node1&#45;&gt;Node29</title>
<g id="a_edge28_Node000001_Node000029"><a xlink:title=" ">
<path fill="none" stroke="orange" stroke-dasharray="5,2" d="M61.67,-669.27C67.09,-541.49 89.82,-79.1 136.75,-35.33 185.29,9.94 266.8,2.12 320.12,-9.73"/>
<polygon fill="orange" stroke="orange" points="58.18,-668.92 61.27,-679.06 65.18,-669.21 58.18,-668.92"/>
</a>
</g>
<text xml:space="preserve" text-anchor="start" x="162.62" y="-55.33" font-family="FreeSans" font-size="10.00" fill="grey">&lt; TPoint::dimension,</text>
<text xml:space="preserve" text-anchor="start" x="162.62" y="-40.08" font-family="FreeSans" font-size="10.00" fill="grey">   double &gt;</text>
</g>
</g>
</svg>
