<?xml version="1.0" encoding="UTF-8" standalone="no"?>
<!DOCTYPE svg PUBLIC "-//W3C//DTD SVG 1.1//EN"
 "http://www.w3.org/Graphics/SVG/1.1/DTD/svg11.dtd">
<!-- Generated by graphviz version 14.1.0 (20251206.1807)
 -->
<!-- Title: DGtal::detail::PosIndepScaleIndepSCEstimator&lt; TSegmentComputer, Functor, ReturnType &gt; Pages: 1 -->
<!--zoomable 208 -->

<svg id="main" version="1.1" xmlns="http://www.w3.org/2000/svg" xmlns:xlink="http://www.w3.org/1999/xlink" xml:space="preserve" onload="init(evt)">

<style type="text/css"><![CDATA[
.node, .edge {opacity: 0.7;}
.node.selected, .edge.selected {opacity: 1;}
.edge:hover path { stroke: red; }
.edge:hover polygon { stroke: red; fill: red; }
]]></style>

<defs>
  <circle id="rim" cx="0" cy="0" r="7"/>
  <circle id="rim2" cx="0" cy="0" r="3.5"/>
  <g id="zoomPlus">
    <use xlink:href="#rim" fill="#404040"><set attributeName="fill" to="#808080" begin="zoomplus.mouseover" end="zoomplus.mouseout"/></use>
    <path d="M-4,0h8M0,-4v8" fill="none" stroke="white" stroke-width="1.5" pointer-events="none"/>
  </g>
  <g id="zoomMin">
    <use xlink:href="#rim" fill="#404040"><set attributeName="fill" to="#808080" begin="zoomminus.mouseover" end="zoomminus.mouseout"/></use>
    <path d="M-4,0h8" fill="none" stroke="white" stroke-width="1.5" pointer-events="none"/>
  </g>
  <g id="arrowUp" transform="translate(30 24)">
    <use xlink:href="#rim"/>
    <path pointer-events="none" fill="none" stroke="white" stroke-width="1.5" d="M0,-3.0v7 M-2.5,-0.5L0,-3.0L2.5,-0.5"/>
  </g>
  <g id="arrowRight" transform="rotate(90) translate(36 -43)">
    <use xlink:href="#rim"/>
    <path pointer-events="none" fill="none" stroke="white" stroke-width="1.5" d="M0,-3.0v7 M-2.5,-0.5L0,-3.0L2.5,-0.5"/>
  </g>
  <g id="arrowDown" transform="rotate(180) translate(-30 -48)">
    <use xlink:href="#rim"/>
    <path pointer-events="none" fill="none" stroke="white" stroke-width="1.5" d="M0,-3.0v7 M-2.5,-0.5L0,-3.0L2.5,-0.5"/>
  </g>
  <g id="arrowLeft" transform="rotate(270) translate(-36 17)">
    <use xlink:href="#rim"/>
    <path pointer-events="none" fill="none" stroke="white" stroke-width="1.5" d="M0,-3.0v7 M-2.5,-0.5L0,-3.0L2.5,-0.5"/>
  </g>
  <g id="resetDef">
    <use xlink:href="#rim2" fill="#404040"><set attributeName="fill" to="#808080" begin="reset.mouseover" end="reset.mouseout"/></use>
  </g>
</defs>
<script type="application/ecmascript">
var viewWidth = 835;
var viewHeight = 208;
var sectionId = 'dynsection-0';
</script>
<script type="application/ecmascript" xlink:href="svg.min.js"/>
<svg id="graph" class="graph">
<g id="viewport">
<title>DGtal::detail::PosIndepScaleIndepSCEstimator&lt; TSegmentComputer, Functor, ReturnType &gt;</title>
<!-- Node1 -->
<g id="Node000001" class="node">
<title>Node1</title>
<g id="a_Node000001"><a xlink:title=" ">
<polygon fill="#999999" stroke="#666666" points="195.25,-103.75 0,-103.75 0,-62 195.25,-62 195.25,-103.75"/>
<text xml:space="preserve" text-anchor="start" x="8" y="-90.25" font-family="FreeSans" font-size="10.00">DGtal::detail::PosIndepScale</text>
<text xml:space="preserve" text-anchor="start" x="8" y="-79" font-family="FreeSans" font-size="10.00">IndepSCEstimator&lt; TSegmentComputer,</text>
<text xml:space="preserve" text-anchor="middle" x="97.62" y="-67.75" font-family="FreeSans" font-size="10.00"> Functor, ReturnType &gt;</text>
</a>
</g>
</g>
<!-- Node2 -->
<g id="Node000002" class="node">
<title>Node2</title>
<g id="a_Node000002"><a xlink:href="classDGtal_1_1detail_1_1PosIndepScaleIndepSCEstimator.html" target="_top" xlink:title=" ">
<polygon fill="white" stroke="#666666" points="597.5,-174.75 384.25,-174.75 384.25,-133 597.5,-133 597.5,-174.75"/>
<text xml:space="preserve" text-anchor="start" x="392.25" y="-161.25" font-family="FreeSans" font-size="10.00">DGtal::detail::PosIndepScale</text>
<text xml:space="preserve" text-anchor="start" x="392.25" y="-150" font-family="FreeSans" font-size="10.00">IndepSCEstimator&lt; DSSComputer,</text>
<text xml:space="preserve" text-anchor="middle" x="490.88" y="-138.75" font-family="FreeSans" font-size="10.00"> detail::NormalizedTangentVectorFromDSS &gt;</text>
</a>
</g>
</g>
<!-- Node1&#45;&gt;Node2 -->
<g id="edge1_Node000001_Node000002" class="edge">
<title>Node1&#45;&gt;Node2</title>
<g id="a_edge1_Node000001_Node000002"><a xlink:title=" ">
<path fill="none" stroke="orange" stroke-dasharray="5,2" d="M149.84,-108.98C169.22,-117.72 191.8,-126.59 213.25,-131.88 268.56,-145.51 331.8,-151.24 383.84,-153.46"/>
<polygon fill="orange" stroke="orange" points="151.34,-105.82 140.8,-104.79 148.4,-112.17 151.34,-105.82"/>
</a>
</g>
<text xml:space="preserve" text-anchor="start" x="216.25" y="-187.62" font-family="FreeSans" font-size="10.00" fill="grey">&lt; DSSComputer, detail</text>
<text xml:space="preserve" text-anchor="start" x="216.25" y="-172.37" font-family="FreeSans" font-size="10.00" fill="grey">  ::NormalizedTangentVectorFrom</text>
<text xml:space="preserve" text-anchor="start" x="216.25" y="-157.12" font-family="FreeSans" font-size="10.00" fill="grey">  DSS &gt;</text>
</g>
<!-- Node4 -->
<g id="Node000004" class="node">
<title>Node4</title>
<g id="a_Node000004"><a xlink:href="classDGtal_1_1detail_1_1PosIndepScaleIndepSCEstimator.html" target="_top" xlink:title=" ">
<polygon fill="white" stroke="#666666" points="576.5,-112.38 405.25,-112.38 405.25,-59.38 576.5,-59.38 576.5,-112.38"/>
<text xml:space="preserve" text-anchor="start" x="413.25" y="-98.88" font-family="FreeSans" font-size="10.00">DGtal::detail::PosIndepScale</text>
<text xml:space="preserve" text-anchor="start" x="413.25" y="-87.62" font-family="FreeSans" font-size="10.00">IndepSCEstimator&lt; DSSComputer,</text>
<text xml:space="preserve" text-anchor="start" x="413.25" y="-76.38" font-family="FreeSans" font-size="10.00"> detail::TangentVectorFromDSS</text>
<text xml:space="preserve" text-anchor="middle" x="490.88" y="-65.12" font-family="FreeSans" font-size="10.00">&lt; DSSComputer &gt; &gt;</text>
</a>
</g>
</g>
<!-- Node1&#45;&gt;Node4 -->
<g id="edge3_Node000001_Node000004" class="edge">
<title>Node1&#45;&gt;Node4</title>
<g id="a_edge3_Node000001_Node000004"><a xlink:title=" ">
<path fill="none" stroke="orange" stroke-dasharray="5,2" d="M206.77,-83.15C255.5,-83.33 313.77,-83.63 366.25,-84.12 378.7,-84.24 391.85,-84.4 404.75,-84.56"/>
<polygon fill="orange" stroke="orange" points="207.09,-79.65 197.07,-83.11 207.06,-86.65 207.09,-79.65"/>
</a>
</g>
<text xml:space="preserve" text-anchor="start" x="230.5" y="-119.38" font-family="FreeSans" font-size="10.00" fill="grey">&lt; DSSComputer, detail</text>
<text xml:space="preserve" text-anchor="start" x="230.5" y="-104.12" font-family="FreeSans" font-size="10.00" fill="grey">  ::TangentVectorFromDSS</text>
<text xml:space="preserve" text-anchor="start" x="230.5" y="-88.88" font-family="FreeSans" font-size="10.00" fill="grey">  &lt; DSSComputer &gt; &gt;</text>
</g>
<!-- Node6 -->
<g id="Node000006" class="node">
<title>Node6</title>
<g id="a_Node000006"><a xlink:href="classDGtal_1_1detail_1_1PosIndepScaleIndepSCEstimator.html" target="_top" xlink:title=" ">
<polygon fill="white" stroke="#666666" points="576.5,-41.75 405.25,-41.75 405.25,0 576.5,0 576.5,-41.75"/>
<text xml:space="preserve" text-anchor="start" x="413.25" y="-28.25" font-family="FreeSans" font-size="10.00">DGtal::detail::PosIndepScale</text>
<text xml:space="preserve" text-anchor="start" x="413.25" y="-17" font-family="FreeSans" font-size="10.00">IndepSCEstimator&lt; DSSComputer,</text>
<text xml:space="preserve" text-anchor="middle" x="490.88" y="-5.75" font-family="FreeSans" font-size="10.00"> detail::TangentAngleFromDSS &gt;</text>
</a>
</g>
</g>
<!-- Node1&#45;&gt;Node6 -->
<g id="edge5_Node000001_Node000006" class="edge">
<title>Node1&#45;&gt;Node6</title>
<g id="a_edge5_Node000001_Node000006"><a xlink:title=" ">
<path fill="none" stroke="orange" stroke-dasharray="5,2" d="M167.81,-58.2C182.64,-53.65 198.34,-49.4 213.25,-46.38 276.82,-33.48 349.95,-27.1 405.05,-23.94"/>
<polygon fill="orange" stroke="orange" points="167.11,-54.75 158.62,-61.09 169.21,-61.43 167.11,-54.75"/>
</a>
</g>
<text xml:space="preserve" text-anchor="start" x="227.88" y="-66.38" font-family="FreeSans" font-size="10.00" fill="grey">&lt; DSSComputer, detail</text>
<text xml:space="preserve" text-anchor="start" x="227.88" y="-51.12" font-family="FreeSans" font-size="10.00" fill="grey">  ::TangentAngleFromDSS &gt;</text>
</g>
<!-- Node3 -->
<g id="Node000003" class="node">
<title>Node3</title>
<g id="a_Node000003"><a xlink:href="classDGtal_1_1TangentFromDSSEstimator.html" target="_top" xlink:title=" ">
<polygon fill="white" stroke="#666666" points="814.38,-169.12 646.88,-169.12 646.88,-138.62 814.38,-138.62 814.38,-169.12"/>
<text xml:space="preserve" text-anchor="start" x="654.88" y="-155.62" font-family="FreeSans" font-size="10.00">DGtal::TangentFromDSSEstimator</text>
<text xml:space="preserve" text-anchor="middle" x="730.62" y="-144.38" font-family="FreeSans" font-size="10.00">&lt; DSSComputer &gt;</text>
</a>
</g>
</g>
<!-- Node2&#45;&gt;Node3 -->
<g id="edge2_Node000002_Node000003" class="edge">
<title>Node2&#45;&gt;Node3</title>
<g id="a_edge2_Node000002_Node000003"><a xlink:title=" ">
<path fill="none" stroke="#63b8ff" d="M609.03,-153.88C621.74,-153.88 634.47,-153.88 646.65,-153.88"/>
<polygon fill="#63b8ff" stroke="#63b8ff" points="609.4,-150.38 599.4,-153.88 609.4,-157.38 609.4,-150.38"/>
</a>
</g>
</g>
<!-- Node5 -->
<g id="Node000005" class="node">
<title>Node5</title>
<g id="a_Node000005"><a xlink:href="classDGtal_1_1TangentVectorFromDSSEstimator.html" target="_top" xlink:title=" ">
<polygon fill="white" stroke="#666666" points="811,-101.12 650.25,-101.12 650.25,-70.62 811,-70.62 811,-101.12"/>
<text xml:space="preserve" text-anchor="start" x="658.25" y="-87.62" font-family="FreeSans" font-size="10.00">DGtal::TangentVectorFrom</text>
<text xml:space="preserve" text-anchor="middle" x="730.62" y="-76.38" font-family="FreeSans" font-size="10.00">DSSEstimator&lt; DSSComputer &gt;</text>
</a>
</g>
</g>
<!-- Node4&#45;&gt;Node5 -->
<g id="edge4_Node000004_Node000005" class="edge">
<title>Node4&#45;&gt;Node5</title>
<g id="a_edge4_Node000004_Node000005"><a xlink:title=" ">
<path fill="none" stroke="#63b8ff" d="M588.02,-85.88C608.6,-85.88 630.12,-85.88 650,-85.88"/>
<polygon fill="#63b8ff" stroke="#63b8ff" points="588.21,-82.38 578.21,-85.88 588.21,-89.38 588.21,-82.38"/>
</a>
</g>
</g>
<!-- Node7 -->
<g id="Node000007" class="node">
<title>Node7</title>
<g id="a_Node000007"><a xlink:href="classDGtal_1_1TangentAngleFromDSSEstimator.html" target="_top" xlink:title=" ">
<polygon fill="white" stroke="#666666" points="826.75,-36.12 634.5,-36.12 634.5,-5.62 826.75,-5.62 826.75,-36.12"/>
<text xml:space="preserve" text-anchor="start" x="642.5" y="-22.62" font-family="FreeSans" font-size="10.00">DGtal::TangentAngleFromDSSEstimator</text>
<text xml:space="preserve" text-anchor="middle" x="730.62" y="-11.38" font-family="FreeSans" font-size="10.00">&lt; DSSComputer &gt;</text>
</a>
</g>
</g>
<!-- Node6&#45;&gt;Node7 -->
<g id="edge6_Node000006_Node000007" class="edge">
<title>Node6&#45;&gt;Node7</title>
<g id="a_edge6_Node000006_Node000007"><a xlink:title=" ">
<path fill="none" stroke="#63b8ff" d="M588.21,-20.88C603.42,-20.88 619.13,-20.88 634.32,-20.88"/>
<polygon fill="#63b8ff" stroke="#63b8ff" points="588.21,-17.38 578.21,-20.88 588.21,-24.38 588.21,-17.38"/>
</a>
</g>
</g>
</g>
</svg>

<g id="navigator" transform="translate(0 0)" fill="#404254">
  <rect fill="#f2f5e9" fill-opacity="0.5" stroke="#606060" stroke-width=".5" x="0" y="0" width="60" height="60"/>
  <use id="zoomplus" xlink:href="#zoomPlus" x="17" y="9" onmousedown="handleZoom(evt,'in')"/>
  <use id="zoomminus" xlink:href="#zoomMin" x="42" y="9" onmousedown="handleZoom(evt,'out')"/>
  <use id="reset" xlink:href="#resetDef" x="30" y="36" onmousedown="handleReset()"/>
   <use id="arrowup" xlink:href="#arrowUp" x="0" y="0" onmousedown="handlePan(0,-1)"/>
  <use id="arrowright" xlink:href="#arrowRight" x="0" y="0" onmousedown="handlePan(1,0)"/>
  <use id="arrowdown" xlink:href="#arrowDown" x="0" y="0" onmousedown="handlePan(0,1)"/>
  <use id="arrowleft" xlink:href="#arrowLeft" x="0" y="0" onmousedown="handlePan(-1,0)"/>
</g>
<svg viewBox="0 0 15 15" width="100%" height="30px" preserveAspectRatio="xMaxYMin meet">
 <g id="arrow_out" transform="scale(0.3 0.3)">
  <a xlink:href="classDGtal_1_1detail_1_1PosIndepScaleIndepSCEstimator__inherit__graph_org.svg" target="_base">
   <rect id="button" ry="5" rx="5" y="6" x="6" height="38" width="38"
        fill="#f2f5e9" fill-opacity="0.5" stroke="#606060" stroke-width="1.0"/>
   <path id="arrow"
     d="M 11.500037,31.436501 C 11.940474,20.09759 22.043105,11.32322 32.158766,21.979434 L 37.068811,17.246167 C 37.068811,17.246167 37.088388,32 37.088388,32 L 22.160133,31.978069 C 22.160133,31.978069 26.997745,27.140456 26.997745,27.140456 C 18.528582,18.264221 13.291696,25.230495 11.500037,31.436501 z"
     style="fill:#404040;"/>
  </a>
 </g>
</svg>

<style type='text/css'>
<![CDATA[
[data-mouse-over-selected='false'] { opacity: 0.7; }
[data-mouse-over-selected='true']  { opacity: 1.0; }
]]>
</style>
<script type="application/ecmascript"><![CDATA[
document.addEventListener('DOMContentLoaded', (event) => {
  highlightEdges();
  highlightAdjacentNodes();
});
]]></script>
</svg>
