<?xml version="1.0" encoding="UTF-8" standalone="no"?>
<!DOCTYPE svg PUBLIC "-//W3C//DTD SVG 1.1//EN"
 "http://www.w3.org/Graphics/SVG/1.1/DTD/svg11.dtd">
<!-- Generated by graphviz version 14.1.0 (20251206.1807)
 -->
<!-- Title: DGtal::VoronoiMapComplete&lt; TSpace, TPointPredicate, TSeparableMetric, TImageContainer &gt; Pages: 1 -->
<svg width="593pt" height="160pt"
 viewBox="0.00 0.00 593.00 160.00" xmlns="http://www.w3.org/2000/svg" xmlns:xlink="http://www.w3.org/1999/xlink">
<g id="graph0" class="graph" transform="scale(1 1) rotate(0) translate(4 156)">
<title>DGtal::VoronoiMapComplete&lt; TSpace, TPointPredicate, TSeparableMetric, TImageContainer &gt;</title>
<!-- Node1 -->
<g id="Node000001" class="node">
<title>Node1</title>
<g id="a_Node000001"><a xlink:title="Aim: Implementation of the linear in time Voronoi map construction.">
<polygon fill="#999999" stroke="#666666" points="185.5,-152 0,-152 0,-110.25 185.5,-110.25 185.5,-152"/>
<text xml:space="preserve" text-anchor="start" x="8" y="-138.5" font-family="FreeSans" font-size="10.00">DGtal::VoronoiMapComplete</text>
<text xml:space="preserve" text-anchor="start" x="8" y="-127.25" font-family="FreeSans" font-size="10.00">&lt; TSpace, TPointPredicate,</text>
<text xml:space="preserve" text-anchor="middle" x="92.75" y="-116" font-family="FreeSans" font-size="10.00"> TSeparableMetric, TImageContainer &gt;</text>
</a>
</g>
</g>
<!-- Node1&#45;&gt;Node1 -->
<g id="edge1_Node000001_Node000001" class="edge">
<title>Node1&#45;&gt;Node1</title>
<g id="a_edge1_Node000001_Node000001"><a xlink:title=" ">
<path fill="none" stroke="orange" stroke-dasharray="5,2" d="M197.08,-134.16C201.15,-133.36 203.5,-132.35 203.5,-131.12 203.5,-129 196.47,-127.53 185.66,-126.71"/>
<polygon fill="orange" stroke="orange" points="196.67,-130.68 187.16,-135.35 197.51,-137.63 196.67,-130.68"/>
</a>
</g>
<text xml:space="preserve" text-anchor="start" x="206.5" y="-134.88" font-family="FreeSans" font-size="10.00" fill="grey">&lt; TSpace, TPointPredicate,</text>
<text xml:space="preserve" text-anchor="start" x="206.5" y="-119.62" font-family="FreeSans" font-size="10.00" fill="grey">   TSeparableMetric, TImageContainer &gt;</text>
</g>
<!-- Node1&#45;&gt;Node1 -->
<g id="edge2_Node000001_Node000001" class="edge">
<title>Node1&#45;&gt;Node1</title>
<g id="a_edge2_Node000001_Node000001"><a xlink:title=" ">
<path fill="none" stroke="orange" stroke-dasharray="5,2" d="M197.27,-140.63C282.21,-143.14 385,-139.97 385,-131.12 385,-121.88 272.77,-118.84 185.95,-122"/>
<polygon fill="orange" stroke="orange" points="197.57,-137.13 187.46,-140.3 197.34,-144.13 197.57,-137.13"/>
</a>
</g>
<text xml:space="preserve" text-anchor="start" x="388" y="-134.88" font-family="FreeSans" font-size="10.00" fill="grey">&lt; TSpace, TPointPredicate,</text>
<text xml:space="preserve" text-anchor="start" x="388" y="-119.62" font-family="FreeSans" font-size="10.00" fill="grey">   TSeparableMetric, TImageContainer &gt;</text>
</g>
<!-- Node2 -->
<g id="Node000002" class="node">
<title>Node2</title>
<g id="a_Node000002"><a xlink:href="classDGtal_1_1VoronoiMapComplete.html" target="_top" xlink:title=" ">
<polygon fill="white" stroke="#666666" points="163.38,-41.75 22.12,-41.75 22.12,0 163.38,0 163.38,-41.75"/>
<text xml:space="preserve" text-anchor="start" x="30.12" y="-28.25" font-family="FreeSans" font-size="10.00">DGtal::VoronoiMapComplete</text>
<text xml:space="preserve" text-anchor="start" x="30.12" y="-17" font-family="FreeSans" font-size="10.00">&lt; Z2i::Space, DigitalSet,</text>
<text xml:space="preserve" text-anchor="middle" x="92.75" y="-5.75" font-family="FreeSans" font-size="10.00"> Z2i::L2Metric &gt;</text>
</a>
</g>
</g>
<!-- Node1&#45;&gt;Node2 -->
<g id="edge3_Node000001_Node000002" class="edge">
<title>Node1&#45;&gt;Node2</title>
<g id="a_edge3_Node000001_Node000002"><a xlink:title=" ">
<path fill="none" stroke="orange" stroke-dasharray="5,2" d="M92.75,-98.25C92.75,-80.11 92.75,-57.92 92.75,-42.14"/>
<polygon fill="orange" stroke="orange" points="89.25,-98.25 92.75,-108.25 96.25,-98.25 89.25,-98.25"/>
</a>
</g>
<text xml:space="preserve" text-anchor="start" x="95.75" y="-79.75" font-family="FreeSans" font-size="10.00" fill="grey">&lt; Z2i::Space, DigitalSet,</text>
<text xml:space="preserve" text-anchor="start" x="95.75" y="-64.5" font-family="FreeSans" font-size="10.00" fill="grey">   Z2i::L2Metric &gt;</text>
</g>
</g>
</svg>
