<?xml version="1.0" encoding="UTF-8" standalone="no"?>
<!DOCTYPE svg PUBLIC "-//W3C//DTD SVG 1.1//EN"
 "http://www.w3.org/Graphics/SVG/1.1/DTD/svg11.dtd">
<!-- Generated by graphviz version 14.1.0 (20251206.1807)
 -->
<!-- Title: DGtal::SaturatedSegmentation&lt; TSegmentComputer &gt; Pages: 1 -->
<svg width="502pt" height="137pt"
 viewBox="0.00 0.00 502.00 137.00" xmlns="http://www.w3.org/2000/svg" xmlns:xlink="http://www.w3.org/1999/xlink">
<g id="graph0" class="graph" transform="scale(1 1) rotate(0) translate(4 132.5)">
<title>DGtal::SaturatedSegmentation&lt; TSegmentComputer &gt;</title>
<!-- Node1 -->
<g id="Node000001" class="node">
<title>Node1</title>
<g id="a_Node000001"><a xlink:title="Aim: Computes the saturated segmentation, that is the whole set of maximal segments within a range gi...">
<polygon fill="#999999" stroke="#666666" points="149.5,-79.5 0,-79.5 0,-49 149.5,-49 149.5,-79.5"/>
<text xml:space="preserve" text-anchor="start" x="8" y="-66" font-family="FreeSans" font-size="10.00">DGtal::SaturatedSegmentation</text>
<text xml:space="preserve" text-anchor="middle" x="74.75" y="-54.75" font-family="FreeSans" font-size="10.00">&lt; TSegmentComputer &gt;</text>
</a>
</g>
</g>
<!-- Node2 -->
<g id="Node000002" class="node">
<title>Node2</title>
<g id="a_Node000002"><a xlink:href="classDGtal_1_1SaturatedSegmentation.html" target="_top" xlink:title=" ">
<polygon fill="white" stroke="#666666" points="489.12,-128.5 339.62,-128.5 339.62,-98 489.12,-98 489.12,-128.5"/>
<text xml:space="preserve" text-anchor="start" x="347.62" y="-115" font-family="FreeSans" font-size="10.00">DGtal::SaturatedSegmentation</text>
<text xml:space="preserve" text-anchor="middle" x="414.38" y="-103.75" font-family="FreeSans" font-size="10.00">&lt; SegmentComputer2D &gt;</text>
</a>
</g>
</g>
<!-- Node1&#45;&gt;Node2 -->
<g id="edge1_Node000001_Node000002" class="edge">
<title>Node1&#45;&gt;Node2</title>
<g id="a_edge1_Node000001_Node000002"><a xlink:title=" ">
<path fill="none" stroke="orange" stroke-dasharray="5,2" d="M151.39,-82.26C156.83,-83.34 162.24,-84.35 167.5,-85.25 224.88,-95.05 290.4,-102.32 339.37,-106.99"/>
<polygon fill="orange" stroke="orange" points="152.21,-78.86 141.71,-80.27 150.8,-85.71 152.21,-78.86"/>
</a>
</g>
<text xml:space="preserve" text-anchor="start" x="185.88" y="-109.16" font-family="FreeSans" font-size="10.00" fill="grey">&lt; SegmentComputer2D &gt;</text>
</g>
<!-- Node3 -->
<g id="Node000003" class="node">
<title>Node3</title>
<g id="a_Node000003"><a xlink:href="classDGtal_1_1SaturatedSegmentation.html" target="_top" xlink:title=" ">
<polygon fill="white" stroke="#666666" points="489.12,-79.5 339.62,-79.5 339.62,-49 489.12,-49 489.12,-79.5"/>
<text xml:space="preserve" text-anchor="start" x="347.62" y="-66" font-family="FreeSans" font-size="10.00">DGtal::SaturatedSegmentation</text>
<text xml:space="preserve" text-anchor="middle" x="414.38" y="-54.75" font-family="FreeSans" font-size="10.00">&lt; SegmentComputer &gt;</text>
</a>
</g>
</g>
<!-- Node1&#45;&gt;Node3 -->
<g id="edge2_Node000001_Node000003" class="edge">
<title>Node1&#45;&gt;Node3</title>
<g id="a_edge2_Node000001_Node000003"><a xlink:title=" ">
<path fill="none" stroke="orange" stroke-dasharray="5,2" d="M161.3,-64.25C216.16,-64.25 286.67,-64.25 339.16,-64.25"/>
<polygon fill="orange" stroke="orange" points="161.36,-60.75 151.36,-64.25 161.36,-67.75 161.36,-60.75"/>
</a>
</g>
<text xml:space="preserve" text-anchor="start" x="192.25" y="-69" font-family="FreeSans" font-size="10.00" fill="grey">&lt; SegmentComputer &gt;</text>
</g>
<!-- Node4 -->
<g id="Node000004" class="node">
<title>Node4</title>
<g id="a_Node000004"><a xlink:href="classDGtal_1_1SaturatedSegmentation.html" target="_top" xlink:title=" ">
<polygon fill="white" stroke="#666666" points="494,-30.5 334.75,-30.5 334.75,0 494,0 494,-30.5"/>
<text xml:space="preserve" text-anchor="start" x="342.75" y="-17" font-family="FreeSans" font-size="10.00">DGtal::SaturatedSegmentation</text>
<text xml:space="preserve" text-anchor="middle" x="414.38" y="-5.75" font-family="FreeSans" font-size="10.00">&lt; SegmentComputerOnSurfels &gt;</text>
</a>
</g>
</g>
<!-- Node1&#45;&gt;Node4 -->
<g id="edge3_Node000001_Node000004" class="edge">
<title>Node1&#45;&gt;Node4</title>
<g id="a_edge3_Node000001_Node000004"><a xlink:title=" ">
<path fill="none" stroke="orange" stroke-dasharray="5,2" d="M150.35,-46.22C156.14,-45.05 161.9,-43.96 167.5,-43 222.96,-33.48 286.05,-26.44 334.43,-21.83"/>
<polygon fill="orange" stroke="orange" points="149.78,-42.76 140.71,-48.24 151.22,-49.61 149.78,-42.76"/>
</a>
</g>
<text xml:space="preserve" text-anchor="start" x="170.5" y="-47.75" font-family="FreeSans" font-size="10.00" fill="grey">&lt; SegmentComputerOnSurfels &gt;</text>
</g>
</g>
</svg>
