<?xml version="1.0" encoding="UTF-8" standalone="no"?>
<!DOCTYPE svg PUBLIC "-//W3C//DTD SVG 1.1//EN"
 "http://www.w3.org/Graphics/SVG/1.1/DTD/svg11.dtd">
<!-- Generated by graphviz version 14.1.0 (20251206.1807)
 -->
<!-- Title: DGtal::functors::Point2ShapePredicate&lt; TSurface, isUpward, isClosed &gt; Pages: 1 -->
<svg width="454pt" height="338pt"
 viewBox="0.00 0.00 454.00 338.00" xmlns="http://www.w3.org/2000/svg" xmlns:xlink="http://www.w3.org/1999/xlink">

<svg id="main" version="1.1" xmlns="http://www.w3.org/2000/svg" xmlns:xlink="http://www.w3.org/1999/xlink" xml:space="preserve">

<style type="text/css"><![CDATA[
.node, .edge {opacity: 0.7;}
.node.selected, .edge.selected {opacity: 1;}
.edge:hover path { stroke: red; }
.edge:hover polygon { stroke: red; fill: red; }
]]></style>
<script type="application/ecmascript" xlink:href="svg.min.js"/>
<svg id="graph" class="graph">
<g id="graph0" class="graph" transform="scale(1 1) rotate(0) translate(4 333.75)">
<title>DGtal::functors::Point2ShapePredicate&lt; TSurface, isUpward, isClosed &gt;</title>
<!-- Node1 -->
<g id="Node000001" class="node">
<title>Node1</title>
<g id="a_Node000001"><a xlink:title="Aim: Predicate returning &#39;true&#39; iff a given point is in the &#39;interior&#39; of a given shape,...">
<polygon fill="#999999" stroke="#666666" points="156.25,-182.75 0,-182.75 0,-141 156.25,-141 156.25,-182.75"/>
<text xml:space="preserve" text-anchor="start" x="8" y="-169.25" font-family="FreeSans" font-size="10.00">DGtal::functors::Point2Shape</text>
<text xml:space="preserve" text-anchor="start" x="8" y="-158" font-family="FreeSans" font-size="10.00">Predicate&lt; TSurface, isUpward,</text>
<text xml:space="preserve" text-anchor="middle" x="78.12" y="-146.75" font-family="FreeSans" font-size="10.00"> isClosed &gt;</text>
</a>
</g>
</g>
<!-- Node2 -->
<g id="Node000002" class="node">
<title>Node2</title>
<g id="a_Node000002"><a xlink:href="classDGtal_1_1functors_1_1Point2ShapePredicate.html" target="_top" xlink:title=" ">
<polygon fill="white" stroke="#666666" points="444.12,-329.75 299.88,-329.75 299.88,-288 444.12,-288 444.12,-329.75"/>
<text xml:space="preserve" text-anchor="start" x="307.88" y="-316.25" font-family="FreeSans" font-size="10.00">DGtal::functors::Point2Shape</text>
<text xml:space="preserve" text-anchor="start" x="307.88" y="-305" font-family="FreeSans" font-size="10.00">Predicate&lt; Circle, false,</text>
<text xml:space="preserve" text-anchor="middle" x="372" y="-293.75" font-family="FreeSans" font-size="10.00"> true &gt;</text>
</a>
</g>
</g>
<!-- Node1&#45;&gt;Node2 -->
<g id="edge1_Node000001_Node000002" class="edge">
<title>Node1&#45;&gt;Node2</title>
<g id="a_edge1_Node000001_Node000002"><a xlink:title=" ">
<path fill="none" stroke="orange" stroke-dasharray="5,2" d="M104.24,-191.71C121.99,-211.08 147.35,-235.49 174.25,-250.88 212.89,-272.97 260.71,-287.32 299.52,-296.21"/>
<polygon fill="orange" stroke="orange" points="106.92,-189.46 97.64,-184.35 101.71,-194.13 106.92,-189.46"/>
</a>
</g>
<text xml:space="preserve" text-anchor="start" x="180.62" y="-295.59" font-family="FreeSans" font-size="10.00" fill="grey">&lt; Circle, false, true &gt;</text>
</g>
<!-- Node3 -->
<g id="Node000003" class="node">
<title>Node3</title>
<g id="a_Node000003"><a xlink:href="classDGtal_1_1functors_1_1Point2ShapePredicate.html" target="_top" xlink:title=" ">
<polygon fill="white" stroke="#666666" points="444.12,-269.75 299.88,-269.75 299.88,-228 444.12,-228 444.12,-269.75"/>
<text xml:space="preserve" text-anchor="start" x="307.88" y="-256.25" font-family="FreeSans" font-size="10.00">DGtal::functors::Point2Shape</text>
<text xml:space="preserve" text-anchor="start" x="307.88" y="-245" font-family="FreeSans" font-size="10.00">Predicate&lt; Circle, true,</text>
<text xml:space="preserve" text-anchor="middle" x="372" y="-233.75" font-family="FreeSans" font-size="10.00"> true &gt;</text>
</a>
</g>
</g>
<!-- Node1&#45;&gt;Node3 -->
<g id="edge2_Node000001_Node000003" class="edge">
<title>Node1&#45;&gt;Node3</title>
<g id="a_edge2_Node000001_Node000003"><a xlink:title=" ">
<path fill="none" stroke="orange" stroke-dasharray="5,2" d="M135.78,-187.48C148.31,-192.64 161.61,-197.74 174.25,-201.88 215.14,-215.26 261.95,-226.59 299.65,-234.78"/>
<polygon fill="orange" stroke="orange" points="137.45,-184.39 126.88,-183.74 134.74,-190.84 137.45,-184.39"/>
</a>
</g>
<text xml:space="preserve" text-anchor="start" x="182.88" y="-234.08" font-family="FreeSans" font-size="10.00" fill="grey">&lt; Circle, true, true &gt;</text>
</g>
<!-- Node4 -->
<g id="Node000004" class="node">
<title>Node4</title>
<g id="a_Node000004"><a xlink:href="classDGtal_1_1functors_1_1Point2ShapePredicate.html" target="_top" xlink:title=" ">
<polygon fill="white" stroke="#666666" points="444.12,-209.75 299.88,-209.75 299.88,-168 444.12,-168 444.12,-209.75"/>
<text xml:space="preserve" text-anchor="start" x="307.88" y="-196.25" font-family="FreeSans" font-size="10.00">DGtal::functors::Point2Shape</text>
<text xml:space="preserve" text-anchor="start" x="307.88" y="-185" font-family="FreeSans" font-size="10.00">Predicate&lt; Shape, false,</text>
<text xml:space="preserve" text-anchor="middle" x="372" y="-173.75" font-family="FreeSans" font-size="10.00"> true &gt;</text>
</a>
</g>
</g>
<!-- Node1&#45;&gt;Node4 -->
<g id="edge3_Node000001_Node000004" class="edge">
<title>Node1&#45;&gt;Node4</title>
<g id="a_edge3_Node000001_Node000004"><a xlink:title=" ">
<path fill="none" stroke="orange" stroke-dasharray="5,2" d="M167.98,-170.1C210.21,-174 260,-178.61 299.7,-182.28"/>
<polygon fill="orange" stroke="orange" points="168.36,-166.62 158.08,-169.18 167.72,-173.59 168.36,-166.62"/>
</a>
</g>
<text xml:space="preserve" text-anchor="start" x="179.5" y="-184.89" font-family="FreeSans" font-size="10.00" fill="grey">&lt; Shape, false, true &gt;</text>
</g>
<!-- Node5 -->
<g id="Node000005" class="node">
<title>Node5</title>
<g id="a_Node000005"><a xlink:href="classDGtal_1_1functors_1_1Point2ShapePredicate.html" target="_top" xlink:title=" ">
<polygon fill="white" stroke="#666666" points="446,-150.12 298,-150.12 298,-119.62 446,-119.62 446,-150.12"/>
<text xml:space="preserve" text-anchor="start" x="306" y="-136.62" font-family="FreeSans" font-size="10.00">DGtal::functors::Point2Shape</text>
<text xml:space="preserve" text-anchor="middle" x="372" y="-125.38" font-family="FreeSans" font-size="10.00">Predicate&lt; Shape, true, true &gt;</text>
</a>
</g>
</g>
<!-- Node1&#45;&gt;Node5 -->
<g id="edge4_Node000001_Node000005" class="edge">
<title>Node1&#45;&gt;Node5</title>
<g id="a_edge4_Node000001_Node000005"><a xlink:title=" ">
<path fill="none" stroke="orange" stroke-dasharray="5,2" d="M168.03,-151.25C170.12,-151.04 172.2,-150.83 174.25,-150.62 215,-146.59 260.58,-142.89 297.6,-140.09"/>
<polygon fill="orange" stroke="orange" points="167.79,-147.76 158.22,-152.29 168.53,-154.72 167.79,-147.76"/>
</a>
</g>
<text xml:space="preserve" text-anchor="start" x="181.75" y="-155.38" font-family="FreeSans" font-size="10.00" fill="grey">&lt; Shape, true, true &gt;</text>
</g>
<!-- Node6 -->
<g id="Node000006" class="node">
<title>Node6</title>
<g id="a_Node000006"><a xlink:href="classDGtal_1_1functors_1_1Point2ShapePredicate.html" target="_top" xlink:title=" ">
<polygon fill="white" stroke="#666666" points="444.12,-101.75 299.88,-101.75 299.88,-60 444.12,-60 444.12,-101.75"/>
<text xml:space="preserve" text-anchor="start" x="307.88" y="-88.25" font-family="FreeSans" font-size="10.00">DGtal::functors::Point2Shape</text>
<text xml:space="preserve" text-anchor="start" x="307.88" y="-77" font-family="FreeSans" font-size="10.00">Predicate&lt; Shape, true,</text>
<text xml:space="preserve" text-anchor="middle" x="372" y="-65.75" font-family="FreeSans" font-size="10.00"> false &gt;</text>
</a>
</g>
</g>
<!-- Node1&#45;&gt;Node6 -->
<g id="edge5_Node000001_Node000006" class="edge">
<title>Node1&#45;&gt;Node6</title>
<g id="a_edge5_Node000001_Node000006"><a xlink:title=" ">
<path fill="none" stroke="orange" stroke-dasharray="5,2" d="M133.25,-136.07C146.46,-130.43 160.7,-124.88 174.25,-120.62 214.98,-107.84 261.78,-98.18 299.52,-91.6"/>
<polygon fill="orange" stroke="orange" points="132.06,-132.78 124.3,-139.99 134.86,-139.19 132.06,-132.78"/>
</a>
</g>
<text xml:space="preserve" text-anchor="start" x="179.5" y="-125.38" font-family="FreeSans" font-size="10.00" fill="grey">&lt; Shape, true, false &gt;</text>
</g>
<!-- Node7 -->
<g id="Node000007" class="node">
<title>Node7</title>
<g id="a_Node000007"><a xlink:href="classDGtal_1_1functors_1_1Point2ShapePredicate.html" target="_top" xlink:title=" ">
<polygon fill="white" stroke="#666666" points="444.12,-41.75 299.88,-41.75 299.88,0 444.12,0 444.12,-41.75"/>
<text xml:space="preserve" text-anchor="start" x="307.88" y="-28.25" font-family="FreeSans" font-size="10.00">DGtal::functors::Point2Shape</text>
<text xml:space="preserve" text-anchor="start" x="307.88" y="-17" font-family="FreeSans" font-size="10.00">Predicate&lt; Shape, false,</text>
<text xml:space="preserve" text-anchor="middle" x="372" y="-5.75" font-family="FreeSans" font-size="10.00"> false &gt;</text>
</a>
</g>
</g>
<!-- Node1&#45;&gt;Node7 -->
<g id="edge6_Node000001_Node000007" class="edge">
<title>Node1&#45;&gt;Node7</title>
<g id="a_edge6_Node000001_Node000007"><a xlink:title=" ">
<path fill="none" stroke="orange" stroke-dasharray="5,2" d="M104.25,-132.47C122.01,-113.41 147.37,-89.47 174.25,-74.62 213,-53.23 260.82,-39.92 299.61,-31.89"/>
<polygon fill="orange" stroke="orange" points="101.8,-129.96 97.66,-139.71 106.98,-134.67 101.8,-129.96"/>
</a>
</g>
<text xml:space="preserve" text-anchor="start" x="177.25" y="-79.38" font-family="FreeSans" font-size="10.00" fill="grey">&lt; Shape, false, false &gt;</text>
</g>
</g>
</svg>
</svg>

<style type='text/css'>
<![CDATA[
[data-mouse-over-selected='false'] { opacity: 0.7; }
[data-mouse-over-selected='true']  { opacity: 1.0; }
]]>
</style>
<script type="application/ecmascript"><![CDATA[
document.addEventListener('DOMContentLoaded', (event) => {
  highlightEdges();
  highlightAdjacentNodes();
});
]]></script>
</svg>
