<?xml version="1.0" encoding="UTF-8" standalone="no"?>
<!DOCTYPE svg PUBLIC "-//W3C//DTD SVG 1.1//EN"
 "http://www.w3.org/Graphics/SVG/1.1/DTD/svg11.dtd">
<!-- Generated by graphviz version 14.1.0 (20251206.1807)
 -->
<!-- Title: DGtal::HyperRectDomain_ReverseIterator&lt; TIterator &gt; Pages: 1 -->
<!--zoomable 88 -->

<svg id="main" version="1.1" xmlns="http://www.w3.org/2000/svg" xmlns:xlink="http://www.w3.org/1999/xlink" xml:space="preserve" onload="init(evt)">

<style type="text/css"><![CDATA[
.node, .edge {opacity: 0.7;}
.node.selected, .edge.selected {opacity: 1;}
.edge:hover path { stroke: red; }
.edge:hover polygon { stroke: red; fill: red; }
]]></style>

<defs>
  <circle id="rim" cx="0" cy="0" r="7"/>
  <circle id="rim2" cx="0" cy="0" r="3.5"/>
  <g id="zoomPlus">
    <use xlink:href="#rim" fill="#404040"><set attributeName="fill" to="#808080" begin="zoomplus.mouseover" end="zoomplus.mouseout"/></use>
    <path d="M-4,0h8M0,-4v8" fill="none" stroke="white" stroke-width="1.5" pointer-events="none"/>
  </g>
  <g id="zoomMin">
    <use xlink:href="#rim" fill="#404040"><set attributeName="fill" to="#808080" begin="zoomminus.mouseover" end="zoomminus.mouseout"/></use>
    <path d="M-4,0h8" fill="none" stroke="white" stroke-width="1.5" pointer-events="none"/>
  </g>
  <g id="arrowUp" transform="translate(30 24)">
    <use xlink:href="#rim"/>
    <path pointer-events="none" fill="none" stroke="white" stroke-width="1.5" d="M0,-3.0v7 M-2.5,-0.5L0,-3.0L2.5,-0.5"/>
  </g>
  <g id="arrowRight" transform="rotate(90) translate(36 -43)">
    <use xlink:href="#rim"/>
    <path pointer-events="none" fill="none" stroke="white" stroke-width="1.5" d="M0,-3.0v7 M-2.5,-0.5L0,-3.0L2.5,-0.5"/>
  </g>
  <g id="arrowDown" transform="rotate(180) translate(-30 -48)">
    <use xlink:href="#rim"/>
    <path pointer-events="none" fill="none" stroke="white" stroke-width="1.5" d="M0,-3.0v7 M-2.5,-0.5L0,-3.0L2.5,-0.5"/>
  </g>
  <g id="arrowLeft" transform="rotate(270) translate(-36 17)">
    <use xlink:href="#rim"/>
    <path pointer-events="none" fill="none" stroke="white" stroke-width="1.5" d="M0,-3.0v7 M-2.5,-0.5L0,-3.0L2.5,-0.5"/>
  </g>
  <g id="resetDef">
    <use xlink:href="#rim2" fill="#404040"><set attributeName="fill" to="#808080" begin="reset.mouseover" end="reset.mouseout"/></use>
  </g>
</defs>
<script type="application/ecmascript">
var viewWidth = 685;
var viewHeight = 88;
var sectionId = 'dynsection-0';
</script>
<script type="application/ecmascript" xlink:href="svg.min.js"/>
<svg id="graph" class="graph">
<g id="viewport">
<title>DGtal::HyperRectDomain_ReverseIterator&lt; TIterator &gt;</title>
<!-- Node1 -->
<g id="Node000001" class="node">
<title>Node1</title>
<g id="a_Node000001"><a xlink:title="Reverse iterator for HyperRectDomain.">
<polygon fill="#999999" stroke="#666666" points="396,-54.5 252.5,-54.5 252.5,-24 396,-24 396,-54.5"/>
<text xml:space="preserve" text-anchor="start" x="260.5" y="-41" font-family="FreeSans" font-size="10.00">DGtal::HyperRectDomain</text>
<text xml:space="preserve" text-anchor="middle" x="324.25" y="-29.75" font-family="FreeSans" font-size="10.00">_ReverseIterator&lt; TIterator &gt;</text>
</a>
</g>
</g>
<!-- Node3 -->
<g id="Node000003" class="node">
<title>Node3</title>
<g id="a_Node000003"><a xlink:href="classDGtal_1_1HyperRectDomain__ReverseIterator.html" target="_top" xlink:title=" ">
<polygon fill="white" stroke="#666666" points="663.62,-79.5 526.12,-79.5 526.12,-49 663.62,-49 663.62,-79.5"/>
<text xml:space="preserve" text-anchor="start" x="534.12" y="-66" font-family="FreeSans" font-size="10.00">DGtal::HyperRectDomain</text>
<text xml:space="preserve" text-anchor="middle" x="594.88" y="-54.75" font-family="FreeSans" font-size="10.00">_ReverseIterator&lt; Iterator &gt;</text>
</a>
</g>
</g>
<!-- Node1&#45;&gt;Node3 -->
<g id="edge2_Node000001_Node000003" class="edge">
<title>Node1&#45;&gt;Node3</title>
<g id="a_edge2_Node000001_Node000003"><a xlink:title=" ">
<path fill="none" stroke="orange" stroke-dasharray="5,2" d="M407.21,-46.88C445.16,-50.41 489.73,-54.56 525.8,-57.91"/>
<polygon fill="orange" stroke="orange" points="407.97,-43.43 397.69,-45.99 407.32,-50.4 407.97,-43.43"/>
</a>
</g>
<text xml:space="preserve" text-anchor="start" x="430.12" y="-59.47" font-family="FreeSans" font-size="10.00" fill="grey">&lt; Iterator &gt;</text>
</g>
<!-- Node4 -->
<g id="Node000004" class="node">
<title>Node4</title>
<g id="a_Node000004"><a xlink:href="classDGtal_1_1HyperRectDomain__ReverseIterator.html" target="_top" xlink:title=" ">
<polygon fill="white" stroke="#666666" points="676.75,-30.5 513,-30.5 513,0 676.75,0 676.75,-30.5"/>
<text xml:space="preserve" text-anchor="start" x="521" y="-17" font-family="FreeSans" font-size="10.00">DGtal::HyperRectDomain</text>
<text xml:space="preserve" text-anchor="middle" x="594.88" y="-5.75" font-family="FreeSans" font-size="10.00">_ReverseIterator&lt; ConstIterator &gt;</text>
</a>
</g>
</g>
<!-- Node1&#45;&gt;Node4 -->
<g id="edge3_Node000001_Node000004" class="edge">
<title>Node1&#45;&gt;Node4</title>
<g id="a_edge3_Node000001_Node000004"><a xlink:title=" ">
<path fill="none" stroke="orange" stroke-dasharray="5,2" d="M407.74,-25.71C409.85,-25.46 411.94,-25.22 414,-25 446.18,-21.55 481.75,-19.3 512.69,-17.84"/>
<polygon fill="orange" stroke="orange" points="407.35,-22.23 397.87,-26.97 408.23,-29.17 407.35,-22.23"/>
</a>
</g>
<text xml:space="preserve" text-anchor="start" x="417" y="-29.75" font-family="FreeSans" font-size="10.00" fill="grey">&lt; ConstIterator &gt;</text>
</g>
<!-- Node2 -->
<g id="Node000002" class="node">
<title>Node2</title>
<g id="a_Node000002"><a xlink:title=" ">
<polygon fill="white" stroke="#666666" points="215.5,-77 0,-77 0,-1.5 215.5,-1.5 215.5,-77"/>
<text xml:space="preserve" text-anchor="start" x="8" y="-63.5" font-family="FreeSans" font-size="10.00">boost::iterator_facade</text>
<text xml:space="preserve" text-anchor="start" x="8" y="-52.25" font-family="FreeSans" font-size="10.00">&lt; HyperRectDomain_ReverseIterator</text>
<text xml:space="preserve" text-anchor="start" x="8" y="-41" font-family="FreeSans" font-size="10.00">&lt; TIterator &gt;, TIterator::Point</text>
<text xml:space="preserve" text-anchor="start" x="8" y="-29.75" font-family="FreeSans" font-size="10.00"> const, std::random_access_iterator</text>
<text xml:space="preserve" text-anchor="start" x="8" y="-18.5" font-family="FreeSans" font-size="10.00">_tag, TIterator::Point const &amp;, std</text>
<text xml:space="preserve" text-anchor="middle" x="107.75" y="-7.25" font-family="FreeSans" font-size="10.00">::iterator_traits&lt; TIterator &gt;::difference_type &gt;</text>
</a>
</g>
</g>
<!-- Node2&#45;&gt;Node1 -->
<g id="edge1_Node000001_Node000002" class="edge">
<title>Node2&#45;&gt;Node1</title>
<g id="a_edge1_Node000001_Node000002"><a xlink:title=" ">
<path fill="none" stroke="#63b8ff" d="M227.47,-39.25C235.85,-39.25 244.14,-39.25 252.12,-39.25"/>
<polygon fill="#63b8ff" stroke="#63b8ff" points="227.51,-35.75 217.51,-39.25 227.51,-42.75 227.51,-35.75"/>
</a>
</g>
</g>
</g>
</svg>

<g id="navigator" transform="translate(0 0)" fill="#404254">
  <rect fill="#f2f5e9" fill-opacity="0.5" stroke="#606060" stroke-width=".5" x="0" y="0" width="60" height="60"/>
  <use id="zoomplus" xlink:href="#zoomPlus" x="17" y="9" onmousedown="handleZoom(evt,'in')"/>
  <use id="zoomminus" xlink:href="#zoomMin" x="42" y="9" onmousedown="handleZoom(evt,'out')"/>
  <use id="reset" xlink:href="#resetDef" x="30" y="36" onmousedown="handleReset()"/>
   <use id="arrowup" xlink:href="#arrowUp" x="0" y="0" onmousedown="handlePan(0,-1)"/>
  <use id="arrowright" xlink:href="#arrowRight" x="0" y="0" onmousedown="handlePan(1,0)"/>
  <use id="arrowdown" xlink:href="#arrowDown" x="0" y="0" onmousedown="handlePan(0,1)"/>
  <use id="arrowleft" xlink:href="#arrowLeft" x="0" y="0" onmousedown="handlePan(-1,0)"/>
</g>
<svg viewBox="0 0 15 15" width="100%" height="30px" preserveAspectRatio="xMaxYMin meet">
 <g id="arrow_out" transform="scale(0.3 0.3)">
  <a xlink:href="classDGtal_1_1HyperRectDomain__ReverseIterator__inherit__graph_org.svg" target="_base">
   <rect id="button" ry="5" rx="5" y="6" x="6" height="38" width="38"
        fill="#f2f5e9" fill-opacity="0.5" stroke="#606060" stroke-width="1.0"/>
   <path id="arrow"
     d="M 11.500037,31.436501 C 11.940474,20.09759 22.043105,11.32322 32.158766,21.979434 L 37.068811,17.246167 C 37.068811,17.246167 37.088388,32 37.088388,32 L 22.160133,31.978069 C 22.160133,31.978069 26.997745,27.140456 26.997745,27.140456 C 18.528582,18.264221 13.291696,25.230495 11.500037,31.436501 z"
     style="fill:#404040;"/>
  </a>
 </g>
</svg>

<style type='text/css'>
<![CDATA[
[data-mouse-over-selected='false'] { opacity: 0.7; }
[data-mouse-over-selected='true']  { opacity: 1.0; }
]]>
</style>
<script type="application/ecmascript"><![CDATA[
document.addEventListener('DOMContentLoaded', (event) => {
  highlightEdges();
  highlightAdjacentNodes();
});
]]></script>
</svg>
