<?xml version="1.0" encoding="UTF-8" standalone="no"?>
<!DOCTYPE svg PUBLIC "-//W3C//DTD SVG 1.1//EN"
 "http://www.w3.org/Graphics/SVG/1.1/DTD/svg11.dtd">
<!-- Generated by graphviz version 14.1.0 (20251206.1807)
 -->
<!-- Title: DGtal::DigitalSetByAssociativeContainer&lt; TDomain, TContainer &gt; Pages: 1 -->
<!--zoomable 423 -->

<svg id="main" version="1.1" xmlns="http://www.w3.org/2000/svg" xmlns:xlink="http://www.w3.org/1999/xlink" xml:space="preserve" onload="init(evt)">

<style type="text/css"><![CDATA[
.node, .edge {opacity: 0.7;}
.node.selected, .edge.selected {opacity: 1;}
.edge:hover path { stroke: red; }
.edge:hover polygon { stroke: red; fill: red; }
]]></style>

<defs>
  <circle id="rim" cx="0" cy="0" r="7"/>
  <circle id="rim2" cx="0" cy="0" r="3.5"/>
  <g id="zoomPlus">
    <use xlink:href="#rim" fill="#404040"><set attributeName="fill" to="#808080" begin="zoomplus.mouseover" end="zoomplus.mouseout"/></use>
    <path d="M-4,0h8M0,-4v8" fill="none" stroke="white" stroke-width="1.5" pointer-events="none"/>
  </g>
  <g id="zoomMin">
    <use xlink:href="#rim" fill="#404040"><set attributeName="fill" to="#808080" begin="zoomminus.mouseover" end="zoomminus.mouseout"/></use>
    <path d="M-4,0h8" fill="none" stroke="white" stroke-width="1.5" pointer-events="none"/>
  </g>
  <g id="arrowUp" transform="translate(30 24)">
    <use xlink:href="#rim"/>
    <path pointer-events="none" fill="none" stroke="white" stroke-width="1.5" d="M0,-3.0v7 M-2.5,-0.5L0,-3.0L2.5,-0.5"/>
  </g>
  <g id="arrowRight" transform="rotate(90) translate(36 -43)">
    <use xlink:href="#rim"/>
    <path pointer-events="none" fill="none" stroke="white" stroke-width="1.5" d="M0,-3.0v7 M-2.5,-0.5L0,-3.0L2.5,-0.5"/>
  </g>
  <g id="arrowDown" transform="rotate(180) translate(-30 -48)">
    <use xlink:href="#rim"/>
    <path pointer-events="none" fill="none" stroke="white" stroke-width="1.5" d="M0,-3.0v7 M-2.5,-0.5L0,-3.0L2.5,-0.5"/>
  </g>
  <g id="arrowLeft" transform="rotate(270) translate(-36 17)">
    <use xlink:href="#rim"/>
    <path pointer-events="none" fill="none" stroke="white" stroke-width="1.5" d="M0,-3.0v7 M-2.5,-0.5L0,-3.0L2.5,-0.5"/>
  </g>
  <g id="resetDef">
    <use xlink:href="#rim2" fill="#404040"><set attributeName="fill" to="#808080" begin="reset.mouseover" end="reset.mouseout"/></use>
  </g>
</defs>
<script type="application/ecmascript">
var viewWidth = 509;
var viewHeight = 423;
var sectionId = 'dynsection-0';
</script>
<script type="application/ecmascript" xlink:href="svg.min.js"/>
<svg id="graph" class="graph">
<g id="viewport">
<title>DGtal::DigitalSetByAssociativeContainer&lt; TDomain, TContainer &gt;</title>
<!-- Node1 -->
<g id="Node000001" class="node">
<title>Node1</title>
<g id="a_Node000001"><a xlink:title="Aim: A wrapper class around a STL associative container for storing sets of digital points within som...">
<polygon fill="#999999" stroke="#666666" points="169.75,-220.75 0,-220.75 0,-190.25 169.75,-190.25 169.75,-220.75"/>
<text xml:space="preserve" text-anchor="start" x="8" y="-207.25" font-family="FreeSans" font-size="10.00">DGtal::DigitalSetByAssociative</text>
<text xml:space="preserve" text-anchor="middle" x="84.88" y="-196" font-family="FreeSans" font-size="10.00">Container&lt; TDomain, TContainer &gt;</text>
</a>
</g>
</g>
<!-- Node2 -->
<g id="Node000002" class="node">
<title>Node2</title>
<g id="a_Node000002"><a xlink:href="classDGtal_1_1DigitalSetByAssociativeContainer.html" target="_top" xlink:title=" ">
<polygon fill="white" stroke="#666666" points="500.75,-387.38 331,-387.38 331,-345.62 500.75,-345.62 500.75,-387.38"/>
<text xml:space="preserve" text-anchor="start" x="339" y="-373.88" font-family="FreeSans" font-size="10.00">DGtal::DigitalSetByAssociative</text>
<text xml:space="preserve" text-anchor="start" x="339" y="-362.62" font-family="FreeSans" font-size="10.00">Container&lt; Domain, std::unordered</text>
<text xml:space="preserve" text-anchor="middle" x="415.88" y="-351.38" font-family="FreeSans" font-size="10.00">_set&lt; typename Domain::Point &gt; &gt;</text>
</a>
</g>
</g>
<!-- Node1&#45;&gt;Node2 -->
<g id="edge1_Node000001_Node000002" class="edge">
<title>Node1&#45;&gt;Node2</title>
<g id="a_edge1_Node000001_Node000002"><a xlink:title=" ">
<path fill="none" stroke="orange" stroke-dasharray="5,2" d="M98.76,-231.17C115.12,-260.85 146.28,-308.66 187.75,-332.5 230.79,-357.24 285.68,-365.95 330.72,-368.38"/>
<polygon fill="orange" stroke="orange" points="101.92,-229.65 94.13,-222.47 95.74,-232.94 101.92,-229.65"/>
</a>
</g>
<text xml:space="preserve" text-anchor="start" x="190.75" y="-402.26" font-family="FreeSans" font-size="10.00" fill="grey">&lt; Domain, std::unordered</text>
<text xml:space="preserve" text-anchor="start" x="190.75" y="-387.01" font-family="FreeSans" font-size="10.00" fill="grey">  _set&lt; typename Domain::</text>
<text xml:space="preserve" text-anchor="start" x="190.75" y="-371.76" font-family="FreeSans" font-size="10.00" fill="grey">  Point &gt; &gt;</text>
</g>
<!-- Node3 -->
<g id="Node000003" class="node">
<title>Node3</title>
<g id="a_Node000003"><a xlink:href="classDGtal_1_1DigitalSetByAssociativeContainer.html" target="_top" xlink:title=" ">
<polygon fill="white" stroke="#666666" points="494.75,-327.75 337,-327.75 337,-297.25 494.75,-297.25 494.75,-327.75"/>
<text xml:space="preserve" text-anchor="start" x="345" y="-314.25" font-family="FreeSans" font-size="10.00">DGtal::DigitalSetByAssociative</text>
<text xml:space="preserve" text-anchor="middle" x="415.88" y="-303" font-family="FreeSans" font-size="10.00">Container&lt; Domain, Container &gt;</text>
</a>
</g>
</g>
<!-- Node1&#45;&gt;Node3 -->
<g id="edge2_Node000001_Node000003" class="edge">
<title>Node1&#45;&gt;Node3</title>
<g id="a_edge2_Node000001_Node000003"><a xlink:title=" ">
<path fill="none" stroke="orange" stroke-dasharray="5,2" d="M108.51,-228.97C127.75,-247.35 157.07,-271.85 187.75,-284.5 234.76,-303.89 291.55,-310.89 336.57,-313.04"/>
<polygon fill="orange" stroke="orange" points="111.08,-226.59 101.49,-222.08 106.17,-231.58 111.08,-226.59"/>
</a>
</g>
<text xml:space="preserve" text-anchor="start" x="200.5" y="-315.86" font-family="FreeSans" font-size="10.00" fill="grey">&lt; Domain, Container &gt;</text>
</g>
<!-- Node4 -->
<g id="Node000004" class="node">
<title>Node4</title>
<g id="a_Node000004"><a xlink:href="classDGtal_1_1DigitalSetByAssociativeContainer.html" target="_top" xlink:title=" ">
<polygon fill="white" stroke="#666666" points="492.5,-262.38 339.25,-262.38 339.25,-220.62 492.5,-220.62 492.5,-262.38"/>
<text xml:space="preserve" text-anchor="start" x="347.25" y="-248.88" font-family="FreeSans" font-size="10.00">DGtal::DigitalSetByAssociative</text>
<text xml:space="preserve" text-anchor="start" x="347.25" y="-237.62" font-family="FreeSans" font-size="10.00">Container&lt; Z2i::Domain, std</text>
<text xml:space="preserve" text-anchor="middle" x="415.88" y="-226.38" font-family="FreeSans" font-size="10.00">::unordered_set&lt; Z2i::Point &gt; &gt;</text>
</a>
</g>
</g>
<!-- Node1&#45;&gt;Node4 -->
<g id="edge3_Node000001_Node000004" class="edge">
<title>Node1&#45;&gt;Node4</title>
<g id="a_edge3_Node000001_Node000004"><a xlink:title=" ">
<path fill="none" stroke="orange" stroke-dasharray="5,2" d="M181.47,-218.75C183.58,-219.01 185.68,-219.26 187.75,-219.5 238.02,-225.39 294.67,-230.88 338.83,-234.9"/>
<polygon fill="orange" stroke="orange" points="181.92,-215.28 171.57,-217.52 181.06,-222.23 181.92,-215.28"/>
</a>
</g>
<text xml:space="preserve" text-anchor="start" x="202.38" y="-267.59" font-family="FreeSans" font-size="10.00" fill="grey">&lt; Z2i::Domain, std</text>
<text xml:space="preserve" text-anchor="start" x="202.38" y="-252.34" font-family="FreeSans" font-size="10.00" fill="grey">  ::unordered_set&lt; Z2i</text>
<text xml:space="preserve" text-anchor="start" x="202.38" y="-237.09" font-family="FreeSans" font-size="10.00" fill="grey">  ::Point &gt; &gt;</text>
</g>
<!-- Node5 -->
<g id="Node000005" class="node">
<title>Node5</title>
<g id="a_Node000005"><a xlink:href="classDGtal_1_1DigitalSetByAssociativeContainer.html" target="_top" xlink:title=" ">
<polygon fill="white" stroke="#666666" points="492.5,-192.38 339.25,-192.38 339.25,-150.62 492.5,-150.62 492.5,-192.38"/>
<text xml:space="preserve" text-anchor="start" x="347.25" y="-178.88" font-family="FreeSans" font-size="10.00">DGtal::DigitalSetByAssociative</text>
<text xml:space="preserve" text-anchor="start" x="347.25" y="-167.62" font-family="FreeSans" font-size="10.00">Container&lt; Z3i::Domain, std</text>
<text xml:space="preserve" text-anchor="middle" x="415.88" y="-156.38" font-family="FreeSans" font-size="10.00">::unordered_set&lt; Z3i::Point &gt; &gt;</text>
</a>
</g>
</g>
<!-- Node1&#45;&gt;Node5 -->
<g id="edge4_Node000001_Node000005" class="edge">
<title>Node1&#45;&gt;Node5</title>
<g id="a_edge4_Node000001_Node000005"><a xlink:title=" ">
<path fill="none" stroke="orange" stroke-dasharray="5,2" d="M133.99,-186.07C150.72,-180.25 169.8,-174.66 187.75,-171.75 237.67,-163.67 294.58,-163.62 338.94,-165.59"/>
<polygon fill="orange" stroke="orange" points="133.02,-182.7 124.8,-189.38 135.39,-189.28 133.02,-182.7"/>
</a>
</g>
<text xml:space="preserve" text-anchor="start" x="202.38" y="-207" font-family="FreeSans" font-size="10.00" fill="grey">&lt; Z3i::Domain, std</text>
<text xml:space="preserve" text-anchor="start" x="202.38" y="-191.75" font-family="FreeSans" font-size="10.00" fill="grey">  ::unordered_set&lt; Z3i</text>
<text xml:space="preserve" text-anchor="start" x="202.38" y="-176.5" font-family="FreeSans" font-size="10.00" fill="grey">  ::Point &gt; &gt;</text>
</g>
<!-- Node6 -->
<g id="Node000006" class="node">
<title>Node6</title>
<g id="a_Node000006"><a xlink:href="classDGtal_1_1DigitalSetByAssociativeContainer.html" target="_top" xlink:title=" ">
<polygon fill="white" stroke="#666666" points="500.38,-132.38 331.38,-132.38 331.38,-90.62 500.38,-90.62 500.38,-132.38"/>
<text xml:space="preserve" text-anchor="start" x="339.38" y="-118.88" font-family="FreeSans" font-size="10.00">DGtal::DigitalSetByAssociative</text>
<text xml:space="preserve" text-anchor="start" x="339.38" y="-107.62" font-family="FreeSans" font-size="10.00">Container&lt; Domain, std::unordered</text>
<text xml:space="preserve" text-anchor="middle" x="415.88" y="-96.38" font-family="FreeSans" font-size="10.00">_set&lt; Point &gt; &gt;</text>
</a>
</g>
</g>
<!-- Node1&#45;&gt;Node6 -->
<g id="edge5_Node000001_Node000006" class="edge">
<title>Node1&#45;&gt;Node6</title>
<g id="a_edge5_Node000001_Node000006"><a xlink:title=" ">
<path fill="none" stroke="orange" stroke-dasharray="5,2" d="M108.43,-182.07C127.63,-163.81 156.93,-139.65 187.75,-128 233.05,-110.87 287,-106.36 330.96,-106.31"/>
<polygon fill="orange" stroke="orange" points="106.13,-179.43 101.44,-188.93 111.03,-184.43 106.13,-179.43"/>
</a>
</g>
<text xml:space="preserve" text-anchor="start" x="194.88" y="-148" font-family="FreeSans" font-size="10.00" fill="grey">&lt; Domain, std::unordered</text>
<text xml:space="preserve" text-anchor="start" x="194.88" y="-132.75" font-family="FreeSans" font-size="10.00" fill="grey">  _set&lt; Point &gt; &gt;</text>
</g>
<!-- Node7 -->
<g id="Node000007" class="node">
<title>Node7</title>
<g id="a_Node000007"><a xlink:href="classDGtal_1_1DigitalSetByAssociativeContainer.html" target="_top" xlink:title=" ">
<polygon fill="white" stroke="#666666" points="493.25,-53 338.5,-53 338.5,0 493.25,0 493.25,-53"/>
<text xml:space="preserve" text-anchor="start" x="346.5" y="-39.5" font-family="FreeSans" font-size="10.00">DGtal::DigitalSetByAssociative</text>
<text xml:space="preserve" text-anchor="start" x="346.5" y="-28.25" font-family="FreeSans" font-size="10.00">Container&lt; DGtal::Z3i::Domain,</text>
<text xml:space="preserve" text-anchor="start" x="346.5" y="-17" font-family="FreeSans" font-size="10.00"> std::unordered_set&lt; typename</text>
<text xml:space="preserve" text-anchor="middle" x="415.88" y="-5.75" font-family="FreeSans" font-size="10.00"> DGtal::Z3i::Domain::Point &gt; &gt;</text>
</a>
</g>
</g>
<!-- Node1&#45;&gt;Node7 -->
<g id="edge6_Node000001_Node000007" class="edge">
<title>Node1&#45;&gt;Node7</title>
<g id="a_edge6_Node000001_Node000007"><a xlink:title=" ">
<path fill="none" stroke="orange" stroke-dasharray="5,2" d="M93.5,-179.06C106.11,-140.72 135.28,-70.87 187.75,-39.5 232.5,-12.75 291.49,-10.13 338.13,-13.87"/>
<polygon fill="orange" stroke="orange" points="90.22,-177.84 90.56,-188.43 96.89,-179.93 90.22,-177.84"/>
</a>
</g>
<text xml:space="preserve" text-anchor="start" x="197.5" y="-90" font-family="FreeSans" font-size="10.00" fill="grey">&lt; DGtal::Z3i::Domain,</text>
<text xml:space="preserve" text-anchor="start" x="197.5" y="-74.75" font-family="FreeSans" font-size="10.00" fill="grey">   std::unordered_set&lt;</text>
<text xml:space="preserve" text-anchor="start" x="197.5" y="-59.5" font-family="FreeSans" font-size="10.00" fill="grey">   typename DGtal::Z3i::</text>
<text xml:space="preserve" text-anchor="start" x="197.5" y="-44.25" font-family="FreeSans" font-size="10.00" fill="grey">  Domain::Point &gt; &gt;</text>
</g>
</g>
</svg>

<g id="navigator" transform="translate(0 0)" fill="#404254">
  <rect fill="#f2f5e9" fill-opacity="0.5" stroke="#606060" stroke-width=".5" x="0" y="0" width="60" height="60"/>
  <use id="zoomplus" xlink:href="#zoomPlus" x="17" y="9" onmousedown="handleZoom(evt,'in')"/>
  <use id="zoomminus" xlink:href="#zoomMin" x="42" y="9" onmousedown="handleZoom(evt,'out')"/>
  <use id="reset" xlink:href="#resetDef" x="30" y="36" onmousedown="handleReset()"/>
   <use id="arrowup" xlink:href="#arrowUp" x="0" y="0" onmousedown="handlePan(0,-1)"/>
  <use id="arrowright" xlink:href="#arrowRight" x="0" y="0" onmousedown="handlePan(1,0)"/>
  <use id="arrowdown" xlink:href="#arrowDown" x="0" y="0" onmousedown="handlePan(0,1)"/>
  <use id="arrowleft" xlink:href="#arrowLeft" x="0" y="0" onmousedown="handlePan(-1,0)"/>
</g>
<svg viewBox="0 0 15 15" width="100%" height="30px" preserveAspectRatio="xMaxYMin meet">
 <g id="arrow_out" transform="scale(0.3 0.3)">
  <a xlink:href="classDGtal_1_1DigitalSetByAssociativeContainer__inherit__graph_org.svg" target="_base">
   <rect id="button" ry="5" rx="5" y="6" x="6" height="38" width="38"
        fill="#f2f5e9" fill-opacity="0.5" stroke="#606060" stroke-width="1.0"/>
   <path id="arrow"
     d="M 11.500037,31.436501 C 11.940474,20.09759 22.043105,11.32322 32.158766,21.979434 L 37.068811,17.246167 C 37.068811,17.246167 37.088388,32 37.088388,32 L 22.160133,31.978069 C 22.160133,31.978069 26.997745,27.140456 26.997745,27.140456 C 18.528582,18.264221 13.291696,25.230495 11.500037,31.436501 z"
     style="fill:#404040;"/>
  </a>
 </g>
</svg>

<style type='text/css'>
<![CDATA[
[data-mouse-over-selected='false'] { opacity: 0.7; }
[data-mouse-over-selected='true']  { opacity: 1.0; }
]]>
</style>
<script type="application/ecmascript"><![CDATA[
document.addEventListener('DOMContentLoaded', (event) => {
  highlightEdges();
  highlightAdjacentNodes();
});
]]></script>
</svg>
