<?xml version="1.0" encoding="UTF-8" standalone="no"?>
<!DOCTYPE svg PUBLIC "-//W3C//DTD SVG 1.1//EN"
 "http://www.w3.org/Graphics/SVG/1.1/DTD/svg11.dtd">
<!-- Generated by graphviz version 14.1.0 (20251206.1807)
 -->
<!-- Title: DGtal::PowerMap&lt; TWeightImage, TPowerSeparableMetric, TImageContainer &gt; Pages: 1 -->
<!--zoomable 345 -->

<svg id="main" version="1.1" xmlns="http://www.w3.org/2000/svg" xmlns:xlink="http://www.w3.org/1999/xlink" xml:space="preserve" onload="init(evt)">

<style type="text/css"><![CDATA[
.node, .edge {opacity: 0.7;}
.node.selected, .edge.selected {opacity: 1;}
.edge:hover path { stroke: red; }
.edge:hover polygon { stroke: red; fill: red; }
]]></style>

<defs>
  <circle id="rim" cx="0" cy="0" r="7"/>
  <circle id="rim2" cx="0" cy="0" r="3.5"/>
  <g id="zoomPlus">
    <use xlink:href="#rim" fill="#404040"><set attributeName="fill" to="#808080" begin="zoomplus.mouseover" end="zoomplus.mouseout"/></use>
    <path d="M-4,0h8M0,-4v8" fill="none" stroke="white" stroke-width="1.5" pointer-events="none"/>
  </g>
  <g id="zoomMin">
    <use xlink:href="#rim" fill="#404040"><set attributeName="fill" to="#808080" begin="zoomminus.mouseover" end="zoomminus.mouseout"/></use>
    <path d="M-4,0h8" fill="none" stroke="white" stroke-width="1.5" pointer-events="none"/>
  </g>
  <g id="arrowUp" transform="translate(30 24)">
    <use xlink:href="#rim"/>
    <path pointer-events="none" fill="none" stroke="white" stroke-width="1.5" d="M0,-3.0v7 M-2.5,-0.5L0,-3.0L2.5,-0.5"/>
  </g>
  <g id="arrowRight" transform="rotate(90) translate(36 -43)">
    <use xlink:href="#rim"/>
    <path pointer-events="none" fill="none" stroke="white" stroke-width="1.5" d="M0,-3.0v7 M-2.5,-0.5L0,-3.0L2.5,-0.5"/>
  </g>
  <g id="arrowDown" transform="rotate(180) translate(-30 -48)">
    <use xlink:href="#rim"/>
    <path pointer-events="none" fill="none" stroke="white" stroke-width="1.5" d="M0,-3.0v7 M-2.5,-0.5L0,-3.0L2.5,-0.5"/>
  </g>
  <g id="arrowLeft" transform="rotate(270) translate(-36 17)">
    <use xlink:href="#rim"/>
    <path pointer-events="none" fill="none" stroke="white" stroke-width="1.5" d="M0,-3.0v7 M-2.5,-0.5L0,-3.0L2.5,-0.5"/>
  </g>
  <g id="resetDef">
    <use xlink:href="#rim2" fill="#404040"><set attributeName="fill" to="#808080" begin="reset.mouseover" end="reset.mouseout"/></use>
  </g>
</defs>
<script type="application/ecmascript">
var viewWidth = 980;
var viewHeight = 345;
var sectionId = 'dynsection-0';
</script>
<script type="application/ecmascript" xlink:href="svg.min.js"/>
<svg id="graph" class="graph">
<g id="viewport">
<title>DGtal::PowerMap&lt; TWeightImage, TPowerSeparableMetric, TImageContainer &gt;</title>
<!-- Node1 -->
<g id="Node000001" class="node">
<title>Node1</title>
<g id="a_Node000001"><a xlink:title="Aim: Implementation of the linear in time Power map construction.">
<polygon fill="#999999" stroke="#666666" points="158.75,-236.25 2.5,-236.25 2.5,-194.5 158.75,-194.5 158.75,-236.25"/>
<text xml:space="preserve" text-anchor="start" x="10.5" y="-222.75" font-family="FreeSans" font-size="10.00">DGtal::PowerMap&lt; TWeight</text>
<text xml:space="preserve" text-anchor="start" x="10.5" y="-211.5" font-family="FreeSans" font-size="10.00">Image, TPowerSeparableMetric,</text>
<text xml:space="preserve" text-anchor="middle" x="80.62" y="-200.25" font-family="FreeSans" font-size="10.00"> TImageContainer &gt;</text>
</a>
</g>
</g>
<!-- Node1&#45;&gt;Node1 -->
<g id="edge1_Node000001_Node000001" class="edge">
<title>Node1&#45;&gt;Node1</title>
<g id="a_edge1_Node000001_Node000001"><a xlink:title=" ">
<path fill="none" stroke="orange" stroke-dasharray="5,2" d="M63.92,-247.7C66.91,-251.66 72.48,-254.25 80.62,-254.25 95.11,-254.25 101.45,-246.05 99.64,-236.57"/>
<polygon fill="orange" stroke="orange" points="67.37,-247.13 61.92,-238.05 60.52,-248.55 67.37,-247.13"/>
</a>
</g>
<text xml:space="preserve" text-anchor="start" x="3" y="-274.25" font-family="FreeSans" font-size="10.00" fill="grey">&lt; TWeightImage, TPowerSeparable</text>
<text xml:space="preserve" text-anchor="start" x="3" y="-259" font-family="FreeSans" font-size="10.00" fill="grey">  Metric, TImageContainer &gt;</text>
</g>
<!-- Node1&#45;&gt;Node1 -->
<g id="edge5_Node000001_Node000001" class="edge">
<title>Node1&#45;&gt;Node1</title>
<g id="a_edge5_Node000001_Node000001"><a xlink:title=" ">
<path fill="none" stroke="orange" stroke-dasharray="5,2" d="M44.28,-246.62C36.5,-266.5 48.62,-286.75 80.62,-286.75 118.04,-286.75 128.27,-259.08 111.32,-236.68"/>
<polygon fill="orange" stroke="orange" points="47.29,-248.42 49.18,-237.99 41.2,-244.96 47.29,-248.42"/>
</a>
</g>
<text xml:space="preserve" text-anchor="start" x="3" y="-306.75" font-family="FreeSans" font-size="10.00" fill="grey">&lt; TWeightImage, TPowerSeparable</text>
<text xml:space="preserve" text-anchor="start" x="3" y="-291.5" font-family="FreeSans" font-size="10.00" fill="grey">  Metric, TImageContainer &gt;</text>
</g>
<!-- Node2 -->
<g id="Node000002" class="node">
<title>Node2</title>
<g id="a_Node000002"><a xlink:href="classDGtal_1_1ReverseDistanceTransformation.html" target="_top" xlink:title=" ">
<polygon fill="white" stroke="#666666" points="971.5,-313.25 783,-313.25 783,-271.5 971.5,-271.5 971.5,-313.25"/>
<text xml:space="preserve" text-anchor="start" x="791" y="-299.75" font-family="FreeSans" font-size="10.00">DGtal::ReverseDistanceTransformation</text>
<text xml:space="preserve" text-anchor="start" x="791" y="-288.5" font-family="FreeSans" font-size="10.00">&lt; TWeightImage, TPSeparableMetric,</text>
<text xml:space="preserve" text-anchor="middle" x="877.25" y="-277.25" font-family="FreeSans" font-size="10.00"> TImageContainer &gt;</text>
</a>
</g>
</g>
<!-- Node1&#45;&gt;Node2 -->
<g id="edge2_Node000001_Node000002" class="edge">
<title>Node1&#45;&gt;Node2</title>
<g id="a_edge2_Node000001_Node000002"><a xlink:title=" ">
<path fill="none" stroke="#63b8ff" d="M116.8,-243.17C133.91,-255.18 155.38,-268.11 176.75,-275.38 383.79,-345.71 645.5,-325.54 782.65,-307.37"/>
<polygon fill="#63b8ff" stroke="#63b8ff" points="119.14,-240.55 108.99,-237.53 115.04,-246.22 119.14,-240.55"/>
</a>
</g>
</g>
<!-- Node3 -->
<g id="Node000003" class="node">
<title>Node3</title>
<g id="a_Node000003"><a xlink:href="classDGtal_1_1ReverseDistanceTransformation.html" target="_top" xlink:title="Aim: Implementation of the linear in time reverse distance transformation for separable metrics.">
<polygon fill="white" stroke="#666666" points="604.88,-288.25 416.38,-288.25 416.38,-246.5 604.88,-246.5 604.88,-288.25"/>
<text xml:space="preserve" text-anchor="start" x="424.38" y="-274.75" font-family="FreeSans" font-size="10.00">DGtal::ReverseDistanceTransformation</text>
<text xml:space="preserve" text-anchor="start" x="424.38" y="-263.5" font-family="FreeSans" font-size="10.00">&lt; TWeightImage, TPSeparableMetric,</text>
<text xml:space="preserve" text-anchor="middle" x="510.62" y="-252.25" font-family="FreeSans" font-size="10.00"> TImageContainer &gt;</text>
</a>
</g>
</g>
<!-- Node1&#45;&gt;Node3 -->
<g id="edge3_Node000001_Node000003" class="edge">
<title>Node1&#45;&gt;Node3</title>
<g id="a_edge3_Node000001_Node000003"><a xlink:title=" ">
<path fill="none" stroke="#63b8ff" d="M139.91,-240.71C151.89,-244.98 164.57,-248.84 176.75,-251.38 256.34,-267.92 348.83,-271.12 416.09,-270.64"/>
<polygon fill="#63b8ff" stroke="#63b8ff" points="141.15,-237.44 130.56,-237.23 138.71,-244 141.15,-237.44"/>
</a>
</g>
</g>
<!-- Node4 -->
<g id="Node000004" class="node">
<title>Node4</title>
<g id="a_Node000004"><a xlink:href="classDGtal_1_1PowerMap.html" target="_top" xlink:title=" ">
<polygon fill="white" stroke="#666666" points="581.25,-228.62 440,-228.62 440,-198.12 581.25,-198.12 581.25,-228.62"/>
<text xml:space="preserve" text-anchor="start" x="448" y="-215.12" font-family="FreeSans" font-size="10.00">DGtal::PowerMap&lt; TWeight</text>
<text xml:space="preserve" text-anchor="middle" x="510.62" y="-203.88" font-family="FreeSans" font-size="10.00">Image, TPSeparableMetric &gt;</text>
</a>
</g>
</g>
<!-- Node1&#45;&gt;Node4 -->
<g id="edge6_Node000001_Node000004" class="edge">
<title>Node1&#45;&gt;Node4</title>
<g id="a_edge6_Node000001_Node000004"><a xlink:title=" ">
<path fill="none" stroke="orange" stroke-dasharray="5,2" d="M170.17,-214.96C250.12,-214.59 366.2,-214.05 439.78,-213.7"/>
<polygon fill="orange" stroke="orange" points="170.63,-211.46 160.65,-215.01 170.66,-218.46 170.63,-211.46"/>
</a>
</g>
<text xml:space="preserve" text-anchor="start" x="219.5" y="-234.89" font-family="FreeSans" font-size="10.00" fill="grey">&lt; TWeightImage, TPSeparable</text>
<text xml:space="preserve" text-anchor="start" x="219.5" y="-219.64" font-family="FreeSans" font-size="10.00" fill="grey">  Metric &gt;</text>
</g>
<!-- Node5 -->
<g id="Node000005" class="node">
<title>Node5</title>
<g id="a_Node000005"><a xlink:href="classDGtal_1_1PowerMap.html" target="_top" xlink:title=" ">
<polygon fill="white" stroke="#666666" points="606.75,-159.62 414.5,-159.62 414.5,-129.12 606.75,-129.12 606.75,-159.62"/>
<text xml:space="preserve" text-anchor="start" x="422.5" y="-146.12" font-family="FreeSans" font-size="10.00">DGtal::Domain&lt; TWeightImage,</text>
<text xml:space="preserve" text-anchor="middle" x="510.62" y="-134.88" font-family="FreeSans" font-size="10.00"> TPSeparableMetric, TImageContainer &gt;</text>
</a>
</g>
</g>
<!-- Node1&#45;&gt;Node5 -->
<g id="edge7_Node000001_Node000005" class="edge">
<title>Node1&#45;&gt;Node5</title>
<g id="a_edge7_Node000001_Node000005"><a xlink:title=" ">
<path fill="none" stroke="orange" stroke-dasharray="5,2" d="M121.52,-187.98C137.9,-178.16 157.52,-168.17 176.75,-162.62 254.47,-140.23 346.54,-136.85 414.12,-138.39"/>
<polygon fill="orange" stroke="orange" points="119.71,-184.98 113.05,-193.22 123.4,-190.93 119.71,-184.98"/>
</a>
</g>
<text xml:space="preserve" text-anchor="start" x="219.5" y="-197.88" font-family="FreeSans" font-size="10.00" fill="grey">&lt; TWeightImage, TPSeparable</text>
<text xml:space="preserve" text-anchor="start" x="219.5" y="-182.62" font-family="FreeSans" font-size="10.00" fill="grey">  Metric, TImageContainer</text>
<text xml:space="preserve" text-anchor="start" x="219.5" y="-167.38" font-family="FreeSans" font-size="10.00" fill="grey">   &gt;::Domain</text>
</g>
<!-- Node6 -->
<g id="Node000006" class="node">
<title>Node6</title>
<g id="a_Node000006"><a xlink:href="classDGtal_1_1PowerMap.html" target="_top" xlink:title=" ">
<polygon fill="white" stroke="#666666" points="600.38,-86.75 420.88,-86.75 420.88,0 600.38,0 600.38,-86.75"/>
<text xml:space="preserve" text-anchor="start" x="428.88" y="-73.25" font-family="FreeSans" font-size="10.00">DGtal::PowerMap&lt; TWeight</text>
<text xml:space="preserve" text-anchor="start" x="428.88" y="-62" font-family="FreeSans" font-size="10.00">Image, TPSeparableMetric,</text>
<text xml:space="preserve" text-anchor="start" x="428.88" y="-50.75" font-family="FreeSans" font-size="10.00"> ImageContainerBySTLVector</text>
<text xml:space="preserve" text-anchor="start" x="428.88" y="-39.5" font-family="FreeSans" font-size="10.00">&lt; HyperRectDomain&lt; typename</text>
<text xml:space="preserve" text-anchor="start" x="428.88" y="-28.25" font-family="FreeSans" font-size="10.00"> TWeightImage::Domain::Space</text>
<text xml:space="preserve" text-anchor="start" x="428.88" y="-17" font-family="FreeSans" font-size="10.00"> &gt;, typename TWeightImage::Domain</text>
<text xml:space="preserve" text-anchor="middle" x="510.62" y="-5.75" font-family="FreeSans" font-size="10.00">::Space::Vector &gt; &gt;</text>
</a>
</g>
</g>
<!-- Node1&#45;&gt;Node6 -->
<g id="edge8_Node000001_Node000006" class="edge">
<title>Node1&#45;&gt;Node6</title>
<g id="a_edge8_Node000001_Node000006"><a xlink:title=" ">
<path fill="none" stroke="orange" stroke-dasharray="5,2" d="M90.59,-183.24C103.05,-145.38 129.56,-84.11 176.75,-56.12 250.12,-12.61 349.45,-15.01 420.47,-24.85"/>
<polygon fill="orange" stroke="orange" points="87.27,-182.14 87.62,-192.73 93.95,-184.23 87.27,-182.14"/>
</a>
</g>
<text xml:space="preserve" text-anchor="start" x="179.75" y="-121.88" font-family="FreeSans" font-size="10.00" fill="grey">&lt; TWeightImage, TPSeparable</text>
<text xml:space="preserve" text-anchor="start" x="179.75" y="-106.62" font-family="FreeSans" font-size="10.00" fill="grey">  Metric, ImageContainerBySTLVector</text>
<text xml:space="preserve" text-anchor="start" x="179.75" y="-91.38" font-family="FreeSans" font-size="10.00" fill="grey">  &lt; HyperRectDomain&lt; typename TWeightImage</text>
<text xml:space="preserve" text-anchor="start" x="179.75" y="-76.12" font-family="FreeSans" font-size="10.00" fill="grey">  ::Domain::Space &gt;, typename TWeightImage</text>
<text xml:space="preserve" text-anchor="start" x="179.75" y="-60.88" font-family="FreeSans" font-size="10.00" fill="grey">  ::Domain::Space::Vector &gt; &gt;</text>
</g>
<!-- Node3&#45;&gt;Node2 -->
<g id="edge4_Node000003_Node000002" class="edge">
<title>Node3&#45;&gt;Node2</title>
<g id="a_edge4_Node000003_Node000002"><a xlink:title=" ">
<path fill="none" stroke="orange" stroke-dasharray="5,2" d="M616.56,-263.96C662.27,-263.62 716.4,-264.77 765,-269.88 770.78,-270.48 776.71,-271.25 782.67,-272.13"/>
<polygon fill="orange" stroke="orange" points="616.6,-260.46 606.64,-264.06 616.67,-267.46 616.6,-260.46"/>
</a>
</g>
<text xml:space="preserve" text-anchor="start" x="627.75" y="-289.88" font-family="FreeSans" font-size="10.00" fill="grey">&lt; TWeightImage, TPSeparable</text>
<text xml:space="preserve" text-anchor="start" x="627.75" y="-274.62" font-family="FreeSans" font-size="10.00" fill="grey">  Metric, TImageContainer &gt;</text>
</g>
</g>
</svg>

<g id="navigator" transform="translate(0 0)" fill="#404254">
  <rect fill="#f2f5e9" fill-opacity="0.5" stroke="#606060" stroke-width=".5" x="0" y="0" width="60" height="60"/>
  <use id="zoomplus" xlink:href="#zoomPlus" x="17" y="9" onmousedown="handleZoom(evt,'in')"/>
  <use id="zoomminus" xlink:href="#zoomMin" x="42" y="9" onmousedown="handleZoom(evt,'out')"/>
  <use id="reset" xlink:href="#resetDef" x="30" y="36" onmousedown="handleReset()"/>
   <use id="arrowup" xlink:href="#arrowUp" x="0" y="0" onmousedown="handlePan(0,-1)"/>
  <use id="arrowright" xlink:href="#arrowRight" x="0" y="0" onmousedown="handlePan(1,0)"/>
  <use id="arrowdown" xlink:href="#arrowDown" x="0" y="0" onmousedown="handlePan(0,1)"/>
  <use id="arrowleft" xlink:href="#arrowLeft" x="0" y="0" onmousedown="handlePan(-1,0)"/>
</g>
<svg viewBox="0 0 15 15" width="100%" height="30px" preserveAspectRatio="xMaxYMin meet">
 <g id="arrow_out" transform="scale(0.3 0.3)">
  <a xlink:href="classDGtal_1_1PowerMap__inherit__graph_org.svg" target="_base">
   <rect id="button" ry="5" rx="5" y="6" x="6" height="38" width="38"
        fill="#f2f5e9" fill-opacity="0.5" stroke="#606060" stroke-width="1.0"/>
   <path id="arrow"
     d="M 11.500037,31.436501 C 11.940474,20.09759 22.043105,11.32322 32.158766,21.979434 L 37.068811,17.246167 C 37.068811,17.246167 37.088388,32 37.088388,32 L 22.160133,31.978069 C 22.160133,31.978069 26.997745,27.140456 26.997745,27.140456 C 18.528582,18.264221 13.291696,25.230495 11.500037,31.436501 z"
     style="fill:#404040;"/>
  </a>
 </g>
</svg>

<style type='text/css'>
<![CDATA[
[data-mouse-over-selected='false'] { opacity: 0.7; }
[data-mouse-over-selected='true']  { opacity: 1.0; }
]]>
</style>
<script type="application/ecmascript"><![CDATA[
document.addEventListener('DOMContentLoaded', (event) => {
  highlightEdges();
  highlightAdjacentNodes();
});
]]></script>
</svg>
