<?xml version="1.0" encoding="UTF-8" standalone="no"?>
<!DOCTYPE svg PUBLIC "-//W3C//DTD SVG 1.1//EN"
 "http://www.w3.org/Graphics/SVG/1.1/DTD/svg11.dtd">
<!-- Generated by graphviz version 14.1.0 (20251206.1807)
 -->
<!-- Title: DGtal::ImplicitFunctionDiff1LinearCellEmbedder&lt; TKSpace, TImplicitFunctionDiff1, TEmbedder &gt; Pages: 1 -->
<!--zoomable 89 -->

<svg id="main" version="1.1" xmlns="http://www.w3.org/2000/svg" xmlns:xlink="http://www.w3.org/1999/xlink" xml:space="preserve" onload="init(evt)">

<style type="text/css"><![CDATA[
.node, .edge {opacity: 0.7;}
.node.selected, .edge.selected {opacity: 1;}
.edge:hover path { stroke: red; }
.edge:hover polygon { stroke: red; fill: red; }
]]></style>

<defs>
  <circle id="rim" cx="0" cy="0" r="7"/>
  <circle id="rim2" cx="0" cy="0" r="3.5"/>
  <g id="zoomPlus">
    <use xlink:href="#rim" fill="#404040"><set attributeName="fill" to="#808080" begin="zoomplus.mouseover" end="zoomplus.mouseout"/></use>
    <path d="M-4,0h8M0,-4v8" fill="none" stroke="white" stroke-width="1.5" pointer-events="none"/>
  </g>
  <g id="zoomMin">
    <use xlink:href="#rim" fill="#404040"><set attributeName="fill" to="#808080" begin="zoomminus.mouseover" end="zoomminus.mouseout"/></use>
    <path d="M-4,0h8" fill="none" stroke="white" stroke-width="1.5" pointer-events="none"/>
  </g>
  <g id="arrowUp" transform="translate(30 24)">
    <use xlink:href="#rim"/>
    <path pointer-events="none" fill="none" stroke="white" stroke-width="1.5" d="M0,-3.0v7 M-2.5,-0.5L0,-3.0L2.5,-0.5"/>
  </g>
  <g id="arrowRight" transform="rotate(90) translate(36 -43)">
    <use xlink:href="#rim"/>
    <path pointer-events="none" fill="none" stroke="white" stroke-width="1.5" d="M0,-3.0v7 M-2.5,-0.5L0,-3.0L2.5,-0.5"/>
  </g>
  <g id="arrowDown" transform="rotate(180) translate(-30 -48)">
    <use xlink:href="#rim"/>
    <path pointer-events="none" fill="none" stroke="white" stroke-width="1.5" d="M0,-3.0v7 M-2.5,-0.5L0,-3.0L2.5,-0.5"/>
  </g>
  <g id="arrowLeft" transform="rotate(270) translate(-36 17)">
    <use xlink:href="#rim"/>
    <path pointer-events="none" fill="none" stroke="white" stroke-width="1.5" d="M0,-3.0v7 M-2.5,-0.5L0,-3.0L2.5,-0.5"/>
  </g>
  <g id="resetDef">
    <use xlink:href="#rim2" fill="#404040"><set attributeName="fill" to="#808080" begin="reset.mouseover" end="reset.mouseout"/></use>
  </g>
</defs>
<script type="application/ecmascript">
var viewWidth = 716;
var viewHeight = 89;
var sectionId = 'dynsection-0';
</script>
<script type="application/ecmascript" xlink:href="svg.min.js"/>
<svg id="graph" class="graph">
<g id="viewport">
<title>DGtal::ImplicitFunctionDiff1LinearCellEmbedder&lt; TKSpace, TImplicitFunctionDiff1, TEmbedder &gt;</title>
<!-- Node1 -->
<g id="Node000001" class="node">
<title>Node1</title>
<g id="a_Node000001"><a xlink:title="Aim: a cellular embedder for implicit functions, (default constructible, copy constructible,...">
<polygon fill="#999999" stroke="#666666" points="180.25,-74.38 0,-74.38 0,-32.62 180.25,-32.62 180.25,-74.38"/>
<text xml:space="preserve" text-anchor="start" x="8" y="-60.88" font-family="FreeSans" font-size="10.00">DGtal::ImplicitFunctionDiff1</text>
<text xml:space="preserve" text-anchor="start" x="8" y="-49.62" font-family="FreeSans" font-size="10.00">LinearCellEmbedder&lt; TKSpace,</text>
<text xml:space="preserve" text-anchor="middle" x="90.12" y="-38.38" font-family="FreeSans" font-size="10.00"> TImplicitFunctionDiff1, TEmbedder &gt;</text>
</a>
</g>
</g>
<!-- Node2 -->
<g id="Node000002" class="node">
<title>Node2</title>
<g id="a_Node000002"><a xlink:href="classDGtal_1_1ImplicitFunctionDiff1LinearCellEmbedderGradientMap.html" target="_top" xlink:title=" ">
<polygon fill="white" stroke="#666666" points="707.5,-81 548.25,-81 548.25,-28 707.5,-28 707.5,-81"/>
<text xml:space="preserve" text-anchor="start" x="556.25" y="-67.5" font-family="FreeSans" font-size="10.00">DGtal::ImplicitFunctionDiff1</text>
<text xml:space="preserve" text-anchor="start" x="556.25" y="-56.25" font-family="FreeSans" font-size="10.00">LinearCellEmbedderGradientMap</text>
<text xml:space="preserve" text-anchor="start" x="556.25" y="-45" font-family="FreeSans" font-size="10.00">&lt; KSpace, ImplicitFunctionDiff1,</text>
<text xml:space="preserve" text-anchor="middle" x="627.88" y="-33.75" font-family="FreeSans" font-size="10.00"> Embedder &gt;</text>
</a>
</g>
</g>
<!-- Node1&#45;&gt;Node2 -->
<g id="edge1_Node000001_Node000002" class="edge">
<title>Node1&#45;&gt;Node2</title>
<g id="a_edge1_Node000001_Node000002"><a xlink:title=" ">
<path fill="none" stroke="#63b8ff" d="M191.92,-61.1C200.49,-61.62 209.02,-62.1 217.25,-62.5 356.21,-69.3 391.43,-76.8 530.25,-67.5 535.99,-67.12 541.91,-66.6 547.86,-66.01"/>
<polygon fill="#63b8ff" stroke="#63b8ff" points="192.38,-57.62 182.18,-60.48 191.94,-64.6 192.38,-57.62"/>
</a>
</g>
</g>
<!-- Node3 -->
<g id="Node000003" class="node">
<title>Node3</title>
<g id="a_Node000003"><a xlink:href="classDGtal_1_1ImplicitFunctionDiff1LinearCellEmbedderGradientMap.html" target="_top" xlink:title="Forward declaration.">
<polygon fill="white" stroke="#666666" points="387.75,-53 217.25,-53 217.25,0 387.75,0 387.75,-53"/>
<text xml:space="preserve" text-anchor="start" x="225.25" y="-39.5" font-family="FreeSans" font-size="10.00">DGtal::ImplicitFunctionDiff1</text>
<text xml:space="preserve" text-anchor="start" x="225.25" y="-28.25" font-family="FreeSans" font-size="10.00">LinearCellEmbedderGradientMap</text>
<text xml:space="preserve" text-anchor="start" x="225.25" y="-17" font-family="FreeSans" font-size="10.00">&lt; TKSpace, TImplicitFunctionDiff1,</text>
<text xml:space="preserve" text-anchor="middle" x="302.5" y="-5.75" font-family="FreeSans" font-size="10.00"> TEmbedder &gt;</text>
</a>
</g>
</g>
<!-- Node1&#45;&gt;Node3 -->
<g id="edge2_Node000001_Node000003" class="edge">
<title>Node1&#45;&gt;Node3</title>
<g id="a_edge2_Node000001_Node000003"><a xlink:title=" ">
<path fill="none" stroke="#63b8ff" d="M192.03,-40.55C200.41,-39.47 208.83,-38.39 217.07,-37.34"/>
<polygon fill="#63b8ff" stroke="#63b8ff" points="191.62,-37.07 182.15,-41.82 192.51,-44.02 191.62,-37.07"/>
</a>
</g>
</g>
<!-- Node3&#45;&gt;Node2 -->
<g id="edge3_Node000003_Node000002" class="edge">
<title>Node3&#45;&gt;Node2</title>
<g id="a_edge3_Node000003_Node000002"><a xlink:title=" ">
<path fill="none" stroke="orange" stroke-dasharray="5,2" d="M399.5,-26.67C439.98,-27.63 487.52,-29.92 530.25,-35 536.03,-35.69 541.98,-36.54 547.95,-37.49"/>
<polygon fill="orange" stroke="orange" points="399.6,-23.17 389.53,-26.46 399.45,-30.17 399.6,-23.17"/>
</a>
</g>
<text xml:space="preserve" text-anchor="start" x="408.75" y="-55" font-family="FreeSans" font-size="10.00" fill="grey">&lt; KSpace, ImplicitFunction</text>
<text xml:space="preserve" text-anchor="start" x="408.75" y="-39.75" font-family="FreeSans" font-size="10.00" fill="grey">  Diff1, Embedder &gt;</text>
</g>
</g>
</svg>

<g id="navigator" transform="translate(0 0)" fill="#404254">
  <rect fill="#f2f5e9" fill-opacity="0.5" stroke="#606060" stroke-width=".5" x="0" y="0" width="60" height="60"/>
  <use id="zoomplus" xlink:href="#zoomPlus" x="17" y="9" onmousedown="handleZoom(evt,'in')"/>
  <use id="zoomminus" xlink:href="#zoomMin" x="42" y="9" onmousedown="handleZoom(evt,'out')"/>
  <use id="reset" xlink:href="#resetDef" x="30" y="36" onmousedown="handleReset()"/>
   <use id="arrowup" xlink:href="#arrowUp" x="0" y="0" onmousedown="handlePan(0,-1)"/>
  <use id="arrowright" xlink:href="#arrowRight" x="0" y="0" onmousedown="handlePan(1,0)"/>
  <use id="arrowdown" xlink:href="#arrowDown" x="0" y="0" onmousedown="handlePan(0,1)"/>
  <use id="arrowleft" xlink:href="#arrowLeft" x="0" y="0" onmousedown="handlePan(-1,0)"/>
</g>
<svg viewBox="0 0 15 15" width="100%" height="30px" preserveAspectRatio="xMaxYMin meet">
 <g id="arrow_out" transform="scale(0.3 0.3)">
  <a xlink:href="classDGtal_1_1ImplicitFunctionDiff1LinearCellEmbedder__inherit__graph_org.svg" target="_base">
   <rect id="button" ry="5" rx="5" y="6" x="6" height="38" width="38"
        fill="#f2f5e9" fill-opacity="0.5" stroke="#606060" stroke-width="1.0"/>
   <path id="arrow"
     d="M 11.500037,31.436501 C 11.940474,20.09759 22.043105,11.32322 32.158766,21.979434 L 37.068811,17.246167 C 37.068811,17.246167 37.088388,32 37.088388,32 L 22.160133,31.978069 C 22.160133,31.978069 26.997745,27.140456 26.997745,27.140456 C 18.528582,18.264221 13.291696,25.230495 11.500037,31.436501 z"
     style="fill:#404040;"/>
  </a>
 </g>
</svg>

<style type='text/css'>
<![CDATA[
[data-mouse-over-selected='false'] { opacity: 0.7; }
[data-mouse-over-selected='true']  { opacity: 1.0; }
]]>
</style>
<script type="application/ecmascript"><![CDATA[
document.addEventListener('DOMContentLoaded', (event) => {
  highlightEdges();
  highlightAdjacentNodes();
});
]]></script>
</svg>
