<?xml version="1.0" encoding="UTF-8" standalone="no"?>
<!DOCTYPE svg PUBLIC "-//W3C//DTD SVG 1.1//EN"
 "http://www.w3.org/Graphics/SVG/1.1/DTD/svg11.dtd">
<!-- Generated by graphviz version 14.1.0 (20251206.1807)
 -->
<!-- Title: DGtal::DigitalSetBySTLSet&lt; TDomain, TCompare &gt; Pages: 1 -->
<svg width="418pt" height="137pt"
 viewBox="0.00 0.00 418.00 137.00" xmlns="http://www.w3.org/2000/svg" xmlns:xlink="http://www.w3.org/1999/xlink">
<g id="graph0" class="graph" transform="scale(1 1) rotate(0) translate(4 132.5)">
<title>DGtal::DigitalSetBySTLSet&lt; TDomain, TCompare &gt;</title>
<!-- Node1 -->
<g id="Node000001" class="node">
<title>Node1</title>
<g id="a_Node000001"><a xlink:title="Aim: A container class for storing sets of digital points within some given domain.">
<polygon fill="#999999" stroke="#666666" points="135.25,-79.5 0,-79.5 0,-49 135.25,-49 135.25,-79.5"/>
<text xml:space="preserve" text-anchor="start" x="8" y="-66" font-family="FreeSans" font-size="10.00">DGtal::DigitalSetBySTLSet</text>
<text xml:space="preserve" text-anchor="middle" x="67.62" y="-54.75" font-family="FreeSans" font-size="10.00">&lt; TDomain, TCompare &gt;</text>
</a>
</g>
</g>
<!-- Node2 -->
<g id="Node000002" class="node">
<title>Node2</title>
<g id="a_Node000002"><a xlink:href="classDGtal_1_1DigitalSetBySTLSet.html" target="_top" xlink:title=" ">
<polygon fill="white" stroke="#666666" points="410,-128.5 274.75,-128.5 274.75,-98 410,-98 410,-128.5"/>
<text xml:space="preserve" text-anchor="start" x="282.75" y="-115" font-family="FreeSans" font-size="10.00">DGtal::DigitalSetBySTLSet</text>
<text xml:space="preserve" text-anchor="middle" x="342.38" y="-103.75" font-family="FreeSans" font-size="10.00">&lt; Domain, Compare &gt;</text>
</a>
</g>
</g>
<!-- Node1&#45;&gt;Node2 -->
<g id="edge1_Node000001_Node000002" class="edge">
<title>Node1&#45;&gt;Node2</title>
<g id="a_edge1_Node000001_Node000002"><a xlink:title=" ">
<path fill="none" stroke="orange" stroke-dasharray="5,2" d="M140.09,-82.49C144.53,-83.47 148.95,-84.4 153.25,-85.25 193.25,-93.17 238.44,-99.97 274.5,-104.88"/>
<polygon fill="orange" stroke="orange" points="141.03,-79.12 130.5,-80.32 139.48,-85.94 141.03,-79.12"/>
</a>
</g>
<text xml:space="preserve" text-anchor="start" x="156.25" y="-106.95" font-family="FreeSans" font-size="10.00" fill="grey">&lt; Domain, Compare &gt;</text>
</g>
<!-- Node3 -->
<g id="Node000003" class="node">
<title>Node3</title>
<g id="a_Node000003"><a xlink:href="classDGtal_1_1DigitalSetBySTLSet.html" target="_top" xlink:title=" ">
<polygon fill="white" stroke="#666666" points="410,-79.5 274.75,-79.5 274.75,-49 410,-49 410,-79.5"/>
<text xml:space="preserve" text-anchor="start" x="282.75" y="-66" font-family="FreeSans" font-size="10.00">DGtal::DigitalSetBySTLSet</text>
<text xml:space="preserve" text-anchor="middle" x="342.38" y="-54.75" font-family="FreeSans" font-size="10.00">&lt; Z2i::Domain &gt;</text>
</a>
</g>
</g>
<!-- Node1&#45;&gt;Node3 -->
<g id="edge2_Node000001_Node000003" class="edge">
<title>Node1&#45;&gt;Node3</title>
<g id="a_edge2_Node000001_Node000003"><a xlink:title=" ">
<path fill="none" stroke="orange" stroke-dasharray="5,2" d="M147.11,-64.25C187.43,-64.25 236.05,-64.25 274.56,-64.25"/>
<polygon fill="orange" stroke="orange" points="147.21,-60.75 137.21,-64.25 147.21,-67.75 147.21,-60.75"/>
</a>
</g>
<text xml:space="preserve" text-anchor="start" x="169.38" y="-69" font-family="FreeSans" font-size="10.00" fill="grey">&lt; Z2i::Domain &gt;</text>
</g>
<!-- Node4 -->
<g id="Node000004" class="node">
<title>Node4</title>
<g id="a_Node000004"><a xlink:href="classDGtal_1_1DigitalSetBySTLSet.html" target="_top" xlink:title=" ">
<polygon fill="white" stroke="#666666" points="410,-30.5 274.75,-30.5 274.75,0 410,0 410,-30.5"/>
<text xml:space="preserve" text-anchor="start" x="282.75" y="-17" font-family="FreeSans" font-size="10.00">DGtal::DigitalSetBySTLSet</text>
<text xml:space="preserve" text-anchor="middle" x="342.38" y="-5.75" font-family="FreeSans" font-size="10.00">&lt; Z3i::Domain &gt;</text>
</a>
</g>
</g>
<!-- Node1&#45;&gt;Node4 -->
<g id="edge3_Node000001_Node000004" class="edge">
<title>Node1&#45;&gt;Node4</title>
<g id="a_edge3_Node000001_Node000004"><a xlink:title=" ">
<path fill="none" stroke="orange" stroke-dasharray="5,2" d="M139.18,-45.97C143.93,-44.92 148.65,-43.91 153.25,-43 193.24,-35.05 238.43,-28.31 274.49,-23.47"/>
<polygon fill="orange" stroke="orange" points="138.53,-42.53 129.57,-48.19 140.1,-49.35 138.53,-42.53"/>
</a>
</g>
<text xml:space="preserve" text-anchor="start" x="169.38" y="-47.75" font-family="FreeSans" font-size="10.00" fill="grey">&lt; Z3i::Domain &gt;</text>
</g>
</g>
</svg>
