<?xml version="1.0" encoding="UTF-8" standalone="no"?>
<!DOCTYPE svg PUBLIC "-//W3C//DTD SVG 1.1//EN"
 "http://www.w3.org/Graphics/SVG/1.1/DTD/svg11.dtd">
<!-- Generated by graphviz version 14.1.0 (20251206.1807)
 -->
<!-- Title: DGtal::KhalimskySpaceND&lt; dim, TInteger &gt; Pages: 1 -->
<svg width="956pt" height="238pt"
 viewBox="0.00 0.00 956.00 238.00" xmlns="http://www.w3.org/2000/svg" xmlns:xlink="http://www.w3.org/1999/xlink">
<g id="graph0" class="graph" transform="scale(1 1) rotate(0) translate(4 233.5)">
<title>DGtal::KhalimskySpaceND&lt; dim, TInteger &gt;</title>
<!-- Node1 -->
<g id="Node000001" class="node">
<title>Node1</title>
<g id="a_Node000001"><a xlink:title="Aim: This class is a model of CCellularGridSpaceND. It represents the cubical grid as a cell complex,...">
<polygon fill="#999999" stroke="#666666" points="641.5,-131.5 505.5,-131.5 505.5,-101 641.5,-101 641.5,-131.5"/>
<text xml:space="preserve" text-anchor="start" x="513.5" y="-118" font-family="FreeSans" font-size="10.00">DGtal::KhalimskySpaceND</text>
<text xml:space="preserve" text-anchor="middle" x="573.5" y="-106.75" font-family="FreeSans" font-size="10.00">&lt; dim, TInteger &gt;</text>
</a>
</g>
</g>
<!-- Node4 -->
<g id="Node000004" class="node">
<title>Node4</title>
<g id="a_Node000004"><a xlink:href="classDGtal_1_1KhalimskySpaceND.html" target="_top" xlink:title=" ">
<polygon fill="white" stroke="#666666" points="939.5,-229.5 803.5,-229.5 803.5,-199 939.5,-199 939.5,-229.5"/>
<text xml:space="preserve" text-anchor="start" x="811.5" y="-216" font-family="FreeSans" font-size="10.00">DGtal::KhalimskySpaceND</text>
<text xml:space="preserve" text-anchor="middle" x="871.5" y="-204.75" font-family="FreeSans" font-size="10.00">&lt; dimAmbient, TInteger &gt;</text>
</a>
</g>
</g>
<!-- Node1&#45;&gt;Node4 -->
<g id="edge3_Node000001_Node000004" class="edge">
<title>Node1&#45;&gt;Node4</title>
<g id="a_edge3_Node000001_Node000004"><a xlink:title=" ">
<path fill="none" stroke="orange" stroke-dasharray="5,2" d="M600.42,-139.09C616.4,-151.95 637.91,-167.21 659.5,-176.25 705.34,-195.44 760.75,-204.95 803.28,-209.65"/>
<polygon fill="orange" stroke="orange" points="602.79,-136.5 592.86,-132.82 598.32,-141.89 602.79,-136.5"/>
</a>
</g>
<text xml:space="preserve" text-anchor="start" x="662.5" y="-211.07" font-family="FreeSans" font-size="10.00" fill="grey">&lt; dimAmbient, TInteger &gt;</text>
</g>
<!-- Node5 -->
<g id="Node000005" class="node">
<title>Node5</title>
<g id="a_Node000005"><a xlink:href="classDGtal_1_1KhalimskySpaceND.html" target="_top" xlink:title=" ">
<polygon fill="white" stroke="#666666" points="939.5,-180.5 803.5,-180.5 803.5,-150 939.5,-150 939.5,-180.5"/>
<text xml:space="preserve" text-anchor="start" x="811.5" y="-167" font-family="FreeSans" font-size="10.00">DGtal::KhalimskySpaceND</text>
<text xml:space="preserve" text-anchor="middle" x="871.5" y="-155.75" font-family="FreeSans" font-size="10.00">&lt; 2, Integer &gt;</text>
</a>
</g>
</g>
<!-- Node1&#45;&gt;Node5 -->
<g id="edge4_Node000001_Node000005" class="edge">
<title>Node1&#45;&gt;Node5</title>
<g id="a_edge4_Node000001_Node000005"><a xlink:title=" ">
<path fill="none" stroke="orange" stroke-dasharray="5,2" d="M645.62,-134.43C650.31,-135.44 654.96,-136.39 659.5,-137.25 707.25,-146.29 761.61,-153.43 803.2,-158.24"/>
<polygon fill="orange" stroke="orange" points="646.68,-131.08 636.16,-132.32 645.16,-137.91 646.68,-131.08"/>
</a>
</g>
<text xml:space="preserve" text-anchor="start" x="688.75" y="-159.46" font-family="FreeSans" font-size="10.00" fill="grey">&lt; 2, Integer &gt;</text>
</g>
<!-- Node6 -->
<g id="Node000006" class="node">
<title>Node6</title>
<g id="a_Node000006"><a xlink:href="classDGtal_1_1KhalimskySpaceND.html" target="_top" xlink:title=" ">
<polygon fill="white" stroke="#666666" points="939.5,-131.5 803.5,-131.5 803.5,-101 939.5,-101 939.5,-131.5"/>
<text xml:space="preserve" text-anchor="start" x="811.5" y="-118" font-family="FreeSans" font-size="10.00">DGtal::KhalimskySpaceND</text>
<text xml:space="preserve" text-anchor="middle" x="871.5" y="-106.75" font-family="FreeSans" font-size="10.00">&lt; 3, Integer &gt;</text>
</a>
</g>
</g>
<!-- Node1&#45;&gt;Node6 -->
<g id="edge5_Node000001_Node000006" class="edge">
<title>Node1&#45;&gt;Node6</title>
<g id="a_edge5_Node000001_Node000006"><a xlink:title=" ">
<path fill="none" stroke="orange" stroke-dasharray="5,2" d="M652.97,-116.25C699.72,-116.25 758.44,-116.25 803.09,-116.25"/>
<polygon fill="orange" stroke="orange" points="653.18,-112.75 643.18,-116.25 653.18,-119.75 653.18,-112.75"/>
</a>
</g>
<text xml:space="preserve" text-anchor="start" x="688.75" y="-121" font-family="FreeSans" font-size="10.00" fill="grey">&lt; 3, Integer &gt;</text>
</g>
<!-- Node7 -->
<g id="Node000007" class="node">
<title>Node7</title>
<g id="a_Node000007"><a xlink:href="classDGtal_1_1KhalimskySpaceND.html" target="_top" xlink:title=" ">
<polygon fill="white" stroke="#666666" points="939.5,-82.5 803.5,-82.5 803.5,-52 939.5,-52 939.5,-82.5"/>
<text xml:space="preserve" text-anchor="start" x="811.5" y="-69" font-family="FreeSans" font-size="10.00">DGtal::KhalimskySpaceND</text>
<text xml:space="preserve" text-anchor="middle" x="871.5" y="-57.75" font-family="FreeSans" font-size="10.00">&lt; dim, Integer &gt;</text>
</a>
</g>
</g>
<!-- Node1&#45;&gt;Node7 -->
<g id="edge6_Node000001_Node000007" class="edge">
<title>Node1&#45;&gt;Node7</title>
<g id="a_edge6_Node000001_Node000007"><a xlink:title=" ">
<path fill="none" stroke="orange" stroke-dasharray="5,2" d="M644.69,-98.04C649.69,-96.95 654.66,-95.92 659.5,-95 707.23,-85.93 761.6,-78.85 803.19,-74.12"/>
<polygon fill="orange" stroke="orange" points="644.21,-94.56 635.23,-100.18 645.76,-101.39 644.21,-94.56"/>
</a>
</g>
<text xml:space="preserve" text-anchor="start" x="683.5" y="-99.75" font-family="FreeSans" font-size="10.00" fill="grey">&lt; dim, Integer &gt;</text>
</g>
<!-- Node8 -->
<g id="Node000008" class="node">
<title>Node8</title>
<g id="a_Node000008"><a xlink:href="classDGtal_1_1KhalimskySpaceND.html" target="_top" xlink:title=" ">
<polygon fill="white" stroke="#666666" points="947.75,-30.5 795.25,-30.5 795.25,0 947.75,0 947.75,-30.5"/>
<text xml:space="preserve" text-anchor="start" x="803.25" y="-17" font-family="FreeSans" font-size="10.00">DGtal::KhalimskySpaceND</text>
<text xml:space="preserve" text-anchor="middle" x="871.5" y="-5.75" font-family="FreeSans" font-size="10.00">&lt; dimAmbient, DGtal::int32_t &gt;</text>
</a>
</g>
</g>
<!-- Node1&#45;&gt;Node8 -->
<g id="edge7_Node000001_Node000008" class="edge">
<title>Node1&#45;&gt;Node8</title>
<g id="a_edge7_Node000001_Node000008"><a xlink:title=" ">
<path fill="none" stroke="orange" stroke-dasharray="5,2" d="M594.22,-92.21C609.96,-74.83 633.6,-52.42 659.5,-40.75 701.72,-21.73 753.26,-15.23 794.82,-13.55"/>
<polygon fill="orange" stroke="orange" points="591.69,-89.79 587.74,-99.63 596.96,-94.4 591.69,-89.79"/>
</a>
</g>
<text xml:space="preserve" text-anchor="start" x="672.25" y="-60.75" font-family="FreeSans" font-size="10.00" fill="grey">&lt; dimAmbient, DGtal</text>
<text xml:space="preserve" text-anchor="start" x="672.25" y="-45.5" font-family="FreeSans" font-size="10.00" fill="grey">  ::int32_t &gt;</text>
</g>
<!-- Node2 -->
<g id="Node000002" class="node">
<title>Node2</title>
<g id="a_Node000002"><a xlink:href="classDGtal_1_1KhalimskySpaceNDHelper.html" target="_top" xlink:title=" ">
<polygon fill="white" stroke="#666666" points="468.5,-137.12 304,-137.12 304,-95.38 468.5,-95.38 468.5,-137.12"/>
<text xml:space="preserve" text-anchor="start" x="312" y="-123.62" font-family="FreeSans" font-size="10.00">DGtal::KhalimskySpaceNDHelper</text>
<text xml:space="preserve" text-anchor="start" x="312" y="-112.38" font-family="FreeSans" font-size="10.00">&lt; KhalimskySpaceND&lt; dim,</text>
<text xml:space="preserve" text-anchor="middle" x="386.25" y="-101.12" font-family="FreeSans" font-size="10.00"> TInteger &gt; &gt;</text>
</a>
</g>
</g>
<!-- Node2&#45;&gt;Node1 -->
<g id="edge1_Node000001_Node000002" class="edge">
<title>Node2&#45;&gt;Node1</title>
<g id="a_edge1_Node000001_Node000002"><a xlink:title=" ">
<path fill="none" stroke="#8b1a1a" d="M480.2,-116.25C488.59,-116.25 496.99,-116.25 505.1,-116.25"/>
<polygon fill="#8b1a1a" stroke="#8b1a1a" points="480.29,-112.75 470.29,-116.25 480.29,-119.75 480.29,-112.75"/>
</a>
</g>
</g>
<!-- Node3 -->
<g id="Node000003" class="node">
<title>Node3</title>
<g id="a_Node000003"><a xlink:href="classDGtal_1_1KhalimskySpaceNDHelper.html" target="_top" xlink:title="Internal class of KhalimskySpaceND that provides some optimizations depending on the space type.">
<polygon fill="white" stroke="#666666" points="164.5,-131.5 0,-131.5 0,-101 164.5,-101 164.5,-131.5"/>
<text xml:space="preserve" text-anchor="start" x="8" y="-118" font-family="FreeSans" font-size="10.00">DGtal::KhalimskySpaceNDHelper</text>
<text xml:space="preserve" text-anchor="middle" x="82.25" y="-106.75" font-family="FreeSans" font-size="10.00">&lt; TKhalimskySpace &gt;</text>
</a>
</g>
</g>
<!-- Node3&#45;&gt;Node2 -->
<g id="edge2_Node000002_Node000003" class="edge">
<title>Node3&#45;&gt;Node2</title>
<g id="a_edge2_Node000002_Node000003"><a xlink:title=" ">
<path fill="none" stroke="orange" stroke-dasharray="5,2" d="M176.28,-116.25C217.01,-116.25 264.39,-116.25 303.72,-116.25"/>
<polygon fill="orange" stroke="orange" points="176.49,-112.75 166.49,-116.25 176.49,-119.75 176.49,-112.75"/>
</a>
</g>
<text xml:space="preserve" text-anchor="start" x="185.5" y="-136.25" font-family="FreeSans" font-size="10.00" fill="grey">&lt; KhalimskySpaceND</text>
<text xml:space="preserve" text-anchor="start" x="185.5" y="-121" font-family="FreeSans" font-size="10.00" fill="grey">  &lt; dim, TInteger &gt; &gt;</text>
</g>
</g>
</svg>
