<?xml version="1.0" encoding="UTF-8" standalone="no"?>
<!DOCTYPE svg PUBLIC "-//W3C//DTD SVG 1.1//EN"
 "http://www.w3.org/Graphics/SVG/1.1/DTD/svg11.dtd">
<!-- Generated by graphviz version 14.1.0 (20251206.1807)
 -->
<!-- Title: DGtal::FreemanChain&lt; TInteger &gt; Pages: 1 -->
<svg width="248pt" height="122pt"
 viewBox="0.00 0.00 248.00 122.00" xmlns="http://www.w3.org/2000/svg" xmlns:xlink="http://www.w3.org/1999/xlink">
<g id="graph0" class="graph" transform="scale(1 1) rotate(0) translate(4 118.25)">
<title>DGtal::FreemanChain&lt; TInteger &gt;</title>
<!-- Node1 -->
<g id="Node000001" class="node">
<title>Node1</title>
<g id="a_Node000001"><a xlink:title=" ">
<polygon fill="#999999" stroke="#666666" points="175.25,-114.25 64,-114.25 64,-83.75 175.25,-83.75 175.25,-114.25"/>
<text xml:space="preserve" text-anchor="start" x="72" y="-100.75" font-family="FreeSans" font-size="10.00">DGtal::FreemanChain</text>
<text xml:space="preserve" text-anchor="middle" x="119.62" y="-89.5" font-family="FreeSans" font-size="10.00">&lt; TInteger &gt;</text>
</a>
</g>
</g>
<!-- Node2 -->
<g id="Node000002" class="node">
<title>Node2</title>
<g id="a_Node000002"><a xlink:href="classDGtal_1_1FreemanChain.html" target="_top" xlink:title=" ">
<polygon fill="white" stroke="#666666" points="111.25,-30.5 0,-30.5 0,0 111.25,0 111.25,-30.5"/>
<text xml:space="preserve" text-anchor="start" x="8" y="-17" font-family="FreeSans" font-size="10.00">DGtal::FreemanChain</text>
<text xml:space="preserve" text-anchor="middle" x="55.62" y="-5.75" font-family="FreeSans" font-size="10.00">&lt; Integer &gt;</text>
</a>
</g>
</g>
<!-- Node1&#45;&gt;Node2 -->
<g id="edge1_Node000001_Node000002" class="edge">
<title>Node1&#45;&gt;Node2</title>
<g id="a_edge1_Node000001_Node000002"><a xlink:title=" ">
<path fill="none" stroke="orange" stroke-dasharray="5,2" d="M101.37,-74.68C90.29,-60.53 76.49,-42.91 66.97,-30.74"/>
<polygon fill="orange" stroke="orange" points="98.33,-76.48 107.25,-82.19 103.84,-72.16 98.33,-76.48"/>
</a>
</g>
<text xml:space="preserve" text-anchor="start" x="96.36" y="-53.25" font-family="FreeSans" font-size="10.00" fill="grey">&lt; Integer &gt;</text>
</g>
<!-- Node3 -->
<g id="Node000003" class="node">
<title>Node3</title>
<g id="a_Node000003"><a xlink:href="classDGtal_1_1FreemanChain.html" target="_top" xlink:title=" ">
<polygon fill="white" stroke="#666666" points="240.25,-30.5 129,-30.5 129,0 240.25,0 240.25,-30.5"/>
<text xml:space="preserve" text-anchor="start" x="137" y="-17" font-family="FreeSans" font-size="10.00">DGtal::FreemanChain</text>
<text xml:space="preserve" text-anchor="middle" x="184.62" y="-5.75" font-family="FreeSans" font-size="10.00">&lt; int &gt;</text>
</a>
</g>
</g>
<!-- Node1&#45;&gt;Node3 -->
<g id="edge2_Node000001_Node000003" class="edge">
<title>Node1&#45;&gt;Node3</title>
<g id="a_edge2_Node000001_Node000003"><a xlink:title=" ">
<path fill="none" stroke="orange" stroke-dasharray="5,2" d="M143.07,-75.46C146.05,-72.28 148.97,-69 151.62,-65.75 160.77,-54.55 169.78,-40.8 176.07,-30.63"/>
<polygon fill="orange" stroke="orange" points="140.78,-72.79 136.29,-82.39 145.78,-77.69 140.78,-72.79"/>
</a>
</g>
<text xml:space="preserve" text-anchor="start" x="167.3" y="-53.25" font-family="FreeSans" font-size="10.00" fill="grey">&lt; int &gt;</text>
</g>
</g>
</svg>
