<?xml version="1.0" encoding="UTF-8" standalone="no"?>
<!DOCTYPE svg PUBLIC "-//W3C//DTD SVG 1.1//EN"
 "http://www.w3.org/Graphics/SVG/1.1/DTD/svg11.dtd">
<!-- Generated by graphviz version 14.1.0 (20251206.1807)
 -->
<!-- Title: DGtal::StabbingLineComputer&lt; TConstIterator &gt; Pages: 1 -->
<svg width="457pt" height="95pt"
 viewBox="0.00 0.00 457.00 95.00" xmlns="http://www.w3.org/2000/svg" xmlns:xlink="http://www.w3.org/1999/xlink">
<g id="graph0" class="graph" transform="scale(1 1) rotate(0) translate(4 90.5)">
<title>DGtal::StabbingLineComputer&lt; TConstIterator &gt;</title>
<!-- Node1 -->
<g id="Node000001" class="node">
<title>Node1</title>
<g id="a_Node000001"><a xlink:title="Aim: On&#45;line recognition of a digital straight segment (DSS) defined as a sequence of connected grid ...">
<polygon fill="#999999" stroke="#666666" points="146.5,-58.5 0,-58.5 0,-28 146.5,-28 146.5,-58.5"/>
<text xml:space="preserve" text-anchor="start" x="8" y="-45" font-family="FreeSans" font-size="10.00">DGtal::StabbingLineComputer</text>
<text xml:space="preserve" text-anchor="middle" x="73.25" y="-33.75" font-family="FreeSans" font-size="10.00">&lt; TConstIterator &gt;</text>
</a>
</g>
</g>
<!-- Node2 -->
<g id="Node000002" class="node">
<title>Node2</title>
<g id="a_Node000002"><a xlink:href="classDGtal_1_1StabbingLineComputer.html" target="_top" xlink:title=" ">
<polygon fill="white" stroke="#666666" points="434,-86.5 287.5,-86.5 287.5,-56 434,-56 434,-86.5"/>
<text xml:space="preserve" text-anchor="start" x="295.5" y="-73" font-family="FreeSans" font-size="10.00">DGtal::StabbingLineComputer</text>
<text xml:space="preserve" text-anchor="middle" x="360.75" y="-61.75" font-family="FreeSans" font-size="10.00">&lt; ConstIterator &gt;</text>
</a>
</g>
</g>
<!-- Node1&#45;&gt;Node2 -->
<g id="edge1_Node000001_Node000002" class="edge">
<title>Node1&#45;&gt;Node2</title>
<g id="a_edge1_Node000001_Node000002"><a xlink:title=" ">
<path fill="none" stroke="orange" stroke-dasharray="5,2" d="M158.02,-51.47C199.07,-55.49 248.02,-60.29 287.41,-64.16"/>
<polygon fill="orange" stroke="orange" points="158.46,-47.99 148.17,-50.5 157.78,-54.96 158.46,-47.99"/>
</a>
</g>
<text xml:space="preserve" text-anchor="start" x="172" y="-65.33" font-family="FreeSans" font-size="10.00" fill="grey">&lt; ConstIterator &gt;</text>
</g>
<!-- Node3 -->
<g id="Node000003" class="node">
<title>Node3</title>
<g id="a_Node000003"><a xlink:href="classDGtal_1_1StabbingLineComputer.html" target="_top" xlink:title=" ">
<polygon fill="white" stroke="#666666" points="449,-30.5 272.5,-30.5 272.5,0 449,0 449,-30.5"/>
<text xml:space="preserve" text-anchor="start" x="280.5" y="-17" font-family="FreeSans" font-size="10.00">DGtal::StabbingLineComputer</text>
<text xml:space="preserve" text-anchor="middle" x="360.75" y="-5.75" font-family="FreeSans" font-size="10.00">&lt; ReverseIterator&lt; ConstIterator &gt; &gt;</text>
</a>
</g>
</g>
<!-- Node1&#45;&gt;Node3 -->
<g id="edge2_Node000001_Node000003" class="edge">
<title>Node1&#45;&gt;Node3</title>
<g id="a_edge2_Node000001_Node000003"><a xlink:title=" ">
<path fill="none" stroke="orange" stroke-dasharray="5,2" d="M127.2,-24.3C139.3,-20.76 152.22,-17.6 164.5,-15.75 199.53,-10.49 238.5,-9.44 272.35,-10.04"/>
<polygon fill="orange" stroke="orange" points="126.33,-20.9 117.8,-27.18 128.39,-27.59 126.33,-20.9"/>
</a>
</g>
<text xml:space="preserve" text-anchor="start" x="167.5" y="-35.75" font-family="FreeSans" font-size="10.00" fill="grey">&lt; ReverseIterator&lt;</text>
<text xml:space="preserve" text-anchor="start" x="167.5" y="-20.5" font-family="FreeSans" font-size="10.00" fill="grey">   ConstIterator &gt; &gt;</text>
</g>
</g>
</svg>
