<?xml version="1.0" encoding="UTF-8" standalone="no"?>
<!DOCTYPE svg PUBLIC "-//W3C//DTD SVG 1.1//EN"
 "http://www.w3.org/Graphics/SVG/1.1/DTD/svg11.dtd">
<!-- Generated by graphviz version 14.1.0 (20251206.1807)
 -->
<!-- Title: DGtal::KForm&lt; TCalculus, order, duality &gt; Pages: 1 -->
<svg width="407pt" height="492pt"
 viewBox="0.00 0.00 407.00 492.00" xmlns="http://www.w3.org/2000/svg" xmlns:xlink="http://www.w3.org/1999/xlink">
<g id="graph0" class="graph" transform="scale(1 1) rotate(0) translate(4 487.77)">
<title>DGtal::KForm&lt; TCalculus, order, duality &gt;</title>
<!-- Node1 -->
<g id="Node000001" class="node">
<title>Node1</title>
<g id="a_Node000001"><a xlink:title="Aim: KForm represents discrete kforms in the dec package.">
<polygon fill="#999999" stroke="#666666" points="133,-257.5 0,-257.5 0,-227 133,-227 133,-257.5"/>
<text xml:space="preserve" text-anchor="start" x="8" y="-244" font-family="FreeSans" font-size="10.00">DGtal::KForm&lt; TCalculus,</text>
<text xml:space="preserve" text-anchor="middle" x="66.5" y="-232.75" font-family="FreeSans" font-size="10.00"> order, duality &gt;</text>
</a>
</g>
</g>
<!-- Node2 -->
<g id="Node000002" class="node">
<title>Node2</title>
<g id="a_Node000002"><a xlink:href="classDGtal_1_1KForm.html" target="_top" xlink:title=" ">
<polygon fill="white" stroke="#666666" points="388.25,-478.5 282.25,-478.5 282.25,-448 388.25,-448 388.25,-478.5"/>
<text xml:space="preserve" text-anchor="start" x="290.25" y="-465" font-family="FreeSans" font-size="10.00">DGtal::KForm&lt; Self,</text>
<text xml:space="preserve" text-anchor="middle" x="335.25" y="-453.75" font-family="FreeSans" font-size="10.00"> 0, PRIMAL &gt;</text>
</a>
</g>
</g>
<!-- Node1&#45;&gt;Node2 -->
<g id="edge1_Node000001_Node000002" class="edge">
<title>Node1&#45;&gt;Node2</title>
<g id="a_edge1_Node000001_Node000002"><a xlink:title=" ">
<path fill="none" stroke="orange" stroke-dasharray="5,2" d="M71.08,-269.17C78.22,-311.33 98.33,-392.33 151,-433.25 188.04,-462.03 242.17,-467.78 282,-467.39"/>
<polygon fill="orange" stroke="orange" points="74.56,-268.74 69.57,-259.39 67.64,-269.81 74.56,-268.74"/>
</a>
</g>
<text xml:space="preserve" text-anchor="start" x="157.75" y="-471.27" font-family="FreeSans" font-size="10.00" fill="grey">&lt; Self, 0, PRIMAL &gt;</text>
</g>
<!-- Node3 -->
<g id="Node000003" class="node">
<title>Node3</title>
<g id="a_Node000003"><a xlink:href="classDGtal_1_1KForm.html" target="_top" xlink:title=" ">
<polygon fill="white" stroke="#666666" points="388.25,-429.5 282.25,-429.5 282.25,-399 388.25,-399 388.25,-429.5"/>
<text xml:space="preserve" text-anchor="start" x="290.25" y="-416" font-family="FreeSans" font-size="10.00">DGtal::KForm&lt; Self,</text>
<text xml:space="preserve" text-anchor="middle" x="335.25" y="-404.75" font-family="FreeSans" font-size="10.00"> 1, PRIMAL &gt;</text>
</a>
</g>
</g>
<!-- Node1&#45;&gt;Node3 -->
<g id="edge2_Node000001_Node000003" class="edge">
<title>Node1&#45;&gt;Node3</title>
<g id="a_edge2_Node000001_Node000003"><a xlink:title=" ">
<path fill="none" stroke="orange" stroke-dasharray="5,2" d="M76.13,-268.33C87.9,-299.62 112.09,-351.22 151,-378.25 189.48,-404.98 242.9,-413 282.14,-414.92"/>
<polygon fill="orange" stroke="orange" points="79.54,-267.46 72.87,-259.23 72.95,-269.83 79.54,-267.46"/>
</a>
</g>
<text xml:space="preserve" text-anchor="start" x="157.75" y="-416.79" font-family="FreeSans" font-size="10.00" fill="grey">&lt; Self, 1, PRIMAL &gt;</text>
</g>
<!-- Node4 -->
<g id="Node000004" class="node">
<title>Node4</title>
<g id="a_Node000004"><a xlink:href="classDGtal_1_1KForm.html" target="_top" xlink:title=" ">
<polygon fill="white" stroke="#666666" points="388.25,-380.5 282.25,-380.5 282.25,-350 388.25,-350 388.25,-380.5"/>
<text xml:space="preserve" text-anchor="start" x="290.25" y="-367" font-family="FreeSans" font-size="10.00">DGtal::KForm&lt; Self,</text>
<text xml:space="preserve" text-anchor="middle" x="335.25" y="-355.75" font-family="FreeSans" font-size="10.00"> 2, PRIMAL &gt;</text>
</a>
</g>
</g>
<!-- Node1&#45;&gt;Node4 -->
<g id="edge3_Node000001_Node000004" class="edge">
<title>Node1&#45;&gt;Node4</title>
<g id="a_edge3_Node000001_Node000004"><a xlink:title=" ">
<path fill="none" stroke="orange" stroke-dasharray="5,2" d="M85.63,-266.71C100.95,-285.6 124.59,-310.87 151,-325.25 191.61,-347.36 243.55,-357.25 281.76,-361.67"/>
<polygon fill="orange" stroke="orange" points="88.46,-264.65 79.53,-258.95 82.96,-268.98 88.46,-264.65"/>
</a>
</g>
<text xml:space="preserve" text-anchor="start" x="157.75" y="-362.14" font-family="FreeSans" font-size="10.00" fill="grey">&lt; Self, 2, PRIMAL &gt;</text>
</g>
<!-- Node5 -->
<g id="Node000005" class="node">
<title>Node5</title>
<g id="a_Node000005"><a xlink:href="classDGtal_1_1KForm.html" target="_top" xlink:title=" ">
<polygon fill="white" stroke="#666666" points="388.25,-331.5 282.25,-331.5 282.25,-301 388.25,-301 388.25,-331.5"/>
<text xml:space="preserve" text-anchor="start" x="290.25" y="-318" font-family="FreeSans" font-size="10.00">DGtal::KForm&lt; Self,</text>
<text xml:space="preserve" text-anchor="middle" x="335.25" y="-306.75" font-family="FreeSans" font-size="10.00"> 3, PRIMAL &gt;</text>
</a>
</g>
</g>
<!-- Node1&#45;&gt;Node5 -->
<g id="edge4_Node000001_Node000005" class="edge">
<title>Node1&#45;&gt;Node5</title>
<g id="a_edge4_Node000001_Node000005"><a xlink:title=" ">
<path fill="none" stroke="orange" stroke-dasharray="5,2" d="M107.74,-262.85C121.23,-269.14 136.52,-275.6 151,-280.25 194.22,-294.12 244.97,-303.59 282.09,-309.32"/>
<polygon fill="orange" stroke="orange" points="109.26,-259.7 98.73,-258.55 106.24,-266.02 109.26,-259.7"/>
</a>
</g>
<text xml:space="preserve" text-anchor="start" x="157.75" y="-308.63" font-family="FreeSans" font-size="10.00" fill="grey">&lt; Self, 3, PRIMAL &gt;</text>
</g>
<!-- Node6 -->
<g id="Node000006" class="node">
<title>Node6</title>
<g id="a_Node000006"><a xlink:href="classDGtal_1_1KForm.html" target="_top" xlink:title=" ">
<polygon fill="white" stroke="#666666" points="388.25,-282.5 282.25,-282.5 282.25,-252 388.25,-252 388.25,-282.5"/>
<text xml:space="preserve" text-anchor="start" x="290.25" y="-269" font-family="FreeSans" font-size="10.00">DGtal::KForm&lt; Self,</text>
<text xml:space="preserve" text-anchor="middle" x="335.25" y="-257.75" font-family="FreeSans" font-size="10.00"> 0, DUAL &gt;</text>
</a>
</g>
</g>
<!-- Node1&#45;&gt;Node6 -->
<g id="edge5_Node000001_Node000006" class="edge">
<title>Node1&#45;&gt;Node6</title>
<g id="a_edge5_Node000001_Node000006"><a xlink:title=" ">
<path fill="none" stroke="orange" stroke-dasharray="5,2" d="M144.71,-249.49C188.79,-253.62 242.9,-258.69 282,-262.35"/>
<polygon fill="orange" stroke="orange" points="145.23,-246.02 134.95,-248.57 144.57,-252.99 145.23,-246.02"/>
</a>
</g>
<text xml:space="preserve" text-anchor="start" x="163" y="-263.91" font-family="FreeSans" font-size="10.00" fill="grey">&lt; Self, 0, DUAL &gt;</text>
</g>
<!-- Node7 -->
<g id="Node000007" class="node">
<title>Node7</title>
<g id="a_Node000007"><a xlink:href="classDGtal_1_1KForm.html" target="_top" xlink:title=" ">
<polygon fill="white" stroke="#666666" points="388.25,-233.5 282.25,-233.5 282.25,-203 388.25,-203 388.25,-233.5"/>
<text xml:space="preserve" text-anchor="start" x="290.25" y="-220" font-family="FreeSans" font-size="10.00">DGtal::KForm&lt; Self,</text>
<text xml:space="preserve" text-anchor="middle" x="335.25" y="-208.75" font-family="FreeSans" font-size="10.00"> 1, DUAL &gt;</text>
</a>
</g>
</g>
<!-- Node1&#45;&gt;Node7 -->
<g id="edge6_Node000001_Node000007" class="edge">
<title>Node1&#45;&gt;Node7</title>
<g id="a_edge6_Node000001_Node000007"><a xlink:title=" ">
<path fill="none" stroke="orange" stroke-dasharray="5,2" d="M144.79,-228.74C146.88,-228.47 148.95,-228.23 151,-228 195.01,-223.09 245.25,-220.64 281.99,-219.42"/>
<polygon fill="orange" stroke="orange" points="144.43,-225.25 134.99,-230.06 145.37,-232.19 144.43,-225.25"/>
</a>
</g>
<text xml:space="preserve" text-anchor="start" x="163" y="-232.75" font-family="FreeSans" font-size="10.00" fill="grey">&lt; Self, 1, DUAL &gt;</text>
</g>
<!-- Node8 -->
<g id="Node000008" class="node">
<title>Node8</title>
<g id="a_Node000008"><a xlink:href="classDGtal_1_1KForm.html" target="_top" xlink:title=" ">
<polygon fill="white" stroke="#666666" points="388.25,-184.5 282.25,-184.5 282.25,-154 388.25,-154 388.25,-184.5"/>
<text xml:space="preserve" text-anchor="start" x="290.25" y="-171" font-family="FreeSans" font-size="10.00">DGtal::KForm&lt; Self,</text>
<text xml:space="preserve" text-anchor="middle" x="335.25" y="-159.75" font-family="FreeSans" font-size="10.00"> 2, DUAL &gt;</text>
</a>
</g>
</g>
<!-- Node1&#45;&gt;Node8 -->
<g id="edge7_Node000001_Node000008" class="edge">
<title>Node1&#45;&gt;Node8</title>
<g id="a_edge7_Node000001_Node000008"><a xlink:title=" ">
<path fill="none" stroke="orange" stroke-dasharray="5,2" d="M102.15,-221.16C116.76,-213.11 134.25,-204.54 151,-199 193.84,-184.83 244.63,-177.26 281.86,-173.31"/>
<polygon fill="orange" stroke="orange" points="100.82,-217.89 93.84,-225.87 104.27,-223.98 100.82,-217.89"/>
</a>
</g>
<text xml:space="preserve" text-anchor="start" x="163" y="-203.75" font-family="FreeSans" font-size="10.00" fill="grey">&lt; Self, 2, DUAL &gt;</text>
</g>
<!-- Node9 -->
<g id="Node000009" class="node">
<title>Node9</title>
<g id="a_Node000009"><a xlink:href="classDGtal_1_1KForm.html" target="_top" xlink:title=" ">
<polygon fill="white" stroke="#666666" points="388.25,-135.5 282.25,-135.5 282.25,-105 388.25,-105 388.25,-135.5"/>
<text xml:space="preserve" text-anchor="start" x="290.25" y="-122" font-family="FreeSans" font-size="10.00">DGtal::KForm&lt; Self,</text>
<text xml:space="preserve" text-anchor="middle" x="335.25" y="-110.75" font-family="FreeSans" font-size="10.00"> 3, DUAL &gt;</text>
</a>
</g>
</g>
<!-- Node1&#45;&gt;Node9 -->
<g id="edge8_Node000001_Node000009" class="edge">
<title>Node1&#45;&gt;Node9</title>
<g id="a_edge8_Node000001_Node000009"><a xlink:title=" ">
<path fill="none" stroke="orange" stroke-dasharray="5,2" d="M84.6,-217.62C99.73,-197.79 123.61,-170.86 151,-156 191.6,-133.97 243.78,-125.39 282.07,-122.11"/>
<polygon fill="orange" stroke="orange" points="81.92,-215.35 78.8,-225.48 87.55,-219.51 81.92,-215.35"/>
</a>
</g>
<text xml:space="preserve" text-anchor="start" x="163" y="-160.75" font-family="FreeSans" font-size="10.00" fill="grey">&lt; Self, 3, DUAL &gt;</text>
</g>
<!-- Node10 -->
<g id="Node000010" class="node">
<title>Node10</title>
<g id="a_Node000010"><a xlink:href="classDGtal_1_1KForm.html" target="_top" xlink:title=" ">
<polygon fill="white" stroke="#666666" points="398.75,-86.5 271.75,-86.5 271.75,-56 398.75,-56 398.75,-86.5"/>
<text xml:space="preserve" text-anchor="start" x="279.75" y="-73" font-family="FreeSans" font-size="10.00">DGtal::KForm&lt; Calculus,</text>
<text xml:space="preserve" text-anchor="middle" x="335.25" y="-61.75" font-family="FreeSans" font-size="10.00"> order_in, duality_in &gt;</text>
</a>
</g>
</g>
<!-- Node1&#45;&gt;Node10 -->
<g id="edge9_Node000001_Node000010" class="edge">
<title>Node1&#45;&gt;Node10</title>
<g id="a_edge9_Node000001_Node000010"><a xlink:title=" ">
<path fill="none" stroke="orange" stroke-dasharray="5,2" d="M73.65,-215.87C83.44,-180.39 106.2,-118.35 151,-88.75 186.06,-65.58 233.46,-61.6 271.26,-63.2"/>
<polygon fill="orange" stroke="orange" points="70.32,-214.77 71.2,-225.33 77.09,-216.53 70.32,-214.77"/>
</a>
</g>
<text xml:space="preserve" text-anchor="start" x="157" y="-108.75" font-family="FreeSans" font-size="10.00" fill="grey">&lt; Calculus, order_in,</text>
<text xml:space="preserve" text-anchor="start" x="157" y="-93.5" font-family="FreeSans" font-size="10.00" fill="grey">   duality_in &gt;</text>
</g>
<!-- Node11 -->
<g id="Node000011" class="node">
<title>Node11</title>
<g id="a_Node000011"><a xlink:href="classDGtal_1_1KForm.html" target="_top" xlink:title=" ">
<polygon fill="white" stroke="#666666" points="398.75,-30.5 271.75,-30.5 271.75,0 398.75,0 398.75,-30.5"/>
<text xml:space="preserve" text-anchor="start" x="279.75" y="-17" font-family="FreeSans" font-size="10.00">DGtal::KForm&lt; Calculus,</text>
<text xml:space="preserve" text-anchor="middle" x="335.25" y="-5.75" font-family="FreeSans" font-size="10.00"> order_out, duality_out &gt;</text>
</a>
</g>
</g>
<!-- Node1&#45;&gt;Node11 -->
<g id="edge10_Node000001_Node000011" class="edge">
<title>Node1&#45;&gt;Node11</title>
<g id="a_edge10_Node000001_Node000011"><a xlink:title=" ">
<path fill="none" stroke="orange" stroke-dasharray="5,2" d="M69.05,-215.32C73.36,-168.23 89.63,-71.68 151,-26.75 185.21,-1.71 233.33,0.42 271.68,-3.32"/>
<polygon fill="orange" stroke="orange" points="65.57,-214.93 68.28,-225.18 72.55,-215.48 65.57,-214.93"/>
</a>
</g>
<text xml:space="preserve" text-anchor="start" x="154" y="-46.75" font-family="FreeSans" font-size="10.00" fill="grey">&lt; Calculus, order_out,</text>
<text xml:space="preserve" text-anchor="start" x="154" y="-31.5" font-family="FreeSans" font-size="10.00" fill="grey">   duality_out &gt;</text>
</g>
</g>
</svg>
