<?xml version="1.0" encoding="UTF-8" standalone="no"?>
<!DOCTYPE svg PUBLIC "-//W3C//DTD SVG 1.1//EN"
 "http://www.w3.org/Graphics/SVG/1.1/DTD/svg11.dtd">
<!-- Generated by graphviz version 14.1.0 (20251206.1807)
 -->
<!-- Title: DGtal::MPolynomialEvaluatorImpl&lt; n, TRing, TOwner, TAlloc, TX &gt; Pages: 1 -->
<svg width="476pt" height="149pt"
 viewBox="0.00 0.00 476.00 149.00" xmlns="http://www.w3.org/2000/svg" xmlns:xlink="http://www.w3.org/1999/xlink">
<g id="graph0" class="graph" transform="scale(1 1) rotate(0) translate(4 144.5)">
<title>DGtal::MPolynomialEvaluatorImpl&lt; n, TRing, TOwner, TAlloc, TX &gt;</title>
<!-- Node1 -->
<g id="Node000001" class="node">
<title>Node1</title>
<g id="a_Node000001"><a xlink:title=" ">
<polygon fill="#999999" stroke="#666666" points="145,-90.12 0,-90.12 0,-48.38 145,-48.38 145,-90.12"/>
<text xml:space="preserve" text-anchor="start" x="8" y="-76.62" font-family="FreeSans" font-size="10.00">DGtal::MPolynomialEvaluator</text>
<text xml:space="preserve" text-anchor="start" x="8" y="-65.38" font-family="FreeSans" font-size="10.00">Impl&lt; n, TRing, TOwner,</text>
<text xml:space="preserve" text-anchor="middle" x="72.5" y="-54.12" font-family="FreeSans" font-size="10.00"> TAlloc, TX &gt;</text>
</a>
</g>
</g>
<!-- Node2 -->
<g id="Node000002" class="node">
<title>Node2</title>
<g id="a_Node000002"><a xlink:href="classDGtal_1_1MPolynomialEvaluatorImpl.html" target="_top" xlink:title=" ">
<polygon fill="white" stroke="#666666" points="467.75,-140.5 310,-140.5 310,-110 467.75,-110 467.75,-140.5"/>
<text xml:space="preserve" text-anchor="start" x="318" y="-127" font-family="FreeSans" font-size="10.00">DGtal::MPolynomialEvaluator</text>
<text xml:space="preserve" text-anchor="middle" x="388.88" y="-115.75" font-family="FreeSans" font-size="10.00">Impl&lt; n, Ring, Owner, Alloc, X &gt;</text>
</a>
</g>
</g>
<!-- Node1&#45;&gt;Node2 -->
<g id="edge1_Node000001_Node000002" class="edge">
<title>Node1&#45;&gt;Node2</title>
<g id="a_edge1_Node000001_Node000002"><a xlink:title=" ">
<path fill="none" stroke="orange" stroke-dasharray="5,2" d="M133.02,-94.36C142.9,-97.8 153.14,-100.94 163,-103.25 210.93,-114.49 265.91,-119.99 309.51,-122.69"/>
<polygon fill="orange" stroke="orange" points="134.49,-91.17 123.9,-91.05 132.1,-97.75 134.49,-91.17"/>
</a>
</g>
<text xml:space="preserve" text-anchor="start" x="166" y="-126.1" font-family="FreeSans" font-size="10.00" fill="grey">&lt; n, Ring, Owner, Alloc, X &gt;</text>
</g>
<!-- Node3 -->
<g id="Node000003" class="node">
<title>Node3</title>
<g id="a_Node000003"><a xlink:href="classDGtal_1_1MPolynomialEvaluatorImpl_3_011_00_01TRing_00_01TOwner_00_01TAlloc_00_01TX_01_4.html" target="_top" xlink:title=" ">
<polygon fill="white" stroke="#666666" points="461.38,-90.12 316.38,-90.12 316.38,-48.38 461.38,-48.38 461.38,-90.12"/>
<text xml:space="preserve" text-anchor="start" x="324.38" y="-76.62" font-family="FreeSans" font-size="10.00">DGtal::MPolynomialEvaluator</text>
<text xml:space="preserve" text-anchor="start" x="324.38" y="-65.38" font-family="FreeSans" font-size="10.00">Impl&lt; 1, TRing, TOwner,</text>
<text xml:space="preserve" text-anchor="middle" x="388.88" y="-54.12" font-family="FreeSans" font-size="10.00"> TAlloc, TX &gt;</text>
</a>
</g>
</g>
<!-- Node1&#45;&gt;Node3 -->
<g id="edge2_Node000001_Node000003" class="edge">
<title>Node1&#45;&gt;Node3</title>
<g id="a_edge2_Node000001_Node000003"><a xlink:title=" ">
<path fill="none" stroke="orange" stroke-dasharray="5,2" d="M156.57,-69.25C206.13,-69.25 268.45,-69.25 315.91,-69.25"/>
<polygon fill="orange" stroke="orange" points="156.74,-65.75 146.74,-69.25 156.74,-72.75 156.74,-65.75"/>
</a>
</g>
<text xml:space="preserve" text-anchor="start" x="182.88" y="-89.25" font-family="FreeSans" font-size="10.00" fill="grey">&lt; 1, TRing, TOwner,</text>
<text xml:space="preserve" text-anchor="start" x="182.88" y="-74" font-family="FreeSans" font-size="10.00" fill="grey">   TAlloc, TX &gt;</text>
</g>
<!-- Node4 -->
<g id="Node000004" class="node">
<title>Node4</title>
<g id="a_Node000004"><a xlink:href="classDGtal_1_1MPolynomialEvaluatorImpl.html" target="_top" xlink:title=" ">
<polygon fill="white" stroke="#666666" points="467.75,-30.5 310,-30.5 310,0 467.75,0 467.75,-30.5"/>
<text xml:space="preserve" text-anchor="start" x="318" y="-17" font-family="FreeSans" font-size="10.00">DGtal::MPolynomialEvaluator</text>
<text xml:space="preserve" text-anchor="middle" x="388.88" y="-5.75" font-family="FreeSans" font-size="10.00">Impl&lt; 1, Ring, Owner, Alloc, X &gt;</text>
</a>
</g>
</g>
<!-- Node1&#45;&gt;Node4 -->
<g id="edge3_Node000001_Node000004" class="edge">
<title>Node1&#45;&gt;Node4</title>
<g id="a_edge3_Node000001_Node000004"><a xlink:title=" ">
<path fill="none" stroke="orange" stroke-dasharray="5,2" d="M156.4,-49.3C158.62,-48.85 160.82,-48.42 163,-48 211.44,-38.74 266.19,-30.72 309.54,-24.93"/>
<polygon fill="orange" stroke="orange" points="155.74,-45.86 146.67,-51.33 157.18,-52.71 155.74,-45.86"/>
</a>
</g>
<text xml:space="preserve" text-anchor="start" x="166" y="-52.75" font-family="FreeSans" font-size="10.00" fill="grey">&lt; 1, Ring, Owner, Alloc, X &gt;</text>
</g>
</g>
</svg>
