<?xml version="1.0" encoding="UTF-8" standalone="no"?>
<!DOCTYPE svg PUBLIC "-//W3C//DTD SVG 1.1//EN"
 "http://www.w3.org/Graphics/SVG/1.1/DTD/svg11.dtd">
<!-- Generated by graphviz version 14.1.0 (20251206.1807)
 -->
<!-- Title: DGtal::SpaceND&lt; dim, TInteger &gt; Pages: 1 -->
<svg width="444pt" height="902pt"
 viewBox="0.00 0.00 444.00 902.00" xmlns="http://www.w3.org/2000/svg" xmlns:xlink="http://www.w3.org/1999/xlink">
<g id="graph0" class="graph" transform="scale(1 1) rotate(0) translate(4 898.1)">
<title>DGtal::SpaceND&lt; dim, TInteger &gt;</title>
<!-- Node1 -->
<g id="Node000001" class="node">
<title>Node1</title>
<g id="a_Node000001"><a xlink:title=" ">
<polygon fill="#999999" stroke="#666666" points="118,-472.94 0,-472.94 0,-442.44 118,-442.44 118,-472.94"/>
<text xml:space="preserve" text-anchor="start" x="8" y="-459.44" font-family="FreeSans" font-size="10.00">DGtal::SpaceND&lt; dim,</text>
<text xml:space="preserve" text-anchor="middle" x="59" y="-448.19" font-family="FreeSans" font-size="10.00"> TInteger &gt;</text>
</a>
</g>
</g>
<!-- Node2 -->
<g id="Node000002" class="node">
<title>Node2</title>
<g id="a_Node000002"><a xlink:href="classDGtal_1_1SpaceND.html" target="_top" xlink:title=" ">
<polygon fill="white" stroke="#666666" points="419.75,-872.31 290.5,-872.31 290.5,-853.06 419.75,-853.06 419.75,-872.31"/>
<text xml:space="preserve" text-anchor="middle" x="355.12" y="-858.81" font-family="FreeSans" font-size="10.00">DGtal::Point&lt; 2, Integer &gt;</text>
</a>
</g>
</g>
<!-- Node1&#45;&gt;Node2 -->
<g id="edge1_Node000001_Node000002" class="edge">
<title>Node1&#45;&gt;Node2</title>
<g id="a_edge1_Node000001_Node000002"><a xlink:title=" ">
<path fill="none" stroke="orange" stroke-dasharray="5,2" d="M61.3,-484.35C65.73,-563.16 83.03,-792.54 136,-840.69 181.49,-882.03 256.39,-879.97 305.5,-872.81"/>
<polygon fill="orange" stroke="orange" points="64.81,-484.35 60.78,-474.55 57.82,-484.73 64.81,-484.35"/>
</a>
</g>
<text xml:space="preserve" text-anchor="start" x="152.12" y="-881.6" font-family="FreeSans" font-size="10.00" fill="grey">&lt; 2, Integer &gt;::Point</text>
</g>
<!-- Node3 -->
<g id="Node000003" class="node">
<title>Node3</title>
<g id="a_Node000003"><a xlink:href="classDGtal_1_1SpaceND.html" target="_top" xlink:title=" ">
<polygon fill="white" stroke="#666666" points="422.75,-832.31 287.5,-832.31 287.5,-813.06 422.75,-813.06 422.75,-832.31"/>
<text xml:space="preserve" text-anchor="middle" x="355.12" y="-818.81" font-family="FreeSans" font-size="10.00">DGtal::Vector&lt; 2, Integer &gt;</text>
</a>
</g>
</g>
<!-- Node1&#45;&gt;Node3 -->
<g id="edge2_Node000001_Node000003" class="edge">
<title>Node1&#45;&gt;Node3</title>
<g id="a_edge2_Node000001_Node000003"><a xlink:title=" ">
<path fill="none" stroke="orange" stroke-dasharray="5,2" d="M62.06,-484.75C68.22,-557.85 89.02,-756.6 136,-798.69 157.71,-818.14 231.38,-822.91 287.15,-823.6"/>
<polygon fill="orange" stroke="orange" points="65.56,-484.57 61.26,-474.89 58.58,-485.14 65.56,-484.57"/>
</a>
</g>
<text xml:space="preserve" text-anchor="start" x="149.12" y="-827.39" font-family="FreeSans" font-size="10.00" fill="grey">&lt; 2, Integer &gt;::Vector</text>
</g>
<!-- Node4 -->
<g id="Node000004" class="node">
<title>Node4</title>
<g id="a_Node000004"><a xlink:href="classDGtal_1_1SpaceND.html" target="_top" xlink:title=" ">
<polygon fill="white" stroke="#666666" points="419.75,-792.31 290.5,-792.31 290.5,-773.06 419.75,-773.06 419.75,-792.31"/>
<text xml:space="preserve" text-anchor="middle" x="355.12" y="-778.81" font-family="FreeSans" font-size="10.00">DGtal::Point&lt; 3, Integer &gt;</text>
</a>
</g>
</g>
<!-- Node1&#45;&gt;Node4 -->
<g id="edge3_Node000001_Node000004" class="edge">
<title>Node1&#45;&gt;Node4</title>
<g id="a_edge3_Node000001_Node000004"><a xlink:title=" ">
<path fill="none" stroke="orange" stroke-dasharray="5,2" d="M62.81,-484.42C70.46,-551.52 93.9,-724.3 136,-760.69 147.54,-770.66 230.1,-776.77 290.25,-779.94"/>
<polygon fill="orange" stroke="orange" points="66.32,-484.24 61.74,-474.68 59.36,-485.01 66.32,-484.24"/>
</a>
</g>
<text xml:space="preserve" text-anchor="start" x="152.12" y="-782.41" font-family="FreeSans" font-size="10.00" fill="grey">&lt; 3, Integer &gt;::Point</text>
</g>
<!-- Node5 -->
<g id="Node000005" class="node">
<title>Node5</title>
<g id="a_Node000005"><a xlink:href="classDGtal_1_1SpaceND.html" target="_top" xlink:title=" ">
<polygon fill="white" stroke="#666666" points="422.75,-755.31 287.5,-755.31 287.5,-736.06 422.75,-736.06 422.75,-755.31"/>
<text xml:space="preserve" text-anchor="middle" x="355.12" y="-741.81" font-family="FreeSans" font-size="10.00">DGtal::Vector&lt; 3, Integer &gt;</text>
</a>
</g>
</g>
<!-- Node1&#45;&gt;Node5 -->
<g id="edge4_Node000001_Node000005" class="edge">
<title>Node1&#45;&gt;Node5</title>
<g id="a_edge4_Node000001_Node000005"><a xlink:title=" ">
<path fill="none" stroke="orange" stroke-dasharray="5,2" d="M63.95,-484.49C73.44,-545.1 99.5,-689.83 136,-720.69 147.46,-730.38 227.38,-737.61 287.19,-741.74"/>
<polygon fill="orange" stroke="orange" points="67.42,-484.08 62.45,-474.72 60.5,-485.14 67.42,-484.08"/>
</a>
</g>
<text xml:space="preserve" text-anchor="start" x="149.12" y="-743.84" font-family="FreeSans" font-size="10.00" fill="grey">&lt; 3, Integer &gt;::Vector</text>
</g>
<!-- Node6 -->
<g id="Node000006" class="node">
<title>Node6</title>
<g id="a_Node000006"><a xlink:href="classDGtal_1_1SpaceND.html" target="_top" xlink:title=" ">
<polygon fill="white" stroke="#666666" points="408.88,-717.94 301.38,-717.94 301.38,-687.44 408.88,-687.44 408.88,-717.94"/>
<text xml:space="preserve" text-anchor="start" x="309.38" y="-704.44" font-family="FreeSans" font-size="10.00">DGtal::SpaceND&lt; 2,</text>
<text xml:space="preserve" text-anchor="middle" x="355.12" y="-693.19" font-family="FreeSans" font-size="10.00"> TCoordinate &gt;</text>
</a>
</g>
</g>
<!-- Node1&#45;&gt;Node6 -->
<g id="edge5_Node000001_Node000006" class="edge">
<title>Node1&#45;&gt;Node6</title>
<g id="a_edge5_Node000001_Node000006"><a xlink:title=" ">
<path fill="none" stroke="orange" stroke-dasharray="5,2" d="M60.4,-484.55C62.71,-532.48 75.02,-632.24 136,-680.69 160.7,-700.31 244.85,-703.75 301.12,-703.73"/>
<polygon fill="orange" stroke="orange" points="63.91,-484.66 60.06,-474.79 56.91,-484.91 63.91,-484.66"/>
</a>
</g>
<text xml:space="preserve" text-anchor="start" x="154.75" y="-707.58" font-family="FreeSans" font-size="10.00" fill="grey">&lt; 2, TCoordinate &gt;</text>
</g>
<!-- Node7 -->
<g id="Node000007" class="node">
<title>Node7</title>
<g id="a_Node000007"><a xlink:href="classDGtal_1_1SpaceND.html" target="_top" xlink:title=" ">
<polygon fill="white" stroke="#666666" points="408.88,-668.94 301.38,-668.94 301.38,-638.44 408.88,-638.44 408.88,-668.94"/>
<text xml:space="preserve" text-anchor="start" x="309.38" y="-655.44" font-family="FreeSans" font-size="10.00">DGtal::SpaceND&lt; 2,</text>
<text xml:space="preserve" text-anchor="middle" x="355.12" y="-644.19" font-family="FreeSans" font-size="10.00"> InternalInteger &gt;</text>
</a>
</g>
</g>
<!-- Node1&#45;&gt;Node7 -->
<g id="edge6_Node000001_Node000007" class="edge">
<title>Node1&#45;&gt;Node7</title>
<g id="a_edge6_Node000001_Node000007"><a xlink:title=" ">
<path fill="none" stroke="orange" stroke-dasharray="5,2" d="M63.8,-484.43C70.76,-522.71 89.4,-592.31 136,-626.69 183.59,-661.8 253.52,-664.3 301.28,-660.79"/>
<polygon fill="orange" stroke="orange" points="67.27,-483.97 62.17,-474.68 60.36,-485.11 67.27,-483.97"/>
</a>
</g>
<text xml:space="preserve" text-anchor="start" x="150.25" y="-666.31" font-family="FreeSans" font-size="10.00" fill="grey">&lt; 2, InternalInteger &gt;</text>
</g>
<!-- Node8 -->
<g id="Node000008" class="node">
<title>Node8</title>
<g id="a_Node000008"><a xlink:href="classDGtal_1_1SpaceND.html" target="_top" xlink:title=" ">
<polygon fill="white" stroke="#666666" points="409.62,-619.94 300.62,-619.94 300.62,-589.44 409.62,-589.44 409.62,-619.94"/>
<text xml:space="preserve" text-anchor="start" x="308.62" y="-606.44" font-family="FreeSans" font-size="10.00">DGtal::SpaceND&lt; K,</text>
<text xml:space="preserve" text-anchor="middle" x="355.12" y="-595.19" font-family="FreeSans" font-size="10.00"> Integer &gt;</text>
</a>
</g>
</g>
<!-- Node1&#45;&gt;Node8 -->
<g id="edge7_Node000001_Node000008" class="edge">
<title>Node1&#45;&gt;Node8</title>
<g id="a_edge7_Node000001_Node000008"><a xlink:title=" ">
<path fill="none" stroke="orange" stroke-dasharray="5,2" d="M70.25,-483.69C82.02,-509.89 103.91,-549.26 136,-569.69 185.34,-601.1 253.3,-607.5 300.19,-607.55"/>
<polygon fill="orange" stroke="orange" points="73.58,-482.58 66.43,-474.76 67.15,-485.33 73.58,-482.58"/>
</a>
</g>
<text xml:space="preserve" text-anchor="start" x="165.62" y="-610.12" font-family="FreeSans" font-size="10.00" fill="grey">&lt; K, Integer &gt;</text>
</g>
<!-- Node9 -->
<g id="Node000009" class="node">
<title>Node9</title>
<g id="a_Node000009"><a xlink:href="classDGtal_1_1SpaceND.html" target="_top" xlink:title=" ">
<polygon fill="white" stroke="#666666" points="408.88,-570.94 301.38,-570.94 301.38,-540.44 408.88,-540.44 408.88,-570.94"/>
<text xml:space="preserve" text-anchor="start" x="309.38" y="-557.44" font-family="FreeSans" font-size="10.00">DGtal::SpaceND&lt; 1,</text>
<text xml:space="preserve" text-anchor="middle" x="355.12" y="-546.19" font-family="FreeSans" font-size="10.00"> Integer &gt;</text>
</a>
</g>
</g>
<!-- Node1&#45;&gt;Node9 -->
<g id="edge8_Node000001_Node000009" class="edge">
<title>Node1&#45;&gt;Node9</title>
<g id="a_edge8_Node000001_Node000009"><a xlink:title=" ">
<path fill="none" stroke="orange" stroke-dasharray="5,2" d="M83.15,-480.99C97.25,-493.82 116.3,-508.88 136,-517.69 188.99,-541.38 255.36,-550.34 300.88,-553.71"/>
<polygon fill="orange" stroke="orange" points="85.83,-478.71 76.15,-474.41 81.03,-483.81 85.83,-478.71"/>
</a>
</g>
<text xml:space="preserve" text-anchor="start" x="166.38" y="-553.16" font-family="FreeSans" font-size="10.00" fill="grey">&lt; 1, Integer &gt;</text>
</g>
<!-- Node10 -->
<g id="Node000010" class="node">
<title>Node10</title>
<g id="a_Node000010"><a xlink:href="classDGtal_1_1SpaceND.html" target="_top" xlink:title=" ">
<polygon fill="white" stroke="#666666" points="410,-521.94 300.25,-521.94 300.25,-491.44 410,-491.44 410,-521.94"/>
<text xml:space="preserve" text-anchor="start" x="308.25" y="-508.44" font-family="FreeSans" font-size="10.00">DGtal::SpaceND&lt; N,</text>
<text xml:space="preserve" text-anchor="middle" x="355.12" y="-497.19" font-family="FreeSans" font-size="10.00"> Integer &gt;</text>
</a>
</g>
</g>
<!-- Node1&#45;&gt;Node10 -->
<g id="edge9_Node000001_Node000010" class="edge">
<title>Node1&#45;&gt;Node10</title>
<g id="a_edge9_Node000001_Node000010"><a xlink:title=" ">
<path fill="none" stroke="orange" stroke-dasharray="5,2" d="M123.8,-476.02C127.92,-476.98 132.01,-477.89 136,-478.69 191.39,-489.84 255.64,-497.46 299.99,-501.9"/>
<polygon fill="orange" stroke="orange" points="124.94,-472.7 114.39,-473.71 123.26,-479.49 124.94,-472.7"/>
</a>
</g>
<text xml:space="preserve" text-anchor="start" x="165.25" y="-501.63" font-family="FreeSans" font-size="10.00" fill="grey">&lt; N, Integer &gt;</text>
</g>
<!-- Node11 -->
<g id="Node000011" class="node">
<title>Node11</title>
<g id="a_Node000011"><a xlink:href="classDGtal_1_1SpaceND.html" target="_top" xlink:title=" ">
<polygon fill="white" stroke="#666666" points="408.88,-472.94 301.38,-472.94 301.38,-442.44 408.88,-442.44 408.88,-472.94"/>
<text xml:space="preserve" text-anchor="start" x="309.38" y="-459.44" font-family="FreeSans" font-size="10.00">DGtal::SpaceND&lt; 3,</text>
<text xml:space="preserve" text-anchor="middle" x="355.12" y="-448.19" font-family="FreeSans" font-size="10.00"> Integer &gt;</text>
</a>
</g>
</g>
<!-- Node1&#45;&gt;Node11 -->
<g id="edge10_Node000001_Node000011" class="edge">
<title>Node1&#45;&gt;Node11</title>
<g id="a_edge10_Node000001_Node000011"><a xlink:title=" ">
<path fill="none" stroke="orange" stroke-dasharray="5,2" d="M129.72,-457.69C182.28,-457.69 253.26,-457.69 301.21,-457.69"/>
<polygon fill="orange" stroke="orange" points="129.97,-454.19 119.97,-457.69 129.97,-461.19 129.97,-454.19"/>
</a>
</g>
<text xml:space="preserve" text-anchor="start" x="166.38" y="-462.44" font-family="FreeSans" font-size="10.00" fill="grey">&lt; 3, Integer &gt;</text>
</g>
<!-- Node12 -->
<g id="Node000012" class="node">
<title>Node12</title>
<g id="a_Node000012"><a xlink:href="classDGtal_1_1SpaceND.html" target="_top" xlink:title=" ">
<polygon fill="white" stroke="#666666" points="414.12,-423.94 296.12,-423.94 296.12,-393.44 414.12,-393.44 414.12,-423.94"/>
<text xml:space="preserve" text-anchor="start" x="304.12" y="-410.44" font-family="FreeSans" font-size="10.00">DGtal::SpaceND&lt; dim,</text>
<text xml:space="preserve" text-anchor="middle" x="355.12" y="-399.19" font-family="FreeSans" font-size="10.00"> Integer &gt;</text>
</a>
</g>
</g>
<!-- Node1&#45;&gt;Node12 -->
<g id="edge11_Node000001_Node000012" class="edge">
<title>Node1&#45;&gt;Node12</title>
<g id="a_edge11_Node000001_Node000012"><a xlink:title=" ">
<path fill="none" stroke="orange" stroke-dasharray="5,2" d="M122.98,-439.32C127.37,-438.27 131.74,-437.3 136,-436.44 189.69,-425.58 251.73,-418.17 295.88,-413.76"/>
<polygon fill="orange" stroke="orange" points="122.41,-435.86 113.56,-441.68 124.11,-442.65 122.41,-435.86"/>
</a>
</g>
<text xml:space="preserve" text-anchor="start" x="161.12" y="-441.19" font-family="FreeSans" font-size="10.00" fill="grey">&lt; dim, Integer &gt;</text>
</g>
<!-- Node13 -->
<g id="Node000013" class="node">
<title>Node13</title>
<g id="a_Node000013"><a xlink:href="classDGtal_1_1SpaceND.html" target="_top" xlink:title=" ">
<polygon fill="white" stroke="#666666" points="408.88,-374.94 301.38,-374.94 301.38,-344.44 408.88,-344.44 408.88,-374.94"/>
<text xml:space="preserve" text-anchor="start" x="309.38" y="-361.44" font-family="FreeSans" font-size="10.00">DGtal::SpaceND&lt; 2,</text>
<text xml:space="preserve" text-anchor="middle" x="355.12" y="-350.19" font-family="FreeSans" font-size="10.00"> Integer &gt;</text>
</a>
</g>
</g>
<!-- Node1&#45;&gt;Node13 -->
<g id="edge12_Node000001_Node000013" class="edge">
<title>Node1&#45;&gt;Node13</title>
<g id="a_edge12_Node000001_Node000013"><a xlink:title=" ">
<path fill="none" stroke="orange" stroke-dasharray="5,2" d="M82.86,-434.52C96.98,-421.59 116.15,-406.33 136,-397.44 189.14,-373.65 255.78,-364.8 301.33,-361.53"/>
<polygon fill="orange" stroke="orange" points="80.7,-431.74 75.85,-441.16 85.52,-436.82 80.7,-431.74"/>
</a>
</g>
<text xml:space="preserve" text-anchor="start" x="166.38" y="-402.19" font-family="FreeSans" font-size="10.00" fill="grey">&lt; 2, Integer &gt;</text>
</g>
<!-- Node14 -->
<g id="Node000014" class="node">
<title>Node14</title>
<g id="a_Node000014"><a xlink:href="classDGtal_1_1SpaceND.html" target="_top" xlink:title=" ">
<polygon fill="white" stroke="#666666" points="408.88,-325.94 301.38,-325.94 301.38,-295.44 408.88,-295.44 408.88,-325.94"/>
<text xml:space="preserve" text-anchor="start" x="309.38" y="-312.44" font-family="FreeSans" font-size="10.00">DGtal::SpaceND&lt; 3,</text>
<text xml:space="preserve" text-anchor="middle" x="355.12" y="-301.19" font-family="FreeSans" font-size="10.00"> TInteger &gt;</text>
</a>
</g>
</g>
<!-- Node1&#45;&gt;Node14 -->
<g id="edge13_Node000001_Node000014" class="edge">
<title>Node1&#45;&gt;Node14</title>
<g id="a_edge13_Node000001_Node000014"><a xlink:title=" ">
<path fill="none" stroke="orange" stroke-dasharray="5,2" d="M70.23,-431.62C81.98,-405.36 103.86,-365.89 136,-345.44 185.66,-313.83 254.19,-307.64 301.1,-307.74"/>
<polygon fill="orange" stroke="orange" points="67.12,-430.01 66.41,-440.58 73.56,-432.75 67.12,-430.01"/>
</a>
</g>
<text xml:space="preserve" text-anchor="start" x="163.38" y="-350.19" font-family="FreeSans" font-size="10.00" fill="grey">&lt; 3, TInteger &gt;</text>
</g>
<!-- Node15 -->
<g id="Node000015" class="node">
<title>Node15</title>
<g id="a_Node000015"><a xlink:href="classDGtal_1_1SpaceND.html" target="_top" xlink:title=" ">
<polygon fill="white" stroke="#666666" points="417.5,-276.94 292.75,-276.94 292.75,-246.44 417.5,-246.44 417.5,-276.94"/>
<text xml:space="preserve" text-anchor="start" x="300.75" y="-263.44" font-family="FreeSans" font-size="10.00">DGtal::SpaceND&lt; dim</text>
<text xml:space="preserve" text-anchor="middle" x="355.12" y="-252.19" font-family="FreeSans" font-size="10.00"> &#45; codimension, Integer &gt;</text>
</a>
</g>
</g>
<!-- Node1&#45;&gt;Node15 -->
<g id="edge14_Node000001_Node000015" class="edge">
<title>Node1&#45;&gt;Node15</title>
<g id="a_edge14_Node000001_Node000015"><a xlink:title=" ">
<path fill="none" stroke="orange" stroke-dasharray="5,2" d="M62.32,-430.8C67.5,-389.15 84.01,-310.02 136,-273.19 181.02,-241.29 245.33,-241.94 292.45,-248.44"/>
<polygon fill="orange" stroke="orange" points="58.84,-430.37 61.24,-440.69 65.8,-431.13 58.84,-430.37"/>
</a>
</g>
<text xml:space="preserve" text-anchor="start" x="150.25" y="-293.19" font-family="FreeSans" font-size="10.00" fill="grey">&lt; dim &#45; codimension,</text>
<text xml:space="preserve" text-anchor="start" x="150.25" y="-277.94" font-family="FreeSans" font-size="10.00" fill="grey">   Integer &gt;</text>
</g>
<!-- Node16 -->
<g id="Node000016" class="node">
<title>Node16</title>
<g id="a_Node000016"><a xlink:href="classDGtal_1_1SpaceND.html" target="_top" xlink:title=" ">
<polygon fill="white" stroke="#666666" points="436.25,-227.94 274,-227.94 274,-197.44 436.25,-197.44 436.25,-227.94"/>
<text xml:space="preserve" text-anchor="start" x="282" y="-214.44" font-family="FreeSans" font-size="10.00">DGtal::SpaceND&lt; subdimension,</text>
<text xml:space="preserve" text-anchor="middle" x="355.12" y="-203.19" font-family="FreeSans" font-size="10.00"> Integer &gt;</text>
</a>
</g>
</g>
<!-- Node1&#45;&gt;Node16 -->
<g id="edge15_Node000001_Node000016" class="edge">
<title>Node1&#45;&gt;Node16</title>
<g id="a_edge15_Node000001_Node000016"><a xlink:title=" ">
<path fill="none" stroke="orange" stroke-dasharray="5,2" d="M59.65,-430.61C60.63,-380.38 70.73,-273.38 136,-223.44 157.12,-207.28 220.56,-205.6 273.62,-207.39"/>
<polygon fill="orange" stroke="orange" points="56.15,-430.54 59.58,-440.57 63.15,-430.59 56.15,-430.54"/>
</a>
</g>
<text xml:space="preserve" text-anchor="start" x="139" y="-228.19" font-family="FreeSans" font-size="10.00" fill="grey">&lt; subdimension, Integer &gt;</text>
</g>
<!-- Node17 -->
<g id="Node000017" class="node">
<title>Node17</title>
<g id="a_Node000017"><a xlink:href="classDGtal_1_1SpaceND.html" target="_top" xlink:title=" ">
<polygon fill="white" stroke="#666666" points="426.88,-178.94 283.38,-178.94 283.38,-148.44 426.88,-148.44 426.88,-178.94"/>
<text xml:space="preserve" text-anchor="start" x="291.38" y="-165.44" font-family="FreeSans" font-size="10.00">DGtal::SpaceND&lt; 2,</text>
<text xml:space="preserve" text-anchor="middle" x="355.12" y="-154.19" font-family="FreeSans" font-size="10.00"> typename TSpace::Integer &gt;</text>
</a>
</g>
</g>
<!-- Node1&#45;&gt;Node17 -->
<g id="edge16_Node000001_Node000017" class="edge">
<title>Node1&#45;&gt;Node17</title>
<g id="a_edge16_Node000001_Node000017"><a xlink:title=" ">
<path fill="none" stroke="orange" stroke-dasharray="5,2" d="M63.04,-430.84C71.02,-365.84 94.79,-202.91 136,-170.19 158.07,-152.67 228.13,-153.31 282.97,-156.93"/>
<polygon fill="orange" stroke="orange" points="59.59,-430.28 61.88,-440.63 66.54,-431.11 59.59,-430.28"/>
</a>
</g>
<text xml:space="preserve" text-anchor="start" x="146.12" y="-190.19" font-family="FreeSans" font-size="10.00" fill="grey">&lt; 2, typename TSpace</text>
<text xml:space="preserve" text-anchor="start" x="146.12" y="-174.94" font-family="FreeSans" font-size="10.00" fill="grey">  ::Integer &gt;</text>
</g>
<!-- Node18 -->
<g id="Node000018" class="node">
<title>Node18</title>
<g id="a_Node000018"><a xlink:href="classDGtal_1_1SpaceND.html" target="_top" xlink:title=" ">
<polygon fill="white" stroke="#666666" points="423.88,-127.94 286.38,-127.94 286.38,-97.44 423.88,-97.44 423.88,-127.94"/>
<text xml:space="preserve" text-anchor="start" x="294.38" y="-114.44" font-family="FreeSans" font-size="10.00">DGtal::SpaceND&lt; 2,</text>
<text xml:space="preserve" text-anchor="middle" x="355.12" y="-103.19" font-family="FreeSans" font-size="10.00"> typename Space::Integer &gt;</text>
</a>
</g>
</g>
<!-- Node1&#45;&gt;Node18 -->
<g id="edge17_Node000001_Node000018" class="edge">
<title>Node1&#45;&gt;Node18</title>
<g id="a_edge17_Node000001_Node000018"><a xlink:title=" ">
<path fill="none" stroke="orange" stroke-dasharray="5,2" d="M61.86,-431.03C67.55,-358.11 87.37,-158.16 136,-118.19 181.07,-81.15 250.85,-86.68 299.3,-96.97"/>
<polygon fill="orange" stroke="orange" points="58.38,-430.61 61.12,-440.84 65.36,-431.13 58.38,-430.61"/>
</a>
</g>
<text xml:space="preserve" text-anchor="start" x="149.12" y="-138.19" font-family="FreeSans" font-size="10.00" fill="grey">&lt; 2, typename Space</text>
<text xml:space="preserve" text-anchor="start" x="149.12" y="-122.94" font-family="FreeSans" font-size="10.00" fill="grey">  ::Integer &gt;</text>
</g>
<!-- Node19 -->
<g id="Node000019" class="node">
<title>Node19</title>
<g id="a_Node000019"><a xlink:href="classDGtal_1_1SpaceND.html" target="_top" xlink:title=" ">
<polygon fill="white" stroke="#666666" points="408.88,-78.94 301.38,-78.94 301.38,-48.44 408.88,-48.44 408.88,-78.94"/>
<text xml:space="preserve" text-anchor="start" x="309.38" y="-65.44" font-family="FreeSans" font-size="10.00">DGtal::SpaceND&lt; 2,</text>
<text xml:space="preserve" text-anchor="middle" x="355.12" y="-54.19" font-family="FreeSans" font-size="10.00"> int &gt;</text>
</a>
</g>
</g>
<!-- Node1&#45;&gt;Node19 -->
<g id="edge18_Node000001_Node000019" class="edge">
<title>Node1&#45;&gt;Node19</title>
<g id="a_edge18_Node000001_Node000019"><a xlink:title=" ">
<path fill="none" stroke="orange" stroke-dasharray="5,2" d="M61.03,-430.9C64.74,-350.73 80.27,-115.37 136,-68.44 160.05,-48.19 244.62,-52.2 301.12,-57.53"/>
<polygon fill="orange" stroke="orange" points="57.56,-430.32 60.62,-440.46 64.55,-430.62 57.56,-430.32"/>
</a>
</g>
<text xml:space="preserve" text-anchor="start" x="176.12" y="-73.19" font-family="FreeSans" font-size="10.00" fill="grey">&lt; 2, int &gt;</text>
</g>
<!-- Node20 -->
<g id="Node000020" class="node">
<title>Node20</title>
<g id="a_Node000020"><a xlink:href="classDGtal_1_1SpaceND.html" target="_top" xlink:title=" ">
<polygon fill="white" stroke="#666666" points="413,-30.31 297.25,-30.31 297.25,-11.06 413,-11.06 413,-30.31"/>
<text xml:space="preserve" text-anchor="middle" x="355.12" y="-16.81" font-family="FreeSans" font-size="10.00">DGtal::SpaceND&lt; N &gt;</text>
</a>
</g>
</g>
<!-- Node1&#45;&gt;Node20 -->
<g id="edge19_Node000001_Node000020" class="edge">
<title>Node1&#45;&gt;Node20</title>
<g id="a_edge19_Node000001_Node000020"><a xlink:title=" ">
<path fill="none" stroke="orange" stroke-dasharray="5,2" d="M60.64,-430.54C63.25,-345.29 76.08,-85.41 136,-32.44 186.29,12.02 271.31,0.62 319,-10.65"/>
<polygon fill="orange" stroke="orange" points="57.14,-430.42 60.36,-440.51 64.14,-430.61 57.14,-430.42"/>
</a>
</g>
<text xml:space="preserve" text-anchor="start" x="183.25" y="-37.19" font-family="FreeSans" font-size="10.00" fill="grey">&lt; N &gt;</text>
</g>
</g>
</svg>
