<?xml version="1.0" encoding="UTF-8" standalone="no"?>
<!DOCTYPE svg PUBLIC "-//W3C//DTD SVG 1.1//EN"
 "http://www.w3.org/Graphics/SVG/1.1/DTD/svg11.dtd">
<!-- Generated by graphviz version 14.1.0 (20251206.1807)
 -->
<!-- Title: GDEC Pages: 1 -->
<svg width="1159pt" height="526pt"
 viewBox="0.00 0.00 1159.00 526.00" xmlns="http://www.w3.org/2000/svg" xmlns:xlink="http://www.w3.org/1999/xlink">
<g id="graph0" class="graph" transform="scale(1 1) rotate(0) translate(4 522)">
<title>GDEC</title>
<polygon fill="white" stroke="none" points="-4,4 -4,-522 1155,-522 1155,4 -4,4"/>
<g id="clust1" class="cluster">
<title>cluster_boost</title>
<polygon fill="white" stroke="white" points="8,-433.5 8,-510 422,-510 422,-433.5 8,-433.5"/>
<text xml:space="preserve" text-anchor="middle" x="215" y="-440.7" font-family="Times,serif" font-size="14.00">boost</text>
</g>
<g id="clust2" class="cluster">
<title>cluster_math_linalg</title>
<polygon fill="#e4e4ff" stroke="#e4e4ff" points="21,-119 21,-414.5 807,-414.5 807,-119 21,-119"/>
<text xml:space="preserve" text-anchor="middle" x="414" y="-126.2" font-family="Times,serif" font-size="14.00">math/linalg</text>
</g>
<g id="clust3" class="cluster">
<title>cluster_concepts</title>
<polygon fill="lightgrey" stroke="lightgrey" points="815,-119 815,-195.5 1143,-195.5 1143,-119 815,-119"/>
<text xml:space="preserve" text-anchor="middle" x="979" y="-126.2" font-family="Times,serif" font-size="14.00">DEC (main concepts)</text>
</g>
<g id="clust4" class="cluster">
<title>cluster_models</title>
<polygon fill="#ccffcc" stroke="#ccffcc" points="233,-8 233,-84.5 1105,-84.5 1105,-8 233,-8"/>
<text xml:space="preserve" text-anchor="middle" x="669" y="-15.2" font-family="Times,serif" font-size="14.00">DEC (main models)</text>
</g>
<!-- boost_DefaultConstructible -->
<g id="node1" class="node">
<title>boost_DefaultConstructible</title>
<g id="a_node1"><a xlink:href="structboost_1_1DefaultConstructible.html" target="_top" xlink:title="boost::DefaultConstructible">
<ellipse fill="orange" stroke="orange" cx="129" cy="-484" rx="113.28" ry="18"/>
<text xml:space="preserve" text-anchor="middle" x="129" y="-478.95" font-family="Times,serif" font-size="14.00">boost::DefaultConstructible</text>
</a>
</g>
</g>
<!-- boost_Assignable -->
<g id="node2" class="node">
<title>boost_Assignable</title>
<g id="a_node2"><a xlink:href="structboost_1_1Assignable.html" target="_top" xlink:title="boost::Assignable">
<ellipse fill="orange" stroke="orange" cx="337" cy="-484" rx="76.94" ry="18"/>
<text xml:space="preserve" text-anchor="middle" x="337" y="-478.95" font-family="Times,serif" font-size="14.00">boost::Assignable</text>
</a>
</g>
</g>
<!-- CVectorSpace -->
<g id="node3" class="node">
<title>CVectorSpace</title>
<g id="a_node3"><a xlink:href="structDGtal_1_1concepts_1_1CVectorSpace.html" target="_top" xlink:title="CVectorSpace">
<ellipse fill="white" stroke="white" cx="430" cy="-388.5" rx="63.12" ry="18"/>
<text xml:space="preserve" text-anchor="middle" x="430" y="-383.45" font-family="Times,serif" font-size="14.00">CVectorSpace</text>
</a>
</g>
</g>
<!-- CVectorSpace&#45;&gt;boost_Assignable -->
<g id="edge14" class="edge">
<title>CVectorSpace&#45;&gt;boost_Assignable</title>
<path fill="none" stroke="black" d="M413.37,-406.22C399.05,-420.62 378.16,-441.62 361.85,-458.02"/>
<polygon fill="black" stroke="black" points="359.43,-455.48 354.86,-465.04 364.4,-460.42 359.43,-455.48"/>
</g>
<!-- CMatrix -->
<g id="node4" class="node">
<title>CMatrix</title>
<g id="a_node4"><a xlink:href="structDGtal_1_1concepts_1_1CMatrix.html" target="_top" xlink:title="CMatrix">
<ellipse fill="white" stroke="white" cx="401" cy="-315.5" rx="42.65" ry="18"/>
<text xml:space="preserve" text-anchor="middle" x="401" y="-310.45" font-family="Times,serif" font-size="14.00">CMatrix</text>
</a>
</g>
</g>
<!-- CMatrix&#45;&gt;CVectorSpace -->
<g id="edge5" class="edge">
<title>CMatrix&#45;&gt;CVectorSpace</title>
<path fill="none" stroke="black" d="M408.02,-333.69C411.23,-341.54 415.1,-351.03 418.7,-359.84"/>
<polygon fill="black" stroke="black" points="415.45,-361.14 422.47,-369.07 421.93,-358.49 415.45,-361.14"/>
</g>
<!-- CStaticMatrix -->
<g id="node5" class="node">
<title>CStaticMatrix</title>
<g id="a_node5"><a xlink:href="structDGtal_1_1concepts_1_1CStaticMatrix.html" target="_top" xlink:title="CStaticMatrix">
<ellipse fill="white" stroke="white" cx="93" cy="-242.5" rx="63.63" ry="18"/>
<text xml:space="preserve" text-anchor="middle" x="93" y="-237.45" font-family="Times,serif" font-size="14.00">CStaticMatrix</text>
</a>
</g>
</g>
<!-- CStaticMatrix&#45;&gt;boost_DefaultConstructible -->
<g id="edge7" class="edge">
<title>CStaticMatrix&#45;&gt;boost_DefaultConstructible</title>
<path fill="none" stroke="black" d="M95.59,-260.72C101.71,-301.45 117.13,-404.01 124.69,-454.3"/>
<polygon fill="black" stroke="black" points="121.21,-454.74 126.16,-464.11 128.14,-453.7 121.21,-454.74"/>
</g>
<!-- CStaticMatrix&#45;&gt;CMatrix -->
<g id="edge6" class="edge">
<title>CStaticMatrix&#45;&gt;CMatrix</title>
<path fill="none" stroke="black" d="M140.9,-254.68C149.27,-256.62 157.89,-258.62 166,-260.5 230.62,-275.45 305.26,-292.58 352.78,-303.46"/>
<polygon fill="black" stroke="black" points="351.95,-306.86 362.48,-305.68 353.51,-300.04 351.95,-306.86"/>
</g>
<!-- CDynamicMatrix -->
<g id="node6" class="node">
<title>CDynamicMatrix</title>
<g id="a_node6"><a xlink:href="structDGtal_1_1concepts_1_1CDynamicMatrix.html" target="_top" xlink:title="CDynamicMatrix">
<ellipse fill="white" stroke="white" cx="394" cy="-242.5" rx="76.94" ry="18"/>
<text xml:space="preserve" text-anchor="middle" x="394" y="-237.45" font-family="Times,serif" font-size="14.00">CDynamicMatrix</text>
</a>
</g>
</g>
<!-- CDynamicMatrix&#45;&gt;CMatrix -->
<g id="edge8" class="edge">
<title>CDynamicMatrix&#45;&gt;CMatrix</title>
<path fill="none" stroke="black" d="M395.69,-260.69C396.45,-268.36 397.36,-277.61 398.22,-286.26"/>
<polygon fill="black" stroke="black" points="394.71,-286.36 399.17,-295.96 401.67,-285.67 394.71,-286.36"/>
</g>
<!-- CVector -->
<g id="node7" class="node">
<title>CVector</title>
<g id="a_node7"><a xlink:href="structDGtal_1_1concepts_1_1CVector.html" target="_top" xlink:title="CVector">
<ellipse fill="white" stroke="white" cx="512" cy="-315.5" rx="41.12" ry="18"/>
<text xml:space="preserve" text-anchor="middle" x="512" y="-310.45" font-family="Times,serif" font-size="14.00">CVector</text>
</a>
</g>
</g>
<!-- CVector&#45;&gt;CVectorSpace -->
<g id="edge1" class="edge">
<title>CVector&#45;&gt;CVectorSpace</title>
<path fill="none" stroke="black" d="M494.21,-331.91C483.52,-341.16 469.69,-353.13 457.61,-363.59"/>
<polygon fill="black" stroke="black" points="455.6,-360.7 450.33,-369.9 460.18,-366 455.6,-360.7"/>
</g>
<!-- CStaticVector -->
<g id="node8" class="node">
<title>CStaticVector</title>
<g id="a_node8"><a xlink:href="structDGtal_1_1concepts_1_1CStaticVector.html" target="_top" xlink:title="CStaticVector">
<ellipse fill="white" stroke="white" cx="237" cy="-242.5" rx="62.1" ry="18"/>
<text xml:space="preserve" text-anchor="middle" x="237" y="-237.45" font-family="Times,serif" font-size="14.00">CStaticVector</text>
</a>
</g>
</g>
<!-- CStaticVector&#45;&gt;boost_DefaultConstructible -->
<g id="edge3" class="edge">
<title>CStaticVector&#45;&gt;boost_DefaultConstructible</title>
<path fill="none" stroke="black" d="M229.23,-260.72C210.75,-301.71 164.03,-405.32 141.51,-455.25"/>
<polygon fill="black" stroke="black" points="138.38,-453.68 137.46,-464.23 144.77,-456.55 138.38,-453.68"/>
</g>
<!-- CStaticVector&#45;&gt;CVector -->
<g id="edge2" class="edge">
<title>CStaticVector&#45;&gt;CVector</title>
<path fill="none" stroke="black" d="M283.89,-254.71C327.73,-265.32 394.96,-281.89 453,-297.5 457.82,-298.8 462.85,-300.19 467.85,-301.6"/>
<polygon fill="black" stroke="black" points="466.64,-304.89 477.22,-304.26 468.56,-298.16 466.64,-304.89"/>
</g>
<!-- CDynamicVector -->
<g id="node9" class="node">
<title>CDynamicVector</title>
<g id="a_node9"><a xlink:href="structDGtal_1_1concepts_1_1CDynamicVector.html" target="_top" xlink:title="CDynamicVector">
<ellipse fill="white" stroke="white" cx="724" cy="-242.5" rx="75.41" ry="18"/>
<text xml:space="preserve" text-anchor="middle" x="724" y="-237.45" font-family="Times,serif" font-size="14.00">CDynamicVector</text>
</a>
</g>
</g>
<!-- CDynamicVector&#45;&gt;CVector -->
<g id="edge4" class="edge">
<title>CDynamicVector&#45;&gt;CVector</title>
<path fill="none" stroke="black" d="M681.35,-257.78C644.54,-270.11 591.61,-287.84 554.76,-300.18"/>
<polygon fill="black" stroke="black" points="553.68,-296.85 545.31,-303.34 555.9,-303.49 553.68,-296.85"/>
</g>
<!-- CLinearAlgebra -->
<g id="node10" class="node">
<title>CLinearAlgebra</title>
<g id="a_node10"><a xlink:href="structDGtal_1_1concepts_1_1CLinearAlgebra.html" target="_top" xlink:title="CLinearAlgebra">
<ellipse fill="white" stroke="white" cx="560" cy="-242.5" rx="70.8" ry="18"/>
<text xml:space="preserve" text-anchor="middle" x="560" y="-237.45" font-family="Times,serif" font-size="14.00">CLinearAlgebra</text>
</a>
</g>
</g>
<!-- CLinearAlgebra&#45;&gt;CMatrix -->
<g id="edge9" class="edge">
<title>CLinearAlgebra&#45;&gt;CMatrix</title>
<path fill="none" stroke="black" d="M525.89,-258.73C500.63,-270.01 466.17,-285.4 439.85,-297.15"/>
<polygon fill="black" stroke="black" points="438.56,-293.89 430.86,-301.17 441.41,-300.29 438.56,-293.89"/>
</g>
<!-- CLinearAlgebra&#45;&gt;CVector -->
<g id="edge10" class="edge">
<title>CLinearAlgebra&#45;&gt;CVector</title>
<path fill="none" stroke="black" d="M548.38,-260.69C542.7,-269.09 535.74,-279.39 529.43,-288.71"/>
<polygon fill="black" stroke="black" points="526.73,-286.46 524.03,-296.71 532.53,-290.38 526.73,-286.46"/>
</g>
<!-- CLinearAlgebraSolver -->
<g id="node11" class="node">
<title>CLinearAlgebraSolver</title>
<g id="a_node11"><a xlink:href="structDGtal_1_1concepts_1_1CLinearAlgebraSolver.html" target="_top" xlink:title="CLinearAlgebraSolver">
<ellipse fill="white" stroke="white" cx="369" cy="-169.5" rx="94.86" ry="18"/>
<text xml:space="preserve" text-anchor="middle" x="369" y="-164.45" font-family="Times,serif" font-size="14.00">CLinearAlgebraSolver</text>
</a>
</g>
</g>
<!-- CLinearAlgebraSolver&#45;&gt;boost_DefaultConstructible -->
<g id="edge12" class="edge">
<title>CLinearAlgebraSolver&#45;&gt;boost_DefaultConstructible</title>
<path fill="none" stroke="black" d="M274.23,-170.38C165.2,-172.88 1,-185.87 1,-241.5 1,-241.5 1,-241.5 1,-389.5 1,-425.26 33.98,-448.8 66.45,-463.32"/>
<polygon fill="black" stroke="black" points="64.97,-466.5 75.54,-467.14 67.68,-460.04 64.97,-466.5"/>
</g>
<!-- CLinearAlgebraSolver&#45;&gt;CLinearAlgebra -->
<g id="edge11" class="edge">
<title>CLinearAlgebraSolver&#45;&gt;CLinearAlgebra</title>
<path fill="none" stroke="black" d="M410.92,-186.08C440.29,-197 479.66,-211.63 510.56,-223.12"/>
<polygon fill="black" stroke="black" points="509.1,-226.31 519.69,-226.52 511.54,-219.75 509.1,-226.31"/>
</g>
<!-- CDiscreteExteriorCalculusVectorSpace -->
<g id="node12" class="node">
<title>CDiscreteExteriorCalculusVectorSpace</title>
<g id="a_node12"><a xlink:href="structDGtal_1_1concepts_1_1CDiscreteExteriorCalculusVectorSpace.html" target="_top" xlink:title="CDiscreteExteriorCalculusVectorSpace">
<ellipse fill="white" stroke="white" cx="979" cy="-169.5" rx="156.27" ry="18"/>
<text xml:space="preserve" text-anchor="middle" x="979" y="-164.45" font-family="Times,serif" font-size="14.00">CDiscreteExteriorCalculusVectorSpace</text>
</a>
</g>
</g>
<!-- CDiscreteExteriorCalculusVectorSpace&#45;&gt;CVectorSpace -->
<g id="edge13" class="edge">
<title>CDiscreteExteriorCalculusVectorSpace&#45;&gt;CVectorSpace</title>
<path fill="none" stroke="black" d="M950.04,-187.58C916.58,-206.88 859.51,-238.46 808,-260.5 696,-308.42 559.37,-350.47 484.89,-372.07"/>
<polygon fill="black" stroke="black" points="484.02,-368.68 475.38,-374.82 485.96,-375.41 484.02,-368.68"/>
</g>
<!-- KForm -->
<g id="node13" class="node">
<title>KForm</title>
<g id="a_node13"><a xlink:href="classDGtal_1_1KForm.html" target="_top" xlink:title="KForm">
<ellipse fill="white" stroke="white" cx="779" cy="-58.5" rx="38.04" ry="18"/>
<text xml:space="preserve" text-anchor="middle" x="779" y="-53.45" font-family="Times,serif" font-size="14.00">KForm</text>
</a>
</g>
</g>
<!-- KForm&#45;&gt;CDiscreteExteriorCalculusVectorSpace -->
<g id="edge15" class="edge">
<title>KForm&#45;&gt;CDiscreteExteriorCalculusVectorSpace</title>
<path fill="none" stroke="black" d="M803.12,-72.65C836.55,-90.87 897.42,-124.04 938.04,-146.17"/>
<polygon fill="black" stroke="black" points="936.11,-149.11 946.57,-150.83 939.46,-142.97 936.11,-149.11"/>
</g>
<!-- LinearOperator -->
<g id="node14" class="node">
<title>LinearOperator</title>
<g id="a_node14"><a xlink:href="classDGtal_1_1LinearOperator.html" target="_top" xlink:title="LinearOperator">
<ellipse fill="white" stroke="white" cx="903" cy="-58.5" rx="67.73" ry="18"/>
<text xml:space="preserve" text-anchor="middle" x="903" y="-53.45" font-family="Times,serif" font-size="14.00">LinearOperator</text>
</a>
</g>
</g>
<!-- LinearOperator&#45;&gt;CDiscreteExteriorCalculusVectorSpace -->
<g id="edge16" class="edge">
<title>LinearOperator&#45;&gt;CDiscreteExteriorCalculusVectorSpace</title>
<path fill="none" stroke="black" d="M914.88,-76.53C927.07,-94.03 946.23,-121.5 960.44,-141.87"/>
<polygon fill="black" stroke="black" points="957.5,-143.79 966.09,-149.99 963.24,-139.78 957.5,-143.79"/>
</g>
<!-- VectorField -->
<g id="node15" class="node">
<title>VectorField</title>
<g id="a_node15"><a xlink:href="classDGtal_1_1VectorField.html" target="_top" xlink:title="VectorField">
<ellipse fill="white" stroke="white" cx="1043" cy="-58.5" rx="53.91" ry="18"/>
<text xml:space="preserve" text-anchor="middle" x="1043" y="-53.45" font-family="Times,serif" font-size="14.00">VectorField</text>
</a>
</g>
</g>
<!-- VectorField&#45;&gt;CDiscreteExteriorCalculusVectorSpace -->
<g id="edge17" class="edge">
<title>VectorField&#45;&gt;CDiscreteExteriorCalculusVectorSpace</title>
<path fill="none" stroke="black" d="M1033,-76.53C1022.82,-93.87 1006.89,-121.01 994.96,-141.32"/>
<polygon fill="black" stroke="black" points="991.95,-139.53 989.91,-149.92 997.99,-143.07 991.95,-139.53"/>
</g>
<!-- DiscreteExteriorCalculus -->
<g id="node16" class="node">
<title>DiscreteExteriorCalculus</title>
<g id="a_node16"><a xlink:href="classDGtal_1_1DiscreteExteriorCalculus.html" target="_top" xlink:title="DiscreteExteriorCalculus">
<ellipse fill="white" stroke="white" cx="619" cy="-58.5" rx="104.07" ry="18"/>
<text xml:space="preserve" text-anchor="middle" x="619" y="-53.45" font-family="Times,serif" font-size="14.00">DiscreteExteriorCalculus</text>
</a>
</g>
</g>
<!-- DiscreteExteriorCalculus&#45;&gt;CDynamicMatrix -->
<g id="edge19" class="edge">
<title>DiscreteExteriorCalculus&#45;&gt;CDynamicMatrix</title>
<path fill="none" stroke="black" stroke-dasharray="5,2" d="M599.8,-76.54C586.56,-88.36 568.6,-104.51 553,-119 516.95,-152.47 512.31,-165.92 473,-195.5 461.19,-204.39 447.52,-212.89 434.91,-220.12"/>
<polygon fill="black" stroke="black" points="433.41,-216.95 426.4,-224.89 436.83,-223.06 433.41,-216.95"/>
<text xml:space="preserve" text-anchor="middle" x="562" y="-164.45" font-family="Times,serif" font-size="14.00">use</text>
</g>
<!-- DiscreteExteriorCalculus&#45;&gt;CDynamicVector -->
<g id="edge20" class="edge">
<title>DiscreteExteriorCalculus&#45;&gt;CDynamicVector</title>
<path fill="none" stroke="black" stroke-dasharray="5,2" d="M628.88,-76.62C647.17,-108.33 686.45,-176.41 708.38,-214.42"/>
<polygon fill="black" stroke="black" points="705.29,-216.07 713.32,-222.98 711.35,-212.57 705.29,-216.07"/>
<text xml:space="preserve" text-anchor="middle" x="705.78" y="-164.45" font-family="Times,serif" font-size="14.00">use</text>
</g>
<!-- DiscreteExteriorCalculus&#45;&gt;CLinearAlgebra -->
<g id="edge18" class="edge">
<title>DiscreteExteriorCalculus&#45;&gt;CLinearAlgebra</title>
<path fill="none" stroke="black" stroke-dasharray="5,2" d="M613.34,-76.95C603.12,-108.48 581.5,-175.18 569.15,-213.27"/>
<polygon fill="black" stroke="black" points="565.86,-212.07 566.11,-222.66 572.52,-214.23 565.86,-212.07"/>
<text xml:space="preserve" text-anchor="middle" x="608.64" y="-164.45" font-family="Times,serif" font-size="14.00">use</text>
</g>
<!-- DiscreteExteriorCalculusSolver -->
<g id="node17" class="node">
<title>DiscreteExteriorCalculusSolver</title>
<g id="a_node17"><a xlink:href="classDGtal_1_1DiscreteExteriorCalculusSolver.html" target="_top" xlink:title="DiscreteExteriorCalculusSolver">
<ellipse fill="white" stroke="white" cx="369" cy="-58.5" rx="128.12" ry="18"/>
<text xml:space="preserve" text-anchor="middle" x="369" y="-53.45" font-family="Times,serif" font-size="14.00">DiscreteExteriorCalculusSolver</text>
</a>
</g>
</g>
<!-- DiscreteExteriorCalculusSolver&#45;&gt;CLinearAlgebraSolver -->
<g id="edge21" class="edge">
<title>DiscreteExteriorCalculusSolver&#45;&gt;CLinearAlgebraSolver</title>
<path fill="none" stroke="black" stroke-dasharray="5,2" d="M369,-76.53C369,-93.47 369,-119.77 369,-139.91"/>
<polygon fill="black" stroke="black" points="365.5,-139.72 369,-149.72 372.5,-139.72 365.5,-139.72"/>
<text xml:space="preserve" text-anchor="middle" x="378" y="-97.7" font-family="Times,serif" font-size="14.00">use</text>
</g>
</g>
</svg>
