<?xml version="1.0" encoding="UTF-8" standalone="no"?>
<!DOCTYPE svg PUBLIC "-//W3C//DTD SVG 1.1//EN"
 "http://www.w3.org/Graphics/SVG/1.1/DTD/svg11.dtd">
<!-- Generated by graphviz version 14.1.0 (20251206.1807)
 -->
<!-- Title: GMath Pages: 1 -->
<svg width="2802pt" height="499pt"
 viewBox="0.00 0.00 2802.00 499.00" xmlns="http://www.w3.org/2000/svg" xmlns:xlink="http://www.w3.org/1999/xlink">
<g id="graph0" class="graph" transform="scale(1 1) rotate(0) translate(4 494.5)">
<title>GMath</title>
<polygon fill="white" stroke="none" points="-4,4 -4,-494.5 2798,-494.5 2798,4 -4,4"/>
<g id="clust1" class="cluster">
<title>cluster_ext</title>
<polygon fill="none" stroke="black" points="1411,-311 1411,-403.5 2786,-403.5 2786,-311 1411,-311"/>
</g>
<g id="clust2" class="cluster">
<title>cluster_kernel</title>
<polygon fill="#ddddee" stroke="#ddddee" points="2428,-319 2428,-395.5 2778,-395.5 2778,-319 2428,-319"/>
<text xml:space="preserve" text-anchor="middle" x="2603" y="-326.2" font-family="Times,serif" font-size="14.00">kernel</text>
</g>
<g id="clust4" class="cluster">
<title>cluster_boost</title>
<polygon fill="white" stroke="white" points="1419,-319 1419,-395.5 2420,-395.5 2420,-319 1419,-319"/>
<text xml:space="preserve" text-anchor="middle" x="1919.5" y="-326.2" font-family="Times,serif" font-size="14.00">boost</text>
</g>
<g id="clust6" class="cluster">
<title>cluster_math_cc</title>
<polygon fill="none" stroke="black" points="8,-119 8,-482.5 1403,-482.5 1403,-119 8,-119"/>
</g>
<g id="clust7" class="cluster">
<title>cluster_math_linalg</title>
<polygon fill="#e4e4ff" stroke="#e4e4ff" points="16,-127 16,-474.5 1250,-474.5 1250,-127 16,-127"/>
<text xml:space="preserve" text-anchor="middle" x="633" y="-134.2" font-family="Times,serif" font-size="14.00">math/linalg</text>
</g>
<g id="clust8" class="cluster">
<title>cluster_concepts</title>
<polygon fill="lightgrey" stroke="lightgrey" points="1258,-127 1258,-203.5 1395,-203.5 1395,-127 1258,-127"/>
<text xml:space="preserve" text-anchor="middle" x="1326.5" y="-134.2" font-family="Times,serif" font-size="14.00">Math (main concepts)</text>
</g>
<g id="clust9" class="cluster">
<title>cluster_models</title>
<polygon fill="#ccffcc" stroke="#ccffcc" points="1842,-8 1842,-84.5 2350,-84.5 2350,-8 1842,-8"/>
<text xml:space="preserve" text-anchor="middle" x="2096" y="-15.2" font-family="Times,serif" font-size="14.00">Math (main models and classes)</text>
</g>
<!-- CCommutativeRing -->
<g id="node1" class="node">
<title>CCommutativeRing</title>
<g id="a_node1"><a xlink:href="structDGtal_1_1concepts_1_1CCommutativeRing.html" target="_top" xlink:title="CCommutativeRing">
<ellipse fill="white" stroke="white" cx="2684" cy="-369.5" rx="86.15" ry="18"/>
<text xml:space="preserve" text-anchor="middle" x="2684" y="-364.45" font-family="Times,serif" font-size="14.00">CCommutativeRing</text>
</a>
</g>
</g>
<!-- CEuclideanRing -->
<g id="node2" class="node">
<title>CEuclideanRing</title>
<g id="a_node2"><a xlink:href="structDGtal_1_1concepts_1_1CEuclideanRing.html" target="_top" xlink:title="CEuclideanRing">
<ellipse fill="white" stroke="white" cx="2508" cy="-369.5" rx="71.82" ry="18"/>
<text xml:space="preserve" text-anchor="middle" x="2508" y="-364.45" font-family="Times,serif" font-size="14.00">CEuclideanRing</text>
</a>
</g>
</g>
<!-- boost_CopyConstructible -->
<g id="node3" class="node">
<title>boost_CopyConstructible</title>
<g id="a_node3"><a xlink:href="structboost_1_1CopyConstructible.html" target="_top" xlink:title="boost::CopyConstructible">
<ellipse fill="orange" stroke="orange" cx="1777" cy="-369.5" rx="105.6" ry="18"/>
<text xml:space="preserve" text-anchor="middle" x="1777" y="-364.45" font-family="Times,serif" font-size="14.00">boost::CopyConstructible</text>
</a>
</g>
</g>
<!-- boost_DefaultConstructible -->
<g id="node4" class="node">
<title>boost_DefaultConstructible</title>
<g id="a_node4"><a xlink:href="structboost_1_1DefaultConstructible.html" target="_top" xlink:title="boost::DefaultConstructible">
<ellipse fill="orange" stroke="orange" cx="1540" cy="-369.5" rx="113.28" ry="18"/>
<text xml:space="preserve" text-anchor="middle" x="1540" y="-364.45" font-family="Times,serif" font-size="14.00">boost::DefaultConstructible</text>
</a>
</g>
</g>
<!-- boost_InputIterator -->
<g id="node5" class="node">
<title>boost_InputIterator</title>
<g id="a_node5"><a xlink:href="structboost_1_1InputIterator.html" target="_top" xlink:title="boost::InputIterator">
<ellipse fill="orange" stroke="orange" cx="2329" cy="-369.5" rx="82.57" ry="18"/>
<text xml:space="preserve" text-anchor="middle" x="2329" y="-364.45" font-family="Times,serif" font-size="14.00">boost::InputIterator</text>
</a>
</g>
</g>
<!-- boost_is_integral -->
<g id="node6" class="node">
<title>boost_is_integral</title>
<g id="a_node6"><a xlink:href="structboost_1_1is__integral.html" target="_top" xlink:title="boost::is_integral">
<ellipse fill="orange" stroke="orange" cx="1975" cy="-369.5" rx="74.89" ry="18"/>
<text xml:space="preserve" text-anchor="middle" x="1975" y="-364.45" font-family="Times,serif" font-size="14.00">boost::is_integral</text>
</a>
</g>
</g>
<!-- boost_is_unsigned -->
<g id="node7" class="node">
<title>boost_is_unsigned</title>
<g id="a_node7"><a xlink:href="structboost_1_1is__unsigned.html" target="_top" xlink:title="boost::is_unsigned">
<ellipse fill="orange" stroke="orange" cx="2148" cy="-369.5" rx="80.01" ry="18"/>
<text xml:space="preserve" text-anchor="middle" x="2148" y="-364.45" font-family="Times,serif" font-size="14.00">boost::is_unsigned</text>
</a>
</g>
</g>
<!-- CVectorSpace -->
<g id="node8" class="node">
<title>CVectorSpace</title>
<g id="a_node8"><a xlink:href="structDGtal_1_1concepts_1_1CVectorSpace.html" target="_top" xlink:title="CVectorSpace">
<ellipse fill="white" stroke="white" cx="630" cy="-448.5" rx="63.12" ry="18"/>
<text xml:space="preserve" text-anchor="middle" x="630" y="-443.45" font-family="Times,serif" font-size="14.00">CVectorSpace</text>
</a>
</g>
</g>
<!-- CMatrix -->
<g id="node9" class="node">
<title>CMatrix</title>
<g id="a_node9"><a xlink:href="structDGtal_1_1concepts_1_1CMatrix.html" target="_top" xlink:title="CMatrix">
<ellipse fill="white" stroke="white" cx="474" cy="-369.5" rx="42.65" ry="18"/>
<text xml:space="preserve" text-anchor="middle" x="474" y="-364.45" font-family="Times,serif" font-size="14.00">CMatrix</text>
</a>
</g>
</g>
<!-- CMatrix&#45;&gt;CVectorSpace -->
<g id="edge6" class="edge">
<title>CMatrix&#45;&gt;CVectorSpace</title>
<path fill="none" stroke="black" d="M500.82,-383.74C525.07,-395.71 561.15,-413.52 589.02,-427.27"/>
<polygon fill="black" stroke="black" points="587.38,-430.37 597.9,-431.66 590.48,-424.09 587.38,-430.37"/>
</g>
<!-- CStaticMatrix -->
<g id="node10" class="node">
<title>CStaticMatrix</title>
<g id="a_node10"><a xlink:href="structDGtal_1_1concepts_1_1CStaticMatrix.html" target="_top" xlink:title="CStaticMatrix">
<ellipse fill="white" stroke="white" cx="1036" cy="-266" rx="63.63" ry="18"/>
<text xml:space="preserve" text-anchor="middle" x="1036" y="-260.95" font-family="Times,serif" font-size="14.00">CStaticMatrix</text>
</a>
</g>
</g>
<!-- CStaticMatrix&#45;&gt;boost_DefaultConstructible -->
<g id="edge8" class="edge">
<title>CStaticMatrix&#45;&gt;boost_DefaultConstructible</title>
<path fill="none" stroke="black" d="M1083.45,-278.37C1091.94,-280.32 1100.72,-282.27 1109,-284 1173.16,-297.44 1189.64,-298.54 1254,-311 1324.16,-324.58 1403.86,-340.66 1461.27,-352.36"/>
<polygon fill="black" stroke="black" points="1460.46,-355.76 1470.96,-354.33 1461.86,-348.9 1460.46,-355.76"/>
</g>
<!-- CStaticMatrix&#45;&gt;CMatrix -->
<g id="edge7" class="edge">
<title>CStaticMatrix&#45;&gt;CMatrix</title>
<path fill="none" stroke="black" d="M989.84,-278.73C980.98,-280.7 971.73,-282.57 963,-284 839.18,-304.27 805.37,-288.2 682,-311 624.29,-321.67 559.33,-340.81 517.6,-354.06"/>
<polygon fill="black" stroke="black" points="516.62,-350.69 508.17,-357.08 518.76,-357.36 516.62,-350.69"/>
</g>
<!-- CDynamicMatrix -->
<g id="node11" class="node">
<title>CDynamicMatrix</title>
<g id="a_node11"><a xlink:href="structDGtal_1_1concepts_1_1CDynamicMatrix.html" target="_top" xlink:title="CDynamicMatrix">
<ellipse fill="white" stroke="white" cx="253" cy="-266" rx="76.94" ry="18"/>
<text xml:space="preserve" text-anchor="middle" x="253" y="-260.95" font-family="Times,serif" font-size="14.00">CDynamicMatrix</text>
</a>
</g>
</g>
<!-- CDynamicMatrix&#45;&gt;CMatrix -->
<g id="edge9" class="edge">
<title>CDynamicMatrix&#45;&gt;CMatrix</title>
<path fill="none" stroke="black" d="M286.57,-282.42C326.55,-300.78 393.23,-331.4 435.34,-350.74"/>
<polygon fill="black" stroke="black" points="433.82,-353.9 444.37,-354.89 436.74,-347.54 433.82,-353.9"/>
</g>
<!-- CDenseMatrix -->
<g id="node12" class="node">
<title>CDenseMatrix</title>
<g id="a_node12"><a xlink:href="structDGtal_1_1concepts_1_1CDenseMatrix.html" target="_top" xlink:title="CDenseMatrix">
<ellipse fill="white" stroke="white" cx="573" cy="-266" rx="65.68" ry="18"/>
<text xml:space="preserve" text-anchor="middle" x="573" y="-260.95" font-family="Times,serif" font-size="14.00">CDenseMatrix</text>
</a>
</g>
</g>
<!-- CDenseMatrix&#45;&gt;CMatrix -->
<g id="edge10" class="edge">
<title>CDenseMatrix&#45;&gt;CMatrix</title>
<path fill="none" stroke="black" d="M556.65,-283.76C540.55,-300.26 515.8,-325.64 497.58,-344.33"/>
<polygon fill="black" stroke="black" points="495.25,-341.7 490.77,-351.3 500.26,-346.59 495.25,-341.7"/>
</g>
<!-- CSparseMatrix -->
<g id="node13" class="node">
<title>CSparseMatrix</title>
<g id="a_node13"><a xlink:href="structDGtal_1_1concepts_1_1CSparseMatrix.html" target="_top" xlink:title="CSparseMatrix">
<ellipse fill="white" stroke="white" cx="91" cy="-266" rx="67.22" ry="18"/>
<text xml:space="preserve" text-anchor="middle" x="91" y="-260.95" font-family="Times,serif" font-size="14.00">CSparseMatrix</text>
</a>
</g>
</g>
<!-- CSparseMatrix&#45;&gt;CMatrix -->
<g id="edge11" class="edge">
<title>CSparseMatrix&#45;&gt;CMatrix</title>
<path fill="none" stroke="black" d="M137.58,-279.34C211.34,-298.89 354.19,-336.75 427.75,-356.24"/>
<polygon fill="black" stroke="black" points="426.48,-359.53 437.05,-358.71 428.28,-352.76 426.48,-359.53"/>
</g>
<!-- CVector -->
<g id="node14" class="node">
<title>CVector</title>
<g id="a_node14"><a xlink:href="structDGtal_1_1concepts_1_1CVector.html" target="_top" xlink:title="CVector">
<ellipse fill="white" stroke="white" cx="732" cy="-369.5" rx="41.12" ry="18"/>
<text xml:space="preserve" text-anchor="middle" x="732" y="-364.45" font-family="Times,serif" font-size="14.00">CVector</text>
</a>
</g>
</g>
<!-- CVector&#45;&gt;CVectorSpace -->
<g id="edge1" class="edge">
<title>CVector&#45;&gt;CVectorSpace</title>
<path fill="none" stroke="black" d="M712.33,-385.35C697.58,-396.48 677.12,-411.93 660.29,-424.64"/>
<polygon fill="black" stroke="black" points="658.45,-421.64 652.57,-430.46 662.66,-427.23 658.45,-421.64"/>
</g>
<!-- CStaticVector -->
<g id="node15" class="node">
<title>CStaticVector</title>
<g id="a_node15"><a xlink:href="structDGtal_1_1concepts_1_1CStaticVector.html" target="_top" xlink:title="CStaticVector">
<ellipse fill="white" stroke="white" cx="1180" cy="-266" rx="62.1" ry="18"/>
<text xml:space="preserve" text-anchor="middle" x="1180" y="-260.95" font-family="Times,serif" font-size="14.00">CStaticVector</text>
</a>
</g>
</g>
<!-- CStaticVector&#45;&gt;boost_DefaultConstructible -->
<g id="edge3" class="edge">
<title>CStaticVector&#45;&gt;boost_DefaultConstructible</title>
<path fill="none" stroke="black" d="M1214.46,-281.38C1232.08,-288.43 1253.99,-296.73 1274,-303 1336.6,-322.61 1408.97,-340.11 1462.4,-352.07"/>
<polygon fill="black" stroke="black" points="1461.51,-355.46 1472.03,-354.21 1463.03,-348.62 1461.51,-355.46"/>
</g>
<!-- CStaticVector&#45;&gt;CVector -->
<g id="edge2" class="edge">
<title>CStaticVector&#45;&gt;CVector</title>
<path fill="none" stroke="black" d="M1133.43,-278.25C1125.29,-280.19 1116.9,-282.17 1109,-284 990.38,-311.49 850.41,-342.49 779.02,-358.19"/>
<polygon fill="black" stroke="black" points="778.66,-354.69 769.65,-360.25 780.17,-361.52 778.66,-354.69"/>
</g>
<!-- CDynamicVector -->
<g id="node16" class="node">
<title>CDynamicVector</title>
<g id="a_node16"><a xlink:href="structDGtal_1_1concepts_1_1CDynamicVector.html" target="_top" xlink:title="CDynamicVector">
<ellipse fill="white" stroke="white" cx="732" cy="-266" rx="75.41" ry="18"/>
<text xml:space="preserve" text-anchor="middle" x="732" y="-260.95" font-family="Times,serif" font-size="14.00">CDynamicVector</text>
</a>
</g>
</g>
<!-- CDynamicVector&#45;&gt;CVector -->
<g id="edge4" class="edge">
<title>CDynamicVector&#45;&gt;CVector</title>
<path fill="none" stroke="black" d="M732,-284.22C732,-299.46 732,-321.99 732,-339.93"/>
<polygon fill="black" stroke="black" points="728.5,-339.68 732,-349.68 735.5,-339.68 728.5,-339.68"/>
</g>
<!-- CDenseVector -->
<g id="node17" class="node">
<title>CDenseVector</title>
<g id="a_node17"><a xlink:href="structDGtal_1_1concepts_1_1CDenseVector.html" target="_top" xlink:title="CDenseVector">
<ellipse fill="white" stroke="white" cx="890" cy="-266" rx="64.15" ry="18"/>
<text xml:space="preserve" text-anchor="middle" x="890" y="-260.95" font-family="Times,serif" font-size="14.00">CDenseVector</text>
</a>
</g>
</g>
<!-- CDenseVector&#45;&gt;CVector -->
<g id="edge5" class="edge">
<title>CDenseVector&#45;&gt;CVector</title>
<path fill="none" stroke="black" d="M865.31,-282.86C838.02,-300.39 793.97,-328.69 764.03,-347.92"/>
<polygon fill="black" stroke="black" points="762.26,-344.9 755.74,-353.25 766.05,-350.79 762.26,-344.9"/>
</g>
<!-- CLinearAlgebra -->
<g id="node18" class="node">
<title>CLinearAlgebra</title>
<g id="a_node18"><a xlink:href="structDGtal_1_1concepts_1_1CLinearAlgebra.html" target="_top" xlink:title="CLinearAlgebra">
<ellipse fill="white" stroke="white" cx="419" cy="-266" rx="70.8" ry="18"/>
<text xml:space="preserve" text-anchor="middle" x="419" y="-260.95" font-family="Times,serif" font-size="14.00">CLinearAlgebra</text>
</a>
</g>
</g>
<!-- CLinearAlgebra&#45;&gt;CMatrix -->
<g id="edge12" class="edge">
<title>CLinearAlgebra&#45;&gt;CMatrix</title>
<path fill="none" stroke="black" d="M428.33,-284.22C436.84,-299.92 449.54,-323.36 459.39,-341.54"/>
<polygon fill="black" stroke="black" points="456.25,-343.08 464.09,-350.21 462.4,-339.75 456.25,-343.08"/>
</g>
<!-- CLinearAlgebra&#45;&gt;CVector -->
<g id="edge13" class="edge">
<title>CLinearAlgebra&#45;&gt;CVector</title>
<path fill="none" stroke="black" d="M461.54,-280.79C521.18,-300.13 629.04,-335.11 688.95,-354.54"/>
<polygon fill="black" stroke="black" points="687.52,-357.76 698.12,-357.51 689.68,-351.1 687.52,-357.76"/>
</g>
<!-- CLinearAlgebraSolver -->
<g id="node19" class="node">
<title>CLinearAlgebraSolver</title>
<g id="a_node19"><a xlink:href="structDGtal_1_1concepts_1_1CLinearAlgebraSolver.html" target="_top" xlink:title="CLinearAlgebraSolver">
<ellipse fill="white" stroke="white" cx="783" cy="-177.5" rx="94.86" ry="18"/>
<text xml:space="preserve" text-anchor="middle" x="783" y="-172.45" font-family="Times,serif" font-size="14.00">CLinearAlgebraSolver</text>
</a>
</g>
</g>
<!-- CLinearAlgebraSolver&#45;&gt;boost_DefaultConstructible -->
<g id="edge15" class="edge">
<title>CLinearAlgebraSolver&#45;&gt;boost_DefaultConstructible</title>
<path fill="none" stroke="black" d="M870.16,-184.95C965.17,-193.48 1121.02,-211.85 1251,-248 1341.78,-273.24 1442.11,-319.54 1497.45,-346.81"/>
<polygon fill="black" stroke="black" points="1495.7,-349.86 1506.22,-351.17 1498.82,-343.59 1495.7,-349.86"/>
</g>
<!-- CLinearAlgebraSolver&#45;&gt;CLinearAlgebra -->
<g id="edge14" class="edge">
<title>CLinearAlgebraSolver&#45;&gt;CLinearAlgebra</title>
<path fill="none" stroke="black" d="M725.32,-192.21C658.48,-208.09 548.78,-234.16 480.4,-250.41"/>
<polygon fill="black" stroke="black" points="479.77,-246.96 470.85,-252.68 481.38,-253.77 479.77,-246.96"/>
</g>
<!-- CBinner -->
<g id="node20" class="node">
<title>CBinner</title>
<g id="a_node20"><a xlink:href="structDGtal_1_1concepts_1_1CBinner.html" target="_top" xlink:title="CBinner">
<ellipse fill="white" stroke="white" cx="1345" cy="-177.5" rx="42.14" ry="18"/>
<text xml:space="preserve" text-anchor="middle" x="1345" y="-172.45" font-family="Times,serif" font-size="14.00">CBinner</text>
</a>
</g>
</g>
<!-- CBinner&#45;&gt;CEuclideanRing -->
<g id="edge17" class="edge">
<title>CBinner&#45;&gt;CEuclideanRing</title>
<path fill="none" stroke="black" stroke-dasharray="5,2" d="M1386.5,-181.26C1460.74,-186.37 1621.16,-198.2 1756,-213.5 1864.39,-225.8 1891.19,-231.39 1999,-248 2146.39,-270.7 2182.03,-284.44 2330,-303 2371.6,-308.22 2384.51,-296.92 2424,-311 2444.87,-318.44 2465.45,-332.39 2481.01,-344.68"/>
<polygon fill="black" stroke="black" points="2478.43,-347.09 2488.39,-350.71 2482.86,-341.67 2478.43,-347.09"/>
<text xml:space="preserve" text-anchor="middle" x="2210.49" y="-260.95" font-family="Times,serif" font-size="14.00">use</text>
</g>
<!-- CBinner&#45;&gt;boost_CopyConstructible -->
<g id="edge16" class="edge">
<title>CBinner&#45;&gt;boost_CopyConstructible</title>
<path fill="none" stroke="black" d="M1375.45,-190.43C1432.29,-212.87 1558.16,-263.4 1662,-311 1686.59,-322.27 1713.66,-335.75 1735.36,-346.83"/>
<polygon fill="black" stroke="black" points="1733.71,-349.91 1744.2,-351.36 1736.9,-343.69 1733.71,-349.91"/>
</g>
<!-- CBinner&#45;&gt;boost_is_integral -->
<g id="edge18" class="edge">
<title>CBinner&#45;&gt;boost_is_integral</title>
<path fill="none" stroke="black" stroke-dasharray="5,2" d="M1379.18,-188.34C1459.06,-211.06 1664.49,-267.93 1839,-303 1862.36,-307.69 1869.86,-302.21 1892,-311 1912.1,-318.98 1932.11,-332.63 1947.44,-344.62"/>
<polygon fill="black" stroke="black" points="1945.19,-347.3 1955.17,-350.86 1949.59,-341.85 1945.19,-347.3"/>
<text xml:space="preserve" text-anchor="middle" x="1757.3" y="-260.95" font-family="Times,serif" font-size="14.00">use</text>
</g>
<!-- CBinner&#45;&gt;boost_is_unsigned -->
<g id="edge19" class="edge">
<title>CBinner&#45;&gt;boost_is_unsigned</title>
<path fill="none" stroke="black" stroke-dasharray="5,2" d="M1386.98,-180.19C1499.92,-186.01 1818.03,-210.79 2059,-311 2079.87,-319.68 2101.21,-333.28 2117.76,-345.07"/>
<polygon fill="black" stroke="black" points="2115.55,-347.79 2125.69,-350.86 2119.68,-342.13 2115.55,-347.79"/>
<text xml:space="preserve" text-anchor="middle" x="1986.11" y="-260.95" font-family="Times,serif" font-size="14.00">use</text>
</g>
<!-- Statistic -->
<g id="node21" class="node">
<title>Statistic</title>
<g id="a_node21"><a xlink:href="classDGtal_1_1Statistic.html" target="_top" xlink:title="Statistic">
<ellipse fill="white" stroke="white" cx="2301" cy="-58.5" rx="40.6" ry="18"/>
<text xml:space="preserve" text-anchor="middle" x="2301" y="-53.45" font-family="Times,serif" font-size="14.00">Statistic</text>
</a>
</g>
</g>
<!-- Statistic&#45;&gt;CCommutativeRing -->
<g id="edge20" class="edge">
<title>Statistic&#45;&gt;CCommutativeRing</title>
<path fill="none" stroke="black" stroke-dasharray="5,2" d="M2319.99,-74.82C2382.07,-124.91 2579.3,-284.03 2654.49,-344.69"/>
<polygon fill="black" stroke="black" points="2651.88,-347.08 2661.86,-350.64 2656.28,-341.63 2651.88,-347.08"/>
<text xml:space="preserve" text-anchor="middle" x="2530.38" y="-216.7" font-family="Times,serif" font-size="14.00">tparam</text>
</g>
<!-- Statistic&#45;&gt;boost_InputIterator -->
<g id="edge21" class="edge">
<title>Statistic&#45;&gt;boost_InputIterator</title>
<path fill="none" stroke="black" stroke-dasharray="5,2" d="M2302.55,-76.55C2307.12,-127.08 2320.66,-276.42 2326.39,-339.67"/>
<polygon fill="black" stroke="black" points="2322.9,-339.97 2327.29,-349.61 2329.87,-339.34 2322.9,-339.97"/>
<text xml:space="preserve" text-anchor="middle" x="2325.37" y="-216.7" font-family="Times,serif" font-size="14.00">use</text>
</g>
<!-- RegularBinner -->
<g id="node22" class="node">
<title>RegularBinner</title>
<g id="a_node22"><a xlink:href="structDGtal_1_1RegularBinner.html" target="_top" xlink:title="RegularBinner">
<ellipse fill="white" stroke="white" cx="1915" cy="-58.5" rx="65.17" ry="18"/>
<text xml:space="preserve" text-anchor="middle" x="1915" y="-53.45" font-family="Times,serif" font-size="14.00">RegularBinner</text>
</a>
</g>
</g>
<!-- RegularBinner&#45;&gt;CBinner -->
<g id="edge22" class="edge">
<title>RegularBinner&#45;&gt;CBinner</title>
<path fill="none" stroke="black" d="M1863.91,-69.99C1754.76,-92.39 1500.08,-144.67 1393.38,-166.57"/>
<polygon fill="black" stroke="black" points="1392.9,-163.1 1383.8,-168.53 1394.3,-169.95 1392.9,-163.1"/>
</g>
<!-- Histogram -->
<g id="node23" class="node">
<title>Histogram</title>
<g id="a_node23"><a xlink:href="classDGtal_1_1Histogram.html" target="_top" xlink:title="Histogram">
<ellipse fill="white" stroke="white" cx="2192" cy="-58.5" rx="50.33" ry="18"/>
<text xml:space="preserve" text-anchor="middle" x="2192" y="-53.45" font-family="Times,serif" font-size="14.00">Histogram</text>
</a>
</g>
</g>
<!-- Histogram&#45;&gt;CEuclideanRing -->
<g id="edge24" class="edge">
<title>Histogram&#45;&gt;CEuclideanRing</title>
<path fill="none" stroke="black" stroke-dasharray="5,2" d="M2199.35,-76.55C2217.01,-117.31 2261.26,-217.93 2272.75,-230 2325.32,-285.23 2358.83,-271.4 2424,-311 2441.64,-321.71 2460.66,-334.62 2476.14,-345.48"/>
<polygon fill="black" stroke="black" points="2473.85,-348.15 2484.03,-351.07 2477.89,-342.44 2473.85,-348.15"/>
<text xml:space="preserve" text-anchor="middle" x="2291.88" y="-216.7" font-family="Times,serif" font-size="14.00">tparam</text>
</g>
<!-- Histogram&#45;&gt;boost_InputIterator -->
<g id="edge25" class="edge">
<title>Histogram&#45;&gt;boost_InputIterator</title>
<path fill="none" stroke="black" stroke-dasharray="5,2" d="M2192.05,-76.63C2192.69,-108.14 2196.67,-176.94 2218,-230 2236.36,-275.66 2275.01,-318.26 2301.5,-343.84"/>
<polygon fill="black" stroke="black" points="2298.86,-346.16 2308.53,-350.49 2303.67,-341.07 2298.86,-346.16"/>
<text xml:space="preserve" text-anchor="middle" x="2227" y="-216.7" font-family="Times,serif" font-size="14.00">use</text>
</g>
<!-- Histogram&#45;&gt;CBinner -->
<g id="edge23" class="edge">
<title>Histogram&#45;&gt;CBinner</title>
<path fill="none" stroke="black" stroke-dasharray="5,2" d="M2163.17,-73.65C2153.75,-77.75 2143.11,-81.83 2133,-84.5 1863.45,-155.78 1527.47,-171.86 1398.66,-175.46"/>
<polygon fill="black" stroke="black" points="1398.63,-171.96 1388.73,-175.73 1398.82,-178.96 1398.63,-171.96"/>
<text xml:space="preserve" text-anchor="middle" x="2110.74" y="-97.7" font-family="Times,serif" font-size="14.00">tparam</text>
</g>
<!-- SimpleMatrix -->
<g id="node24" class="node">
<title>SimpleMatrix</title>
<g id="a_node24"><a xlink:href="classDGtal_1_1SimpleMatrix.html" target="_top" xlink:title="SimpleMatrix">
<ellipse fill="white" stroke="white" cx="2061" cy="-58.5" rx="63.12" ry="18"/>
<text xml:space="preserve" text-anchor="middle" x="2061" y="-53.45" font-family="Times,serif" font-size="14.00">SimpleMatrix</text>
</a>
</g>
</g>
<!-- SimpleMatrix&#45;&gt;CStaticMatrix -->
<g id="edge26" class="edge">
<title>SimpleMatrix&#45;&gt;CStaticMatrix</title>
<path fill="none" stroke="black" d="M2056.68,-76.78C2046.63,-112.88 2017.9,-195.77 1959,-230 1918.16,-253.73 1155.86,-242.11 1109,-248 1103.63,-248.67 1098.09,-249.58 1092.56,-250.62"/>
<polygon fill="black" stroke="black" points="1091.88,-247.18 1082.78,-252.61 1093.28,-254.04 1091.88,-247.18"/>
</g>
<!-- SimpleMatrix&#45;&gt;CDenseMatrix -->
<g id="edge27" class="edge">
<title>SimpleMatrix&#45;&gt;CDenseMatrix</title>
<path fill="none" stroke="black" d="M2023.93,-73.45C2012.8,-77.34 2000.49,-81.36 1989,-84.5 1730.95,-154.98 1664.28,-169.06 1399,-203.5 1067.42,-246.55 979.04,-201 648,-248 642.44,-248.79 636.69,-249.78 630.95,-250.88"/>
<polygon fill="black" stroke="black" points="630.57,-247.38 621.47,-252.81 631.97,-254.24 630.57,-247.38"/>
</g>
</g>
</svg>
