<?xml version="1.0" encoding="UTF-8" standalone="no"?>
<!DOCTYPE svg PUBLIC "-//W3C//DTD SVG 1.1//EN"
 "http://www.w3.org/Graphics/SVG/1.1/DTD/svg11.dtd">
<!-- Generated by graphviz version 14.1.0 (20251206.1807)
 -->
<!-- Title: GTOPOLOGY Pages: 1 -->
<svg width="1490pt" height="619pt"
 viewBox="0.00 0.00 1490.00 619.00" xmlns="http://www.w3.org/2000/svg" xmlns:xlink="http://www.w3.org/1999/xlink">
<g id="graph0" class="graph" transform="scale(1 1) rotate(0) translate(4 614.5)">
<title>GTOPOLOGY</title>
<polygon fill="white" stroke="none" points="-4,4 -4,-614.5 1486,-614.5 1486,4 -4,4"/>
<g id="clust1" class="cluster">
<title>cluster_ext</title>
</g>
<g id="clust2" class="cluster">
<title>cluster_1</title>
<polygon fill="#eeeeff" stroke="#eeeeff" points="1087,-518 1087,-594.5 1307,-594.5 1307,-518 1087,-518"/>
<text xml:space="preserve" text-anchor="middle" x="1197" y="-525.2" font-family="Times,serif" font-size="14.00">base</text>
</g>
<g id="clust3" class="cluster">
<title>cluster_2</title>
<polygon fill="#ddddff" stroke="#ddddff" points="1060,-349.5 1060,-499 1334,-499 1334,-349.5 1060,-349.5"/>
<text xml:space="preserve" text-anchor="middle" x="1197" y="-356.7" font-family="Times,serif" font-size="14.00">graph</text>
</g>
<g id="clust4" class="cluster">
<title>cluster_4</title>
<polygon fill="#e0eeff" stroke="#e0eeff" points="1342,-349.5 1342,-426 1466,-426 1466,-349.5 1342,-349.5"/>
<text xml:space="preserve" text-anchor="middle" x="1404" y="-356.7" font-family="Times,serif" font-size="14.00">kernel</text>
</g>
<g id="clust5" class="cluster">
<title>cluster_5</title>
<polygon fill="white" stroke="white" points="824,-349.5 824,-426 1052,-426 1052,-349.5 824,-349.5"/>
<text xml:space="preserve" text-anchor="middle" x="938" y="-356.7" font-family="Times,serif" font-size="14.00">boost</text>
</g>
<g id="clust6" class="cluster">
<title>cluster_0</title>
<polygon fill="lightgrey" stroke="lightgrey" points="247,-157.5 247,-426 808,-426 808,-157.5 247,-157.5"/>
<text xml:space="preserve" text-anchor="middle" x="527.5" y="-164.7" font-family="Times,serif" font-size="14.00">topology (main concepts)</text>
</g>
<g id="clust7" class="cluster">
<title>cluster_models</title>
<polygon fill="#ccffcc" stroke="#ccffcc" points="8,-8 8,-125 1227,-125 1227,-8 8,-8"/>
<text xml:space="preserve" text-anchor="middle" x="617.5" y="-15.2" font-family="Times,serif" font-size="14.00">topology (main models)</text>
</g>
<g id="clust8" class="cluster">
<title>cluster_models_0</title>
<polygon fill="#ccffcc" stroke="#ccffcc" points="431,-40.5 431,-117 1219,-117 1219,-40.5 431,-40.5"/>
<text xml:space="preserve" text-anchor="middle" x="825" y="-47.7" font-family="Times,serif" font-size="14.00">(main graph models)</text>
</g>
<g id="clust9" class="cluster">
<title>cluster_models_2</title>
<polygon fill="#ccffcc" stroke="#ccffcc" points="16,-40.5 16,-117 423,-117 423,-40.5 16,-40.5"/>
<text xml:space="preserve" text-anchor="middle" x="219.5" y="-47.7" font-family="Times,serif" font-size="14.00">(others)</text>
</g>
<!-- CConstSinglePassRange -->
<g id="node1" class="node">
<title>CConstSinglePassRange</title>
<g id="a_node1"><a xlink:href="structDGtal_1_1concepts_1_1CConstSinglePassRange.html" target="_top" xlink:title="CConstSinglePassRange">
<ellipse fill="white" stroke="white" cx="1197" cy="-568.5" rx="102.02" ry="18"/>
<text xml:space="preserve" text-anchor="middle" x="1197" y="-563.45" font-family="Times,serif" font-size="14.00">CConstSinglePassRange</text>
</a>
</g>
</g>
<!-- CUndirectedSimpleGraph -->
<g id="node2" class="node">
<title>CUndirectedSimpleGraph</title>
<g id="a_node2"><a xlink:href="structDGtal_1_1concepts_1_1CUndirectedSimpleGraph.html" target="_top" xlink:title="CUndirectedSimpleGraph">
<ellipse fill="white" stroke="white" cx="1176" cy="-400" rx="107.65" ry="18"/>
<text xml:space="preserve" text-anchor="middle" x="1176" y="-394.95" font-family="Times,serif" font-size="14.00">CUndirectedSimpleGraph</text>
</a>
</g>
</g>
<!-- CUndirectedSimpleLocalGraph -->
<g id="node3" class="node">
<title>CUndirectedSimpleLocalGraph</title>
<g id="a_node3"><a xlink:href="structDGtal_1_1concepts_1_1CUndirectedSimpleLocalGraph.html" target="_top" xlink:title="CUndirectedSimpleLocalGraph">
<ellipse fill="white" stroke="white" cx="1197" cy="-473" rx="128.63" ry="18"/>
<text xml:space="preserve" text-anchor="middle" x="1197" y="-467.95" font-family="Times,serif" font-size="14.00">CUndirectedSimpleLocalGraph</text>
</a>
</g>
</g>
<!-- CUndirectedSimpleGraph&#45;&gt;CUndirectedSimpleLocalGraph -->
<g id="edge6" class="edge">
<title>CUndirectedSimpleGraph&#45;&gt;CUndirectedSimpleLocalGraph</title>
<path fill="none" stroke="black" d="M1181.08,-418.19C1183.38,-425.95 1186.15,-435.32 1188.73,-444.05"/>
<polygon fill="black" stroke="black" points="1185.34,-444.92 1191.53,-453.52 1192.05,-442.94 1185.34,-444.92"/>
</g>
<!-- CUndirectedSimpleLocalGraph&#45;&gt;CConstSinglePassRange -->
<g id="edge5" class="edge">
<title>CUndirectedSimpleLocalGraph&#45;&gt;CConstSinglePassRange</title>
<path fill="none" stroke="black" d="M1197,-491.15C1197,-504.51 1197,-523.35 1197,-538.97"/>
<polygon fill="black" stroke="black" points="1193.5,-538.63 1197,-548.63 1200.5,-538.63 1193.5,-538.63"/>
</g>
<!-- CDigitalSet -->
<g id="node4" class="node">
<title>CDigitalSet</title>
<g id="a_node4"><a xlink:href="structDGtal_1_1concepts_1_1CDigitalSet.html" target="_top" xlink:title="CDigitalSet">
<ellipse fill="white" stroke="white" cx="1404" cy="-400" rx="54.42" ry="18"/>
<text xml:space="preserve" text-anchor="middle" x="1404" y="-394.95" font-family="Times,serif" font-size="14.00">CDigitalSet</text>
</a>
</g>
</g>
<!-- boost_CopyConstructible -->
<g id="node5" class="node">
<title>boost_CopyConstructible</title>
<g id="a_node5"><a xlink:href="structboost_1_1CopyConstructible.html" target="_top" xlink:title="boost::CopyConstructible">
<ellipse fill="orange" stroke="orange" cx="938" cy="-400" rx="105.6" ry="18"/>
<text xml:space="preserve" text-anchor="middle" x="938" y="-394.95" font-family="Times,serif" font-size="14.00">boost::CopyConstructible</text>
</a>
</g>
</g>
<!-- CDigitalSurfaceContainer -->
<g id="node6" class="node">
<title>CDigitalSurfaceContainer</title>
<g id="a_node6"><a xlink:href="structDGtal_1_1concepts_1_1CDigitalSurfaceContainer.html" target="_top" xlink:title="CDigitalSurfaceContainer">
<ellipse fill="white" stroke="white" cx="693" cy="-208" rx="107.14" ry="18"/>
<text xml:space="preserve" text-anchor="middle" x="693" y="-202.95" font-family="Times,serif" font-size="14.00">CDigitalSurfaceContainer</text>
</a>
</g>
</g>
<!-- CDigitalSurfaceContainer&#45;&gt;boost_CopyConstructible -->
<g id="edge1" class="edge">
<title>CDigitalSurfaceContainer&#45;&gt;boost_CopyConstructible</title>
<path fill="none" stroke="black" d="M724.68,-225.59C748.67,-238.71 782,-258.16 809,-278.5 848.37,-308.15 889.18,-348.1 914.09,-373.71"/>
<polygon fill="black" stroke="black" points="911.39,-375.95 920.85,-380.72 916.43,-371.09 911.39,-375.95"/>
</g>
<!-- CDigitalSurfaceTracker -->
<g id="node7" class="node">
<title>CDigitalSurfaceTracker</title>
<g id="a_node7"><a xlink:href="structDGtal_1_1concepts_1_1CDigitalSurfaceTracker.html" target="_top" xlink:title="CDigitalSurfaceTracker">
<ellipse fill="white" stroke="white" cx="701" cy="-296.5" rx="99.46" ry="18"/>
<text xml:space="preserve" text-anchor="middle" x="701" y="-291.45" font-family="Times,serif" font-size="14.00">CDigitalSurfaceTracker</text>
</a>
</g>
</g>
<!-- CDigitalSurfaceContainer&#45;&gt;CDigitalSurfaceTracker -->
<g id="edge3" class="edge">
<title>CDigitalSurfaceContainer&#45;&gt;CDigitalSurfaceTracker</title>
<path fill="none" stroke="black" stroke-dasharray="5,2" d="M694.58,-226.09C695.66,-237.74 697.11,-253.45 698.36,-266.98"/>
<polygon fill="black" stroke="black" points="694.85,-267.01 699.26,-276.64 701.82,-266.36 694.85,-267.01"/>
<text xml:space="preserve" text-anchor="middle" x="706.72" y="-247.2" font-family="Times,serif" font-size="14.00">use</text>
</g>
<!-- CCellularGridSpaceND -->
<g id="node10" class="node">
<title>CCellularGridSpaceND</title>
<g id="a_node10"><a xlink:href="structDGtal_1_1concepts_1_1CCellularGridSpaceND.html" target="_top" xlink:title="CCellularGridSpaceND">
<ellipse fill="white" stroke="white" cx="354" cy="-296.5" rx="98.95" ry="18"/>
<text xml:space="preserve" text-anchor="middle" x="354" y="-291.45" font-family="Times,serif" font-size="14.00">CCellularGridSpaceND</text>
</a>
</g>
</g>
<!-- CDigitalSurfaceContainer&#45;&gt;CCellularGridSpaceND -->
<g id="edge4" class="edge">
<title>CDigitalSurfaceContainer&#45;&gt;CCellularGridSpaceND</title>
<path fill="none" stroke="black" stroke-dasharray="5,2" d="M635.88,-223.58C576.51,-238.72 483.67,-262.41 420.91,-278.43"/>
<polygon fill="black" stroke="black" points="420.24,-274.99 411.41,-280.85 421.97,-281.77 420.24,-274.99"/>
<text xml:space="preserve" text-anchor="middle" x="562.86" y="-247.2" font-family="Times,serif" font-size="14.00">use</text>
</g>
<!-- CDigitalSurfaceTracker&#45;&gt;boost_CopyConstructible -->
<g id="edge2" class="edge">
<title>CDigitalSurfaceTracker&#45;&gt;boost_CopyConstructible</title>
<path fill="none" stroke="black" d="M742.32,-313.3C763.29,-321.47 789.11,-331.75 812,-341.5 839.07,-353.03 869.06,-366.68 892.98,-377.79"/>
<polygon fill="black" stroke="black" points="891.26,-380.85 901.81,-381.9 894.22,-374.5 891.26,-380.85"/>
</g>
<!-- CDomainAdjacency -->
<g id="node8" class="node">
<title>CDomainAdjacency</title>
<g id="a_node8"><a xlink:href="structDGtal_1_1concepts_1_1CDomainAdjacency.html" target="_top" xlink:title="CDomainAdjacency">
<ellipse fill="white" stroke="white" cx="481" cy="-208" rx="86.67" ry="18"/>
<text xml:space="preserve" text-anchor="middle" x="481" y="-202.95" font-family="Times,serif" font-size="14.00">CDomainAdjacency</text>
</a>
</g>
</g>
<!-- CAdjacency -->
<g id="node9" class="node">
<title>CAdjacency</title>
<g id="a_node9"><a xlink:href="structDGtal_1_1concepts_1_1CAdjacency.html" target="_top" xlink:title="CAdjacency">
<ellipse fill="white" stroke="white" cx="527" cy="-296.5" rx="56.47" ry="18"/>
<text xml:space="preserve" text-anchor="middle" x="527" y="-291.45" font-family="Times,serif" font-size="14.00">CAdjacency</text>
</a>
</g>
</g>
<!-- CDomainAdjacency&#45;&gt;CAdjacency -->
<g id="edge8" class="edge">
<title>CDomainAdjacency&#45;&gt;CAdjacency</title>
<path fill="none" stroke="black" d="M490.09,-226.09C496.51,-238.17 505.26,-254.62 512.63,-268.47"/>
<polygon fill="black" stroke="black" points="509.43,-269.92 517.22,-277.11 515.61,-266.64 509.43,-269.92"/>
</g>
<!-- CAdjacency&#45;&gt;CUndirectedSimpleLocalGraph -->
<g id="edge7" class="edge">
<title>CAdjacency&#45;&gt;CUndirectedSimpleLocalGraph</title>
<path fill="none" stroke="black" d="M554.29,-312.73C604.94,-340.24 717.68,-397.97 820,-426 900,-447.91 992.4,-459.4 1065.71,-465.41"/>
<polygon fill="black" stroke="black" points="1065.09,-468.87 1075.33,-466.18 1065.64,-461.89 1065.09,-468.87"/>
</g>
<!-- CPreCellularGridSpaceND -->
<g id="node11" class="node">
<title>CPreCellularGridSpaceND</title>
<g id="a_node11"><a xlink:href="structDGtal_1_1concepts_1_1CPreCellularGridSpaceND.html" target="_top" xlink:title="CPreCellularGridSpaceND">
<ellipse fill="white" stroke="white" cx="366" cy="-400" rx="111.23" ry="18"/>
<text xml:space="preserve" text-anchor="middle" x="366" y="-394.95" font-family="Times,serif" font-size="14.00">CPreCellularGridSpaceND</text>
</a>
</g>
</g>
<!-- CCellularGridSpaceND&#45;&gt;CPreCellularGridSpaceND -->
<g id="edge9" class="edge">
<title>CCellularGridSpaceND&#45;&gt;CPreCellularGridSpaceND</title>
<path fill="none" stroke="black" d="M356.04,-314.72C357.84,-329.96 360.5,-352.49 362.62,-370.43"/>
<polygon fill="black" stroke="black" points="359.13,-370.67 363.78,-380.19 366.08,-369.85 359.13,-370.67"/>
</g>
<!-- MetricAdjacency -->
<g id="node12" class="node">
<title>MetricAdjacency</title>
<g id="a_node12"><a xlink:href="classDGtal_1_1MetricAdjacency.html" target="_top" xlink:title="MetricAdjacency">
<ellipse fill="white" stroke="white" cx="514" cy="-91" rx="75.41" ry="18"/>
<text xml:space="preserve" text-anchor="middle" x="514" y="-85.95" font-family="Times,serif" font-size="14.00">MetricAdjacency</text>
</a>
</g>
</g>
<!-- MetricAdjacency&#45;&gt;CAdjacency -->
<g id="edge12" class="edge">
<title>MetricAdjacency&#45;&gt;CAdjacency</title>
<path fill="none" stroke="black" d="M474.69,-106.66C440.62,-120.27 395.22,-140.86 385,-157.5 369.07,-183.45 368.88,-200.17 385,-226 395.88,-243.43 442.6,-264.25 479.52,-278.52"/>
<polygon fill="black" stroke="black" points="478.12,-281.73 488.71,-282.01 480.61,-275.19 478.12,-281.73"/>
</g>
<!-- DomainAdjacency -->
<g id="node13" class="node">
<title>DomainAdjacency</title>
<g id="a_node13"><a xlink:href="classDGtal_1_1DomainAdjacency.html" target="_top" xlink:title="DomainAdjacency">
<ellipse fill="white" stroke="white" cx="688" cy="-91" rx="80.52" ry="18"/>
<text xml:space="preserve" text-anchor="middle" x="688" y="-85.95" font-family="Times,serif" font-size="14.00">DomainAdjacency</text>
</a>
</g>
</g>
<!-- DomainAdjacency&#45;&gt;CDomainAdjacency -->
<g id="edge13" class="edge">
<title>DomainAdjacency&#45;&gt;CDomainAdjacency</title>
<path fill="none" stroke="black" d="M658.78,-108.23C622.59,-128.34 560.79,-162.67 520.43,-185.1"/>
<polygon fill="black" stroke="black" points="518.77,-182.01 511.73,-189.93 522.17,-188.13 518.77,-182.01"/>
</g>
<!-- DigitalSurface -->
<g id="node14" class="node">
<title>DigitalSurface</title>
<g id="a_node14"><a xlink:href="classDGtal_1_1DigitalSurface.html" target="_top" xlink:title="DigitalSurface">
<ellipse fill="white" stroke="white" cx="851" cy="-91" rx="64.66" ry="18"/>
<text xml:space="preserve" text-anchor="middle" x="851" y="-85.95" font-family="Times,serif" font-size="14.00">DigitalSurface</text>
</a>
</g>
</g>
<!-- DigitalSurface&#45;&gt;CUndirectedSimpleGraph -->
<g id="edge14" class="edge">
<title>DigitalSurface&#45;&gt;CUndirectedSimpleGraph</title>
<path fill="none" stroke="black" d="M881.57,-107.16C894.58,-114.23 909.58,-123.24 922,-133 1019.16,-209.36 1114.58,-322.28 1155.36,-372.85"/>
<polygon fill="black" stroke="black" points="1152.62,-375.03 1161.61,-380.64 1158.08,-370.65 1152.62,-375.03"/>
</g>
<!-- DigitalSurface&#45;&gt;CDigitalSurfaceContainer -->
<g id="edge15" class="edge">
<title>DigitalSurface&#45;&gt;CDigitalSurfaceContainer</title>
<path fill="none" stroke="black" stroke-dasharray="5,2" d="M828.7,-108.23C801.72,-127.87 756.09,-161.08 725.27,-183.51"/>
<polygon fill="black" stroke="black" points="723.47,-180.5 717.44,-189.21 727.59,-186.16 723.47,-180.5"/>
<text xml:space="preserve" text-anchor="middle" x="799.8" y="-136.2" font-family="Times,serif" font-size="14.00">use</text>
</g>
<!-- IndexedDigitalSurface -->
<g id="node15" class="node">
<title>IndexedDigitalSurface</title>
<g id="a_node15"><a xlink:href="classDGtal_1_1IndexedDigitalSurface.html" target="_top" xlink:title="IndexedDigitalSurface">
<ellipse fill="white" stroke="white" cx="1028" cy="-91" rx="94.34" ry="18"/>
<text xml:space="preserve" text-anchor="middle" x="1028" y="-85.95" font-family="Times,serif" font-size="14.00">IndexedDigitalSurface</text>
</a>
</g>
</g>
<!-- IndexedDigitalSurface&#45;&gt;CUndirectedSimpleGraph -->
<g id="edge16" class="edge">
<title>IndexedDigitalSurface&#45;&gt;CUndirectedSimpleGraph</title>
<path fill="none" stroke="black" d="M1036.38,-109.39C1060.96,-160.36 1132.97,-309.74 1162.81,-371.64"/>
<polygon fill="black" stroke="black" points="1159.56,-372.95 1167.05,-380.44 1165.86,-369.91 1159.56,-372.95"/>
</g>
<!-- IndexedDigitalSurface&#45;&gt;CDigitalSurfaceContainer -->
<g id="edge17" class="edge">
<title>IndexedDigitalSurface&#45;&gt;CDigitalSurfaceContainer</title>
<path fill="none" stroke="black" stroke-dasharray="5,2" d="M983.51,-107.27C923.16,-127.99 815.31,-165.01 749.35,-187.65"/>
<polygon fill="black" stroke="black" points="748.5,-184.25 740.18,-190.81 750.77,-190.87 748.5,-184.25"/>
<text xml:space="preserve" text-anchor="middle" x="909.36" y="-136.2" font-family="Times,serif" font-size="14.00">use</text>
</g>
<!-- Object -->
<g id="node16" class="node">
<title>Object</title>
<g id="a_node16"><a xlink:href="classDGtal_1_1Object.html" target="_top" xlink:title="Object">
<ellipse fill="white" stroke="white" cx="1176" cy="-91" rx="35.49" ry="18"/>
<text xml:space="preserve" text-anchor="middle" x="1176" y="-85.95" font-family="Times,serif" font-size="14.00">Object</text>
</a>
</g>
</g>
<!-- Object&#45;&gt;CUndirectedSimpleGraph -->
<g id="edge10" class="edge">
<title>Object&#45;&gt;CUndirectedSimpleGraph</title>
<path fill="none" stroke="black" d="M1176,-109.39C1176,-160.04 1176,-307.89 1176,-370.48"/>
<polygon fill="black" stroke="black" points="1172.5,-370.29 1176,-380.29 1179.5,-370.29 1172.5,-370.29"/>
</g>
<!-- Object&#45;&gt;CDigitalSet -->
<g id="edge11" class="edge">
<title>Object&#45;&gt;CDigitalSet</title>
<path fill="none" stroke="black" stroke-dasharray="5,2" d="M1187.94,-108.07C1225.16,-158.2 1339.35,-311.95 1384.92,-373.32"/>
<polygon fill="black" stroke="black" points="1381.95,-375.18 1390.73,-381.13 1387.57,-371.01 1381.95,-375.18"/>
<text xml:space="preserve" text-anchor="middle" x="1309.51" y="-247.2" font-family="Times,serif" font-size="14.00">use</text>
</g>
<!-- KhalimskySpaceND -->
<g id="node17" class="node">
<title>KhalimskySpaceND</title>
<g id="a_node17"><a xlink:href="classDGtal_1_1KhalimskySpaceND.html" target="_top" xlink:title="KhalimskySpaceND">
<ellipse fill="white" stroke="white" cx="328" cy="-91" rx="87.18" ry="18"/>
<text xml:space="preserve" text-anchor="middle" x="328" y="-85.95" font-family="Times,serif" font-size="14.00">KhalimskySpaceND</text>
</a>
</g>
</g>
<!-- KhalimskySpaceND&#45;&gt;CCellularGridSpaceND -->
<g id="edge18" class="edge">
<title>KhalimskySpaceND&#45;&gt;CCellularGridSpaceND</title>
<path fill="none" stroke="black" d="M330.22,-109.35C334.7,-144.42 344.87,-224.03 350.35,-266.9"/>
<polygon fill="black" stroke="black" points="346.86,-267.22 351.6,-276.69 353.8,-266.33 346.86,-267.22"/>
</g>
<!-- KhalimskyPreSpaceND -->
<g id="node18" class="node">
<title>KhalimskyPreSpaceND</title>
<g id="a_node18"><a xlink:href="classDGtal_1_1KhalimskyPreSpaceND.html" target="_top" xlink:title="KhalimskyPreSpaceND">
<ellipse fill="white" stroke="white" cx="123" cy="-91" rx="99.46" ry="18"/>
<text xml:space="preserve" text-anchor="middle" x="123" y="-85.95" font-family="Times,serif" font-size="14.00">KhalimskyPreSpaceND</text>
</a>
</g>
</g>
<!-- KhalimskyPreSpaceND&#45;&gt;CPreCellularGridSpaceND -->
<g id="edge19" class="edge">
<title>KhalimskyPreSpaceND&#45;&gt;CPreCellularGridSpaceND</title>
<path fill="none" stroke="black" d="M129.39,-109.25C144.72,-148.96 186.76,-248.46 246,-314.5 268.6,-339.7 300.07,-361.5 325.11,-376.65"/>
<polygon fill="black" stroke="black" points="323.01,-379.47 333.4,-381.55 326.57,-373.45 323.01,-379.47"/>
</g>
</g>
</svg>
