<?xml version="1.0" encoding="UTF-8" standalone="no"?>
<!DOCTYPE svg PUBLIC "-//W3C//DTD SVG 1.1//EN"
 "http://www.w3.org/Graphics/SVG/1.1/DTD/svg11.dtd">
<!-- Generated by graphviz version 14.1.0 (20251206.1807)
 -->
<!-- Title: GGeom Pages: 1 -->
<!--zoomable 660 -->

<svg id="main" version="1.1" xmlns="http://www.w3.org/2000/svg" xmlns:xlink="http://www.w3.org/1999/xlink" xml:space="preserve" onload="init(evt)">

<style type="text/css"><![CDATA[
.node, .edge {opacity: 0.7;}
.node.selected, .edge.selected {opacity: 1;}
.edge:hover path { stroke: red; }
.edge:hover polygon { stroke: red; fill: red; }
]]></style>

<defs>
  <circle id="rim" cx="0" cy="0" r="7"/>
  <circle id="rim2" cx="0" cy="0" r="3.5"/>
  <g id="zoomPlus">
    <use xlink:href="#rim" fill="#404040"><set attributeName="fill" to="#808080" begin="zoomplus.mouseover" end="zoomplus.mouseout"/></use>
    <path d="M-4,0h8M0,-4v8" fill="none" stroke="white" stroke-width="1.5" pointer-events="none"/>
  </g>
  <g id="zoomMin">
    <use xlink:href="#rim" fill="#404040"><set attributeName="fill" to="#808080" begin="zoomminus.mouseover" end="zoomminus.mouseout"/></use>
    <path d="M-4,0h8" fill="none" stroke="white" stroke-width="1.5" pointer-events="none"/>
  </g>
  <g id="arrowUp" transform="translate(30 24)">
    <use xlink:href="#rim"/>
    <path pointer-events="none" fill="none" stroke="white" stroke-width="1.5" d="M0,-3.0v7 M-2.5,-0.5L0,-3.0L2.5,-0.5"/>
  </g>
  <g id="arrowRight" transform="rotate(90) translate(36 -43)">
    <use xlink:href="#rim"/>
    <path pointer-events="none" fill="none" stroke="white" stroke-width="1.5" d="M0,-3.0v7 M-2.5,-0.5L0,-3.0L2.5,-0.5"/>
  </g>
  <g id="arrowDown" transform="rotate(180) translate(-30 -48)">
    <use xlink:href="#rim"/>
    <path pointer-events="none" fill="none" stroke="white" stroke-width="1.5" d="M0,-3.0v7 M-2.5,-0.5L0,-3.0L2.5,-0.5"/>
  </g>
  <g id="arrowLeft" transform="rotate(270) translate(-36 17)">
    <use xlink:href="#rim"/>
    <path pointer-events="none" fill="none" stroke="white" stroke-width="1.5" d="M0,-3.0v7 M-2.5,-0.5L0,-3.0L2.5,-0.5"/>
  </g>
  <g id="resetDef">
    <use xlink:href="#rim2" fill="#404040"><set attributeName="fill" to="#808080" begin="reset.mouseover" end="reset.mouseout"/></use>
  </g>
</defs>
<script type="application/ecmascript">
var viewWidth = 2448;
var viewHeight = 660;
</script>
<script type="application/ecmascript" xlink:href="svg.min.js"/>
<svg id="graph" class="graph">
<g id="viewport">
<title>GGeom</title>
<polygon fill="white" stroke="none" points="-4,4 -4,-656 2444,-656 2444,4 -4,4"/>
<g id="clust1" class="cluster">
<title>cluster_ext</title>
</g>
<g id="clust2" class="cluster">
<title>cluster_boost</title>
<polygon fill="white" stroke="white" points="422,-559.5 422,-636 1305,-636 1305,-559.5 422,-559.5"/>
<text xml:space="preserve" text-anchor="middle" x="863.5" y="-566.7" font-family="Times,serif" font-size="14.00">boost</text>
</g>
<g id="clust3" class="cluster">
<title>cluster_concepts_1</title>
<polygon fill="lightgrey" stroke="lightgrey" points="8,-8 8,-532.5 555,-532.5 555,-8 8,-8"/>
<text xml:space="preserve" text-anchor="middle" x="281.5" y="-15.2" font-family="Times,serif" font-size="14.00">geometry/curves (main concepts)</text>
</g>
<g id="clust4" class="cluster">
<title>cluster_concepts_2</title>
<polygon fill="lightgrey" stroke="lightgrey" points="1546,-383 1546,-636 2066,-636 2066,-383 1546,-383"/>
<text xml:space="preserve" text-anchor="middle" x="1806" y="-390.2" font-family="Times,serif" font-size="14.00">geometry/volumes (main concepts)</text>
</g>
<g id="clust5" class="cluster">
<title>cluster_concepts_3</title>
<polygon fill="lightgrey" stroke="lightgrey" points="875,-287.5 875,-532.5 1408,-532.5 1408,-287.5 875,-287.5"/>
<text xml:space="preserve" text-anchor="middle" x="1141.5" y="-294.7" font-family="Times,serif" font-size="14.00">geometry/surfaces (main concepts)</text>
</g>
<g id="clust6" class="cluster">
<title>cluster_models</title>
<polygon fill="#ccffcc" stroke="#ccffcc" points="563,-103.5 563,-268.5 2432,-268.5 2432,-103.5 563,-103.5"/>
<text xml:space="preserve" text-anchor="middle" x="1497.5" y="-110.7" font-family="Times,serif" font-size="14.00">geometry/surfaces (main models)</text>
</g>
<g id="clust7" class="cluster">
<title>cluster_models_vol</title>
<polygon fill="#ccffcc" stroke="#ccffcc" points="1416,-287.5 1416,-364 2354,-364 2354,-287.5 1416,-287.5"/>
<text xml:space="preserve" text-anchor="middle" x="1885" y="-294.7" font-family="Times,serif" font-size="14.00">geometry/volumes (main models)</text>
</g>
<!-- boost_CopyConstructible -->
<g id="node1" class="node">
<title>boost_CopyConstructible</title>
<ellipse fill="orange" stroke="orange" cx="1021" cy="-610" rx="105.09" ry="18"/>
<text xml:space="preserve" text-anchor="middle" x="1021" y="-604.95" font-family="Times,serif" font-size="14.00">boost_CopyConstructible</text>
</g>
<!-- boost_DefaultConstructible -->
<g id="node2" class="node">
<title>boost_DefaultConstructible</title>
<ellipse fill="orange" stroke="orange" cx="785" cy="-610" rx="112.77" ry="18"/>
<text xml:space="preserve" text-anchor="middle" x="785" y="-604.95" font-family="Times,serif" font-size="14.00">boost_DefaultConstructible</text>
</g>
<!-- boost_Assignable -->
<g id="node3" class="node">
<title>boost_Assignable</title>
<ellipse fill="orange" stroke="orange" cx="1221" cy="-610" rx="76.43" ry="18"/>
<text xml:space="preserve" text-anchor="middle" x="1221" y="-604.95" font-family="Times,serif" font-size="14.00">boost_Assignable</text>
</g>
<!-- boost_EqualityComparable -->
<g id="node4" class="node">
<title>boost_EqualityComparable</title>
<ellipse fill="orange" stroke="orange" cx="542" cy="-610" rx="112.26" ry="18"/>
<text xml:space="preserve" text-anchor="middle" x="542" y="-604.95" font-family="Times,serif" font-size="14.00">boost_EqualityComparable</text>
</g>
<!-- CSegment -->
<g id="node5" class="node">
<title>CSegment</title>
<g id="a_node5"><a xlink:href="structDGtal_1_1concepts_1_1CSegment.html" target="_top" xlink:title="CSegment">
<ellipse fill="white" stroke="white" cx="497" cy="-506.5" rx="49.82" ry="18"/>
<text xml:space="preserve" text-anchor="middle" x="497" y="-501.45" font-family="Times,serif" font-size="14.00">CSegment</text>
</a>
</g>
</g>
<!-- CSegment&#45;&gt;boost_CopyConstructible -->
<g id="edge19" class="edge">
<title>CSegment&#45;&gt;boost_CopyConstructible</title>
<path fill="none" stroke="black" d="M547.03,-507.14C625.41,-507.85 781.18,-514.36 907,-551.5 934.35,-559.57 962.99,-574.05 984.73,-586.46"/>
<polygon fill="black" stroke="black" points="982.8,-589.38 993.2,-591.4 986.32,-583.34 982.8,-589.38"/>
</g>
<!-- CSegment&#45;&gt;boost_DefaultConstructible -->
<g id="edge20" class="edge">
<title>CSegment&#45;&gt;boost_DefaultConstructible</title>
<path fill="none" stroke="black" d="M539.26,-516.47C573.2,-524.2 621.83,-536.48 663,-551.5 690.47,-561.52 720.17,-575.45 743.39,-587.08"/>
<polygon fill="black" stroke="black" points="741.72,-590.16 752.22,-591.56 744.88,-583.92 741.72,-590.16"/>
</g>
<!-- CSegment&#45;&gt;boost_Assignable -->
<g id="edge21" class="edge">
<title>CSegment&#45;&gt;boost_Assignable</title>
<path fill="none" stroke="black" d="M545.7,-510.78C694.21,-520.78 1131.51,-550.31 1135,-551.5 1156.45,-558.83 1177.66,-572.91 1193.65,-585.3"/>
<polygon fill="black" stroke="black" points="1191.25,-587.86 1201.24,-591.39 1195.63,-582.4 1191.25,-587.86"/>
</g>
<!-- CSegment&#45;&gt;boost_EqualityComparable -->
<g id="edge22" class="edge">
<title>CSegment&#45;&gt;boost_EqualityComparable</title>
<path fill="none" stroke="black" d="M504.63,-524.72C511.49,-540.17 521.67,-563.14 529.67,-581.2"/>
<polygon fill="black" stroke="black" points="526.46,-582.59 533.72,-590.31 532.86,-579.75 526.46,-582.59"/>
</g>
<!-- CBidirectionalSegmentComputer -->
<g id="node6" class="node">
<title>CBidirectionalSegmentComputer</title>
<g id="a_node6"><a xlink:href="structDGtal_1_1concepts_1_1CBidirectionalSegmentComputer.html" target="_top" xlink:title="CBidirectionalSegmentComputer">
<ellipse fill="white" stroke="white" cx="151" cy="-154" rx="135.29" ry="18"/>
<text xml:space="preserve" text-anchor="middle" x="151" y="-148.95" font-family="Times,serif" font-size="14.00">CBidirectionalSegmentComputer</text>
</a>
</g>
</g>
<!-- CForwardSegmentComputer -->
<g id="node8" class="node">
<title>CForwardSegmentComputer</title>
<g id="a_node8"><a xlink:href="structDGtal_1_1concepts_1_1CForwardSegmentComputer.html" target="_top" xlink:title="CForwardSegmentComputer">
<ellipse fill="white" stroke="white" cx="415" cy="-242.5" rx="118.4" ry="18"/>
<text xml:space="preserve" text-anchor="middle" x="415" y="-237.45" font-family="Times,serif" font-size="14.00">CForwardSegmentComputer</text>
</a>
</g>
</g>
<!-- CBidirectionalSegmentComputer&#45;&gt;CForwardSegmentComputer -->
<g id="edge1" class="edge">
<title>CBidirectionalSegmentComputer&#45;&gt;CForwardSegmentComputer</title>
<path fill="none" stroke="black" d="M200.35,-171.17C244.42,-185.61 309.07,-206.79 355.89,-222.13"/>
<polygon fill="black" stroke="black" points="354.76,-225.44 365.35,-225.23 356.94,-218.79 354.76,-225.44"/>
</g>
<!-- CIncrementalSegmentComputer -->
<g id="node7" class="node">
<title>CIncrementalSegmentComputer</title>
<g id="a_node7"><a xlink:href="structDGtal_1_1concepts_1_1CIncrementalSegmentComputer.html" target="_top" xlink:title="CIncrementalSegmentComputer">
<ellipse fill="white" stroke="white" cx="415" cy="-338" rx="131.71" ry="18"/>
<text xml:space="preserve" text-anchor="middle" x="415" y="-332.95" font-family="Times,serif" font-size="14.00">CIncrementalSegmentComputer</text>
</a>
</g>
</g>
<!-- CSegmentFactory -->
<g id="node9" class="node">
<title>CSegmentFactory</title>
<g id="a_node9"><a xlink:href="structDGtal_1_1concepts_1_1CSegmentFactory.html" target="_top" xlink:title="CSegmentFactory">
<ellipse fill="white" stroke="white" cx="455" cy="-433.5" rx="77.97" ry="18"/>
<text xml:space="preserve" text-anchor="middle" x="455" y="-428.45" font-family="Times,serif" font-size="14.00">CSegmentFactory</text>
</a>
</g>
</g>
<!-- CIncrementalSegmentComputer&#45;&gt;CSegmentFactory -->
<g id="edge3" class="edge">
<title>CIncrementalSegmentComputer&#45;&gt;CSegmentFactory</title>
<path fill="none" stroke="black" d="M422.34,-356.15C428.16,-369.77 436.43,-389.09 443.19,-404.88"/>
<polygon fill="black" stroke="black" points="439.83,-405.93 446.98,-413.75 446.26,-403.18 439.83,-405.93"/>
</g>
<!-- CForwardSegmentComputer&#45;&gt;CIncrementalSegmentComputer -->
<g id="edge2" class="edge">
<title>CForwardSegmentComputer&#45;&gt;CIncrementalSegmentComputer</title>
<path fill="none" stroke="black" d="M415,-260.65C415,-274.01 415,-292.85 415,-308.47"/>
<polygon fill="black" stroke="black" points="411.5,-308.13 415,-318.13 418.5,-308.13 411.5,-308.13"/>
</g>
<!-- CSegmentFactory&#45;&gt;CSegment -->
<g id="edge4" class="edge">
<title>CSegmentFactory&#45;&gt;CSegment</title>
<path fill="none" stroke="black" d="M465.17,-451.69C469.96,-459.8 475.8,-469.66 481.16,-478.72"/>
<polygon fill="black" stroke="black" points="478.05,-480.34 486.16,-487.17 484.08,-476.78 478.05,-480.34"/>
</g>
<!-- CDynamicBidirectionalSegmentComputer -->
<g id="node10" class="node">
<title>CDynamicBidirectionalSegmentComputer</title>
<g id="a_node10"><a xlink:href="structDGtal_1_1concepts_1_1CDynamicBidirectionalSegmentComputer.html" target="_top" xlink:title="CDynamicBidirectionalSegmentComputer">
<ellipse fill="white" stroke="white" cx="281" cy="-58.5" rx="169.58" ry="18"/>
<text xml:space="preserve" text-anchor="middle" x="281" y="-53.45" font-family="Times,serif" font-size="14.00">CDynamicBidirectionalSegmentComputer</text>
</a>
</g>
</g>
<!-- CDynamicBidirectionalSegmentComputer&#45;&gt;CBidirectionalSegmentComputer -->
<g id="edge7" class="edge">
<title>CDynamicBidirectionalSegmentComputer&#45;&gt;CBidirectionalSegmentComputer</title>
<path fill="none" stroke="black" d="M257.16,-76.65C236.63,-91.41 206.81,-112.86 183.99,-129.27"/>
<polygon fill="black" stroke="black" points="182,-126.4 175.92,-135.08 186.08,-132.08 182,-126.4"/>
</g>
<!-- CDynamicSegmentComputer -->
<g id="node11" class="node">
<title>CDynamicSegmentComputer</title>
<g id="a_node11"><a xlink:href="structDGtal_1_1concepts_1_1CDynamicSegmentComputer.html" target="_top" xlink:title="CDynamicSegmentComputer">
<ellipse fill="white" stroke="white" cx="426" cy="-154" rx="121.47" ry="18"/>
<text xml:space="preserve" text-anchor="middle" x="426" y="-148.95" font-family="Times,serif" font-size="14.00">CDynamicSegmentComputer</text>
</a>
</g>
</g>
<!-- CDynamicBidirectionalSegmentComputer&#45;&gt;CDynamicSegmentComputer -->
<g id="edge6" class="edge">
<title>CDynamicBidirectionalSegmentComputer&#45;&gt;CDynamicSegmentComputer</title>
<path fill="none" stroke="black" d="M307.6,-76.65C330.79,-91.61 364.65,-113.44 390.22,-129.93"/>
<polygon fill="black" stroke="black" points="388,-132.66 398.3,-135.14 391.79,-126.78 388,-132.66"/>
</g>
<!-- CDynamicSegmentComputer&#45;&gt;CForwardSegmentComputer -->
<g id="edge5" class="edge">
<title>CDynamicSegmentComputer&#45;&gt;CForwardSegmentComputer</title>
<path fill="none" stroke="black" d="M423.83,-172.09C422.34,-183.74 420.35,-199.45 418.63,-212.98"/>
<polygon fill="black" stroke="black" points="415.19,-212.29 417.4,-222.65 422.13,-213.17 415.19,-212.29"/>
</g>
<!-- CMetricSpace -->
<g id="node12" class="node">
<title>CMetricSpace</title>
<g id="a_node12"><a xlink:href="structDGtal_1_1concepts_1_1CMetricSpace.html" target="_top" xlink:title="CMetricSpace">
<ellipse fill="white" stroke="white" cx="1782" cy="-610" rx="64.15" ry="18"/>
<text xml:space="preserve" text-anchor="middle" x="1782" y="-604.95" font-family="Times,serif" font-size="14.00">CMetricSpace</text>
</a>
</g>
</g>
<!-- CDigitalMetricSpace -->
<g id="node13" class="node">
<title>CDigitalMetricSpace</title>
<g id="a_node13"><a xlink:href="structDGtal_1_1concepts_1_1CDigitalMetricSpace.html" target="_top" xlink:title="CDigitalMetricSpace">
<ellipse fill="white" stroke="white" cx="1968" cy="-506.5" rx="89.74" ry="18"/>
<text xml:space="preserve" text-anchor="middle" x="1968" y="-501.45" font-family="Times,serif" font-size="14.00">CDigitalMetricSpace</text>
</a>
</g>
</g>
<!-- CSeparableMetric -->
<g id="node14" class="node">
<title>CSeparableMetric</title>
<g id="a_node14"><a xlink:href="structDGtal_1_1concepts_1_1CSeparableMetric.html" target="_top" xlink:title="CSeparableMetric">
<ellipse fill="white" stroke="white" cx="1782" cy="-506.5" rx="78.48" ry="18"/>
<text xml:space="preserve" text-anchor="middle" x="1782" y="-501.45" font-family="Times,serif" font-size="14.00">CSeparableMetric</text>
</a>
</g>
</g>
<!-- CSeparableMetric&#45;&gt;CMetricSpace -->
<g id="edge8" class="edge">
<title>CSeparableMetric&#45;&gt;CMetricSpace</title>
<path fill="none" stroke="black" d="M1776.78,-524.72C1775.12,-539.96 1774.81,-562.49 1775.86,-580.43"/>
<polygon fill="black" stroke="black" points="1772.35,-580.5 1776.65,-590.19 1779.33,-579.94 1772.35,-580.5"/>
</g>
<!-- CSeparableMetric&#45;&gt;CMetricSpace -->
<g id="edge9" class="edge">
<title>CSeparableMetric&#45;&gt;CMetricSpace</title>
<path fill="none" stroke="black" d="M1787.22,-524.72C1788.88,-539.96 1789.19,-562.49 1788.14,-580.43"/>
<polygon fill="black" stroke="black" points="1784.67,-579.94 1787.35,-590.19 1791.65,-580.5 1784.67,-579.94"/>
</g>
<!-- CDigitalSeparableMetric -->
<g id="node15" class="node">
<title>CDigitalSeparableMetric</title>
<ellipse fill="white" stroke="white" cx="1954" cy="-433.5" rx="104.07" ry="18"/>
<text xml:space="preserve" text-anchor="middle" x="1954" y="-428.45" font-family="Times,serif" font-size="14.00">CDigitalSeparableMetric</text>
</g>
<!-- CDigitalSeparableMetric&#45;&gt;CDigitalMetricSpace -->
<g id="edge10" class="edge">
<title>CDigitalSeparableMetric&#45;&gt;CDigitalMetricSpace</title>
<path fill="none" stroke="black" d="M1957.39,-451.69C1958.9,-459.36 1960.73,-468.61 1962.43,-477.26"/>
<polygon fill="black" stroke="black" points="1958.98,-477.85 1964.35,-486.99 1965.85,-476.5 1958.98,-477.85"/>
</g>
<!-- CDigitalSeparableMetric&#45;&gt;CSeparableMetric -->
<g id="edge11" class="edge">
<title>CDigitalSeparableMetric&#45;&gt;CSeparableMetric</title>
<path fill="none" stroke="black" d="M1914.97,-450.61C1889.6,-461.09 1856.35,-474.81 1829.45,-485.91"/>
<polygon fill="black" stroke="black" points="1828.41,-482.55 1820.51,-489.61 1831.08,-489.02 1828.41,-482.55"/>
</g>
<!-- CPowerMetric -->
<g id="node16" class="node">
<title>CPowerMetric</title>
<g id="a_node16"><a xlink:href="structDGtal_1_1concepts_1_1CPowerMetric.html" target="_top" xlink:title="CPowerMetric">
<ellipse fill="white" stroke="white" cx="1620" cy="-506.5" rx="65.68" ry="18"/>
<text xml:space="preserve" text-anchor="middle" x="1620" y="-501.45" font-family="Times,serif" font-size="14.00">CPowerMetric</text>
</a>
</g>
</g>
<!-- CPowerMetric&#45;&gt;boost_CopyConstructible -->
<g id="edge17" class="edge">
<title>CPowerMetric&#45;&gt;boost_CopyConstructible</title>
<path fill="none" stroke="black" d="M1573.88,-519.74C1554.05,-524.52 1530.53,-529.55 1509,-532.5 1344.54,-555.04 1296.53,-509.26 1136,-551.5 1107.86,-558.9 1078.56,-573.68 1056.58,-586.39"/>
<polygon fill="black" stroke="black" points="1054.83,-583.36 1048.02,-591.47 1058.41,-589.38 1054.83,-583.36"/>
</g>
<!-- CPowerMetric&#45;&gt;boost_Assignable -->
<g id="edge18" class="edge">
<title>CPowerMetric&#45;&gt;boost_Assignable</title>
<path fill="none" stroke="black" d="M1573.06,-519.44C1500.85,-537.81 1362.51,-573 1282.43,-593.37"/>
<polygon fill="black" stroke="black" points="1281.82,-589.92 1272.99,-595.77 1283.55,-596.7 1281.82,-589.92"/>
</g>
<!-- CPowerSeparableMetric -->
<g id="node17" class="node">
<title>CPowerSeparableMetric</title>
<g id="a_node17"><a xlink:href="structDGtal_1_1concepts_1_1CPowerSeparableMetric.html" target="_top" xlink:title="CPowerSeparableMetric">
<ellipse fill="white" stroke="white" cx="1730" cy="-433.5" rx="102.02" ry="18"/>
<text xml:space="preserve" text-anchor="middle" x="1730" y="-428.45" font-family="Times,serif" font-size="14.00">CPowerSeparableMetric</text>
</a>
</g>
</g>
<!-- CPowerSeparableMetric&#45;&gt;CPowerMetric -->
<g id="edge12" class="edge">
<title>CPowerSeparableMetric&#45;&gt;CPowerMetric</title>
<path fill="none" stroke="black" d="M1703.93,-451.33C1689.09,-460.9 1670.33,-473.01 1654.31,-483.35"/>
<polygon fill="black" stroke="black" points="1652.52,-480.34 1646.02,-488.71 1656.32,-486.22 1652.52,-480.34"/>
</g>
<!-- CPrimitiveComputer -->
<g id="node18" class="node">
<title>CPrimitiveComputer</title>
<g id="a_node18"><a xlink:href="structDGtal_1_1concepts_1_1CPrimitiveComputer.html" target="_top" xlink:title="CPrimitiveComputer">
<ellipse fill="white" stroke="white" cx="1221" cy="-506.5" rx="89.23" ry="18"/>
<text xml:space="preserve" text-anchor="middle" x="1221" y="-501.45" font-family="Times,serif" font-size="14.00">CPrimitiveComputer</text>
</a>
</g>
</g>
<!-- CPrimitiveComputer&#45;&gt;boost_CopyConstructible -->
<g id="edge24" class="edge">
<title>CPrimitiveComputer&#45;&gt;boost_CopyConstructible</title>
<path fill="none" stroke="black" d="M1139.02,-514C1096.35,-519.07 1050,-527.82 1035,-542.5 1025.06,-552.23 1021.3,-567.1 1020.15,-580.32"/>
<polygon fill="black" stroke="black" points="1016.65,-580.16 1019.77,-590.28 1023.65,-580.42 1016.65,-580.16"/>
</g>
<!-- CPrimitiveComputer&#45;&gt;boost_DefaultConstructible -->
<g id="edge23" class="edge">
<title>CPrimitiveComputer&#45;&gt;boost_DefaultConstructible</title>
<path fill="none" stroke="black" d="M1136.23,-512.44C1072.19,-517.83 982.7,-528.93 907,-551.5 878.07,-560.13 847.34,-574.65 823.96,-586.94"/>
<polygon fill="black" stroke="black" points="822.59,-583.7 815.42,-591.51 825.89,-589.87 822.59,-583.7"/>
</g>
<!-- CPrimitiveComputer&#45;&gt;boost_Assignable -->
<g id="edge25" class="edge">
<title>CPrimitiveComputer&#45;&gt;boost_Assignable</title>
<path fill="none" stroke="black" d="M1221,-524.72C1221,-539.96 1221,-562.49 1221,-580.43"/>
<polygon fill="black" stroke="black" points="1217.5,-580.18 1221,-590.18 1224.5,-580.18 1217.5,-580.18"/>
</g>
<!-- CIncrementalPrimitiveComputer -->
<g id="node19" class="node">
<title>CIncrementalPrimitiveComputer</title>
<g id="a_node19"><a xlink:href="structDGtal_1_1concepts_1_1CIncrementalPrimitiveComputer.html" target="_top" xlink:title="CIncrementalPrimitiveComputer">
<ellipse fill="white" stroke="white" cx="1266" cy="-433.5" rx="133.75" ry="18"/>
<text xml:space="preserve" text-anchor="middle" x="1266" y="-428.45" font-family="Times,serif" font-size="14.00">CIncrementalPrimitiveComputer</text>
</a>
</g>
</g>
<!-- CIncrementalPrimitiveComputer&#45;&gt;CPrimitiveComputer -->
<g id="edge14" class="edge">
<title>CIncrementalPrimitiveComputer&#45;&gt;CPrimitiveComputer</title>
<path fill="none" stroke="black" d="M1255.11,-451.69C1249.91,-459.88 1243.58,-469.88 1237.79,-479.02"/>
<polygon fill="black" stroke="black" points="1235,-476.87 1232.6,-487.19 1240.91,-480.62 1235,-476.87"/>
</g>
<!-- CAdditivePrimitiveComputer -->
<g id="node20" class="node">
<title>CAdditivePrimitiveComputer</title>
<g id="a_node20"><a xlink:href="structDGtal_1_1concepts_1_1CAdditivePrimitiveComputer.html" target="_top" xlink:title="CAdditivePrimitiveComputer">
<ellipse fill="white" stroke="white" cx="1279" cy="-338" rx="121.47" ry="18"/>
<text xml:space="preserve" text-anchor="middle" x="1279" y="-332.95" font-family="Times,serif" font-size="14.00">CAdditivePrimitiveComputer</text>
</a>
</g>
</g>
<!-- CAdditivePrimitiveComputer&#45;&gt;CIncrementalPrimitiveComputer -->
<g id="edge13" class="edge">
<title>CAdditivePrimitiveComputer&#45;&gt;CIncrementalPrimitiveComputer</title>
<path fill="none" stroke="black" d="M1276.62,-356.15C1274.76,-369.51 1272.14,-388.35 1269.97,-403.97"/>
<polygon fill="black" stroke="black" points="1266.53,-403.26 1268.62,-413.64 1273.47,-404.22 1266.53,-403.26"/>
</g>
<!-- CDigitalSurfaceLocalEstimator -->
<g id="node21" class="node">
<title>CDigitalSurfaceLocalEstimator</title>
<g id="a_node21"><a xlink:href="structDGtal_1_1concepts_1_1CDigitalSurfaceLocalEstimator.html" target="_top" xlink:title="CDigitalSurfaceLocalEstimator">
<ellipse fill="white" stroke="white" cx="1011" cy="-338" rx="128.12" ry="18"/>
<text xml:space="preserve" text-anchor="middle" x="1011" y="-332.95" font-family="Times,serif" font-size="14.00">CDigitalSurfaceLocalEstimator</text>
</a>
</g>
</g>
<!-- CDigitalSurfaceLocalEstimator&#45;&gt;boost_CopyConstructible -->
<g id="edge42" class="edge">
<title>CDigitalSurfaceLocalEstimator&#45;&gt;boost_CopyConstructible</title>
<path fill="none" stroke="black" d="M1011.64,-356.3C1013.32,-401.73 1017.88,-524.78 1019.95,-580.68"/>
<polygon fill="black" stroke="black" points="1016.44,-580.47 1020.31,-590.33 1023.44,-580.21 1016.44,-580.47"/>
</g>
<!-- CDigitalSurfaceLocalEstimator&#45;&gt;boost_DefaultConstructible -->
<g id="edge41" class="edge">
<title>CDigitalSurfaceLocalEstimator&#45;&gt;boost_DefaultConstructible</title>
<path fill="none" stroke="black" d="M996.52,-356.3C957.93,-402.4 852.46,-528.41 806.68,-583.1"/>
<polygon fill="black" stroke="black" points="804.07,-580.77 800.33,-590.68 809.43,-585.26 804.07,-580.77"/>
</g>
<!-- CDigitalSurfaceLocalEstimator&#45;&gt;boost_Assignable -->
<g id="edge43" class="edge">
<title>CDigitalSurfaceLocalEstimator&#45;&gt;boost_Assignable</title>
<path fill="none" stroke="black" d="M1018.34,-356.45C1033.93,-392.18 1073.04,-475.12 1123,-532.5 1141.15,-553.34 1165.66,-572.48 1185.63,-586.39"/>
<polygon fill="black" stroke="black" points="1183.53,-589.2 1193.77,-591.94 1187.47,-583.42 1183.53,-589.2"/>
</g>
<!-- CMetric -->
<g id="node22" class="node">
<title>CMetric</title>
<ellipse fill="none" stroke="black" cx="1458" cy="-506.5" rx="42.14" ry="18"/>
<text xml:space="preserve" text-anchor="middle" x="1458" y="-501.45" font-family="Times,serif" font-size="14.00">CMetric</text>
</g>
<!-- CMetric&#45;&gt;boost_CopyConstructible -->
<g id="edge15" class="edge">
<title>CMetric&#45;&gt;boost_CopyConstructible</title>
<path fill="none" stroke="black" d="M1435.96,-522.19C1428.64,-526.32 1420.25,-530.28 1412,-532.5 1374.22,-542.68 1093.67,-522.57 1060,-542.5 1045.59,-551.03 1035.95,-567.1 1029.86,-581.31"/>
<polygon fill="black" stroke="black" points="1026.75,-579.66 1026.42,-590.25 1033.28,-582.17 1026.75,-579.66"/>
</g>
<!-- CMetric&#45;&gt;boost_Assignable -->
<g id="edge16" class="edge">
<title>CMetric&#45;&gt;boost_Assignable</title>
<path fill="none" stroke="black" d="M1433.44,-521.53C1426.59,-525.26 1419.07,-529.17 1412,-532.5 1365.46,-554.38 1310.86,-575.84 1271.98,-590.44"/>
<polygon fill="black" stroke="black" points="1271.02,-587.06 1262.87,-593.84 1273.47,-593.62 1271.02,-587.06"/>
</g>
<!-- COBANaivePlaneComputer -->
<g id="node23" class="node">
<title>COBANaivePlaneComputer</title>
<g id="a_node23"><a xlink:href="classDGtal_1_1COBANaivePlaneComputer.html" target="_top" xlink:title="COBANaivePlaneComputer">
<ellipse fill="white" stroke="white" cx="1958" cy="-242.5" rx="116.35" ry="18"/>
<text xml:space="preserve" text-anchor="middle" x="1958" y="-237.45" font-family="Times,serif" font-size="14.00">COBANaivePlaneComputer</text>
</a>
</g>
</g>
<!-- COBANaivePlaneComputer&#45;&gt;CAdditivePrimitiveComputer -->
<g id="edge31" class="edge">
<title>COBANaivePlaneComputer&#45;&gt;CAdditivePrimitiveComputer</title>
<path fill="none" stroke="black" d="M1854.68,-251.09C1702.38,-262.38 1433.21,-282.79 1412,-287.5 1382.43,-294.06 1350.59,-305.74 1325.48,-316.1"/>
<polygon fill="black" stroke="black" points="1324.41,-312.75 1316.55,-319.86 1327.12,-319.21 1324.41,-312.75"/>
</g>
<!-- COBAGenericNaivePlaneComputer -->
<g id="node24" class="node">
<title>COBAGenericNaivePlaneComputer</title>
<g id="a_node24"><a xlink:href="classDGtal_1_1COBAGenericNaivePlaneComputer.html" target="_top" xlink:title="COBAGenericNaivePlaneComputer">
<ellipse fill="white" stroke="white" cx="2278" cy="-154" rx="145.52" ry="18"/>
<text xml:space="preserve" text-anchor="middle" x="2278" y="-148.95" font-family="Times,serif" font-size="14.00">COBAGenericNaivePlaneComputer</text>
</a>
</g>
</g>
<!-- COBAGenericNaivePlaneComputer&#45;&gt;CAdditivePrimitiveComputer -->
<g id="edge29" class="edge">
<title>COBAGenericNaivePlaneComputer&#45;&gt;CAdditivePrimitiveComputer</title>
<path fill="none" stroke="black" d="M2256.85,-172.19C2222.73,-198.75 2152.31,-248.74 2083,-268.5 2011.27,-288.95 1485.21,-273.25 1412,-287.5 1381.85,-293.37 1349.51,-305.27 1324.28,-315.92"/>
<polygon fill="black" stroke="black" points="1323.11,-312.62 1315.32,-319.79 1325.88,-319.04 1323.11,-312.62"/>
</g>
<!-- COBAGenericNaivePlaneComputer&#45;&gt;COBANaivePlaneComputer -->
<g id="edge30" class="edge">
<title>COBAGenericNaivePlaneComputer&#45;&gt;COBANaivePlaneComputer</title>
<path fill="none" stroke="black" stroke-dasharray="5,2" d="M2219.31,-170.87C2164.39,-185.71 2082.41,-207.87 2024.96,-223.4"/>
<polygon fill="black" stroke="black" points="2024.38,-219.93 2015.64,-225.92 2026.2,-226.69 2024.38,-219.93"/>
<text xml:space="preserve" text-anchor="middle" x="2155.66" y="-193.2" font-family="Times,serif" font-size="14.00">use</text>
</g>
<!-- COBAGenericStandardPlaneComputer -->
<g id="node25" class="node">
<title>COBAGenericStandardPlaneComputer</title>
<g id="a_node25"><a xlink:href="classDGtal_1_1COBAGenericStandardPlaneComputer.html" target="_top" xlink:title="COBAGenericStandardPlaneComputer">
<ellipse fill="white" stroke="white" cx="1958" cy="-154" rx="156.27" ry="18"/>
<text xml:space="preserve" text-anchor="middle" x="1958" y="-148.95" font-family="Times,serif" font-size="14.00">COBAGenericStandardPlaneComputer</text>
</a>
</g>
</g>
<!-- COBAGenericStandardPlaneComputer&#45;&gt;CAdditivePrimitiveComputer -->
<g id="edge32" class="edge">
<title>COBAGenericStandardPlaneComputer&#45;&gt;CAdditivePrimitiveComputer</title>
<path fill="none" stroke="black" d="M1848.47,-167.18C1829.97,-168.98 1810.95,-170.67 1793,-172 1748.52,-175.29 1431.56,-169.4 1392,-190 1378.85,-196.85 1326.06,-270.03 1297.53,-310.48"/>
<polygon fill="black" stroke="black" points="1294.76,-308.33 1291.87,-318.53 1300.49,-312.36 1294.76,-308.33"/>
</g>
<!-- COBAGenericStandardPlaneComputer&#45;&gt;COBANaivePlaneComputer -->
<g id="edge33" class="edge">
<title>COBAGenericStandardPlaneComputer&#45;&gt;COBANaivePlaneComputer</title>
<path fill="none" stroke="black" stroke-dasharray="5,2" d="M1958,-172.09C1958,-183.74 1958,-199.45 1958,-212.98"/>
<polygon fill="black" stroke="black" points="1954.5,-212.64 1958,-222.64 1961.5,-212.64 1954.5,-212.64"/>
<text xml:space="preserve" text-anchor="middle" x="1967" y="-193.2" font-family="Times,serif" font-size="14.00">use</text>
</g>
<!-- ChordNaivePlaneComputer -->
<g id="node26" class="node">
<title>ChordNaivePlaneComputer</title>
<g id="a_node26"><a xlink:href="classDGtal_1_1ChordNaivePlaneComputer.html" target="_top" xlink:title="ChordNaivePlaneComputer">
<ellipse fill="white" stroke="white" cx="1497" cy="-242.5" rx="113.79" ry="18"/>
<text xml:space="preserve" text-anchor="middle" x="1497" y="-237.45" font-family="Times,serif" font-size="14.00">ChordNaivePlaneComputer</text>
</a>
</g>
</g>
<!-- ChordNaivePlaneComputer&#45;&gt;CAdditivePrimitiveComputer -->
<g id="edge36" class="edge">
<title>ChordNaivePlaneComputer&#45;&gt;CAdditivePrimitiveComputer</title>
<path fill="none" stroke="black" d="M1458.78,-259.89C1422.42,-275.49 1367.57,-299.01 1328.01,-315.98"/>
<polygon fill="black" stroke="black" points="1326.75,-312.71 1318.94,-319.87 1329.51,-319.15 1326.75,-312.71"/>
</g>
<!-- ChordGenericNaivePlaneComputer -->
<g id="node27" class="node">
<title>ChordGenericNaivePlaneComputer</title>
<g id="a_node27"><a xlink:href="classDGtal_1_1ChordGenericNaivePlaneComputer.html" target="_top" xlink:title="ChordGenericNaivePlaneComputer">
<ellipse fill="white" stroke="white" cx="1641" cy="-154" rx="142.97" ry="18"/>
<text xml:space="preserve" text-anchor="middle" x="1641" y="-148.95" font-family="Times,serif" font-size="14.00">ChordGenericNaivePlaneComputer</text>
</a>
</g>
</g>
<!-- ChordGenericNaivePlaneComputer&#45;&gt;CAdditivePrimitiveComputer -->
<g id="edge34" class="edge">
<title>ChordGenericNaivePlaneComputer&#45;&gt;CAdditivePrimitiveComputer</title>
<path fill="none" stroke="black" d="M1537.39,-166.78C1451.07,-176.65 1342.01,-189.24 1341,-190 1330.95,-197.55 1303.98,-268.29 1289.14,-308.82"/>
<polygon fill="black" stroke="black" points="1285.86,-307.6 1285.73,-318.19 1292.44,-309.99 1285.86,-307.6"/>
</g>
<!-- ChordGenericNaivePlaneComputer&#45;&gt;ChordNaivePlaneComputer -->
<g id="edge35" class="edge">
<title>ChordGenericNaivePlaneComputer&#45;&gt;ChordNaivePlaneComputer</title>
<path fill="none" stroke="black" stroke-dasharray="5,2" d="M1612.55,-172.09C1590.22,-185.5 1558.93,-204.3 1534.55,-218.95"/>
<polygon fill="black" stroke="black" points="1532.97,-215.81 1526.2,-223.96 1536.57,-221.81 1532.97,-215.81"/>
<text xml:space="preserve" text-anchor="middle" x="1590.9" y="-193.2" font-family="Times,serif" font-size="14.00">use</text>
</g>
<!-- ChordGenericStandardPlaneComputer -->
<g id="node28" class="node">
<title>ChordGenericStandardPlaneComputer</title>
<g id="a_node28"><a xlink:href="classDGtal_1_1ChordGenericStandardPlaneComputer.html" target="_top" xlink:title="ChordGenericStandardPlaneComputer">
<ellipse fill="white" stroke="white" cx="1326" cy="-154" rx="153.71" ry="18"/>
<text xml:space="preserve" text-anchor="middle" x="1326" y="-148.95" font-family="Times,serif" font-size="14.00">ChordGenericStandardPlaneComputer</text>
</a>
</g>
</g>
<!-- ChordGenericStandardPlaneComputer&#45;&gt;CAdditivePrimitiveComputer -->
<g id="edge37" class="edge">
<title>ChordGenericStandardPlaneComputer&#45;&gt;CAdditivePrimitiveComputer</title>
<path fill="none" stroke="black" d="M1312.53,-172.37C1308.92,-177.77 1305.38,-183.9 1303,-190 1287.73,-229.18 1282.18,-277.89 1280.16,-308.22"/>
<polygon fill="black" stroke="black" points="1276.67,-307.94 1279.59,-318.13 1283.65,-308.34 1276.67,-307.94"/>
</g>
<!-- ChordGenericStandardPlaneComputer&#45;&gt;ChordNaivePlaneComputer -->
<g id="edge38" class="edge">
<title>ChordGenericStandardPlaneComputer&#45;&gt;ChordNaivePlaneComputer</title>
<path fill="none" stroke="black" stroke-dasharray="5,2" d="M1359.38,-171.88C1386.42,-185.56 1424.7,-204.93 1454.03,-219.76"/>
<polygon fill="black" stroke="black" points="1452.14,-222.73 1462.65,-224.12 1455.3,-216.49 1452.14,-222.73"/>
<text xml:space="preserve" text-anchor="middle" x="1435.82" y="-193.2" font-family="Times,serif" font-size="14.00">use</text>
</g>
<!-- TrueDigitalSurfaceLocalEstimator -->
<g id="node29" class="node">
<title>TrueDigitalSurfaceLocalEstimator</title>
<g id="a_node29"><a xlink:href="classDGtal_1_1TrueDigitalSurfaceLocalEstimator.html" target="_top" xlink:title="TrueDigitalSurfaceLocalEstimator">
<ellipse fill="white" stroke="white" cx="710" cy="-154" rx="139.38" ry="18"/>
<text xml:space="preserve" text-anchor="middle" x="710" y="-148.95" font-family="Times,serif" font-size="14.00">TrueDigitalSurfaceLocalEstimator</text>
</a>
</g>
</g>
<!-- TrueDigitalSurfaceLocalEstimator&#45;&gt;CDigitalSurfaceLocalEstimator -->
<g id="edge39" class="edge">
<title>TrueDigitalSurfaceLocalEstimator&#45;&gt;CDigitalSurfaceLocalEstimator</title>
<path fill="none" stroke="black" d="M738.05,-171.96C792.38,-204.81 912,-277.14 973.25,-314.17"/>
<polygon fill="black" stroke="black" points="971.25,-317.06 981.62,-319.23 974.87,-311.07 971.25,-317.06"/>
</g>
<!-- VCMDigitalSurfaceLocalEstimator -->
<g id="node30" class="node">
<title>VCMDigitalSurfaceLocalEstimator</title>
<g id="a_node30"><a xlink:href="classDGtal_1_1VCMDigitalSurfaceLocalEstimator.html" target="_top" xlink:title="VCMDigitalSurfaceLocalEstimator">
<ellipse fill="white" stroke="white" cx="1011" cy="-154" rx="143.48" ry="18"/>
<text xml:space="preserve" text-anchor="middle" x="1011" y="-148.95" font-family="Times,serif" font-size="14.00">VCMDigitalSurfaceLocalEstimator</text>
</a>
</g>
</g>
<!-- VCMDigitalSurfaceLocalEstimator&#45;&gt;CDigitalSurfaceLocalEstimator -->
<g id="edge40" class="edge">
<title>VCMDigitalSurfaceLocalEstimator&#45;&gt;CDigitalSurfaceLocalEstimator</title>
<path fill="none" stroke="black" d="M1011,-172.45C1011,-203.84 1011,-270.11 1011,-308.28"/>
<polygon fill="black" stroke="black" points="1007.5,-308.09 1011,-318.09 1014.5,-308.09 1007.5,-308.09"/>
</g>
<!-- ExactPredicateLpSeparableMetric -->
<g id="node31" class="node">
<title>ExactPredicateLpSeparableMetric</title>
<g id="a_node31"><a xlink:href="classDGtal_1_1ExactPredicateLpSeparableMetric.html" target="_top" xlink:title="ExactPredicateLpSeparableMetric">
<ellipse fill="white" stroke="white" cx="1562" cy="-338" rx="137.85" ry="18"/>
<text xml:space="preserve" text-anchor="middle" x="1562" y="-332.95" font-family="Times,serif" font-size="14.00">ExactPredicateLpSeparableMetric</text>
</a>
</g>
</g>
<!-- ExactPredicateLpSeparableMetric&#45;&gt;CSeparableMetric -->
<g id="edge27" class="edge">
<title>ExactPredicateLpSeparableMetric&#45;&gt;CSeparableMetric</title>
<path fill="none" stroke="black" d="M1563.75,-356.4C1567.03,-380.55 1576.19,-424.32 1601,-451.5 1616.18,-468.13 1667.18,-482.46 1711.19,-492.17"/>
<polygon fill="black" stroke="black" points="1710.21,-495.54 1720.72,-494.22 1711.68,-488.7 1710.21,-495.54"/>
</g>
<!-- ExactPredicateLpPowerSeparableMetric -->
<g id="node32" class="node">
<title>ExactPredicateLpPowerSeparableMetric</title>
<g id="a_node32"><a xlink:href="classDGtal_1_1ExactPredicateLpPowerSeparableMetric.html" target="_top" xlink:title="ExactPredicateLpPowerSeparableMetric">
<ellipse fill="white" stroke="white" cx="2185" cy="-338" rx="161.39" ry="18"/>
<text xml:space="preserve" text-anchor="middle" x="2185" y="-332.95" font-family="Times,serif" font-size="14.00">ExactPredicateLpPowerSeparableMetric</text>
</a>
</g>
</g>
<!-- ExactPredicateLpPowerSeparableMetric&#45;&gt;CPowerSeparableMetric -->
<g id="edge26" class="edge">
<title>ExactPredicateLpPowerSeparableMetric&#45;&gt;CPowerSeparableMetric</title>
<path fill="none" stroke="black" d="M2092.89,-353.18C2067.66,-356.9 2040.3,-360.76 2015,-364 1937.84,-373.88 1916.1,-362.69 1841,-383 1816.72,-389.57 1790.98,-400.75 1770.41,-410.83"/>
<polygon fill="black" stroke="black" points="1768.88,-407.68 1761.51,-415.29 1772.01,-413.94 1768.88,-407.68"/>
</g>
<!-- InexactPredicateLpSeparableMetric -->
<g id="node33" class="node">
<title>InexactPredicateLpSeparableMetric</title>
<g id="a_node33"><a xlink:href="classDGtal_1_1InexactPredicateLpSeparableMetric.html" target="_top" xlink:title="InexactPredicateLpSeparableMetric">
<ellipse fill="white" stroke="white" cx="1862" cy="-338" rx="143.99" ry="18"/>
<text xml:space="preserve" text-anchor="middle" x="1862" y="-332.95" font-family="Times,serif" font-size="14.00">InexactPredicateLpSeparableMetric</text>
</a>
</g>
</g>
<!-- InexactPredicateLpSeparableMetric&#45;&gt;CSeparableMetric -->
<g id="edge28" class="edge">
<title>InexactPredicateLpSeparableMetric&#45;&gt;CSeparableMetric</title>
<path fill="none" stroke="black" d="M1777.6,-352.99C1708.48,-364.65 1621.64,-379.84 1619,-383 1599.48,-406.37 1601.18,-426.82 1619,-451.5 1630.62,-467.59 1674.26,-481.55 1713.46,-491.25"/>
<polygon fill="black" stroke="black" points="1712.62,-494.65 1723.16,-493.58 1714.26,-487.84 1712.62,-494.65"/>
</g>
</g>
</svg>

<g id="navigator" transform="translate(0 0)" fill="#404254">
  <rect fill="#f2f5e9" fill-opacity="0.5" stroke="#606060" stroke-width=".5" x="0" y="0" width="60" height="60"/>
  <use id="zoomplus" xlink:href="#zoomPlus" x="17" y="9" onmousedown="handleZoom(evt,'in')"/>
  <use id="zoomminus" xlink:href="#zoomMin" x="42" y="9" onmousedown="handleZoom(evt,'out')"/>
  <use id="reset" xlink:href="#resetDef" x="30" y="36" onmousedown="handleReset()"/>
   <use id="arrowup" xlink:href="#arrowUp" x="0" y="0" onmousedown="handlePan(0,-1)"/>
  <use id="arrowright" xlink:href="#arrowRight" x="0" y="0" onmousedown="handlePan(1,0)"/>
  <use id="arrowdown" xlink:href="#arrowDown" x="0" y="0" onmousedown="handlePan(0,1)"/>
  <use id="arrowleft" xlink:href="#arrowLeft" x="0" y="0" onmousedown="handlePan(-1,0)"/>
</g>
<svg viewBox="0 0 15 15" width="100%" height="30px" preserveAspectRatio="xMaxYMin meet">
 <g id="arrow_out" transform="scale(0.3 0.3)">
  <a xlink:href="dot_inline_dotgraph_8_org.svg" target="_base">
   <rect id="button" ry="5" rx="5" y="6" x="6" height="38" width="38"
        fill="#f2f5e9" fill-opacity="0.5" stroke="#606060" stroke-width="1.0"/>
   <path id="arrow"
     d="M 11.500037,31.436501 C 11.940474,20.09759 22.043105,11.32322 32.158766,21.979434 L 37.068811,17.246167 C 37.068811,17.246167 37.088388,32 37.088388,32 L 22.160133,31.978069 C 22.160133,31.978069 26.997745,27.140456 26.997745,27.140456 C 18.528582,18.264221 13.291696,25.230495 11.500037,31.436501 z"
     style="fill:#404040;"/>
  </a>
 </g>
</svg>

<style type='text/css'>
<![CDATA[
[data-mouse-over-selected='false'] { opacity: 0.7; }
[data-mouse-over-selected='true']  { opacity: 1.0; }
]]>
</style>
<script type="application/ecmascript"><![CDATA[
document.addEventListener('DOMContentLoaded', (event) => {
  highlightEdges();
  highlightAdjacentNodes();
});
]]></script>
</svg>
