<?xml version="1.0" encoding="UTF-8" standalone="no"?>
<!DOCTYPE svg PUBLIC "-//W3C//DTD SVG 1.1//EN"
 "http://www.w3.org/Graphics/SVG/1.1/DTD/svg11.dtd">
<!-- Generated by graphviz version 14.1.0 (20251206.1807)
 -->
<!-- Title: Graphical Class Hierarchy Pages: 1 -->
<svg width="363pt" height="230pt"
 viewBox="0.00 0.00 363.00 230.00" xmlns="http://www.w3.org/2000/svg" xmlns:xlink="http://www.w3.org/1999/xlink">
<g id="graph0" class="graph" transform="scale(1 1) rotate(0) translate(4 225.75)">
<title>Graphical Class Hierarchy</title>
<!-- Node0 -->
<g id="Node000000" class="node">
<title>Node0</title>
<g id="a_Node000000"><a xlink:href="structDGtal_1_1ConvexHullCommonKernel.html" target="_top" xlink:title=" ">
<polygon fill="white" stroke="#666666" points="166,-131.75 0,-131.75 0,-90 166,-90 166,-131.75"/>
<text xml:space="preserve" text-anchor="start" x="8" y="-118.25" font-family="FreeSans" font-size="10.00">DGtal::ConvexHullCommonKernel</text>
<text xml:space="preserve" text-anchor="start" x="8" y="-107" font-family="FreeSans" font-size="10.00">&lt; dim+1, TCoordinateInteger,</text>
<text xml:space="preserve" text-anchor="middle" x="83" y="-95.75" font-family="FreeSans" font-size="10.00"> TInternalInteger &gt;</text>
</a>
</g>
</g>
<!-- Node1 -->
<g id="Node000001" class="node">
<title>Node1</title>
<g id="a_Node000001"><a xlink:href="structDGtal_1_1DelaunayIntegralKernel.html" target="_top" xlink:title=" ">
<polygon fill="white" stroke="#666666" points="352.62,-221.75 203.88,-221.75 203.88,-180 352.62,-180 352.62,-221.75"/>
<text xml:space="preserve" text-anchor="start" x="211.88" y="-208.25" font-family="FreeSans" font-size="10.00">DGtal::DelaunayIntegralKernel</text>
<text xml:space="preserve" text-anchor="start" x="211.88" y="-197" font-family="FreeSans" font-size="10.00">&lt; dim, TCoordinateInteger,</text>
<text xml:space="preserve" text-anchor="middle" x="278.25" y="-185.75" font-family="FreeSans" font-size="10.00"> TInternalInteger &gt;</text>
</a>
</g>
</g>
<!-- Node0&#45;&gt;Node1 -->
<g id="edge241_Node000000_Node000001" class="edge">
<title>Node0&#45;&gt;Node1</title>
<g id="a_edge241_Node000000_Node000001"><a xlink:title=" ">
<path fill="none" stroke="#63b8ff" d="M133.63,-137.38C154.53,-148.2 179.24,-160.58 202,-170.88 208.53,-173.83 215.45,-176.8 222.34,-179.66"/>
<polygon fill="#63b8ff" stroke="#63b8ff" points="135.53,-134.42 125.05,-132.9 132.29,-140.63 135.53,-134.42"/>
</a>
</g>
</g>
<!-- Node2 -->
<g id="Node000002" class="node">
<title>Node2</title>
<g id="a_Node000002"><a xlink:href="structDGtal_1_1DelaunayIntegralKernel.html" target="_top" xlink:title=" ">
<polygon fill="white" stroke="#666666" points="352.62,-161.75 203.88,-161.75 203.88,-120 352.62,-120 352.62,-161.75"/>
<text xml:space="preserve" text-anchor="start" x="211.88" y="-148.25" font-family="FreeSans" font-size="10.00">DGtal::DelaunayIntegralKernel</text>
<text xml:space="preserve" text-anchor="start" x="211.88" y="-137" font-family="FreeSans" font-size="10.00">&lt; dim&#45;1, TCoordinateInteger,</text>
<text xml:space="preserve" text-anchor="middle" x="278.25" y="-125.75" font-family="FreeSans" font-size="10.00"> TInternalInteger &gt;</text>
</a>
</g>
</g>
<!-- Node0&#45;&gt;Node2 -->
<g id="edge242_Node000000_Node000002" class="edge">
<title>Node0&#45;&gt;Node2</title>
<g id="a_edge242_Node000000_Node000002"><a xlink:title=" ">
<path fill="none" stroke="#63b8ff" d="M177.37,-125.37C186.19,-126.74 195.05,-128.11 203.65,-129.45"/>
<polygon fill="#63b8ff" stroke="#63b8ff" points="178.15,-121.95 167.73,-123.87 177.08,-128.87 178.15,-121.95"/>
</a>
</g>
</g>
<!-- Node3 -->
<g id="Node000003" class="node">
<title>Node3</title>
<g id="a_Node000003"><a xlink:href="structDGtal_1_1DelaunayRationalKernel.html" target="_top" xlink:title=" ">
<polygon fill="white" stroke="#666666" points="354.5,-101.75 202,-101.75 202,-60 354.5,-60 354.5,-101.75"/>
<text xml:space="preserve" text-anchor="start" x="210" y="-88.25" font-family="FreeSans" font-size="10.00">DGtal::DelaunayRationalKernel</text>
<text xml:space="preserve" text-anchor="start" x="210" y="-77" font-family="FreeSans" font-size="10.00">&lt; dim, TCoordinateInteger,</text>
<text xml:space="preserve" text-anchor="middle" x="278.25" y="-65.75" font-family="FreeSans" font-size="10.00"> TInternalInteger &gt;</text>
</a>
</g>
</g>
<!-- Node0&#45;&gt;Node3 -->
<g id="edge243_Node000000_Node000003" class="edge">
<title>Node0&#45;&gt;Node3</title>
<g id="a_edge243_Node000000_Node000003"><a xlink:title=" ">
<path fill="none" stroke="#63b8ff" d="M177.55,-96.35C185.59,-95.1 193.66,-93.85 201.53,-92.63"/>
<polygon fill="#63b8ff" stroke="#63b8ff" points="177.08,-92.88 167.73,-97.88 178.15,-99.8 177.08,-92.88"/>
</a>
</g>
</g>
<!-- Node4 -->
<g id="Node000004" class="node">
<title>Node4</title>
<g id="a_Node000004"><a xlink:href="structDGtal_1_1DelaunayRationalKernel.html" target="_top" xlink:title=" ">
<polygon fill="white" stroke="#666666" points="354.5,-41.75 202,-41.75 202,0 354.5,0 354.5,-41.75"/>
<text xml:space="preserve" text-anchor="start" x="210" y="-28.25" font-family="FreeSans" font-size="10.00">DGtal::DelaunayRationalKernel</text>
<text xml:space="preserve" text-anchor="start" x="210" y="-17" font-family="FreeSans" font-size="10.00">&lt; dim&#45;1, TCoordinateInteger,</text>
<text xml:space="preserve" text-anchor="middle" x="278.25" y="-5.75" font-family="FreeSans" font-size="10.00"> TInternalInteger &gt;</text>
</a>
</g>
</g>
<!-- Node0&#45;&gt;Node4 -->
<g id="edge244_Node000000_Node000004" class="edge">
<title>Node0&#45;&gt;Node4</title>
<g id="a_edge244_Node000000_Node000004"><a xlink:title=" ">
<path fill="none" stroke="#63b8ff" d="M133.63,-84.37C154.53,-73.55 179.24,-61.17 202,-50.88 208.53,-47.92 215.45,-44.95 222.34,-42.09"/>
<polygon fill="#63b8ff" stroke="#63b8ff" points="132.29,-81.12 125.05,-88.85 135.53,-87.33 132.29,-81.12"/>
</a>
</g>
</g>
</g>
</svg>
