<?xml version="1.0" encoding="UTF-8" standalone="no"?>
<!DOCTYPE svg PUBLIC "-//W3C//DTD SVG 1.1//EN"
 "http://www.w3.org/Graphics/SVG/1.1/DTD/svg11.dtd">
<!-- Generated by graphviz version 14.1.0 (20251206.1807)
 -->
<!-- Title: Graphical Class Hierarchy Pages: 1 -->
<svg width="276pt" height="175pt"
 viewBox="0.00 0.00 276.00 175.00" xmlns="http://www.w3.org/2000/svg" xmlns:xlink="http://www.w3.org/1999/xlink">
<g id="graph0" class="graph" transform="scale(1 1) rotate(0) translate(4 171.25)">
<title>Graphical Class Hierarchy</title>
<!-- Node0 -->
<g id="Node000000" class="node">
<title>Node0</title>
<g id="a_Node000000"><a xlink:title=" ">
<polygon fill="#e0e0e0" stroke="#999999" points="77.5,-93.25 0,-93.25 0,-74 77.5,-74 77.5,-93.25"/>
<text xml:space="preserve" text-anchor="middle" x="38.75" y="-79.75" font-family="FreeSans" font-size="10.00">std::exception</text>
</a>
</g>
</g>
<!-- Node1 -->
<g id="Node000001" class="node">
<title>Node1</title>
<g id="a_Node000001"><a xlink:href="classDGtal_1_1ConnectivityException.html" target="_top" xlink:title=" ">
<polygon fill="white" stroke="#666666" points="263.75,-167.25 118,-167.25 118,-148 263.75,-148 263.75,-167.25"/>
<text xml:space="preserve" text-anchor="middle" x="190.88" y="-153.75" font-family="FreeSans" font-size="10.00">DGtal::ConnectivityException</text>
</a>
</g>
</g>
<!-- Node0&#45;&gt;Node1 -->
<g id="edge374_Node000000_Node000001" class="edge">
<title>Node0&#45;&gt;Node1</title>
<g id="a_edge374_Node000000_Node000001"><a xlink:title=" ">
<path fill="none" stroke="#63b8ff" d="M58.1,-101.07C72.21,-113.56 92.74,-129.84 113.5,-139.62 120.15,-142.76 127.4,-145.38 134.69,-147.55"/>
<polygon fill="#63b8ff" stroke="#63b8ff" points="60.68,-98.68 50.93,-94.53 55.96,-103.86 60.68,-98.68"/>
</a>
</g>
</g>
<!-- Node2 -->
<g id="Node000002" class="node">
<title>Node2</title>
<g id="a_Node000002"><a xlink:href="classDGtal_1_1IOException.html" target="_top" xlink:title=" ">
<polygon fill="white" stroke="#666666" points="241.62,-130.25 140.12,-130.25 140.12,-111 241.62,-111 241.62,-130.25"/>
<text xml:space="preserve" text-anchor="middle" x="190.88" y="-116.75" font-family="FreeSans" font-size="10.00">DGtal::IOException</text>
</a>
</g>
</g>
<!-- Node0&#45;&gt;Node2 -->
<g id="edge375_Node000000_Node000002" class="edge">
<title>Node0&#45;&gt;Node2</title>
<g id="a_edge375_Node000000_Node000002"><a xlink:title=" ">
<path fill="none" stroke="#63b8ff" d="M88.96,-96.45C97.15,-98.54 105.56,-100.67 113.5,-102.62 124.08,-105.23 135.51,-107.97 146.22,-110.5"/>
<polygon fill="#63b8ff" stroke="#63b8ff" points="90.01,-93.11 79.46,-94.01 88.27,-99.89 90.01,-93.11"/>
</a>
</g>
</g>
<!-- Node3 -->
<g id="Node000003" class="node">
<title>Node3</title>
<g id="a_Node000003"><a xlink:href="classDGtal_1_1InfiniteNumberException.html" target="_top" xlink:title=" ">
<polygon fill="white" stroke="#666666" points="268.25,-93.25 113.5,-93.25 113.5,-74 268.25,-74 268.25,-93.25"/>
<text xml:space="preserve" text-anchor="middle" x="190.88" y="-79.75" font-family="FreeSans" font-size="10.00">DGtal::InfiniteNumberException</text>
</a>
</g>
</g>
<!-- Node0&#45;&gt;Node3 -->
<g id="edge376_Node000000_Node000003" class="edge">
<title>Node0&#45;&gt;Node3</title>
<g id="a_edge376_Node000000_Node000003"><a xlink:title=" ">
<path fill="none" stroke="#63b8ff" d="M89,-83.62C96.73,-83.62 104.87,-83.62 113.05,-83.62"/>
<polygon fill="#63b8ff" stroke="#63b8ff" points="89.15,-80.13 79.15,-83.63 89.15,-87.13 89.15,-80.13"/>
</a>
</g>
</g>
<!-- Node4 -->
<g id="Node000004" class="node">
<title>Node4</title>
<g id="a_Node000004"><a xlink:href="classDGtal_1_1InputException.html" target="_top" xlink:title=" ">
<polygon fill="white" stroke="#666666" points="247.25,-56.25 134.5,-56.25 134.5,-37 247.25,-37 247.25,-56.25"/>
<text xml:space="preserve" text-anchor="middle" x="190.88" y="-42.75" font-family="FreeSans" font-size="10.00">DGtal::InputException</text>
</a>
</g>
</g>
<!-- Node0&#45;&gt;Node4 -->
<g id="edge377_Node000000_Node000004" class="edge">
<title>Node0&#45;&gt;Node4</title>
<g id="a_edge377_Node000000_Node000004"><a xlink:title=" ">
<path fill="none" stroke="#63b8ff" d="M88.96,-70.8C97.15,-68.71 105.56,-66.58 113.5,-64.62 124.08,-62.02 135.51,-59.28 146.22,-56.75"/>
<polygon fill="#63b8ff" stroke="#63b8ff" points="88.27,-67.36 79.46,-73.24 90.01,-74.14 88.27,-67.36"/>
</a>
</g>
</g>
<!-- Node5 -->
<g id="Node000005" class="node">
<title>Node5</title>
<g id="a_Node000005"><a xlink:href="classDGtal_1_1MemoryException.html" target="_top" xlink:title=" ">
<polygon fill="white" stroke="#666666" points="254,-19.25 127.75,-19.25 127.75,0 254,0 254,-19.25"/>
<text xml:space="preserve" text-anchor="middle" x="190.88" y="-5.75" font-family="FreeSans" font-size="10.00">DGtal::MemoryException</text>
</a>
</g>
</g>
<!-- Node0&#45;&gt;Node5 -->
<g id="edge378_Node000000_Node000005" class="edge">
<title>Node0&#45;&gt;Node5</title>
<g id="a_edge378_Node000000_Node000005"><a xlink:title=" ">
<path fill="none" stroke="#63b8ff" d="M58.1,-66.18C72.21,-53.69 92.74,-37.41 113.5,-27.62 120.15,-24.49 127.4,-21.87 134.69,-19.7"/>
<polygon fill="#63b8ff" stroke="#63b8ff" points="55.96,-63.39 50.93,-72.72 60.68,-68.57 55.96,-63.39"/>
</a>
</g>
</g>
</g>
</svg>
