<?xml version="1.0" encoding="UTF-8" standalone="no"?>
<!DOCTYPE svg PUBLIC "-//W3C//DTD SVG 1.1//EN"
 "http://www.w3.org/Graphics/SVG/1.1/DTD/svg11.dtd">
<!-- Generated by graphviz version 14.1.0 (20251206.1807)
 -->
<!-- Title: Graphical Class Hierarchy Pages: 1 -->
<svg width="317pt" height="211pt"
 viewBox="0.00 0.00 317.00 211.00" xmlns="http://www.w3.org/2000/svg" xmlns:xlink="http://www.w3.org/1999/xlink">
<g id="graph0" class="graph" transform="scale(1 1) rotate(0) translate(4 207.25)">
<title>Graphical Class Hierarchy</title>
<!-- Node0 -->
<g id="Node000000" class="node">
<title>Node0</title>
<g id="a_Node000000"><a xlink:href="structDGtal_1_1NumberTraitsImpl.html" target="_top" xlink:title="Aim: The traits class for all models of Cinteger (implementation).">
<polygon fill="white" stroke="#666666" points="125.5,-116.88 0,-116.88 0,-86.38 125.5,-86.38 125.5,-116.88"/>
<text xml:space="preserve" text-anchor="start" x="8" y="-103.38" font-family="FreeSans" font-size="10.00">DGtal::NumberTraitsImpl</text>
<text xml:space="preserve" text-anchor="middle" x="62.75" y="-92.12" font-family="FreeSans" font-size="10.00">&lt; T, Enable &gt;</text>
</a>
</g>
</g>
<!-- Node1 -->
<g id="Node000001" class="node">
<title>Node1</title>
<g id="a_Node000001"><a xlink:href="structDGtal_1_1NumberTraits.html" target="_top" xlink:title=" ">
<polygon fill="white" stroke="#666666" points="307.62,-203.25 162.62,-203.25 162.62,-184 307.62,-184 307.62,-203.25"/>
<text xml:space="preserve" text-anchor="middle" x="235.12" y="-189.75" font-family="FreeSans" font-size="10.00">DGtal::ParamType&lt; Integer &gt;</text>
</a>
</g>
</g>
<!-- Node0&#45;&gt;Node1 -->
<g id="edge317_Node000000_Node000001" class="edge">
<title>Node0&#45;&gt;Node1</title>
<g id="a_edge317_Node000000_Node000001"><a xlink:title=" ">
<path fill="none" stroke="#63b8ff" d="M88.94,-124.76C107.69,-140.86 134.6,-161.68 161.5,-174.62 168.9,-178.19 177.05,-181.15 185.14,-183.58"/>
<polygon fill="#63b8ff" stroke="#63b8ff" points="91.39,-122.25 81.56,-118.29 86.77,-127.52 91.39,-122.25"/>
</a>
</g>
</g>
<!-- Node2 -->
<g id="Node000002" class="node">
<title>Node2</title>
<g id="a_Node000002"><a xlink:href="structDGtal_1_1NumberTraits.html" target="_top" xlink:title=" ">
<polygon fill="white" stroke="#666666" points="308.75,-165.88 161.5,-165.88 161.5,-135.38 308.75,-135.38 308.75,-165.88"/>
<text xml:space="preserve" text-anchor="start" x="169.5" y="-152.38" font-family="FreeSans" font-size="10.00">DGtal::ParamType&lt; Unsigned</text>
<text xml:space="preserve" text-anchor="middle" x="235.12" y="-141.12" font-family="FreeSans" font-size="10.00">Integer &gt;</text>
</a>
</g>
</g>
<!-- Node0&#45;&gt;Node2 -->
<g id="edge318_Node000000_Node000002" class="edge">
<title>Node0&#45;&gt;Node2</title>
<g id="a_edge318_Node000000_Node000002"><a xlink:title=" ">
<path fill="none" stroke="#63b8ff" d="M128.89,-120.36C145.56,-125.15 163.31,-130.26 179.39,-134.88"/>
<polygon fill="#63b8ff" stroke="#63b8ff" points="130.16,-117.08 119.58,-117.68 128.22,-123.81 130.16,-117.08"/>
</a>
</g>
</g>
<!-- Node3 -->
<g id="Node000003" class="node">
<title>Node3</title>
<g id="a_Node000003"><a xlink:href="structDGtal_1_1NumberTraits.html" target="_top" xlink:title=" ">
<polygon fill="white" stroke="#666666" points="296,-116.88 174.25,-116.88 174.25,-86.38 296,-86.38 296,-116.88"/>
<text xml:space="preserve" text-anchor="start" x="182.25" y="-103.38" font-family="FreeSans" font-size="10.00">DGtal::UnsignedVersion</text>
<text xml:space="preserve" text-anchor="middle" x="235.12" y="-92.12" font-family="FreeSans" font-size="10.00">&lt; Integer &gt;</text>
</a>
</g>
</g>
<!-- Node0&#45;&gt;Node3 -->
<g id="edge319_Node000000_Node000003" class="edge">
<title>Node0&#45;&gt;Node3</title>
<g id="a_edge319_Node000000_Node000003"><a xlink:title=" ">
<path fill="none" stroke="#63b8ff" d="M136.94,-101.62C149.27,-101.62 161.94,-101.62 173.89,-101.62"/>
<polygon fill="#63b8ff" stroke="#63b8ff" points="137.25,-98.13 127.25,-101.63 137.25,-105.13 137.25,-98.13"/>
</a>
</g>
</g>
<!-- Node4 -->
<g id="Node000004" class="node">
<title>Node4</title>
<g id="a_Node000004"><a xlink:href="structDGtal_1_1NumberTraits.html" target="_top" xlink:title=" ">
<polygon fill="white" stroke="#666666" points="296,-67.88 174.25,-67.88 174.25,-37.38 296,-37.38 296,-67.88"/>
<text xml:space="preserve" text-anchor="start" x="182.25" y="-54.38" font-family="FreeSans" font-size="10.00">DGtal::UnsignedVersion</text>
<text xml:space="preserve" text-anchor="middle" x="235.12" y="-43.12" font-family="FreeSans" font-size="10.00">&lt; Component &gt;</text>
</a>
</g>
</g>
<!-- Node0&#45;&gt;Node4 -->
<g id="edge320_Node000000_Node000004" class="edge">
<title>Node0&#45;&gt;Node4</title>
<g id="a_edge320_Node000000_Node000004"><a xlink:title=" ">
<path fill="none" stroke="#63b8ff" d="M128.89,-82.89C145.56,-78.1 163.31,-72.99 179.39,-68.37"/>
<polygon fill="#63b8ff" stroke="#63b8ff" points="128.22,-79.44 119.58,-85.57 130.16,-86.17 128.22,-79.44"/>
</a>
</g>
</g>
<!-- Node5 -->
<g id="Node000005" class="node">
<title>Node5</title>
<g id="a_Node000005"><a xlink:href="structDGtal_1_1NumberTraits.html" target="_top" xlink:title=" ">
<polygon fill="white" stroke="#666666" points="306.12,-19.25 164.12,-19.25 164.12,0 306.12,0 306.12,-19.25"/>
<text xml:space="preserve" text-anchor="middle" x="235.12" y="-5.75" font-family="FreeSans" font-size="10.00">DGtal::IsBounded&lt; Integer &gt;</text>
</a>
</g>
</g>
<!-- Node0&#45;&gt;Node5 -->
<g id="edge321_Node000000_Node000005" class="edge">
<title>Node0&#45;&gt;Node5</title>
<g id="a_edge321_Node000000_Node000005"><a xlink:title=" ">
<path fill="none" stroke="#63b8ff" d="M88.94,-78.49C107.69,-62.39 134.6,-41.57 161.5,-28.62 168.9,-25.06 177.05,-22.1 185.14,-19.67"/>
<polygon fill="#63b8ff" stroke="#63b8ff" points="86.77,-75.73 81.56,-84.96 91.39,-81 86.77,-75.73"/>
</a>
</g>
</g>
</g>
</svg>
