<?xml version="1.0" encoding="UTF-8" standalone="no"?>
<!DOCTYPE svg PUBLIC "-//W3C//DTD SVG 1.1//EN"
 "http://www.w3.org/Graphics/SVG/1.1/DTD/svg11.dtd">
<!-- Generated by graphviz version 14.1.0 (20251206.1807)
 -->
<!-- Title: Graphical Class Hierarchy Pages: 1 -->
<svg width="298pt" height="396pt"
 viewBox="0.00 0.00 298.00 396.00" xmlns="http://www.w3.org/2000/svg" xmlns:xlink="http://www.w3.org/1999/xlink">
<g id="graph0" class="graph" transform="scale(1 1) rotate(0) translate(4 392.25)">
<title>Graphical Class Hierarchy</title>
<!-- Node0 -->
<g id="Node000000" class="node">
<title>Node0</title>
<g id="a_Node000000"><a xlink:href="classDGtal_1_1StarShaped2D.html" target="_top" xlink:title=" ">
<polygon fill="white" stroke="#666666" points="111.25,-202.88 0,-202.88 0,-172.38 111.25,-172.38 111.25,-202.88"/>
<text xml:space="preserve" text-anchor="start" x="8" y="-189.38" font-family="FreeSans" font-size="10.00">DGtal::StarShaped2D</text>
<text xml:space="preserve" text-anchor="middle" x="55.62" y="-178.12" font-family="FreeSans" font-size="10.00">&lt; TSpace &gt;</text>
</a>
</g>
</g>
<!-- Node1 -->
<g id="Node000001" class="node">
<title>Node1</title>
<g id="a_Node000001"><a xlink:href="classDGtal_1_1Astroid2D.html" target="_top" xlink:title=" ">
<polygon fill="white" stroke="#666666" points="287,-388.25 150.25,-388.25 150.25,-369 287,-369 287,-388.25"/>
<text xml:space="preserve" text-anchor="middle" x="218.62" y="-374.75" font-family="FreeSans" font-size="10.00">DGtal::Astroid2D&lt; Space &gt;</text>
</a>
</g>
</g>
<!-- Node0&#45;&gt;Node1 -->
<g id="edge331_Node000000_Node000001" class="edge">
<title>Node0&#45;&gt;Node1</title>
<g id="a_edge331_Node000000_Node000001"><a xlink:title=" ">
<path fill="none" stroke="#63b8ff" d="M63.2,-214.33C74.04,-252.65 99.4,-322.77 147.25,-360.62 151.3,-363.83 155.87,-366.48 160.67,-368.65"/>
<polygon fill="#63b8ff" stroke="#63b8ff" points="66.6,-213.52 60.63,-204.77 59.84,-215.34 66.6,-213.52"/>
</a>
</g>
</g>
<!-- Node2 -->
<g id="Node000002" class="node">
<title>Node2</title>
<g id="a_Node000002"><a xlink:href="classDGtal_1_1Flower2D.html" target="_top" xlink:title=" ">
<polygon fill="white" stroke="#666666" points="286.25,-351.25 151,-351.25 151,-332 286.25,-332 286.25,-351.25"/>
<text xml:space="preserve" text-anchor="middle" x="218.62" y="-337.75" font-family="FreeSans" font-size="10.00">DGtal::Flower2D&lt; Space &gt;</text>
</a>
</g>
</g>
<!-- Node0&#45;&gt;Node2 -->
<g id="edge332_Node000000_Node000002" class="edge">
<title>Node0&#45;&gt;Node2</title>
<g id="a_edge332_Node000000_Node000002"><a xlink:title=" ">
<path fill="none" stroke="#63b8ff" d="M67.2,-213.57C81.04,-244.25 108.21,-294.66 147.25,-322.62 152.29,-326.24 157.98,-329.16 163.89,-331.53"/>
<polygon fill="#63b8ff" stroke="#63b8ff" points="70.51,-212.4 63.31,-204.63 64.09,-215.2 70.51,-212.4"/>
</a>
</g>
</g>
<!-- Node3 -->
<g id="Node000003" class="node">
<title>Node3</title>
<g id="a_Node000003"><a xlink:href="classDGtal_1_1Lemniscate2D.html" target="_top" xlink:title=" ">
<polygon fill="white" stroke="#666666" points="273.88,-313.88 163.38,-313.88 163.38,-283.38 273.88,-283.38 273.88,-313.88"/>
<text xml:space="preserve" text-anchor="start" x="171.38" y="-300.38" font-family="FreeSans" font-size="10.00">DGtal::Lemniscate2D</text>
<text xml:space="preserve" text-anchor="middle" x="218.62" y="-289.12" font-family="FreeSans" font-size="10.00">&lt; Space &gt;</text>
</a>
</g>
</g>
<!-- Node0&#45;&gt;Node3 -->
<g id="edge333_Node000000_Node000003" class="edge">
<title>Node0&#45;&gt;Node3</title>
<g id="a_edge333_Node000000_Node000003"><a xlink:title=" ">
<path fill="none" stroke="#63b8ff" d="M76.93,-211.81C94.01,-230.85 119.96,-256.88 147.25,-273.62 153,-277.15 159.31,-280.28 165.73,-283.02"/>
<polygon fill="#63b8ff" stroke="#63b8ff" points="79.73,-209.7 70.51,-204.5 74.47,-214.32 79.73,-209.7"/>
</a>
</g>
</g>
<!-- Node4 -->
<g id="Node000004" class="node">
<title>Node4</title>
<g id="a_Node000004"><a xlink:href="classDGtal_1_1AccFlower2D.html" target="_top" xlink:title="Aim: Model of the concept StarShaped represents any accelerated flower in the plane.">
<polygon fill="white" stroke="#666666" points="272,-264.88 165.25,-264.88 165.25,-234.38 272,-234.38 272,-264.88"/>
<text xml:space="preserve" text-anchor="start" x="173.25" y="-251.38" font-family="FreeSans" font-size="10.00">DGtal::AccFlower2D</text>
<text xml:space="preserve" text-anchor="middle" x="218.62" y="-240.12" font-family="FreeSans" font-size="10.00">&lt; TSpace &gt;</text>
</a>
</g>
</g>
<!-- Node0&#45;&gt;Node4 -->
<g id="edge334_Node000000_Node000004" class="edge">
<title>Node0&#45;&gt;Node4</title>
<g id="a_edge334_Node000000_Node000004"><a xlink:title=" ">
<path fill="none" stroke="#63b8ff" d="M103.02,-207.8C117.14,-213.74 132.76,-220.12 147.25,-225.62 154.61,-228.42 162.46,-231.25 170.15,-233.93"/>
<polygon fill="#63b8ff" stroke="#63b8ff" points="104.52,-204.63 93.95,-203.95 101.79,-211.08 104.52,-204.63"/>
</a>
</g>
</g>
<!-- Node5 -->
<g id="Node000005" class="node">
<title>Node5</title>
<g id="a_Node000005"><a xlink:href="classDGtal_1_1Astroid2D.html" target="_top" xlink:title="Aim: Model of the concept StarShaped represents an astroid.">
<polygon fill="white" stroke="#666666" points="290,-216.25 147.25,-216.25 147.25,-197 290,-197 290,-216.25"/>
<text xml:space="preserve" text-anchor="middle" x="218.62" y="-202.75" font-family="FreeSans" font-size="10.00">DGtal::Astroid2D&lt; TSpace &gt;</text>
</a>
</g>
</g>
<!-- Node0&#45;&gt;Node5 -->
<g id="edge335_Node000000_Node000005" class="edge">
<title>Node0&#45;&gt;Node5</title>
<g id="a_edge335_Node000000_Node000005"><a xlink:title=" ">
<path fill="none" stroke="#63b8ff" d="M123,-195.46C130.91,-196.39 139.01,-197.35 146.97,-198.29"/>
<polygon fill="#63b8ff" stroke="#63b8ff" points="123.43,-191.98 113.08,-194.29 122.61,-198.94 123.43,-191.98"/>
</a>
</g>
</g>
<!-- Node6 -->
<g id="Node000006" class="node">
<title>Node6</title>
<g id="a_Node000006"><a xlink:href="classDGtal_1_1Ball2D.html" target="_top" xlink:title="Aim: Model of the concept StarShaped represents any circle in the plane.">
<polygon fill="white" stroke="#666666" points="282.88,-179.25 154.38,-179.25 154.38,-160 282.88,-160 282.88,-179.25"/>
<text xml:space="preserve" text-anchor="middle" x="218.62" y="-165.75" font-family="FreeSans" font-size="10.00">DGtal::Ball2D&lt; TSpace &gt;</text>
</a>
</g>
</g>
<!-- Node0&#45;&gt;Node6 -->
<g id="edge336_Node000000_Node000006" class="edge">
<title>Node0&#45;&gt;Node6</title>
<g id="a_edge336_Node000000_Node000006"><a xlink:title=" ">
<path fill="none" stroke="#63b8ff" d="M123,-180.2C133.26,-179.06 143.84,-177.87 154.05,-176.73"/>
<polygon fill="#63b8ff" stroke="#63b8ff" points="122.64,-176.72 113.09,-181.31 123.41,-183.68 122.64,-176.72"/>
</a>
</g>
</g>
<!-- Node7 -->
<g id="Node000007" class="node">
<title>Node7</title>
<g id="a_Node000007"><a xlink:href="classDGtal_1_1Ellipse2D.html" target="_top" xlink:title="Aim: Model of the concept StarShaped represents any ellipse in the plane.">
<polygon fill="white" stroke="#666666" points="289.25,-142.25 148,-142.25 148,-123 289.25,-123 289.25,-142.25"/>
<text xml:space="preserve" text-anchor="middle" x="218.62" y="-128.75" font-family="FreeSans" font-size="10.00">DGtal::Ellipse2D&lt; TSpace &gt;</text>
</a>
</g>
</g>
<!-- Node0&#45;&gt;Node7 -->
<g id="edge337_Node000000_Node000007" class="edge">
<title>Node0&#45;&gt;Node7</title>
<g id="a_edge337_Node000000_Node000007"><a xlink:title=" ">
<path fill="none" stroke="#63b8ff" d="M102.44,-167.49C116.65,-161.64 132.46,-155.51 147.25,-150.62 155.87,-147.78 165.21,-145.11 174.18,-142.74"/>
<polygon fill="#63b8ff" stroke="#63b8ff" points="101.2,-164.22 93.32,-171.31 103.9,-170.68 101.2,-164.22"/>
</a>
</g>
</g>
<!-- Node8 -->
<g id="Node000008" class="node">
<title>Node8</title>
<g id="a_Node000008"><a xlink:href="classDGtal_1_1Flower2D.html" target="_top" xlink:title="Aim: Model of the concept StarShaped represents any flower with k&#45;petals in the plane.">
<polygon fill="white" stroke="#666666" points="289.25,-105.25 148,-105.25 148,-86 289.25,-86 289.25,-105.25"/>
<text xml:space="preserve" text-anchor="middle" x="218.62" y="-91.75" font-family="FreeSans" font-size="10.00">DGtal::Flower2D&lt; TSpace &gt;</text>
</a>
</g>
</g>
<!-- Node0&#45;&gt;Node8 -->
<g id="edge338_Node000000_Node000008" class="edge">
<title>Node0&#45;&gt;Node8</title>
<g id="a_edge338_Node000000_Node000008"><a xlink:title=" ">
<path fill="none" stroke="#63b8ff" d="M79.29,-164.33C96.51,-147.91 121.54,-126.61 147.25,-113.62 153.44,-110.5 160.22,-107.88 167.05,-105.71"/>
<polygon fill="#63b8ff" stroke="#63b8ff" points="77.29,-161.4 72.58,-170.89 82.18,-166.41 77.29,-161.4"/>
</a>
</g>
</g>
<!-- Node9 -->
<g id="Node000009" class="node">
<title>Node9</title>
<g id="a_Node000009"><a xlink:href="classDGtal_1_1Lemniscate2D.html" target="_top" xlink:title="Aim: Model of the concept StarShaped represents a lemniscate.">
<polygon fill="white" stroke="#666666" points="273.88,-67.88 163.38,-67.88 163.38,-37.38 273.88,-37.38 273.88,-67.88"/>
<text xml:space="preserve" text-anchor="start" x="171.38" y="-54.38" font-family="FreeSans" font-size="10.00">DGtal::Lemniscate2D</text>
<text xml:space="preserve" text-anchor="middle" x="218.62" y="-43.12" font-family="FreeSans" font-size="10.00">&lt; TSpace &gt;</text>
</a>
</g>
</g>
<!-- Node0&#45;&gt;Node9 -->
<g id="edge339_Node000000_Node000009" class="edge">
<title>Node0&#45;&gt;Node9</title>
<g id="a_edge339_Node000000_Node000009"><a xlink:title=" ">
<path fill="none" stroke="#63b8ff" d="M71.26,-162.48C87.05,-137.42 114.39,-99.46 147.25,-76.62 152.13,-73.24 157.52,-70.29 163.09,-67.74"/>
<polygon fill="#63b8ff" stroke="#63b8ff" points="68.44,-160.39 66.2,-170.74 74.41,-164.04 68.44,-160.39"/>
</a>
</g>
</g>
<!-- Node10 -->
<g id="Node000010" class="node">
<title>Node10</title>
<g id="a_Node000010"><a xlink:href="classDGtal_1_1NGon2D.html" target="_top" xlink:title="Aim: Model of the concept StarShaped represents any regular k&#45;gon in the plane.">
<polygon fill="white" stroke="#666666" points="287.38,-19.25 149.88,-19.25 149.88,0 287.38,0 287.38,-19.25"/>
<text xml:space="preserve" text-anchor="middle" x="218.62" y="-5.75" font-family="FreeSans" font-size="10.00">DGtal::NGon2D&lt; TSpace &gt;</text>
</a>
</g>
</g>
<!-- Node0&#45;&gt;Node10 -->
<g id="edge340_Node000000_Node000010" class="edge">
<title>Node0&#45;&gt;Node10</title>
<g id="a_edge340_Node000000_Node000010"><a xlink:title=" ">
<path fill="none" stroke="#63b8ff" d="M64.48,-161.37C76.47,-125.86 102.76,-63.03 147.25,-28.62 151.96,-24.99 157.31,-22.04 162.9,-19.66"/>
<polygon fill="#63b8ff" stroke="#63b8ff" points="61.16,-160.25 61.42,-170.84 67.83,-162.4 61.16,-160.25"/>
</a>
</g>
</g>
</g>
</svg>
