<?xml version="1.0" encoding="UTF-8" standalone="no"?>
<!DOCTYPE svg PUBLIC "-//W3C//DTD SVG 1.1//EN"
 "http://www.w3.org/Graphics/SVG/1.1/DTD/svg11.dtd">
<!-- Generated by graphviz version 14.1.0 (20251206.1807)
 -->
<!-- Title: DGtal::concepts::CSegmentFactory&lt; T &gt; Pages: 1 -->
<svg width="1304pt" height="138pt"
 viewBox="0.00 0.00 1304.00 138.00" xmlns="http://www.w3.org/2000/svg" xmlns:xlink="http://www.w3.org/1999/xlink">
<g id="graph0" class="graph" transform="scale(1 1) rotate(0) translate(4 134.25)">
<title>DGtal::concepts::CSegmentFactory&lt; T &gt;</title>
<!-- Node1 -->
<g id="Node000001" class="node">
<title>Node1</title>
<g id="a_Node000001"><a xlink:title="Aim: Defines the concept describing a segment ie. a valid and not empty subrange, which can construct...">
<polygon fill="#999999" stroke="#666666" points="534.75,-79.88 395,-79.88 395,-49.38 534.75,-49.38 534.75,-79.88"/>
<text xml:space="preserve" text-anchor="start" x="403" y="-66.38" font-family="FreeSans" font-size="10.00">DGtal::concepts::CSegment</text>
<text xml:space="preserve" text-anchor="middle" x="464.88" y="-55.12" font-family="FreeSans" font-size="10.00">Factory&lt; T &gt;</text>
</a>
</g>
</g>
<!-- Node7 -->
<g id="Node000007" class="node">
<title>Node7</title>
<g id="a_Node000007"><a xlink:href="structDGtal_1_1concepts_1_1CIncrementalSegmentComputer.html" target="_top" xlink:title="Aim: Defines the concept describing an incremental segment computer, &#160;&#160;ie. a model of CSegmentFactory...">
<polygon fill="white" stroke="#666666" points="722.5,-79.88 570.75,-79.88 570.75,-49.38 722.5,-49.38 722.5,-79.88"/>
<text xml:space="preserve" text-anchor="start" x="578.75" y="-66.38" font-family="FreeSans" font-size="10.00">DGtal::concepts::CIncremental</text>
<text xml:space="preserve" text-anchor="middle" x="646.62" y="-55.12" font-family="FreeSans" font-size="10.00">SegmentComputer&lt; T &gt;</text>
</a>
</g>
</g>
<!-- Node1&#45;&gt;Node7 -->
<g id="edge6_Node000001_Node000007" class="edge">
<title>Node1&#45;&gt;Node7</title>
<g id="a_edge6_Node000001_Node000007"><a xlink:title=" ">
<path fill="none" stroke="#63b8ff" d="M546.35,-64.62C554.37,-64.62 562.49,-64.62 570.45,-64.62"/>
<polygon fill="#63b8ff" stroke="#63b8ff" points="546.63,-61.13 536.63,-64.63 546.63,-68.13 546.63,-61.13"/>
</a>
</g>
</g>
<!-- Node2 -->
<g id="Node000002" class="node">
<title>Node2</title>
<g id="a_Node000002"><a xlink:href="structDGtal_1_1concepts_1_1CSegment.html" target="_top" xlink:title="Aim: Defines the concept describing a segment, ie. a valid and not empty range.">
<polygon fill="white" stroke="#666666" points="359,-74.25 195.25,-74.25 195.25,-55 359,-55 359,-74.25"/>
<text xml:space="preserve" text-anchor="middle" x="277.12" y="-60.75" font-family="FreeSans" font-size="10.00">DGtal::concepts::CSegment&lt; T &gt;</text>
</a>
</g>
</g>
<!-- Node2&#45;&gt;Node1 -->
<g id="edge1_Node000001_Node000002" class="edge">
<title>Node2&#45;&gt;Node1</title>
<g id="a_edge1_Node000001_Node000002"><a xlink:title=" ">
<path fill="none" stroke="#63b8ff" d="M370.73,-64.62C378.82,-64.62 386.91,-64.62 394.75,-64.62"/>
<polygon fill="#63b8ff" stroke="#63b8ff" points="370.84,-61.13 360.84,-64.63 370.84,-68.13 370.84,-61.13"/>
</a>
</g>
</g>
<!-- Node3 -->
<g id="Node000003" class="node">
<title>Node3</title>
<g id="a_Node000003"><a xlink:href="structboost_1_1DefaultConstructible.html" target="_top" xlink:title="Go to http://www.sgi.com/tech/stl/DefaultConstructible.html.">
<polygon fill="white" stroke="#666666" points="159.25,-130.25 0,-130.25 0,-111 159.25,-111 159.25,-130.25"/>
<text xml:space="preserve" text-anchor="middle" x="79.62" y="-116.75" font-family="FreeSans" font-size="10.00">boost::DefaultConstructible&lt; T &gt;</text>
</a>
</g>
</g>
<!-- Node3&#45;&gt;Node2 -->
<g id="edge2_Node000002_Node000003" class="edge">
<title>Node3&#45;&gt;Node2</title>
<g id="a_edge2_Node000002_Node000003"><a xlink:title=" ">
<path fill="none" stroke="#63b8ff" d="M138.65,-107.96C145.61,-106.26 152.61,-104.46 159.25,-102.62 189.69,-94.21 223.99,-82.83 247.52,-74.72"/>
<polygon fill="#63b8ff" stroke="#63b8ff" points="138.17,-104.48 129.25,-110.2 139.79,-111.29 138.17,-104.48"/>
</a>
</g>
</g>
<!-- Node4 -->
<g id="Node000004" class="node">
<title>Node4</title>
<g id="a_Node000004"><a xlink:href="structboost_1_1CopyConstructible.html" target="_top" xlink:title="Go to http://www.sgi.com/tech/stl/CopyConstructible.html.">
<polygon fill="white" stroke="#666666" points="155.12,-93.25 4.12,-93.25 4.12,-74 155.12,-74 155.12,-93.25"/>
<text xml:space="preserve" text-anchor="middle" x="79.62" y="-79.75" font-family="FreeSans" font-size="10.00">boost::CopyConstructible&lt; T &gt;</text>
</a>
</g>
</g>
<!-- Node4&#45;&gt;Node2 -->
<g id="edge3_Node000002_Node000004" class="edge">
<title>Node4&#45;&gt;Node2</title>
<g id="a_edge3_Node000002_Node000004"><a xlink:title=" ">
<path fill="none" stroke="#63b8ff" d="M166.71,-75.26C176.08,-74.35 185.6,-73.42 194.91,-72.52"/>
<polygon fill="#63b8ff" stroke="#63b8ff" points="166.49,-71.76 156.88,-76.21 167.17,-78.73 166.49,-71.76"/>
</a>
</g>
</g>
<!-- Node5 -->
<g id="Node000005" class="node">
<title>Node5</title>
<g id="a_Node000005"><a xlink:href="structboost_1_1Assignable.html" target="_top" xlink:title="Go to http://www.sgi.com/tech/stl/Assignable.html.">
<polygon fill="white" stroke="#666666" points="138.62,-56.25 20.62,-56.25 20.62,-37 138.62,-37 138.62,-56.25"/>
<text xml:space="preserve" text-anchor="middle" x="79.62" y="-42.75" font-family="FreeSans" font-size="10.00">boost::Assignable&lt; T &gt;</text>
</a>
</g>
</g>
<!-- Node5&#45;&gt;Node2 -->
<g id="edge4_Node000002_Node000005" class="edge">
<title>Node5&#45;&gt;Node2</title>
<g id="a_edge4_Node000002_Node000005"><a xlink:title=" ">
<path fill="none" stroke="#63b8ff" d="M150.37,-53.05C164.79,-54.37 180.11,-55.78 194.9,-57.15"/>
<polygon fill="#63b8ff" stroke="#63b8ff" points="150.8,-49.57 140.52,-52.14 150.16,-56.54 150.8,-49.57"/>
</a>
</g>
</g>
<!-- Node6 -->
<g id="Node000006" class="node">
<title>Node6</title>
<g id="a_Node000006"><a xlink:href="structboost_1_1EqualityComparable.html" target="_top" xlink:title="Go to http://www.sgi.com/tech/stl/EqualityComparable.html.">
<polygon fill="white" stroke="#666666" points="158.5,-19.25 0.75,-19.25 0.75,0 158.5,0 158.5,-19.25"/>
<text xml:space="preserve" text-anchor="middle" x="79.62" y="-5.75" font-family="FreeSans" font-size="10.00">boost::EqualityComparable&lt; T &gt;</text>
</a>
</g>
</g>
<!-- Node6&#45;&gt;Node2 -->
<g id="edge5_Node000002_Node000006" class="edge">
<title>Node6&#45;&gt;Node2</title>
<g id="a_edge5_Node000002_Node000006"><a xlink:title=" ">
<path fill="none" stroke="#63b8ff" d="M138.35,-22.27C145.41,-23.99 152.51,-25.79 159.25,-27.62 189.23,-35.79 223.03,-46.67 246.54,-54.52"/>
<polygon fill="#63b8ff" stroke="#63b8ff" points="139.36,-18.91 128.82,-20.01 137.74,-25.72 139.36,-18.91"/>
</a>
</g>
</g>
<!-- Node8 -->
<g id="Node000008" class="node">
<title>Node8</title>
<g id="a_Node000008"><a xlink:href="structDGtal_1_1concepts_1_1CForwardSegmentComputer.html" target="_top" xlink:title="Aim: Defines the concept describing a forward segment computer. Like any model of CIncrementalSegment...">
<polygon fill="white" stroke="#666666" points="894.5,-79.88 758.5,-79.88 758.5,-49.38 894.5,-49.38 894.5,-79.88"/>
<text xml:space="preserve" text-anchor="start" x="766.5" y="-66.38" font-family="FreeSans" font-size="10.00">DGtal::concepts::CForward</text>
<text xml:space="preserve" text-anchor="middle" x="826.5" y="-55.12" font-family="FreeSans" font-size="10.00">SegmentComputer&lt; T &gt;</text>
</a>
</g>
</g>
<!-- Node7&#45;&gt;Node8 -->
<g id="edge7_Node000007_Node000008" class="edge">
<title>Node7&#45;&gt;Node8</title>
<g id="a_edge7_Node000007_Node000008"><a xlink:title=" ">
<path fill="none" stroke="#63b8ff" d="M734.17,-64.62C742.25,-64.62 750.35,-64.62 758.21,-64.62"/>
<polygon fill="#63b8ff" stroke="#63b8ff" points="734.32,-61.13 724.32,-64.63 734.32,-68.13 734.32,-61.13"/>
</a>
</g>
</g>
<!-- Node9 -->
<g id="Node000009" class="node">
<title>Node9</title>
<g id="a_Node000009"><a xlink:href="structDGtal_1_1concepts_1_1CBidirectionalSegmentComputer.html" target="_top" xlink:title="Aim: Defines the concept describing a bidirectional segment computer, &#160;&#160;ie. a model of concepts::CSeg...">
<polygon fill="white" stroke="#666666" points="1084.5,-104.88 930.5,-104.88 930.5,-74.38 1084.5,-74.38 1084.5,-104.88"/>
<text xml:space="preserve" text-anchor="start" x="938.5" y="-91.38" font-family="FreeSans" font-size="10.00">DGtal::concepts::CBidirectional</text>
<text xml:space="preserve" text-anchor="middle" x="1007.5" y="-80.12" font-family="FreeSans" font-size="10.00">SegmentComputer&lt; T &gt;</text>
</a>
</g>
</g>
<!-- Node8&#45;&gt;Node9 -->
<g id="edge8_Node000008_Node000009" class="edge">
<title>Node8&#45;&gt;Node9</title>
<g id="a_edge8_Node000008_Node000009"><a xlink:title=" ">
<path fill="none" stroke="#63b8ff" d="M906.1,-75.6C914.08,-76.72 922.18,-77.85 930.14,-78.96"/>
<polygon fill="#63b8ff" stroke="#63b8ff" points="906.8,-72.17 896.42,-74.25 905.84,-79.1 906.8,-72.17"/>
</a>
</g>
</g>
<!-- Node11 -->
<g id="Node000011" class="node">
<title>Node11</title>
<g id="a_Node000011"><a xlink:href="structDGtal_1_1concepts_1_1CDynamicSegmentComputer.html" target="_top" xlink:title="Aim: Defines the concept describing a dynamic segment computer, &#160;&#160;ie. a model of CSegment that can ex...">
<polygon fill="white" stroke="#666666" points="1077.38,-55.88 937.62,-55.88 937.62,-25.38 1077.38,-25.38 1077.38,-55.88"/>
<text xml:space="preserve" text-anchor="start" x="945.62" y="-42.38" font-family="FreeSans" font-size="10.00">DGtal::concepts::CDynamic</text>
<text xml:space="preserve" text-anchor="middle" x="1007.5" y="-31.12" font-family="FreeSans" font-size="10.00">SegmentComputer&lt; T &gt;</text>
</a>
</g>
</g>
<!-- Node8&#45;&gt;Node11 -->
<g id="edge10_Node000008_Node000011" class="edge">
<title>Node8&#45;&gt;Node11</title>
<g id="a_edge10_Node000008_Node000011"><a xlink:title=" ">
<path fill="none" stroke="#63b8ff" d="M906.11,-54.09C916.51,-52.69 927.12,-51.27 937.36,-49.9"/>
<polygon fill="#63b8ff" stroke="#63b8ff" points="905.86,-50.59 896.42,-55.38 906.79,-57.52 905.86,-50.59"/>
</a>
</g>
</g>
<!-- Node10 -->
<g id="Node000010" class="node">
<title>Node10</title>
<g id="a_Node000010"><a xlink:href="structDGtal_1_1concepts_1_1CDynamicBidirectionalSegmentComputer.html" target="_top" xlink:title="Aim: Defines the concept describing a dynamic and bidirectional segment computer, ie....">
<polygon fill="white" stroke="#666666" points="1295.5,-79.88 1120.5,-79.88 1120.5,-49.38 1295.5,-49.38 1295.5,-79.88"/>
<text xml:space="preserve" text-anchor="start" x="1128.5" y="-66.38" font-family="FreeSans" font-size="10.00">DGtal::concepts::CDynamic</text>
<text xml:space="preserve" text-anchor="middle" x="1208" y="-55.12" font-family="FreeSans" font-size="10.00">BidirectionalSegmentComputer&lt; T &gt;</text>
</a>
</g>
</g>
<!-- Node9&#45;&gt;Node10 -->
<g id="edge9_Node000009_Node000010" class="edge">
<title>Node9&#45;&gt;Node10</title>
<g id="a_edge9_Node000009_Node000010"><a xlink:title=" ">
<path fill="none" stroke="#63b8ff" d="M1096.2,-78.58C1104.21,-77.57 1112.32,-76.55 1120.33,-75.54"/>
<polygon fill="#63b8ff" stroke="#63b8ff" points="1095.95,-75.08 1086.46,-79.81 1096.82,-82.03 1095.95,-75.08"/>
</a>
</g>
</g>
<!-- Node11&#45;&gt;Node10 -->
<g id="edge11_Node000011_Node000010" class="edge">
<title>Node11&#45;&gt;Node10</title>
<g id="a_edge11_Node000011_Node000010"><a xlink:title=" ">
<path fill="none" stroke="#63b8ff" d="M1088.77,-50.33C1099.15,-51.59 1109.81,-52.87 1120.29,-54.14"/>
<polygon fill="#63b8ff" stroke="#63b8ff" points="1089.5,-46.89 1079.15,-49.17 1088.66,-53.84 1089.5,-46.89"/>
</a>
</g>
</g>
</g>
</svg>
