<?xml version="1.0" encoding="UTF-8" standalone="no"?>
<!DOCTYPE svg PUBLIC "-//W3C//DTD SVG 1.1//EN"
 "http://www.w3.org/Graphics/SVG/1.1/DTD/svg11.dtd">
<!-- Generated by graphviz version 14.1.0 (20251206.1807)
 -->
<!-- Title: DGtal::concepts::CTrivialImage&lt; I &gt; Pages: 1 -->
<svg width="1898pt" height="131pt"
 viewBox="0.00 0.00 1898.00 131.00" xmlns="http://www.w3.org/2000/svg" xmlns:xlink="http://www.w3.org/1999/xlink">
<g id="graph0" class="graph" transform="scale(1 1) rotate(0) translate(4 127.25)">
<title>DGtal::concepts::CTrivialImage&lt; I &gt;</title>
<!-- Node1 -->
<g id="Node000001" class="node">
<title>Node1</title>
<g id="a_Node000001"><a xlink:title="Aim: Defines the concept describing an image without extra ranges, which is a refinement of CTrivialC...">
<polygon fill="#999999" stroke="#666666" points="1704,-80.88 1577,-80.88 1577,-50.38 1704,-50.38 1704,-80.88"/>
<text xml:space="preserve" text-anchor="start" x="1585" y="-67.38" font-family="FreeSans" font-size="10.00">DGtal::concepts::CTrivial</text>
<text xml:space="preserve" text-anchor="middle" x="1640.5" y="-56.12" font-family="FreeSans" font-size="10.00">Image&lt; I &gt;</text>
</a>
</g>
</g>
<!-- Node12 -->
<g id="Node000012" class="node">
<title>Node12</title>
<g id="a_Node000012"><a xlink:href="structDGtal_1_1concepts_1_1CImage.html" target="_top" xlink:title="Aim: Defines the concept describing a read/write image, having an output iterator.">
<polygon fill="white" stroke="#666666" points="1889.75,-75.25 1741,-75.25 1741,-56 1889.75,-56 1889.75,-75.25"/>
<text xml:space="preserve" text-anchor="middle" x="1815.38" y="-61.75" font-family="FreeSans" font-size="10.00">DGtal::concepts::CImage&lt; I &gt;</text>
</a>
</g>
</g>
<!-- Node1&#45;&gt;Node12 -->
<g id="edge13_Node000001_Node000012" class="edge">
<title>Node1&#45;&gt;Node12</title>
<g id="a_edge13_Node000001_Node000012"><a xlink:title=" ">
<path fill="none" stroke="#63b8ff" d="M1715.88,-65.62C1724.09,-65.62 1732.45,-65.62 1740.66,-65.62"/>
<polygon fill="#63b8ff" stroke="#63b8ff" points="1715.91,-62.13 1705.91,-65.63 1715.91,-69.13 1715.91,-62.13"/>
</a>
</g>
</g>
<!-- Node2 -->
<g id="Node000002" class="node">
<title>Node2</title>
<g id="a_Node000002"><a xlink:href="structDGtal_1_1concepts_1_1CTrivialConstImage.html" target="_top" xlink:title="Aim: Defines the concept describing a read&#45;only image, which is a refinement of CPointFunctor.">
<polygon fill="white" stroke="#666666" points="1540,-80.88 1413,-80.88 1413,-50.38 1540,-50.38 1540,-80.88"/>
<text xml:space="preserve" text-anchor="start" x="1421" y="-67.38" font-family="FreeSans" font-size="10.00">DGtal::concepts::CTrivial</text>
<text xml:space="preserve" text-anchor="middle" x="1476.5" y="-56.12" font-family="FreeSans" font-size="10.00">ConstImage&lt; I &gt;</text>
</a>
</g>
</g>
<!-- Node2&#45;&gt;Node1 -->
<g id="edge1_Node000001_Node000002" class="edge">
<title>Node2&#45;&gt;Node1</title>
<g id="a_edge1_Node000001_Node000002"><a xlink:title=" ">
<path fill="none" stroke="#63b8ff" d="M1551.53,-65.62C1559.97,-65.62 1568.5,-65.62 1576.77,-65.62"/>
<polygon fill="#63b8ff" stroke="#63b8ff" points="1551.65,-62.13 1541.65,-65.63 1551.65,-69.13 1551.65,-62.13"/>
</a>
</g>
</g>
<!-- Node3 -->
<g id="Node000003" class="node">
<title>Node3</title>
<g id="a_Node000003"><a xlink:href="structDGtal_1_1concepts_1_1CPointFunctor.html" target="_top" xlink:title=" ">
<polygon fill="white" stroke="#666666" points="1376,-75.25 1198.75,-75.25 1198.75,-56 1376,-56 1376,-75.25"/>
<text xml:space="preserve" text-anchor="middle" x="1287.38" y="-61.75" font-family="FreeSans" font-size="10.00">DGtal::concepts::CPointFunctor&lt; I &gt;</text>
</a>
</g>
</g>
<!-- Node3&#45;&gt;Node2 -->
<g id="edge2_Node000002_Node000003" class="edge">
<title>Node3&#45;&gt;Node2</title>
<g id="a_edge2_Node000002_Node000003"><a xlink:title=" ">
<path fill="none" stroke="#63b8ff" d="M1387.93,-65.62C1396.34,-65.62 1404.68,-65.62 1412.68,-65.62"/>
<polygon fill="#63b8ff" stroke="#63b8ff" points="1387.97,-62.13 1377.97,-65.63 1387.97,-69.13 1387.97,-62.13"/>
</a>
</g>
</g>
<!-- Node4 -->
<g id="Node000004" class="node">
<title>Node4</title>
<g id="a_Node000004"><a xlink:href="structDGtal_1_1concepts_1_1CUnaryFunctor.html" target="_top" xlink:title=" ">
<polygon fill="white" stroke="#666666" points="918.5,-101.88 758.5,-101.88 758.5,-71.38 918.5,-71.38 918.5,-101.88"/>
<text xml:space="preserve" text-anchor="start" x="766.5" y="-88.38" font-family="FreeSans" font-size="10.00">DGtal::concepts::CUnaryFunctor</text>
<text xml:space="preserve" text-anchor="middle" x="838.5" y="-77.12" font-family="FreeSans" font-size="10.00">&lt; I, I::Point, I::Value &gt;</text>
</a>
</g>
</g>
<!-- Node4&#45;&gt;Node3 -->
<g id="edge3_Node000003_Node000004" class="edge">
<title>Node4&#45;&gt;Node3</title>
<g id="a_edge3_Node000003_Node000004"><a xlink:title=" ">
<path fill="none" stroke="#63b8ff" d="M930.01,-82.39C998.79,-79.17 1095.73,-74.63 1180.75,-70.62 1186.53,-70.35 1192.48,-70.07 1198.48,-69.79"/>
<polygon fill="#63b8ff" stroke="#63b8ff" points="930.13,-78.88 920.31,-82.85 930.46,-85.88 930.13,-78.88"/>
</a>
</g>
</g>
<!-- Node5 -->
<g id="Node000005" class="node">
<title>Node5</title>
<g id="a_Node000005"><a xlink:href="structboost_1_1Assignable.html" target="_top" xlink:title=" ">
<polygon fill="white" stroke="#666666" points="436.5,-123.25 321.5,-123.25 321.5,-104 436.5,-104 436.5,-123.25"/>
<text xml:space="preserve" text-anchor="middle" x="379" y="-109.75" font-family="FreeSans" font-size="10.00">boost::Assignable&lt; I &gt;</text>
</a>
</g>
</g>
<!-- Node5&#45;&gt;Node4 -->
<g id="edge4_Node000004_Node000005" class="edge">
<title>Node5&#45;&gt;Node4</title>
<g id="a_edge4_Node000004_Node000005"><a xlink:title=" ">
<path fill="none" stroke="#63b8ff" d="M448.19,-113.34C520.78,-112.53 638.96,-109.76 740.5,-100.62 746.26,-100.11 752.2,-99.48 758.18,-98.78"/>
<polygon fill="#63b8ff" stroke="#63b8ff" points="448.41,-109.84 438.45,-113.44 448.49,-116.84 448.41,-109.84"/>
</a>
</g>
</g>
<!-- Node6 -->
<g id="Node000006" class="node">
<title>Node6</title>
<g id="a_Node000006"><a xlink:href="structboost_1_1Assignable.html" target="_top" xlink:title="Go to http://www.sgi.com/tech/stl/Assignable.html.">
<polygon fill="white" stroke="#666666" points="118,-103.25 0,-103.25 0,-84 118,-84 118,-103.25"/>
<text xml:space="preserve" text-anchor="middle" x="59" y="-89.75" font-family="FreeSans" font-size="10.00">boost::Assignable&lt; T &gt;</text>
</a>
</g>
</g>
<!-- Node6&#45;&gt;Node5 -->
<g id="edge5_Node000005_Node000006" class="edge">
<title>Node6&#45;&gt;Node5</title>
<g id="a_edge5_Node000005_Node000006"><a xlink:title=" ">
<path fill="none" stroke="orange" stroke-dasharray="5,2" d="M129.49,-98C186.92,-101.61 267.46,-106.67 321.11,-110.05"/>
<polygon fill="orange" stroke="orange" points="130.04,-94.52 119.84,-97.39 129.6,-101.51 130.04,-94.52"/>
</a>
</g>
<text xml:space="preserve" text-anchor="start" x="140.88" y="-105.01" font-family="FreeSans" font-size="10.00" fill="grey">&lt; I &gt;</text>
</g>
<!-- Node8 -->
<g id="Node000008" class="node">
<title>Node8</title>
<g id="a_Node000008"><a xlink:href="structboost_1_1Assignable.html" target="_top" xlink:title=" ">
<polygon fill="white" stroke="#666666" points="303.5,-83.25 184.75,-83.25 184.75,-64 303.5,-64 303.5,-83.25"/>
<text xml:space="preserve" text-anchor="middle" x="244.12" y="-69.75" font-family="FreeSans" font-size="10.00">boost::Assignable&lt; X &gt;</text>
</a>
</g>
</g>
<!-- Node6&#45;&gt;Node8 -->
<g id="edge8_Node000008_Node000006" class="edge">
<title>Node6&#45;&gt;Node8</title>
<g id="a_edge8_Node000008_Node000006"><a xlink:title=" ">
<path fill="none" stroke="orange" stroke-dasharray="5,2" d="M103.63,-80.66C114.14,-78.07 125.39,-75.74 136,-74.38 151.59,-72.38 168.56,-71.62 184.3,-71.49"/>
<polygon fill="orange" stroke="orange" points="102.85,-77.25 94.05,-83.15 104.61,-84.02 102.85,-77.25"/>
</a>
</g>
<text xml:space="preserve" text-anchor="start" x="139" y="-79.12" font-family="FreeSans" font-size="10.00" fill="grey">&lt; X &gt;</text>
</g>
<!-- Node7 -->
<g id="Node000007" class="node">
<title>Node7</title>
<g id="a_Node000007"><a xlink:href="structDGtal_1_1concepts_1_1CUnaryFunctor.html" target="_top" xlink:title="Aim: Defines a unary functor, which associates arguments to results.">
<polygon fill="white" stroke="#666666" points="614.5,-86.88 454.5,-86.88 454.5,-56.38 614.5,-56.38 614.5,-86.88"/>
<text xml:space="preserve" text-anchor="start" x="462.5" y="-73.38" font-family="FreeSans" font-size="10.00">DGtal::concepts::CUnaryFunctor</text>
<text xml:space="preserve" text-anchor="middle" x="534.5" y="-62.12" font-family="FreeSans" font-size="10.00">&lt; X, A, R &gt;</text>
</a>
</g>
</g>
<!-- Node7&#45;&gt;Node4 -->
<g id="edge6_Node000004_Node000007" class="edge">
<title>Node7&#45;&gt;Node4</title>
<g id="a_edge6_Node000004_Node000007"><a xlink:title=" ">
<path fill="none" stroke="orange" stroke-dasharray="5,2" d="M626.2,-76.13C668.2,-78.22 717.66,-80.67 758.16,-82.68"/>
<polygon fill="orange" stroke="orange" points="626.52,-72.64 616.36,-75.64 626.17,-79.63 626.52,-72.64"/>
</a>
</g>
<text xml:space="preserve" text-anchor="start" x="637.75" y="-86.52" font-family="FreeSans" font-size="10.00" fill="grey">&lt; I, I::Point, I::Value &gt;</text>
</g>
<!-- Node10 -->
<g id="Node000010" class="node">
<title>Node10</title>
<g id="a_Node000010"><a xlink:href="structDGtal_1_1concepts_1_1CUnaryFunctor.html" target="_top" xlink:title=" ">
<polygon fill="white" stroke="#666666" points="918.5,-52.88 758.5,-52.88 758.5,-22.38 918.5,-22.38 918.5,-52.88"/>
<text xml:space="preserve" text-anchor="start" x="766.5" y="-39.38" font-family="FreeSans" font-size="10.00">DGtal::concepts::CUnaryFunctor</text>
<text xml:space="preserve" text-anchor="middle" x="838.5" y="-28.12" font-family="FreeSans" font-size="10.00">&lt; T, T::Point, T::Value &gt;</text>
</a>
</g>
</g>
<!-- Node7&#45;&gt;Node10 -->
<g id="edge12_Node000010_Node000007" class="edge">
<title>Node7&#45;&gt;Node10</title>
<g id="a_edge12_Node000010_Node000007"><a xlink:title=" ">
<path fill="none" stroke="orange" stroke-dasharray="5,2" d="M626.23,-56.2C628.34,-55.91 630.43,-55.64 632.5,-55.38 673.79,-50.14 719.95,-45.99 758,-43.03"/>
<polygon fill="orange" stroke="orange" points="625.74,-52.73 616.33,-57.6 626.72,-59.66 625.74,-52.73"/>
</a>
</g>
<text xml:space="preserve" text-anchor="start" x="635.5" y="-60.12" font-family="FreeSans" font-size="10.00" fill="grey">&lt; T, T::Point, T::Value &gt;</text>
</g>
<!-- Node8&#45;&gt;Node7 -->
<g id="edge7_Node000007_Node000008" class="edge">
<title>Node8&#45;&gt;Node7</title>
<g id="a_edge7_Node000007_Node000008"><a xlink:title=" ">
<path fill="none" stroke="#63b8ff" d="M315.33,-73.14C357.27,-72.85 410.64,-72.48 454.1,-72.18"/>
<polygon fill="#63b8ff" stroke="#63b8ff" points="315.32,-69.64 305.34,-73.21 315.37,-76.64 315.32,-69.64"/>
</a>
</g>
</g>
<!-- Node9 -->
<g id="Node000009" class="node">
<title>Node9</title>
<g id="a_Node000009"><a xlink:href="structDGtal_1_1concepts_1_1CPointFunctor.html" target="_top" xlink:title="Aim: Defines a functor on points.">
<polygon fill="white" stroke="#666666" points="1135.75,-55.25 955.5,-55.25 955.5,-36 1135.75,-36 1135.75,-55.25"/>
<text xml:space="preserve" text-anchor="middle" x="1045.62" y="-41.75" font-family="FreeSans" font-size="10.00">DGtal::concepts::CPointFunctor&lt; T &gt;</text>
</a>
</g>
</g>
<!-- Node9&#45;&gt;Node3 -->
<g id="edge9_Node000003_Node000009" class="edge">
<title>Node9&#45;&gt;Node3</title>
<g id="a_edge9_Node000003_Node000009"><a xlink:title=" ">
<path fill="none" stroke="orange" stroke-dasharray="5,2" d="M1147.37,-50.82C1158.64,-51.58 1169.94,-52.44 1180.75,-53.38 1188.01,-54.01 1195.55,-54.73 1203.11,-55.51"/>
<polygon fill="orange" stroke="orange" points="1147.86,-47.34 1137.65,-50.18 1147.4,-54.33 1147.86,-47.34"/>
</a>
</g>
<text xml:space="preserve" text-anchor="start" x="1156.75" y="-58.12" font-family="FreeSans" font-size="10.00" fill="grey">&lt; I &gt;</text>
</g>
<!-- Node10&#45;&gt;Node9 -->
<g id="edge10_Node000009_Node000010" class="edge">
<title>Node10&#45;&gt;Node9</title>
<g id="a_edge10_Node000009_Node000010"><a xlink:title=" ">
<path fill="none" stroke="#63b8ff" d="M930.12,-41.16C938.48,-41.49 946.95,-41.82 955.3,-42.14"/>
<polygon fill="#63b8ff" stroke="#63b8ff" points="930.45,-37.67 920.32,-40.78 930.18,-44.66 930.45,-37.67"/>
</a>
</g>
</g>
<!-- Node11 -->
<g id="Node000011" class="node">
<title>Node11</title>
<g id="a_Node000011"><a xlink:href="structboost_1_1Assignable.html" target="_top" xlink:title="Go to http://www.sgi.com/tech/stl/Assignable.html.">
<polygon fill="white" stroke="#666666" points="593.5,-19.25 475.5,-19.25 475.5,0 593.5,0 593.5,-19.25"/>
<text xml:space="preserve" text-anchor="middle" x="534.5" y="-5.75" font-family="FreeSans" font-size="10.00">boost::Assignable&lt; T &gt;</text>
</a>
</g>
</g>
<!-- Node11&#45;&gt;Node10 -->
<g id="edge11_Node000010_Node000011" class="edge">
<title>Node11&#45;&gt;Node10</title>
<g id="a_edge11_Node000010_Node000011"><a xlink:title=" ">
<path fill="none" stroke="#63b8ff" d="M605.34,-13.09C645.03,-15.39 695.62,-18.86 740.5,-23.62 746.25,-24.24 752.19,-24.93 758.16,-25.68"/>
<polygon fill="#63b8ff" stroke="#63b8ff" points="605.61,-9.6 595.43,-12.53 605.22,-16.59 605.61,-9.6"/>
</a>
</g>
</g>
</g>
</svg>
