<?xml version="1.0" encoding="UTF-8" standalone="no"?>
<!DOCTYPE svg PUBLIC "-//W3C//DTD SVG 1.1//EN"
 "http://www.w3.org/Graphics/SVG/1.1/DTD/svg11.dtd">
<!-- Generated by graphviz version 14.1.0 (20251206.1807)
 -->
<!-- Title: DGtal::concepts::CImage&lt; I &gt; Pages: 1 -->
<!--zoomable 131 -->

<svg id="main" version="1.1" xmlns="http://www.w3.org/2000/svg" xmlns:xlink="http://www.w3.org/1999/xlink" xml:space="preserve" onload="init(evt)">

<style type="text/css"><![CDATA[
.node, .edge {opacity: 0.7;}
.node.selected, .edge.selected {opacity: 1;}
.edge:hover path { stroke: red; }
.edge:hover polygon { stroke: red; fill: red; }
]]></style>

<defs>
  <circle id="rim" cx="0" cy="0" r="7"/>
  <circle id="rim2" cx="0" cy="0" r="3.5"/>
  <g id="zoomPlus">
    <use xlink:href="#rim" fill="#404040"><set attributeName="fill" to="#808080" begin="zoomplus.mouseover" end="zoomplus.mouseout"/></use>
    <path d="M-4,0h8M0,-4v8" fill="none" stroke="white" stroke-width="1.5" pointer-events="none"/>
  </g>
  <g id="zoomMin">
    <use xlink:href="#rim" fill="#404040"><set attributeName="fill" to="#808080" begin="zoomminus.mouseover" end="zoomminus.mouseout"/></use>
    <path d="M-4,0h8" fill="none" stroke="white" stroke-width="1.5" pointer-events="none"/>
  </g>
  <g id="arrowUp" transform="translate(30 24)">
    <use xlink:href="#rim"/>
    <path pointer-events="none" fill="none" stroke="white" stroke-width="1.5" d="M0,-3.0v7 M-2.5,-0.5L0,-3.0L2.5,-0.5"/>
  </g>
  <g id="arrowRight" transform="rotate(90) translate(36 -43)">
    <use xlink:href="#rim"/>
    <path pointer-events="none" fill="none" stroke="white" stroke-width="1.5" d="M0,-3.0v7 M-2.5,-0.5L0,-3.0L2.5,-0.5"/>
  </g>
  <g id="arrowDown" transform="rotate(180) translate(-30 -48)">
    <use xlink:href="#rim"/>
    <path pointer-events="none" fill="none" stroke="white" stroke-width="1.5" d="M0,-3.0v7 M-2.5,-0.5L0,-3.0L2.5,-0.5"/>
  </g>
  <g id="arrowLeft" transform="rotate(270) translate(-36 17)">
    <use xlink:href="#rim"/>
    <path pointer-events="none" fill="none" stroke="white" stroke-width="1.5" d="M0,-3.0v7 M-2.5,-0.5L0,-3.0L2.5,-0.5"/>
  </g>
  <g id="resetDef">
    <use xlink:href="#rim2" fill="#404040"><set attributeName="fill" to="#808080" begin="reset.mouseover" end="reset.mouseout"/></use>
  </g>
</defs>
<script type="application/ecmascript">
var viewWidth = 1946;
var viewHeight = 131;
var sectionId = 'dynsection-0';
</script>
<script type="application/ecmascript" xlink:href="svg.min.js"/>
<svg id="graph" class="graph">
<g id="viewport">
<title>DGtal::concepts::CImage&lt; I &gt;</title>
<!-- Node1 -->
<g id="Node000001" class="node">
<title>Node1</title>
<g id="a_Node000001"><a xlink:title="Aim: Defines the concept describing a read/write image, having an output iterator.">
<polygon fill="#999999" stroke="#666666" points="1937.75,-75.25 1789,-75.25 1789,-56 1937.75,-56 1937.75,-75.25"/>
<text xml:space="preserve" text-anchor="middle" x="1863.38" y="-61.75" font-family="FreeSans" font-size="10.00">DGtal::concepts::CImage&lt; I &gt;</text>
</a>
</g>
</g>
<!-- Node2 -->
<g id="Node000002" class="node">
<title>Node2</title>
<g id="a_Node000002"><a xlink:href="structDGtal_1_1concepts_1_1CConstImage.html" target="_top" xlink:title="Aim: Defines the concept describing a read&#45;only image, which is a refinement of CPointFunctor.">
<polygon fill="white" stroke="#666666" points="1752,-97.25 1577,-97.25 1577,-78 1752,-78 1752,-97.25"/>
<text xml:space="preserve" text-anchor="middle" x="1664.5" y="-83.75" font-family="FreeSans" font-size="10.00">DGtal::concepts::CConstImage&lt; I &gt;</text>
</a>
</g>
</g>
<!-- Node2&#45;&gt;Node1 -->
<g id="edge1_Node000001_Node000002" class="edge">
<title>Node2&#45;&gt;Node1</title>
<g id="a_edge1_Node000001_Node000002"><a xlink:title=" ">
<path fill="none" stroke="#63b8ff" d="M1763.77,-76.64C1772.11,-75.71 1780.44,-74.78 1788.55,-73.88"/>
<polygon fill="#63b8ff" stroke="#63b8ff" points="1763.48,-73.15 1753.93,-77.74 1764.26,-80.11 1763.48,-73.15"/>
</a>
</g>
</g>
<!-- Node3 -->
<g id="Node000003" class="node">
<title>Node3</title>
<g id="a_Node000003"><a xlink:href="structDGtal_1_1concepts_1_1CTrivialConstImage.html" target="_top" xlink:title="Aim: Defines the concept describing a read&#45;only image, which is a refinement of CPointFunctor.">
<polygon fill="white" stroke="#666666" points="1540,-80.88 1413,-80.88 1413,-50.38 1540,-50.38 1540,-80.88"/>
<text xml:space="preserve" text-anchor="start" x="1421" y="-67.38" font-family="FreeSans" font-size="10.00">DGtal::concepts::CTrivial</text>
<text xml:space="preserve" text-anchor="middle" x="1476.5" y="-56.12" font-family="FreeSans" font-size="10.00">ConstImage&lt; I &gt;</text>
</a>
</g>
</g>
<!-- Node3&#45;&gt;Node2 -->
<g id="edge2_Node000002_Node000003" class="edge">
<title>Node3&#45;&gt;Node2</title>
<g id="a_edge2_Node000002_Node000003"><a xlink:title=" ">
<path fill="none" stroke="#63b8ff" d="M1551.73,-74.41C1560.42,-75.43 1569.34,-76.49 1578.16,-77.53"/>
<polygon fill="#63b8ff" stroke="#63b8ff" points="1552.32,-70.95 1541.97,-73.25 1551.49,-77.9 1552.32,-70.95"/>
</a>
</g>
</g>
<!-- Node13 -->
<g id="Node000013" class="node">
<title>Node13</title>
<g id="a_Node000013"><a xlink:href="structDGtal_1_1concepts_1_1CTrivialImage.html" target="_top" xlink:title="Aim: Defines the concept describing an image without extra ranges, which is a refinement of CTrivialC...">
<polygon fill="white" stroke="#666666" points="1728,-59.88 1601,-59.88 1601,-29.38 1728,-29.38 1728,-59.88"/>
<text xml:space="preserve" text-anchor="start" x="1609" y="-46.38" font-family="FreeSans" font-size="10.00">DGtal::concepts::CTrivial</text>
<text xml:space="preserve" text-anchor="middle" x="1664.5" y="-35.12" font-family="FreeSans" font-size="10.00">Image&lt; I &gt;</text>
</a>
</g>
</g>
<!-- Node3&#45;&gt;Node13 -->
<g id="edge15_Node000013_Node000003" class="edge">
<title>Node3&#45;&gt;Node13</title>
<g id="a_edge15_Node000013_Node000003"><a xlink:title=" ">
<path fill="none" stroke="#63b8ff" d="M1551.56,-57.26C1567.8,-55.43 1584.84,-53.51 1600.59,-51.73"/>
<polygon fill="#63b8ff" stroke="#63b8ff" points="1551.52,-53.75 1541.98,-58.35 1552.3,-60.7 1551.52,-53.75"/>
</a>
</g>
</g>
<!-- Node4 -->
<g id="Node000004" class="node">
<title>Node4</title>
<g id="a_Node000004"><a xlink:href="structDGtal_1_1concepts_1_1CPointFunctor.html" target="_top" xlink:title=" ">
<polygon fill="white" stroke="#666666" points="1376,-75.25 1198.75,-75.25 1198.75,-56 1376,-56 1376,-75.25"/>
<text xml:space="preserve" text-anchor="middle" x="1287.38" y="-61.75" font-family="FreeSans" font-size="10.00">DGtal::concepts::CPointFunctor&lt; I &gt;</text>
</a>
</g>
</g>
<!-- Node4&#45;&gt;Node3 -->
<g id="edge3_Node000003_Node000004" class="edge">
<title>Node4&#45;&gt;Node3</title>
<g id="a_edge3_Node000003_Node000004"><a xlink:title=" ">
<path fill="none" stroke="#63b8ff" d="M1387.93,-65.62C1396.34,-65.62 1404.68,-65.62 1412.68,-65.62"/>
<polygon fill="#63b8ff" stroke="#63b8ff" points="1387.97,-62.13 1377.97,-65.63 1387.97,-69.13 1387.97,-62.13"/>
</a>
</g>
</g>
<!-- Node5 -->
<g id="Node000005" class="node">
<title>Node5</title>
<g id="a_Node000005"><a xlink:href="structDGtal_1_1concepts_1_1CUnaryFunctor.html" target="_top" xlink:title=" ">
<polygon fill="white" stroke="#666666" points="918.5,-101.88 758.5,-101.88 758.5,-71.38 918.5,-71.38 918.5,-101.88"/>
<text xml:space="preserve" text-anchor="start" x="766.5" y="-88.38" font-family="FreeSans" font-size="10.00">DGtal::concepts::CUnaryFunctor</text>
<text xml:space="preserve" text-anchor="middle" x="838.5" y="-77.12" font-family="FreeSans" font-size="10.00">&lt; I, I::Point, I::Value &gt;</text>
</a>
</g>
</g>
<!-- Node5&#45;&gt;Node4 -->
<g id="edge4_Node000004_Node000005" class="edge">
<title>Node5&#45;&gt;Node4</title>
<g id="a_edge4_Node000004_Node000005"><a xlink:title=" ">
<path fill="none" stroke="#63b8ff" d="M930.01,-82.39C998.79,-79.17 1095.73,-74.63 1180.75,-70.62 1186.53,-70.35 1192.48,-70.07 1198.48,-69.79"/>
<polygon fill="#63b8ff" stroke="#63b8ff" points="930.13,-78.88 920.31,-82.85 930.46,-85.88 930.13,-78.88"/>
</a>
</g>
</g>
<!-- Node6 -->
<g id="Node000006" class="node">
<title>Node6</title>
<g id="a_Node000006"><a xlink:href="structboost_1_1Assignable.html" target="_top" xlink:title=" ">
<polygon fill="white" stroke="#666666" points="436.5,-123.25 321.5,-123.25 321.5,-104 436.5,-104 436.5,-123.25"/>
<text xml:space="preserve" text-anchor="middle" x="379" y="-109.75" font-family="FreeSans" font-size="10.00">boost::Assignable&lt; I &gt;</text>
</a>
</g>
</g>
<!-- Node6&#45;&gt;Node5 -->
<g id="edge5_Node000005_Node000006" class="edge">
<title>Node6&#45;&gt;Node5</title>
<g id="a_edge5_Node000005_Node000006"><a xlink:title=" ">
<path fill="none" stroke="#63b8ff" d="M448.19,-113.34C520.78,-112.53 638.96,-109.76 740.5,-100.62 746.26,-100.11 752.2,-99.48 758.18,-98.78"/>
<polygon fill="#63b8ff" stroke="#63b8ff" points="448.41,-109.84 438.45,-113.44 448.49,-116.84 448.41,-109.84"/>
</a>
</g>
</g>
<!-- Node7 -->
<g id="Node000007" class="node">
<title>Node7</title>
<g id="a_Node000007"><a xlink:href="structboost_1_1Assignable.html" target="_top" xlink:title="Go to http://www.sgi.com/tech/stl/Assignable.html.">
<polygon fill="white" stroke="#666666" points="118,-103.25 0,-103.25 0,-84 118,-84 118,-103.25"/>
<text xml:space="preserve" text-anchor="middle" x="59" y="-89.75" font-family="FreeSans" font-size="10.00">boost::Assignable&lt; T &gt;</text>
</a>
</g>
</g>
<!-- Node7&#45;&gt;Node6 -->
<g id="edge6_Node000006_Node000007" class="edge">
<title>Node7&#45;&gt;Node6</title>
<g id="a_edge6_Node000006_Node000007"><a xlink:title=" ">
<path fill="none" stroke="orange" stroke-dasharray="5,2" d="M129.49,-98C186.92,-101.61 267.46,-106.67 321.11,-110.05"/>
<polygon fill="orange" stroke="orange" points="130.04,-94.52 119.84,-97.39 129.6,-101.51 130.04,-94.52"/>
</a>
</g>
<text xml:space="preserve" text-anchor="start" x="140.88" y="-105.01" font-family="FreeSans" font-size="10.00" fill="grey">&lt; I &gt;</text>
</g>
<!-- Node9 -->
<g id="Node000009" class="node">
<title>Node9</title>
<g id="a_Node000009"><a xlink:href="structboost_1_1Assignable.html" target="_top" xlink:title=" ">
<polygon fill="white" stroke="#666666" points="303.5,-83.25 184.75,-83.25 184.75,-64 303.5,-64 303.5,-83.25"/>
<text xml:space="preserve" text-anchor="middle" x="244.12" y="-69.75" font-family="FreeSans" font-size="10.00">boost::Assignable&lt; X &gt;</text>
</a>
</g>
</g>
<!-- Node7&#45;&gt;Node9 -->
<g id="edge9_Node000009_Node000007" class="edge">
<title>Node7&#45;&gt;Node9</title>
<g id="a_edge9_Node000009_Node000007"><a xlink:title=" ">
<path fill="none" stroke="orange" stroke-dasharray="5,2" d="M103.63,-80.66C114.14,-78.07 125.39,-75.74 136,-74.38 151.59,-72.38 168.56,-71.62 184.3,-71.49"/>
<polygon fill="orange" stroke="orange" points="102.85,-77.25 94.05,-83.15 104.61,-84.02 102.85,-77.25"/>
</a>
</g>
<text xml:space="preserve" text-anchor="start" x="139" y="-79.12" font-family="FreeSans" font-size="10.00" fill="grey">&lt; X &gt;</text>
</g>
<!-- Node8 -->
<g id="Node000008" class="node">
<title>Node8</title>
<g id="a_Node000008"><a xlink:href="structDGtal_1_1concepts_1_1CUnaryFunctor.html" target="_top" xlink:title="Aim: Defines a unary functor, which associates arguments to results.">
<polygon fill="white" stroke="#666666" points="614.5,-86.88 454.5,-86.88 454.5,-56.38 614.5,-56.38 614.5,-86.88"/>
<text xml:space="preserve" text-anchor="start" x="462.5" y="-73.38" font-family="FreeSans" font-size="10.00">DGtal::concepts::CUnaryFunctor</text>
<text xml:space="preserve" text-anchor="middle" x="534.5" y="-62.12" font-family="FreeSans" font-size="10.00">&lt; X, A, R &gt;</text>
</a>
</g>
</g>
<!-- Node8&#45;&gt;Node5 -->
<g id="edge7_Node000005_Node000008" class="edge">
<title>Node8&#45;&gt;Node5</title>
<g id="a_edge7_Node000005_Node000008"><a xlink:title=" ">
<path fill="none" stroke="orange" stroke-dasharray="5,2" d="M626.2,-76.13C668.2,-78.22 717.66,-80.67 758.16,-82.68"/>
<polygon fill="orange" stroke="orange" points="626.52,-72.64 616.36,-75.64 626.17,-79.63 626.52,-72.64"/>
</a>
</g>
<text xml:space="preserve" text-anchor="start" x="637.75" y="-86.52" font-family="FreeSans" font-size="10.00" fill="grey">&lt; I, I::Point, I::Value &gt;</text>
</g>
<!-- Node11 -->
<g id="Node000011" class="node">
<title>Node11</title>
<g id="a_Node000011"><a xlink:href="structDGtal_1_1concepts_1_1CUnaryFunctor.html" target="_top" xlink:title=" ">
<polygon fill="white" stroke="#666666" points="918.5,-52.88 758.5,-52.88 758.5,-22.38 918.5,-22.38 918.5,-52.88"/>
<text xml:space="preserve" text-anchor="start" x="766.5" y="-39.38" font-family="FreeSans" font-size="10.00">DGtal::concepts::CUnaryFunctor</text>
<text xml:space="preserve" text-anchor="middle" x="838.5" y="-28.12" font-family="FreeSans" font-size="10.00">&lt; T, T::Point, T::Value &gt;</text>
</a>
</g>
</g>
<!-- Node8&#45;&gt;Node11 -->
<g id="edge13_Node000011_Node000008" class="edge">
<title>Node8&#45;&gt;Node11</title>
<g id="a_edge13_Node000011_Node000008"><a xlink:title=" ">
<path fill="none" stroke="orange" stroke-dasharray="5,2" d="M626.23,-56.2C628.34,-55.91 630.43,-55.64 632.5,-55.38 673.79,-50.14 719.95,-45.99 758,-43.03"/>
<polygon fill="orange" stroke="orange" points="625.74,-52.73 616.33,-57.6 626.72,-59.66 625.74,-52.73"/>
</a>
</g>
<text xml:space="preserve" text-anchor="start" x="635.5" y="-60.12" font-family="FreeSans" font-size="10.00" fill="grey">&lt; T, T::Point, T::Value &gt;</text>
</g>
<!-- Node9&#45;&gt;Node8 -->
<g id="edge8_Node000008_Node000009" class="edge">
<title>Node9&#45;&gt;Node8</title>
<g id="a_edge8_Node000008_Node000009"><a xlink:title=" ">
<path fill="none" stroke="#63b8ff" d="M315.33,-73.14C357.27,-72.85 410.64,-72.48 454.1,-72.18"/>
<polygon fill="#63b8ff" stroke="#63b8ff" points="315.32,-69.64 305.34,-73.21 315.37,-76.64 315.32,-69.64"/>
</a>
</g>
</g>
<!-- Node10 -->
<g id="Node000010" class="node">
<title>Node10</title>
<g id="a_Node000010"><a xlink:href="structDGtal_1_1concepts_1_1CPointFunctor.html" target="_top" xlink:title="Aim: Defines a functor on points.">
<polygon fill="white" stroke="#666666" points="1135.75,-55.25 955.5,-55.25 955.5,-36 1135.75,-36 1135.75,-55.25"/>
<text xml:space="preserve" text-anchor="middle" x="1045.62" y="-41.75" font-family="FreeSans" font-size="10.00">DGtal::concepts::CPointFunctor&lt; T &gt;</text>
</a>
</g>
</g>
<!-- Node10&#45;&gt;Node4 -->
<g id="edge10_Node000004_Node000010" class="edge">
<title>Node10&#45;&gt;Node4</title>
<g id="a_edge10_Node000004_Node000010"><a xlink:title=" ">
<path fill="none" stroke="orange" stroke-dasharray="5,2" d="M1147.37,-50.82C1158.64,-51.58 1169.94,-52.44 1180.75,-53.38 1188.01,-54.01 1195.55,-54.73 1203.11,-55.51"/>
<polygon fill="orange" stroke="orange" points="1147.86,-47.34 1137.65,-50.18 1147.4,-54.33 1147.86,-47.34"/>
</a>
</g>
<text xml:space="preserve" text-anchor="start" x="1156.75" y="-58.12" font-family="FreeSans" font-size="10.00" fill="grey">&lt; I &gt;</text>
</g>
<!-- Node11&#45;&gt;Node10 -->
<g id="edge11_Node000010_Node000011" class="edge">
<title>Node11&#45;&gt;Node10</title>
<g id="a_edge11_Node000010_Node000011"><a xlink:title=" ">
<path fill="none" stroke="#63b8ff" d="M930.12,-41.16C938.48,-41.49 946.95,-41.82 955.3,-42.14"/>
<polygon fill="#63b8ff" stroke="#63b8ff" points="930.45,-37.67 920.32,-40.78 930.18,-44.66 930.45,-37.67"/>
</a>
</g>
</g>
<!-- Node12 -->
<g id="Node000012" class="node">
<title>Node12</title>
<g id="a_Node000012"><a xlink:href="structboost_1_1Assignable.html" target="_top" xlink:title="Go to http://www.sgi.com/tech/stl/Assignable.html.">
<polygon fill="white" stroke="#666666" points="593.5,-19.25 475.5,-19.25 475.5,0 593.5,0 593.5,-19.25"/>
<text xml:space="preserve" text-anchor="middle" x="534.5" y="-5.75" font-family="FreeSans" font-size="10.00">boost::Assignable&lt; T &gt;</text>
</a>
</g>
</g>
<!-- Node12&#45;&gt;Node11 -->
<g id="edge12_Node000011_Node000012" class="edge">
<title>Node12&#45;&gt;Node11</title>
<g id="a_edge12_Node000011_Node000012"><a xlink:title=" ">
<path fill="none" stroke="#63b8ff" d="M605.34,-13.09C645.03,-15.39 695.62,-18.86 740.5,-23.62 746.25,-24.24 752.19,-24.93 758.16,-25.68"/>
<polygon fill="#63b8ff" stroke="#63b8ff" points="605.61,-9.6 595.43,-12.53 605.22,-16.59 605.61,-9.6"/>
</a>
</g>
</g>
<!-- Node13&#45;&gt;Node1 -->
<g id="edge14_Node000001_Node000013" class="edge">
<title>Node13&#45;&gt;Node1</title>
<g id="a_edge14_Node000001_Node000013"><a xlink:title=" ">
<path fill="none" stroke="#63b8ff" d="M1739.36,-52.5C1755.53,-54.23 1772.65,-56.05 1788.81,-57.78"/>
<polygon fill="#63b8ff" stroke="#63b8ff" points="1740.15,-49.07 1729.84,-51.49 1739.41,-56.03 1740.15,-49.07"/>
</a>
</g>
</g>
</g>
</svg>

<g id="navigator" transform="translate(0 0)" fill="#404254">
  <rect fill="#f2f5e9" fill-opacity="0.5" stroke="#606060" stroke-width=".5" x="0" y="0" width="60" height="60"/>
  <use id="zoomplus" xlink:href="#zoomPlus" x="17" y="9" onmousedown="handleZoom(evt,'in')"/>
  <use id="zoomminus" xlink:href="#zoomMin" x="42" y="9" onmousedown="handleZoom(evt,'out')"/>
  <use id="reset" xlink:href="#resetDef" x="30" y="36" onmousedown="handleReset()"/>
   <use id="arrowup" xlink:href="#arrowUp" x="0" y="0" onmousedown="handlePan(0,-1)"/>
  <use id="arrowright" xlink:href="#arrowRight" x="0" y="0" onmousedown="handlePan(1,0)"/>
  <use id="arrowdown" xlink:href="#arrowDown" x="0" y="0" onmousedown="handlePan(0,1)"/>
  <use id="arrowleft" xlink:href="#arrowLeft" x="0" y="0" onmousedown="handlePan(-1,0)"/>
</g>
<svg viewBox="0 0 15 15" width="100%" height="30px" preserveAspectRatio="xMaxYMin meet">
 <g id="arrow_out" transform="scale(0.3 0.3)">
  <a xlink:href="structDGtal_1_1concepts_1_1CImage__inherit__graph_org.svg" target="_base">
   <rect id="button" ry="5" rx="5" y="6" x="6" height="38" width="38"
        fill="#f2f5e9" fill-opacity="0.5" stroke="#606060" stroke-width="1.0"/>
   <path id="arrow"
     d="M 11.500037,31.436501 C 11.940474,20.09759 22.043105,11.32322 32.158766,21.979434 L 37.068811,17.246167 C 37.068811,17.246167 37.088388,32 37.088388,32 L 22.160133,31.978069 C 22.160133,31.978069 26.997745,27.140456 26.997745,27.140456 C 18.528582,18.264221 13.291696,25.230495 11.500037,31.436501 z"
     style="fill:#404040;"/>
  </a>
 </g>
</svg>

<style type='text/css'>
<![CDATA[
[data-mouse-over-selected='false'] { opacity: 0.7; }
[data-mouse-over-selected='true']  { opacity: 1.0; }
]]>
</style>
<script type="application/ecmascript"><![CDATA[
document.addEventListener('DOMContentLoaded', (event) => {
  highlightEdges();
  highlightAdjacentNodes();
});
]]></script>
</svg>
