<?xml version="1.0" encoding="UTF-8" standalone="no"?>
<!DOCTYPE svg PUBLIC "-//W3C//DTD SVG 1.1//EN"
 "http://www.w3.org/Graphics/SVG/1.1/DTD/svg11.dtd">
<!-- Generated by graphviz version 14.1.0 (20251206.1807)
 -->
<!-- Title: DGtal::ConvexHullIntegralKernel&lt; dim, TCoordinateInteger, TInternalInteger &gt; Pages: 1 -->
<svg width="1004pt" height="354pt"
 viewBox="0.00 0.00 1004.00 354.00" xmlns="http://www.w3.org/2000/svg" xmlns:xlink="http://www.w3.org/1999/xlink">
<g id="graph0" class="graph" transform="scale(1 1) rotate(0) translate(4 349.88)">
<title>DGtal::ConvexHullIntegralKernel&lt; dim, TCoordinateInteger, TInternalInteger &gt;</title>
<!-- Node1 -->
<g id="Node000001" class="node">
<title>Node1</title>
<g id="a_Node000001"><a xlink:title="Aim: a geometric kernel to compute the convex hull of digital points with integer&#45;only arithmetic.">
<polygon fill="#999999" stroke="#666666" points="661,-180.75 501,-180.75 501,-139 661,-139 661,-180.75"/>
<text xml:space="preserve" text-anchor="start" x="509" y="-167.25" font-family="FreeSans" font-size="10.00">DGtal::ConvexHullIntegral</text>
<text xml:space="preserve" text-anchor="start" x="509" y="-156" font-family="FreeSans" font-size="10.00">Kernel&lt; dim, TCoordinateInteger,</text>
<text xml:space="preserve" text-anchor="middle" x="581" y="-144.75" font-family="FreeSans" font-size="10.00"> TInternalInteger &gt;</text>
</a>
</g>
</g>
<!-- Node1&#45;&gt;Node1 -->
<g id="edge3_Node000001_Node000001" class="edge">
<title>Node1&#45;&gt;Node1</title>
<g id="a_edge3_Node000001_Node000001"><a xlink:title=" ">
<path fill="none" stroke="orange" stroke-dasharray="5,2" d="M573.01,-192.2C574.44,-196.16 577.1,-198.75 581,-198.75 587.93,-198.75 590.96,-190.55 590.09,-181.07"/>
<polygon fill="orange" stroke="orange" points="576.53,-192.18 572.06,-182.57 569.56,-192.87 576.53,-192.18"/>
</a>
</g>
<text xml:space="preserve" text-anchor="start" x="522.88" y="-218.75" font-family="FreeSans" font-size="10.00" fill="grey">&lt; dim, TCoordinateInteger,</text>
<text xml:space="preserve" text-anchor="start" x="522.88" y="-203.5" font-family="FreeSans" font-size="10.00" fill="grey">   TInternalInteger &gt;</text>
</g>
<!-- Node1&#45;&gt;Node1 -->
<g id="edge6_Node000001_Node000001" class="edge">
<title>Node1&#45;&gt;Node1</title>
<g id="a_edge6_Node000001_Node000001"><a xlink:title=" ">
<path fill="none" stroke="orange" stroke-dasharray="5,2" d="M563.43,-192.21C560.12,-211.73 565.97,-231.25 581,-231.25 598.89,-231.25 603.78,-203.58 595.68,-181.18"/>
<polygon fill="orange" stroke="orange" points="566.79,-193.2 565.94,-182.64 560.02,-191.42 566.79,-193.2"/>
</a>
</g>
<text xml:space="preserve" text-anchor="start" x="522.88" y="-251.25" font-family="FreeSans" font-size="10.00" fill="grey">&lt; dim, TCoordinateInteger,</text>
<text xml:space="preserve" text-anchor="start" x="522.88" y="-236" font-family="FreeSans" font-size="10.00" fill="grey">   TInternalInteger &gt;</text>
</g>
<!-- Node4 -->
<g id="Node000004" class="node">
<title>Node4</title>
<g id="a_Node000004"><a xlink:href="structDGtal_1_1ConvexHullIntegralKernel.html" target="_top" xlink:title=" ">
<polygon fill="white" stroke="#666666" points="987.12,-330.75 836.12,-330.75 836.12,-289 987.12,-289 987.12,-330.75"/>
<text xml:space="preserve" text-anchor="start" x="844.12" y="-317.25" font-family="FreeSans" font-size="10.00">DGtal::ConvexHullIntegral</text>
<text xml:space="preserve" text-anchor="start" x="844.12" y="-306" font-family="FreeSans" font-size="10.00">Kernel&lt; K, TCoordinateInteger,</text>
<text xml:space="preserve" text-anchor="middle" x="911.62" y="-294.75" font-family="FreeSans" font-size="10.00"> TInternalInteger &gt;</text>
</a>
</g>
</g>
<!-- Node1&#45;&gt;Node4 -->
<g id="edge4_Node000001_Node000004" class="edge">
<title>Node1&#45;&gt;Node4</title>
<g id="a_edge4_Node000001_Node000004"><a xlink:title=" ">
<path fill="none" stroke="orange" stroke-dasharray="5,2" d="M597.82,-191.05C614.07,-219.54 642.16,-260.28 679,-280.88 726.58,-307.48 788.1,-314.13 835.78,-314.45"/>
<polygon fill="orange" stroke="orange" points="601,-189.56 593.11,-182.49 594.87,-192.94 601,-189.56"/>
</a>
</g>
<text xml:space="preserve" text-anchor="start" x="690.62" y="-333.38" font-family="FreeSans" font-size="10.00" fill="grey">&lt; K, TCoordinateInteger,</text>
<text xml:space="preserve" text-anchor="start" x="690.62" y="-318.13" font-family="FreeSans" font-size="10.00" fill="grey">   TInternalInteger &gt;</text>
</g>
<!-- Node5 -->
<g id="Node000005" class="node">
<title>Node5</title>
<g id="a_Node000005"><a xlink:href="structDGtal_1_1ConvexHullIntegralKernel.html" target="_top" xlink:title=" ">
<polygon fill="white" stroke="#666666" points="986.38,-270.75 836.88,-270.75 836.88,-229 986.38,-229 986.38,-270.75"/>
<text xml:space="preserve" text-anchor="start" x="844.88" y="-257.25" font-family="FreeSans" font-size="10.00">DGtal::ConvexHullIntegral</text>
<text xml:space="preserve" text-anchor="start" x="844.88" y="-246" font-family="FreeSans" font-size="10.00">Kernel&lt; 1, TCoordinateInteger,</text>
<text xml:space="preserve" text-anchor="middle" x="911.62" y="-234.75" font-family="FreeSans" font-size="10.00"> TInternalInteger &gt;</text>
</a>
</g>
</g>
<!-- Node1&#45;&gt;Node5 -->
<g id="edge5_Node000001_Node000005" class="edge">
<title>Node1&#45;&gt;Node5</title>
<g id="a_edge5_Node000001_Node000005"><a xlink:title=" ">
<path fill="none" stroke="orange" stroke-dasharray="5,2" d="M620.71,-187.33C637.83,-198.19 658.66,-209.76 679,-216.88 729.8,-234.64 790.07,-242.86 836.39,-246.65"/>
<polygon fill="orange" stroke="orange" points="622.65,-184.41 612.36,-181.88 618.83,-190.27 622.65,-184.41"/>
</a>
</g>
<text xml:space="preserve" text-anchor="start" x="691.38" y="-264" font-family="FreeSans" font-size="10.00" fill="grey">&lt; 1, TCoordinateInteger,</text>
<text xml:space="preserve" text-anchor="start" x="691.38" y="-248.75" font-family="FreeSans" font-size="10.00" fill="grey">   TInternalInteger &gt;</text>
</g>
<!-- Node6 -->
<g id="Node000006" class="node">
<title>Node6</title>
<g id="a_Node000006"><a xlink:href="structDGtal_1_1ConvexHullIntegralKernel.html" target="_top" xlink:title=" ">
<polygon fill="white" stroke="#666666" points="995.75,-210.75 827.5,-210.75 827.5,-169 995.75,-169 995.75,-210.75"/>
<text xml:space="preserve" text-anchor="start" x="835.5" y="-197.25" font-family="FreeSans" font-size="10.00">DGtal::ConvexHullIntegral</text>
<text xml:space="preserve" text-anchor="start" x="835.5" y="-186" font-family="FreeSans" font-size="10.00">Kernel&lt; dim&#45;1, TCoordinateInteger,</text>
<text xml:space="preserve" text-anchor="middle" x="911.62" y="-174.75" font-family="FreeSans" font-size="10.00"> TInternalInteger &gt;</text>
</a>
</g>
</g>
<!-- Node1&#45;&gt;Node6 -->
<g id="edge7_Node000001_Node000006" class="edge">
<title>Node1&#45;&gt;Node6</title>
<g id="a_edge7_Node000001_Node000006"><a xlink:title=" ">
<path fill="none" stroke="orange" stroke-dasharray="5,2" d="M672.53,-168.14C720.81,-172.55 779.82,-177.93 827.02,-182.24"/>
<polygon fill="orange" stroke="orange" points="672.92,-164.66 662.64,-167.24 672.28,-171.63 672.92,-164.66"/>
</a>
</g>
<text xml:space="preserve" text-anchor="start" x="682" y="-200.17" font-family="FreeSans" font-size="10.00" fill="grey">&lt; dim&#45;1, TCoordinateInteger,</text>
<text xml:space="preserve" text-anchor="start" x="682" y="-184.92" font-family="FreeSans" font-size="10.00" fill="grey">   TInternalInteger &gt;</text>
</g>
<!-- Node7 -->
<g id="Node000007" class="node">
<title>Node7</title>
<g id="a_Node000007"><a xlink:href="structDGtal_1_1ConvexHullIntegralKernel.html" target="_top" xlink:title=" ">
<polygon fill="white" stroke="#666666" points="982.62,-150.75 840.62,-150.75 840.62,-109 982.62,-109 982.62,-150.75"/>
<text xml:space="preserve" text-anchor="start" x="848.62" y="-137.25" font-family="FreeSans" font-size="10.00">DGtal::ConvexHullIntegral</text>
<text xml:space="preserve" text-anchor="start" x="848.62" y="-126" font-family="FreeSans" font-size="10.00">Kernel&lt; dim, Integer, Internal</text>
<text xml:space="preserve" text-anchor="middle" x="911.62" y="-114.75" font-family="FreeSans" font-size="10.00">Integer &gt;</text>
</a>
</g>
</g>
<!-- Node1&#45;&gt;Node7 -->
<g id="edge8_Node000001_Node000007" class="edge">
<title>Node1&#45;&gt;Node7</title>
<g id="a_edge8_Node000001_Node000007"><a xlink:title=" ">
<path fill="none" stroke="orange" stroke-dasharray="5,2" d="M659.52,-135.95C666.07,-134.52 672.62,-133.3 679,-132.38 732.73,-124.61 794.21,-124.34 840.32,-125.82"/>
<polygon fill="orange" stroke="orange" points="658.97,-132.48 650.02,-138.17 660.56,-139.3 658.97,-132.48"/>
</a>
</g>
<text xml:space="preserve" text-anchor="start" x="695.12" y="-152.38" font-family="FreeSans" font-size="10.00" fill="grey">&lt; dim, Integer, Internal</text>
<text xml:space="preserve" text-anchor="start" x="695.12" y="-137.12" font-family="FreeSans" font-size="10.00" fill="grey">  Integer &gt;</text>
</g>
<!-- Node8 -->
<g id="Node000008" class="node">
<title>Node8</title>
<g id="a_Node000008"><a xlink:href="structDGtal_1_1ConvexHullIntegralKernel.html" target="_top" xlink:title=" ">
<polygon fill="white" stroke="#666666" points="977,-91.12 846.25,-91.12 846.25,-60.62 977,-60.62 977,-91.12"/>
<text xml:space="preserve" text-anchor="start" x="854.25" y="-77.62" font-family="FreeSans" font-size="10.00">DGtal::ConvexHullIntegral</text>
<text xml:space="preserve" text-anchor="middle" x="911.62" y="-66.38" font-family="FreeSans" font-size="10.00">Kernel&lt; 3 &gt;</text>
</a>
</g>
</g>
<!-- Node1&#45;&gt;Node8 -->
<g id="edge9_Node000001_Node000008" class="edge">
<title>Node1&#45;&gt;Node8</title>
<g id="a_edge9_Node000001_Node000008"><a xlink:title=" ">
<path fill="none" stroke="orange" stroke-dasharray="5,2" d="M621.07,-132.33C638.11,-121.65 658.78,-110.38 679,-103.62 733.45,-85.44 798.62,-78.88 845.94,-76.66"/>
<polygon fill="orange" stroke="orange" points="619.27,-129.33 612.77,-137.7 623.07,-135.21 619.27,-129.33"/>
</a>
</g>
<text xml:space="preserve" text-anchor="start" x="732.62" y="-108.38" font-family="FreeSans" font-size="10.00" fill="grey">&lt; 3 &gt;</text>
</g>
<!-- Node9 -->
<g id="Node000009" class="node">
<title>Node9</title>
<g id="a_Node000009"><a xlink:href="structDGtal_1_1ConvexHullIntegralKernel.html" target="_top" xlink:title=" ">
<polygon fill="white" stroke="#666666" points="977,-41.75 846.25,-41.75 846.25,0 977,0 977,-41.75"/>
<text xml:space="preserve" text-anchor="start" x="854.25" y="-28.25" font-family="FreeSans" font-size="10.00">DGtal::ConvexHullIntegral</text>
<text xml:space="preserve" text-anchor="start" x="854.25" y="-17" font-family="FreeSans" font-size="10.00">Kernel&lt; dim, DGtal::int64</text>
<text xml:space="preserve" text-anchor="middle" x="911.62" y="-5.75" font-family="FreeSans" font-size="10.00">_t, DGtal::int64_t &gt;</text>
</a>
</g>
</g>
<!-- Node1&#45;&gt;Node9 -->
<g id="edge10_Node000001_Node000009" class="edge">
<title>Node1&#45;&gt;Node9</title>
<g id="a_edge10_Node000001_Node000009"><a xlink:title=" ">
<path fill="none" stroke="orange" stroke-dasharray="5,2" d="M598.19,-128.85C614.53,-101.01 642.56,-61.66 679,-42.38 730.4,-15.18 797.27,-11.78 845.93,-14"/>
<polygon fill="orange" stroke="orange" points="595.33,-126.79 593.45,-137.21 601.42,-130.24 595.33,-126.79"/>
</a>
</g>
<text xml:space="preserve" text-anchor="start" x="699.25" y="-62.38" font-family="FreeSans" font-size="10.00" fill="grey">&lt; dim, DGtal::int64</text>
<text xml:space="preserve" text-anchor="start" x="699.25" y="-47.12" font-family="FreeSans" font-size="10.00" fill="grey">  _t, DGtal::int64_t &gt;</text>
</g>
<!-- Node2 -->
<g id="Node000002" class="node">
<title>Node2</title>
<g id="a_Node000002"><a xlink:href="structDGtal_1_1ConvexHullCommonKernel.html" target="_top" xlink:title=" ">
<polygon fill="white" stroke="#666666" points="464,-180.75 298,-180.75 298,-139 464,-139 464,-180.75"/>
<text xml:space="preserve" text-anchor="start" x="306" y="-167.25" font-family="FreeSans" font-size="10.00">DGtal::ConvexHullCommonKernel</text>
<text xml:space="preserve" text-anchor="start" x="306" y="-156" font-family="FreeSans" font-size="10.00">&lt; dim, DGtal::int64_t, DGtal</text>
<text xml:space="preserve" text-anchor="middle" x="381" y="-144.75" font-family="FreeSans" font-size="10.00">::int64_t &gt;</text>
</a>
</g>
</g>
<!-- Node2&#45;&gt;Node1 -->
<g id="edge1_Node000001_Node000002" class="edge">
<title>Node2&#45;&gt;Node1</title>
<g id="a_edge1_Node000001_Node000002"><a xlink:title=" ">
<path fill="none" stroke="#63b8ff" d="M475.58,-159.88C483.93,-159.88 492.33,-159.88 500.55,-159.88"/>
<polygon fill="#63b8ff" stroke="#63b8ff" points="475.76,-156.38 465.76,-159.88 475.76,-163.38 475.76,-156.38"/>
</a>
</g>
</g>
<!-- Node3 -->
<g id="Node000003" class="node">
<title>Node3</title>
<g id="a_Node000003"><a xlink:href="structDGtal_1_1ConvexHullCommonKernel.html" target="_top" xlink:title="Aim: the common part of all geometric kernels for computing the convex hull or Delaunay triangulation...">
<polygon fill="white" stroke="#666666" points="166,-180.75 0,-180.75 0,-139 166,-139 166,-180.75"/>
<text xml:space="preserve" text-anchor="start" x="8" y="-167.25" font-family="FreeSans" font-size="10.00">DGtal::ConvexHullCommonKernel</text>
<text xml:space="preserve" text-anchor="start" x="8" y="-156" font-family="FreeSans" font-size="10.00">&lt; dim, TCoordinateInteger,</text>
<text xml:space="preserve" text-anchor="middle" x="83" y="-144.75" font-family="FreeSans" font-size="10.00"> TInternalInteger &gt;</text>
</a>
</g>
</g>
<!-- Node3&#45;&gt;Node2 -->
<g id="edge2_Node000002_Node000003" class="edge">
<title>Node3&#45;&gt;Node2</title>
<g id="a_edge2_Node000002_Node000003"><a xlink:title=" ">
<path fill="none" stroke="orange" stroke-dasharray="5,2" d="M177.69,-159.88C216.22,-159.88 260.47,-159.88 297.73,-159.88"/>
<polygon fill="orange" stroke="orange" points="177.97,-156.38 167.97,-159.88 177.97,-163.38 177.97,-156.38"/>
</a>
</g>
<text xml:space="preserve" text-anchor="start" x="187" y="-179.88" font-family="FreeSans" font-size="10.00" fill="grey">&lt; dim, DGtal::int64</text>
<text xml:space="preserve" text-anchor="start" x="187" y="-164.62" font-family="FreeSans" font-size="10.00" fill="grey">  _t, DGtal::int64_t &gt;</text>
</g>
</g>
</svg>
