<?xml version="1.0" encoding="UTF-8" standalone="no"?>
<!DOCTYPE svg PUBLIC "-//W3C//DTD SVG 1.1//EN"
 "http://www.w3.org/Graphics/SVG/1.1/DTD/svg11.dtd">
<!-- Generated by graphviz version 14.1.0 (20251206.1807)
 -->
<!-- Title: DGtal::ConvexHullCommonKernel&lt; dim, TCoordinateInteger, TInternalInteger &gt; Pages: 1 -->
<svg width="1044pt" height="1206pt"
 viewBox="0.00 0.00 1044.00 1206.00" xmlns="http://www.w3.org/2000/svg" xmlns:xlink="http://www.w3.org/1999/xlink">
<g id="graph0" class="graph" transform="scale(1 1) rotate(0) translate(4 1202.13)">
<title>DGtal::ConvexHullCommonKernel&lt; dim, TCoordinateInteger, TInternalInteger &gt;</title>
<!-- Node1 -->
<g id="Node000001" class="node">
<title>Node1</title>
<g id="a_Node000001"><a xlink:title="Aim: the common part of all geometric kernels for computing the convex hull or Delaunay triangulation...">
<polygon fill="#999999" stroke="#666666" points="166,-516.13 0,-516.13 0,-474.38 166,-474.38 166,-516.13"/>
<text xml:space="preserve" text-anchor="start" x="8" y="-502.63" font-family="FreeSans" font-size="10.00">DGtal::ConvexHullCommonKernel</text>
<text xml:space="preserve" text-anchor="start" x="8" y="-491.38" font-family="FreeSans" font-size="10.00">&lt; dim, TCoordinateInteger,</text>
<text xml:space="preserve" text-anchor="middle" x="83" y="-480.13" font-family="FreeSans" font-size="10.00"> TInternalInteger &gt;</text>
</a>
</g>
</g>
<!-- Node1&#45;&gt;Node1 -->
<g id="edge1_Node000001_Node000001" class="edge">
<title>Node1&#45;&gt;Node1</title>
<g id="a_edge1_Node000001_Node000001"><a xlink:title=" ">
<path fill="none" stroke="orange" stroke-dasharray="5,2" d="M69.52,-527.58C71.93,-531.53 76.42,-534.13 83,-534.13 94.69,-534.13 99.8,-525.93 98.34,-516.45"/>
<polygon fill="orange" stroke="orange" points="73.01,-527.23 67.91,-517.94 66.1,-528.38 73.01,-527.23"/>
</a>
</g>
<text xml:space="preserve" text-anchor="start" x="24.88" y="-554.13" font-family="FreeSans" font-size="10.00" fill="grey">&lt; dim, TCoordinateInteger,</text>
<text xml:space="preserve" text-anchor="start" x="24.88" y="-538.88" font-family="FreeSans" font-size="10.00" fill="grey">   TInternalInteger &gt;</text>
</g>
<!-- Node1&#45;&gt;Node1 -->
<g id="edge6_Node000001_Node000001" class="edge">
<title>Node1&#45;&gt;Node1</title>
<g id="a_edge6_Node000001_Node000001"><a xlink:title=" ">
<path fill="none" stroke="orange" stroke-dasharray="5,2" d="M53.5,-527.04C47.57,-546.75 57.4,-566.63 83,-566.63 113.2,-566.63 121.45,-538.96 107.77,-516.55"/>
<polygon fill="orange" stroke="orange" points="56.69,-528.49 57.61,-517.93 50.31,-525.61 56.69,-528.49"/>
</a>
</g>
<text xml:space="preserve" text-anchor="start" x="24.88" y="-586.63" font-family="FreeSans" font-size="10.00" fill="grey">&lt; dim, TCoordinateInteger,</text>
<text xml:space="preserve" text-anchor="start" x="24.88" y="-571.38" font-family="FreeSans" font-size="10.00" fill="grey">   TInternalInteger &gt;</text>
</g>
<!-- Node2 -->
<g id="Node000002" class="node">
<title>Node2</title>
<g id="a_Node000002"><a xlink:href="structDGtal_1_1ConvexHullIntegralKernel.html" target="_top" xlink:title=" ">
<polygon fill="white" stroke="#666666" points="1023.12,-1198.13 881.12,-1198.13 881.12,-1156.38 1023.12,-1156.38 1023.12,-1198.13"/>
<text xml:space="preserve" text-anchor="start" x="889.12" y="-1184.63" font-family="FreeSans" font-size="10.00">DGtal::ConvexHullIntegral</text>
<text xml:space="preserve" text-anchor="start" x="889.12" y="-1173.38" font-family="FreeSans" font-size="10.00">Kernel&lt; dim, Integer, Internal</text>
<text xml:space="preserve" text-anchor="middle" x="952.12" y="-1162.13" font-family="FreeSans" font-size="10.00">Integer &gt;</text>
</a>
</g>
</g>
<!-- Node1&#45;&gt;Node2 -->
<g id="edge2_Node000001_Node000002" class="edge">
<title>Node1&#45;&gt;Node2</title>
<g id="a_edge2_Node000001_Node000002"><a xlink:title=" ">
<path fill="none" stroke="#63b8ff" d="M93.38,-527.31C107.79,-573 138.56,-658.08 184,-719.25 371.61,-971.82 424.65,-1072.46 719.5,-1182.25 771.05,-1201.45 833.62,-1198.71 880.72,-1191.99"/>
<polygon fill="#63b8ff" stroke="#63b8ff" points="96.73,-526.28 90.43,-517.76 90.04,-528.35 96.73,-526.28"/>
</a>
</g>
</g>
<!-- Node3 -->
<g id="Node000003" class="node">
<title>Node3</title>
<g id="a_Node000003"><a xlink:href="structDGtal_1_1ConvexHullRationalKernel.html" target="_top" xlink:title=" ">
<polygon fill="white" stroke="#666666" points="1023.12,-614.13 881.12,-614.13 881.12,-572.38 1023.12,-572.38 1023.12,-614.13"/>
<text xml:space="preserve" text-anchor="start" x="889.12" y="-600.63" font-family="FreeSans" font-size="10.00">DGtal::ConvexHullRational</text>
<text xml:space="preserve" text-anchor="start" x="889.12" y="-589.38" font-family="FreeSans" font-size="10.00">Kernel&lt; dim, Integer, Internal</text>
<text xml:space="preserve" text-anchor="middle" x="952.12" y="-578.13" font-family="FreeSans" font-size="10.00">Integer &gt;</text>
</a>
</g>
</g>
<!-- Node1&#45;&gt;Node3 -->
<g id="edge3_Node000001_Node000003" class="edge">
<title>Node1&#45;&gt;Node3</title>
<g id="a_edge3_Node000001_Node000003"><a xlink:title=" ">
<path fill="none" stroke="#63b8ff" d="M177.43,-515.2C179.64,-515.57 181.83,-515.92 184,-516.25 439.13,-555.73 745.27,-579.43 880.74,-588.72"/>
<polygon fill="#63b8ff" stroke="#63b8ff" points="178.22,-511.78 167.76,-513.52 177.02,-518.68 178.22,-511.78"/>
</a>
</g>
</g>
<!-- Node4 -->
<g id="Node000004" class="node">
<title>Node4</title>
<g id="a_Node000004"><a xlink:href="structDGtal_1_1DelaunayIntegralKernel.html" target="_top" xlink:title=" ">
<polygon fill="white" stroke="#666666" points="1028.75,-548.5 875.5,-548.5 875.5,-518 1028.75,-518 1028.75,-548.5"/>
<text xml:space="preserve" text-anchor="start" x="883.5" y="-535" font-family="FreeSans" font-size="10.00">DGtal::DelaunayIntegralKernel</text>
<text xml:space="preserve" text-anchor="middle" x="952.12" y="-523.75" font-family="FreeSans" font-size="10.00">&lt; dim, Integer, InternalInteger &gt;</text>
</a>
</g>
</g>
<!-- Node1&#45;&gt;Node4 -->
<g id="edge4_Node000001_Node000004" class="edge">
<title>Node1&#45;&gt;Node4</title>
<g id="a_edge4_Node000001_Node000004"><a xlink:title=" ">
<path fill="none" stroke="#63b8ff" d="M177.72,-499.36C350.64,-506.94 716.66,-522.98 875.23,-529.93"/>
<polygon fill="#63b8ff" stroke="#63b8ff" points="178.01,-495.87 167.87,-498.93 177.71,-502.86 178.01,-495.87"/>
</a>
</g>
</g>
<!-- Node5 -->
<g id="Node000005" class="node">
<title>Node5</title>
<g id="a_Node000005"><a xlink:href="structDGtal_1_1DelaunayRationalKernel.html" target="_top" xlink:title=" ">
<polygon fill="white" stroke="#666666" points="1028.75,-108.5 875.5,-108.5 875.5,-78 1028.75,-78 1028.75,-108.5"/>
<text xml:space="preserve" text-anchor="start" x="883.5" y="-95" font-family="FreeSans" font-size="10.00">DGtal::DelaunayRationalKernel</text>
<text xml:space="preserve" text-anchor="middle" x="952.12" y="-83.75" font-family="FreeSans" font-size="10.00">&lt; dim, Integer, InternalInteger &gt;</text>
</a>
</g>
</g>
<!-- Node1&#45;&gt;Node5 -->
<g id="edge5_Node000001_Node000005" class="edge">
<title>Node1&#45;&gt;Node5</title>
<g id="a_edge5_Node000001_Node000005"><a xlink:title=" ">
<path fill="none" stroke="#63b8ff" d="M96.78,-463.63C112.58,-428.03 142.54,-370.42 184,-334.25 380.39,-162.91 464.83,-150.66 719.5,-95.25 770.58,-84.14 829.52,-83.8 875.15,-86.15"/>
<polygon fill="#63b8ff" stroke="#63b8ff" points="93.69,-461.97 92.94,-472.54 100.12,-464.75 93.69,-461.97"/>
</a>
</g>
</g>
<!-- Node6 -->
<g id="Node000006" class="node">
<title>Node6</title>
<g id="a_Node000006"><a xlink:href="structDGtal_1_1ConvexHullCommonKernel.html" target="_top" xlink:title=" ">
<polygon fill="white" stroke="#666666" points="498.5,-48.13 332.5,-48.13 332.5,-6.38 498.5,-6.38 498.5,-48.13"/>
<text xml:space="preserve" text-anchor="start" x="340.5" y="-34.63" font-family="FreeSans" font-size="10.00">DGtal::ConvexHullCommonKernel</text>
<text xml:space="preserve" text-anchor="start" x="340.5" y="-23.38" font-family="FreeSans" font-size="10.00">&lt; dim&#45;1, TCoordinateInteger,</text>
<text xml:space="preserve" text-anchor="middle" x="415.5" y="-12.13" font-family="FreeSans" font-size="10.00"> TInternalInteger &gt;</text>
</a>
</g>
</g>
<!-- Node1&#45;&gt;Node6 -->
<g id="edge7_Node000001_Node000006" class="edge">
<title>Node1&#45;&gt;Node6</title>
<g id="a_edge7_Node000001_Node000006"><a xlink:title=" ">
<path fill="none" stroke="orange" stroke-dasharray="5,2" d="M85.9,-462.57C92.27,-365.96 116.4,-84.98 184,-29.75 226.46,4.93 289.49,3.21 338.91,-5.89"/>
<polygon fill="orange" stroke="orange" points="82.42,-462.21 85.28,-472.41 89.41,-462.66 82.42,-462.21"/>
</a>
</g>
<text xml:space="preserve" text-anchor="start" x="187" y="-49.75" font-family="FreeSans" font-size="10.00" fill="grey">&lt; dim&#45;1, TCoordinateInteger,</text>
<text xml:space="preserve" text-anchor="start" x="187" y="-34.5" font-family="FreeSans" font-size="10.00" fill="grey">   TInternalInteger &gt;</text>
</g>
<!-- Node7 -->
<g id="Node000007" class="node">
<title>Node7</title>
<g id="a_Node000007"><a xlink:href="structDGtal_1_1ConvexHullCommonKernel.html" target="_top" xlink:title=" ">
<polygon fill="white" stroke="#666666" points="701.5,-452.13 535.5,-452.13 535.5,-410.38 701.5,-410.38 701.5,-452.13"/>
<text xml:space="preserve" text-anchor="start" x="543.5" y="-438.63" font-family="FreeSans" font-size="10.00">DGtal::ConvexHullCommonKernel</text>
<text xml:space="preserve" text-anchor="start" x="543.5" y="-427.38" font-family="FreeSans" font-size="10.00">&lt; dim+1, TCoordinateInteger,</text>
<text xml:space="preserve" text-anchor="middle" x="618.5" y="-416.13" font-family="FreeSans" font-size="10.00"> TInternalInteger &gt;</text>
</a>
</g>
</g>
<!-- Node1&#45;&gt;Node7 -->
<g id="edge8_Node000001_Node000007" class="edge">
<title>Node1&#45;&gt;Node7</title>
<g id="a_edge8_Node000001_Node000007"><a xlink:title=" ">
<path fill="none" stroke="orange" stroke-dasharray="5,2" d="M177.62,-484.02C278.88,-471.88 438.74,-452.7 535.31,-441.11"/>
<polygon fill="orange" stroke="orange" points="177.5,-480.51 167.98,-485.18 178.33,-487.46 177.5,-480.51"/>
</a>
</g>
<text xml:space="preserve" text-anchor="start" x="351.75" y="-485.39" font-family="FreeSans" font-size="10.00" fill="grey">&lt; dim+1, TCoordinateInteger,</text>
<text xml:space="preserve" text-anchor="start" x="351.75" y="-470.14" font-family="FreeSans" font-size="10.00" fill="grey">   TInternalInteger &gt;</text>
</g>
<!-- Node12 -->
<g id="Node000012" class="node">
<title>Node12</title>
<g id="a_Node000012"><a xlink:href="structDGtal_1_1ConvexHullCommonKernel.html" target="_top" xlink:title=" ">
<polygon fill="white" stroke="#666666" points="498.5,-776.13 332.5,-776.13 332.5,-734.38 498.5,-734.38 498.5,-776.13"/>
<text xml:space="preserve" text-anchor="start" x="340.5" y="-762.63" font-family="FreeSans" font-size="10.00">DGtal::ConvexHullCommonKernel</text>
<text xml:space="preserve" text-anchor="start" x="340.5" y="-751.38" font-family="FreeSans" font-size="10.00">&lt; dim, DGtal::int64_t, DGtal</text>
<text xml:space="preserve" text-anchor="middle" x="415.5" y="-740.13" font-family="FreeSans" font-size="10.00">::int64_t &gt;</text>
</a>
</g>
</g>
<!-- Node1&#45;&gt;Node12 -->
<g id="edge13_Node000001_Node000012" class="edge">
<title>Node1&#45;&gt;Node12</title>
<g id="a_edge13_Node000001_Node000012"><a xlink:title=" ">
<path fill="none" stroke="orange" stroke-dasharray="5,2" d="M115.44,-524.08C134.86,-541.59 160.48,-564.18 184,-583.25 254,-640.02 339.88,-702.24 384.45,-734.01"/>
<polygon fill="orange" stroke="orange" points="117.86,-521.56 108.1,-517.44 113.16,-526.74 117.86,-521.56"/>
</a>
</g>
<text xml:space="preserve" text-anchor="start" x="204.25" y="-702.91" font-family="FreeSans" font-size="10.00" fill="grey">&lt; dim, DGtal::int64</text>
<text xml:space="preserve" text-anchor="start" x="204.25" y="-687.66" font-family="FreeSans" font-size="10.00" fill="grey">  _t, DGtal::int64_t &gt;</text>
</g>
<!-- Node23 -->
<g id="Node000023" class="node">
<title>Node23</title>
<g id="a_Node000023"><a xlink:href="structDGtal_1_1ConvexHullCommonKernel.html" target="_top" xlink:title=" ">
<polygon fill="white" stroke="#666666" points="498.5,-323.13 332.5,-323.13 332.5,-281.38 498.5,-281.38 498.5,-323.13"/>
<text xml:space="preserve" text-anchor="start" x="340.5" y="-309.63" font-family="FreeSans" font-size="10.00">DGtal::ConvexHullCommonKernel</text>
<text xml:space="preserve" text-anchor="start" x="340.5" y="-298.38" font-family="FreeSans" font-size="10.00">&lt; dim+1, DGtal::int64_t,</text>
<text xml:space="preserve" text-anchor="middle" x="415.5" y="-287.13" font-family="FreeSans" font-size="10.00"> DGtal::int64_t &gt;</text>
</a>
</g>
</g>
<!-- Node1&#45;&gt;Node23 -->
<g id="edge28_Node000001_Node000023" class="edge">
<title>Node1&#45;&gt;Node23</title>
<g id="a_edge28_Node000001_Node000023"><a xlink:title=" ">
<path fill="none" stroke="orange" stroke-dasharray="5,2" d="M110.89,-465.63C129.9,-445.96 156.75,-420.56 184,-402.75 236.44,-368.48 302.52,-341.06 350.46,-323.57"/>
<polygon fill="orange" stroke="orange" points="108.38,-463.19 104.03,-472.85 113.46,-468.01 108.38,-463.19"/>
</a>
</g>
<text xml:space="preserve" text-anchor="start" x="202" y="-422.75" font-family="FreeSans" font-size="10.00" fill="grey">&lt; dim+1, DGtal::int64</text>
<text xml:space="preserve" text-anchor="start" x="202" y="-407.5" font-family="FreeSans" font-size="10.00" fill="grey">  _t, DGtal::int64_t &gt;</text>
</g>
<!-- Node8 -->
<g id="Node000008" class="node">
<title>Node8</title>
<g id="a_Node000008"><a xlink:href="structDGtal_1_1DelaunayIntegralKernel.html" target="_top" xlink:title=" ">
<polygon fill="white" stroke="#666666" points="1026.5,-207.13 877.75,-207.13 877.75,-165.38 1026.5,-165.38 1026.5,-207.13"/>
<text xml:space="preserve" text-anchor="start" x="885.75" y="-193.63" font-family="FreeSans" font-size="10.00">DGtal::DelaunayIntegralKernel</text>
<text xml:space="preserve" text-anchor="start" x="885.75" y="-182.38" font-family="FreeSans" font-size="10.00">&lt; dim, TCoordinateInteger,</text>
<text xml:space="preserve" text-anchor="middle" x="952.12" y="-171.13" font-family="FreeSans" font-size="10.00"> TInternalInteger &gt;</text>
</a>
</g>
</g>
<!-- Node7&#45;&gt;Node8 -->
<g id="edge9_Node000007_Node000008" class="edge">
<title>Node7&#45;&gt;Node8</title>
<g id="a_edge9_Node000007_Node000008"><a xlink:title=" ">
<path fill="none" stroke="#63b8ff" d="M644.6,-401.4C660.94,-381.84 682.65,-355.66 701.5,-332.25 709.64,-322.14 709.16,-317.1 719.5,-309.25 769.49,-271.29 797.8,-290.12 850,-255.25 859.41,-248.97 859.12,-244.26 868,-237.25 881.69,-226.45 897.82,-216.09 912.21,-207.56"/>
<polygon fill="#63b8ff" stroke="#63b8ff" points="641.97,-399.07 638.24,-408.99 647.34,-403.57 641.97,-399.07"/>
</a>
</g>
</g>
<!-- Node9 -->
<g id="Node000009" class="node">
<title>Node9</title>
<g id="a_Node000009"><a xlink:href="structDGtal_1_1DelaunayIntegralKernel.html" target="_top" xlink:title=" ">
<polygon fill="white" stroke="#666666" points="1026.5,-356.13 877.75,-356.13 877.75,-314.38 1026.5,-314.38 1026.5,-356.13"/>
<text xml:space="preserve" text-anchor="start" x="885.75" y="-342.63" font-family="FreeSans" font-size="10.00">DGtal::DelaunayIntegralKernel</text>
<text xml:space="preserve" text-anchor="start" x="885.75" y="-331.38" font-family="FreeSans" font-size="10.00">&lt; dim&#45;1, TCoordinateInteger,</text>
<text xml:space="preserve" text-anchor="middle" x="952.12" y="-320.13" font-family="FreeSans" font-size="10.00"> TInternalInteger &gt;</text>
</a>
</g>
</g>
<!-- Node7&#45;&gt;Node9 -->
<g id="edge10_Node000007_Node000009" class="edge">
<title>Node7&#45;&gt;Node9</title>
<g id="a_edge10_Node000007_Node000009"><a xlink:title=" ">
<path fill="none" stroke="#63b8ff" d="M713.24,-440.41C756.59,-440.98 807.72,-436.29 850,-417.25 860.32,-412.61 859.5,-406.72 868,-399.25 885.1,-384.23 905.32,-368.62 921.54,-356.58"/>
<polygon fill="#63b8ff" stroke="#63b8ff" points="713.41,-436.91 703.33,-440.17 713.24,-443.91 713.41,-436.91"/>
</a>
</g>
</g>
<!-- Node10 -->
<g id="Node000010" class="node">
<title>Node10</title>
<g id="a_Node000010"><a xlink:href="structDGtal_1_1DelaunayRationalKernel.html" target="_top" xlink:title=" ">
<polygon fill="white" stroke="#666666" points="1028.38,-450.13 875.88,-450.13 875.88,-408.38 1028.38,-408.38 1028.38,-450.13"/>
<text xml:space="preserve" text-anchor="start" x="883.88" y="-436.63" font-family="FreeSans" font-size="10.00">DGtal::DelaunayRationalKernel</text>
<text xml:space="preserve" text-anchor="start" x="883.88" y="-425.38" font-family="FreeSans" font-size="10.00">&lt; dim, TCoordinateInteger,</text>
<text xml:space="preserve" text-anchor="middle" x="952.12" y="-414.13" font-family="FreeSans" font-size="10.00"> TInternalInteger &gt;</text>
</a>
</g>
</g>
<!-- Node7&#45;&gt;Node10 -->
<g id="edge11_Node000007_Node000010" class="edge">
<title>Node7&#45;&gt;Node10</title>
<g id="a_edge11_Node000007_Node000010"><a xlink:title=" ">
<path fill="none" stroke="#63b8ff" d="M651.29,-459.7C669.79,-474.31 694.36,-490.61 719.5,-498.25 774.99,-515.12 794.58,-515.36 850,-498.25 880.26,-488.91 909.55,-467.07 928.75,-450.44"/>
<polygon fill="#63b8ff" stroke="#63b8ff" points="653.6,-457.06 643.64,-453.45 649.17,-462.48 653.6,-457.06"/>
</a>
</g>
</g>
<!-- Node11 -->
<g id="Node000011" class="node">
<title>Node11</title>
<g id="a_Node000011"><a xlink:href="structDGtal_1_1DelaunayRationalKernel.html" target="_top" xlink:title=" ">
<polygon fill="white" stroke="#666666" points="1028.38,-288.13 875.88,-288.13 875.88,-246.38 1028.38,-246.38 1028.38,-288.13"/>
<text xml:space="preserve" text-anchor="start" x="883.88" y="-274.63" font-family="FreeSans" font-size="10.00">DGtal::DelaunayRationalKernel</text>
<text xml:space="preserve" text-anchor="start" x="883.88" y="-263.38" font-family="FreeSans" font-size="10.00">&lt; dim&#45;1, TCoordinateInteger,</text>
<text xml:space="preserve" text-anchor="middle" x="952.12" y="-252.13" font-family="FreeSans" font-size="10.00"> TInternalInteger &gt;</text>
</a>
</g>
</g>
<!-- Node7&#45;&gt;Node11 -->
<g id="edge12_Node000007_Node000011" class="edge">
<title>Node7&#45;&gt;Node11</title>
<g id="a_edge12_Node000007_Node000011"><a xlink:title=" ">
<path fill="none" stroke="#63b8ff" d="M654.21,-403.21C672.64,-389.61 696.23,-374.11 719.5,-364.25 774.12,-341.11 802,-371.11 850,-336.25 862.89,-326.89 856.2,-315.96 868,-305.25 875.17,-298.75 883.64,-293.19 892.39,-288.49"/>
<polygon fill="#63b8ff" stroke="#63b8ff" points="652.15,-400.38 646.28,-409.2 656.37,-405.97 652.15,-400.38"/>
</a>
</g>
</g>
<!-- Node13 -->
<g id="Node000013" class="node">
<title>Node13</title>
<g id="a_Node000013"><a xlink:href="structDGtal_1_1ConvexHullIntegralKernel.html" target="_top" xlink:title=" ">
<polygon fill="white" stroke="#666666" points="1017.5,-802.5 886.75,-802.5 886.75,-772 1017.5,-772 1017.5,-802.5"/>
<text xml:space="preserve" text-anchor="start" x="894.75" y="-789" font-family="FreeSans" font-size="10.00">DGtal::ConvexHullIntegral</text>
<text xml:space="preserve" text-anchor="middle" x="952.12" y="-777.75" font-family="FreeSans" font-size="10.00">Kernel&lt; 3 &gt;</text>
</a>
</g>
</g>
<!-- Node12&#45;&gt;Node13 -->
<g id="edge14_Node000012_Node000013" class="edge">
<title>Node12&#45;&gt;Node13</title>
<g id="a_edge14_Node000012_Node000013"><a xlink:title=" ">
<path fill="none" stroke="#63b8ff" d="M510.11,-759.8C597.93,-764.21 732.92,-771.38 850,-779.25 861.77,-780.04 874.31,-780.97 886.41,-781.9"/>
<polygon fill="#63b8ff" stroke="#63b8ff" points="510.51,-756.31 500.35,-759.31 510.16,-763.3 510.51,-756.31"/>
</a>
</g>
</g>
<!-- Node14 -->
<g id="Node000014" class="node">
<title>Node14</title>
<g id="a_Node000014"><a xlink:href="structDGtal_1_1ConvexHullIntegralKernel.html" target="_top" xlink:title=" ">
<polygon fill="white" stroke="#666666" points="1017.5,-873.13 886.75,-873.13 886.75,-831.38 1017.5,-831.38 1017.5,-873.13"/>
<text xml:space="preserve" text-anchor="start" x="894.75" y="-859.63" font-family="FreeSans" font-size="10.00">DGtal::ConvexHullIntegral</text>
<text xml:space="preserve" text-anchor="start" x="894.75" y="-848.38" font-family="FreeSans" font-size="10.00">Kernel&lt; dim, DGtal::int64</text>
<text xml:space="preserve" text-anchor="middle" x="952.12" y="-837.13" font-family="FreeSans" font-size="10.00">_t, DGtal::int64_t &gt;</text>
</a>
</g>
</g>
<!-- Node12&#45;&gt;Node14 -->
<g id="edge15_Node000012_Node000014" class="edge">
<title>Node12&#45;&gt;Node14</title>
<g id="a_edge15_Node000012_Node000014"><a xlink:title=" ">
<path fill="none" stroke="#63b8ff" d="M510.11,-775.14C518.67,-776.65 527.23,-778.06 535.5,-779.25 674.38,-799.38 714.16,-772.03 850,-807.25 871.02,-812.7 893.19,-822.11 911.39,-830.92"/>
<polygon fill="#63b8ff" stroke="#63b8ff" points="510.83,-771.71 500.37,-773.36 509.58,-778.6 510.83,-771.71"/>
</a>
</g>
</g>
<!-- Node15 -->
<g id="Node000015" class="node">
<title>Node15</title>
<g id="a_Node000015"><a xlink:href="structDGtal_1_1ConvexHullIntegralKernel.html" target="_top" xlink:title="Aim: a geometric kernel to compute the convex hull of digital points with integer&#45;only arithmetic.">
<polygon fill="white" stroke="#666666" points="698.5,-971.13 538.5,-971.13 538.5,-929.38 698.5,-929.38 698.5,-971.13"/>
<text xml:space="preserve" text-anchor="start" x="546.5" y="-957.63" font-family="FreeSans" font-size="10.00">DGtal::ConvexHullIntegral</text>
<text xml:space="preserve" text-anchor="start" x="546.5" y="-946.38" font-family="FreeSans" font-size="10.00">Kernel&lt; dim, TCoordinateInteger,</text>
<text xml:space="preserve" text-anchor="middle" x="618.5" y="-935.13" font-family="FreeSans" font-size="10.00"> TInternalInteger &gt;</text>
</a>
</g>
</g>
<!-- Node12&#45;&gt;Node15 -->
<g id="edge16_Node000012_Node000015" class="edge">
<title>Node12&#45;&gt;Node15</title>
<g id="a_edge16_Node000012_Node000015"><a xlink:title=" ">
<path fill="none" stroke="#63b8ff" d="M446.62,-784.47C487.49,-824.13 559.56,-894.04 595.63,-929.04"/>
<polygon fill="#63b8ff" stroke="#63b8ff" points="449.09,-782 439.48,-777.55 444.22,-787.02 449.09,-782"/>
</a>
</g>
</g>
<!-- Node20 -->
<g id="Node000020" class="node">
<title>Node20</title>
<g id="a_Node000020"><a xlink:href="structDGtal_1_1ConvexHullRationalKernel.html" target="_top" xlink:title="Aim: a geometric kernel to compute the convex hull of floating points with integer&#45;only arithmetic....">
<polygon fill="white" stroke="#666666" points="698.5,-703.13 538.5,-703.13 538.5,-661.38 698.5,-661.38 698.5,-703.13"/>
<text xml:space="preserve" text-anchor="start" x="546.5" y="-689.63" font-family="FreeSans" font-size="10.00">DGtal::ConvexHullRational</text>
<text xml:space="preserve" text-anchor="start" x="546.5" y="-678.38" font-family="FreeSans" font-size="10.00">Kernel&lt; dim, TCoordinateInteger,</text>
<text xml:space="preserve" text-anchor="middle" x="618.5" y="-667.13" font-family="FreeSans" font-size="10.00"> TInternalInteger &gt;</text>
</a>
</g>
</g>
<!-- Node12&#45;&gt;Node20 -->
<g id="edge24_Node000012_Node000020" class="edge">
<title>Node12&#45;&gt;Node20</title>
<g id="a_edge24_Node000012_Node000020"><a xlink:title=" ">
<path fill="none" stroke="#63b8ff" d="M485.88,-730.05C509.62,-721.43 535.93,-711.88 558.75,-703.59"/>
<polygon fill="#63b8ff" stroke="#63b8ff" points="484.8,-726.72 476.6,-733.43 487.19,-733.3 484.8,-726.72"/>
</a>
</g>
</g>
<!-- Node15&#45;&gt;Node2 -->
<g id="edge21_Node000015_Node000002" class="edge">
<title>Node15&#45;&gt;Node2</title>
<g id="a_edge21_Node000015_Node000002"><a xlink:title=" ">
<path fill="none" stroke="orange" stroke-dasharray="5,2" d="M628.5,-982.47C641.56,-1022.86 669.8,-1091.06 719.5,-1126.25 767.6,-1160.31 792.51,-1136.79 850,-1149.75 860.03,-1152.02 870.55,-1154.62 880.87,-1157.3"/>
<polygon fill="orange" stroke="orange" points="631.89,-981.59 625.59,-973.07 625.21,-983.66 631.89,-981.59"/>
</a>
</g>
<text xml:space="preserve" text-anchor="start" x="735.62" y="-1169.75" font-family="FreeSans" font-size="10.00" fill="grey">&lt; dim, Integer, Internal</text>
<text xml:space="preserve" text-anchor="start" x="735.62" y="-1154.5" font-family="FreeSans" font-size="10.00" fill="grey">  Integer &gt;</text>
</g>
<!-- Node15&#45;&gt;Node13 -->
<g id="edge22_Node000015_Node000013" class="edge">
<title>Node15&#45;&gt;Node13</title>
<g id="a_edge22_Node000015_Node000013"><a xlink:title=" ">
<path fill="none" stroke="orange" stroke-dasharray="5,2" d="M636.75,-919.56C654,-891.86 683.16,-852.29 719.5,-831 770.44,-801.17 837.51,-791.07 886.37,-787.93"/>
<polygon fill="orange" stroke="orange" points="633.9,-917.51 631.73,-927.87 639.89,-921.13 633.9,-917.51"/>
</a>
</g>
<text xml:space="preserve" text-anchor="start" x="773.12" y="-835.75" font-family="FreeSans" font-size="10.00" fill="grey">&lt; 3 &gt;</text>
</g>
<!-- Node15&#45;&gt;Node14 -->
<g id="edge23_Node000015_Node000014" class="edge">
<title>Node15&#45;&gt;Node14</title>
<g id="a_edge23_Node000015_Node000014"><a xlink:title=" ">
<path fill="none" stroke="orange" stroke-dasharray="5,2" d="M649.9,-921.75C668.54,-906.02 693.71,-887.71 719.5,-877.75 773.19,-857.02 838.73,-851.46 886.37,-850.61"/>
<polygon fill="orange" stroke="orange" points="647.7,-919.03 642.45,-928.22 652.29,-924.31 647.7,-919.03"/>
</a>
</g>
<text xml:space="preserve" text-anchor="start" x="739.75" y="-897.75" font-family="FreeSans" font-size="10.00" fill="grey">&lt; dim, DGtal::int64</text>
<text xml:space="preserve" text-anchor="start" x="739.75" y="-882.5" font-family="FreeSans" font-size="10.00" fill="grey">  _t, DGtal::int64_t &gt;</text>
</g>
<!-- Node16 -->
<g id="Node000016" class="node">
<title>Node16</title>
<g id="a_Node000016"><a xlink:href="structDGtal_1_1ConvexHullIntegralKernel.html" target="_top" xlink:title=" ">
<polygon fill="white" stroke="#666666" points="1027.62,-1118.13 876.62,-1118.13 876.62,-1076.38 1027.62,-1076.38 1027.62,-1118.13"/>
<text xml:space="preserve" text-anchor="start" x="884.62" y="-1104.63" font-family="FreeSans" font-size="10.00">DGtal::ConvexHullIntegral</text>
<text xml:space="preserve" text-anchor="start" x="884.62" y="-1093.38" font-family="FreeSans" font-size="10.00">Kernel&lt; K, TCoordinateInteger,</text>
<text xml:space="preserve" text-anchor="middle" x="952.12" y="-1082.13" font-family="FreeSans" font-size="10.00"> TInternalInteger &gt;</text>
</a>
</g>
</g>
<!-- Node15&#45;&gt;Node16 -->
<g id="edge17_Node000015_Node000016" class="edge">
<title>Node15&#45;&gt;Node16</title>
<g id="a_edge17_Node000015_Node000016"><a xlink:title=" ">
<path fill="none" stroke="orange" stroke-dasharray="5,2" d="M636.54,-981.15C653.64,-1008.93 682.69,-1048.33 719.5,-1068.25 745.87,-1082.53 819.17,-1089.99 876.32,-1093.75"/>
<polygon fill="orange" stroke="orange" points="639.69,-979.6 631.56,-972.8 633.67,-983.18 639.69,-979.6"/>
</a>
</g>
<text xml:space="preserve" text-anchor="start" x="731.12" y="-1111.5" font-family="FreeSans" font-size="10.00" fill="grey">&lt; K, TCoordinateInteger,</text>
<text xml:space="preserve" text-anchor="start" x="731.12" y="-1096.25" font-family="FreeSans" font-size="10.00" fill="grey">   TInternalInteger &gt;</text>
</g>
<!-- Node17 -->
<g id="Node000017" class="node">
<title>Node17</title>
<g id="a_Node000017"><a xlink:href="structDGtal_1_1ConvexHullIntegralKernel.html" target="_top" xlink:title=" ">
<polygon fill="white" stroke="#666666" points="1026.88,-1058.13 877.38,-1058.13 877.38,-1016.38 1026.88,-1016.38 1026.88,-1058.13"/>
<text xml:space="preserve" text-anchor="start" x="885.38" y="-1044.63" font-family="FreeSans" font-size="10.00">DGtal::ConvexHullIntegral</text>
<text xml:space="preserve" text-anchor="start" x="885.38" y="-1033.38" font-family="FreeSans" font-size="10.00">Kernel&lt; 1, TCoordinateInteger,</text>
<text xml:space="preserve" text-anchor="middle" x="952.12" y="-1022.13" font-family="FreeSans" font-size="10.00"> TInternalInteger &gt;</text>
</a>
</g>
</g>
<!-- Node15&#45;&gt;Node17 -->
<g id="edge18_Node000015_Node000017" class="edge">
<title>Node15&#45;&gt;Node17</title>
<g id="a_edge18_Node000015_Node000017"><a xlink:title=" ">
<path fill="none" stroke="orange" stroke-dasharray="5,2" d="M660.84,-977.44C678.28,-987.71 699.22,-998.53 719.5,-1005.25 770.56,-1022.18 830.81,-1030.15 877.06,-1033.91"/>
<polygon fill="orange" stroke="orange" points="662.66,-974.46 652.3,-972.28 659.04,-980.45 662.66,-974.46"/>
</a>
</g>
<text xml:space="preserve" text-anchor="start" x="731.88" y="-1051.31" font-family="FreeSans" font-size="10.00" fill="grey">&lt; 1, TCoordinateInteger,</text>
<text xml:space="preserve" text-anchor="start" x="731.88" y="-1036.06" font-family="FreeSans" font-size="10.00" fill="grey">   TInternalInteger &gt;</text>
</g>
<!-- Node18 -->
<g id="Node000018" class="node">
<title>Node18</title>
<g id="a_Node000018"><a xlink:href="structDGtal_1_1ConvexHullIntegralKernel.html" target="_top" xlink:title=" ">
<polygon fill="white" stroke="#666666" points="1032.12,-998.13 872.12,-998.13 872.12,-956.38 1032.12,-956.38 1032.12,-998.13"/>
<text xml:space="preserve" text-anchor="start" x="880.12" y="-984.63" font-family="FreeSans" font-size="10.00">DGtal::ConvexHullIntegral</text>
<text xml:space="preserve" text-anchor="start" x="880.12" y="-973.38" font-family="FreeSans" font-size="10.00">Kernel&lt; dim, TCoordinateInteger,</text>
<text xml:space="preserve" text-anchor="middle" x="952.12" y="-962.13" font-family="FreeSans" font-size="10.00"> TInternalInteger &gt;</text>
</a>
</g>
</g>
<!-- Node15&#45;&gt;Node18 -->
<g id="edge19_Node000015_Node000018" class="edge">
<title>Node15&#45;&gt;Node18</title>
<g id="a_edge19_Node000015_Node000018"><a xlink:title=" ">
<path fill="none" stroke="orange" stroke-dasharray="5,2" d="M710.19,-957.64C760.76,-961.75 823.15,-966.83 871.77,-970.79"/>
<polygon fill="orange" stroke="orange" points="710.69,-954.17 700.44,-956.84 710.12,-961.14 710.69,-954.17"/>
</a>
</g>
<text xml:space="preserve" text-anchor="start" x="726.62" y="-988.52" font-family="FreeSans" font-size="10.00" fill="grey">&lt; dim, TCoordinateInteger,</text>
<text xml:space="preserve" text-anchor="start" x="726.62" y="-973.27" font-family="FreeSans" font-size="10.00" fill="grey">   TInternalInteger &gt;</text>
</g>
<!-- Node19 -->
<g id="Node000019" class="node">
<title>Node19</title>
<g id="a_Node000019"><a xlink:href="structDGtal_1_1ConvexHullIntegralKernel.html" target="_top" xlink:title=" ">
<polygon fill="white" stroke="#666666" points="1036.25,-938.13 868,-938.13 868,-896.38 1036.25,-896.38 1036.25,-938.13"/>
<text xml:space="preserve" text-anchor="start" x="876" y="-924.63" font-family="FreeSans" font-size="10.00">DGtal::ConvexHullIntegral</text>
<text xml:space="preserve" text-anchor="start" x="876" y="-913.38" font-family="FreeSans" font-size="10.00">Kernel&lt; dim&#45;1, TCoordinateInteger,</text>
<text xml:space="preserve" text-anchor="middle" x="952.12" y="-902.13" font-family="FreeSans" font-size="10.00"> TInternalInteger &gt;</text>
</a>
</g>
</g>
<!-- Node15&#45;&gt;Node19 -->
<g id="edge20_Node000015_Node000019" class="edge">
<title>Node15&#45;&gt;Node19</title>
<g id="a_edge20_Node000015_Node000019"><a xlink:title=" ">
<path fill="none" stroke="orange" stroke-dasharray="5,2" d="M699.63,-926.38C706.31,-924.95 713,-923.71 719.5,-922.75 768.25,-915.58 823.38,-914.01 867.62,-914.33"/>
<polygon fill="orange" stroke="orange" points="698.87,-922.97 689.9,-928.61 700.43,-929.79 698.87,-922.97"/>
</a>
</g>
<text xml:space="preserve" text-anchor="start" x="722.5" y="-942.75" font-family="FreeSans" font-size="10.00" fill="grey">&lt; dim&#45;1, TCoordinateInteger,</text>
<text xml:space="preserve" text-anchor="start" x="722.5" y="-927.5" font-family="FreeSans" font-size="10.00" fill="grey">   TInternalInteger &gt;</text>
</g>
<!-- Node20&#45;&gt;Node3 -->
<g id="edge27_Node000020_Node000003" class="edge">
<title>Node20&#45;&gt;Node3</title>
<g id="a_edge27_Node000020_Node000003"><a xlink:title=" ">
<path fill="none" stroke="orange" stroke-dasharray="5,2" d="M653.5,-654.08C671.89,-640.42 695.68,-625.19 719.5,-616.75 771.5,-598.33 833.9,-592.87 880.83,-591.79"/>
<polygon fill="orange" stroke="orange" points="651.42,-651.26 645.6,-660.11 655.67,-656.82 651.42,-651.26"/>
</a>
</g>
<text xml:space="preserve" text-anchor="start" x="735.62" y="-636.75" font-family="FreeSans" font-size="10.00" fill="grey">&lt; dim, Integer, Internal</text>
<text xml:space="preserve" text-anchor="start" x="735.62" y="-621.5" font-family="FreeSans" font-size="10.00" fill="grey">  Integer &gt;</text>
</g>
<!-- Node21 -->
<g id="Node000021" class="node">
<title>Node21</title>
<g id="a_Node000021"><a xlink:href="structDGtal_1_1ConvexHullRationalKernel.html" target="_top" xlink:title=" ">
<polygon fill="white" stroke="#666666" points="1032.12,-677.13 872.12,-677.13 872.12,-635.38 1032.12,-635.38 1032.12,-677.13"/>
<text xml:space="preserve" text-anchor="start" x="880.12" y="-663.63" font-family="FreeSans" font-size="10.00">DGtal::ConvexHullRational</text>
<text xml:space="preserve" text-anchor="start" x="880.12" y="-652.38" font-family="FreeSans" font-size="10.00">Kernel&lt; dim, TCoordinateInteger,</text>
<text xml:space="preserve" text-anchor="middle" x="952.12" y="-641.13" font-family="FreeSans" font-size="10.00"> TInternalInteger &gt;</text>
</a>
</g>
</g>
<!-- Node20&#45;&gt;Node21 -->
<g id="edge25_Node000020_Node000021" class="edge">
<title>Node20&#45;&gt;Node21</title>
<g id="a_edge25_Node000020_Node000021"><a xlink:title=" ">
<path fill="none" stroke="orange" stroke-dasharray="5,2" d="M710.26,-660.99C713.37,-660.53 716.46,-660.11 719.5,-659.75 769.92,-653.77 826.94,-652.83 871.79,-653.42"/>
<polygon fill="orange" stroke="orange" points="709.74,-657.53 700.43,-662.59 710.86,-664.44 709.74,-657.53"/>
</a>
</g>
<text xml:space="preserve" text-anchor="start" x="726.62" y="-679.75" font-family="FreeSans" font-size="10.00" fill="grey">&lt; dim, TCoordinateInteger,</text>
<text xml:space="preserve" text-anchor="start" x="726.62" y="-664.5" font-family="FreeSans" font-size="10.00" fill="grey">   TInternalInteger &gt;</text>
</g>
<!-- Node22 -->
<g id="Node000022" class="node">
<title>Node22</title>
<g id="a_Node000022"><a xlink:href="structDGtal_1_1ConvexHullRationalKernel.html" target="_top" xlink:title=" ">
<polygon fill="white" stroke="#666666" points="1036.25,-737.13 868,-737.13 868,-695.38 1036.25,-695.38 1036.25,-737.13"/>
<text xml:space="preserve" text-anchor="start" x="876" y="-723.63" font-family="FreeSans" font-size="10.00">DGtal::ConvexHullRational</text>
<text xml:space="preserve" text-anchor="start" x="876" y="-712.38" font-family="FreeSans" font-size="10.00">Kernel&lt; dim&#45;1, TCoordinateInteger,</text>
<text xml:space="preserve" text-anchor="middle" x="952.12" y="-701.13" font-family="FreeSans" font-size="10.00"> TInternalInteger &gt;</text>
</a>
</g>
</g>
<!-- Node20&#45;&gt;Node22 -->
<g id="edge26_Node000020_Node000022" class="edge">
<title>Node20&#45;&gt;Node22</title>
<g id="a_edge26_Node000020_Node000022"><a xlink:title=" ">
<path fill="none" stroke="orange" stroke-dasharray="5,2" d="M710.21,-691.55C759.38,-696.59 819.72,-702.78 867.71,-707.7"/>
<polygon fill="orange" stroke="orange" points="710.74,-688.09 700.44,-690.55 710.03,-695.05 710.74,-688.09"/>
</a>
</g>
<text xml:space="preserve" text-anchor="start" x="722.5" y="-725.26" font-family="FreeSans" font-size="10.00" fill="grey">&lt; dim&#45;1, TCoordinateInteger,</text>
<text xml:space="preserve" text-anchor="start" x="722.5" y="-710.01" font-family="FreeSans" font-size="10.00" fill="grey">   TInternalInteger &gt;</text>
</g>
<!-- Node24 -->
<g id="Node000024" class="node">
<title>Node24</title>
<g id="a_Node000024"><a xlink:href="structDGtal_1_1DelaunayIntegralKernel.html" target="_top" xlink:title="Aim: a geometric kernel to compute the Delaunay triangulation of digital points with integer&#45;only ari...">
<polygon fill="white" stroke="#666666" points="692.88,-323.13 544.12,-323.13 544.12,-281.38 692.88,-281.38 692.88,-323.13"/>
<text xml:space="preserve" text-anchor="start" x="552.12" y="-309.63" font-family="FreeSans" font-size="10.00">DGtal::DelaunayIntegralKernel</text>
<text xml:space="preserve" text-anchor="start" x="552.12" y="-298.38" font-family="FreeSans" font-size="10.00">&lt; dim, TCoordinateInteger,</text>
<text xml:space="preserve" text-anchor="middle" x="618.5" y="-287.13" font-family="FreeSans" font-size="10.00"> TInternalInteger &gt;</text>
</a>
</g>
</g>
<!-- Node23&#45;&gt;Node24 -->
<g id="edge29_Node000023_Node000024" class="edge">
<title>Node23&#45;&gt;Node24</title>
<g id="a_edge29_Node000023_Node000024"><a xlink:title=" ">
<path fill="none" stroke="#63b8ff" d="M510.06,-302.25C521.34,-302.25 532.74,-302.25 543.68,-302.25"/>
<polygon fill="#63b8ff" stroke="#63b8ff" points="510.35,-298.75 500.35,-302.25 510.35,-305.75 510.35,-298.75"/>
</a>
</g>
</g>
<!-- Node25 -->
<g id="Node000025" class="node">
<title>Node25</title>
<g id="a_Node000025"><a xlink:href="structDGtal_1_1DelaunayRationalKernel.html" target="_top" xlink:title="Aim: a geometric kernel to compute the Delaunay triangulation of a range of floating points with inte...">
<polygon fill="white" stroke="#666666" points="694.75,-252.13 542.25,-252.13 542.25,-210.38 694.75,-210.38 694.75,-252.13"/>
<text xml:space="preserve" text-anchor="start" x="550.25" y="-238.63" font-family="FreeSans" font-size="10.00">DGtal::DelaunayRationalKernel</text>
<text xml:space="preserve" text-anchor="start" x="550.25" y="-227.38" font-family="FreeSans" font-size="10.00">&lt; dim, TCoordinateInteger,</text>
<text xml:space="preserve" text-anchor="middle" x="618.5" y="-216.13" font-family="FreeSans" font-size="10.00"> TInternalInteger &gt;</text>
</a>
</g>
</g>
<!-- Node23&#45;&gt;Node25 -->
<g id="edge33_Node000023_Node000025" class="edge">
<title>Node23&#45;&gt;Node25</title>
<g id="a_edge33_Node000023_Node000025"><a xlink:title=" ">
<path fill="none" stroke="#63b8ff" d="M487.45,-277.19C510.25,-269.14 535.28,-260.3 557.24,-252.54"/>
<polygon fill="#63b8ff" stroke="#63b8ff" points="486.5,-273.82 478.23,-280.45 488.83,-280.42 486.5,-273.82"/>
</a>
</g>
</g>
<!-- Node24&#45;&gt;Node4 -->
<g id="edge32_Node000024_Node000004" class="edge">
<title>Node24&#45;&gt;Node4</title>
<g id="a_edge32_Node000024_Node000004"><a xlink:title=" ">
<path fill="none" stroke="orange" stroke-dasharray="5,2" d="M647.58,-331.8C664.58,-350.68 685.91,-376.24 701.5,-401.25 711.81,-417.8 705.31,-427.89 719.5,-441.25 764.67,-483.77 792.4,-467.73 850,-490.75 871.57,-499.38 895.55,-509.43 914.74,-517.6"/>
<polygon fill="orange" stroke="orange" points="650.22,-329.5 640.89,-324.48 645.05,-334.22 650.22,-329.5"/>
</a>
</g>
<text xml:space="preserve" text-anchor="start" x="735.62" y="-510.75" font-family="FreeSans" font-size="10.00" fill="grey">&lt; dim, Integer, Internal</text>
<text xml:space="preserve" text-anchor="start" x="735.62" y="-495.5" font-family="FreeSans" font-size="10.00" fill="grey">  Integer &gt;</text>
</g>
<!-- Node24&#45;&gt;Node8 -->
<g id="edge30_Node000024_Node000008" class="edge">
<title>Node24&#45;&gt;Node8</title>
<g id="a_edge30_Node000024_Node000008"><a xlink:title=" ">
<path fill="none" stroke="orange" stroke-dasharray="5,2" d="M686.58,-274.7C692.07,-270.73 697.16,-266.27 701.5,-261.25 718.19,-241.96 699.51,-222.59 719.5,-206.75 763.4,-171.97 827.76,-168.87 877.5,-173.32"/>
<polygon fill="orange" stroke="orange" points="684.77,-271.7 678.29,-280.08 688.58,-277.57 684.77,-271.7"/>
</a>
</g>
<text xml:space="preserve" text-anchor="start" x="726.62" y="-226.75" font-family="FreeSans" font-size="10.00" fill="grey">&lt; dim, TCoordinateInteger,</text>
<text xml:space="preserve" text-anchor="start" x="726.62" y="-211.5" font-family="FreeSans" font-size="10.00" fill="grey">   TInternalInteger &gt;</text>
</g>
<!-- Node24&#45;&gt;Node9 -->
<g id="edge31_Node000024_Node000009" class="edge">
<title>Node24&#45;&gt;Node9</title>
<g id="a_edge31_Node000024_Node000009"><a xlink:title=" ">
<path fill="none" stroke="orange" stroke-dasharray="5,2" d="M704.28,-310.69C757.78,-316.01 826.21,-322.82 877.45,-327.92"/>
<polygon fill="orange" stroke="orange" points="704.9,-307.23 694.6,-309.73 704.21,-314.2 704.9,-307.23"/>
</a>
</g>
<text xml:space="preserve" text-anchor="start" x="722.5" y="-344.58" font-family="FreeSans" font-size="10.00" fill="grey">&lt; dim&#45;1, TCoordinateInteger,</text>
<text xml:space="preserve" text-anchor="start" x="722.5" y="-329.33" font-family="FreeSans" font-size="10.00" fill="grey">   TInternalInteger &gt;</text>
</g>
<!-- Node25&#45;&gt;Node5 -->
<g id="edge36_Node000025_Node000005" class="edge">
<title>Node25&#45;&gt;Node5</title>
<g id="a_edge36_Node000025_Node000005"><a xlink:title=" ">
<path fill="none" stroke="orange" stroke-dasharray="5,2" d="M642.02,-201.55C660.4,-179.53 688.34,-150.68 719.5,-134.75 767.7,-110.12 828.06,-99.87 875.07,-95.71"/>
<polygon fill="orange" stroke="orange" points="639.53,-199.06 635.94,-209.03 644.96,-203.48 639.53,-199.06"/>
</a>
</g>
<text xml:space="preserve" text-anchor="start" x="735.62" y="-154.75" font-family="FreeSans" font-size="10.00" fill="grey">&lt; dim, Integer, Internal</text>
<text xml:space="preserve" text-anchor="start" x="735.62" y="-139.5" font-family="FreeSans" font-size="10.00" fill="grey">  Integer &gt;</text>
</g>
<!-- Node25&#45;&gt;Node10 -->
<g id="edge34_Node000025_Node000010" class="edge">
<title>Node25&#45;&gt;Node10</title>
<g id="a_edge34_Node000025_Node000010"><a xlink:title=" ">
<path fill="none" stroke="orange" stroke-dasharray="5,2" d="M688.09,-258.95C693.11,-262.86 697.69,-267.28 701.5,-272.25 726.03,-304.3 692.22,-331.52 719.5,-361.25 730.43,-373.16 812.28,-395.41 875.62,-411.21"/>
<polygon fill="orange" stroke="orange" points="690.12,-256.1 679.9,-253.31 686.15,-261.86 690.12,-256.1"/>
</a>
</g>
<text xml:space="preserve" text-anchor="start" x="726.62" y="-424.4" font-family="FreeSans" font-size="10.00" fill="grey">&lt; dim, TCoordinateInteger,</text>
<text xml:space="preserve" text-anchor="start" x="726.62" y="-409.15" font-family="FreeSans" font-size="10.00" fill="grey">   TInternalInteger &gt;</text>
</g>
<!-- Node25&#45;&gt;Node11 -->
<g id="edge35_Node000025_Node000011" class="edge">
<title>Node25&#45;&gt;Node11</title>
<g id="a_edge35_Node000025_Node000011"><a xlink:title=" ">
<path fill="none" stroke="orange" stroke-dasharray="5,2" d="M706.49,-240.7C758.97,-246.39 825.19,-253.58 875.5,-259.04"/>
<polygon fill="orange" stroke="orange" points="706.99,-237.23 696.67,-239.63 706.23,-244.19 706.99,-237.23"/>
</a>
</g>
<text xml:space="preserve" text-anchor="start" x="722.5" y="-275.61" font-family="FreeSans" font-size="10.00" fill="grey">&lt; dim&#45;1, TCoordinateInteger,</text>
<text xml:space="preserve" text-anchor="start" x="722.5" y="-260.36" font-family="FreeSans" font-size="10.00" fill="grey">   TInternalInteger &gt;</text>
</g>
</g>
</svg>
