<?xml version="1.0" encoding="UTF-8" standalone="no"?>
<!DOCTYPE svg PUBLIC "-//W3C//DTD SVG 1.1//EN"
 "http://www.w3.org/Graphics/SVG/1.1/DTD/svg11.dtd">
<!-- Generated by graphviz version 14.1.0 (20251206.1807)
 -->
<!-- Title: DGtal::ConvexHullRationalKernel&lt; dim, TCoordinateInteger, TInternalInteger &gt; Pages: 1 -->
<svg width="1004pt" height="181pt"
 viewBox="0.00 0.00 1004.00 181.00" xmlns="http://www.w3.org/2000/svg" xmlns:xlink="http://www.w3.org/1999/xlink">
<g id="graph0" class="graph" transform="scale(1 1) rotate(0) translate(4 176.75)">
<title>DGtal::ConvexHullRationalKernel&lt; dim, TCoordinateInteger, TInternalInteger &gt;</title>
<!-- Node1 -->
<g id="Node000001" class="node">
<title>Node1</title>
<g id="a_Node000001"><a xlink:title="Aim: a geometric kernel to compute the convex hull of floating points with integer&#45;only arithmetic....">
<polygon fill="#999999" stroke="#666666" points="661,-71.75 501,-71.75 501,-30 661,-30 661,-71.75"/>
<text xml:space="preserve" text-anchor="start" x="509" y="-58.25" font-family="FreeSans" font-size="10.00">DGtal::ConvexHullRational</text>
<text xml:space="preserve" text-anchor="start" x="509" y="-47" font-family="FreeSans" font-size="10.00">Kernel&lt; dim, TCoordinateInteger,</text>
<text xml:space="preserve" text-anchor="middle" x="581" y="-35.75" font-family="FreeSans" font-size="10.00"> TInternalInteger &gt;</text>
</a>
</g>
</g>
<!-- Node1&#45;&gt;Node1 -->
<g id="edge3_Node000001_Node000001" class="edge">
<title>Node1&#45;&gt;Node1</title>
<g id="a_edge3_Node000001_Node000001"><a xlink:title=" ">
<path fill="none" stroke="orange" stroke-dasharray="5,2" d="M573.01,-83.2C574.44,-87.16 577.1,-89.75 581,-89.75 587.93,-89.75 590.96,-81.55 590.09,-72.07"/>
<polygon fill="orange" stroke="orange" points="576.53,-83.18 572.06,-73.57 569.56,-83.87 576.53,-83.18"/>
</a>
</g>
<text xml:space="preserve" text-anchor="start" x="522.88" y="-109.75" font-family="FreeSans" font-size="10.00" fill="grey">&lt; dim, TCoordinateInteger,</text>
<text xml:space="preserve" text-anchor="start" x="522.88" y="-94.5" font-family="FreeSans" font-size="10.00" fill="grey">   TInternalInteger &gt;</text>
</g>
<!-- Node1&#45;&gt;Node1 -->
<g id="edge4_Node000001_Node000001" class="edge">
<title>Node1&#45;&gt;Node1</title>
<g id="a_edge4_Node000001_Node000001"><a xlink:title=" ">
<path fill="none" stroke="orange" stroke-dasharray="5,2" d="M563.43,-83.21C560.12,-102.73 565.97,-122.25 581,-122.25 598.89,-122.25 603.78,-94.58 595.68,-72.18"/>
<polygon fill="orange" stroke="orange" points="566.79,-84.2 565.94,-73.64 560.02,-82.42 566.79,-84.2"/>
</a>
</g>
<text xml:space="preserve" text-anchor="start" x="522.88" y="-142.25" font-family="FreeSans" font-size="10.00" fill="grey">&lt; dim, TCoordinateInteger,</text>
<text xml:space="preserve" text-anchor="start" x="522.88" y="-127" font-family="FreeSans" font-size="10.00" fill="grey">   TInternalInteger &gt;</text>
</g>
<!-- Node4 -->
<g id="Node000004" class="node">
<title>Node4</title>
<g id="a_Node000004"><a xlink:href="structDGtal_1_1ConvexHullRationalKernel.html" target="_top" xlink:title=" ">
<polygon fill="white" stroke="#666666" points="995.75,-101.75 827.5,-101.75 827.5,-60 995.75,-60 995.75,-101.75"/>
<text xml:space="preserve" text-anchor="start" x="835.5" y="-88.25" font-family="FreeSans" font-size="10.00">DGtal::ConvexHullRational</text>
<text xml:space="preserve" text-anchor="start" x="835.5" y="-77" font-family="FreeSans" font-size="10.00">Kernel&lt; dim&#45;1, TCoordinateInteger,</text>
<text xml:space="preserve" text-anchor="middle" x="911.62" y="-65.75" font-family="FreeSans" font-size="10.00"> TInternalInteger &gt;</text>
</a>
</g>
</g>
<!-- Node1&#45;&gt;Node4 -->
<g id="edge5_Node000001_Node000004" class="edge">
<title>Node1&#45;&gt;Node4</title>
<g id="a_edge5_Node000001_Node000004"><a xlink:title=" ">
<path fill="none" stroke="orange" stroke-dasharray="5,2" d="M672.53,-59.14C720.81,-63.55 779.82,-68.93 827.02,-73.24"/>
<polygon fill="orange" stroke="orange" points="672.92,-55.66 662.64,-58.24 672.28,-62.63 672.92,-55.66"/>
</a>
</g>
<text xml:space="preserve" text-anchor="start" x="682" y="-91.17" font-family="FreeSans" font-size="10.00" fill="grey">&lt; dim&#45;1, TCoordinateInteger,</text>
<text xml:space="preserve" text-anchor="start" x="682" y="-75.92" font-family="FreeSans" font-size="10.00" fill="grey">   TInternalInteger &gt;</text>
</g>
<!-- Node5 -->
<g id="Node000005" class="node">
<title>Node5</title>
<g id="a_Node000005"><a xlink:href="structDGtal_1_1ConvexHullRationalKernel.html" target="_top" xlink:title=" ">
<polygon fill="white" stroke="#666666" points="982.62,-41.75 840.62,-41.75 840.62,0 982.62,0 982.62,-41.75"/>
<text xml:space="preserve" text-anchor="start" x="848.62" y="-28.25" font-family="FreeSans" font-size="10.00">DGtal::ConvexHullRational</text>
<text xml:space="preserve" text-anchor="start" x="848.62" y="-17" font-family="FreeSans" font-size="10.00">Kernel&lt; dim, Integer, Internal</text>
<text xml:space="preserve" text-anchor="middle" x="911.62" y="-5.75" font-family="FreeSans" font-size="10.00">Integer &gt;</text>
</a>
</g>
</g>
<!-- Node1&#45;&gt;Node5 -->
<g id="edge6_Node000001_Node000005" class="edge">
<title>Node1&#45;&gt;Node5</title>
<g id="a_edge6_Node000001_Node000005"><a xlink:title=" ">
<path fill="none" stroke="orange" stroke-dasharray="5,2" d="M659.52,-26.95C666.07,-25.52 672.62,-24.3 679,-23.38 732.73,-15.61 794.21,-15.34 840.32,-16.82"/>
<polygon fill="orange" stroke="orange" points="658.97,-23.48 650.02,-29.17 660.56,-30.3 658.97,-23.48"/>
</a>
</g>
<text xml:space="preserve" text-anchor="start" x="695.12" y="-43.38" font-family="FreeSans" font-size="10.00" fill="grey">&lt; dim, Integer, Internal</text>
<text xml:space="preserve" text-anchor="start" x="695.12" y="-28.12" font-family="FreeSans" font-size="10.00" fill="grey">  Integer &gt;</text>
</g>
<!-- Node2 -->
<g id="Node000002" class="node">
<title>Node2</title>
<g id="a_Node000002"><a xlink:href="structDGtal_1_1ConvexHullCommonKernel.html" target="_top" xlink:title=" ">
<polygon fill="white" stroke="#666666" points="464,-71.75 298,-71.75 298,-30 464,-30 464,-71.75"/>
<text xml:space="preserve" text-anchor="start" x="306" y="-58.25" font-family="FreeSans" font-size="10.00">DGtal::ConvexHullCommonKernel</text>
<text xml:space="preserve" text-anchor="start" x="306" y="-47" font-family="FreeSans" font-size="10.00">&lt; dim, DGtal::int64_t, DGtal</text>
<text xml:space="preserve" text-anchor="middle" x="381" y="-35.75" font-family="FreeSans" font-size="10.00">::int64_t &gt;</text>
</a>
</g>
</g>
<!-- Node2&#45;&gt;Node1 -->
<g id="edge1_Node000001_Node000002" class="edge">
<title>Node2&#45;&gt;Node1</title>
<g id="a_edge1_Node000001_Node000002"><a xlink:title=" ">
<path fill="none" stroke="#63b8ff" d="M475.58,-50.88C483.93,-50.88 492.33,-50.88 500.55,-50.88"/>
<polygon fill="#63b8ff" stroke="#63b8ff" points="475.76,-47.38 465.76,-50.88 475.76,-54.38 475.76,-47.38"/>
</a>
</g>
</g>
<!-- Node3 -->
<g id="Node000003" class="node">
<title>Node3</title>
<g id="a_Node000003"><a xlink:href="structDGtal_1_1ConvexHullCommonKernel.html" target="_top" xlink:title="Aim: the common part of all geometric kernels for computing the convex hull or Delaunay triangulation...">
<polygon fill="white" stroke="#666666" points="166,-71.75 0,-71.75 0,-30 166,-30 166,-71.75"/>
<text xml:space="preserve" text-anchor="start" x="8" y="-58.25" font-family="FreeSans" font-size="10.00">DGtal::ConvexHullCommonKernel</text>
<text xml:space="preserve" text-anchor="start" x="8" y="-47" font-family="FreeSans" font-size="10.00">&lt; dim, TCoordinateInteger,</text>
<text xml:space="preserve" text-anchor="middle" x="83" y="-35.75" font-family="FreeSans" font-size="10.00"> TInternalInteger &gt;</text>
</a>
</g>
</g>
<!-- Node3&#45;&gt;Node2 -->
<g id="edge2_Node000002_Node000003" class="edge">
<title>Node3&#45;&gt;Node2</title>
<g id="a_edge2_Node000002_Node000003"><a xlink:title=" ">
<path fill="none" stroke="orange" stroke-dasharray="5,2" d="M177.69,-50.88C216.22,-50.88 260.47,-50.88 297.73,-50.88"/>
<polygon fill="orange" stroke="orange" points="177.97,-47.38 167.97,-50.88 177.97,-54.38 177.97,-47.38"/>
</a>
</g>
<text xml:space="preserve" text-anchor="start" x="187" y="-70.88" font-family="FreeSans" font-size="10.00" fill="grey">&lt; dim, DGtal::int64</text>
<text xml:space="preserve" text-anchor="start" x="187" y="-55.62" font-family="FreeSans" font-size="10.00" fill="grey">  _t, DGtal::int64_t &gt;</text>
</g>
</g>
</svg>
