<?xml version="1.0" encoding="UTF-8" standalone="no"?>
<!DOCTYPE svg PUBLIC "-//W3C//DTD SVG 1.1//EN"
 "http://www.w3.org/Graphics/SVG/1.1/DTD/svg11.dtd">
<!-- Generated by graphviz version 14.1.0 (20251206.1807)
 -->
<!-- Title: DGtal::KhalimskyPreSpaceND&lt; dim, TInteger &gt;::AnyCellCollection&lt; CellType &gt; Pages: 1 -->
<svg width="509pt" height="110pt"
 viewBox="0.00 0.00 509.00 110.00" xmlns="http://www.w3.org/2000/svg" xmlns:xlink="http://www.w3.org/1999/xlink">
<g id="graph0" class="graph" transform="scale(1 1) rotate(0) translate(4 105.75)">
<title>DGtal::KhalimskyPreSpaceND&lt; dim, TInteger &gt;::AnyCellCollection&lt; CellType &gt;</title>
<!-- Node1 -->
<g id="Node000001" class="node">
<title>Node1</title>
<g id="a_Node000001"><a xlink:title=" ">
<polygon fill="#999999" stroke="#666666" points="270,-71.75 122.75,-71.75 122.75,-30 270,-30 270,-71.75"/>
<text xml:space="preserve" text-anchor="start" x="130.75" y="-58.25" font-family="FreeSans" font-size="10.00">DGtal::KhalimskyPreSpace</text>
<text xml:space="preserve" text-anchor="start" x="130.75" y="-47" font-family="FreeSans" font-size="10.00">ND&lt; dim, TInteger &gt;::AnyCell</text>
<text xml:space="preserve" text-anchor="middle" x="196.38" y="-35.75" font-family="FreeSans" font-size="10.00">Collection&lt; CellType &gt;</text>
</a>
</g>
</g>
<!-- Node3 -->
<g id="Node000003" class="node">
<title>Node3</title>
<g id="a_Node000003"><a xlink:href="structDGtal_1_1KhalimskyPreSpaceND_1_1AnyCellCollection.html" target="_top" xlink:title=" ">
<polygon fill="white" stroke="#666666" points="501.25,-101.75 354,-101.75 354,-60 501.25,-60 501.25,-101.75"/>
<text xml:space="preserve" text-anchor="start" x="362" y="-88.25" font-family="FreeSans" font-size="10.00">DGtal::KhalimskyPreSpace</text>
<text xml:space="preserve" text-anchor="start" x="362" y="-77" font-family="FreeSans" font-size="10.00">ND&lt; dim, TInteger &gt;::AnyCell</text>
<text xml:space="preserve" text-anchor="middle" x="427.62" y="-65.75" font-family="FreeSans" font-size="10.00">Collection&lt; Cell &gt;</text>
</a>
</g>
</g>
<!-- Node1&#45;&gt;Node3 -->
<g id="edge2_Node000001_Node000003" class="edge">
<title>Node1&#45;&gt;Node3</title>
<g id="a_edge2_Node000001_Node000003"><a xlink:title=" ">
<path fill="none" stroke="orange" stroke-dasharray="5,2" d="M281.64,-61.9C305.24,-64.99 330.68,-68.32 353.57,-71.31"/>
<polygon fill="orange" stroke="orange" points="282.1,-58.43 271.73,-60.6 281.19,-65.37 282.1,-58.43"/>
</a>
</g>
<text xml:space="preserve" text-anchor="start" x="294.38" y="-73.31" font-family="FreeSans" font-size="10.00" fill="grey">&lt; Cell &gt;</text>
</g>
<!-- Node4 -->
<g id="Node000004" class="node">
<title>Node4</title>
<g id="a_Node000004"><a xlink:href="structDGtal_1_1KhalimskyPreSpaceND_1_1AnyCellCollection.html" target="_top" xlink:title=" ">
<polygon fill="white" stroke="#666666" points="501.25,-41.75 354,-41.75 354,0 501.25,0 501.25,-41.75"/>
<text xml:space="preserve" text-anchor="start" x="362" y="-28.25" font-family="FreeSans" font-size="10.00">DGtal::KhalimskyPreSpace</text>
<text xml:space="preserve" text-anchor="start" x="362" y="-17" font-family="FreeSans" font-size="10.00">ND&lt; dim, TInteger &gt;::AnyCell</text>
<text xml:space="preserve" text-anchor="middle" x="427.62" y="-5.75" font-family="FreeSans" font-size="10.00">Collection&lt; SCell &gt;</text>
</a>
</g>
</g>
<!-- Node1&#45;&gt;Node4 -->
<g id="edge3_Node000001_Node000004" class="edge">
<title>Node1&#45;&gt;Node4</title>
<g id="a_edge3_Node000001_Node000004"><a xlink:title=" ">
<path fill="none" stroke="orange" stroke-dasharray="5,2" d="M281.64,-39.85C305.24,-36.76 330.68,-33.43 353.57,-30.44"/>
<polygon fill="orange" stroke="orange" points="281.19,-36.38 271.73,-41.15 282.1,-43.32 281.19,-36.38"/>
</a>
</g>
<text xml:space="preserve" text-anchor="start" x="291" y="-43.31" font-family="FreeSans" font-size="10.00" fill="grey">&lt; SCell &gt;</text>
</g>
<!-- Node2 -->
<g id="Node000002" class="node">
<title>Node2</title>
<g id="a_Node000002"><a xlink:title=" ">
<polygon fill="white" stroke="#666666" points="85.75,-60.5 0,-60.5 0,-41.25 85.75,-41.25 85.75,-60.5"/>
<text xml:space="preserve" text-anchor="middle" x="42.88" y="-47" font-family="FreeSans" font-size="10.00">std::deque&lt; T &gt;</text>
</a>
</g>
</g>
<!-- Node2&#45;&gt;Node1 -->
<g id="edge1_Node000001_Node000002" class="edge">
<title>Node2&#45;&gt;Node1</title>
<g id="a_edge1_Node000001_Node000002"><a xlink:title=" ">
<path fill="none" stroke="#63b8ff" d="M97.55,-50.88C105.59,-50.88 113.99,-50.88 122.36,-50.88"/>
<polygon fill="#63b8ff" stroke="#63b8ff" points="97.59,-47.38 87.59,-50.88 97.59,-54.38 97.59,-47.38"/>
</a>
</g>
</g>
</g>
</svg>
