<?xml version="1.0" encoding="UTF-8" standalone="no"?>
<!DOCTYPE svg PUBLIC "-//W3C//DTD SVG 1.1//EN"
 "http://www.w3.org/Graphics/SVG/1.1/DTD/svg11.dtd">
<!-- Generated by graphviz version 14.1.0 (20251206.1807)
 -->
<!-- Title: DGtal::functors::NotPointPredicate&lt; TPointPredicate &gt; Pages: 1 -->
<svg width="522pt" height="137pt"
 viewBox="0.00 0.00 522.00 137.00" xmlns="http://www.w3.org/2000/svg" xmlns:xlink="http://www.w3.org/1999/xlink">
<g id="graph0" class="graph" transform="scale(1 1) rotate(0) translate(4 132.5)">
<title>DGtal::functors::NotPointPredicate&lt; TPointPredicate &gt;</title>
<!-- Node1 -->
<g id="Node000001" class="node">
<title>Node1</title>
<g id="a_Node000001"><a xlink:title="Aim: The predicate returns true when the point predicate given at construction return false....">
<polygon fill="#999999" stroke="#666666" points="145,-79.5 0,-79.5 0,-49 145,-49 145,-79.5"/>
<text xml:space="preserve" text-anchor="start" x="8" y="-66" font-family="FreeSans" font-size="10.00">DGtal::functors::NotPoint</text>
<text xml:space="preserve" text-anchor="middle" x="72.5" y="-54.75" font-family="FreeSans" font-size="10.00">Predicate&lt; TPointPredicate &gt;</text>
</a>
</g>
</g>
<!-- Node2 -->
<g id="Node000002" class="node">
<title>Node2</title>
<g id="a_Node000002"><a xlink:href="structDGtal_1_1functors_1_1NotPointPredicate.html" target="_top" xlink:title=" ">
<polygon fill="white" stroke="#666666" points="514.25,-128.5 322,-128.5 322,-98 514.25,-98 514.25,-128.5"/>
<text xml:space="preserve" text-anchor="start" x="330" y="-115" font-family="FreeSans" font-size="10.00">DGtal::functors::NotPoint</text>
<text xml:space="preserve" text-anchor="middle" x="418.12" y="-103.75" font-family="FreeSans" font-size="10.00">Predicate&lt; CharacteristicSetPredicate &gt;</text>
</a>
</g>
</g>
<!-- Node1&#45;&gt;Node2 -->
<g id="edge1_Node000001_Node000002" class="edge">
<title>Node1&#45;&gt;Node2</title>
<g id="a_edge1_Node000001_Node000002"><a xlink:title=" ">
<path fill="none" stroke="orange" stroke-dasharray="5,2" d="M146.98,-82.24C152.39,-83.33 157.77,-84.35 163,-85.25 215.17,-94.21 273.87,-100.9 321.71,-105.49"/>
<polygon fill="orange" stroke="orange" points="147.88,-78.85 137.38,-80.22 146.44,-85.7 147.88,-78.85"/>
</a>
</g>
<text xml:space="preserve" text-anchor="start" x="166" y="-108.17" font-family="FreeSans" font-size="10.00" fill="grey">&lt; CharacteristicSetPredicate &gt;</text>
</g>
<!-- Node3 -->
<g id="Node000003" class="node">
<title>Node3</title>
<g id="a_Node000003"><a xlink:href="structDGtal_1_1functors_1_1NotPointPredicate.html" target="_top" xlink:title=" ">
<polygon fill="white" stroke="#666666" points="507.88,-79.5 328.38,-79.5 328.38,-49 507.88,-49 507.88,-79.5"/>
<text xml:space="preserve" text-anchor="start" x="336.38" y="-66" font-family="FreeSans" font-size="10.00">DGtal::functors::NotPoint</text>
<text xml:space="preserve" text-anchor="middle" x="418.12" y="-54.75" font-family="FreeSans" font-size="10.00">Predicate&lt; InCoreDomainPredicate &gt;</text>
</a>
</g>
</g>
<!-- Node1&#45;&gt;Node3 -->
<g id="edge2_Node000001_Node000003" class="edge">
<title>Node1&#45;&gt;Node3</title>
<g id="a_edge2_Node000001_Node000003"><a xlink:title=" ">
<path fill="none" stroke="orange" stroke-dasharray="5,2" d="M156.62,-64.25C208.5,-64.25 275.24,-64.25 328.18,-64.25"/>
<polygon fill="orange" stroke="orange" points="156.63,-60.75 146.63,-64.25 156.63,-67.75 156.63,-60.75"/>
</a>
</g>
<text xml:space="preserve" text-anchor="start" x="172.38" y="-69" font-family="FreeSans" font-size="10.00" fill="grey">&lt; InCoreDomainPredicate &gt;</text>
</g>
<!-- Node4 -->
<g id="Node000004" class="node">
<title>Node4</title>
<g id="a_Node000004"><a xlink:href="structDGtal_1_1functors_1_1NotPointPredicate.html" target="_top" xlink:title=" ">
<polygon fill="white" stroke="#666666" points="481.62,-30.5 354.62,-30.5 354.62,0 481.62,0 481.62,-30.5"/>
<text xml:space="preserve" text-anchor="start" x="362.62" y="-17" font-family="FreeSans" font-size="10.00">DGtal::functors::NotPoint</text>
<text xml:space="preserve" text-anchor="middle" x="418.12" y="-5.75" font-family="FreeSans" font-size="10.00">Predicate&lt; DigitalSet &gt;</text>
</a>
</g>
</g>
<!-- Node1&#45;&gt;Node4 -->
<g id="edge3_Node000001_Node000004" class="edge">
<title>Node1&#45;&gt;Node4</title>
<g id="a_edge3_Node000001_Node000004"><a xlink:title=" ">
<path fill="none" stroke="orange" stroke-dasharray="5,2" d="M145.96,-46.24C151.71,-45.06 157.44,-43.96 163,-43 227.73,-31.83 302.55,-24.3 354.16,-19.93"/>
<polygon fill="orange" stroke="orange" points="145.44,-42.77 136.4,-48.29 146.91,-49.62 145.44,-42.77"/>
</a>
</g>
<text xml:space="preserve" text-anchor="start" x="203.12" y="-47.75" font-family="FreeSans" font-size="10.00" fill="grey">&lt; DigitalSet &gt;</text>
</g>
</g>
</svg>
