<?xml version="1.0" encoding="UTF-8" standalone="no"?>
<!DOCTYPE svg PUBLIC "-//W3C//DTD SVG 1.1//EN"
 "http://www.w3.org/Graphics/SVG/1.1/DTD/svg11.dtd">
<!-- Generated by graphviz version 14.1.0 (20251206.1807)
 -->
<!-- Title: DGtal::detail::AffineGeometryScalarOperations&lt; TScalar &gt; Pages: 1 -->
<svg width="387pt" height="137pt"
 viewBox="0.00 0.00 387.00 137.00" xmlns="http://www.w3.org/2000/svg" xmlns:xlink="http://www.w3.org/1999/xlink">
<g id="graph0" class="graph" transform="scale(1 1) rotate(0) translate(4 132.5)">
<title>DGtal::detail::AffineGeometryScalarOperations&lt; TScalar &gt;</title>
<!-- Node1 -->
<g id="Node000001" class="node">
<title>Node1</title>
<g id="a_Node000001"><a xlink:title="Aim: Internal class used by AffineGeometry to differentiate operations on point coordinates,...">
<polygon fill="#999999" stroke="#666666" points="145,-79.5 0,-79.5 0,-49 145,-49 145,-79.5"/>
<text xml:space="preserve" text-anchor="start" x="8" y="-66" font-family="FreeSans" font-size="10.00">DGtal::detail::AffineGeometry</text>
<text xml:space="preserve" text-anchor="middle" x="72.5" y="-54.75" font-family="FreeSans" font-size="10.00">ScalarOperations&lt; TScalar &gt;</text>
</a>
</g>
</g>
<!-- Node2 -->
<g id="Node000002" class="node">
<title>Node2</title>
<g id="a_Node000002"><a xlink:href="structDGtal_1_1detail_1_1AffineGeometryScalarOperations.html" target="_top" xlink:title=" ">
<polygon fill="white" stroke="#666666" points="378.5,-128.5 233.5,-128.5 233.5,-98 378.5,-98 378.5,-128.5"/>
<text xml:space="preserve" text-anchor="start" x="241.5" y="-115" font-family="FreeSans" font-size="10.00">DGtal::detail::AffineGeometry</text>
<text xml:space="preserve" text-anchor="middle" x="306" y="-103.75" font-family="FreeSans" font-size="10.00">ScalarOperations&lt; Scalar &gt;</text>
</a>
</g>
</g>
<!-- Node1&#45;&gt;Node2 -->
<g id="edge1_Node000001_Node000002" class="edge">
<title>Node1&#45;&gt;Node2</title>
<g id="a_edge1_Node000001_Node000002"><a xlink:title=" ">
<path fill="none" stroke="orange" stroke-dasharray="5,2" d="M149.95,-82.38C154.36,-83.37 158.73,-84.33 163,-85.25 185.72,-90.15 210.56,-95.17 233.02,-99.58"/>
<polygon fill="orange" stroke="orange" points="150.94,-79.02 140.41,-80.22 149.4,-85.84 150.94,-79.02"/>
</a>
</g>
<text xml:space="preserve" text-anchor="start" x="166.38" y="-100.49" font-family="FreeSans" font-size="10.00" fill="grey">&lt; Scalar &gt;</text>
</g>
<!-- Node3 -->
<g id="Node000003" class="node">
<title>Node3</title>
<g id="a_Node000003"><a xlink:href="structDGtal_1_1detail_1_1AffineGeometryScalarOperations_3_01double_01_4.html" target="_top" xlink:title="Aim: Internal class used by AffineGeometry to differentiate operations on lattice points and operatio...">
<polygon fill="white" stroke="#666666" points="378.5,-79.5 233.5,-79.5 233.5,-49 378.5,-49 378.5,-79.5"/>
<text xml:space="preserve" text-anchor="start" x="241.5" y="-66" font-family="FreeSans" font-size="10.00">DGtal::detail::AffineGeometry</text>
<text xml:space="preserve" text-anchor="middle" x="306" y="-54.75" font-family="FreeSans" font-size="10.00">ScalarOperations&lt; double &gt;</text>
</a>
</g>
</g>
<!-- Node1&#45;&gt;Node3 -->
<g id="edge2_Node000001_Node000003" class="edge">
<title>Node1&#45;&gt;Node3</title>
<g id="a_edge2_Node000001_Node000003"><a xlink:title=" ">
<path fill="none" stroke="orange" stroke-dasharray="5,2" d="M156.78,-64.25C181.74,-64.25 208.9,-64.25 233.07,-64.25"/>
<polygon fill="orange" stroke="orange" points="156.99,-60.75 146.99,-64.25 156.99,-67.75 156.99,-60.75"/>
</a>
</g>
<text xml:space="preserve" text-anchor="start" x="166" y="-69" font-family="FreeSans" font-size="10.00" fill="grey">&lt; double &gt;</text>
</g>
<!-- Node4 -->
<g id="Node000004" class="node">
<title>Node4</title>
<g id="a_Node000004"><a xlink:href="structDGtal_1_1detail_1_1AffineGeometryScalarOperations_3_01float_01_4.html" target="_top" xlink:title="Aim: Internal class used by AffineGeometry to differentiate operations on lattice points and operatio...">
<polygon fill="white" stroke="#666666" points="378.5,-30.5 233.5,-30.5 233.5,0 378.5,0 378.5,-30.5"/>
<text xml:space="preserve" text-anchor="start" x="241.5" y="-17" font-family="FreeSans" font-size="10.00">DGtal::detail::AffineGeometry</text>
<text xml:space="preserve" text-anchor="middle" x="306" y="-5.75" font-family="FreeSans" font-size="10.00">ScalarOperations&lt; float &gt;</text>
</a>
</g>
</g>
<!-- Node1&#45;&gt;Node4 -->
<g id="edge3_Node000001_Node000004" class="edge">
<title>Node1&#45;&gt;Node4</title>
<g id="a_edge3_Node000001_Node000004"><a xlink:title=" ">
<path fill="none" stroke="orange" stroke-dasharray="5,2" d="M149.29,-46.03C153.92,-44.99 158.52,-43.97 163,-43 185.71,-38.09 210.55,-33.1 233.01,-28.74"/>
<polygon fill="orange" stroke="orange" points="148.89,-42.53 139.92,-48.17 150.45,-49.36 148.89,-42.53"/>
</a>
</g>
<text xml:space="preserve" text-anchor="start" x="170.88" y="-47.75" font-family="FreeSans" font-size="10.00" fill="grey">&lt; float &gt;</text>
</g>
</g>
</svg>
