<?xml version="1.0" encoding="UTF-8" standalone="no"?>
<!DOCTYPE svg PUBLIC "-//W3C//DTD SVG 1.1//EN"
 "http://www.w3.org/Graphics/SVG/1.1/DTD/svg11.dtd">
<!-- Generated by graphviz version 14.1.0 (20251206.1807)
 -->
<!-- Title: DGtal::concepts::CPointFunctor&lt; T &gt; Pages: 1 -->
<!--zoomable 109 -->

<svg id="main" version="1.1" xmlns="http://www.w3.org/2000/svg" xmlns:xlink="http://www.w3.org/1999/xlink" xml:space="preserve" onload="init(evt)">

<style type="text/css"><![CDATA[
.node, .edge {opacity: 0.7;}
.node.selected, .edge.selected {opacity: 1;}
.edge:hover path { stroke: red; }
.edge:hover polygon { stroke: red; fill: red; }
]]></style>

<defs>
  <circle id="rim" cx="0" cy="0" r="7"/>
  <circle id="rim2" cx="0" cy="0" r="3.5"/>
  <g id="zoomPlus">
    <use xlink:href="#rim" fill="#404040"><set attributeName="fill" to="#808080" begin="zoomplus.mouseover" end="zoomplus.mouseout"/></use>
    <path d="M-4,0h8M0,-4v8" fill="none" stroke="white" stroke-width="1.5" pointer-events="none"/>
  </g>
  <g id="zoomMin">
    <use xlink:href="#rim" fill="#404040"><set attributeName="fill" to="#808080" begin="zoomminus.mouseover" end="zoomminus.mouseout"/></use>
    <path d="M-4,0h8" fill="none" stroke="white" stroke-width="1.5" pointer-events="none"/>
  </g>
  <g id="arrowUp" transform="translate(30 24)">
    <use xlink:href="#rim"/>
    <path pointer-events="none" fill="none" stroke="white" stroke-width="1.5" d="M0,-3.0v7 M-2.5,-0.5L0,-3.0L2.5,-0.5"/>
  </g>
  <g id="arrowRight" transform="rotate(90) translate(36 -43)">
    <use xlink:href="#rim"/>
    <path pointer-events="none" fill="none" stroke="white" stroke-width="1.5" d="M0,-3.0v7 M-2.5,-0.5L0,-3.0L2.5,-0.5"/>
  </g>
  <g id="arrowDown" transform="rotate(180) translate(-30 -48)">
    <use xlink:href="#rim"/>
    <path pointer-events="none" fill="none" stroke="white" stroke-width="1.5" d="M0,-3.0v7 M-2.5,-0.5L0,-3.0L2.5,-0.5"/>
  </g>
  <g id="arrowLeft" transform="rotate(270) translate(-36 17)">
    <use xlink:href="#rim"/>
    <path pointer-events="none" fill="none" stroke="white" stroke-width="1.5" d="M0,-3.0v7 M-2.5,-0.5L0,-3.0L2.5,-0.5"/>
  </g>
  <g id="resetDef">
    <use xlink:href="#rim2" fill="#404040"><set attributeName="fill" to="#808080" begin="reset.mouseover" end="reset.mouseout"/></use>
  </g>
</defs>
<script type="application/ecmascript">
var viewWidth = 1853;
var viewHeight = 109;
var sectionId = 'dynsection-0';
</script>
<script type="application/ecmascript" xlink:href="svg.min.js"/>
<svg id="graph" class="graph">
<g id="viewport">
<title>DGtal::concepts::CPointFunctor&lt; T &gt;</title>
<!-- Node1 -->
<g id="Node000001" class="node">
<title>Node1</title>
<g id="a_Node000001"><a xlink:title="Aim: Defines a functor on points.">
<polygon fill="#999999" stroke="#666666" points="1021.75,-70.88 841.5,-70.88 841.5,-51.62 1021.75,-51.62 1021.75,-70.88"/>
<text xml:space="preserve" text-anchor="middle" x="931.62" y="-57.38" font-family="FreeSans" font-size="10.00">DGtal::concepts::CPointFunctor&lt; T &gt;</text>
</a>
</g>
</g>
<!-- Node7 -->
<g id="Node000007" class="node">
<title>Node7</title>
<g id="a_Node000007"><a xlink:href="structDGtal_1_1concepts_1_1COrientationFunctor.html" target="_top" xlink:title="Aim: This concept gathers models implementing an orientation test of &#160;points in a space of dimension ...">
<polygon fill="white" stroke="#666666" points="1247.38,-99.5 1099.38,-99.5 1099.38,-69 1247.38,-69 1247.38,-99.5"/>
<text xml:space="preserve" text-anchor="start" x="1107.38" y="-86" font-family="FreeSans" font-size="10.00">DGtal::concepts::COrientation</text>
<text xml:space="preserve" text-anchor="middle" x="1173.38" y="-74.75" font-family="FreeSans" font-size="10.00">Functor&lt; T &gt;</text>
</a>
</g>
</g>
<!-- Node1&#45;&gt;Node7 -->
<g id="edge6_Node000001_Node000007" class="edge">
<title>Node1&#45;&gt;Node7</title>
<g id="a_edge6_Node000001_Node000007"><a xlink:title=" ">
<path fill="none" stroke="#63b8ff" d="M1033.6,-70.94C1055.52,-73.04 1078.29,-75.22 1098.91,-77.2"/>
<polygon fill="#63b8ff" stroke="#63b8ff" points="1034.04,-67.46 1023.75,-69.99 1033.37,-74.43 1034.04,-67.46"/>
</a>
</g>
</g>
<!-- Node9 -->
<g id="Node000009" class="node">
<title>Node9</title>
<g id="a_Node000009"><a xlink:href="structDGtal_1_1concepts_1_1CPointFunctor.html" target="_top" xlink:title=" ">
<polygon fill="white" stroke="#666666" points="1262,-49.88 1084.75,-49.88 1084.75,-30.62 1262,-30.62 1262,-49.88"/>
<text xml:space="preserve" text-anchor="middle" x="1173.38" y="-36.38" font-family="FreeSans" font-size="10.00">DGtal::concepts::CPointFunctor&lt; I &gt;</text>
</a>
</g>
</g>
<!-- Node1&#45;&gt;Node9 -->
<g id="edge8_Node000001_Node000009" class="edge">
<title>Node1&#45;&gt;Node9</title>
<g id="a_edge8_Node000001_Node000009"><a xlink:title=" ">
<path fill="none" stroke="orange" stroke-dasharray="5,2" d="M1028.82,-50.03C1032.51,-49.67 1036.16,-49.32 1039.75,-49 1054.23,-47.7 1069.61,-46.5 1084.58,-45.45"/>
<polygon fill="orange" stroke="orange" points="1028.77,-46.51 1019.17,-51 1029.47,-53.48 1028.77,-46.51"/>
</a>
</g>
<text xml:space="preserve" text-anchor="start" x="1042.75" y="-53.75" font-family="FreeSans" font-size="10.00" fill="grey">&lt; I &gt;</text>
</g>
<!-- Node2 -->
<g id="Node000002" class="node">
<title>Node2</title>
<g id="a_Node000002"><a xlink:href="structDGtal_1_1concepts_1_1CUnaryFunctor.html" target="_top" xlink:title=" ">
<polygon fill="white" stroke="#666666" points="804.5,-76.5 644.5,-76.5 644.5,-46 804.5,-46 804.5,-76.5"/>
<text xml:space="preserve" text-anchor="start" x="652.5" y="-63" font-family="FreeSans" font-size="10.00">DGtal::concepts::CUnaryFunctor</text>
<text xml:space="preserve" text-anchor="middle" x="724.5" y="-51.75" font-family="FreeSans" font-size="10.00">&lt; T, T::Point, T::Value &gt;</text>
</a>
</g>
</g>
<!-- Node2&#45;&gt;Node1 -->
<g id="edge1_Node000001_Node000002" class="edge">
<title>Node2&#45;&gt;Node1</title>
<g id="a_edge1_Node000001_Node000002"><a xlink:title=" ">
<path fill="none" stroke="#63b8ff" d="M816.12,-61.25C824.48,-61.25 832.95,-61.25 841.3,-61.25"/>
<polygon fill="#63b8ff" stroke="#63b8ff" points="816.32,-57.75 806.32,-61.25 816.32,-64.75 816.32,-57.75"/>
</a>
</g>
</g>
<!-- Node3 -->
<g id="Node000003" class="node">
<title>Node3</title>
<g id="a_Node000003"><a xlink:href="structboost_1_1Assignable.html" target="_top" xlink:title="Go to http://www.sgi.com/tech/stl/Assignable.html.">
<polygon fill="white" stroke="#666666" points="479.5,-91.88 361.5,-91.88 361.5,-72.62 479.5,-72.62 479.5,-91.88"/>
<text xml:space="preserve" text-anchor="middle" x="420.5" y="-78.38" font-family="FreeSans" font-size="10.00">boost::Assignable&lt; T &gt;</text>
</a>
</g>
</g>
<!-- Node3&#45;&gt;Node2 -->
<g id="edge2_Node000002_Node000003" class="edge">
<title>Node3&#45;&gt;Node2</title>
<g id="a_edge2_Node000002_Node000003"><a xlink:title=" ">
<path fill="none" stroke="#63b8ff" d="M491.01,-77.42C536.67,-74.24 596.51,-70.08 644.04,-66.78"/>
<polygon fill="#63b8ff" stroke="#63b8ff" points="490.97,-73.91 481.24,-78.1 491.46,-80.89 490.97,-73.91"/>
</a>
</g>
</g>
<!-- Node4 -->
<g id="Node000004" class="node">
<title>Node4</title>
<g id="a_Node000004"><a xlink:href="structDGtal_1_1concepts_1_1CUnaryFunctor.html" target="_top" xlink:title="Aim: Defines a unary functor, which associates arguments to results.">
<polygon fill="white" stroke="#666666" points="500.5,-54.5 340.5,-54.5 340.5,-24 500.5,-24 500.5,-54.5"/>
<text xml:space="preserve" text-anchor="start" x="348.5" y="-41" font-family="FreeSans" font-size="10.00">DGtal::concepts::CUnaryFunctor</text>
<text xml:space="preserve" text-anchor="middle" x="420.5" y="-29.75" font-family="FreeSans" font-size="10.00">&lt; X, A, R &gt;</text>
</a>
</g>
</g>
<!-- Node4&#45;&gt;Node2 -->
<g id="edge3_Node000002_Node000004" class="edge">
<title>Node4&#45;&gt;Node2</title>
<g id="a_edge3_Node000002_Node000004"><a xlink:title=" ">
<path fill="none" stroke="orange" stroke-dasharray="5,2" d="M512.34,-40.58C547.99,-41.65 589.22,-43.57 626.5,-47 632.26,-47.53 638.21,-48.17 644.18,-48.88"/>
<polygon fill="orange" stroke="orange" points="512.58,-37.08 502.48,-40.3 512.38,-44.08 512.58,-37.08"/>
</a>
</g>
<text xml:space="preserve" text-anchor="start" x="521.5" y="-51.75" font-family="FreeSans" font-size="10.00" fill="grey">&lt; T, T::Point, T::Value &gt;</text>
</g>
<!-- Node5 -->
<g id="Node000005" class="node">
<title>Node5</title>
<g id="a_Node000005"><a xlink:href="structboost_1_1Assignable.html" target="_top" xlink:title=" ">
<polygon fill="white" stroke="#666666" points="303.5,-48.88 184.75,-48.88 184.75,-29.62 303.5,-29.62 303.5,-48.88"/>
<text xml:space="preserve" text-anchor="middle" x="244.12" y="-35.38" font-family="FreeSans" font-size="10.00">boost::Assignable&lt; X &gt;</text>
</a>
</g>
</g>
<!-- Node5&#45;&gt;Node4 -->
<g id="edge4_Node000004_Node000005" class="edge">
<title>Node5&#45;&gt;Node4</title>
<g id="a_edge4_Node000004_Node000005"><a xlink:title=" ">
<path fill="none" stroke="#63b8ff" d="M315.1,-39.25C323.3,-39.25 331.72,-39.25 340.04,-39.25"/>
<polygon fill="#63b8ff" stroke="#63b8ff" points="315.19,-35.75 305.19,-39.25 315.19,-42.75 315.19,-35.75"/>
</a>
</g>
</g>
<!-- Node6 -->
<g id="Node000006" class="node">
<title>Node6</title>
<g id="a_Node000006"><a xlink:href="structboost_1_1Assignable.html" target="_top" xlink:title="Go to http://www.sgi.com/tech/stl/Assignable.html.">
<polygon fill="white" stroke="#666666" points="118,-48.88 0,-48.88 0,-29.62 118,-29.62 118,-48.88"/>
<text xml:space="preserve" text-anchor="middle" x="59" y="-35.38" font-family="FreeSans" font-size="10.00">boost::Assignable&lt; T &gt;</text>
</a>
</g>
</g>
<!-- Node6&#45;&gt;Node5 -->
<g id="edge5_Node000005_Node000006" class="edge">
<title>Node6&#45;&gt;Node5</title>
<g id="a_edge5_Node000005_Node000006"><a xlink:title=" ">
<path fill="none" stroke="orange" stroke-dasharray="5,2" d="M129.76,-39.25C147.75,-39.25 166.92,-39.25 184.29,-39.25"/>
<polygon fill="orange" stroke="orange" points="129.96,-35.75 119.96,-39.25 129.96,-42.75 129.96,-35.75"/>
</a>
</g>
<text xml:space="preserve" text-anchor="start" x="139" y="-44" font-family="FreeSans" font-size="10.00" fill="grey">&lt; X &gt;</text>
</g>
<!-- Node8 -->
<g id="Node000008" class="node">
<title>Node8</title>
<g id="a_Node000008"><a xlink:href="structDGtal_1_1concepts_1_1COrientationFunctor2.html" target="_top" xlink:title="Aim: This concept is a refinement of COrientationFunctor, useful for simple algebraic curves that can...">
<polygon fill="white" stroke="#666666" points="1447,-100.5 1299,-100.5 1299,-70 1447,-70 1447,-100.5"/>
<text xml:space="preserve" text-anchor="start" x="1307" y="-87" font-family="FreeSans" font-size="10.00">DGtal::concepts::COrientation</text>
<text xml:space="preserve" text-anchor="middle" x="1373" y="-75.75" font-family="FreeSans" font-size="10.00">Functor2&lt; T &gt;</text>
</a>
</g>
</g>
<!-- Node7&#45;&gt;Node8 -->
<g id="edge7_Node000007_Node000008" class="edge">
<title>Node7&#45;&gt;Node8</title>
<g id="a_edge7_Node000007_Node000008"><a xlink:title=" ">
<path fill="none" stroke="#63b8ff" d="M1259.17,-84.68C1272.36,-84.75 1285.9,-84.81 1298.81,-84.88"/>
<polygon fill="#63b8ff" stroke="#63b8ff" points="1259.21,-81.18 1249.2,-84.63 1259.18,-88.18 1259.21,-81.18"/>
</a>
</g>
</g>
<!-- Node10 -->
<g id="Node000010" class="node">
<title>Node10</title>
<g id="a_Node000010"><a xlink:href="structDGtal_1_1concepts_1_1CTrivialConstImage.html" target="_top" xlink:title="Aim: Defines the concept describing a read&#45;only image, which is a refinement of CPointFunctor.">
<polygon fill="white" stroke="#666666" points="1436.5,-51.5 1309.5,-51.5 1309.5,-21 1436.5,-21 1436.5,-51.5"/>
<text xml:space="preserve" text-anchor="start" x="1317.5" y="-38" font-family="FreeSans" font-size="10.00">DGtal::concepts::CTrivial</text>
<text xml:space="preserve" text-anchor="middle" x="1373" y="-26.75" font-family="FreeSans" font-size="10.00">ConstImage&lt; I &gt;</text>
</a>
</g>
</g>
<!-- Node9&#45;&gt;Node10 -->
<g id="edge9_Node000009_Node000010" class="edge">
<title>Node9&#45;&gt;Node10</title>
<g id="a_edge9_Node000009_Node000010"><a xlink:title=" ">
<path fill="none" stroke="#63b8ff" d="M1273.98,-38.23C1285.98,-37.99 1297.96,-37.75 1309.21,-37.52"/>
<polygon fill="#63b8ff" stroke="#63b8ff" points="1273.94,-34.73 1264.01,-38.44 1274.08,-41.73 1273.94,-34.73"/>
</a>
</g>
</g>
<!-- Node11 -->
<g id="Node000011" class="node">
<title>Node11</title>
<g id="a_Node000011"><a xlink:href="structDGtal_1_1concepts_1_1CConstImage.html" target="_top" xlink:title="Aim: Defines the concept describing a read&#45;only image, which is a refinement of CPointFunctor.">
<polygon fill="white" stroke="#666666" points="1659,-67.88 1484,-67.88 1484,-48.62 1659,-48.62 1659,-67.88"/>
<text xml:space="preserve" text-anchor="middle" x="1571.5" y="-54.38" font-family="FreeSans" font-size="10.00">DGtal::concepts::CConstImage&lt; I &gt;</text>
</a>
</g>
</g>
<!-- Node10&#45;&gt;Node11 -->
<g id="edge10_Node000010_Node000011" class="edge">
<title>Node10&#45;&gt;Node11</title>
<g id="a_edge10_Node000010_Node000011"><a xlink:title=" ">
<path fill="none" stroke="#63b8ff" d="M1448.3,-44.57C1459.8,-45.86 1471.77,-47.2 1483.52,-48.51"/>
<polygon fill="#63b8ff" stroke="#63b8ff" points="1448.82,-41.1 1438.49,-43.47 1448.04,-48.06 1448.82,-41.1"/>
</a>
</g>
</g>
<!-- Node13 -->
<g id="Node000013" class="node">
<title>Node13</title>
<g id="a_Node000013"><a xlink:href="structDGtal_1_1concepts_1_1CTrivialImage.html" target="_top" xlink:title="Aim: Defines the concept describing an image without extra ranges, which is a refinement of CTrivialC...">
<polygon fill="white" stroke="#666666" points="1635,-30.5 1508,-30.5 1508,0 1635,0 1635,-30.5"/>
<text xml:space="preserve" text-anchor="start" x="1516" y="-17" font-family="FreeSans" font-size="10.00">DGtal::concepts::CTrivial</text>
<text xml:space="preserve" text-anchor="middle" x="1571.5" y="-5.75" font-family="FreeSans" font-size="10.00">Image&lt; I &gt;</text>
</a>
</g>
</g>
<!-- Node10&#45;&gt;Node13 -->
<g id="edge12_Node000010_Node000013" class="edge">
<title>Node10&#45;&gt;Node13</title>
<g id="a_edge12_Node000010_Node000013"><a xlink:title=" ">
<path fill="none" stroke="#63b8ff" d="M1448.3,-28.31C1467.81,-26.22 1488.67,-23.99 1507.53,-21.98"/>
<polygon fill="#63b8ff" stroke="#63b8ff" points="1448.06,-24.82 1438.49,-29.36 1448.8,-31.78 1448.06,-24.82"/>
</a>
</g>
</g>
<!-- Node12 -->
<g id="Node000012" class="node">
<title>Node12</title>
<g id="a_Node000012"><a xlink:href="structDGtal_1_1concepts_1_1CImage.html" target="_top" xlink:title="Aim: Defines the concept describing a read/write image, having an output iterator.">
<polygon fill="white" stroke="#666666" points="1844.75,-45.88 1696,-45.88 1696,-26.62 1844.75,-26.62 1844.75,-45.88"/>
<text xml:space="preserve" text-anchor="middle" x="1770.38" y="-32.38" font-family="FreeSans" font-size="10.00">DGtal::concepts::CImage&lt; I &gt;</text>
</a>
</g>
</g>
<!-- Node11&#45;&gt;Node12 -->
<g id="edge11_Node000011_Node000012" class="edge">
<title>Node11&#45;&gt;Node12</title>
<g id="a_edge11_Node000011_Node000012"><a xlink:title=" ">
<path fill="none" stroke="#63b8ff" d="M1670.77,-47.27C1679.11,-46.34 1687.44,-45.41 1695.55,-44.5"/>
<polygon fill="#63b8ff" stroke="#63b8ff" points="1670.48,-43.78 1660.93,-48.37 1671.26,-50.74 1670.48,-43.78"/>
</a>
</g>
</g>
<!-- Node13&#45;&gt;Node12 -->
<g id="edge13_Node000013_Node000012" class="edge">
<title>Node13&#45;&gt;Node12</title>
<g id="a_edge13_Node000013_Node000012"><a xlink:title=" ">
<path fill="none" stroke="#63b8ff" d="M1646.36,-23.13C1662.53,-24.85 1679.65,-26.68 1695.81,-28.4"/>
<polygon fill="#63b8ff" stroke="#63b8ff" points="1647.15,-19.69 1636.84,-22.11 1646.41,-26.65 1647.15,-19.69"/>
</a>
</g>
</g>
</g>
</svg>

<g id="navigator" transform="translate(0 0)" fill="#404254">
  <rect fill="#f2f5e9" fill-opacity="0.5" stroke="#606060" stroke-width=".5" x="0" y="0" width="60" height="60"/>
  <use id="zoomplus" xlink:href="#zoomPlus" x="17" y="9" onmousedown="handleZoom(evt,'in')"/>
  <use id="zoomminus" xlink:href="#zoomMin" x="42" y="9" onmousedown="handleZoom(evt,'out')"/>
  <use id="reset" xlink:href="#resetDef" x="30" y="36" onmousedown="handleReset()"/>
   <use id="arrowup" xlink:href="#arrowUp" x="0" y="0" onmousedown="handlePan(0,-1)"/>
  <use id="arrowright" xlink:href="#arrowRight" x="0" y="0" onmousedown="handlePan(1,0)"/>
  <use id="arrowdown" xlink:href="#arrowDown" x="0" y="0" onmousedown="handlePan(0,1)"/>
  <use id="arrowleft" xlink:href="#arrowLeft" x="0" y="0" onmousedown="handlePan(-1,0)"/>
</g>
<svg viewBox="0 0 15 15" width="100%" height="30px" preserveAspectRatio="xMaxYMin meet">
 <g id="arrow_out" transform="scale(0.3 0.3)">
  <a xlink:href="structDGtal_1_1concepts_1_1CPointFunctor__inherit__graph_org.svg" target="_base">
   <rect id="button" ry="5" rx="5" y="6" x="6" height="38" width="38"
        fill="#f2f5e9" fill-opacity="0.5" stroke="#606060" stroke-width="1.0"/>
   <path id="arrow"
     d="M 11.500037,31.436501 C 11.940474,20.09759 22.043105,11.32322 32.158766,21.979434 L 37.068811,17.246167 C 37.068811,17.246167 37.088388,32 37.088388,32 L 22.160133,31.978069 C 22.160133,31.978069 26.997745,27.140456 26.997745,27.140456 C 18.528582,18.264221 13.291696,25.230495 11.500037,31.436501 z"
     style="fill:#404040;"/>
  </a>
 </g>
</svg>

<style type='text/css'>
<![CDATA[
[data-mouse-over-selected='false'] { opacity: 0.7; }
[data-mouse-over-selected='true']  { opacity: 1.0; }
]]>
</style>
<script type="application/ecmascript"><![CDATA[
document.addEventListener('DOMContentLoaded', (event) => {
  highlightEdges();
  highlightAdjacentNodes();
});
]]></script>
</svg>
