<?xml version="1.0" encoding="UTF-8" standalone="no"?>
<!DOCTYPE svg PUBLIC "-//W3C//DTD SVG 1.1//EN"
 "http://www.w3.org/Graphics/SVG/1.1/DTD/svg11.dtd">
<!-- Generated by graphviz version 14.1.0 (20251206.1807)
 -->
<!-- Title: DGtal::CanonicCellEmbedder&lt; TKSpace &gt; Pages: 1 -->
<svg width="469pt" height="198pt"
 viewBox="0.00 0.00 469.00 198.00" xmlns="http://www.w3.org/2000/svg" xmlns:xlink="http://www.w3.org/1999/xlink">
<g id="graph0" class="graph" transform="scale(1 1) rotate(0) translate(4 193.5)">
<title>DGtal::CanonicCellEmbedder&lt; TKSpace &gt;</title>
<!-- Node1 -->
<g id="Node000001" class="node">
<title>Node1</title>
<g id="a_Node000001"><a xlink:title="Aim: A trivial embedder for signed and unsigned cell, which corresponds to the canonic injection of c...">
<polygon fill="#999999" stroke="#666666" points="145,-112.5 0,-112.5 0,-82 145,-82 145,-112.5"/>
<text xml:space="preserve" text-anchor="start" x="8" y="-99" font-family="FreeSans" font-size="10.00">DGtal::CanonicCellEmbedder</text>
<text xml:space="preserve" text-anchor="middle" x="72.5" y="-87.75" font-family="FreeSans" font-size="10.00">&lt; TKSpace &gt;</text>
</a>
</g>
</g>
<!-- Node2 -->
<g id="Node000002" class="node">
<title>Node2</title>
<g id="a_Node000002"><a xlink:href="structDGtal_1_1CanonicCellEmbedder.html" target="_top" xlink:title=" ">
<polygon fill="white" stroke="#666666" points="461,-189.5 316,-189.5 316,-159 461,-159 461,-189.5"/>
<text xml:space="preserve" text-anchor="start" x="324" y="-176" font-family="FreeSans" font-size="10.00">DGtal::CanonicCellEmbedder</text>
<text xml:space="preserve" text-anchor="middle" x="388.5" y="-164.75" font-family="FreeSans" font-size="10.00">&lt; KSpace &gt;</text>
</a>
</g>
</g>
<!-- Node1&#45;&gt;Node2 -->
<g id="edge1_Node000001_Node000002" class="edge">
<title>Node1&#45;&gt;Node2</title>
<g id="a_edge1_Node000001_Node000002"><a xlink:title=" ">
<path fill="none" stroke="orange" stroke-dasharray="5,2" d="M112.7,-118C128.03,-125.36 145.99,-133.09 163,-138.25 212.87,-153.36 270.99,-162.46 315.61,-167.73"/>
<polygon fill="orange" stroke="orange" points="114.42,-114.94 103.91,-113.66 111.33,-121.22 114.42,-114.94"/>
</a>
</g>
<text xml:space="preserve" text-anchor="start" x="204.25" y="-169.91" font-family="FreeSans" font-size="10.00" fill="grey">&lt; KSpace &gt;</text>
</g>
<!-- Node3 -->
<g id="Node000003" class="node">
<title>Node3</title>
<g id="a_Node000003"><a xlink:href="structDGtal_1_1CanonicCellEmbedder.html" target="_top" xlink:title=" ">
<polygon fill="white" stroke="#666666" points="461,-140.5 316,-140.5 316,-110 461,-110 461,-140.5"/>
<text xml:space="preserve" text-anchor="start" x="324" y="-127" font-family="FreeSans" font-size="10.00">DGtal::CanonicCellEmbedder</text>
<text xml:space="preserve" text-anchor="middle" x="388.5" y="-115.75" font-family="FreeSans" font-size="10.00">&lt; Z3i::KSpace &gt;</text>
</a>
</g>
</g>
<!-- Node1&#45;&gt;Node3 -->
<g id="edge2_Node000001_Node000003" class="edge">
<title>Node1&#45;&gt;Node3</title>
<g id="a_edge2_Node000001_Node000003"><a xlink:title=" ">
<path fill="none" stroke="orange" stroke-dasharray="5,2" d="M156.47,-104.65C205.97,-109.06 268.22,-114.61 315.62,-118.84"/>
<polygon fill="orange" stroke="orange" points="156.92,-101.18 146.65,-103.77 156.3,-108.15 156.92,-101.18"/>
</a>
</g>
<text xml:space="preserve" text-anchor="start" x="194.5" y="-121.73" font-family="FreeSans" font-size="10.00" fill="grey">&lt; Z3i::KSpace &gt;</text>
</g>
<!-- Node4 -->
<g id="Node000004" class="node">
<title>Node4</title>
<g id="a_Node000004"><a xlink:href="structDGtal_1_1CanonicCellEmbedder.html" target="_top" xlink:title=" ">
<polygon fill="white" stroke="#666666" points="461,-90.12 316,-90.12 316,-48.38 461,-48.38 461,-90.12"/>
<text xml:space="preserve" text-anchor="start" x="324" y="-76.62" font-family="FreeSans" font-size="10.00">DGtal::CanonicCellEmbedder</text>
<text xml:space="preserve" text-anchor="start" x="324" y="-65.38" font-family="FreeSans" font-size="10.00">&lt; DGtal::KhalimskySpaceND</text>
<text xml:space="preserve" text-anchor="middle" x="388.5" y="-54.12" font-family="FreeSans" font-size="10.00">&lt; 3, Integer &gt; &gt;</text>
</a>
</g>
</g>
<!-- Node1&#45;&gt;Node4 -->
<g id="edge3_Node000001_Node000004" class="edge">
<title>Node1&#45;&gt;Node4</title>
<g id="a_edge3_Node000001_Node000004"><a xlink:title=" ">
<path fill="none" stroke="orange" stroke-dasharray="5,2" d="M124.12,-78.15C136.65,-74.26 150.16,-70.74 163,-68.75 213.55,-60.9 271.28,-61.23 315.54,-63.41"/>
<polygon fill="orange" stroke="orange" points="123.27,-74.75 114.85,-81.17 125.44,-81.4 123.27,-74.75"/>
</a>
</g>
<text xml:space="preserve" text-anchor="start" x="166" y="-88.75" font-family="FreeSans" font-size="10.00" fill="grey">&lt; DGtal::KhalimskySpaceND</text>
<text xml:space="preserve" text-anchor="start" x="166" y="-73.5" font-family="FreeSans" font-size="10.00" fill="grey">  &lt; 3, Integer &gt; &gt;</text>
</g>
<!-- Node5 -->
<g id="Node000005" class="node">
<title>Node5</title>
<g id="a_Node000005"><a xlink:href="structDGtal_1_1CanonicCellEmbedder.html" target="_top" xlink:title=" ">
<polygon fill="white" stroke="#666666" points="461,-30.5 316,-30.5 316,0 461,0 461,-30.5"/>
<text xml:space="preserve" text-anchor="start" x="324" y="-17" font-family="FreeSans" font-size="10.00">DGtal::CanonicCellEmbedder</text>
<text xml:space="preserve" text-anchor="middle" x="388.5" y="-5.75" font-family="FreeSans" font-size="10.00">&lt; KSp &gt;</text>
</a>
</g>
</g>
<!-- Node1&#45;&gt;Node5 -->
<g id="edge4_Node000001_Node000005" class="edge">
<title>Node1&#45;&gt;Node5</title>
<g id="a_edge4_Node000001_Node000005"><a xlink:title=" ">
<path fill="none" stroke="orange" stroke-dasharray="5,2" d="M102,-74.69C118.79,-62.64 141,-48.72 163,-41 212.14,-23.75 270.68,-17.46 315.66,-15.41"/>
<polygon fill="orange" stroke="orange" points="99.95,-71.85 94,-80.62 104.12,-77.48 99.95,-71.85"/>
</a>
</g>
<text xml:space="preserve" text-anchor="start" x="212.12" y="-45.75" font-family="FreeSans" font-size="10.00" fill="grey">&lt; KSp &gt;</text>
</g>
</g>
</svg>
