<?xml version="1.0" encoding="UTF-8" standalone="no"?>
<!DOCTYPE svg PUBLIC "-//W3C//DTD SVG 1.1//EN"
 "http://www.w3.org/Graphics/SVG/1.1/DTD/svg11.dtd">
<!-- Generated by graphviz version 14.1.0 (20251206.1807)
 -->
<!-- Title: DGtal::DelaunayIntegralKernel&lt; dim, TCoordinateInteger, TInternalInteger &gt; Pages: 1 -->
<!--zoomable 173 -->

<svg id="main" version="1.1" xmlns="http://www.w3.org/2000/svg" xmlns:xlink="http://www.w3.org/1999/xlink" xml:space="preserve" onload="init(evt)">

<style type="text/css"><![CDATA[
.node, .edge {opacity: 0.7;}
.node.selected, .edge.selected {opacity: 1;}
.edge:hover path { stroke: red; }
.edge:hover polygon { stroke: red; fill: red; }
]]></style>

<defs>
  <circle id="rim" cx="0" cy="0" r="7"/>
  <circle id="rim2" cx="0" cy="0" r="3.5"/>
  <g id="zoomPlus">
    <use xlink:href="#rim" fill="#404040"><set attributeName="fill" to="#808080" begin="zoomplus.mouseover" end="zoomplus.mouseout"/></use>
    <path d="M-4,0h8M0,-4v8" fill="none" stroke="white" stroke-width="1.5" pointer-events="none"/>
  </g>
  <g id="zoomMin">
    <use xlink:href="#rim" fill="#404040"><set attributeName="fill" to="#808080" begin="zoomminus.mouseover" end="zoomminus.mouseout"/></use>
    <path d="M-4,0h8" fill="none" stroke="white" stroke-width="1.5" pointer-events="none"/>
  </g>
  <g id="arrowUp" transform="translate(30 24)">
    <use xlink:href="#rim"/>
    <path pointer-events="none" fill="none" stroke="white" stroke-width="1.5" d="M0,-3.0v7 M-2.5,-0.5L0,-3.0L2.5,-0.5"/>
  </g>
  <g id="arrowRight" transform="rotate(90) translate(36 -43)">
    <use xlink:href="#rim"/>
    <path pointer-events="none" fill="none" stroke="white" stroke-width="1.5" d="M0,-3.0v7 M-2.5,-0.5L0,-3.0L2.5,-0.5"/>
  </g>
  <g id="arrowDown" transform="rotate(180) translate(-30 -48)">
    <use xlink:href="#rim"/>
    <path pointer-events="none" fill="none" stroke="white" stroke-width="1.5" d="M0,-3.0v7 M-2.5,-0.5L0,-3.0L2.5,-0.5"/>
  </g>
  <g id="arrowLeft" transform="rotate(270) translate(-36 17)">
    <use xlink:href="#rim"/>
    <path pointer-events="none" fill="none" stroke="white" stroke-width="1.5" d="M0,-3.0v7 M-2.5,-0.5L0,-3.0L2.5,-0.5"/>
  </g>
  <g id="resetDef">
    <use xlink:href="#rim2" fill="#404040"><set attributeName="fill" to="#808080" begin="reset.mouseover" end="reset.mouseout"/></use>
  </g>
</defs>
<script type="application/ecmascript">
var viewWidth = 982;
var viewHeight = 173;
var sectionId = 'dynsection-0';
</script>
<script type="application/ecmascript" xlink:href="svg.min.js"/>
<svg id="graph" class="graph">
<g id="viewport">
<title>DGtal::DelaunayIntegralKernel&lt; dim, TCoordinateInteger, TInternalInteger &gt;</title>
<!-- Node1 -->
<g id="Node000001" class="node">
<title>Node1</title>
<g id="a_Node000001"><a xlink:title="Aim: a geometric kernel to compute the Delaunay triangulation of digital points with integer&#45;only ari...">
<polygon fill="#999999" stroke="#666666" points="654.25,-64.12 505.5,-64.12 505.5,-22.38 654.25,-22.38 654.25,-64.12"/>
<text xml:space="preserve" text-anchor="start" x="513.5" y="-50.62" font-family="FreeSans" font-size="10.00">DGtal::DelaunayIntegralKernel</text>
<text xml:space="preserve" text-anchor="start" x="513.5" y="-39.38" font-family="FreeSans" font-size="10.00">&lt; dim, TCoordinateInteger,</text>
<text xml:space="preserve" text-anchor="middle" x="579.88" y="-28.12" font-family="FreeSans" font-size="10.00"> TInternalInteger &gt;</text>
</a>
</g>
</g>
<!-- Node1&#45;&gt;Node1 -->
<g id="edge3_Node000001_Node000001" class="edge">
<title>Node1&#45;&gt;Node1</title>
<g id="a_edge3_Node000001_Node000001"><a xlink:title=" ">
<path fill="none" stroke="orange" stroke-dasharray="5,2" d="M572.34,-75.57C573.69,-79.53 576.2,-82.12 579.88,-82.12 586.41,-82.12 589.26,-73.92 588.45,-64.44"/>
<polygon fill="orange" stroke="orange" points="575.86,-75.58 571.44,-65.95 568.89,-76.23 575.86,-75.58"/>
</a>
</g>
<text xml:space="preserve" text-anchor="start" x="521.75" y="-102.12" font-family="FreeSans" font-size="10.00" fill="grey">&lt; dim, TCoordinateInteger,</text>
<text xml:space="preserve" text-anchor="start" x="521.75" y="-86.88" font-family="FreeSans" font-size="10.00" fill="grey">   TInternalInteger &gt;</text>
</g>
<!-- Node1&#45;&gt;Node1 -->
<g id="edge4_Node000001_Node000001" class="edge">
<title>Node1&#45;&gt;Node1</title>
<g id="a_edge4_Node000001_Node000001"><a xlink:title=" ">
<path fill="none" stroke="orange" stroke-dasharray="5,2" d="M563.31,-75.59C560.18,-95.11 565.71,-114.62 579.88,-114.62 596.74,-114.62 601.36,-86.95 593.71,-64.55"/>
<polygon fill="orange" stroke="orange" points="566.67,-76.57 565.67,-66.02 559.87,-74.89 566.67,-76.57"/>
</a>
</g>
<text xml:space="preserve" text-anchor="start" x="521.75" y="-134.62" font-family="FreeSans" font-size="10.00" fill="grey">&lt; dim, TCoordinateInteger,</text>
<text xml:space="preserve" text-anchor="start" x="521.75" y="-119.38" font-family="FreeSans" font-size="10.00" fill="grey">   TInternalInteger &gt;</text>
</g>
<!-- Node4 -->
<g id="Node000004" class="node">
<title>Node4</title>
<g id="a_Node000004"><a xlink:href="structDGtal_1_1DelaunayIntegralKernel.html" target="_top" xlink:title=" ">
<polygon fill="white" stroke="#666666" points="971.75,-92.12 823,-92.12 823,-50.38 971.75,-50.38 971.75,-92.12"/>
<text xml:space="preserve" text-anchor="start" x="831" y="-78.62" font-family="FreeSans" font-size="10.00">DGtal::DelaunayIntegralKernel</text>
<text xml:space="preserve" text-anchor="start" x="831" y="-67.38" font-family="FreeSans" font-size="10.00">&lt; dim&#45;1, TCoordinateInteger,</text>
<text xml:space="preserve" text-anchor="middle" x="897.38" y="-56.12" font-family="FreeSans" font-size="10.00"> TInternalInteger &gt;</text>
</a>
</g>
</g>
<!-- Node1&#45;&gt;Node4 -->
<g id="edge5_Node000001_Node000004" class="edge">
<title>Node1&#45;&gt;Node4</title>
<g id="a_edge5_Node000001_Node000004"><a xlink:title=" ">
<path fill="none" stroke="orange" stroke-dasharray="5,2" d="M665.67,-50.78C714.66,-55.12 775.7,-60.54 822.69,-64.71"/>
<polygon fill="orange" stroke="orange" points="666.23,-47.31 655.96,-49.91 665.61,-54.28 666.23,-47.31"/>
</a>
</g>
<text xml:space="preserve" text-anchor="start" x="675.25" y="-82.19" font-family="FreeSans" font-size="10.00" fill="grey">&lt; dim&#45;1, TCoordinateInteger,</text>
<text xml:space="preserve" text-anchor="start" x="675.25" y="-66.94" font-family="FreeSans" font-size="10.00" fill="grey">   TInternalInteger &gt;</text>
</g>
<!-- Node5 -->
<g id="Node000005" class="node">
<title>Node5</title>
<g id="a_Node000005"><a xlink:href="structDGtal_1_1DelaunayIntegralKernel.html" target="_top" xlink:title=" ">
<polygon fill="white" stroke="#666666" points="974,-30.5 820.75,-30.5 820.75,0 974,0 974,-30.5"/>
<text xml:space="preserve" text-anchor="start" x="828.75" y="-17" font-family="FreeSans" font-size="10.00">DGtal::DelaunayIntegralKernel</text>
<text xml:space="preserve" text-anchor="middle" x="897.38" y="-5.75" font-family="FreeSans" font-size="10.00">&lt; dim, Integer, InternalInteger &gt;</text>
</a>
</g>
</g>
<!-- Node1&#45;&gt;Node5 -->
<g id="edge6_Node000001_Node000005" class="edge">
<title>Node1&#45;&gt;Node5</title>
<g id="a_edge6_Node000001_Node000005"><a xlink:title=" ">
<path fill="none" stroke="orange" stroke-dasharray="5,2" d="M651.21,-19C658.26,-17.27 665.35,-15.8 672.25,-14.75 721.2,-7.29 776.86,-7.37 820.47,-9.34"/>
<polygon fill="orange" stroke="orange" points="650.47,-15.58 641.69,-21.52 652.26,-22.35 650.47,-15.58"/>
</a>
</g>
<text xml:space="preserve" text-anchor="start" x="688.38" y="-34.75" font-family="FreeSans" font-size="10.00" fill="grey">&lt; dim, Integer, Internal</text>
<text xml:space="preserve" text-anchor="start" x="688.38" y="-19.5" font-family="FreeSans" font-size="10.00" fill="grey">  Integer &gt;</text>
</g>
<!-- Node2 -->
<g id="Node000002" class="node">
<title>Node2</title>
<g id="a_Node000002"><a xlink:href="structDGtal_1_1ConvexHullCommonKernel.html" target="_top" xlink:title=" ">
<polygon fill="white" stroke="#666666" points="468.5,-64.12 302.5,-64.12 302.5,-22.38 468.5,-22.38 468.5,-64.12"/>
<text xml:space="preserve" text-anchor="start" x="310.5" y="-50.62" font-family="FreeSans" font-size="10.00">DGtal::ConvexHullCommonKernel</text>
<text xml:space="preserve" text-anchor="start" x="310.5" y="-39.38" font-family="FreeSans" font-size="10.00">&lt; dim+1, DGtal::int64_t,</text>
<text xml:space="preserve" text-anchor="middle" x="385.5" y="-28.12" font-family="FreeSans" font-size="10.00"> DGtal::int64_t &gt;</text>
</a>
</g>
</g>
<!-- Node2&#45;&gt;Node1 -->
<g id="edge1_Node000001_Node000002" class="edge">
<title>Node2&#45;&gt;Node1</title>
<g id="a_edge1_Node000001_Node000002"><a xlink:title=" ">
<path fill="none" stroke="#63b8ff" d="M480.27,-43.25C488.61,-43.25 496.98,-43.25 505.13,-43.25"/>
<polygon fill="#63b8ff" stroke="#63b8ff" points="480.44,-39.75 470.44,-43.25 480.44,-46.75 480.44,-39.75"/>
</a>
</g>
</g>
<!-- Node3 -->
<g id="Node000003" class="node">
<title>Node3</title>
<g id="a_Node000003"><a xlink:href="structDGtal_1_1ConvexHullCommonKernel.html" target="_top" xlink:title="Aim: the common part of all geometric kernels for computing the convex hull or Delaunay triangulation...">
<polygon fill="white" stroke="#666666" points="166,-64.12 0,-64.12 0,-22.38 166,-22.38 166,-64.12"/>
<text xml:space="preserve" text-anchor="start" x="8" y="-50.62" font-family="FreeSans" font-size="10.00">DGtal::ConvexHullCommonKernel</text>
<text xml:space="preserve" text-anchor="start" x="8" y="-39.38" font-family="FreeSans" font-size="10.00">&lt; dim, TCoordinateInteger,</text>
<text xml:space="preserve" text-anchor="middle" x="83" y="-28.12" font-family="FreeSans" font-size="10.00"> TInternalInteger &gt;</text>
</a>
</g>
</g>
<!-- Node3&#45;&gt;Node2 -->
<g id="edge2_Node000002_Node000003" class="edge">
<title>Node3&#45;&gt;Node2</title>
<g id="a_edge2_Node000002_Node000003"><a xlink:title=" ">
<path fill="none" stroke="orange" stroke-dasharray="5,2" d="M177.47,-43.25C217.4,-43.25 263.61,-43.25 302.23,-43.25"/>
<polygon fill="orange" stroke="orange" points="177.63,-39.75 167.63,-43.25 177.63,-46.75 177.63,-39.75"/>
</a>
</g>
<text xml:space="preserve" text-anchor="start" x="187" y="-63.25" font-family="FreeSans" font-size="10.00" fill="grey">&lt; dim+1, DGtal::int64</text>
<text xml:space="preserve" text-anchor="start" x="187" y="-48" font-family="FreeSans" font-size="10.00" fill="grey">  _t, DGtal::int64_t &gt;</text>
</g>
</g>
</svg>

<g id="navigator" transform="translate(0 0)" fill="#404254">
  <rect fill="#f2f5e9" fill-opacity="0.5" stroke="#606060" stroke-width=".5" x="0" y="0" width="60" height="60"/>
  <use id="zoomplus" xlink:href="#zoomPlus" x="17" y="9" onmousedown="handleZoom(evt,'in')"/>
  <use id="zoomminus" xlink:href="#zoomMin" x="42" y="9" onmousedown="handleZoom(evt,'out')"/>
  <use id="reset" xlink:href="#resetDef" x="30" y="36" onmousedown="handleReset()"/>
   <use id="arrowup" xlink:href="#arrowUp" x="0" y="0" onmousedown="handlePan(0,-1)"/>
  <use id="arrowright" xlink:href="#arrowRight" x="0" y="0" onmousedown="handlePan(1,0)"/>
  <use id="arrowdown" xlink:href="#arrowDown" x="0" y="0" onmousedown="handlePan(0,1)"/>
  <use id="arrowleft" xlink:href="#arrowLeft" x="0" y="0" onmousedown="handlePan(-1,0)"/>
</g>
<svg viewBox="0 0 15 15" width="100%" height="30px" preserveAspectRatio="xMaxYMin meet">
 <g id="arrow_out" transform="scale(0.3 0.3)">
  <a xlink:href="structDGtal_1_1DelaunayIntegralKernel__inherit__graph_org.svg" target="_base">
   <rect id="button" ry="5" rx="5" y="6" x="6" height="38" width="38"
        fill="#f2f5e9" fill-opacity="0.5" stroke="#606060" stroke-width="1.0"/>
   <path id="arrow"
     d="M 11.500037,31.436501 C 11.940474,20.09759 22.043105,11.32322 32.158766,21.979434 L 37.068811,17.246167 C 37.068811,17.246167 37.088388,32 37.088388,32 L 22.160133,31.978069 C 22.160133,31.978069 26.997745,27.140456 26.997745,27.140456 C 18.528582,18.264221 13.291696,25.230495 11.500037,31.436501 z"
     style="fill:#404040;"/>
  </a>
 </g>
</svg>

<style type='text/css'>
<![CDATA[
[data-mouse-over-selected='false'] { opacity: 0.7; }
[data-mouse-over-selected='true']  { opacity: 1.0; }
]]>
</style>
<script type="application/ecmascript"><![CDATA[
document.addEventListener('DOMContentLoaded', (event) => {
  highlightEdges();
  highlightAdjacentNodes();
});
]]></script>
</svg>
