<?xml version="1.0" encoding="UTF-8" standalone="no"?>
<!DOCTYPE svg PUBLIC "-//W3C//DTD SVG 1.1//EN"
 "http://www.w3.org/Graphics/SVG/1.1/DTD/svg11.dtd">
<!-- Generated by graphviz version 14.1.0 (20251206.1807)
 -->
<!-- Title: DGtal::DelaunayRationalKernel&lt; dim, TCoordinateInteger, TInternalInteger &gt; Pages: 1 -->
<svg width="986pt" height="173pt"
 viewBox="0.00 0.00 986.00 173.00" xmlns="http://www.w3.org/2000/svg" xmlns:xlink="http://www.w3.org/1999/xlink">
<g id="graph0" class="graph" transform="scale(1 1) rotate(0) translate(4 169.12)">
<title>DGtal::DelaunayRationalKernel&lt; dim, TCoordinateInteger, TInternalInteger &gt;</title>
<!-- Node1 -->
<g id="Node000001" class="node">
<title>Node1</title>
<g id="a_Node000001"><a xlink:title="Aim: a geometric kernel to compute the Delaunay triangulation of a range of floating points with inte...">
<polygon fill="#999999" stroke="#666666" points="658,-64.12 505.5,-64.12 505.5,-22.38 658,-22.38 658,-64.12"/>
<text xml:space="preserve" text-anchor="start" x="513.5" y="-50.62" font-family="FreeSans" font-size="10.00">DGtal::DelaunayRationalKernel</text>
<text xml:space="preserve" text-anchor="start" x="513.5" y="-39.38" font-family="FreeSans" font-size="10.00">&lt; dim, TCoordinateInteger,</text>
<text xml:space="preserve" text-anchor="middle" x="581.75" y="-28.12" font-family="FreeSans" font-size="10.00"> TInternalInteger &gt;</text>
</a>
</g>
</g>
<!-- Node1&#45;&gt;Node1 -->
<g id="edge3_Node000001_Node000001" class="edge">
<title>Node1&#45;&gt;Node1</title>
<g id="a_edge3_Node000001_Node000001"><a xlink:title=" ">
<path fill="none" stroke="orange" stroke-dasharray="5,2" d="M574.06,-75.57C575.44,-79.53 578,-82.12 581.75,-82.12 588.41,-82.12 591.33,-73.92 590.49,-64.44"/>
<polygon fill="orange" stroke="orange" points="577.58,-75.57 573.15,-65.95 570.61,-76.24 577.58,-75.57"/>
</a>
</g>
<text xml:space="preserve" text-anchor="start" x="523.62" y="-102.12" font-family="FreeSans" font-size="10.00" fill="grey">&lt; dim, TCoordinateInteger,</text>
<text xml:space="preserve" text-anchor="start" x="523.62" y="-86.88" font-family="FreeSans" font-size="10.00" fill="grey">   TInternalInteger &gt;</text>
</g>
<!-- Node1&#45;&gt;Node1 -->
<g id="edge4_Node000001_Node000001" class="edge">
<title>Node1&#45;&gt;Node1</title>
<g id="a_edge4_Node000001_Node000001"><a xlink:title=" ">
<path fill="none" stroke="orange" stroke-dasharray="5,2" d="M564.85,-75.59C561.66,-95.11 567.3,-114.62 581.75,-114.62 598.96,-114.62 603.67,-86.95 595.87,-64.55"/>
<polygon fill="orange" stroke="orange" points="568.21,-76.57 567.26,-66.02 561.42,-74.86 568.21,-76.57"/>
</a>
</g>
<text xml:space="preserve" text-anchor="start" x="523.62" y="-134.62" font-family="FreeSans" font-size="10.00" fill="grey">&lt; dim, TCoordinateInteger,</text>
<text xml:space="preserve" text-anchor="start" x="523.62" y="-119.38" font-family="FreeSans" font-size="10.00" fill="grey">   TInternalInteger &gt;</text>
</g>
<!-- Node4 -->
<g id="Node000004" class="node">
<title>Node4</title>
<g id="a_Node000004"><a xlink:href="structDGtal_1_1DelaunayRationalKernel.html" target="_top" xlink:title=" ">
<polygon fill="white" stroke="#666666" points="977.38,-92.12 824.88,-92.12 824.88,-50.38 977.38,-50.38 977.38,-92.12"/>
<text xml:space="preserve" text-anchor="start" x="832.88" y="-78.62" font-family="FreeSans" font-size="10.00">DGtal::DelaunayRationalKernel</text>
<text xml:space="preserve" text-anchor="start" x="832.88" y="-67.38" font-family="FreeSans" font-size="10.00">&lt; dim&#45;1, TCoordinateInteger,</text>
<text xml:space="preserve" text-anchor="middle" x="901.12" y="-56.12" font-family="FreeSans" font-size="10.00"> TInternalInteger &gt;</text>
</a>
</g>
</g>
<!-- Node1&#45;&gt;Node4 -->
<g id="edge5_Node000001_Node000004" class="edge">
<title>Node1&#45;&gt;Node4</title>
<g id="a_edge5_Node000001_Node000004"><a xlink:title=" ">
<path fill="none" stroke="orange" stroke-dasharray="5,2" d="M669.79,-50.93C718.27,-55.21 778.04,-60.48 824.54,-64.58"/>
<polygon fill="orange" stroke="orange" points="670.14,-47.45 659.87,-50.05 669.53,-54.42 670.14,-47.45"/>
</a>
</g>
<text xml:space="preserve" text-anchor="start" x="679" y="-82.98" font-family="FreeSans" font-size="10.00" fill="grey">&lt; dim&#45;1, TCoordinateInteger,</text>
<text xml:space="preserve" text-anchor="start" x="679" y="-67.73" font-family="FreeSans" font-size="10.00" fill="grey">   TInternalInteger &gt;</text>
</g>
<!-- Node5 -->
<g id="Node000005" class="node">
<title>Node5</title>
<g id="a_Node000005"><a xlink:href="structDGtal_1_1DelaunayRationalKernel.html" target="_top" xlink:title=" ">
<polygon fill="white" stroke="#666666" points="977.75,-30.5 824.5,-30.5 824.5,0 977.75,0 977.75,-30.5"/>
<text xml:space="preserve" text-anchor="start" x="832.5" y="-17" font-family="FreeSans" font-size="10.00">DGtal::DelaunayRationalKernel</text>
<text xml:space="preserve" text-anchor="middle" x="901.12" y="-5.75" font-family="FreeSans" font-size="10.00">&lt; dim, Integer, InternalInteger &gt;</text>
</a>
</g>
</g>
<!-- Node1&#45;&gt;Node5 -->
<g id="edge6_Node000001_Node000005" class="edge">
<title>Node1&#45;&gt;Node5</title>
<g id="a_edge6_Node000001_Node000005"><a xlink:title=" ">
<path fill="none" stroke="orange" stroke-dasharray="5,2" d="M654.3,-19.06C661.56,-17.31 668.88,-15.81 676,-14.75 724.97,-7.43 780.63,-7.51 824.24,-9.45"/>
<polygon fill="orange" stroke="orange" points="653.61,-15.63 644.81,-21.52 655.37,-22.4 653.61,-15.63"/>
</a>
</g>
<text xml:space="preserve" text-anchor="start" x="692.12" y="-34.75" font-family="FreeSans" font-size="10.00" fill="grey">&lt; dim, Integer, Internal</text>
<text xml:space="preserve" text-anchor="start" x="692.12" y="-19.5" font-family="FreeSans" font-size="10.00" fill="grey">  Integer &gt;</text>
</g>
<!-- Node2 -->
<g id="Node000002" class="node">
<title>Node2</title>
<g id="a_Node000002"><a xlink:href="structDGtal_1_1ConvexHullCommonKernel.html" target="_top" xlink:title=" ">
<polygon fill="white" stroke="#666666" points="468.5,-64.12 302.5,-64.12 302.5,-22.38 468.5,-22.38 468.5,-64.12"/>
<text xml:space="preserve" text-anchor="start" x="310.5" y="-50.62" font-family="FreeSans" font-size="10.00">DGtal::ConvexHullCommonKernel</text>
<text xml:space="preserve" text-anchor="start" x="310.5" y="-39.38" font-family="FreeSans" font-size="10.00">&lt; dim+1, DGtal::int64_t,</text>
<text xml:space="preserve" text-anchor="middle" x="385.5" y="-28.12" font-family="FreeSans" font-size="10.00"> DGtal::int64_t &gt;</text>
</a>
</g>
</g>
<!-- Node2&#45;&gt;Node1 -->
<g id="edge1_Node000001_Node000002" class="edge">
<title>Node2&#45;&gt;Node1</title>
<g id="a_edge1_Node000001_Node000002"><a xlink:title=" ">
<path fill="none" stroke="#63b8ff" d="M480.19,-43.25C488.52,-43.25 496.88,-43.25 505.03,-43.25"/>
<polygon fill="#63b8ff" stroke="#63b8ff" points="480.39,-39.75 470.39,-43.25 480.39,-46.75 480.39,-39.75"/>
</a>
</g>
</g>
<!-- Node3 -->
<g id="Node000003" class="node">
<title>Node3</title>
<g id="a_Node000003"><a xlink:href="structDGtal_1_1ConvexHullCommonKernel.html" target="_top" xlink:title="Aim: the common part of all geometric kernels for computing the convex hull or Delaunay triangulation...">
<polygon fill="white" stroke="#666666" points="166,-64.12 0,-64.12 0,-22.38 166,-22.38 166,-64.12"/>
<text xml:space="preserve" text-anchor="start" x="8" y="-50.62" font-family="FreeSans" font-size="10.00">DGtal::ConvexHullCommonKernel</text>
<text xml:space="preserve" text-anchor="start" x="8" y="-39.38" font-family="FreeSans" font-size="10.00">&lt; dim, TCoordinateInteger,</text>
<text xml:space="preserve" text-anchor="middle" x="83" y="-28.12" font-family="FreeSans" font-size="10.00"> TInternalInteger &gt;</text>
</a>
</g>
</g>
<!-- Node3&#45;&gt;Node2 -->
<g id="edge2_Node000002_Node000003" class="edge">
<title>Node3&#45;&gt;Node2</title>
<g id="a_edge2_Node000002_Node000003"><a xlink:title=" ">
<path fill="none" stroke="orange" stroke-dasharray="5,2" d="M177.47,-43.25C217.4,-43.25 263.61,-43.25 302.23,-43.25"/>
<polygon fill="orange" stroke="orange" points="177.63,-39.75 167.63,-43.25 177.63,-46.75 177.63,-39.75"/>
</a>
</g>
<text xml:space="preserve" text-anchor="start" x="187" y="-63.25" font-family="FreeSans" font-size="10.00" fill="grey">&lt; dim+1, DGtal::int64</text>
<text xml:space="preserve" text-anchor="start" x="187" y="-48" font-family="FreeSans" font-size="10.00" fill="grey">  _t, DGtal::int64_t &gt;</text>
</g>
</g>
</svg>
