<?xml version="1.0" encoding="UTF-8" standalone="no"?>
<!DOCTYPE svg PUBLIC "-//W3C//DTD SVG 1.1//EN"
 "http://www.w3.org/Graphics/SVG/1.1/DTD/svg11.dtd">
<!-- Generated by graphviz version 14.1.0 (20251206.1807)
 -->
<!-- Title: DGtal::DrawWithBoardModifier Pages: 1 -->
<svg width="218pt" height="83pt"
 viewBox="0.00 0.00 218.00 83.00" xmlns="http://www.w3.org/2000/svg" xmlns:xlink="http://www.w3.org/1999/xlink">
<g id="graph0" class="graph" transform="scale(1 1) rotate(0) translate(4 78.5)">
<title>DGtal::DrawWithBoardModifier</title>
<!-- Node1 -->
<g id="Node000001" class="node">
<title>Node1</title>
<g id="a_Node000001"><a xlink:title=" ">
<polygon fill="#999999" stroke="#666666" points="184.75,-74.5 33.75,-74.5 33.75,-55.25 184.75,-55.25 184.75,-74.5"/>
<text xml:space="preserve" text-anchor="middle" x="109.25" y="-61" font-family="FreeSans" font-size="10.00">DGtal::DrawWithBoardModifier</text>
</a>
</g>
</g>
<!-- Node2 -->
<g id="Node000002" class="node">
<title>Node2</title>
<g id="a_Node000002"><a xlink:href="structDGtal_1_1CustomStyle.html" target="_top" xlink:title=" ">
<polygon fill="white" stroke="#666666" points="104.5,-19.25 0,-19.25 0,0 104.5,0 104.5,-19.25"/>
<text xml:space="preserve" text-anchor="middle" x="52.25" y="-5.75" font-family="FreeSans" font-size="10.00">DGtal::CustomStyle</text>
</a>
</g>
</g>
<!-- Node1&#45;&gt;Node2 -->
<g id="edge1_Node000001_Node000002" class="edge">
<title>Node1&#45;&gt;Node2</title>
<g id="a_edge1_Node000001_Node000002"><a xlink:title=" ">
<path fill="none" stroke="#63b8ff" d="M91.3,-47.11C81.52,-37.97 69.81,-27.03 61.78,-19.52"/>
<polygon fill="#63b8ff" stroke="#63b8ff" points="88.78,-49.54 98.47,-53.81 93.56,-44.42 88.78,-49.54"/>
</a>
</g>
</g>
<!-- Node3 -->
<g id="Node000003" class="node">
<title>Node3</title>
<g id="a_Node000003"><a xlink:href="structDGtal_1_1SetMode.html" target="_top" xlink:title="Modifier class in a Board2D stream. Useful to choose your own mode for a given class....">
<polygon fill="white" stroke="#666666" points="209.5,-19.25 123,-19.25 123,0 209.5,0 209.5,-19.25"/>
<text xml:space="preserve" text-anchor="middle" x="166.25" y="-5.75" font-family="FreeSans" font-size="10.00">DGtal::SetMode</text>
</a>
</g>
</g>
<!-- Node1&#45;&gt;Node3 -->
<g id="edge2_Node000001_Node000003" class="edge">
<title>Node1&#45;&gt;Node3</title>
<g id="a_edge2_Node000001_Node000003"><a xlink:title=" ">
<path fill="none" stroke="#63b8ff" d="M127.2,-47.11C136.98,-37.97 148.69,-27.03 156.72,-19.52"/>
<polygon fill="#63b8ff" stroke="#63b8ff" points="124.94,-44.42 120.03,-53.81 129.72,-49.54 124.94,-44.42"/>
</a>
</g>
</g>
</g>
</svg>
