<?xml version="1.0" encoding="UTF-8" standalone="no"?>
<!DOCTYPE svg PUBLIC "-//W3C//DTD SVG 1.1//EN"
 "http://www.w3.org/Graphics/SVG/1.1/DTD/svg11.dtd">
<!-- Generated by graphviz version 11.0.0 (20240428.1522)
 -->
<!-- Title: DGtal::PointVector&lt; dim, TEuclideanRing, TContainer &gt; Pages: 1 -->
<svg width="386pt" height="392pt"
 viewBox="0.00 0.00 385.75 391.50" xmlns="http://www.w3.org/2000/svg" xmlns:xlink="http://www.w3.org/1999/xlink">
<g id="graph0" class="graph" transform="scale(1 1) rotate(0) translate(4 387.5)">
<title>DGtal::PointVector&lt; dim, TEuclideanRing, TContainer &gt;</title>
<!-- Node1 -->
<g id="Node000001" class="node">
<title>Node1</title>
<g id="a_Node000001"><a xlink:title="Aim: Implements basic operations that will be used in Point and Vector classes.">
<polygon fill="#999999" stroke="#666666" points="118.75,-217.12 0,-217.12 0,-175.38 118.75,-175.38 118.75,-217.12"/>
<text text-anchor="start" x="8" y="-203.62" font-family="FreeSans" font-size="10.00">DGtal::PointVector</text>
<text text-anchor="start" x="8" y="-192.38" font-family="FreeSans" font-size="10.00">&lt; dim, TEuclideanRing,</text>
<text text-anchor="middle" x="59.38" y="-181.12" font-family="FreeSans" font-size="10.00"> TContainer &gt;</text>
</a>
</g>
</g>
<!-- Node2 -->
<g id="Node000002" class="node">
<title>Node2</title>
<g id="a_Node000002"><a xlink:href="classDGtal_1_1PointVector.html" target="_top" xlink:title=" ">
<polygon fill="white" stroke="#666666" points="368,-383.5 269.5,-383.5 269.5,-353 368,-353 368,-383.5"/>
<text text-anchor="start" x="277.5" y="-370" font-family="FreeSans" font-size="10.00">DGtal::PointVector</text>
<text text-anchor="middle" x="318.75" y="-358.75" font-family="FreeSans" font-size="10.00">&lt; 2, Integer &gt;</text>
</a>
</g>
</g>
<!-- Node1&#45;&gt;Node2 -->
<g id="edge1_Node000001_Node000002" class="edge">
<title>Node1&#45;&gt;Node2</title>
<g id="a_edge1_Node000001_Node000002"><a xlink:title=" ">
<path fill="none" stroke="orange" stroke-dasharray="5,2" d="M71.79,-228.09C83.67,-256.7 105.01,-297.71 136.75,-321.25 175.47,-349.97 230.18,-361.19 269.29,-365.54"/>
<polygon fill="orange" stroke="orange" points="75.06,-226.84 68.12,-218.84 68.55,-229.42 75.06,-226.84"/>
</a>
</g>
<text text-anchor="middle" x="189.25" y="-362" font-family="FreeSans" font-size="10.00" fill="grey"> &lt; 2, Integer &gt;</text>
</g>
<!-- Node3 -->
<g id="Node000003" class="node">
<title>Node3</title>
<g id="a_Node000003"><a xlink:href="classDGtal_1_1PointVector.html" target="_top" xlink:title=" ">
<polygon fill="white" stroke="#666666" points="372.5,-334.5 265,-334.5 265,-304 372.5,-304 372.5,-334.5"/>
<text text-anchor="start" x="273" y="-321" font-family="FreeSans" font-size="10.00">DGtal::PointVector</text>
<text text-anchor="middle" x="318.75" y="-309.75" font-family="FreeSans" font-size="10.00">&lt; 3, InternalInteger &gt;</text>
</a>
</g>
</g>
<!-- Node1&#45;&gt;Node3 -->
<g id="edge2_Node000001_Node000003" class="edge">
<title>Node1&#45;&gt;Node3</title>
<g id="a_edge2_Node000001_Node000003"><a xlink:title=" ">
<path fill="none" stroke="orange" stroke-dasharray="5,2" d="M84.95,-225.91C98.77,-240.86 117.15,-258.13 136.75,-269.25 176.59,-291.86 227.22,-304.71 264.79,-311.71"/>
<polygon fill="orange" stroke="orange" points="87.66,-223.69 78.38,-218.57 82.44,-228.36 87.66,-223.69"/>
</a>
</g>
<text text-anchor="middle" x="189.25" y="-308" font-family="FreeSans" font-size="10.00" fill="grey"> &lt; 3, InternalInteger &gt;</text>
</g>
<!-- Node4 -->
<g id="Node000004" class="node">
<title>Node4</title>
<g id="a_Node000004"><a xlink:href="classDGtal_1_1PointVector.html" target="_top" xlink:title=" ">
<polygon fill="white" stroke="#666666" points="371.38,-285.5 266.12,-285.5 266.12,-255 371.38,-255 371.38,-285.5"/>
<text text-anchor="start" x="274.12" y="-272" font-family="FreeSans" font-size="10.00">DGtal::PointVector</text>
<text text-anchor="middle" x="318.75" y="-260.75" font-family="FreeSans" font-size="10.00">&lt; 3, InternalScalar &gt;</text>
</a>
</g>
</g>
<!-- Node1&#45;&gt;Node4 -->
<g id="edge3_Node000001_Node000004" class="edge">
<title>Node1&#45;&gt;Node4</title>
<g id="a_edge3_Node000001_Node000004"><a xlink:title=" ">
<path fill="none" stroke="orange" stroke-dasharray="5,2" d="M118.02,-221.6C124.29,-224 130.62,-226.27 136.75,-228.25 179.42,-242.03 229.11,-253.23 265.63,-260.59"/>
<polygon fill="orange" stroke="orange" points="119.57,-218.45 108.98,-218.04 117,-224.97 119.57,-218.45"/>
</a>
</g>
<text text-anchor="middle" x="189.25" y="-256" font-family="FreeSans" font-size="10.00" fill="grey"> &lt; 3, InternalScalar &gt;</text>
</g>
<!-- Node5 -->
<g id="Node000005" class="node">
<title>Node5</title>
<g id="a_Node000005"><a xlink:href="classDGtal_1_1PointVector.html" target="_top" xlink:title=" ">
<polygon fill="white" stroke="#666666" points="377.75,-236.5 259.75,-236.5 259.75,-206 377.75,-206 377.75,-236.5"/>
<text text-anchor="start" x="267.75" y="-223" font-family="FreeSans" font-size="10.00">DGtal::PointVector</text>
<text text-anchor="middle" x="318.75" y="-211.75" font-family="FreeSans" font-size="10.00">&lt; dim, InternalInteger &gt;</text>
</a>
</g>
</g>
<!-- Node1&#45;&gt;Node5 -->
<g id="edge4_Node000001_Node000005" class="edge">
<title>Node1&#45;&gt;Node5</title>
<g id="a_edge4_Node000001_Node000005"><a xlink:title=" ">
<path fill="none" stroke="orange" stroke-dasharray="5,2" d="M130.48,-203.06C170.87,-206.98 221.03,-211.86 259.28,-215.57"/>
<polygon fill="orange" stroke="orange" points="130.9,-199.58 120.61,-202.1 130.22,-206.55 130.9,-199.58"/>
</a>
</g>
<text text-anchor="middle" x="189.25" y="-215" font-family="FreeSans" font-size="10.00" fill="grey"> &lt; dim, InternalInteger &gt;</text>
</g>
<!-- Node6 -->
<g id="Node000006" class="node">
<title>Node6</title>
<g id="a_Node000006"><a xlink:href="classDGtal_1_1PointVector.html" target="_top" xlink:title=" ">
<polygon fill="white" stroke="#666666" points="368,-187.5 269.5,-187.5 269.5,-157 368,-157 368,-187.5"/>
<text text-anchor="start" x="277.5" y="-174" font-family="FreeSans" font-size="10.00">DGtal::PointVector</text>
<text text-anchor="middle" x="318.75" y="-162.75" font-family="FreeSans" font-size="10.00">&lt; dim, Integer &gt;</text>
</a>
</g>
</g>
<!-- Node1&#45;&gt;Node6 -->
<g id="edge5_Node000001_Node000006" class="edge">
<title>Node1&#45;&gt;Node6</title>
<g id="a_edge5_Node000001_Node000006"><a xlink:title=" ">
<path fill="none" stroke="orange" stroke-dasharray="5,2" d="M130.52,-188.62C132.62,-188.41 134.7,-188.2 136.75,-188 181.64,-183.62 232.86,-179.22 269.33,-176.19"/>
<polygon fill="orange" stroke="orange" points="130.25,-185.12 120.66,-189.62 130.97,-192.09 130.25,-185.12"/>
</a>
</g>
<text text-anchor="middle" x="189.25" y="-189" font-family="FreeSans" font-size="10.00" fill="grey"> &lt; dim, Integer &gt;</text>
</g>
<!-- Node7 -->
<g id="Node000007" class="node">
<title>Node7</title>
<g id="a_Node000007"><a xlink:href="classDGtal_1_1PointVector.html" target="_top" xlink:title=" ">
<polygon fill="white" stroke="#666666" points="371.75,-139.12 265.75,-139.12 265.75,-97.38 371.75,-97.38 371.75,-139.12"/>
<text text-anchor="start" x="273.75" y="-125.62" font-family="FreeSans" font-size="10.00">DGtal::PointVector</text>
<text text-anchor="start" x="273.75" y="-114.38" font-family="FreeSans" font-size="10.00">&lt; Space::dimension,</text>
<text text-anchor="middle" x="318.75" y="-103.12" font-family="FreeSans" font-size="10.00"> Real &gt;</text>
</a>
</g>
</g>
<!-- Node1&#45;&gt;Node7 -->
<g id="edge6_Node000001_Node000007" class="edge">
<title>Node1&#45;&gt;Node7</title>
<g id="a_edge6_Node000001_Node000007"><a xlink:title=" ">
<path fill="none" stroke="orange" stroke-dasharray="5,2" d="M100.68,-169.3C111.97,-162.73 124.51,-156.29 136.75,-151.75 178.55,-136.24 228.54,-127.69 265.38,-123.11"/>
<polygon fill="orange" stroke="orange" points="99.17,-166.12 92.42,-174.29 102.79,-172.12 99.17,-166.12"/>
</a>
</g>
<text text-anchor="start" x="142.75" y="-164.25" font-family="FreeSans" font-size="10.00" fill="grey"> &lt; Space::dimension,</text>
<text text-anchor="middle" x="189.25" y="-153" font-family="FreeSans" font-size="10.00" fill="grey"> Real &gt;</text>
</g>
<!-- Node8 -->
<g id="Node000008" class="node">
<title>Node8</title>
<g id="a_Node000008"><a xlink:href="classDGtal_1_1PointVector.html" target="_top" xlink:title=" ">
<polygon fill="white" stroke="#666666" points="368,-79.5 269.5,-79.5 269.5,-49 368,-49 368,-79.5"/>
<text text-anchor="start" x="277.5" y="-66" font-family="FreeSans" font-size="10.00">DGtal::PointVector</text>
<text text-anchor="middle" x="318.75" y="-54.75" font-family="FreeSans" font-size="10.00">&lt; 2, double &gt;</text>
</a>
</g>
</g>
<!-- Node1&#45;&gt;Node8 -->
<g id="edge7_Node000001_Node000008" class="edge">
<title>Node1&#45;&gt;Node8</title>
<g id="a_edge7_Node000001_Node000008"><a xlink:title=" ">
<path fill="none" stroke="orange" stroke-dasharray="5,2" d="M80.47,-165.92C94.23,-147.44 114.05,-124.81 136.75,-111 177.37,-86.29 230.78,-74.55 269.03,-69.03"/>
<polygon fill="orange" stroke="orange" points="77.73,-163.75 74.73,-173.91 83.41,-167.83 77.73,-163.75"/>
</a>
</g>
<text text-anchor="middle" x="189.25" y="-112" font-family="FreeSans" font-size="10.00" fill="grey"> &lt; 2, double &gt;</text>
</g>
<!-- Node9 -->
<g id="Node000009" class="node">
<title>Node9</title>
<g id="a_Node000009"><a xlink:href="classDGtal_1_1PointVector.html" target="_top" xlink:title=" ">
<polygon fill="white" stroke="#666666" points="368,-30.5 269.5,-30.5 269.5,0 368,0 368,-30.5"/>
<text text-anchor="start" x="277.5" y="-17" font-family="FreeSans" font-size="10.00">DGtal::PointVector</text>
<text text-anchor="middle" x="318.75" y="-5.75" font-family="FreeSans" font-size="10.00">&lt; 3, double &gt;</text>
</a>
</g>
</g>
<!-- Node1&#45;&gt;Node9 -->
<g id="edge8_Node000001_Node000009" class="edge">
<title>Node1&#45;&gt;Node9</title>
<g id="a_edge8_Node000001_Node000009"><a xlink:title=" ">
<path fill="none" stroke="orange" stroke-dasharray="5,2" d="M69.64,-164.14C80.5,-132.34 101.63,-84.64 136.75,-58 174.95,-29.02 229.74,-19.28 269.01,-16.2"/>
<polygon fill="orange" stroke="orange" points="66.32,-163.04 66.56,-173.63 72.98,-165.2 66.32,-163.04"/>
</a>
</g>
<text text-anchor="middle" x="189.25" y="-59" font-family="FreeSans" font-size="10.00" fill="grey"> &lt; 3, double &gt;</text>
</g>
</g>
</svg>
