<?xml version="1.0" encoding="UTF-8" standalone="no"?>
<!DOCTYPE svg PUBLIC "-//W3C//DTD SVG 1.1//EN"
 "http://www.w3.org/Graphics/SVG/1.1/DTD/svg11.dtd">
<!-- Generated by graphviz version 11.0.0 (20240428.1522)
 -->
<!-- Title: DGtal::Simple2x2DetComputer&lt; TArgumentInteger, TResultInteger &gt; Pages: 1 -->
<svg width="504pt" height="98pt"
 viewBox="0.00 0.00 503.50 98.12" xmlns="http://www.w3.org/2000/svg" xmlns:xlink="http://www.w3.org/1999/xlink">
<g id="graph0" class="graph" transform="scale(1 1) rotate(0) translate(4 94.12)">
<title>DGtal::Simple2x2DetComputer&lt; TArgumentInteger, TResultInteger &gt;</title>
<!-- Node1 -->
<g id="Node000001" class="node">
<title>Node1</title>
<g id="a_Node000001"><a xlink:title="Aim: Small class useful to compute the determinant of a 2x2 matrix from its four coefficients,...">
<polygon fill="#999999" stroke="#666666" points="181,-63.12 0,-63.12 0,-32.62 181,-32.62 181,-63.12"/>
<text text-anchor="start" x="8" y="-49.62" font-family="FreeSans" font-size="10.00">DGtal::Simple2x2DetComputer</text>
<text text-anchor="middle" x="90.5" y="-38.38" font-family="FreeSans" font-size="10.00">&lt; TArgumentInteger, TResultInteger &gt;</text>
</a>
</g>
</g>
<!-- Node2 -->
<g id="Node000002" class="node">
<title>Node2</title>
<g id="a_Node000002"><a xlink:href="classDGtal_1_1Simple2x2DetComputer.html" target="_top" xlink:title=" ">
<polygon fill="white" stroke="#666666" points="493.62,-90.12 341.88,-90.12 341.88,-59.62 493.62,-59.62 493.62,-90.12"/>
<text text-anchor="start" x="349.88" y="-76.62" font-family="FreeSans" font-size="10.00">DGtal::Simple2x2DetComputer</text>
<text text-anchor="middle" x="417.75" y="-65.38" font-family="FreeSans" font-size="10.00">&lt; Integer &gt;</text>
</a>
</g>
</g>
<!-- Node1&#45;&gt;Node2 -->
<g id="edge1_Node000001_Node000002" class="edge">
<title>Node1&#45;&gt;Node2</title>
<g id="a_edge1_Node000001_Node000002"><a xlink:title=" ">
<path fill="none" stroke="orange" stroke-dasharray="5,2" d="M192.64,-56.27C240.78,-60.27 297.34,-64.96 341.6,-68.64"/>
<polygon fill="orange" stroke="orange" points="193,-52.79 182.75,-55.45 192.42,-59.76 193,-52.79"/>
</a>
</g>
<text text-anchor="middle" x="260.5" y="-68.62" font-family="FreeSans" font-size="10.00" fill="grey"> &lt; Integer &gt;</text>
</g>
<!-- Node3 -->
<g id="Node000003" class="node">
<title>Node3</title>
<g id="a_Node000003"><a xlink:href="classDGtal_1_1Simple2x2DetComputer.html" target="_top" xlink:title=" ">
<polygon fill="white" stroke="#666666" points="495.5,-41.75 340,-41.75 340,0 495.5,0 495.5,-41.75"/>
<text text-anchor="start" x="348" y="-28.25" font-family="FreeSans" font-size="10.00">DGtal::Simple2x2DetComputer</text>
<text text-anchor="start" x="348" y="-17" font-family="FreeSans" font-size="10.00">&lt; typename TPoint::Coordinate,</text>
<text text-anchor="middle" x="417.75" y="-5.75" font-family="FreeSans" font-size="10.00"> DGtal::int64_t &gt;</text>
</a>
</g>
</g>
<!-- Node1&#45;&gt;Node3 -->
<g id="edge2_Node000001_Node000003" class="edge">
<title>Node1&#45;&gt;Node3</title>
<g id="a_edge2_Node000001_Node000003"><a xlink:title=" ">
<path fill="none" stroke="orange" stroke-dasharray="5,2" d="M192.76,-31.05C194.86,-30.81 196.94,-30.59 199,-30.38 245.58,-25.58 298.01,-23.21 339.75,-22.03"/>
<polygon fill="orange" stroke="orange" points="192.44,-27.56 182.93,-32.25 193.28,-34.51 192.44,-27.56"/>
</a>
</g>
<text text-anchor="start" x="199" y="-42.88" font-family="FreeSans" font-size="10.00" fill="grey"> &lt; typename TPoint::</text>
<text text-anchor="middle" x="260.5" y="-31.62" font-family="FreeSans" font-size="10.00" fill="grey">Coordinate, DGtal::int64_t &gt;</text>
</g>
</g>
</svg>
