<?xml version="1.0" encoding="UTF-8" standalone="no"?>
<!DOCTYPE svg PUBLIC "-//W3C//DTD SVG 1.1//EN"
 "http://www.w3.org/Graphics/SVG/1.1/DTD/svg11.dtd">
<!-- Generated by graphviz version 11.0.0 (20240428.1522)
 -->
<!-- Title: DGtal::CubicalComplex&lt; TKSpace, TCellContainer &gt; Pages: 1 -->
<!--zoomable 159 -->

<svg id="main" version="1.1" xmlns="http://www.w3.org/2000/svg" xmlns:xlink="http://www.w3.org/1999/xlink" xml:space="preserve" onload="init(evt)">
<style type="text/css"><![CDATA[
.node, .edge {opacity: 0.7;}
.node.selected, .edge.selected {opacity: 1;}
.edge:hover path { stroke: red; }
.edge:hover polygon { stroke: red; fill: red; }
]]></style>

<defs>
  <circle id="rim" cx="0" cy="0" r="7"/>
  <circle id="rim2" cx="0" cy="0" r="3.5"/>
  <g id="zoomPlus">
    <use xlink:href="#rim" fill="#404040"><set attributeName="fill" to="#808080" begin="zoomplus.mouseover" end="zoomplus.mouseout"/></use>
    <path d="M-4,0h8M0,-4v8" fill="none" stroke="white" stroke-width="1.5" pointer-events="none"/>
  </g>
  <g id="zoomMin">
    <use xlink:href="#rim" fill="#404040"><set attributeName="fill" to="#808080" begin="zoomminus.mouseover" end="zoomminus.mouseout"/></use>
    <path d="M-4,0h8" fill="none" stroke="white" stroke-width="1.5" pointer-events="none"/>
  </g>
  <g id="arrowUp" transform="translate(30 24)">
    <use xlink:href="#rim"/>
    <path pointer-events="none" fill="none" stroke="white" stroke-width="1.5" d="M0,-3.0v7 M-2.5,-0.5L0,-3.0L2.5,-0.5"/>
  </g>
  <g id="arrowRight" transform="rotate(90) translate(36 -43)">
    <use xlink:href="#rim"/>
    <path pointer-events="none" fill="none" stroke="white" stroke-width="1.5" d="M0,-3.0v7 M-2.5,-0.5L0,-3.0L2.5,-0.5"/>
  </g>
  <g id="arrowDown" transform="rotate(180) translate(-30 -48)">
    <use xlink:href="#rim"/>
    <path pointer-events="none" fill="none" stroke="white" stroke-width="1.5" d="M0,-3.0v7 M-2.5,-0.5L0,-3.0L2.5,-0.5"/>
  </g>
  <g id="arrowLeft" transform="rotate(270) translate(-36 17)">
    <use xlink:href="#rim"/>
    <path pointer-events="none" fill="none" stroke="white" stroke-width="1.5" d="M0,-3.0v7 M-2.5,-0.5L0,-3.0L2.5,-0.5"/>
  </g>
  <g id="resetDef">
    <use xlink:href="#rim2" fill="#404040"><set attributeName="fill" to="#808080" begin="reset.mouseover" end="reset.mouseout"/></use>
  </g>
</defs>
<script type="application/ecmascript">
var viewWidth = 1104;
var viewHeight = 159;
var sectionId = 'dynsection-0';
</script>
<script type="application/ecmascript" xlink:href="svg.min.js"/>
<svg id="graph" class="graph">
<g id="viewport">
<title>DGtal::CubicalComplex&lt; TKSpace, TCellContainer &gt;</title>
<!-- Node1 -->
<g id="Node000001" class="node">
<title>Node1</title>
<g id="a_Node000001"><a xlink:title="Aim: This class represents an arbitrary cubical complex living in some Khalimsky space....">
<polygon fill="#999999" stroke="#666666" points="145.75,-80.5 0,-80.5 0,-50 145.75,-50 145.75,-80.5"/>
<text text-anchor="start" x="8" y="-67" font-family="FreeSans" font-size="10.00">DGtal::CubicalComplex</text>
<text text-anchor="middle" x="72.88" y="-55.75" font-family="FreeSans" font-size="10.00">&lt; TKSpace, TCellContainer &gt;</text>
</a>
</g>
</g>
<!-- Node2 -->
<g id="Node000002" class="node">
<title>Node2</title>
<g id="a_Node000002"><a xlink:href="classDGtal_1_1CubicalComplex.html" target="_top" xlink:title=" ">
<polygon fill="white" stroke="#666666" points="486.5,-93.75 307.75,-93.75 307.75,-40.75 486.5,-40.75 486.5,-93.75"/>
<text text-anchor="start" x="315.75" y="-80.25" font-family="FreeSans" font-size="10.00">DGtal::CubicalComplex</text>
<text text-anchor="start" x="315.75" y="-69" font-family="FreeSans" font-size="10.00">&lt; TKSpace, typename TKSpace</text>
<text text-anchor="start" x="315.75" y="-57.75" font-family="FreeSans" font-size="10.00">::template CellMap&lt; CubicalCellData</text>
<text text-anchor="middle" x="397.12" y="-46.5" font-family="FreeSans" font-size="10.00"> &gt;::Type &gt;</text>
</a>
</g>
</g>
<!-- Node1&#45;&gt;Node2 -->
<g id="edge1_Node000001_Node000002" class="edge">
<title>Node1&#45;&gt;Node2</title>
<g id="a_edge1_Node000001_Node000002"><a xlink:title=" ">
<path fill="none" stroke="orange" stroke-dasharray="5,2" d="M157.17,-65.71C197.25,-65.93 245.99,-66.22 289.75,-66.5 295.48,-66.54 301.37,-66.58 307.32,-66.62"/>
<polygon fill="orange" stroke="orange" points="157.37,-62.21 147.35,-65.65 157.33,-69.21 157.37,-62.21"/>
</a>
</g>
<text text-anchor="start" x="163.75" y="-90.5" font-family="FreeSans" font-size="10.00" fill="grey"> &lt; TKSpace, typename</text>
<text text-anchor="start" x="163.75" y="-79.25" font-family="FreeSans" font-size="10.00" fill="grey"> TKSpace::template CellMap</text>
<text text-anchor="middle" x="226.75" y="-68" font-family="FreeSans" font-size="10.00" fill="grey">&lt; CubicalCellData &gt;::Type &gt;</text>
</g>
<!-- Node6 -->
<g id="Node000006" class="node">
<title>Node6</title>
<g id="a_Node000006"><a xlink:href="classDGtal_1_1CubicalComplex.html" target="_top" xlink:title=" ">
<polygon fill="white" stroke="#666666" points="662.25,-147.75 504.5,-147.75 504.5,-94.75 662.25,-94.75 662.25,-147.75"/>
<text text-anchor="start" x="512.5" y="-134.25" font-family="FreeSans" font-size="10.00">DGtal::CubicalComplex</text>
<text text-anchor="start" x="512.5" y="-123" font-family="FreeSans" font-size="10.00">&lt; KSpace, typename KSpace</text>
<text text-anchor="start" x="512.5" y="-111.75" font-family="FreeSans" font-size="10.00">::template CellMap&lt; CubicalCell</text>
<text text-anchor="middle" x="583.38" y="-100.5" font-family="FreeSans" font-size="10.00">Data &gt;::Type &gt;</text>
</a>
</g>
</g>
<!-- Node1&#45;&gt;Node6 -->
<g id="edge5_Node000001_Node000006" class="edge">
<title>Node1&#45;&gt;Node6</title>
<g id="a_edge5_Node000001_Node000006"><a xlink:title=" ">
<path fill="none" stroke="orange" stroke-dasharray="5,2" d="M116.64,-85.13C131.27,-91.06 147.94,-96.87 163.75,-100.25 280.45,-125.21 419.43,-126.81 504.25,-124.74"/>
<polygon fill="orange" stroke="orange" points="118.35,-82.06 107.78,-81.42 115.65,-88.51 118.35,-82.06"/>
</a>
</g>
<text text-anchor="start" x="164.12" y="-141.5" font-family="FreeSans" font-size="10.00" fill="grey"> &lt; KSpace, typename</text>
<text text-anchor="start" x="164.12" y="-130.25" font-family="FreeSans" font-size="10.00" fill="grey"> KSpace::template CellMap</text>
<text text-anchor="middle" x="226.75" y="-119" font-family="FreeSans" font-size="10.00" fill="grey">&lt; CubicalCellData &gt;::Type &gt;</text>
</g>
<!-- Node7 -->
<g id="Node000007" class="node">
<title>Node7</title>
<g id="a_Node000007"><a xlink:href="classDGtal_1_1CubicalComplex.html" target="_top" xlink:title=" ">
<polygon fill="white" stroke="#666666" points="645,-30.5 521.75,-30.5 521.75,0 645,0 645,-30.5"/>
<text text-anchor="start" x="529.75" y="-17" font-family="FreeSans" font-size="10.00">DGtal::CubicalComplex</text>
<text text-anchor="middle" x="583.38" y="-5.75" font-family="FreeSans" font-size="10.00">&lt; KSpace, FixtureMap &gt;</text>
</a>
</g>
</g>
<!-- Node1&#45;&gt;Node7 -->
<g id="edge7_Node000001_Node000007" class="edge">
<title>Node1&#45;&gt;Node7</title>
<g id="a_edge7_Node000001_Node000007"><a xlink:title=" ">
<path fill="none" stroke="orange" stroke-dasharray="5,2" d="M157.16,-50.98C159.38,-50.65 161.58,-50.32 163.75,-50 227.55,-40.66 243.54,-38.19 307.75,-32.25 381.12,-25.46 465.78,-20.68 521.48,-17.96"/>
<polygon fill="orange" stroke="orange" points="156.78,-47.5 147.44,-52.49 157.85,-54.42 156.78,-47.5"/>
</a>
</g>
<text text-anchor="middle" x="226.75" y="-51" font-family="FreeSans" font-size="10.00" fill="grey"> &lt; KSpace, FixtureMap &gt;</text>
</g>
<!-- Node3 -->
<g id="Node000003" class="node">
<title>Node3</title>
<g id="a_Node000003"><a xlink:href="classDGtal_1_1VoxelComplex.html" target="_top" xlink:title="This class represents a voxel complex living in some Khalimsky space. Voxel complexes are derived fro...">
<polygon fill="white" stroke="#666666" points="826,-82.5 680.25,-82.5 680.25,-52 826,-52 826,-82.5"/>
<text text-anchor="start" x="688.25" y="-69" font-family="FreeSans" font-size="10.00">DGtal::VoxelComplex</text>
<text text-anchor="middle" x="753.12" y="-57.75" font-family="FreeSans" font-size="10.00">&lt; TKSpace, TCellContainer &gt;</text>
</a>
</g>
</g>
<!-- Node2&#45;&gt;Node3 -->
<g id="edge2_Node000002_Node000003" class="edge">
<title>Node2&#45;&gt;Node3</title>
<g id="a_edge2_Node000002_Node000003"><a xlink:title=" ">
<path fill="none" stroke="#63b8ff" d="M498.37,-67.25C556.2,-67.25 627.58,-67.25 679.89,-67.25"/>
<polygon fill="#63b8ff" stroke="#63b8ff" points="498.51,-63.75 488.51,-67.25 498.51,-70.75 498.51,-63.75"/>
</a>
</g>
</g>
<!-- Node4 -->
<g id="Node000004" class="node">
<title>Node4</title>
<g id="a_Node000004"><a xlink:href="classDGtal_1_1VoxelComplex.html" target="_top" xlink:title=" ">
<polygon fill="white" stroke="#666666" points="1089.5,-119.5 978.25,-119.5 978.25,-89 1089.5,-89 1089.5,-119.5"/>
<text text-anchor="start" x="986.25" y="-106" font-family="FreeSans" font-size="10.00">DGtal::VoxelComplex</text>
<text text-anchor="middle" x="1033.88" y="-94.75" font-family="FreeSans" font-size="10.00">&lt; KSpace &gt;</text>
</a>
</g>
</g>
<!-- Node3&#45;&gt;Node4 -->
<g id="edge3_Node000003_Node000004" class="edge">
<title>Node3&#45;&gt;Node4</title>
<g id="a_edge3_Node000003_Node000004"><a xlink:title=" ">
<path fill="none" stroke="orange" stroke-dasharray="5,2" d="M837.58,-78.33C882.94,-84.35 937.76,-91.62 977.76,-96.93"/>
<polygon fill="orange" stroke="orange" points="838.15,-74.87 827.77,-77.03 837.23,-81.81 838.15,-74.87"/>
</a>
</g>
<text text-anchor="middle" x="899.12" y="-95" font-family="FreeSans" font-size="10.00" fill="grey"> &lt; KSpace &gt;</text>
</g>
<!-- Node5 -->
<g id="Node000005" class="node">
<title>Node5</title>
<g id="a_Node000005"><a xlink:href="classDGtal_1_1VoxelComplex.html" target="_top" xlink:title=" ">
<polygon fill="white" stroke="#666666" points="1095.5,-61.5 972.25,-61.5 972.25,-31 1095.5,-31 1095.5,-61.5"/>
<text text-anchor="start" x="980.25" y="-48" font-family="FreeSans" font-size="10.00">DGtal::VoxelComplex</text>
<text text-anchor="middle" x="1033.88" y="-36.75" font-family="FreeSans" font-size="10.00">&lt; KSpace, FixtureMap &gt;</text>
</a>
</g>
</g>
<!-- Node3&#45;&gt;Node5 -->
<g id="edge4_Node000003_Node000005" class="edge">
<title>Node3&#45;&gt;Node5</title>
<g id="a_edge4_Node000003_Node000005"><a xlink:title=" ">
<path fill="none" stroke="orange" stroke-dasharray="5,2" d="M837.7,-60.49C839.82,-60.32 841.92,-60.16 844,-60 886.78,-56.72 935.03,-53.21 972.05,-50.56"/>
<polygon fill="orange" stroke="orange" points="837.44,-57 827.74,-61.27 837.98,-63.97 837.44,-57"/>
</a>
</g>
<text text-anchor="middle" x="899.12" y="-61" font-family="FreeSans" font-size="10.00" fill="grey"> &lt; KSpace, FixtureMap &gt;</text>
</g>
<!-- Node6&#45;&gt;Node4 -->
<g id="edge6_Node000006_Node000004" class="edge">
<title>Node6&#45;&gt;Node4</title>
<g id="a_edge6_Node000006_Node000004"><a xlink:title=" ">
<path fill="none" stroke="#63b8ff" d="M673.87,-117.86C764.6,-114.42 902.09,-109.21 977.89,-106.33"/>
<polygon fill="#63b8ff" stroke="#63b8ff" points="673.87,-114.36 664.01,-118.23 674.14,-121.35 673.87,-114.36"/>
</a>
</g>
</g>
<!-- Node7&#45;&gt;Node5 -->
<g id="edge8_Node000007_Node000005" class="edge">
<title>Node7&#45;&gt;Node5</title>
<g id="a_edge8_Node000007_Node000005"><a xlink:title=" ">
<path fill="none" stroke="#63b8ff" d="M656.76,-20.25C744.29,-26.3 890.06,-36.38 972.05,-42.05"/>
<polygon fill="#63b8ff" stroke="#63b8ff" points="657.06,-16.77 646.84,-19.57 656.57,-23.75 657.06,-16.77"/>
</a>
</g>
</g>
</g>
</svg>

<g id="navigator" transform="translate(0 0)" fill="#404254">
  <rect fill="#f2f5e9" fill-opacity="0.5" stroke="#606060" stroke-width=".5" x="0" y="0" width="60" height="60"/>
  <use id="zoomplus" xlink:href="#zoomPlus" x="17" y="9" onmousedown="handleZoom(evt,'in')"/>
  <use id="zoomminus" xlink:href="#zoomMin" x="42" y="9" onmousedown="handleZoom(evt,'out')"/>
  <use id="reset" xlink:href="#resetDef" x="30" y="36" onmousedown="handleReset()"/>
   <use id="arrowup" xlink:href="#arrowUp" x="0" y="0" onmousedown="handlePan(0,-1)"/>
  <use id="arrowright" xlink:href="#arrowRight" x="0" y="0" onmousedown="handlePan(1,0)"/>
  <use id="arrowdown" xlink:href="#arrowDown" x="0" y="0" onmousedown="handlePan(0,1)"/>
  <use id="arrowleft" xlink:href="#arrowLeft" x="0" y="0" onmousedown="handlePan(-1,0)"/>
</g>
<svg viewBox="0 0 15 15" width="100%" height="30px" preserveAspectRatio="xMaxYMin meet">
 <g id="arrow_out" transform="scale(0.3 0.3)">
  <a xlink:href="classDGtal_1_1CubicalComplex__inherit__graph_org.svg" target="_base">
   <rect id="button" ry="5" rx="5" y="6" x="6" height="38" width="38"
        fill="#f2f5e9" fill-opacity="0.5" stroke="#606060" stroke-width="1.0"/>
   <path id="arrow"
     d="M 11.500037,31.436501 C 11.940474,20.09759 22.043105,11.32322 32.158766,21.979434 L 37.068811,17.246167 C 37.068811,17.246167 37.088388,32 37.088388,32 L 22.160133,31.978069 C 22.160133,31.978069 26.997745,27.140456 26.997745,27.140456 C 18.528582,18.264221 13.291696,25.230495 11.500037,31.436501 z"
     style="fill:#404040;"/>
  </a>
 </g>
</svg>

<style type='text/css'>
<![CDATA[
[data-mouse-over-selected='false'] { opacity: 0.7; }
[data-mouse-over-selected='true']  { opacity: 1.0; }
]]>
</style>
<script type="application/ecmascript"><![CDATA[
document.addEventListener('DOMContentLoaded', (event) => {
  highlightEdges();
  highlightAdjacentNodes();
});
]]></script>
</svg>
