<?xml version="1.0" encoding="UTF-8" standalone="no"?>
<!DOCTYPE svg PUBLIC "-//W3C//DTD SVG 1.1//EN"
 "http://www.w3.org/Graphics/SVG/1.1/DTD/svg11.dtd">
<!-- Generated by graphviz version 11.0.0 (20240428.1522)
 -->
<!-- Title: DGtal::ImageContainerBySTLVector&lt; TDomain, TValue &gt; Pages: 1 -->
<svg width="616pt" height="88pt"
 viewBox="0.00 0.00 616.25 87.50" xmlns="http://www.w3.org/2000/svg" xmlns:xlink="http://www.w3.org/1999/xlink">
<g id="graph0" class="graph" transform="scale(1 1) rotate(0) translate(4 83.5)">
<title>DGtal::ImageContainerBySTLVector&lt; TDomain, TValue &gt;</title>
<!-- Node1 -->
<g id="Node000001" class="node">
<title>Node1</title>
<g id="a_Node000001"><a xlink:title=" ">
<polygon fill="#999999" stroke="#666666" points="296.75,-54.5 122.5,-54.5 122.5,-24 296.75,-24 296.75,-54.5"/>
<text text-anchor="start" x="130.5" y="-41" font-family="FreeSans" font-size="10.00">DGtal::ImageContainerBySTLVector</text>
<text text-anchor="middle" x="209.62" y="-29.75" font-family="FreeSans" font-size="10.00">&lt; TDomain, TValue &gt;</text>
</a>
</g>
</g>
<!-- Node3 -->
<g id="Node000003" class="node">
<title>Node3</title>
<g id="a_Node000003"><a xlink:href="classDGtal_1_1ImageContainerBySTLVector.html" target="_top" xlink:title=" ">
<polygon fill="white" stroke="#666666" points="608.25,-79.5 434,-79.5 434,-49 608.25,-49 608.25,-79.5"/>
<text text-anchor="start" x="442" y="-66" font-family="FreeSans" font-size="10.00">DGtal::ImageContainerBySTLVector</text>
<text text-anchor="middle" x="521.12" y="-54.75" font-family="FreeSans" font-size="10.00">&lt; Domain, Value &gt;</text>
</a>
</g>
</g>
<!-- Node1&#45;&gt;Node3 -->
<g id="edge2_Node000001_Node000003" class="edge">
<title>Node1&#45;&gt;Node3</title>
<g id="a_edge2_Node000001_Node000003"><a xlink:title=" ">
<path fill="none" stroke="orange" stroke-dasharray="5,2" d="M308.66,-47.17C348.74,-50.41 394.7,-54.12 433.52,-57.25"/>
<polygon fill="orange" stroke="orange" points="309.01,-43.69 298.76,-46.37 308.44,-50.66 309.01,-43.69"/>
</a>
</g>
<text text-anchor="middle" x="365.38" y="-57" font-family="FreeSans" font-size="10.00" fill="grey"> &lt; Domain, Value &gt;</text>
</g>
<!-- Node4 -->
<g id="Node000004" class="node">
<title>Node4</title>
<g id="a_Node000004"><a xlink:href="classDGtal_1_1ImageContainerBySTLVector.html" target="_top" xlink:title=" ">
<polygon fill="white" stroke="#666666" points="608.25,-30.5 434,-30.5 434,0 608.25,0 608.25,-30.5"/>
<text text-anchor="start" x="442" y="-17" font-family="FreeSans" font-size="10.00">DGtal::ImageContainerBySTLVector</text>
<text text-anchor="middle" x="521.12" y="-5.75" font-family="FreeSans" font-size="10.00">&lt; Domain, Storage * &gt;</text>
</a>
</g>
</g>
<!-- Node1&#45;&gt;Node4 -->
<g id="edge3_Node000001_Node000004" class="edge">
<title>Node1&#45;&gt;Node4</title>
<g id="a_edge3_Node000001_Node000004"><a xlink:title=" ">
<path fill="none" stroke="orange" stroke-dasharray="5,2" d="M308.45,-31.49C310.57,-31.33 312.67,-31.16 314.75,-31 353.79,-27.96 397.01,-24.64 433.68,-21.83"/>
<polygon fill="orange" stroke="orange" points="308.19,-28 298.5,-32.27 308.74,-34.98 308.19,-28"/>
</a>
</g>
<text text-anchor="middle" x="365.38" y="-33" font-family="FreeSans" font-size="10.00" fill="grey"> &lt; Domain, Storage * &gt;</text>
</g>
<!-- Node2 -->
<g id="Node000002" class="node">
<title>Node2</title>
<g id="a_Node000002"><a xlink:title=" ">
<polygon fill="white" stroke="#666666" points="86.5,-48.88 0,-48.88 0,-29.62 86.5,-29.62 86.5,-48.88"/>
<text text-anchor="middle" x="43.25" y="-35.38" font-family="FreeSans" font-size="10.00">std::vector&lt; T &gt;</text>
</a>
</g>
</g>
<!-- Node2&#45;&gt;Node1 -->
<g id="edge1_Node000001_Node000002" class="edge">
<title>Node2&#45;&gt;Node1</title>
<g id="a_edge1_Node000001_Node000002"><a xlink:title=" ">
<path fill="none" stroke="#63b8ff" d="M97.98,-39.25C105.72,-39.25 113.84,-39.25 122.02,-39.25"/>
<polygon fill="#63b8ff" stroke="#63b8ff" points="98.09,-35.75 88.09,-39.25 98.09,-42.75 98.09,-35.75"/>
</a>
</g>
</g>
</g>
</svg>
