<?xml version="1.0" encoding="UTF-8" standalone="no"?>
<!DOCTYPE svg PUBLIC "-//W3C//DTD SVG 1.1//EN"
 "http://www.w3.org/Graphics/SVG/1.1/DTD/svg11.dtd">
<!-- Generated by graphviz version 11.0.0 (20240428.1522)
 -->
<!-- Title: DGtal::ArithmeticalDSSComputer&lt; TIterator, TInteger, adjacency &gt; Pages: 1 -->
<svg width="476pt" height="160pt"
 viewBox="0.00 0.00 475.75 159.62" xmlns="http://www.w3.org/2000/svg" xmlns:xlink="http://www.w3.org/1999/xlink">
<g id="graph0" class="graph" transform="scale(1 1) rotate(0) translate(4 155.62)">
<title>DGtal::ArithmeticalDSSComputer&lt; TIterator, TInteger, adjacency &gt;</title>
<!-- Node1 -->
<g id="Node000001" class="node">
<title>Node1</title>
<g id="a_Node000001"><a xlink:title="Aim: This class is a wrapper around ArithmeticalDSS that is devoted to the dynamic recognition of dig...">
<polygon fill="#999999" stroke="#666666" points="163,-90.12 0,-90.12 0,-59.62 163,-59.62 163,-90.12"/>
<text text-anchor="start" x="8" y="-76.62" font-family="FreeSans" font-size="10.00">DGtal::ArithmeticalDSSComputer</text>
<text text-anchor="middle" x="81.5" y="-65.38" font-family="FreeSans" font-size="10.00">&lt; TIterator, TInteger, adjacency &gt;</text>
</a>
</g>
</g>
<!-- Node2 -->
<g id="Node000002" class="node">
<title>Node2</title>
<g id="a_Node000002"><a xlink:href="classDGtal_1_1ArithmeticalDSSComputer.html" target="_top" xlink:title=" ">
<polygon fill="white" stroke="#666666" points="467.75,-149.75 304.75,-149.75 304.75,-108 467.75,-108 467.75,-149.75"/>
<text text-anchor="start" x="312.75" y="-136.25" font-family="FreeSans" font-size="10.00">DGtal::ArithmeticalDSSComputer</text>
<text text-anchor="start" x="312.75" y="-125" font-family="FreeSans" font-size="10.00">&lt; std::vector&lt; Z2i::Point</text>
<text text-anchor="middle" x="386.25" y="-113.75" font-family="FreeSans" font-size="10.00"> &gt;::const_iterator, int, 4 &gt;</text>
</a>
</g>
</g>
<!-- Node1&#45;&gt;Node2 -->
<g id="edge1_Node000001_Node000002" class="edge">
<title>Node1&#45;&gt;Node2</title>
<g id="a_edge1_Node000001_Node000002"><a xlink:title=" ">
<path fill="none" stroke="orange" stroke-dasharray="5,2" d="M145.62,-93.54C157.31,-96.61 169.48,-99.55 181,-101.88 221.32,-110.03 266.63,-116.3 304.31,-120.74"/>
<polygon fill="orange" stroke="orange" points="146.61,-90.18 136.04,-90.97 144.79,-96.94 146.61,-90.18"/>
</a>
</g>
<text text-anchor="start" x="181.38" y="-142.12" font-family="FreeSans" font-size="10.00" fill="grey"> &lt; std::vector&lt; Z2i</text>
<text text-anchor="start" x="181.38" y="-130.88" font-family="FreeSans" font-size="10.00" fill="grey">::Point &gt;::const_iterator,</text>
<text text-anchor="middle" x="233.88" y="-119.62" font-family="FreeSans" font-size="10.00" fill="grey"> int, 4 &gt;</text>
</g>
<!-- Node3 -->
<g id="Node000003" class="node">
<title>Node3</title>
<g id="a_Node000003"><a xlink:href="classDGtal_1_1ArithmeticalDSSComputer.html" target="_top" xlink:title=" ">
<polygon fill="white" stroke="#666666" points="467.75,-90.12 304.75,-90.12 304.75,-59.62 467.75,-59.62 467.75,-90.12"/>
<text text-anchor="start" x="312.75" y="-76.62" font-family="FreeSans" font-size="10.00">DGtal::ArithmeticalDSSComputer</text>
<text text-anchor="middle" x="386.25" y="-65.38" font-family="FreeSans" font-size="10.00">&lt; IteratorAdapter, TInteger, 8 &gt;</text>
</a>
</g>
</g>
<!-- Node1&#45;&gt;Node3 -->
<g id="edge2_Node000001_Node000003" class="edge">
<title>Node1&#45;&gt;Node3</title>
<g id="a_edge2_Node000001_Node000003"><a xlink:title=" ">
<path fill="none" stroke="orange" stroke-dasharray="5,2" d="M174.71,-74.88C216.12,-74.88 264.53,-74.88 304.48,-74.88"/>
<polygon fill="orange" stroke="orange" points="174.75,-71.38 164.75,-74.88 174.75,-78.38 174.75,-71.38"/>
</a>
</g>
<text text-anchor="start" x="194.5" y="-87.88" font-family="FreeSans" font-size="10.00" fill="grey"> &lt; IteratorAdapter,</text>
<text text-anchor="middle" x="233.88" y="-76.62" font-family="FreeSans" font-size="10.00" fill="grey"> TInteger, 8 &gt;</text>
</g>
<!-- Node4 -->
<g id="Node000004" class="node">
<title>Node4</title>
<g id="a_Node000004"><a xlink:href="classDGtal_1_1ArithmeticalDSSComputer.html" target="_top" xlink:title=" ">
<polygon fill="white" stroke="#666666" points="467.75,-41.75 304.75,-41.75 304.75,0 467.75,0 467.75,-41.75"/>
<text text-anchor="start" x="312.75" y="-28.25" font-family="FreeSans" font-size="10.00">DGtal::ArithmeticalDSSComputer</text>
<text text-anchor="start" x="312.75" y="-17" font-family="FreeSans" font-size="10.00">&lt; IteratorAdapter, TInteger,</text>
<text text-anchor="middle" x="386.25" y="-5.75" font-family="FreeSans" font-size="10.00"> connectivity &gt;</text>
</a>
</g>
</g>
<!-- Node1&#45;&gt;Node4 -->
<g id="edge3_Node000001_Node000004" class="edge">
<title>Node1&#45;&gt;Node4</title>
<g id="a_edge3_Node000001_Node000004"><a xlink:title=" ">
<path fill="none" stroke="orange" stroke-dasharray="5,2" d="M146.99,-56.25C158.27,-53.36 169.93,-50.6 181,-48.38 221.34,-40.27 266.65,-33.9 304.33,-29.33"/>
<polygon fill="orange" stroke="orange" points="146.13,-52.86 137.34,-58.78 147.91,-59.63 146.13,-52.86"/>
</a>
</g>
<text text-anchor="start" x="181" y="-60.88" font-family="FreeSans" font-size="10.00" fill="grey"> &lt; IteratorAdapter,</text>
<text text-anchor="middle" x="233.88" y="-49.62" font-family="FreeSans" font-size="10.00" fill="grey"> TInteger, connectivity &gt;</text>
</g>
</g>
</svg>
