<?xml version="1.0" encoding="UTF-8" standalone="no"?>
<!DOCTYPE svg PUBLIC "-//W3C//DTD SVG 1.1//EN"
 "http://www.w3.org/Graphics/SVG/1.1/DTD/svg11.dtd">
<!-- Generated by graphviz version 11.0.0 (20240428.1522)
 -->
<!-- Title: DGtal::detail::PosIndepScaleIndepSCEstimator&lt; TSegmentComputer, Functor, ReturnType &gt; Pages: 1 -->
<svg width="822pt" height="180pt"
 viewBox="0.00 0.00 821.75 180.38" xmlns="http://www.w3.org/2000/svg" xmlns:xlink="http://www.w3.org/1999/xlink">
<g id="graph0" class="graph" transform="scale(1 1) rotate(0) translate(4 176.38)">
<title>DGtal::detail::PosIndepScaleIndepSCEstimator&lt; TSegmentComputer, Functor, ReturnType &gt;</title>
<!-- Node1 -->
<g id="Node000001" class="node">
<title>Node1</title>
<g id="a_Node000001"><a xlink:title=" ">
<polygon fill="#999999" stroke="#666666" points="195.25,-112.38 0,-112.38 0,-70.62 195.25,-70.62 195.25,-112.38"/>
<text text-anchor="start" x="8" y="-98.88" font-family="FreeSans" font-size="10.00">DGtal::detail::PosIndepScale</text>
<text text-anchor="start" x="8" y="-87.62" font-family="FreeSans" font-size="10.00">IndepSCEstimator&lt; TSegmentComputer,</text>
<text text-anchor="middle" x="97.62" y="-76.38" font-family="FreeSans" font-size="10.00"> Functor, ReturnType &gt;</text>
</a>
</g>
</g>
<!-- Node2 -->
<g id="Node000002" class="node">
<title>Node2</title>
<g id="a_Node000002"><a xlink:href="classDGtal_1_1detail_1_1PosIndepScaleIndepSCEstimator.html" target="_top" xlink:title=" ">
<polygon fill="white" stroke="#666666" points="564.5,-172.38 393.25,-172.38 393.25,-130.62 564.5,-130.62 564.5,-172.38"/>
<text text-anchor="start" x="401.25" y="-158.88" font-family="FreeSans" font-size="10.00">DGtal::detail::PosIndepScale</text>
<text text-anchor="start" x="401.25" y="-147.62" font-family="FreeSans" font-size="10.00">IndepSCEstimator&lt; DSSComputer,</text>
<text text-anchor="middle" x="478.88" y="-136.38" font-family="FreeSans" font-size="10.00"> detail::TangentAngleFromDSS &gt;</text>
</a>
</g>
</g>
<!-- Node1&#45;&gt;Node2 -->
<g id="edge1_Node000001_Node000002" class="edge">
<title>Node1&#45;&gt;Node2</title>
<g id="a_edge1_Node000001_Node000002"><a xlink:title=" ">
<path fill="none" stroke="orange" stroke-dasharray="5,2" d="M168.99,-116.19C183.48,-120.54 198.74,-124.6 213.25,-127.5 272.62,-139.37 340.67,-145.38 392.9,-148.42"/>
<polygon fill="orange" stroke="orange" points="170.11,-112.88 159.53,-113.27 168.05,-119.57 170.11,-112.88"/>
</a>
</g>
<text text-anchor="start" x="224.88" y="-157.5" font-family="FreeSans" font-size="10.00" fill="grey"> &lt; DSSComputer, detail</text>
<text text-anchor="middle" x="283.75" y="-146.25" font-family="FreeSans" font-size="10.00" fill="grey">::TangentAngleFromDSS &gt;</text>
</g>
<!-- Node4 -->
<g id="Node000004" class="node">
<title>Node4</title>
<g id="a_Node000004"><a xlink:href="classDGtal_1_1detail_1_1PosIndepScaleIndepSCEstimator.html" target="_top" xlink:title=" ">
<polygon fill="white" stroke="#666666" points="585.5,-112.38 372.25,-112.38 372.25,-70.62 585.5,-70.62 585.5,-112.38"/>
<text text-anchor="start" x="380.25" y="-98.88" font-family="FreeSans" font-size="10.00">DGtal::detail::PosIndepScale</text>
<text text-anchor="start" x="380.25" y="-87.62" font-family="FreeSans" font-size="10.00">IndepSCEstimator&lt; DSSComputer,</text>
<text text-anchor="middle" x="478.88" y="-76.38" font-family="FreeSans" font-size="10.00"> detail::NormalizedTangentVectorFromDSS &gt;</text>
</a>
</g>
</g>
<!-- Node1&#45;&gt;Node4 -->
<g id="edge3_Node000001_Node000004" class="edge">
<title>Node1&#45;&gt;Node4</title>
<g id="a_edge3_Node000001_Node000004"><a xlink:title=" ">
<path fill="none" stroke="orange" stroke-dasharray="5,2" d="M206.56,-91.5C258.44,-91.5 320.42,-91.5 372.03,-91.5"/>
<polygon fill="orange" stroke="orange" points="206.82,-88 196.82,-91.5 206.82,-95 206.82,-88"/>
</a>
</g>
<text text-anchor="start" x="213.25" y="-115.75" font-family="FreeSans" font-size="10.00" fill="grey"> &lt; DSSComputer, detail</text>
<text text-anchor="start" x="213.25" y="-104.5" font-family="FreeSans" font-size="10.00" fill="grey">::NormalizedTangentVectorFrom</text>
<text text-anchor="middle" x="283.75" y="-93.25" font-family="FreeSans" font-size="10.00" fill="grey">DSS &gt;</text>
</g>
<!-- Node6 -->
<g id="Node000006" class="node">
<title>Node6</title>
<g id="a_Node000006"><a xlink:href="classDGtal_1_1detail_1_1PosIndepScaleIndepSCEstimator.html" target="_top" xlink:title=" ">
<polygon fill="white" stroke="#666666" points="564.5,-53 393.25,-53 393.25,0 564.5,0 564.5,-53"/>
<text text-anchor="start" x="401.25" y="-39.5" font-family="FreeSans" font-size="10.00">DGtal::detail::PosIndepScale</text>
<text text-anchor="start" x="401.25" y="-28.25" font-family="FreeSans" font-size="10.00">IndepSCEstimator&lt; DSSComputer,</text>
<text text-anchor="start" x="401.25" y="-17" font-family="FreeSans" font-size="10.00"> detail::TangentVectorFromDSS</text>
<text text-anchor="middle" x="478.88" y="-5.75" font-family="FreeSans" font-size="10.00">&lt; DSSComputer &gt; &gt;</text>
</a>
</g>
</g>
<!-- Node1&#45;&gt;Node6 -->
<g id="edge5_Node000001_Node000006" class="edge">
<title>Node1&#45;&gt;Node6</title>
<g id="a_edge5_Node000001_Node000006"><a xlink:title=" ">
<path fill="none" stroke="orange" stroke-dasharray="5,2" d="M165.62,-66.76C181.09,-61.8 197.6,-57.09 213.25,-53.75 272.53,-41.09 340.58,-34.25 392.83,-30.59"/>
<polygon fill="orange" stroke="orange" points="164.94,-63.3 156.54,-69.75 167.13,-69.95 164.94,-63.3"/>
</a>
</g>
<text text-anchor="start" x="227.5" y="-77.75" font-family="FreeSans" font-size="10.00" fill="grey"> &lt; DSSComputer, detail</text>
<text text-anchor="start" x="227.5" y="-66.5" font-family="FreeSans" font-size="10.00" fill="grey">::TangentVectorFromDSS</text>
<text text-anchor="middle" x="283.75" y="-55.25" font-family="FreeSans" font-size="10.00" fill="grey">&lt; DSSComputer &gt; &gt;</text>
</g>
<!-- Node3 -->
<g id="Node000003" class="node">
<title>Node3</title>
<g id="a_Node000003"><a xlink:href="classDGtal_1_1TangentAngleFromDSSEstimator.html" target="_top" xlink:title=" ">
<polygon fill="white" stroke="#666666" points="813.75,-166.75 621.5,-166.75 621.5,-136.25 813.75,-136.25 813.75,-166.75"/>
<text text-anchor="start" x="629.5" y="-153.25" font-family="FreeSans" font-size="10.00">DGtal::TangentAngleFromDSSEstimator</text>
<text text-anchor="middle" x="717.62" y="-142" font-family="FreeSans" font-size="10.00">&lt; DSSComputer &gt;</text>
</a>
</g>
</g>
<!-- Node2&#45;&gt;Node3 -->
<g id="edge2_Node000002_Node000003" class="edge">
<title>Node2&#45;&gt;Node3</title>
<g id="a_edge2_Node000002_Node000003"><a xlink:title=" ">
<path fill="none" stroke="#63b8ff" d="M575.96,-151.5C590.87,-151.5 606.26,-151.5 621.15,-151.5"/>
<polygon fill="#63b8ff" stroke="#63b8ff" points="576.19,-148 566.19,-151.5 576.19,-155 576.19,-148"/>
</a>
</g>
</g>
<!-- Node5 -->
<g id="Node000005" class="node">
<title>Node5</title>
<g id="a_Node000005"><a xlink:href="classDGtal_1_1TangentFromDSSEstimator.html" target="_top" xlink:title=" ">
<polygon fill="white" stroke="#666666" points="801.38,-106.75 633.88,-106.75 633.88,-76.25 801.38,-76.25 801.38,-106.75"/>
<text text-anchor="start" x="641.88" y="-93.25" font-family="FreeSans" font-size="10.00">DGtal::TangentFromDSSEstimator</text>
<text text-anchor="middle" x="717.62" y="-82" font-family="FreeSans" font-size="10.00">&lt; DSSComputer &gt;</text>
</a>
</g>
</g>
<!-- Node4&#45;&gt;Node5 -->
<g id="edge4_Node000004_Node000005" class="edge">
<title>Node4&#45;&gt;Node5</title>
<g id="a_edge4_Node000004_Node000005"><a xlink:title=" ">
<path fill="none" stroke="#63b8ff" d="M597.07,-91.5C609.39,-91.5 621.72,-91.5 633.54,-91.5"/>
<polygon fill="#63b8ff" stroke="#63b8ff" points="597.3,-88 587.3,-91.5 597.3,-95 597.3,-88"/>
</a>
</g>
</g>
<!-- Node7 -->
<g id="Node000007" class="node">
<title>Node7</title>
<g id="a_Node000007"><a xlink:href="classDGtal_1_1TangentVectorFromDSSEstimator.html" target="_top" xlink:title=" ">
<polygon fill="white" stroke="#666666" points="798,-41.75 637.25,-41.75 637.25,-11.25 798,-11.25 798,-41.75"/>
<text text-anchor="start" x="645.25" y="-28.25" font-family="FreeSans" font-size="10.00">DGtal::TangentVectorFrom</text>
<text text-anchor="middle" x="717.62" y="-17" font-family="FreeSans" font-size="10.00">DSSEstimator&lt; DSSComputer &gt;</text>
</a>
</g>
</g>
<!-- Node6&#45;&gt;Node7 -->
<g id="edge6_Node000006_Node000007" class="edge">
<title>Node6&#45;&gt;Node7</title>
<g id="a_edge6_Node000006_Node000007"><a xlink:title=" ">
<path fill="none" stroke="#63b8ff" d="M576.09,-26.5C596.24,-26.5 617.28,-26.5 636.76,-26.5"/>
<polygon fill="#63b8ff" stroke="#63b8ff" points="576.19,-23 566.19,-26.5 576.19,-30 576.19,-23"/>
</a>
</g>
</g>
</g>
</svg>
