<?xml version="1.0" encoding="UTF-8" standalone="no"?>
<!DOCTYPE svg PUBLIC "-//W3C//DTD SVG 1.1//EN"
 "http://www.w3.org/Graphics/SVG/1.1/DTD/svg11.dtd">
<!-- Generated by graphviz version 11.0.0 (20240428.1522)
 -->
<!-- Title: geometry Pages: 1 -->
<!--zoomable 95 -->

<svg id="main" version="1.1" xmlns="http://www.w3.org/2000/svg" xmlns:xlink="http://www.w3.org/1999/xlink" xml:space="preserve" onload="init(evt)">
<style type="text/css"><![CDATA[
.node, .edge {opacity: 0.7;}
.node.selected, .edge.selected {opacity: 1;}
.edge:hover path { stroke: red; }
.edge:hover polygon { stroke: red; fill: red; }
]]></style>

<defs>
  <circle id="rim" cx="0" cy="0" r="7"/>
  <circle id="rim2" cx="0" cy="0" r="3.5"/>
  <g id="zoomPlus">
    <use xlink:href="#rim" fill="#404040"><set attributeName="fill" to="#808080" begin="zoomplus.mouseover" end="zoomplus.mouseout"/></use>
    <path d="M-4,0h8M0,-4v8" fill="none" stroke="white" stroke-width="1.5" pointer-events="none"/>
  </g>
  <g id="zoomMin">
    <use xlink:href="#rim" fill="#404040"><set attributeName="fill" to="#808080" begin="zoomminus.mouseover" end="zoomminus.mouseout"/></use>
    <path d="M-4,0h8" fill="none" stroke="white" stroke-width="1.5" pointer-events="none"/>
  </g>
  <g id="arrowUp" transform="translate(30 24)">
    <use xlink:href="#rim"/>
    <path pointer-events="none" fill="none" stroke="white" stroke-width="1.5" d="M0,-3.0v7 M-2.5,-0.5L0,-3.0L2.5,-0.5"/>
  </g>
  <g id="arrowRight" transform="rotate(90) translate(36 -43)">
    <use xlink:href="#rim"/>
    <path pointer-events="none" fill="none" stroke="white" stroke-width="1.5" d="M0,-3.0v7 M-2.5,-0.5L0,-3.0L2.5,-0.5"/>
  </g>
  <g id="arrowDown" transform="rotate(180) translate(-30 -48)">
    <use xlink:href="#rim"/>
    <path pointer-events="none" fill="none" stroke="white" stroke-width="1.5" d="M0,-3.0v7 M-2.5,-0.5L0,-3.0L2.5,-0.5"/>
  </g>
  <g id="arrowLeft" transform="rotate(270) translate(-36 17)">
    <use xlink:href="#rim"/>
    <path pointer-events="none" fill="none" stroke="white" stroke-width="1.5" d="M0,-3.0v7 M-2.5,-0.5L0,-3.0L2.5,-0.5"/>
  </g>
  <g id="resetDef">
    <use xlink:href="#rim2" fill="#404040"><set attributeName="fill" to="#808080" begin="reset.mouseover" end="reset.mouseout"/></use>
  </g>
</defs>
<script type="application/ecmascript">
var viewWidth = 557;
var viewHeight = 95;
var sectionId = 'dynsection-0';
</script>
<script type="application/ecmascript" xlink:href="svg.min.js"/>
<svg id="graph" class="graph">
<g id="viewport">
<title>geometry</title>
<g id="clust1" class="cluster">
<title>clusterdir_f2cd1aeea1cfa982bb13a5f95fa4218c</title>
<g id="a_clust1"><a xlink:href="dir_f2cd1aeea1cfa982bb13a5f95fa4218c.html" target="_top" xlink:title="DGtal">
<polygon fill="#edf0f7" stroke="#7f7f7f" stroke-dasharray="5,2" points="8,-8 8,-78.5 541,-78.5 541,-8 8,-8"/>
<text text-anchor="middle" x="274.5" y="-65" font-family="FreeSans" font-size="10.00">DGtal</text>
</a>
</g>
</g>
<g id="clust2" class="cluster">
<title>clusterdir_754267a81a1dbd2dcdc6a3e6905a7e31</title>
<g id="a_clust2"><a xlink:href="dir_754267a81a1dbd2dcdc6a3e6905a7e31.html" target="_top">
<polygon fill="#edf0f7" stroke="#404040" stroke-width="2" points="16,-16 16,-51.25 533,-51.25 533,-16 16,-16"/>
</a>
</g>
</g>
<!-- dir_754267a81a1dbd2dcdc6a3e6905a7e31 -->
<g id="node1" class="node">
<title>dir_754267a81a1dbd2dcdc6a3e6905a7e31</title>
<text text-anchor="middle" x="52" y="-29.75" font-family="FreeSans" font-size="10.00">geometry</text>
</g>
<!-- dir_f470c2f5fde179648eef8a3806cdaeb7 -->
<g id="node2" class="node">
<title>dir_f470c2f5fde179648eef8a3806cdaeb7</title>
<g id="a_node2"><a xlink:href="dir_f470c2f5fde179648eef8a3806cdaeb7.html" target="_top" xlink:title="curves">
<polygon fill="#a2b4d6" stroke="#404040" points="143.62,-43.25 98.38,-43.25 98.38,-24 143.62,-24 143.62,-43.25"/>
<text text-anchor="middle" x="121" y="-29.75" font-family="FreeSans" font-size="10.00">curves</text>
</a>
</g>
</g>
<!-- dir_2beb079f0bedb11e46d542cf73034c8e -->
<g id="node3" class="node">
<title>dir_2beb079f0bedb11e46d542cf73034c8e</title>
<g id="a_node3"><a xlink:href="dir_2beb079f0bedb11e46d542cf73034c8e.html" target="_top" xlink:title="doc">
<polygon fill="#a2b4d6" stroke="#404040" points="193.88,-43.25 162.12,-43.25 162.12,-24 193.88,-24 193.88,-43.25"/>
<text text-anchor="middle" x="178" y="-29.75" font-family="FreeSans" font-size="10.00">doc</text>
</a>
</g>
</g>
<!-- dir_92ade5b890f7d5496f310b5e861331fd -->
<g id="node4" class="node">
<title>dir_92ade5b890f7d5496f310b5e861331fd</title>
<g id="a_node4"><a xlink:href="dir_92ade5b890f7d5496f310b5e861331fd.html" target="_top" xlink:title="helpers">
<polygon fill="#a2b4d6" stroke="#404040" points="259.75,-43.25 212.25,-43.25 212.25,-24 259.75,-24 259.75,-43.25"/>
<text text-anchor="middle" x="236" y="-29.75" font-family="FreeSans" font-size="10.00">helpers</text>
</a>
</g>
</g>
<!-- dir_e6d64a173b10ee5a07d112a7b5398229 -->
<g id="node5" class="node">
<title>dir_e6d64a173b10ee5a07d112a7b5398229</title>
<g id="a_node5"><a xlink:href="dir_e6d64a173b10ee5a07d112a7b5398229.html" target="_top" xlink:title="meshes">
<polygon fill="#a2b4d6" stroke="#404040" points="328.25,-43.25 277.75,-43.25 277.75,-24 328.25,-24 328.25,-43.25"/>
<text text-anchor="middle" x="303" y="-29.75" font-family="FreeSans" font-size="10.00">meshes</text>
</a>
</g>
</g>
<!-- dir_63d9c33afbfec9fa25872cb1f269a9db -->
<g id="node6" class="node">
<title>dir_63d9c33afbfec9fa25872cb1f269a9db</title>
<g id="a_node6"><a xlink:href="dir_63d9c33afbfec9fa25872cb1f269a9db.html" target="_top" xlink:title="surfaces">
<polygon fill="#a2b4d6" stroke="#404040" points="399.75,-43.25 346.25,-43.25 346.25,-24 399.75,-24 399.75,-43.25"/>
<text text-anchor="middle" x="373" y="-29.75" font-family="FreeSans" font-size="10.00">surfaces</text>
</a>
</g>
</g>
<!-- dir_18004d7a6c68375fed3e8c9ab4ef9707 -->
<g id="node7" class="node">
<title>dir_18004d7a6c68375fed3e8c9ab4ef9707</title>
<g id="a_node7"><a xlink:href="dir_18004d7a6c68375fed3e8c9ab4ef9707.html" target="_top" xlink:title="tools">
<polygon fill="#a2b4d6" stroke="#404040" points="454.5,-43.25 417.5,-43.25 417.5,-24 454.5,-24 454.5,-43.25"/>
<text text-anchor="middle" x="436" y="-29.75" font-family="FreeSans" font-size="10.00">tools</text>
</a>
</g>
</g>
<!-- dir_2dd8463e31daa17dc635e58ffe393814 -->
<g id="node8" class="node">
<title>dir_2dd8463e31daa17dc635e58ffe393814</title>
<g id="a_node8"><a xlink:href="dir_2dd8463e31daa17dc635e58ffe393814.html" target="_top" xlink:title="volumes">
<polygon fill="#a2b4d6" stroke="#404040" points="525.38,-43.25 472.62,-43.25 472.62,-24 525.38,-24 525.38,-43.25"/>
<text text-anchor="middle" x="499" y="-29.75" font-family="FreeSans" font-size="10.00">volumes</text>
</a>
</g>
</g>
</g>
</svg>

<g id="navigator" transform="translate(0 0)" fill="#404254">
  <rect fill="#f2f5e9" fill-opacity="0.5" stroke="#606060" stroke-width=".5" x="0" y="0" width="60" height="60"/>
  <use id="zoomplus" xlink:href="#zoomPlus" x="17" y="9" onmousedown="handleZoom(evt,'in')"/>
  <use id="zoomminus" xlink:href="#zoomMin" x="42" y="9" onmousedown="handleZoom(evt,'out')"/>
  <use id="reset" xlink:href="#resetDef" x="30" y="36" onmousedown="handleReset()"/>
   <use id="arrowup" xlink:href="#arrowUp" x="0" y="0" onmousedown="handlePan(0,-1)"/>
  <use id="arrowright" xlink:href="#arrowRight" x="0" y="0" onmousedown="handlePan(1,0)"/>
  <use id="arrowdown" xlink:href="#arrowDown" x="0" y="0" onmousedown="handlePan(0,1)"/>
  <use id="arrowleft" xlink:href="#arrowLeft" x="0" y="0" onmousedown="handlePan(-1,0)"/>
</g>
<svg viewBox="0 0 15 15" width="100%" height="30px" preserveAspectRatio="xMaxYMin meet">
 <g id="arrow_out" transform="scale(0.3 0.3)">
  <a xlink:href="dir_754267a81a1dbd2dcdc6a3e6905a7e31_dep_org.svg" target="_base">
   <rect id="button" ry="5" rx="5" y="6" x="6" height="38" width="38"
        fill="#f2f5e9" fill-opacity="0.5" stroke="#606060" stroke-width="1.0"/>
   <path id="arrow"
     d="M 11.500037,31.436501 C 11.940474,20.09759 22.043105,11.32322 32.158766,21.979434 L 37.068811,17.246167 C 37.068811,17.246167 37.088388,32 37.088388,32 L 22.160133,31.978069 C 22.160133,31.978069 26.997745,27.140456 26.997745,27.140456 C 18.528582,18.264221 13.291696,25.230495 11.500037,31.436501 z"
     style="fill:#404040;"/>
  </a>
 </g>
</svg>

<style type='text/css'>
<![CDATA[
[data-mouse-over-selected='false'] { opacity: 0.7; }
[data-mouse-over-selected='true']  { opacity: 1.0; }
]]>
</style>
<script type="application/ecmascript"><![CDATA[
document.addEventListener('DOMContentLoaded', (event) => {
  highlightEdges();
  highlightAdjacentNodes();
});
]]></script>
</svg>
