<?xml version="1.0" encoding="UTF-8" standalone="no"?>
<!DOCTYPE svg PUBLIC "-//W3C//DTD SVG 1.1//EN"
 "http://www.w3.org/Graphics/SVG/1.1/DTD/svg11.dtd">
<!-- Generated by graphviz version 11.0.0 (20240428.1522)
 -->
<!-- Title: GBASE Pages: 1 -->
<svg width="1617pt" height="431pt"
 viewBox="0.00 0.00 1617.00 430.50" xmlns="http://www.w3.org/2000/svg" xmlns:xlink="http://www.w3.org/1999/xlink">
<g id="graph0" class="graph" transform="scale(1 1) rotate(0) translate(4 426.5)">
<title>GBASE</title>
<polygon fill="white" stroke="none" points="-4,4 -4,-426.5 1613,-426.5 1613,4 -4,4"/>
<g id="clust1" class="cluster">
<title>cluster_ext</title>
<polygon fill="white" stroke="white" points="511,-338 511,-414.5 1601,-414.5 1601,-338 511,-338"/>
<text text-anchor="middle" x="1056" y="-345.2" font-family="Times,serif" font-size="14.00">std/boost concepts</text>
</g>
<g id="clust2" class="cluster">
<title>cluster_0</title>
<polygon fill="lightgrey" stroke="lightgrey" points="8,-8 8,-303.5 1528,-303.5 1528,-8 8,-8"/>
<text text-anchor="middle" x="768" y="-15.2" font-family="Times,serif" font-size="14.00">Base</text>
</g>
<!-- boost_OutputIterator -->
<g id="node1" class="node">
<title>boost_OutputIterator</title>
<g id="a_node1"><a xlink:href="structboost_1_1OutputIterator.html" target="_top" xlink:title="OutputIterator">
<ellipse fill="none" stroke="black" cx="818" cy="-388.5" rx="63.63" ry="18"/>
<text text-anchor="middle" x="818" y="-383.45" font-family="Times,serif" font-size="14.00">OutputIterator</text>
</a>
</g>
</g>
<!-- boost_SinglePassIteratorConcept -->
<g id="node2" class="node">
<title>boost_SinglePassIteratorConcept</title>
<g id="a_node2"><a xlink:href="structboost__concepts_1_1SinglePassIteratorConcept.html" target="_top" xlink:title="SinglePassIteratorConcept">
<ellipse fill="none" stroke="black" cx="628" cy="-388.5" rx="108.67" ry="18"/>
<text text-anchor="middle" x="628" y="-383.45" font-family="Times,serif" font-size="14.00">SinglePassIteratorConcept</text>
</a>
</g>
</g>
<!-- boost_Assignable -->
<g id="node3" class="node">
<title>boost_Assignable</title>
<g id="a_node3"><a xlink:href="structboost_1_1Assignable.html" target="_top" xlink:title="Assignable">
<ellipse fill="none" stroke="black" cx="1339" cy="-388.5" rx="51.86" ry="18"/>
<text text-anchor="middle" x="1339" y="-383.45" font-family="Times,serif" font-size="14.00">Assignable</text>
</a>
</g>
</g>
<!-- boost_LessThanComparable -->
<g id="node4" class="node">
<title>boost_LessThanComparable</title>
<g id="a_node4"><a xlink:href="structboost_1_1LessThanComparable.html" target="_top" xlink:title="LessThanComparable">
<ellipse fill="none" stroke="black" cx="1501" cy="-388.5" rx="92.3" ry="18"/>
<text text-anchor="middle" x="1501" y="-383.45" font-family="Times,serif" font-size="14.00">LessThanComparable</text>
</a>
</g>
</g>
<!-- boost_DefaultConstructible -->
<g id="node5" class="node">
<title>boost_DefaultConstructible</title>
<g id="a_node5"><a xlink:href="structboost_1_1DefaultConstructible.html" target="_top" xlink:title="DefaultConstructible">
<ellipse fill="none" stroke="black" cx="1181" cy="-388.5" rx="88.2" ry="18"/>
<text text-anchor="middle" x="1181" y="-383.45" font-family="Times,serif" font-size="14.00">DefaultConstructible</text>
</a>
</g>
</g>
<!-- boost_EqualityComparable -->
<g id="node6" class="node">
<title>boost_EqualityComparable</title>
<g id="a_node6"><a xlink:href="structboost_1_1EqualityComparable.html" target="_top" xlink:title="EqualityComparable">
<ellipse fill="none" stroke="black" cx="987" cy="-388.5" rx="87.69" ry="18"/>
<text text-anchor="middle" x="987" y="-383.45" font-family="Times,serif" font-size="14.00">EqualityComparable</text>
</a>
</g>
</g>
<!-- CSinglePassRange -->
<g id="node7" class="node">
<title>CSinglePassRange</title>
<g id="a_node7"><a xlink:href="structDGtal_1_1concepts_1_1CSinglePassRange.html" target="_top" xlink:title="CSinglePassRange">
<ellipse fill="white" stroke="white" cx="398" cy="-204.5" rx="80.52" ry="18"/>
<text text-anchor="middle" x="398" y="-199.45" font-family="Times,serif" font-size="14.00">CSinglePassRange</text>
</a>
</g>
</g>
<!-- CSinglePassRange&#45;&gt;boost_SinglePassIteratorConcept -->
<g id="edge14" class="edge">
<title>CSinglePassRange&#45;&gt;boost_SinglePassIteratorConcept</title>
<path fill="none" stroke="black" stroke-dasharray="5,2" d="M437.75,-220.59C459.85,-229.99 487.21,-243.37 509,-259.5 549.09,-289.18 586.77,-333.54 608.6,-361.47"/>
<polygon fill="black" stroke="black" points="605.58,-363.28 614.45,-369.07 611.12,-359.01 605.58,-363.28"/>
<text text-anchor="middle" x="565" y="-272.45" font-family="Times,serif" font-size="14.00">use</text>
</g>
<!-- CConstSinglePassRange -->
<g id="node8" class="node">
<title>CConstSinglePassRange</title>
<g id="a_node8"><a xlink:href="structDGtal_1_1concepts_1_1CConstSinglePassRange.html" target="_top" xlink:title="CConstSinglePassRange">
<ellipse fill="white" stroke="white" cx="398" cy="-277.5" rx="102.02" ry="18"/>
<text text-anchor="middle" x="398" y="-272.45" font-family="Times,serif" font-size="14.00">CConstSinglePassRange</text>
</a>
</g>
</g>
<!-- CSinglePassRange&#45;&gt;CConstSinglePassRange -->
<g id="edge1" class="edge">
<title>CSinglePassRange&#45;&gt;CConstSinglePassRange</title>
<path fill="none" stroke="black" d="M398,-222.69C398,-230.27 398,-239.4 398,-247.96"/>
<polygon fill="black" stroke="black" points="394.5,-247.96 398,-257.96 401.5,-247.96 394.5,-247.96"/>
</g>
<!-- CConstSinglePassRange&#45;&gt;boost_SinglePassIteratorConcept -->
<g id="edge13" class="edge">
<title>CConstSinglePassRange&#45;&gt;boost_SinglePassIteratorConcept</title>
<path fill="none" stroke="black" stroke-dasharray="5,2" d="M432.43,-294.82C472.57,-313.84 539.04,-345.34 583.17,-366.26"/>
<polygon fill="black" stroke="black" points="581.43,-369.3 591.96,-370.42 584.43,-362.98 581.43,-369.3"/>
<text text-anchor="middle" x="515" y="-316.7" font-family="Times,serif" font-size="14.00">use</text>
</g>
<!-- CSinglePassRangeFromPoint -->
<g id="node9" class="node">
<title>CSinglePassRangeFromPoint</title>
<g id="a_node9"><a xlink:href="structDGtal_1_1concepts_1_1CSinglePassRangeFromPoint.html" target="_top" xlink:title="CSinglePassRangeFromPoint">
<ellipse fill="white" stroke="white" cx="136" cy="-131.5" rx="120.45" ry="18"/>
<text text-anchor="middle" x="136" y="-126.45" font-family="Times,serif" font-size="14.00">CSinglePassRangeFromPoint</text>
</a>
</g>
</g>
<!-- CSinglePassRangeFromPoint&#45;&gt;CSinglePassRange -->
<g id="edge3" class="edge">
<title>CSinglePassRangeFromPoint&#45;&gt;CSinglePassRange</title>
<path fill="none" stroke="black" d="M192.53,-147.82C235.15,-159.37 293.52,-175.19 337.16,-187.01"/>
<polygon fill="black" stroke="black" points="336.17,-190.37 346.74,-189.61 338,-183.62 336.17,-190.37"/>
</g>
<!-- CConstSinglePassRangeFromPoint -->
<g id="node10" class="node">
<title>CConstSinglePassRangeFromPoint</title>
<g id="a_node10"><a xlink:href="structDGtal_1_1concepts_1_1CConstSinglePassRangeFromPoint.html" target="_top" xlink:title="CConstSinglePassRangeFromPoint">
<ellipse fill="white" stroke="white" cx="158" cy="-204.5" rx="141.94" ry="18"/>
<text text-anchor="middle" x="158" y="-199.45" font-family="Times,serif" font-size="14.00">CConstSinglePassRangeFromPoint</text>
</a>
</g>
</g>
<!-- CSinglePassRangeFromPoint&#45;&gt;CConstSinglePassRangeFromPoint -->
<g id="edge2" class="edge">
<title>CSinglePassRangeFromPoint&#45;&gt;CConstSinglePassRangeFromPoint</title>
<path fill="none" stroke="black" d="M141.33,-149.69C143.73,-157.45 146.63,-166.82 149.34,-175.55"/>
<polygon fill="black" stroke="black" points="145.97,-176.51 152.28,-185.03 152.66,-174.44 145.97,-176.51"/>
</g>
<!-- CConstSinglePassRangeFromPoint&#45;&gt;CConstSinglePassRange -->
<g id="edge4" class="edge">
<title>CConstSinglePassRangeFromPoint&#45;&gt;CConstSinglePassRange</title>
<path fill="none" stroke="black" d="M212.16,-221.52C249.03,-232.43 297.91,-246.89 336.28,-258.24"/>
<polygon fill="black" stroke="black" points="335.28,-261.6 345.87,-261.08 337.27,-254.88 335.28,-261.6"/>
</g>
<!-- CBidirectionalRange -->
<g id="node11" class="node">
<title>CBidirectionalRange</title>
<g id="a_node11"><a xlink:href="structDGtal_1_1concepts_1_1CBidirectionalRange.html" target="_top" xlink:title="CBidirectionalRange">
<ellipse fill="white" stroke="white" cx="363" cy="-131.5" rx="88.71" ry="18"/>
<text text-anchor="middle" x="363" y="-126.45" font-family="Times,serif" font-size="14.00">CBidirectionalRange</text>
</a>
</g>
</g>
<!-- CBidirectionalRange&#45;&gt;CSinglePassRange -->
<g id="edge5" class="edge">
<title>CBidirectionalRange&#45;&gt;CSinglePassRange</title>
<path fill="none" stroke="black" d="M371.47,-149.69C375.43,-157.71 380.23,-167.45 384.66,-176.43"/>
<polygon fill="black" stroke="black" points="381.38,-177.69 388.94,-185.11 387.65,-174.6 381.38,-177.69"/>
</g>
<!-- CConstBidirectionalRange -->
<g id="node12" class="node">
<title>CConstBidirectionalRange</title>
<g id="a_node12"><a xlink:href="structDGtal_1_1concepts_1_1CConstBidirectionalRange.html" target="_top" xlink:title="CConstBidirectionalRange">
<ellipse fill="white" stroke="white" cx="620" cy="-204.5" rx="110.21" ry="18"/>
<text text-anchor="middle" x="620" y="-199.45" font-family="Times,serif" font-size="14.00">CConstBidirectionalRange</text>
</a>
</g>
</g>
<!-- CBidirectionalRange&#45;&gt;CConstBidirectionalRange -->
<g id="edge6" class="edge">
<title>CBidirectionalRange&#45;&gt;CConstBidirectionalRange</title>
<path fill="none" stroke="black" d="M414.08,-146.61C454.35,-157.74 510.78,-173.33 554.39,-185.37"/>
<polygon fill="black" stroke="black" points="553.43,-188.74 564,-188.03 555.3,-181.99 553.43,-188.74"/>
</g>
<!-- CBidirectionalRangeFromPoint -->
<g id="node13" class="node">
<title>CBidirectionalRangeFromPoint</title>
<g id="a_node13"><a xlink:href="structDGtal_1_1concepts_1_1CBidirectionalRangeFromPoint.html" target="_top" xlink:title="CBidirectionalRangeFromPoint">
<ellipse fill="white" stroke="white" cx="145" cy="-58.5" rx="128.63" ry="18"/>
<text text-anchor="middle" x="145" y="-53.45" font-family="Times,serif" font-size="14.00">CBidirectionalRangeFromPoint</text>
</a>
</g>
</g>
<!-- CBidirectionalRangeFromPoint&#45;&gt;CConstBidirectionalRange -->
<g id="edge7" class="edge">
<title>CBidirectionalRangeFromPoint&#45;&gt;CConstBidirectionalRange</title>
<path fill="none" stroke="black" d="M236.98,-71.46C252.33,-73.27 268.11,-75.03 283,-76.5 338,-81.94 741.4,-72.99 779,-113.5 810.81,-147.77 753.26,-172.42 698.71,-187.16"/>
<polygon fill="black" stroke="black" points="698.13,-183.69 689.34,-189.6 699.89,-190.47 698.13,-183.69"/>
</g>
<!-- CConstBidirectionalRangeFromPoint -->
<g id="node14" class="node">
<title>CConstBidirectionalRangeFromPoint</title>
<g id="a_node14"><a xlink:href="structDGtal_1_1concepts_1_1CConstBidirectionalRangeFromPoint.html" target="_top" xlink:title="CConstBidirectionalRangeFromPoint">
<ellipse fill="white" stroke="white" cx="620" cy="-131.5" rx="150.13" ry="18"/>
<text text-anchor="middle" x="620" y="-126.45" font-family="Times,serif" font-size="14.00">CConstBidirectionalRangeFromPoint</text>
</a>
</g>
</g>
<!-- CBidirectionalRangeFromPoint&#45;&gt;CConstBidirectionalRangeFromPoint -->
<g id="edge8" class="edge">
<title>CBidirectionalRangeFromPoint&#45;&gt;CConstBidirectionalRangeFromPoint</title>
<path fill="none" stroke="black" d="M230.74,-72.32C311.17,-84.34 431.56,-102.33 517.13,-115.12"/>
<polygon fill="black" stroke="black" points="516.54,-118.57 526.94,-116.59 517.57,-111.65 516.54,-118.57"/>
</g>
<!-- CConstBidirectionalRangeFromPoint&#45;&gt;CConstBidirectionalRange -->
<g id="edge9" class="edge">
<title>CConstBidirectionalRangeFromPoint&#45;&gt;CConstBidirectionalRange</title>
<path fill="none" stroke="black" d="M620,-149.69C620,-157.27 620,-166.4 620,-174.96"/>
<polygon fill="black" stroke="black" points="616.5,-174.96 620,-184.96 623.5,-174.96 616.5,-174.96"/>
</g>
<!-- CSinglePassRangeWithWritableIterator -->
<g id="node15" class="node">
<title>CSinglePassRangeWithWritableIterator</title>
<g id="a_node15"><a xlink:href="structDGtal_1_1concepts_1_1CSinglePassRangeWithWritableIterator.html" target="_top" xlink:title="CSinglePassRangeWithWritableIterator">
<ellipse fill="white" stroke="white" cx="924" cy="-204.5" rx="158.32" ry="18"/>
<text text-anchor="middle" x="924" y="-199.45" font-family="Times,serif" font-size="14.00">CSinglePassRangeWithWritableIterator</text>
</a>
</g>
</g>
<!-- CSinglePassRangeWithWritableIterator&#45;&gt;boost_OutputIterator -->
<g id="edge12" class="edge">
<title>CSinglePassRangeWithWritableIterator&#45;&gt;boost_OutputIterator</title>
<path fill="none" stroke="black" stroke-dasharray="5,2" d="M913.84,-222.95C895.27,-254.83 855.75,-322.68 833.7,-360.54"/>
<polygon fill="black" stroke="black" points="830.75,-358.66 828.74,-369.06 836.8,-362.18 830.75,-358.66"/>
<text text-anchor="middle" x="901" y="-272.45" font-family="Times,serif" font-size="14.00">use</text>
</g>
<!-- CSinglePassRangeWithWritableIteratorFromPoint -->
<g id="node16" class="node">
<title>CSinglePassRangeWithWritableIteratorFromPoint</title>
<g id="a_node16"><a xlink:href="structDGtal_1_1concepts_1_1CSinglePassRangeWithWritableIteratorFromPoint.html" target="_top" xlink:title="CSinglePassRangeWithWritableIteratorFromPoint">
<ellipse fill="white" stroke="white" cx="490" cy="-58.5" rx="198.24" ry="18"/>
<text text-anchor="middle" x="490" y="-53.45" font-family="Times,serif" font-size="14.00">CSinglePassRangeWithWritableIteratorFromPoint</text>
</a>
</g>
</g>
<!-- CBidirectionalRangeWithWritableIterator -->
<g id="node17" class="node">
<title>CBidirectionalRangeWithWritableIterator</title>
<g id="a_node17"><a xlink:href="structDGtal_1_1concepts_1_1CBidirectionalRangeWithWritableIterator.html" target="_top" xlink:title="CBidirectionalRangeWithWritableIterator">
<ellipse fill="white" stroke="white" cx="991" cy="-131.5" rx="166.51" ry="18"/>
<text text-anchor="middle" x="991" y="-126.45" font-family="Times,serif" font-size="14.00">CBidirectionalRangeWithWritableIterator</text>
</a>
</g>
</g>
<!-- CBidirectionalRangeWithWritableIterator&#45;&gt;CSinglePassRangeWithWritableIterator -->
<g id="edge10" class="edge">
<title>CBidirectionalRangeWithWritableIterator&#45;&gt;CSinglePassRangeWithWritableIterator</title>
<path fill="none" stroke="black" d="M974.78,-149.69C966.72,-158.23 956.81,-168.73 947.9,-178.18"/>
<polygon fill="black" stroke="black" points="945.43,-175.7 941.11,-185.37 950.52,-180.5 945.43,-175.7"/>
</g>
<!-- CBidirectionalRangeWithWritableIteratorFromPoint -->
<g id="node18" class="node">
<title>CBidirectionalRangeWithWritableIteratorFromPoint</title>
<g id="a_node18"><a xlink:href="structDGtal_1_1concepts_1_1CBidirectionalRangeWithWritableIteratorFromPoint.html" target="_top" xlink:title="CBidirectionalRangeWithWritableIteratorFromPoint">
<ellipse fill="white" stroke="white" cx="913" cy="-58.5" rx="206.43" ry="18"/>
<text text-anchor="middle" x="913" y="-53.45" font-family="Times,serif" font-size="14.00">CBidirectionalRangeWithWritableIteratorFromPoint</text>
</a>
</g>
</g>
<!-- CBidirectionalRangeWithWritableIteratorFromPoint&#45;&gt;CBidirectionalRangeWithWritableIterator -->
<g id="edge11" class="edge">
<title>CBidirectionalRangeWithWritableIteratorFromPoint&#45;&gt;CBidirectionalRangeWithWritableIterator</title>
<path fill="none" stroke="black" d="M931.88,-76.69C941.39,-85.34 953.1,-96 963.58,-105.54"/>
<polygon fill="black" stroke="black" points="961.15,-108.06 970.9,-112.21 965.86,-102.89 961.15,-108.06"/>
</g>
<!-- CLabel -->
<g id="node19" class="node">
<title>CLabel</title>
<g id="a_node19"><a xlink:href="structDGtal_1_1concepts_1_1CLabel.html" target="_top" xlink:title="CLabel">
<ellipse fill="white" stroke="white" cx="1214" cy="-131.5" rx="38.04" ry="18"/>
<text text-anchor="middle" x="1214" y="-126.45" font-family="Times,serif" font-size="14.00">CLabel</text>
</a>
</g>
</g>
<!-- CLabel&#45;&gt;boost_Assignable -->
<g id="edge20" class="edge">
<title>CLabel&#45;&gt;boost_Assignable</title>
<path fill="none" stroke="black" d="M1222.2,-149.23C1243.3,-192.26 1299.59,-307.11 1325.55,-360.06"/>
<polygon fill="black" stroke="black" points="1322.39,-361.58 1329.94,-369.01 1328.68,-358.49 1322.39,-361.58"/>
</g>
<!-- CLabel&#45;&gt;boost_DefaultConstructible -->
<g id="edge19" class="edge">
<title>CLabel&#45;&gt;boost_DefaultConstructible</title>
<path fill="none" stroke="black" d="M1211.78,-149.63C1206.22,-192.62 1191.62,-305.46 1184.71,-358.79"/>
<polygon fill="black" stroke="black" points="1181.26,-358.24 1183.44,-368.61 1188.2,-359.14 1181.26,-358.24"/>
</g>
<!-- CLabel&#45;&gt;boost_EqualityComparable -->
<g id="edge21" class="edge">
<title>CLabel&#45;&gt;boost_EqualityComparable</title>
<path fill="none" stroke="black" d="M1199.8,-148.45C1161.54,-191.43 1056.05,-309.93 1009.54,-362.18"/>
<polygon fill="black" stroke="black" points="1007.12,-359.63 1003.09,-369.43 1012.35,-364.29 1007.12,-359.63"/>
</g>
<!-- CQuantity -->
<g id="node20" class="node">
<title>CQuantity</title>
<g id="a_node20"><a xlink:href="structDGtal_1_1concepts_1_1CQuantity.html" target="_top" xlink:title="CQuantity">
<ellipse fill="white" stroke="white" cx="1187" cy="-58.5" rx="49.3" ry="18"/>
<text text-anchor="middle" x="1187" y="-53.45" font-family="Times,serif" font-size="14.00">CQuantity</text>
</a>
</g>
</g>
<!-- CQuantity&#45;&gt;boost_LessThanComparable -->
<g id="edge16" class="edge">
<title>CQuantity&#45;&gt;boost_LessThanComparable</title>
<path fill="none" stroke="black" d="M1224.35,-70.67C1231.51,-72.7 1238.97,-74.73 1246,-76.5 1351.8,-103.16 1474,-58.39 1474,-167.5 1474,-167.5 1474,-167.5 1474,-278.5 1474,-306.59 1482.56,-337.6 1490.03,-359.33"/>
<polygon fill="black" stroke="black" points="1486.71,-360.44 1493.39,-368.66 1493.3,-358.06 1486.71,-360.44"/>
</g>
<!-- CQuantity&#45;&gt;CLabel -->
<g id="edge17" class="edge">
<title>CQuantity&#45;&gt;CLabel</title>
<path fill="none" stroke="black" d="M1193.54,-76.69C1196.52,-84.54 1200.13,-94.03 1203.48,-102.84"/>
<polygon fill="black" stroke="black" points="1200.16,-103.95 1206.99,-112.06 1206.7,-101.47 1200.16,-103.95"/>
</g>
<!-- CPredicate -->
<g id="node21" class="node">
<title>CPredicate</title>
<g id="a_node21"><a xlink:href="structDGtal_1_1concepts_1_1CPredicate.html" target="_top" xlink:title="CPredicate">
<ellipse fill="white" stroke="white" cx="1306" cy="-58.5" rx="51.35" ry="18"/>
<text text-anchor="middle" x="1306" y="-53.45" font-family="Times,serif" font-size="14.00">CPredicate</text>
</a>
</g>
</g>
<!-- CPredicate&#45;&gt;boost_Assignable -->
<g id="edge15" class="edge">
<title>CPredicate&#45;&gt;boost_Assignable</title>
<path fill="none" stroke="black" d="M1342.56,-71.62C1381.01,-85.5 1436,-109.09 1436,-130.5 1436,-130.5 1436,-130.5 1436,-278.5 1436,-299.51 1395.29,-339.04 1366.62,-364.28"/>
<polygon fill="black" stroke="black" points="1364.56,-361.43 1359.31,-370.63 1369.15,-366.72 1364.56,-361.43"/>
</g>
<!-- CUnaryFunctor -->
<g id="node23" class="node">
<title>CUnaryFunctor</title>
<g id="a_node23"><a xlink:href="structDGtal_1_1concepts_1_1CUnaryFunctor.html" target="_top" xlink:title="CUnaryFunctor">
<ellipse fill="white" stroke="white" cx="1339" cy="-131.5" rx="68.75" ry="18"/>
<text text-anchor="middle" x="1339" y="-126.45" font-family="Times,serif" font-size="14.00">CUnaryFunctor</text>
</a>
</g>
</g>
<!-- CPredicate&#45;&gt;CUnaryFunctor -->
<g id="edge18" class="edge">
<title>CPredicate&#45;&gt;CUnaryFunctor</title>
<path fill="none" stroke="black" d="M1313.99,-76.69C1317.68,-84.62 1322.15,-94.24 1326.28,-103.14"/>
<polygon fill="black" stroke="black" points="1323.06,-104.51 1330.45,-112.1 1329.41,-101.56 1323.06,-104.51"/>
</g>
<!-- CBackInsertable -->
<g id="node22" class="node">
<title>CBackInsertable</title>
<g id="a_node22"><a xlink:href="structDGtal_1_1concepts_1_1CBackInsertable.html" target="_top" xlink:title="CBackInsertable">
<ellipse fill="white" stroke="white" cx="1448" cy="-58.5" rx="72.34" ry="18"/>
<text text-anchor="middle" x="1448" y="-53.45" font-family="Times,serif" font-size="14.00">CBackInsertable</text>
</a>
</g>
</g>
<!-- CUnaryFunctor&#45;&gt;boost_Assignable -->
<g id="edge22" class="edge">
<title>CUnaryFunctor&#45;&gt;boost_Assignable</title>
<path fill="none" stroke="black" d="M1339,-149.63C1339,-192.62 1339,-305.46 1339,-358.79"/>
<polygon fill="black" stroke="black" points="1335.5,-358.6 1339,-368.6 1342.5,-358.6 1335.5,-358.6"/>
</g>
</g>
</svg>
