<?xml version="1.0" encoding="UTF-8" standalone="no"?>
<!DOCTYPE svg PUBLIC "-//W3C//DTD SVG 1.1//EN"
 "http://www.w3.org/Graphics/SVG/1.1/DTD/svg11.dtd">
<!-- Generated by graphviz version 11.0.0 (20240428.1522)
 -->
<!-- Title: GGeom Pages: 1 -->
<!--zoomable 659 -->

<svg id="main" version="1.1" xmlns="http://www.w3.org/2000/svg" xmlns:xlink="http://www.w3.org/1999/xlink" xml:space="preserve" onload="init(evt)">
<style type="text/css"><![CDATA[
.node, .edge {opacity: 0.7;}
.node.selected, .edge.selected {opacity: 1;}
.edge:hover path { stroke: red; }
.edge:hover polygon { stroke: red; fill: red; }
]]></style>

<defs>
  <circle id="rim" cx="0" cy="0" r="7"/>
  <circle id="rim2" cx="0" cy="0" r="3.5"/>
  <g id="zoomPlus">
    <use xlink:href="#rim" fill="#404040"><set attributeName="fill" to="#808080" begin="zoomplus.mouseover" end="zoomplus.mouseout"/></use>
    <path d="M-4,0h8M0,-4v8" fill="none" stroke="white" stroke-width="1.5" pointer-events="none"/>
  </g>
  <g id="zoomMin">
    <use xlink:href="#rim" fill="#404040"><set attributeName="fill" to="#808080" begin="zoomminus.mouseover" end="zoomminus.mouseout"/></use>
    <path d="M-4,0h8" fill="none" stroke="white" stroke-width="1.5" pointer-events="none"/>
  </g>
  <g id="arrowUp" transform="translate(30 24)">
    <use xlink:href="#rim"/>
    <path pointer-events="none" fill="none" stroke="white" stroke-width="1.5" d="M0,-3.0v7 M-2.5,-0.5L0,-3.0L2.5,-0.5"/>
  </g>
  <g id="arrowRight" transform="rotate(90) translate(36 -43)">
    <use xlink:href="#rim"/>
    <path pointer-events="none" fill="none" stroke="white" stroke-width="1.5" d="M0,-3.0v7 M-2.5,-0.5L0,-3.0L2.5,-0.5"/>
  </g>
  <g id="arrowDown" transform="rotate(180) translate(-30 -48)">
    <use xlink:href="#rim"/>
    <path pointer-events="none" fill="none" stroke="white" stroke-width="1.5" d="M0,-3.0v7 M-2.5,-0.5L0,-3.0L2.5,-0.5"/>
  </g>
  <g id="arrowLeft" transform="rotate(270) translate(-36 17)">
    <use xlink:href="#rim"/>
    <path pointer-events="none" fill="none" stroke="white" stroke-width="1.5" d="M0,-3.0v7 M-2.5,-0.5L0,-3.0L2.5,-0.5"/>
  </g>
  <g id="resetDef">
    <use xlink:href="#rim2" fill="#404040"><set attributeName="fill" to="#808080" begin="reset.mouseover" end="reset.mouseout"/></use>
  </g>
</defs>
<script type="application/ecmascript">
var viewWidth = 2448;
var viewHeight = 659;
</script>
<script type="application/ecmascript" xlink:href="svg.min.js"/>
<svg id="graph" class="graph">
<g id="viewport">
<title>GGeom</title>
<polygon fill="white" stroke="none" points="-4,4 -4,-655 2444,-655 2444,4 -4,4"/>
<g id="clust1" class="cluster">
<title>cluster_ext</title>
</g>
<g id="clust2" class="cluster">
<title>cluster_boost</title>
<polygon fill="white" stroke="white" points="451,-558.5 451,-635 1334,-635 1334,-558.5 451,-558.5"/>
<text text-anchor="middle" x="892.5" y="-565.7" font-family="Times,serif" font-size="14.00">boost</text>
</g>
<g id="clust3" class="cluster">
<title>cluster_concepts_1</title>
<polygon fill="lightgrey" stroke="lightgrey" points="8,-8 8,-531.5 555,-531.5 555,-8 8,-8"/>
<text text-anchor="middle" x="281.5" y="-15.2" font-family="Times,serif" font-size="14.00">geometry/curves (main concepts)</text>
</g>
<g id="clust4" class="cluster">
<title>cluster_concepts_2</title>
<polygon fill="lightgrey" stroke="lightgrey" points="1534,-382 1534,-635 2054,-635 2054,-382 1534,-382"/>
<text text-anchor="middle" x="1794" y="-389.2" font-family="Times,serif" font-size="14.00">geometry/volumes (main concepts)</text>
</g>
<g id="clust5" class="cluster">
<title>cluster_concepts_3</title>
<polygon fill="lightgrey" stroke="lightgrey" points="875,-286.5 875,-531.5 1408,-531.5 1408,-286.5 875,-286.5"/>
<text text-anchor="middle" x="1141.5" y="-293.7" font-family="Times,serif" font-size="14.00">geometry/surfaces (main concepts)</text>
</g>
<g id="clust6" class="cluster">
<title>cluster_models</title>
<polygon fill="#ccffcc" stroke="#ccffcc" points="563,-102.5 563,-267.5 2432,-267.5 2432,-102.5 563,-102.5"/>
<text text-anchor="middle" x="1497.5" y="-109.7" font-family="Times,serif" font-size="14.00">geometry/surfaces (main models)</text>
</g>
<g id="clust7" class="cluster">
<title>cluster_models_vol</title>
<polygon fill="#ccffcc" stroke="#ccffcc" points="1416,-286.5 1416,-363 2354,-363 2354,-286.5 1416,-286.5"/>
<text text-anchor="middle" x="1885" y="-293.7" font-family="Times,serif" font-size="14.00">geometry/volumes (main models)</text>
</g>
<!-- boost_CopyConstructible -->
<g id="node1" class="node">
<title>boost_CopyConstructible</title>
<ellipse fill="orange" stroke="orange" cx="1221" cy="-609" rx="105.09" ry="18"/>
<text text-anchor="middle" x="1221" y="-603.95" font-family="Times,serif" font-size="14.00">boost_CopyConstructible</text>
</g>
<!-- boost_DefaultConstructible -->
<g id="node2" class="node">
<title>boost_DefaultConstructible</title>
<ellipse fill="orange" stroke="orange" cx="814" cy="-609" rx="112.77" ry="18"/>
<text text-anchor="middle" x="814" y="-603.95" font-family="Times,serif" font-size="14.00">boost_DefaultConstructible</text>
</g>
<!-- boost_Assignable -->
<g id="node3" class="node">
<title>boost_Assignable</title>
<ellipse fill="orange" stroke="orange" cx="1021" cy="-609" rx="76.43" ry="18"/>
<text text-anchor="middle" x="1021" y="-603.95" font-family="Times,serif" font-size="14.00">boost_Assignable</text>
</g>
<!-- boost_EqualityComparable -->
<g id="node4" class="node">
<title>boost_EqualityComparable</title>
<ellipse fill="orange" stroke="orange" cx="571" cy="-609" rx="112.26" ry="18"/>
<text text-anchor="middle" x="571" y="-603.95" font-family="Times,serif" font-size="14.00">boost_EqualityComparable</text>
</g>
<!-- CSegment -->
<g id="node5" class="node">
<title>CSegment</title>
<g id="a_node5"><a xlink:href="structDGtal_1_1concepts_1_1CSegment.html" target="_top" xlink:title="CSegment">
<ellipse fill="white" stroke="white" cx="497" cy="-505.5" rx="49.82" ry="18"/>
<text text-anchor="middle" x="497" y="-500.45" font-family="Times,serif" font-size="14.00">CSegment</text>
</a>
</g>
</g>
<!-- CSegment&#45;&gt;boost_CopyConstructible -->
<g id="edge19" class="edge">
<title>CSegment&#45;&gt;boost_CopyConstructible</title>
<path fill="none" stroke="black" d="M545.7,-510.01C617.05,-515.08 754.23,-524.63 871,-531.5 958.52,-536.65 981.21,-529.12 1068,-541.5 1110.38,-547.54 1154.82,-568.77 1184.82,-585.64"/>
<polygon fill="black" stroke="black" points="1182.69,-588.45 1193.1,-590.41 1186.18,-582.39 1182.69,-588.45"/>
</g>
<!-- CSegment&#45;&gt;boost_DefaultConstructible -->
<g id="edge20" class="edge">
<title>CSegment&#45;&gt;boost_DefaultConstructible</title>
<path fill="none" stroke="black" d="M541.91,-513.75C581.94,-520.89 641.79,-533.23 692,-550.5 720.03,-560.14 750.18,-574.31 773.49,-586.17"/>
<polygon fill="black" stroke="black" points="771.85,-589.26 782.34,-590.74 775.06,-583.04 771.85,-589.26"/>
</g>
<!-- CSegment&#45;&gt;boost_Assignable -->
<g id="edge21" class="edge">
<title>CSegment&#45;&gt;boost_Assignable</title>
<path fill="none" stroke="black" d="M545.82,-509.57C657.21,-516.68 921.95,-534.23 940,-541.5 962.5,-550.57 983.53,-568.22 998.52,-583.07"/>
<polygon fill="black" stroke="black" points="995.66,-585.14 1005.14,-589.87 1000.67,-580.26 995.66,-585.14"/>
</g>
<!-- CSegment&#45;&gt;boost_EqualityComparable -->
<g id="edge22" class="edge">
<title>CSegment&#45;&gt;boost_EqualityComparable</title>
<path fill="none" stroke="black" d="M509.22,-523.26C520.83,-539.18 538.45,-563.36 551.91,-581.82"/>
<polygon fill="black" stroke="black" points="548.9,-583.63 557.62,-589.65 554.56,-579.51 548.9,-583.63"/>
</g>
<!-- CBidirectionalSegmentComputer -->
<g id="node6" class="node">
<title>CBidirectionalSegmentComputer</title>
<g id="a_node6"><a xlink:href="structDGtal_1_1concepts_1_1CBidirectionalSegmentComputer.html" target="_top" xlink:title="CBidirectionalSegmentComputer">
<ellipse fill="white" stroke="white" cx="151" cy="-153" rx="135.29" ry="18"/>
<text text-anchor="middle" x="151" y="-147.95" font-family="Times,serif" font-size="14.00">CBidirectionalSegmentComputer</text>
</a>
</g>
</g>
<!-- CForwardSegmentComputer -->
<g id="node8" class="node">
<title>CForwardSegmentComputer</title>
<g id="a_node8"><a xlink:href="structDGtal_1_1concepts_1_1CForwardSegmentComputer.html" target="_top" xlink:title="CForwardSegmentComputer">
<ellipse fill="white" stroke="white" cx="415" cy="-241.5" rx="118.4" ry="18"/>
<text text-anchor="middle" x="415" y="-236.45" font-family="Times,serif" font-size="14.00">CForwardSegmentComputer</text>
</a>
</g>
</g>
<!-- CBidirectionalSegmentComputer&#45;&gt;CForwardSegmentComputer -->
<g id="edge1" class="edge">
<title>CBidirectionalSegmentComputer&#45;&gt;CForwardSegmentComputer</title>
<path fill="none" stroke="black" d="M200.35,-170.17C244.42,-184.61 309.07,-205.79 355.89,-221.13"/>
<polygon fill="black" stroke="black" points="354.76,-224.44 365.35,-224.23 356.94,-217.79 354.76,-224.44"/>
</g>
<!-- CIncrementalSegmentComputer -->
<g id="node7" class="node">
<title>CIncrementalSegmentComputer</title>
<g id="a_node7"><a xlink:href="structDGtal_1_1concepts_1_1CIncrementalSegmentComputer.html" target="_top" xlink:title="CIncrementalSegmentComputer">
<ellipse fill="white" stroke="white" cx="415" cy="-337" rx="131.71" ry="18"/>
<text text-anchor="middle" x="415" y="-331.95" font-family="Times,serif" font-size="14.00">CIncrementalSegmentComputer</text>
</a>
</g>
</g>
<!-- CSegmentFactory -->
<g id="node9" class="node">
<title>CSegmentFactory</title>
<g id="a_node9"><a xlink:href="structDGtal_1_1concepts_1_1CSegmentFactory.html" target="_top" xlink:title="CSegmentFactory">
<ellipse fill="white" stroke="white" cx="455" cy="-432.5" rx="77.97" ry="18"/>
<text text-anchor="middle" x="455" y="-427.45" font-family="Times,serif" font-size="14.00">CSegmentFactory</text>
</a>
</g>
</g>
<!-- CIncrementalSegmentComputer&#45;&gt;CSegmentFactory -->
<g id="edge3" class="edge">
<title>CIncrementalSegmentComputer&#45;&gt;CSegmentFactory</title>
<path fill="none" stroke="black" d="M422.34,-355.15C428.16,-368.77 436.43,-388.09 443.19,-403.88"/>
<polygon fill="black" stroke="black" points="439.83,-404.93 446.98,-412.75 446.26,-402.18 439.83,-404.93"/>
</g>
<!-- CForwardSegmentComputer&#45;&gt;CIncrementalSegmentComputer -->
<g id="edge2" class="edge">
<title>CForwardSegmentComputer&#45;&gt;CIncrementalSegmentComputer</title>
<path fill="none" stroke="black" d="M415,-259.65C415,-273.01 415,-291.85 415,-307.47"/>
<polygon fill="black" stroke="black" points="411.5,-307.13 415,-317.13 418.5,-307.13 411.5,-307.13"/>
</g>
<!-- CSegmentFactory&#45;&gt;CSegment -->
<g id="edge4" class="edge">
<title>CSegmentFactory&#45;&gt;CSegment</title>
<path fill="none" stroke="black" d="M465.17,-450.69C469.96,-458.8 475.8,-468.66 481.16,-477.72"/>
<polygon fill="black" stroke="black" points="478.05,-479.34 486.16,-486.17 484.08,-475.78 478.05,-479.34"/>
</g>
<!-- CDynamicBidirectionalSegmentComputer -->
<g id="node10" class="node">
<title>CDynamicBidirectionalSegmentComputer</title>
<g id="a_node10"><a xlink:href="structDGtal_1_1concepts_1_1CDynamicBidirectionalSegmentComputer.html" target="_top" xlink:title="CDynamicBidirectionalSegmentComputer">
<ellipse fill="white" stroke="white" cx="281" cy="-58.5" rx="169.58" ry="18"/>
<text text-anchor="middle" x="281" y="-53.45" font-family="Times,serif" font-size="14.00">CDynamicBidirectionalSegmentComputer</text>
</a>
</g>
</g>
<!-- CDynamicBidirectionalSegmentComputer&#45;&gt;CBidirectionalSegmentComputer -->
<g id="edge7" class="edge">
<title>CDynamicBidirectionalSegmentComputer&#45;&gt;CBidirectionalSegmentComputer</title>
<path fill="none" stroke="black" d="M256.85,-76.68C236.42,-91.22 206.93,-112.2 184.27,-128.33"/>
<polygon fill="black" stroke="black" points="182.37,-125.38 176.25,-134.03 186.43,-131.09 182.37,-125.38"/>
</g>
<!-- CDynamicSegmentComputer -->
<g id="node11" class="node">
<title>CDynamicSegmentComputer</title>
<g id="a_node11"><a xlink:href="structDGtal_1_1concepts_1_1CDynamicSegmentComputer.html" target="_top" xlink:title="CDynamicSegmentComputer">
<ellipse fill="white" stroke="white" cx="426" cy="-153" rx="121.47" ry="18"/>
<text text-anchor="middle" x="426" y="-147.95" font-family="Times,serif" font-size="14.00">CDynamicSegmentComputer</text>
</a>
</g>
</g>
<!-- CDynamicBidirectionalSegmentComputer&#45;&gt;CDynamicSegmentComputer -->
<g id="edge6" class="edge">
<title>CDynamicBidirectionalSegmentComputer&#45;&gt;CDynamicSegmentComputer</title>
<path fill="none" stroke="black" d="M307.93,-76.68C331.07,-91.44 364.62,-112.84 390.05,-129.06"/>
<polygon fill="black" stroke="black" points="388.11,-131.98 398.42,-134.41 391.88,-126.08 388.11,-131.98"/>
</g>
<!-- CDynamicSegmentComputer&#45;&gt;CForwardSegmentComputer -->
<g id="edge5" class="edge">
<title>CDynamicSegmentComputer&#45;&gt;CForwardSegmentComputer</title>
<path fill="none" stroke="black" d="M423.83,-171.09C422.34,-182.74 420.35,-198.45 418.63,-211.98"/>
<polygon fill="black" stroke="black" points="415.19,-211.29 417.4,-221.65 422.13,-212.17 415.19,-211.29"/>
</g>
<!-- CMetricSpace -->
<g id="node12" class="node">
<title>CMetricSpace</title>
<g id="a_node12"><a xlink:href="structDGtal_1_1concepts_1_1CMetricSpace.html" target="_top" xlink:title="CMetricSpace">
<ellipse fill="white" stroke="white" cx="1770" cy="-609" rx="64.15" ry="18"/>
<text text-anchor="middle" x="1770" y="-603.95" font-family="Times,serif" font-size="14.00">CMetricSpace</text>
</a>
</g>
</g>
<!-- CDigitalMetricSpace -->
<g id="node13" class="node">
<title>CDigitalMetricSpace</title>
<g id="a_node13"><a xlink:href="structDGtal_1_1concepts_1_1CDigitalMetricSpace.html" target="_top" xlink:title="CDigitalMetricSpace">
<ellipse fill="white" stroke="white" cx="1956" cy="-505.5" rx="89.74" ry="18"/>
<text text-anchor="middle" x="1956" y="-500.45" font-family="Times,serif" font-size="14.00">CDigitalMetricSpace</text>
</a>
</g>
</g>
<!-- CSeparableMetric -->
<g id="node14" class="node">
<title>CSeparableMetric</title>
<g id="a_node14"><a xlink:href="structDGtal_1_1concepts_1_1CSeparableMetric.html" target="_top" xlink:title="CSeparableMetric">
<ellipse fill="white" stroke="white" cx="1770" cy="-505.5" rx="78.48" ry="18"/>
<text text-anchor="middle" x="1770" y="-500.45" font-family="Times,serif" font-size="14.00">CSeparableMetric</text>
</a>
</g>
</g>
<!-- CSeparableMetric&#45;&gt;CMetricSpace -->
<g id="edge8" class="edge">
<title>CSeparableMetric&#45;&gt;CMetricSpace</title>
<path fill="none" stroke="black" d="M1768.81,-523.94C1768.48,-529.54 1768.16,-535.78 1768,-541.5 1767.65,-553.93 1767.94,-567.66 1768.41,-579.4"/>
<polygon fill="black" stroke="black" points="1764.9,-579.44 1768.86,-589.27 1771.9,-579.12 1764.9,-579.44"/>
</g>
<!-- CSeparableMetric&#45;&gt;CMetricSpace -->
<g id="edge9" class="edge">
<title>CSeparableMetric&#45;&gt;CMetricSpace</title>
<path fill="none" stroke="black" d="M1770,-523.72C1770,-538.96 1770,-561.49 1770,-579.43"/>
<polygon fill="black" stroke="black" points="1766.5,-579.18 1770,-589.18 1773.5,-579.18 1766.5,-579.18"/>
</g>
<!-- CDigitalSeparableMetric -->
<g id="node15" class="node">
<title>CDigitalSeparableMetric</title>
<ellipse fill="white" stroke="white" cx="1942" cy="-432.5" rx="104.07" ry="18"/>
<text text-anchor="middle" x="1942" y="-427.45" font-family="Times,serif" font-size="14.00">CDigitalSeparableMetric</text>
</g>
<!-- CDigitalSeparableMetric&#45;&gt;CDigitalMetricSpace -->
<g id="edge10" class="edge">
<title>CDigitalSeparableMetric&#45;&gt;CDigitalMetricSpace</title>
<path fill="none" stroke="black" d="M1945.39,-450.69C1946.9,-458.36 1948.73,-467.61 1950.43,-476.26"/>
<polygon fill="black" stroke="black" points="1946.98,-476.85 1952.35,-485.99 1953.85,-475.5 1946.98,-476.85"/>
</g>
<!-- CDigitalSeparableMetric&#45;&gt;CSeparableMetric -->
<g id="edge11" class="edge">
<title>CDigitalSeparableMetric&#45;&gt;CSeparableMetric</title>
<path fill="none" stroke="black" d="M1902.97,-449.61C1877.6,-460.09 1844.35,-473.81 1817.45,-484.91"/>
<polygon fill="black" stroke="black" points="1816.41,-481.55 1808.51,-488.61 1819.08,-488.02 1816.41,-481.55"/>
</g>
<!-- CPowerMetric -->
<g id="node16" class="node">
<title>CPowerMetric</title>
<g id="a_node16"><a xlink:href="structDGtal_1_1concepts_1_1CPowerMetric.html" target="_top" xlink:title="CPowerMetric">
<ellipse fill="white" stroke="white" cx="1608" cy="-505.5" rx="65.68" ry="18"/>
<text text-anchor="middle" x="1608" y="-500.45" font-family="Times,serif" font-size="14.00">CPowerMetric</text>
</a>
</g>
</g>
<!-- CPowerMetric&#45;&gt;boost_CopyConstructible -->
<g id="edge17" class="edge">
<title>CPowerMetric&#45;&gt;boost_CopyConstructible</title>
<path fill="none" stroke="black" d="M1561.7,-518.64C1493.49,-536.53 1365.62,-570.07 1287.42,-590.58"/>
<polygon fill="black" stroke="black" points="1286.97,-587.08 1278.19,-593 1288.75,-593.85 1286.97,-587.08"/>
</g>
<!-- CPowerMetric&#45;&gt;boost_Assignable -->
<g id="edge18" class="edge">
<title>CPowerMetric&#45;&gt;boost_Assignable</title>
<path fill="none" stroke="black" d="M1565.53,-519.45C1548.17,-524.16 1527.79,-528.94 1509,-531.5 1485.21,-534.74 1098.65,-531.12 1077,-541.5 1059.53,-549.88 1045.5,-566.57 1035.85,-581.14"/>
<polygon fill="black" stroke="black" points="1032.98,-579.13 1030.68,-589.47 1038.93,-582.82 1032.98,-579.13"/>
</g>
<!-- CPowerSeparableMetric -->
<g id="node17" class="node">
<title>CPowerSeparableMetric</title>
<g id="a_node17"><a xlink:href="structDGtal_1_1concepts_1_1CPowerSeparableMetric.html" target="_top" xlink:title="CPowerSeparableMetric">
<ellipse fill="white" stroke="white" cx="1718" cy="-432.5" rx="102.02" ry="18"/>
<text text-anchor="middle" x="1718" y="-427.45" font-family="Times,serif" font-size="14.00">CPowerSeparableMetric</text>
</a>
</g>
</g>
<!-- CPowerSeparableMetric&#45;&gt;CPowerMetric -->
<g id="edge12" class="edge">
<title>CPowerSeparableMetric&#45;&gt;CPowerMetric</title>
<path fill="none" stroke="black" d="M1691.93,-450.33C1677.09,-459.9 1658.33,-472.01 1642.31,-482.35"/>
<polygon fill="black" stroke="black" points="1640.52,-479.34 1634.02,-487.71 1644.32,-485.22 1640.52,-479.34"/>
</g>
<!-- CPrimitiveComputer -->
<g id="node18" class="node">
<title>CPrimitiveComputer</title>
<g id="a_node18"><a xlink:href="structDGtal_1_1concepts_1_1CPrimitiveComputer.html" target="_top" xlink:title="CPrimitiveComputer">
<ellipse fill="white" stroke="white" cx="1221" cy="-505.5" rx="89.23" ry="18"/>
<text text-anchor="middle" x="1221" y="-500.45" font-family="Times,serif" font-size="14.00">CPrimitiveComputer</text>
</a>
</g>
</g>
<!-- CPrimitiveComputer&#45;&gt;boost_CopyConstructible -->
<g id="edge24" class="edge">
<title>CPrimitiveComputer&#45;&gt;boost_CopyConstructible</title>
<path fill="none" stroke="black" d="M1221,-523.72C1221,-538.96 1221,-561.49 1221,-579.43"/>
<polygon fill="black" stroke="black" points="1217.5,-579.18 1221,-589.18 1224.5,-579.18 1217.5,-579.18"/>
</g>
<!-- CPrimitiveComputer&#45;&gt;boost_DefaultConstructible -->
<g id="edge23" class="edge">
<title>CPrimitiveComputer&#45;&gt;boost_DefaultConstructible</title>
<path fill="none" stroke="black" d="M1133.5,-509.28C1077.16,-513.04 1002.96,-521.7 940,-541.5 907.44,-551.74 873.37,-570.26 848.88,-585.16"/>
<polygon fill="black" stroke="black" points="847.28,-582.04 840.62,-590.29 850.97,-587.99 847.28,-582.04"/>
</g>
<!-- CPrimitiveComputer&#45;&gt;boost_Assignable -->
<g id="edge25" class="edge">
<title>CPrimitiveComputer&#45;&gt;boost_Assignable</title>
<path fill="none" stroke="black" d="M1137.71,-512.37C1093.8,-517.26 1045.99,-526.01 1031,-541.5 1021.49,-551.33 1018.59,-566.09 1018.24,-579.2"/>
<polygon fill="black" stroke="black" points="1014.74,-579.18 1018.48,-589.09 1021.74,-579.01 1014.74,-579.18"/>
</g>
<!-- CIncrementalPrimitiveComputer -->
<g id="node19" class="node">
<title>CIncrementalPrimitiveComputer</title>
<g id="a_node19"><a xlink:href="structDGtal_1_1concepts_1_1CIncrementalPrimitiveComputer.html" target="_top" xlink:title="CIncrementalPrimitiveComputer">
<ellipse fill="white" stroke="white" cx="1266" cy="-432.5" rx="133.75" ry="18"/>
<text text-anchor="middle" x="1266" y="-427.45" font-family="Times,serif" font-size="14.00">CIncrementalPrimitiveComputer</text>
</a>
</g>
</g>
<!-- CIncrementalPrimitiveComputer&#45;&gt;CPrimitiveComputer -->
<g id="edge14" class="edge">
<title>CIncrementalPrimitiveComputer&#45;&gt;CPrimitiveComputer</title>
<path fill="none" stroke="black" d="M1255.11,-450.69C1249.91,-458.88 1243.58,-468.88 1237.79,-478.02"/>
<polygon fill="black" stroke="black" points="1235,-475.87 1232.6,-486.19 1240.91,-479.62 1235,-475.87"/>
</g>
<!-- CAdditivePrimitiveComputer -->
<g id="node20" class="node">
<title>CAdditivePrimitiveComputer</title>
<g id="a_node20"><a xlink:href="structDGtal_1_1concepts_1_1CAdditivePrimitiveComputer.html" target="_top" xlink:title="CAdditivePrimitiveComputer">
<ellipse fill="white" stroke="white" cx="1279" cy="-337" rx="121.47" ry="18"/>
<text text-anchor="middle" x="1279" y="-331.95" font-family="Times,serif" font-size="14.00">CAdditivePrimitiveComputer</text>
</a>
</g>
</g>
<!-- CAdditivePrimitiveComputer&#45;&gt;CIncrementalPrimitiveComputer -->
<g id="edge13" class="edge">
<title>CAdditivePrimitiveComputer&#45;&gt;CIncrementalPrimitiveComputer</title>
<path fill="none" stroke="black" d="M1276.62,-355.15C1274.76,-368.51 1272.14,-387.35 1269.97,-402.97"/>
<polygon fill="black" stroke="black" points="1266.53,-402.26 1268.62,-412.64 1273.47,-403.22 1266.53,-402.26"/>
</g>
<!-- CDigitalSurfaceLocalEstimator -->
<g id="node21" class="node">
<title>CDigitalSurfaceLocalEstimator</title>
<g id="a_node21"><a xlink:href="structDGtal_1_1concepts_1_1CDigitalSurfaceLocalEstimator.html" target="_top" xlink:title="CDigitalSurfaceLocalEstimator">
<ellipse fill="white" stroke="white" cx="1011" cy="-337" rx="128.12" ry="18"/>
<text text-anchor="middle" x="1011" y="-331.95" font-family="Times,serif" font-size="14.00">CDigitalSurfaceLocalEstimator</text>
</a>
</g>
</g>
<!-- CDigitalSurfaceLocalEstimator&#45;&gt;boost_CopyConstructible -->
<g id="edge42" class="edge">
<title>CDigitalSurfaceLocalEstimator&#45;&gt;boost_CopyConstructible</title>
<path fill="none" stroke="black" d="M1018.34,-355.45C1033.93,-391.18 1073.04,-474.12 1123,-531.5 1140.9,-552.06 1165,-570.96 1184.82,-584.83"/>
<polygon fill="black" stroke="black" points="1182.68,-587.61 1192.91,-590.36 1186.63,-581.83 1182.68,-587.61"/>
</g>
<!-- CDigitalSurfaceLocalEstimator&#45;&gt;boost_DefaultConstructible -->
<g id="edge41" class="edge">
<title>CDigitalSurfaceLocalEstimator&#45;&gt;boost_DefaultConstructible</title>
<path fill="none" stroke="black" d="M998.38,-355.3C964.81,-401.31 873.18,-526.89 833.15,-581.76"/>
<polygon fill="black" stroke="black" points="830.48,-579.48 827.41,-589.62 836.13,-583.61 830.48,-579.48"/>
</g>
<!-- CDigitalSurfaceLocalEstimator&#45;&gt;boost_Assignable -->
<g id="edge43" class="edge">
<title>CDigitalSurfaceLocalEstimator&#45;&gt;boost_Assignable</title>
<path fill="none" stroke="black" d="M1011.64,-355.3C1013.32,-400.73 1017.88,-523.78 1019.95,-579.68"/>
<polygon fill="black" stroke="black" points="1016.44,-579.47 1020.31,-589.33 1023.44,-579.21 1016.44,-579.47"/>
</g>
<!-- CMetric -->
<g id="node22" class="node">
<title>CMetric</title>
<ellipse fill="none" stroke="black" cx="1458" cy="-505.5" rx="42.14" ry="18"/>
<text text-anchor="middle" x="1458" y="-500.45" font-family="Times,serif" font-size="14.00">CMetric</text>
</g>
<!-- CMetric&#45;&gt;boost_CopyConstructible -->
<g id="edge15" class="edge">
<title>CMetric&#45;&gt;boost_CopyConstructible</title>
<path fill="none" stroke="black" d="M1433.44,-520.53C1426.59,-524.26 1419.07,-528.17 1412,-531.5 1366.64,-552.82 1313.63,-573.75 1274.98,-588.31"/>
<polygon fill="black" stroke="black" points="1274.03,-584.93 1265.89,-591.72 1276.48,-591.49 1274.03,-584.93"/>
</g>
<!-- CMetric&#45;&gt;boost_Assignable -->
<g id="edge16" class="edge">
<title>CMetric&#45;&gt;boost_Assignable</title>
<path fill="none" stroke="black" d="M1435.96,-521.2C1428.64,-525.32 1420.25,-529.28 1412,-531.5 1373.57,-541.84 1087.52,-520.06 1054,-541.5 1040.55,-550.1 1032.39,-565.95 1027.55,-580.02"/>
<polygon fill="black" stroke="black" points="1024.29,-578.71 1024.77,-589.3 1030.99,-580.72 1024.29,-578.71"/>
</g>
<!-- COBANaivePlaneComputer -->
<g id="node23" class="node">
<title>COBANaivePlaneComputer</title>
<g id="a_node23"><a xlink:href="classDGtal_1_1COBANaivePlaneComputer.html" target="_top" xlink:title="COBANaivePlaneComputer">
<ellipse fill="white" stroke="white" cx="1958" cy="-241.5" rx="116.35" ry="18"/>
<text text-anchor="middle" x="1958" y="-236.45" font-family="Times,serif" font-size="14.00">COBANaivePlaneComputer</text>
</a>
</g>
</g>
<!-- COBANaivePlaneComputer&#45;&gt;CAdditivePrimitiveComputer -->
<g id="edge31" class="edge">
<title>COBANaivePlaneComputer&#45;&gt;CAdditivePrimitiveComputer</title>
<path fill="none" stroke="black" d="M1854.68,-250.09C1702.38,-261.38 1433.21,-281.79 1412,-286.5 1382.43,-293.06 1350.59,-304.74 1325.48,-315.1"/>
<polygon fill="black" stroke="black" points="1324.41,-311.75 1316.55,-318.86 1327.12,-318.21 1324.41,-311.75"/>
</g>
<!-- COBAGenericNaivePlaneComputer -->
<g id="node24" class="node">
<title>COBAGenericNaivePlaneComputer</title>
<g id="a_node24"><a xlink:href="classDGtal_1_1COBAGenericNaivePlaneComputer.html" target="_top" xlink:title="COBAGenericNaivePlaneComputer">
<ellipse fill="white" stroke="white" cx="2278" cy="-153" rx="145.52" ry="18"/>
<text text-anchor="middle" x="2278" y="-147.95" font-family="Times,serif" font-size="14.00">COBAGenericNaivePlaneComputer</text>
</a>
</g>
</g>
<!-- COBAGenericNaivePlaneComputer&#45;&gt;CAdditivePrimitiveComputer -->
<g id="edge29" class="edge">
<title>COBAGenericNaivePlaneComputer&#45;&gt;CAdditivePrimitiveComputer</title>
<path fill="none" stroke="black" d="M2256.85,-171.19C2222.73,-197.75 2152.31,-247.74 2083,-267.5 2011.27,-287.95 1485.21,-272.25 1412,-286.5 1381.85,-292.37 1349.51,-304.27 1324.28,-314.92"/>
<polygon fill="black" stroke="black" points="1323.11,-311.62 1315.32,-318.79 1325.88,-318.04 1323.11,-311.62"/>
</g>
<!-- COBAGenericNaivePlaneComputer&#45;&gt;COBANaivePlaneComputer -->
<g id="edge30" class="edge">
<title>COBAGenericNaivePlaneComputer&#45;&gt;COBANaivePlaneComputer</title>
<path fill="none" stroke="black" stroke-dasharray="5,2" d="M2219.31,-169.87C2164.39,-184.71 2082.41,-206.87 2024.96,-222.4"/>
<polygon fill="black" stroke="black" points="2024.38,-218.93 2015.64,-224.92 2026.2,-225.69 2024.38,-218.93"/>
<text text-anchor="middle" x="2155" y="-192.2" font-family="Times,serif" font-size="14.00">use</text>
</g>
<!-- COBAGenericStandardPlaneComputer -->
<g id="node25" class="node">
<title>COBAGenericStandardPlaneComputer</title>
<g id="a_node25"><a xlink:href="classDGtal_1_1COBAGenericStandardPlaneComputer.html" target="_top" xlink:title="COBAGenericStandardPlaneComputer">
<ellipse fill="white" stroke="white" cx="1958" cy="-153" rx="156.27" ry="18"/>
<text text-anchor="middle" x="1958" y="-147.95" font-family="Times,serif" font-size="14.00">COBAGenericStandardPlaneComputer</text>
</a>
</g>
</g>
<!-- COBAGenericStandardPlaneComputer&#45;&gt;CAdditivePrimitiveComputer -->
<g id="edge32" class="edge">
<title>COBAGenericStandardPlaneComputer&#45;&gt;CAdditivePrimitiveComputer</title>
<path fill="none" stroke="black" d="M1848.47,-166.19C1829.97,-167.99 1810.95,-169.68 1793,-171 1747.86,-174.32 1425.88,-167.58 1386,-189 1360.79,-202.54 1317.62,-270.63 1294.58,-309.21"/>
<polygon fill="black" stroke="black" points="1291.76,-307.1 1289.68,-317.49 1297.78,-310.67 1291.76,-307.1"/>
</g>
<!-- COBAGenericStandardPlaneComputer&#45;&gt;COBANaivePlaneComputer -->
<g id="edge33" class="edge">
<title>COBAGenericStandardPlaneComputer&#45;&gt;COBANaivePlaneComputer</title>
<path fill="none" stroke="black" stroke-dasharray="5,2" d="M1958,-171.09C1958,-182.74 1958,-198.45 1958,-211.98"/>
<polygon fill="black" stroke="black" points="1954.5,-211.64 1958,-221.64 1961.5,-211.64 1954.5,-211.64"/>
<text text-anchor="middle" x="1967" y="-192.2" font-family="Times,serif" font-size="14.00">use</text>
</g>
<!-- ChordNaivePlaneComputer -->
<g id="node26" class="node">
<title>ChordNaivePlaneComputer</title>
<g id="a_node26"><a xlink:href="classDGtal_1_1ChordNaivePlaneComputer.html" target="_top" xlink:title="ChordNaivePlaneComputer">
<ellipse fill="white" stroke="white" cx="1483" cy="-241.5" rx="113.79" ry="18"/>
<text text-anchor="middle" x="1483" y="-236.45" font-family="Times,serif" font-size="14.00">ChordNaivePlaneComputer</text>
</a>
</g>
</g>
<!-- ChordNaivePlaneComputer&#45;&gt;CAdditivePrimitiveComputer -->
<g id="edge36" class="edge">
<title>ChordNaivePlaneComputer&#45;&gt;CAdditivePrimitiveComputer</title>
<path fill="none" stroke="black" d="M1447,-259C1413.12,-274.53 1362.23,-297.85 1325.34,-314.76"/>
<polygon fill="black" stroke="black" points="1324.34,-311.37 1316.7,-318.72 1327.25,-317.73 1324.34,-311.37"/>
</g>
<!-- ChordGenericNaivePlaneComputer -->
<g id="node27" class="node">
<title>ChordGenericNaivePlaneComputer</title>
<g id="a_node27"><a xlink:href="classDGtal_1_1ChordGenericNaivePlaneComputer.html" target="_top" xlink:title="ChordGenericNaivePlaneComputer">
<ellipse fill="white" stroke="white" cx="1641" cy="-153" rx="142.97" ry="18"/>
<text text-anchor="middle" x="1641" y="-147.95" font-family="Times,serif" font-size="14.00">ChordGenericNaivePlaneComputer</text>
</a>
</g>
</g>
<!-- ChordGenericNaivePlaneComputer&#45;&gt;CAdditivePrimitiveComputer -->
<g id="edge34" class="edge">
<title>ChordGenericNaivePlaneComputer&#45;&gt;CAdditivePrimitiveComputer</title>
<path fill="none" stroke="black" d="M1536.86,-165.68C1449.25,-175.55 1338.02,-188.22 1337,-189 1317.62,-203.88 1297.14,-269.19 1286.46,-307.57"/>
<polygon fill="black" stroke="black" points="1283.13,-306.5 1283.88,-317.07 1289.88,-308.34 1283.13,-306.5"/>
</g>
<!-- ChordGenericNaivePlaneComputer&#45;&gt;ChordNaivePlaneComputer -->
<g id="edge35" class="edge">
<title>ChordGenericNaivePlaneComputer&#45;&gt;ChordNaivePlaneComputer</title>
<path fill="none" stroke="black" stroke-dasharray="5,2" d="M1610.16,-170.88C1585.4,-184.44 1550.42,-203.59 1523.41,-218.37"/>
<polygon fill="black" stroke="black" points="1521.91,-215.21 1514.82,-223.08 1525.27,-221.35 1521.91,-215.21"/>
<text text-anchor="middle" x="1585" y="-192.2" font-family="Times,serif" font-size="14.00">use</text>
</g>
<!-- ChordGenericStandardPlaneComputer -->
<g id="node28" class="node">
<title>ChordGenericStandardPlaneComputer</title>
<g id="a_node28"><a xlink:href="classDGtal_1_1ChordGenericStandardPlaneComputer.html" target="_top" xlink:title="ChordGenericStandardPlaneComputer">
<ellipse fill="white" stroke="white" cx="1326" cy="-153" rx="153.71" ry="18"/>
<text text-anchor="middle" x="1326" y="-147.95" font-family="Times,serif" font-size="14.00">ChordGenericStandardPlaneComputer</text>
</a>
</g>
</g>
<!-- ChordGenericStandardPlaneComputer&#45;&gt;CAdditivePrimitiveComputer -->
<g id="edge37" class="edge">
<title>ChordGenericStandardPlaneComputer&#45;&gt;CAdditivePrimitiveComputer</title>
<path fill="none" stroke="black" d="M1311.59,-171.34C1307.68,-176.73 1303.77,-182.87 1301,-189 1283.64,-227.45 1279.48,-276.74 1278.74,-307.34"/>
<polygon fill="black" stroke="black" points="1275.24,-307.3 1278.62,-317.34 1282.24,-307.38 1275.24,-307.3"/>
</g>
<!-- ChordGenericStandardPlaneComputer&#45;&gt;ChordNaivePlaneComputer -->
<g id="edge38" class="edge">
<title>ChordGenericStandardPlaneComputer&#45;&gt;ChordNaivePlaneComputer</title>
<path fill="none" stroke="black" stroke-dasharray="5,2" d="M1357.02,-171.09C1381.58,-184.62 1416.08,-203.63 1442.77,-218.34"/>
<polygon fill="black" stroke="black" points="1440.81,-221.25 1451.25,-223.01 1444.19,-215.12 1440.81,-221.25"/>
<text text-anchor="middle" x="1427" y="-192.2" font-family="Times,serif" font-size="14.00">use</text>
</g>
<!-- TrueDigitalSurfaceLocalEstimator -->
<g id="node29" class="node">
<title>TrueDigitalSurfaceLocalEstimator</title>
<g id="a_node29"><a xlink:href="classDGtal_1_1TrueDigitalSurfaceLocalEstimator.html" target="_top" xlink:title="TrueDigitalSurfaceLocalEstimator">
<ellipse fill="white" stroke="white" cx="710" cy="-153" rx="139.38" ry="18"/>
<text text-anchor="middle" x="710" y="-147.95" font-family="Times,serif" font-size="14.00">TrueDigitalSurfaceLocalEstimator</text>
</a>
</g>
</g>
<!-- TrueDigitalSurfaceLocalEstimator&#45;&gt;CDigitalSurfaceLocalEstimator -->
<g id="edge39" class="edge">
<title>TrueDigitalSurfaceLocalEstimator&#45;&gt;CDigitalSurfaceLocalEstimator</title>
<path fill="none" stroke="black" d="M738.05,-170.96C792.38,-203.81 912,-276.14 973.25,-313.17"/>
<polygon fill="black" stroke="black" points="971.25,-316.06 981.62,-318.23 974.87,-310.07 971.25,-316.06"/>
</g>
<!-- VCMDigitalSurfaceLocalEstimator -->
<g id="node30" class="node">
<title>VCMDigitalSurfaceLocalEstimator</title>
<g id="a_node30"><a xlink:href="classDGtal_1_1VCMDigitalSurfaceLocalEstimator.html" target="_top" xlink:title="VCMDigitalSurfaceLocalEstimator">
<ellipse fill="white" stroke="white" cx="1011" cy="-153" rx="143.48" ry="18"/>
<text text-anchor="middle" x="1011" y="-147.95" font-family="Times,serif" font-size="14.00">VCMDigitalSurfaceLocalEstimator</text>
</a>
</g>
</g>
<!-- VCMDigitalSurfaceLocalEstimator&#45;&gt;CDigitalSurfaceLocalEstimator -->
<g id="edge40" class="edge">
<title>VCMDigitalSurfaceLocalEstimator&#45;&gt;CDigitalSurfaceLocalEstimator</title>
<path fill="none" stroke="black" d="M1011,-171.45C1011,-202.84 1011,-269.11 1011,-307.28"/>
<polygon fill="black" stroke="black" points="1007.5,-307.09 1011,-317.09 1014.5,-307.09 1007.5,-307.09"/>
</g>
<!-- ExactPredicateLpSeparableMetric -->
<g id="node31" class="node">
<title>ExactPredicateLpSeparableMetric</title>
<g id="a_node31"><a xlink:href="classDGtal_1_1ExactPredicateLpSeparableMetric.html" target="_top" xlink:title="ExactPredicateLpSeparableMetric">
<ellipse fill="white" stroke="white" cx="1562" cy="-337" rx="137.85" ry="18"/>
<text text-anchor="middle" x="1562" y="-331.95" font-family="Times,serif" font-size="14.00">ExactPredicateLpSeparableMetric</text>
</a>
</g>
</g>
<!-- ExactPredicateLpSeparableMetric&#45;&gt;CSeparableMetric -->
<g id="edge27" class="edge">
<title>ExactPredicateLpSeparableMetric&#45;&gt;CSeparableMetric</title>
<path fill="none" stroke="black" d="M1561.86,-355.27C1562.56,-379.28 1567.18,-422.88 1590,-450.5 1602.79,-465.98 1612.07,-462.8 1631,-469.5 1653.78,-477.57 1679.28,-484.55 1702.16,-490.11"/>
<polygon fill="black" stroke="black" points="1701.14,-493.47 1711.68,-492.37 1702.76,-486.66 1701.14,-493.47"/>
</g>
<!-- ExactPredicateLpPowerSeparableMetric -->
<g id="node32" class="node">
<title>ExactPredicateLpPowerSeparableMetric</title>
<g id="a_node32"><a xlink:href="classDGtal_1_1ExactPredicateLpPowerSeparableMetric.html" target="_top" xlink:title="ExactPredicateLpPowerSeparableMetric">
<ellipse fill="white" stroke="white" cx="2185" cy="-337" rx="161.39" ry="18"/>
<text text-anchor="middle" x="2185" y="-331.95" font-family="Times,serif" font-size="14.00">ExactPredicateLpPowerSeparableMetric</text>
</a>
</g>
</g>
<!-- ExactPredicateLpPowerSeparableMetric&#45;&gt;CPowerSeparableMetric -->
<g id="edge26" class="edge">
<title>ExactPredicateLpPowerSeparableMetric&#45;&gt;CPowerSeparableMetric</title>
<path fill="none" stroke="black" d="M2093.35,-352.24C2068,-355.97 2040.46,-359.83 2015,-363 1932.54,-373.27 1909.29,-360.59 1829,-382 1804.69,-388.48 1778.95,-399.66 1758.39,-409.76"/>
<polygon fill="black" stroke="black" points="1756.85,-406.61 1749.49,-414.23 1760,-412.87 1756.85,-406.61"/>
</g>
<!-- InexactPredicateLpSeparableMetric -->
<g id="node33" class="node">
<title>InexactPredicateLpSeparableMetric</title>
<g id="a_node33"><a xlink:href="classDGtal_1_1InexactPredicateLpSeparableMetric.html" target="_top" xlink:title="InexactPredicateLpSeparableMetric">
<ellipse fill="white" stroke="white" cx="1862" cy="-337" rx="143.99" ry="18"/>
<text text-anchor="middle" x="1862" y="-331.95" font-family="Times,serif" font-size="14.00">InexactPredicateLpSeparableMetric</text>
</a>
</g>
</g>
<!-- InexactPredicateLpSeparableMetric&#45;&gt;CSeparableMetric -->
<g id="edge28" class="edge">
<title>InexactPredicateLpSeparableMetric&#45;&gt;CSeparableMetric</title>
<path fill="none" stroke="black" d="M1777.71,-351.96C1704.32,-364.2 1609.41,-380.32 1608,-382 1588.4,-405.29 1590.63,-425.5 1608,-450.5 1619.22,-466.66 1662.35,-480.57 1701.28,-490.23"/>
<polygon fill="black" stroke="black" points="1700.37,-493.61 1710.91,-492.55 1702.01,-486.81 1700.37,-493.61"/>
</g>
</g>
</svg>

<g id="navigator" transform="translate(0 0)" fill="#404254">
  <rect fill="#f2f5e9" fill-opacity="0.5" stroke="#606060" stroke-width=".5" x="0" y="0" width="60" height="60"/>
  <use id="zoomplus" xlink:href="#zoomPlus" x="17" y="9" onmousedown="handleZoom(evt,'in')"/>
  <use id="zoomminus" xlink:href="#zoomMin" x="42" y="9" onmousedown="handleZoom(evt,'out')"/>
  <use id="reset" xlink:href="#resetDef" x="30" y="36" onmousedown="handleReset()"/>
   <use id="arrowup" xlink:href="#arrowUp" x="0" y="0" onmousedown="handlePan(0,-1)"/>
  <use id="arrowright" xlink:href="#arrowRight" x="0" y="0" onmousedown="handlePan(1,0)"/>
  <use id="arrowdown" xlink:href="#arrowDown" x="0" y="0" onmousedown="handlePan(0,1)"/>
  <use id="arrowleft" xlink:href="#arrowLeft" x="0" y="0" onmousedown="handlePan(-1,0)"/>
</g>
<svg viewBox="0 0 15 15" width="100%" height="30px" preserveAspectRatio="xMaxYMin meet">
 <g id="arrow_out" transform="scale(0.3 0.3)">
  <a xlink:href="dot_inline_dotgraph_8_org.svg" target="_base">
   <rect id="button" ry="5" rx="5" y="6" x="6" height="38" width="38"
        fill="#f2f5e9" fill-opacity="0.5" stroke="#606060" stroke-width="1.0"/>
   <path id="arrow"
     d="M 11.500037,31.436501 C 11.940474,20.09759 22.043105,11.32322 32.158766,21.979434 L 37.068811,17.246167 C 37.068811,17.246167 37.088388,32 37.088388,32 L 22.160133,31.978069 C 22.160133,31.978069 26.997745,27.140456 26.997745,27.140456 C 18.528582,18.264221 13.291696,25.230495 11.500037,31.436501 z"
     style="fill:#404040;"/>
  </a>
 </g>
</svg>

<style type='text/css'>
<![CDATA[
[data-mouse-over-selected='false'] { opacity: 0.7; }
[data-mouse-over-selected='true']  { opacity: 1.0; }
]]>
</style>
<script type="application/ecmascript"><![CDATA[
document.addEventListener('DOMContentLoaded', (event) => {
  highlightEdges();
  highlightAdjacentNodes();
});
]]></script>
</svg>
