<?xml version="1.0" encoding="UTF-8" standalone="no"?>
<!DOCTYPE svg PUBLIC "-//W3C//DTD SVG 1.1//EN"
 "http://www.w3.org/Graphics/SVG/1.1/DTD/svg11.dtd">
<!-- Generated by graphviz version 11.0.0 (20240428.1522)
 -->
<!-- Title: boost::DefaultConstructible&lt; T &gt; Pages: 1 -->
<svg width="1540pt" height="626pt"
 viewBox="0.00 0.00 1540.25 625.88" xmlns="http://www.w3.org/2000/svg" xmlns:xlink="http://www.w3.org/1999/xlink">
<g id="graph0" class="graph" transform="scale(1 1) rotate(0) translate(4 621.88)">
<title>boost::DefaultConstructible&lt; T &gt;</title>
<!-- Node1 -->
<g id="Node000001" class="node">
<title>Node1</title>
<g id="a_Node000001"><a xlink:title="Go to http://www.sgi.com/tech/stl/DefaultConstructible.html.">
<polygon fill="#999999" stroke="#666666" points="159.25,-334.88 0,-334.88 0,-315.62 159.25,-315.62 159.25,-334.88"/>
<text text-anchor="middle" x="79.62" y="-321.38" font-family="FreeSans" font-size="10.00">boost::DefaultConstructible&lt; T &gt;</text>
</a>
</g>
</g>
<!-- Node2 -->
<g id="Node000002" class="node">
<title>Node2</title>
<g id="a_Node000002"><a xlink:href="structDGtal_1_1C2x2DetComputer.html" target="_top" xlink:title="Aim: This concept gathers all models that are able to compute the (sign of the) determinant of a 2x2 ...">
<polygon fill="white" stroke="#666666" points="396.5,-617.88 243.25,-617.88 243.25,-598.62 396.5,-598.62 396.5,-617.88"/>
<text text-anchor="middle" x="319.88" y="-604.38" font-family="FreeSans" font-size="10.00">DGtal::C2x2DetComputer&lt; T &gt;</text>
</a>
</g>
</g>
<!-- Node1&#45;&gt;Node2 -->
<g id="edge1_Node000001_Node000002" class="edge">
<title>Node1&#45;&gt;Node2</title>
<g id="a_edge1_Node000001_Node000002"><a xlink:title=" ">
<path fill="none" stroke="#63b8ff" d="M84.21,-346.31C94.51,-399.32 129.67,-537.73 223,-590.25 229.2,-593.74 235.94,-596.57 242.89,-598.86"/>
<polygon fill="#63b8ff" stroke="#63b8ff" points="87.71,-346 82.46,-336.79 80.82,-347.26 87.71,-346"/>
</a>
</g>
</g>
<!-- Node3 -->
<g id="Node000003" class="node">
<title>Node3</title>
<g id="a_Node000003"><a xlink:href="structDGtal_1_1concepts_1_1CLMSTDSSFilter.html" target="_top" xlink:title="Aim: Defines the concept describing a functor which filters DSSes for L&#45;MST calculations.">
<polygon fill="white" stroke="#666666" points="416.75,-580.88 223,-580.88 223,-561.62 416.75,-561.62 416.75,-580.88"/>
<text text-anchor="middle" x="319.88" y="-567.38" font-family="FreeSans" font-size="10.00">DGtal::concepts::CLMSTDSSFilter&lt; T &gt;</text>
</a>
</g>
</g>
<!-- Node1&#45;&gt;Node3 -->
<g id="edge2_Node000001_Node000003" class="edge">
<title>Node1&#45;&gt;Node3</title>
<g id="a_edge2_Node000001_Node000003"><a xlink:title=" ">
<path fill="none" stroke="#63b8ff" d="M86.67,-346.03C101.33,-392.32 143.6,-503.65 223,-552.25 228.93,-555.88 235.43,-558.84 242.15,-561.24"/>
<polygon fill="#63b8ff" stroke="#63b8ff" points="90.09,-345.26 83.83,-336.72 83.39,-347.3 90.09,-345.26"/>
</a>
</g>
</g>
<!-- Node4 -->
<g id="Node000004" class="node">
<title>Node4</title>
<g id="a_Node000004"><a xlink:href="structDGtal_1_1concepts_1_1CLMSTTangentFromDSS.html" target="_top" xlink:title="Aim: Defines the concept describing a functor which calculates a direction of the 2D DSS and an eccen...">
<polygon fill="white" stroke="#666666" points="400.62,-543.5 239.12,-543.5 239.12,-513 400.62,-513 400.62,-543.5"/>
<text text-anchor="start" x="247.12" y="-530" font-family="FreeSans" font-size="10.00">DGtal::concepts::CLMSTTangent</text>
<text text-anchor="middle" x="319.88" y="-518.75" font-family="FreeSans" font-size="10.00">FromDSS&lt; T &gt;</text>
</a>
</g>
</g>
<!-- Node1&#45;&gt;Node4 -->
<g id="edge3_Node000001_Node000004" class="edge">
<title>Node1&#45;&gt;Node4</title>
<g id="a_edge3_Node000001_Node000004"><a xlink:title=" ">
<path fill="none" stroke="#63b8ff" d="M89.89,-345.05C108.86,-383.14 156.07,-466.22 223,-504.25 228.67,-507.47 234.77,-510.26 241.04,-512.69"/>
<polygon fill="#63b8ff" stroke="#63b8ff" points="93.27,-344 85.76,-336.53 86.97,-347.06 93.27,-344"/>
</a>
</g>
</g>
<!-- Node5 -->
<g id="Node000005" class="node">
<title>Node5</title>
<g id="a_Node000005"><a xlink:href="structDGtal_1_1concepts_1_1CLabel.html" target="_top" xlink:title="Aim: Define the concept of DGtal labels. Models of CLabel can be default&#45;constructible,...">
<polygon fill="white" stroke="#666666" points="393.88,-494.88 245.88,-494.88 245.88,-475.62 393.88,-475.62 393.88,-494.88"/>
<text text-anchor="middle" x="319.88" y="-481.38" font-family="FreeSans" font-size="10.00">DGtal::concepts::CLabel&lt; T &gt;</text>
</a>
</g>
</g>
<!-- Node1&#45;&gt;Node5 -->
<g id="edge4_Node000001_Node000005" class="edge">
<title>Node1&#45;&gt;Node5</title>
<g id="a_edge4_Node000001_Node000005"><a xlink:title=" ">
<path fill="none" stroke="#63b8ff" d="M93.93,-344.32C116.6,-375.24 165.86,-435.91 223,-466.25 230.04,-469.99 237.73,-473 245.59,-475.41"/>
<polygon fill="#63b8ff" stroke="#63b8ff" points="96.84,-342.37 88.17,-336.29 91.15,-346.45 96.84,-342.37"/>
</a>
</g>
</g>
<!-- Node14 -->
<g id="Node000014" class="node">
<title>Node14</title>
<g id="a_Node000014"><a xlink:href="structDGtal_1_1concepts_1_1CPolarPointComparator2D.html" target="_top" xlink:title="Aim: This concept gathers classes that are able to compare the position of two given points &#160;around a...">
<polygon fill="white" stroke="#666666" points="392.75,-457.5 247,-457.5 247,-427 392.75,-427 392.75,-457.5"/>
<text text-anchor="start" x="255" y="-444" font-family="FreeSans" font-size="10.00">DGtal::concepts::CPolarPoint</text>
<text text-anchor="middle" x="319.88" y="-432.75" font-family="FreeSans" font-size="10.00">Comparator2D&lt; T &gt;</text>
</a>
</g>
</g>
<!-- Node1&#45;&gt;Node14 -->
<g id="edge14_Node000001_Node000014" class="edge">
<title>Node1&#45;&gt;Node14</title>
<g id="a_edge14_Node000001_Node000014"><a xlink:title=" ">
<path fill="none" stroke="#63b8ff" d="M102.05,-342.24C128.88,-362.75 176.93,-396.99 223,-417.25 230.95,-420.75 239.5,-423.84 248.09,-426.55"/>
<polygon fill="#63b8ff" stroke="#63b8ff" points="104.42,-339.64 94.37,-336.29 100.13,-345.18 104.42,-339.64"/>
</a>
</g>
</g>
<!-- Node15 -->
<g id="Node000015" class="node">
<title>Node15</title>
<g id="a_Node000015"><a xlink:href="structDGtal_1_1concepts_1_1CPositiveIrreducibleFraction.html" target="_top" xlink:title="Aim: Defines positive irreducible fractions, i.e. fraction p/q, p and q non&#45;negative integers,...">
<polygon fill="white" stroke="#666666" points="387.88,-408.5 251.88,-408.5 251.88,-378 387.88,-378 387.88,-408.5"/>
<text text-anchor="start" x="259.88" y="-395" font-family="FreeSans" font-size="10.00">DGtal::concepts::CPositive</text>
<text text-anchor="middle" x="319.88" y="-383.75" font-family="FreeSans" font-size="10.00">IrreducibleFraction&lt; T &gt;</text>
</a>
</g>
</g>
<!-- Node1&#45;&gt;Node15 -->
<g id="edge15_Node000001_Node000015" class="edge">
<title>Node1&#45;&gt;Node15</title>
<g id="a_edge15_Node000001_Node000015"><a xlink:title=" ">
<path fill="none" stroke="#63b8ff" d="M123.45,-338.65C151.65,-347.36 189.43,-358.81 223,-368.25 234.01,-371.35 245.77,-374.52 257.15,-377.53"/>
<polygon fill="#63b8ff" stroke="#63b8ff" points="124.79,-335.4 114.2,-335.78 122.72,-342.09 124.79,-335.4"/>
</a>
</g>
</g>
<!-- Node16 -->
<g id="Node000016" class="node">
<title>Node16</title>
<g id="a_Node000016"><a xlink:href="structDGtal_1_1concepts_1_1CPreCellularGridSpaceND.html" target="_top" xlink:title="Aim: This concept describes an unbounded cellular grid space in nD. In these spaces obtained by carte...">
<polygon fill="white" stroke="#666666" points="394.25,-359.5 245.5,-359.5 245.5,-329 394.25,-329 394.25,-359.5"/>
<text text-anchor="start" x="253.5" y="-346" font-family="FreeSans" font-size="10.00">DGtal::concepts::CPreCellular</text>
<text text-anchor="middle" x="319.88" y="-334.75" font-family="FreeSans" font-size="10.00">GridSpaceND&lt; T &gt;</text>
</a>
</g>
</g>
<!-- Node1&#45;&gt;Node16 -->
<g id="edge16_Node000001_Node000016" class="edge">
<title>Node1&#45;&gt;Node16</title>
<g id="a_edge16_Node000001_Node000016"><a xlink:title=" ">
<path fill="none" stroke="#63b8ff" d="M170.79,-332.44C195.4,-334.4 221.76,-336.51 245.32,-338.38"/>
<polygon fill="#63b8ff" stroke="#63b8ff" points="171.38,-328.98 161.14,-331.67 170.83,-335.95 171.38,-328.98"/>
</a>
</g>
</g>
<!-- Node18 -->
<g id="Node000018" class="node">
<title>Node18</title>
<g id="a_Node000018"><a xlink:href="structDGtal_1_1concepts_1_1CPrimitiveComputer.html" target="_top" xlink:title="Aim: Defines the concept describing an object that computes some primitive from input points,...">
<polygon fill="white" stroke="#666666" points="389.38,-310.5 250.38,-310.5 250.38,-280 389.38,-280 389.38,-310.5"/>
<text text-anchor="start" x="258.38" y="-297" font-family="FreeSans" font-size="10.00">DGtal::concepts::CPrimitive</text>
<text text-anchor="middle" x="319.88" y="-285.75" font-family="FreeSans" font-size="10.00">Computer&lt; T &gt;</text>
</a>
</g>
</g>
<!-- Node1&#45;&gt;Node18 -->
<g id="edge18_Node000001_Node000018" class="edge">
<title>Node1&#45;&gt;Node18</title>
<g id="a_edge18_Node000001_Node000018"><a xlink:title=" ">
<path fill="none" stroke="#63b8ff" d="M170.75,-313.9C197.04,-310.59 225.33,-307.03 250.08,-303.91"/>
<polygon fill="#63b8ff" stroke="#63b8ff" points="170.61,-310.39 161.13,-315.11 171.49,-317.34 170.61,-310.39"/>
</a>
</g>
</g>
<!-- Node21 -->
<g id="Node000021" class="node">
<title>Node21</title>
<g id="a_Node000021"><a xlink:href="structDGtal_1_1concepts_1_1CSTLAssociativeContainer.html" target="_top" xlink:title="Aim: Defines the concept describing an Associative Container of the STL (https://www....">
<polygon fill="white" stroke="#666666" points="404.75,-261.5 235,-261.5 235,-231 404.75,-231 404.75,-261.5"/>
<text text-anchor="start" x="243" y="-248" font-family="FreeSans" font-size="10.00">DGtal::concepts::CSTLAssociative</text>
<text text-anchor="middle" x="319.88" y="-236.75" font-family="FreeSans" font-size="10.00">Container&lt; T &gt;</text>
</a>
</g>
</g>
<!-- Node1&#45;&gt;Node21 -->
<g id="edge21_Node000001_Node000021" class="edge">
<title>Node1&#45;&gt;Node21</title>
<g id="a_edge21_Node000001_Node000021"><a xlink:title=" ">
<path fill="none" stroke="#63b8ff" d="M115.44,-310.85C144.04,-299.3 185.76,-283.13 223,-271.25 233.16,-268.01 244.02,-264.87 254.65,-261.98"/>
<polygon fill="#63b8ff" stroke="#63b8ff" points="114.13,-307.6 106.18,-314.61 116.77,-314.08 114.13,-307.6"/>
</a>
</g>
</g>
<!-- Node22 -->
<g id="Node000022" class="node">
<title>Node22</title>
<g id="a_Node000022"><a xlink:href="structDGtal_1_1concepts_1_1CSegment.html" target="_top" xlink:title="Aim: Defines the concept describing a segment, ie. a valid and not empty range.">
<polygon fill="white" stroke="#666666" points="401.75,-212.88 238,-212.88 238,-193.62 401.75,-193.62 401.75,-212.88"/>
<text text-anchor="middle" x="319.88" y="-199.38" font-family="FreeSans" font-size="10.00">DGtal::concepts::CSegment&lt; T &gt;</text>
</a>
</g>
</g>
<!-- Node1&#45;&gt;Node22 -->
<g id="edge22_Node000001_Node000022" class="edge">
<title>Node1&#45;&gt;Node22</title>
<g id="a_edge22_Node000001_Node000022"><a xlink:title=" ">
<path fill="none" stroke="#63b8ff" d="M99.47,-307.43C125.24,-284.09 173.93,-243.63 223,-222.25 231.24,-218.66 240.18,-215.74 249.18,-213.37"/>
<polygon fill="#63b8ff" stroke="#63b8ff" points="97.14,-304.81 92.16,-314.16 101.89,-309.96 97.14,-304.81"/>
</a>
</g>
</g>
<!-- Node29 -->
<g id="Node000029" class="node">
<title>Node29</title>
<g id="a_Node000029"><a xlink:href="structDGtal_1_1concepts_1_1CStaticMatrix.html" target="_top" xlink:title="Aim: Represent any static sized matrix having sparse or dense representation.">
<polygon fill="white" stroke="#666666" points="383,-175.5 256.75,-175.5 256.75,-145 383,-145 383,-175.5"/>
<text text-anchor="start" x="264.75" y="-162" font-family="FreeSans" font-size="10.00">DGtal::concepts::CStatic</text>
<text text-anchor="middle" x="319.88" y="-150.75" font-family="FreeSans" font-size="10.00">Matrix&lt; T &gt;</text>
</a>
</g>
</g>
<!-- Node1&#45;&gt;Node29 -->
<g id="edge30_Node000001_Node000029" class="edge">
<title>Node1&#45;&gt;Node29</title>
<g id="a_edge30_Node000001_Node000029"><a xlink:title=" ">
<path fill="none" stroke="#63b8ff" d="M94.38,-305.96C117.37,-275.22 166.67,-215.43 223,-184.25 233.28,-178.56 244.93,-174.19 256.47,-170.85"/>
<polygon fill="#63b8ff" stroke="#63b8ff" points="91.6,-303.83 88.52,-313.97 97.25,-307.97 91.6,-303.83"/>
</a>
</g>
</g>
<!-- Node30 -->
<g id="Node000030" class="node">
<title>Node30</title>
<g id="a_Node000030"><a xlink:href="structDGtal_1_1concepts_1_1CStaticVector.html" target="_top" xlink:title="Aim: Represent any static sized column vector having sparse or dense representation.">
<polygon fill="white" stroke="#666666" points="383,-126.5 256.75,-126.5 256.75,-96 383,-96 383,-126.5"/>
<text text-anchor="start" x="264.75" y="-113" font-family="FreeSans" font-size="10.00">DGtal::concepts::CStatic</text>
<text text-anchor="middle" x="319.88" y="-101.75" font-family="FreeSans" font-size="10.00">Vector&lt; T &gt;</text>
</a>
</g>
</g>
<!-- Node1&#45;&gt;Node30 -->
<g id="edge31_Node000001_Node000030" class="edge">
<title>Node1&#45;&gt;Node30</title>
<g id="a_edge31_Node000001_Node000030"><a xlink:title=" ">
<path fill="none" stroke="#63b8ff" d="M89.69,-305.1C108.48,-265.81 155.61,-179.07 223,-136.25 233.09,-129.84 244.77,-125.07 256.43,-121.51"/>
<polygon fill="#63b8ff" stroke="#63b8ff" points="86.55,-303.55 85.51,-314.09 92.9,-306.5 86.55,-303.55"/>
</a>
</g>
</g>
<!-- Node31 -->
<g id="Node000031" class="node">
<title>Node31</title>
<g id="a_Node000031"><a xlink:href="structDGtal_1_1concepts_1_1CSurfelLocalEstimator.html" target="_top" xlink:title="Aim: This concept describes an object that can process a range of surfels (that are supposed to belon...">
<polygon fill="white" stroke="#666666" points="383,-77.5 256.75,-77.5 256.75,-47 383,-47 383,-77.5"/>
<text text-anchor="start" x="264.75" y="-64" font-family="FreeSans" font-size="10.00">DGtal::concepts::CSurfel</text>
<text text-anchor="middle" x="319.88" y="-52.75" font-family="FreeSans" font-size="10.00">LocalEstimator&lt; T &gt;</text>
</a>
</g>
</g>
<!-- Node1&#45;&gt;Node31 -->
<g id="edge32_Node000001_Node000031" class="edge">
<title>Node1&#45;&gt;Node31</title>
<g id="a_edge32_Node000001_Node000031"><a xlink:title=" ">
<path fill="none" stroke="#63b8ff" d="M86.42,-304.09C100.69,-256.38 142.39,-140.43 223,-87.25 232.98,-80.67 244.61,-75.82 256.25,-72.24"/>
<polygon fill="#63b8ff" stroke="#63b8ff" points="83.06,-303.12 83.66,-313.7 89.78,-305.05 83.06,-303.12"/>
</a>
</g>
</g>
<!-- Node33 -->
<g id="Node000033" class="node">
<title>Node33</title>
<g id="a_Node000033"><a xlink:href="structboost_1_1DefaultConstructible.html" target="_top" xlink:title=" ">
<polygon fill="white" stroke="#666666" points="399.88,-27.88 239.88,-27.88 239.88,-8.62 399.88,-8.62 399.88,-27.88"/>
<text text-anchor="middle" x="319.88" y="-14.38" font-family="FreeSans" font-size="10.00">boost::DefaultConstructible&lt; S &gt;</text>
</a>
</g>
</g>
<!-- Node1&#45;&gt;Node33 -->
<g id="edge34_Node000001_Node000033" class="edge">
<title>Node1&#45;&gt;Node33</title>
<g id="a_edge34_Node000001_Node000033"><a xlink:title=" ">
<path fill="none" stroke="orange" stroke-dasharray="5,2" d="M86.58,-304.44C99.28,-262.02 131.59,-163.35 177.25,-90 193.47,-63.94 196.45,-53.67 223,-38.25 230.06,-34.15 237.84,-30.89 245.82,-28.29"/>
<polygon fill="orange" stroke="orange" points="83.29,-303.25 83.83,-313.83 90,-305.22 83.29,-303.25"/>
</a>
</g>
<text text-anchor="middle" x="191.12" y="-91" font-family="FreeSans" font-size="10.00" fill="grey"> &lt; S &gt;</text>
</g>
<!-- Node6 -->
<g id="Node000006" class="node">
<title>Node6</title>
<g id="a_Node000006"><a xlink:href="structDGtal_1_1concepts_1_1CQuantity.html" target="_top" xlink:title="Aim: defines the concept of quantity in DGtal.">
<polygon fill="white" stroke="#666666" points="614.25,-494.88 452.75,-494.88 452.75,-475.62 614.25,-475.62 614.25,-494.88"/>
<text text-anchor="middle" x="533.5" y="-481.38" font-family="FreeSans" font-size="10.00">DGtal::concepts::CQuantity&lt; T &gt;</text>
</a>
</g>
</g>
<!-- Node5&#45;&gt;Node6 -->
<g id="edge5_Node000005_Node000006" class="edge">
<title>Node5&#45;&gt;Node6</title>
<g id="a_edge5_Node000005_Node000006"><a xlink:title=" ">
<path fill="none" stroke="#63b8ff" d="M405.43,-485.25C420.9,-485.25 437.01,-485.25 452.34,-485.25"/>
<polygon fill="#63b8ff" stroke="#63b8ff" points="405.81,-481.75 395.81,-485.25 405.81,-488.75 405.81,-481.75"/>
</a>
</g>
</g>
<!-- Node7 -->
<g id="Node000007" class="node">
<title>Node7</title>
<g id="a_Node000007"><a xlink:href="structDGtal_1_1concepts_1_1CBoundedNumber.html" target="_top" xlink:title="Aim: The concept CBoundedNumber specifies what are the bounded numbers. Models of this concept should...">
<polygon fill="white" stroke="#666666" points="795.62,-564.5 656.62,-564.5 656.62,-534 795.62,-534 795.62,-564.5"/>
<text text-anchor="start" x="664.62" y="-551" font-family="FreeSans" font-size="10.00">DGtal::concepts::CBounded</text>
<text text-anchor="middle" x="726.12" y="-539.75" font-family="FreeSans" font-size="10.00">Number&lt; T &gt;</text>
</a>
</g>
</g>
<!-- Node6&#45;&gt;Node7 -->
<g id="edge6_Node000006_Node000007" class="edge">
<title>Node6&#45;&gt;Node7</title>
<g id="a_edge6_Node000006_Node000007"><a xlink:title=" ">
<path fill="none" stroke="#63b8ff" d="M574.9,-498.82C605.22,-508.99 646.77,-522.94 678.49,-533.59"/>
<polygon fill="#63b8ff" stroke="#63b8ff" points="576.31,-495.6 565.72,-495.73 574.09,-502.23 576.31,-495.6"/>
</a>
</g>
</g>
<!-- Node8 -->
<g id="Node000008" class="node">
<title>Node8</title>
<g id="a_Node000008"><a xlink:href="structDGtal_1_1concepts_1_1CIntegralNumber.html" target="_top" xlink:title="Aim: Concept checking for Integral Numbers. Models of this concept should be listed in NumberTraits c...">
<polygon fill="white" stroke="#666666" points="953,-521.5 820,-521.5 820,-491 953,-491 953,-521.5"/>
<text text-anchor="start" x="828" y="-508" font-family="FreeSans" font-size="10.00">DGtal::concepts::CIntegral</text>
<text text-anchor="middle" x="886.5" y="-496.75" font-family="FreeSans" font-size="10.00">Number&lt; T &gt;</text>
</a>
</g>
</g>
<!-- Node6&#45;&gt;Node8 -->
<g id="edge7_Node000006_Node000008" class="edge">
<title>Node6&#45;&gt;Node8</title>
<g id="a_edge7_Node000006_Node000008"><a xlink:title=" ">
<path fill="none" stroke="#63b8ff" d="M625.71,-490.71C686.45,-494.34 764.86,-499.03 819.58,-502.31"/>
<polygon fill="#63b8ff" stroke="#63b8ff" points="626.29,-487.24 616.1,-490.13 625.87,-494.22 626.29,-487.24"/>
</a>
</g>
</g>
<!-- Node10 -->
<g id="Node000010" class="node">
<title>Node10</title>
<g id="a_Node000010"><a xlink:href="structDGtal_1_1concepts_1_1CSignedNumber.html" target="_top" xlink:title="Aim: Concept checking for Signed Numbers. Models of this concept should be listed in NumberTraits cla...">
<polygon fill="white" stroke="#666666" points="791.5,-478.5 660.75,-478.5 660.75,-448 791.5,-448 791.5,-478.5"/>
<text text-anchor="start" x="668.75" y="-465" font-family="FreeSans" font-size="10.00">DGtal::concepts::CSigned</text>
<text text-anchor="middle" x="726.12" y="-453.75" font-family="FreeSans" font-size="10.00">Number&lt; T &gt;</text>
</a>
</g>
</g>
<!-- Node6&#45;&gt;Node10 -->
<g id="edge9_Node000006_Node000010" class="edge">
<title>Node6&#45;&gt;Node10</title>
<g id="a_edge9_Node000006_Node000010"><a xlink:title=" ">
<path fill="none" stroke="#63b8ff" d="M625.69,-474.73C637.4,-473.37 649.19,-472.01 660.35,-470.73"/>
<polygon fill="#63b8ff" stroke="#63b8ff" points="625.55,-471.22 616.02,-475.84 626.35,-478.17 625.55,-471.22"/>
</a>
</g>
</g>
<!-- Node13 -->
<g id="Node000013" class="node">
<title>Node13</title>
<g id="a_Node000013"><a xlink:href="structDGtal_1_1concepts_1_1CUnsignedNumber.html" target="_top" xlink:title="Aim: Concept checking for Unsigned numbers. Models of this concept should be listed in NumberTraits c...">
<polygon fill="white" stroke="#666666" points="797.12,-429.5 655.12,-429.5 655.12,-399 797.12,-399 797.12,-429.5"/>
<text text-anchor="start" x="663.12" y="-416" font-family="FreeSans" font-size="10.00">DGtal::concepts::CUnsigned</text>
<text text-anchor="middle" x="726.12" y="-404.75" font-family="FreeSans" font-size="10.00">Number&lt; T &gt;</text>
</a>
</g>
</g>
<!-- Node6&#45;&gt;Node13 -->
<g id="edge13_Node000006_Node000013" class="edge">
<title>Node6&#45;&gt;Node13</title>
<g id="a_edge13_Node000006_Node000013"><a xlink:title=" ">
<path fill="none" stroke="#63b8ff" d="M569.29,-470.83C592.18,-461.5 622.85,-449.26 650.25,-439.25 658.75,-436.15 667.84,-432.98 676.65,-429.99"/>
<polygon fill="#63b8ff" stroke="#63b8ff" points="568.06,-467.55 560.14,-474.59 570.72,-474.03 568.06,-467.55"/>
</a>
</g>
</g>
<!-- Node9 -->
<g id="Node000009" class="node">
<title>Node9</title>
<g id="a_Node000009"><a xlink:href="structDGtal_1_1concepts_1_1CInteger.html" target="_top" xlink:title="Aim: Concept checking for Integer Numbers. More precisely, this concept is a refinement of both CEucl...">
<polygon fill="white" stroke="#666666" points="1522.12,-504.88 1367.38,-504.88 1367.38,-485.62 1522.12,-485.62 1522.12,-504.88"/>
<text text-anchor="middle" x="1444.75" y="-491.38" font-family="FreeSans" font-size="10.00">DGtal::concepts::CInteger&lt; T &gt;</text>
</a>
</g>
</g>
<!-- Node8&#45;&gt;Node9 -->
<g id="edge8_Node000008_Node000009" class="edge">
<title>Node8&#45;&gt;Node9</title>
<g id="a_edge8_Node000008_Node000009"><a xlink:title=" ">
<path fill="none" stroke="#63b8ff" d="M964.77,-504.72C1071.07,-502.62 1261.24,-498.86 1367.17,-496.76"/>
<polygon fill="#63b8ff" stroke="#63b8ff" points="964.94,-501.22 955.01,-504.92 965.07,-508.22 964.94,-501.22"/>
</a>
</g>
</g>
<!-- Node11 -->
<g id="Node000011" class="node">
<title>Node11</title>
<g id="a_Node000011"><a xlink:href="structDGtal_1_1concepts_1_1CCommutativeRing.html" target="_top" xlink:title="Aim: Defines the mathematical concept equivalent to a unitary commutative ring.">
<polygon fill="white" stroke="#666666" points="1130.25,-478.5 971,-478.5 971,-448 1130.25,-448 1130.25,-478.5"/>
<text text-anchor="start" x="979" y="-465" font-family="FreeSans" font-size="10.00">DGtal::concepts::CCommutative</text>
<text text-anchor="middle" x="1050.62" y="-453.75" font-family="FreeSans" font-size="10.00">Ring&lt; T &gt;</text>
</a>
</g>
</g>
<!-- Node10&#45;&gt;Node11 -->
<g id="edge10_Node000010_Node000011" class="edge">
<title>Node10&#45;&gt;Node11</title>
<g id="a_edge10_Node000010_Node000011"><a xlink:title=" ">
<path fill="none" stroke="#63b8ff" d="M803.48,-463.25C853.85,-463.25 919.69,-463.25 970.6,-463.25"/>
<polygon fill="#63b8ff" stroke="#63b8ff" points="803.51,-459.75 793.51,-463.25 803.51,-466.75 803.51,-459.75"/>
</a>
</g>
</g>
<!-- Node12 -->
<g id="Node000012" class="node">
<title>Node12</title>
<g id="a_Node000012"><a xlink:href="structDGtal_1_1concepts_1_1CEuclideanRing.html" target="_top" xlink:title="Aim: Defines the mathematical concept equivalent to a unitary commutative ring with a division operat...">
<polygon fill="white" stroke="#666666" points="1315,-478.5 1171.5,-478.5 1171.5,-448 1315,-448 1315,-478.5"/>
<text text-anchor="start" x="1179.5" y="-465" font-family="FreeSans" font-size="10.00">DGtal::concepts::CEuclidean</text>
<text text-anchor="middle" x="1243.25" y="-453.75" font-family="FreeSans" font-size="10.00">Ring&lt; T &gt;</text>
</a>
</g>
</g>
<!-- Node11&#45;&gt;Node12 -->
<g id="edge11_Node000011_Node000012" class="edge">
<title>Node11&#45;&gt;Node12</title>
<g id="a_edge11_Node000011_Node000012"><a xlink:title=" ">
<path fill="none" stroke="#63b8ff" d="M1141.94,-463.25C1151.7,-463.25 1161.53,-463.25 1171.02,-463.25"/>
<polygon fill="#63b8ff" stroke="#63b8ff" points="1142.05,-459.75 1132.05,-463.25 1142.05,-466.75 1142.05,-459.75"/>
</a>
</g>
</g>
<!-- Node12&#45;&gt;Node9 -->
<g id="edge12_Node000012_Node000009" class="edge">
<title>Node12&#45;&gt;Node9</title>
<g id="a_edge12_Node000012_Node000009"><a xlink:title=" ">
<path fill="none" stroke="#63b8ff" d="M1326.6,-476.46C1344.73,-479.37 1363.66,-482.4 1380.88,-485.17"/>
<polygon fill="#63b8ff" stroke="#63b8ff" points="1327.35,-473.03 1316.92,-474.91 1326.24,-479.95 1327.35,-473.03"/>
</a>
</g>
</g>
<!-- Node17 -->
<g id="Node000017" class="node">
<title>Node17</title>
<g id="a_Node000017"><a xlink:href="structDGtal_1_1concepts_1_1CCellularGridSpaceND.html" target="_top" xlink:title="Aim: This concept describes a cellular grid space in nD. In these spaces obtained by cartesian produc...">
<polygon fill="white" stroke="#666666" points="600.38,-359.5 466.62,-359.5 466.62,-329 600.38,-329 600.38,-359.5"/>
<text text-anchor="start" x="474.62" y="-346" font-family="FreeSans" font-size="10.00">DGtal::concepts::CCellular</text>
<text text-anchor="middle" x="533.5" y="-334.75" font-family="FreeSans" font-size="10.00">GridSpaceND&lt; T &gt;</text>
</a>
</g>
</g>
<!-- Node16&#45;&gt;Node17 -->
<g id="edge17_Node000016_Node000017" class="edge">
<title>Node16&#45;&gt;Node17</title>
<g id="a_edge17_Node000016_Node000017"><a xlink:title=" ">
<path fill="none" stroke="#63b8ff" d="M405.98,-344.25C426.13,-344.25 447.32,-344.25 466.47,-344.25"/>
<polygon fill="#63b8ff" stroke="#63b8ff" points="406.11,-340.75 396.11,-344.25 406.11,-347.75 406.11,-340.75"/>
</a>
</g>
</g>
<!-- Node19 -->
<g id="Node000019" class="node">
<title>Node19</title>
<g id="a_Node000019"><a xlink:href="structDGtal_1_1concepts_1_1CIncrementalPrimitiveComputer.html" target="_top" xlink:title="Aim: Defines the concept describing an object that computes some primitive from input points given on...">
<polygon fill="white" stroke="#666666" points="609.38,-310.5 457.62,-310.5 457.62,-280 609.38,-280 609.38,-310.5"/>
<text text-anchor="start" x="465.62" y="-297" font-family="FreeSans" font-size="10.00">DGtal::concepts::CIncremental</text>
<text text-anchor="middle" x="533.5" y="-285.75" font-family="FreeSans" font-size="10.00">PrimitiveComputer&lt; T &gt;</text>
</a>
</g>
</g>
<!-- Node18&#45;&gt;Node19 -->
<g id="edge19_Node000018_Node000019" class="edge">
<title>Node18&#45;&gt;Node19</title>
<g id="a_edge19_Node000018_Node000019"><a xlink:title=" ">
<path fill="none" stroke="#63b8ff" d="M400.91,-295.25C419.37,-295.25 438.94,-295.25 457.19,-295.25"/>
<polygon fill="#63b8ff" stroke="#63b8ff" points="401.1,-291.75 391.1,-295.25 401.1,-298.75 401.1,-291.75"/>
</a>
</g>
</g>
<!-- Node20 -->
<g id="Node000020" class="node">
<title>Node20</title>
<g id="a_Node000020"><a xlink:href="structDGtal_1_1concepts_1_1CAdditivePrimitiveComputer.html" target="_top" xlink:title="Aim: Defines the concept describing an object that computes some primitive from input points given gr...">
<polygon fill="white" stroke="#666666" points="794.12,-310.5 658.12,-310.5 658.12,-280 794.12,-280 794.12,-310.5"/>
<text text-anchor="start" x="666.12" y="-297" font-family="FreeSans" font-size="10.00">DGtal::concepts::CAdditive</text>
<text text-anchor="middle" x="726.12" y="-285.75" font-family="FreeSans" font-size="10.00">PrimitiveComputer&lt; T &gt;</text>
</a>
</g>
</g>
<!-- Node19&#45;&gt;Node20 -->
<g id="edge20_Node000019_Node000020" class="edge">
<title>Node19&#45;&gt;Node20</title>
<g id="a_edge20_Node000019_Node000020"><a xlink:title=" ">
<path fill="none" stroke="#63b8ff" d="M621.07,-295.25C633.37,-295.25 645.88,-295.25 657.75,-295.25"/>
<polygon fill="#63b8ff" stroke="#63b8ff" points="621.35,-291.75 611.35,-295.25 621.35,-298.75 621.35,-291.75"/>
</a>
</g>
</g>
<!-- Node23 -->
<g id="Node000023" class="node">
<title>Node23</title>
<g id="a_Node000023"><a xlink:href="structDGtal_1_1concepts_1_1CSegmentFactory.html" target="_top" xlink:title="Aim: Defines the concept describing a segment ie. a valid and not empty subrange, which can construct...">
<polygon fill="white" stroke="#666666" points="603.38,-218.5 463.62,-218.5 463.62,-188 603.38,-188 603.38,-218.5"/>
<text text-anchor="start" x="471.62" y="-205" font-family="FreeSans" font-size="10.00">DGtal::concepts::CSegment</text>
<text text-anchor="middle" x="533.5" y="-193.75" font-family="FreeSans" font-size="10.00">Factory&lt; T &gt;</text>
</a>
</g>
</g>
<!-- Node22&#45;&gt;Node23 -->
<g id="edge23_Node000022_Node000023" class="edge">
<title>Node22&#45;&gt;Node23</title>
<g id="a_edge23_Node000022_Node000023"><a xlink:title=" ">
<path fill="none" stroke="#63b8ff" d="M413.54,-203.25C430.22,-203.25 447.34,-203.25 463.22,-203.25"/>
<polygon fill="#63b8ff" stroke="#63b8ff" points="413.6,-199.75 403.6,-203.25 413.6,-206.75 413.6,-199.75"/>
</a>
</g>
</g>
<!-- Node24 -->
<g id="Node000024" class="node">
<title>Node24</title>
<g id="a_Node000024"><a xlink:href="structDGtal_1_1concepts_1_1CIncrementalSegmentComputer.html" target="_top" xlink:title="Aim: Defines the concept describing an incremental segment computer, &#160;&#160;ie. a model of CSegmentFactory...">
<polygon fill="white" stroke="#666666" points="802,-218.5 650.25,-218.5 650.25,-188 802,-188 802,-218.5"/>
<text text-anchor="start" x="658.25" y="-205" font-family="FreeSans" font-size="10.00">DGtal::concepts::CIncremental</text>
<text text-anchor="middle" x="726.12" y="-193.75" font-family="FreeSans" font-size="10.00">SegmentComputer&lt; T &gt;</text>
</a>
</g>
</g>
<!-- Node23&#45;&gt;Node24 -->
<g id="edge24_Node000023_Node000024" class="edge">
<title>Node23&#45;&gt;Node24</title>
<g id="a_edge24_Node000023_Node000024"><a xlink:title=" ">
<path fill="none" stroke="#63b8ff" d="M615.27,-203.25C626.79,-203.25 638.61,-203.25 650.03,-203.25"/>
<polygon fill="#63b8ff" stroke="#63b8ff" points="615.37,-199.75 605.37,-203.25 615.37,-206.75 615.37,-199.75"/>
</a>
</g>
</g>
<!-- Node25 -->
<g id="Node000025" class="node">
<title>Node25</title>
<g id="a_Node000025"><a xlink:href="structDGtal_1_1concepts_1_1CForwardSegmentComputer.html" target="_top" xlink:title="Aim: Defines the concept describing a forward segment computer. Like any model of CIncrementalSegment...">
<polygon fill="white" stroke="#666666" points="1118.62,-218.5 982.62,-218.5 982.62,-188 1118.62,-188 1118.62,-218.5"/>
<text text-anchor="start" x="990.62" y="-205" font-family="FreeSans" font-size="10.00">DGtal::concepts::CForward</text>
<text text-anchor="middle" x="1050.62" y="-193.75" font-family="FreeSans" font-size="10.00">SegmentComputer&lt; T &gt;</text>
</a>
</g>
</g>
<!-- Node24&#45;&gt;Node25 -->
<g id="edge25_Node000024_Node000025" class="edge">
<title>Node24&#45;&gt;Node25</title>
<g id="a_edge25_Node000024_Node000025"><a xlink:title=" ">
<path fill="none" stroke="#63b8ff" d="M813.74,-203.25C866.65,-203.25 933.31,-203.25 982.26,-203.25"/>
<polygon fill="#63b8ff" stroke="#63b8ff" points="813.84,-199.75 803.84,-203.25 813.84,-206.75 813.84,-199.75"/>
</a>
</g>
</g>
<!-- Node26 -->
<g id="Node000026" class="node">
<title>Node26</title>
<g id="a_Node000026"><a xlink:href="structDGtal_1_1concepts_1_1CBidirectionalSegmentComputer.html" target="_top" xlink:title="Aim: Defines the concept describing a bidirectional segment computer, &#160;&#160;ie. a model of concepts::CSeg...">
<polygon fill="white" stroke="#666666" points="1320.25,-240.5 1166.25,-240.5 1166.25,-210 1320.25,-210 1320.25,-240.5"/>
<text text-anchor="start" x="1174.25" y="-227" font-family="FreeSans" font-size="10.00">DGtal::concepts::CBidirectional</text>
<text text-anchor="middle" x="1243.25" y="-215.75" font-family="FreeSans" font-size="10.00">SegmentComputer&lt; T &gt;</text>
</a>
</g>
</g>
<!-- Node25&#45;&gt;Node26 -->
<g id="edge26_Node000025_Node000026" class="edge">
<title>Node25&#45;&gt;Node26</title>
<g id="a_edge26_Node000025_Node000026"><a xlink:title=" ">
<path fill="none" stroke="#63b8ff" d="M1130.23,-212.32C1141.97,-213.68 1154.06,-215.07 1165.76,-216.42"/>
<polygon fill="#63b8ff" stroke="#63b8ff" points="1130.94,-208.88 1120.6,-211.21 1130.14,-215.83 1130.94,-208.88"/>
</a>
</g>
</g>
<!-- Node28 -->
<g id="Node000028" class="node">
<title>Node28</title>
<g id="a_Node000028"><a xlink:href="structDGtal_1_1concepts_1_1CDynamicSegmentComputer.html" target="_top" xlink:title="Aim: Defines the concept describing a dynamic segment computer, &#160;&#160;ie. a model of CSegment that can ex...">
<polygon fill="white" stroke="#666666" points="1313.12,-191.5 1173.38,-191.5 1173.38,-161 1313.12,-161 1313.12,-191.5"/>
<text text-anchor="start" x="1181.38" y="-178" font-family="FreeSans" font-size="10.00">DGtal::concepts::CDynamic</text>
<text text-anchor="middle" x="1243.25" y="-166.75" font-family="FreeSans" font-size="10.00">SegmentComputer&lt; T &gt;</text>
</a>
</g>
</g>
<!-- Node25&#45;&gt;Node28 -->
<g id="edge28_Node000025_Node000028" class="edge">
<title>Node25&#45;&gt;Node28</title>
<g id="a_edge28_Node000025_Node000028"><a xlink:title=" ">
<path fill="none" stroke="#63b8ff" d="M1130.31,-192.11C1144.44,-190.1 1159.08,-188.03 1172.93,-186.07"/>
<polygon fill="#63b8ff" stroke="#63b8ff" points="1130.01,-188.61 1120.6,-193.48 1130.99,-195.54 1130.01,-188.61"/>
</a>
</g>
</g>
<!-- Node27 -->
<g id="Node000027" class="node">
<title>Node27</title>
<g id="a_Node000027"><a xlink:href="structDGtal_1_1concepts_1_1CDynamicBidirectionalSegmentComputer.html" target="_top" xlink:title="Aim: Defines the concept describing a dynamic and bidirectional segment computer, ie....">
<polygon fill="white" stroke="#666666" points="1532.25,-213.5 1357.25,-213.5 1357.25,-183 1532.25,-183 1532.25,-213.5"/>
<text text-anchor="start" x="1365.25" y="-200" font-family="FreeSans" font-size="10.00">DGtal::concepts::CDynamic</text>
<text text-anchor="middle" x="1444.75" y="-188.75" font-family="FreeSans" font-size="10.00">BidirectionalSegmentComputer&lt; T &gt;</text>
</a>
</g>
</g>
<!-- Node26&#45;&gt;Node27 -->
<g id="edge27_Node000026_Node000027" class="edge">
<title>Node26&#45;&gt;Node27</title>
<g id="a_edge27_Node000026_Node000027"><a xlink:title=" ">
<path fill="none" stroke="#63b8ff" d="M1331.78,-213.4C1340.1,-212.28 1348.54,-211.14 1356.85,-210.01"/>
<polygon fill="#63b8ff" stroke="#63b8ff" points="1331.47,-209.91 1322.03,-214.72 1332.41,-216.85 1331.47,-209.91"/>
</a>
</g>
</g>
<!-- Node28&#45;&gt;Node27 -->
<g id="edge29_Node000028_Node000027" class="edge">
<title>Node28&#45;&gt;Node27</title>
<g id="a_edge29_Node000028_Node000027"><a xlink:title=" ">
<path fill="none" stroke="#63b8ff" d="M1324.84,-185.14C1335.46,-186.31 1346.37,-187.51 1357.08,-188.69"/>
<polygon fill="#63b8ff" stroke="#63b8ff" points="1325.29,-181.67 1314.97,-184.05 1324.53,-188.62 1325.29,-181.67"/>
</a>
</g>
</g>
<!-- Node32 -->
<g id="Node000032" class="node">
<title>Node32</title>
<g id="a_Node000032"><a xlink:href="structDGtal_1_1concepts_1_1CDigitalSurfaceLocalEstimator.html" target="_top" xlink:title="Aim: This concept describes an object that can process a range over some generic digital surface so a...">
<polygon fill="white" stroke="#666666" points="603,-79.5 464,-79.5 464,-49 603,-49 603,-79.5"/>
<text text-anchor="start" x="472" y="-66" font-family="FreeSans" font-size="10.00">DGtal::concepts::CDigital</text>
<text text-anchor="middle" x="533.5" y="-54.75" font-family="FreeSans" font-size="10.00">SurfaceLocalEstimator&lt; T &gt;</text>
</a>
</g>
</g>
<!-- Node31&#45;&gt;Node32 -->
<g id="edge33_Node000031_Node000032" class="edge">
<title>Node31&#45;&gt;Node32</title>
<g id="a_edge33_Node000031_Node000032"><a xlink:title=" ">
<path fill="none" stroke="#63b8ff" d="M394.7,-62.95C417.07,-63.16 441.53,-63.39 463.56,-63.6"/>
<polygon fill="#63b8ff" stroke="#63b8ff" points="394.77,-59.45 384.74,-62.85 394.7,-66.45 394.77,-59.45"/>
</a>
</g>
</g>
<!-- Node34 -->
<g id="Node000034" class="node">
<title>Node34</title>
<g id="a_Node000034"><a xlink:href="structDGtal_1_1concepts_1_1CLinearAlgebraSolver.html" target="_top" xlink:title="Aim: Describe a linear solver defined over a linear algebra. Problems are of the form:">
<polygon fill="white" stroke="#666666" points="597,-30.5 470,-30.5 470,0 597,0 597,-30.5"/>
<text text-anchor="start" x="478" y="-17" font-family="FreeSans" font-size="10.00">DGtal::concepts::CLinear</text>
<text text-anchor="middle" x="533.5" y="-5.75" font-family="FreeSans" font-size="10.00">AlgebraSolver&lt; S, V, M &gt;</text>
</a>
</g>
</g>
<!-- Node33&#45;&gt;Node34 -->
<g id="edge35_Node000033_Node000034" class="edge">
<title>Node33&#45;&gt;Node34</title>
<g id="a_edge35_Node000033_Node000034"><a xlink:title=" ">
<path fill="none" stroke="#63b8ff" d="M411.66,-16.96C431.15,-16.69 451.34,-16.4 469.51,-16.14"/>
<polygon fill="#63b8ff" stroke="#63b8ff" points="411.74,-13.46 401.79,-17.1 411.84,-20.46 411.74,-13.46"/>
</a>
</g>
</g>
</g>
</svg>
