<?xml version="1.0" encoding="UTF-8" standalone="no"?>
<!DOCTYPE svg PUBLIC "-//W3C//DTD SVG 1.1//EN"
 "http://www.w3.org/Graphics/SVG/1.1/DTD/svg11.dtd">
<!-- Generated by graphviz version 11.0.0 (20240428.1522)
 -->
<!-- Title: DGtal::Board3DTo2DFactory&lt; TSpace, TKSpace &gt; Pages: 1 -->
<svg width="180pt" height="183pt"
 viewBox="0.00 0.00 180.25 182.75" xmlns="http://www.w3.org/2000/svg" xmlns:xlink="http://www.w3.org/1999/xlink">
<g id="graph0" class="graph" transform="scale(1 1) rotate(0) translate(4 178.75)">
<title>DGtal::Board3DTo2DFactory&lt; TSpace, TKSpace &gt;</title>
<!-- Node1 -->
<g id="Node000001" class="node">
<title>Node1</title>
<g id="a_Node000001"><a xlink:title="Factory for GPL Display3D:">
<polygon fill="#999999" stroke="#666666" points="142,-30.5 0,-30.5 0,0 142,0 142,-30.5"/>
<text text-anchor="start" x="8" y="-17" font-family="FreeSans" font-size="10.00">DGtal::Board3DTo2DFactory</text>
<text text-anchor="middle" x="71" y="-5.75" font-family="FreeSans" font-size="10.00">&lt; TSpace, TKSpace &gt;</text>
</a>
</g>
</g>
<!-- Node2 -->
<g id="Node000002" class="node">
<title>Node2</title>
<g id="a_Node000002"><a xlink:href="structDGtal_1_1Display3DFactory.html" target="_top" xlink:title=" ">
<polygon fill="white" stroke="#666666" points="134.12,-97 7.88,-97 7.88,-66.5 134.12,-66.5 134.12,-97"/>
<text text-anchor="start" x="15.88" y="-83.5" font-family="FreeSans" font-size="10.00">DGtal::Display3DFactory</text>
<text text-anchor="middle" x="71" y="-72.25" font-family="FreeSans" font-size="10.00">&lt; TSpace, TKSpace &gt;</text>
</a>
</g>
</g>
<!-- Node2&#45;&gt;Node1 -->
<g id="edge1_Node000001_Node000002" class="edge">
<title>Node2&#45;&gt;Node1</title>
<g id="a_edge1_Node000001_Node000002"><a xlink:title=" ">
<path fill="none" stroke="#63b8ff" d="M71,-54.81C71,-46.64 71,-37.91 71,-30.83"/>
<polygon fill="#63b8ff" stroke="#63b8ff" points="67.5,-54.6 71,-64.6 74.5,-54.6 67.5,-54.6"/>
</a>
</g>
</g>
<!-- Node3 -->
<g id="Node000003" class="node">
<title>Node3</title>
<g id="a_Node000003"><a xlink:href="structDGtal_1_1Display3DFactory.html" target="_top" xlink:title="Factory for GPL Display3D:">
<polygon fill="white" stroke="#666666" points="134.12,-174.75 7.88,-174.75 7.88,-144.25 134.12,-144.25 134.12,-174.75"/>
<text text-anchor="start" x="15.88" y="-161.25" font-family="FreeSans" font-size="10.00">DGtal::Display3DFactory</text>
<text text-anchor="middle" x="71" y="-150" font-family="FreeSans" font-size="10.00">&lt; TSpace, TKSpace &gt;</text>
</a>
</g>
</g>
<!-- Node3&#45;&gt;Node2 -->
<g id="edge2_Node000002_Node000003" class="edge">
<title>Node3&#45;&gt;Node2</title>
<g id="a_edge2_Node000002_Node000003"><a xlink:title=" ">
<path fill="none" stroke="orange" stroke-dasharray="5,2" d="M71,-132.47C71,-120.71 71,-107.26 71,-97.31"/>
<polygon fill="orange" stroke="orange" points="67.5,-132.38 71,-142.38 74.5,-132.38 67.5,-132.38"/>
</a>
</g>
<text text-anchor="middle" x="121.62" y="-116.75" font-family="FreeSans" font-size="10.00" fill="grey"> &lt; TSpace, TKSpace &gt;</text>
</g>
</g>
</svg>
