<?xml version="1.0" encoding="UTF-8" standalone="no"?>
<!DOCTYPE svg PUBLIC "-//W3C//DTD SVG 1.1//EN"
 "http://www.w3.org/Graphics/SVG/1.1/DTD/svg11.dtd">
<!-- Generated by graphviz version 11.0.0 (20240428.1522)
 -->
<!-- Title: DGtal::Translate2DDomain Pages: 1 -->
<svg width="179pt" height="138pt"
 viewBox="0.00 0.00 179.25 137.75" xmlns="http://www.w3.org/2000/svg" xmlns:xlink="http://www.w3.org/1999/xlink">
<g id="graph0" class="graph" transform="scale(1 1) rotate(0) translate(4 133.75)">
<title>DGtal::Translate2DDomain</title>
<!-- Node1 -->
<g id="Node000001" class="node">
<title>Node1</title>
<g id="a_Node000001"><a xlink:title="class to modify the data of an given image and also the possibility to translate it (optional).">
<polygon fill="#999999" stroke="#666666" points="152.88,-19.25 18.38,-19.25 18.38,0 152.88,0 152.88,-19.25"/>
<text text-anchor="middle" x="85.62" y="-5.75" font-family="FreeSans" font-size="10.00">DGtal::Translate2DDomain</text>
</a>
</g>
</g>
<!-- Node2 -->
<g id="Node000002" class="node">
<title>Node2</title>
<g id="a_Node000002"><a xlink:href="structDGtal_1_1DrawWithViewer3DModifier.html" target="_top" xlink:title="Base class specifying the methods for classes which intend to modify a Viewer3D stream.">
<polygon fill="white" stroke="#666666" points="169.75,-74.5 1.5,-74.5 1.5,-55.25 169.75,-55.25 169.75,-74.5"/>
<text text-anchor="middle" x="85.62" y="-61" font-family="FreeSans" font-size="10.00">DGtal::DrawWithViewer3DModifier</text>
</a>
</g>
</g>
<!-- Node2&#45;&gt;Node1 -->
<g id="edge1_Node000001_Node000002" class="edge">
<title>Node2&#45;&gt;Node1</title>
<g id="a_edge1_Node000001_Node000002"><a xlink:title=" ">
<path fill="none" stroke="#63b8ff" d="M85.62,-43.63C85.62,-35.34 85.62,-26.17 85.62,-19.61"/>
<polygon fill="#63b8ff" stroke="#63b8ff" points="82.13,-43.57 85.63,-53.57 89.13,-43.57 82.13,-43.57"/>
</a>
</g>
</g>
<!-- Node3 -->
<g id="Node000003" class="node">
<title>Node3</title>
<g id="a_Node000003"><a xlink:href="structDGtal_1_1DrawWithDisplay3DModifier.html" target="_top" xlink:title="Base class specifying the methods for classes which intend to modify a Viewer3D stream.">
<polygon fill="white" stroke="#666666" points="171.25,-129.75 0,-129.75 0,-110.5 171.25,-110.5 171.25,-129.75"/>
<text text-anchor="middle" x="85.62" y="-116.25" font-family="FreeSans" font-size="10.00">DGtal::DrawWithDisplay3DModifier</text>
</a>
</g>
</g>
<!-- Node3&#45;&gt;Node2 -->
<g id="edge2_Node000002_Node000003" class="edge">
<title>Node3&#45;&gt;Node2</title>
<g id="a_edge2_Node000002_Node000003"><a xlink:title=" ">
<path fill="none" stroke="#63b8ff" d="M85.62,-98.88C85.62,-90.59 85.62,-81.42 85.62,-74.86"/>
<polygon fill="#63b8ff" stroke="#63b8ff" points="82.13,-98.82 85.63,-108.82 89.13,-98.82 82.13,-98.82"/>
</a>
</g>
</g>
</g>
</svg>
