<?xml version="1.0" encoding="UTF-8" standalone="no"?>
<!DOCTYPE svg PUBLIC "-//W3C//DTD SVG 1.1//EN"
 "http://www.w3.org/Graphics/SVG/1.1/DTD/svg11.dtd">
<!-- Generated by graphviz version 11.0.0 (20240428.1522)
 -->
<!-- Title: DGtal::concepts::CConstSinglePassRange&lt; T &gt; Pages: 1 -->
<!--zoomable 408 -->

<svg id="main" version="1.1" xmlns="http://www.w3.org/2000/svg" xmlns:xlink="http://www.w3.org/1999/xlink" xml:space="preserve" onload="init(evt)">
<style type="text/css"><![CDATA[
.node, .edge {opacity: 0.7;}
.node.selected, .edge.selected {opacity: 1;}
.edge:hover path { stroke: red; }
.edge:hover polygon { stroke: red; fill: red; }
]]></style>

<defs>
  <circle id="rim" cx="0" cy="0" r="7"/>
  <circle id="rim2" cx="0" cy="0" r="3.5"/>
  <g id="zoomPlus">
    <use xlink:href="#rim" fill="#404040"><set attributeName="fill" to="#808080" begin="zoomplus.mouseover" end="zoomplus.mouseout"/></use>
    <path d="M-4,0h8M0,-4v8" fill="none" stroke="white" stroke-width="1.5" pointer-events="none"/>
  </g>
  <g id="zoomMin">
    <use xlink:href="#rim" fill="#404040"><set attributeName="fill" to="#808080" begin="zoomminus.mouseover" end="zoomminus.mouseout"/></use>
    <path d="M-4,0h8" fill="none" stroke="white" stroke-width="1.5" pointer-events="none"/>
  </g>
  <g id="arrowUp" transform="translate(30 24)">
    <use xlink:href="#rim"/>
    <path pointer-events="none" fill="none" stroke="white" stroke-width="1.5" d="M0,-3.0v7 M-2.5,-0.5L0,-3.0L2.5,-0.5"/>
  </g>
  <g id="arrowRight" transform="rotate(90) translate(36 -43)">
    <use xlink:href="#rim"/>
    <path pointer-events="none" fill="none" stroke="white" stroke-width="1.5" d="M0,-3.0v7 M-2.5,-0.5L0,-3.0L2.5,-0.5"/>
  </g>
  <g id="arrowDown" transform="rotate(180) translate(-30 -48)">
    <use xlink:href="#rim"/>
    <path pointer-events="none" fill="none" stroke="white" stroke-width="1.5" d="M0,-3.0v7 M-2.5,-0.5L0,-3.0L2.5,-0.5"/>
  </g>
  <g id="arrowLeft" transform="rotate(270) translate(-36 17)">
    <use xlink:href="#rim"/>
    <path pointer-events="none" fill="none" stroke="white" stroke-width="1.5" d="M0,-3.0v7 M-2.5,-0.5L0,-3.0L2.5,-0.5"/>
  </g>
  <g id="resetDef">
    <use xlink:href="#rim2" fill="#404040"><set attributeName="fill" to="#808080" begin="reset.mouseover" end="reset.mouseout"/></use>
  </g>
</defs>
<script type="application/ecmascript">
var viewWidth = 863;
var viewHeight = 408;
var sectionId = 'dynsection-0';
</script>
<script type="application/ecmascript" xlink:href="svg.min.js"/>
<svg id="graph" class="graph">
<g id="viewport">
<title>DGtal::concepts::CConstSinglePassRange&lt; T &gt;</title>
<!-- Node1 -->
<g id="Node000001" class="node">
<title>Node1</title>
<g id="a_Node000001"><a xlink:title="Aim: Defines the concept describing a const single pass range.">
<polygon fill="#999999" stroke="#666666" points="154,-208.5 0,-208.5 0,-178 154,-178 154,-208.5"/>
<text text-anchor="start" x="8" y="-195" font-family="FreeSans" font-size="10.00">DGtal::concepts::CConstSingle</text>
<text text-anchor="middle" x="77" y="-183.75" font-family="FreeSans" font-size="10.00">PassRange&lt; T &gt;</text>
</a>
</g>
</g>
<!-- Node2 -->
<g id="Node000002" class="node">
<title>Node2</title>
<g id="a_Node000002"><a xlink:href="structDGtal_1_1concepts_1_1CConstSinglePassRangeFromPoint.html" target="_top" xlink:title=" ">
<polygon fill="white" stroke="#666666" points="635.12,-293.5 470.62,-293.5 470.62,-263 635.12,-263 635.12,-293.5"/>
<text text-anchor="start" x="478.62" y="-280" font-family="FreeSans" font-size="10.00">DGtal::concepts::CConstSingle</text>
<text text-anchor="middle" x="552.88" y="-268.75" font-family="FreeSans" font-size="10.00">PassRangeFromPoint&lt; T, Value &gt;</text>
</a>
</g>
</g>
<!-- Node1&#45;&gt;Node2 -->
<g id="edge1_Node000001_Node000002" class="edge">
<title>Node1&#45;&gt;Node2</title>
<g id="a_edge1_Node000001_Node000002"><a xlink:title=" ">
<path fill="none" stroke="#63b8ff" d="M99.26,-217.27C120.14,-238.92 154.15,-269.27 191,-282.25 284.52,-315.19 400.32,-305.87 475.12,-293.96"/>
<polygon fill="#63b8ff" stroke="#63b8ff" points="101.83,-214.9 92.44,-209.99 96.72,-219.68 101.83,-214.9"/>
</a>
</g>
</g>
<!-- Node4 -->
<g id="Node000004" class="node">
<title>Node4</title>
<g id="a_Node000004"><a xlink:href="structDGtal_1_1concepts_1_1CConstBidirectionalRange.html" target="_top" xlink:title="Aim: Defines the concept describing a bidirectional const range.">
<polygon fill="white" stroke="#666666" points="371.25,-357.5 191,-357.5 191,-327 371.25,-327 371.25,-357.5"/>
<text text-anchor="start" x="199" y="-344" font-family="FreeSans" font-size="10.00">DGtal::concepts::CConstBidirectional</text>
<text text-anchor="middle" x="281.12" y="-332.75" font-family="FreeSans" font-size="10.00">Range&lt; T &gt;</text>
</a>
</g>
</g>
<!-- Node1&#45;&gt;Node4 -->
<g id="edge3_Node000001_Node000004" class="edge">
<title>Node1&#45;&gt;Node4</title>
<g id="a_edge3_Node000001_Node000004"><a xlink:title=" ">
<path fill="none" stroke="#63b8ff" d="M89.78,-218.93C104.63,-248.27 133.02,-295.42 172,-320.25 177.82,-323.96 184.14,-327.05 190.7,-329.64"/>
<polygon fill="#63b8ff" stroke="#63b8ff" points="92.95,-217.45 85.42,-210 86.66,-220.52 92.95,-217.45"/>
</a>
</g>
</g>
<!-- Node8 -->
<g id="Node000008" class="node">
<title>Node8</title>
<g id="a_Node000008"><a xlink:href="structDGtal_1_1concepts_1_1CConstSinglePassRangeFromPoint.html" target="_top" xlink:title="Aim: refined concept of const single pass range with a begin() method from a point.">
<polygon fill="white" stroke="#666666" points="358.12,-273.5 204.12,-273.5 204.12,-243 358.12,-243 358.12,-273.5"/>
<text text-anchor="start" x="212.12" y="-260" font-family="FreeSans" font-size="10.00">DGtal::concepts::CConstSingle</text>
<text text-anchor="middle" x="281.12" y="-248.75" font-family="FreeSans" font-size="10.00">PassRangeFromPoint&lt; T &gt;</text>
</a>
</g>
</g>
<!-- Node1&#45;&gt;Node8 -->
<g id="edge8_Node000001_Node000008" class="edge">
<title>Node1&#45;&gt;Node8</title>
<g id="a_edge8_Node000001_Node000008"><a xlink:title=" ">
<path fill="none" stroke="#63b8ff" d="M129.42,-212.95C148.62,-220.03 170.69,-227.84 191,-234.25 200.02,-237.09 209.61,-239.9 219.04,-242.54"/>
<polygon fill="#63b8ff" stroke="#63b8ff" points="130.79,-209.73 120.19,-209.52 128.35,-216.29 130.79,-209.73"/>
</a>
</g>
</g>
<!-- Node10 -->
<g id="Node000010" class="node">
<title>Node10</title>
<g id="a_Node000010"><a xlink:href="structDGtal_1_1concepts_1_1CDomain.html" target="_top" xlink:title="Aim: This concept represents a digital domain, i.e. a non mutable subset of points of the given digit...">
<polygon fill="white" stroke="#666666" points="360.38,-224.88 201.88,-224.88 201.88,-205.62 360.38,-205.62 360.38,-224.88"/>
<text text-anchor="middle" x="281.12" y="-211.38" font-family="FreeSans" font-size="10.00">DGtal::concepts::CDomain&lt; T &gt;</text>
</a>
</g>
</g>
<!-- Node1&#45;&gt;Node10 -->
<g id="edge11_Node000001_Node000010" class="edge">
<title>Node1&#45;&gt;Node10</title>
<g id="a_edge11_Node000001_Node000010"><a xlink:title=" ">
<path fill="none" stroke="#63b8ff" d="M165.75,-202.8C177.67,-204.1 189.84,-205.42 201.58,-206.7"/>
<polygon fill="#63b8ff" stroke="#63b8ff" points="166.24,-199.33 155.92,-201.73 165.48,-206.29 166.24,-199.33"/>
</a>
</g>
</g>
<!-- Node11 -->
<g id="Node000011" class="node">
<title>Node11</title>
<g id="a_Node000011"><a xlink:href="structDGtal_1_1concepts_1_1CPositiveIrreducibleFraction.html" target="_top" xlink:title="Aim: Defines positive irreducible fractions, i.e. fraction p/q, p and q non&#45;negative integers,...">
<polygon fill="white" stroke="#666666" points="349.12,-187.5 213.12,-187.5 213.12,-157 349.12,-157 349.12,-187.5"/>
<text text-anchor="start" x="221.12" y="-174" font-family="FreeSans" font-size="10.00">DGtal::concepts::CPositive</text>
<text text-anchor="middle" x="281.12" y="-162.75" font-family="FreeSans" font-size="10.00">IrreducibleFraction&lt; T &gt;</text>
</a>
</g>
</g>
<!-- Node1&#45;&gt;Node11 -->
<g id="edge12_Node000001_Node000011" class="edge">
<title>Node1&#45;&gt;Node11</title>
<g id="a_edge12_Node000001_Node000011"><a xlink:title=" ">
<path fill="none" stroke="#63b8ff" d="M165.8,-184.13C181.58,-182.49 197.8,-180.8 212.88,-179.24"/>
<polygon fill="#63b8ff" stroke="#63b8ff" points="165.5,-180.64 155.92,-185.15 166.23,-187.6 165.5,-180.64"/>
</a>
</g>
</g>
<!-- Node12 -->
<g id="Node000012" class="node">
<title>Node12</title>
<g id="a_Node000012"><a xlink:href="structDGtal_1_1concepts_1_1CSinglePassRange.html" target="_top" xlink:title="Aim: Defines the concept describing a range.">
<polygon fill="white" stroke="#666666" points="345,-138.5 217.25,-138.5 217.25,-108 345,-108 345,-138.5"/>
<text text-anchor="start" x="225.25" y="-125" font-family="FreeSans" font-size="10.00">DGtal::concepts::CSingle</text>
<text text-anchor="middle" x="281.12" y="-113.75" font-family="FreeSans" font-size="10.00">PassRange&lt; T &gt;</text>
</a>
</g>
</g>
<!-- Node1&#45;&gt;Node12 -->
<g id="edge13_Node000001_Node000012" class="edge">
<title>Node1&#45;&gt;Node12</title>
<g id="a_edge13_Node000001_Node000012"><a xlink:title=" ">
<path fill="none" stroke="#63b8ff" d="M125,-173.25C145.14,-165.01 169.04,-155.68 191,-148.25 200.59,-145.01 210.86,-141.84 220.89,-138.92"/>
<polygon fill="#63b8ff" stroke="#63b8ff" points="123.84,-169.94 115.93,-176.99 126.51,-176.41 123.84,-169.94"/>
</a>
</g>
</g>
<!-- Node13 -->
<g id="Node000013" class="node">
<title>Node13</title>
<g id="a_Node000013"><a xlink:href="structDGtal_1_1concepts_1_1CSinglePassRangeWithWritableIterator.html" target="_top" xlink:title="Aim: refined concept of const single pass range which require that an output iterator exists.">
<polygon fill="white" stroke="#666666" points="357.75,-90.12 204.5,-90.12 204.5,-48.38 357.75,-48.38 357.75,-90.12"/>
<text text-anchor="start" x="212.5" y="-76.62" font-family="FreeSans" font-size="10.00">DGtal::concepts::CSingle</text>
<text text-anchor="start" x="212.5" y="-65.38" font-family="FreeSans" font-size="10.00">PassRangeWithWritableIterator</text>
<text text-anchor="middle" x="281.12" y="-54.12" font-family="FreeSans" font-size="10.00">&lt; T, Value &gt;</text>
</a>
</g>
</g>
<!-- Node1&#45;&gt;Node13 -->
<g id="edge15_Node000001_Node000013" class="edge">
<title>Node1&#45;&gt;Node13</title>
<g id="a_edge15_Node000001_Node000013"><a xlink:title=" ">
<path fill="none" stroke="#63b8ff" d="M100.97,-169.7C122.55,-148.73 156.58,-118.47 191,-99.25 196.7,-96.07 202.8,-93.14 209.03,-90.48"/>
<polygon fill="#63b8ff" stroke="#63b8ff" points="98.8,-166.93 94.15,-176.45 103.72,-171.91 98.8,-166.93"/>
</a>
</g>
</g>
<!-- Node17 -->
<g id="Node000017" class="node">
<title>Node17</title>
<g id="a_Node000017"><a xlink:href="structDGtal_1_1concepts_1_1CUndirectedSimpleGraph.html" target="_top" xlink:title="Aim: Represents the concept of local graph: each vertex has neighboring vertices, but we do not neces...">
<polygon fill="white" stroke="#666666" points="355.12,-30.5 207.12,-30.5 207.12,0 355.12,0 355.12,-30.5"/>
<text text-anchor="start" x="215.12" y="-17" font-family="FreeSans" font-size="10.00">DGtal::concepts::CUndirected</text>
<text text-anchor="middle" x="281.12" y="-5.75" font-family="FreeSans" font-size="10.00">SimpleGraph&lt; T &gt;</text>
</a>
</g>
</g>
<!-- Node1&#45;&gt;Node17 -->
<g id="edge19_Node000001_Node000017" class="edge">
<title>Node1&#45;&gt;Node17</title>
<g id="a_edge19_Node000001_Node000017"><a xlink:title=" ">
<path fill="none" stroke="#63b8ff" d="M89.85,-167.7C107.15,-133.24 142.61,-72.39 191,-39.25 195.89,-35.9 201.23,-33.02 206.79,-30.54"/>
<polygon fill="#63b8ff" stroke="#63b8ff" points="86.78,-166.01 85.54,-176.53 93.07,-169.08 86.78,-166.01"/>
</a>
</g>
</g>
<!-- Node3 -->
<g id="Node000003" class="node">
<title>Node3</title>
<g id="a_Node000003"><a xlink:href="structDGtal_1_1concepts_1_1CSinglePassRangeWithWritableIteratorFromPoint.html" target="_top" xlink:title="Aim: refined concept of single pass range with a outputIterator() method from a point.">
<polygon fill="white" stroke="#666666" points="843.5,-299.12 690.25,-299.12 690.25,-257.38 843.5,-257.38 843.5,-299.12"/>
<text text-anchor="start" x="698.25" y="-285.62" font-family="FreeSans" font-size="10.00">DGtal::concepts::CSingle</text>
<text text-anchor="start" x="698.25" y="-274.38" font-family="FreeSans" font-size="10.00">PassRangeWithWritableIterator</text>
<text text-anchor="middle" x="766.88" y="-263.12" font-family="FreeSans" font-size="10.00">FromPoint&lt; T, Value &gt;</text>
</a>
</g>
</g>
<!-- Node2&#45;&gt;Node3 -->
<g id="edge2_Node000002_Node000003" class="edge">
<title>Node2&#45;&gt;Node3</title>
<g id="a_edge2_Node000002_Node000003"><a xlink:title=" ">
<path fill="none" stroke="#63b8ff" d="M646.94,-278.25C661.27,-278.25 675.92,-278.25 689.82,-278.25"/>
<polygon fill="#63b8ff" stroke="#63b8ff" points="647.05,-274.75 637.05,-278.25 647.05,-281.75 647.05,-274.75"/>
</a>
</g>
</g>
<!-- Node5 -->
<g id="Node000005" class="node">
<title>Node5</title>
<g id="a_Node000005"><a xlink:href="structDGtal_1_1concepts_1_1CBidirectionalRange.html" target="_top" xlink:title="Aim: Defines the concept describing a bidirectional range.">
<polygon fill="white" stroke="#666666" points="629.88,-399.5 475.88,-399.5 475.88,-369 629.88,-369 629.88,-399.5"/>
<text text-anchor="start" x="483.88" y="-386" font-family="FreeSans" font-size="10.00">DGtal::concepts::CBidirectional</text>
<text text-anchor="middle" x="552.88" y="-374.75" font-family="FreeSans" font-size="10.00">Range&lt; T &gt;</text>
</a>
</g>
</g>
<!-- Node4&#45;&gt;Node5 -->
<g id="edge4_Node000004_Node000005" class="edge">
<title>Node4&#45;&gt;Node5</title>
<g id="a_edge4_Node000004_Node000005"><a xlink:title=" ">
<path fill="none" stroke="#63b8ff" d="M382.79,-357.92C413.57,-362.72 446.89,-367.9 475.76,-372.4"/>
<polygon fill="#63b8ff" stroke="#63b8ff" points="383.49,-354.49 373.07,-356.41 382.41,-361.41 383.49,-354.49"/>
</a>
</g>
</g>
<!-- Node7 -->
<g id="Node000007" class="node">
<title>Node7</title>
<g id="a_Node000007"><a xlink:href="structDGtal_1_1concepts_1_1CConstBidirectionalRangeFromPoint.html" target="_top" xlink:title="Aim: refined concept of const bidirectional range with a begin() method from a point.">
<polygon fill="white" stroke="#666666" points="643,-350.5 462.75,-350.5 462.75,-320 643,-320 643,-350.5"/>
<text text-anchor="start" x="470.75" y="-337" font-family="FreeSans" font-size="10.00">DGtal::concepts::CConstBidirectional</text>
<text text-anchor="middle" x="552.88" y="-325.75" font-family="FreeSans" font-size="10.00">RangeFromPoint&lt; T &gt;</text>
</a>
</g>
</g>
<!-- Node4&#45;&gt;Node7 -->
<g id="edge6_Node000004_Node000007" class="edge">
<title>Node4&#45;&gt;Node7</title>
<g id="a_edge6_Node000004_Node000007"><a xlink:title=" ">
<path fill="none" stroke="#63b8ff" d="M383.05,-339.63C409.2,-338.95 437.17,-338.23 462.67,-337.56"/>
<polygon fill="#63b8ff" stroke="#63b8ff" points="382.99,-336.13 373.09,-339.89 383.17,-343.13 382.99,-336.13"/>
</a>
</g>
</g>
<!-- Node6 -->
<g id="Node000006" class="node">
<title>Node6</title>
<g id="a_Node000006"><a xlink:href="structDGtal_1_1concepts_1_1CBidirectionalRangeFromPoint.html" target="_top" xlink:title="Aim: refined concept of single pass range with a begin() method from a point.">
<polygon fill="white" stroke="#666666" points="843.88,-374.5 689.88,-374.5 689.88,-344 843.88,-344 843.88,-374.5"/>
<text text-anchor="start" x="697.88" y="-361" font-family="FreeSans" font-size="10.00">DGtal::concepts::CBidirectional</text>
<text text-anchor="middle" x="766.88" y="-349.75" font-family="FreeSans" font-size="10.00">RangeFromPoint&lt; T &gt;</text>
</a>
</g>
</g>
<!-- Node5&#45;&gt;Node6 -->
<g id="edge5_Node000005_Node000006" class="edge">
<title>Node5&#45;&gt;Node6</title>
<g id="a_edge5_Node000005_Node000006"><a xlink:title=" ">
<path fill="none" stroke="#63b8ff" d="M641.13,-373.96C657.21,-372.06 673.88,-370.1 689.6,-368.24"/>
<polygon fill="#63b8ff" stroke="#63b8ff" points="641.14,-370.44 631.62,-375.08 641.96,-377.39 641.14,-370.44"/>
</a>
</g>
</g>
<!-- Node7&#45;&gt;Node6 -->
<g id="edge7_Node000007_Node000006" class="edge">
<title>Node7&#45;&gt;Node6</title>
<g id="a_edge7_Node000007_Node000006"><a xlink:title=" ">
<path fill="none" stroke="#63b8ff" d="M654.71,-346.66C666.47,-348 678.31,-349.34 689.66,-350.62"/>
<polygon fill="#63b8ff" stroke="#63b8ff" points="655.31,-343.21 644.98,-345.56 654.52,-350.17 655.31,-343.21"/>
</a>
</g>
</g>
<!-- Node8&#45;&gt;Node2 -->
<g id="edge10_Node000008_Node000002" class="edge">
<title>Node8&#45;&gt;Node2</title>
<g id="a_edge10_Node000008_Node000002"><a xlink:title=" ">
<path fill="none" stroke="orange" stroke-dasharray="5,2" d="M369.59,-264.73C401.91,-267.13 438.4,-269.84 470.19,-272.19"/>
<polygon fill="orange" stroke="orange" points="370.08,-261.26 359.85,-264.01 369.57,-268.24 370.08,-261.26"/>
</a>
</g>
<text text-anchor="middle" x="417" y="-271" font-family="FreeSans" font-size="10.00" fill="grey"> &lt; T, Value &gt;</text>
</g>
<!-- Node9 -->
<g id="Node000009" class="node">
<title>Node9</title>
<g id="a_Node000009"><a xlink:href="structDGtal_1_1concepts_1_1CSinglePassRangeFromPoint.html" target="_top" xlink:title="Aim: refined concept of single pass range with a begin() method from a point.">
<polygon fill="white" stroke="#666666" points="620.88,-231.5 484.88,-231.5 484.88,-201 620.88,-201 620.88,-231.5"/>
<text text-anchor="start" x="492.88" y="-218" font-family="FreeSans" font-size="10.00">DGtal::concepts::CSingle</text>
<text text-anchor="middle" x="552.88" y="-206.75" font-family="FreeSans" font-size="10.00">PassRangeFromPoint&lt; T &gt;</text>
</a>
</g>
</g>
<!-- Node8&#45;&gt;Node9 -->
<g id="edge9_Node000008_Node000009" class="edge">
<title>Node8&#45;&gt;Node9</title>
<g id="a_edge9_Node000008_Node000009"><a xlink:title=" ">
<path fill="none" stroke="#63b8ff" d="M369.24,-244.69C406.65,-238.86 449.68,-232.16 484.57,-226.73"/>
<polygon fill="#63b8ff" stroke="#63b8ff" points="369.18,-241.15 359.84,-246.15 370.26,-248.07 369.18,-241.15"/>
</a>
</g>
</g>
<!-- Node12&#45;&gt;Node9 -->
<g id="edge14_Node000012_Node000009" class="edge">
<title>Node12&#45;&gt;Node9</title>
<g id="a_edge14_Node000012_Node000009"><a xlink:title=" ">
<path fill="none" stroke="#63b8ff" d="M351.88,-142.19C358.45,-144.16 364.99,-146.2 371.25,-148.25 420.76,-164.48 476.77,-186.08 513.11,-200.54"/>
<polygon fill="#63b8ff" stroke="#63b8ff" points="352.87,-138.83 342.28,-139.36 350.89,-145.55 352.87,-138.83"/>
</a>
</g>
</g>
<!-- Node14 -->
<g id="Node000014" class="node">
<title>Node14</title>
<g id="a_Node000014"><a xlink:href="structDGtal_1_1concepts_1_1CBidirectionalRangeWithWritableIterator.html" target="_top" xlink:title="Aim: refined concept of bidirectional range which require that a reverse output iterator exists.">
<polygon fill="white" stroke="#666666" points="629.88,-137.12 475.88,-137.12 475.88,-95.38 629.88,-95.38 629.88,-137.12"/>
<text text-anchor="start" x="483.88" y="-123.62" font-family="FreeSans" font-size="10.00">DGtal::concepts::CBidirectional</text>
<text text-anchor="start" x="483.88" y="-112.38" font-family="FreeSans" font-size="10.00">RangeWithWritableIterator</text>
<text text-anchor="middle" x="552.88" y="-101.12" font-family="FreeSans" font-size="10.00">&lt; T, Value &gt;</text>
</a>
</g>
</g>
<!-- Node13&#45;&gt;Node14 -->
<g id="edge16_Node000013_Node000014" class="edge">
<title>Node13&#45;&gt;Node14</title>
<g id="a_edge16_Node000013_Node000014"><a xlink:title=" ">
<path fill="none" stroke="#63b8ff" d="M368.95,-84.38C403.3,-90.36 442.42,-97.18 475.65,-102.97"/>
<polygon fill="#63b8ff" stroke="#63b8ff" points="369.93,-81 359.47,-82.73 368.73,-87.89 369.93,-81"/>
</a>
</g>
</g>
<!-- Node16 -->
<g id="Node000016" class="node">
<title>Node16</title>
<g id="a_Node000016"><a xlink:href="structDGtal_1_1concepts_1_1CSinglePassRangeWithWritableIteratorFromPoint.html" target="_top" xlink:title="Aim: refined concept of single pass range with a outputIterator() method from a point.">
<polygon fill="white" stroke="#666666" points="629.5,-77.12 476.25,-77.12 476.25,-35.38 629.5,-35.38 629.5,-77.12"/>
<text text-anchor="start" x="484.25" y="-63.62" font-family="FreeSans" font-size="10.00">DGtal::concepts::CSingle</text>
<text text-anchor="start" x="484.25" y="-52.38" font-family="FreeSans" font-size="10.00">PassRangeWithWritableIterator</text>
<text text-anchor="middle" x="552.88" y="-41.12" font-family="FreeSans" font-size="10.00">FromPoint&lt; T, Value &gt;</text>
</a>
</g>
</g>
<!-- Node13&#45;&gt;Node16 -->
<g id="edge18_Node000013_Node000016" class="edge">
<title>Node13&#45;&gt;Node16</title>
<g id="a_edge18_Node000013_Node000016"><a xlink:title=" ">
<path fill="none" stroke="#63b8ff" d="M369.45,-65.04C403.83,-63.38 442.95,-61.5 476.12,-59.9"/>
<polygon fill="#63b8ff" stroke="#63b8ff" points="369.31,-61.54 359.5,-65.52 369.65,-68.54 369.31,-61.54"/>
</a>
</g>
</g>
<!-- Node15 -->
<g id="Node000015" class="node">
<title>Node15</title>
<g id="a_Node000015"><a xlink:href="structDGtal_1_1concepts_1_1CBidirectionalRangeWithWritableIteratorFromPoint.html" target="_top" xlink:title="Aim: refined concept of single pass range with an routputIterator() method from a point.">
<polygon fill="white" stroke="#666666" points="854.75,-137.12 679,-137.12 679,-95.38 854.75,-95.38 854.75,-137.12"/>
<text text-anchor="start" x="687" y="-123.62" font-family="FreeSans" font-size="10.00">DGtal::concepts::CBidirectional</text>
<text text-anchor="start" x="687" y="-112.38" font-family="FreeSans" font-size="10.00">RangeWithWritableIteratorFromPoint</text>
<text text-anchor="middle" x="766.88" y="-101.12" font-family="FreeSans" font-size="10.00">&lt; T, Value &gt;</text>
</a>
</g>
</g>
<!-- Node14&#45;&gt;Node15 -->
<g id="edge17_Node000014_Node000015" class="edge">
<title>Node14&#45;&gt;Node15</title>
<g id="a_edge17_Node000014_Node000015"><a xlink:title=" ">
<path fill="none" stroke="#63b8ff" d="M641.35,-116.25C653.72,-116.25 666.43,-116.25 678.79,-116.25"/>
<polygon fill="#63b8ff" stroke="#63b8ff" points="641.63,-112.75 631.63,-116.25 641.63,-119.75 641.63,-112.75"/>
</a>
</g>
</g>
</g>
</svg>

<g id="navigator" transform="translate(0 0)" fill="#404254">
  <rect fill="#f2f5e9" fill-opacity="0.5" stroke="#606060" stroke-width=".5" x="0" y="0" width="60" height="60"/>
  <use id="zoomplus" xlink:href="#zoomPlus" x="17" y="9" onmousedown="handleZoom(evt,'in')"/>
  <use id="zoomminus" xlink:href="#zoomMin" x="42" y="9" onmousedown="handleZoom(evt,'out')"/>
  <use id="reset" xlink:href="#resetDef" x="30" y="36" onmousedown="handleReset()"/>
   <use id="arrowup" xlink:href="#arrowUp" x="0" y="0" onmousedown="handlePan(0,-1)"/>
  <use id="arrowright" xlink:href="#arrowRight" x="0" y="0" onmousedown="handlePan(1,0)"/>
  <use id="arrowdown" xlink:href="#arrowDown" x="0" y="0" onmousedown="handlePan(0,1)"/>
  <use id="arrowleft" xlink:href="#arrowLeft" x="0" y="0" onmousedown="handlePan(-1,0)"/>
</g>
<svg viewBox="0 0 15 15" width="100%" height="30px" preserveAspectRatio="xMaxYMin meet">
 <g id="arrow_out" transform="scale(0.3 0.3)">
  <a xlink:href="structDGtal_1_1concepts_1_1CConstSinglePassRange__inherit__graph_org.svg" target="_base">
   <rect id="button" ry="5" rx="5" y="6" x="6" height="38" width="38"
        fill="#f2f5e9" fill-opacity="0.5" stroke="#606060" stroke-width="1.0"/>
   <path id="arrow"
     d="M 11.500037,31.436501 C 11.940474,20.09759 22.043105,11.32322 32.158766,21.979434 L 37.068811,17.246167 C 37.068811,17.246167 37.088388,32 37.088388,32 L 22.160133,31.978069 C 22.160133,31.978069 26.997745,27.140456 26.997745,27.140456 C 18.528582,18.264221 13.291696,25.230495 11.500037,31.436501 z"
     style="fill:#404040;"/>
  </a>
 </g>
</svg>

<style type='text/css'>
<![CDATA[
[data-mouse-over-selected='false'] { opacity: 0.7; }
[data-mouse-over-selected='true']  { opacity: 1.0; }
]]>
</style>
<script type="application/ecmascript"><![CDATA[
document.addEventListener('DOMContentLoaded', (event) => {
  highlightEdges();
  highlightAdjacentNodes();
});
]]></script>
</svg>
