<?xml version="1.0" encoding="UTF-8" standalone="no"?>
<!DOCTYPE svg PUBLIC "-//W3C//DTD SVG 1.1//EN"
 "http://www.w3.org/Graphics/SVG/1.1/DTD/svg11.dtd">
<!-- Generated by graphviz version 11.0.0 (20240428.1522)
 -->
<!-- Title: DGtal::DrawWithBoard3DTo2DModifier Pages: 1 -->
<svg width="503pt" height="138pt"
 viewBox="0.00 0.00 503.00 138.25" xmlns="http://www.w3.org/2000/svg" xmlns:xlink="http://www.w3.org/1999/xlink">
<g id="graph0" class="graph" transform="scale(1 1) rotate(0) translate(4 134.25)">
<title>DGtal::DrawWithBoard3DTo2DModifier</title>
<!-- Node1 -->
<g id="Node000001" class="node">
<title>Node1</title>
<g id="a_Node000001"><a xlink:title="Base class specifying the methods for classes which intend to modify a Viewer3D stream.">
<polygon fill="#999999" stroke="#666666" points="335.75,-79.88 190.75,-79.88 190.75,-49.38 335.75,-49.38 335.75,-79.88"/>
<text text-anchor="start" x="198.75" y="-66.38" font-family="FreeSans" font-size="10.00">DGtal::DrawWithBoard3DTo2</text>
<text text-anchor="middle" x="263.25" y="-55.12" font-family="FreeSans" font-size="10.00">DModifier</text>
</a>
</g>
</g>
<!-- Node3 -->
<g id="Node000003" class="node">
<title>Node3</title>
<g id="a_Node000003"><a xlink:href="structDGtal_1_1CameraDirection.html" target="_top" xlink:title="CameraDirection class to set camera direction.">
<polygon fill="white" stroke="#666666" points="493.88,-130.25 372.88,-130.25 372.88,-111 493.88,-111 493.88,-130.25"/>
<text text-anchor="middle" x="433.38" y="-116.75" font-family="FreeSans" font-size="10.00">DGtal::CameraDirection</text>
</a>
</g>
</g>
<!-- Node1&#45;&gt;Node3 -->
<g id="edge2_Node000001_Node000003" class="edge">
<title>Node1&#45;&gt;Node3</title>
<g id="a_edge2_Node000001_Node000003"><a xlink:title=" ">
<path fill="none" stroke="#63b8ff" d="M317.43,-84.03C334.69,-90.17 353.98,-96.85 371.75,-102.62 380,-105.31 388.93,-108.05 397.34,-110.55"/>
<polygon fill="#63b8ff" stroke="#63b8ff" points="318.99,-80.87 308.4,-80.8 316.64,-87.46 318.99,-80.87"/>
</a>
</g>
</g>
<!-- Node4 -->
<g id="Node000004" class="node">
<title>Node4</title>
<g id="a_Node000004"><a xlink:href="structDGtal_1_1CameraPosition.html" target="_top" xlink:title="CameraPosition class to set camera position.">
<polygon fill="white" stroke="#666666" points="492,-93.25 374.75,-93.25 374.75,-74 492,-74 492,-93.25"/>
<text text-anchor="middle" x="433.38" y="-79.75" font-family="FreeSans" font-size="10.00">DGtal::CameraPosition</text>
</a>
</g>
</g>
<!-- Node1&#45;&gt;Node4 -->
<g id="edge3_Node000001_Node000004" class="edge">
<title>Node1&#45;&gt;Node4</title>
<g id="a_edge3_Node000001_Node000004"><a xlink:title=" ">
<path fill="none" stroke="#63b8ff" d="M347.47,-74.03C356.53,-75.05 365.61,-76.08 374.27,-77.06"/>
<polygon fill="#63b8ff" stroke="#63b8ff" points="347.87,-70.55 337.54,-72.91 347.09,-77.51 347.87,-70.55"/>
</a>
</g>
</g>
<!-- Node5 -->
<g id="Node000005" class="node">
<title>Node5</title>
<g id="a_Node000005"><a xlink:href="structDGtal_1_1CameraUpVector.html" target="_top" xlink:title="CameraUpVector class to set camera up&#45;vector.">
<polygon fill="white" stroke="#666666" points="495,-56.25 371.75,-56.25 371.75,-37 495,-37 495,-56.25"/>
<text text-anchor="middle" x="433.38" y="-42.75" font-family="FreeSans" font-size="10.00">DGtal::CameraUpVector</text>
</a>
</g>
</g>
<!-- Node1&#45;&gt;Node5 -->
<g id="edge4_Node000001_Node000005" class="edge">
<title>Node1&#45;&gt;Node5</title>
<g id="a_edge4_Node000001_Node000005"><a xlink:title=" ">
<path fill="none" stroke="#63b8ff" d="M347.43,-55.72C355.51,-54.85 363.61,-53.99 371.41,-53.15"/>
<polygon fill="#63b8ff" stroke="#63b8ff" points="347.11,-52.23 337.54,-56.78 347.86,-59.19 347.11,-52.23"/>
</a>
</g>
</g>
<!-- Node6 -->
<g id="Node000006" class="node">
<title>Node6</title>
<g id="a_Node000006"><a xlink:href="structDGtal_1_1CameraZNearFar.html" target="_top" xlink:title="CameraZNearFar class to set near and far distance.">
<polygon fill="white" stroke="#666666" points="495,-19.25 371.75,-19.25 371.75,0 495,0 495,-19.25"/>
<text text-anchor="middle" x="433.38" y="-5.75" font-family="FreeSans" font-size="10.00">DGtal::CameraZNearFar</text>
</a>
</g>
</g>
<!-- Node1&#45;&gt;Node6 -->
<g id="edge5_Node000001_Node000006" class="edge">
<title>Node1&#45;&gt;Node6</title>
<g id="a_edge5_Node000001_Node000006"><a xlink:title=" ">
<path fill="none" stroke="#63b8ff" d="M319.31,-45.17C336.09,-39.37 354.63,-33.11 371.75,-27.62 380.01,-24.98 388.95,-22.25 397.35,-19.75"/>
<polygon fill="#63b8ff" stroke="#63b8ff" points="318.29,-41.81 309.99,-48.4 320.59,-48.43 318.29,-41.81"/>
</a>
</g>
</g>
<!-- Node2 -->
<g id="Node000002" class="node">
<title>Node2</title>
<g id="a_Node000002"><a xlink:href="structDGtal_1_1DrawableWithDisplay3D.html" target="_top" xlink:title=" ">
<polygon fill="white" stroke="#666666" points="154.75,-74.25 0,-74.25 0,-55 154.75,-55 154.75,-74.25"/>
<text text-anchor="middle" x="77.38" y="-60.75" font-family="FreeSans" font-size="10.00">DGtal::DrawableWithDisplay3D</text>
</a>
</g>
</g>
<!-- Node2&#45;&gt;Node1 -->
<g id="edge1_Node000001_Node000002" class="edge">
<title>Node2&#45;&gt;Node1</title>
<g id="a_edge1_Node000001_Node000002"><a xlink:title=" ">
<path fill="none" stroke="#63b8ff" d="M166.37,-64.62C174.43,-64.62 182.54,-64.62 190.43,-64.62"/>
<polygon fill="#63b8ff" stroke="#63b8ff" points="166.54,-61.13 156.54,-64.63 166.54,-68.13 166.54,-61.13"/>
</a>
</g>
</g>
</g>
</svg>
