<?xml version="1.0" encoding="UTF-8" standalone="no"?>
<!DOCTYPE svg PUBLIC "-//W3C//DTD SVG 1.1//EN"
 "http://www.w3.org/Graphics/SVG/1.1/DTD/svg11.dtd">
<!-- Generated by graphviz version 11.0.0 (20240428.1522)
 -->
<!-- Title: DGtal::DrawWithDisplay3DModifier Pages: 1 -->
<svg width="587pt" height="540pt"
 viewBox="0.00 0.00 587.00 540.12" xmlns="http://www.w3.org/2000/svg" xmlns:xlink="http://www.w3.org/1999/xlink">
<g id="graph0" class="graph" transform="scale(1 1) rotate(0) translate(4 536.12)">
<title>DGtal::DrawWithDisplay3DModifier</title>
<!-- Node1 -->
<g id="Node000001" class="node">
<title>Node1</title>
<g id="a_Node000001"><a xlink:title="Base class specifying the methods for classes which intend to modify a Viewer3D stream.">
<polygon fill="#999999" stroke="#666666" points="171.25,-262.88 0,-262.88 0,-243.62 171.25,-243.62 171.25,-262.88"/>
<text text-anchor="middle" x="85.62" y="-249.38" font-family="FreeSans" font-size="10.00">DGtal::DrawWithDisplay3DModifier</text>
</a>
</g>
</g>
<!-- Node2 -->
<g id="Node000002" class="node">
<title>Node2</title>
<g id="a_Node000002"><a xlink:href="structDGtal_1_1ClippingPlane.html" target="_top" xlink:title="Class for adding a Clipping plane through the Viewer3D stream. Realizes the concept CDrawableWithView...">
<polygon fill="white" stroke="#666666" points="345.12,-392.88 237.62,-392.88 237.62,-373.62 345.12,-373.62 345.12,-392.88"/>
<text text-anchor="middle" x="291.38" y="-379.38" font-family="FreeSans" font-size="10.00">DGtal::ClippingPlane</text>
</a>
</g>
</g>
<!-- Node1&#45;&gt;Node2 -->
<g id="edge1_Node000001_Node000002" class="edge">
<title>Node1&#45;&gt;Node2</title>
<g id="a_edge1_Node000001_Node000002"><a xlink:title=" ">
<path fill="none" stroke="#63b8ff" d="M101.34,-272.17C122.11,-297.49 162.51,-341.91 207.25,-365.25 216.55,-370.1 227.08,-373.64 237.45,-376.23"/>
<polygon fill="#63b8ff" stroke="#63b8ff" points="104.07,-269.98 95.09,-264.37 98.61,-274.36 104.07,-269.98"/>
</a>
</g>
</g>
<!-- Node3 -->
<g id="Node000003" class="node">
<title>Node3</title>
<g id="a_Node000003"><a xlink:href="structDGtal_1_1CustomColors3D.html" target="_top" xlink:title=" ">
<polygon fill="white" stroke="#666666" points="353,-355.88 229.75,-355.88 229.75,-336.62 353,-336.62 353,-355.88"/>
<text text-anchor="middle" x="291.38" y="-342.38" font-family="FreeSans" font-size="10.00">DGtal::CustomColors3D</text>
</a>
</g>
</g>
<!-- Node1&#45;&gt;Node3 -->
<g id="edge2_Node000001_Node000003" class="edge">
<title>Node1&#45;&gt;Node3</title>
<g id="a_edge2_Node000001_Node000003"><a xlink:title=" ">
<path fill="none" stroke="#63b8ff" d="M108.17,-269.86C131.4,-286.96 170.05,-313.19 207.25,-328.25 214.91,-331.35 223.2,-333.96 231.48,-336.14"/>
<polygon fill="#63b8ff" stroke="#63b8ff" points="110.53,-267.25 100.42,-264.05 106.33,-272.85 110.53,-267.25"/>
</a>
</g>
</g>
<!-- Node4 -->
<g id="Node000004" class="node">
<title>Node4</title>
<g id="a_Node000004"><a xlink:href="structDGtal_1_1CustomStyle3D.html" target="_top" xlink:title="Modifier class in a Display3D stream. Useful to choose your own style for a given class....">
<polygon fill="white" stroke="#666666" points="350,-318.88 232.75,-318.88 232.75,-299.62 350,-299.62 350,-318.88"/>
<text text-anchor="middle" x="291.38" y="-305.38" font-family="FreeSans" font-size="10.00">DGtal::CustomStyle3D</text>
</a>
</g>
</g>
<!-- Node1&#45;&gt;Node4 -->
<g id="edge3_Node000001_Node000004" class="edge">
<title>Node1&#45;&gt;Node4</title>
<g id="a_edge3_Node000001_Node000004"><a xlink:title=" ">
<path fill="none" stroke="#63b8ff" d="M126.54,-266.84C149.91,-274.54 180.07,-284.04 207.25,-291.25 217.81,-294.05 229.21,-296.74 240.09,-299.14"/>
<polygon fill="#63b8ff" stroke="#63b8ff" points="127.69,-263.53 117.09,-263.7 125.48,-270.17 127.69,-263.53"/>
</a>
</g>
</g>
<!-- Node5 -->
<g id="Node000005" class="node">
<title>Node5</title>
<g id="a_Node000005"><a xlink:href="structDGtal_1_1DrawWithViewer3DModifier.html" target="_top" xlink:title="Base class specifying the methods for classes which intend to modify a Viewer3D stream.">
<polygon fill="white" stroke="#666666" points="375.5,-281.88 207.25,-281.88 207.25,-262.62 375.5,-262.62 375.5,-281.88"/>
<text text-anchor="middle" x="291.38" y="-268.38" font-family="FreeSans" font-size="10.00">DGtal::DrawWithViewer3DModifier</text>
</a>
</g>
</g>
<!-- Node1&#45;&gt;Node5 -->
<g id="edge4_Node000001_Node000005" class="edge">
<title>Node1&#45;&gt;Node5</title>
<g id="a_edge4_Node000001_Node000005"><a xlink:title=" ">
<path fill="none" stroke="#63b8ff" d="M182.86,-262.22C190.89,-262.97 198.97,-263.73 206.89,-264.46"/>
<polygon fill="#63b8ff" stroke="#63b8ff" points="183.35,-258.75 173.06,-261.31 182.7,-265.72 183.35,-258.75"/>
</a>
</g>
</g>
<!-- Node18 -->
<g id="Node000018" class="node">
<title>Node18</title>
<g id="a_Node000018"><a xlink:href="structDGtal_1_1SetMode3D.html" target="_top" xlink:title="Modifier class in a Display3D stream. Useful to choose your own mode for a given class....">
<polygon fill="white" stroke="#666666" points="341,-244.88 241.75,-244.88 241.75,-225.62 341,-225.62 341,-244.88"/>
<text text-anchor="middle" x="291.38" y="-231.38" font-family="FreeSans" font-size="10.00">DGtal::SetMode3D</text>
</a>
</g>
</g>
<!-- Node1&#45;&gt;Node18 -->
<g id="edge17_Node000001_Node000018" class="edge">
<title>Node1&#45;&gt;Node18</title>
<g id="a_edge17_Node000001_Node000018"><a xlink:title=" ">
<path fill="none" stroke="#63b8ff" d="M182.79,-244.75C203.1,-242.96 223.71,-241.14 241.38,-239.58"/>
<polygon fill="#63b8ff" stroke="#63b8ff" points="182.72,-241.25 173.07,-245.61 183.33,-248.22 182.72,-241.25"/>
</a>
</g>
</g>
<!-- Node19 -->
<g id="Node000019" class="node">
<title>Node19</title>
<g id="a_Node000019"><a xlink:href="structDGtal_1_1SetName3D.html" target="_top" xlink:title=" ">
<polygon fill="white" stroke="#666666" points="342.12,-207.88 240.62,-207.88 240.62,-188.62 342.12,-188.62 342.12,-207.88"/>
<text text-anchor="middle" x="291.38" y="-194.38" font-family="FreeSans" font-size="10.00">DGtal::SetName3D</text>
</a>
</g>
</g>
<!-- Node1&#45;&gt;Node19 -->
<g id="edge18_Node000001_Node000019" class="edge">
<title>Node1&#45;&gt;Node19</title>
<g id="a_edge18_Node000001_Node000019"><a xlink:title=" ">
<path fill="none" stroke="#63b8ff" d="M127.51,-239.77C150.75,-232.34 180.48,-223.24 207.25,-216.25 217.97,-213.45 229.54,-210.75 240.54,-208.32"/>
<polygon fill="#63b8ff" stroke="#63b8ff" points="126.55,-236.4 118.1,-242.8 128.69,-243.06 126.55,-236.4"/>
</a>
</g>
</g>
<!-- Node20 -->
<g id="Node000020" class="node">
<title>Node20</title>
<g id="a_Node000020"><a xlink:href="structDGtal_1_1SetSelectCallback3D.html" target="_top" xlink:title=" ">
<polygon fill="white" stroke="#666666" points="362,-170.88 220.75,-170.88 220.75,-151.62 362,-151.62 362,-170.88"/>
<text text-anchor="middle" x="291.38" y="-157.38" font-family="FreeSans" font-size="10.00">DGtal::SetSelectCallback3D</text>
</a>
</g>
</g>
<!-- Node1&#45;&gt;Node20 -->
<g id="edge19_Node000001_Node000020" class="edge">
<title>Node1&#45;&gt;Node20</title>
<g id="a_edge19_Node000001_Node000020"><a xlink:title=" ">
<path fill="none" stroke="#63b8ff" d="M108.59,-236.6C131.88,-219.73 170.34,-194.07 207.25,-179.25 215.06,-176.11 223.51,-173.48 231.94,-171.29"/>
<polygon fill="#63b8ff" stroke="#63b8ff" points="106.77,-233.59 100.8,-242.34 110.93,-239.23 106.77,-233.59"/>
</a>
</g>
</g>
<!-- Node21 -->
<g id="Node000021" class="node">
<title>Node21</title>
<g id="a_Node000021"><a xlink:href="structDGtal_1_1TransformedPrism.html" target="_top" xlink:title="class to modify the position and scale to construct better illustration mode.">
<polygon fill="white" stroke="#666666" points="355.25,-133.88 227.5,-133.88 227.5,-114.62 355.25,-114.62 355.25,-133.88"/>
<text text-anchor="middle" x="291.38" y="-120.38" font-family="FreeSans" font-size="10.00">DGtal::TransformedPrism</text>
</a>
</g>
</g>
<!-- Node1&#45;&gt;Node21 -->
<g id="edge20_Node000001_Node000021" class="edge">
<title>Node1&#45;&gt;Node21</title>
<g id="a_edge20_Node000001_Node000021"><a xlink:title=" ">
<path fill="none" stroke="#63b8ff" d="M101.38,-234.5C122.19,-209.41 162.65,-165.39 207.25,-142.25 213.54,-138.99 220.4,-136.31 227.38,-134.12"/>
<polygon fill="#63b8ff" stroke="#63b8ff" points="98.69,-232.25 95.12,-242.23 104.13,-236.66 98.69,-232.25"/>
</a>
</g>
</g>
<!-- Node6 -->
<g id="Node000006" class="node">
<title>Node6</title>
<g id="a_Node000006"><a xlink:href="structDGtal_1_1AddTextureImage2DWithFunctor.html" target="_top" xlink:title="class to insert a custom 2D textured image by using a conversion functor and allows to change the def...">
<polygon fill="white" stroke="#666666" points="574.88,-532.12 415.62,-532.12 415.62,-490.38 574.88,-490.38 574.88,-532.12"/>
<text text-anchor="start" x="423.62" y="-518.62" font-family="FreeSans" font-size="10.00">DGtal::AddTextureImage2DWith</text>
<text text-anchor="start" x="423.62" y="-507.38" font-family="FreeSans" font-size="10.00">Functor&lt; TImageType, TFunctor,</text>
<text text-anchor="middle" x="495.25" y="-496.12" font-family="FreeSans" font-size="10.00"> Space, KSpace &gt;</text>
</a>
</g>
</g>
<!-- Node5&#45;&gt;Node6 -->
<g id="edge5_Node000005_Node000006" class="edge">
<title>Node5&#45;&gt;Node6</title>
<g id="a_edge5_Node000005_Node000006"><a xlink:title=" ">
<path fill="none" stroke="#63b8ff" d="M374.36,-289.12C374.75,-289.49 375.13,-289.87 375.5,-290.25 435.75,-352.15 355.54,-415.44 411.5,-481.25 414.27,-484.51 417.43,-487.42 420.85,-490.01"/>
<polygon fill="#63b8ff" stroke="#63b8ff" points="376.78,-286.56 366.7,-283.29 372.54,-292.13 376.78,-286.56"/>
</a>
</g>
</g>
<!-- Node7 -->
<g id="Node000007" class="node">
<title>Node7</title>
<g id="a_Node000007"><a xlink:href="structDGtal_1_1AddTextureImage3DWithFunctor.html" target="_top" xlink:title="class to insert a custom 3D textured image by using a conversion functor and allows to change the def...">
<polygon fill="white" stroke="#666666" points="574.88,-472.12 415.62,-472.12 415.62,-430.38 574.88,-430.38 574.88,-472.12"/>
<text text-anchor="start" x="423.62" y="-458.62" font-family="FreeSans" font-size="10.00">DGtal::AddTextureImage3DWith</text>
<text text-anchor="start" x="423.62" y="-447.38" font-family="FreeSans" font-size="10.00">Functor&lt; TImageType, TFunctor,</text>
<text text-anchor="middle" x="495.25" y="-436.12" font-family="FreeSans" font-size="10.00"> Space, KSpace &gt;</text>
</a>
</g>
</g>
<!-- Node5&#45;&gt;Node7 -->
<g id="edge6_Node000005_Node000007" class="edge">
<title>Node5&#45;&gt;Node7</title>
<g id="a_edge6_Node000005_Node000007"><a xlink:title=" ">
<path fill="none" stroke="#63b8ff" d="M373.59,-288.53C374.24,-289.09 374.88,-289.66 375.5,-290.25 419.35,-331.76 370.54,-376.89 411.5,-421.25 414.51,-424.51 417.89,-427.41 421.54,-430"/>
<polygon fill="#63b8ff" stroke="#63b8ff" points="375.9,-285.88 365.68,-283.09 371.93,-291.64 375.9,-285.88"/>
</a>
</g>
</g>
<!-- Node8 -->
<g id="Node000008" class="node">
<title>Node8</title>
<g id="a_Node000008"><a xlink:href="structDGtal_1_1CameraDirection.html" target="_top" xlink:title="CameraDirection class to set camera direction.">
<polygon fill="white" stroke="#666666" points="555.75,-411.88 434.75,-411.88 434.75,-392.62 555.75,-392.62 555.75,-411.88"/>
<text text-anchor="middle" x="495.25" y="-398.38" font-family="FreeSans" font-size="10.00">DGtal::CameraDirection</text>
</a>
</g>
</g>
<!-- Node5&#45;&gt;Node8 -->
<g id="edge7_Node000005_Node000008" class="edge">
<title>Node5&#45;&gt;Node8</title>
<g id="a_edge7_Node000005_Node000008"><a xlink:title=" ">
<path fill="none" stroke="#63b8ff" d="M373.01,-288.24C373.86,-288.89 374.69,-289.56 375.5,-290.25 409.45,-319.38 377.56,-355.1 411.5,-384.25 418.08,-389.9 426.02,-393.9 434.35,-396.72"/>
<polygon fill="#63b8ff" stroke="#63b8ff" points="374.92,-285.31 364.58,-283 371.23,-291.25 374.92,-285.31"/>
</a>
</g>
</g>
<!-- Node9 -->
<g id="Node000009" class="node">
<title>Node9</title>
<g id="a_Node000009"><a xlink:href="structDGtal_1_1CameraPosition.html" target="_top" xlink:title="CameraPosition class to set camera position.">
<polygon fill="white" stroke="#666666" points="553.88,-374.88 436.62,-374.88 436.62,-355.62 553.88,-355.62 553.88,-374.88"/>
<text text-anchor="middle" x="495.25" y="-361.38" font-family="FreeSans" font-size="10.00">DGtal::CameraPosition</text>
</a>
</g>
</g>
<!-- Node5&#45;&gt;Node9 -->
<g id="edge8_Node000005_Node000009" class="edge">
<title>Node5&#45;&gt;Node9</title>
<g id="a_edge8_Node000005_Node000009"><a xlink:title=" ">
<path fill="none" stroke="#63b8ff" d="M371.18,-287.47C372.66,-288.34 374.1,-289.27 375.5,-290.25 400.05,-307.42 386.96,-330.06 411.5,-347.25 418.85,-352.39 427.39,-356.11 436.14,-358.78"/>
<polygon fill="#63b8ff" stroke="#63b8ff" points="372.83,-284.38 362.32,-283.03 369.69,-290.64 372.83,-284.38"/>
</a>
</g>
</g>
<!-- Node10 -->
<g id="Node000010" class="node">
<title>Node10</title>
<g id="a_Node000010"><a xlink:href="structDGtal_1_1CameraUpVector.html" target="_top" xlink:title="CameraUpVector class to set camera up&#45;vector.">
<polygon fill="white" stroke="#666666" points="556.88,-337.88 433.62,-337.88 433.62,-318.62 556.88,-318.62 556.88,-337.88"/>
<text text-anchor="middle" x="495.25" y="-324.38" font-family="FreeSans" font-size="10.00">DGtal::CameraUpVector</text>
</a>
</g>
</g>
<!-- Node5&#45;&gt;Node10 -->
<g id="edge9_Node000005_Node000010" class="edge">
<title>Node5&#45;&gt;Node10</title>
<g id="a_edge9_Node000005_Node000010"><a xlink:title=" ">
<path fill="none" stroke="#63b8ff" d="M360.84,-285.38C365.85,-286.85 370.79,-288.47 375.5,-290.25 392.63,-296.7 394.37,-303.79 411.5,-310.25 419.75,-313.36 428.68,-316.01 437.52,-318.23"/>
<polygon fill="#63b8ff" stroke="#63b8ff" points="361.83,-282.02 351.27,-282.77 359.99,-288.77 361.83,-282.02"/>
</a>
</g>
</g>
<!-- Node11 -->
<g id="Node000011" class="node">
<title>Node11</title>
<g id="a_Node000011"><a xlink:href="structDGtal_1_1CameraZNearFar.html" target="_top" xlink:title="CameraZNearFar class to set near and far distance.">
<polygon fill="white" stroke="#666666" points="556.88,-300.88 433.62,-300.88 433.62,-281.62 556.88,-281.62 556.88,-300.88"/>
<text text-anchor="middle" x="495.25" y="-287.38" font-family="FreeSans" font-size="10.00">DGtal::CameraZNearFar</text>
</a>
</g>
</g>
<!-- Node5&#45;&gt;Node11 -->
<g id="edge10_Node000005_Node000011" class="edge">
<title>Node5&#45;&gt;Node11</title>
<g id="a_edge10_Node000005_Node000011"><a xlink:title=" ">
<path fill="none" stroke="#63b8ff" d="M387.27,-281.18C402.9,-282.65 418.73,-284.14 433.24,-285.51"/>
<polygon fill="#63b8ff" stroke="#63b8ff" points="387.73,-277.71 377.45,-280.26 387.08,-284.68 387.73,-277.71"/>
</a>
</g>
</g>
<!-- Node12 -->
<g id="Node000012" class="node">
<title>Node12</title>
<g id="a_Node000012"><a xlink:href="structDGtal_1_1Translate2DDomain.html" target="_top" xlink:title="class to modify the data of an given image and also the possibility to translate it (optional).">
<polygon fill="white" stroke="#666666" points="562.5,-263.88 428,-263.88 428,-244.62 562.5,-244.62 562.5,-263.88"/>
<text text-anchor="middle" x="495.25" y="-250.38" font-family="FreeSans" font-size="10.00">DGtal::Translate2DDomain</text>
</a>
</g>
</g>
<!-- Node5&#45;&gt;Node12 -->
<g id="edge11_Node000005_Node000012" class="edge">
<title>Node5&#45;&gt;Node12</title>
<g id="a_edge11_Node000005_Node000012"><a xlink:title=" ">
<path fill="none" stroke="#63b8ff" d="M387.34,-263.78C400.97,-262.57 414.75,-261.34 427.68,-260.19"/>
<polygon fill="#63b8ff" stroke="#63b8ff" points="387.1,-260.29 377.45,-264.66 387.72,-267.26 387.1,-260.29"/>
</a>
</g>
</g>
<!-- Node13 -->
<g id="Node000013" class="node">
<title>Node13</title>
<g id="a_Node000013"><a xlink:href="structDGtal_1_1Update2DDomainPosition.html" target="_top" xlink:title="class to modify the position and orientation of an 2D domain.">
<polygon fill="white" stroke="#666666" points="575.62,-226.5 414.88,-226.5 414.88,-196 575.62,-196 575.62,-226.5"/>
<text text-anchor="start" x="422.88" y="-213" font-family="FreeSans" font-size="10.00">DGtal::Update2DDomainPosition</text>
<text text-anchor="middle" x="495.25" y="-201.75" font-family="FreeSans" font-size="10.00">&lt; Space, KSpace &gt;</text>
</a>
</g>
</g>
<!-- Node5&#45;&gt;Node13 -->
<g id="edge12_Node000005_Node000013" class="edge">
<title>Node5&#45;&gt;Node13</title>
<g id="a_edge12_Node000005_Node000013"><a xlink:title=" ">
<path fill="none" stroke="#63b8ff" d="M359.87,-259.28C365.21,-257.75 370.48,-256.08 375.5,-254.25 392.5,-248.06 394.73,-242.03 411.5,-235.25 418.85,-232.28 426.7,-229.51 434.54,-226.99"/>
<polygon fill="#63b8ff" stroke="#63b8ff" points="359.09,-255.86 350.32,-261.81 360.89,-262.63 359.09,-255.86"/>
</a>
</g>
</g>
<!-- Node14 -->
<g id="Node000014" class="node">
<title>Node14</title>
<g id="a_Node000014"><a xlink:href="structDGtal_1_1UpdateImage3DEmbedding.html" target="_top" xlink:title="class to modify the 3d embedding of the image (useful to display not only 2D slice images)....">
<polygon fill="white" stroke="#666666" points="579,-177.5 411.5,-177.5 411.5,-147 579,-147 579,-177.5"/>
<text text-anchor="start" x="419.5" y="-164" font-family="FreeSans" font-size="10.00">DGtal::UpdateImage3DEmbedding</text>
<text text-anchor="middle" x="495.25" y="-152.75" font-family="FreeSans" font-size="10.00">&lt; Space, KSpace &gt;</text>
</a>
</g>
</g>
<!-- Node5&#45;&gt;Node14 -->
<g id="edge13_Node000005_Node000014" class="edge">
<title>Node5&#45;&gt;Node14</title>
<g id="a_edge13_Node000005_Node000014"><a xlink:title=" ">
<path fill="none" stroke="#63b8ff" d="M371.39,-257.09C372.8,-256.2 374.17,-255.25 375.5,-254.25 402.5,-233.91 385.33,-208.65 411.5,-187.25 415.91,-183.64 420.84,-180.55 426.03,-177.91"/>
<polygon fill="#63b8ff" stroke="#63b8ff" points="370.13,-253.8 362.96,-261.59 373.43,-259.97 370.13,-253.8"/>
</a>
</g>
</g>
<!-- Node15 -->
<g id="Node000015" class="node">
<title>Node15</title>
<g id="a_Node000015"><a xlink:href="structDGtal_1_1UpdateImageData.html" target="_top" xlink:title="class to modify the data of an given image and also the possibility to translate it (optional).">
<polygon fill="white" stroke="#666666" points="561.75,-128.5 428.75,-128.5 428.75,-98 561.75,-98 561.75,-128.5"/>
<text text-anchor="start" x="436.75" y="-115" font-family="FreeSans" font-size="10.00">DGtal::UpdateImageData</text>
<text text-anchor="middle" x="495.25" y="-103.75" font-family="FreeSans" font-size="10.00">&lt; TImageType, TFunctor &gt;</text>
</a>
</g>
</g>
<!-- Node5&#45;&gt;Node15 -->
<g id="edge14_Node000005_Node000015" class="edge">
<title>Node5&#45;&gt;Node15</title>
<g id="a_edge14_Node000005_Node000015"><a xlink:title=" ">
<path fill="none" stroke="#63b8ff" d="M373.56,-255.94C374.22,-255.39 374.87,-254.83 375.5,-254.25 415.31,-217.79 373.19,-176.28 411.5,-138.25 416.4,-133.39 422.21,-129.46 428.45,-126.3"/>
<polygon fill="#63b8ff" stroke="#63b8ff" points="371.93,-252.82 365.57,-261.3 375.83,-258.63 371.93,-252.82"/>
</a>
</g>
</g>
<!-- Node16 -->
<g id="Node000016" class="node">
<title>Node16</title>
<g id="a_Node000016"><a xlink:href="structDGtal_1_1UpdateImagePosition.html" target="_top" xlink:title="class to modify the position and orientation of an textured 2D image.">
<polygon fill="white" stroke="#666666" points="565.88,-79.5 424.62,-79.5 424.62,-49 565.88,-49 565.88,-79.5"/>
<text text-anchor="start" x="432.62" y="-66" font-family="FreeSans" font-size="10.00">DGtal::UpdateImagePosition</text>
<text text-anchor="middle" x="495.25" y="-54.75" font-family="FreeSans" font-size="10.00">&lt; Space, KSpace &gt;</text>
</a>
</g>
</g>
<!-- Node5&#45;&gt;Node16 -->
<g id="edge15_Node000005_Node000016" class="edge">
<title>Node5&#45;&gt;Node16</title>
<g id="a_edge15_Node000005_Node000016"><a xlink:title=" ">
<path fill="none" stroke="#63b8ff" d="M374,-255.68C374.51,-255.22 375.01,-254.74 375.5,-254.25 428.62,-201.22 360.55,-144.37 411.5,-89.25 415.27,-85.17 419.68,-81.75 424.46,-78.88"/>
<polygon fill="#63b8ff" stroke="#63b8ff" points="372.24,-252.63 366.24,-261.36 376.37,-258.28 372.24,-252.63"/>
</a>
</g>
</g>
<!-- Node17 -->
<g id="Node000017" class="node">
<title>Node17</title>
<g id="a_Node000017"><a xlink:href="structDGtal_1_1UpdateLastImagePosition.html" target="_top" xlink:title="class to modify the position and orientation of an textured 2D image.">
<polygon fill="white" stroke="#666666" points="575.25,-30.5 415.25,-30.5 415.25,0 575.25,0 575.25,-30.5"/>
<text text-anchor="start" x="423.25" y="-17" font-family="FreeSans" font-size="10.00">DGtal::UpdateLastImagePosition</text>
<text text-anchor="middle" x="495.25" y="-5.75" font-family="FreeSans" font-size="10.00">&lt; Space, KSpace &gt;</text>
</a>
</g>
</g>
<!-- Node5&#45;&gt;Node17 -->
<g id="edge16_Node000005_Node000017" class="edge">
<title>Node5&#45;&gt;Node17</title>
<g id="a_edge16_Node000005_Node000017"><a xlink:title=" ">
<path fill="none" stroke="#63b8ff" d="M374.37,-255.39C374.75,-255.02 375.13,-254.64 375.5,-254.25 442.09,-184.48 347.76,-112.63 411.5,-40.25 414.67,-36.65 418.35,-33.55 422.35,-30.9"/>
<polygon fill="#63b8ff" stroke="#63b8ff" points="372.54,-252.39 366.76,-261.27 376.82,-257.92 372.54,-252.39"/>
</a>
</g>
</g>
</g>
</svg>
