<?xml version="1.0" encoding="UTF-8" standalone="no"?>
<!DOCTYPE svg PUBLIC "-//W3C//DTD SVG 1.1//EN"
 "http://www.w3.org/Graphics/SVG/1.1/DTD/svg11.dtd">
<!-- Generated by graphviz version 11.0.0 (20240428.1522)
 -->
<!-- Title: DGtal::concepts::CDigitalSurfaceLocalEstimator&lt; T &gt; Pages: 1 -->
<svg width="505pt" height="101pt"
 viewBox="0.00 0.00 504.50 101.25" xmlns="http://www.w3.org/2000/svg" xmlns:xlink="http://www.w3.org/1999/xlink">
<g id="graph0" class="graph" transform="scale(1 1) rotate(0) translate(4 97.25)">
<title>DGtal::concepts::CDigitalSurfaceLocalEstimator&lt; T &gt;</title>
<!-- Node1 -->
<g id="Node000001" class="node">
<title>Node1</title>
<g id="a_Node000001"><a xlink:title="Aim: This concept describes an object that can process a range over some generic digital surface so a...">
<polygon fill="#999999" stroke="#666666" points="496.5,-61.88 357.5,-61.88 357.5,-31.38 496.5,-31.38 496.5,-61.88"/>
<text text-anchor="start" x="365.5" y="-48.38" font-family="FreeSans" font-size="10.00">DGtal::concepts::CDigital</text>
<text text-anchor="middle" x="427" y="-37.12" font-family="FreeSans" font-size="10.00">SurfaceLocalEstimator&lt; T &gt;</text>
</a>
</g>
</g>
<!-- Node2 -->
<g id="Node000002" class="node">
<title>Node2</title>
<g id="a_Node000002"><a xlink:href="structDGtal_1_1concepts_1_1CSurfelLocalEstimator.html" target="_top" xlink:title="Aim: This concept describes an object that can process a range of surfels (that are supposed to belon...">
<polygon fill="white" stroke="#666666" points="321.5,-61.88 195.25,-61.88 195.25,-31.38 321.5,-31.38 321.5,-61.88"/>
<text text-anchor="start" x="203.25" y="-48.38" font-family="FreeSans" font-size="10.00">DGtal::concepts::CSurfel</text>
<text text-anchor="middle" x="258.38" y="-37.12" font-family="FreeSans" font-size="10.00">LocalEstimator&lt; T &gt;</text>
</a>
</g>
</g>
<!-- Node2&#45;&gt;Node1 -->
<g id="edge1_Node000001_Node000002" class="edge">
<title>Node2&#45;&gt;Node1</title>
<g id="a_edge1_Node000001_Node000002"><a xlink:title=" ">
<path fill="none" stroke="#63b8ff" d="M333.41,-46.62C341.34,-46.62 349.39,-46.62 357.26,-46.62"/>
<polygon fill="#63b8ff" stroke="#63b8ff" points="333.41,-43.13 323.41,-46.63 333.41,-50.13 333.41,-43.13"/>
</a>
</g>
</g>
<!-- Node3 -->
<g id="Node000003" class="node">
<title>Node3</title>
<g id="a_Node000003"><a xlink:href="structboost_1_1DefaultConstructible.html" target="_top" xlink:title="Go to http://www.sgi.com/tech/stl/DefaultConstructible.html.">
<polygon fill="white" stroke="#666666" points="159.25,-93.25 0,-93.25 0,-74 159.25,-74 159.25,-93.25"/>
<text text-anchor="middle" x="79.62" y="-79.75" font-family="FreeSans" font-size="10.00">boost::DefaultConstructible&lt; T &gt;</text>
</a>
</g>
</g>
<!-- Node3&#45;&gt;Node2 -->
<g id="edge2_Node000002_Node000003" class="edge">
<title>Node3&#45;&gt;Node2</title>
<g id="a_edge2_Node000002_Node000003"><a xlink:title=" ">
<path fill="none" stroke="#63b8ff" d="M139.95,-71.21C157.61,-67.51 177,-63.45 194.86,-59.71"/>
<polygon fill="#63b8ff" stroke="#63b8ff" points="139.47,-67.73 130.4,-73.2 140.91,-74.58 139.47,-67.73"/>
</a>
</g>
</g>
<!-- Node4 -->
<g id="Node000004" class="node">
<title>Node4</title>
<g id="a_Node000004"><a xlink:href="structboost_1_1CopyConstructible.html" target="_top" xlink:title="Go to http://www.sgi.com/tech/stl/CopyConstructible.html.">
<polygon fill="white" stroke="#666666" points="155.12,-56.25 4.12,-56.25 4.12,-37 155.12,-37 155.12,-56.25"/>
<text text-anchor="middle" x="79.62" y="-42.75" font-family="FreeSans" font-size="10.00">boost::CopyConstructible&lt; T &gt;</text>
</a>
</g>
</g>
<!-- Node4&#45;&gt;Node2 -->
<g id="edge3_Node000002_Node000004" class="edge">
<title>Node4&#45;&gt;Node2</title>
<g id="a_edge3_Node000002_Node000004"><a xlink:title=" ">
<path fill="none" stroke="#63b8ff" d="M167,-46.62C176.39,-46.62 185.81,-46.62 194.84,-46.62"/>
<polygon fill="#63b8ff" stroke="#63b8ff" points="167.1,-43.13 157.1,-46.63 167.1,-50.13 167.1,-43.13"/>
</a>
</g>
</g>
<!-- Node5 -->
<g id="Node000005" class="node">
<title>Node5</title>
<g id="a_Node000005"><a xlink:href="structboost_1_1Assignable.html" target="_top" xlink:title="Go to http://www.sgi.com/tech/stl/Assignable.html.">
<polygon fill="white" stroke="#666666" points="138.62,-19.25 20.62,-19.25 20.62,0 138.62,0 138.62,-19.25"/>
<text text-anchor="middle" x="79.62" y="-5.75" font-family="FreeSans" font-size="10.00">boost::Assignable&lt; T &gt;</text>
</a>
</g>
</g>
<!-- Node5&#45;&gt;Node2 -->
<g id="edge4_Node000002_Node000005" class="edge">
<title>Node5&#45;&gt;Node2</title>
<g id="a_edge4_Node000002_Node000005"><a xlink:title=" ">
<path fill="none" stroke="#63b8ff" d="M139.95,-22.04C157.61,-25.74 177,-29.8 194.86,-33.54"/>
<polygon fill="#63b8ff" stroke="#63b8ff" points="140.91,-18.67 130.4,-20.05 139.47,-25.52 140.91,-18.67"/>
</a>
</g>
</g>
</g>
</svg>
