<?xml version="1.0" encoding="UTF-8" standalone="no"?>
<!DOCTYPE svg PUBLIC "-//W3C//DTD SVG 1.1//EN"
 "http://www.w3.org/Graphics/SVG/1.1/DTD/svg11.dtd">
<!-- Generated by graphviz version 11.0.0 (20240428.1522)
 -->
<!-- Title: DGtal::SimpleAssociativeCategory Pages: 1 -->
<svg width="671pt" height="174pt"
 viewBox="0.00 0.00 670.50 173.50" xmlns="http://www.w3.org/2000/svg" xmlns:xlink="http://www.w3.org/1999/xlink">
<g id="graph0" class="graph" transform="scale(1 1) rotate(0) translate(4 169.5)">
<title>DGtal::SimpleAssociativeCategory</title>
<!-- Node1 -->
<g id="Node000001" class="node">
<title>Node1</title>
<g id="a_Node000001"><a xlink:title=" ">
<polygon fill="#999999" stroke="#666666" points="468,-100.5 339.5,-100.5 339.5,-70 468,-70 468,-100.5"/>
<text text-anchor="start" x="347.5" y="-87" font-family="FreeSans" font-size="10.00">DGtal::SimpleAssociative</text>
<text text-anchor="middle" x="403.75" y="-75.75" font-family="FreeSans" font-size="10.00">Category</text>
</a>
</g>
</g>
<!-- Node4 -->
<g id="Node000004" class="node">
<title>Node4</title>
<g id="a_Node000004"><a xlink:href="structDGtal_1_1MultisetAssociativeCategory.html" target="_top" xlink:title=" ">
<polygon fill="white" stroke="#666666" points="649.75,-165.5 516.75,-165.5 516.75,-135 649.75,-135 649.75,-165.5"/>
<text text-anchor="start" x="524.75" y="-152" font-family="FreeSans" font-size="10.00">DGtal::MultisetAssociative</text>
<text text-anchor="middle" x="583.25" y="-140.75" font-family="FreeSans" font-size="10.00">Category</text>
</a>
</g>
</g>
<!-- Node1&#45;&gt;Node4 -->
<g id="edge3_Node000001_Node000004" class="edge">
<title>Node1&#45;&gt;Node4</title>
<g id="a_edge3_Node000001_Node000004"><a xlink:title=" ">
<path fill="none" stroke="#63b8ff" d="M450.81,-105.34C467.44,-112.3 486.44,-119.95 504,-126.25 511.89,-129.08 520.3,-131.88 528.57,-134.52"/>
<polygon fill="#63b8ff" stroke="#63b8ff" points="452.23,-102.14 441.66,-101.46 449.51,-108.58 452.23,-102.14"/>
</a>
</g>
</g>
<!-- Node5 -->
<g id="Node000005" class="node">
<title>Node5</title>
<g id="a_Node000005"><a xlink:href="structDGtal_1_1SetAssociativeCategory.html" target="_top" xlink:title=" ">
<polygon fill="white" stroke="#666666" points="659.88,-116.88 506.62,-116.88 506.62,-97.62 659.88,-97.62 659.88,-116.88"/>
<text text-anchor="middle" x="583.25" y="-103.38" font-family="FreeSans" font-size="10.00">DGtal::SetAssociativeCategory</text>
</a>
</g>
</g>
<!-- Node1&#45;&gt;Node5 -->
<g id="edge4_Node000001_Node000005" class="edge">
<title>Node1&#45;&gt;Node5</title>
<g id="a_edge4_Node000001_Node000005"><a xlink:title=" ">
<path fill="none" stroke="#63b8ff" d="M479.48,-94.51C488.38,-95.62 497.47,-96.74 506.39,-97.85"/>
<polygon fill="#63b8ff" stroke="#63b8ff" points="480.19,-91.07 469.83,-93.32 479.33,-98.02 480.19,-91.07"/>
</a>
</g>
</g>
<!-- Node6 -->
<g id="Node000006" class="node">
<title>Node6</title>
<g id="a_Node000006"><a xlink:href="structDGtal_1_1UnorderedMultisetAssociativeCategory.html" target="_top" xlink:title=" ">
<polygon fill="white" stroke="#666666" points="646.75,-79.5 519.75,-79.5 519.75,-49 646.75,-49 646.75,-79.5"/>
<text text-anchor="start" x="527.75" y="-66" font-family="FreeSans" font-size="10.00">DGtal::UnorderedMultiset</text>
<text text-anchor="middle" x="583.25" y="-54.75" font-family="FreeSans" font-size="10.00">AssociativeCategory</text>
</a>
</g>
</g>
<!-- Node1&#45;&gt;Node6 -->
<g id="edge5_Node000001_Node000006" class="edge">
<title>Node1&#45;&gt;Node6</title>
<g id="a_edge5_Node000001_Node000006"><a xlink:title=" ">
<path fill="none" stroke="#63b8ff" d="M479.39,-76.42C492.71,-74.84 506.46,-73.22 519.41,-71.68"/>
<polygon fill="#63b8ff" stroke="#63b8ff" points="479.35,-72.9 469.83,-77.55 480.18,-79.85 479.35,-72.9"/>
</a>
</g>
</g>
<!-- Node7 -->
<g id="Node000007" class="node">
<title>Node7</title>
<g id="a_Node000007"><a xlink:href="structDGtal_1_1UnorderedSetAssociativeCategory.html" target="_top" xlink:title=" ">
<polygon fill="white" stroke="#666666" points="662.5,-30.5 504,-30.5 504,0 662.5,0 662.5,-30.5"/>
<text text-anchor="start" x="512" y="-17" font-family="FreeSans" font-size="10.00">DGtal::UnorderedSetAssociative</text>
<text text-anchor="middle" x="583.25" y="-5.75" font-family="FreeSans" font-size="10.00">Category</text>
</a>
</g>
</g>
<!-- Node1&#45;&gt;Node7 -->
<g id="edge6_Node000001_Node000007" class="edge">
<title>Node1&#45;&gt;Node7</title>
<g id="a_edge6_Node000001_Node000007"><a xlink:title=" ">
<path fill="none" stroke="#63b8ff" d="M446.47,-65.03C464.03,-56.86 484.81,-47.64 504,-40.25 512.38,-37.02 521.38,-33.87 530.18,-30.95"/>
<polygon fill="#63b8ff" stroke="#63b8ff" points="445.46,-61.63 437.9,-69.05 448.44,-67.97 445.46,-61.63"/>
</a>
</g>
</g>
<!-- Node2 -->
<g id="Node000002" class="node">
<title>Node2</title>
<g id="a_Node000002"><a xlink:href="structDGtal_1_1AssociativeCategory.html" target="_top" xlink:title=" ">
<polygon fill="white" stroke="#666666" points="303.5,-94.88 165.25,-94.88 165.25,-75.62 303.5,-75.62 303.5,-94.88"/>
<text text-anchor="middle" x="234.38" y="-81.38" font-family="FreeSans" font-size="10.00">DGtal::AssociativeCategory</text>
</a>
</g>
</g>
<!-- Node2&#45;&gt;Node1 -->
<g id="edge1_Node000001_Node000002" class="edge">
<title>Node2&#45;&gt;Node1</title>
<g id="a_edge1_Node000001_Node000002"><a xlink:title=" ">
<path fill="none" stroke="#63b8ff" d="M315.22,-85.25C323.25,-85.25 331.32,-85.25 339.14,-85.25"/>
<polygon fill="#63b8ff" stroke="#63b8ff" points="315.45,-81.75 305.45,-85.25 315.45,-88.75 315.45,-81.75"/>
</a>
</g>
</g>
<!-- Node3 -->
<g id="Node000003" class="node">
<title>Node3</title>
<g id="a_Node000003"><a xlink:href="structDGtal_1_1ContainerCategory.html" target="_top" xlink:title=" ">
<polygon fill="white" stroke="#666666" points="129.25,-94.88 0,-94.88 0,-75.62 129.25,-75.62 129.25,-94.88"/>
<text text-anchor="middle" x="64.62" y="-81.38" font-family="FreeSans" font-size="10.00">DGtal::ContainerCategory</text>
</a>
</g>
</g>
<!-- Node3&#45;&gt;Node2 -->
<g id="edge2_Node000002_Node000003" class="edge">
<title>Node3&#45;&gt;Node2</title>
<g id="a_edge2_Node000002_Node000003"><a xlink:title=" ">
<path fill="none" stroke="#63b8ff" d="M140.78,-85.25C148.81,-85.25 156.96,-85.25 164.91,-85.25"/>
<polygon fill="#63b8ff" stroke="#63b8ff" points="141.04,-81.75 131.04,-85.25 141.04,-88.75 141.04,-81.75"/>
</a>
</g>
</g>
</g>
</svg>
