<?xml version="1.0" encoding="UTF-8" standalone="no"?>
<!DOCTYPE svg PUBLIC "-//W3C//DTD SVG 1.1//EN"
 "http://www.w3.org/Graphics/SVG/1.1/DTD/svg11.dtd">
<!-- Generated by graphviz version 11.0.0 (20240428.1522)
 -->
<!-- Title: DGtal::Splitter&lt; TElement, TWord &gt; Pages: 1 -->
<svg width="395pt" height="113pt"
 viewBox="0.00 0.00 394.75 112.88" xmlns="http://www.w3.org/2000/svg" xmlns:xlink="http://www.w3.org/1999/xlink">
<g id="graph0" class="graph" transform="scale(1 1) rotate(0) translate(4 108.88)">
<title>DGtal::Splitter&lt; TElement, TWord &gt;</title>
<!-- Node1 -->
<g id="Node000001" class="node">
<title>Node1</title>
<g id="a_Node000001"><a xlink:title=" ">
<polygon fill="#999999" stroke="#666666" points="132.25,-61.88 0,-61.88 0,-31.38 132.25,-31.38 132.25,-61.88"/>
<text text-anchor="start" x="8" y="-48.38" font-family="FreeSans" font-size="10.00">DGtal::Splitter&lt; TElement,</text>
<text text-anchor="middle" x="66.12" y="-37.12" font-family="FreeSans" font-size="10.00"> TWord &gt;</text>
</a>
</g>
</g>
<!-- Node2 -->
<g id="Node000002" class="node">
<title>Node2</title>
<g id="a_Node000002"><a xlink:href="structDGtal_1_1Splitter.html" target="_top" xlink:title=" ">
<polygon fill="white" stroke="#666666" points="386.75,-104.88 265,-104.88 265,-74.38 386.75,-74.38 386.75,-104.88"/>
<text text-anchor="start" x="273" y="-91.38" font-family="FreeSans" font-size="10.00">DGtal::Splitter&lt; DGtal</text>
<text text-anchor="middle" x="325.88" y="-80.12" font-family="FreeSans" font-size="10.00">::PointVector, uint64_t &gt;</text>
</a>
</g>
</g>
<!-- Node1&#45;&gt;Node2 -->
<g id="edge1_Node000001_Node000002" class="edge">
<title>Node1&#45;&gt;Node2</title>
<g id="a_edge1_Node000001_Node000002"><a xlink:title=" ">
<path fill="none" stroke="orange" stroke-dasharray="5,2" d="M143.66,-60.49C145.88,-60.88 148.08,-61.26 150.25,-61.62 188.24,-68.1 230.95,-74.95 264.62,-80.26"/>
<polygon fill="orange" stroke="orange" points="144.39,-57.07 133.94,-58.8 143.19,-63.96 144.39,-57.07"/>
</a>
</g>
<text text-anchor="start" x="150.25" y="-89.62" font-family="FreeSans" font-size="10.00" fill="grey"> &lt; DGtal::PointVector,</text>
<text text-anchor="middle" x="198.62" y="-78.38" font-family="FreeSans" font-size="10.00" fill="grey"> uint64_t &gt;</text>
</g>
<!-- Node3 -->
<g id="Node000003" class="node">
<title>Node3</title>
<g id="a_Node000003"><a xlink:href="structDGtal_1_1Splitter.html" target="_top" xlink:title=" ">
<polygon fill="white" stroke="#666666" points="385.25,-56.25 266.5,-56.25 266.5,-37 385.25,-37 385.25,-56.25"/>
<text text-anchor="middle" x="325.88" y="-42.75" font-family="FreeSans" font-size="10.00">DGtal::Splitter&lt; Point &gt;</text>
</a>
</g>
</g>
<!-- Node1&#45;&gt;Node3 -->
<g id="edge2_Node000001_Node000003" class="edge">
<title>Node1&#45;&gt;Node3</title>
<g id="a_edge2_Node000001_Node000003"><a xlink:title=" ">
<path fill="none" stroke="orange" stroke-dasharray="5,2" d="M143.86,-46.62C183.03,-46.62 229.93,-46.62 266.17,-46.62"/>
<polygon fill="orange" stroke="orange" points="144.01,-43.13 134.01,-46.63 144.01,-50.13 144.01,-43.13"/>
</a>
</g>
<text text-anchor="middle" x="198.62" y="-48.38" font-family="FreeSans" font-size="10.00" fill="grey"> &lt; Point &gt;</text>
</g>
<!-- Node4 -->
<g id="Node000004" class="node">
<title>Node4</title>
<g id="a_Node000004"><a xlink:href="structDGtal_1_1Splitter.html" target="_top" xlink:title=" ">
<polygon fill="white" stroke="#666666" points="382.62,-19.25 269.12,-19.25 269.12,0 382.62,0 382.62,-19.25"/>
<text text-anchor="middle" x="325.88" y="-5.75" font-family="FreeSans" font-size="10.00">DGtal::Splitter&lt; Key &gt;</text>
</a>
</g>
</g>
<!-- Node1&#45;&gt;Node4 -->
<g id="edge3_Node000001_Node000004" class="edge">
<title>Node1&#45;&gt;Node4</title>
<g id="a_edge3_Node000001_Node000004"><a xlink:title=" ">
<path fill="none" stroke="orange" stroke-dasharray="5,2" d="M143.64,-32.42C145.87,-32.06 148.07,-31.71 150.25,-31.38 189.81,-25.29 234.61,-19.74 268.92,-15.76"/>
<polygon fill="orange" stroke="orange" points="143.19,-28.94 133.9,-34.03 144.34,-35.85 143.19,-28.94"/>
</a>
</g>
<text text-anchor="middle" x="198.62" y="-32.38" font-family="FreeSans" font-size="10.00" fill="grey"> &lt; Key &gt;</text>
</g>
</g>
</svg>
